<svg xmlns="http://www.w3.org/2000/svg" width="49" height="55" fill="none" viewBox="0 0 49 55">
    <path fill="#FEBA3D" d="M33.343 47.946l-.078.184c-.538-.01-.64.49-.925.913-.974 1.543-2.453 2.224-4.13 2.603-1.548.327-3.163.299-4.755-.044l-.038.092-.093-.039c-.238-.208-.684-.179-.883-.48 0 0-.092-.038-.053-.13-1.728-1.051-2.777-2.685-3.526-4.518-.748-1.833-.381-3.74.631-5.375.935-1.451 1.778-2.941 3.519-3.728.916-.375 1.794-.657 2.793-.454 1.184.28 2.324-.109 3.614.434 3.543 1.379 5.54 5.146 4.36 8.99.043.668-.558 1.067-.436 1.552z"/>
    <path fill="#FE7415" d="M23.096 8.824c-2.269 2.3-5.32 1.561-6.782-.897-.598-.902-.672-2.017-.745-3.133l.852-2.028c1.256-.666 2.458-1.462 3.927-1.604l.461.193.107.262c-.038.093-.038.093.015.223.015.224-.024.316-.155.37-.039.091-.13.053-.13.053-.17.145-.263.107-.263.107s-.092-.04-.13.053c-.093-.039-.224.015-.316-.024-.184-.077-.407-.063-.577.083l-.078.184c-.038.093-.038.093.015.224-.116.276-.378.383-.586.621-1.604 1.495-1.418 3.634.625 4.71.092.038.184.077.33.247 0 0 .092.038.145.17l.054.13c.053.131.2.3.33.247.8-.097 1.586-.418 2.386-.516l.092.039.093.038c.223-.014.276.117.33.248z"/>
    <path fill="#FED17E" d="M22.391 2.237c-.13.053-.13.053 0 0-.392.16-.669.044-.945-.072l-.185-.077-.184-.078s-.093-.039-.146-.17c-.092-.038-.146-.17-.2-.3.04-.092.04-.092.078-.185l1.568.659c-.04.092-.078.184.014.223z"/>
    <path fill="#FEBA3D" d="M22.804 8.484c-.038.092-.13.054-.17.146-.824.413-1.624.51-2.424.608-.316-.024-.253-.431-.345-.47-.092-.039-.092-.039-.223.015-.883-.48-1.922-.59-2.102-1.968-.303-1.862-.085-2.638 1.403-3.857.131-.054.209-.238.286-.423.039-.092.13-.053.17-.145.13-.054.354-.068.577-.083.092.039.315.024.446-.03.131-.053.223-.014.354-.068.092.039.223-.015.393-.16.13-.054.17-.146.208-.238l.83.348.092.04c1.758 1.497 2.075 3.582.946 5.494l-.039.092c.16.393-.14.592-.402.7z"/>
    <path fill="#FEB93D" d="M42.796 24.149c-.34.291-.825.413-1.31.534-1.751-.735-2.072-1.521-1.006-3.026.13-.053.262-.107.431-.252 0 0 .093.038.131-.054.131-.053.262-.107.286-.422 1.722.29 2.15 1.337 1.468 3.22z"/>
    <path fill="#FE7A17" d="M41.487 24.683c-1.062.204-1.868-.46-2.073-1.521-.112-1.024.59-1.922 1.575-1.942.053.13.053.13.015.223-.039.092-.078.184-.209.238-1.003 1.097-.959 1.766.216 2.585.277.116.33.247.476.417z"/>
    <path fill="#FEA25E" d="M23.094 8.823l-.277-.117-.184-.077.039-.092c.247-.33.324-.515.532-.753.554.233.607.364-.11 1.039z"/>
    <path fill="#FE7315" d="M42.798 24.15c-.325.514-.664.805-1.31.534.379-.383.864-.505 1.31-.534z"/>
    <path fill="#FE8D2F" d="M41.636 21.492c-.116.277-.524.214-.747.23l.078-.185.116-.277c.131-.053.17-.146.3-.199.093.039.37.155.253.431z"/>
    <path fill="#FE7515" d="M21.59 45.718c-.465 1.106.38 1.678.962 2.356.437.51 1.252.635 1.22 1.488-2.49-1.045-3.997-4.173-3.082-6.608.155-.37.203-1 .795-.86.5.102.044.67.02.985.044.67-.135 1.353.002 2.061.238.209.291.34.083.578z"/>
    <path fill="#FE7717" d="M22.161 44.874l.194-.461c.17-.146.34-.292.577-.083.238.208.214.523.282.878.054.13-.024.315-.062.407.088 1.339 1.218 1.488 2.01 1.929.276.116.8-.098.66.494-.102.5-.563.306-.97.244-1.446-.174-2.514-.73-2.748-2.24-.16-.392-.228-.746.057-1.168z"/>
    <path fill="#FE7A18" d="M30.29 41.023c-1.607-.566-2.995-1.909-4.717-2.198-.093-.04-.146-.17-.16-.393 2.031-.448 3.497.71 5.002 1.776.238.208.383.378.452.732-.194.46-.34.291-.578.083z"/>
    <path fill="#FEC55C" d="M23.242 45.654l-.107-.262c.232-.553.227-1.315.828-1.713l.13-.054c.792.441 1.209-.035 1.441-.588.155-.369.363-.606.717-.675.223-.014.316.024.33.247.122.485-.178.684-.387.922-.378.384-.664.806-.857 1.267-.364.607-1.15.928-2.095.856z"/>
    <path fill="#FE9226" d="M22.892 44.425c-.13.053-.315-.024-.446.03.771-.545.42-1.776 1.1-2.36.33.248.082.578.19.84.145.17.067.354.082.577-.247.33-.402.699-.926.913z"/>
    <path fill="#FE801B" d="M31.752 42.179c.306.562.39 1.14.356 1.993-.621-.586-.665-1.256-.656-1.794-.015-.223.116-.277.3-.2z"/>
    <path fill="#FE7F1A" d="M31.753 42.18l-.392.16c-.214-.524-.767-.756-1.112-1.226.184.077.369.155.538.009.5.101.884.48.966 1.056z"/>
    <path fill="#FED895" d="M22.16 44.873c.069.354.045.67.074 1.116-.261.107-.538-.01-.645-.271-.015-.223-.068-.354-.083-.577.17-.146.432-.253.655-.268z"/>
    <path fill="#FEE1AD" d="M23.673 43.342c.078-.184.117-.276.102-.5.17-.145.27-.645.509-.436.291.339-.18.684-.242 1.091-.17.146-.262.107-.369-.155z"/>
    <path fill="#FE821E" d="M24.77 38.92c-.261.108-.562.307-.732.453-.223.014-.354.068-.46-.194.339-.291.586-.622 1.124-.612-.077.184.015.223.068.354z"/>
    <path fill="#FE7716" d="M24.768 38.922c-.054-.131-.107-.262-.2-.3.262-.108.578-.084.84-.19l.16.392c-.223.015-.577.083-.8.098z"/>
    <path fill="#FE9528" d="M23.448 39.233l.46.194c-.3.199-.547.53-.838.19-.054-.131.154-.369.378-.384z"/>
    <path fill="#FEAC35" d="M26.65 40.903c-.248.33-.51.437-.878.282.247-.33.509-.437.877-.282z"/>
    <path fill="#FE9D2B" d="M26.302 47.155c-.339.291-.484.122-.722-.087.262-.107.485-.121.723.087z"/>
    <path fill="#FECB6C" d="M23.77 49.563c.146.17.291.339.568.455-.131.053-.17.146-.262.107-.407-.063-.422-.286-.306-.563z"/>
    <path fill="#FEA02E" d="M20.42 2.276c-.325.515-.733.452-1.194.258-.276-.116-.422-.286-.03-.446.394-.16.855.033 1.223.188z"/>
    <path fill="#FE9E2D" d="M21.341 1.902c.268.655.268.655-.916.375.3-.2.286-.423.31-.738.277.116.46.194.607.363z"/>
    <path fill="#FE871F" d="M19.588 8.652c.694-.36.762-.006.622.586-.902.598-.306-.562-.622-.586z"/>
    <path fill="#FEC257" d="M23.672 43.343l.46.193c-.455.568-.45 1.33-1.05 1.728-.069-.354-.084-.577-.152-.931.155-.369.402-.699.742-.99z"/>
</svg>
