<svg xmlns="http://www.w3.org/2000/svg" width="89" height="92" fill="none" viewBox="0 0 89 92">
    <path fill="#FE9147" d="M1 60.822l-1-1v-1c.1-.2.3-.4.6-.2.2.2.2.7.3.6.4-.2.8-.3.8.3s.1 1.2-.7 1.3z"/>
    <path fill="#FE9F5F" d="M28.702 91.522c0 .1 0 .1-.1.2h-1.2v-.3c.5-.3.9-.4 1.3.1z"/>
    <path fill="#FE7213" d="M1.002 60.824c.4-.4.5-.9.5-1.5-.4 0-.4.6-.9.5-.2-.4-.1-.8-.1-1.3s.6-.8.4-1.4c0-.3.4-.5.1-.8-.6-.6 0-1 .3-1.3 1.5-1.8 3.2-3.6 4.9-5.1 1.3-1.1 2.5-2.4 3.7-3.6.3-.3.7-.6 1-.9.4-.2.7-.5 1-.8.7-.2 1.3-.7 1.7-1.3 1.3-1.7 3.1-3 4.6-4.6.2-.5.7-.7 1-1.1.1-.1.2-.2.4-.3-.2 0-.3.2-.4.3-.3.4-.8.6-1.3.7-3 1.7-6.1 3.5-9.1 5.2-1.1.6-2.3 1.2-3.6.4-.1-.3 0-.7-.3-.7-1.5-.3-1.8-1.7-2.4-2.8-.7-.6-.2-.9.3-1.3.2-.6.5-1.1 1.1-1.3.1-.2.3-.5.4-.8l.3-.6c.5-.6.9-1.3 1.6-1.6.2-.1.3-.2.5-.3.9-.4 1.7-.9 2.8-.7.8.1 1.5-.7 2.2-1.2.4-.4 1-.6 1.3-1.2.1-.1.2-.3.3-.3.6-.3.9-.8 1.1-1.4 0-.1.1-.2.2-.3.5-.6 1-1.2 1.8-1.3 1.2.5 1.4-.8 2.1-1.1-.6.1-1.1.6-1.7.7-.8 0-1-.4-.5-.9.8-.8 1.2-1.7 2.1-2.4.3-.2.5-.5.9-.5 1.1.1.8-1.1 1.4-1.5l.6-.6c.3-.2.6-.5.7-.9.3-.4.8-.6 1.2-.9.3-.2.6-.4.8-.8.4-.5 1.1-.8 1.6-1.6-.8-.1-1.4.1-2 .4-.2.1-.4.3-.7.5-.2.1-.4.2-.6.2-.2-.1-.3-.2-.3-.4 0-.4.2-.6.5-.9.3-.3.7-.7 1-1.1.3-.3.5-.6.8-.8 1.4-1.7 3.3-2.8 5-3.8-1.6.8-3.1 2.1-4.7 3.3-.6.6-1.4 1-2 1.5-.3.3-.7.5-1 .8-.2.2-.5.4-.8.5-.5-.1-.9.2-1.3.6-.1.1-.2.1-.3.2-.2.1-.4.3-.6.5-.1.1-.2.2-.4.3-.4.2-.7.7-1.3.7-.3-.1-.3-.3-.3-.6.5-.8 1.2-1.5 1.9-2 .3-.2.3-.4.3-.6.2-.3.4-.7.7-.9.2-.1.4-.2.7-.3 1.2-.9 2.4-1.9 3.7-2.6 1-.5 1.9-1.1 2.9-1.6s2-1 2.8-1.8c.2-.1.4-.3.6-.4l.6-.3c.7 0 1.4-.6 2.2-1 .6-.3 1.2-.7 1.8-.9.6.1 1 0 1.5-.3.6-.5 1.2-.8 1.9-.8 1.9-.2 3.1-1.5 4.5-2.6.5-.4 1.2-.4 1.7-.9-.8.1-1.4.3-1.8 1-1.5.8-3 1.5-4.6 1.8-.9.5-2 .7-2.8 1.4-.6.6-1.5.7-2.2 1.1-.7.3-1.2.7-1.9 1-.4 0-.8-.2-.7-.7 3.3-2.3 6.6-4.6 10.3-6.2 2.4-1 4.8-2.1 7.6-1.9.2.4.5.6.8.7.7.2.9.6 1 1.3.4.4.3.9.6 1.3.4.6.7 1.3-.3 1.8-.4.2-.7.6-.2 1.1 0 .3.3.5.2.8-.4 1-1.1 1.9-1.8 2.7.2.3.4 0 .5 0 2-.7 3.9-1.6 5.9-2.1.5 0 1-.3 1.2.3 0 .1 0 .1.1.2.2.2.4.5.5.7 1.1-.2 2 .4 3 .8 0 .7.3 1.4-.2 2-.2.1-.1.4-.3.5-.4.4 0 1-.2 1.4.1.3.1.6.2.8 0 .1 0 .2.1.3.2.7-.3 1-.7 1.3-.6.3-1.2.6-1.7 1.1-1.4 1.2-2.6 2.7-3.9 3.9-.6.6-1.3 1.2-2 1.7-.3.2-.5.5-.8.7.6-.2 1-.6 1.4-1.1 2-1.5 4.2-2.6 6.3-3.8 1.1-.6 2.3-1.3 3.5-1.7.3 0 .5-.1.7-.3.3-.1.6-.2.8-.1.3 0 .7-.1 1-.2 1.1-.2 1.5-1 2-1.8 1.6-1.6 3.7-1.9 5.8-2.2.6.2-.6.8.2 1 1-.3 1.5.1 1.7 1.1 0 .3 0 .6-.1.8.4 0 .2-.4.4-.5.1-.1.1-.2.2-.3.1-.1.3-.2.5-.1.1.2.2.5.3.7.3.6.5 1.2 0 1.8-.4.4-.3.8 0 1.2-.2.4-.3.7-.5 1.1.1.1.3.1.4.1 2-1.4 4.3-1.9 6.5-2.8 1-.4 2-.7 2.7.6.4.7 1.3.7 1.9 1.4.3.4.5.7.5 1.2.1.2.1.5 0 .7-.1.2-.2.3-.4.4-1.8 0-3.2.9-4.6 1.8-.6.4-1.3.7-2 .9-.4.1-.8.2-1-.1-.3-.4.2-.6.3-.8.2-.2.4-.4.4-.8-.6.4-1.2 1.1-1.8-.1-.2-.4-.5-.1-.8 0-.5.2-1 .5-1.6.7-.7.2-1.1.9-1.8 1.1-.4.1-.8.5-1.2.5.4.1.9-.6 1.2.1 0 .5-.4.7-.8.9-1.3 1-2.7 1.9-4.1 2.8-.3.2-.6.5-.9.8-.7.6-1.4 1-2.3.7-.7-.2-1.1.2-1.6.5-.4.2-.6.4-.8.8-.1.1-.2.2-.4.3-1.4 0-1.8 1.1-2.6 2-.5.6-1.2.8-1.8 1.2-.3.1-.6.3-.8.5-.3.3-.6.5-.9.8-1.9 1.1-3.7 2.3-5.3 3.7-2.8 1.8-5.3 4.1-7.9 6.2-.4.3-.8.6-1.3.8-.8.2-1.4.6-1.9 1.2-.6.8-1.6.9-2.3 1.6-.1.1-.2.3-.3.4-1.2 1-2.3 2-3.5 2.8-1.4 1.2-3 2.2-4.2 3.6-1.4 1.6-3.5 2.3-5.2 3.4-1 .6-1.9 1.4-2.9 2.1-.5.3-1 .7-1.3 1.2-.1.1-.2.3-.3.4-.3.5-1 .8-.4 1.6.1.2-.1.5-.3.8l-.3.3c.3.1.4-.2.6-.2.3-.3.5-.7.9-1 .2-.1.4-.2.7-.2.3.1.3.3.3.6-.4 1.3-1 2.4-2 3.4-1.1 1.3-2.7 2.2-3.8 3.7-.4.5-.9 1-1.5 1.3-.3.2-.5.4-.8.5-.8.3-1.5.9-2.1 1.5-.4.4-.9.8-1.4 1.1-.6-.1-1.2.6-1.8-.2-.1-.2-.4-.3-.5-.6-.3-.4-.7-.1-1 0-.9.2-1.3-.1-1.8-.9-1.7-2.3-.5-4.2.5-6 1-2 2.5-3.7 4.1-5.3.7-.7 1.5-1.4 2.1-2.2 0-.4.2-.6.5-.8.2-.4.4-.7.6-1 .5-.4.8-1 1.6-.9.5.4.9.3 1.3-.1 1-.8 1.9-1.7 2.7-2.7.7-1 1.7-1.5 2.6-2.2.4-.3.7-.5 1-.9.2-.2.5-.5.8-.7.2-.1.4-.2.5-.5-.1.3-.4.4-.5.5-.3.2-.6.5-.9.8-.3.3-.5.7-1 .4-.2-.5.2-.7.3-1.1.1-.3.3-.5-.2-.5-.2 0-.5 0-.7-.2v-.3c.1-.2.2-.3.4-.4-.2.1-.4.2-.5.4-.4.4-.9.7-1.3 1.1-1.8 1.4-3.7 2.8-5.5 4.2-.4.2-.8.3-1.2-.1-.3-.8.2-1.3.6-1.8.2-.3.4-.6.7-.8.7-.6 1.2-1.4 2.1-1.7.2 0 .4.3.7.1 1-1 2-2.1 3.1-2.9.6-1.2 1.8-1.8 2.8-2.7.6-.6 1.3-1.2 1.7-1.9.3-.3.6-.6.8-1 .2-.3.4-.5.7-.7.3-.2.6-.5.9-.7.5-.4 1.1-.6.9-1.4.5-.8 1.4-1.1 2.1-1.6 1.8-1.1 3.3-2.4 4.7-3.9.1-.1.3-.2.4-.4 1.2-.8 2.2-1.8 3.1-3 .1-.1.2-.2.4-.3.5-.3.8-.8 1-1.3.1-.1.2-.1.3-.2.8-.2 1.3-.9 2-1.2 1.7-1.4 3.3-2.8 4.5-4.7.7-1.1 1.9-1.7 2.7-2.7.2-.1.5 0 .7-.2.3-.2.5-.5.7-.8.3-.4.6-.8.5-1.3v-.7c0-1.5-.6-2.1-2.1-2-1.9.1-3.7.8-5.5 1.6-.3.2-.7.3-1 .5-.2.1-.2.1-.1.3.1.4-.1.6-.4.7-2.8.7-4.8 3-7.6 3.5-.6.1-1.1.6-1.6 1-.6.5-1.2 1-1.9 1.4-.7.4-1.4.8-1.6 1.7-.2.8-1.1 1-1.7 1.5-.2.1-.4.2-.5.4.2-.2.4-.3.6-.5 1-.7 1.9-1.4 2.9-2.1 2.1-1.2 4.2-2.3 6.2-3.7 1.1-.8 2.4-1.1 3.6-1.6 2-.9 4-1.9 6.1-2.6.7-.2 1.6-.7 2.1-.1.5.7-.5 1.3-.9 1.8-1.4 1.6-3 2.9-4.5 4.4-2.9 2.9-6.3 5.3-9.2 8.3-2 2.2-4.2 4.5-7 5.9-.1.1-.3.2-.4.3-1.8 2.4-4.3 4.1-6.4 6.2-2.2 2.1-4.2 4.4-6 6.8-.2.3-.5.5-.7.6-.4.2-.8.5-1.1.8-1.3 1.5-2.5 3-3.6 4.6-.8 1.1-.8 2.3 0 3.1.1.1.1.2 0 .3-1.1.7-2.2 1.1-3.5.8-.5-.8-1.6-.6-2.6-.8-.2-.1-.4-.1-.5-.2z"/>
    <path fill="#FE7213" d="M28.7 91.524c-.4 0-.9 0-1.3-.1-.2-.1-.3-.2-.5-.3-.5-.1-.9-.7-1.5-.5-1 .2-1.7-.4-2-1.2-.3-1-1.2-1.8-.7-3 .4-.3.1-1 .7-1.1 2.7.1 4.8-1.3 6.8-3 .4-.5.8-1 .8-1.7-.3 0-.6.2-.9.2-.5-.1-.7.3-1 .5-.5.3-.9.7-1.3 1-.4.3.2.3.1.5-.7 1-3.4 2.4-4.5 2.4-.4-.8.1-1.6.2-2.4.1-.5.3-.9.7-1.2.7-.1.4.4.4.7.7-.2.8-.9 1.3-1.3.1-.1 0-.1 0-.1-.5-.3-.5-.3-.4-1 .1-.2.3-.3.4-.5 1.6-.5 2.8-1.6 3.4-3.1.3-.6.9-1.1 1.5-1.5-1.1.1-1.9.7-2.8 1.1-.3.1-.5.3-.5.6-.9.7-2 .3-2.9.5-.6.3-1.1 1-1.7 0 .1-1.2 1-2 1.7-2.8.7-.9 1.6-1.8 2.5-2.5.7-.4 1.3-1.1 1.9-1.6.8-.8 1.3-1.8 2.1-2.6.5-.4 1.1-.7 1.4-1.4.7-1 1.6-1.7 2.5-2.4 2.4-1.7 4.6-3.5 6.8-5.5 1.8-1.7 3.7-3.3 5.7-4.8.7-.6 1.4-1.4 2.3-1.7.8.1 1-.5 1.3-1 .6-.8 1.6-1 2.3-1.6 2.4-2.1 4.8-4.1 7.3-6 .9-.7 1.7-1.4 1.4-2.7-.4-.8-.9-.9-1.6-.4-2.4.8-4.3 2.3-6.5 3.5-.6.3-1.2.8-1.8 1.1-.4.2-.8.5-1.1.8-.1.1-.3.2-.4.3-1.9.3-3.3 1.7-4.8 2.7-1.9 1.6-4.1 2.9-5.9 4.6 0 .1-.2.1-.1.2 0-.1.1-.1.1-.2.2-.2.5-.3.8-.2.5.2.3.6.1.9-.1.2-.2.3-.4.4-.9 1.1-2.3 1.2-3.5 1.5-.8.3-1.6.7-2.4 1-.4.1-.7.2-1 .4-.2.1-.5.3-.7.5-.1.1-.2.1-.3.2-1.5 1-2.7 2.2-4.3 3.1-.1 0-.2.1-.3.1-.2 0-.4 0-.5-.2-.1-.6.3-.8.7-1.2.7-.4 1.2-1 1.8-1.6 1.3-1.1 2.7-2 4.1-3 .5-.3.9-.7 1.2-1.2 0-.1.1-.1.2-.1-.1 0-.2.1-.3.1-.1.1-.3.2-.4.2-.3-.1-.3-.3-.3-.5s.1-.4.2-.6c0-.6.2-1.2.9-1.5.2-.1.5-.2.7-.3.3 0 .6-.1.8-.3.2-.1.4-.2.6-.1.3.1.6.2.8 0 .9-.7 2.1-1.1 2.7-2.3.1-.3.3-.5.6-.6.6 0 1.2-.2 1.6-.7.1-.1.2-.1.3-.2h.3c.1.1.2.3.4.2.5-.3.7-.8.9-1.2.3-.5.8-.7 1.2-1.1.3-.4 1-.5 1-1.2.1-.2.2-.3.4-.3.5-.1 1.1.4 1.6-.2l.6-.6c.4-.4.8-.7 1.2-1.1 1.6-.6 2.7-1.7 3.9-2.9 1-1.1 2.5-1.8 3.6-2.8.5-.4.9-1 1.6-1.2.3-.1.7-.3 1 0 .3.4-.1.7-.3.9l-.7.7c-.3.3-.6.4-.8.8-.2.4-.2.7 0 1.1.2.4.5.3.9.3.6-.1 1.2-.2 1.8-.5 2.1-1.5 4.4-2.7 6.4-4.3 1.2-.9 2.7-1.3 4-2.2 2.3-1.6 4.5-3.2 6.8-4.9 1.8-1.2 3.8-1.8 5.6-3 .5-.3.8-.6.6-1.2.5-.3.7-1 1.5-.7.3 2-1.3 3-2.4 4.2-1.2 1.3-2.7 2.3-4 3.5-.1.3-.3.6-.6.8 0 .1-.2.1-.1.2s.3-.1.4-.2c.3-.3.8-.1 1.1-.3.7-.4 1.2-.5 1.6.4.4.8 1.5.9 1.4 2.1 0 .4.7-.3 1-.4 1.2 1.8 1.2 1.9.1 3.4-.5.6.6.6.4 1.1-.4 1.3-1.1 2.4-2.1 3.2-1.1.9-2.2 2-3.3 3-.5.1-.8.6-1.1 1-2.5 2.3-5 4.5-7.9 6.4-1.7 1.1-3 2.5-4.3 4-.1.3-.3.5-.6.7-.2.1-.4.3-.6.4h.1c.2-.2.4-.3.6-.4.2-.2.5-.3.8-.4 2.3-1.4 4.5-2.8 6.8-4 2.8-1.5 5.6-3.2 8.8-3.7 1.2-.2 2 .2 2.6 1.1h-.1c.6-.2 1.3-1 1.5.5.1.5 1.2.8.9 1.7-.1.7-.2 1.5.3 2.2.1.2.2.4 0 .6-.4 2.8-1.6 5.1-4.2 6.6-.2.1-.2.4-.4.6-.8.4-1.3 1.2-2 1.7-.5.3-.7.8-1.2 1-2.8 3.3-5.7 6.6-9.2 9.2-.3.1-.6.1-.8.4-.2.2-.5.3-.7.6-2.8 2.4-5.2 5.2-8.1 7.5-.6.3-1.3.4-1.8.9-.4.3-.7.7-1.3.5-.7-.3.2-.8-.2-1.2-1.1.4-2.1 1-3.1 1.5-.4.2-1 .5-.8-.5l.5-.5c-.1.1-.4.3-.7.6-.4.5-.9.7-1.5.8-1 .2-1.2-.1-.9-1.2v-.2c-.2-.4.2-.6.3-.9.3-.4.4-.9.5-1.3.3-.6.6-1.2 1-1.7.7-.8 1.4-1.6 2.2-2.3.6-.6 1.3-1 1.8-1.7.5-.3.3-1 .6-1.5-.4.5-1.1.8-1.6 1.2-.4.3-.7.5-1.1.8-.7.5-1.4.9-2 1.4-.5.1-.7.6-1.1.9-.6.1-.7.8-1.3.9-.2.2-.3.5-.6.7-.2.1-.5.2-.7.3-2 1-3.4 2.7-5.2 4-.4.1-.6.3-.9.6-.4.2-.7.7-1.1.9-4 2.4-7.5 5.6-11.8 7.5-1 .6-1.7.8-2.5.9z"/>
    <path fill="#FE7A20" d="M58.598 80.222c.2-.1.5-.2.5.2s-.5.5-.5 1.1c1.1-.3 1.8-1.6 3.1-1.3-.3.3-.6.7-.8 1-.7.4-1.3 1.5-2 1.1-.8-.5-1 0-1.5.3-.2-.2-.3-.4-.3-.7 0-.3.1-.5.3-.7.3-.4.6-.8 1.2-1z"/>
    <path fill="#FE761A" d="M63 16.925c-.3-.1-.6-.2-.8-.3 1.2-.9 2.4-1.5 3.8-2 0 1-.7 1.8-2 2.1-.4-.4-.6.1-1 .2z"/>
    <path fill="#FE9045" d="M73.5 14.725c-.1-.9-.7-1.2-1.5-1.2.2-.4.8-.2 1.1-.5.3-.2.6-.3.9 0 .3.3.2.5 0 .9-.3.4.1.2.3.3.2.2.2.4 0 .5-.1.1-.2.3-.3.3-.3 0-.4-.2-.5-.3z"/>
    <path fill="#FE812E" d="M86.2 19.725c0-1.1-1-1.4-1.7-1.9-.2-.2-.6-.2-.5-.7.2.1.3.3.5.3.5.1 1.3-.5 1.3-.1 0 .9 1.1 1.4.7 2.3-.1.1-.2.1-.3.1z"/>
    <path fill="#FE7B23" d="M75.001 18.223c-.5-.3-.7-.8-.3-1.2.6-.6.4-1.2.3-1.8.5.6.7 1.2.1 1.9-.2.3 0 .7-.1 1.1z"/>
    <path fill="#FE9D5B" d="M81.7 61.524c.4-.9.9-1.6 2-1.7-.5.7-1 1.5-2 1.7z"/>
    <path fill="#FE8D42" d="M86.198 19.723h.7c.8.6.5 1.1-.2 1.5-.6-.1-.5-.5-.5-.9v-.6z"/>
    <path fill="#FEBD91" d="M80.5 62.625c.3-.5.3-1.2 1.2-1-.1.6-.5 1-1.2 1z"/>
    <path fill="#FE8D47" d="M86.9 21.724c-.6 0-.7.9-1.4.7 0-.5 0-1 .4-1.4.3-.1.5.2.8.2.1 0 .2 0 .3.1-.1.2-.1.3-.1.4z"/>
    <path fill="#FE8837" d="M81.201 29.922c-.3.2-.7.3-1 .5-.4.1-.6-.1-.5-.5.2-.2.5-.3.7-.5.1.4.5.4.8.5z"/>
    <path fill="#FE802A" d="M85.698 36.422c-.2-.4-.7-.4-1.1-.6.1-.4.4-.4.7-.4 0 .4.9.4.4 1z"/>
    <path fill="#FEA060" d="M69.8 72.724c-.3-.6.4-.4.5-.7.3-.2.3 0 .4.2-.2.4-.5.6-.9.5z"/>
    <path fill="#FE8736" d="M59.3 14.425c-1-.1 0-.6-.2-.8.1.3.8.4.2.8z"/>
    <path fill="#FEA56A" d="M59.3 12.223c0-.2.1-.4.3-.5.1.4.7-.1.6.3-.1.5-.6.1-.9.2z"/>
    <path fill="#FE8432" d="M70.7 72.223c-.1-.1-.3-.1-.4-.2.2-.5.6-.5 1-.3-.2.2-.4.4-.6.5z"/>
    <path fill="#FE9148" d="M79.2 43.625c.1-.6.4-1 1.1-1-.3.4-.6.8-1.1 1z"/>
    <path fill="#FE8D41" d="M87.898 52.024c.1-.2.2-.5.3-.7.5 0 .3.3.2.5 0 .3 0 .5-.3.7.1-.1.1-.3-.2-.5z"/>
    <path fill="#FE7B23" d="M74.3 14.723v-.5c.4-.3.5-.1.5.3-.2 0-.4.1-.5.2z"/>
    <path fill="#FE9A56" d="M88.501 51.922c-.1-.2-.2-.4-.2-.5 0-.2-.1-.4.2-.5.1.3.2.6 0 1z"/>
    <path fill="#FE7417" d="M18.7 24.624c-.7.8-1.2 1.7-2.1 2.5-.6.5-.1.5.3.5.2.5-.3.5-.5.7-.7.3-1.1.8-1.6 1.3-.4.3-.7.6-1.1 1l-.2.2c-.5.5-1.4.7-1.5 1.6v.5c-.6.6-1.4 1.2-2.2 1.4-.9.2-1.9-.3-2.6.6 0 0-.3-.1-.4-.2 1-1.3 2.2-2.3 3.5-3.3.7 0 1-.4 1.4-.8.4-.4.9-.8 1.4-1.2.6-.7 1.2-1.4 1.8-2.2 0-.2.2-.4.4-.5.5-.4.8-1 1.4-1.4.3-.2.5-.4.8-.6.3-.2.5-.4.9-.4 0 0 .2.1.3.3z"/>
    <path fill="#FE7D27" d="M18.902 17.223c-.3 1.2-1.5 1.7-2.2 2.5-.1.1-.2.1-.2.2-.3.2-.6.4-.8.7-.2.3-.5.6-.8.8-.3.2-.6.4-1 .6-.2.1-.5.3-.7.4-.2.1-.5 0-.6-.2.1-.9.8-1.3 1.4-1.7 1.2-1 2.4-1.8 3.6-2.8.4-.1.8-.4 1.2-.5-.1-.1 0-.1.1 0z"/>
    <path fill="#FE7C24" d="M12.2 26.724c.7-.7 1.5-1.3 2.2-2 .2-.5.6-.8.9-1.1.3-.2.6-.4.9-.8.1-.1.3-.2.4-.3.1 0 .2 0 .3.1.2.1.3.2.3.4-.2.8-.7 1.4-1 2.1-.3.9-1.2 1.2-1.8 1.6-.1.1-.2.1-.3.2-.6.3-1.2.7-2 .8-.2.1-.3.1-.5.2-.3-.3-.2-.6.1-.9.2-.2.4-.2.5-.3z"/>
    <path fill="#FE8D41" d="M12.5 22.125h.7c.9 1.1-.4 1.3-.8 1.9-.7.6-1.4 1.3-2.1 1.9-.3.2-.6.4-1 .6 0-1.5 1.6-1.8 2-2.9.2-.5.7-.7 1-1 .2 0 .1-.3.2-.5z"/>
    <path fill="#FEA467" d="M23.898 13.523c-1.2.9-2.3 1.9-3.8 2.4 1.1-1.3 2.2-2.5 3.8-3.2.5.2.3.5 0 .8z"/>
    <path fill="#FE8737" d="M29.7 9.925c-.6 1.1-1.8 1.4-2.8 2-.2-.1-.4-.2-.3-.5.1-.1.2-.1.3-.2.4-.4.7-.8 1.3-1 .2-.2.4-.3.5-.5.4-.3.7-.2 1 .2z"/>
    <path fill="#FE7D25" d="M2.402 40.422c.9.9 1.2 2.3 2.6 2.6.3.1.3.6.2.9-.2-.3-.4-.6-.9-.5-.7.1-1.3 0-1.1-1 0-.7-.9-1.2-.8-2z"/>
    <path fill="#FE8736" d="M12.902 29.324c-.4.9-1.4 1.4-1.9 2.3-.3.6-.6-.1-.9-.2.9-.9 1.6-1.8 2.8-2.1z"/>
    <path fill="#FE9249" d="M12.2 23.923c.3-.6 1.5-.7 1-1.7.1-.2.2-.4.5-.5.4.2.6.5.6 1-.2.3-.4.6-.4 1 0 .1-.1.2-.2.2-.3.2-.6.3-1 .5-.2-.2-.6 0-.5-.5z"/>
    <path fill="#FEA061" d="M26.602 11.422c.1.2.2.4.3.5-1 .5-2 1-3 1.6.1-.3.2-.5 0-.8 0 0 .1-.1.2-.1.6-.4 1.4-.7 2.1-1 .1 0 .3-.1.4-.2z"/>
    <path fill="#FE802C" d="M4 37.925c-.4.4-.9.8-1.3 1.2-.4-1.1.1-1.9 1.1-2.5.3.2.1.6.2.9v.4z"/>
    <path fill="#FE781D" d="M9.9 46.223c-1 1.4-2.2 2.7-3.7 3.6 1.2-1.3 2.4-2.5 3.7-3.6z"/>
    <path fill="#FEC6A2" d="M50.101 2.023c-.3-.7-.9-1.1-1.6-1.3-.6-.1-.5-.4-.2-.7.2.1.5.3.7.3 1.2.1 1.2.8 1.1 1.7z"/>
    <path fill="#FE9852" d="M12.2 23.922l.5.5c-.7.7-1.6 1.2-2.5 1.6.6-.8 1.2-1.6 2-2.1z"/>
    <path fill="#FE781D" d="M13.7 43.223c-.3.8-.7 1.6-1.7 1.3.3-.6 1-.9 1.7-1.3z"/>
    <path fill="#FEBC8F" d="M.998 57.123c.2.6-.3 1-.6 1.4-.1-.3-.2-.7-.3-1 .1-.2.2-.5.3-.7.4-.1.5 0 .6.3z"/>
    <path fill="#FE8635" d="M12.2 27.625c.7-.3 1.3-.7 2-1 .2.5-.3.5-.5.8-.4.4-.9.4-1.5.2z"/>
    <path fill="#FE8B3D" d="M29.7 9.922c-.3-.2-.6-.3-1-.3-.1-.4.3-.6.7-.7.4.1.7.4.8.8-.1.2-.3.2-.5.2z"/>
    <path fill="#FE7A22" d="M30.4 8.125c.1.3.4.5.8.5 0 .6-.5.4-.8.6-.4 0-.8-.1-.7-.7.2 0 .4-.2.7-.4z"/>
    <path fill="#FEA467" d="M26.198 11.625c-.6.6-1.3.8-2.1 1 .5-.6 1.2-.9 2.1-1z"/>
    <path fill="#FEC8A4" d="M28.198 10.224c-.2.6-.7.8-1.3 1 .2-.6.4-1.3 1.3-1z"/>
    <path fill="#FECBA9" d="M18.698 17.124c-.4.3-.6.9-1.3.5.3-.5.7-.7 1.3-.8.1.1.1.2 0 .3z"/>
    <path fill="#FEAC74" d="M12.2 26.724l-.3.3c-.4.1-.4.6-.8.8-.5-.1-.6-.4-.2-.7.5-.5.9-.5 1.3-.4z"/>
    <path fill="#FE812C" d="M29.6 8.723c.2.3.4.5.8.5.3-.1.3 0 .2.3-.2.1-.3.2-.5.2-.4-.2-.6-.4-.8-.8.2-.1.2-.2.3-.2z"/>
    <path fill="#FEBC90" d="M56.803 8.923c-.4-.1-.6-.3-.5-.7.4.1 1.2-.1.5.7z"/>
    <path fill="#FE8635" d="M11.2 27.722c.1-.5.2-.8.8-.8-.2.3-.3.6-.2.9-.3.1-.5.1-.6-.1z"/>
    <path fill="#FEC59F" d="M50.298 6.925c-.7-.1-.6-.4-.2-.8.2.3 1 .4.2.8z"/>
    <path fill="#FE934D" d="M49.1 9.723c-.3.3-.6.5-1.1.4.1-.3.3-.4.5-.4h.6z"/>
    <path fill="#FE781D" d="M11.898 44.523c-.2.5-.5.8-1 .8.3-.3.6-.6 1-.8z"/>
    <path fill="#FEB280" d="M56.298 8.025c-.4-.3-.8-.3-1.2-.3.4-.3 1-.7 1.2.3z"/>
    <path fill="#FE7113" d="M18.2 72.723v-.5c.1-.5.3-.9.4-1.4.2-.5.7-.8 1.1-1.2.7-.6 1.5-1.1 2-1.8.2-.3.5-.6.9-.4.2 0-.1.6.4.3-.1 0 .4-.1 0-.1-.1 0-.2-.1-.3-.2.1-1 1-1.3 1.4-2.1.9-.6 1.8-1.1 2.6-1.8.4-.4.8-.8 1.4-1 .1 0 .2-.1.3-.1.6 0 1.1-.4 1.5-.7.8-.7 1.8-1.2 2.7-1.7.3-.2.6-.4.8-.6 2.1-1.2 4.2-2.3 6-3.9 1.9-1.7 4-3.2 5.8-5.1.3-.4.7-.7 1.3-.7.3.4.6.6.6 1.1-.7 1.2-1.5 2.2-2.7 2.9-.8.5-1.3 1.4-2 2-.6.5-1.2 1.1-1.8 1.5-1 .5-2.1.9-2.9 1.7-.4.4-.9.7-1.3 1-.3.3-.6.5-.9.8-.5.3-.8.7-1.1 1.2-.4.6-1.1 1-1.5 1.5-.7.7-1.4 1.3-2.2 1.8-.8.6-1.4 1.4-2.2 2-.6.6-.7 1.4-1.3 1.9-.1.1-.2.1-.3.2-.5-.1-.8.3-1.1.6-.4.3-.9.5-1.1 1-.1.3-.5.4-.8.6-.2.2-.4.4-.6.7-.3.5-.7.8-1 1.2-.4.6-1 1.2-1.5 1.7-.4.5-.7 1-1.3 1.2-.1 0-.2 0-.3-.1-.1-.7-.3-1.4-.9-1.9-.3-.2-.4-.9-.1-1.6z"/>
    <path fill="#F3282C" d="M13.898 58.022c-.6.1-1 .7-1.5 1-.3.3-.6.4-1 .5-.5.3-1 .5-1.4.8-.7.4-1.6.4-2.3.7-.5-.2-1 0-.9-1.1.1-2.4 2-3.7 3.1-5.4.3-.5.7-1.2 1.3-1.5.1-.1.2-.1.3 0 .1.2.1.3.1.5-.3.6-.7 1.1-.7 1.8-.2.7-.8 1-1.2 1.5.8-.2 1.2-1.1 2.1-1.2.3.1.5.2.6.6-.4.6-.9 1.2-1.3 1.8 0 .1-.2 0 0 .1.1.1.1-.1.2-.1 1.8-1.3 3.9-2.1 5.6-3.6.4-.3.7-.7 1.2-1 .3-.2.6-.5 1.1-.5.2.1.3.2.3.4-.2 1-1.3 1.3-1.9 2-.3.4-.7.8-1.1 1.1-1 .5-1.6 1.3-2.6 1.6z"/>
    <path fill="#F3292C" d="M28.199 62.822c-.4.3-.8.7-1.3 1-1.2.2-1.8 1.2-2.7 1.7-.1 1-1.1 1.2-1.5 2-1.3 1.2-2.7 2.3-4 3.5-.3.7-1 .6-1.5 1-.6.5-1.3 1-1.9 1.5-.7.3-1.2 1.2-2.1.6-.2-.3-.1-.6.1-.8.3-.2.5-.5.7-.7.5-.4 1-.8 1.5-1.3.6-1.2 2-1.3 2.9-2.1 1.5-1.3 3.2-2.5 4.4-4.2l.6-.6c.5-.5 1.2-.8 1.8-1.2.5-.4.9-.9 1.5-1.3.5-.4 1-.9 1.7-1h.2c.8.4.5.9.1 1.3-.5.1-.6.2-.5.6z"/>
    <path fill="#F3272C" d="M27.202 71.823c-1.3 1.5-2.9 2.7-3.9 4.5-.1.2-.4.4-.4.7-.1.5-.4.8-.9.9l-.2.2c-.7.7-1.3 1.4-2 2-.3.3-.7.4-.7-.2.2-1 1.1-1.5 1.4-2.4.1-.2.2-.4.4-.6.7-.6 1.2-1.5 1.9-2.2.1-.1.2-.2.4-.3.2-.3.3-.5.2-.9 0-.3.1-.5.3-.8.2-.3.5-.5.8-.8.3-.2.6-.5.8-.8.4-.4.8-.7 1.2-1.2.2-.3.6-.3.9-.4.3-.4.5-.8 1.1-1 .3 0 .6 0 .8.4.1.3 0 .5-.2.7-.9.6-1.5 1.3-1.9 2.2z"/>
    <path fill="#FE7519" d="M27.7 75.724c1.2-.7 2.4-1.3 3.9-1.7-.4.4-.6.9-1 1.1-1.2.8-1.4 2.3-2.4 3.2-.7.7-1.4 1.1-2.4 1.1.8-1 1.5-2 2.3-2.9-.1-.3-.3-.5-.4-.8z"/>
    <path fill="#F43B41" d="M16.898 83.022c-.3.3-.4 1.1-1.1.9-.3-.1-.5-1.8-.3-2.1.3-.6 1-.6 1.3-1 .4-.5.5-1.1 1-1.5.1-.2.3-.2.5-.1.1.1.1.2.2.3.1.5 0 1-.1 1.5-.2.4-.6.5-.8.9 0 .1-.1.2-.2.3-.1.2-.2.5-.5.8z"/>
    <path fill="#FE7519" d="M25.4 79.922c0 .3 0 .6.1.8.5.1.4-.5.8-.6.3.1-.5 2.1-1.1 2.3-.4.1-.7.4-1.1.6-.3-.5.7-.9 0-1.4.3-.6.7-1.2 1.3-1.7z"/>
    <path fill="#FE8A3B" d="M18.2 72.723c0 .9.1 1.6 1.1 2.1.7.3-.1 1.1.1 1.7-.8-1.1-1.9-2.2-1.2-3.8z"/>
    <path fill="#F53C38" d="M9.7 75.725c.2-.6.8-.8 1.3-1.2.4-.2.8-.6 1.2-.1.1.1.1.2.1.3-.1.3-.5.5-.7.7-.2.2-.4.4-.7.4-.4 0-.8.2-1.2-.1z"/>
    <path fill="#F55256" d="M18.402 79.222h-.4c-.2-.7.2-1 .6-1.5.3-.4.8-.7.9-1.3h.2c.2.2.4.3.5.5 0 .3-.2.4-.4.6-.3.2-.5.5-.7.8-.2.4-.3.8-.7.9z"/>
    <path fill="#F5494E" d="M18.4 80.922c-.5-.5.1-1 0-1.5.5-.6.6-.1.7.3 0 .5.3.3.6.3-.3.7-1.1 1.1-1.6 1.7-.1.1-.2.1-.3 0 0-.4.4-.5.6-.8z"/>
    <path fill="#FE7519" d="M23.398 82.922v2.3c.1.1.1.1 0 .2 0 .1-.1.1-.1.1-.3.3-.2.9-.7 1 .3-1.3-.2-2.6.8-3.6z"/>
    <path fill="#FE781D" d="M1.5 60.824c.8.4 1.7 0 2.9.1-1.2.5-.2.8-.2 1.2-.8.1-1.1-1.1-1.9-.8-.5.2-.8.1-.8-.5z"/>
    <path fill="#FE8435" d="M22 77.822l.9-.9c.5.7 1.1 0 1.6.1-.7.7-1.5 1.3-2.5.8z"/>
    <path fill="#F53835" d="M13.198 74.023c.8.5 1.3-.5 2-.5-.5.9-1.6.8-2.2 1.5-.6.1-.4-.4-.4-.7.1-.2.2-.5.6-.3z"/>
    <path fill="#F54649" d="M12.7 74.526c.3.1 0 .5.3.5-.6.6-1.3 1-2.1 1.2-.1-.1-.1-.1-.1-.2s0-.1.1-.1c.2-.2.4-.5.6-.6l.6-.6v-.2c.3-.1.4-.2.6 0z"/>
    <path fill="#FC6D22" d="M7.7 61.024c.5-1 1.5-.4 2.3-.7-.6.7-1.5.7-2.3 1v-.3z"/>
    <path fill="#FE7B22" d="M11.202 60.523c-.4 1-1.2 1.6-2.1 2.2.6-.8 1.4-1.5 2.1-2.2z"/>
    <path fill="#F5494E" d="M19.7 80.024c.5-.9 1.2-1.5 2-2-.5.8-1.1 1.5-2 2z"/>
    <path fill="#F87D81" d="M17.902 79.223c-.2.6-.5 1.1-1 1.5 0-.7.1-1.4 1-1.5z"/>
    <path fill="#FEBC90" d="M7.7 74.725c.1.3.1.5.2.8-.3-.1-.9.2-.9-.5.1-.3.3-.5.7-.3z"/>
    <path fill="#FEB685" d="M25.398 90.624c.7-.3 1.1 0 1.5.5-.6.3-1-.4-1.5-.5z"/>
    <path fill="#FA9699" d="M16.898 83.023c0-.4.1-.8.5-1 .2.1.1.4.2.5-.1.3-.2.6-.7.5z"/>
    <path fill="#FEBE93" d="M7.7 74.725c-.2.1-.5.2-.7.3-.2 0-.3 0-.5-.1.3-.2.6-1.1 1.2-.2z"/>
    <path fill="#FE9751" d="M27.7 75.723c.3.1.5.4.5.8h-.7c-.4-.4-.3-.7.2-.8z"/>
    <path fill="#FE9147" d="M1.5 60.824c.1.4.5.5.8.5-.6.3-1-.1-1.3-.5h.5z"/>
    <path fill="#F8868A" d="M10.9 76.024v.3c0 .4-.2.6-.6.4.1-.4.4-.6.6-.7z"/>
    <path fill="#F87C80" d="M17.7 82.425c-.2-.1-.2-.3-.2-.5v-.2c.2-.1.4-.2.5 0h.2c-.2.2-.4.5-.5.7z"/>
    <path fill="#F99094" d="M11.702 75.525c-.3.2-.5.3-.8.5v-.2c.1-.3.3-.4.5-.5.3-.2.3 0 .3.2z"/>
    <path fill="#FE771B" d="M58.6 80.225c-.3.3-.6.7-.9 1-.8.3-1.5.7-2.2 1.2-.7.2-1.4.5-1.9 1-.1.1-.3.2-.4.2-.7.1-1-.7-1.6-.7-.1 0-.2-.1-.3-.2-.4-.4 0-.7.1-1.1.1-.2.3-.4.5-.5-.1 1 .3 1 1.2.8.6-.1.9-.6 1.3-.8.1.1.2.1.3.3-.2.4-.1.6.3.3.9-.5 1.8-1 2.7-1.4.2-.1.5-.5.9-.1z"/>
    <path fill="#FE8D41" d="M55.3 74.723c.3-.2.5-.3.8-.5.2.2.2.5 0 .7-.7.8-1.5 1.5-2.2 2.3-.2-.2-.1-.4 0-.6.1-.7.8-.9 1-1.4.1-.1.2-.4.4-.5z"/>
    <path fill="#FEBA8C" d="M55.3 82.224c.7-.6 1.3-1.2 2.3-1-.1.2-.2.4-.3.5-.1.1-.2.1-.2.2-.3.2-.6.4-.8.7-.2.3-.3.6-.4.9-.1.1-.2.1-.3 0-.2 0-.3.1-.5.1-.2-.1-.3-.2-.4-.3 0-.6.3-.8.6-1.1z"/>
    <path fill="#FEC9A6" d="M53.299 84.023c-.6.2-1.2.4-2 .6.6-.9-.6-1.2-.5-1.9.2-.1.3-.1.5 0 .6.3.9 1 1.7.9.1 0 .2 0 .3.1.1.1.1.2 0 .3z"/>
    <path fill="#FEC7A2" d="M52.8 79.025c-.2.4.1 1-.5 1.3-.3.1-.4 0-.5-.2.7-.5 0-1.7 1-2 .3.2.2.5 0 .9z"/>
    <path fill="#FE944C" d="M52.8 79.023v-1c.3-.4.7-.9 1-1.3v.6c-.3.5-.7 1.1-1 1.7z"/>
    <path fill="#FE8D40" d="M57.2 81.723h.2v.8c-.3.2-.5.4-.8.6-.2.1-.3 0-.4-.2 0-.2.1-.4.2-.7.2-.2.4-.4.8-.5z"/>
    <path fill="#FEC59E" d="M51.3 76.922c.3-.5.6-1 1.3-1 .1.1.1.2 0 .3-.4.3-.5 1.2-1.3.7z"/>
    <path fill="#FEAD77" d="M52.598 76.222v-.3c.1-.6.5-.8 1-1v.5c-.4.3-.4.9-1 .8z"/>
    <path fill="#FECBA8" d="M53.3 84.024v-.3c.4-.1.6.2.8.3.1.1.1.2.2.3-.2.2-.4.4-.7.4-.2 0-.5.1-.6-.1 0-.2.2-.4.3-.6z"/>
    <path fill="#FEC59E" d="M51.798 80.023c.2.1.3.2.5.2-.2.3-.4.5-.5.8-.9-.4-.1-.7 0-1z"/>
    <path fill="#FECAA5" d="M43.9 82.424c.2-.5.5-.7 1-.5-.2.5-.5.7-1 .8-.1-.1-.1-.1-.1-.2 0 0 0-.1.1-.1z"/>
    <path fill="#FEC096" d="M43.9 82.422v.3c-.3.4-.5.7-1.1.6.1-.5.5-.8 1.1-.9z"/>
    <path fill="#FEBA8C" d="M54.8 83.823l-.5.5v-.1c-.9-.3-.5-.7 0-1h.3c.1.1.4.3.2.6z"/>
    <path fill="#FEC29A" d="M56.3 83.024c.1.1.2.2.2.3-.3.3-.5.8-1 .2h.2c.3-.2.1-.7.6-.5z"/>
    <path fill="#FE944C" d="M51.303 82.723h-.5c-.1-.4.1-.8.5-1 .1.3-.2.7 0 1z"/>
    <path fill="#FEB684" d="M54.8 83.825c-.1-.2-.2-.4-.3-.5.1-.1.2-.1.2 0l.3.3-.2.2z"/>
    <path fill="#F3262C" d="M86 21.222c0 .5 0 1-.5 1.2.5.3.9.6.1 1-.6.3-1.2.8-1.8 1.1-4.2 1.6-7.4 4.7-11.1 7.1-1.1.7-2.3 1.5-3.6 1.8-.7.2-1 1-1.6 1.3-1.7 1-3.5 2.1-5.1 3.3-.8.6-1.7.5-2.6.7-.3.1-.7-.1-.7-.5 0-.5-.4-1.1.1-1.6.3-.2.5-.4.8-.6.4-.2.7-.6 1.1-.8.3-.1.5-.3.3-.7-.1-.3-.4-.4-.7-.3-.2 0-.4.2-.6.2-.4.2-.8.3-1.1-.1-.3-.4-.1-.8.2-1.1.2-.2.3-.5.4-.7.6-.9 1.5-1.6 2.6-2l.3-.3c.2-.3.4-.6.7-.8.6-.6 1.1-1.2 2.1-.6.6.4 1.3-.3 1.8-.7.5-.5.9.9 1.4 0 0-.5-1.1.1-.7-.8 1.7-1.2 3.3-2.3 5-3.5.1-.3.3-.6.6-.8.4-.4.7-.8 1.1-1.2.6-.3 1.1-.6 1.7-.8.6-.3 1.3-.9 1.2.5 0 .4.4.4.6.2.4-.3.7-.6 1.1-1 .2 1.1.1 1.4-1.1 2.4 1.5-.2 2.6-.7 3.5-1.4 1.3-.9 2.5-1.7 4.2-1.4.4.5.4.7.3.9zM29.6 24.624c3.4-2.9 7.7-4.1 11.4-6.3-.2-.3-.7.5-1-.1 2.3-1.4 4.8-2.5 7.5-2.8 2.2-.2 2.8.4 2.8 2.6v.6c-.3.3-.6.7-.9 1.1-.4.4-.6.9-1.1 1.1-2.4 2.2-4.2 4.9-6.6 7-.3.2-.5.5-.8.5 0 0-.1-.1 0-.1.1-.1 0-.2-.1-.1-.6.6-1.2 1-1.9 1.5h-.2c-.3.5-.7 1-1 1.5-.1.1-.2.2-.3.2-.2.1-.5 0-.7.2-.7.7-1.7.7-2.6.7-.1.1-.2.1-.3.2-.7.5-1.1 1.2-1.6 1.5.4-.4.9-.8 1.5 0 0 .2 0 .5.2.7-1.7 2.2-4.1 3.6-6.4 5.1-.2.1-.4.3-.6.4-.2.5-.5.8-1 1-.6.2-1 .5-1.5.8-.1 0 .1.2 0 0 0-.1 0-.1.1-.1.5-.3.8-.2.6.5-.2.2-.5.4-.7.5-.3.3-.6.6-.8 1-.4.9-1 1.5-1.7 2-1.4.1-1.9 1.4-2.8 2.1-.3.3-.6.6-.9.8-1.1.7-1.8 2-3 2.6-.7.6-1.3 1.2-2 1.7-.4 0-.8.6-1.2 0-.1-.2-.1-.3 0-.5 0-.1.1-.2.2-.3 1.3-1.5 2.6-3 3.8-4.5 2-2.4 4.3-4.4 6.7-6.5.2-.2.4-.3.6-.5 2.2-2.9 5.3-4.8 8-7.2 2-1.8 3.5-3.9 5.7-5.5.8-.6 1.4-1.4 2.4-1.8.3-.1.7-.4.9-.7 1.1-1.7 2.9-2.5 4.2-4 1.1-1.2 2.2-2.3 3.2-3.8-1.6 0-2.9.5-4.1 1.1-2.2 1.1-4.5 1.9-6.7 3-2 .9-3.7 2.4-5.6 3.3-.5.2-1 .5-1.5.8-.5.3-.5-.1-.6-.4-.2-.3.1-.6.4-.9z"/>
    <path fill="#F3272C" d="M19.7 62.324c.1-.1.2-.2.2-.3.4-.5.8-.9 1.3-1.3 1.6-1.4 3.3-2.5 5.2-3.5 1.4-.7 2.6-1.7 3.7-2.9.9-1.1 2.4-1.9 3.6-2.8.3.2.3.5.4.8 0 .1 0 .2-.1.3-.2.3-.5.4-.6.6.4-.3.9-.6 1.1.3-.1.3-.2.5-.5.7-1.3.9-2.2 2.3-3.7 2.9-.3 0-.5-.1-.7-.4v-.3c.1-.1.1.1.1-.1 0-.1-.1-.1-.1 0l-.6.6c-.1.1-.2.1-.3.2-.3.2-.6.4-.9.7-.2.2-.5.4-.8.6-.5.4-.8 1-1.1 1.5-.3.4-.6.7-1 .8-.4.2-.9.3-1.2.7-.2.3-.5.6-.8.8-.1.1-.2.1-.3.2-.6.3-1 1-1.7 1.3-.2.1-.3.2-.5.3-.2-.5-1.2-.8-.7-1.7z"/>
    <path fill="#F42D2A" d="M25.7 59.825c.4-.5.6-1.2 1.2-1.5.5.1.8-.3 1.1-.6.3-.2.4-.4.6-.7.4-.1.5-.6 1-.5l.5.5c.1.6-.5.8-.8 1.2-.5.6-1.2 1-1.8 1.5-.4.5-.4 1-.6 1.6-.1.2-.2.4-.4.6-.7.3-1 1-1.7 1.3-.6.3-1.2.6-1.7 1.1-.1.3-.6.3-.4.7-1.1 1.8-2.8 3-4.5 4.2-.6.2-.7 0-.4-.5.3-.4.8-.8 1.1-1.3.8-1 1.4-2.1 2-3.2.3-.8.9-1.4 1.5-2 .3-.3.8-.4.8-1 .3-.4.8-.5 1.2-.8 1 .4 1.2-.1 1.3-.6z"/>
    <path fill="#F3272C" d="M47.8 43.624c-.1.1-.2.2-.3.2-.3.5-.9.7-1.2 1.1-.5.3-.9.6-1.4.8h-.3c-.4-.1-.7.2-1.1.2 0-.5-.7-.4-.7-.9 2.6-2.2 5.1-4.5 8-6.2.6-.1.6-.1.6.9-.1.3-.3.5-.5.7l-.6.6c-.3.3-.5.5-.7.8-.3.4-.7.7-1 1.1 0 .4-.5.4-.8.7z"/>
    <path fill="#F63926" d="M51.3 39.825c-.4-.2.2-.9-.5-1 1.7-1.5 3.4-2.8 5.5-3.7 0 0 0 .1.1.1v.6c0 .1.1.2.1.3.1.2.2.5.1.8-1 1-2.1 1.7-3.4 2.3-.4.1-.7.2-1 .4-.3.1-.5.4-.9.2z"/>
    <path fill="#FE7920" d="M23.398 18.225c.6-.5 1.3-.4 2-.6.5-.2.4.3.6.4.3.3 0 .4-.2.5-.5.4-1.1.8-1.6 1.2-.2.2-.5.4-.7.6-.4.4-1.1.4-1.4.9-.1.4-.4.6-.6.9l-.5.5c-.1.1-.2.1-.3.1-.5 0-.7.4-1 .7-.1.1-.2.1-.3.2-.4.1-.8.8-1.3.1v-.3c.2-.3.5-.6.7-.9.9-.8 1.8-1.4 2.6-2.2.2-.2.5-.4.8-.6.3-.2.5-.4.8-.6.3-.2.6-.5.9-.6-.1 0-.3-.1-.5-.3z"/>
    <path fill="#F42C2A" d="M33.6 34.124c-1-1.2-1.5.6-2.6.3 1.2-.6 1.6-1.9 2.8-2.3.1.1.1.2 0 .3h.1c0-.1 0-.2-.1-.3 1.2-.1 2.2-.8 3.5-.8-.8 1.2-1.9 2.3-3.2 3 0-.4 0-.4-.5-.2z"/>
    <path fill="#F53129" d="M59.798 32.622c.3.4 0 .7-.3.9-.3.2-.4.5-.1.8.3.3.5 0 .8-.1.3-.1.6-.4.7-.4.4.2.9.2 1 .7.2.6-.3.8-.7 1-.4.1-.7.3-1.1.5.2-.5.8-.8 1.2-1.2-1.3-.4-1.7.9-2.5 1.2-.5-.2-.4-.6-.4-1 .2-.3.1-.5-.2-.5 0-.3-.5-.4-.4-.7.6-.4 1.2-.8 1.7-1.2.1-.1.2-.1.3 0z"/>
    <path fill="#FE7417" d="M37.898 5.223c0-.1 0-.2.1-.2 1.7 0 3-1.4 4.7-1.5 0 .2.1.4.1.5-1.3.8-2.5 1.9-4 2.4-.2.1-.4-.1-.6-.2.1-.4-.3-.6-.3-1z"/>
    <path fill="#FE781D" d="M37.898 5.223c.2.5.7-.2.9.2 0 .5-.5.5-.7.8-.8.1-1.4.5-2 1-.5.4-.8.4-1.2 0-.2-.2.2-.5 0-.7.9-.6 1.9-1.1 3-1.3z"/>
    <path fill="#FE7317" d="M13.902 58.025c.6-.7 1.4-1.3 2.2-1.7.8-.1 1-1.3 2-1-.9 1.1-2 2.1-3.1 3.1-.7.5-.8.2-1.1-.4z"/>
    <path fill="#F42F29" d="M13 55.524c1.6-1.7 3.6-2.9 5.5-4.3.2-.1.3 0 .4.2 0 .3-.2.5-.4.7-.4.3-.8.7-1.2 1-.9.6-1.8 1.4-2.7 2-.4.2-.8.6-1.4.5-.1 0-.2 0-.2-.1z"/>
    <path fill="#FE761C" d="M18.2 55.324c-.8.1-1.2 1.1-2 1 .8-1.2 2.1-1.9 3-3 .3-.4.6-.9 1.2-.8.4 0 .7-.4 1-.5.1-.1.2-.1.2 0-.5 1.1-1.6 1.5-2.4 2.2-.3.4-.8.6-1 1.1z"/>
    <path fill="#FD6C15" d="M11.702 55.823c-.8.6-1.6 1.3-2.6 1.8.3-1.1 1.2-1.5 1.7-2.2.1-.3.2-.6.4-.9.5-.3.7-1.3 1.6-.6-.3.5-.9 1-.7 1.7-.2.1-.3.1-.4.2z"/>
    <path fill="#FE771C" d="M24.399 15.223c1.8-1.4 3.7-2.7 5.8-3.7-2 1.4-4.1 2.7-5.8 4.6-.3-.3 0-.6 0-.9z"/>
    <path fill="#F53028" d="M29.6 24.625c-.1.5-.8 1 0 1.5-1 .7-2 1.3-3 2-.3.1-.3 0-.3-.3.7-.7 1.7-1 1.8-2.2.2-.5.9-.8 1.5-1z"/>
    <path fill="#FE7519" d="M26.2 32.024c.7-.6 1.3-1.1 1.9-1.6.3-.2.6-.2.9.1.3.3-.1.5-.3.7-.7.6-1.2 1.8-2.5.8z"/>
    <path fill="#FE7920" d="M15.5 22.422c-.1.1-.3.2-.4.3-.2.1-.3 0-.4-.2 0-.7.7-.9 1.1-1.3.3-.2.6-.4.8-.7.1-.1.3-.2.4-.2.5-.1.8-.6 1.2-.9l.2-.2c.3-.1.5-.3.7-.5.2-.2.4-.1.6.1-.2 1-1.3 1.3-1.8 1.9-.1.2-.3.3-.4.5-.3.2-.6.4-.9.7-.3.3-.6.6-1.1.5z"/>
    <path fill="#F53029" d="M19.698 62.324c0 .3 0 .8.3.8.7.1.3.6.5.9-.3.3-.5.6-.8 1-.3.1-.7.3-.8-.3.3-.6.5-1.2-.5-1.3.5-.4.9-.7 1.3-1.1z"/>
    <path fill="#F53128" d="M18.202 48.624c.2-.3.4-.6.7-.8.3.2.5.4.3.7-1.1 1-2.2 2-3.2 3-.7-.2-.3-.6-.1-.8.8-.7 1.4-1.5 2.3-2.1z"/>
    <path fill="#F84A20" d="M19.198 48.623c-.1-.2-.2-.5-.3-.7.7-.7 1.4-1.4 2-2.1.4-.5.7-.1 1 .2-.7.9-2.2 1.3-2.7 2.6z"/>
    <path fill="#F53228" d="M19.198 67.523c0 .6-.5.8-.9 1.2-.2.2-.4.5.1.5-.2.4-.6.8-1 .8-.9.1-1.4.7-2 1.1.9-1.5 2.6-2.3 3.8-3.6z"/>
    <path fill="#FE7B22" d="M16.402 28.425c.2-.2.3-.5.5-.7.4-.3.9-.6 1.3-.9.4-.3.5 0 .7.1.3.3 0 .4-.2.5-.3.3-.7.5-1 .9-.4.6-.8.5-1.3.1z"/>
    <path fill="#FE781D" d="M24.7 21.922c-1.2 1.6-3 2.4-4.5 3.5-.1-.1-.2-.1-.2-.2 1.4-1.3 3-2.4 4.7-3.3z"/>
    <path fill="#FE7417" d="M42.6 3.525c0-.3-.3-.7.1-.9.7-.2 1.4-.5 2.1-.5.3 0 .3.5-.1.6-.7.2-1.2.9-2.1.8z"/>
    <path fill="#F74422" d="M26.698 26.824c-1.1 1-2.2 1.9-3.8 2.8 1.4-1.6 2.4-2.4 3.8-2.8z"/>
    <path fill="#F73F24" d="M12.7 67.325c1.4-.4 2.2-1.6 3.5-2.2.5 0 .4.2.2.5-1 .7-2 1.5-3.2 2-.3.1-.5.1-.5-.3z"/>
    <path fill="#F53428" d="M33.902 52.324c-.3-.2-.2-.5-.3-.8 1.2-.8 2.2-1.8 3.5-2.5.1-.1.2-.1.3 0-.1 1.1-1.2 1.3-1.8 1.9-.2.2-.4.3-.6.5-.1.1-.2.1-.3.2-.3.2-.4.5-.5.7-.1.1-.2.1-.3 0z"/>
    <path fill="#FE8E43" d="M24.402 15.223c.5.3-.1.7 0 1l-.7.7c-.3.2-.5.5-1 .4-.2-.1-.3-.4-.3-.6.7-.5 1.4-1 2-1.5z"/>
    <path fill="#F42E29" d="M68 27.625c0 .2 0 .4.2.3.4 0 .8-.5 1 .2.1.4-.2.7-.6.8-.4.2-.9.3-1-.4 0-.2-.2-.2-.4-.2.2-.2.5-.5.8-.7z"/>
    <path fill="#FE8A3B" d="M30.602 9.425c-.1-.1-.2-.2-.2-.3.2-.2.5-.3.7-.5.4-.6 1.1-.8 1.7-1 .4 0 .4.2.2.5-.7.5-1.4 1.3-2.4 1.3z"/>
    <path fill="#F84921" d="M12.698 74.523h-.5c-.4-.4-.8 0-1.3 0 .6-.8 1.3-1.3 2.3-1.5.1.1.2.1.3.2-.1.3-.2.5-.3.8-.2.1-.3.3-.5.5z"/>
    <path fill="#F53128" d="M42.8 45.125c.3.2 1 0 .8.8.1.1.2.3.1.5-.8 1-1.6.4-2.4-.1 0-.2.2-.3.3-.4.4-.3.8-.6 1.2-.8z"/>
    <path fill="#FD6716" d="M18.198 52.125l.5-.5c.3-.5.6-1 1.2-1 .2.4.5.1.8.1.2.1.5-.2.7.1.2.4-.1.6-.4.8-.1.1-.2.1-.3.1-.1 0-.2 0-.3-.1-.3-.2-.6 0-.8.1-.4.3-.6.7-1.1.7-.3 0-.4-.1-.3-.3z"/>
    <path fill="#F42F29" d="M25.202 42.324c-.7-.9-.8.5-1.6.2.8-.6 1.1-1.7 2.3-1.7.2.2.2.5 0 .7-.2.4-.4.7-.7.8z"/>
    <path fill="#FE9D5B" d="M22.4 16.723c.2.1.3.3.3.5.1.1.2.3.1.5-.6.5-1.1 1-1.8 1.4-.2.1-.3.1-.5 0-.3-.9.8-.9 1-1.6.1-.5.6-.6.9-.8z"/>
    <path fill="#FA571C" d="M18.2 48.625c-.7.7-1.3 1.4-2 2.1-.2.2-.7.4-.2.9-.6 1.1-.5-.2-.7-.3.8-1 1.6-2.2 2.9-2.7z"/>
    <path fill="#F63A25" d="M57.801 33.922c.4.1.8.2.5.8-.2.6-.7.9-1.2 1.3-.3.1-.6.3-.8 0-.2-.4.2-.6.3-.8.2-.2.4-.4.4-.6.2-.6.4-.7.8-.7z"/>
    <path fill="#FE8330" d="M11.698 32.625c-.1-1.3.9-1.5 1.7-2 .7.2.4.5 0 .8-.1.1-.2.2-.3.2-.3.5-.7.9-1.4 1z"/>
    <path fill="#F63A25" d="M59.8 32.625h-.3c.5-.7.9-1.4 1.6-1.8.4-.2.7-.3 1.1-.2-.7.7-1.6 1.4-2.4 2z"/>
    <path fill="#FE7F28" d="M18.2 23.624c.5.5.8-.4 1.2-.2.2.2.2.5 0 .7-.2.2-.5.3-.7.5-.2-.1-.3-.2-.5-.2-.2-.1-.4 0-.6.1-.2.1-.5.2-.6-.1-.2-.3.1-.5.3-.7.3-.1.6-.2.9-.1z"/>
    <path fill="#FE7518" d="M19.402 24.125v-.7c.5-.2.6-.8 1.2-.8h.2c-.5.5-.2 1.5-1.1 1.8-.2.1-.2-.1-.3-.3z"/>
    <path fill="#FE7D26" d="M33.098 8.223c0-.2 0-.4-.2-.5.4-.8 1.6-.3 2-1.2.4.2.1.5 0 .7-.6.3-1.2.7-1.8 1z"/>
    <path fill="#FC6118" d="M73.8 23.625c-.2.2-.5.3-.7.5-.6-.5-1.2.4-1.9.2.7-.4 1.3-.8 1.9-1.2.1.4.7-.1.7.5z"/>
    <path fill="#F63A26" d="M37.398 48.824c0-.8.8-.6 1.2-.9.4-.2.7-.6 1-.8.3-.2.5-.1.6.2 0 .2 0 .4-.2.5-.5.4-1.1.7-1.7 1-.3 0-.6.2-.9 0z"/>
    <path fill="#FE781E" d="M20.898 18.925c.4-.6 1.1-1 1.7-1.3.1.1.1.1.1.2s-.1.1-.1.1c-.2.2-.3.5-.5.7-.2.4-.4.8-1 .8-.1-.1-.3-.2-.2-.5z"/>
    <path fill="#FB581B" d="M22.698 62.324c-.3.8-.9 1.4-1.5 2 0-.2-.1-.4-.3-.5.5-.6.9-1.4 1.8-1.5z"/>
    <path fill="#F94F1E" d="M40.102 47.324c-.1-.2-.3-.2-.5-.2.5-.7 1.1-1.2 2-1.3-.1.1-.2.2-.2.3-.2.2.1.5.1.7-.4.4-.8.7-1.4.5z"/>
    <path fill="#F9541D" d="M38.902 29.622c.8-.7 1.5-1.4 2.3-2.2.2.5-.3.6-.3.9-.7.6-1.2 1.2-2 1.3z"/>
    <path fill="#F9511E" d="M21.502 30.422c-.4 1-1.1 1.3-1.6 2 0-1 .1-1.2 1.6-2z"/>
    <path fill="#F63926" d="M20.7 51.625h.2c0 .4-.4.6-.5 1-.5.2-.7.8-1.2.8l-.3-.3c-.1-.2 0-.3.1-.5l.2-.2c.5-.4 1-.6 1.5-.8z"/>
    <path fill="#FE771C" d="M45.8 27.625c-.7.3-1.2 1.1-2.3 1.3.9-.9 1.7-1.5 2.6-1.8.2.3-.1.4-.3.5z"/>
    <path fill="#F42F29" d="M12.701 53.825c-.8-.4-.9.6-1.5.8-.4-.5.2-.7.4-1.1.1-.3.2-.6.6-.5.3.3.7-.4 1 0-.1.3-.3.6-.5.8z"/>
    <path fill="#FE771B" d="M51.102 22.925c.2-.1.5-.2.7-.3-.4.9-1.3 1.2-2.2 1.6-.1-.5.2-.6.5-.8.3-.2.6-.4 1-.5z"/>
    <path fill="#FA561C" d="M25.902 41.625v-.7c.3-.3.7-.5 1-.8.7 1.1-.4 1.1-1 1.5z"/>
    <path fill="#FE771B" d="M45.8 27.624c.1-.2.2-.3.2-.5.4-.7 1.1-.9 1.7-1.3.1.1.1.2.2.3-.6.5-1.3 1-2.1 1.5z"/>
    <path fill="#FE781D" d="M24.7 21.923c.6-.8 1.3-1.4 2.2-1.7-.7.7-1.3 1.4-2.2 1.7z"/>
    <path fill="#F63B25" d="M73.798 23.625c-.2-.2-.5-.3-.7-.5.8 0 1-1 1.8-1-.2.7-.8 1.1-1.1 1.5z"/>
    <path fill="#FE8F43" d="M23.2 19.425c-.3.2-.5.3-.8.5-.4.3-.6 0-.6-.4.1-.4.3-.5.6-.6.2-.1.3-.2.5-.3.6.1.4.5.3.8z"/>
    <path fill="#FE7D26" d="M23.202 19.423c0-.3 0-.6-.3-.7.1-.2.3-.4.5-.5.3 0 .7.1.7.3 0 .5-.5.7-.9.9z"/>
    <path fill="#FE7F2A" d="M19.7 18.926c-.1-.2-.3-.2-.5-.3.4-.5.6-1.2 1.5-.8.1.6-.4.7-.7 1.1-.1.1-.2.1-.3 0z"/>
    <path fill="#FE8C3E" d="M17.4 36.423c-.5.3-1 .7-1.5 1-.1-.1-.1-.2-.2-.3.4-.5 1-.8 1.7-.9.1 0 .1 0 0 .2.1 0 .1-.1 0 0z"/>
    <path fill="#FE761A" d="M60.8 18.423c.4-.7.9-.9 1.5-1.2-.2.8-.3.8-1.5 1.2z"/>
    <path fill="#FEA66A" d="M19.902 18.922c.2-.3.5-.7.7-1 .3-.2.5-.3.8-.5 0 .7-.8.9-1 1.5.1.1.1.1.1.2s0 .1-.1.1c-.2.1-.4-.1-.5-.3z"/>
    <path fill="#FE8F44" d="M14.2 38.324c-.5.3-1 .7-1.5 1-.1-.1-.1-.2-.2-.3.5-.4.9-.9 1.7-1 .1.1.1.2 0 .3 0 0 .1 0 0 0z"/>
    <path fill="#FE7B22" d="M13.5 31.425c.1-.3.4-.5 0-.8v-.2c.5 0 .7-.6 1.2-.5-.2.6-.4 1.3-1.2 1.5z"/>
    <path fill="#F84422" d="M49.298 19.625c.1-.6.4-.9 1-1 0 .5-.2 1-.7 1.3-.1.1-.2.1-.3 0-.1-.1-.1-.2 0-.3z"/>
    <path fill="#FE7F2A" d="M35.102 10.623c.2-.6.7-.9 1.4-1.1-.3.7-.9.8-1.4 1.1z"/>
    <path fill="#F74023" d="M33.599 34.125c.4-.3.4-.8 1.1-1 0 .5-.7.7-.6 1.2-.1.1-.2.1-.2.2-.4.1-.4-.1-.3-.4z"/>
    <path fill="#FE7518" d="M23.8 21.625c-.4.3-.9.7-1.3 1 .1-.7.6-1 1.3-1z"/>
    <path fill="#FE771C" d="M16.898 20.425l-.2.2c-.4.2-.8.6-1.1-.2.2-.4.5-.6.8-.8h.3c0 .2 0 .4.2.5.1.1.2.2 0 .3.1 0 .1 0 0 0z"/>
    <path fill="#F84821" d="M16.4 65.524c0-.2-.1-.4-.2-.5.4-.3.8-.6 1.2-1-.2.6-.4 1.2-1 1.5z"/>
    <path fill="#F42C2A" d="M37.598 31.125c0-.8.4-1.2 1-1.5 0 .8-.4 1.2-1 1.5z"/>
    <path fill="#FE7B23" d="M74 14.923c.1-.1.2-.1.2-.2 0 .4-.1.8-.4 1.1-.6.5-.6.1-.6-.4.4-.1.6-.4.8-.5z"/>
    <path fill="#FE7D25" d="M46.802 25.624c-.5.2-1.1.4-1.7.6.5-.6.9-.9 1.5-.9.2 0 .3.1.2.3z"/>
    <path fill="#F9501E" d="M18.9 64.824c.2.3.5.2.8.3-.3.5-.9.5-1.4.6 0-.6.3-.7.6-.9z"/>
    <path fill="#F63E24" d="M26.4 27.922l.3.3c-.4.3-.8.6-1.2 1 0-.7.5-1 .9-1.3z"/>
    <path fill="#F63A25" d="M19.902 50.623c-.4.3-.8.7-1.2 1l-.3-.3c.3-.5.9-.6 1.3-1 .2-.1.3 0 .2.3z"/>
    <path fill="#FE7B22" d="M11.7 32.625c.5-.3 1-.7 1.5-1-.1.8-.8.8-1.2 1.2-.1 0-.2-.1-.3-.2z"/>
    <path fill="#FE8431" d="M19.902 25.125l.2.2c-.4.1-.6.7-1.2.7.2-.6.7-.6 1-.9z"/>
    <path fill="#FE832F" d="M22.2 51.324c.4-.3.8-.7 1.2-1-.1.6-.5 1-.9 1.2-.2 0-.3-.1-.3-.2z"/>
    <path fill="#FB5F19" d="M19.9 50.623c-.1-.1-.2-.2-.2-.3.3-.6.8-.5 1.4-.5-.4.2-.8.5-1.2.8z"/>
    <path fill="#FE771B" d="M46.8 25.622l-.3-.3c.3-.6.7-.4 1.2-.2-.2.4-.5.5-.9.5z"/>
    <path fill="#F9501E" d="M49.3 19.625v.3c.1.5-.4.6-.5 1-.2.3-.3 0-.5 0 .3-.5.5-1 1-1.3z"/>
    <path fill="#FE8432" d="M17.402 36.425v-.3c.3-.4.7-.5 1.1-.5-.3.3-.5.7-1.1.8z"/>
    <path fill="#FE8635" d="M21.902 21.223c.3-.6 1-.7 1.5-1 .1.1.1.1.1.2s0 .1-.1.1c-.4.2-.8.5-1.2.7h-.3z"/>
    <path fill="#FE7518" d="M22.398 18.923l-.5.5c-.1.1-.2.3-.3.3-.2.1-.4 0-.5-.2v-.1c.3-.2.7-.5 1-.7.2 0 .2.1.3.2z"/>
    <path fill="#FE9651" d="M14.2 38.324v-.2c.2-.4.5-.6 1-.6 0 .8-.7.6-1 .8z"/>
    <path fill="#F53029" d="M21.198 60.824c-.3.5-.7 1-1.3 1.3.2-.7.6-1.2 1.3-1.3z"/>
    <path fill="#FE7D26" d="M16.902 20.425v-.3c.5-.2.7-.8 1.2-.7-.2.5-.5.9-1.2 1z"/>
    <path fill="#F3262C" d="M57.1 34.422c.4.4 0 .5-.3.7-.2.2-.3.2-.5 0 .2-.3.4-.6.8-.7z"/>
    <path fill="#FE7920" d="M27.1 17.424c-.2.1-.3.5-.5.3-.3-.2 0-.4.2-.6l.6-.3c.1.4-.1.5-.3.6z"/>
    <path fill="#FE7518" d="M22.7 17.924v-.3-.5c.3-.1.7-.2 1-.3-.3.5-.6.9-1 1.1zM21.9 21.223h.3c.1.6-.3.8-.7 1 0-.4.1-.8.4-1z"/>
    <path fill="#F63C25" d="M11.7 55.825c.1-.1.2-.2.3-.2.3.2.7 0 1 0 .1.6-.2.8-.8.7-.2-.2-.3-.4-.5-.5z"/>
    <path fill="#FB5C1A" d="M12.698 67.324c.1.2.3.2.5.3-.3.3-.7.5-1.3.6.4-.5.6-.7.8-.9z"/>
    <path fill="#F53527" d="M37.398 48.825c.3-.2.6-.3 1-.2.1.3 0 .5-.3.6-.3.1-.5.1-.7-.1h-.3l.3-.3z"/>
    <path fill="#FE7E27" d="M63 16.924c.1-.4.5-.5.8-.6.5-.1.2.2.2.4-.3 0-.6.1-1 .2z"/>
    <path fill="#FE8330" d="M39.402 7.923c0-.5.4-.6.8-.7-.1.6-.4.7-.8.7z"/>
    <path fill="#FE7F28" d="M26 32.422c-.1.5-.4.6-1 .7.4-.3.6-.6 1-.7z"/>
    <path fill="#FE8B3D" d="M27.098 17.425c.1-.2.2-.3.3-.5.2-.1.3-.2.5-.3.1.1.1.1.1.2s0 .1-.1.1c-.2.2-.2.8-.8.5z"/>
    <path fill="#FE934A" d="M23.402 20.425v-.3c.2-.3.4-.5.8-.5 0 .6-.5.6-.8.8z"/>
    <path fill="#FE8839" d="M39.398 7.922c-.3.2-.7.3-1 .5-.1.1-.2.1-.3 0 .3-.5.8-.5 1.3-.5z"/>
    <path fill="#FE8B3C" d="M22.2 51.324l.2.2c-.2.2-.5.3-.7.5h-.2c.1-.3.3-.5.7-.7z"/>
    <path fill="#F74123" d="M48.8 20.922c0-.4.4-.7.5-1h.3c0 .5-.4.8-.8 1zM63.298 29.625c-.2.3-.3.7-.7.8 0-.5.2-.7.7-.8z"/>
    <path fill="#F63727" d="M12.2 52.324v.2c-.2.2-.3.6-.7.5h-.3c.2-.3.5-.7 1-.7z"/>
    <path fill="#FE771B" d="M49.4 24.922c0 .5-.3.6-.6.7 0-.5.3-.5.6-.7z"/>
    <path fill="#F42F29" d="M23.7 43.824c0-.5.3-.8.8-1-.1.5-.4.8-.8 1z"/>
    <path fill="#FEC198" d="M3.7 37.625c.2-.2.5-.3.7-.5 0 .4-.2.6-.5.8 0-.1-.1-.2-.2-.3z"/>
    <path fill="#FE9249" d="M58.798 10.725c-.3-.2-.5-.4-.3-.6.2-.2.3.1.3.3v.3z"/>
    <path fill="#FE7A20" d="M33.8 11.624c-.1 0-.2 0-.3-.1.1-.1.1-.3.2-.4.1-.1.3-.1.2.1.1.2 0 .3-.1.4z"/>
    <path fill="#FE791F" d="M57.8 12.122l-.3.3c-.1.1-.2-.1-.1-.2s.2-.2.4-.3c-.1 0-.1.1 0 .2z"/>
    <path fill="#FE7518" d="M21.398 23.626c-.2-.3-.3-.4-.3-.4.1-.1.2-.3.3-.3.2-.1.2.1.1.2 0 .1 0 .3-.1.5z"/>
    <path fill="#FE822E" d="M38.1 8.422h.3c-.1.1-.2.2-.3.2-.2.1-.4.4-.6.1 0-.2.4-.2.6-.3z"/>
    <path fill="#FE7F2A" d="M27.898 16.924v-.3c.2-.2.5-.4.6-.1 0 .3-.3.4-.6.4z"/>
    <path fill="#F53835" d="M13.5 73.224c-.1-.1-.2-.2-.3-.2.3-.2.5-.3.8-.5-.1.4-.2.6-.5.7z"/>
    <path fill="#FE7D27" d="M20.598 34.322c-.1.1-.2.2-.3.2l-.2-.2c.1-.1.2-.1.3-.2.1-.1.2-.1.2.2z"/>
    <path fill="#FE7D26" d="M19.2 18.723c-.2.2-.2.8-.7.5.1-.4.3-.5.7-.5z"/>
    <path fill="#F3262C" d="M49.3 67.023c-.3.5-.8.7-1.2 1-.5 0-.9.2-1.3.5-1.1.8-2.2 1.7-3.2 2.5-.5.5-1 1.1-1.2 1.7-.3.2-.5.5-.8.7-.6.3-1.3.6-2 .6-.8.4-1.4 1-1.9 1.7-.7.9-1.6 1.6-2.5 2.3-.7 0-1.5.5-2-.4 2.6-2.3 5.1-4.7 7.7-6.9 3.1-2.7 6.3-5.2 9.3-8 3-2.8 6.1-5.5 9.2-8.1.4-.4 1-.6 1.5-.9.5-.5 1-1 1.2-1.8 2.3-2.8 4.9-5.2 7-8.2.4 0 .4.2.3.5-.2.6-.3 1.2-.6 1.8-.5.8-1.1 1.5-1.5 2.3.1.1.2.1.3 0 1-.4 1-.3 1 .4-1.1 1.5-2.3 2.9-3.7 4-.5 0-.8.3-1.3.5-.6 1-1.4 1.9-2.4 2.6-.4.2-.6.5-1.1.4-.1-.1-.1-.2 0-.3.1-.1.3-.2.4-.5-.1.3-.3.4-.4.5-.3.3-.6.6-1 .8-.1.2-.2.3-.3.3-.2.4-.4.8-.7 1.1-.5.1-1 .5-1.4.8-.3.3-.6.5-.9.8-.6.8-1.4 1.4-1.8 2.3-.1.2-.2.4-.4.6-.3.2-.6.4-.8.6-1.1 1.2-2.4 2.2-3.7 3.3-.1.1-.1 0-.2.1.1 0 .1.1.2.1.2.1.3.2.2.3zM62.3 40.324c.4.9 0 1.6-.6 2.2-1.3 1.4-3 2.4-4.5 3.7-1.1 1-2.3 1.9-3.4 2.9-.8.8-1.9 1.1-2.8 1.8-.3.5-.7.8-1.3 1-.7.6-1.5 1.2-2.2 1.8-.3.2-.4.1-.6-.1-.1-.8.6-1.1 1-1.6.3-.4.8-.7 1-1.2.4-.8 1.3-1.1 1.8-1.8.2-.4.6-.6.8-1.2-.7 0-.9.5-1.3.8-.3.2-.7.3-1 .2 0-1.3.2-2.4 1.5-3.1.1-.1.2-.2.3-.2.4-.2.7-.5 1-.8 2.1-1.7 4.6-2.8 6.8-4.2.5-.3 1-.5 1.6-.5.7.3 1.4-.2 1.9.3z"/>
    <path fill="#F3272C" d="M51.1 49.125c-.4.7-1.5.8-1.7 1.7-.9.6-1.7 1.4-2.5 2.2-.1 0-.1.1-.1.2.1.1-.1 0 .1 0 .1 0 .1 0 .2.1.1.2.3.3.5.3-.2.5-.8.7-1.2 1.1-3.3 2.4-6.1 5.5-9.4 7.9-1.5 1.2-3.2 2.2-4.4 3.7-.1.1-.3.2-.5.1-.1-.2-.1-.3-.1-.5 0-.1.1-.2.2-.3.4-.3.8-.6 1.1-1 .7-.9 1.2-1.9 1.8-2.9.2-.3.4-.6.6-.8.3-.3.5-.5.6-.9.3-.5.8-.6 1.2-1 1-.5 2.1-1 3-1.8 2.2-2.1 4.3-4.2 6.5-6.2 1-.8 1.8-1.9 3-2.4.5 0 .8.1 1.1.5z"/>
    <path fill="#F3292B" d="M46.6 50.025c-.7.1-.9.6-1.3 1-2.7 2.6-5.5 4.9-8.6 7.1-1 .7-2.1.9-3 1.6-.3.2-.5-.1-.7-.2-.7-.1-1.2.5-1.8.6-.3 0-.5 0-.7-.2-.2-.3.1-.5.3-.7.8-.5 1.4-1.2 2.1-1.8.4-.2.9-.3 1.2-.6.1 0 .2-.1.3-.1 1.1-.2 1.9-.9 3.1-.9 1.1 0 2.2-1 3.1-1.9.1-.1.2-.2.2-.3.9-1.4 2.2-2.3 3.3-3.5.8-.6 1.6-1.1 2.3-1.7.3-.2.7-.4 1-.7.3-.2.7-.5 1.1-.2.3.2.1.5 0 .7l-.6.6c-.4.6-.8 1.1-1.3 1.2z"/>
    <path fill="#F42C2A" d="M58.5 35.126c.2.3-.1.7.2 1-2 1.7-4.1 3.2-5.9 5.1-.5.5-1.3.1-1.6.7-.6.1-1.2.5-1.7-.2.2-.3.4-.6.7-.7.3 0 .5-.2.6-.4.4-.4.8-.7 1.2-1l.9-.6c1.3-.5 2.4-1.4 3.5-2.2.1-.4.4-.6.7-.9.6-.4.8-1 1.4-.8z"/>
    <path fill="#F4292B" d="M23.398 85.424v-.3c1.4-.9 3.1-1.3 4.3-2.5l.1-.1c.2-.2.6-.4.8-.6.4-.2.8-.5 1.3-.4.4.1.7.4.6.9-1.8 1.9-4 3-6.6 3.3-.4.1-.4-.1-.5-.3z"/>
    <path fill="#F63D24" d="M48.302 48.623c0-.2.4-.5.1-.6-.3-.2-.5.3-.8.4-.5-.2-.7.4-1.1.4-.3.1-.6.4-.9.1-.2-.2.1-.3.2-.5 1.5-1.2 2.9-2.7 5-2.7-.9.8-1 2-1.5 3 .1.4-.1.5-.5.6-.2-.2-.6-.3-.5-.7z"/>
    <path fill="#F53727" d="M29.2 58.124c.3-.4.8-.5 1-1 1.4-.8 2.4-2.2 3.7-3 .3.8.7-.1 1 0 .1-.1.2-.2.3-.2.3-.2.5-.2.5.2-1.6 1.7-3.6 2.9-5.5 4.2-.5.3-.8.2-1-.2z"/>
    <path fill="#F63B25" d="M45.798 48.324c-.1 1 .6-.1.8.3.1.1.1.1.1.2s-.1.1-.1.1c-.6.7-1.5 1.1-2.2 1.7-.6-.1-.9.4-1.2.7-.7.7-1.4 1.3-2.3 1.8-.2.1-.5.2-.7.3-.2.1-.3 0-.3-.3.1-.2.1-.4.2-.5 1.9-1.5 3.8-2.9 5.7-4.3z"/>
    <path fill="#F53029" d="M32.9 57.524c-.6.8-1.2 1.4-2 2-.1.1-.5.2-.2.4.1.1.3 0 .5.1.1.2-.1.4-.2.5-.4.3-1 .3-1 1.2 0 .6-1 .7-1.5 1.1h-.2c-.1-.2-.6-.4-.1-.7.6-.3.6-.8.3-1.3 1.4-1.1 2.7-2.4 4.4-3.3z"/>
    <path fill="#F42D2A" d="M53.602 62.526c.1-.2.2-.3.2-.5.4-.1.6.1.5.5-1.5 1.7-3.2 3.1-5 4.5l-.2-.2c-.1-.1-.1-.2 0-.3 1-1.4 2.6-2.2 3.7-3.5.3-.1.5-.3.8-.5z"/>
    <path fill="#F53527" d="M40.602 54.023c-.7 1.1-1.9 2.1-3 2.1-1.2 0-2.1.9-3.2.9-.2-.3.1-.4.3-.5 1.3-.7 2.6-1.4 4.1-1.4.7.1 1-1 1.8-1.1z"/>
    <path fill="#F74322" d="M41.4 46.624c-.1 0-.4 0-.3-.2 0-.1.2-.2.3-.3.5.6.8-.5 1.3-.1.2.4-.4.4-.3.8.5-.1.8-.6 1.3-.4.1.1.1.2.2.3 0 .2 0 .3-.2.5-.5.4-1.1.8-1.7 1l-.5.5c-.2.4-.5.6-1 .6-.5-.4-.3-.7 0-1.1.3-.3.6-.5.8-.8 0-.4.3-.5.1-.8z"/>
    <path fill="#F42C2A" d="M57.8 59.024c-1 1-1.9 2.1-3 3-.7-.2-.5-.7-.2-.9.5-.4.7-1 1.2-1.3l.9-.9c.4-.3.7-.9 1.4-.6.2.3.1.6-.3.7z"/>
    <path fill="#F73E24" d="M28.702 69.523c.1-.2.2-.3.3-.5.2-.8 1.3-1.1 1.1-2.1.2-.8.4-1.1 1-.3.1.1.1.2.2.3.1.2 0 .4 0 .6-.7.9-1.3 1.8-2 2.7-.4-.2-.8-.2-.6-.7z"/>
    <path fill="#FA531D" d="M40.398 49.125c.3-.2.7-.3 1-.5.1.2.1.4-.2.6-.9.6-1.7 1.3-2.5 1.9-.5.4-.8.2-1.1-.3-.1-.3 0-.4.2-.6.2-.2.5-.3.8-.3.6 0 .9-.4 1.4-.7.1-.2.2-.2.4-.1z"/>
    <path fill="#F94D1F" d="M40.9 53.025c.6-1.1 1.9-1.4 2.6-2.4.1-.2.5-.5.8-.1-1.2 1.1-2.3 2.2-3.5 3.2 0-.2.4-.4.1-.7z"/>
    <path fill="#F42E29" d="M35.102 78.023c1.2-1.2 2.5-2.4 3.7-3.6.2-.2.4-.4.7-.4.1 0 .3 0 .3.1s-.1.2-.3.1c-1.5 1.1-2.3 2.8-4 3.7-.1.1-.2.1-.4.1.1 0 .1 0 0 0z"/>
    <path fill="#F63826" d="M66.803 48.825c-.3-.2-.2-.4 0-.6l1.8-2.1c.2 0 .3.1.4.2.1.3.3.5.6.6.1 0 .2.1.2.2-.2.3-.4.6-.7.8-.4 0-.6.3-1 .3-.1 0-.1-.4-.2-.2-.3.4-.7.6-1.1.8z"/>
    <path fill="#F42E29" d="M33.1 77.723c.7.1 1.3.2 2 .3-.3 1-1.1 1.3-2 1.5-.2-.1-.7.2-.4-.4.1-.2.1-.4-.1-.6-.3.1-.3 0-.3-.3.3-.1.6-.3.8-.5z"/>
    <path fill="#F74123" d="M33.102 79.523c.7-.5 1.3-1 2-1.5h.5c0 .7-1.4 2.3-1.9 2.2-.3-.1-.2-.7-.6-.7z"/>
    <path fill="#FD6816" d="M29.2 58.125c.3.2.6.3 1 .2-.5.6-.9 1.3-1.7 1.5-.4.2-.8.4-1-.2.4-.7 1.3-.8 1.7-1.5z"/>
    <path fill="#FE7F28" d="M56.602 72.724c.6-.7 1.4-1.1 2.3-1.4-1 .3.2 1.7-1 1.9-.5.4-.6-.2-.8-.4-.2 0-.4.1-.5-.1z"/>
    <path fill="#F84920" d="M43.602 47.124v-.5c.1-.1.2-.3.3-.4.3-.3.7-.4 1-.6.5-.3.9-.7 1.5-.8.2 0 .2.1.3.3-.3.5-.8.7-1.2 1-.2.3-.4.7-.7.9-.2.1-.5.3-.8.1h-.4z"/>
    <path fill="#F53128" d="M28.7 69.524c.1.3.5.4.5.7-.7.4-1.1 1.3-2 1.5-.1-1.1.8-1.6 1.5-2.2z"/>
    <path fill="#F63926" d="M56.098 59.823c-.4.4-.7.8-1.1 1.2-.3.3-.6.6-.1 1l-.5.5c-.1-.2-.3-.4-.5-.5.3-1.1 1.2-1.8 2-2.5.1.1.1.1.2.3z"/>
    <path fill="#FA551C" d="M57.8 59.024c.1-.3.2-.5.2-.8-.1-.1-.1-.1-.1-.2h.2c0-.5.3-.8.8-1 .5 1.3.1 2-1.1 2z"/>
    <path fill="#F53427" d="M49.598 41.625c.5.3 1.2 0 1.7.2-.4.3-.8.7-1.2 1-.3.1-.7-.1-1.1.1-.2 0-.3 0-.4-.2 0-.5.8-.5 1-1.1z"/>
    <path fill="#F84721" d="M62.3 40.322c-.4.4-1.2-.4-1.5.4-.4-.2-.2-.6-.2-.9.6-.8 1.2-.6 1.7.5z"/>
    <path fill="#F53228" d="M69.802 47.122h-.2c-.2-.8.5-1.2.7-1.8.2-.3.5-.5.8-.7.2-.2.3-.5.5-.7.2-.1.3 0 .2.2-.5 1.1-1.2 2.1-2 3z"/>
    <path fill="#FA531D" d="M70.498 45.325c-.3.6-.7 1.2-1 1.7-.8.3-.7-.3-.8-.8-.1-.3 0-.4.3-.5.3 0 .6 0 .7-.2.1-.2.2-.4.5-.4.2.1.2.1.3.2z"/>
    <path fill="#F84622" d="M30.402 82.522c-.2-.3-.3-.5-.5-.8 0-.9.7-1 1.2-1.2.1 0 .6-.2.4.1-.4.5-.5 1.4-1.1 1.9z"/>
    <path fill="#FE8533" d="M57.1 72.723c.2.2.3.6.7.5-.3.8-1.2 1.2-1.8 1.7v-.7c.2-.5.9-.7 1-1.3-.1 0-.1-.1.1-.2z"/>
    <path fill="#F53627" d="M34.402 53.523c-.9-1.2-1.1.5-2 .4.5-.5 1-.9 1.5-1.4.6-.3.9-.2 1 .5-.1.2-.2.3-.3.5-.1.1-.1.1-.2 0z"/>
    <path fill="#FC6118" d="M31.102 80.522c-.4.4-1 .7-1.2 1.2-.4.2-.8.3-1.2.5-.1.1-.2.1-.3 0-.1-.5.3-.6.6-.9.3-.2.6-.5.9-.6.5.1.8-.5 1.2-.2z"/>
    <path fill="#F84920" d="M27.4 59.524c.3.4.7.2 1 .2-.3.3-.5.7-.8 1-.2.3-.3.6-.7.5-.1-.6.1-1.2.5-1.7z"/>
    <path fill="#FC6418" d="M48.6 42.824h.5c.4-.1.4.3.5.5-.5 1-1.1.4-1.8.2.3-.2.5-.4.8-.7z"/>
    <path fill="#F53228" d="M39.598 74.222c0-.1.1-.1.1-.2 0 0-.1 0-.1-.1.5-.6 1.3-.4 2-.5-.6.4-1 1.5-2 .8z"/>
    <path fill="#F53128" d="M62 52.024c.1 1-.4 1.5-1.2 1.8 0-.9.7-1.3 1.2-1.8z"/>
    <path fill="#FA591B" d="M34.902 53.125c-.2-.5-.6-.5-1-.5v-.2h.2c.1-.3.4-.6.5-1h.2c.3-.2.5 0 .7.1l.1.1c-.4.3-.6.9-.7 1.5z"/>
    <path fill="#FA541D" d="M41.898 48.124c.5-.5.9-1.1 1.7-1-.3.9-.9 1.1-1.7 1z"/>
    <path fill="#F84A20" d="M70 42.623c.2-.5.5-1 1.3-1.4-.1.9-.5 1.4-1 1.9-.2-.2-.3-.3-.3-.5z"/>
    <path fill="#F53228" d="M42.402 72.723c-.1-1 .5-1.4 1.2-1.7-.1.8-.6 1.3-1.2 1.7z"/>
    <path fill="#F63926" d="M29.202 81.525c-.3.2-.6.4-.8.7-.2.2-.5.3-.7.5-.2 0-.4.1-.8.1.7-.7 1.2-1.3 2-1.6.2-.1.3 0 .3.3z"/>
    <path fill="#F9511E" d="M49.8 51.824c.3-.5.8-.8 1.3-1-.1.9-.7 1.4-1.3 1z"/>
    <path fill="#F94B20" d="M34.4 53.524h.2c0 .2 0 .4.3.5-.1.1-.1.2-.2.3-.3.2-.7.4-1.2.8.2-.5.3-.8.3-1.1.3-.1.4-.3.6-.5z"/>
    <path fill="#F53228" d="M68 48.125c.3-.2.6-.6 1-.2-.1.4-.2.7-.5 1-.4-1-.8.4-1.2 0 0-.6.2-.9.7-.8z"/>
    <path fill="#FC6418" d="M46.6 45.124l-.3-.3c.3-.4.7-.9 1.2-1 .6 1.1-.7.8-.9 1.3z"/>
    <path fill="#F42C2A" d="M31.2 67.525c-.3-.2 0-.3 0-.5 0-.6.4-.8 1-.7h.5c-.4.6-.9.9-1.5 1.2z"/>
    <path fill="#F53128" d="M63.5 53.324c.4-.3.5-1.3 1.3-.5-.3.4-.6 1.1-1.3.5z"/>
    <path fill="#FE7E28" d="M60.5 78.525c.2-.8.8-1.2 1.5-1.4-.5.3-.6 1.3-1.5 1.4z"/>
    <path fill="#FE7A20" d="M60.1 78.922l.5-.5c.2 1.1-.3 1.4-1.3 1.3.1-.3.5-.5.8-.8z"/>
    <path fill="#F94C1F" d="M70.3 45.323c-.2.1-.3.2-.5.3.2-.7.5-1.3 1-1.9.3.3-.1.6 0 .9-.2.3-.4.5-.5.7z"/>
    <path fill="#FA551C" d="M44.6 46.825c.2-.3.4-.6.8-.7 0 .9-.7 1.3-1.3 1.7-.3-.6.2-.7.5-1z"/>
    <path fill="#F53627" d="M70.002 42.625c.2.1.2.3.2.5-.5.3-.5.9-1 1.3 0-.2-.1-.4-.3-.5.5-.5.8-.9 1.1-1.3z"/>
    <path fill="#F9501E" d="M37.902 50.323c-.1.2-.2.3-.2.5-.2.1-.3.2-.5.3-.2.1-.3 0-.3-.2.1-.2.1-.3 0-.5.1-.4.4-.7.8-.7.1.2.3.3.2.6z"/>
    <path fill="#FE7B22" d="M79.7 29.922c.1.2.3.4.5.5-.3.3-.7.7-1 .4-.4-.5.3-.7.5-.9z"/>
    <path fill="#F53627" d="M69 45.822c-.1.2-.2.3-.3.5l-.2-.2c.1-.6.4-1.2.8-1.7 0 .4 0 1-.3 1.4z"/>
    <path fill="#FC6517" d="M26.9 61.324c.2-.2.5-.3.7-.5h.5l-1.5 1.2c-.1 0-.1-.1-.1-.1l.1-.1c.1-.2.1-.4.3-.5z"/>
    <path fill="#FA531D" d="M60.102 56.023v.2c-.1.7-.4.8-1 .5.2-.3.4-.6 1-.7z"/>
    <path fill="#FA591B" d="M36.902 50.624c.2.1.2.2 0 .2-.1.2-.2.5-.5.5-.2.1-.5.2-.7.3-.1-.2 0-.4.1-.6.3-.3.4-1.2 1.1-.4z"/>
    <path fill="#F94E1F" d="M49.598 43.323c-.5.1-.3-.4-.5-.5.3-.7.7-.3 1 0-.2.2-.3.4-.5.5z"/>
    <path fill="#FE781D" d="M54.6 81.523l-.3-.3c.4-.3.8-.6 1.2-1-.1.6-.5 1-.9 1.3z"/>
    <path fill="#F9511D" d="M46.8 68.523c.3-.5.6-.9 1.3-.5-.3.4-.8.5-1.3.5z"/>
    <path fill="#F84920" d="M29.202 81.526l-.3-.3c.3-.3.5-.7 1-.5-.2.3-.4.6-.7.8z"/>
    <path fill="#F63B25" d="M32.402 78.223l.3.3c-.4.3-.7.7-1.3.7.2-.4.6-.7 1-1z"/>
    <path fill="#F84920" d="M35.598 54.025c-.1-.2-.3-.2-.5-.2.3-.2.5-.4.9-.7.1.5-.1.7-.4.9z"/>
    <path fill="#F84921" d="M39.898 53.023l.3.3c-.2.3-.4.6-.8.4-.1-.4.2-.5.5-.7z"/>
    <path fill="#F53527" d="M34.1 57.024c-.3.4-.8.5-1.3.5.1-.3.4-.5.7-.5.3-.1.5-.1.6 0z"/>
    <path fill="#FA531C" d="M71.798 44.123l-.2-.2c.2-.2.3-.4.6-.7 0 .4-.2.7-.4.9z"/>
    <path fill="#FC6517" d="M36.398 51.324c.1-.2.3-.4.5-.5l.3.3c-.3.2-.4.7-.8.2z"/>
    <path fill="#F63D24" d="M52.098 44.625c-.2.4-.5.7-1 .8.2-.5.5-.8 1-.8z"/>
    <path fill="#FEA468" d="M60.1 78.922c-.1.4-.4.6-.8.8-.3-.8.4-.6.8-.8z"/>
    <path fill="#F9501E" d="M34.102 57.023h-.5c.2-.4.6-.5 1-.5-.1.2-.2.3-.3.5h-.2z"/>
    <path fill="#FC6019" d="M31.4 79.223c-.1.3-.1.7-.5.6-.1-.4.1-.5.5-.6z"/>
    <path fill="#FD6716" d="M44.6 46.824c-.1.3-.5.6-.5 1-.3-.2-.2-.5-.3-.7.3-.1.6-.2.8-.3z"/>
    <path fill="#FE954D" d="M66.8 53.622l-.3.3c-.2.1-.2-.1-.2-.2l.3-.3c.2-.1.3 0 .2.2z"/>
    <path fill="#FC6118" d="M70.3 45.325c0-.4.2-.6.5-.7h.2c-.2.2-.3.5-.5.7h-.2z"/>
    <path fill="#FEA060" d="M24.1 89.124c0 .1-.1.2-.1.3-.1 0-.2-.1-.2-.1 0-.1.1-.2.1-.3.1-.2.2-.1.2.1z"/>
    <path fill="#FE8533" d="M17.4 23.923c-.1.1-.3.2-.3.3 0 .3.2.1.3.1.3-.1.5-.1.7.1-.3.2-.5.3-.8.5-.4-.2-.7.4-1.2.2-.1 0-.2-.1-.3-.2.4-.7.8-1.4 1.2-2 .1-.1.2-.1.3 0 .1.1.1.2.1.3.3.3.2.5 0 .7z"/>
    <path fill="#FEC198" d="M16 24.922h.2c.2.1.5.2.5.5-.7.3-.8 1.2-1.5 1.4-.3-.3-.6-.1-.9-.2.3-.7 1.6-.6 1.7-1.7z"/>
    <path fill="#FE9956" d="M16.7 25.424l-.5-.5c.4.1.8-.5 1.3 0-.3.2-.6.3-.8.5z"/>
    <path fill="#FE8B3D" d="M15.9 21.426c-.4.3-.8.7-1.2 1-.1.2-.2.4-.5.2-.2-.3-.3-.7-.5-1 .3-.2.7-.3 1-.5.4 0 1-.6 1.2.3z"/>
    <path fill="#FE812D" d="M15.9 21.424c-.3-.4-.8-.2-1.2-.2l.7-.7c.1-.1.2-.1.3 0 .2.6.6.2 1 .2-.2.3-.4.5-.8.7z"/>
    <path fill="#FE8839" d="M15.702 20.423h-.3c.2-.4.5-.7 1-.7-.1.3-.4.5-.7.7z"/>
    <path fill="#FE812C" d="M17.4 22.922h-.3c-.1-.1-.2-.1-.3-.2 0-.5.3-.7.6-.9.3-.2.6-.4 1-.4.2.1.3.2.4.3v.3l-.8.8c0 .1-.3.1-.6.1z"/>
    <path fill="#FEA061" d="M17.598 21.925c-.2.3-.5.5-.7.8-.1 0-.2 0-.3-.1.1-.2.2-.5.3-.7.1-.2.2-.3.5-.3.1 0 .2.1.2.3z"/>
    <path fill="#FE832F" d="M14.2 22.622c.2-.1.3-.2.5-.2l.3.3c-.4.4-.8.7-1.3 1-.2-.6-.1-.9.5-1.1z"/>
    <path fill="#F74522" d="M28.398 62.823c.1-.4.5-.5.8-.7.7-.4 1.2-.8-.5-1.2 1.2-.2 1.8-.4 2.4-.9.6-.4 1.1-1 2-.7-.1.3-.1.7-.2 1-1.7.5-2.7 2.2-4.5 2.5z"/>
    <path fill="#FC6318" d="M48.802 49.124c.2-.1.4-.3.5-.5.3-.2.6-.3 1-.3.1.3-.1.4-.2.5-1.1.7-1.7 1.9-3 2.2-.2-.3-.3-.7-.5-1 .3-.4.6-.9 1.2-1 .4-.2.7 0 1 .1z"/>
    <path fill="#F84821" d="M30.9 67.024c-.3 0-.1-.7-.5-.5-.1 0-.2.3-.2.5-.1.7-.6.9-1.2 1.1-.3-.2-.6-.4-.5-.8.7-.7 1.5-1.3 2.2-2 .5 0 1-.2 1.1.6-.1.5-.7.7-.9 1.1z"/>
    <path fill="#F63D25" d="M31.602 65.824c-.2-.4-.7-.2-1-.5.7-.6 1.5-1.2 2.2-1.8.3-.1.4 0 .6.2.1.6-.6.8-.7 1.4-.1.3-.4.4-.6.7-.1.1-.3.1-.5 0z"/>
    <path fill="#F53128" d="M40.602 57.324c-.7 1.1-1.7 1.6-3 1.8.8-1 1.9-1.5 3-1.8z"/>
    <path fill="#F53029" d="M24.2 65.524c.8-.8 1.2-2.1 2.7-1.7-.8.7-1.7 1.4-2.7 1.7z"/>
    <path fill="#FC6517" d="M28.4 67.324c.2.3.5.4.5.7.2.6-.5.5-.7.7-.3.2-.7.5-1 .7.3-.7.7-1.5 1.2-2.1z"/>
    <path fill="#F84621" d="M23.2 74.524c-.1.1-.2.2-.3.2-.2-.1-.5-.2-.6-.5 0-.3.1-.5.1-.7.3-.4.7-.8 1-1.2.4 0 .4.2.2.5-.1.2-.2.5-.3.7.1.3 0 .7-.1 1z"/>
    <path fill="#F74322" d="M33.398 63.823c-.2-.1-.3-.2-.5-.3.4-.6 1-1 1.5-1.5.1.1.2.2.2.3-.1.8-.4 1.4-1.2 1.5z"/>
    <path fill="#F53429" d="M20.2 77.023c-.3 0-.5-.2-.5-.5.4-.4.8-.8 1.2-1.3.2-.1.3.1.4.2 0 .6-.4 1.1-.8 1.5-.1.2-.2.2-.3.1z"/>
    <path fill="#F74023" d="M34.402 62.323v-.2c.3-.5.5-1.2 1.2-1.3.3-.1.3 0 .3.3-.2.2-.3.5-.5.7-.4.1-.5.7-1 .5z"/>
    <path fill="#F53527" d="M21.198 75.523l-.3-.3c.5-.6 1-1.2 1.5-1.7.4.2.1.5 0 .7-.2.7-.4 1.3-1.2 1.3z"/>
    <path fill="#F9521E" d="M26.4 70.024c-.3.5-.7.9-1.2 1.2-.2 0-.4-.1-.5-.3.2-.5.8-.8 1.2-1 .2 0 .3-.1.5.1z"/>
    <path fill="#F3292C" d="M22.699 67.523c.4 0 .6-.4 1.4-.5-.7.7-1 1.2-1.7 1.4-.2-.5.2-.6.3-.9z"/>
    <path fill="#FB6019" d="M24.7 71.024c.2 0 .4.1.5.3-.2.3-.4.6-.7.8-.5.1-.3-.3-.5-.5 0-.5.7 0 .7-.6z"/>
    <path fill="#FC6517" d="M26.402 70.022h-.5c.3-.3.4-1.2 1.2-.5-.2.2-.4.3-.7.5z"/>
    <path fill="#F84B20" d="M23.9 71.524l.5.5c-.2.3-.4.6-.7.7 0-.2 0-.4-.2-.5.1-.2.3-.5.4-.7z"/>
    <path fill="#F53627" d="M32.898 60.324c-.2-.4-.3-.8.2-1 .1.2.3.4.5.5-.1.3-.4.3-.7.5z"/>
    <path fill="#F53128" d="M35.898 61.022l-.3-.3c.2-.3.4-.6.8-.8.3.7-.1.9-.5 1.1z"/>
    <path fill="#FE6F14" d="M12.198 56.325c.4-.1.6-.4.8-.7 1.4-.3 2.3-1.3 3.4-2 .3-.2.5-.4.8-.5.1.1.2.3.2.4 0 .3 0 .5-.3.6-.3.1-.4.2-.2.4-1.7 1.6-3.9 2.4-5.8 3.7-.3.2-.5.2-.5-.2.6-.6.8-1.4 1.6-1.7z"/>
    <path fill="#F74322" d="M11.7 53.524c-.1.4-.5.6-.5 1s-.2.6-.5.7c-.3-.8.2-1.3.7-1.7.1-.1.2-.1.3 0z"/>
    <path fill="#FA591B" d="M16.9 54.524c.1-.2-.9-.1-.1-.5.3-.1.4-.3.4-.5.1-.1.2-.1.3-.2.1 0 .2 0 .3.1l.1.1c-.2.5-.5.8-1 1z"/>
    <path fill="#FB5D1A" d="M19.202 52.523c-.1.2-.2.3-.3.5-.3.1-.6.5-1 .5.1-.8.4-1.1 1.3-1z"/>
    <path fill="#FB6019" d="M10.7 58.024c.1.2.3.2.5.2-.2.3-.5.6-.8.4-.3-.2.1-.4.3-.6z"/>
    <path fill="#FA571C" d="M11.698 53.523h-.3v-.5c.2-.2.5-.3.7-.5v.5c-.1.2-.2.4-.4.5z"/>
    <path fill="#FC6119" d="M23.198 64.325c.4-.7.9-1.1 1.8-1.2.1 0 .2.1.3.3l-1.8 1.2c-.3 0-.4-.1-.3-.3z"/>
    <path fill="#FC6517" d="M25.198 63.324l-.3-.3c.6-.4.9-1.1 1.8-1.2v.2c-.5.4-1 .8-1.5 1.3z"/>
    <path fill="#F73F24" d="M23.199 64.324c.1.1.2.2.3.2l-.5.5c-.5-.4-.1-.5.2-.7z"/>
    <path fill="#FD6E1A" d="M21.2 75.523c.6-.2.7-1 1.2-1.3.2.1.4.2.5.5-.6.8-1.1 1.7-1.9 2.3-.2.1-.4.2-.5-.1.2-.5.4-.9.7-1.4z"/>
    <path fill="#F65F64" d="M19.2 79.724c-.2-.1-.4-.5-.7-.3v-.2c.2-.4.4-.7.6-1.1.4-.2.7-.6 1.1-.8.2-.1.5-.1.6.1-.4 1-1.1 1.5-1.6 2.3z"/>
    <path fill="#F53328" d="M28.2 68.825l.7-.7c.4-.3.8-.7 1.2-1 .5 1.2-.8 1.4-1.2 2-.2-.4-.5-.3-.7-.3z"/>
    <path fill="#F42E29" d="M23.2 74.524c0-.3-.1-.7.2-1 .4.4 0 .7-.2 1z"/>
    <path fill="#F9999C" d="M18 81.722h-.5c.2-.4.4-.8 1-.8-.2.3-.4.5-.5.8z"/>
    <path fill="#F78387" d="M11.7 75.524l-.2-.2c.2-.3.4-.5.8-.5-.1.3-.2.5-.6.7z"/>
    <path fill="#FE9D5C" d="M54.802 83.222h-.4c-.3.2-.6.3-1 0 .6-.5 1.1-1.1 2-1-.2.3-.4.7-.6 1z"/>
    <path fill="#FE944C" d="M53 83.725c-1 .5-1.3-.4-1.7-1 .8-.3 1.2.6 1.8.7.1.1.1.1.1.2-.1.1-.1.1-.2.1z"/>
    <path fill="#FEC59E" d="M53 83.724v-.2c.1-.1.2-.2.3-.2h1c.1.3-.6.7 0 1-.5.1-.7-.2-1-.5-.1-.1-.2-.1-.3-.1z"/>
    <path fill="#F73E24" d="M71.5 26.624c-.5.4-1 .9-2 1 .5-.7 1.1-1 1.7-1.3.2.1.3.2.3.3z"/>
    <path fill="#F42F29" d="M73 25.925h-.5c-.1 0-.2-.1-.3-.3.5-.4 1.1-.8 1.7-1-.2.5-.6.9-.9 1.3z"/>
    <path fill="#F84C20" d="M72.3 25.625l.3.3c-.2.4-.6.5-1 .7l-.3-.3c.3-.2.6-.4 1-.7z"/>
    <path fill="#F42E29" d="M70 29.324c-.6.6-1 .9-1.7 1.1.4-.7.9-.9 1.7-1.1z"/>
    <path fill="#F53128" d="M72.998 25.924c.2 0 .4 0 .8-.1-.3.3-.5.7-.9.5 0-.1.1-.3.1-.4z"/>
    <path fill="#F94B20" d="M77.402 24.125c.1-.3.3-.6.5-.5.4.2 0 .3-.2.4 0 .1-.2 0-.3.1z"/>
    <path fill="#F42F29" d="M74 24.623c.1-.2.2-.4.5-.4 0 0 .1.1.1.2-.1.3-.4.2-.6.2z"/>
    <path fill="#F74222" d="M25.7 59.824c.3 0 .5.2.2.4-.3.3-.6.8-1.1.9 0-.2-.1-.4-.1-.6.5 0 .7-.3 1-.7z"/>
    <path fill="#F84621" d="M28.202 57.822c-.3.4-.5 1.1-1.3.5.2-.2.5-.3.7-.5.2-.2.4-.2.6 0z"/>
    <path fill="#F63B25" d="M28.2 57.825h-.5c.2-.4.5-.7 1-.7 0 .3 0 .7-.5.7z"/>
    <path fill="#F94F1E" d="M23.402 61.324c.4.4.2.7-.8 1 .3-.4.6-.7.8-1z"/>
    <path fill="#F63926" d="M29.7 56.523c-.3.1-.6.5-1 .5.2-.4.5-.7 1-.8v.3z"/>
    <path fill="#F42D2A" d="M29.7 56.524v-.3c.1-.2.2-.4.6-.4-.1.4-.4.6-.6.7z"/>
    <path fill="#FA571C" d="M52.3 39.624c-.4.3-.8.7-1.2 1-.2.1-.3 0-.3-.3l.5-.5c.3-.2.5-.3.8-.5.2-.1.3.1.2.3z"/>
    <path fill="#F63B25" d="M43.9 46.325l-.2.2v-.2-.5c.3 0 .5-.8 1-.2-.2.3-.6.5-.8.7z"/>
    <path fill="#F42E2A" d="M43.902 46.325c.2-.3.4-.6.7-.7h.3c-.3.4-.5.7-1 .7z"/>
    <path fill="#F53427" d="M50.798 40.324l.3.3c-.2.3-.3.7-.7.2.1-.1.3-.3.4-.5z"/>
    <path fill="#F94C1F" d="M57.3 35.923c-.2.3-.4.6-.8.7-.4-.1-.4-.4-.3-.7.2-.1.5-.2.7-.2.3 0 .4 0 .4.2z"/>
    <path fill="#F94F1F" d="M56.3 35.125h.5c-.2.3-.3.5-.5.8-.8-.3.1-.5 0-.8z"/>
    <path fill="#F94A20" d="M52.298 39.622l-.2-.2c.3-.3.6-.5 1-.5-.2.3-.4.5-.8.7z"/>
    <path fill="#FE9750" d="M21.7 20.424c-.7 1-1.7 1.6-2.7 2.3-.1.1-.2 0-.3 0-.1-.4.3-.5.4-.8.2-.2.5-.4.6-.6.2-.3.5-.5.7-.8.1-.1.1-.2.2-.2.3-.2.6-.5 1.1-.3.1.1.1.3 0 .4z"/>
    <path fill="#FE8D41" d="M20.7 22.623c-.5.2-.7.8-1.2.8.3-.3.6-.7.9-1 .2-.2.3 0 .3.2z"/>
    <path fill="#FE9753" d="M21.698 20.422v-.5c-.1-.1-.1-.1-.1-.2s.1-.1.1-.1c.1-.1.2-.2.3-.2 0 .3.2.5.5.5-.3.2-.6.3-.8.5z"/>
    <path fill="#FE8431" d="M17.402 23.922v-.7c.3-.2.5 0 .7.1l.1.1v.2c-.3.1-.5.2-.8.3z"/>
    <path fill="#FE7F28" d="M18.7 22.724h.2c0 .4-.3.7-.7.7-.2-.3.1-.6.2-.8.1-.1.2 0 .3.1z"/>
    <path fill="#FC6218" d="M33.9 32.125c.5.5.5.5-.7.9.3-.3.5-.6.7-.9z"/>
    <path fill="#FA561C" d="M57.3 35.925l-.3-.3c.4-.3.8-.7 1.2-1 .4 0 .4.2.2.5-.3.3-.7.5-1.1.8z"/>
    <path fill="#FB5B1A" d="M17.4 53.625h-.2v-.5c.2-.4.6-.7 1-1l.2.2c0 .7-.7.8-1 1.3z"/>
    <path fill="#FE924A" d="M19.9 18.922c.2.1.3.2.5.2.2.4-.1.6-.4.9-.5.3-.8.7-1.3 1h-.3c-.3-.1-.5-.1-.7-.4.5-.7 1.4-1.1 2-1.7h.2z"/>
    <path fill="#FEA76C" d="M17.7 20.625c.3 0 .6 0 .8.3-.2.4-.4.7-.9.4 0-.1-.1-.1-.1-.2-.1-.2 0-.3.2-.5z"/>
    <path fill="#FB5E19" d="M36.902 50.623c-.6-.4-.7.3-1 .5-.3.1-.4 0-.5-.2.6-.7 1.6-.9 2-1.7h.7c.1.1.1.2.1.3-.1.2-.3.4-.6.5-.3 0-.6.2-.7.6z"/>
    <path fill="#FD6716" d="M35.4 50.824c.2.1.3.2.5.2-.1.2-.2.3-.2.5-.2-.1-.5-.2-.7-.2 0-.2.2-.4.4-.5z"/>
    <path fill="#F53627" d="M34.6 51.324c.3.6-.1.8-.5 1-.3-.6.2-.8.5-1z"/>
    <path fill="#F53527" d="M17.402 53.625c0-.7.7-.8 1-1.2.3-.2.7-.5 1-.7.1-.1.3-.1.5-.1.1.6-.4.8-.7 1.1-.6.1-.9.5-1.2 1-.2-.2-.4-.2-.6-.1z"/>
    <path fill="#FB5C1A" d="M19.2 52.624c.3-.3.5-.7.8-1 .2-.1.3-.2.5 0h.3c-.5.5-1 .8-1.6 1z"/>
    <path fill="#F84B20" d="M20.402 51.625h-1c.3-.3.6-.6 1-.4.1-.1 0 .2 0 .4z"/>
    <path fill="#FE8D40" d="M19.898 19.922c.2-.3.3-.5.5-.8v-.2h.5c.1.2.2.3.3.5-.1.2-.2.5-.4.6-.2.2-.4.3-.1.6-.2.3-.5.5-.7.8-.3.2-.6.1-.8-.2-.2-.7.3-1 .7-1.3z"/>
    <path fill="#FA541D" d="M38.098 49.325v-.2c.1-.2.2-.3.2-.5.4-.4.9-.7 1.5-1 .2.1.5 0 .6.4-.7.5-1.1 1.5-2.3 1.3z"/>
    <path fill="#FE7213" d="M40.402 47.823c-.2 0-.4 0-.5-.2.1-.1.2-.2.3-.2.4-.2.8-.5 1.2-.7.8.3-.1.5 0 .7-.3.2-.6.5-1 .4z"/>
    <path fill="#FE781E" d="M20.7 19.922c.1-.2.3-.4.5-.5.1.2.3.2.5.2v.2c-.3.2-.7.3-1 .5-.2-.1-.2-.2 0-.4z"/>
    <path fill="#FB5C1A" d="M58.098 58.026v.3c-.6 0-.8.6-1.2.8-.2.1-.3 0-.3-.3.4-.5.7-1 1.5-.8z"/>
    <path fill="#FC6118" d="M68 48.124c-.3.2-.6.4-.8.7h-.5c.3-.3.6-.7.9-1 .4-.2.4.1.4.3z"/>
    <path fill="#F9521D" d="M56.6 58.824l.3.3c-.2.3-.4.6-.8.7l-.3-.3c.2-.3.4-.6.8-.7z"/>
    <path fill="#FA531D" d="M60 56.024c.2-.4.5-.8 1.3-1-.4.6-.7 1-1.3 1 0 0 .1 0 0 0z"/>
    <path fill="#F74322" d="M66.7 49.024c-.3.5-.5.7-.9.9.1-.4.4-.7.9-.9z"/>
    <path fill="#F9501E" d="M53.6 62.524c-.2.2-.2.8-.8.5.2-.3.4-.5.8-.5z"/>
    <path fill="#FA561C" d="M49.1 66.524v.3c-.3 0-.5.5-.6.2-.2-.3.3-.5.6-.5z"/>
    <path fill="#F42E29" d="M50.098 48.825c.1-.2.2-.3.2-.5.2-.7.8-.9 1.5-1.2.5 1-.5 1.3-.8 2-.2-.1-.6-.2-.9-.3z"/>
    <path fill="#FC6118" d="M46.599 53.024c.8-.9 1.5-1.9 2.8-2.2-.7.8-1.5 1.7-2.2 2.5h-.2c-.4.1-.5 0-.4-.3z"/>
    <path fill="#F52F29" d="M59.198 40.922c-.2.5-.5.7-1.1.6.3-.4.6-.5 1.1-.6z"/>
    <path fill="#F42C2A" d="M34.4 62.324c.3-.1.6-.5 1-.5-.7 1-1.1 2.2-2 3-.2.1-.4.4-.7.2-.2-.7.6-.7.8-1.2.4-.4 1-.8.9-1.5z"/>
    <path fill="#FB5A1A" d="M31.598 65.824h.5v.5c-.3.2-.7.5-1 .7h-.2c0-.6.6-.8.7-1.2z"/>
    <path fill="#F84921" d="M32.602 65.024c.2-.1.5-.2.7-.2-.3.5-.6.9-1.2 1 0-.4.4-.5.5-.8z"/>
    <path fill="#F94F1E" d="M46.6 53.024l.3.3c-.1.2-.3.6-.6.3-.3-.2.1-.4.3-.6z"/>
    <path fill="#F64023" d="M46.602 48.823v-.3c.4.1.5-1 1-.3-.4.3-.6.6-1 .6z"/>
    <path fill="#F53527" d="M33.5 59.024c-.1-.3.1-.4.2-.5.1-.1.3-.1.5-.2-.1.4-.3.6-.7.7z"/>
    <path fill="#FA581B" d="M48.8 49.125c-.3.2-.7 0-1 0l.5-.5c.2.1.4.3.5.5z"/>
    <path fill="#FA561C" d="M27.7 82.723c.1-.3.4-.5.7-.5h.3c-.3.3-.6.5-1 .5z"/>
    <path fill="#F53627" d="M40.402 47.824c.3-.1.6-.5 1-.5.3.5-.3.4-.4.6-.3.3-.9.5-.6 1.1-.1.1-.2.2-.3.2-.7-.1-.9.6-1.5.7-.2.1-.5.2-.7.3-.1-.2-.2-.3-.3-.5l.5-.5c.9-.2 1.5-1 2.3-1.4z"/>
    <path fill="#F74322" d="M38.598 50.122c.4-.5.6-1.2 1.5-.7-.5.1-.7 1.1-1.5.7z"/>
    <path fill="#FEB27E" d="M18.5 22.724c-.1.2-.2.5-.3.7-.2-.1-.5-.1-.7-.2v-.3c.2-.3.5-.2.7-.3.1-.1.2 0 .3.1z"/>
    <path fill="#FE8F44" d="M17.398 21.624v-.5c.4.3.7-.1 1-.3h.3c.1.1.1.2.1.4l-.1.1c-.3.2-.6.6-1 .5-.1 0-.2-.1-.3-.2z"/>
    <path fill="#FEC6A1" d="M18.5 22.725c-.1 0-.2 0-.3-.1.1-.4.3-.7.8-.8.1-.1.2-.1.3 0-.2.3-.3.5-.5.8-.2.1-.2.1-.3.1z"/>
    <path fill="#FEB889" d="M19.202 21.923h-.3V21.623c0-.1.1-.2.1-.3 0 0 .1 0 .1-.1.2.1.5.2.7.2 0 .3-.2.5-.6.5z"/>
    <path fill="#FE7F28" d="M18.9 21.623l-.2-.2c.1-.1.2-.1.3 0 0 .1 0 .2-.1.2z"/>
    <path fill="#FE7920" d="M20.7 19.922v.7c-.8-.2-.4-.5 0-.7z"/>
    <path fill="#FE8533" d="M18.9 21.422h-.2v-.5c.3-.5.6-.9 1.2-1-.2.4-.5.9-.7 1.3-.1 0-.1.2-.3.2z"/>
    <path fill="#FE8432" d="M18.902 21.423c.1-.1.2-.2.3-.2 0 .2-.1.4-.3.5v-.3z"/>
</svg>
