<svg xmlns="http://www.w3.org/2000/svg" width="39" height="30" fill="none" viewBox="0 0 39 30">
    <path fill="#FEBA3D" d="M37.736 24.45c-.413-.414-.413-.968-.619-1.453-.55-1.245-1.306-2.284-1.787-3.53-.618-.83-1.03-1.868-1.58-2.699-1.512-2.353-3.71-4.083-6.047-5.675-.55-.346-1.1-.692-1.787-.761-1.168-.554-2.405-.9-3.642-1.177-1.1-.208-2.198-.554-3.435-.485-.413 0-1.031.07-1.306-.484-.412-.761-.962-1.315-1.374-2.007-.206-.416-.344-.9-.825-1.108-.137-.069-.275-.138-.343-.138-.344-.208-.688-.485-1.031-.761-.138-.07-.275-.208-.413-.277-.137-.07-.274-.139-.48-.07-.413.208-.276.554-.276.9 0 .208-.068.346-.068.554V5.487c.068.207.206.346.343.553.55.623 1.169 1.246 1.718 1.87.344.414.413.76-.275.968-.48.138-.893.277-1.305.485-.069 0-.069.069-.138.069l-.068.069c-.688.415-1.58.554-2.268 1.038 0 0-.069 0-.069.07v.138c0 .138.207.138.207.277v.069c-.07 0-.07.07-.138.07 0 0-.069.068-.137.068-.825-.069-1.306.346-1.718.9-.069.07-.138.139-.138.208-.137.277-.412.553-.618.83v.139c-.069.069-.069.138-.138.207-.068.07-.068.139-.068.139-.069.069-.069.138-.138.277-.068.069-.137.207-.206.276V13.861 13.653c0-.069-.069-.207-.069-.276-.068-.139-.206-.208-.48-.07-2.062 2.285-2.406 4.845-1.031 7.614.206.346.618.623.824.969.756 1.315 1.924 1.8 3.299 2.146 1.305 0 2.61-.139 3.779-.831 1.03-.554 1.512-1.453 2.13-2.353v-.07c.206-.415.481-.83.825-1.176 1.237-1.384 1.649-2.976 1.855-4.707 0-.276-.069-.553-.275-.553-.618-.07-.55-.346-.343-.554.068-.07.068-.138.137-.207.069 0 .069-.07.138-.07.068 0 .068 0 .137-.069.069 0 .137-.07.206-.07.412-.276.275-.691.275-1.106-.069-.485.137-.762.687-.693.55.07 1.1 0 1.65.139 1.236.554 2.473 1.038 3.71 1.522 2.543 1.039 4.673 2.7 6.39 4.845.207.416.62.692.756 1.177v.138c0 .277.207.416.344.554 1.1 1.592 2.13 3.253 2.749 5.052.275.9.48 1.87.962 2.7.206.553.275 1.246.824 1.592 1.169-1.592 1.1-3.184.688-4.845zm-25.22-4.429c-.687.554-1.374.83-2.13.554-.962-.346-1.786-1.038-1.924-2.215-.137-2.007.619-3.599 2.13-4.914 1.237-1.107 2.75-1.73 4.467-1.938.206 0 .481 0 .619-.207.55.138.824.345.48.969-.137.207-.068.484-.137.76-.137 1.177-.137 2.285-.824 3.323-.275.484-.55.969-.825 1.523-.618.692-1.168 1.522-1.855 2.145z"/>
    <path fill="#FECB6B" d="M25.985 10.334c-1.306-.346-2.474-.9-3.848-1.108-1.1-.138-2.13-.484-3.23-.415-1.374.138-1.787-1.038-2.336-1.869-.413-.554-.688-1.246-1.237-1.73-.413-.346-.825-.692-1.306-.97-.206-.138-.343-.276-.412-.414-.069-.07-.069-.208-.069-.277v-.07c0-.069.069-.138.069-.138 1.512.692 2.268 2.077 3.16 3.392.55.76.757 1.937 1.994 1.868 2.336-.069 4.466.623 6.596 1.385.275.069.481.138.619.346z"/>
    <path fill="#FEBC43" d="M9.699 2.304v.139s0 .069-.069.069c-.55.207-1.03-.07-1.374-.416C7.225.851 5.782.781 4.339.712c-.825 0-1.65.208-2.405.415-.619.139-1.03.485-1.237 1.039-.206.484 0 .969.412 1.176.481.277.413-.277.619-.484.275-.277.55-.485.824-.07 0 0 0 .07-.068.07-.207.346-.481.484-.481.9-.07.484-.413.692-.894.415-1.511-1.038-1.511-2.284.206-3.46C2.827.227 4.34-.05 5.92.365c.138.07.207.07.344.07.206 0 .481-.07.687.069h.138c.274.138.48.207.755.346l.07.069c.343.346.755.692 1.167.9 0 0 .07.069.138.069.069 0 .069.07.137.07.138.068.275.137.344.345 0 0 0-.07 0 0z"/>
    <path fill="#FED486" d="M9.836 3.483c-.206.07-.343.138-.48 0-1.238-.623-2.612-.346-3.918-.484-.962-.07-1.924.207-2.886.276-.48 0-.412.416-.48.692-.207.485-.482.831-.963.208.413 0 .756 0 .756-.623 0-.346.206-.553.619-.623.55-.207 1.168-.207 1.718-.346.755-.069 1.443-.069 2.199-.138.206 0 .412-.07.687-.139.068 0 .068 0 .137-.069h.138c.618-.069 1.236.415 1.855.623h.069c.068 0 .137.07.206.07.068.069.137.069.137.138.069 0 .069.069.138.138.137.07.137.139.068.277z"/>
    <path fill="#FEBD45" d="M18.77 14.694c-.207 2.284-1.238 4.152-2.75 5.883-.068.069-.068.069-.137.069 0 0-.068 0-.068-.07.137-.553.48-.899.824-1.245 1.168-1.315 1.58-2.976 1.855-4.637 0-.208 0-.346-.206-.416-.275-.138-.206.208-.275.277-.137-.069-.206 0-.275 0-.137 0-.206-.138-.137-.277.275-.415-.069-.969.275-1.384.069.07.137.208.206.277l.069.07c0 .068.069.138.137.207.069.07.069.138.138.138.275.346.55.692.343 1.108z"/>
    <path fill="#FED487" d="M14.784 8.81c-.481.139-1.031.346-1.512.554-.069.07-.138.07-.275.07 0 0-.069 0-.069-.07.344-.485.962-.415 1.443-.623.894-.346.55-.761.138-1.107-.55-.554-1.237-.97-1.856-1.454-.137-.07-.206-.207-.274-.277-.07-.277-.275-.484-.275-.761l.069-.07c.068-.068.137-.068.137-.068.137 0 .206.138.343.207h.07c.068.07.068.139.137.139.824.76 1.443 1.66 2.13 2.491.412.485.412.762-.206.97z"/>
    <path fill="#FED07C" d="M21.106 11.371c-.688.139-1.65-.346-2.062.208-.343.415-.069 1.384-.137 2.076 0 .347.069.762-.206 1.039 0-.416-.138-.693-.55-.9-.069-.139-.137-.346-.069-.485 0-.069.069-.138.069-.207.069-.07.069-.139.137-.208.344-.346.344-.761.344-1.177 0-.484.206-.76.687-.692.687.07 1.306.07 1.787.346z"/>
    <path fill="#FED27D" d="M37.735 24.45c-.618-.345-.55-1.037-.825-1.522-.48-.9-.824-1.8-1.374-2.699-.137-.277-.206-.485-.206-.83.962 1.66 1.855 3.252 2.405 5.052z"/>
    <path fill="#FECA6B" d="M10.043 23.83c-1.1-.069-2.13-.415-2.817-1.314-.413-.623-1.031-1.039-1.306-1.73.206.207.48.345.618.553.825 1.246 2.062 2.007 3.505 2.492z"/>
    <path fill="#FEC65D" d="M12.585 3.482l-.069.069c-.618.069-1.168-.139-1.649-.485l-.069-.069V2.86s0-.07.07-.07c.068-.069.205-.138.274-.138.137 0 .206-.07.344-.07h.068c.138-.068.138-.207.206-.276.344.07.756.07.894.554 0 .138.137.415-.069.623z"/>
    <path fill="#FECB6E" d="M10.867 11.163c-.138.069-.275.346-.413.276-.962-.415-1.168.554-1.649.97-.069-.07-.069-.07-.069-.139-.068-.208.138-.346.207-.554.48-.553 1.03-1.107 1.718-1.384.068 0 .068.07.068.07v.138l-.068.069v.07c0 .068 0 .137.068.137 0 0 .069.07.069.139v.07c0 .068 0 .138.069.138z"/>
    <path fill="#FEE2AC" d="M5.92.367C4.338.09 2.826.505 1.314.713 2.758-.05 4.34-.257 5.92.367z"/>
    <path fill="#FECF7B" d="M16.02 20.508c-.549.969-1.03 2.076-2.198 2.422.824-.692 1.443-1.523 2.061-2.422h.138z"/>
    <path fill="#FEC151" d="M13.272 9.295c-.756.623-1.718.693-2.543 1.177v-.07-.138c.688-.553 1.512-.692 2.268-1.038h.069c.069.07.137.07.206.07z"/>
    <path fill="#FEC355" d="M11.76 2.58c-.206.069-.412.069-.55 0-.206-.07-.412-.139-.55-.208h-.068-.069c-.137-.139-.343-.208-.343-.415v-.07c.068-.069.137-.138.206-.138.069-.07.206-.07.275-.07.275 0 .48.278.756.278.137.069.206.207.343.276 0 .139.138.208 0 .346z"/>
    <path fill="#FEBC43" d="M13.616 3.272v.208h-.068c-.207.07-.413.07-.619.139-.137.069-.343.069-.275-.139v-.07c.069-.207-.206-.484 0-.691.344.138.688.207.962.553z"/>
    <path fill="#FECC6F" d="M32.1 18.985h-.137c-.206-.416-.687-.693-.687-1.177.274.346.756.554.824 1.177z"/>
    <path fill="#FED78F" d="M7.499 13.792c-.069 0-.069 0 0 0-.069.07-.137.07-.206 0-.069-.277.069-.623-.344-.692.069-.277.275-.346.55-.346.206.277.069.484 0 .761-.069.07-.069.208 0 .277z"/>
    <path fill="#FEE0A8" d="M10.73 1.543s-.07.07-.138.07c-.069.069-.206.069-.275.069-.137 0-.206.069-.275.207-.343.07-.48-.138-.618-.277l-.069-.069.069-.07c.206-.207.412-.068.687-.138.137.07.412 0 .618.208z"/>
    <path fill="#FED27F" d="M11.348 1.889c-.412.07-.825-.415-1.237 0h-.137c.068-.485.412-.277.687-.346.275.07.55.07.687.346z"/>
    <path fill="#FEE2AC" d="M6.95.505c-.343 0-.756.138-1.03-.139.343 0 .687-.138 1.03.139z"/>
    <path fill="#FEBB3E" d="M12.585 3.483c.068.069.206.138.275.069.206-.692.48-.208.756-.07.137.624.687.693 1.099 1.039.206.208.412.415.618.692-.687-.208-1.168-.761-1.717-1.107-.138-.07-.275-.277-.413-.139-.275.07-.275.208-.137.416.137.346-.069.622-.138.968h-.137c-.138-.276-.481-.415-.619-.692.344-.623-.206-.415-.48-.553-.275-.139-.55-.277-.825-.485-.413-.207-.893-.346-1.374-.484-.619-.416-1.237-.623-1.925-.83-.137-.07-.274-.14-.412-.07-.893.692-1.993.277-2.955.554-.55.138-1.1.346-1.718.138-.618-.415-.687.208-.824.554-.069.415-.138.484-.55.277-.893-.485-1.1-1.661-.069-2.492C2.346.299 6.538.091 7.912 1.406c.275.277.55.623.962.83.275.14.55.209.825.209.137 0 .275 0 .412.069.275.138.55.207.756.415.55.208 1.168.346 1.718.554z"/>
    <path fill="#FEC968" d="M16.638 11.649c-.275 2.215-.55 4.499-2.199 6.229.275-.484.482-1.038.825-1.523.619-1.038.687-2.214.825-3.322 0-.277 0-.484.137-.761.344-.554.069-.83-.48-.97.411-.414.892.14.892.347z"/>
    <path fill="#FEC55A" d="M9.63 22.445c-.069.346-.275.346-.48.277-.276 0-.55-.138-.482-.415.069-.346.412-.07.619-.208.274-.07.412.139.343.346z"/>
    <path fill="#FEC964" d="M7.294 13.795H7.5c.275.07.413-.277.688-.346-.07.485-.413.762-.756 1.177-.207-.277-.138-.554-.138-.83z"/>
    <path fill="#FEC253" d="M18.426 12.965c-.068.277-.137.553-.137.83-.275-.207-.344-.553-.344-.83h.481z"/>
    <path fill="#FEC151" d="M10.523 10.885c-.206-.207 0-.277.137-.346.138.07.344.139.481.277.138.138.206.346-.137.207-.138-.069-.344.07-.481-.138z"/>
    <path fill="#FED890" d="M7.637 22.098c.068-.415.275-.415.55-.208-.07.416-.344.277-.55.208z"/>
    <path fill="#FECE73" d="M7.637 22.098c.206 0 .412 0 .55-.207.137.069.274.207.137.277-.206.138-.481.138-.687-.07z"/>
    <path fill="#FEDB9C" d="M10.523 10.886c.207 0 .413-.069.481.139-.068.07-.137.138-.206.138-.137.07-.275-.069-.275-.277z"/>
    <path fill="#FED27F" d="M9.699 2.235c.275.07.55.138.893.138.069.07 0 .139 0 .208-.137.07-.344.07-.481-.07-.137 0-.275 0-.344-.138-.068 0-.068-.069-.068-.138z"/>
    <path fill="#FEBC43" d="M4.201 2.787c.344-.346.756-.138 1.1-.138.48-.07.962.07 1.374-.415.206-.277.618-.07.962 0 .687.207 1.374.346 1.855.969-1.374-.97-2.886-.416-4.398-.416h-.893zM9.492 3.133c.55 0 1.03.069 1.512.346-.137.346-.412.277-.756.208-.137-.07-.344-.139-.481-.208-.069-.139-.137-.277-.275-.346z"/>
    <path fill="#FEC356" d="M10.317 3.688c.275-.069.481-.138.756-.207.137.276.412.346.687.484.275.139.412.415.481.692.138.208.55.277.481.692-.206-.138-.343-.207-.55-.346-.55-.346-.824-.969-1.511-1.038-.069-.07-.206-.208-.344-.277z"/>
    <path fill="#FEBC43" d="M10.524 2.581c.137.07.206.138.343.138v.208c-.344 0-.618-.07-.825-.346h.482zM12.24 4.657c-.137-.208-.343-.485-.48-.693h.137c.275.277.619-.415.825 0 .137.416-.55.277-.481.693z"/>
</svg>
