<svg xmlns="http://www.w3.org/2000/svg" width="45" height="45" fill="none" viewBox="0 0 45 45">
    <rect width="45" height="45" fill="#FFF7E0" rx="22.5"/>
    <path fill="#FB0" d="M28.564 18.57c-2.334 0-4.224 1.89-4.224 4.336 0 1 .333 1.89.89 2.557h-4.56c.557-.667.89-1.668.89-2.557 0-2.446-1.89-4.336-4.224-4.336-2.446 0-4.336 1.89-4.336 4.336 0 2.335 1.89 4.225 4.336 4.225h11.228c2.335 0 4.336-1.89 4.336-4.225-.111-2.446-2.001-4.336-4.336-4.336zm-11.228 6.893c-1.445 0-2.668-1.223-2.668-2.557 0-1.445 1.223-2.668 2.668-2.668s2.668 1.223 2.668 2.668c-.111 1.334-1.334 2.557-2.668 2.557zm11.228 0c-1.445 0-2.557-1.223-2.557-2.557 0-1.445 1.112-2.668 2.557-2.668 1.445 0 2.668 1.223 2.668 2.668-.11 1.334-1.223 2.557-2.668 2.557z"/>
</svg>
