<svg xmlns="http://www.w3.org/2000/svg" width="45" height="45" fill="none" viewBox="0 0 45 45">
    <rect width="45" height="45" fill="#D1FFF2" rx="22.5"/>
    <path fill="#29B68D" d="M25.402 24.398v-5.1c0-1.6-1.3-2.9-2.9-2.9-1.6 0-2.9 1.3-2.9 2.9v5.1c0 .7.3 1.5.8 2 .5.6 1.3.9 2.1.9 1.6-.1 2.9-1.3 2.9-2.9zm-4.3 0v-5.1c0-.8.6-1.4 1.4-1.4.8 0 1.4.6 1.4 1.4v5.1c0 .8-.6 1.4-1.4 1.4-.4 0-.7-.1-1-.4-.2-.3-.4-.7-.4-1z"/>
    <path fill="#29B68D" d="M28.298 23.602c-.4 0-.8.3-.8.8 0 2.8-2.3 5-5.1 5s-5.1-2.3-5.1-5c0-.4-.3-.8-.8-.8s-.6.4-.6.8c0 3.3 2.5 6.1 5.8 6.5v1.9h-1.9c-.4 0-.8.3-.8.8s.3.8.8.8h5.4c.4 0 .8-.3.8-.8s-.3-.8-.8-.8h-1.9v-1.9c3.3-.4 5.8-3.1 5.8-6.5 0-.4-.3-.8-.8-.8z"/>
    <path fill="#29B68D" d="M32.8 17.8h-.6c-1-4.4-4.9-7.8-9.7-7.8-4.8 0-8.7 3.3-9.6 7.8h-.7C10.4 17.8 9 19.2 9 21v1.6c0 1.8 1.4 3.2 3.2 3.2h.9c.1 0 .2-.1.3-.2.4 0 .7-.3.7-.7v-5c0-4.6 3.8-8.4 8.4-8.4 4.6 0 8.4 3.8 8.4 8.4v4.9c0 .4.3.7.6.7.1.1.2.2.3.2h.9c1.8 0 3.2-1.4 3.2-3.2V21c.1-1.8-1.4-3.2-3.1-3.2z"/>
</svg>
