<svg xmlns="http://www.w3.org/2000/svg" width="45" height="45" fill="none" viewBox="0 0 45 45">
    <rect width="45" height="45" fill="#FFE5E6" rx="22.5"/>
    <path fill="#FF4651" d="M25.828 27.783c-.366-.457-.824-.64-1.373-.732-.64-.091-1.372-.274-1.921-.457-.366-.183-.823-.183-1.19-.092-.365.092-.823.275-1.097.549l-.64.549c-1.465-.915-2.654-2.104-3.569-3.568l.55-.549c.274-.274.548-.64.548-1.098.183-.366.183-.823 0-1.19-.274-.64-.366-1.372-.457-2.012-.092-.549-.366-1.006-.824-1.372-.366-.366-.915-.55-1.372-.55h-2.287c-.275 0-.64.092-.915.184-.275.183-.458.366-.732.549-.274.183-.366.549-.457.823-.092.274-.092.549-.092.915.274 2.47 1.098 4.757 2.47 6.862 1.19 1.83 2.836 3.476 4.666 4.665 2.013 1.281 4.392 2.105 6.862 2.38h.183c.274 0 .457 0 .732-.092.274-.092.549-.275.823-.458.183-.183.366-.457.549-.732.091-.274.183-.549.183-.915v-2.287c-.091-.457-.274-1.006-.64-1.372zm-.824 1.464v2.287c0 .091 0 .183-.091.366-.092.091-.092.183-.183.274-.092.092-.183.092-.275.183-.091 0-.183.092-.274.092-2.196-.275-4.392-1.006-6.222-2.196-1.738-1.098-3.202-2.562-4.3-4.3-1.189-1.83-2.012-4.025-2.195-6.221v-.366c0-.183.091-.183.183-.274 0-.275.091-.275.183-.366.091-.092.183-.092.366-.092h2.287c.183 0 .366.091.549.183l.274.549c.092.732.275 1.555.55 2.287.09.183.09.275 0 .458 0 .183-.092.274-.184.366l-.823.823c-.275.274-.366.732-.092 1.098 1.098 1.921 2.654 3.476 4.575 4.574.366.183.732.183 1.006-.183l.824-.823c.091-.092.274-.183.366-.183h.457c.732.274 1.464.457 2.287.549.183 0 .366.091.55.274.09.183.182.366.182.64z"/>
    <path fill="#FF4651" d="M27.109 24.126c0 .366-.275.732-.732.732h-6.77c-.366 0-.732-.274-.732-.732 0-.366.274-.732.732-.732h6.862c.365.092.64.367.64.732zM27.109 20.65c0 .366-.275.732-.732.732h-6.77c-.366 0-.732-.275-.732-.732 0-.366.274-.732.732-.732h6.862c.365 0 .64.366.64.732z"/>
    <path fill="#FF4651" d="M28.756 14.337h-.732v-.64c0-.366-.274-.732-.732-.732-.366 0-.732.274-.732.732v.732h-2.836v-.732c0-.458-.274-.732-.64-.732s-.732.274-.732.732v.732h-2.836v-.732c0-.366-.275-.732-.732-.732-.366 0-.64.274-.64.732v.732h-.732c-1.19 0-2.196.823-2.47 1.92l1.28.458c.092-.64.55-1.097 1.19-1.097h.732v.731c0 .366.274.732.731.732.366 0 .732-.274.732-.732v-.731h2.837v.731c0 .366.274.732.731.732.366 0 .732-.274.732-.732v-.731h2.837v.731c0 .366.274.732.731.732.366 0 .732-.274.732-.732v-.731h.732c.64 0 1.098.548 1.098 1.097v9.973c0 .64-.549 1.098-1.098 1.098h-1.098v1.372h1.098c1.372 0 2.562-1.098 2.562-2.562v-9.79c-.275-1.371-1.373-2.56-2.745-2.56z"/>
    <path fill="#FF4651" d="M27.109 24.126c0 .366-.275.732-.732.732h-6.77c-.366 0-.732-.274-.732-.732 0-.366.274-.732.732-.732h6.862c.365.092.64.367.64.732zM18.965 20.65c0-.366.274-.732.732-.732h6.77c.366 0 .732.274.732.732 0 .366-.275.732-.732.732h-6.77c-.458-.092-.732-.366-.732-.732z"/>
    <path fill="#FF4651" d="M27.109 20.65c0 .366-.275.732-.732.732h-6.77c-.366 0-.732-.275-.732-.732 0-.366.274-.732.732-.732h6.862c.365 0 .64.366.64.732zM27.109 24.122c0 .366-.275.732-.732.732h-6.77c-.366 0-.732-.274-.732-.732 0-.365.274-.731.732-.731h6.862c.365.091.64.366.64.732z"/>
</svg>
