<svg xmlns="http://www.w3.org/2000/svg" width="45" height="45" fill="none" viewBox="0 0 45 45">
    <rect width="45" height="45" fill="#E4EEFF" rx="22.5"/>
    <path fill="#123399" d="M19.778 31c-.111 0-.334 0-.445-.111-.222-.111-.444-.445-.444-.667v-2h-3.333C14.222 28.112 13 27 13 25.444v-7.777C13 16.222 14.222 15 15.667 15h11.555c1.445 0 2.667 1.222 2.667 2.667 0 .444-.333.889-.889.889s-.889-.334-.889-.89c0-.555-.444-1-1-1H15.667c-.556 0-1 .445-1 1v7.778c0 .556.444 1 1 1h4.11c.445 0 .89.334.89.89v1.444l3.666-2.111c.111-.111.223-.111.445-.111h2.444c.556 0 1-.445 1-1 0-.445.334-.89.89-.89.555 0 .888.334.888.89 0 1.444-1.222 2.666-2.667 2.666h-2.222L20.333 31h-.555z"/>
    <path fill="#123399" d="M18.223 24.006c-.334-.111-.667-.222-.778-.333-.111 0-.222-.111-.222-.222v-.223c0-.11 0-.222.11-.333 0-.111.112-.222.223-.222h.222s.111 0 .222.11c.223.223.334.223.556.334.222 0 .444.111.667.111.222 0 .444 0 .666-.11.111-.112.111-.334.111-.445 0-.111-.11-.222-.222-.222-.11 0-.333-.223-.666-.334-.445-.11-.778-.222-1.112-.333-.222-.111-.444-.222-.555-.445-.111-.222-.111-.444-.111-.666 0-.334.11-.556.222-.778.222-.333.444-.444.778-.667.222-.11.555-.11 1-.11.333 0 .666 0 .889.11.333 0 .555.111.777.334l.223.222v.222c0 .111 0 .222-.111.333-.112.112-.223.112-.334.112h-.222s-.111 0-.222-.112c0 0-.111 0-.223-.11 0 0-.11-.112-.333-.112h-.444c-.223 0-.445 0-.556.111-.11.111-.222.223-.222.334 0 .11 0 .11.111.222 0 .111.111.111.333.111.111 0 .334.111.667.111.444.111.778.222 1.111.333.222.112.445.334.556.445.11.222.11.444.11.667 0 .333-.11.555-.221.777-.334.445-.556.556-.89.778-.333.111-.666.111-1.11.111-.334 0-.667 0-1-.11zM27.444 19.228c.11.111.222.223.222.445v3.778c0 .222 0 .333-.111.444-.111.111-.223.111-.445.111-.11 0-.333 0-.444-.111-.111-.111-.111-.222-.111-.444v-2l-.778 1.444c-.111.111-.111.222-.222.333-.111.111-.223.111-.334.111-.11 0-.222 0-.333-.11-.111-.112-.222-.223-.222-.334l-.89-1.333v2c0 .222 0 .333-.11.444-.222.111-.334.111-.556.111-.11 0-.333 0-.444-.11 0-.112-.111-.334-.111-.445v-3.778c0-.222.11-.333.222-.445.111-.222.222-.222.444-.222.111 0 .223 0 .334.111.11.111.222.223.222.334l1.333 2.444 1.334-2.444c.11-.334.333-.445.555-.445.111 0 .334 0 .445.111zM29.887 24.004c-.334-.111-.556-.222-.778-.333l-.222-.223v-.222c0-.111 0-.222.11-.333.112-.111.223-.111.334-.111h.222s.111 0 .223.11c.222.112.333.223.555.223.222 0 .445.111.667.111.222 0 .444 0 .666-.111.112-.111.223-.222.223-.333 0-.111-.111-.223-.223-.223-.11 0-.555-.333-.888-.444-.445-.111-.778-.222-1.111-.333-.223-.111-.445-.334-.556-.445-.111-.222-.111-.444-.111-.666 0-.334.11-.556.222-.778.222-.334.445-.445.778-.667.333-.111.666-.222 1-.222.333 0 .666 0 .889.111.222.111.555.222.777.333l.223.223v.222c0 .11 0 .222-.111.333-.112.111-.223.111-.334.111h-.222s-.111 0-.222-.11c0 0-.111 0-.222-.112-.111-.111-.223-.111-.334-.111h-.444c-.222 0-.445 0-.556.111-.11.111-.222.222-.222.333 0 .111 0 .111.111.223 0 .11.111.11.334.11.11 0 .333.112.666.112.445.11.778.222 1.111.333.222.111.445.334.556.445-.111.444 0 .666 0 .889 0 .333-.111.555-.222.777-.223.223-.445.445-.778.556-.334.11-.667.222-1.111.222-.334 0-.667 0-1-.111z"/>
</svg>
