<svg xmlns="http://www.w3.org/2000/svg" width="45" height="45" fill="none" viewBox="0 0 45 45">
    <rect width="45" height="45" fill="#E4EEFF" rx="22.5"/>
    <path fill="#123399" d="M30.3 25.4c-.4-.5-.9-.7-1.5-.8-.7-.1-1.5-.3-2.1-.5-.4-.2-.9-.2-1.3-.1s-.9.3-1.2.6l-.6.6c-1.6-1-2.9-2.3-3.9-3.9l.6-.6c.3-.3.5-.7.6-1.1.1-.5.1-1-.1-1.4-.3-.7-.4-1.4-.5-2.1-.1-.6-.4-1.1-.9-1.5-.4-.4-1-.6-1.5-.6h-2.5c-.3 0-.7.1-1 .2-.3.1-.5.3-.8.6-.3.3-.4.5-.5.8-.1.3-.1.7-.1 1 .3 2.7 1.2 5.2 2.7 7.5 1.3 2.1 3.1 3.9 5.2 5.2 2.2 1.4 4.8 2.3 7.5 2.6h.2c.3 0 .5 0 .8-.1.3-.1.6-.3.9-.5.2-.2.4-.5.6-.8.1-.3.2-.6.2-1V27c-.2-.5-.4-1.1-.8-1.6zm-.9 1.6v2.5c0 .1 0 .2-.1.4-.1.1-.1.2-.2.3-.1.1-.2.1-.3.2-.1 0-.2.1-.3.1-2.4-.3-4.8-1.1-6.8-2.4-1.9-1.2-3.5-2.8-4.7-4.7-1.3-2-2.2-4.4-2.4-6.8v-.4c0-.2.1-.2.2-.3 0-.2.1-.3.2-.3.1-.1.2-.1.4-.1h2.5c.2 0 .4.1.6.2.2.1.3.3.3.5.1.8.3 1.7.6 2.5.1.2.1.3 0 .5 0 .2-.1.3-.2.4l-.9 1c-.4.3-.4.8-.2 1.2 1.2 2.1 2.9 3.8 5 5 .4.2.8.2 1.1-.2l.9-.9c.1-.1.3-.2.4-.2h.5c.8.3 1.6.5 2.5.6.2 0 .4.1.6.3.2.2.3.4.3.6zM27.6 14c-1.9 0-3.4 1.5-3.4 3.3 0 1.8 1.5 3.3 3.4 3.3 1.8 0 3.3-1.5 3.3-3.3 0-1.8-1.5-3.3-3.3-3.3z"/>
</svg>
