<svg xmlns="http://www.w3.org/2000/svg" width="45" height="45" fill="none" viewBox="0 0 45 45">
    <rect width="45" height="45" fill="#E4EEFF" rx="22.5"/>
    <path fill="#123399" d="M30.998 28c-.5-1.5-1.5-2.6-2.9-3.3.7-.6 1.1-1.5 1.1-2.5 0-1.9-1.6-3.5-3.5-3.5-.7 0-1.3.2-1.8.5-.5-1.8-2.2-3.2-4.2-3.2-2.4 0-4.3 2-4.3 4.3 0 1.4.6 2.6 1.6 3.4-1.8.8-3.3 2.3-4 4.3-.1.4.1.8.5 1h.2c.3 0 .6-.2.7-.5.7-2.3 2.9-3.8 5.3-3.8s4.5 1.5 5.2 3.8c.1.4.6.6.9.5.4-.1.6-.6.5-1-.3-.9-.7-1.6-1.3-2.3h.6c1.7 0 3.3 1.1 3.8 2.8.1.3.4.5.7.5h.2c.6-.2.8-.6.7-1zm-11.3-4.8c-1.6 0-2.8-1.3-2.8-2.8 0-1.6 1.3-2.8 2.8-2.8 1.6 0 2.8 1.3 2.8 2.8 0 .2 0 .4-.1.5 0 .2 0 .4-.1.6-.4 1-1.4 1.7-2.6 1.7zm6 1c-1.1 0-2-.9-2-2v-.4c.1-.1.1-.3.1-.4.3-.7 1-1.2 1.8-1.2 1.1 0 2 .9 2 2 .1 1.1-.8 2-1.9 2z"/>
    <path fill="#123399" d="M22.498 23.602c0 .1.1.1.1.2-.1 0-.2-.1-.2-.1s.1 0 .1-.1z"/>
</svg>
