<svg width="600" height="191" viewBox="0 0 600 191" fill="none" xmlns="http://www.w3.org/2000/svg">
<rect width="600" height="191" rx="10" fill="#00CBFE" fill-opacity="0.15"/>
<mask id="mask0" mask-type="alpha" maskUnits="userSpaceOnUse" x="481" y="0" width="96" height="56">
<rect x="481" y="56" width="56" height="96" transform="rotate(-90 481 56)" fill="white"/>
</mask>
<g mask="url(#mask0)">
<path d="M491.278 -57.6457C490.959 -57.6215 490.395 -57.659 490.333 -57.4136C490.148 -56.6776 489.498 -56.7888 489.025 -56.6728C488.497 -56.2316 487.889 -55.7845 487.533 -55.1958C487.244 -54.7728 487.029 -54.4356 486.556 -54.3196L486.476 -54.3136C486.249 -54.1359 486.193 -53.8108 485.966 -53.6331C485.966 -53.6331 485.966 -53.6331 485.892 -53.5473C485.892 -53.5473 485.813 -53.5412 485.819 -53.4615C485.524 -53.1182 485.045 -53.082 484.75 -52.7387C484.467 -52.2359 483.927 -51.9543 483.736 -51.298C483.674 -51.0527 483.521 -50.9608 483.27 -51.1022C482.442 -51.4407 481.999 -50.9258 481.471 -50.4847C481.318 -50.3928 481.238 -50.3868 481.164 -50.301L481.09 -50.2151C480.869 -49.9577 480.648 -49.7003 480.427 -49.4428C480.138 -49.0198 479.849 -48.5968 479.291 -48.5545C479.063 -48.3768 478.922 -48.1254 478.701 -47.868C478.633 -47.7024 478.486 -47.5308 478.332 -47.4389L478.258 -47.3531C478.203 -47.028 478.055 -46.8564 477.816 -46.8382C477.583 -46.7403 477.343 -46.7222 477.202 -46.4708C476.895 -46.2871 476.845 -45.8822 476.624 -45.6248C476.403 -45.3673 476.262 -45.1159 476.12 -44.8645L476.046 -44.7787C475.973 -44.6929 475.979 -44.6131 475.905 -44.5273C475.69 -44.1901 475.481 -43.7731 475.18 -43.5097C475.038 -43.2583 474.811 -43.0806 474.67 -42.8292C474.239 -42.1548 473.418 -42.4135 472.895 -41.8925C472.459 -41.2979 472.017 -40.783 471.409 -40.3358C471.132 -39.7533 470.769 -39.2444 470.315 -38.8891C469.559 -38.2703 468.804 -37.6515 468.392 -36.7377C468.103 -36.3147 468.311 -35.6886 467.777 -35.3272C467.322 -34.9719 467.376 -34.254 466.836 -33.9724C466.695 -33.721 466.553 -33.4696 466.326 -33.2919C465.754 -32.3661 464.833 -31.815 464.341 -30.8952C464.194 -30.7236 463.973 -30.4661 463.752 -30.2087C463.445 -30.025 463.395 -29.6201 463.168 -29.4424C462.731 -28.8478 462.461 -28.1854 461.681 -27.8857C461.343 -27.0578 460.501 -26.5127 460.077 -25.7585C459.236 -25.2134 458.572 -24.4411 457.995 -23.5951C457.945 -23.1902 457.718 -23.0125 457.497 -22.7551C456.999 -21.9151 456.139 -21.6093 455.366 -21.2298C455.003 -20.721 454.634 -20.2919 454.272 -19.7831C453.983 -19.3601 453.425 -19.3178 453.136 -18.8947C452.681 -18.5394 452.662 -17.7357 452.024 -17.6873C451.146 -17.6209 450.784 -17.1121 450.353 -16.4376L450.359 -16.3579C450.242 -15.7874 450.352 -15.3946 450.615 -15.0936L450.701 -15.0199C450.701 -15.0199 450.781 -15.0259 450.787 -14.9461C451.039 -14.8047 451.431 -14.9147 451.449 -14.6754C451.669 -13.8897 452.264 -13.4534 452.631 -12.8394L452.638 -12.7596C452.644 -12.6798 452.735 -12.5263 452.821 -12.4526C452.821 -12.4526 452.907 -12.3789 452.987 -12.3849C453.067 -12.391 453.073 -12.3112 453.152 -12.3172C453.49 -12.1021 453.587 -11.8688 453.378 -11.4518L453.305 -11.366L453.231 -11.2802L453.237 -11.2004L453.243 -11.1207C453.249 -11.0409 453.249 -11.0409 453.255 -10.9611C453.549 -10.2613 454.255 -10.4752 454.727 -10.5912C455.519 -10.7314 456.175 -10.5404 456.702 -9.9385C457.033 -9.80311 457.143 -9.4103 457.474 -9.27492C457.474 -9.27492 457.474 -9.27492 457.56 -9.20119C457.891 -9.06581 457.995 -8.75277 457.94 -8.42764C457.829 -7.77738 458.098 -7.39665 458.601 -7.11381C458.779 -6.88658 459.104 -6.83097 459.281 -6.60374L459.287 -6.52396C459.293 -6.44419 459.293 -6.44419 459.373 -6.45024C459.661 -5.83019 460.323 -5.55943 460.764 -5.03123C461.022 -4.81004 461.421 -4.84025 461.61 -4.45347C462.113 -4.17064 462.548 -3.72221 463.137 -3.36564C463.143 -3.28587 463.155 -3.12632 463.161 -3.04655C463.596 -2.59813 464.173 -2.4011 464.614 -1.87291C464.865 -1.73149 465.043 -1.50425 465.294 -1.36283C465.723 -0.994176 466.368 -0.962739 466.729 -0.428501C466.833 -0.115456 467.017 0.191552 467.409 0.0815732C467.661 0.222993 467.992 0.358372 468.255 0.659335C468.936 1.1694 469.764 1.50785 470.371 2.10374C471.308 2.835 472.394 3.39464 473.332 4.12591C473.497 4.1936 473.589 4.3471 473.761 4.49456C474.411 4.60577 474.687 5.06628 474.888 5.6126C475.73 5.06752 476.177 5.67549 476.698 6.19764C477.047 6.57233 477.396 6.94703 477.819 7.23591C477.905 7.30964 477.985 7.3036 477.991 7.38337C478.242 7.52479 478.5 7.74598 478.801 7.4825C479.157 6.8939 478.17 6.56753 478.355 5.83146C479.029 6.26176 479.391 6.796 479.979 7.15257C479.979 7.15257 479.979 7.15257 480.065 7.2263C480.231 7.29399 480.402 7.44145 480.494 7.59495C480.5 7.67473 480.5 7.67473 480.586 7.74845L480.592 7.82823C480.72 8.46036 481.291 8.57761 481.634 8.87254C482.093 9.64005 482.927 10.0583 483.233 10.9176C483.742 11.2802 484.25 11.6429 484.686 12.0913C484.863 12.3185 485.2 12.5337 485.219 12.773C485.231 12.9325 485.163 13.0981 484.936 13.2758C484.653 13.7786 484.763 14.1714 484.959 14.6379C484.965 14.7177 485.051 14.7914 485.057 14.8712C485.063 14.951 485.142 14.9449 485.148 15.0247C485.332 15.3317 485.737 15.3813 485.994 15.6025C486.417 15.8913 486.54 16.4437 486.809 16.8244L486.895 16.8982C487.067 17.0456 487.232 17.1133 487.398 17.181C487.894 17.3841 488.385 17.5074 488.36 18.2314C488.372 18.3909 488.617 18.4526 488.856 18.4344L488.936 18.4284L489.016 18.4223C489.176 18.4103 489.409 18.3124 489.556 18.1407C490.06 17.3805 490.489 17.7492 490.998 18.1118C491.507 18.4744 492.09 18.7512 491.745 19.4993C491.745 19.4993 491.751 19.5791 491.671 19.5851C491.56 20.2354 492.204 20.2668 492.474 20.6476C492.731 20.8688 493.063 21.0042 493.32 21.2253C493.657 21.4405 494.142 21.484 494.338 21.9506C494.344 22.0303 494.344 22.0303 494.35 22.1101C494.35 22.1101 494.35 22.1101 494.356 22.1899C494.552 22.6564 495.048 22.8595 495.398 23.2342C495.655 23.4554 495.919 23.7563 496.244 23.812C496.992 24.1564 497.519 24.7584 498.193 25.1887C498.445 25.3301 498.776 25.4655 499.039 25.7664C499.297 25.9876 499.628 26.123 499.885 26.3442C500.308 26.6331 500.805 26.8361 501.154 27.2108C501.326 27.3583 501.565 27.3402 501.719 27.2483C501.719 27.2483 501.719 27.2483 501.793 27.1625C502.37 26.3165 501.457 25.9043 501.077 25.1307C501.893 25.3096 502.328 25.7581 502.843 26.2004C502.843 26.2004 502.849 26.2802 502.929 26.2742C503.1 26.4216 503.346 26.4833 503.523 26.7105C503.523 26.7105 503.603 26.7045 503.609 26.7842C503.689 26.7782 503.695 26.858 503.781 26.9317C504.198 27.1408 504.467 27.5216 504.958 27.6448C505.044 27.7186 505.044 27.7186 505.124 27.7125C505.534 27.8419 505.995 27.5663 506.326 27.7017C507.908 28.4644 509.054 29.8218 510.2 31.1791C508.992 30.0671 508.383 31.5574 507.512 31.7036C507.352 31.7157 507.456 32.0287 507.548 32.1822C507.634 32.256 507.72 32.3297 507.72 32.3297C507.977 32.5509 508.302 32.6065 508.566 32.9074C508.737 33.0549 508.995 33.2761 509.246 33.4175C509.988 33.6822 510.356 34.2962 510.803 34.9042C511.833 35.789 512.777 36.6 513.806 37.4848C514.15 37.7797 514.499 38.1544 514.836 38.3695C514.922 38.4433 515.087 38.511 515.253 38.5787C515.75 38.7817 516.099 39.1564 516.522 39.4453C516.78 39.6665 517.031 39.8079 517.368 40.0231C517.865 40.2261 517.907 40.7845 518.33 41.0734C518.937 41.6693 519.765 42.0077 520.366 42.5239C521.052 43.1137 521.874 43.3724 522.487 44.048C522.756 44.4288 523.327 44.546 523.449 45.0984C523.958 45.461 524.387 45.8296 524.895 46.1923C525.245 46.567 525.815 46.6842 526.165 47.0589C526.416 47.2003 526.747 47.3357 527.011 47.6367C527.697 48.2265 528.519 48.4852 529.132 49.1608C529.303 49.3083 529.469 49.376 529.561 49.5295C529.954 49.4195 530.137 49.7265 530.395 49.9477C531.155 50.4517 531.781 50.2439 532.034 49.3422C532.095 49.0969 532.163 48.9313 532.317 48.8394C532.317 48.8394 532.39 48.7536 532.47 48.7476C532.544 48.6618 532.697 48.5699 532.771 48.4841C533.134 47.9753 533.532 47.9451 533.9 48.5591C534.084 48.8661 534.335 49.0075 534.716 48.738C534.594 48.1856 535.14 47.9838 535.269 47.5728C535.564 47.2296 535.694 46.8186 535.817 46.3279C536.002 45.5919 537.07 44.8691 537.8 44.9743C538.371 45.0915 538.672 44.8281 538.961 44.405C538.955 44.3253 538.955 44.3253 538.949 44.2455C539.164 43.9083 538.974 43.5215 538.95 43.2024C538.914 42.7238 538.718 42.2573 539.166 41.8221C539.32 41.7303 539.553 41.6324 539.707 41.5405C540.302 40.9338 540.555 40.0322 541.151 39.4254C541.41 38.6036 541.748 37.7756 542.595 37.3103C542.902 37.1266 542.866 36.648 543.179 36.544C543.321 36.2927 543.548 36.115 543.689 35.8636C543.837 35.692 543.898 35.4466 544.04 35.1952C544.317 34.6126 544.771 34.2573 545.213 33.7424C545.287 33.6566 545.361 33.5708 545.355 33.491C546.623 30.1056 548.988 27.4394 551.022 24.6378L551.096 24.552C551.096 24.552 551.176 24.5459 551.17 24.4662C551.17 24.4662 551.17 24.4662 551.164 24.3864C551.373 23.9694 551.748 23.6201 552.037 23.1971C552.03 23.1173 552.11 23.1113 552.184 23.0255C552.264 23.0194 552.258 22.9397 552.331 22.8538C552.331 22.8538 552.325 22.7741 552.405 22.768C552.479 22.6822 552.559 22.6762 552.632 22.5904C553.081 22.1553 553.437 21.5666 554.229 21.4265C554.229 21.4265 554.309 21.4204 554.303 21.3407C554.383 21.3346 554.377 21.2548 554.377 21.2548L554.45 21.169C554.592 20.9176 554.653 20.6723 554.881 20.4946C555.391 19.8141 555.815 19.06 556.325 18.3795C557.031 18.1656 557.13 17.3558 557.572 16.8409C558.186 16.4735 558.457 15.8112 558.82 15.3023C558.808 15.1428 558.79 14.9035 558.857 14.7379C558.999 14.4865 559.14 14.2351 559.288 14.0635C559.288 14.0635 559.288 14.0635 559.281 13.9837C559.429 13.8121 559.57 13.5607 559.712 13.3093C559.859 13.1376 560.001 12.8863 560.148 12.7146C560.148 12.7146 560.222 12.6288 560.216 12.549C560.284 12.3835 560.351 12.2179 560.333 11.9786C560.327 11.8988 560.327 11.8988 560.321 11.819C560.389 11.6534 560.383 11.5737 560.45 11.4081C560.518 11.2425 560.58 10.9971 560.733 10.9053C560.807 10.8195 560.881 10.7337 561.04 10.7216C561.04 10.7216 561.04 10.7216 561.12 10.7155C561.427 10.5318 561.654 10.3542 561.704 9.94926C561.698 9.86949 561.698 9.86949 561.771 9.78368C561.833 9.53832 561.895 9.29296 562.122 9.1153C562.196 9.02948 562.196 9.02949 562.269 8.94367C562.343 8.85786 562.423 8.85182 562.497 8.766C562.883 8.57626 563.135 8.71768 563.472 8.93283C563.558 9.00656 563.65 9.16006 563.815 9.22775L563.901 9.30148L563.987 9.37521C563.987 9.37521 564.067 9.36917 564.073 9.44894C565.515 9.41997 566.397 10.4764 567.421 11.2814C567.917 11.4844 568.145 11.3068 568.188 10.8221C568.182 10.7423 568.182 10.7423 568.182 10.7423C568.182 10.7423 568.176 10.6625 568.256 10.6565C568.521 9.9144 568.919 9.88419 569.68 10.3882C570.127 10.9962 570.691 11.0337 571.317 10.8258C571.704 10.6361 571.919 10.2988 572.386 10.1031C572.619 10.0052 573.776 7.27 573.672 6.95695C573.66 6.79741 573.568 6.64391 573.476 6.49041C573.384 6.33691 573.44 6.01178 573.195 5.95013C572.686 5.58752 572.889 5.09076 572.773 4.61818C572.651 4.06582 572.682 3.4216 572.094 3.06503C571.934 3.07712 571.695 3.09524 571.529 3.02755C570.849 2.51748 570.021 2.17903 569.414 1.58314C569.157 1.36195 568.825 1.22657 568.568 1.00538C567.888 0.495309 567.127 -0.00872357 566.453 -0.439024C566.239 -1.14489 565.583 -1.33587 564.926 -1.52686C564.264 -1.79762 563.817 -2.40558 563.376 -2.93378C563.124 -3.0752 562.861 -3.37616 562.683 -3.60339C561.819 -4.42047 560.967 -5.07801 559.808 -5.55183C559.121 -6.14168 558.299 -6.40035 557.693 -6.99624C557.276 -7.20534 557.012 -7.50631 556.601 -7.63565L556.166 -8.08407C555.651 -8.52645 554.989 -8.79721 554.935 -9.51516C554.929 -9.59493 554.929 -9.59493 554.929 -9.59493L554.923 -9.6747C554.874 -10.3129 554.15 -10.3383 553.875 -10.7988C553.875 -10.7988 553.795 -10.7927 553.789 -10.8725C553.537 -11.0139 553.28 -11.2351 553.102 -11.4624C552.661 -11.9906 552.232 -12.3592 551.662 -12.4765C551.416 -12.5381 551.097 -12.5139 550.704 -12.404C550.385 -12.3798 550.22 -12.4475 550.042 -12.6747C549.956 -12.7484 549.95 -12.8282 549.944 -12.908L549.938 -12.9878C549.852 -13.0615 549.846 -13.1413 549.76 -13.215C549.681 -13.209 549.675 -13.2887 549.589 -13.3625C549.503 -13.4362 549.411 -13.5897 549.559 -13.7613C549.559 -13.7613 549.559 -13.7613 549.553 -13.8411C549.62 -14.0067 549.688 -14.1723 549.676 -14.3318C549.664 -14.4913 549.652 -14.6509 549.554 -14.8842C549.548 -14.9639 549.468 -14.9579 549.382 -15.0316C549.382 -15.0316 549.382 -15.0316 549.302 -15.0256C548.849 -15.7133 548.236 -16.389 547.777 -17.1565C547.599 -17.3837 547.195 -17.4333 547.017 -17.6605C547.017 -17.6605 547.017 -17.6605 547.011 -17.7403C547.011 -17.7403 547.011 -17.7403 547.005 -17.8201C546.594 -17.9494 546.558 -18.428 546.374 -18.735L546.288 -18.8088C546.288 -18.8088 546.282 -18.8885 546.202 -18.8825C545.945 -19.1037 545.687 -19.3249 545.43 -19.5461C544.388 -20.5904 543.426 -21.6407 542.384 -22.685C541.698 -23.2749 540.876 -23.5336 540.269 -24.1294C539.693 -24.3265 539.19 -24.6093 538.834 -25.0638C537.952 -26.1202 537.217 -27.3482 536.335 -28.4046C535.9 -28.853 535.323 -29.05 534.882 -29.5782C534.295 -30.9779 533.056 -31.4456 531.879 -32.1588C531.328 -33.0798 530.414 -33.492 529.721 -34.1616C529.317 -34.2112 529.059 -34.4324 528.881 -34.6596C528.44 -35.1878 527.71 -35.293 527.195 -35.7353C527.024 -35.8828 526.932 -36.0363 526.766 -36.104C526.086 -36.6141 525.258 -36.9525 524.651 -37.5484C524.21 -38.0766 523.542 -38.4271 523.186 -38.8816C522.12 -40.245 520.526 -41.1672 519.233 -42.353C518.884 -42.7277 518.307 -42.9247 517.958 -43.2994C517.627 -43.4348 517.296 -43.5701 517.112 -43.8771C516.615 -44.0802 516.567 -44.7184 516.223 -45.0133C515.543 -45.5234 514.863 -46.0334 514.108 -46.4577C513.857 -46.5991 513.679 -46.8264 513.428 -46.9678C512.434 -47.3739 511.951 -48.4605 511.105 -49.0383C511.075 -49.4371 510.823 -49.5786 510.424 -49.5483C509.91 -49.9907 509.548 -50.525 509.113 -50.9734C509.027 -51.0471 509.027 -51.0471 509.027 -51.0471C508.702 -51.1027 508.365 -51.3179 508.108 -51.5391C507.856 -51.6805 507.678 -51.9077 507.427 -52.0492C507.243 -52.3562 506.838 -52.4057 506.661 -52.633C506.238 -52.9218 505.821 -53.1309 505.398 -53.4198C505.398 -53.4198 505.398 -53.4198 505.318 -53.4138C504.729 -53.7703 503.999 -53.8755 503.343 -54.0665C503.343 -54.0665 503.343 -54.0665 503.263 -54.0605L503.184 -54.0544C502.551 -53.9263 502.502 -53.5214 502.624 -52.9691C502.654 -52.5702 502.764 -52.1774 502.794 -51.7785L502.806 -51.619C502.873 -50.7415 503.713 -50.2435 503.927 -49.5376C504.013 -49.4639 504.092 -49.47 504.098 -49.3902C504.184 -49.3165 504.264 -49.3225 504.27 -49.2427C504.871 -48.7266 504.907 -48.248 504.501 -47.2545C504.501 -47.2545 504.501 -47.2545 504.507 -47.1747C504.764 -46.9535 504.936 -46.806 505.193 -46.5849C505.445 -46.4434 505.622 -46.2162 505.874 -46.0748C506.045 -45.9273 506.291 -45.8657 506.468 -45.6385L506.554 -45.5647C506.56 -45.4849 506.56 -45.4849 506.566 -45.4052C507.179 -44.7295 507.644 -43.8822 508.331 -43.2924C508.521 -42.9056 509.165 -42.8742 509.207 -42.3158C509.63 -42.0269 509.672 -41.4685 510.095 -41.1796C510.488 -41.2896 510.746 -41.0684 510.776 -40.6695C511.297 -40.1474 511.664 -39.5334 512.253 -39.1768C513.081 -38.8384 513.381 -38.0588 513.987 -37.4629C514.337 -37.0882 514.907 -36.9709 515.256 -36.5962C515.765 -36.2336 516.268 -35.9508 516.703 -35.5024C516.973 -35.1216 517.469 -34.9186 517.665 -34.452C518.346 -33.9419 519.1 -33.5177 519.78 -33.0076C519.964 -32.7006 520.289 -32.645 520.626 -32.4298C521.135 -32.0672 521.086 -31.6623 520.717 -31.2333C520.49 -31.0556 520.348 -30.8042 520.127 -30.5468C519.654 -30.4307 519.445 -30.0138 519.071 -29.6645C518.622 -29.2294 518.437 -28.4933 517.817 -28.2057C517.737 -28.1996 517.578 -28.1875 517.498 -28.1815C517.191 -27.9978 517.142 -27.5929 516.92 -27.3355C516.779 -27.0841 516.552 -26.9064 516.41 -26.655C515.814 -26.0483 515.562 -25.1466 514.88 -24.6136C514.505 -24.2643 514.394 -23.6141 513.928 -23.4183L513.854 -23.3325L513.774 -23.3264C513.08 -22.953 512.981 -22.1432 512.379 -21.6162C512.176 -21.1195 511.538 -21.0711 511.243 -20.7279C510.647 -20.1211 510.389 -19.2993 509.799 -18.6128C509.436 -18.1039 509.074 -17.5951 508.711 -17.0863C508.115 -16.4795 507.862 -15.5779 507.26 -15.0509C507.039 -14.7935 506.904 -14.4623 506.677 -14.2847C506.677 -14.2847 506.677 -14.2846 506.603 -14.1988C506.338 -13.4567 505.736 -12.9298 505.306 -12.2554C505.306 -12.2554 505.312 -12.1756 505.232 -12.1695L505.159 -12.0837C504.636 -11.5628 503.857 -11.2631 503.592 -10.521C503.156 -9.92633 502.799 -9.33772 502.105 -8.96426C501.964 -8.71287 501.737 -8.53521 501.595 -8.28381C501.288 -8.1001 501.318 -7.70124 501.018 -7.43776C500.87 -7.26614 500.649 -7.0087 500.428 -6.75126C500.133 -6.40801 499.746 -6.21826 499.451 -5.87501C499.31 -5.62361 499.082 -5.44595 498.941 -5.19455C498.634 -5.01084 498.584 -4.60595 498.357 -4.42828C497.853 -3.66805 497.349 -2.90782 496.673 -2.29505C496.594 -2.28901 496.434 -2.27692 496.354 -2.27088C496.163 -1.61458 495.789 -1.26529 495.586 -0.76854C495.512 -0.682725 495.438 -0.596911 495.444 -0.517138C494.848 0.0895898 494.59 0.911465 493.994 1.5182C493.773 1.77563 493.637 2.1068 493.416 2.36424C493.047 2.7933 492.924 3.28402 492.549 3.63331C492.414 3.96448 492.273 4.21587 492.051 4.47331C491.91 4.72471 491.683 4.90237 491.541 5.15377C491.087 5.50911 491.135 6.14728 490.601 6.50865C490.398 7.0054 489.931 7.20119 489.551 7.47071C489.403 7.64234 489.182 7.89978 489.04 8.15117C488.15 9.10116 488.07 9.1072 487.298 8.44362C487.206 8.29012 487.261 7.96499 487.016 7.90334C486.667 7.52865 486.17 7.32558 485.741 6.95693C485.471 6.57619 485.048 6.28731 484.853 5.82077C484.196 5.62978 483.693 5.34694 483.326 4.73293C482.811 4.29055 482.229 4.01375 481.861 3.39974C481.757 3.0867 481.45 3.2704 481.285 3.20271C480.788 2.99964 480.74 2.36147 480.396 2.06655C479.716 1.55648 478.962 1.13222 478.281 0.622146C477.809 0.738162 477.619 0.351389 477.441 0.124158C476.577 -0.69292 475.565 -1.33837 474.24 -0.836815C474.006 -0.738922 473.829 -0.966156 473.663 -1.03384C473.663 -1.03384 473.583 -1.0278 473.577 -1.10758C473.412 -1.17526 473.246 -1.24295 473.007 -1.22483C473.007 -1.22483 473.007 -1.22483 472.927 -1.21879C472.847 -1.21275 472.847 -1.21275 472.767 -1.2067C472.688 -1.20066 472.602 -1.2744 472.596 -1.35417C472.456 -2.14584 471.781 -2.57615 471.334 -3.18411C471.334 -3.18411 471.328 -3.26388 471.248 -3.25784C471.132 -3.73043 470.715 -3.93954 470.446 -4.32028C470.06 -5.1736 469.073 -5.49996 468.841 -6.44514C468.798 -7.00354 467.927 -6.85732 467.958 -7.50153C467.529 -7.87018 466.959 -7.98744 466.524 -8.43586C466.015 -8.79848 465.506 -9.16109 464.997 -9.5237C464.39 -10.1196 463.489 -10.3722 462.956 -11.0539C462.778 -11.2812 462.453 -11.3368 462.275 -11.564C462.275 -11.564 462.196 -11.5579 462.19 -11.6377L462.104 -11.7114C461.196 -12.0439 460.651 -12.8851 459.743 -13.2175C459.572 -13.365 459.486 -13.4387 459.314 -13.5862C458.953 -14.1204 458.241 -13.9862 457.88 -14.5205C457.377 -14.8033 457.512 -15.1345 457.813 -15.398C458.188 -15.7473 458.397 -16.1642 458.772 -16.5135C458.772 -16.5135 458.772 -16.5135 458.766 -16.5933C458.766 -16.5933 458.766 -16.5933 458.759 -16.6731C459.042 -17.1759 459.154 -17.8261 459.969 -17.6472C460.258 -18.0703 460.627 -18.4993 460.916 -18.9223C462.156 -19.4976 463.035 -20.6071 464.097 -21.4097C464.244 -21.5813 464.318 -21.6671 464.466 -21.8387C464.657 -22.495 465.375 -22.5494 465.743 -22.9785C466.032 -23.4015 466.505 -23.5175 466.879 -23.8668C467.408 -24.3079 467.936 -24.7491 468.378 -25.264C468.581 -25.7607 469.14 -25.803 469.514 -26.1523C469.656 -26.4037 469.883 -26.5813 470.024 -26.8327C470.246 -27.0902 470.381 -27.4214 470.602 -27.6788C471.008 -28.6723 472.107 -28.9962 472.685 -29.8422C473.059 -30.1915 473.618 -30.2338 473.821 -30.7306C474.11 -31.1536 474.393 -31.6564 474.688 -31.9996C474.799 -32.6499 475.535 -32.4649 475.824 -32.888C476.131 -33.0717 476.18 -33.4766 476.408 -33.6542C476.549 -33.9056 476.776 -34.0833 476.918 -34.3347C477.36 -34.8496 477.974 -35.217 478.41 -35.8116C478.613 -36.3084 479.252 -36.3567 479.547 -36.7C479.694 -36.8716 479.915 -37.129 480.057 -37.3804C480.26 -37.8772 480.818 -37.9195 481.113 -38.2627C481.378 -39.0048 482.335 -39.0773 482.685 -39.7457C482.889 -40.2425 483.447 -40.2847 483.822 -40.634C483.963 -40.8854 484.19 -41.0631 484.332 -41.3145C484.934 -41.8414 485.456 -42.3624 486.058 -42.8893L486.131 -42.9751C486.837 -43.189 487.022 -43.9251 487.55 -44.3663C488.109 -44.4085 488.398 -44.8316 488.681 -45.3344C489.577 -46.2046 490.56 -47.001 491.549 -47.7178C492.279 -47.6126 492.452 -48.5082 493.084 -48.6363C493.373 -49.0593 493.925 -49.1814 494.22 -49.5246C494.367 -49.6963 494.441 -49.7821 494.589 -49.9537C494.78 -50.61 495.222 -51.1249 495.664 -51.6397C496.033 -52.0688 495.745 -52.6889 496.2 -53.0442C496.263 -54.3326 496.092 -55.5231 495.529 -56.6037C494.536 -57.0098 494.283 -56.1082 493.755 -55.667C492.993 -55.128 492.828 -55.1957 492.602 -56.0611C492.492 -56.4539 492.541 -56.8588 492.352 -57.2456C492.242 -57.6384 491.978 -57.9394 491.579 -57.9092C491.438 -57.6578 491.358 -57.6517 491.278 -57.6457ZM550.362 -3.1517C550.484 -2.59934 550.373 -1.94908 551.25 -2.01553C551.464 -1.30967 552.286 -1.05099 552.727 -0.522801C552.733 -0.443028 552.733 -0.443028 552.739 -0.363258C552.732 0.600045 553.333 1.11616 554.216 1.12948C554.259 1.68788 554.227 2.33209 555.105 2.26564C555.264 2.25356 555.424 2.24147 555.669 2.30312C555.785 2.77571 555.754 3.41992 556.557 3.43929C556.57 3.59883 556.588 3.83814 556.68 3.99164C556.746 4.86913 557.538 4.72895 558.114 4.92598C558.494 5.69953 557.573 6.25065 557.866 6.95047C557.725 7.20187 557.498 7.37953 557.356 7.63093C556.712 7.59949 556.742 7.99835 556.772 8.39721C555.925 8.86252 555.752 9.75812 555.414 10.586C555.426 10.7456 555.438 10.9051 555.456 11.1444C554.609 11.6098 554.185 12.3639 554.012 13.2596C553.613 13.2898 553.386 13.4674 553.416 13.8663C552.63 14.0862 552.685 14.8042 552.567 15.3747C552.26 15.5584 551.874 15.7481 552.069 16.2147C552.081 16.3742 552.014 16.5398 552.032 16.7791C551.105 17.2505 550.932 18.1461 550.594 18.974C550.464 19.3849 550.722 19.6061 551.194 19.4901C552.213 19.1723 551.85 19.6811 551.641 20.0981C551.494 20.2697 551.592 20.503 551.604 20.6625C551.616 20.8221 551.634 21.0614 551.566 21.227C550.946 21.5146 550.578 21.9437 550.638 22.7414C550.239 22.7716 550.098 23.023 550.128 23.4218C549.398 23.3167 549.71 24.2558 549.151 24.2981C548.262 24.205 548.494 25.1502 548.033 25.4257C547.88 25.5176 547.818 25.763 547.567 25.6215C547.481 25.5478 547.469 25.3883 547.543 25.3024C547.525 25.0631 547.985 24.7876 547.574 24.6582C547.243 24.5229 546.93 24.6268 546.561 25.0559C545.904 25.9079 545.504 26.9812 544.589 27.6121C543.963 27.82 543.674 28.243 543.728 28.9609C543.581 29.1326 543.439 29.384 543.371 29.5496C543.298 29.6354 543.218 29.6414 543.144 29.7272C542.089 29.5664 541.781 30.7932 540.909 30.9394C540.909 30.9394 540.928 31.1788 540.94 31.3383C540.473 31.5341 539.737 31.3491 539.803 32.2266C539.153 32.1154 539.208 32.8334 538.907 33.0968C538.023 33.0835 537.912 33.7338 537.801 34.384C537.193 34.8312 537.15 34.2728 537.046 33.9598C536.814 33.0146 536.736 31.9776 536.504 31.0324C536.388 30.5598 536.419 29.9156 535.622 29.976C535.195 27.5212 534.848 25.0604 534.262 22.6176C534.25 22.4581 534.232 22.2188 534.22 22.0592C534.619 22.029 534.766 21.8574 534.73 21.3788C534.187 18.4514 533.651 15.6038 533.108 12.6764C533.507 12.6462 533.734 12.4685 533.618 11.9959C533.49 11.3638 533.362 10.7317 533.228 10.0198C533.124 9.70673 532.958 9.63905 532.633 9.58344C532.437 9.11689 532.15 8.49684 532.439 8.07382C532.851 7.16008 532.631 6.37445 532.411 5.58882C532.161 4.40433 531.911 3.21983 531.814 1.94349C531.766 1.30531 532.214 0.870211 532.086 0.23808C531.805 -1.34527 531.366 -2.91654 531.717 -4.62799C532.007 -6.09408 531.408 -7.65326 531.527 -9.26682C531.713 -11.046 530.856 -12.8263 531.11 -14.7711C531.326 -16.1513 530.739 -17.551 530.47 -18.9748C530.458 -19.1343 530.44 -19.3737 530.115 -19.4293C529.551 -19.4667 529.674 -19.9574 529.564 -20.3503C529.326 -21.3752 529.977 -22.3071 529.745 -23.2523C530.144 -23.2825 530.543 -23.3127 530.942 -23.3429C531.008 -22.4654 531.922 -22.0532 532.222 -21.2736C532.228 -21.1938 532.387 -21.2059 532.467 -21.212C532.89 -20.9231 532.484 -19.9296 533.429 -20.1616C533.589 -20.1737 533.748 -20.1858 533.994 -20.1241C534.11 -19.6515 534.158 -19.0134 534.882 -18.988C534.894 -18.8284 534.9 -18.7486 534.912 -18.5891C534.837 -17.4602 535.837 -16.9743 536.376 -16.2128C536.554 -15.9856 536.823 -15.6049 537.296 -15.7209C537.645 -15.3462 537.908 -15.0452 538.258 -14.6705C538.576 -13.6516 539.545 -13.5646 540.379 -13.1464C540.538 -13.1584 540.698 -13.1705 540.943 -13.1089C541.415 -12.1818 542.236 -11.9231 543.132 -11.7503C543.242 -11.3575 543.352 -10.9647 543.462 -10.5718C543.602 -9.78016 544.252 -9.66895 544.909 -9.47796C544.915 -9.39819 544.995 -9.40423 545.001 -9.32446C545.288 -8.70441 545.963 -8.27411 546.017 -7.55616C546.029 -7.39662 546.348 -7.42079 546.508 -7.43287C546.476 -6.78866 546.899 -6.49978 547.396 -6.29671C547.568 -6.14925 547.66 -5.99574 547.825 -5.92805C548.095 -5.54732 548.37 -5.08682 548.935 -5.04933C548.941 -4.96956 548.953 -4.81002 549.039 -4.73628C548.878 -3.68113 549.472 -3.24479 550.362 -3.1517ZM501.197 6.58872C501.664 6.39293 502.4 6.57788 502.333 5.70039C503.205 5.55416 503.071 4.84226 503.268 4.26574C503.409 4.01434 503.636 3.83667 503.858 3.57923C504.324 3.38345 505.054 3.48861 504.908 2.61717C505.067 2.60509 505.227 2.59301 505.301 2.50719C505.645 1.75905 506.076 1.08462 506.941 0.858628C507.021 0.852588 506.917 0.539543 506.984 0.373959C507.377 0.263984 507.678 0.000502766 507.562 -0.472085C508.121 -0.514373 508.765 -0.482928 508.698 -1.36042C509.625 -1.83177 510.05 -2.58596 510.302 -3.48761C510.462 -3.49969 510.542 -3.50573 510.701 -3.51781C511.351 -3.4066 511.321 -3.80546 511.285 -4.28409C511.426 -4.53549 511.648 -4.79292 511.795 -4.96454C512.557 -5.50358 512.981 -6.25778 513.239 -7.07966C513.89 -6.96844 513.823 -7.84593 514.376 -7.96799C515.309 -8.35957 515.647 -9.18749 515.82 -10.0831C515.808 -10.2426 515.796 -10.4022 515.778 -10.6415C516.508 -10.5363 516.11 -11.5492 516.754 -11.5178C517.067 -11.6217 517.718 -11.5105 517.264 -12.1982C517.909 -12.1668 518.044 -12.4979 518.002 -13.0563C518.149 -13.228 518.291 -13.4794 518.358 -13.6449C518.518 -13.657 518.677 -13.6691 518.751 -13.7549C519.305 -14.9201 520.293 -15.6368 520.933 -16.7282C521.922 -17.4449 522.659 -18.303 522.887 -19.5237C522.881 -19.6035 522.881 -19.6035 522.955 -19.6893C523.667 -19.8235 523.709 -19.2651 523.831 -18.7127C524.075 -17.608 523.669 -16.6145 523.754 -15.4977C523.832 -14.4606 524.156 -13.362 524.4 -12.2572C524.406 -12.1775 524.406 -12.1775 524.412 -12.0977C524.093 -12.0735 523.78 -11.9696 523.89 -11.5768C524.208 -10.5579 524.053 -9.42295 524.525 -8.49589C523.733 -8.35571 523.941 -7.72962 524.063 -7.17726C524.221 -6.14627 524.459 -5.12132 524.697 -4.09637C523.973 -4.12178 524.096 -3.56942 524.205 -3.1766C524.486 -1.59325 524.84 -0.0957117 525.12 1.48764C525.132 1.64718 525.151 1.8865 525.169 2.12581C524.451 2.18018 524.567 2.65277 524.677 3.04558C525.3 4.92386 524.329 6.92295 525.032 8.79518C525.038 8.87495 525.05 9.03449 524.97 9.04053C524.528 9.55541 524.73 10.1017 524.852 10.6541C525.126 12.1577 525.486 13.735 525.761 15.2386C525.883 15.7909 526.011 16.423 525.808 16.9198C525.463 17.668 525.671 18.294 525.805 19.0059C525.951 19.8774 526.092 20.6691 526.238 21.5405C526.646 23.756 526.975 25.9775 527.383 28.193C528.042 31.593 528.621 34.999 529.286 38.4787C529.126 38.4908 528.887 38.5089 528.733 38.6008C528.709 38.2817 528.617 38.1282 528.206 37.9989C527.151 37.8381 526.311 37.3401 525.674 36.3453C525.307 35.7313 524.54 35.1475 523.663 35.214C523.491 35.0665 523.32 34.9191 523.068 34.7776C522.97 34.5444 522.873 34.3111 522.769 33.998C522.487 33.4578 522.279 32.8317 521.5 33.1314C521.39 32.7386 521.206 32.4316 520.653 32.5536C520.402 32.4122 520.224 32.185 519.973 32.0436C519.955 31.8043 520.017 31.5589 519.765 31.4175C519.312 30.7297 518.514 30.7902 517.858 30.5992C517.484 29.9054 516.577 29.573 516.13 28.965C515.995 28.2531 515.499 28.05 514.86 28.0984C514.751 27.7056 514.487 27.4046 514.014 27.5206C514.034 26.7169 513.095 27.0287 512.973 26.4763C512.542 27.1507 511.856 26.5609 511.389 26.7567C511.224 26.689 511.138 26.6152 510.972 26.5476C510.886 26.4738 510.88 26.3941 510.795 26.3203C510.679 25.8477 510.477 25.3014 510.441 24.8228C510.41 24.4239 510.085 24.3683 509.846 24.3864C509.411 23.938 508.902 23.5754 508.393 23.2128C506.781 22.0512 505.168 20.8897 503.409 19.8997C502.489 19.4078 501.354 19.253 500.858 18.0069C500.761 17.7736 500.313 17.1657 499.681 17.2938C499.725 16.8091 499.332 16.9191 499.093 16.9372C498.627 16.0899 497.897 15.9847 497.026 16.131C496.382 16.0995 495.953 15.7309 495.683 15.3501C495.426 15.1289 495.198 15.3066 495.021 15.0794C495.329 13.8526 496.226 12.9824 497.208 12.1859C497.362 12.094 497.509 11.9224 497.571 11.6771C498.191 11.3894 498.554 10.8806 498.665 10.2303C498.745 10.2243 498.898 10.1324 498.978 10.1264C499.371 10.0164 499.678 9.83271 499.556 9.28035C500.489 8.88878 500.748 8.0669 501 7.16524C500.829 7.01778 500.976 6.84616 501.197 6.58872Z" fill="#29B68D"/>
</g>
<path d="M193.017 95.0777C193.017 87.9232 193.029 80.7657 193 73.6053C193 72.8826 193.21 72.696 193.962 72.696C203.41 72.7223 212.855 72.7223 222.3 72.696C223 72.696 223.271 72.8243 223.256 73.5354C223.212 75.5907 223.212 77.6467 223.256 79.702C223.271 80.4276 222.973 80.5355 222.289 80.5355C215.606 80.5092 208.924 80.5355 202.238 80.5005C201.46 80.5005 201.271 80.7074 201.279 81.4185C201.323 84.4114 201.323 87.4044 201.279 90.4003C201.271 91.0706 201.498 91.2076 202.165 91.2076C208.874 91.1842 215.589 91.2076 222.294 91.1784C223 91.1784 223.25 91.3008 223.236 92.0177C223.192 94.1248 223.207 96.2347 223.265 98.3417C223.282 99.0324 222.912 99.0091 222.402 99.0091C215.748 99.0008 209.094 99.0008 202.439 99.0091C201.294 99.0091 201.294 99.0091 201.297 100.119C201.297 103.034 201.329 105.951 201.277 108.871C201.262 109.661 201.539 109.789 202.302 109.786C208.985 109.757 215.664 109.786 222.353 109.757C223.078 109.757 223.285 109.911 223.271 110.614C223.218 112.695 223.236 114.781 223.259 116.862C223.259 117.366 223.183 117.596 222.557 117.596C212.945 117.579 203.334 117.579 193.723 117.596C193.009 117.596 193.003 117.285 193.003 116.795C193.015 109.559 193.015 102.32 193.003 95.0777H193.017ZM298.969 108.25C299.82 106.14 300.601 104.205 301.376 102.27C303.711 96.4329 306.039 90.5926 308.368 84.7524C308.601 84.1637 308.878 83.9306 309.548 83.9539C311.734 84.0122 313.919 83.9772 316.105 83.9393C316.72 83.9306 316.787 84.1229 316.554 84.6679C312.188 94.8924 307.828 105.12 303.475 115.349C303 116.466 302.504 117.576 302.058 118.701C301.88 119.158 301.659 119.342 301.161 119.325C299.719 119.285 298.277 119.285 296.836 119.325C296.32 119.339 296.066 119.164 295.862 118.672C293.91 114.021 291.928 109.384 289.946 104.741C287.149 98.1552 284.345 91.5718 281.542 84.9885C281.469 84.8165 281.402 84.6446 281.317 84.4814C281.099 84.0501 281.25 83.9277 281.682 83.9364C282.993 83.9656 284.304 83.9656 285.616 83.9714C286.49 83.9714 287.37 84.0122 288.239 83.9306C288.967 83.8636 289.32 84.1258 289.603 84.8224C291.707 90.1555 293.843 95.4857 295.97 100.798C296.944 103.226 297.923 105.648 298.969 108.253V108.25ZM354.16 101.311V91.3008C354.16 90.2837 354.16 90.2866 353.181 90.2866C352.198 90.2866 351.184 90.2604 350.185 90.2954C349.713 90.31 349.535 90.1934 349.544 89.6397C349.573 87.7358 349.573 85.8316 349.544 83.9277C349.544 83.4264 349.695 83.2836 350.144 83.2836C351.24 83.3011 352.338 83.2312 353.437 83.2836C354.066 83.3099 354.171 83.0388 354.166 82.4443C354.142 79.4688 354.166 76.4875 354.136 73.512C354.136 72.8826 354.285 72.6844 354.885 72.696C356.78 72.7368 358.677 72.731 360.577 72.696C361.125 72.6844 361.236 72.8884 361.233 73.4304C361.209 76.4613 361.233 79.4921 361.204 82.523C361.204 83.1671 361.378 83.3303 361.955 83.3128C363.949 83.2661 365.948 83.2895 367.947 83.2545C368.434 83.2545 368.58 83.3944 368.571 83.9335C368.538 85.8374 368.538 87.7416 368.571 89.6455C368.583 90.1934 368.413 90.3041 367.941 90.2896C365.919 90.2633 363.896 90.2983 361.88 90.2662C361.358 90.2662 361.206 90.4061 361.209 90.9773C361.227 97.039 361.209 103.101 361.224 109.171C361.224 110.987 362.122 111.94 363.8 112.007C365.219 112.036 366.642 111.972 368.055 111.809C368.481 111.768 368.568 111.893 368.565 112.307C368.55 114.318 368.55 116.332 368.565 118.342C368.565 118.657 368.495 118.867 368.186 118.911C365.409 119.307 362.62 119.633 359.866 118.832C356.582 117.879 354.722 115.379 354.326 111.57C353.956 107.927 354.279 104.278 354.16 101.308V101.311ZM230.653 117.588C229.522 117.588 228.397 117.567 227.269 117.599C226.724 117.614 226.657 117.442 226.788 116.92C228.403 110.509 230.003 104.097 231.591 97.6802C233.578 89.6805 235.56 81.6808 237.536 73.6752C237.717 72.9438 237.979 72.6786 238.731 72.699C240.887 72.7572 243.044 72.7281 245.198 72.7135C245.684 72.7135 245.853 72.7689 245.705 73.3605C242.761 85.1254 239.83 96.8962 236.912 108.676C236.225 111.441 235.514 114.201 234.858 116.973C234.733 117.512 234.508 117.614 234.042 117.599C232.905 117.57 231.777 117.588 230.65 117.588H230.653ZM279.146 95.5265C279.54 97.7064 279.446 99.9125 279.487 102.113C279.502 102.847 279.091 102.745 278.68 102.745H254.424C253.273 102.745 253.273 102.745 253.541 103.917C254.564 108.364 257.913 111.328 262.217 111.573C266.618 111.82 270.301 110.165 273.262 106.677L273.991 105.829L275.002 109.976C275.288 111.165 275.544 112.365 275.856 113.537C275.975 113.988 275.92 114.257 275.564 114.592C272.041 117.856 267.915 119.281 263.307 119.327C258.93 119.371 255.004 118.068 251.688 114.941C248.657 112.097 246.885 108.472 246.162 104.261C245.23 98.7701 245.85 93.5273 248.66 88.7392C251.51 83.8636 255.675 81.1912 260.996 80.5937C265.12 80.1304 268.978 80.9405 272.394 83.5401C276.249 86.4718 278.281 90.6276 279.149 95.5236L279.146 95.5265ZM270.631 95.8762H270.634C270.913 95.8762 271.368 96.0802 271.216 95.3808C270.756 93.2942 269.946 91.4203 268.352 90.0477C263.543 85.956 255.575 88.8645 254.051 95.2293C253.911 95.8121 254.133 95.8762 254.588 95.8762C257.26 95.8675 259.935 95.8762 262.608 95.8762C265.283 95.8762 267.958 95.8879 270.631 95.8762ZM406.725 93.6206C407.459 96.4154 407.514 99.2801 407.482 102.148C407.482 102.585 407.34 102.76 406.94 102.725C406.76 102.713 406.579 102.725 406.395 102.725C398.331 102.725 390.265 102.736 382.198 102.707C381.443 102.704 381.359 102.923 381.499 103.643C382.393 108.218 386.039 111.436 390.527 111.567C394.738 111.689 398.279 110.115 401.141 106.787C401.351 106.54 401.561 106.292 401.776 106.053C401.848 105.998 401.925 105.949 402.006 105.907C402.645 108.542 403.26 111.124 403.901 113.697C404.035 114.248 403.668 114.443 403.385 114.702C400.946 116.986 397.882 118.49 394.584 119.021C391.127 119.581 387.7 119.444 384.413 118.007C379.581 115.889 376.34 112.094 374.819 106.764C372.936 100.163 373.479 93.7896 377.156 87.9844C379.98 83.5372 384.019 81.162 388.988 80.5937C392.34 80.212 395.557 80.6899 398.568 82.3627C402.881 84.7641 405.422 88.6838 406.725 93.6206ZM398.605 95.885C399.177 95.885 399.311 95.748 399.153 95.1214C398.273 91.4873 396.312 89.0918 392.759 88.369C388.038 87.4073 383.472 90.2779 382.122 95.0865C381.956 95.6781 381.985 95.8995 382.656 95.8879C385.302 95.85 387.948 95.8733 390.594 95.8733C393.264 95.8733 395.933 95.8587 398.605 95.885ZM346.932 94.9029C346.938 102.509 346.924 110.115 346.947 117.71C346.947 118.401 346.784 118.605 346.122 118.59C344.063 118.558 342.003 118.558 339.944 118.59C339.454 118.59 339.303 118.43 339.317 117.92C339.352 116.894 339.329 115.868 339.329 114.845C337.385 116.938 335.223 118.433 332.562 118.954C328.444 119.756 324.478 119.368 321.03 116.611C317.247 113.592 316.035 109.445 316.985 104.642C317.88 100.07 320.972 97.7618 325.011 96.5873C327.01 96.0103 329.079 96.0103 331.122 95.7713C333.375 95.5149 335.639 95.3342 337.895 95.101C338.871 95.0019 339.244 94.4978 339.329 93.469C339.594 90.2633 338.257 89.0772 335.657 88.369C333.424 87.7519 331.058 87.8097 328.858 88.5352C326.669 89.2433 325.332 90.9016 324.609 93.1397C324.425 93.6993 324.25 93.8158 323.746 93.5332C321.839 92.4583 319.915 91.4129 317.976 90.3974C317.466 90.1322 317.62 89.8291 317.757 89.459C319.451 84.8398 322.636 82.0538 327.174 81.0455C330.942 80.212 334.721 80.244 338.452 81.3544C343.202 82.7707 346.201 86.5942 346.775 91.8137C346.883 92.8396 346.938 93.8712 346.932 94.9029ZM332.171 111.351V111.357C336.115 110.553 339.565 107.035 339.364 102.771C339.329 102.052 339.154 101.88 338.51 101.964C335.293 102.39 332.075 102.771 328.861 103.197C328.016 103.284 327.194 103.555 326.448 103.984C325.145 104.765 324.393 105.948 324.449 107.528C324.501 109.107 325.343 110.171 326.664 110.815C327.8 111.345 329.033 111.587 330.268 111.517C330.91 111.549 331.545 111.494 332.171 111.351Z" fill="#00CBFE"/>
</svg>
