<svg width="600" height="191" viewBox="0 0 600 191" fill="none" xmlns="http://www.w3.org/2000/svg">
<rect x="0.000244141" y="6.10352e-05" width="600" height="191" rx="10" fill="#00263E" fill-opacity="0.15"/>
<path d="M93.6646 63.9759L82.2667 64.0692C81.8632 64.072 81.4674 63.9696 81.1188 63.7721C80.7703 63.5747 80.4813 63.2891 80.2807 62.9441L74.6589 53.2067L81.1131 42.236L93.8413 42.1321L99.4594 51.8631C99.8652 52.5658 99.862 53.442 99.4408 54.1455L93.6646 63.9759ZM76.1242 53.1963L81.3808 62.3011C81.5633 62.6173 81.9051 62.81 82.2767 62.8063L92.9413 62.723L98.3454 53.529C98.4383 53.3725 98.4882 53.195 98.4901 53.0144C98.492 52.8337 98.4457 52.6564 98.3561 52.5004L93.0995 43.3956L81.8332 43.4832L76.1242 53.1963Z" fill="#FF4651"/>
<path d="M299.936 150.451L257.905 126.291C256.418 125.434 255.182 124.202 254.322 122.717C253.461 121.232 253.005 119.547 253 117.831V69.4797L299.936 42.5001L346.871 69.4808V117.801C346.871 121.29 345.003 124.547 341.966 126.261L299.936 150.451ZM258.4 72.5915V117.802C258.4 119.372 259.246 120.825 260.618 121.61L299.936 144.23L339.252 121.61C339.925 121.227 340.484 120.673 340.873 120.004C341.263 119.335 341.469 118.576 341.471 117.802V72.5915L299.936 48.6932L258.4 72.5915Z" fill="#00263E"/>
<path d="M281.265 118.952C280.483 118.952 280.049 118.544 280.049 117.786V99.0702H273.275V117.786C273.275 118.544 272.841 118.952 272.059 118.952H268.296C267.515 118.952 267.081 118.544 267.081 117.786V75.0194C267.081 74.2614 267.515 73.8531 268.296 73.8531H272.059C272.841 73.8531 273.275 74.2614 273.275 75.0194V93.3277H280.049V75.0194C280.049 74.2614 280.483 73.8531 281.265 73.8531H285.028C285.809 73.8531 286.243 74.2614 286.243 75.0194V117.758C286.243 118.516 285.809 118.923 285.028 118.923H281.265V118.952ZM295.709 118.952C294.928 118.952 294.493 118.544 294.493 117.786V75.0194C294.493 74.2614 294.928 73.8531 295.709 73.8531H299.472C300.254 73.8531 300.688 74.2614 300.688 75.0194V113.239H306.854C307.635 113.239 308.069 113.647 308.069 114.405V117.758C308.069 118.516 307.635 118.923 306.854 118.923H295.709V118.952V118.952ZM332.761 110.294C332.761 117.057 328.333 119.71 323.267 119.71C318.057 119.71 313.628 116.941 313.628 110.294V82.5126C313.628 75.8666 317.999 73.0974 323.441 73.0974C328.275 73.0974 332.761 75.3421 332.761 82.1055V88.4018C332.761 89.1598 332.327 89.5682 331.545 89.5682H327.782C327.001 89.5682 326.567 89.1598 326.567 88.4018V83.2706C326.567 79.977 324.859 78.7813 323.18 78.7813C321.472 78.7813 319.793 79.9476 319.793 83.2706V109.536C319.793 112.831 321.472 114.026 323.18 114.026C324.888 114.026 326.567 112.86 326.567 109.536V105.046C326.567 104.288 327.001 103.881 327.782 103.881H331.545C332.327 103.881 332.761 104.288 332.761 105.046V110.294Z" fill="#00263E"/>
<mask id="mask0" mask-type="alpha" maskUnits="userSpaceOnUse" x="494" y="82" width="107" height="109">
<rect x="600" y="190.69" width="106" height="108.69" rx="10" transform="rotate(-180 600 190.69)" fill="white"/>
</mask>
<g mask="url(#mask0)">
<path d="M573.5 243L530.068 218.382C528.532 217.508 527.255 216.252 526.365 214.739C525.476 213.226 525.005 211.51 525 209.761V160.492L573.5 133L622 160.493V209.73C622 213.286 620.07 216.604 616.932 218.35L573.5 243ZM530.58 163.662V209.731C530.58 211.331 531.454 212.811 532.872 213.611L573.5 236.661L614.127 213.611C614.822 213.221 615.4 212.656 615.803 211.975C616.205 211.294 616.418 210.52 616.42 209.731V163.662L573.5 139.311L530.58 163.662Z" fill="#123399"/>
</g>
</svg>
