<svg width="45" height="45" viewBox="0 0 45 45" fill="none" xmlns="http://www.w3.org/2000/svg">
<rect width="45" height="45" rx="22.5" fill="#FFE5E6"/>
<path d="M15.1418 17.5363C16.4801 17.5363 17.5649 16.457 17.5649 15.1256C17.5649 13.7942 16.4801 12.7148 15.1418 12.7148C13.8036 12.7148 12.7188 13.7942 12.7188 15.1256C12.7188 16.457 13.8036 17.5363 15.1418 17.5363Z" stroke="#FF4651" stroke-width="1.5" stroke-miterlimit="10" stroke-linecap="round" stroke-linejoin="round"/>
<path d="M29.8606 31.2863C31.1988 31.2863 32.2837 30.207 32.2837 28.8756C32.2837 27.5442 31.1988 26.4648 29.8606 26.4648C28.5223 26.4648 27.4375 27.5442 27.4375 28.8756C27.4375 30.207 28.5223 31.2863 29.8606 31.2863Z" stroke="#FF4651" stroke-width="1.5" stroke-miterlimit="10" stroke-linecap="round" stroke-linejoin="round"/>
<path d="M29.8605 26.3772V17.8951C29.8605 15.8415 28.2451 14.2344 26.181 14.2344C24.1169 14.2344 22.5016 15.8415 22.5016 17.8951V20.5737V25.3058V27.4487C22.5016 29.5022 20.8862 31.1094 18.8221 31.1094C16.758 31.1094 15.1426 29.5022 15.1426 27.4487V17.5379" stroke="#FF4651" stroke-width="1.5" stroke-miterlimit="10" stroke-linecap="round" stroke-linejoin="round"/>
</svg>
