<svg width="45" height="45" viewBox="0 0 45 45" fill="none" xmlns="http://www.w3.org/2000/svg">
<rect width="45" height="45" rx="22.5" fill="#FFF7E0"/>
<path d="M31.5778 18.5591C31.3667 18.4567 31.05 18.4567 30.7333 18.5591L27.3556 20.9134V18.4567C27.3556 17.126 26.3 16 25.1389 16H15.2167C14.0556 16 13 17.126 13 18.4567V26.4409C13 27.7717 14.0556 28.8976 15.2167 28.8976H25.0333C26.3 28.8976 27.25 27.7717 27.25 26.4409V24.0866L30.6278 26.4409C30.7333 26.5433 30.9444 26.5433 31.05 26.5433C31.1556 26.5433 31.2611 26.5433 31.3667 26.4409C31.5778 26.3386 31.7889 26.0315 31.7889 25.7244V19.2756C32 18.9685 31.7889 18.6614 31.5778 18.5591ZM25.5611 26.5433C25.5611 26.9528 25.35 27.3622 25.0333 27.3622H15.2167C15.0056 27.3622 14.6889 27.0551 14.6889 26.5433V18.4567C14.6889 18.0472 14.9 17.6378 15.2167 17.6378H25.0333C25.2444 17.6378 25.5611 17.9449 25.5611 18.4567V26.5433ZM30.4167 24.2913L27.7778 22.5512L30.4167 20.811V24.2913Z" fill="#FFBB00"/>
</svg>
