<svg width="45" height="45" viewBox="0 0 45 45" fill="none" xmlns="http://www.w3.org/2000/svg">
<rect width="45" height="45" rx="22.5" fill="#D1FFF2"/>
<path d="M31.0996 16.9024C30.7996 16.8024 30.3996 17.1024 30.2996 17.4024C30.0996 18.6024 28.9996 19.4024 27.7996 19.4024H26.6996L26.9996 19.1024C27.1996 18.8024 27.1996 18.4024 26.9996 18.2024C26.6996 18.0024 26.2996 18.0024 26.0996 18.2024L24.7996 19.6024C24.6996 19.7024 24.5996 19.9024 24.5996 20.1024C24.5996 20.3024 24.6996 20.4024 24.7996 20.6024L26.1996 21.9024C26.2996 22.0024 26.4996 22.1024 26.5996 22.1024C26.7996 22.1024 26.8996 22.0024 27.0996 21.9024C27.2996 21.6024 27.2996 21.2024 27.0996 21.0024L26.7996 20.8024H27.8996C29.6996 20.8024 31.2996 19.5024 31.6996 17.7024C31.6996 17.3024 31.4996 16.9024 31.0996 16.9024Z" fill="#29B68D"/>
<path d="M24.4006 18.0008C24.5006 18.0008 24.5006 18.0008 24.6006 18.0008C24.9006 18.0008 25.1006 17.8008 25.2006 17.5008C25.5006 16.4008 26.5006 15.6008 27.7006 15.6008H28.8006L28.5006 15.9008C28.3006 16.2008 28.3006 16.6008 28.5006 16.8008C28.7006 17.0008 28.9006 17.0008 29.0006 17.0008C29.2006 17.0008 29.3006 16.9008 29.5006 16.8008L30.8006 15.4008C30.9006 15.3008 31.0006 15.1008 31.0006 15.0008C31.0006 14.8008 30.9006 14.7008 30.8006 14.5008L29.4006 13.2008C29.1006 13.0008 28.7006 13.0008 28.5006 13.2008C28.3006 13.4008 28.3006 13.9008 28.5006 14.1008L28.8006 14.3008H27.7006C26.0006 14.3008 24.5006 15.5008 24.0006 17.1008C23.9006 17.5008 24.1006 17.9008 24.4006 18.0008Z" fill="#29B68D"/>
<path d="M28.8 24.7992C28.1 24.6992 27.3 24.4992 26.7 24.2992C26.3 24.0992 25.8 24.0992 25.4 24.1992C25 24.2992 24.5 24.4992 24.2 24.7992L23.6 25.3992C22 24.3992 20.7 23.0992 19.7 21.4992L20.3 20.9992C20.6 20.6992 20.9 20.2992 20.9 19.7992C21 19.2992 21 18.8992 20.8 18.3992C20.5 17.6992 20.4 16.9992 20.3 16.2992C20.2 15.6992 19.9 15.1992 19.4 14.7992C19 14.3992 18.4 14.1992 17.9 14.1992H15.4C15.1 14.1992 14.7 14.2992 14.4 14.3992C14.1 14.5992 13.9 14.7992 13.6 14.9992C13.3 15.1992 13.2 15.4992 13.1 15.8992C13 16.2992 13 16.4992 13 16.7992C13.3 19.4992 14.2 21.9992 15.7 24.2992C17 26.3992 18.8 28.1992 20.9 29.4992C23.1 30.8992 25.7 31.7992 28.4 32.0992C28.5 32.0992 28.5 32.0992 28.6 32.0992C28.9 32.0992 29.1 32.0992 29.4 31.9992C29.7 31.8992 30 31.6992 30.3 31.4992C30.5 31.2992 30.7 30.9992 30.9 30.6992C31 30.3992 31.1 30.0992 31.1 29.6992V27.1992C31.1 26.5992 30.9 26.0992 30.5 25.5992C30 25.1992 29.4 24.8992 28.8 24.7992ZM29.4 27.2992V29.7992C29.4 29.8992 29.4 29.9992 29.3 30.1992C29.2 30.2992 29.2 30.3992 29.1 30.4992C29 30.5992 28.9 30.5992 28.8 30.6992C28.7 30.6992 28.6 30.7992 28.5 30.7992C26.1 30.4992 23.7 29.6992 21.7 28.3992C19.8 27.1992 18.2 25.5992 17 23.6992C15.7 21.6992 14.8 19.2992 14.6 16.8992C14.6 16.7992 14.6 16.6992 14.6 16.4992C14.6 16.2992 14.6 16.0992 14.7 15.9992C14.8 15.8992 14.9 15.8992 15 15.7992C15.1 15.6992 15.2 15.6992 15.4 15.6992H17.9C18.1 15.6992 18.3 15.7992 18.5 15.8992C18.7 15.9992 18.8 16.1992 18.8 16.3992C18.9 17.2992 19.1 18.1992 19.4 18.9992C19.5 19.1992 19.5 19.2992 19.4 19.4992C19.4 19.6992 19.3 19.7992 19.2 19.8992L18.3 20.7992C17.9 21.1992 17.9 21.5992 18.1 21.9992C19.3 24.0992 21 25.7992 23.1 26.9992C23.5 27.1992 23.9 27.1992 24.2 26.7992L25.1 25.8992C25.2 25.7992 25.4 25.6992 25.5 25.6992C25.7 25.6992 25.8 25.6992 26 25.6992C26.8 25.9992 27.6 26.1992 28.5 26.2992C28.7 26.2992 28.9 26.3992 29.1 26.5992C29.3 26.7992 29.4 26.9992 29.4 27.2992C29.4 27.1992 29.4 27.1992 29.4 27.2992Z" fill="#29B68D"/>
</svg>
