<svg width="45" height="45" viewBox="0 0 45 45" fill="none" xmlns="http://www.w3.org/2000/svg">
<rect width="45" height="45" rx="22.5" fill="#FFE5E6"/>
<path d="M33.2713 23.7645C33.2713 26.1395 31.7259 28.2506 29.544 29.0422C28.8168 29.3061 23.6349 32.2969 23.6349 32.2969V29.4821H23.3622C20.0895 29.4821 17.4531 26.9311 17.4531 23.7645C17.4531 20.5978 20.0895 18.0469 23.3622 18.0469H27.2713C30.6349 18.0469 33.2713 20.5978 33.2713 23.7645Z" stroke="#FF4651" stroke-width="1.5" stroke-miterlimit="10" stroke-linecap="round" stroke-linejoin="round"/>
<path d="M17.0902 24.8189C14.6357 24.3791 12.7266 22.2679 12.7266 19.805C12.7266 16.9902 15.0902 14.7031 17.9993 14.7031H21.5447C23.8175 14.7031 25.8175 16.1105 26.5447 18.0457" stroke="#FF4651" stroke-width="1.5" stroke-miterlimit="10" stroke-linecap="round" stroke-linejoin="round"/>
</svg>
