<svg width="145" height="154" viewBox="0 0 145 154" fill="none" xmlns="http://www.w3.org/2000/svg">
<path d="M107.284 125.517C107.52 124.573 108.463 123.866 108.227 122.686C106.104 123.866 104.217 125.045 102.802 126.932C100.207 129.999 96.904 130.943 93.3654 131.886C91.714 132.358 90.0627 132.594 88.6472 133.066C86.9959 133.774 85.3445 133.302 83.9291 132.122C83.6932 131.886 83.6932 131.651 83.9291 131.415C83.4573 131.415 83.4573 132.122 83.2214 132.122C82.0419 130.707 80.1546 130.235 79.6828 128.112C78.5033 126.225 78.5033 124.337 78.9751 122.214C78.9751 121.035 78.5033 120.091 78.0315 119.148C77.3237 118.676 77.3237 117.732 77.0878 116.788C75.6724 117.968 74.4929 119.148 73.0774 120.091C71.4261 121.035 70.0106 123.394 67.4157 121.507C67.1798 121.507 66.708 121.507 66.708 121.743C64.113 123.866 62.4616 122.922 60.8103 120.327C60.5744 120.091 60.3385 119.619 60.3385 119.619C56.564 120.799 56.7999 117.26 55.1485 115.845C53.7331 114.665 54.9126 113.486 54.2049 112.306C49.7227 115.373 47.1277 120.091 42.4096 122.922C40.7583 123.866 39.3428 122.45 37.6915 123.158C36.512 122.922 35.5683 121.978 34.3888 121.978C33.2093 122.686 31.7938 122.45 30.3784 122.922C28.963 123.63 28.4911 122.45 28.0193 121.507C27.7834 120.563 27.3116 119.855 26.6039 119.383C24.2448 117.496 24.7166 115.373 26.6039 113.486C26.8398 113.486 27.0757 113.014 27.0757 112.778C25.6603 110.655 27.0757 108.768 27.3116 106.88C28.0193 105.937 28.4911 104.757 28.963 103.814C29.1989 103.578 29.4348 103.106 29.6707 102.87C30.8502 102.87 30.6143 103.814 30.6143 104.521C32.9734 100.511 36.0401 97.2083 38.1633 93.9056C37.4556 94.6133 36.7479 96.0287 35.3324 96.7365C34.3888 97.4442 33.2093 97.6801 32.2656 98.6237L32.0297 98.8596C31.0861 98.6237 29.9066 98.8596 28.963 99.3314C28.0193 100.039 27.7834 99.3314 27.5475 98.6237C26.8398 97.2083 26.1321 97.4442 24.9526 98.1519C24.9526 98.3878 24.9526 98.3878 24.9526 98.6237C23.0653 98.1519 23.5371 96.9724 23.773 95.5569C24.0089 94.8492 24.4807 94.1415 25.4244 93.6697C23.773 93.4338 22.5935 94.6133 21.414 93.9056C19.9985 92.726 19.0549 93.4338 17.8754 94.3774C17.4035 94.8492 16.4599 95.5569 15.7522 94.8492C14.8086 93.9056 15.9881 93.4338 16.4599 92.726C18.5831 91.3106 18.1113 88.2438 20.4703 87.0643C21.414 86.1207 22.1217 84.9411 22.8294 83.9975C23.3012 83.2898 23.773 82.5821 24.2448 82.1103C26.1321 78.5717 28.7271 75.7408 31.5579 73.1458C32.2656 72.4381 32.7375 71.7304 33.2093 70.7868C33.2093 70.315 33.4452 70.079 33.4452 69.6072C33.6811 68.8995 34.3888 68.1918 34.8606 67.72C36.512 66.7764 37.2197 64.8891 38.871 64.1814C39.8146 63.7096 40.7583 62.7659 41.7019 62.0582C43.8251 59.9351 45.9482 57.8119 47.3636 54.981C47.5996 54.5092 47.8355 54.2733 48.0714 54.0374C49.2509 53.0938 50.4304 52.1502 50.9022 50.7347C51.1381 50.027 51.8459 49.3193 52.3177 48.8475C52.7895 48.6116 53.2613 48.3757 53.7331 48.1398C55.6204 46.9602 57.0358 45.3089 58.4512 43.6575C59.159 42.9498 59.8667 42.478 60.5744 41.7703C61.7539 40.5908 62.6976 39.4112 64.113 38.7035C65.5284 37.524 68.1234 38.7035 69.3029 36.5804C70.0107 35.8726 70.9543 35.4008 71.8979 34.6931C73.5492 33.2777 75.2006 32.0981 76.616 30.6827C77.5597 29.7391 78.5033 29.2673 79.4469 28.5595C81.5701 27.38 83.4573 25.4928 85.3446 24.0773C86.5241 23.3696 87.7036 22.1901 88.8832 21.4824C90.7704 20.5387 92.1859 18.8874 94.0731 17.9438C95.4885 16.5283 98.3194 16.0565 97.6117 12.9897C98.5553 11.3384 99.9707 10.6307 101.622 9.68705C102.566 9.21523 103.509 8.74342 104.217 8.0357C105.397 6.85617 106.104 5.91255 104.925 4.2612C105.633 3.55348 106.104 3.31758 107.048 3.08167C108.699 2.37395 110.351 1.90214 112.002 1.66623C113.889 1.66623 115.541 0.486703 117.428 0.722609C120.966 1.66623 121.674 5.44074 123.797 7.7998C124.033 9.68705 122.618 11.3384 122.618 13.4615C123.325 16.2924 122.146 18.4156 120.495 20.3028C116.956 24.7851 113.417 29.2673 109.879 33.9854C109.407 34.6931 108.227 35.1649 108.935 36.1086C109.643 37.2881 110.587 36.1085 111.294 35.8726C113.417 34.929 115.069 36.5804 116.012 37.524C119.079 41.0626 121.674 44.8371 120.023 50.027C120.023 50.4988 119.315 50.7347 119.079 50.9706C118.371 51.9143 118.607 51.9143 119.551 53.3297C120.259 54.2733 118.843 54.981 118.607 55.9247C118.371 56.6324 117.192 57.1042 117.9 58.2837C118.607 59.2274 119.551 58.5196 120.259 58.5196C122.382 58.7555 124.977 58.5196 125.213 61.8223C125.213 63.0019 126.156 63.9455 126.864 64.4173C129.931 66.3046 129.695 68.6636 128.515 71.2586C128.044 71.9663 128.751 72.9099 128.28 73.6176C128.044 74.3254 127.336 74.7972 127.808 75.7408C128.044 75.9767 128.044 76.4485 128.044 76.6844C127.808 78.8076 126.156 80.223 124.977 81.8744C124.741 82.5821 123.797 83.0539 124.269 83.9975C124.505 84.2334 125.213 84.2334 125.685 83.7616C126.864 83.5257 128.044 83.0539 129.223 82.818C134.649 81.8744 136.064 83.0539 139.367 87.5361C141.49 90.367 141.49 93.1979 141.962 96.0287C142.434 96.5006 142.198 96.9724 141.962 97.4442C141.49 98.1519 140.783 98.8596 140.311 99.5673C139.367 105.937 135.593 111.127 132.762 116.788C132.054 118.44 130.874 120.327 129.695 121.978C129.223 122.214 128.987 122.922 128.751 123.394C128.279 123.866 128.044 124.337 127.808 124.809C127.572 126.225 125.685 127.168 126.156 129.056C126.864 129.056 127.808 129.292 128.515 128.584C130.167 126.932 132.29 126.461 134.413 125.753C135.593 126.461 135.121 127.168 134.413 127.876C133.469 128.584 133.234 129.527 132.998 130.707C132.762 131.651 131.582 131.415 131.11 132.358C131.818 131.415 132.998 131.415 133.941 130.707C135.121 129.999 136.536 129.527 137.952 129.292C138.423 129.292 138.659 129.056 139.131 129.056C140.075 128.82 141.254 127.64 142.434 128.82C143.613 129.999 143.613 131.179 143.142 132.594C142.434 136.841 141.018 140.851 141.962 145.333C141.49 146.277 141.254 146.277 140.311 145.097C139.839 144.154 139.603 143.21 138.895 142.266C138.423 141.559 138.188 140.851 137.244 140.615C136.064 140.851 134.177 143.446 133.941 139.671C133.941 139.2 133.234 140.379 132.762 140.143C131.818 139.907 131.11 139.435 130.167 139.907C129.931 139.907 129.695 140.143 129.459 140.143C126.628 140.615 124.269 141.559 122.618 143.918C121.438 145.569 119.551 146.277 118.136 147.692C117.9 148.164 117.9 148.636 118.136 148.872C118.136 149.344 118.843 149.815 118.371 150.523C116.956 151.467 115.069 150.051 113.653 151.231C112.946 151.231 112.002 152.41 111.294 151.231C109.879 149.815 107.756 149.344 106.104 148.164C103.509 146.749 102.802 144.154 103.038 141.559C103.509 138.02 103.038 134.481 105.632 131.651C106.104 130.471 106.34 129.527 107.048 128.348C107.756 127.404 107.048 126.461 107.284 125.517Z" fill="#FF4651"/>
<path d="M34.1526 70.7867C33.6808 71.7303 33.209 72.6739 32.5012 73.3816C29.4345 75.9766 27.0754 79.2793 24.9522 82.582C24.7163 82.8179 24.2445 82.8179 24.0086 82.582C23.065 82.3461 21.8855 83.7615 21.1777 81.8743C21.1777 80.4588 23.3009 79.987 23.065 78.3357C23.7727 77.628 24.7163 76.6843 25.424 75.9766C26.8395 76.2125 27.3113 74.3253 28.7267 74.0894C29.6704 74.0894 29.9063 73.3816 30.3781 72.9098C30.614 72.6739 30.614 72.438 30.8499 72.438C31.5576 71.9662 32.0294 71.4944 32.7371 71.0226C32.973 70.5508 33.6808 70.079 34.1526 70.7867Z" fill="#FF4651"/>
<path d="M86.0554 24.0733C84.1682 25.9606 82.2809 27.6119 80.1578 28.7915C79.9219 28.5556 79.9219 28.3197 79.9219 28.0837C79.9219 27.376 80.6296 26.6683 81.1014 26.1965C81.5732 25.7247 82.045 25.2529 82.5168 24.7811C83.2246 24.0733 83.6964 23.6015 84.4041 22.8938C85.8195 21.0066 87.235 18.8834 87.9427 16.5243C90.0658 14.873 91.9531 12.7498 94.3122 11.5703C95.0199 13.2217 93.6044 13.6935 92.8967 14.6371C91.9531 15.5807 91.4813 16.2884 91.7172 17.7039C91.4813 18.4116 91.0095 18.8834 90.5377 19.3552C88.8863 20.7707 87.7068 22.422 86.0554 24.0733Z" fill="#FF4651"/>
<path d="M117.432 147.218C120.498 144.859 122.622 141.32 126.396 139.669C127.576 139.197 128.519 138.725 129.699 138.961C129.935 140.141 128.991 140.377 128.519 140.377C126.868 140.613 128.283 141.556 128.047 142.028C126.396 143.679 124.037 144.151 122.15 145.331C121.678 145.567 122.386 145.802 122.15 145.331C122.15 145.331 122.15 145.331 122.386 145.095C122.857 144.859 123.565 144.623 124.037 144.859C124.509 145.095 125.217 145.095 124.981 146.038C123.093 146.982 121.206 147.69 119.083 147.926C118.375 148.162 117.668 147.926 117.432 147.218Z" fill="#FF4651"/>
<path d="M105.4 4.01953C107.995 4.72725 107.287 5.90678 106.107 7.32222C103.984 9.91719 100.446 10.389 98.3224 12.984C98.0865 13.2199 97.8506 13.6917 97.3788 13.6917C97.1429 13.6917 96.907 13.4558 96.6711 13.2199C96.4352 12.7481 96.4352 12.5122 96.6711 12.0403C96.907 11.5685 97.1429 11.3326 97.6147 11.0967C98.7942 10.6249 99.7379 9.68128 100.681 8.97356L100.681 8.73766L100.446 8.50175C99.9738 8.26584 99.5019 8.02994 99.9738 7.32222C101.861 6.14269 103.512 4.72725 105.4 4.01953Z" fill="#FF4651"/>
<path d="M97.3767 12.2776C97.3767 12.7494 97.3767 12.9853 97.3767 13.4571C95.4895 14.8725 94.074 16.9957 91.4791 17.4675C90.7714 16.288 90.7714 15.1084 91.9509 14.1648C92.8945 13.4571 94.0741 12.7494 94.31 11.3339C95.4895 10.1544 96.9049 9.21078 98.3204 8.50306C99.264 8.50306 100.444 8.73897 101.387 8.03125C102.095 8.03125 102.567 8.50306 101.859 8.97488C100.444 9.9185 99.4999 11.3339 97.8486 11.5698C97.6126 11.3339 97.3767 11.3339 97.1408 11.5698C96.9049 11.8058 96.9049 12.2776 97.3767 12.2776Z" fill="#FF4651"/>
<path d="M35.3325 96.0276C36.9839 94.6121 38.6352 93.1967 40.2865 91.7813L40.5225 92.0172C37.2198 96.4994 33.9171 101.218 30.6144 105.936C29.4349 104.756 31.558 103.577 30.1426 102.633C30.3785 100.982 32.2657 100.274 32.5016 98.3866C33.9171 98.1507 35.0966 97.6789 35.3325 96.0276Z" fill="#FF4651"/>
<path d="M21.8873 93.6703C22.831 93.4344 23.5387 93.4344 24.2464 92.4908C24.9541 91.5472 25.6618 93.4344 27.0773 93.4344C26.3696 94.1421 25.4259 94.8498 24.7182 95.3217C24.2464 96.5012 23.0669 96.7371 22.3591 97.2089C21.4155 97.9166 20.0001 98.3884 19.2924 99.568C18.5846 100.276 17.8769 100.04 17.4051 99.3321C17.1692 98.3884 17.641 97.6807 18.3487 96.973C19.2924 96.0294 20.4719 95.0857 21.1796 93.9062C21.4155 93.6703 21.6514 93.6703 21.8873 93.6703Z" fill="#FF4651"/>
<path d="M70.2466 36.5744C69.0671 37.5181 68.1235 38.4617 66.9439 39.4053C66.708 37.0463 65.5285 38.6976 64.8208 38.6976C64.1131 38.2258 63.8772 37.754 64.349 37.0463C66.2362 35.3949 67.8876 33.9795 69.7748 32.3281C71.1903 32.3281 70.4825 33.2718 70.4825 33.9795C70.0107 34.9231 70.2466 35.6308 70.2466 36.5744Z" fill="#FF4651"/>
<path d="M87.9426 16.5234C88.4144 19.8261 86.0554 21.4775 84.404 23.6006C83.6963 23.3647 83.2245 22.8929 82.9886 22.4211C82.5168 21.0057 84.6399 20.7698 84.404 19.5902C85.3476 18.1748 86.5272 17.2312 87.9426 16.5234Z" fill="#FF4651"/>
<path d="M10.0927 91.3035C11.0363 90.124 11.7441 89.1804 12.9236 88.4727C15.0467 88.9445 13.8672 90.5958 14.1031 91.7753C14.1031 92.0113 14.1031 92.2472 14.1031 92.4831C12.9236 95.5498 12.2159 95.5498 10.0927 93.4267C9.85681 92.4831 9.6209 92.0113 10.0927 91.3035Z" fill="#FF4651"/>
<path d="M34.8643 120.797C36.0438 121.033 36.9874 121.741 37.9311 122.448C38.4029 122.92 38.4029 123.156 37.9311 123.628C36.2797 125.043 34.6284 125.515 32.5052 124.335C32.0334 122.684 34.1566 122.212 34.8643 120.797Z" fill="#FF4651"/>
<path d="M0.657648 104.988C-0.285977 103.572 -0.285977 102.393 1.12946 101.213C1.83718 100.506 2.07309 99.7978 1.83718 99.0901C2.5449 98.8542 3.01671 99.326 3.72443 99.7978C4.66805 100.506 4.90396 101.213 3.96034 102.157C3.25262 102.629 2.30899 103.1 3.72443 103.808C3.72443 104.044 3.72443 104.28 3.48852 104.516C2.5449 105.224 1.60127 104.988 0.657648 104.988Z" fill="#FF4651"/>
<path d="M42.4117 62.5288C41.468 63.0006 40.7603 64.416 39.5808 64.416C39.109 63.7083 39.5808 63.2365 39.8167 62.5288C40.0526 62.057 40.5244 61.8211 40.9962 61.3492C41.468 60.6415 41.9398 59.9338 41.7039 58.9902C41.7039 58.7543 41.7039 58.5184 41.9398 58.2825C42.4117 57.8107 42.6476 57.5748 43.1194 57.1029C44.5348 57.3388 45.0066 55.6875 46.1862 55.6875C46.4221 55.6875 46.658 55.9234 46.8939 56.1593C45.9503 58.7543 43.5912 59.9338 42.4117 62.5288Z" fill="#FF4651"/>
<path d="M14.104 87.0581C15.7554 86.1145 16.2272 84.2273 18.1145 83.5195L18.3504 83.7554C18.1145 84.935 17.6426 86.1145 17.6426 87.294C17.4067 88.7095 16.4631 89.6531 15.2836 90.1249C12.6886 90.1249 14.104 88.2377 14.104 87.0581Z" fill="#FF4651"/>
<path d="M28.9644 74.3205C27.5489 74.3205 27.5489 77.6232 25.4258 75.9719C27.0771 73.8487 28.7285 71.7256 30.8516 70.0742C31.3234 70.0742 31.5593 70.546 31.7952 70.7819C31.7952 71.4897 31.5593 71.9615 31.0875 72.4333C30.1439 72.9051 29.6721 73.6128 28.9644 74.3205Z" fill="#FF4651"/>
<path d="M132.763 139.664C133.235 139.192 132.999 138.013 134.65 138.484C136.301 139.192 134.178 140.136 135.122 140.843C136.537 140.843 136.773 139.428 137.953 139.192C138.425 140.136 138.189 141.079 138.189 141.787C137.953 142.967 137.717 143.91 136.066 143.202C135.594 142.495 135.358 141.551 134.178 141.551C133.942 141.551 133.706 141.551 133.235 141.787C132.999 141.787 132.763 141.551 132.763 141.315C132.527 141.079 132.527 140.607 132.291 140.372C132.527 139.9 132.527 139.664 132.763 139.664Z" fill="#FF4651"/>
<path d="M141.019 144.387C141.491 144.387 141.255 145.802 142.434 145.094C142.906 145.566 144.321 146.038 143.614 146.51C141.962 148.161 144.085 148.869 144.321 149.813C143.614 150.756 142.906 149.577 142.198 149.813C141.255 150.048 141.255 149.341 141.019 148.869C140.783 147.218 139.131 145.802 141.019 144.387Z" fill="#FF4651"/>
<path d="M124.978 146.031C124.742 145.56 124.271 145.56 123.799 145.324C125.45 142.965 128.045 142.493 130.64 141.785C130.876 141.785 131.348 142.021 131.584 142.021C131.82 142.257 131.82 142.493 131.584 142.729C129.461 144.616 127.337 145.56 124.978 146.031Z" fill="#FF4651"/>
<path d="M64.3486 37.0469C64.5845 37.5187 64.5845 38.2264 64.8204 38.6982C63.6408 39.6418 62.4613 40.8214 61.2818 41.765C60.5741 42.2368 60.1022 42.2368 59.3945 41.765C60.81 39.8778 62.4613 38.4623 64.3486 37.0469Z" fill="#FF4651"/>
<path d="M132.762 130.23C132.29 129.05 132.054 127.871 133.705 127.399C134.649 127.163 134.885 126.455 134.413 125.748C134.649 125.748 135.121 125.748 135.357 125.512C137.48 125.748 136.3 127.163 136.3 128.107C135.592 129.286 134.413 129.994 133.233 130.466C132.998 130.466 132.762 130.466 132.762 130.23Z" fill="#FF4651"/>
<path d="M71.4285 31.1464C71.9003 30.2028 72.844 29.4951 73.7876 28.7874C74.4953 28.3156 75.203 27.8438 75.9108 27.8438C76.3826 27.8438 76.6185 28.0797 76.8544 28.5515C76.8544 28.7874 76.8544 29.0233 76.8544 29.2592C76.3826 29.9669 75.4389 30.2028 74.7312 30.6746C74.2594 31.1464 73.7876 31.6183 73.3158 31.8542C72.6081 32.326 72.1363 33.0337 71.1926 32.7978C70.0131 32.326 70.9567 31.8542 71.4285 31.1464Z" fill="#FF4651"/>
<path d="M76.1442 28.3205C75.4365 28.7923 74.4929 29.0283 73.7852 28.7923C74.9647 26.4333 77.0878 25.2538 79.211 24.0742C79.6828 25.0178 78.9751 25.4897 78.9751 26.4333C78.0315 27.3769 77.5597 28.5564 76.1442 28.3205Z" fill="#FF4651"/>
<path d="M79.6856 121.973C79.2138 123.861 78.9779 125.984 79.6856 127.871C78.5061 125.748 76.147 124.097 77.7984 121.266C79.4497 121.266 79.4497 121.266 79.6856 121.973Z" fill="#FF4651"/>
<path d="M106.107 147.922C107.995 148.394 110.59 148.158 111.297 150.989C108.702 151.46 107.051 150.281 106.107 147.922Z" fill="#FF4651"/>
<path d="M10.0905 91.3086C10.5623 92.0163 10.5623 92.4881 10.0905 93.1958C10.0905 94.8472 8.91095 95.5549 7.73142 96.4985C7.0237 96.7344 6.31598 96.4985 6.08008 95.5549C7.0237 93.9036 8.43914 92.4881 10.0905 91.3086Z" fill="#FF4651"/>
<path d="M140.313 152.171C137.482 151.464 137.247 150.992 138.898 148.869C139.37 148.161 139.134 146.746 139.37 145.802C139.606 145.566 139.842 145.566 140.077 145.802C140.785 147.453 140.549 149.105 140.785 150.756C140.785 151.228 140.785 151.7 140.313 152.171Z" fill="#FF4651"/>
<path d="M21.1805 81.8656C22.1241 83.2811 23.0677 80.4502 24.2473 81.8656C24.0114 82.8093 23.0677 83.517 22.36 83.9888C21.8882 84.4606 21.4164 84.6965 20.9446 85.1683C20.7087 85.1683 20.4728 85.1683 20.2369 85.1683C19.5291 84.9324 19.0573 84.4606 18.5855 83.7529L18.3496 83.7529C18.8214 83.0452 19.2932 82.5734 19.765 81.8656C20.001 81.3938 20.7087 81.3938 21.1805 81.8656Z" fill="#FF4651"/>
<path d="M35.3342 67.7157C34.8624 68.1875 34.6265 68.8952 34.1547 69.367C33.6829 69.8388 33.211 70.3106 32.5033 70.3106C32.0315 70.3106 31.5597 69.8388 31.0879 69.367C31.3238 69.1311 31.5597 68.8952 31.7956 68.8952C32.5033 68.4234 33.211 67.9516 33.447 67.008C33.6829 66.0643 34.3906 65.5925 35.0983 65.3566C35.3342 65.1207 35.5701 65.1207 35.806 65.3566C36.7496 66.5361 36.0419 67.008 35.3342 67.7157Z" fill="#FF4651"/>
<path d="M8.4427 104.278C7.49908 104.986 6.31955 105.694 5.37592 106.637C4.6682 106.401 4.19639 107.109 3.72458 107.345C2.30914 107.817 2.07323 107.345 2.54505 106.166C3.01686 105.458 3.48867 105.222 3.96048 104.75C4.19639 104.514 4.4323 104.514 4.6682 104.514C5.61183 104.278 6.55545 103.571 7.73498 103.806C7.97089 103.571 8.2068 104.042 8.4427 104.278Z" fill="#FF4651"/>
<path d="M140.315 152.168C140.315 151.696 140.315 151.46 140.315 150.988C140.079 149.808 139.843 148.629 141.495 148.629C141.495 149.101 141.731 149.573 142.202 149.808C142.202 150.28 142.202 150.752 142.674 150.988C143.382 151.46 143.854 151.932 143.382 152.639C142.91 153.347 142.202 153.111 141.495 152.639C141.023 152.403 140.787 152.168 140.315 152.168Z" fill="#FF4651"/>
<path d="M47.1318 52.3771C48.0754 52.1412 48.3113 53.0848 48.7832 53.5566C49.0191 53.7925 49.0191 54.0284 48.7832 54.2643C48.5473 54.5002 48.3113 54.7361 48.3113 54.7361C47.8395 55.208 47.6036 56.1516 46.66 56.1516C46.4241 56.1516 46.1882 56.1516 45.9523 56.1516C45.4805 55.6798 45.7164 54.9721 45.4805 54.5002C45.7164 53.3207 46.4241 52.8489 47.1318 52.3771Z" fill="#FF4651"/>
<path d="M27.7849 106.641C27.7849 107.82 28.9644 109 27.3131 109.707C27.0772 109.943 26.8413 110.415 27.3131 110.651C29.2004 111.595 27.7849 112.302 27.0772 113.01C26.1336 110.887 25.6618 108.528 27.7849 106.641Z" fill="#FF4651"/>
<path d="M36.0437 65.5928C35.8078 65.5928 35.5718 65.5928 35.3359 65.5928C35.8077 63.7055 37.4591 62.7619 38.8745 61.3465C39.3463 61.1105 39.5823 61.3465 40.0541 61.8183C40.0541 62.0542 40.0541 62.2901 40.0541 62.7619C39.1104 63.9414 37.9309 65.121 36.0437 65.5928Z" fill="#FF4651"/>
<path d="M5.8483 95.5508C6.32011 95.7867 7.02783 96.0226 7.49964 96.0226C6.55602 98.1458 3.96105 98.3817 2.78152 100.269C2.54561 99.7971 2.3097 99.3253 1.83789 99.0894C2.78152 97.2021 4.66877 96.7303 5.8483 95.5508Z" fill="#FF4651"/>
<path d="M21.1787 81.8667C20.7069 81.8667 19.9992 81.8667 19.5273 81.8667C20.2351 80.2154 21.6505 79.2718 22.83 78.3281C25.1891 80.6872 21.4146 80.4513 21.1787 81.8667Z" fill="#FF4651"/>
<path d="M122.623 13.4562C122.151 11.0972 122.623 9.20994 124.274 7.55859C125.454 8.50222 124.746 9.44584 124.274 10.1536C123.33 11.0972 123.33 12.5126 122.623 13.4562Z" fill="#FF4651"/>
<path d="M34.8639 120.793C35.5716 122.916 32.5049 122.68 32.5049 124.567C31.7971 124.096 32.9767 121.972 30.8535 122.68C32.033 121.972 33.2126 121.029 34.8639 120.793Z" fill="#FF4651"/>
<path d="M59.6339 41.7656C60.3416 41.7656 60.8134 41.7656 61.5211 41.7656C61.2852 42.7093 60.1057 42.7092 59.6339 43.417C58.4543 44.1247 57.7466 45.3042 56.5671 46.0119C56.3312 46.0119 56.0953 46.0119 55.8594 45.776C56.803 44.1247 58.2184 42.9452 59.6339 41.7656Z" fill="#FF4651"/>
<path d="M118.137 0.482989C116.485 0.954801 115.306 2.60615 113.183 1.66252C112.947 1.42661 112.947 1.19071 113.183 0.954801C114.598 -0.22473 116.25 -0.22473 118.137 0.482989Z" fill="#FF4651"/>
<path d="M84.4047 19.3516C85.3483 20.767 82.7533 21.0029 83.2251 22.4183C83.9329 23.1261 83.461 23.5979 82.9892 24.3056C82.7533 24.5415 82.5174 24.5415 82.2815 24.5415C81.3379 24.0697 81.3379 23.362 81.3379 22.4183C82.2815 21.2388 83.2251 20.2952 84.4047 19.3516Z" fill="#FF4651"/>
<path d="M81.3337 22.1836C82.2773 22.4195 81.3337 23.3631 82.0414 23.8349C82.0414 24.0708 81.8055 24.3068 81.5696 24.5427C80.3901 24.7786 79.9183 26.194 78.5028 25.9581C77.7951 25.0145 79.2106 24.7786 78.9746 24.0708C79.6824 23.3631 80.1542 22.4195 81.3337 22.1836Z" fill="#FF4651"/>
<path d="M137.482 141.32C137.954 142.264 140.077 142.972 137.954 144.151C136.538 144.151 135.359 144.151 135.123 142.5C135.595 142.028 135.831 142.264 136.303 142.5C137.954 143.679 137.01 142.028 137.482 141.32Z" fill="#FF4651"/>
<path d="M45.4797 54.2695C47.1311 54.5054 46.1875 55.2132 45.9515 55.9209C44.772 55.9209 44.5361 58.5158 42.8848 56.8645C43.8284 56.1568 44.772 55.2132 45.4797 54.2695Z" fill="#FF4651"/>
<path d="M107.288 125.516C109.647 126.459 107.995 127.403 107.288 128.582C106.58 128.818 106.344 129.526 105.4 129.054C105.636 127.639 106.344 126.459 107.288 125.516Z" fill="#FF4651"/>
<path d="M128.514 128.347C128.042 129.763 126.863 129.763 125.683 129.763C125.447 128.111 126.391 127.168 127.334 125.988C127.806 125.988 128.278 126.224 128.042 126.696C128.042 127.404 126.391 128.347 128.514 128.347Z" fill="#FF4651"/>
<path d="M25.4277 97.9119C27.7868 94.6093 28.0227 98.6197 29.4381 98.8556C28.7304 99.7992 28.2586 99.5633 27.5509 98.6197C27.0791 97.9119 26.3714 97.9119 25.4277 97.9119Z" fill="#FF4651"/>
<path d="M37.6914 123.626C37.6914 123.154 37.6914 122.918 37.6914 122.446C38.1632 121.738 38.635 121.031 39.5787 121.738C40.5223 122.682 41.7018 122.21 42.6454 122.446C41.23 124.098 39.1068 122.446 37.6914 123.626Z" fill="#FF4651"/>
<path d="M4.1968 104.988C3.72498 105.459 3.48908 105.695 3.01727 106.167C2.54545 106.403 2.30955 106.403 1.83773 106.167C1.36592 105.695 0.894109 105.459 0.658203 104.988C1.60183 104.516 2.54545 104.516 3.48908 104.28C4.1968 104.044 4.1968 104.28 4.1968 104.988Z" fill="#FF4651"/>
<path d="M14.1014 87.0625C15.045 87.7702 13.1578 89.6575 15.2809 89.8934C15.5168 91.3088 14.5732 91.5447 13.6296 91.7806C12.4501 90.837 14.5732 89.1857 12.9219 88.242C13.3937 88.0061 13.6296 87.5343 14.1014 87.0625Z" fill="#FF4651"/>
<path d="M79.6822 121.979C79.2104 121.272 78.0308 122.451 77.7949 121.272C77.7949 120.564 78.0308 119.856 78.0308 119.148C78.9744 119.856 79.9181 120.564 79.6822 121.979Z" fill="#FF4651"/>
<path d="M113.891 150.753C113.655 150.045 113.891 148.63 114.363 149.337C115.779 150.989 117.194 149.809 118.61 150.281C116.958 151.696 115.307 150.517 113.891 150.753Z" fill="#FF4651"/>
<path d="M113.185 0.953125C113.185 1.18903 113.185 1.42494 113.185 1.66084C111.298 2.13266 109.411 2.36856 107.523 2.84038C109.175 1.66084 111.062 0.953125 113.185 0.953125Z" fill="#FF4651"/>
<path d="M135.596 128.342C135.596 127.398 137.011 126.219 135.596 125.275C137.247 124.332 137.247 125.747 137.483 126.455C137.719 126.927 137.719 127.398 137.483 127.634C137.011 128.578 136.303 128.814 135.596 128.342Z" fill="#FF4651"/>
<path d="M17.642 99.0953C18.1138 99.803 18.5856 99.5671 19.2933 99.5671C18.8215 100.983 17.8779 101.454 16.4625 100.983C16.2266 100.747 16.2266 100.511 16.2266 100.275C16.4625 99.3312 16.6984 98.8594 17.642 99.0953Z" fill="#FF4651"/>
<path d="M128.047 126.696C127.811 126.46 127.575 126.225 127.339 125.989C126.868 125.281 127.811 124.809 127.339 124.101C127.339 123.158 127.575 122.922 128.519 122.922C129.227 123.394 128.519 124.101 128.991 124.573C128.755 125.517 128.755 126.225 128.047 126.696Z" fill="#FF4651"/>
<path d="M39.5788 61.8159C39.3429 61.58 39.107 61.3441 38.8711 61.1082C39.8147 59.9287 40.7583 58.9851 41.9379 58.2773C41.9379 58.5133 41.9379 58.7492 41.9379 58.9851C42.4097 59.9287 41.2302 60.4005 41.2302 61.1082C40.5224 61.3441 40.5224 62.2878 39.5788 61.8159Z" fill="#FF4651"/>
<path d="M1.83372 106.172C2.30553 106.172 2.54144 106.172 3.01325 106.172C2.54144 106.88 2.77734 107.351 3.72097 107.351C3.01325 108.059 2.06962 108.295 1.36191 107.823C0.654187 107.116 1.36191 106.408 1.83372 106.172Z" fill="#FF4651"/>
<path d="M118.606 150.285C118.37 149.813 118.134 149.106 117.898 148.634C118.134 148.398 118.37 148.398 118.606 148.634C119.078 149.578 120.022 148.398 120.729 149.106C120.258 149.813 119.55 150.049 118.606 150.285Z" fill="#FF4651"/>
<path d="M101.387 8.27022C100.443 8.97794 99.4998 10.1575 98.3203 8.74203C98.7921 8.03431 99.2639 7.5625 100.208 7.5625C100.443 8.03431 100.915 8.27022 101.387 8.27022Z" fill="#FF4651"/>
<path d="M71.4302 31.1523C71.6661 31.8601 70.7225 32.3319 71.4302 33.0396C71.6661 33.5114 71.4302 33.7473 71.1943 33.9832C70.9584 34.2191 70.7225 34.2191 70.4866 34.455C70.0148 34.455 69.7789 34.455 69.543 34.2191C69.7789 33.5114 70.4866 33.0396 69.543 32.3319C70.0148 31.6242 70.4866 31.1523 71.4302 31.1523Z" fill="#FF4651"/>
<path d="M105.633 129.054C106.341 129.054 106.576 127.639 107.52 128.582C107.284 129.762 106.576 130.705 105.869 131.413C105.633 130.705 105.633 129.762 105.633 129.054Z" fill="#FF4651"/>
<path d="M141.49 152.644C142.67 152.644 143.613 152.408 142.67 150.992C143.849 150.992 144.557 151.464 143.849 152.644C143.377 153.587 142.434 153.351 141.49 152.644Z" fill="#FF4651"/>
<path d="M53.0254 48.8441C53.2613 48.3723 53.2613 47.9005 53.4972 47.6646C54.2049 46.9569 55.1485 46.4851 55.8563 45.7773L56.0922 46.0133C56.3281 47.4287 54.9126 47.6646 54.2049 48.3723C53.969 48.8441 53.4972 48.8441 53.0254 48.8441Z" fill="#FF4651"/>
<path d="M127.81 73.6193C127.574 72.9115 127.574 71.9679 128.282 71.4961C128.046 72.4397 129.697 73.3833 128.518 74.5629C128.282 74.7988 128.046 74.7988 127.574 74.5629C127.574 74.0911 127.574 73.8552 127.81 73.6193Z" fill="#FF4651"/>
<path d="M128.986 124.807C128.278 124.336 128.514 123.628 128.514 123.156C128.514 122.448 128.986 121.977 129.694 121.977C129.458 122.92 129.222 123.864 128.986 124.807Z" fill="#FF4651"/>
<path d="M131.586 143.204C131.586 142.968 131.586 142.733 131.586 142.497C131.35 141.081 132.058 140.609 133.238 140.609C133.238 140.845 133.238 141.081 133.473 141.553C133.709 143.204 132.058 142.733 131.586 143.204Z" fill="#FF4651"/>
<path d="M118.609 148.637C118.373 148.637 118.137 148.637 117.901 148.637C117.194 148.401 116.486 148.165 117.429 147.457C118.137 147.693 118.609 147.929 119.317 148.165C118.845 148.165 118.845 148.401 118.609 148.637Z" fill="#FF4651"/>
<path d="M16.463 100.268C16.463 100.503 16.463 100.739 16.463 100.975C15.9912 101.447 15.2835 102.155 14.8117 102.627C14.5758 102.391 14.3398 102.155 14.3398 101.919C14.5757 100.975 15.0476 99.7958 16.463 100.268Z" fill="#FF4651"/>
<path d="M29.4365 103.57C29.4365 104.986 28.9647 105.929 27.7852 106.637C28.0211 105.458 28.4929 104.278 29.4365 103.57Z" fill="#FF4651"/>
<path d="M31.3249 69.6055C31.7967 69.6055 32.2685 69.8414 32.5044 70.3132C32.7403 70.5491 32.7403 70.5491 32.7403 70.785C32.7403 71.0209 32.7403 71.0209 32.5044 71.0209C32.0326 71.2568 31.7967 71.2568 31.3249 70.785C31.089 70.5491 30.8531 70.3132 30.6172 70.0773C30.8531 69.8414 31.089 69.6055 31.3249 69.6055Z" fill="#FF4651"/>
<path d="M141.49 97.2069C141.962 96.971 142.198 96.4992 142.198 96.0273C143.141 97.2069 142.669 98.1505 141.726 98.8582C141.018 98.3864 141.254 97.9146 141.49 97.2069Z" fill="#FF4651"/>
<path d="M136.063 142.737C135.591 142.737 135.355 142.737 134.883 142.737C134.648 142.265 134.412 142.03 134.176 141.558C135.119 141.558 136.063 141.322 136.063 142.737Z" fill="#FF4651"/>
<path d="M33.6845 67.0078C33.6845 68.1873 32.9768 68.6592 32.0332 68.8951C32.505 68.4233 32.9768 67.7155 33.6845 67.0078Z" fill="#FF4651"/>
<path d="M128.044 74.3242C128.28 74.3242 128.515 74.3242 128.751 74.3242C128.515 75.0319 128.751 75.9756 128.044 76.6833C127.808 76.4474 127.572 76.4474 127.336 76.2115C127.336 75.5037 127.336 74.796 128.044 74.3242Z" fill="#FF4651"/>
<path d="M141.49 97.207C141.49 97.6788 141.49 98.3866 141.726 98.8584C141.254 99.0943 141.018 99.3302 140.546 99.5661C140.31 98.6225 140.546 97.9148 141.49 97.207Z" fill="#FF4651"/>
<path d="M70.7208 42.4742C71.1926 44.1255 70.9567 45.541 69.3054 46.4846C68.8336 46.9564 68.3618 47.4282 67.89 47.9C65.7668 50.495 63.4077 52.3823 59.8691 50.9668C60.341 49.7873 61.2846 49.0796 62.4641 48.3718C64.1155 48.6078 64.5873 46.9564 65.5309 46.2487C66.0027 45.7769 66.4745 45.3051 66.9463 44.8333C67.89 43.8896 68.8336 42.946 70.0131 42.2383C70.249 42.2383 70.4849 42.2383 70.7208 42.4742Z" fill="#FF4651"/>
<path d="M13.6309 92.0212C14.1027 91.3134 14.8104 90.8416 15.2822 90.1339C15.754 89.1903 17.1695 88.7185 17.1695 87.303C17.8772 86.1235 18.1131 84.7081 20.0003 84.944C20.2362 84.944 20.4721 84.944 20.708 84.944C20.708 85.8876 20.4721 86.5953 21.4158 87.303C19.2926 88.7185 20.0003 92.2571 17.4054 93.2007C16.6976 92.9648 15.9899 93.6725 15.0463 93.4366C14.1027 93.2007 13.8668 92.493 13.6309 92.0212Z" fill="#FF4651"/>
<path d="M14.8087 93.1946C15.5164 93.9023 16.46 91.0714 17.1678 93.1946C16.9319 93.6664 16.696 94.1382 16.2241 94.61C18.3473 95.0818 19.2909 89.656 21.8859 93.6664L21.65 93.9023C20.4705 95.0818 19.2909 96.2613 18.1114 97.4409C17.4037 97.9127 16.696 98.8563 15.7523 98.8563C15.2805 97.6768 14.3369 98.1486 13.3933 98.3845C13.1574 98.3845 12.9215 98.1486 12.6855 98.1486C12.6855 96.7332 14.101 96.0254 13.8651 94.61C13.8651 93.9023 14.101 93.4305 14.8087 93.1946Z" fill="#FF4651"/>
<path d="M91.4813 17.7018C93.3685 16.2864 94.784 14.1632 97.3789 13.6914C98.0866 16.0505 95.0199 16.5223 95.0199 18.4095C93.1326 19.3532 91.7172 21.2404 89.8299 21.9481C89.594 21.0045 90.0658 19.825 90.3017 19.1173C90.5376 18.1736 90.7735 17.9377 91.4813 17.7018Z" fill="#FF4651"/>
<path d="M76.1449 47.6624C74.9654 48.8419 74.0218 50.2573 72.8422 51.201C71.8986 52.1446 70.955 52.6164 69.7754 51.6728C69.5395 50.9651 69.7755 50.4933 70.0114 50.0214C70.2473 49.7855 70.2473 49.5496 70.4832 49.5496C72.6063 49.0778 74.4936 48.1342 75.909 46.7188C75.909 46.7188 76.1449 47.1906 76.1449 47.6624Z" fill="#FF4651"/>
<path d="M95.0201 18.1719C94.3124 17.2283 94.3124 16.5206 95.4919 15.8129C96.4355 15.3411 96.9073 14.3974 97.3792 13.4538C97.851 13.2179 98.0869 12.982 98.5587 12.7461C99.7382 14.1615 99.5023 15.3411 97.6151 16.2847C96.6714 16.9924 95.7278 17.7001 95.0201 18.1719Z" fill="#FF4651"/>
<path d="M73.0794 31.8529C73.5512 31.3811 73.7872 31.1452 74.259 30.6734C74.9667 30.9093 75.6744 30.6734 76.618 30.4375C76.8539 30.4375 77.0898 30.6734 77.3257 30.6734C76.1462 32.5607 74.4949 33.7402 72.6076 34.9197C71.8999 35.1556 71.1922 36.3352 70.2486 35.3915C69.7767 34.9197 70.4845 34.4479 70.7204 34.212C71.664 33.5043 72.6076 32.7966 73.0794 31.8529Z" fill="#FF4651"/>
<path d="M141.494 148.632C140.314 149.104 140.314 150.047 140.314 150.991C139.371 149.34 140.078 147.452 139.842 145.565C139.842 144.15 139.842 142.734 139.842 141.555C140.55 142.262 140.786 143.442 141.022 144.386C140.078 145.801 141.494 147.216 141.494 148.632Z" fill="#FF4651"/>
<path d="M46.6565 55.9193C47.1283 55.4475 47.836 54.9757 48.3078 54.5039C47.1283 57.8066 44.7692 59.9297 42.4102 62.2888C42.6461 59.4579 45.4769 58.2784 46.6565 55.9193Z" fill="#FF4651"/>
<path d="M76.1452 47.6655C75.6734 47.4296 75.6734 46.9577 75.4375 46.4859C76.617 45.0705 77.0888 43.1832 78.9761 42.4755C79.4479 42.2396 79.6838 42.0037 80.1556 42.4755C78.9761 44.1269 77.7966 46.25 76.1452 47.6655Z" fill="#FF4651"/>
<path d="M21.1806 87.294C20.4728 86.3504 19.7651 88.4736 19.2933 87.294C18.8215 86.1145 20.4728 85.8786 20.7087 84.935C20.9447 84.4632 21.4165 83.9913 21.8883 83.7554C22.8319 83.2836 23.3037 83.5195 23.7755 84.4632C22.8319 85.1709 22.3601 86.5863 21.1806 87.294Z" fill="#FF4651"/>
<path d="M90.2995 18.8867C90.7713 20.0663 90.5354 21.0099 89.8277 21.7176C88.6481 22.4253 87.4686 23.3689 86.2891 24.0767C86.9968 21.9535 88.1763 20.0663 90.2995 18.8867Z" fill="#FF4651"/>
<path d="M137.249 127.867C137.249 128.811 137.72 129.047 138.664 129.047C137.249 129.754 135.833 130.226 134.418 130.934C133.71 131.17 133.238 131.406 133.238 130.226C133.946 129.754 134.89 129.047 135.597 128.575C136.069 128.339 136.777 128.103 137.249 127.867Z" fill="#FF4651"/>
<path d="M70.7205 42.4744C70.4846 42.4744 70.2487 42.4744 70.2487 42.4744C69.7769 42.4744 69.7769 42.0026 69.541 42.0026C70.4846 40.1153 72.3719 39.4076 74.2591 37.9922C74.2591 40.5872 71.4283 40.5872 70.7205 42.4744Z" fill="#FF4651"/>
<path d="M35.3331 96.0234C35.0972 99.0902 34.8613 99.3261 32.5022 98.3825C32.0304 96.0234 34.6254 96.9671 35.3331 96.0234Z" fill="#FF4651"/>
<path d="M67.8909 53.563C67.655 53.7989 67.4191 54.0348 67.1832 54.0348C66.2396 54.0348 65.06 55.6862 64.3523 54.5067C63.6446 53.3271 64.8241 52.3835 66.0037 51.9117C66.2396 51.6758 66.4755 51.6758 66.7114 51.6758C67.4191 52.1476 67.4191 53.0912 67.8909 53.563Z" fill="#FF4651"/>
<path d="M67.8866 53.567C66.707 53.567 66.707 52.8593 66.707 51.9156C67.6507 50.7361 68.5943 49.5566 70.2456 50.0284C70.0097 50.7361 69.7738 51.2079 69.5379 51.9156C68.8302 52.1516 68.1225 52.8593 67.8866 53.567Z" fill="#FF4651"/>
<path d="M54.2051 48.3705C54.9128 47.6628 55.3846 46.7191 56.0923 46.0114C57.2719 45.3037 57.9796 43.6523 59.6309 43.6523C57.9796 45.3037 56.8 47.4268 54.2051 48.3705Z" fill="#FF4651"/>
<path d="M69.5438 41.7656C69.7797 42.0015 70.0156 42.2374 70.2515 42.2374C69.5438 43.417 68.6001 44.3606 67.4206 45.3042C67.1847 45.3042 66.9488 45.0683 66.7129 44.5965C67.1847 43.417 68.6001 42.7093 69.5438 41.7656Z" fill="#FF4651"/>
<path d="M77.3241 30.6795C77.0882 30.6795 76.8523 30.6795 76.6164 30.6795C76.3805 30.2077 76.3805 29.9718 76.6164 29.5C76.6164 29.2641 76.6164 29.0282 76.6164 29.0282C77.7959 28.3205 78.7395 26.905 80.155 28.3205C80.155 28.5564 80.155 28.7923 80.155 29.0282C79.2114 29.5 78.2677 29.9718 77.3241 30.6795Z" fill="#FF4651"/>
<path d="M80.158 42.4691C79.6862 42.4691 79.4503 42.4691 78.9785 42.4691C79.6862 41.2896 80.6299 40.346 81.8094 39.4023C82.0453 39.4023 82.2812 39.6382 82.5171 40.1101C82.0453 41.0537 81.1017 41.7614 80.158 42.4691Z" fill="#FF4651"/>
<path d="M70.7225 34.2148C70.4866 36.5739 72.138 34.2148 72.3739 34.9226C71.9021 35.8662 70.9585 36.1021 70.0148 36.8098C69.3071 36.1021 68.8353 35.3944 69.3071 34.4508C70.0148 34.2148 70.4866 34.2148 70.7225 34.2148Z" fill="#FF4651"/>
<path d="M70.2483 50.0194C68.8328 50.2553 67.8892 51.4348 66.7097 51.9067C66.4738 51.9067 66.2379 51.9067 66.002 51.9067C66.9456 50.2553 68.1251 49.3117 70.0124 49.5476C70.2483 49.5476 70.2483 49.7835 70.2483 50.0194Z" fill="#FF4651"/>
<path d="M133.236 130.227C133.472 130.698 133.944 130.934 134.416 130.934C133.236 131.878 131.585 131.642 129.934 133.293C130.641 131.17 132.057 131.406 132.764 130.462C132.764 130.227 133 130.227 133.236 130.227Z" fill="#FF4651"/>
<path d="M48.7793 54.2706C48.7793 54.0347 48.7793 53.7988 48.7793 53.5629C49.7229 52.6193 50.6665 51.4397 51.6102 50.4961C51.8461 52.3833 50.1947 53.327 48.7793 54.2706Z" fill="#FF4651"/>
<path d="M23.5376 84.2317C22.8299 83.9958 22.3581 83.7599 21.6504 83.524C22.3581 82.8163 23.3017 82.3444 24.0095 81.6367C24.2454 81.8726 24.4813 82.1085 24.7172 82.3444C24.4813 83.0522 24.0095 83.7599 23.5376 84.2317Z" fill="#FF4651"/>
<path d="M131.586 140.136C131.114 139.9 130.878 139.428 130.406 139.192C131.35 138.249 132.294 138.013 132.765 139.664C132.765 139.9 132.765 140.136 132.765 140.136C132.293 140.608 131.822 140.608 131.586 140.136Z" fill="#FF4651"/>
<path d="M65.9995 46.4894C64.82 46.9612 64.3482 49.3203 62.4609 48.3767C63.1687 47.669 64.1123 47.1971 64.82 46.4894C65.2918 46.2535 65.7636 46.2535 65.9995 46.4894Z" fill="#FF4651"/>
<path d="M82.5144 40.1145C82.2785 39.8786 82.0425 39.6427 81.8066 39.4068C82.2785 38.6991 82.7503 37.9913 83.458 37.5195C83.6939 37.5195 83.9298 37.7554 84.1657 38.2273C83.9298 39.1709 83.458 39.6427 82.5144 40.1145Z" fill="#FF4651"/>
<path d="M66.0018 46.4849C65.53 46.4849 65.2941 46.4849 64.8223 46.4849C65.2941 45.7772 65.7659 45.0695 66.4736 44.5977C66.7095 44.8336 66.9454 45.0695 67.1813 45.3054C66.9454 45.7772 66.4736 46.249 66.0018 46.4849Z" fill="#FF4651"/>
<path d="M84.405 38.2257C84.1691 37.9898 83.9332 37.7539 83.6973 37.518C84.1691 37.0462 84.405 36.8103 84.8768 36.3385C85.3486 36.1026 85.5845 36.3385 85.5845 37.0462C85.1127 37.518 84.6409 37.9898 84.405 38.2257Z" fill="#FF4651"/>
<path d="M32.5051 70.5467C32.5051 70.3108 32.5051 70.0749 32.5051 70.0749C33.2128 69.839 33.6846 69.6031 34.3923 69.3672C34.3923 69.839 34.3923 70.0749 34.3923 70.5467C33.9205 70.7826 33.2128 71.0185 32.741 71.2544C32.2691 71.2544 32.2691 71.0185 32.5051 70.5467C32.2691 70.7826 32.2691 70.5467 32.5051 70.5467Z" fill="#FF4651"/>
<path d="M85.5808 37.0489C85.3449 36.813 85.109 36.5771 84.873 36.3412C85.109 35.8694 85.5808 35.1617 86.2885 34.9258C86.5244 36.1053 86.0526 36.5771 85.5808 37.0489Z" fill="#FF4651"/>
<path d="M72.1367 47.899C72.6085 46.7194 73.0803 46.2476 74.024 46.0117C73.7881 46.9553 73.3162 47.4272 72.1367 47.899Z" fill="#FF4651"/>
<path d="M137.951 137.783C137.951 137.311 137.715 137.075 137.715 136.839C137.715 136.603 138.187 136.603 138.187 136.367C138.187 136.603 138.423 136.839 138.423 137.075C138.423 137.311 138.187 137.547 137.951 137.783Z" fill="#FF4651"/>
<path d="M28.9629 74.3208C28.9629 73.1413 29.6706 72.6695 30.8501 72.4336C30.3783 73.3772 30.3783 74.5567 28.9629 74.3208Z" fill="#FF4651"/>
<path d="M32.5044 70.5508C32.5044 70.7867 32.5044 71.0226 32.5044 71.2585C32.2685 71.9662 31.5608 72.438 30.6172 72.438C30.8531 71.7303 31.089 71.2585 31.3249 70.5508C31.5608 70.7867 32.0326 70.7867 32.5044 70.5508Z" fill="#FF4651"/>
<path d="M80.1569 28.3244C78.7415 27.6167 78.0337 29.7399 76.8542 29.0322C76.6183 28.7963 76.3824 28.5603 76.1465 28.3244C77.0901 27.6167 77.7978 26.909 78.5055 25.9654C79.6851 25.4936 80.1569 24.0781 81.3364 24.0781C82.28 24.7858 81.1005 25.7295 81.3364 26.4372C81.1005 27.1449 80.6287 27.6167 80.1569 28.3244Z" fill="#FF4651"/>
<path d="M82.5172 24.0693C82.7531 23.5975 82.989 22.8898 82.989 22.418C83.6967 22.418 84.1685 22.8898 84.1685 23.5975C83.6967 24.3052 83.2249 25.0129 82.2812 25.2488C82.2812 24.777 82.2812 24.5411 82.5172 24.0693Z" fill="#FF4651"/>
<path d="M97.3768 12.2763C96.905 12.5122 96.6691 12.5123 96.1973 12.7482C96.1973 11.5686 97.1409 10.8609 98.0845 10.625C98.5563 10.625 98.0845 11.3327 98.0845 11.5686C97.6127 12.0404 97.3768 12.0404 97.3768 12.2763Z" fill="#FF4651"/>
<path d="M19.0573 97.2066C18.8214 97.2066 18.5855 97.2066 18.3496 97.2066C19.2932 95.7911 20.2369 94.3757 21.8882 93.668C21.6523 95.5552 20.2369 96.2629 19.0573 97.2066Z" fill="#FF4651"/>
<path d="M14.8114 93.1967C14.5755 93.6685 14.3396 94.3762 14.1037 94.848C12.2165 97.9148 9.85741 100.038 7.02654 102.161C6.79063 102.397 6.55473 102.397 6.31882 102.633C5.84701 102.869 5.6111 103.105 5.13929 103.105C4.43157 103.341 3.72385 103.812 3.01613 103.105C2.54432 102.633 3.25204 102.397 3.48794 101.925C3.95976 101.217 4.43157 100.274 3.01613 100.038C3.48794 97.443 5.84701 96.9712 7.73426 95.7916C8.44198 94.848 9.3856 93.9044 10.0933 92.9608C12.2165 95.0839 12.9242 93.9044 13.6319 91.7813C14.1037 92.2531 14.5755 92.489 14.8114 93.1967Z" fill="#FF4651"/>
<path d="M12.9219 97.918C13.1578 97.918 13.3938 97.918 13.6297 97.918C14.5733 100.041 12.2142 100.513 11.7424 101.928C10.7988 103.108 9.85516 104.052 8.20381 104.287C7.96791 104.052 7.732 103.816 7.49609 103.58C7.49609 103.108 7.732 102.4 7.96791 102.164C9.85516 100.749 10.327 98.1539 12.9219 97.918Z" fill="#FF4651"/>
<path d="M11.7421 101.923C11.2703 100.036 13.6293 99.3285 13.6293 97.9131C14.8089 97.9131 14.8089 96.4976 15.9884 96.2617C16.6961 96.9694 15.2807 97.6772 15.9884 98.3849C14.8089 99.5644 13.6293 100.744 12.4498 101.923C12.2139 101.923 11.978 101.923 11.7421 101.923Z" fill="#FF4651"/>
<path d="M3.48686 101.926C3.25095 104.285 4.66639 101.926 5.1382 102.633C5.37411 104.049 4.66639 104.285 3.48686 103.813C2.77914 103.577 1.59961 104.285 1.59961 103.341C1.59961 102.398 2.77914 101.926 3.48686 101.926Z" fill="#FF4651"/>
<path d="M3.72008 103.812C4.4278 103.576 5.13552 103.34 5.37143 102.632C5.60733 102.396 5.84324 102.396 6.07914 102.16C8.2023 104.047 5.60733 104.283 4.89961 104.991C4.66371 104.991 4.4278 104.991 4.4278 104.991C4.19189 104.755 3.95599 104.519 3.72008 104.283C3.48418 104.047 3.72008 104.047 3.72008 103.812Z" fill="#FF4651"/>
<path d="M40.7617 60.6357C41.2335 60.1639 41.4694 59.4562 41.9413 58.9844C43.1208 60.1639 41.7053 60.8716 41.2335 61.8153C40.7617 61.5793 40.7617 61.1075 40.7617 60.6357Z" fill="#FF4651"/>
<path d="M40.7596 60.6328C41.2314 60.8687 41.2314 61.3405 41.4673 61.8123C41.2314 62.2842 40.7596 62.5201 40.2878 62.5201C40.0519 62.5201 39.816 62.5201 39.5801 62.5201C39.5801 62.2842 39.5801 62.0483 39.5801 61.8123C39.816 61.3405 40.2878 61.1046 40.7596 60.6328Z" fill="#FF4651"/>
<path d="M20.0004 84.9373C19.0567 85.6451 18.1131 86.5887 17.1695 87.2964C16.9336 85.881 17.4054 84.7014 18.349 83.7578C19.0567 83.7578 19.7645 83.9937 20.0004 84.9373Z" fill="#FF4651"/>
<path d="M76.6188 29.4961C76.6188 29.9679 76.6188 30.2038 76.6188 30.6756C75.9111 31.3833 75.2034 31.8552 74.2598 30.6756C74.9675 29.732 75.6752 29.4961 76.6188 29.4961Z" fill="#FF4651"/>
<path d="M73.0798 31.8594C73.0798 33.5107 71.9002 33.9825 70.7207 34.2184C70.9566 33.7466 71.1925 33.5107 71.4284 33.0389C71.9002 32.5671 72.608 32.0953 73.0798 31.8594Z" fill="#FF4651"/>
<path d="M4.66406 104.751C5.13587 103.807 6.78722 103.335 5.84359 101.92C6.0795 101.92 6.31541 101.92 6.55131 101.92C7.25903 101.448 8.20266 101.212 8.43856 102.628C8.43856 103.1 8.20266 103.571 7.73084 103.807C6.78722 104.043 5.84359 104.987 4.66406 104.751Z" fill="#FF4651"/>
<path d="M8.20756 102.629C7.73575 101.921 7.02803 102.157 6.32031 101.921C8.91528 99.5619 11.5102 97.2028 14.1052 94.8438C15.2848 96.4951 13.3975 96.9669 12.9257 97.9105C10.8025 98.8542 10.5666 101.685 8.20756 102.629Z" fill="#FF4651"/>
</svg>
