<svg width="113" height="113" viewBox="0 0 113 113" fill="none" xmlns="http://www.w3.org/2000/svg">
<path d="M113 55.8821C112.348 53.9285 112.348 51.7579 112.131 49.5872C111.913 49.1531 111.696 48.719 111.262 48.5019C111.262 48.2848 111.044 48.2848 111.044 48.0678C110.827 47.4166 110.827 46.9824 110.61 46.3312C110.175 45.2459 109.958 44.1606 109.958 42.8582C109.74 42.207 109.74 41.7729 109.74 41.3388C109.74 41.1217 109.958 40.9046 109.958 40.4705C110.175 39.8193 110.392 39.3852 110.392 38.734C110.175 37.4316 109.74 36.1292 108.871 35.0439C107.567 34.1756 107.567 32.8732 107.567 31.7879C107.133 28.5319 104.525 26.5784 103.221 23.7565C100.613 18.764 96.2673 15.291 92.1385 11.6009C91.7038 11.6009 91.2692 11.3838 91.0519 11.3838C88.8788 10.7326 87.1404 8.56199 84.9673 7.69374C84.75 7.47667 84.5327 7.25961 84.3154 7.25961C84.0981 7.04254 83.8808 6.82548 83.6635 6.60841C80.8385 3.35244 77.1442 1.39886 73.0154 0.964732C66.0615 0.0964732 59.1077 -0.337656 52.1538 0.313538C46.9385 0.747667 41.7231 1.1818 36.725 3.13538C26.2942 7.04254 18.4712 14.4227 11.7346 22.8883C4.78077 31.7879 0.651923 41.7729 0.651923 53.4944C0.651923 55.665 0.869231 58.0527 0 60.4404V65.2159C1.08654 68.6889 0.651923 72.5961 1.95577 76.0691C6.08462 87.3565 13.0385 96.2561 22.6 103.202C30.4231 109.063 38.8981 113.404 49.1115 112.97C51.9365 112.753 54.5442 111.885 57.3692 112.319C60.6288 112.536 63.8885 112.536 67.1481 112.319C72.3635 112.102 77.5788 111.017 82.1423 108.412C83.4462 107.543 84.75 106.458 86.2712 105.807C93.6596 102.551 98.875 97.3414 102.569 90.1783C102.569 89.093 102.352 88.0076 103.873 88.0076C105.177 87.5735 106.046 86.4882 106.698 85.4029C110.827 79.3251 112.131 72.379 112.565 65.2159C112.565 65.2159 112.565 65.2159 112.565 64.9988C112.783 62.394 112.131 59.7892 112.783 57.1845V55.8821H113ZM99.5269 80.1933C93.4423 92.7831 83.0115 100.38 69.9731 104.07C60.1942 106.892 50.6327 105.156 41.2885 100.814C34.3346 97.5585 28.25 93.2172 22.1654 88.6588C14.7769 83.4493 9.77885 76.2862 8.69231 66.9524C7.17115 54.5797 10.2135 43.2923 15.8635 32.6562C21.7308 22.02 30.6404 14.4227 42.375 10.5156C57.8038 5.30603 72.3635 6.60841 85.6192 16.5934C95.6154 24.1906 101.048 34.8268 103.438 46.9824C104.525 51.7579 105.612 56.7503 105.177 62.177C105.612 68.4718 102.352 74.3326 99.5269 80.1933Z" fill="#FFBB00"/>
</svg>
