<svg width="45" height="45" viewBox="0 0 45 45" fill="none" xmlns="http://www.w3.org/2000/svg">
<rect width="45" height="45" rx="22.5" fill="#FFF7E0"/>
<path d="M27.5992 22.9992C27.5992 23.3992 27.2992 23.7992 26.7992 23.7992H22.8992C22.6992 23.7992 22.4992 23.6992 22.3992 23.5992C22.2992 23.2992 22.1992 23.0992 22.1992 22.8992L22.2992 18.8992C22.2992 18.4992 22.5992 18.1992 23.0992 18.1992C23.4992 18.1992 23.8992 18.4992 23.7992 18.9992L23.6992 22.1992H26.8992C27.2992 22.1992 27.5992 22.4992 27.5992 22.9992Z" fill="#FFBB00"/>
<path d="M22.9 14C18 14 14 18 14 23C14 28 18 31.9 22.9 31.9C27.8 31.9 31.8 27.9 31.8 23C31.8 18.1 27.9 14 22.9 14ZM22.9 30.4C18.8 30.4 15.5 27 15.5 23C15.5 18.9 18.8 15.5 22.9 15.5C27 15.5 30.3 18.8 30.3 23C30.4 27 27.1 30.4 22.9 30.4Z" fill="#FFBB00"/>
<path d="M27.5992 22.9992C27.5992 23.3992 27.2992 23.7992 26.7992 23.7992H22.8992C22.6992 23.7992 22.4992 23.6992 22.3992 23.5992C22.2992 23.2992 22.1992 23.0992 22.1992 22.8992L22.2992 18.8992C22.2992 18.4992 22.5992 18.1992 23.0992 18.1992C23.4992 18.1992 23.8992 18.4992 23.7992 18.9992L23.6992 22.1992H26.8992C27.2992 22.1992 27.5992 22.4992 27.5992 22.9992Z" fill="#FFBB00"/>
<path d="M27.5992 22.9992C27.5992 23.3992 27.2992 23.7992 26.7992 23.7992H22.8992C22.6992 23.7992 22.4992 23.6992 22.3992 23.5992C22.2992 23.2992 22.1992 23.0992 22.1992 22.8992L22.2992 18.8992C22.2992 18.4992 22.5992 18.1992 23.0992 18.1992C23.4992 18.1992 23.8992 18.4992 23.7992 18.9992L23.6992 22.1992H26.8992C27.2992 22.1992 27.5992 22.4992 27.5992 22.9992Z" fill="#FFBB00"/>
</svg>
