<svg width="13" height="13" viewBox="0 0 13 13" fill="none" xmlns="http://www.w3.org/2000/svg">
<path d="M10.0328 5.90946L6.0994 1.96412C5.89552 1.73528 5.90526 1.38677 6.12161 1.16973C6.33795 0.952689 6.68572 0.942532 6.91431 1.14658L11.8313 6.08031C12.0562 6.30621 12.0562 6.67196 11.8313 6.89786L6.91431 11.8307C6.76858 11.9767 6.55616 12.0337 6.35709 11.9803C6.15801 11.9268 6.00252 11.771 5.94917 11.5715C5.89583 11.372 5.95275 11.1592 6.09848 11.0131L10.0328 7.06687H1.57658C1.25814 7.06687 1 6.80819 1 6.48908C1 6.16998 1.25814 5.91129 1.57658 5.91129H10.0328V5.90946Z" fill="white" stroke="white" stroke-width="0.3"/>
</svg>
