<svg width="42" height="43" viewBox="0 0 42 43" fill="none" xmlns="http://www.w3.org/2000/svg">
<path d="M15.3 38.925L15.093 39.0112C15.3 38.925 15.5069 38.8388 15.7139 38.7527C16.1278 38.5803 16.5417 38.408 16.7486 38.3218C17.5764 37.9772 18.1973 37.7187 19.0251 37.374C17.1974 37.65 14.921 38.5978 14.5419 38.2707C14.2489 38.1502 13.749 38.1159 13.456 37.9954C13.163 37.8749 12.87 37.7544 12.1119 37.1001C12.8537 36.5488 11.6838 33.1561 11.6838 33.1561C11.2188 32.6223 10.8746 31.7956 10.6164 31.1756C10.7885 31.589 11.1676 31.9161 11.4257 32.5361C11.2536 32.1228 10.7885 31.589 10.6164 31.1756C8.39555 27.0081 6.62343 22.1688 4.76525 17.1228C4.59316 16.7095 4.42106 16.2962 4.24897 15.8829C4.07688 15.4696 3.81874 14.8496 3.73269 14.6429C3.5606 14.2296 3.71635 13.4373 4.25115 12.9721C4.4581 12.886 4.4581 12.886 4.66505 12.7998C4.872 12.7136 4.872 12.7136 5.28589 12.5413C5.90674 12.2828 6.52758 12.0243 7.14843 11.7658C8.06227 11.6278 9.09701 11.197 9.71785 10.9385C10.1317 10.7661 10.5456 10.5938 10.9595 10.4215C10.3387 10.68 10.3387 10.68 9.71785 10.9385C11.2874 10.0425 12.8569 9.14646 14.3056 8.54329C14.0986 8.62946 14.0126 8.4228 13.0987 8.56081L13.9265 8.21614C14.4613 7.75098 16.1169 7.06164 16.8587 6.51031C16.7378 6.80314 17.3586 6.54464 17.7725 6.3723L17.5656 6.45847C19.635 5.5968 21.9115 4.64896 23.5671 3.95962C23.774 3.87345 23.981 3.78728 24.1879 3.70112C24.8087 3.44261 25.0157 3.35645 25.4296 3.18411C25.3087 3.47694 26.3086 3.54559 25.8086 3.51126C26.7225 3.37325 27.4806 4.02755 27.9456 4.56136C29.8735 8.60837 31.8526 13.3615 34.0735 17.529L33.9874 17.3224C34.8828 18.8895 35.606 20.0433 36.3804 21.9032C37.1897 23.2636 38.1711 25.0374 38.8431 25.485C39.5315 27.1383 39.9966 27.6721 40.8058 29.0326C40.8407 28.5331 41.6151 30.393 41.5639 29.6869C41.3406 28.5674 41.1337 28.6536 40.9964 27.7408C39.4825 23.5214 38.0545 19.5087 36.5405 15.2894C35.215 12.689 33.9243 9.58911 32.8057 6.90255C32.4615 6.07591 32.2033 5.45593 31.8591 4.6293L31.3429 3.38935C31.0847 2.76937 30.7057 2.44222 30.2406 1.90841C28.4663 -0.0201703 25.8805 -0.39845 24.018 0.377055C23.6041 0.54939 23.3971 0.635558 22.9832 0.807892C22.7763 0.894059 22.4833 0.773568 22.0694 0.945902C19.586 1.97991 16.4818 3.27242 13.8775 4.59925C13.8775 4.59925 13.8775 4.59925 14.0845 4.51309C12.6358 5.11626 11.515 5.34043 10.0664 5.94361C10.0664 5.94361 9.85945 6.02977 9.6525 6.11594C9.6525 6.11594 7.58302 6.97761 5.59958 8.04595C4.97874 8.30445 4.56484 8.47678 4.03005 8.94194C3.8231 9.02811 3.61615 9.11428 3.20225 9.28661C2.78835 9.45895 2.58141 9.54511 2.46051 9.83794C1.51181 10.4754 1.06306 11.1473 0.942158 11.4401C0.735209 11.5262 0.821256 11.7329 0.700355 12.0257C0.130702 12.9904 -0.145956 14.0755 0.0773297 15.195C0.0424748 15.6945 0.300615 16.3144 0.386662 16.5211C0.558756 16.9344 0.730849 17.3477 0.609948 17.6406C1.09137 19.38 1.6937 20.8266 2.20998 22.0666C2.67507 22.6004 2.93321 23.2204 3.31225 23.5475C3.2774 24.047 3.77734 24.0813 3.74249 24.5808C3.93092 26.1997 4.48205 26.9402 4.34481 26.0274C4.8611 27.2674 5.29133 28.3007 5.72156 29.3339C5.89366 29.7473 6.06575 30.1606 6.53084 30.6944C6.70293 31.1077 6.78898 31.3144 6.66808 31.6072C7.09831 32.6405 7.01226 32.4338 7.23555 33.5533C7.11465 33.8461 8.76806 36.0675 8.7332 36.567L8.64715 36.3604C8.90529 36.9803 8.95649 37.6865 9.12858 38.0998C9.21463 38.3064 9.38672 38.7198 9.26582 39.0126C9.35187 39.2193 9.61001 39.8392 9.7821 40.2525C10.5053 41.4063 11.6425 42.3878 13.0214 42.7836C14.4003 43.1794 16.021 42.9895 17.0558 42.5587C18.7114 41.8693 20.5739 41.0938 22.0225 40.4907C21.9365 40.284 21.4017 40.7492 21.1087 40.6287C22.9712 39.8532 24.9198 39.2843 26.7824 38.5088C27.1963 38.3365 27.6962 38.3708 27.6962 38.3708C28.317 38.1123 28.1101 38.1985 28.524 38.0261L28.61 38.2328C29.1448 37.7676 29.7308 38.0086 30.1447 37.8363C30.1447 37.8363 30.3517 37.7501 30.5586 37.664C30.6447 37.8706 31.1795 37.4055 31.2655 37.6121C31.4725 37.526 31.4725 37.526 31.6794 37.4398C31.8864 37.3536 33.9046 35.7858 34.3185 35.6135L34.5255 35.5273C34.9394 35.355 34.8533 35.1483 34.6464 35.2345L35.0603 35.0621L35.4742 34.8898C35.4742 34.8898 35.6811 34.8036 35.5602 35.0965C35.7672 35.0103 35.9741 34.9241 36.388 34.7518C35.6811 34.8036 34.8533 35.1483 33.9395 35.2863C34.1465 35.2001 34.7673 34.9416 34.9742 34.8555C35.4742 34.8898 36.095 34.6313 36.7159 34.3728C36.9228 34.2866 36.8368 34.08 37.0437 33.9938C37.3367 34.1143 37.4576 33.8215 37.6646 33.7353C37.4576 33.8215 37.0437 33.9938 36.8368 34.08C36.9228 34.2866 37.5437 34.0281 37.7506 33.942C37.9576 33.8558 38.3715 33.6835 38.7854 33.5111C38.6645 33.8039 38.9923 33.425 39.2853 33.5454C39.4923 33.4593 39.6992 33.3731 39.4922 33.4593C39.4062 33.2526 38.5784 33.5973 38.7854 33.5111C38.7854 33.5111 39.4062 33.2526 39.6132 33.1665C39.6132 33.1665 39.4062 33.2526 39.5271 32.9598C39.7341 32.8736 40.148 32.7013 40.148 32.7013L39.941 32.7875C40.3549 32.6151 38.3366 34.1829 38.7505 34.0106C38.5436 34.0968 40.5618 32.529 40.3549 32.6151C40.148 32.7013 40.4758 32.3223 40.2689 32.4085L40.8036 31.9433C40.5967 32.0295 40.3037 31.909 40.3037 31.909C40.7176 31.7366 39.1132 33.1321 39.5271 32.9598L39.3202 33.046C39.5271 32.9598 39.855 32.5808 40.148 32.7013C40.148 32.7013 40.2689 32.4085 40.4758 32.3223C40.6827 32.2361 40.8897 32.15 40.8036 31.9433C39.562 32.4603 41.2012 30.5653 39.9595 31.0823C40.4595 31.1167 39.8386 31.3752 39.4247 31.5475C39.4247 31.5475 39.1317 31.427 38.7178 31.5994C38.3039 31.7717 38.5109 31.6855 38.5969 31.8922C38.39 31.9783 37.9761 32.1507 38.097 31.8579C37.9761 32.1507 37.6831 32.0302 37.2692 32.2025C37.0622 32.2887 37.2692 32.2025 37.1483 32.4953C36.7344 32.6677 36.1135 32.9262 35.9066 33.0124C35.6997 33.0985 35.4067 32.978 35.5276 32.6852C36.1484 32.4267 35.4067 32.978 36.0275 32.7195C35.7345 32.599 36.6483 32.461 36.5623 32.2544C36.2693 32.1339 35.8554 32.3062 35.5276 32.6852C35.1137 32.8575 34.4928 33.116 34.2859 33.2022C34.2859 33.2022 34.1998 32.9955 34.4068 32.9094L33.9929 33.0817C33.9929 33.0817 33.7859 33.1679 33.9929 33.0817C33.7859 33.1679 33.579 33.254 33.372 33.3402L31.2677 34.7014C31.0607 34.7875 30.7677 34.6671 30.6468 34.9599C30.6468 34.9599 33.4581 33.5469 33.0442 33.7192C32.8372 33.8054 29.6981 35.5974 29.4052 35.4769C29.1982 35.563 28.9913 35.6492 29.0773 35.8559C28.6634 36.0282 29.1982 35.563 28.7843 35.7354L28.4913 35.6149C27.9565 36.0801 27.0427 36.2181 26.5079 36.6832C26.7148 36.5971 26.8357 36.3042 27.1636 35.9252C27.1636 35.9252 27.5775 35.7529 27.4914 35.5462C27.0775 35.7186 26.8706 35.8047 26.4567 35.9771L26.2497 36.0632C26.0428 36.1494 26.0428 36.1494 26.2497 36.0632C25.9567 35.9428 24.8871 36.8731 23.9733 37.0111C23.7664 37.0973 23.9733 37.0111 23.7664 37.0973C23.1455 37.3558 22.4386 37.4076 21.8178 37.6661C21.6969 37.9589 21.6969 37.9589 21.9038 37.8728L21.283 38.1313C21.6108 37.7523 20.1622 38.3554 20.6109 37.6836C20.404 37.7698 20.197 37.856 19.7831 38.0283C19.7831 38.0283 19.8692 38.2349 19.4553 38.4073C18.8345 38.6658 19.0414 38.5796 18.5415 38.5453C18.3345 38.6315 18.4554 38.3386 18.4554 38.3386C17.9206 38.8038 17.7485 38.3905 17.1277 38.649C16.7138 38.8213 15.886 39.166 15.972 39.3726C15.1791 39.2178 15.3 38.925 15.3 38.925Z" fill="#FFBB00"/>
<path d="M9.09178 19.9289C8.88483 20.0151 8.67788 20.1013 8.17794 20.0669C9.05692 20.4284 10.1429 20.7037 9.95443 19.0848C10.2126 19.7047 11.0055 19.8596 10.9195 19.6529C11.0404 19.3601 11.0404 19.3601 11.1613 19.0672L11.0404 19.3601L11.1613 19.0672C11.7309 18.1026 12.9377 18.0851 13.8516 17.9471C14.5585 17.8952 16.0071 17.2921 16.5071 17.3264L16.714 17.2402C17.0931 17.5674 17.0931 17.5674 16.8001 17.4469C17.1279 17.0679 17.2488 16.7751 17.4558 16.6889C17.4558 16.6889 17.3697 16.4822 17.0767 16.3617L17.2837 16.2756C17.4046 15.9827 17.6115 15.8966 17.7324 15.6038C17.8185 15.8104 17.8185 15.8104 18.0254 15.7242C18.4393 15.5519 18.8532 15.3796 19.2671 15.2072C19.2671 15.2072 19.2671 15.2072 19.5601 15.3277L19.8879 14.9487C19.974 15.1554 20.1809 15.0692 20.1809 15.0692C20.3018 14.7764 20.5948 14.8969 20.8366 14.3112C21.6644 13.9666 22.4062 13.4152 23.2688 12.5711C23.3897 12.2783 23.6315 11.6926 24.1315 11.7269C24.2524 11.4341 24.5802 11.0551 24.6151 10.5556C24.822 10.4695 24.9429 10.1766 25.2708 9.79764C25.1847 9.59098 25.3917 9.50482 25.3056 9.29816C25.0126 9.17767 25.0987 9.38433 24.8057 9.26383C23.8058 9.19519 22.978 9.53985 22.2711 9.5917C21.7363 10.0569 21.2364 10.0225 20.6155 10.281C19.9947 10.5395 19.4599 11.0047 19.132 11.3837C18.9251 11.4699 18.839 11.2632 18.6321 11.3494C18.2182 11.5217 17.5974 11.7802 17.0626 12.2454C15.9069 12.969 15.6139 12.8485 15.407 12.9347C15.3209 12.728 14.0095 14.244 13.9235 14.0374C13.0957 14.382 12.3027 14.2272 11.8889 14.3995C11.6819 14.4857 11.7679 14.6924 11.647 14.9852C11.561 14.7785 11.647 14.9852 11.4401 15.0714C10.975 14.5376 10.9402 15.037 11.1471 14.9509C11.0262 15.2437 10.8193 15.3299 10.6123 15.416C10.6123 15.416 10.4054 15.5022 10.4914 15.7089C10.4914 15.7089 10.2845 15.795 10.1984 15.5884C9.99146 15.6745 9.99146 15.6745 9.69847 15.554C9.61242 15.3474 9.16367 16.0192 9.16367 16.0192C8.95672 16.1054 8.57768 15.7782 8.37073 15.8644C7.66384 15.9162 6.92209 16.4676 6.30125 16.7261C6.38729 16.9327 6.50819 16.6399 6.59424 16.8466C6.18034 17.0189 5.6804 16.9846 5.38741 16.8641L5.09441 16.7436C4.88746 16.8298 5.09441 16.7436 4.88746 16.8298L4.80142 16.6231C4.88746 16.8298 4.59447 16.7093 4.59447 16.7093C4.50842 16.5026 4.38752 16.7954 4.30147 16.5888C4.30147 16.5888 4.14572 17.3811 3.93877 17.4672L4.02481 17.6739L3.93877 17.4672C3.93877 17.4672 4.02481 17.6739 3.73182 17.5534C3.81787 17.7601 3.90391 17.9667 4.19691 18.0872L3.98996 18.1734C3.90391 17.9667 3.69696 18.0529 3.40397 17.9324L3.49002 18.1391C3.40397 17.9324 3.49002 18.1391 3.19702 18.0186L3.40397 17.9324C3.31792 17.7257 3.11097 17.8119 3.11097 17.8119L2.90403 17.8981C2.81798 17.6914 2.81798 17.6914 2.81798 17.6914C2.81798 17.6914 2.81798 17.6914 2.90403 17.8981C2.99007 18.1047 3.19702 18.0186 3.07612 18.3114L2.86917 18.3976C2.86917 18.3976 2.86917 18.3976 2.95522 18.6042L2.74827 18.6904C2.74827 18.6904 2.90403 17.8981 2.69708 17.9843L2.54132 18.7766L2.62737 18.9832L2.54132 18.7766L2.62737 18.9832L2.57618 18.2771C2.57618 18.2771 2.45527 18.5699 2.36923 18.3632L2.45527 18.5699C2.45527 18.5699 2.45527 18.5699 2.54132 18.7766C2.74827 18.6904 2.76461 19.896 2.97155 19.8099C2.88551 19.6032 2.88551 19.6032 3.09246 19.517C3.09246 19.517 3.1785 19.7237 3.38545 19.6375C3.38545 19.6375 3.38545 19.6375 3.2994 19.4309C3.2994 19.4309 3.50635 19.3447 3.38545 19.6375C3.2994 19.4309 3.38545 19.6375 3.5924 19.5514C3.5924 19.5514 3.5924 19.5514 3.50635 19.3447L3.7133 19.2585C3.79935 19.4652 3.79935 19.4652 3.88539 19.6718C3.67845 19.758 3.79935 19.4652 3.79935 19.4652C3.8854 19.6718 3.5924 19.5514 3.67845 19.758C3.76449 19.9647 3.97144 19.8785 3.88539 19.6718L4.09234 19.5857L4.17839 19.7923C4.17839 19.7923 4.17839 19.7923 4.38534 19.7062L4.62714 19.1205C4.62714 19.1205 4.71319 19.3272 4.83409 19.0344C4.83409 19.0344 4.38534 19.7062 4.50624 19.4133C4.50624 19.4133 4.95499 18.7415 5.04104 18.9482C5.04104 18.9482 5.04104 18.9482 4.95499 18.7415L5.04104 18.9482L5.12709 19.1548C5.24799 18.862 5.33403 19.0687 5.45493 18.7759C5.45493 18.7759 5.54098 18.9825 5.42008 19.2753C5.42008 19.2753 5.42008 19.2753 5.50613 19.482L5.71308 19.3958C5.71308 19.3958 5.71308 19.3958 5.79912 19.6025C5.88517 19.8091 5.92002 19.3097 6.21302 19.4302C6.50601 19.5506 6.50601 19.5506 6.71296 19.4645C6.62692 19.2578 6.62692 19.2578 6.62692 19.2578L6.83386 19.1716C7.00596 19.585 7.12686 19.2921 7.092 19.7916C7.092 19.7916 7.092 19.7916 7.29895 19.7055L7.21291 19.4988C7.5059 19.6193 7.21291 19.4988 7.5059 19.6193C7.59195 19.8259 7.59195 19.826 7.59195 19.826C8.50579 19.6879 8.67788 20.1013 8.67788 20.1013C8.67788 20.1013 8.88483 20.0151 8.79878 19.8084C9.00573 19.7223 9.00573 19.7223 9.09178 19.9289Z" fill="#FFBB00"/>
<path d="M12.9669 26.3178C12.76 26.404 12.553 26.4902 12.2601 26.3697C12.9321 26.8173 13.8111 27.1788 13.6226 25.5599C13.8808 26.1798 14.6737 26.3346 14.5877 26.128C14.5016 25.9213 14.7086 25.8352 14.6225 25.6285L14.5016 25.9213L14.6225 25.6285C14.9852 24.75 15.9851 24.8187 16.692 24.7668C17.192 24.8012 18.2267 24.3703 18.7266 24.4046L18.9336 24.3185C18.9336 24.3185 18.9336 24.3185 18.6406 24.198C19.2266 24.439 19.3475 24.1461 19.4684 23.8533C19.4684 23.8533 19.3823 23.6467 19.0893 23.5262L19.2963 23.44C19.5032 23.3538 19.7102 23.2677 19.8311 22.9748C19.9171 23.1815 19.9171 23.1815 20.1241 23.0953C20.331 23.0092 20.7449 22.8368 20.9519 22.7507C20.9519 22.7507 20.9519 22.7507 21.0379 22.9573L21.1588 22.6645C21.2449 22.8712 21.4518 22.785 21.2449 22.8712C21.3658 22.5783 21.6588 22.6988 21.6936 22.1993C22.3145 21.9408 23.0562 21.3895 23.505 20.7177C23.6259 20.4249 23.6607 19.9254 24.1607 19.9597C24.2816 19.6669 24.4025 19.374 24.2304 18.9607C24.4373 18.8746 24.5582 18.5817 24.6791 18.2889C24.5931 18.0822 24.8 17.9961 24.714 17.7894C24.421 17.6689 24.507 17.8756 24.421 17.6689C23.5072 17.8069 22.8003 17.8588 22.0934 17.9106C21.7655 18.2896 21.2656 18.2553 20.8517 18.4276C20.4378 18.6 19.903 19.0651 19.5751 19.4441L19.2821 19.3236C18.8682 19.496 18.4543 19.6683 18.1265 20.0473C17.9195 20.1335 17.6266 20.013 17.4196 20.0991C17.4196 20.0991 16.5221 21.4428 16.4361 21.2361C15.8152 21.4946 15.1432 21.047 14.7293 21.2193C14.8153 21.426 14.6084 21.5121 14.6944 21.7188C14.6084 21.5121 14.7805 21.9255 14.4875 21.805C14.1084 21.4778 14.1945 21.6845 14.2805 21.8911C14.0736 21.9773 13.8666 22.0635 13.8666 22.0635C13.8666 22.0635 13.6597 22.1496 13.7457 22.3563C13.7457 22.3563 13.7457 22.3563 13.4527 22.2358C13.2458 22.322 13.2458 22.322 13.1597 22.1153C13.0737 21.9086 12.9179 22.701 12.8319 22.4943C12.6249 22.5805 12.3319 22.46 12.0389 22.3395C11.539 22.3052 11.0042 22.7703 10.5903 22.9427C10.6764 23.1493 10.7973 22.8565 10.8833 23.0631C10.6764 23.1493 10.1764 23.115 9.88342 22.9945C9.67647 23.0807 9.67647 23.0807 9.67647 23.0807C9.67647 23.0807 9.67647 23.0807 9.46952 23.1668L9.38347 22.9602C9.46952 23.1668 9.09048 22.8397 9.09048 22.8397C9.00443 22.633 9.09048 22.8397 9.00443 22.633L8.84868 23.4253L8.93472 23.632L8.84868 23.4253C8.84868 23.4253 8.93472 23.632 8.64173 23.5115C8.72778 23.7182 8.93472 23.632 9.22772 23.7525L9.02077 23.8386C8.93472 23.632 8.72778 23.7182 8.64173 23.5115L8.72778 23.7182C8.64173 23.5115 8.72778 23.7182 8.64173 23.5115C8.64173 23.5115 8.64173 23.5115 8.84868 23.4253C8.76263 23.2187 8.55568 23.3048 8.55568 23.3048C8.55568 23.3048 8.55568 23.3048 8.34873 23.391C7.81393 23.8562 7.89998 24.0628 7.81393 23.8562C7.81393 23.8562 7.81393 23.8562 7.89998 24.0628C7.98603 24.2695 7.89998 24.0628 7.98603 24.2695C7.98603 24.2695 7.98603 24.2695 7.77908 24.3557C7.77908 24.3557 7.77908 24.3557 7.86513 24.5623C7.86513 24.5623 7.86513 24.5623 7.65818 24.6485C7.86513 24.5623 8.02088 23.77 7.81393 23.8562L7.86513 24.5623L7.95117 24.769L7.86513 24.5623L7.95117 24.769L7.89998 24.0628C7.89998 24.0628 7.77908 24.3557 7.69303 24.149L7.77908 24.3557C7.77908 24.3557 7.77908 24.3557 7.86513 24.5623C8.07208 24.4761 8.08841 25.6818 8.29536 25.5956C8.20931 25.3889 8.20931 25.3889 8.41626 25.3028L8.50231 25.5094C8.50231 25.5094 8.50231 25.5094 8.41626 25.3028C8.41626 25.3028 8.41626 25.3028 8.50231 25.5094C8.41626 25.3028 8.50231 25.5094 8.70926 25.4233C8.70926 25.4233 8.70926 25.4233 8.62321 25.2166L8.83016 25.1304C8.91621 25.3371 8.91621 25.3371 9.00225 25.5438L8.91621 25.3371C9.00225 25.5438 8.91621 25.3371 8.7953 25.6299C8.88135 25.8366 8.88135 25.8366 9.00225 25.5438L9.2092 25.4576L9.29525 25.6643L9.53705 25.0786C9.53705 25.0786 9.6231 25.2853 9.53705 25.0786C9.53705 25.0786 9.29525 25.6643 9.2092 25.4576C9.2092 25.4576 9.65795 24.7858 9.744 24.9924C9.744 24.9924 9.744 24.9924 9.65795 24.7858L9.744 24.9924L9.83005 25.1991C9.744 24.9924 10.037 25.1129 10.1579 24.8201C10.1579 24.8201 10.2439 25.0268 10.123 25.3196C10.123 25.3196 10.123 25.3196 10.2091 25.5262L10.416 25.4401C10.416 25.4401 10.416 25.4401 10.5021 25.6467C10.5881 25.8534 10.623 25.3539 10.916 25.4744C11.209 25.5949 11.209 25.5949 11.209 25.5949C11.1229 25.3882 11.1229 25.3882 11.1229 25.3882C11.295 25.8016 11.4159 25.5087 11.3811 26.0082C11.3811 26.0082 11.3811 26.0082 11.588 25.922L11.502 25.7154C11.588 25.922 11.502 25.7154 11.795 25.8359C11.881 26.0425 11.881 26.0425 11.881 26.0425C12.0019 25.7497 11.9671 26.2492 12.174 26.163C12.174 26.163 12.381 26.0769 12.2949 25.8702C12.8809 26.1112 12.9669 26.3178 12.9669 26.3178Z" fill="#FFBB00"/>
<path d="M14.4751 33.4482C14.2681 33.5343 14.2681 33.5343 13.9751 33.4138C14.6472 33.8615 15.3192 34.3091 14.9238 32.7764C15.182 33.3963 15.7679 33.6373 15.6819 33.4307C15.5959 33.224 15.8028 33.1378 15.7168 32.9312C15.7168 32.9312 15.8028 33.1378 15.5959 33.224C15.5959 33.224 15.5098 33.0173 15.7168 32.9312C15.8725 32.1389 16.6655 32.2937 17.1654 32.328C17.4584 32.4485 18.2862 32.1038 18.5792 32.2243C18.5792 32.2243 18.5792 32.2243 18.7861 32.1381C18.7861 32.1381 18.7861 32.1381 18.4931 32.0177C18.614 31.7248 18.7349 31.432 18.7349 31.432C18.7349 31.432 18.6489 31.2253 18.5628 31.0187C18.4768 30.812 18.6837 30.7259 18.8046 30.433C18.8907 30.6397 18.8907 30.6397 18.8907 30.6397C19.0976 30.5535 19.3046 30.4674 19.5115 30.3812C19.5115 30.3812 19.5115 30.3812 19.5976 30.5878L19.9766 30.915C20.0627 31.1217 20.2696 31.0355 20.1487 31.3283C20.1836 30.8288 20.4766 30.9493 20.3905 30.7427C20.8044 30.5703 21.1323 30.1913 21.6671 29.7262C21.788 29.4333 21.8228 28.9339 21.9089 29.1405C22.0298 28.8477 22.1507 28.5549 21.9786 28.1415C22.1855 28.0554 22.0995 27.8487 22.2204 27.5559C22.1343 27.3492 22.3413 27.2631 22.0483 27.1426C21.9622 26.9359 21.8413 27.2287 21.7553 27.0221C21.1693 26.7811 20.7554 26.9534 20.2555 26.9191C20.1346 27.2119 19.6346 27.1776 19.4277 27.2638C19.0138 27.4361 18.8929 27.7289 18.772 28.0218L18.479 27.9013C18.272 27.9874 17.8581 28.1598 17.7372 28.4526C17.5303 28.5388 17.4442 28.3321 17.2373 28.4183C17.1512 28.2116 16.6676 29.3829 16.5816 29.1763C16.2886 29.0558 15.7026 28.8148 15.4956 28.901C15.5817 29.1076 15.3747 29.1938 15.4608 29.4004C15.3747 29.1938 15.5468 29.6071 15.2538 29.4866C14.7888 28.9528 14.8748 29.1595 14.9609 29.3661C14.7539 29.4523 14.7539 29.4523 14.547 29.5385C14.547 29.5385 14.547 29.5385 14.4261 29.8313C14.4261 29.8313 14.4261 29.8313 14.34 29.6246C14.1331 29.7108 14.34 29.6246 14.047 29.5041C13.961 29.2975 13.9261 29.797 13.7192 29.8831C13.5122 29.9693 13.3401 29.556 13.1332 29.6421C12.6332 29.6078 12.3054 29.9868 12.0984 30.073C12.1845 30.2796 12.0984 30.073 12.1845 30.2796C11.9775 30.3658 11.6845 30.2453 11.3915 30.1248L11.3055 29.9182L11.2194 29.7115C11.3055 29.9182 11.1334 29.5048 10.9264 29.591C10.8404 29.3844 10.9264 29.591 10.8404 29.3844L10.8916 30.0905L10.9776 30.2972L10.8916 30.0905C10.8916 30.0905 10.9776 30.2972 10.8916 30.0905C10.9776 30.2972 11.1846 30.211 11.2706 30.4176C11.2706 30.4176 11.2706 30.4176 11.0637 30.5038C10.9776 30.2972 10.7707 30.3833 10.6846 30.1767L10.7707 30.3833C10.6846 30.1767 10.7707 30.3833 10.6846 30.1767C10.5986 29.97 10.5986 29.97 10.5986 29.97C10.5986 29.97 10.5986 29.97 10.3916 30.0562C10.3056 29.8495 10.3056 29.8495 10.3056 29.8495C10.3056 29.8495 10.3056 29.8495 10.3916 30.0562C10.4777 30.2628 10.4777 30.2628 10.5637 30.4695C10.5637 30.4695 10.5637 30.4695 10.6498 30.6762L10.5986 29.97L10.6498 30.6762L10.7358 30.8828L10.6498 30.6762L10.7358 30.8828L10.6846 30.1767C10.6846 30.1767 10.7707 30.3833 10.6846 30.1767L10.7707 30.3833C10.7707 30.3833 10.7707 30.3833 10.8567 30.59C11.0637 30.5038 11.287 31.6233 11.287 31.6233C11.2009 31.4166 11.2009 31.4166 11.2009 31.4166L11.287 31.6233C11.287 31.6233 11.287 31.6233 11.2009 31.4166C11.2009 31.4166 11.2009 31.4166 11.287 31.6233C11.2009 31.4166 11.287 31.6233 11.287 31.6233C11.287 31.6233 11.287 31.6233 11.2009 31.4166C11.2009 31.4166 11.2009 31.4166 11.4079 31.3305C11.4939 31.5371 11.4939 31.5371 11.58 31.7438L11.4939 31.5371C11.58 31.7438 11.4939 31.5371 11.58 31.7438C11.666 31.9504 11.666 31.9504 11.58 31.7438C11.58 31.7438 11.58 31.7438 11.7869 31.6576L11.873 31.8643L11.9078 31.3648C11.9078 31.3648 11.9939 31.5714 11.9078 31.3648C11.9078 31.3648 11.873 31.8643 11.7869 31.6576C11.873 31.8643 12.0287 31.0719 12.1148 31.2786C12.1148 31.2786 12.1148 31.2786 12.0287 31.0719L12.1148 31.2786L12.2008 31.4853C12.1148 31.2786 12.4078 31.3991 12.3217 31.1924C12.3217 31.1924 12.4078 31.3991 12.4938 31.6058C12.4938 31.6058 12.4938 31.6058 12.5799 31.8124C12.5799 31.8124 12.5799 31.8124 12.7868 31.7263C12.7868 31.7263 12.7868 31.7263 12.8729 31.9329C12.9589 32.1396 12.9938 31.6401 13.0798 31.8467C13.1658 32.0534 13.3728 31.9672 13.3728 31.9672C13.2867 31.7606 13.2867 31.7606 13.2867 31.7606C13.4588 32.1739 13.5797 31.8811 13.5449 32.3806L13.4588 32.1739C13.5449 32.3806 13.4588 32.1739 13.5449 32.3806C14.1821 33.3277 14.1821 33.3277 14.1821 33.3277C14.096 33.121 14.2681 33.5343 14.4751 33.4482C14.2681 33.5343 14.389 33.2415 14.389 33.2415L14.4751 33.4482Z" fill="#FFBB00"/>
</svg>
