<svg width="39" height="30" viewBox="0 0 39 30" fill="none" xmlns="http://www.w3.org/2000/svg">
<path d="M38.6405 25.0389C38.2184 24.6137 38.2184 24.0467 38.0073 23.5506C37.4444 22.2749 36.6704 21.2118 36.1778 19.9361C35.5445 19.0857 35.1223 18.0226 34.5594 17.1721C33.0114 14.7624 30.7598 12.9906 28.3674 11.3606C27.8045 11.0062 27.2415 10.6518 26.5379 10.581C25.3417 10.014 24.0752 9.65962 22.8086 9.37613C21.6828 9.16351 20.5569 8.80915 19.2904 8.88002C18.8682 8.88002 18.2349 8.95089 17.9535 8.38392C17.5313 7.60432 16.9684 7.03734 16.5462 6.32861C16.3351 5.90338 16.1944 5.40727 15.7018 5.19466C15.5611 5.12378 15.4204 5.05291 15.35 5.05291C14.9982 4.84029 14.6464 4.5568 14.2945 4.27331C14.1538 4.20244 14.0131 4.0607 13.8724 3.98982C13.7316 3.91895 13.5909 3.84808 13.3798 3.91895C12.9576 4.13157 13.0983 4.48593 13.0983 4.84029C13.0983 5.05291 13.028 5.19466 13.028 5.40727C13.028 5.40727 13.028 5.47815 13.028 5.54902C13.028 5.54902 13.028 5.54902 13.028 5.61989C13.0983 5.83251 13.2391 5.97425 13.3798 6.18687C13.9427 6.82472 14.576 7.46257 15.1389 8.10042C15.4907 8.52566 15.5611 8.88002 14.8574 9.09264C14.3649 9.23438 13.9427 9.37613 13.5205 9.58875C13.4502 9.58875 13.4502 9.65962 13.3798 9.65962L13.3094 9.73049C12.6058 10.1557 11.6911 10.2975 10.9874 10.7936C10.9874 10.7936 10.9171 10.7936 10.9171 10.8644V10.9353C10.9171 10.9353 10.9171 10.9353 10.9171 11.0062C10.9171 11.1479 11.1281 11.1479 11.1281 11.2897V11.3606C11.0578 11.3606 11.0578 11.4314 10.9874 11.4314C10.9874 11.4314 10.9171 11.5023 10.8467 11.5023C10.0023 11.4314 9.50977 11.8567 9.08758 12.4236C9.01722 12.4945 8.94686 12.5654 8.94686 12.6363C8.80613 12.9197 8.52467 13.2032 8.31358 13.4867C8.31358 13.5576 8.31358 13.6285 8.31358 13.6285C8.24321 13.6993 8.24322 13.7702 8.17285 13.8411C8.10249 13.912 8.10249 13.9828 8.10249 13.9828C8.03212 14.0537 8.03212 14.1246 7.96176 14.2663C7.89139 14.3372 7.82103 14.4789 7.75067 14.5498C7.75067 14.4789 7.75067 14.3372 7.75067 14.2663V14.1955C7.75067 14.1246 7.75067 14.0537 7.75067 14.0537V13.9828C7.75067 13.912 7.6803 13.7702 7.6803 13.6993C7.60994 13.5576 7.46921 13.4867 7.18775 13.6285C5.07683 15.9673 4.725 18.5895 6.13229 21.4244C6.34338 21.7788 6.76557 22.0623 6.97666 22.4167C7.75067 23.7632 8.94686 24.2593 10.3541 24.6137C11.6911 24.6137 13.028 24.472 14.2242 23.7632C15.2796 23.1962 15.7722 22.2749 16.4055 21.3536C16.4055 21.3536 16.4055 21.3536 16.4055 21.2827C16.6166 20.8575 16.898 20.4322 17.2498 20.0779C18.5164 18.6604 18.9386 17.0304 19.1497 15.2585C19.1497 14.9751 19.0793 14.6916 18.8682 14.6916C18.2349 14.6207 18.3053 14.3372 18.5164 14.1246C18.5868 14.0537 18.5868 13.9828 18.6571 13.912C18.7275 13.912 18.7275 13.8411 18.7978 13.8411C18.8682 13.8411 18.8682 13.8411 18.9386 13.7702C19.0089 13.7702 19.0793 13.6993 19.1497 13.6993C19.5719 13.4159 19.4311 12.9906 19.4311 12.5654C19.3608 12.0693 19.5719 11.7858 20.1348 11.8567C20.6977 11.9275 21.2606 11.8567 21.8235 11.9984C23.0901 12.5654 24.3566 13.0615 25.6232 13.5576C28.2266 14.6207 30.4079 16.3216 32.167 18.5187C32.3781 18.9439 32.8003 19.2274 32.941 19.7235C32.941 19.7235 32.941 19.7235 32.941 19.7944V19.8652C32.941 20.1487 33.1521 20.2905 33.2929 20.4322C34.4187 22.0623 35.4742 23.7632 36.1074 25.6059C36.3889 26.5273 36.6 27.5195 37.0925 28.3699C37.3036 28.9369 37.374 29.6456 37.9369 30C39.1331 28.3699 39.0627 26.7399 38.6405 25.0389ZM12.8169 20.5031C12.1132 21.0701 11.4096 21.3536 10.6356 21.0701C9.6505 20.7157 8.80613 20.007 8.6654 18.8022C8.52467 16.7469 9.29868 15.1168 10.8467 13.7702C12.1132 12.6363 13.6613 11.9984 15.4204 11.7858C15.6315 11.7858 15.9129 11.7858 16.0536 11.5732C16.6166 11.7149 16.898 11.9275 16.5462 12.5654C16.4055 12.778 16.4758 13.0615 16.4055 13.345C16.2647 14.5498 16.2647 15.6838 15.5611 16.7469C15.2796 17.243 14.9982 17.7391 14.7167 18.3061C14.0834 19.0148 13.5205 19.8652 12.8169 20.5031Z" fill="#FEBA3D"/>
<path d="M26.6077 10.5814C25.2708 10.2271 24.0746 9.6601 22.6673 9.44748C21.5415 9.30573 20.486 8.95137 19.3602 9.02224C17.9529 9.16399 17.5307 7.95916 16.9678 7.10869C16.5456 6.54171 16.2642 5.83298 15.7013 5.33688C15.2791 4.98252 14.8569 4.62815 14.3643 4.34466C14.1532 4.20292 14.0125 4.06117 13.9421 3.91943C13.8718 3.84856 13.8718 3.70681 13.8718 3.63594V3.56507C13.8718 3.49419 13.9421 3.42332 13.9421 3.42332C15.4902 4.13205 16.2642 5.54949 17.1789 6.89607C17.7418 7.67567 17.9529 8.8805 19.2195 8.80963C21.6118 8.73875 23.7931 9.44748 25.9744 10.2271C26.2559 10.2979 26.467 10.3688 26.6077 10.5814Z" fill="#FECB6B"/>
<path d="M9.93141 2.35935C9.93141 2.43022 9.93141 2.43022 9.93141 2.50109C9.93141 2.50109 9.93141 2.57196 9.86105 2.57196C9.29813 2.78458 8.80558 2.50109 8.45376 2.14673C7.3983 0.871026 5.92065 0.800154 4.443 0.729281C3.59863 0.729281 2.75426 0.941899 1.98026 1.15452C1.34698 1.29626 0.924794 1.65062 0.713702 2.2176C0.502609 2.71371 0.713702 3.20982 1.13589 3.42243C1.62844 3.70592 1.55807 3.13894 1.76916 2.92633C2.05062 2.64284 2.33208 2.43022 2.61354 2.85545C2.61354 2.85545 2.61354 2.92633 2.54317 2.92633C2.33208 3.28069 2.05062 3.42243 2.05062 3.84767C1.98026 4.34377 1.62844 4.55639 1.13589 4.2729C-0.412126 3.20982 -0.412126 1.93411 1.34698 0.729281C2.89499 0.233175 4.443 -0.0503151 6.06138 0.374919C6.20211 0.445792 6.27247 0.445792 6.4132 0.445792C6.6243 0.445792 6.90575 0.374919 7.11684 0.516664C7.18721 0.516664 7.18721 0.516664 7.25757 0.516664C7.53903 0.658409 7.75012 0.729281 8.03158 0.871026C8.03158 0.871026 8.03158 0.871026 8.10194 0.941899C8.45376 1.29626 8.87595 1.65062 9.29813 1.86324C9.29813 1.86324 9.3685 1.93411 9.43886 1.93411C9.50923 1.93411 9.50923 2.00498 9.57959 2.00498C9.72032 2.07586 9.86105 2.14673 9.93141 2.35935C9.93141 2.28847 9.93141 2.35935 9.93141 2.35935Z" fill="#FEBC43"/>
<path d="M10.0722 3.56497C9.86114 3.63585 9.72041 3.70672 9.57969 3.56497C8.31313 2.92712 6.90585 3.21061 5.56893 3.06887C4.58383 2.99799 3.59873 3.28148 2.61363 3.35236C2.12108 3.35236 2.19145 3.77759 2.12108 4.06108C1.90999 4.55719 1.62853 4.91155 1.13598 4.2737C1.55817 4.2737 1.90999 4.2737 1.90999 3.63585C1.90999 3.28148 2.12108 3.06887 2.54327 2.99799C3.10618 2.78538 3.73946 2.78538 4.30237 2.64363C5.07638 2.57276 5.78002 2.57276 6.55403 2.50189C6.76512 2.50189 6.97621 2.43102 7.25767 2.36014C7.32803 2.36014 7.32803 2.36014 7.3984 2.28927C7.46876 2.28927 7.53912 2.28927 7.53912 2.28927C8.1724 2.2184 8.80568 2.7145 9.43896 2.92712H9.50932C9.57969 2.92712 9.65005 2.99799 9.72041 2.99799C9.79078 3.06887 9.86114 3.06887 9.86114 3.13974C9.93151 3.13974 9.93151 3.21061 10.0019 3.28148C10.1426 3.35236 10.1426 3.42323 10.0722 3.56497Z" fill="#FED486"/>
<path d="M19.2174 15.0462C19.0063 17.385 17.9509 19.2985 16.4028 21.0703C16.3325 21.1412 16.3325 21.1412 16.2621 21.1412C16.2621 21.1412 16.1918 21.1412 16.1918 21.0703C16.3325 20.5033 16.6843 20.149 17.0361 19.7946C18.2323 18.448 18.6545 16.7471 18.936 15.0462C18.936 14.8335 18.936 14.6918 18.7249 14.6209C18.4434 14.4792 18.5138 14.8335 18.4434 14.9044C18.3027 14.8335 18.2323 14.9044 18.1619 14.9044C18.0212 14.9044 17.9509 14.7627 18.0212 14.6209C18.3027 14.1957 17.9509 13.6287 18.3027 13.2035C18.373 13.2744 18.4434 13.4161 18.5138 13.487L18.5841 13.5578C18.5841 13.6287 18.6545 13.6996 18.7249 13.7705C18.7952 13.8413 18.7952 13.9122 18.8656 13.9122C19.147 14.2666 19.4285 14.6209 19.2174 15.0462Z" fill="#FEBD45"/>
<path d="M15.14 9.0215C14.6475 9.16324 14.0845 9.37586 13.592 9.58848C13.5216 9.65935 13.4513 9.65935 13.3105 9.65935C13.3105 9.65935 13.2402 9.65935 13.2402 9.58848C13.592 9.09237 14.2253 9.16324 14.7178 8.95063C15.6326 8.59626 15.2807 8.17103 14.8586 7.81667C14.2956 7.24969 13.592 6.82445 12.9587 6.32835C12.818 6.25747 12.7476 6.11573 12.6773 6.04486C12.6069 5.76137 12.3958 5.54875 12.3958 5.26526L12.4662 5.19439C12.5365 5.12351 12.6069 5.12351 12.6069 5.12351C12.7476 5.12351 12.818 5.26526 12.9587 5.33613C12.9587 5.33613 12.9587 5.33613 13.0291 5.33613C13.0995 5.407 13.0995 5.47788 13.1698 5.47788C14.0142 6.25747 14.6475 7.17882 15.3511 8.02928C15.7733 8.52539 15.7733 8.80888 15.14 9.0215Z" fill="#FED487"/>
<path d="M21.6129 11.6442C20.9092 11.7859 19.9241 11.2898 19.502 11.8568C19.1501 12.282 19.4316 13.2742 19.3612 13.983C19.3612 14.3373 19.4316 14.7626 19.1501 15.0461C19.1501 14.6208 19.0094 14.3373 18.5872 14.1247C18.5169 13.983 18.4465 13.7704 18.5169 13.6286C18.5169 13.5577 18.5872 13.4869 18.5872 13.416C18.6576 13.3451 18.6576 13.2742 18.728 13.2034C19.0798 12.849 19.0798 12.4238 19.0798 11.9985C19.0798 11.5024 19.2909 11.2189 19.7834 11.2898C20.4871 11.3607 21.1203 11.3607 21.6129 11.6442Z" fill="#FED07C"/>
<path d="M38.6382 25.0384C38.0049 24.6841 38.0753 23.9754 37.7938 23.4792C37.3013 22.5579 36.9494 21.6366 36.3865 20.7152C36.2458 20.4317 36.1754 20.2191 36.1754 19.8648C37.1605 21.5657 38.0753 23.1958 38.6382 25.0384Z" fill="#FED27D"/>
<path d="M10.2818 24.4006C9.15593 24.3297 8.10047 23.9754 7.39683 23.054C6.97464 22.4162 6.34136 21.9909 6.05991 21.2822C6.271 21.4948 6.55246 21.6366 6.69318 21.8492C7.53755 23.1249 8.80411 23.9045 10.2818 24.4006Z" fill="#FECA6B"/>
<path d="M12.8853 3.56508C12.8149 3.63595 12.8149 3.63595 12.8149 3.63595C12.1817 3.70682 11.6187 3.4942 11.1262 3.13984L11.0558 3.06897V2.9981V2.92722C11.0558 2.92722 11.0558 2.85635 11.1262 2.85635C11.1966 2.78548 11.3373 2.71461 11.4077 2.71461C11.5484 2.71461 11.6187 2.64373 11.7595 2.64373H11.8298C11.9706 2.57286 11.9706 2.43112 12.0409 2.36024C12.3927 2.43112 12.8149 2.43112 12.9557 2.92722C12.9557 3.06897 13.0964 3.35246 12.8853 3.56508Z" fill="#FEC65D"/>
<path d="M11.1273 11.4314C10.9866 11.5023 10.8459 11.7858 10.7051 11.7149C9.72003 11.2897 9.50894 12.2819 9.01639 12.7071C8.94602 12.6363 8.94602 12.6363 8.94602 12.5654C8.87566 12.3528 9.08675 12.211 9.15712 11.9984C9.64967 11.4314 10.2126 10.8645 10.9162 10.581C10.9866 10.581 10.9866 10.6518 10.9866 10.6518C10.9866 10.6518 10.9866 10.6518 10.9866 10.7227V10.7936L10.9162 10.8645V10.9353C10.9162 11.0062 10.9162 11.0771 10.9866 11.0771C10.9866 11.0771 11.057 11.1479 11.057 11.2188V11.2897C11.057 11.3606 11.057 11.4314 11.1273 11.4314Z" fill="#FECB6E"/>
<path d="M6.06238 0.375348C4.444 0.0918588 2.89599 0.517093 1.34798 0.729711C2.82563 -0.049886 4.444 -0.262503 6.06238 0.375348Z" fill="#FEE2AC"/>
<path d="M16.4034 20.9995C15.8405 21.9917 15.348 23.1256 14.1518 23.48C14.9962 22.7713 15.6294 21.9208 16.2627 20.9995C16.3331 20.9995 16.3331 20.9995 16.3331 20.9995H16.4034Z" fill="#FECF7B"/>
<path d="M13.5913 9.51835C12.8173 10.1562 11.8322 10.2271 10.9878 10.7232C10.9878 10.7232 10.9878 10.7232 10.9878 10.6523C10.9878 10.5814 10.9878 10.5814 10.9878 10.5106C11.6915 9.94359 12.5358 9.80184 13.3098 9.44748H13.3802C13.4506 9.51835 13.5209 9.51835 13.5913 9.51835Z" fill="#FEC151"/>
<path d="M12.0422 2.64325C11.8311 2.71412 11.62 2.71412 11.4793 2.64325C11.2682 2.57238 11.0571 2.50151 10.9164 2.43064C10.9164 2.43064 10.9164 2.43064 10.846 2.43064C10.846 2.43064 10.846 2.43064 10.7757 2.43064C10.6349 2.28889 10.4238 2.21802 10.4238 2.0054V1.93453C10.4942 1.86366 10.5646 1.79278 10.6349 1.79278C10.7053 1.72191 10.846 1.72191 10.9164 1.72191C11.1978 1.72191 11.4089 2.0054 11.6904 2.0054C11.8311 2.07627 11.9015 2.21802 12.0422 2.28889C12.0422 2.43064 12.1829 2.50151 12.0422 2.64325Z" fill="#FEC355"/>
<path d="M13.9409 3.35197C13.9409 3.42284 13.9409 3.49371 13.9409 3.56458H13.8705C13.6595 3.63546 13.4484 3.63546 13.2373 3.70633C13.0965 3.7772 12.8854 3.7772 12.9558 3.56458C12.9558 3.56458 12.9558 3.56459 12.9558 3.49371C13.0262 3.2811 12.7447 2.99761 12.9558 2.78499C13.3076 2.92673 13.6595 2.99761 13.9409 3.35197Z" fill="#FEBC43"/>
<path d="M32.8719 19.4398H32.8015H32.7311C32.5201 19.0145 32.0275 18.731 32.0275 18.2349C32.309 18.5893 32.8015 18.8019 32.8719 19.4398Z" fill="#FECC6F"/>
<path d="M7.6788 14.1246C7.60844 14.1246 7.60844 14.1246 7.6788 14.1246C7.60844 14.1954 7.53808 14.1954 7.46771 14.1246C7.39735 13.8411 7.53808 13.4867 7.11589 13.4158C7.18625 13.1324 7.39735 13.0615 7.6788 13.0615C7.8899 13.345 7.74917 13.5576 7.6788 13.8411C7.60844 13.912 7.60844 14.0537 7.6788 14.1246Z" fill="#FED78F"/>
<path d="M10.9871 1.58016C10.9871 1.58016 10.9168 1.65103 10.8464 1.65103C10.776 1.7219 10.6353 1.7219 10.565 1.7219C10.4242 1.7219 10.3539 1.79278 10.2835 1.93452C9.93167 2.00539 9.79094 1.79278 9.65022 1.65103L9.57985 1.58016C9.57985 1.58016 9.57985 1.58016 9.65022 1.50929C9.86131 1.29667 10.0724 1.43841 10.3539 1.36754C10.4946 1.43841 10.776 1.36754 10.9871 1.58016Z" fill="#FEE0A8"/>
<path d="M11.6191 1.93428C11.1969 2.00515 10.7748 1.50904 10.3526 1.93428H10.2822H10.2118C10.2822 1.43817 10.634 1.65079 10.9155 1.57991C11.1969 1.65079 11.4784 1.65079 11.6191 1.93428Z" fill="#FED27F"/>
<path d="M7.11537 0.516832C6.76355 0.516832 6.34136 0.658577 6.05991 0.375087C6.41173 0.375087 6.76355 0.233342 7.11537 0.516832Z" fill="#FEE2AC"/>
<path d="M12.8886 3.56475C12.9589 3.63563 13.0997 3.7065 13.17 3.63563C13.3811 2.9269 13.6626 3.42301 13.944 3.56475C14.0848 4.2026 14.6477 4.27348 15.0699 4.62784C15.2809 4.84046 15.492 5.05307 15.7031 5.33656C14.9995 5.12395 14.5069 4.55697 13.944 4.2026C13.8033 4.13173 13.6626 3.91912 13.5218 4.06086C13.2404 4.13173 13.2404 4.27348 13.3811 4.48609C13.5218 4.84046 13.3107 5.12395 13.2404 5.47831C13.17 5.47831 13.0997 5.47831 13.0997 5.47831C12.9589 5.19482 12.6071 5.05307 12.4664 4.76958C12.8182 4.13173 12.2553 4.34435 11.9738 4.2026C11.6924 4.06086 11.4109 3.91912 11.1295 3.7065C10.7073 3.49388 10.2147 3.35214 9.72218 3.21039C9.0889 2.78516 8.45562 2.57254 7.75198 2.35992C7.61125 2.28905 7.47052 2.21818 7.32979 2.28905C6.41506 2.99777 5.28923 2.57254 4.30413 2.85603C3.74122 2.99777 3.17831 3.21039 2.54503 2.99777C1.91175 2.57254 1.84139 3.21039 1.70066 3.56475C1.63029 3.98999 1.55993 4.06086 1.13774 3.84824C0.22301 3.35214 0.0119178 2.1473 1.06738 1.29684C2.4043 0.304622 6.69652 0.0920049 8.1038 1.43858C8.38526 1.72207 8.66671 2.07643 9.0889 2.28905C9.37036 2.43079 9.65181 2.50167 9.93327 2.50167C10.074 2.50167 10.2147 2.50167 10.3555 2.57254C10.6369 2.71428 10.9184 2.78516 11.1295 2.99777C11.6924 3.21039 12.3257 3.35214 12.8886 3.56475Z" fill="#FEBB3E"/>
<path d="M17.0394 11.9272C16.758 14.1951 16.4765 16.5339 14.7878 18.3057C15.0692 17.8096 15.2803 17.2426 15.6321 16.7465C16.2654 15.6834 16.3358 14.4786 16.4765 13.3446C16.4765 13.0611 16.4765 12.8485 16.6172 12.565C16.9691 11.9981 16.6876 11.7146 16.1247 11.5728C16.5469 11.1476 17.0394 11.7146 17.0394 11.9272Z" fill="#FEC968"/>
<path d="M9.8599 22.9836C9.78953 23.338 9.57844 23.338 9.36735 23.2671C9.08589 23.2671 8.80443 23.1253 8.8748 22.8419C8.94516 22.4875 9.29698 22.771 9.50808 22.6292C9.78953 22.5584 9.93026 22.771 9.8599 22.9836Z" fill="#FEC55A"/>
<path d="M7.46714 14.1246C7.53751 14.1246 7.60787 14.1246 7.67824 14.1246C7.95969 14.1955 8.10042 13.8411 8.38188 13.7702C8.31151 14.2663 7.95969 14.5498 7.60787 14.9751C7.39678 14.6916 7.46714 14.4081 7.46714 14.1246Z" fill="#FEC964"/>
<path d="M18.8683 13.2739C18.7979 13.5573 18.7275 13.8408 18.7275 14.1243C18.4461 13.9117 18.3757 13.5573 18.3757 13.2739C18.5164 13.2739 18.6572 13.2739 18.8683 13.2739Z" fill="#FEC253"/>
<path d="M10.7771 11.1477C10.566 10.9351 10.7771 10.8642 10.9179 10.7933C11.0586 10.8642 11.2697 10.9351 11.4104 11.0768C11.5511 11.2186 11.6215 11.4312 11.2697 11.2894C11.129 11.2186 10.9179 11.3603 10.7771 11.1477Z" fill="#FEC151"/>
<path d="M7.81988 22.629C7.89024 22.2037 8.10134 22.2037 8.38279 22.4163C8.31243 22.8416 8.03097 22.6998 7.81988 22.629Z" fill="#FED890"/>
<path d="M7.81988 22.6295C8.03097 22.6295 8.24206 22.6295 8.38279 22.4169C8.52352 22.4878 8.66425 22.6295 8.52352 22.7004C8.31243 22.8421 8.03097 22.8421 7.81988 22.6295Z" fill="#FECE73"/>
<path d="M10.7758 11.1476C10.9869 11.1476 11.198 11.0767 11.2684 11.2893C11.198 11.3602 11.1277 11.4311 11.0573 11.4311C10.9166 11.5019 10.7758 11.3602 10.7758 11.1476Z" fill="#FEDB9C"/>
<path d="M9.93185 2.28862C10.2133 2.35949 10.4948 2.43037 10.8466 2.43037C10.9169 2.50124 10.8466 2.57211 10.8466 2.64298C10.7059 2.71386 10.4948 2.71386 10.354 2.57211C10.2133 2.57211 10.0726 2.57211 10.0022 2.43037C9.93185 2.43037 9.93185 2.35949 9.93185 2.28862Z" fill="#FED27F"/>
<path d="M4.30393 2.8559C4.65575 2.50154 5.07794 2.71416 5.42976 2.71416C5.92231 2.64329 6.41486 2.78503 6.83704 2.28893C7.04814 2.00544 7.47032 2.21805 7.82214 2.28893C8.52578 2.50154 9.22943 2.64329 9.72198 3.28114C8.31469 2.28893 6.76668 2.8559 5.21867 2.8559C4.93721 2.8559 4.65575 2.8559 4.30393 2.8559Z" fill="#FEBC43"/>
<path d="M9.71985 3.20973C10.2828 3.20973 10.7753 3.2806 11.2679 3.56409C11.1271 3.91846 10.8457 3.84758 10.4939 3.77671C10.3531 3.70584 10.142 3.63497 10.0013 3.56409C9.93094 3.42235 9.86058 3.2806 9.71985 3.20973Z" fill="#FEBC43"/>
<path d="M10.5638 3.77672C10.8453 3.70585 11.0564 3.63497 11.3378 3.5641C11.4786 3.84759 11.76 3.91846 12.0415 4.06021C12.3229 4.20195 12.4637 4.48544 12.534 4.76893C12.6748 4.98155 13.0969 5.05242 13.0266 5.47766C12.8155 5.33591 12.6748 5.26504 12.4637 5.12329C11.9008 4.76893 11.6193 4.13108 10.9157 4.06021C10.8453 3.98934 10.7046 3.84759 10.5638 3.77672Z" fill="#FEC356"/>
<path d="M10.7764 2.64299C10.9171 2.71386 10.9875 2.78474 11.1282 2.78474C11.1282 2.85561 11.1282 2.92648 11.1282 2.99735C10.7764 2.99735 10.4949 2.92648 10.2838 2.64299C10.4246 2.64299 10.6357 2.64299 10.7764 2.64299Z" fill="#FEBC43"/>
<path d="M12.5364 4.76985C12.3956 4.55724 12.1845 4.27375 12.0438 4.06113C12.1142 4.06113 12.1845 4.06113 12.1845 4.06113C12.466 4.34462 12.8178 3.63589 13.0289 4.06113C13.1696 4.48636 12.466 4.34462 12.5364 4.76985Z" fill="#FEBC43"/>
</svg>
