<svg width="39" height="38" viewBox="0 0 39 38" fill="none" xmlns="http://www.w3.org/2000/svg">
<path d="M3.80211 17.1822L3.91443 16.7747C3.5213 18.201 3.60055 19.5383 3.67981 20.8756C3.86482 19.3919 4.04984 17.9082 4.44297 16.4819C4.83609 15.0555 4.96495 13.7756 4.88569 12.4383C5.62234 12.2028 7.33681 10.0445 7.33681 10.0445C7.50529 9.43316 7.82572 9.083 8.20231 8.52906C7.88188 8.87923 7.82572 9.083 7.50529 9.43317C7.82572 9.083 7.93804 8.67547 8.25847 8.3253C10.4057 5.40922 14.7298 3.53161 19.1728 3.65995C20.2695 3.74298 22.671 3.96639 24.6959 4.74373C26.7208 5.52108 28.5773 6.90971 29.4493 7.8078C29.6013 8.06892 30.0175 8.18364 30.1695 8.44476C29.8656 7.92251 29.8094 8.12628 29.2974 7.54668C30.6418 8.35571 31.5139 9.25379 32.3298 10.3556C32.386 10.1519 32.4421 9.94811 32.1382 9.42587C32.234 9.89075 32.4421 9.94811 32.5941 10.2092C32.8022 10.2666 33.3142 10.8462 33.6742 11.1647C33.9781 11.6869 34.3382 12.0054 34.4901 12.2665C34.282 12.2092 34.5859 12.7314 34.6817 13.1963L34.7379 12.9925C35.3853 14.7057 35.9765 16.6226 35.9435 18.3674C35.8873 18.5712 35.8312 18.7749 35.8312 18.7749C35.9269 19.2398 35.9666 19.9085 35.8542 20.316C35.6461 20.2586 35.5173 21.5386 35.4777 20.8699C35.6131 22.0035 35.068 23.1687 34.9953 24.2449C33.7201 28.059 30.9882 31.4717 27.2884 33.5214L27.4966 33.5787C26.1752 34.3108 25.062 35.1001 23.1725 35.4563C21.9073 35.9846 20.0178 36.3408 19.4892 36.6336C18.6006 36.6079 18.1283 36.697 17.4478 36.7287C16.7673 36.7604 16.3511 36.6456 15.4625 36.62C15.8225 36.9385 13.9495 36.4222 14.5177 36.7981C15.5021 37.2886 15.5583 37.0849 16.5426 37.5754C20.761 38.5188 25.6367 37.8895 29.6007 35.6934C32.0915 33.9682 34.6945 31.8355 36.3132 29.2122C37.9881 26.3852 38.999 22.7174 38.6885 19.7817C38.6489 19.1131 38.7612 18.7055 38.9297 18.0942C38.7712 15.4196 37.8926 12.1081 36.3169 9.70061C35.5572 8.395 34.9494 7.35051 33.9254 6.19131C33.9254 6.19131 33.7173 6.13395 33.5092 6.07659C33.5653 5.87283 31.765 4.28043 29.7963 3.29932C27.6756 2.05709 25.3302 1.62991 25.1783 1.36879C24.9702 1.31143 24.9702 1.31143 24.762 1.25408C21.6966 0.18994 18.2545 -0.320261 15.4203 0.214027C14.8917 0.506839 14.3632 0.799651 13.8346 1.09246C13.3623 1.18151 13.3061 1.38527 12.7776 1.67809C11.0004 1.62675 10.3595 2.32709 11.0962 2.09164C10.0391 2.67726 8.982 3.26288 8.13304 3.90587C7.81261 4.25604 7.49218 4.60621 6.96364 4.89902C6.64321 5.24919 6.4351 5.19183 6.17083 5.33824C5.47381 6.24234 5.58613 5.83481 4.88911 6.73892C4.41673 6.82797 3.32659 9.15842 3.06232 9.30482L3.11848 9.10106C2.57341 10.2663 1.72444 10.9093 1.33131 12.3356C0.617758 14.1121 0.32042 16.0034 0.0230833 17.8946C-0.0661459 19.8432 0.108894 21.6454 0.548204 23.3012C0.756313 23.3585 0.300469 22.5752 0.564738 22.4288C0.947887 24.2883 1.27488 26.3516 2.33851 28.1795C2.4343 28.6443 2.58625 28.9055 2.73819 29.1666C3.04209 29.6888 3.09825 29.4851 3.19404 29.95L3.13788 30.1537C3.64988 30.7333 3.53756 31.1409 4.10573 31.5167C4.10573 31.5167 4.25767 31.7778 4.46578 31.8352C4.40962 32.0389 4.97779 32.4148 4.76968 32.3574C4.97779 32.4148 4.92163 32.6185 5.12974 32.6759C5.28168 32.937 7.6105 34.2366 7.81861 34.294L8.02672 34.3513C8.38678 34.6698 8.65105 34.5234 8.44294 34.466L8.80299 34.7845L9.16305 35.103C9.16305 35.103 9.315 35.3641 9.10689 35.3068C9.315 35.3641 9.73122 35.4788 9.88316 35.74C9.315 35.3641 8.65105 34.5234 8.13904 33.9438C8.34715 34.0012 8.85915 34.5808 9.06726 34.6381C9.42732 34.9566 9.93932 35.5362 10.5075 35.912C10.7156 35.9694 10.7718 35.7656 11.1318 36.0841C11.2838 36.3452 11.548 36.1988 11.7 36.4599C11.4919 36.4026 11.0757 36.2879 10.9237 36.0268C10.8675 36.2305 11.4919 36.4026 11.8519 36.7211C12.06 36.7784 12.4201 37.0969 12.8363 37.2116C12.572 37.358 12.9883 37.4727 13.1964 37.5301C13.4045 37.5875 13.6126 37.6448 13.6126 37.6448C13.6687 37.4411 12.6282 37.1543 13.1006 37.0652C13.1006 37.0652 13.7249 37.2373 13.933 37.2947C13.933 37.2947 13.7249 37.2373 13.9892 37.0909C14.1973 37.1482 14.6135 37.263 14.8216 37.3203L14.6135 37.263C15.0297 37.3777 12.3639 37.3007 12.8363 37.2116C12.8363 37.2116 15.2378 37.435 14.8216 37.3203C14.6135 37.263 15.0859 37.1739 14.8778 37.1166L14.6135 37.263C14.1973 37.1482 14.2534 36.9445 14.2534 36.9445C14.8778 37.1166 12.4201 37.0969 13.1006 37.0652L12.8925 37.0079C13.1006 37.0652 13.7249 37.2373 13.7249 37.2373C13.7249 37.2373 13.9892 37.0909 14.1973 37.1482C14.4054 37.2056 14.8216 37.3203 14.6697 37.0592C13.421 36.7151 15.7267 36.4736 14.5342 35.9257C14.8943 36.2441 14.27 36.0721 13.8538 35.9574C13.8538 35.9574 13.7018 35.6962 13.2856 35.5815C12.8694 35.4668 13.0775 35.5242 13.0775 35.5242C12.6613 35.4094 12.3012 35.091 12.3012 35.091C12.0931 35.0336 11.9412 34.7725 11.733 34.7151C11.5249 34.6578 11.733 34.7151 11.5249 34.6578C11.1087 34.543 10.5406 34.1672 10.3886 33.9061C10.4448 33.7023 10.0847 33.3838 10.5009 33.4986C11.0691 33.8744 10.2367 33.645 10.8048 34.0208C10.6529 33.7597 11.4292 34.1929 11.4292 34.1929C11.2772 33.9318 10.861 33.817 10.6529 33.7597C10.4448 33.7023 9.87661 33.3265 9.72466 33.0654C9.72466 33.0654 9.78082 32.8616 9.98893 32.919L9.62887 32.6005C9.62887 32.6005 9.42076 32.5431 9.62887 32.6005C9.42076 32.5431 9.26881 32.282 9.26881 32.282L7.35621 31.0971C7.20426 30.836 7.20426 30.836 6.84421 30.5175C6.84421 30.5175 7.35621 31.0971 7.92438 31.473C8.49254 31.8488 9.0607 32.2246 8.8526 32.1673C8.70065 31.9062 6.06793 30.0843 6.12409 29.8806C5.97214 29.6194 5.76404 29.5621 5.76404 29.5621C5.61209 29.301 5.97214 29.6194 5.8202 29.3583L5.5163 28.8361C4.94813 28.4602 4.75656 27.5305 4.1884 27.1546C4.3965 27.212 4.60461 27.2693 4.96467 27.5878C4.96467 27.5878 5.11662 27.8489 5.32473 27.9063C5.17278 27.6452 5.02083 27.3841 4.66077 27.0656L4.71693 26.8618C4.7731 26.658 4.77309 26.658 4.77309 26.658C4.88542 26.2505 3.95719 25.5562 3.91757 24.8875C3.76562 24.6264 3.91757 24.8875 3.76562 24.6264C3.51788 23.9004 3.63021 23.4929 3.38247 22.7669C3.23052 22.5058 3.23052 22.5058 3.1182 22.9133C3.17436 22.7095 2.96625 22.6522 3.02241 22.4484C3.38247 22.7669 3.09511 21.3722 3.60711 21.9518C3.66327 21.7481 3.51133 21.4869 3.56749 21.2832C3.56749 21.2832 3.35938 21.2258 3.26359 20.7609C3.37591 20.3534 3.37591 20.3534 3.28013 19.8885C3.33629 19.6847 3.48823 19.9459 3.48823 19.9459C3.2405 19.2199 3.65672 19.3346 3.56093 18.8697C3.46514 18.4048 3.42552 17.7362 3.42552 17.7362C3.594 17.1249 3.594 17.1249 3.80211 17.1822Z" fill="#29B68D"/>
<path d="M19.6227 29.6542C19.5665 29.8579 19.5665 29.8579 19.3022 30.0043C20.4551 29.8836 21.3999 29.7055 19.4311 28.7244C20.4716 29.0112 21.2083 28.7757 20.7921 28.661C20.584 28.6037 20.432 28.3425 20.432 28.3425L20.584 28.6037C20.3759 28.5463 20.432 28.3425 20.432 28.3425C19.7119 27.7056 20.2966 27.209 20.8813 26.7124C21.2017 26.3623 21.6345 25.6046 22.1069 25.5155C22.1069 25.5155 22.1069 25.5155 22.3711 25.3691C22.3711 25.3691 22.3711 25.3691 22.1069 25.5155C21.9549 25.2544 21.5949 24.9359 21.4429 24.6748C21.2348 24.6174 21.2348 24.6174 20.7624 24.7065L20.9705 24.7638C20.5543 24.6491 20.6105 24.4454 20.4585 24.1842C20.6666 24.2416 20.6666 24.2416 20.9309 24.0952L20.7228 24.0378C20.779 23.8341 20.8351 23.6303 20.8913 23.4265C20.8913 23.4265 20.8913 23.4265 21.0994 23.4839L20.9474 23.2228C21.3636 23.3375 21.2117 23.0764 21.3636 23.3375C21.0036 23.019 21.2117 23.0764 20.8516 22.7579C20.964 22.3504 20.9243 21.6817 20.4685 20.8983L20.2604 20.841C20.1084 20.5799 19.4841 20.4078 19.8045 20.0576C19.3883 19.9429 19.2364 19.6818 18.6682 19.3059C18.7244 19.1022 18.3082 18.9875 18.1562 18.7263C17.74 18.6116 17.7962 18.4079 17.5319 18.5543C16.9076 18.3822 17.3238 18.4969 16.8514 18.5859L17.0595 18.6433C16.531 18.9361 16.0024 19.2289 15.6258 19.7829C15.7216 20.2478 15.4574 20.3942 15.5531 20.859C15.6489 21.3239 15.7447 21.7888 15.8967 22.0499C15.8967 22.0499 15.6324 22.1963 15.4243 22.139C15.5762 22.4001 15.2558 22.7503 15.3516 23.2152C15.2954 23.4189 15.0873 23.3616 15.0312 23.5653C15.0312 23.5653 15.0312 23.5653 15.2393 23.6227C14.8231 23.508 15.7909 24.8709 15.5828 24.8136C15.5266 25.0174 14.3738 25.1381 14.5257 25.3992C14.7338 25.4566 14.8858 25.7177 15.0939 25.775C14.8858 25.7177 15.302 25.8324 15.2458 26.0362C14.3572 26.0105 14.7735 26.1252 14.9816 26.1826C15.1335 26.4437 14.9254 26.3863 14.8692 26.5901L15.0212 26.8512C15.0212 26.8512 15.0212 26.8512 14.8131 26.7939C14.965 27.055 14.8131 26.7939 14.5488 26.9403C14.1326 26.8256 14.9089 27.2588 14.9089 27.2588C14.8527 27.4625 14.2284 27.2904 14.1722 27.4942C13.8518 27.8444 13.9476 28.3093 13.8353 28.7168C14.2515 28.8315 13.8353 28.7168 14.2515 28.8315C14.1953 29.0353 13.7229 29.1243 13.6668 29.3281C13.6668 29.3281 13.4587 29.2707 13.1944 29.4171C12.9863 29.3598 13.4025 29.4745 13.4025 29.4745L13.1944 29.4171C13.4025 29.4745 12.722 29.5062 12.9301 29.5635C13.1382 29.6209 13.1382 29.6209 13.1382 29.6209C12.9301 29.5635 13.1382 29.6209 12.9301 29.5635C13.1382 29.6209 13.9145 30.0541 13.8583 30.2579L14.0665 30.3152L13.8583 30.2579C14.0665 30.3152 14.0665 30.3152 14.0665 30.3152C14.2746 30.3726 14.5388 30.2262 14.9551 30.3409C15.1632 30.3982 14.9551 30.3409 14.8989 30.5447C14.6908 30.4873 14.4265 30.6337 14.4265 30.6337C14.4265 30.6337 14.8427 30.7484 14.6346 30.6911C14.4265 30.6337 14.6346 30.6911 14.4265 30.6337C14.2184 30.5763 14.4265 30.6337 14.4265 30.6337C14.2184 30.5763 14.2184 30.5763 14.1622 30.7801C14.1622 30.7801 14.1622 30.7801 14.1061 30.9839C13.898 30.9265 13.898 30.9265 13.6899 30.8692C13.6899 30.8692 13.6899 30.8692 13.898 30.9265C14.1061 30.9839 14.1622 30.7801 14.3142 31.0412C14.1061 30.9839 14.3142 31.0412 14.3142 31.0412C14.5223 31.0986 14.5223 31.0986 14.5223 31.0986C14.5223 31.0986 14.7304 31.1559 14.5223 31.0986L13.5379 30.608C13.746 30.6654 14.5223 31.0986 14.5223 31.0986C14.5223 31.0986 14.7304 31.1559 14.9385 31.2133L14.7304 31.1559L15.1466 31.2707C15.1466 31.2707 14.1622 30.7801 14.3704 30.8375C14.5785 30.8948 14.5785 30.8948 14.3704 30.8375C14.5785 30.8948 14.5785 30.8948 14.5785 30.8948C14.5785 30.8948 14.5785 30.8948 14.7866 30.9522C14.8427 30.7484 16.4514 31.411 16.4514 31.411C16.0352 31.2963 16.0352 31.2963 16.0352 31.2963C16.2433 31.3537 16.2433 31.3537 16.4514 31.411L16.2433 31.3537C16.2433 31.3537 16.4514 31.411 16.6595 31.4684C16.4514 31.411 16.8677 31.5258 16.6595 31.4684C16.6595 31.4684 16.6595 31.4684 16.4514 31.411L16.5076 31.2073C16.7157 31.2646 16.9238 31.322 17.34 31.4367L16.9238 31.322C17.34 31.4367 17.1319 31.3794 17.34 31.4367C17.5481 31.4941 17.5481 31.4941 17.6043 31.2903C17.6043 31.2903 17.4524 31.0292 17.6605 31.0865C17.8686 31.1439 17.8686 31.1439 17.8686 31.1439C17.8686 31.1439 17.8686 31.1439 17.6605 31.0865C17.4524 31.0292 17.6605 31.0865 17.6605 31.0865C17.8686 31.1439 17.0923 30.7107 17.0923 30.7107C17.0923 30.7107 17.3004 30.7681 17.0923 30.7107C16.8842 30.6533 17.3962 31.2329 17.4524 31.0292C17.6605 31.0865 16.7322 30.3922 17.1485 30.5069C17.1485 30.5069 17.1485 30.5069 16.9403 30.4496C16.9403 30.4496 17.1485 30.5069 17.3566 30.5643L17.5647 30.6217C17.3566 30.5643 17.6208 30.4179 17.4127 30.3605C17.6208 30.4179 17.8289 30.4752 18.0371 30.5326C18.0371 30.5326 18.0371 30.5326 18.2452 30.59C18.2452 30.59 18.2452 30.59 18.3013 30.3862C18.3013 30.3862 18.3013 30.3862 18.5094 30.4436L18.7175 30.5009C19.1338 30.6156 18.5656 30.2398 18.7737 30.2972C18.7737 30.2972 18.7737 30.2972 18.5656 30.2398C18.7737 30.2972 18.8299 30.0934 19.038 30.1507C18.8299 30.0934 18.8299 30.0934 18.6218 30.036C19.038 30.1507 19.0941 29.947 19.6623 30.3228C19.8704 30.3802 19.8704 30.3802 19.6623 30.3228C19.4542 30.2655 19.2461 30.2081 19.2461 30.2081C19.4542 30.2655 19.4542 30.2655 19.4542 30.2655C19.6623 30.3228 19.6623 30.3228 19.8704 30.3802C18.9422 29.6859 19.5665 29.8579 19.6227 29.6542C19.3584 29.8006 19.4146 29.5968 19.2065 29.5395C19.2065 29.5395 19.4146 29.5968 19.6227 29.6542Z" fill="#29B68D"/>
<path d="M23.1024 17.0208C23.9348 17.2502 24.8234 17.2759 22.7423 16.7023C23.7829 16.9891 24.4634 16.9574 24.0472 16.8427C23.839 16.7853 23.6309 16.728 23.6309 16.728L23.839 16.7853C23.6309 16.728 23.6309 16.728 23.6309 16.728C22.8547 16.2948 23.327 16.2057 23.7994 16.1167C24.0075 16.174 24.328 15.8239 24.7442 15.9386C24.7442 15.9386 24.7442 15.9386 24.9523 15.996C24.9523 15.996 24.9523 15.9959 24.7442 15.9386C24.5361 15.8812 24.176 15.5628 23.9679 15.5054C23.7598 15.448 23.7598 15.448 23.3436 15.3333L23.5517 15.3907C23.1355 15.276 23.1355 15.276 22.9835 15.0148C23.1916 15.0722 23.1916 15.0722 23.3997 15.1296L23.1916 15.0722L23.2478 14.8684C23.2478 14.8684 23.2478 14.8684 23.4559 14.9258L23.2478 14.8684C23.664 14.9832 23.4559 14.9258 23.664 14.9832C23.2478 14.8684 23.4559 14.9258 23.0958 14.6073C22.9439 14.3462 22.7919 14.0851 22.4319 13.7666L22.2238 13.7092C22.0157 13.6519 21.3913 13.4798 21.5994 13.5372C21.2394 13.2187 21.0313 13.1613 20.407 12.9892C20.407 12.9892 19.9907 12.8745 19.8388 12.6134C19.4226 12.4987 19.4226 12.4987 19.2145 12.4413C18.7983 12.3266 19.2145 12.4413 18.7983 12.3266L19.0064 12.384C18.3259 12.4157 17.8535 12.5047 17.5892 12.6511C17.7412 12.9122 17.5331 12.8549 17.685 13.116C17.837 13.3771 18.0451 13.4345 18.197 13.6956C18.197 13.6956 17.9889 13.6382 17.7808 13.5809C17.9889 13.6382 17.7246 13.7847 17.8766 14.0458C17.8766 14.0458 17.6685 13.9884 17.6123 14.1922C17.6123 14.1922 17.6123 14.1922 17.8204 14.2495C17.4604 13.9311 18.861 14.5363 18.4448 14.4216C18.3886 14.6254 17.348 14.3386 17.5 14.5997C17.7081 14.6571 17.9162 14.7144 18.1243 14.7718C17.9162 14.7144 18.3324 14.8291 18.1243 14.7718C17.2919 14.5424 17.7081 14.6571 17.9162 14.7144C18.1243 14.7718 17.9162 14.7144 17.8601 14.9182L18.0682 14.9755C18.0682 14.9755 18.0682 14.9755 17.8601 14.9182C18.0682 14.9755 17.8601 14.9182 17.6519 14.8608C17.3877 15.0072 18.2201 15.2367 18.2201 15.2367C18.2201 15.2367 17.5958 15.0646 17.5396 15.2684C17.2754 15.4148 17.4835 15.4721 17.4273 15.6759C17.8435 15.7906 17.4273 15.6759 17.8435 15.7906L17.3711 15.8797C17.3711 15.8797 17.163 15.8223 16.9549 15.7649C16.7468 15.7076 17.163 15.8223 17.163 15.8223L16.9549 15.7649C17.163 15.8223 16.5387 15.6502 16.7468 15.7076C16.9549 15.7649 16.9549 15.7649 16.9549 15.7649C16.7468 15.7076 16.9549 15.7649 16.7468 15.7076C16.9549 15.7649 17.7874 15.9944 17.7312 16.1981L17.9393 16.2555L17.7312 16.1981C17.9393 16.2555 17.9393 16.2555 17.9393 16.2555C18.1474 16.3128 18.3555 16.3702 18.7717 16.4849C18.9798 16.5423 18.7717 16.4849 18.7717 16.4849C18.5636 16.4276 18.3555 16.3702 18.3555 16.3702C18.3555 16.3702 18.7717 16.4849 18.5636 16.4276C18.3555 16.3702 18.5636 16.4276 18.3555 16.3702C18.1474 16.3128 18.3555 16.3702 18.3555 16.3702C18.1474 16.3128 18.1474 16.3128 18.1474 16.3128C17.9393 16.2555 17.9393 16.2555 17.7312 16.1981C17.7312 16.1981 17.7312 16.1981 17.9393 16.2555C18.1474 16.3128 18.1474 16.3128 18.3555 16.3702C18.1474 16.3128 18.3555 16.3702 18.3555 16.3702C18.5636 16.4276 18.5636 16.4276 18.5636 16.4276C18.5636 16.4276 18.7717 16.4849 18.5636 16.4276L17.5231 16.1408C17.7312 16.1981 18.5636 16.4276 18.5636 16.4276C18.5636 16.4276 18.7717 16.4849 18.9798 16.5423L18.7717 16.4849L19.188 16.5996C19.188 16.5996 18.1474 16.3128 18.3555 16.3702C18.5636 16.4276 18.5636 16.4276 18.3555 16.3702C18.5636 16.4276 18.5636 16.4276 18.5636 16.4276C18.5636 16.4276 18.5636 16.4276 18.7717 16.4849L20.4366 16.9438C20.0204 16.8291 20.0204 16.8291 20.0204 16.8291C20.2285 16.8864 20.2285 16.8864 20.4366 16.9438L20.2285 16.8864C20.2285 16.8864 20.4366 16.9438 20.6447 17.0011C20.4366 16.9438 20.8528 17.0585 20.6447 17.0011C20.6447 17.0011 20.6447 17.0011 20.4366 16.9438C20.6447 17.0011 20.8528 17.0585 21.269 17.1732L20.8528 17.0585C21.269 17.1732 21.0609 17.1159 21.269 17.1732C21.4772 17.2306 21.4772 17.2306 21.4772 17.2306C21.4772 17.2306 21.269 17.1732 21.4772 17.2306C21.6853 17.2879 21.6853 17.2879 21.6853 17.2879C21.6853 17.2879 21.6853 17.2879 21.4772 17.2306C21.269 17.1732 21.4772 17.2306 21.4772 17.2306C21.6853 17.2879 20.8528 17.0585 20.8528 17.0585C20.8528 17.0585 21.0609 17.1159 20.8528 17.0585C20.6447 17.0011 21.2129 17.377 21.269 17.1732C21.4772 17.2306 20.4928 16.74 20.909 16.8547C20.909 16.8547 20.909 16.8547 20.7009 16.7974C20.7009 16.7974 20.909 16.8547 21.1171 16.9121L21.3252 16.9695C21.1171 16.9121 21.3252 16.9695 21.1171 16.9121C21.3252 16.9695 21.5333 17.0268 21.7414 17.0842C21.7414 17.0842 21.7414 17.0842 21.9495 17.1415C21.9495 17.1415 21.9495 17.1415 22.1576 17.1989L22.3657 17.2562C22.782 17.371 22.1576 17.1989 22.3657 17.2562C22.3657 17.2562 22.3657 17.2562 22.1576 17.1989C22.3657 17.2562 22.3657 17.2562 22.5739 17.3136C22.3657 17.2562 22.3657 17.2562 22.1576 17.1989C22.5739 17.3136 22.5739 17.3136 23.1982 17.4857C23.4063 17.543 23.4063 17.543 23.1982 17.4857C22.9901 17.4283 22.782 17.371 22.782 17.371C22.9901 17.4283 22.9901 17.4283 22.9901 17.4283C23.1982 17.4857 23.1982 17.4857 23.4063 17.543C22.4781 16.8487 23.1024 17.0208 23.1024 17.0208C22.8943 16.9634 22.8943 16.9634 22.6862 16.9061C22.6862 16.9061 22.8943 16.9634 23.1024 17.0208Z" fill="#29B68D"/>
</svg>
