<svg xmlns="http://www.w3.org/2000/svg" width="146" height="146" viewBox="0 0 146 146"><defs><style>.a,.d,.e,.f,.g{fill:#0265ff;}.a{opacity:0.3;}.b{fill:#fff;}.c{fill:#eef5ff;}.d{opacity:0.1;}.e{opacity:0.2;}.g{opacity:0.35;}.h{fill:#07d879;}</style></defs><title>Artboard 5 copy</title><rect class="a" x="18.95" y="37.97" width="126.14" height="85.43" rx="2.89" ry="2.89"/><rect class="b" x="13.96" y="33.76" width="126.14" height="85.43" rx="2.89" ry="2.89"/><rect class="c" x="0.92" y="22.61" width="134.51" height="91.9" rx="3.1" ry="3.1"/><path class="d" d="M4,22.61H132.36a3.06,3.06,0,0,1,3.06,3.06v6a0,0,0,0,1,0,0H.92a0,0,0,0,1,0,0v-6A3.06,3.06,0,0,1,4,22.61Z"/><circle class="e" cx="7.5" cy="27.28" r="2.07"/><circle class="e" cx="13.48" cy="27.28" r="2.07"/><circle class="e" cx="19.46" cy="27.28" r="2.07"/><path class="f" d="M.92,31.67H9.56a0,0,0,0,1,0,0v82.84a0,0,0,0,1,0,0H4a3.1,3.1,0,0,1-3.1-3.1V31.67a0,0,0,0,1,0,0Z"/><rect class="g" x="13.48" y="38.27" width="35.55" height="2.92" rx="1.46" ry="1.46"/><rect class="g" x="21.52" y="43.72" width="35.55" height="2.92" rx="1.46" ry="1.46"/><rect class="g" x="13.48" y="49.18" width="61.55" height="2.92" rx="1.46" ry="1.46"/><rect class="g" x="13.48" y="54.64" width="61.55" height="2.92" rx="1.46" ry="1.46"/><rect class="g" x="21.36" y="60.09" width="61.55" height="2.92" rx="1.46" ry="1.46"/><rect class="g" x="13.48" y="65.55" width="61.55" height="2.92" rx="1.46" ry="1.46"/><rect class="g" x="27.01" y="71" width="61.55" height="2.92" rx="1.46" ry="1.46"/><rect class="g" x="52.72" y="38.27" width="35.55" height="2.92" rx="1.46" ry="1.46"/><rect class="g" x="60.77" y="43.72" width="35.55" height="2.92" rx="1.46" ry="1.46"/><rect class="g" x="77.65" y="49.18" width="24.26" height="2.92" rx="0.92" ry="0.92"/><rect class="g" x="77.65" y="54.64" width="24.26" height="2.92" rx="0.92" ry="0.92"/><rect class="g" x="85.43" y="60.09" width="24.26" height="2.92" rx="0.92" ry="0.92"/><rect class="g" x="77.65" y="65.55" width="24.26" height="2.92" rx="0.92" ry="0.92"/><rect class="g" x="90.78" y="71" width="24.26" height="2.92" rx="0.92" ry="0.92"/><path class="f" d="M116.59,93.64a1.23,1.23,0,0,1,.3,1.5,1.29,1.29,0,0,1-1.28.87h-8.29l4.36,10.33a1.3,1.3,0,0,1,0,1.06,1.36,1.36,0,0,1-.73.76l-3.85,1.63a1.3,1.3,0,0,1-1.06,0,1.38,1.38,0,0,1-.76-.74l-4.14-9.81L94.36,106a1.34,1.34,0,0,1-1,.41,1.44,1.44,0,0,1-.53-.11A1.3,1.3,0,0,1,92,105V72.39a1.31,1.31,0,0,1,.86-1.28,1.44,1.44,0,0,1,.53-.11,1.26,1.26,0,0,1,1,.42Z"/><path class="h" d="M14.93,88.19a1.22,1.22,0,0,0-.3,1.49,1.29,1.29,0,0,0,1.28.87H24.2l-4.36,10.33a1.33,1.33,0,0,0,0,1.07,1.39,1.39,0,0,0,.73.76l3.85,1.63a1.39,1.39,0,0,0,1.06,0,1.41,1.41,0,0,0,.76-.74l4.14-9.81,6.78,6.77a1.34,1.34,0,0,0,1,.41,1.19,1.19,0,0,0,.52-.11,1.29,1.29,0,0,0,.87-1.28V66.94a1.29,1.29,0,0,0-.87-1.28,1.19,1.19,0,0,0-.52-.11,1.29,1.29,0,0,0-1,.41Z"/></svg>