<svg xmlns="http://www.w3.org/2000/svg" width="89" height="92" fill="none" viewBox="0 0 89 92">
    <path fill="#FE9147" d="M1.003 61.006L0 60.003V59c.1-.2.3-.4.602-.2.2.2.2.702.3.602.402-.201.803-.301.803.3 0 .602.1 1.204-.702 1.304z"/>
    <path fill="#FE9F5F" d="M28.79 91.8c0 .1 0 .1-.1.2h-1.205v-.3c.502-.302.903-.402 1.304.1z"/>
    <path fill="#FE7213" d="M1.005 61.008c.4-.401.501-.903.501-1.504-.401 0-.401.602-.903.501-.2-.401-.1-.802-.1-1.304 0-.501.602-.802.401-1.404 0-.3.402-.502.1-.802-.601-.602 0-1.003.302-1.304 1.504-1.806 3.21-3.611 4.914-5.116 1.304-1.103 2.508-2.407 3.712-3.61.3-.302.702-.603 1.003-.904.4-.2.702-.501 1.003-.802.702-.2 1.304-.702 1.705-1.304 1.304-1.705 3.11-3.009 4.614-4.614.2-.501.702-.702 1.003-1.103.1-.1.2-.2.401-.301-.2 0-.3.2-.401.3-.301.402-.803.603-1.304.703-3.01 1.705-6.119 3.51-9.128 5.216-1.103.602-2.307 1.203-3.61.401-.101-.301 0-.702-.302-.702-1.504-.301-1.805-1.705-2.407-2.809-.702-.602-.2-.902.301-1.304.2-.601.502-1.103 1.103-1.303.1-.201.301-.502.402-.803l.3-.602c.502-.602.903-1.304 1.605-1.605.201-.1.301-.2.502-.3.903-.402 1.705-.903 2.808-.703.803.1 1.505-.702 2.207-1.203.401-.401 1.003-.602 1.304-1.204.1-.1.2-.3.3-.3.603-.302.904-.803 1.104-1.405 0-.1.1-.2.2-.301.502-.602 1.004-1.204 1.806-1.304 1.204.502 1.404-.802 2.107-1.103-.602.1-1.104.601-1.706.702-.802 0-1.002-.401-.501-.903.802-.802 1.204-1.705 2.106-2.407.301-.2.502-.502.903-.502 1.103.1.803-1.103 1.404-1.504l.602-.602c.301-.2.602-.502.702-.903.301-.401.803-.602 1.204-.902.3-.201.602-.402.802-.803.402-.502 1.104-.802 1.605-1.605-.802-.1-1.404.1-2.006.401-.2.1-.401.301-.702.502-.2.1-.401.2-.602.2-.2-.1-.3-.2-.3-.4 0-.402.2-.602.5-.903.302-.301.703-.703 1.004-1.104.3-.3.501-.602.802-.802 1.404-1.705 3.31-2.809 5.015-3.812-1.604.803-3.109 2.107-4.714 3.31-.602.602-1.404 1.003-2.006 1.505-.3.3-.702.501-1.003.802-.2.2-.502.401-.802.502-.502-.1-.903.2-1.304.602-.1.1-.2.1-.301.2-.2.1-.401.301-.602.502-.1.1-.2.2-.401.3-.402.201-.702.703-1.304.703-.301-.1-.301-.301-.301-.602.501-.802 1.203-1.505 1.906-2.006.3-.2.3-.401.3-.602.201-.3.402-.702.703-.903.2-.1.4-.2.702-.3 1.203-.903 2.407-1.906 3.711-2.608 1.003-.502 1.906-1.104 2.909-1.605 1.003-.502 2.006-1.003 2.808-1.806.2-.1.402-.3.602-.401l.602-.3c.702 0 1.404-.603 2.207-1.004.602-.3 1.203-.702 1.805-.903.602.1 1.003 0 1.505-.3.602-.502 1.203-.803 1.905-.803 1.906-.2 3.11-1.505 4.514-2.608.502-.401 1.204-.401 1.705-.903-.802.1-1.404.301-1.805 1.003-1.505.803-3.01 1.505-4.614 1.806-.903.501-2.006.702-2.809 1.404-.602.602-1.504.702-2.206 1.103-.702.301-1.204.703-1.906 1.004-.401 0-.803-.201-.702-.703 3.31-2.307 6.62-4.614 10.331-6.218C43.232.927 45.639-.177 48.448.024c.2.401.502.602.803.702.702.2.902.602 1.003 1.304.4.401.3.903.601 1.304.402.602.702 1.304-.3 1.805-.402.2-.703.602-.201 1.104 0 .3.3.501.2.802-.4 1.003-1.103 1.906-1.805 2.708.2.301.401 0 .502 0 2.006-.702 3.911-1.605 5.917-2.106.502 0 1.003-.301 1.204.3 0 .101 0 .101.1.201.2.201.401.502.502.703 1.103-.201 2.006.4 3.009.802 0 .702.3 1.404-.2 2.006-.201.1-.101.401-.302.502-.4.4 0 1.003-.2 1.404.1.3.1.602.2.802 0 .1 0 .2.1.301.201.702-.3 1.003-.701 1.304-.602.301-1.204.602-1.706 1.103-1.404 1.204-2.608 2.709-3.911 3.912-.602.602-1.304 1.204-2.006 1.705-.301.201-.502.502-.803.703.602-.201 1.003-.602 1.404-1.104 2.006-1.504 4.213-2.608 6.32-3.811 1.103-.602 2.306-1.304 3.51-1.706.301 0 .502-.1.702-.3.301-.1.602-.201.803-.1.3 0 .702-.101 1.003-.201 1.103-.201 1.504-1.003 2.006-1.806 1.605-1.605 3.71-1.906 5.817-2.207.602.201-.602.803.2 1.004 1.004-.301 1.505.1 1.706 1.103 0 .3 0 .602-.1.802.401 0 .2-.4.401-.501.1-.1.1-.2.2-.301.1-.1.302-.2.502-.1.1.2.2.501.301.702.3.601.502 1.203 0 1.805-.401.401-.3.803 0 1.204-.2.401-.3.702-.501 1.103.1.1.3.1.4.1 2.007-1.404 4.314-1.905 6.52-2.808 1.003-.401 2.007-.702 2.709.602.4.702 1.303.702 1.905 1.404.301.401.502.702.502 1.204.1.2.1.501 0 .702-.1.2-.2.3-.401.401-1.806 0-3.21.903-4.614 1.805-.602.402-1.304.703-2.006.903-.402.1-.803.2-1.003-.1-.301-.401.2-.602.3-.803.201-.2.402-.4.402-.802-.602.401-1.204 1.103-1.806-.1-.2-.402-.501-.1-.802 0-.502.2-1.003.501-1.605.702-.702.2-1.103.903-1.805 1.103-.402.1-.803.502-1.204.502.401.1.903-.602 1.204.1 0 .502-.402.702-.803.903-1.304 1.003-2.708 1.905-4.112 2.808-.301.2-.602.502-.903.803-.702.602-1.404 1.003-2.307.702-.702-.2-1.103.2-1.605.501-.401.2-.602.402-.802.803-.1.1-.2.2-.402.3-1.404 0-1.805 1.104-2.607 2.007-.502.602-1.204.802-1.806 1.203-.3.1-.602.301-.802.502-.301.3-.602.501-.903.802-1.906 1.104-3.711 2.307-5.316 3.712-2.809 1.805-5.316 4.112-7.924 6.218-.401.301-.802.602-1.304.803-.802.2-1.404.602-1.906 1.203-.602.803-1.605.903-2.307 1.605-.1.1-.2.301-.3.401-1.204 1.003-2.308 2.007-3.511 2.809-1.404 1.203-3.01 2.207-4.213 3.61-1.404 1.606-3.51 2.308-5.216 3.411-1.003.602-1.905 1.404-2.909 2.106-.501.301-1.003.703-1.303 1.204-.1.1-.201.301-.301.401-.301.502-1.003.803-.402 1.605.1.2-.1.502-.3.803l-.301.3c.3.1.4-.2.601-.2.301-.301.502-.702.903-1.003.2-.1.401-.2.702-.2.301.1.301.3.301.601-.401 1.304-1.003 2.407-2.006 3.41-1.103 1.304-2.708 2.207-3.811 3.712-.402.501-.903 1.003-1.505 1.304-.3.2-.502.4-.802.501-.803.301-1.505.903-2.107 1.505-.401.4-.902.802-1.404 1.103-.602-.1-1.204.602-1.805-.2-.1-.201-.402-.301-.502-.602-.3-.402-.702-.1-1.003 0-.903.2-1.304-.1-1.805-.903-1.706-2.307-.502-4.213.501-6.018 1.003-2.006 2.508-3.712 4.112-5.316.703-.703 1.505-1.405 2.107-2.207 0-.401.2-.602.501-.803.201-.4.402-.702.602-1.003.502-.4.803-1.003 1.605-.902.502.4.903.3 1.304-.1 1.003-.803 1.906-1.706 2.708-2.709.702-1.003 1.705-1.504 2.608-2.206.401-.301.702-.502 1.003-.903.2-.2.502-.502.802-.702.201-.1.402-.2.502-.502-.1.301-.401.401-.502.502-.3.2-.601.501-.902.802-.301.301-.502.702-1.003.401-.2-.501.2-.702.3-1.103.1-.3.302-.502-.2-.502-.2 0-.502 0-.702-.2v-.301c.1-.2.2-.301.401-.401-.2.1-.401.2-.501.401-.402.401-.903.702-1.304 1.103-1.806 1.404-3.712 2.809-5.517 4.213-.401.2-.802.3-1.204-.1-.3-.803.201-1.304.602-1.806.2-.3.401-.602.702-.802.702-.602 1.204-1.404 2.107-1.705.2 0 .4.3.702.1 1.003-1.003 2.006-2.106 3.11-2.909.601-1.203 1.805-1.805 2.808-2.708.602-.602 1.304-1.204 1.705-1.906.3-.3.602-.602.802-1.003.2-.3.401-.501.702-.702.301-.2.602-.501.903-.702.502-.401 1.103-.602.903-1.404.501-.803 1.404-1.104 2.106-1.605 1.806-1.103 3.31-2.407 4.714-3.912.1-.1.301-.2.402-.401 1.203-.803 2.206-1.806 3.11-3.01.1-.1.2-.2.4-.3.502-.301.803-.803 1.003-1.304.1-.1.2-.1.301-.2.803-.201 1.304-.903 2.006-1.204 1.705-1.405 3.31-2.809 4.514-4.715.702-1.103 1.906-1.705 2.708-2.708.2-.1.502 0 .702-.2.301-.201.502-.502.702-.803.301-.401.602-.802.502-1.304v-.702c0-1.504-.602-2.106-2.106-2.006-1.906.1-3.712.803-5.517 1.605-.301.2-.702.3-1.003.501-.2.1-.2.1-.1.301.1.401-.1.602-.402.702-2.808.703-4.814 3.01-7.623 3.511-.602.1-1.103.602-1.605 1.003-.601.502-1.203 1.003-1.905 1.404-.703.402-1.405.803-1.605 1.706-.2.802-1.104 1.003-1.705 1.504-.201.1-.402.2-.502.401.2-.2.401-.3.602-.501 1.003-.702 1.906-1.405 2.909-2.107 2.106-1.203 4.212-2.307 6.218-3.71 1.104-.803 2.408-1.104 3.611-1.606 2.007-.902 4.013-1.905 6.119-2.608.702-.2 1.605-.702 2.106-.1.502.702-.501 1.304-.902 1.806-1.405 1.604-3.01 2.908-4.514 4.413-2.909 2.909-6.32 5.316-9.228 8.325-2.006 2.207-4.213 4.514-7.021 5.918-.1.1-.301.2-.401.3-1.806 2.408-4.313 4.113-6.42 6.22-2.207 2.106-4.213 4.413-6.018 6.82-.2.301-.502.502-.702.602-.401.2-.803.502-1.104.803-1.303 1.504-2.507 3.009-3.61 4.613-.803 1.104-.803 2.307 0 3.11.1.1.1.2 0 .3-1.104.703-2.207 1.104-3.511.803-.502-.802-1.605-.602-2.608-.802-.2-.1-.401-.1-.501-.2z"/>
    <path fill="#FE7213" d="M28.786 91.802c-.401 0-.903 0-1.304-.1-.2-.1-.3-.2-.501-.3-.502-.101-.903-.703-1.505-.502-1.003.2-1.705-.402-2.006-1.204-.3-1.003-1.204-1.806-.702-3.01.401-.3.1-1.002.702-1.103 2.708.1 4.815-1.303 6.82-3.009.402-.501.803-1.003.803-1.705-.3 0-.602.2-.903.2-.501-.1-.702.302-1.003.502-.501.301-.902.703-1.304 1.003-.4.301.201.301.1.502-.701 1.003-3.41 2.407-4.513 2.407-.401-.802.1-1.605.2-2.407.1-.502.302-.903.703-1.204.702-.1.401.401.401.702.702-.2.802-.902 1.304-1.304.1-.1 0-.1 0-.1-.502-.3-.502-.3-.401-1.003.1-.2.3-.3.4-.501 1.606-.502 2.81-1.605 3.411-3.11.301-.602.903-1.103 1.505-1.504-1.104.1-1.906.702-2.809 1.103-.3.1-.501.3-.501.602-.903.702-2.006.3-2.909.501-.602.301-1.103 1.003-1.705 0 .1-1.203 1.003-2.006 1.705-2.808.702-.903 1.605-1.806 2.508-2.508.702-.401 1.303-1.103 1.905-1.605.803-.802 1.304-1.805 2.107-2.608.501-.4 1.103-.702 1.404-1.404.702-1.003 1.605-1.705 2.508-2.407 2.407-1.705 4.613-3.51 6.82-5.517 1.806-1.705 3.711-3.31 5.717-4.814.703-.602 1.405-1.405 2.307-1.705.803.1 1.003-.502 1.304-1.003.602-.803 1.605-1.003 2.307-1.605 2.408-2.107 4.815-4.113 7.322-6.019.903-.702 1.706-1.404 1.405-2.708-.401-.802-.903-.902-1.605-.4-2.407.802-4.313 2.306-6.52 3.51-.602.3-1.203.802-1.805 1.103-.401.2-.803.502-1.104.803-.1.1-.3.2-.4.3-1.907.301-3.31 1.706-4.815 2.709-1.906 1.604-4.113 2.908-5.918 4.613 0 .1-.2.1-.1.201 0-.1.1-.1.1-.2.2-.201.501-.301.802-.201.502.2.301.602.1.903-.1.2-.2.3-.4.4-.904 1.104-2.308 1.205-3.511 1.505-.803.301-1.605.703-2.408 1.003-.4.1-.702.201-1.003.402-.2.1-.501.3-.702.501-.1.1-.2.1-.3.2-1.505 1.004-2.709 2.207-4.314 3.11-.1 0-.2.1-.3.1-.201 0-.402 0-.502-.2-.1-.602.3-.803.702-1.204.702-.401 1.203-1.003 1.805-1.605 1.304-1.103 2.708-2.006 4.113-3.009.501-.3.903-.702 1.203-1.203 0-.1.1-.1.201-.1-.1 0-.2.1-.3.1-.101.1-.302.2-.402.2-.301-.1-.301-.3-.301-.501 0-.2.1-.402.2-.602 0-.602.201-1.204.903-1.505.2-.1.502-.2.703-.3.3 0 .601-.1.802-.301.2-.1.401-.201.602-.1.3.1.602.2.802 0 .903-.703 2.106-1.104 2.708-2.308.1-.3.301-.501.602-.601.602 0 1.204-.201 1.605-.703.1-.1.2-.1.3-.2h.302c.1.1.2.3.401.2.502-.3.702-.802.903-1.203.3-.502.802-.702 1.203-1.104.301-.4 1.003-.501 1.003-1.203.1-.2.201-.301.402-.301.501-.1 1.103.401 1.604-.2l.602-.603c.401-.4.803-.702 1.204-1.103 1.605-.602 2.708-1.705 3.912-2.909 1.003-1.103 2.507-1.805 3.61-2.808.502-.401.903-1.003 1.605-1.204.301-.1.703-.3 1.004 0 .3.401-.1.702-.301.903l-.703.702c-.3.3-.601.401-.802.802-.2.402-.2.703 0 1.104.2.401.502.3.903.3.602-.1 1.203-.2 1.805-.5 2.107-1.505 4.414-2.71 6.42-4.314 1.203-.903 2.708-1.304 4.012-2.207 2.307-1.604 4.514-3.21 6.82-4.914 1.806-1.204 3.812-1.806 5.617-3.01.502-.3.803-.601.602-1.203.502-.301.702-1.003 1.505-.702.3 2.006-1.304 3.009-2.407 4.212-1.204 1.304-2.709 2.307-4.013 3.511-.1.301-.3.602-.601.802 0 .1-.201.1-.1.201.1.1.3-.1.4-.2.301-.301.803-.1 1.104-.301.702-.402 1.203-.502 1.605.4.4.803 1.504.904 1.404 2.107 0 .401.702-.3 1.003-.401 1.204 1.805 1.204 1.906.1 3.41-.501.602.602.602.401 1.104-.4 1.303-1.103 2.407-2.106 3.21-1.103.902-2.207 2.005-3.31 3.008-.501.1-.802.602-1.103 1.003-2.508 2.307-5.015 4.514-7.924 6.42-1.705 1.103-3.01 2.507-4.313 4.012-.1.3-.301.502-.602.702-.2.1-.401.301-.602.401h.1c.201-.2.402-.3.602-.4.2-.202.502-.302.803-.402 2.307-1.404 4.513-2.809 6.82-4.012 2.809-1.505 5.617-3.21 8.827-3.712 1.204-.2 2.006.201 2.608 1.104h-.1c.601-.2 1.303-1.003 1.504.501.1.502 1.204.803.903 1.706-.1.702-.2 1.504.3 2.206.101.2.201.401 0 .602-.4 2.809-1.604 5.116-4.212 6.62-.2.1-.2.401-.401.602-.803.401-1.304 1.203-2.006 1.705-.502.3-.702.802-1.204 1.003-2.808 3.31-5.717 6.62-9.228 9.228-.3.1-.602.1-.802.401-.2.2-.502.301-.702.602-2.809 2.407-5.216 5.216-8.125 7.523-.602.3-1.304.4-1.805.902-.402.301-.703.703-1.304.502-.702-.301.2-.803-.2-1.204-1.104.401-2.107 1.003-3.11 1.505-.401.2-1.003.501-.803-.502l.502-.501c-.1.1-.401.3-.702.602-.402.501-.903.702-1.505.802-1.003.2-1.203-.1-.903-1.204v-.2c-.2-.401.201-.602.301-.903.301-.401.401-.903.502-1.304.3-.602.602-1.204 1.003-1.705.702-.802 1.404-1.605 2.207-2.307.601-.602 1.303-1.003 1.805-1.705.502-.301.3-1.003.602-1.505-.401.502-1.104.803-1.605 1.204-.401.3-.702.502-1.103.802-.703.502-1.405.903-2.007 1.405-.501.1-.702.601-1.103.902-.602.1-.702.803-1.304.903-.2.2-.3.502-.602.702-.2.1-.501.2-.702.301-2.006 1.003-3.41 2.708-5.215 4.012-.402.1-.602.301-.903.602-.401.2-.702.702-1.103.903-4.013 2.407-7.523 5.617-11.836 7.523-1.003.601-1.706.802-2.508.902z"/>
    <path fill="#FE7A20" d="M58.775 80.466c.2-.1.502-.201.502.2s-.502.502-.502 1.103c1.104-.3 1.806-1.604 3.11-1.303-.301.3-.602.702-.803 1.003-.702.4-1.304 1.504-2.006 1.103-.802-.502-1.003 0-1.504.3-.2-.2-.301-.4-.301-.701 0-.301.1-.502.3-.703.302-.4.602-.802 1.204-1.002z"/>
    <path fill="#FE761A" d="M63.19 16.976c-.3-.1-.602-.2-.802-.3 1.204-.903 2.407-1.505 3.811-2.007 0 1.003-.702 1.806-2.006 2.107-.4-.401-.601.1-1.003.2z"/>
    <path fill="#FE9045" d="M73.723 14.77c-.1-.903-.702-1.204-1.505-1.204.2-.4.803-.2 1.104-.501.3-.2.602-.301.902 0 .301.3.201.501 0 .902-.3.402.1.201.301.301.2.201.2.402 0 .502-.1.1-.2.3-.3.3-.301 0-.402-.2-.502-.3z"/>
    <path fill="#FE812E" d="M86.462 19.785c0-1.104-1.004-1.404-1.706-1.906-.2-.2-.601-.2-.501-.702.2.1.3.3.501.3.502.101 1.304-.5 1.304-.1 0 .903 1.104 1.405.703 2.308-.1.1-.201.1-.302.1z"/>
    <path fill="#FE7B23" d="M75.228 18.278c-.501-.301-.702-.802-.3-1.204.601-.602.4-1.203.3-1.805.502.602.703 1.204.1 1.906-.2.3 0 .702-.1 1.103z"/>
    <path fill="#FE9D5B" d="M81.947 61.71c.401-.902.903-1.604 2.006-1.704-.502.702-1.003 1.504-2.006 1.705z"/>
    <path fill="#FE8D42" d="M86.459 19.782h.702c.803.602.502 1.104-.2 1.505-.602-.1-.502-.502-.502-.903v-.602z"/>
    <path fill="#FEBD91" d="M80.744 62.815c.301-.502.301-1.204 1.204-1.003-.1.602-.502 1.003-1.204 1.003z"/>
    <path fill="#FE8D47" d="M87.163 21.79c-.601 0-.702.903-1.404.702 0-.501 0-1.003.401-1.404.301-.1.502.2.803.2.1 0 .2 0 .3.101-.1.2-.1.3-.1.401z"/>
    <path fill="#FE8837" d="M81.448 30.013c-.301.2-.703.3-1.003.501-.402.1-.602-.1-.502-.501.2-.201.502-.301.702-.502.1.401.502.401.803.502z"/>
    <path fill="#FE802A" d="M85.957 36.532c-.2-.4-.702-.4-1.103-.601.1-.402.401-.402.702-.402 0 .401.903.401.401 1.003z"/>
    <path fill="#FEA060" d="M70.012 72.945c-.3-.602.402-.401.502-.702.3-.201.3 0 .401.2-.2.401-.501.602-.903.502z"/>
    <path fill="#FE8736" d="M59.48 14.469c-1.003-.1 0-.602-.2-.803.1.301.801.402.2.803z"/>
    <path fill="#FEA56A" d="M59.48 12.26c0-.2.1-.402.302-.502.1.401.702-.1.601.301-.1.502-.602.1-.902.2z"/>
    <path fill="#FE8432" d="M70.915 72.442c-.1-.1-.3-.1-.401-.201.2-.501.602-.501 1.003-.3-.2.2-.401.4-.602.5z"/>
    <path fill="#FE9148" d="M79.44 43.757c.1-.601.4-1.003 1.103-1.003-.301.402-.602.803-1.104 1.003z"/>
    <path fill="#FE8D41" d="M88.165 52.182c.1-.2.2-.502.3-.702.502 0 .302.3.201.501 0 .301 0 .502-.3.703.1-.1.1-.301-.201-.502z"/>
    <path fill="#FE7B23" d="M74.526 14.767v-.501c.401-.301.502-.1.502.3-.201 0-.402.1-.502.201z"/>
    <path fill="#FE9A56" d="M88.77 52.08c-.1-.201-.201-.402-.201-.502 0-.2-.1-.401.2-.502.1.301.201.602 0 1.003z"/>
    <path fill="#FE7417" d="M18.758 24.699c-.703.802-1.204 1.705-2.107 2.507-.602.502-.1.502.301.502.2.502-.3.502-.502.702-.702.301-1.103.802-1.604 1.304-.402.301-.703.602-1.104 1.003l-.2.2c-.502.502-1.405.703-1.505 1.605v.502c-.602.602-1.404 1.204-2.207 1.404-.902.2-1.905-.3-2.607.602 0 0-.301-.1-.402-.2 1.003-1.304 2.207-2.307 3.511-3.31.702 0 1.003-.402 1.404-.803s.903-.802 1.404-1.204c.602-.702 1.204-1.404 1.806-2.206 0-.2.2-.401.401-.502.502-.401.803-1.003 1.404-1.404.301-.2.502-.401.803-.602.3-.2.501-.401.903-.401 0 0 .2.1.3.3z"/>
    <path fill="#FE7D27" d="M18.959 17.276c-.301 1.203-1.505 1.705-2.207 2.507-.1.1-.2.1-.2.2-.301.201-.602.402-.803.703-.2.3-.501.602-.802.802-.301.201-.602.402-1.003.602-.2.1-.502.301-.702.401-.201.1-.502 0-.602-.2.1-.903.802-1.304 1.404-1.705 1.204-1.003 2.407-1.806 3.61-2.809.402-.1.803-.401 1.205-.501-.1-.1 0-.1.1 0z"/>
    <path fill="#FE7C24" d="M12.236 26.805c.702-.703 1.505-1.305 2.207-2.007.2-.501.602-.802.902-1.103.301-.2.602-.401.903-.802.1-.1.301-.201.401-.301.1 0 .201 0 .301.1.201.1.301.2.301.401-.2.803-.702 1.404-1.003 2.107-.3.902-1.203 1.203-1.805 1.605-.1.1-.2.1-.301.2-.602.301-1.204.702-2.006.803-.2.1-.301.1-.502.2-.3-.3-.2-.602.1-.903.201-.2.402-.2.502-.3z"/>
    <path fill="#FE8D41" d="M12.539 22.192h.702c.902 1.103-.401 1.304-.803 1.906-.702.602-1.404 1.304-2.106 1.906-.3.2-.602.4-1.003.601 0-1.504 1.605-1.805 2.006-2.908.2-.502.702-.703 1.003-1.003.2 0 .1-.301.2-.502z"/>
    <path fill="#FEA467" d="M23.97 13.564c-1.203.902-2.307 1.905-3.811 2.407 1.103-1.304 2.206-2.508 3.811-3.21.502.2.301.502 0 .803z"/>
    <path fill="#FE8737" d="M29.79 9.955c-.6 1.104-1.805 1.405-2.808 2.006-.2-.1-.4-.2-.3-.501.1-.1.2-.1.3-.2.402-.402.703-.803 1.304-1.004.2-.2.401-.3.502-.501.401-.301.702-.2 1.003.2z"/>
    <path fill="#FE7D25" d="M2.41 40.544c.902.903 1.203 2.307 2.607 2.608.301.1.301.602.201.903-.2-.3-.401-.602-.903-.502-.702.1-1.304 0-1.103-1.002 0-.703-.903-1.204-.802-2.007z"/>
    <path fill="#FE8736" d="M12.94 29.413c-.4.903-1.404 1.404-1.905 2.307-.301.602-.602-.1-.903-.2.903-.903 1.605-1.806 2.809-2.107z"/>
    <path fill="#FE9249" d="M12.236 23.995c.301-.602 1.505-.702 1.003-1.705.1-.2.201-.401.502-.502.401.201.602.502.602 1.004-.2.3-.402.601-.402 1.003 0 .1-.1.2-.2.2-.301.2-.602.301-1.003.502-.2-.2-.602 0-.502-.502z"/>
    <path fill="#FEA061" d="M26.683 11.457c.1.2.2.4.3.501-1.002.502-2.005 1.003-3.008 1.605.1-.301.2-.502 0-.803 0 0 .1-.1.2-.1.602-.401 1.405-.702 2.107-1.003.1 0 .3-.1.401-.2z"/>
    <path fill="#FE802C" d="M4.013 38.04c-.401.401-.903.802-1.304 1.204-.401-1.104.1-1.906 1.103-2.508.301.2.1.602.2.903v.401z"/>
    <path fill="#FE781D" d="M9.93 46.363c-1.004 1.404-2.207 2.708-3.712 3.61 1.204-1.303 2.407-2.507 3.711-3.61z"/>
    <path fill="#FEC6A2" d="M50.253 2.03c-.3-.703-.903-1.104-1.605-1.304-.602-.1-.501-.402-.2-.702.2.1.501.3.702.3 1.203.1 1.203.803 1.103 1.706z"/>
    <path fill="#FE9852" d="M12.236 23.994l.502.502c-.702.702-1.605 1.204-2.508 1.605.602-.803 1.204-1.605 2.006-2.107z"/>
    <path fill="#FE781D" d="M13.742 43.354c-.301.802-.703 1.605-1.706 1.304.301-.602 1.003-.903 1.706-1.304z"/>
    <path fill="#FEBC8F" d="M1 57.296c.201.602-.3 1.003-.601 1.404-.1-.3-.2-.702-.301-1.003.1-.2.2-.501.3-.702.402-.1.502 0 .603.3z"/>
    <path fill="#FE8635" d="M12.236 27.709c.702-.301 1.304-.702 2.006-1.003.2.501-.3.501-.501.802-.402.401-.903.401-1.505.2z"/>
    <path fill="#FE8B3D" d="M29.79 9.952c-.302-.2-.603-.301-1.004-.301-.1-.401.301-.602.702-.702.402.1.702.401.803.802-.1.201-.301.201-.502.201z"/>
    <path fill="#FE7A22" d="M30.491 8.15c.1.3.401.501.803.501 0 .602-.502.401-.803.602-.4 0-.802-.1-.702-.702.2 0 .401-.2.702-.401z"/>
    <path fill="#FEA467" d="M26.277 11.66c-.602.602-1.304.803-2.106 1.003.501-.601 1.203-.902 2.106-1.003z"/>
    <path fill="#FEC8A4" d="M28.284 10.255c-.2.602-.702.802-1.304 1.003.2-.602.401-1.304 1.304-1.003z"/>
    <path fill="#FECBA9" d="M18.755 17.176c-.401.301-.602.903-1.304.502.301-.502.702-.703 1.304-.803.1.1.1.2 0 .301z"/>
    <path fill="#FEAC74" d="M12.236 26.805l-.3.301c-.402.1-.402.602-.803.802-.502-.1-.602-.4-.2-.702.5-.501.902-.501 1.303-.4z"/>
    <path fill="#FE812C" d="M29.69 8.75c.201.3.402.5.803.5.3-.1.3 0 .2.302-.2.1-.3.2-.5.2-.402-.2-.603-.401-.803-.802.2-.1.2-.2.3-.2z"/>
    <path fill="#FEBC90" d="M56.975 8.95c-.401-.1-.602-.301-.501-.702.4.1 1.203-.1.501.702z"/>
    <path fill="#FE8635" d="M11.233 27.806c.1-.502.2-.803.803-.803-.201.301-.301.602-.201.903-.3.1-.502.1-.602-.1z"/>
    <path fill="#FEC59F" d="M50.451 6.946c-.702-.1-.602-.401-.2-.802.2.3 1.003.4.2.802z"/>
    <path fill="#FE934D" d="M49.249 9.752c-.301.301-.602.502-1.103.401.1-.3.3-.4.501-.4h.602z"/>
    <path fill="#FE781D" d="M11.934 44.658c-.2.502-.501.803-1.002.803.3-.301.601-.602 1.002-.803z"/>
    <path fill="#FEB280" d="M56.468 8.05c-.4-.302-.802-.302-1.203-.302.4-.3 1.003-.702 1.203.301z"/>
    <path fill="#FE7113" d="M18.256 72.943v-.501c.1-.502.3-.903.401-1.405.2-.501.702-.802 1.103-1.203.702-.602 1.505-1.104 2.006-1.806.201-.3.502-.602.903-.4.2 0-.1.6.401.3-.1 0 .402-.1 0-.1-.1 0-.2-.1-.3-.2.1-1.004 1.003-1.305 1.404-2.107.902-.602 1.805-1.104 2.608-1.806.4-.4.802-.802 1.404-1.003.1 0 .2-.1.3-.1.603 0 1.104-.401 1.505-.702.803-.702 1.806-1.204 2.709-1.705.3-.2.601-.401.802-.602 2.106-1.204 4.213-2.307 6.018-3.912 1.906-1.705 4.012-3.21 5.818-5.115.3-.402.702-.703 1.304-.703.3.402.601.602.601 1.104-.702 1.203-1.504 2.206-2.708 2.909-.802.501-1.304 1.404-2.006 2.006-.602.501-1.203 1.103-1.805 1.504-1.003.502-2.107.903-2.909 1.705-.401.401-.903.703-1.304 1.003-.3.301-.602.502-.903.803-.501.3-.802.702-1.103 1.203-.401.602-1.103 1.004-1.505 1.505-.702.702-1.404 1.304-2.206 1.805-.803.602-1.404 1.405-2.207 2.007-.602.601-.702 1.404-1.304 1.905-.1.1-.2.1-.3.2-.502-.1-.803.302-1.104.603-.401.3-.903.501-1.103 1.003-.1.3-.502.4-.803.602-.2.2-.401.4-.602.702-.3.501-.702.802-1.003 1.203-.4.602-1.003 1.204-1.504 1.705-.402.502-.702 1.004-1.304 1.204-.1 0-.2 0-.301-.1-.1-.702-.301-1.404-.903-1.906-.3-.2-.401-.903-.1-1.605z"/>
    <path fill="#F3282C" d="M13.94 58.198c-.602.1-1.003.702-1.504 1.003-.301.3-.602.401-1.003.501-.502.301-1.003.502-1.405.803-.702.401-1.605.401-2.307.702-.501-.2-1.003 0-.902-1.103.1-2.408 2.006-3.712 3.109-5.417.301-.501.702-1.203 1.304-1.504.1-.1.2-.1.3 0 .101.2.101.3.101.501-.3.602-.702 1.104-.702 1.806-.2.702-.802 1.003-1.204 1.504.803-.2 1.204-1.103 2.107-1.203.3.1.501.2.602.601-.402.602-.903 1.204-1.304 1.806 0 .1-.2 0 0 .1.1.1.1-.1.2-.1 1.806-1.304 3.912-2.107 5.617-3.611.401-.301.702-.702 1.204-1.003.3-.2.602-.502 1.103-.502.2.1.301.201.301.402-.2 1.003-1.304 1.303-1.906 2.006-.3.4-.702.802-1.103 1.103-1.003.501-1.605 1.304-2.608 1.605z"/>
    <path fill="#F3292C" d="M28.284 63.012c-.4.301-.802.703-1.304 1.003-1.203.201-1.805 1.204-2.708 1.706-.1 1.003-1.103 1.203-1.504 2.006-1.304 1.203-2.709 2.307-4.012 3.51-.301.702-1.003.602-1.505 1.003-.602.502-1.304 1.003-1.906 1.505-.702.3-1.203 1.203-2.106.602-.2-.301-.1-.602.1-.803.301-.2.502-.501.702-.702.502-.401 1.003-.802 1.505-1.304.602-1.203 2.006-1.304 2.909-2.106 1.504-1.304 3.21-2.508 4.413-4.213l.602-.602c.501-.501 1.204-.802 1.805-1.203.502-.402.903-.903 1.505-1.304.501-.402 1.003-.903 1.705-1.003h.2c.803.4.502.902.1 1.304-.5.1-.6.2-.5.601z"/>
    <path fill="#F3272C" d="M27.284 72.041c-1.304 1.505-2.909 2.708-3.912 4.514-.1.2-.401.401-.401.702-.1.501-.401.802-.903.903l-.2.2c-.702.703-1.304 1.405-2.006 2.006-.301.301-.702.402-.702-.2.2-1.003 1.103-1.505 1.404-2.407.1-.201.2-.402.4-.602.703-.602 1.205-1.505 1.907-2.207.1-.1.2-.2.4-.3.201-.302.302-.502.201-.904 0-.3.1-.501.301-.802.201-.301.502-.502.803-.803.3-.2.602-.501.802-.802.401-.401.803-.702 1.204-1.204.2-.3.602-.3.903-.4.3-.402.501-.803 1.103-1.004.3 0 .602 0 .802.401.1.301 0 .502-.2.703-.903.601-1.505 1.303-1.906 2.206z"/>
    <path fill="#FE7519" d="M27.785 75.953c1.203-.702 2.407-1.304 3.912-1.705-.402.401-.602.903-1.003 1.103-1.204.803-1.405 2.307-2.408 3.21-.702.702-1.404 1.103-2.407 1.103.802-1.003 1.505-2.006 2.307-2.909-.1-.3-.3-.501-.401-.802z"/>
    <path fill="#F43B41" d="M16.95 83.274c-.301.3-.401 1.103-1.104.902-.3-.1-.501-1.805-.3-2.106.3-.602 1.003-.602 1.303-1.003.402-.501.502-1.103 1.003-1.504.1-.201.301-.201.502-.1.1.1.1.2.2.3.1.502 0 1.003-.1 1.505-.2.4-.602.501-.802.902 0 .1-.1.201-.2.301-.101.2-.201.502-.502.803z"/>
    <path fill="#FE7519" d="M25.478 80.164c0 .301 0 .602.1.803.502.1.401-.502.803-.602.3.1-.502 2.106-1.104 2.307-.401.1-.702.401-1.103.602-.301-.502.702-.903 0-1.405.3-.601.702-1.203 1.304-1.705z"/>
    <path fill="#FE8A3B" d="M18.255 72.943c0 .903.1 1.605 1.103 2.106.702.301-.1 1.104.1 1.706-.802-1.104-1.905-2.207-1.203-3.812z"/>
    <path fill="#F53C38" d="M9.729 75.955c.2-.602.802-.803 1.304-1.204.4-.2.802-.602 1.203-.1.1.1.1.2.1.3-.1.302-.501.502-.702.703-.2.2-.4.401-.702.401-.4 0-.802.2-1.203-.1z"/>
    <path fill="#F55256" d="M18.458 79.462h-.401c-.2-.702.2-1.003.602-1.505.3-.4.802-.702.903-1.303h.2c.2.2.401.3.502.501 0 .301-.2.401-.401.602-.301.2-.502.501-.703.802-.2.402-.3.803-.702.903z"/>
    <path fill="#F5494E" d="M18.457 81.168c-.502-.502.1-1.003 0-1.505.501-.602.601-.1.702.301 0 .502.3.301.602.301-.301.702-1.104 1.103-1.605 1.705-.1.1-.2.1-.301 0 0-.401.401-.501.602-.802z"/>
    <path fill="#FE7519" d="M23.469 83.173v2.307c.1.1.1.1 0 .2 0 .101-.1.101-.1.101-.302.301-.201.903-.703 1.003.301-1.304-.2-2.608.803-3.61z"/>
    <path fill="#FE781D" d="M1.505 61.009c.802.4 1.705 0 2.908.1-1.203.502-.2.802-.2 1.204-.803.1-1.104-1.104-1.906-.803-.502.2-.802.1-.802-.501z"/>
    <path fill="#FE8435" d="M22.067 78.058l.902-.903c.502.702 1.104 0 1.605.1-.702.703-1.504 1.304-2.507.803z"/>
    <path fill="#F53835" d="M13.238 74.248c.803.501 1.304-.502 2.007-.502-.502.903-1.605.803-2.207 1.505-.602.1-.401-.401-.401-.702.1-.2.2-.502.601-.301z"/>
    <path fill="#F54649" d="M12.74 74.752c.3.1 0 .501.3.501-.602.602-1.304 1.003-2.106 1.204-.1-.1-.1-.1-.1-.2 0-.101 0-.101.1-.101.2-.2.401-.502.602-.602l.601-.602v-.2c.301-.1.402-.201.602 0z"/>
    <path fill="#FC6D22" d="M7.723 61.21c.501-1.004 1.504-.402 2.307-.703-.602.702-1.505.702-2.307 1.003v-.3z"/>
    <path fill="#FE7B22" d="M11.236 60.707c-.402 1.003-1.204 1.605-2.107 2.207.602-.803 1.404-1.505 2.107-2.207z"/>
    <path fill="#F5494E" d="M19.759 80.266c.502-.903 1.204-1.505 2.006-2.006-.502.802-1.103 1.505-2.006 2.006z"/>
    <path fill="#F87D81" d="M17.957 79.463c-.201.602-.502 1.103-1.003 1.504 0-.702.1-1.404 1.003-1.504z"/>
    <path fill="#FEBC90" d="M7.723 74.952c.1.3.1.501.201.802-.301-.1-.903.2-.903-.502.1-.3.301-.501.702-.3z"/>
    <path fill="#FEB685" d="M25.476 90.898c.702-.3 1.103 0 1.504.502-.602.3-1.003-.401-1.505-.502z"/>
    <path fill="#FA9699" d="M16.95 83.275c0-.401.1-.802.501-1.003.2.1.1.401.2.502-.1.3-.2.602-.701.501z"/>
    <path fill="#FEBE93" d="M7.723 74.952c-.2.1-.501.2-.702.3-.2 0-.3 0-.501-.1.3-.2.602-1.103 1.203-.2z"/>
    <path fill="#FE9751" d="M27.785 75.952c.3.1.501.401.501.803h-.702c-.401-.401-.3-.702.2-.803z"/>
    <path fill="#FE9147" d="M1.505 61.009c.1.4.501.501.802.501-.602.301-1.003-.1-1.304-.501h.502z"/>
    <path fill="#F8868A" d="M10.934 76.254v.3c0 .402-.2.603-.602.402.1-.401.401-.602.602-.702z"/>
    <path fill="#F87C80" d="M17.754 82.675c-.2-.1-.2-.301-.2-.502v-.2c.2-.1.4-.2.5 0h.201c-.2.2-.401.501-.501.702z"/>
    <path fill="#F99094" d="M11.738 75.754c-.301.2-.502.301-.803.502v-.201c.1-.301.301-.401.502-.502.3-.2.3 0 .3.201z"/>
    <path fill="#FE771B" d="M58.777 80.468c-.3.301-.602.703-.903 1.003-.802.301-1.504.703-2.206 1.204-.703.2-1.405.502-1.906 1.003-.1.1-.301.2-.401.2-.703.1-1.003-.701-1.605-.701-.1 0-.2-.1-.301-.201-.401-.401 0-.702.1-1.103.1-.201.301-.402.502-.502-.1 1.003.3 1.003 1.203.803.602-.1.903-.602 1.304-.803.1.1.2.1.301.301-.2.401-.1.602.301.3.903-.5 1.806-1.002 2.708-1.403.2-.1.502-.502.903-.1z"/>
    <path fill="#FE8D41" d="M55.468 74.95c.301-.201.502-.302.803-.502.2.2.2.501 0 .702-.702.802-1.505 1.504-2.207 2.307-.2-.2-.1-.401 0-.602.1-.702.803-.903 1.003-1.404.1-.1.2-.401.401-.502z"/>
    <path fill="#FEBA8C" d="M55.467 82.472c.702-.602 1.304-1.203 2.307-1.003-.1.2-.2.401-.301.502-.1.1-.2.1-.2.2-.302.2-.603.401-.803.702-.2.301-.301.602-.401.903-.1.1-.2.1-.301 0-.2 0-.301.1-.502.1-.2-.1-.3-.2-.4-.3 0-.602.3-.803.6-1.104z"/>
    <path fill="#FEC9A6" d="M53.46 84.278c-.601.2-1.203.401-2.005.602.601-.903-.602-1.204-.502-1.906.2-.1.3-.1.502 0 .601.301.902 1.003 1.705.903.1 0 .2 0 .3.1.1.1.1.2 0 .301z"/>
    <path fill="#FEC7A2" d="M52.96 79.265c-.2.4.101 1.003-.5 1.304-.302.1-.402 0-.502-.201.702-.502 0-1.705 1.003-2.006.3.2.2.501 0 .903z"/>
    <path fill="#FE944C" d="M52.96 79.262V78.26c.302-.401.703-.903 1.004-1.304v.602c-.301.502-.702 1.103-1.003 1.705z"/>
    <path fill="#FE8D40" d="M57.373 81.97h.2v.803c-.3.2-.501.401-.802.602-.2.1-.301 0-.401-.2 0-.201.1-.402.2-.703.2-.2.401-.401.803-.501z"/>
    <path fill="#FEC59E" d="M51.456 77.155c.301-.501.602-1.003 1.304-1.003.1.1.1.2 0 .301-.4.3-.501 1.204-1.304.702z"/>
    <path fill="#FEAD77" d="M52.757 76.453v-.3c.1-.603.502-.803 1.003-1.004v.502c-.401.3-.401.902-1.003.802z"/>
    <path fill="#FECBA8" d="M53.462 84.278v-.3c.4-.101.601.2.802.3.1.1.1.2.2.301-.2.2-.4.401-.701.401-.201 0-.502.1-.602-.1 0-.2.2-.401.3-.602z"/>
    <path fill="#FEC59E" d="M51.955 80.266c.2.1.301.2.502.2-.2.302-.401.502-.502.803-.902-.401-.1-.702 0-1.003z"/>
    <path fill="#FECAA5" d="M44.034 82.674c.2-.501.501-.702 1.003-.501-.2.501-.502.702-1.003.802-.1-.1-.1-.1-.1-.2 0 0 0-.1.1-.1z"/>
    <path fill="#FEC096" d="M44.034 82.672v.3c-.301.402-.502.703-1.103.603.1-.502.501-.803 1.103-.903z"/>
    <path fill="#FEBA8C" d="M54.967 84.077l-.501.501v-.1c-.903-.3-.502-.702 0-1.003h.3c.1.1.402.3.201.602z"/>
    <path fill="#FEC29A" d="M56.47 83.275c.101.1.201.2.201.3-.3.301-.501.803-1.003.201h.2c.302-.2.101-.702.603-.501z"/>
    <path fill="#FE944C" d="M51.458 82.974h-.501c-.1-.402.1-.803.501-1.004.1.301-.2.703 0 1.004z"/>
    <path fill="#FEB684" d="M54.966 84.08c-.1-.201-.2-.402-.3-.502.1-.1.2-.1.2 0l.3.3-.2.201z"/>
    <path fill="#F3262C" d="M86.26 21.286c0 .502 0 1.003-.5 1.204.5.3.902.602.1 1.003-.602.3-1.204.802-1.806 1.103-4.213 1.605-7.422 4.715-11.134 7.122-1.103.702-2.307 1.504-3.61 1.805-.703.2-1.004 1.003-1.605 1.304-1.706 1.003-3.511 2.107-5.116 3.31-.802.602-1.705.502-2.608.702-.3.1-.702-.1-.702-.501 0-.502-.401-1.104.1-1.605.301-.2.502-.401.803-.602.401-.2.702-.602 1.103-.802.301-.1.502-.301.301-.702-.1-.301-.401-.402-.702-.301-.2 0-.401.2-.602.2-.401.201-.802.301-1.103-.1-.301-.401-.1-.802.2-1.103.201-.2.301-.502.402-.702.602-.903 1.504-1.605 2.608-2.007l.3-.3c.201-.301.402-.602.703-.803.601-.602 1.103-1.203 2.106-.602.602.402 1.304-.3 1.805-.702.502-.501.903.903 1.405 0 0-.501-1.104.1-.702-.802 1.705-1.204 3.31-2.307 5.015-3.51.1-.302.3-.603.602-.803.4-.401.702-.803 1.103-1.204.602-.3 1.103-.602 1.705-.802.602-.301 1.304-.903 1.204.501 0 .401.4.401.602.2.4-.3.702-.601 1.103-1.002.2 1.103.1 1.404-1.103 2.407 1.504-.2 2.607-.702 3.51-1.404 1.304-.903 2.508-1.705 4.213-1.404.401.501.401.702.3.902zM29.69 24.698c3.41-2.91 7.724-4.113 11.435-6.32-.2-.3-.702.502-1.003-.1 2.307-1.404 4.815-2.507 7.523-2.808 2.206-.201 2.808.4 2.808 2.607v.602c-.3.301-.602.702-.902 1.104-.402.4-.602.902-1.104 1.103-2.407 2.207-4.213 4.915-6.62 7.021-.3.2-.501.502-.802.502 0 0-.1-.1 0-.1.1-.1 0-.201-.1-.1-.602.6-1.204 1.002-1.906 1.504h-.2c-.302.501-.703 1.003-1.004 1.504-.1.1-.2.2-.3.2-.201.101-.502 0-.703.201-.702.703-1.705.703-2.608.703-.1.1-.2.1-.3.2-.703.502-1.104 1.204-1.606 1.505.402-.402.903-.803 1.505 0 0 .2 0 .501.2.702-1.705 2.206-4.112 3.61-6.419 5.115-.2.1-.401.301-.602.401-.2.502-.501.803-1.003 1.004-.601.2-1.003.501-1.504.802-.1 0 .1.2 0 0 0-.1 0-.1.1-.1.502-.301.803-.201.602.501-.2.2-.502.401-.702.502-.301.3-.602.601-.803 1.003-.4.902-1.003 1.504-1.705 2.006-1.404.1-1.906 1.404-2.808 2.106-.301.301-.602.602-.903.803-1.103.702-1.805 2.006-3.01 2.607-.701.602-1.303 1.204-2.005 1.706-.401 0-.803.601-1.204 0-.1-.201-.1-.301 0-.502 0-.1.1-.2.2-.3 1.305-1.505 2.609-3.01 3.812-4.514 2.006-2.408 4.313-4.414 6.72-6.52.201-.2.402-.301.602-.502 2.207-2.908 5.317-4.814 8.025-7.222 2.006-1.805 3.51-3.911 5.717-5.516.802-.602 1.404-1.405 2.407-1.806.301-.1.702-.4.903-.702 1.103-1.705 2.909-2.507 4.213-4.012 1.103-1.204 2.206-2.307 3.21-3.812-1.605 0-2.91.502-4.113 1.104-2.207 1.103-4.514 1.906-6.72 3.009-2.006.903-3.712 2.407-5.617 3.31-.502.2-1.003.502-1.505.802-.501.301-.501-.1-.602-.4-.2-.302.1-.603.401-.903z"/>
    <path fill="#F3272C" d="M19.76 62.512c.101-.1.201-.2.201-.3.402-.502.803-.903 1.304-1.304 1.605-1.405 3.31-2.508 5.216-3.511 1.404-.702 2.608-1.705 3.711-2.909.903-1.103 2.407-1.906 3.611-2.808.301.2.301.501.401.802 0 .1 0 .2-.1.301-.2.3-.502.401-.602.602.401-.301.903-.602 1.104.3-.1.302-.201.502-.502.703-1.304.903-2.207 2.307-3.711 2.909-.301 0-.502-.1-.702-.402v-.3c.1-.1.1.1.1-.1 0-.101-.1-.101-.1 0l-.602.601c-.1.1-.2.1-.301.2-.3.201-.602.402-.903.703-.2.2-.501.401-.802.602-.502.4-.803 1.003-1.103 1.504-.301.401-.602.702-1.003.803-.402.2-.903.3-1.204.702-.2.3-.502.602-.803.802-.1.1-.2.1-.3.2-.602.302-1.004 1.004-1.706 1.305-.2.1-.3.2-.501.3-.2-.5-1.204-.802-.702-1.705z"/>
    <path fill="#F42D2A" d="M25.779 60.006c.4-.501.601-1.203 1.203-1.504.502.1.803-.301 1.103-.602.301-.2.402-.401.602-.702.401-.1.502-.602 1.003-.502l.502.502c.1.602-.502.802-.803 1.203-.501.602-1.203 1.003-1.805 1.505-.401.502-.401 1.003-.602 1.605-.1.2-.2.401-.401.602-.702.3-1.003 1.003-1.705 1.304-.602.3-1.204.601-1.705 1.103-.1.3-.602.3-.402.702-1.103 1.806-2.808 3.01-4.513 4.213-.602.2-.702 0-.401-.502.3-.401.802-.802 1.103-1.304.802-1.003 1.404-2.106 2.006-3.21.3-.802.903-1.404 1.505-2.005.3-.301.802-.402.802-1.004.3-.4.802-.501 1.203-.802 1.004.401 1.204-.1 1.305-.602z"/>
    <path fill="#F3272C" d="M47.946 43.756c-.1.1-.2.2-.301.2-.301.502-.903.702-1.204 1.104-.501.3-.903.602-1.404.802h-.301c-.401-.1-.702.2-1.103.2 0-.5-.702-.4-.702-.902 2.608-2.207 5.115-4.514 8.024-6.219.602-.1.602-.1.602.903-.1.3-.301.502-.502.702l-.602.602c-.3.3-.501.501-.702.802-.3.402-.702.703-1.003 1.104 0 .4-.501.4-.802.702z"/>
    <path fill="#F63926" d="M51.456 39.946c-.4-.2.2-.903-.501-1.003 1.705-1.505 3.41-2.809 5.517-3.712 0 0 0 .1.1.1v.603c0 .1.1.2.1.3.1.201.2.502.1.803-1.003 1.003-2.106 1.705-3.41 2.307-.401.1-.702.2-1.003.401-.3.1-.501.401-.903.2z"/>
    <path fill="#FE7920" d="M23.469 18.28c.601-.501 1.303-.401 2.006-.602.501-.2.4.301.601.402.301.3 0 .4-.2.501-.502.401-1.104.803-1.605 1.204-.2.2-.502.4-.702.602-.401.4-1.103.4-1.404.902-.1.401-.401.602-.602.903l-.502.502c-.1.1-.2.1-.3.1-.502 0-.703.401-1.004.702-.1.1-.2.1-.3.2-.402.1-.803.803-1.305.1v-.3c.201-.301.502-.602.703-.903.902-.802 1.805-1.404 2.607-2.206.201-.201.502-.402.803-.602.3-.2.502-.401.802-.602.301-.2.602-.502.903-.602-.1 0-.3-.1-.501-.3z"/>
    <path fill="#F42C2A" d="M33.702 34.228c-1.003-1.204-1.505.602-2.608.3 1.204-.601 1.605-1.905 2.809-2.306.1.1.1.2 0 .3h.1c0-.1 0-.2-.1-.3 1.203-.1 2.206-.803 3.51-.803-.802 1.204-1.906 2.307-3.21 3.01 0-.402 0-.402-.501-.201z"/>
    <path fill="#F53129" d="M59.98 32.72c.3.402 0 .703-.301.904-.301.2-.401.501-.1.802.3.3.501 0 .802-.1.3-.1.602-.402.702-.402.401.201.903.201 1.003.703.2.601-.3.802-.702 1.003-.401.1-.702.3-1.103.501.2-.501.802-.802 1.203-1.203-1.304-.402-1.705.902-2.507 1.203-.502-.2-.401-.602-.401-1.003.2-.3.1-.501-.201-.501 0-.301-.502-.402-.401-.703.602-.4 1.203-.802 1.705-1.203.1-.1.2-.1.3 0z"/>
    <path fill="#FE7417" d="M38.013 5.24c0-.101 0-.201.1-.201 1.706 0 3.01-1.405 4.715-1.505 0 .2.1.401.1.502-1.304.802-2.507 1.905-4.012 2.407-.2.1-.401-.1-.602-.2.1-.402-.3-.603-.3-1.004z"/>
    <path fill="#FE781D" d="M38.013 5.238c.2.502.702-.2.902.201 0 .502-.501.502-.702.803-.802.1-1.404.501-2.006 1.003-.502.4-.802.4-1.204 0-.2-.201.201-.502 0-.703.903-.601 1.906-1.103 3.01-1.304z"/>
    <path fill="#FE7317" d="M13.944 58.201c.602-.702 1.405-1.304 2.207-1.705.803-.1 1.003-1.304 2.006-1.003-.902 1.103-2.006 2.106-3.11 3.11-.701.501-.802.2-1.103-.402z"/>
    <path fill="#F42F29" d="M13.04 55.691c1.604-1.705 3.61-2.909 5.516-4.313.2-.1.301 0 .401.2 0 .302-.2.502-.4.703-.402.3-.803.702-1.204 1.003-.903.602-1.806 1.404-2.709 2.006-.4.2-.802.602-1.404.502-.1 0-.2 0-.2-.1z"/>
    <path fill="#FE761C" d="M18.254 55.492c-.802.1-1.203 1.103-2.006 1.003.803-1.204 2.107-1.906 3.01-3.01.3-.4.601-.902 1.203-.801.401 0 .702-.402 1.003-.502.1-.1.2-.1.2 0-.5 1.103-1.604 1.505-2.407 2.207-.3.4-.802.601-1.003 1.103z"/>
    <path fill="#FD6C15" d="M11.737 55.993c-.802.601-1.605 1.304-2.608 1.805.301-1.103 1.204-1.504 1.705-2.206.1-.301.2-.602.402-.903.501-.301.702-1.304 1.604-.602-.3.502-.902 1.003-.702 1.705-.2.1-.3.1-.401.2z"/>
    <path fill="#FE771C" d="M24.473 15.27c1.805-1.405 3.711-2.709 5.818-3.712-2.006 1.405-4.113 2.709-5.818 4.614-.301-.3 0-.602 0-.902z"/>
    <path fill="#F53028" d="M29.69 24.7c-.1.501-.802 1.003 0 1.504-1.003.702-2.006 1.304-3.009 2.006-.3.1-.3 0-.3-.3.702-.703 1.705-1.004 1.805-2.207.2-.502.903-.803 1.505-1.003z"/>
    <path fill="#FE7519" d="M26.279 32.122c.702-.602 1.304-1.104 1.905-1.605.301-.2.602-.2.903.1.301.301-.1.502-.3.702-.703.602-1.204 1.806-2.508.803z"/>
    <path fill="#FE7920" d="M15.546 22.49c-.1.1-.3.2-.401.301-.2.1-.3 0-.401-.2 0-.703.702-.903 1.103-1.304.301-.201.602-.402.803-.703.1-.1.3-.2.4-.2.502-.1.803-.602 1.204-.903l.201-.2c.3-.1.502-.301.702-.502.2-.2.401-.1.602.1-.2 1.003-1.304 1.304-1.806 1.906-.1.2-.3.301-.4.502-.302.2-.602.4-.903.702-.301.3-.602.602-1.104.501z"/>
    <path fill="#F53029" d="M19.758 62.513c0 .301 0 .803.301.803.702.1.301.601.502.902-.301.301-.502.602-.803 1.003-.3.1-.702.301-.802-.3.3-.602.501-1.204-.502-1.305.502-.4.903-.702 1.304-1.103z"/>
    <path fill="#F53128" d="M18.257 48.772c.2-.301.401-.602.702-.803.3.2.502.401.3.702-1.102 1.003-2.206 2.006-3.209 3.01-.702-.201-.3-.602-.1-.803.802-.702 1.404-1.505 2.307-2.106z"/>
    <path fill="#F84A20" d="M19.257 48.77c-.1-.2-.201-.5-.301-.702.702-.702 1.404-1.404 2.006-2.106.401-.501.702-.1 1.003.2-.702.903-2.207 1.305-2.708 2.609z"/>
    <path fill="#F53228" d="M19.257 67.728c0 .602-.502.803-.903 1.204-.2.2-.401.501.1.501-.2.402-.602.803-1.003.803-.902.1-1.404.702-2.006 1.103.903-1.504 2.608-2.307 3.812-3.61z"/>
    <path fill="#FE7B22" d="M16.452 28.511c.2-.2.301-.501.502-.702.4-.3.902-.602 1.303-.902.402-.301.502 0 .703.1.3.3 0 .401-.2.501-.302.301-.703.502-1.004.903-.401.602-.802.502-1.304.1z"/>
    <path fill="#FE781D" d="M24.775 21.988c-1.204 1.605-3.01 2.408-4.514 3.511-.1-.1-.2-.1-.2-.2 1.404-1.305 3.009-2.408 4.714-3.31z"/>
    <path fill="#FE7417" d="M42.73 3.536c0-.301-.301-.702.1-.903.702-.2 1.404-.502 2.106-.502.3 0 .3.502-.1.602-.702.2-1.204.903-2.107.803z"/>
    <path fill="#F74422" d="M26.78 26.906c-1.104 1.003-2.207 1.905-3.812 2.808 1.404-1.605 2.407-2.407 3.811-2.808z"/>
    <path fill="#F73F24" d="M12.738 67.53c1.404-.402 2.206-1.606 3.51-2.207.502 0 .402.2.2.501-1.002.702-2.005 1.505-3.209 2.006-.3.1-.501.1-.501-.3z"/>
    <path fill="#F53428" d="M34.004 52.483c-.3-.2-.2-.502-.3-.802 1.203-.803 2.206-1.806 3.51-2.508.1-.1.2-.1.301 0-.1 1.103-1.204 1.304-1.806 1.906-.2.2-.4.3-.601.501-.1.1-.2.1-.301.2-.301.201-.401.502-.502.703-.1.1-.2.1-.3 0z"/>
    <path fill="#FE8E43" d="M24.476 15.269c.502.3-.1.702 0 1.003l-.702.702c-.3.2-.501.502-1.003.401-.2-.1-.3-.401-.3-.602.701-.501 1.404-1.003 2.005-1.504z"/>
    <path fill="#F42E29" d="M68.205 27.709c0 .2 0 .401.201.3.401 0 .802-.5 1.003.201.1.401-.2.702-.602.803-.401.2-.903.3-1.003-.402 0-.2-.2-.2-.401-.2.2-.2.501-.502.802-.702z"/>
    <path fill="#FE8A3B" d="M30.695 9.454c-.1-.1-.2-.201-.2-.301.2-.2.501-.301.702-.502.4-.602 1.103-.802 1.705-1.003.401 0 .401.2.2.502-.702.501-1.404 1.304-2.407 1.304z"/>
    <path fill="#F84921" d="M12.737 74.75h-.502c-.4-.402-.802 0-1.303 0 .601-.803 1.303-1.305 2.306-1.505.1.1.201.1.301.2-.1.301-.2.502-.3.803-.201.1-.302.3-.502.501z"/>
    <path fill="#F53128" d="M42.93 45.262c.301.2 1.004 0 .803.802.1.1.2.301.1.502-.802 1.003-1.605.401-2.407-.1 0-.201.2-.301.3-.402.402-.3.803-.602 1.205-.802z"/>
    <path fill="#FD6716" d="M18.253 52.283l.501-.502c.301-.501.602-1.002 1.204-1.002.2.4.502.1.802.1.201.1.502-.2.702.1.201.401-.1.602-.4.803-.101.1-.201.1-.302.1-.1 0-.2 0-.3-.1-.301-.201-.602 0-.803.1-.401.3-.602.702-1.103.702-.301 0-.401-.1-.301-.3z"/>
    <path fill="#F42F29" d="M25.278 42.453c-.702-.903-.802.501-1.605.2.803-.602 1.104-1.705 2.307-1.705.2.2.2.502 0 .702-.2.401-.401.702-.702.803z"/>
    <path fill="#FE9D5B" d="M22.469 16.773c.2.1.3.301.3.502.1.1.201.3.1.501-.601.502-1.102 1.003-1.805 1.405-.2.1-.3.1-.501 0-.301-.903.802-.903 1.003-1.605.1-.502.602-.602.903-.803z"/>
    <path fill="#FA571C" d="M18.256 48.772c-.702.703-1.304 1.405-2.006 2.107-.2.2-.702.401-.2.903-.603 1.103-.502-.201-.703-.301.803-1.003 1.605-2.207 2.909-2.709z"/>
    <path fill="#F63A25" d="M57.977 34.025c.4.1.802.2.501.802-.2.602-.702.903-1.203 1.304-.301.1-.602.301-.803 0-.2-.401.2-.602.301-.802.2-.2.401-.401.401-.602.2-.602.401-.702.803-.702z"/>
    <path fill="#FE8330" d="M11.734 32.724c-.1-1.304.903-1.505 1.705-2.006.702.2.401.501 0 .802-.1.1-.2.2-.3.2-.302.502-.703.904-1.405 1.004z"/>
    <path fill="#F63A25" d="M59.981 32.724h-.3c.5-.702.902-1.404 1.604-1.805.402-.201.702-.301 1.104-.201-.703.702-1.605 1.404-2.408 2.006z"/>
    <path fill="#FE7F28" d="M18.255 23.696c.501.501.802-.402 1.203-.2.201.2.201.5 0 .701-.2.2-.501.301-.702.502-.2-.1-.3-.2-.501-.2-.2-.101-.401 0-.602.1-.2.1-.502.2-.602-.1-.2-.302.1-.502.301-.703.3-.1.602-.2.903-.1z"/>
    <path fill="#FE7518" d="M19.461 24.198v-.702c.502-.2.602-.802 1.204-.802h.2c-.501.501-.2 1.504-1.103 1.805-.2.1-.2-.1-.3-.3z"/>
    <path fill="#FE7D26" d="M33.199 8.248c0-.2 0-.4-.2-.501.4-.803 1.604-.301 2.005-1.204.402.2.1.502 0 .702-.602.301-1.203.702-1.805 1.003z"/>
    <path fill="#FC6118" d="M74.023 23.697c-.2.2-.501.3-.702.501-.602-.501-1.204.401-1.906.2.702-.4 1.304-.802 1.906-1.203.1.401.702-.1.702.502z"/>
    <path fill="#F63A26" d="M37.512 48.972c0-.803.802-.602 1.203-.903.402-.2.703-.602 1.003-.803.301-.2.502-.1.602.201 0 .2 0 .401-.2.502-.502.4-1.104.702-1.705 1.003-.301 0-.602.2-.903 0z"/>
    <path fill="#FE781E" d="M20.962 18.982c.4-.601 1.103-1.003 1.705-1.304.1.1.1.1.1.201 0 .1-.1.1-.1.1-.2.201-.301.502-.502.703-.2.4-.4.802-1.003.802-.1-.1-.3-.2-.2-.502z"/>
    <path fill="#FB581B" d="M22.767 62.513c-.3.803-.902 1.404-1.504 2.006 0-.2-.1-.4-.301-.501.501-.602.902-1.404 1.805-1.505z"/>
    <path fill="#F94F1E" d="M40.223 47.468c-.1-.2-.3-.2-.501-.2.501-.703 1.103-1.205 2.006-1.305-.1.1-.2.2-.2.301-.201.2.1.502.1.702-.402.401-.803.702-1.405.502z"/>
    <path fill="#F9541D" d="M39.02 29.712c.803-.702 1.505-1.404 2.307-2.207.2.502-.3.602-.3.903-.703.602-1.204 1.203-2.007 1.304z"/>
    <path fill="#F9511E" d="M21.567 30.514c-.4 1.003-1.103 1.304-1.604 2.006 0-1.003.1-1.204 1.604-2.006z"/>
    <path fill="#F63926" d="M20.764 51.782h.2c0 .4-.401.601-.501 1.003-.502.2-.703.802-1.204.802l-.3-.3c-.101-.201 0-.302.1-.502l.2-.201c.502-.401 1.003-.602 1.505-.803z"/>
    <path fill="#FE771C" d="M45.939 27.709c-.702.3-1.204 1.103-2.307 1.304.903-.903 1.705-1.505 2.608-1.806.2.301-.1.401-.301.502z"/>
    <path fill="#F42F29" d="M12.74 53.989c-.803-.401-.903.602-1.505.802-.401-.501.2-.702.401-1.103.1-.301.2-.602.602-.502.3.301.702-.401 1.003 0-.1.301-.3.602-.502.803z"/>
    <path fill="#FE771B" d="M51.257 22.994c.2-.1.501-.2.702-.3-.402.902-1.304 1.203-2.207 1.605-.1-.502.2-.602.502-.803.3-.2.601-.401 1.003-.502z"/>
    <path fill="#FA561C" d="M25.98 41.751v-.702c.302-.3.703-.501 1.004-.802.702 1.103-.401 1.103-1.003 1.504z"/>
    <path fill="#FE771B" d="M45.94 27.708c.1-.2.2-.3.2-.502.401-.702 1.104-.902 1.705-1.303.1.1.1.2.201.3-.602.502-1.304 1.003-2.106 1.505z"/>
    <path fill="#FE781D" d="M24.774 21.99c.602-.803 1.304-1.405 2.207-1.706-.702.702-1.304 1.404-2.207 1.705z"/>
    <path fill="#F63B25" d="M74.021 23.697c-.2-.201-.501-.301-.702-.502.803 0 1.003-1.003 1.806-1.003-.2.702-.803 1.103-1.104 1.505z"/>
    <path fill="#FE8F43" d="M23.271 19.484c-.3.2-.501.3-.802.501-.402.301-.602 0-.602-.4.1-.402.3-.502.602-.603.2-.1.3-.2.501-.3.602.1.401.501.301.802z"/>
    <path fill="#FE7D26" d="M23.273 19.482c0-.301 0-.602-.301-.703.1-.2.3-.4.501-.501.301 0 .702.1.702.3 0 .502-.501.703-.902.904z"/>
    <path fill="#FE7F2A" d="M19.759 18.983c-.1-.2-.301-.2-.502-.301.402-.502.602-1.204 1.505-.802.1.601-.401.702-.702 1.103-.1.1-.2.1-.301 0z"/>
    <path fill="#FE8C3E" d="M17.452 36.533c-.502.301-1.003.702-1.505 1.003-.1-.1-.1-.2-.2-.3.401-.502 1.003-.803 1.705-.903.1 0 .1 0 0 .2.1-.1.1 0 0 0z"/>
    <path fill="#FE761A" d="M60.985 18.479c.401-.703.903-.903 1.505-1.204-.2.802-.301.802-1.505 1.204z"/>
    <path fill="#FEA66A" d="M19.963 18.98c.2-.302.501-.703.702-1.004.3-.2.501-.3.802-.501 0 .702-.802.902-1.003 1.504.1.1.1.1.1.2 0 .101 0 .101-.1.101-.2.1-.401-.1-.501-.3z"/>
    <path fill="#FE8F44" d="M14.243 38.44c-.502.3-1.003.702-1.505 1.003-.1-.1-.1-.2-.2-.301.501-.401.903-.903 1.705-1.003.1.1.1.2 0 .3.1 0 0 0 0 0z"/>
    <path fill="#FE7B22" d="M13.54 31.52c.101-.3.402-.5 0-.802v-.2c.503 0 .703-.602 1.205-.502-.201.602-.402 1.304-1.204 1.505z"/>
    <path fill="#F84422" d="M49.447 19.684c.1-.601.401-.902 1.003-1.003 0 .502-.2 1.003-.702 1.304-.1.1-.2.1-.3 0-.101-.1-.101-.2 0-.3z"/>
    <path fill="#FE7F2A" d="M35.208 10.656c.2-.602.702-.903 1.404-1.104-.3.702-.903.803-1.404 1.104z"/>
    <path fill="#F74023" d="M33.7 34.228c.402-.3.402-.802 1.104-1.003 0 .502-.702.703-.602 1.204-.1.1-.2.1-.2.2-.402.101-.402-.1-.302-.4z"/>
    <path fill="#FE7518" d="M23.872 21.69c-.401.301-.903.703-1.304 1.004.1-.703.602-1.003 1.304-1.003z"/>
    <path fill="#FE771C" d="M16.949 20.487l-.2.2c-.402.201-.803.602-1.104-.2.2-.401.502-.602.802-.802h.301c0 .2 0 .4.2.501.101.1.201.2 0 .3.101 0 .101 0 0 0z"/>
    <path fill="#F84821" d="M16.449 65.722c0-.2-.1-.401-.2-.501.4-.301.802-.602 1.203-1.003-.2.601-.401 1.203-1.003 1.504z"/>
    <path fill="#F42C2A" d="M37.712 31.22c0-.803.4-1.204 1.003-1.505 0 .802-.402 1.204-1.003 1.504z"/>
    <path fill="#FE7B23" d="M74.224 14.968c.1-.1.2-.1.2-.2 0 .4-.1.802-.401 1.103-.602.501-.602.1-.602-.402.401-.1.602-.4.803-.501z"/>
    <path fill="#FE7D25" d="M46.944 25.702c-.502.2-1.104.401-1.706.602.502-.602.903-.903 1.505-.903.2 0 .3.1.2.3z"/>
    <path fill="#F9501E" d="M18.958 65.02c.2.302.502.201.803.302-.301.501-.903.501-1.405.602 0-.602.301-.703.602-.903z"/>
    <path fill="#F63E24" d="M26.48 28.006l.301.302c-.401.3-.802.601-1.204 1.003 0-.703.502-1.003.903-1.305z"/>
    <path fill="#F63A25" d="M19.963 50.776c-.402.301-.803.702-1.204 1.003l-.3-.3c.3-.502.902-.602 1.303-1.004.2-.1.301 0 .2.301z"/>
    <path fill="#FE7B22" d="M11.735 32.724c.501-.301 1.003-.702 1.504-1.003-.1.802-.802.802-1.203 1.204-.1 0-.201-.1-.301-.201z"/>
    <path fill="#FE8431" d="M19.963 25.201l.2.2c-.4.101-.602.703-1.203.703.2-.602.702-.602 1.003-.903z"/>
    <path fill="#FE832F" d="M22.267 51.48c.4-.301.802-.702 1.203-1.003-.1.602-.501 1.003-.903 1.204-.2 0-.3-.1-.3-.201z"/>
    <path fill="#FB5F19" d="M19.96 50.776c-.1-.1-.201-.2-.201-.3.3-.603.802-.502 1.404-.502-.401.2-.802.501-1.203.802z"/>
    <path fill="#FE771B" d="M46.942 25.7l-.301-.301c.3-.602.702-.402 1.204-.2-.201.4-.502.5-.903.5z"/>
    <path fill="#F9501E" d="M49.45 19.684v.301c.1.502-.4.602-.501 1.003-.2.301-.301 0-.502 0 .301-.501.502-1.003 1.003-1.303z"/>
    <path fill="#FE8432" d="M17.455 36.535v-.3c.301-.402.702-.502 1.103-.502-.3.3-.501.702-1.103.803z"/>
    <path fill="#FE8635" d="M21.969 21.287c.3-.602 1.003-.702 1.504-1.003.1.1.1.1.1.2s0 .1-.1.1c-.4.201-.802.502-1.203.703h-.301z"/>
    <path fill="#FE7518" d="M22.466 18.98l-.502.502c-.1.1-.2.3-.3.3-.202.1-.402 0-.502-.2v-.1c.3-.201.702-.502 1.003-.703.2 0 .2.1.3.201z"/>
    <path fill="#FE9651" d="M14.242 38.44v-.201c.2-.401.502-.602 1.003-.602 0 .803-.702.602-1.003.803z"/>
    <path fill="#F53029" d="M21.263 61.009c-.301.501-.702 1.003-1.304 1.304.2-.703.602-1.204 1.304-1.304z"/>
    <path fill="#FE7D26" d="M16.954 20.487v-.3c.501-.201.702-.803 1.203-.703-.2.502-.501.903-1.203 1.003z"/>
    <path fill="#F3262C" d="M57.274 34.526c.401.401 0 .502-.301.702-.2.201-.3.201-.502 0 .201-.3.402-.601.803-.702z"/>
    <path fill="#FE7920" d="M27.182 17.477c-.2.1-.301.502-.502.301-.3-.2 0-.401.2-.602l.603-.3c.1.4-.1.5-.301.601z"/>
    <path fill="#FE7518" d="M22.768 17.979v-.301-.502c.301-.1.702-.2 1.003-.3-.3.5-.602.902-1.003 1.103zM21.966 21.287h.301c.1.602-.3.802-.702 1.003 0-.401.1-.802.401-1.003z"/>
    <path fill="#F63C25" d="M11.735 55.994c.1-.1.2-.2.3-.2.301.2.703 0 1.004 0 .1.602-.201.802-.803.702-.2-.2-.3-.401-.501-.502z"/>
    <path fill="#FB5C1A" d="M12.737 67.528c.1.201.3.201.502.301-.302.301-.703.502-1.305.602.402-.501.602-.702.803-.903z"/>
    <path fill="#F53527" d="M37.511 48.973c.301-.2.602-.3 1.003-.2.1.3 0 .501-.3.601-.302.1-.502.1-.703-.1h-.3l.3-.3z"/>
    <path fill="#FE7E27" d="M63.191 16.976c.1-.401.502-.502.802-.602.502-.1.201.2.201.401-.3 0-.602.1-1.003.2z"/>
    <path fill="#FE8330" d="M39.522 7.947c0-.502.401-.602.802-.702-.1.601-.401.702-.802.702z"/>
    <path fill="#FE7F28" d="M26.079 32.52c-.1.502-.401.602-1.003.702.401-.3.602-.602 1.003-.702z"/>
    <path fill="#FE8B3D" d="M27.18 17.478c.1-.2.2-.301.3-.502.201-.1.302-.2.502-.3.1.1.1.1.1.2s0 .1-.1.1c-.2.2-.2.803-.802.502z"/>
    <path fill="#FE934A" d="M23.473 20.487v-.301c.2-.3.402-.502.803-.502 0 .602-.502.602-.803.803z"/>
    <path fill="#FE8839" d="M39.517 7.946c-.3.2-.702.3-1.003.501-.1.1-.2.1-.3 0 .3-.501.802-.501 1.303-.501z"/>
    <path fill="#FE8B3C" d="M22.267 51.48l.2.2c-.2.201-.5.301-.701.502h-.2c.1-.3.3-.502.701-.702z"/>
    <path fill="#F74123" d="M48.949 20.985c0-.4.401-.702.501-1.003h.301c0 .502-.401.803-.802 1.003zM63.49 29.715c-.201.3-.301.702-.703.802 0-.501.201-.702.703-.802z"/>
    <path fill="#F63727" d="M12.236 52.483v.2c-.2.201-.3.602-.702.502h-.3c.2-.3.5-.702 1.002-.702z"/>
    <path fill="#FE771B" d="M49.55 24.997c0 .502-.3.602-.601.703 0-.502.3-.502.602-.703z"/>
    <path fill="#F42F29" d="M23.771 43.957c0-.501.301-.802.802-1.003-.1.502-.4.803-.802 1.003z"/>
    <path fill="#FEC198" d="M3.71 37.74c.201-.202.502-.302.703-.502 0 .4-.201.601-.502.802 0-.1-.1-.2-.2-.3z"/>
    <path fill="#FE9249" d="M58.977 10.757c-.301-.2-.502-.401-.301-.602.2-.2.3.1.3.301v.301z"/>
    <path fill="#FE7A20" d="M33.903 11.66c-.1 0-.201 0-.301-.1.1-.101.1-.302.2-.402.1-.1.301-.1.2.1.101.2 0 .301-.1.402z"/>
    <path fill="#FE791F" d="M57.976 12.159l-.3.3c-.101.1-.201-.1-.101-.2s.2-.2.401-.301c-.1 0-.1.1 0 .2z"/>
    <path fill="#FE7518" d="M21.462 23.697c-.2-.3-.3-.4-.3-.4.1-.101.2-.302.3-.302.201-.1.201.1.1.2 0 .101 0 .302-.1.502z"/>
    <path fill="#FE822E" d="M38.215 8.447h.301c-.1.1-.2.201-.3.201-.201.1-.402.401-.602.1 0-.2.4-.2.602-.3z"/>
    <path fill="#FE7F2A" d="M27.983 16.975v-.3c.2-.201.502-.402.602-.1 0 .3-.301.4-.602.4z"/>
    <path fill="#F53835" d="M13.54 73.445c-.1-.1-.2-.2-.3-.2.3-.2.5-.301.802-.502-.1.402-.2.602-.502.703z"/>
    <path fill="#FE7D27" d="M20.66 34.426c-.1.1-.2.201-.3.201l-.201-.2c.1-.1.2-.1.3-.201.1-.1.201-.1.201.2z"/>
    <path fill="#FE7D26" d="M19.258 18.78c-.2.2-.2.802-.702.5.1-.4.301-.5.702-.5z"/>
    <path fill="#F3262C" d="M49.449 67.226c-.301.501-.803.702-1.204 1.003-.501 0-.903.2-1.304.501-1.103.803-2.207 1.706-3.21 2.508-.501.502-1.003 1.103-1.203 1.705-.301.2-.502.502-.803.702-.602.301-1.304.602-2.006.602-.802.401-1.404 1.003-1.906 1.705-.702.903-1.604 1.605-2.507 2.307-.702 0-1.505.502-2.006-.401 2.608-2.307 5.115-4.714 7.723-6.92 3.11-2.71 6.32-5.217 9.328-8.025 3.01-2.809 6.119-5.517 9.228-8.125.401-.4 1.003-.601 1.505-.902.501-.502 1.003-1.004 1.203-1.806 2.307-2.808 4.915-5.216 7.022-8.225.401 0 .401.2.3.502-.2.602-.3 1.203-.601 1.805-.502.803-1.103 1.505-1.505 2.307.1.1.2.1.301 0 1.003-.401 1.003-.3 1.003.401-1.103 1.505-2.307 2.91-3.711 4.013-.502 0-.802.3-1.304.501-.602 1.003-1.404 1.906-2.407 2.608-.401.2-.602.501-1.103.401-.1-.1-.1-.2 0-.3.1-.101.3-.201.4-.502-.1.3-.3.4-.4.501-.301.301-.602.602-1.004.803-.1.2-.2.3-.3.3-.201.402-.402.803-.703 1.104-.501.1-1.003.501-1.404.802-.3.301-.602.502-.903.803-.601.802-1.404 1.404-1.805 2.307-.1.2-.2.4-.401.602-.301.2-.602.4-.803.601-1.103 1.204-2.407 2.207-3.71 3.31-.101.1-.101 0-.202.1.1 0 .1.101.201.101.2.1.301.2.2.3zM62.49 40.446c.4.902 0 1.605-.603 2.206-1.304 1.405-3.009 2.408-4.513 3.712-1.104 1.003-2.307 1.905-3.41 2.908-.803.803-1.906 1.104-2.81 1.806-.3.501-.701.802-1.303 1.003-.702.602-1.505 1.203-2.207 1.805-.3.201-.4.1-.602-.1-.1-.802.602-1.103 1.003-1.605.301-.401.803-.702 1.004-1.203.4-.803 1.303-1.104 1.805-1.806.2-.401.602-.602.803-1.203-.703 0-.903.501-1.304.802-.301.2-.703.3-1.004.2 0-1.303.201-2.407 1.505-3.109.1-.1.2-.2.3-.2.402-.201.703-.502 1.004-.803 2.106-1.705 4.614-2.808 6.82-4.213.502-.3 1.004-.501 1.605-.501.703.3 1.405-.2 1.906.3z"/>
    <path fill="#F3272C" d="M51.255 49.274c-.401.702-1.505.802-1.705 1.705-.903.602-1.705 1.404-2.508 2.207-.1 0-.1.1-.1.2.1.1-.1 0 .1 0 .1 0 .1 0 .2.1.101.201.302.302.502.302-.2.501-.802.702-1.203 1.103-3.31 2.407-6.119 5.517-9.429 7.924-1.504 1.204-3.21 2.207-4.413 3.711-.1.1-.301.2-.502.1-.1-.2-.1-.3-.1-.501 0-.1.1-.2.2-.301.402-.3.803-.602 1.104-1.003.702-.903 1.204-1.906 1.805-2.909.201-.3.402-.602.602-.802.301-.301.502-.502.602-.903.301-.502.803-.602 1.204-1.003 1.003-.502 2.106-1.003 3.009-1.806 2.207-2.106 4.313-4.212 6.52-6.218 1.003-.803 1.805-1.906 3.009-2.408.501 0 .802.1 1.103.502z"/>
    <path fill="#F3292B" d="M46.74 50.177c-.701.1-.902.602-1.303 1.003-2.708 2.608-5.517 4.915-8.626 7.122-1.003.702-2.106.902-3.01 1.605-.3.2-.5-.1-.701-.201-.703-.1-1.204.501-1.806.602-.3 0-.501 0-.702-.2-.2-.302.1-.502.3-.703.803-.502 1.405-1.204 2.107-1.806.401-.2.903-.3 1.204-.601.1 0 .2-.1.3-.1 1.104-.201 1.907-.903 3.11-.903 1.104 0 2.207-1.003 3.11-1.906.1-.1.2-.2.2-.301.903-1.404 2.207-2.307 3.31-3.51.803-.602 1.605-1.104 2.307-1.706.301-.2.702-.401 1.003-.702.301-.2.702-.501 1.104-.2.3.2.1.501 0 .702l-.602.601c-.401.602-.803 1.104-1.304 1.204z"/>
    <path fill="#F42C2A" d="M58.677 35.232c.201.301-.1.702.201 1.003-2.006 1.705-4.112 3.21-5.918 5.116-.501.501-1.304.1-1.605.702-.602.1-1.203.501-1.705-.2.2-.302.401-.603.702-.703.301 0 .502-.2.602-.401.401-.401.803-.702 1.204-1.003l.902-.602c1.304-.502 2.408-1.404 3.511-2.207.1-.4.401-.601.702-.902.602-.402.803-1.003 1.404-.803z"/>
    <path fill="#F4292B" d="M23.47 85.683v-.301c1.404-.903 3.109-1.304 4.312-2.508l.1-.1c.201-.2.603-.401.803-.602.401-.2.803-.501 1.304-.401.401.1.702.401.602.903-1.806 1.905-4.012 3.009-6.62 3.31-.401.1-.401-.1-.502-.301z"/>
    <path fill="#F63D24" d="M48.449 48.77c0-.2.401-.501.1-.602-.3-.2-.501.301-.802.401-.502-.2-.702.402-1.104.402-.3.1-.601.4-.902.1-.2-.2.1-.3.2-.502 1.505-1.203 2.91-2.708 5.015-2.708-.902.803-1.003 2.006-1.504 3.01.1.4-.1.5-.502.601-.2-.2-.601-.3-.501-.702z"/>
    <path fill="#F53727" d="M29.288 58.3c.3-.4.802-.5 1.003-1.002 1.404-.803 2.407-2.207 3.711-3.01.3.803.702-.1 1.003 0 .1-.1.2-.2.301-.2.3-.2.502-.2.502.2-1.605 1.706-3.611 2.91-5.517 4.213-.502.301-.803.2-1.003-.2z"/>
    <path fill="#F63B25" d="M45.937 48.47c-.1 1.004.602-.1.803.302.1.1.1.1.1.2s-.1.1-.1.1c-.602.703-1.505 1.104-2.207 1.706-.602-.1-.903.4-1.204.702-.702.702-1.404 1.304-2.306 1.805-.201.1-.502.2-.703.301-.2.1-.3 0-.3-.3.1-.201.1-.402.2-.502 1.906-1.505 3.812-2.909 5.717-4.313z"/>
    <path fill="#F53029" d="M32.999 57.698c-.602.802-1.204 1.404-2.006 2.006-.1.1-.502.2-.2.401.1.1.3 0 .5.1.101.201-.1.402-.2.502-.401.3-1.003.3-1.003 1.204 0 .601-1.003.702-1.504 1.103h-.201c-.1-.2-.602-.401-.1-.702.602-.301.602-.803.3-1.304 1.405-1.104 2.709-2.407 4.414-3.31z"/>
    <path fill="#F42D2A" d="M53.765 62.715c.1-.2.2-.3.2-.501.402-.1.602.1.502.501-1.505 1.705-3.21 3.11-5.015 4.514l-.2-.2c-.101-.101-.101-.201 0-.302 1.002-1.404 2.607-2.207 3.71-3.51.301-.1.502-.301.803-.502z"/>
    <path fill="#F53527" d="M40.725 54.187c-.702 1.104-1.906 2.107-3.01 2.107-1.203 0-2.106.902-3.209.902-.2-.3.1-.4.301-.501 1.304-.702 2.608-1.404 4.113-1.404.702.1 1.003-1.003 1.805-1.104z"/>
    <path fill="#F74322" d="M41.525 46.765c-.1 0-.4 0-.3-.2 0-.101.2-.201.3-.302.502.602.803-.501 1.304-.1.2.401-.4.401-.3.803.501-.1.802-.602 1.303-.402.1.1.1.2.201.301 0 .2 0 .301-.2.502-.502.4-1.104.802-1.706 1.003l-.501.501c-.2.401-.502.602-1.003.602-.502-.401-.301-.702 0-1.103.3-.301.602-.502.802-.803 0-.4.301-.501.1-.802z"/>
    <path fill="#F42C2A" d="M57.974 59.203c-1.002 1.003-1.905 2.106-3.009 3.009-.702-.2-.501-.702-.2-.903.501-.4.702-1.003 1.203-1.304l.903-.902c.401-.301.702-.903 1.404-.602.201.3.1.602-.3.702z"/>
    <path fill="#F73E24" d="M28.789 69.734c.1-.2.2-.301.3-.502.201-.802 1.305-1.103 1.104-2.106.2-.803.401-1.103 1.003-.301.1.1.1.2.2.3.1.201 0 .402 0 .603-.702.902-1.303 1.805-2.006 2.708-.4-.2-.802-.2-.601-.702z"/>
    <path fill="#FA531D" d="M40.52 49.274c.301-.2.702-.3 1.003-.502.1.201.1.402-.2.602-.903.602-1.705 1.304-2.508 1.906-.501.401-.802.2-1.103-.3-.1-.302 0-.402.2-.603.201-.2.502-.3.803-.3.602 0 .903-.402 1.404-.703.1-.2.2-.2.401-.1z"/>
    <path fill="#F94D1F" d="M41.025 53.186c.602-1.103 1.906-1.404 2.608-2.407.1-.2.501-.502.802-.1-1.204 1.103-2.307 2.206-3.51 3.21 0-.201.4-.402.1-.703z"/>
    <path fill="#F42E29" d="M35.208 78.26c1.204-1.204 2.508-2.407 3.711-3.61.2-.202.401-.402.702-.402.1 0 .301 0 .301.1s-.1.2-.3.1c-1.505 1.104-2.308 2.809-4.013 3.712-.1.1-.2.1-.401.1.1 0 .1 0 0 0z"/>
    <path fill="#F63826" d="M67.005 48.973c-.3-.2-.2-.401 0-.602l1.806-2.106c.2 0 .3.1.4.2.101.301.302.502.603.602.1 0 .2.1.2.2-.2.302-.4.603-.702.803-.401 0-.602.301-1.003.301-.1 0-.1-.401-.2-.2-.301.4-.703.601-1.104.802z"/>
    <path fill="#F42E29" d="M33.201 77.958c.702.1 1.304.2 2.006.301-.3 1.003-1.103 1.304-2.006 1.505-.2-.1-.702.2-.401-.401.1-.201.1-.402-.1-.602-.301.1-.301 0-.301-.301.3-.1.602-.301.802-.502z"/>
    <path fill="#F74123" d="M33.202 79.765c.702-.502 1.304-1.004 2.006-1.505h.502c0 .702-1.405 2.307-1.906 2.207-.301-.1-.2-.702-.602-.702z"/>
    <path fill="#FD6816" d="M29.288 58.301c.302.2.602.301 1.004.2-.502.603-.903 1.305-1.706 1.505-.4.201-.802.402-1.003-.2.402-.702 1.304-.803 1.706-1.505z"/>
    <path fill="#FE7F28" d="M56.773 72.945c.602-.702 1.404-1.104 2.307-1.404-1.003.3.2 1.705-1.003 1.905-.501.401-.602-.2-.802-.401-.2 0-.401.1-.502-.1z"/>
    <path fill="#F84920" d="M43.734 47.267v-.501c.1-.1.2-.301.3-.402.302-.3.703-.4 1.004-.601.501-.301.903-.703 1.504-.803.2 0 .2.1.301.301-.3.502-.802.702-1.204 1.003-.2.301-.4.702-.702.903-.2.1-.501.3-.802.1h-.401z"/>
    <path fill="#F53128" d="M28.786 69.734c.1.301.502.401.502.702-.703.402-1.104 1.304-2.006 1.505-.1-1.103.802-1.605 1.504-2.207z"/>
    <path fill="#F63926" d="M56.269 60.005c-.402.401-.703.802-1.104 1.203-.3.301-.602.602-.1 1.004l-.502.501c-.1-.2-.3-.401-.501-.502.3-1.103 1.204-1.805 2.006-2.507.1.1.1.1.2.3z"/>
    <path fill="#FA551C" d="M57.976 59.202c.1-.3.2-.501.2-.802-.1-.1-.1-.1-.1-.2h.201c0-.502.3-.803.802-1.004.502 1.304.1 2.006-1.103 2.006z"/>
    <path fill="#F53427" d="M49.748 41.751c.502.301 1.204 0 1.705.2-.401.302-.802.703-1.203 1.004-.301.1-.703-.1-1.104.1-.2 0-.3 0-.401-.2 0-.502.802-.502 1.003-1.104z"/>
    <path fill="#F84721" d="M62.49 40.445c-.401.401-1.204-.401-1.505.401-.401-.2-.2-.602-.2-.903.601-.802 1.203-.601 1.705.502z"/>
    <path fill="#F53228" d="M70.014 47.265h-.201c-.2-.803.501-1.204.702-1.806.2-.3.502-.501.803-.702.2-.2.3-.501.501-.702.2-.1.301 0 .2.2-.5 1.104-1.203 2.107-2.005 3.01z"/>
    <path fill="#FA531D" d="M70.711 45.462c-.3.602-.702 1.204-1.003 1.706-.802.3-.702-.301-.802-.803-.1-.3 0-.401.3-.501.302 0 .603 0 .703-.201.1-.2.2-.401.501-.401.201.1.201.1.301.2z"/>
    <path fill="#F84622" d="M30.494 82.773c-.2-.301-.3-.502-.501-.803 0-.903.702-1.003 1.204-1.204.1 0 .602-.2.4.1-.4.502-.5 1.405-1.103 1.907z"/>
    <path fill="#FE8533" d="M57.273 72.943c.2.2.301.602.702.502-.3.802-1.203 1.203-1.805 1.705v-.702c.2-.502.902-.702 1.003-1.304-.1 0-.1-.1.1-.2z"/>
    <path fill="#F53627" d="M34.507 53.685c-.903-1.204-1.104.502-2.006.401.501-.501 1.003-.902 1.504-1.404.602-.3.903-.2 1.003.502-.1.2-.2.3-.3.501-.101.1-.101.1-.201 0z"/>
    <path fill="#FC6118" d="M31.197 80.766c-.401.402-1.003.703-1.204 1.204-.401.2-.802.301-1.204.502-.1.1-.2.1-.3 0-.1-.502.3-.602.601-.903.301-.2.602-.502.903-.602.502.1.803-.501 1.204-.2z"/>
    <path fill="#F84920" d="M27.484 59.704c.3.401.702.2 1.003.2-.301.301-.502.703-.803 1.004-.2.3-.3.601-.702.501-.1-.602.1-1.204.502-1.705z"/>
    <path fill="#FC6418" d="M48.748 42.954h.502c.4-.1.4.301.501.502-.501 1.003-1.103.401-1.805.2.3-.2.501-.4.802-.702z"/>
    <path fill="#F53228" d="M39.718 74.447c0-.1.1-.1.1-.2 0 0-.1 0-.1-.101.501-.602 1.304-.401 2.006-.502-.602.402-1.003 1.505-2.006.803z"/>
    <path fill="#F53128" d="M62.189 52.181c.1 1.003-.401 1.505-1.204 1.806 0-.903.702-1.304 1.204-1.806z"/>
    <path fill="#FA591B" d="M35.008 53.286c-.2-.501-.602-.501-1.003-.501v-.2h.2c.101-.302.402-.602.502-1.004h.2c.302-.2.502 0 .703.1l.1.101c-.4.3-.602.903-.702 1.505z"/>
    <path fill="#FA541D" d="M42.026 48.27c.501-.501.902-1.103 1.705-1.003-.301.903-.903 1.103-1.706 1.003z"/>
    <path fill="#F84A20" d="M70.212 42.752c.2-.502.502-1.003 1.304-1.404-.1.902-.501 1.404-1.003 1.905-.2-.2-.3-.3-.3-.501z"/>
    <path fill="#F53228" d="M42.53 72.944c-.1-1.003.502-1.404 1.204-1.705-.1.802-.602 1.304-1.204 1.705z"/>
    <path fill="#F63926" d="M29.29 81.772c-.3.2-.6.401-.802.702-.2.2-.501.301-.702.502-.2 0-.4.1-.802.1.702-.702 1.204-1.304 2.006-1.605.2-.1.3 0 .3.301z"/>
    <path fill="#F9511E" d="M49.952 51.981c.3-.501.802-.802 1.304-1.003-.1.903-.702 1.405-1.304 1.003z"/>
    <path fill="#F94B20" d="M34.504 53.686h.2c0 .2 0 .401.302.501-.1.1-.1.2-.2.301-.302.2-.703.401-1.204.803.2-.502.3-.803.3-1.104.301-.1.402-.3.602-.501z"/>
    <path fill="#F53228" d="M68.207 48.271c.3-.2.602-.602 1.003-.2-.1.4-.2.702-.501 1.002-.402-1.003-.803.402-1.204 0 0-.601.2-.902.702-.802z"/>
    <path fill="#FC6418" d="M46.742 45.261l-.3-.3c.3-.402.701-.904 1.203-1.004.602 1.103-.702.803-.903 1.304z"/>
    <path fill="#F42C2A" d="M31.294 67.73c-.3-.2 0-.3 0-.501 0-.602.402-.803 1.003-.703h.502c-.401.602-.903.903-1.505 1.204z"/>
    <path fill="#F53128" d="M63.693 53.485c.4-.301.501-1.304 1.303-.502-.3.402-.601 1.104-1.303.502z"/>
    <path fill="#FE7E28" d="M60.684 78.763c.2-.802.802-1.204 1.504-1.404-.502.3-.602 1.304-1.505 1.404z"/>
    <path fill="#FE7A20" d="M60.283 79.161l.502-.501c.2 1.103-.301 1.404-1.304 1.304.1-.301.501-.502.802-.803z"/>
    <path fill="#F94C1F" d="M70.514 45.46c-.2.1-.301.2-.502.301.201-.702.502-1.304 1.004-1.906.3.301-.1.602 0 .903-.201.3-.402.502-.502.702z"/>
    <path fill="#FA551C" d="M44.736 46.967c.2-.3.4-.602.802-.702 0 .903-.702 1.304-1.304 1.705-.3-.602.2-.702.502-1.003z"/>
    <path fill="#F53627" d="M70.215 42.754c.2.1.2.301.2.502-.501.3-.501.902-1.003 1.304 0-.2-.1-.402-.3-.502.5-.501.802-.902 1.103-1.304z"/>
    <path fill="#F9501E" d="M38.017 50.475c-.1.2-.2.301-.2.502-.2.1-.301.2-.502.3-.2.101-.3 0-.3-.2.1-.2.1-.3 0-.501.1-.402.4-.703.802-.703.1.201.3.301.2.602z"/>
    <path fill="#FE7B22" d="M79.941 30.013c.1.2.301.4.502.501-.301.301-.702.702-1.003.401-.402-.501.3-.702.501-.902z"/>
    <path fill="#F53627" d="M69.21 45.96c-.101.201-.201.302-.302.502l-.2-.2c.1-.602.4-1.204.802-1.705 0 .4 0 1.003-.3 1.404z"/>
    <path fill="#FC6517" d="M26.982 61.51c.2-.2.501-.3.702-.501h.501l-1.504 1.203c-.1 0-.1-.1-.1-.1l.1-.1c.1-.2.1-.401.3-.502z"/>
    <path fill="#FA531D" d="M60.284 56.193v.2c-.1.703-.401.803-1.003.502.2-.3.401-.601 1.003-.702z"/>
    <path fill="#FA591B" d="M37.014 50.778c.2.1.2.2 0 .2-.1.2-.201.502-.502.502-.2.1-.502.2-.702.3-.1-.2 0-.4.1-.601.301-.301.401-1.204 1.104-.401z"/>
    <path fill="#F94E1F" d="M49.748 43.454c-.502.1-.3-.401-.502-.502.301-.702.703-.3 1.004 0-.201.201-.301.402-.502.502z"/>
    <path fill="#FE781D" d="M54.766 81.77l-.3-.301c.4-.301.802-.602 1.203-1.003-.1.602-.501 1.003-.903 1.304z"/>
    <path fill="#F9511D" d="M46.943 68.73c.3-.501.602-.902 1.304-.501-.301.401-.803.501-1.304.501z"/>
    <path fill="#F84920" d="M29.29 81.773l-.3-.301c.3-.3.502-.702 1.003-.501-.2.3-.401.601-.702.802z"/>
    <path fill="#F63B25" d="M32.5 78.46l.301.3c-.4.302-.702.703-1.303.703.2-.401.601-.702 1.003-1.003z"/>
    <path fill="#F84920" d="M35.706 54.189c-.1-.2-.301-.2-.502-.2.301-.201.502-.402.903-.703.1.502-.1.702-.401.903z"/>
    <path fill="#F84921" d="M40.02 53.184l.3.301c-.2.301-.4.602-.802.401-.1-.4.2-.501.502-.702z"/>
    <path fill="#F53527" d="M34.204 57.197c-.3.401-.802.502-1.304.502.1-.301.401-.502.702-.502.301-.1.502-.1.602 0z"/>
    <path fill="#FA531C" d="M72.015 44.256l-.2-.2c.2-.2.3-.401.602-.702 0 .4-.201.702-.402.902z"/>
    <path fill="#FC6517" d="M36.509 51.48c.1-.2.3-.401.501-.502l.301.301c-.3.2-.401.702-.802.2z"/>
    <path fill="#F63D24" d="M52.256 44.76c-.201.401-.502.702-1.003.803.2-.502.501-.803 1.003-.803z"/>
    <path fill="#FEA468" d="M60.282 79.161c-.1.401-.402.602-.803.803-.3-.803.401-.602.803-.803z"/>
    <path fill="#F9501E" d="M34.205 57.196h-.502c.201-.4.602-.501 1.003-.501-.1.2-.2.3-.3.501h-.201z"/>
    <path fill="#FC6019" d="M31.496 79.463c-.1.3-.1.702-.502.602-.1-.401.1-.502.502-.602z"/>
    <path fill="#FD6716" d="M44.736 46.966c-.1.301-.502.602-.502 1.003-.3-.2-.2-.501-.3-.702.3-.1.601-.2.802-.3z"/>
    <path fill="#FE954D" d="M67.003 53.785l-.3.3c-.201.1-.201-.1-.201-.2l.3-.301c.201-.1.302 0 .201.2z"/>
    <path fill="#FC6118" d="M70.514 45.462c0-.4.2-.601.502-.702h.2c-.2.2-.3.502-.501.702h-.201z"/>
    <path fill="#FEA060" d="M24.174 89.393c0 .1-.1.2-.1.301-.1 0-.201-.1-.201-.1 0-.1.1-.2.1-.301.1-.2.2-.1.2.1z"/>
    <path fill="#FE8533" d="M17.453 23.995c-.1.1-.3.2-.3.301 0 .301.2.1.3.1.302-.1.502-.1.703.1-.301.201-.502.302-.803.502-.401-.2-.702.401-1.203.2-.1 0-.201-.1-.301-.2.4-.702.802-1.404 1.203-2.006.1-.1.2-.1.301 0 .1.1.1.2.1.301.302.301.201.502 0 .702z"/>
    <path fill="#FEC198" d="M16.05 24.997h.2c.2.1.501.201.501.502-.702.3-.802 1.204-1.504 1.404-.301-.3-.602-.1-.903-.2.301-.703 1.605-.602 1.705-1.706z"/>
    <path fill="#FE9956" d="M16.75 25.501L16.248 25c.402.1.803-.502 1.304 0-.3.2-.601.3-.802.501z"/>
    <path fill="#FE8B3D" d="M15.947 21.49c-.4.302-.802.703-1.203 1.004-.1.2-.2.4-.502.2-.2-.3-.3-.702-.501-1.003.3-.2.702-.3 1.003-.501.401 0 1.003-.602 1.203.3z"/>
    <path fill="#FE812D" d="M15.947 21.49c-.3-.402-.802-.201-1.203-.201l.702-.703c.1-.1.2-.1.3 0 .201.602.603.201 1.004.201-.2.301-.401.502-.803.702z"/>
    <path fill="#FE8839" d="M15.75 20.485h-.301c.2-.402.502-.703 1.003-.703-.1.301-.401.502-.702.703z"/>
    <path fill="#FE812C" d="M17.453 22.991h-.3c-.1-.1-.201-.1-.301-.2 0-.502.3-.702.601-.903.302-.2.602-.401 1.004-.401.2.1.3.2.4.3v.302l-.802.802c0 .1-.3.1-.602.1z"/>
    <path fill="#FEA061" d="M17.651 21.991c-.2.301-.502.502-.702.803-.1 0-.2 0-.301-.1.1-.201.2-.502.3-.703.101-.2.201-.3.502-.3.1 0 .201.1.201.3z"/>
    <path fill="#FE832F" d="M14.242 22.69c.2-.1.301-.2.502-.2l.3.3c-.4.402-.802.703-1.303 1.004-.201-.602-.1-.903.501-1.104z"/>
    <path fill="#F74522" d="M28.485 63.014c.1-.401.501-.502.802-.702.702-.402 1.204-.803-.502-1.204 1.204-.2 1.806-.401 2.408-.903.602-.4 1.103-1.003 2.006-.702-.1.301-.1.702-.2 1.003-1.706.502-2.709 2.207-4.514 2.508z"/>
    <path fill="#FC6318" d="M48.95 49.273c.2-.1.4-.3.501-.501.301-.2.602-.301 1.003-.301.1.3-.1.401-.2.501-1.104.702-1.706 1.906-3.01 2.207-.2-.301-.3-.702-.501-1.003.3-.401.602-.903 1.203-1.003.402-.2.703 0 1.004.1z"/>
    <path fill="#F84821" d="M30.994 67.226c-.301 0-.1-.702-.502-.501-.1 0-.2.3-.2.501-.1.702-.602.903-1.204 1.104-.3-.201-.602-.402-.502-.803.703-.702 1.505-1.304 2.207-2.006.502 0 1.003-.2 1.104.602-.1.501-.703.702-.903 1.103z"/>
    <path fill="#F63D25" d="M31.697 66.023c-.2-.401-.702-.2-1.003-.501.703-.602 1.505-1.204 2.207-1.806.3-.1.401 0 .602.2.1.603-.602.803-.702 1.405-.1.301-.401.401-.602.702-.1.1-.301.1-.502 0z"/>
    <path fill="#F53128" d="M40.725 57.498c-.702 1.103-1.706 1.605-3.01 1.806.803-1.004 1.906-1.505 3.01-1.806z"/>
    <path fill="#F53029" d="M24.273 65.723c.802-.802 1.203-2.106 2.708-1.705-.803.702-1.705 1.404-2.708 1.705z"/>
    <path fill="#FC6517" d="M28.485 67.528c.2.301.502.402.502.703.2.601-.502.501-.702.702-.301.2-.702.501-1.003.702.3-.702.702-1.505 1.203-2.107z"/>
    <path fill="#F84621" d="M23.271 74.75c-.1.1-.2.2-.3.2-.201-.1-.502-.2-.603-.5 0-.302.1-.502.1-.703.302-.401.703-.802 1.004-1.204.401 0 .401.201.2.502-.1.2-.2.502-.3.702.1.301 0 .702-.1 1.003z"/>
    <path fill="#F74322" d="M33.5 64.017c-.2-.1-.301-.2-.502-.3.401-.603 1.003-1.004 1.505-1.505.1.1.2.2.2.3-.1.803-.4 1.405-1.203 1.505z"/>
    <path fill="#F53429" d="M20.26 77.256c-.3 0-.501-.2-.501-.501.401-.402.802-.803 1.204-1.304.2-.1.3.1.4.2 0 .602-.4 1.104-.802 1.505-.1.2-.2.2-.3.1z"/>
    <path fill="#F74023" d="M34.507 62.512v-.201c.3-.502.501-1.204 1.203-1.304.301-.1.301 0 .301.301-.2.2-.3.502-.501.702-.401.1-.502.702-1.003.502z"/>
    <path fill="#F53527" d="M21.263 75.752l-.301-.3c.501-.602 1.003-1.204 1.504-1.706.402.201.1.502 0 .703-.2.702-.4 1.303-1.203 1.303z"/>
    <path fill="#F9521E" d="M26.48 70.236c-.302.501-.703.902-1.204 1.203-.201 0-.402-.1-.502-.3.2-.502.802-.803 1.204-1.004.2 0 .3-.1.501.1z"/>
    <path fill="#F3292C" d="M22.768 67.728c.401 0 .602-.401 1.404-.501-.702.702-1.003 1.203-1.705 1.404-.2-.502.2-.602.3-.903z"/>
    <path fill="#FB6019" d="M24.775 71.239c.2 0 .401.1.501.3-.2.302-.4.602-.702.803-.501.1-.3-.3-.501-.501 0-.502.702 0 .702-.602z"/>
    <path fill="#FC6517" d="M26.482 70.234h-.501c.3-.3.401-1.203 1.203-.501-.2.2-.4.3-.702.501z"/>
    <path fill="#F84B20" d="M23.973 71.74l.501.502c-.2.3-.401.602-.702.702 0-.2 0-.401-.2-.502.1-.2.3-.501.4-.702z"/>
    <path fill="#F53627" d="M32.998 60.507c-.2-.401-.3-.802.2-1.003.1.2.301.401.502.502-.1.3-.401.3-.702.501z"/>
    <path fill="#F53128" d="M36.007 61.207l-.301-.301c.2-.3.4-.602.802-.802.3.702-.1.902-.502 1.103z"/>
    <path fill="#FE6F14" d="M12.235 56.496c.4-.1.601-.401.802-.702 1.404-.301 2.307-1.304 3.41-2.006.301-.201.502-.402.803-.502.1.1.2.301.2.401 0 .301 0 .502-.3.602-.301.1-.402.2-.201.401-1.705 1.605-3.912 2.408-5.818 3.712-.3.2-.501.2-.501-.201.602-.602.802-1.404 1.605-1.705z"/>
    <path fill="#F74322" d="M11.735 53.687c-.1.4-.501.601-.501 1.003 0 .4-.2.601-.502.702-.3-.803.201-1.304.703-1.706.1-.1.2-.1.3 0z"/>
    <path fill="#FA591B" d="M16.952 54.69c.1-.201-.903-.1-.1-.502.3-.1.401-.3.401-.502.1-.1.2-.1.3-.2.101 0 .201 0 .302.1l.1.1c-.2.502-.501.803-1.003 1.004z"/>
    <path fill="#FB5D1A" d="M19.26 52.682c-.1.2-.2.3-.3.501-.301.1-.602.502-1.003.502.1-.803.4-1.104 1.304-1.003z"/>
    <path fill="#FB6019" d="M10.733 58.2c.1.2.301.2.502.2-.2.3-.502.602-.803.401-.3-.2.1-.401.301-.602z"/>
    <path fill="#FA571C" d="M11.734 53.686h-.301v-.502c.2-.2.502-.3.702-.501v.501c-.1.2-.2.401-.401.502z"/>
    <path fill="#FC6119" d="M23.268 64.52c.401-.702.903-1.103 1.805-1.204.1 0 .201.1.301.301l-1.805 1.204c-.301 0-.401-.1-.301-.3z"/>
    <path fill="#FC6517" d="M25.275 63.516l-.301-.3c.602-.402.903-1.104 1.805-1.204v.2c-.501.401-1.003.803-1.504 1.304z"/>
    <path fill="#F73F24" d="M23.27 64.52c.1.1.2.2.3.2l-.501.501c-.502-.4-.1-.501.2-.702z"/>
    <path fill="#FD6E1A" d="M21.264 75.752c.602-.2.702-1.003 1.204-1.304.2.1.401.2.501.501-.601.803-1.103 1.705-1.905 2.307-.2.1-.401.2-.502-.1.2-.502.401-.903.702-1.404z"/>
    <path fill="#F65F64" d="M19.258 79.965c-.2-.1-.401-.501-.702-.3v-.201c.2-.401.401-.702.602-1.104.401-.2.702-.601 1.103-.802.2-.1.502-.1.602.1-.401 1.003-1.103 1.505-1.605 2.307z"/>
    <path fill="#F53328" d="M28.285 69.034l.702-.702c.401-.301.802-.703 1.204-1.003.501 1.203-.803 1.404-1.204 2.006-.2-.402-.502-.301-.702-.301z"/>
    <path fill="#F42E29" d="M23.27 74.75c0-.302-.1-.703.2-1.004.402.402 0 .703-.2 1.003z"/>
    <path fill="#F9999C" d="M18.055 81.97h-.502c.2-.401.401-.803 1.003-.803-.2.301-.401.502-.501.803z"/>
    <path fill="#F78387" d="M11.736 75.753l-.201-.2c.2-.301.401-.502.802-.502-.1.301-.2.502-.601.702z"/>
    <path fill="#FE9D5C" d="M54.968 83.474h-.4c-.302.2-.602.301-1.004 0 .602-.501 1.104-1.103 2.006-1.003-.2.301-.4.702-.602 1.003z"/>
    <path fill="#FE944C" d="M53.161 83.979c-1.003.501-1.303-.401-1.705-1.003.803-.301 1.204.602 1.806.702.1.1.1.1.1.2-.1.1-.1.1-.2.1z"/>
    <path fill="#FEC59E" d="M53.16 83.978v-.2c.101-.1.201-.201.302-.201h1.003c.1.3-.602.702 0 1.003-.502.1-.703-.2-1.003-.502-.1-.1-.201-.1-.301-.1z"/>
    <path fill="#F73E24" d="M71.717 26.705c-.502.401-1.003.903-2.006 1.003.501-.702 1.103-1.003 1.705-1.304.2.1.3.2.3.301z"/>
    <path fill="#F42F29" d="M73.22 26.004h-.5c-.101 0-.201-.1-.302-.301.502-.401 1.103-.803 1.705-1.003-.2.501-.602.902-.902 1.304z"/>
    <path fill="#F84C20" d="M72.52 25.703l.3.3c-.2.402-.6.502-1.002.703l-.301-.301c.3-.2.602-.401 1.003-.702z"/>
    <path fill="#F42E29" d="M70.213 29.413c-.602.602-1.003.903-1.705 1.104.401-.703.903-.903 1.705-1.104z"/>
    <path fill="#F53128" d="M73.22 26.003c.2 0 .401 0 .802-.1-.3.3-.501.702-.903.501 0-.1.1-.3.1-.401z"/>
    <path fill="#F94B20" d="M77.637 24.198c.1-.3.301-.602.502-.501.4.2 0 .3-.201.4 0 .101-.2 0-.3.101z"/>
    <path fill="#F42F29" d="M74.224 24.697c.1-.2.201-.4.502-.4 0 0 .1.1.1.2-.1.3-.401.2-.602.2z"/>
    <path fill="#F74222" d="M25.777 60.006c.301 0 .502.2.2.4-.3.302-.601.803-1.103.904 0-.201-.1-.402-.1-.602.502 0 .702-.301 1.003-.702z"/>
    <path fill="#F84621" d="M28.288 57.997c-.301.401-.502 1.103-1.304.502.2-.2.501-.301.702-.502.2-.2.401-.2.602 0z"/>
    <path fill="#F63B25" d="M28.285 58h-.502c.2-.4.502-.702 1.003-.702 0 .301 0 .702-.501.702z"/>
    <path fill="#F94F1E" d="M23.473 61.51c.4.401.2.702-.803 1.003.301-.401.602-.702.802-1.003z"/>
    <path fill="#F63926" d="M29.79 56.694c-.302.1-.602.502-1.004.502.2-.402.502-.703 1.003-.803v.301z"/>
    <path fill="#F42D2A" d="M29.79 56.696v-.301c.1-.2.2-.402.601-.402-.1.402-.401.602-.602.703z"/>
    <path fill="#FA571C" d="M52.46 39.744c-.402.3-.803.702-1.204 1.003-.2.1-.301 0-.301-.301l.501-.502c.301-.2.502-.3.803-.501.2-.1.3.1.2.3z"/>
    <path fill="#F63B25" d="M44.032 46.466l-.2.2v-.2-.502c.3 0 .501-.802 1.003-.2-.2.3-.602.501-.803.702z"/>
    <path fill="#F42E2A" d="M44.035 46.465c.201-.3.402-.601.703-.702h.3c-.3.402-.501.703-1.002.703z"/>
    <path fill="#F53427" d="M50.953 40.447l.3.3c-.2.301-.3.703-.702.201.1-.1.301-.3.401-.502z"/>
    <path fill="#F94C1F" d="M57.474 36.032c-.2.3-.401.601-.803.702-.4-.1-.4-.401-.3-.702.2-.1.501-.201.702-.201.3 0 .4 0 .4.2z"/>
    <path fill="#F94F1F" d="M56.47 35.231h.501c-.2.301-.3.502-.501.803-.803-.301.1-.502 0-.803z"/>
    <path fill="#F94A20" d="M52.456 39.742l-.2-.2c.3-.302.602-.502 1.003-.502-.2.3-.401.501-.803.702z"/>
    <path fill="#FE9750" d="M21.765 20.485c-.702 1.003-1.705 1.605-2.708 2.307-.1.1-.2 0-.3 0-.101-.401.3-.502.4-.803.201-.2.502-.4.602-.601.2-.301.502-.502.702-.803.1-.1.1-.2.201-.2.3-.201.602-.502 1.103-.301.1.1.1.3 0 .4z"/>
    <path fill="#FE8D41" d="M20.763 22.691c-.502.2-.702.803-1.204.803.301-.301.602-.702.903-1.003.2-.2.3 0 .3.2z"/>
    <path fill="#FE9753" d="M21.764 20.484v-.502c-.1-.1-.1-.1-.1-.2s.1-.1.1-.1c.1-.1.2-.201.3-.201 0 .3.201.501.502.501-.301.2-.602.301-.802.502z"/>
    <path fill="#FE8431" d="M17.455 23.995v-.702c.301-.2.502 0 .702.1l.1.1v.2c-.3.101-.501.201-.802.302z"/>
    <path fill="#FE7F28" d="M18.757 22.792h.2c0 .402-.3.702-.702.702-.2-.3.1-.601.2-.802.101-.1.202 0 .302.1z"/>
    <path fill="#FC6218" d="M34.002 32.222c.502.502.502.502-.702.903.3-.3.501-.602.702-.903z"/>
    <path fill="#FA561C" d="M57.474 36.034l-.301-.301c.401-.3.802-.702 1.203-1.003.402 0 .402.2.201.502-.3.3-.702.501-1.103.802z"/>
    <path fill="#FB5B1A" d="M17.452 53.788h-.2v-.502c.2-.401.601-.702 1.002-1.003l.201.2c0 .703-.702.803-1.003 1.305z"/>
    <path fill="#FE924A" d="M19.96 18.98c.2.1.3.2.501.2.2.401-.1.602-.401.903-.502.3-.803.702-1.304 1.003h-.301c-.3-.1-.502-.1-.702-.402.501-.702 1.404-1.103 2.006-1.705h.2z"/>
    <path fill="#FEA76C" d="M17.754 20.688c.3 0 .602 0 .802.3-.2.402-.4.703-.902.402 0-.1-.1-.1-.1-.2-.101-.202 0-.302.2-.503z"/>
    <path fill="#FB5E19" d="M37.014 50.776c-.602-.401-.702.301-1.003.502-.3.1-.401 0-.501-.2.602-.703 1.605-.904 2.006-1.706h.702c.1.1.1.2.1.3-.1.201-.3.402-.602.502-.3 0-.602.2-.702.602z"/>
    <path fill="#FD6716" d="M35.507 50.978c.201.1.301.2.502.2-.1.202-.2.302-.2.503-.201-.1-.502-.201-.703-.201 0-.2.2-.401.401-.502z"/>
    <path fill="#F53627" d="M34.705 51.48c.301.602-.1.802-.501 1.003-.301-.602.2-.802.501-1.003z"/>
    <path fill="#F53527" d="M17.455 53.788c0-.702.702-.803 1.003-1.204.301-.2.702-.502 1.003-.702.1-.1.301-.1.502-.1.1.601-.402.802-.702 1.103-.602.1-.903.501-1.204 1.003-.2-.2-.401-.2-.602-.1z"/>
    <path fill="#FB5C1A" d="M19.257 52.783c.301-.301.502-.702.803-1.003.2-.1.3-.2.501 0h.301c-.501.501-1.003.802-1.605 1.003z"/>
    <path fill="#F84B20" d="M20.464 51.782H19.461c.301-.301.602-.602 1.003-.402.1-.1 0 .2 0 .401z"/>
    <path fill="#FE8D40" d="M19.958 19.982c.2-.3.301-.501.502-.802v-.2h.501c.1.2.2.3.301.5-.1.201-.2.502-.401.603-.2.2-.401.3-.1.601-.201.301-.502.502-.703.803-.3.2-.601.1-.802-.2-.2-.703.301-1.004.702-1.305z"/>
    <path fill="#FA541D" d="M38.213 49.475v-.201c.1-.2.2-.3.2-.502.402-.4.904-.702 1.505-1.003.2.1.502 0 .602.402-.702.501-1.103 1.504-2.307 1.304z"/>
    <path fill="#FE7213" d="M40.525 47.968c-.2 0-.401 0-.502-.2.1-.101.2-.202.301-.202.401-.2.803-.501 1.204-.702.802.301-.1.502 0 .703-.301.2-.602.501-1.003.4z"/>
    <path fill="#FE781E" d="M20.764 19.982c.1-.2.3-.4.501-.501.1.2.301.2.502.2v.201c-.301.2-.703.3-1.003.502-.201-.1-.201-.201 0-.402z"/>
    <path fill="#FB5C1A" d="M58.274 58.202v.3c-.602 0-.803.602-1.204.803-.2.1-.3 0-.3-.301.4-.502.701-1.003 1.504-.802z"/>
    <path fill="#FC6118" d="M68.205 48.27c-.3.2-.601.4-.802.702h-.502c.301-.301.602-.702.903-1.003.401-.2.401.1.401.3z"/>
    <path fill="#F9521D" d="M56.772 59.003l.301.3c-.2.301-.4.602-.802.703l-.301-.301c.2-.301.401-.602.802-.702z"/>
    <path fill="#FA531D" d="M60.182 56.193c.2-.4.502-.802 1.304-1.003-.401.602-.702 1.003-1.304 1.003.1 0 0 0 0 0z"/>
    <path fill="#F74322" d="M66.903 49.172c-.3.502-.502.702-.903.903.1-.401.401-.702.903-.903z"/>
    <path fill="#F9501E" d="M53.763 62.713c-.2.2-.2.803-.802.502.2-.301.401-.502.802-.502z"/>
    <path fill="#FA561C" d="M49.248 66.725v.301c-.301 0-.502.502-.602.2-.2-.3.301-.5.602-.5z"/>
    <path fill="#F42E29" d="M50.25 48.973c.1-.2.2-.3.2-.502.2-.702.803-.902 1.505-1.203.501 1.003-.502 1.304-.803 2.006-.2-.1-.602-.2-.902-.3z"/>
    <path fill="#FC6118" d="M46.74 53.185c.802-.903 1.504-1.906 2.808-2.207-.702.803-1.504 1.706-2.206 2.508h-.2c-.402.1-.502 0-.402-.301z"/>
    <path fill="#F52F29" d="M59.377 41.046c-.2.502-.501.702-1.103.602.3-.401.602-.502 1.103-.602z"/>
    <path fill="#F42C2A" d="M34.504 62.513c.301-.1.602-.501 1.003-.501-.702 1.003-1.103 2.206-2.006 3.009-.2.1-.401.401-.702.2-.2-.702.602-.702.802-1.203.402-.401 1.003-.803.903-1.505z"/>
    <path fill="#FB5A1A" d="M31.694 66.024h.502v.501c-.301.2-.702.502-1.003.703h-.2c0-.602.601-.803.701-1.204z"/>
    <path fill="#F84921" d="M32.7 65.221c.201-.1.502-.2.703-.2-.301.501-.602.903-1.204 1.003 0-.401.401-.502.501-.803z"/>
    <path fill="#F94F1E" d="M46.74 53.184l.301.301c-.1.2-.3.602-.601.301-.301-.2.1-.401.3-.602z"/>
    <path fill="#F64023" d="M46.743 48.97v-.3c.401.1.501-1.003 1.003-.301-.401.3-.602.602-1.003.602z"/>
    <path fill="#F53527" d="M33.602 59.203c-.1-.3.1-.401.2-.501.1-.1.301-.1.502-.2-.1.4-.301.6-.703.701z"/>
    <path fill="#FA581B" d="M48.949 49.274c-.301.2-.702 0-1.003 0l.501-.502c.2.1.401.301.502.502z"/>
    <path fill="#FA561C" d="M27.783 82.974c.1-.301.401-.502.702-.502h.301c-.3.3-.602.502-1.003.502z"/>
    <path fill="#F53627" d="M40.524 47.97c.301-.101.602-.502 1.003-.502.301.501-.3.4-.401.601-.301.301-.903.502-.602 1.104-.1.1-.2.2-.3.2-.703-.1-.904.602-1.505.703-.201.1-.502.2-.703.3-.1-.2-.2-.3-.3-.501l.501-.502c.903-.2 1.505-1.003 2.307-1.404z"/>
    <path fill="#F74322" d="M38.715 50.274c.4-.502.601-1.204 1.504-.702-.501.1-.702 1.103-1.504.702z"/>
    <path fill="#FEB27E" d="M18.556 22.792c-.1.201-.2.502-.3.702-.201-.1-.502-.1-.703-.2v-.301c.2-.3.502-.2.702-.3.1-.101.2 0 .301.1z"/>
    <path fill="#FE8F44" d="M17.451 21.69v-.502c.401.301.702-.1 1.003-.3h.301c.1.1.1.2.1.4l-.1.1c-.3.201-.602.603-1.003.502-.1 0-.2-.1-.3-.2z"/>
    <path fill="#FEC6A1" d="M18.555 22.794c-.1 0-.2 0-.3-.1.1-.402.3-.703.802-.803.1-.1.2-.1.3 0-.2.301-.3.502-.5.803-.201.1-.201.1-.302.1z"/>
    <path fill="#FEB889" d="M19.26 21.99h-.3V21.688c0-.101.1-.201.1-.302 0 0 .1 0 .1-.1.2.1.502.2.702.2 0 .302-.2.502-.601.502z"/>
    <path fill="#FE7F28" d="M18.956 21.688l-.2-.2c.1-.1.2-.1.3 0 0 .1 0 .2-.1.2z"/>
    <path fill="#FE7920" d="M20.763 19.982v.702c-.803-.2-.401-.501 0-.702z"/>
    <path fill="#FE8533" d="M18.956 21.487h-.2v-.502c.3-.501.602-.902 1.204-1.003-.201.402-.502.903-.703 1.304-.1 0-.1.2-.3.2z"/>
    <path fill="#FE8432" d="M18.96 21.488c.1-.1.2-.201.3-.201 0 .2-.1.401-.3.502v-.301z"/>
</svg>
