<svg xmlns="http://www.w3.org/2000/svg" width="67" height="14" viewBox="0 0 67 14">
    <path fill="#001033" fill-rule="nonzero" d="M.005 6.98C.005 4.746.009 2.514 0 .282 0 .058.063 0 .287 0c2.808.008 5.616.008 8.425 0 .207 0 .288.04.284.262a46.927 46.927 0 0 0 0 1.923c.005.225-.084.26-.288.259-1.987-.008-3.974 0-5.962-.01-.23 0-.287.064-.284.285.013.933.013 1.867 0 2.801-.003.21.065.252.263.252 1.995-.008 3.991 0 5.985-.01.209 0 .284.038.28.262-.013.657-.01 1.315.008 1.972.005.215-.104.208-.256.208-1.98-.002-3.957-.002-5.935 0-.341 0-.34 0-.34.347 0 .909.01 1.818-.007 2.728-.004.247.079.286.306.286 1.987-.009 3.973 0 5.961-.01.216 0 .278.048.273.267-.016.65-.01 1.299-.003 1.949 0 .157-.023.229-.21.229-2.857-.006-5.715-.006-8.572 0C.002 14 0 13.902 0 13.75c.003-2.257.003-4.514 0-6.772l.004.001zm32.502 3.58l.747-1.858c.724-1.814 1.447-3.629 2.168-5.444.073-.183.159-.255.366-.248a46.73 46.73 0 0 0 2.034-.004c.191-.003.212.057.14.227a8014.167 8014.167 0 0 0-4.057 9.532c-.148.347-.302.692-.44 1.042-.055.141-.124.198-.279.193a24.502 24.502 0 0 0-1.34 0c-.16.005-.24-.05-.303-.202A13273.149 13273.149 0 0 0 27.1 3.332c-.022-.053-.043-.107-.07-.158-.067-.133-.02-.172.114-.17.407.01.814.01 1.22.012.271 0 .544.012.815-.013.225-.02.335.06.422.277.653 1.658 1.316 3.313 1.975 4.964l.93 2.316zm17.948-1.969V5.586c0-.305 0-.305-.308-.305-.31 0-.63-.007-.945.003-.148.005-.204-.03-.202-.197.01-.571.009-1.143 0-1.715 0-.15.048-.193.19-.193.345.005.692-.016 1.038 0 .198.008.231-.074.23-.252-.008-.893 0-1.788-.01-2.682 0-.188.048-.249.237-.245.597.012 1.195.01 1.794 0 .172-.003.208.058.206.22-.006.91 0 1.821-.008 2.73 0 .194.055.243.236.238.63-.015 1.26-.007 1.89-.018.153 0 .2.042.197.204-.01.572-.01 1.144 0 1.715.003.164-.05.198-.199.193-.637-.007-1.275.003-1.912-.006-.164 0-.212.041-.211.213.006 1.82 0 3.64.005 5.463 0 .545.283.831.812.851.448.01.897-.01 1.343-.06.133-.012.16.026.16.15a133.71 133.71 0 0 0 0 1.813c0 .094-.022.156-.12.17-.876.118-1.755.217-2.623-.024-1.035-.286-1.621-1.037-1.747-2.18-.116-1.093-.014-2.19-.052-3.081h-.001zm-39.219 5.405c-.355 0-.711-.007-1.067.004-.171.005-.193-.05-.15-.212A4675.924 4675.924 0 0 0 13.408.304c.056-.228.139-.31.376-.304.679.019 1.359.01 2.039.004.153 0 .207.018.16.202-.93 3.67-1.854 7.34-2.773 11.011-.217.862-.442 1.723-.648 2.588-.04.168-.111.2-.258.195-.358-.01-.713-.004-1.069-.004zm15.653-7.347c-.283-1.512-.945-2.796-2.203-3.701-1.114-.803-2.373-1.053-3.717-.91-1.735.185-3.093 1.01-4.023 2.515-.916 1.48-1.119 3.098-.814 4.794.235 1.301.814 2.42 1.801 3.299 1.082.965 2.363 1.367 3.79 1.354 1.503-.015 2.849-.454 3.998-1.462.116-.104.133-.187.095-.326-.102-.362-.186-.733-.28-1.1-.104-.413-.213-.827-.33-1.28l-.235.261c-.967 1.078-2.168 1.59-3.604 1.512-1.403-.075-2.495-.99-2.828-2.364-.088-.362-.088-.362.287-.362h7.91c.134 0 .269.032.264-.195-.013-.68.017-1.36-.111-2.035zm-3.067.344c-.776.003-1.552 0-2.328 0-.775 0-1.551-.002-2.327 0-.132 0-.195-.016-.155-.167.442-1.643 2.754-2.393 4.148-1.337.463.354.698.838.83 1.376.046.18-.086.128-.167.128h-.001zm42.928-.932c-.425-1.525-1.253-2.735-2.66-3.477-.981-.516-2.031-.664-3.125-.545-1.62.175-2.937.908-3.858 2.281-1.2 1.793-1.376 3.762-.761 5.8.496 1.647 1.552 2.819 3.129 3.473 1.07.444 2.188.485 3.316.313a5.6 5.6 0 0 0 2.87-1.334c.092-.08.211-.14.168-.31-.21-.795-.41-1.593-.618-2.407a.5.5 0 0 0-.075.045c-.07.075-.139.15-.207.227-.933 1.028-2.088 1.515-3.461 1.476-1.464-.04-2.653-1.033-2.944-2.446-.046-.223-.019-.29.228-.29 2.63.01 5.26.006 7.891.006.06 0 .119-.004.178 0 .13.011.175-.043.177-.178.01-.886-.009-1.77-.248-2.634zm-2.927.938c-.778-.007-1.555-.003-2.332-.003-.77 0-1.54-.006-2.311.004-.195.003-.204-.055-.155-.209.393-1.247 1.722-1.993 3.096-1.743 1.034.188 1.606.81 1.861 1.753.046.162.007.198-.16.198zm-15.827-.54a8.215 8.215 0 0 0-.053-.954c-.19-1.612-1.18-2.792-2.75-3.23-1.23-.343-2.48-.353-3.725-.095-1.498.31-2.551 1.171-3.11 2.598-.045.115-.097.207.072.29a71 71 0 0 1 1.905.968c.168.088.225.052.286-.121.238-.691.68-1.203 1.404-1.422a4.134 4.134 0 0 1 2.246-.052c.857.22 1.3.586 1.213 1.575-.028.318-.151.473-.474.505-.746.072-1.493.128-2.238.207-.674.073-1.358.073-2.019.251-1.333.363-2.355 1.076-2.65 2.487-.315 1.484.086 2.764 1.336 3.697 1.138.85 2.45.97 3.809.723.88-.16 1.594-.622 2.235-1.269 0 .316.008.633-.003.95-.005.158.045.207.206.207.68-.008 1.361-.012 2.042 0 .218.005.273-.059.272-.272-.007-2.346-.003-4.694-.004-7.043zm-4.408 5.485a2.494 2.494 0 0 1-.637.053 2.67 2.67 0 0 1-1.207-.22c-.443-.202-.725-.535-.743-1.03-.018-.494.234-.864.67-1.109a2.16 2.16 0 0 1 .808-.246c1.076-.133 2.155-.253 3.232-.385.216-.028.274.026.286.252.067 1.335-1.088 2.435-2.41 2.687v-.002z"/>
</svg>
