<svg xmlns="http://www.w3.org/2000/svg" width="90" height="92" fill="none" viewBox="0 0 90 92">
    <path fill="#00C38B" d="M46.128 0h2.201c.3.5.9.3 1.301.5.3.1.6 0 .8.1.901.7.8 2.002 1.501 2.902.8 1.2-.6 1.801-1 2.702-.3.7-.7 1.3-.5 2.101 0 .4-.2.7-.5.9h.1c1.7-1 3.601-1.6 5.502-2 .701 0 1.201.5 1.802.8.6.6 1.6.6 2.301 1 .6.3 1 .7 1.1 1.301.1.7-.3 1.401-.5 2.001 0 .2-.1.5 0 .7.6 1.502.1 2.602-1.2 3.503-.6.2-1.101.5-1.501 1-2.002 1.902-4.003 3.703-6.104 5.504-.2.2-.4.3-.6.5.4-.3.8-.6 1.1-1 1.701-1.601 3.803-2.702 5.804-3.803 3.202-1.7 6.304-3.602 9.406-5.403 1.3-.7 2.601-1.1 4.002-1.2.8-.1 1.4.2 1.901.8.3.6 1 .7 1.2 1.3h.1c.301-.1.701-.2 1.002 0 .9.901 1.2 2.002.7 3.202-.2.4-.2.801-.3 1.101 2-1.4 4.402-1.901 6.604-2.701 1.1-.4 1.9.3 2.501 1.1.3.3.6.5.9.6.901.801 1.201 1.802 1.001 3.002 0 .2 0 .5-.1.7l.1.1c.2 0 .4.1.5.201.801 1.2.1 2.101-.6 3.002-1.6 2.101-3.602 3.702-5.703 5.203.1-.1 0 .2-.1.1s-.2.2-.1.1c.2-.1.4-.3.6-.4.8-.4 1.401-.1 2.001.4.8.7 1.401 1.601 2.402 2.001.8.3 1.1 1.301 1 2.101-.2 2.302-.7 4.503-2.701 6.004-1 .8-1.701 2.101-3.002 2.602-.3 0-.5.1-.7.3-.3.3-.5.7-.7 1.1-2.603 2.402-5.104 4.703-8.006 6.605-1.5 1-2.901 2.301-4.402 3.502-.1 0-.1.1-.2.1h.1c.1 0 .1-.1.2-.1 3.802-3.102 8.105-5.303 12.507-7.305.6-.3 1.301-.4 1.901-.5.4-.1.8 0 1.301-.1h.6c.6.2 1.101.6 1.701.8.2.1.3.2.4.4 0 .2.1.3.1.5.601.902 1.602.401 2.302.902.3.2.4.6.4 1 .1.6-.6 1.3.1 1.801.1.2.1.3.1.5 0 3.202-1.2 5.704-3.902 7.505-.5.1-1.1.1-1.3.9-.1.2-.2.3-.4.4-.501.1-.701.501-.901.901-.1.1-.3.2-.4.3-.701.2-.901.901-1.201 1.501-2.602 3.002-5.303 5.804-8.205 8.305-.3.3-.6.5-1.1.6-.701-.1-1.302.1-1.502 1.001-1.2 1.401-2.601 2.502-3.802 3.803-1.3 1.4-2.702 2.701-4.403 3.602-.8.1-1.5.1-2.001.9-.2.1-.4.3-.6.3-.2 0-.6.1-.7-.1-.601-1.2-1.201-.5-1.902-.1-.4.1-.9.1-1.3.4-1.001.901-2.202.601-3.403.601-.8 0-.7-.6-.8-1.2 0-.3.1-.5.2-.701.3-.4.6-.8.8-1.3.1-.1.2-.301.2-.401.1-.2.1-.5.2-.8.1-.6.3-1.101.801-1.401.8-.7 1.601-1.401 2.302-2.202.5-.7 1.4-1 1.8-1.8.1-.1.2-.201.2-.401-.1-.1-.2 0-.3 0-.2.1-.4.2-.6.4-.3.3-.7.5-1 .8-.1.1-.3.2-.4.3-.401.2-.801.501-1.101.701-.5.2-.7.7-1.001 1.201-.2.2-.3.3-.6.4-.3 0-.6.2-.8.4-.2.2-.2.5-.401.7-.1.201-.3.301-.5.401-.3.1-.6.2-.8.5-1.502.901-2.703 2.202-4.103 3.302-.3.3-.6.5-1 .7-.601 0-.902.301-1.102.801-3.902 2.702-7.504 5.704-11.807 7.805-1.7.8-3.502 1.1-5.303.6-.4-.2-.8-.3-1.3-.3-1.402 0-2.402-.4-2.802-1.9-.1-.501-.2-.902-.4-1.402 0-.1-.1-.2-.1-.4-.1-.4-.3-.8-.3-1.3 0-.2 0-.401.1-.601l.3-2.101c.4-.8.5-1.902 1.6-2.202 1.101.3 1.101.3 1.101-.9v-.9c.1-.301.3-.501.6-.701 1.401-.1 2.302-1 2.902-2.202.4-.8.9-1.3 1.801-1.9-2.101 1.1-4.202 1.4-6.003 2.3-.4.4-1.001.5-1.401.901-.1.1-.2.1-.3.2-.3.1-.6.2-.901.4-.8.3-1.4 1.101-2.101 1.602h-.4c-.2-.1-.4-.3-.4-.6 0-.901 1.1-1.202 1.1-2.102l-.3-.3c-.2-.1-.4-.3-.7-.4-1.302-1.301-2.002-2.702-1.401-4.503-1.101.9-1.902 2.001-3.303 2.401-.7-.2-1.3-.1-1.9.4-.1.1-.3.2-.4.3-.601.4-1.302.801-2.002 1.001-.8-.1-1.601.3-2.201-.4-.2-.2-.2-.5-.5-.7-.301-.2-.601.1-.801.1-1.701.3-2.102-.6-2.902-2.402-.5-1.1-.3-2.301.2-3.602 1.2-3.002 3.402-5.203 5.403-7.705.3-.4.7-.5.9-.7-1.4.6-3 1.6-4.802 1.7-.4 0-.8 0-1.2-.3-.501-1.1-1.602-1-2.502-1.3-.2 0-.3-.1-.5-.2-.1-.1-.2-.1-.3-.2C0 60.237 0 59.536 0 58.735v-.3c0-.4.3-.8.3-1.3 0-.3 0-.5-.2-.801-.2-.8 0-1.4.6-2.001 3.002-3.402 6.104-6.604 9.606-9.506.3-.2.7-.4 1-.6.1-.1.2-.1.301-.1.9 0 1.1-.7 1.4-1.401 1.202-1.801 3.103-2.802 4.604-4.203.2-.3.5-.4.8-.5-.4.1-.6.4-.9.6-2.902 2.402-6.304 3.903-9.506 5.804-1.801 1.1-3.602.3-5.103-.7-1.801-1.101-2.001-5.104-.5-6.605.3-.1.6 0 .8 0 .2 0 .4-.1.5-.3.1-.2.3-.3.4-.5.4-.4.7-.9 1.001-1.3.3-.401.6-.801 1.2-.801.601.2.901-.1 1.302-.5.5-.601 1.1-1.001 1.7-1.502.3-.2.601-.6 1.101-.2.2.2.2.4.1.7 0 .401-.4.601-.6.801.4-.3 1-.5 1.4-1 .401-.6.901-1.201 1.602-1.501.6-.1.7-.7 1.1-1.1 0 0 0-.101.1-.101l-.1.1c-.2.2-.4.5-.6.8-.1.1-.2.2-.3.2-.5.1-.8.501-1.1.801-.501.4-.901.9-1.602.5-.4-.7.2-1.1.6-1.4.5-.5 1.101-.9 1.201-1.701.1-.2.3-.4.5-.5.701-.2 1.201-.501 1.702-1.001.6-.7 1.8-.6 2.101-1.501.3-.8 1-1.201 1.6-1.601.301-.2.501-.4.902-.6 1 .1.8-1.001 1.3-1.401l.6-.6c.2-.2.5-.401.701-.701.4-.4.9-.7 1.2-1.1.301-.201.601-.501.901-.701.2-.1.3-.3.4-.4.2-.2.5-.4.3-.7-.3-.301-.6 0-.8.1-.3.1-.5.4-.8.6-.3.2-.7.4-1 .7-.1.1-.301.2-.501.2s-.4-.1-.5-.2c-.2-.2-.1-.5 0-.7.1-.2.2-.4.4-.6.5-.301.9-.601 1.1-1.202.1-.2.2-.4.4-.6.501-.2.901-.5 1.302-.9 1.4-1.301 2.901-2.402 4.102-3.102-1 .6-2.402 1.7-3.702 2.801-.6.7-1.401 1.101-2.202 1.601-.2.2-.4.4-.7.5-.6.1-1.2.2-1.701.701-.8.6-1.5 1.4-2.502 1.601-.3-.1-.4-.3-.4-.6s.1-.5.2-.7c.6-.601 1.401-1.001 1.401-2.102.2-.6.8-.8 1.2-1.1 1.702-.401 2.903-1.702 4.404-2.502.8-.5 1.6-.9 2.401-1.301.7-.3 1.4-.7 2.001-1.2.6-.801 1.701-.901 2.502-1.402.5-.4 1.2-.7 1.8-1 .601-.4 1.201-.6 1.802-.9.5 0 1 0 1.4-.401 1.201-.2 1.502-.4 1.902-.6.2-.1.4-.3.6-.3.7.1 1.201-.1 1.801-.5.8-.701 2.002-.901 2.802-1.702.2-.2.2-.6.4-.6-.2.1-.3.4-.5.7-1.1.8-2.301 1.401-3.602 2.001-1 0-1.901.2-2.802.7-.1.1-.3.2-.4.301-.2.2-.4.3-.6.3-.801.2-1.602.6-2.302 1.1-.7.301-1.3.901-2.101 1.001-.4-.1-.6-.3-.6-.7 0-.7.5-1 1-1.3 2.902-2.202 6.104-4.003 9.306-5.604 1.2-.6 2.601-.9 3.902-1.1.5-.1.9-.1 1.3-.301z"/>
    <path fill="#38C28D" d="M1.5 60.835l-1-1v-1.001c.1-.2.2-.4.5-.2 0 .6-.2 1.2.601 1.5.4.2.1.501-.1.701z"/>
    <path fill="#65C18E" d="M49.13 0c.2.7.901.3 1.301.7-.2.3-.5.3-.8.3-.4-.3-1.301-.1-1.301-1h.8z"/>
    <path fill="#D3EAD9" d="M1 58.637c-.2.1-.3.2-.5.2v-1.2h.2c.4.2.5.5.3 1 0-.1 0 0 0 0z"/>
    <path fill="#06C28A" d="M26.316 79.55c.6-1.101 1.801-1.901 2.502-3.403-1.401.701-2.502 1.001-3.803.901-.2.1-.4.1-.6 0 .6-.6 1.401-.4 2.101-.7 1.802-.6 3.403-1.701 5.504-2.202-.6.7-.9 1.501-1.601 1.901-.9.5-.9 1.602-1.601 2.302-.8.7-1.401 1.3-2.502 1.2z"/>
    <path fill="#0DC189" d="M24.215 18.214c.1-.1.1-.2.2-.2.6-.3 1.501-.901 1.902-.2.5.8-.6.9-1.001 1.4-.1.2-.4.3-.6.4-.2.2-.5.4-.8.6-.401.401-1.002.501-1.302 1.001-.2.3-.5.6-.7.901l-.5.5c-.1.1-.2.1-.3.1-.6.1-.701.8-1.101 1-.5.101-1 .701-1.501 0-.2-.7.4-1 .8-1.4.9-.7 1.801-1.4 2.602-2.201.3-.2.6-.4.8-.6.2-.2.5-.4.8-.601.301 0 .601-.3.701-.7z"/>
    <path fill="#12C189" d="M19.211 16.913c.1-.1.2-.1.3-.2.3.4.4.7 0 1-.4.301-.8.701-1.2 1.001-.5.3-.6.901-.9 1.301-.301.3-.701.4-.901.8-.5.601-1.301.801-1.902 1.301-.3.2-.6.2-.9 0-.8-.9.4-1 .6-1.6 1.201-1.001 2.502-1.902 3.703-2.902.4-.1.8-.3 1.2-.7z"/>
    <path fill="#05C28A" d="M7.204 34.618c1.9-2.001 3.802-4.003 6.203-5.303-.3 1.3-1.6 1.8-2.201 2.801-1 .5-1.801 1.201-2.602 2.002-.4.4-.8.9-1.4.5zM13.707 28.916c0-.7.801-.9 1.001-1.501v-.2c.1-.4.5-.5.7-.7.7-.3.801-1.101 1.501-1.401.3-.2.5-.5.901-.5.3 0 .6-.2.9-.2.2 0 .3.1.4.3-.4.5-.9.9-1.2 1.5-.4.7-1 1.301-1.901 1.301-.3 0-.5.2-.6.4-.1 1-1.001.9-1.702 1z"/>
    <path fill="#18BE83" d="M18.21 19.712c.701-.6 1.502-1.2 2.202-1.701.3-.1.5 0 .6.2.1.8-.6 1-1 1.401-.6.6-1.601.8-1.801 1.801 0 .1-.1.2-.2.3-.1.1-.3.2-.5.3-1.001.3-1.702 1.101-2.502 1.501-.2.1-.4.2-.7.1-.2 0-.3-.2-.4-.4-.1-.7.5-1 .9-1.3.7-.4 1.3-1.001 1.9-1.602.501-.2.901-.7 1.502-.6z"/>
    <path fill="#12C088" d="M51.332 82.753c-.1-.6.3-1 .7-1.3 0 .7.3.9 1 .9 1.502.1 2.602-.8 4.003-1.1l.1.1c-.1.9-1.1 1-1.5 1.7-.601.1-1.001.6-1.602.8h-.5c-.8 0-1.3-.5-1.801-.9-.1 0-.3-.1-.4-.2z"/>
    <path fill="#5EBC84" d="M20.612 16.013c1.601-2.001 3.502-3.602 6.104-4.303.2.5-.2.5-.5.7-.5.3-.901.5-1.301.901-1.401.8-2.702 2.001-4.303 2.702z"/>
    <path fill="#05C289" d="M43.126 3.502c0 .2.1.4 0 .5-1.5.7-2.601 2.402-4.502 2.302-.2-.7.6-.6.7-1 1.2-1.001 2.401-1.502 3.802-1.802z"/>
    <path fill="#04C289" d="M19.412 54.33c-1.1 1.8-2.702 3.102-4.403 4.502.1-1.3.3-1.7 1.701-2.701.7-.1 1.2-.6 1.601-1.1.3-.301.5-.701.9-.701h.2z"/>
    <path fill="#0AC087" d="M39.423 5.2c.2.701-.5.601-.7 1.001-.2.1-.3.2-.5.2-.701-.3-.901.4-1.301.6-.4.401-.9.801-1.501.201-.2-.3.1-.5.2-.7.2-.1.3-.2.5-.3.2 0 .2-.1.3-.2.9-.4 1.801-1.101 3.002-.801z"/>
    <path fill="#06C28A" d="M24.614 81.748c.3-.7.801-1.301 1.301-1.801 0 .2 0 .6.1.6.9.3.5.8.2 1.2-.3.501-.4 1.201-1.2 1.102-.8-.1.2-.901-.4-1.101z"/>
    <path fill="#0FC18A" d="M58.235 82.448h-.2c-.5.1-.5-.2-.5-.6.6-.7-.6-.2-.4-.6l-.1-.1c.4-.3.7-.6 1.1-.801.3-.2.8-.4 1.2-.2.501.3-.1.6-.1.9-.1.4.2.3.401.4.2.4-.1.501-.3.701-.4.3-.7.2-1.1.3z"/>
    <path fill="#0AC087" d="M24.916 15.212c1.8-1.3 3.502-2.801 5.703-3.502-2.101 1.301-4.103 2.602-5.703 4.503-.4-.4 0-.7 0-1z"/>
    <path fill="#1ABD82" d="M14.008 31.42c-.6.4-1 1.001-1.5 1.501-.5.2-1.101.3-1.501-.3.1-.2.2-.3.2-.5 1.1-.2 1.6-1.4 2.701-1.5.7.2.4.5.1.8z"/>
    <path fill="#07C188" d="M29.617 30.62c-.5.8-1.1 1.3-1.8 1.701-.301.2-.701.1-.901-.2-.3-.3.2-.5.3-.7.7-.6 1.5-.7 2.401-.8z"/>
    <path fill="#10C28A" d="M19.011 26.618l.3.3c.1.2 0 .3-.1.4-.5.4-.9.8-1.4 1.2-.3.301-.501.1-.701-.1-.4-.3-.1-.5.1-.7.6-.3 1.1-.8 1.801-1.1z"/>
    <path fill="#05C28A" d="M11.007 32.62c.5-.1 1.001 0 1.501.3-.9.8-1.9 1.5-3.202 1.2.3-.8 1.301-.7 1.701-1.5z"/>
    <path fill="#2EBB81" d="M29.119 9.503c.2-.3.4-.5.7-.6.3.1.7 0 1-.1.2 0 .3.1.5.1.2.1.601-.2.601.4-.8.5-1.7 1-2.501 1.5-.3.1-.4 0-.6-.2-.2-.5.4-.7.3-1.1z"/>
    <path fill="#3BBF87" d="M75.245 14.01v.2c-.4.2-.4.7-.7 1.001-.2-.1-.3-.3-.5-.5-.1-.9-.7-1.2-1.501-1.2.5-.201 1-.601 1.5-.701.601-.1.701.4.701.9.1.2.4.1.5.3z"/>
    <path fill="#45AB84" d="M21.213 77.544c-.3.9-1 1.5-1.501 2.301-.1.1-.2.1-.3.2-.2.1-.5.1-.7-.1-.2-.2-.2-.4-.2-.6.2-.4.3-.9.7-1.2.3-.201.6-.501 1-.701.1 0 .2-.1.3-.1.3 0 .5 0 .7.2z"/>
    <path fill="#0AC087" d="M20.413 25.215c1.5-1.2 3.002-2.401 4.703-3.202-1.301 1.401-2.902 2.402-4.503 3.502 0-.2-.2-.2-.2-.3z"/>
    <path fill="#0BC087" d="M87.252 47.325c.1.6.6 1.101 1 1.501-.8-.1-1.7-.4-2.4.3-.3-.5 0-.9-.1-1.3.5-.1 1-.5 1.5-.5z"/>
    <path fill="#1BBE85" d="M57.034 72.842c.6-.7 1.301-1.1 2.202-1.4-.6.5.1 1.6-.9 1.9-.301.3-.701.2-1.001-.1-.1-.1-.2-.2-.3-.4z"/>
    <path fill="#30BD84" d="M54.332 76.648c.1-.6.8-.9 1-1.401.2-.2.2-.5.4-.7.201-.2.401-.4.701-.4.1 0 .2.1.3.2 0 .2 0 .5-.1.7-.7.8-1.5 1.5-2.2 2.301-.301-.2-.201-.4-.101-.7z"/>
    <path fill="#05C289" d="M43.126 3.5c0-1.202.7-1.502 2.201-1.001-.5.9-1.4.7-2.201 1z"/>
    <path fill="#34BA7F" d="M24.914 15.212c.3.3 0 .7 0 1-.4.201-.7.701-1.2.801-.4.2-.901.8-1.001-.3.7-.5 1.5-1 2.201-1.5z"/>
    <path fill="#0FC18A" d="M62.138 80.252c-.4.8-1.1 1.3-1.801 1.7-.6-.1-.4-.5-.2-.8.4-.8 1.2-.8 2-.9z"/>
    <path fill="#35BE92" d="M19.51 78.246c-.2.4-.4.8-.8 1-.1.1-.2 0-.2 0-.2-.7.3-1 .6-1.5.3-.4.801-.701.901-1.301.2.2.4.3.6.5.1.2.1.3-.1.5-.4.3-.7.6-1 .8z"/>
    <path fill="#3EBE87" d="M85.752 17.213c1.1.1.7 1.201 1.2 1.802.2.3.3.7.7.9-.1.2-.2.4-.2.6-.1.1-.2.2-.4.3-.1 0-.2 0-.3-.1.3-1.2-.4-2.1-1-3.001-.1-.2-.1-.3 0-.5z"/>
    <path fill="#0AC087" d="M18.912 54.131c1-.7 2.001-1.3 3.002-2.001.1-.1.2-.1.2 0-.7 1-1.601 1.801-2.702 2.301-.1-.2-.4-.1-.5-.3z"/>
    <path fill="#2BBA7F" d="M31.92 9.209c-.2-.1-.3-.2-.5-.2-.1-.1-.1-.1-.1-.2s.1-.1.1-.1c.6-.4 1.2-.801 2.001-1.001.4 0 .4.2.2.5-.6.3-1.1.7-1.7 1z"/>
    <path fill="#10BF86" d="M81.049 29.416c.2.6.6.5 1 .4-.1.4-.5.4-.8.4-.5 0-1.1 1.001-1.401.3-.3-.5.6-.8 1.2-1.1z"/>
    <path fill="#12BF85" d="M18.911 54.134c.2.1.3.2.5.3-.5.4-1 .901-1.5 1.301-.4.3-.701.7-1.301.4 1-.6 1.6-1.4 2.301-2z"/>
    <path fill="#23BF86" d="M56.635 75.042v-.7c-.3-.6.2-.8.5-1.1.2-.101.4-.201.6-.401.2.2.4.5.7.5-.5.8-1.2 1.1-1.8 1.701z"/>
    <path fill="#0BC087" d="M4.703 62.134c-.8.2-.9-.9-1.7-.8-.501.2-1.001.2-1.101-.5.3.1.6.2.8.2 1-.1 2.001-.4 2.001 1.1z"/>
    <path fill="#08C28A" d="M51.63 22.915c.2-.1.501-.2.701-.3-.6 1-1.6 1.401-2.701 1.801.1-.7.6-.7 1-1 .3-.2.6-.4 1-.5z"/>
    <path fill="#04C28A" d="M18.21 19.713l-1 1c-.4.2-.9.7-1.001-.3l.7-.7c.3-.1.5-.6 1.001-.5.1.1.2.3.3.5z"/>
    <path fill="#1EB988" d="M14.81 74.342c-.6.4-1.2.8-1.901 1.2-.6-.1-.3-.5-.2-.8.7-.3 1.3-.8 2.1-.4z"/>
    <path fill="#1FBD82" d="M28.918 10.51c.2.1.3.2.5.2-.6.5-1.3.9-2 1.2-.2-.1-.4-.3-.3-.6.1-.1.2-.1.2-.2.4-.3.7-.8 1.3-.9l.3.3z"/>
    <path fill="#58BE89" d="M27.116 11.405l.3.6c-.8.4-1.6.801-2.4 1.301.2-1 1.3-.9 1.7-1.6.1-.1.3-.2.4-.3z"/>
    <path fill="#37C08A" d="M50.43 5.902c1.201.9.2 1.601-.3 2.401-.4-.9.3-1.6.3-2.401z"/>
    <path fill="#14BE84" d="M33.62 8.205c-.1-.2-.1-.3-.2-.5.6-.7 1.602-.6 2.202-1.201-.1.2-.1.5-.2.7-.6.4-1.2.7-1.801 1.001z"/>
    <path fill="#11BF85" d="M19.212 24.716h-.5c-.3-.3-1.302.1-1.001-.9.3-.3.6-.4 1-.1.5.4.9.1 1.201-.2.1-.2.3-.2.5-.1.2.5-.1.7-.5.8-.2.1-.5.3-.7.5z"/>
    <path fill="#D4EADA" d="M56.334 74.344c-.2.1-.3.3-.5.4-.2 0-.3.1-.5 0-.2.1-.2.5-.5.4-.1-.2-.4-.3-.2-.6.4-.3.7-.7 1.2-.8.4-.1.6.2.5.6z"/>
    <path fill="#0FC18A" d="M60.837 78.748l.5-.5c.1-.1.2-.1.301 0-.1 1.1-.7 1.6-1.801 1.5.1-.5.6-.7 1-1z"/>
    <path fill="#05C289" d="M19.912 24.213c.2-.3.3-.5.5-.8 0-.5.3-.8.801-.7h.2c-.3.3-.2.8-.4 1.1-.2.3-.5 1-1.1.4z"/>
    <path fill="#08C28A" d="M48.329 26.219c-.6.4-1.2.8-1.701 1.3.3-.9.8-1.3 1.7-1.3z"/>
    <path fill="#CAE5D0" d="M4.702 36.123c.4-.4.8-1 1.501-.7-.3.4-.7.8-1 1.3-.4 0-.6-.2-.5-.6z"/>
    <path fill="#34B97F" d="M23.715 19.413c-.3.2-.5.3-.8.5-.5.2-.7 0-.5-.5.2-.4.6-.5 1-.8.6.2.5.5.3.8z"/>
    <path fill="#58BE89" d="M22.714 16.713c.2.5.6.3 1 .3-.1.2-.2.3-.3.5-.4.4-.6 1.001-1.3.801-.2-.2-.2-.5-.2-.7.1-.1.1-.2.2-.3.2-.3.4-.5.6-.6z"/>
    <path fill="#0AC087" d="M25.214 21.912c.5-.7 1.101-1.301 1.902-1.501-.5.8-1.101 1.3-1.902 1.5z"/>
    <path fill="#0CC28A" d="M12.408 44.627c.5-.7 1.4-1 2.001-1.601-.4.9-.8 1.6-2.001 1.6z"/>
    <path fill="#15BE84" d="M23.715 19.413c-.1-.3-.2-.5-.3-.8.2-.3.4-.4.7-.5.4.1.9.2.3.7-.2.3-.5.5-.7.6z"/>
    <path fill="#76B296" d="M11.707 76.346c-.2.3-.5.8-.7 0-.1-.4-.5-.2-.6-.5.8.1 1.3-.6 2-.8.301.7-.6.7-.7 1.3z"/>
    <path fill="#94D5B2" d="M88.453 49.827c0 .5.2.8.5 1.1-.1.3.1.601-.2.801-.1.2-.2.4-.4.4s-.3-.3-.3-.5c.3-.6 0-1.3.4-1.801z"/>
    <path fill="#39BD85" d="M14.708 38.325c-.6.4-1.2 1-2.001 1.1.5-.7 1.1-1.1 2.001-1.3v.2z"/>
    <path fill="#16BE84" d="M64.84 16.21c-.5.6-1.201.9-1.902 1.3.4-.6 1.001-1 1.701-1.3 0-.1.1-.1.2 0z"/>
    <path fill="#26C08A" d="M24.415 77.046h.6c-.5.5-1.1 1.001-1.9 1.001-.1-1.1 1-.5 1.3-1z"/>
    <path fill="#9ECBA2" d="M52.33 81.047c-.4 0-.7-.2-.4-.6.3-.3.6-.7.801-1 .2 0 .3.2.4.4-.2.4-.5.8-.8 1.2z"/>
    <path fill="#09C087" d="M44.427 28.72c.3-.5.7-.9 1.501-1-.4.7-.9 1-1.5 1z"/>
    <path fill="#89CEA5" d="M82.249 61.537c-.1.9-.8 1.2-1.501 1.601.4-.7.5-1.5 1.5-1.6z"/>
    <path fill="#6DC595" d="M87.252 47.327c-.4.5-.8.9-1.501.5v-.5c.5.1 1-.4 1.5 0z"/>
    <path fill="#0EC087" d="M22.114 17.21v.301c-.4.3-.5 1.1-1.3.7-.2-.1-.3-.2-.501-.2.6-.6 1.1-1 1.801-.8z"/>
    <path fill="#2EBB81" d="M17.911 36.424c-.4.4-.9.7-1.5.7.3-.6.9-.8 1.5-1 .1.1.2.1 0 .3.1-.1.1 0 0 0z"/>
    <path fill="#24BA8B" d="M21.914 78.55c-.6.701-1.101 1.401-2.002 1.802.5-.9 1.301-1.401 2.002-2.102.1.1.1.1 0 .3.1-.1 0 0 0 0z"/>
    <path fill="#34C08A" d="M71.843 71.84c-.5.5-1.1 1-1.8 1.3.2-1 .9-1.4 1.8-1.3z"/>
    <path fill="#AADEC3" d="M60.337 10.21c.4.5.3 1.1.3 1.6 0 .6-.4.6-.8.4.2-.6.7-1.2.5-2z"/>
    <path fill="#86C394" d="M1 58.532c-.1-.3-.2-.7-.3-1 .1-.2.2-.5.3-.7.3-.1.4 0 .5.2.2.7-.2 1.1-.5 1.5z"/>
    <path fill="#11BF85" d="M61.638 78.349h-.3c.2-.8.8-1 1.5-1.2-.4.3-.8.7-1.2 1.2z"/>
    <path fill="#C0E2CB" d="M4.703 36.123l.6.6c-.1.2-.2.3-.3.501-.2.4-.5.6-.9.3-.2-.4.1-.6.2-.9 0-.3.2-.4.4-.5z"/>
    <path fill="#0EC086" d="M21.713 19.71h.5c.1.1.1.2.1.3-.3.401-.6.801-1.2.901-.601-.1-.701-.5-.501-1.1.3-.3.6-.8 1.1-.1z"/>
    <path fill="#AFDCBF" d="M54.633 74.545c.1.2.1.4.2.6-.4.3-.7.8-1.3.6.2-.6.6-.9 1.1-1.2z"/>
    <path fill="#48B28B" d="M11.707 76.35c-.2-.701.6-.801.8-1.302l.3-.3c.1.3.1.5.2.8-.3.401-.9.501-1.3.801z"/>
    <path fill="#91CAA0" d="M53.232 79.847c-.1-.1-.3-.2-.4-.4-.3-.701-.1-1.101.5-1.502.2.2.1.4.1.6 0 .301-.1.601-.1 1.001 0 .1-.1.2-.1.3z"/>
    <path fill="#10C28A" d="M14.008 31.419c.1-.3.2-.5 0-.8v-.2c.4-.1.7-.701 1.201-.501-.2.7-.5 1.3-1.2 1.5z"/>
    <path fill="#26BC81" d="M22.414 21.216c.3-.6 1-.7 1.5-1 .1.1.201.2 0 .3-.4.3-.8.7-1.3 1-.1 0-.2-.1-.2-.3z"/>
    <path fill="#05C28A" d="M14.708 29.621c.3-.4.6-.8 1.2-.9 0 .5-.4.7-.6.9-.2.2-.4.2-.6 0z"/>
    <path fill="#C8DEC5" d="M57.635 72.747c0 .2 0 .4-.2.5-.5 0-.8 1.001-1.401.2.3-.2.7-.5 1-.7.2.1.4.1.6 0z"/>
    <path fill="#23BC83" d="M39.924 8.005c-.5.4-1 .7-1.801.9.5-.8 1.1-.9 1.8-.9z"/>
    <path fill="#3EBD85" d="M53.333 78.75v-.801c.3-.4.7-.9 1-1.301v.6c-.5.4-.8.9-.8 1.501 0 .2-.1.2-.2 0z"/>
    <path fill="#0EC086" d="M22.213 18.211c.4-.2.8-.5 1.2-.7-.1.7-.6 1.1-1.2 1.3-.1-.1-.1-.2-.1-.3 0-.2 0-.3.1-.3z"/>
    <path fill="#14C087" d="M21.714 19.715c-.3-.2-.5.1-.7.2-.1.1-.3.2-.5.1-.1-.1-.1-.2-.201-.3.2-.6.5-.9 1.1-1 .3 0 .401.2.501.5-.1.2-.1.3-.2.5z"/>
    <path fill="#68CCA0" d="M85.052 59.135c-.3.4-.6 1-1.2 1 .1-.7.4-1.2 1.2-1z"/>
    <path fill="#14BF86" d="M47.328 25.712c-.5.2-1 .3-1.7.6.4-.6.9-.8 1.4-.9.3-.1.4 0 .3.3z"/>
    <path fill="#9FDABB" d="M45.427 82.047c-.2.6-.6.8-1.201.8.2-.6.4-1 1.2-.8z"/>
    <path fill="#3CBE87" d="M60.136 81.252c.1.3.2.5.2.8-.2.3-.4.3-.7.3-.3.1-.5.1-.6-.3.2-.2.4-.3.5-.5l.6-.3z"/>
    <path fill="#19BD84" d="M36.922 9.607c-.4.6-.7.8-1.3 1.001.2-.5.6-.8 1.3-1z"/>
    <path fill="#AFD5B5" d="M18.712 72.34c-.1-.3-.2-.5-.4-.8.2-.3.5-.5 1.1-.4-.2.4-.5.8-.7 1.2z"/>
    <path fill="#DAF0E5" d="M18.712 38.726l-.3-.3c.4-.4.7-.8 1.3-.7 0 .6-.6.7-1 1z"/>
    <path fill="#15C28A" d="M83.951 46.624c.7-.4 1.2-.1 1.601.5-.7.3-1-.5-1.6-.5z"/>
    <path fill="#7CBD89" d="M60.838 78.75c-.2.501-.6.701-1 1.001-.201-.8.4-.9 1-1z"/>
    <path fill="#9ED1AB" d="M58.936 16.01c-.5.4-.8 1-1.6.9.4-.5.9-.9 1.6-.9z"/>
    <path fill="#95DBBE" d="M53.031 76.245c-.1.7-.7.9-1.2 1-.1-.3.2-.5.3-.7.3-.2.5-.4.9-.3z"/>
    <path fill="#DEEEE1" d="M56.035 73.541c.5.3.9-.2 1.4-.2-.3.3-.6.7-.8 1h-.2l-.6-.6c0-.1.1-.1.2-.2z"/>
    <path fill="#DCF1E6" d="M19.711 37.72c0-.6.5-.8.9-.9l.2.2c-.2.4-.6.7-1.1.7 0-.1 0 0 0 0z"/>
    <path fill="#30BB81" d="M81.35 42.225c-.2.3-.4.5-.8.7-.1-.1-.1-.2 0-.4.1-.3.2-.7.8-.3z"/>
    <path fill="#42C490" d="M53.032 76.249l-.9.3c.2-.5.5-.8 1-.5 0 .1-.1.1-.1.2z"/>
    <path fill="#31C48F" d="M23.214 86.055c.1-.8-.3-1.6.2-2.301 0 .8.2 1.6-.2 2.301z"/>
    <path fill="#85C799" d="M8.405 75.643c-.3-.2-.9.1-1-.6.2-.3.4-.5.8-.3.1.3.2.6.2.9z"/>
    <path fill="#0DC086" d="M18.71 35.625c.4-.3.801-.6 1.301-.7.1-.1.2-.1.2 0-.4.3-.8.7-1.2 1-.2-.1-.3-.1-.3-.3z"/>
    <path fill="#75D1AA" d="M55.533 7.708c.801-.3 1.501-.4 1.602.8-.4-.5-.901-.9-1.602-.8z"/>
    <path fill="#97DBBD" d="M27.417 91.257c-.5.1-.8 0-1.1-.5.8-.6.9.2 1.1.5z"/>
    <path fill="#C5E5D1" d="M14.709 29.62h.6c0 .1-.1.2-.1.2-.4.3-.7.7-1.2.5.1-.3.4-.5.7-.7z"/>
    <path fill="#08C28A" d="M47.328 25.715c-.1-.1-.2-.2-.2-.3.3-.3.6-.4 1.1-.3-.2.5-.5.5-.9.6z"/>
    <path fill="#32BF88" d="M83.65 60.333c-.1.7-.6.8-1.1 1 .1-.6.5-.9 1.1-1z"/>
    <path fill="#43B980" d="M14.708 38.32v-.2c.2-.3.4-.6.9-.5-.1.6-.6.6-.9.7z"/>
    <path fill="#24BA8B" d="M19.41 79.845h.201c.1.2.2.4.3.5-.1.4-.5.5-.8.8-.2.1-.3-.1-.4-.3 0-.5.4-.8.7-1z"/>
    <path fill="#90CDA4" d="M4.102 37.324c.3.1.6 0 .9-.2-.1.6-.4.7-.9.7-.2-.1-.3-.3 0-.5z"/>
    <path fill="#37B97F" d="M87.053 21.712c-.2.3-.2.6-.7.7.1-.3.1-.6.2-.9.3-.2.5-.2.5.2z"/>
    <path fill="#CFE9D7" d="M1.6 57.133c-.2-.1-.4-.2-.5-.2.1-.2.3-.3.4-.5.2 0 .4-.1.5.2 0 .2-.3.3-.4.5z"/>
    <path fill="#38C28D" d="M2.001 60.834c.2.4.7.4 1.1.5-.7.3-1.2.1-1.6-.5H2z"/>
    <path fill="#B9E2CB" d="M87.052 21.716c-.2-.1-.3-.2-.5-.3-.1-.3.1-.5.2-.7h.2c.4.1.6.3.5.7-.1.1-.3.2-.4.3z"/>
    <path fill="#3EC491" d="M4.102 37.322c0 .2-.1.4-.1.5-.2-.2-.4-.3-.5-.5.1-.4.3-.7.8-.8-.1.3-.2.6-.2.8z"/>
    <path fill="#22BD83" d="M20.212 34.923h-.2c.2-.4.6-.6 1.1-.8-.2.6-.6.6-.9.8z"/>
    <path fill="#08C28A" d="M49.83 25.117c-.1.3-.4.6-.5.4-.4-.3 0-.3.2-.4h.3z"/>
    <path fill="#1CBD82" d="M17.911 19.215c-.3.2-.7.3-1 .5.3-.5.7-.9 1.3-1-.1.2-.2.3-.3.5z"/>
    <path fill="#8BCCA3" d="M8.205 74.847c-.3.1-.5.2-.8.3h-.5c.4-.4.7-1.2 1.3-.3z"/>
    <path fill="#1ABD83" d="M36.923 7.003c.4-.3.5-1.1 1.2-.5-.4.1-.8.3-1.2.5z"/>
    <path fill="#0DC189" d="M27.616 17.51c-.1.1-.2.4-.5.3-.2-.1-.1-.3.1-.4.2-.2.5-.3.7-.4.1.2-.1.4-.3.5z"/>
    <path fill="#3DBB82" d="M49.13 9.709c.2 0 .3.1.5.1-.2.1-.3.2-.5.3-.2.1-.401.2-.501-.1 0-.2.3-.3.5-.3z"/>
    <path fill="#05C289" d="M22.413 21.216l.3.3c-.1.4-.4.5-.7.7 0-.4.1-.7.4-1z"/>
    <path fill="#19BF85" d="M25.816 33.02c.1-.3.2-.4.5-.5.1.5-.3.5-.5.5z"/>
    <path fill="#BBDDC2" d="M51.43 77.55c-.1.4-.3.8-.8.4.1-.3.4-.5.8-.4z"/>
    <path fill="#0DBF86" d="M86.152 23.813c-.2 0-.2-.1-.2-.3 0-.1.1-.1.2-.1s.2 0 .2.2c0 0-.2.1-.2.2z"/>
    <path fill="#D7ECE2" d="M20.413 77.545c0-.2 0-.3.1-.5.2.2 1-.6.7.4-.2.1-.5.1-.8.1z"/>
    <path fill="#20BF85" d="M39.925 8.003c.1-.3.3-.6.7-.6 0 .5-.5.4-.7.6z"/>
    <path fill="#F5F9F4" d="M22.314 35.92c-.2.5-.5.6-.9.7.1-.5.3-.7.9-.7z"/>
    <path fill="#18BD83" d="M20.413 25.218c.1.1.2.2.2.3-.2.1-.4.4-.7.3 0-.5.3-.5.5-.6z"/>
    <path fill="#39C999" d="M80.548 42.627v.4c-.2.3-.4.5-.8.701.1-.6.4-.9.8-1.1z"/>
    <path fill="#2BBD83" d="M18.711 35.623l.3.3c-.3.2-.7.3-1 .5v-.2c.2-.2.4-.4.7-.6z"/>
    <path fill="#95D3AF" d="M85.751 17.213v.5c-.3-.1-.7.1-1-.3.4-.1.7-.1 1-.2z"/>
    <path fill="#1EBE85" d="M21.914 19.209c-.2-.1-.3-.2-.5-.3 0-.5.2-.701.8-.5v.3c-.1.2-.2.3-.3.5z"/>
    <path fill="#30C491" d="M23.915 89.15c-.8-.2-.3-.9-.5-1.3.4.3.3.8.5 1.3z"/>
    <path fill="#8DD9B8" d="M75.245 18.91c.1.3.3.2.5.2-.2.3-.6.5-.9.2-.1-.1.2-.3.4-.4z"/>
    <path fill="#1BBF87" d="M85.753 34.524c-.1 0-.2.1-.3.1 0-.1-.1-.2-.1-.2.1-.1.2-.1.3-.2 0 .1.1.2.1.3z"/>
    <path fill="#31C48F" d="M23.415 87.853c-.8-.3-.4-.8-.2-1.3 0 .4.1.8.2 1.3z"/>
    <path fill="#45BA81" d="M22.213 19.91v-.3c.1-.1.2-.2.3-.2.1.3.2.4.5.5-.2.2-.5.4-.7.5-.3-.1-.3-.3-.1-.5z"/>
    <path fill="#26C08A" d="M21.914 78.545v-.3c.3-.3.6-.6 1-.2-.5-.2-.6.3-1 .5z"/>
    <path fill="#0CC28A" d="M11.407 45.327c.3-.3.6-.7 1-.8-.2.5-.5.8-1 .8z"/>
    <path fill="#0BC087" d="M58.334 12.11c-.2.1-.3.1-.4.2-.1 0-.1-.1-.2-.1.1-.1.1-.2.2-.2.1-.1.2 0 .4.1z"/>
    <path fill="#C6E3CD" d="M49.63 1.004c.2-.1.5-.2.7-.3 0 .7-.4.4-.7.3z"/>
    <path fill="#3ABA80" d="M23.915 20.515v-.3c.2-.3.4-.4.8-.5-.1.4-.4.6-.8.8z"/>
    <path fill="#0EBF86" d="M34.42 11.61c-.2 0-.3 0-.2-.2 0-.1.2-.2.3-.2.1 0 .2 0 .2.2-.1 0-.2.1-.3.2z"/>
    <path fill="#C4E6D3" d="M67.04 54.835c-.2.2-.4.5-.8.4 0-.4.3-.5.6-.6.1 0 .2.1.2.2z"/>
    <path fill="#3BC089" d="M59.336 10.41c-.1.1-.1.2-.2.3-.1-.1-.1-.2-.2-.3 0 0 .1-.1.1-.2.1 0 .2.1.3.2z"/>
    <path fill="#05C289" d="M23.814 22.015l-.2-.2c.1-.1.2-.2.4-.2l.1.1-.3.3z"/>
    <path fill="#12BE84" d="M36.422 6.004c.1 0 .5-.1.3.2-.1.2-.4.2-.6 0 .1-.1.2-.1.3-.2z"/>
    <path fill="#48C797" d="M88.854 51.628c0-.3 0-.6.2-.8.2.3.3.7 0 1-.1 0-.2-.1-.2-.2z"/>
    <path fill="#12C088" d="M55.633 81.151c-.1.1-.2.2-.4.3l-.1-.1.3-.3c0-.1.1 0 .2.1z"/>
    <path fill="#10C38C" d="M31.42 8.705v.2h-.5c-.301 0-.601-.1-.501-.5.2-.1.3-.2.5-.4.1.4.3.5.5.7z"/>
    <path fill="#ADE0C7" d="M51.63 22.915c-.3.3-.6.5-1 .5.2-.3.4-.6.7-.8l.3.3z"/>
    <path fill="#2DBD84" d="M22.213 52.132h-.2c.2-.3.3-.5.7-.6 0 .4-.3.4-.5.6z"/>
    <path fill="#40C38F" d="M67.441 53.732c-.1.1-.2.1-.3.2 0 0-.1-.1-.2-.1.1-.1.1-.2.2-.3 0 0 .1 0 .3.2z"/>
    <path fill="#1DBE83" d="M23.714 50.93c0-.1-.1-.2-.1-.2 0-.1.1-.1.2-.2 0 0 .1.1.2.1-.2.1-.2.2-.3.3z"/>
    <path fill="#2DBB81" d="M27.616 17.51c.1-.2.2-.3.3-.5.1 0 .3.1.3.3-.1.2-.3.3-.6.2z"/>
    <path fill="#EEF7F1" d="M67.041 54.835l-.2-.2c.2-.2.5-.4.7-.5v.4c-.1 0-.3.2-.5.3z"/>
    <path fill="#15C28A" d="M82.15 46.83c.4-.3.9-.2 1.3-.2-.3.3-.8.3-1.3.2z"/>
    <path fill="#22BD83" d="M53.331 78.75h.2c0 .3 0 .501-.2.801-.2-.2-.1-.5 0-.8z"/>
    <path fill="#05C289" d="M22.113 23.01c-.1.1-.2.2-.3.2 0-.1-.1-.1-.1-.2s.1-.1.2-.2c0 .1.1.2.2.2z"/>
    <path fill="#B5DCC1" d="M74.044 14.712c.3 0 .4.2.5.5-.2.1-.3.3-.5.2-.2-.2 0-.5 0-.7z"/>
    <path fill="#16BE84" d="M64.84 16.209h-.301c.2-.1.4-.5.7-.3.1.2-.2.2-.4.3z"/>
    <path fill="#1BBA89" d="M18.41 79.251h.2c.1.2.2.3.3.5.3.4 0 .6-.1.9-.2.701-.9 1.302-.9 2.102 0 .2-.2.2-.4.2-.5.2-.5 1.501-1.301.7-.8-.7-.5-1.9.3-2.6.3-.201.7-.101.8-.401.4-.4.701-1 1.101-1.401z"/>
    <path fill="#9EC99F" d="M53.633 83.554c.1 0 .3-.1.4-.1.2.2.2.3.2.6-.5.7-1.3.2-1.9.5-.701-.4-.801-1.1-1.001-1.8.2 0 .3 0 .5.1.6.2 1 1.1 1.801.7z"/>
    <path fill="#97C4AE" d="M17.91 82.848c-.5-.9.3-1.501.7-2.102.101-.1.201 0 .201.1l.3.3c-.3.501-.7 1.101-1.2 1.702z"/>
    <path fill="#64B797" d="M18.412 79.251c-.2.6-.4 1.2-1.001 1.5-.1-.7.1-1.4 1-1.5z"/>
    <path fill="#36BE86" d="M57.835 81.853c.1.2.1.4.2.7-.2.2-.5.5-.9.5-.1.101-.3.101-.4 0-.1-.2-.2-.4-.1-.6.3-.4.5-1 1.2-.6z"/>
    <path fill="#CAE4D0" d="M59.036 82.05c.1.3.4.2.6.3-.4.5-.8.9-1.3.2.1-.3.4-.4.7-.5z"/>
    <path fill="#CBDDC4" d="M54.334 84.353c.2.4 0 .6-.4.7-.3 0-.701.1-.601-.5.1-.2.4-.3.6-.4h.3c.1.1.1.1.1.2z"/>
    <path fill="#CFE1CB" d="M56.333 83.853c-.5.6-.6-.1-.9-.3-.1 0-.1-.1-.2-.1 0-.1 0-.2.2-.3.2-.1.5-.2.7-.1.2.1.3.2.3.4.1.2 0 .3-.1.4z"/>
    <path fill="#DAE7D4" d="M54.133 84.25c-.3.1-.5.2-.8.2h-1c.6-.3 1.1-.5 1.8-.5 0 .1.1.2 0 .3z"/>
    <path fill="#83C08E" d="M55.434 83.549c-.1.7-.5.8-1.1.8l.1-.1c-.2-.9.3-.9.9-.7h.1z"/>
    <path fill="#95CDA5" d="M87.553 21.417c-.2-.2-.3-.5-.5-.7l.2-.2c.2-.1.4.1.5.2 0 .3.1.5-.2.7z"/>
    <path fill="#33BB81" d="M87.752 20.712c-.2 0-.4 0-.5-.2.1-.2.2-.4.4-.5.2.2.2.4.1.7z"/>
    <path fill="#93C89C" d="M56.335 83.85v-.3c.1-.2 0-.7.5-.5h.3c0 .5-.4.7-.8.8z"/>
    <path fill="#E0EBDC" d="M75.246 14.012c-.3-.1-.6.3-.8 0l.3-.3c.2.1.3.2.5.3z"/>
    <path fill="#CDE5D1" d="M55.433 74.747c.2-.1.3-.4.5 0l-.5.5c-.1-.1-.1-.3 0-.5z"/>
    <path fill="#0CC38B" d="M12.707 27.615c-.2 0-.3 0-.5.1-.3-.3-.2-.5 0-.8.2-.1.3-.1.5-.2l1-1.001c.2-.5.3-1 .8-1.2.401-.1.601-.401.801-.701l.3-.6c.2-.2.5-.4.801-.6.1 0 .2-.101.3-.101.2-.1.3-.1.5-.1s.4.1.5.2c.1.2.1.3.1.5-.3.5-.6.8-.7 1.401-.3.5-.8.8-1 1.301-.2.5-.7.6-1.1.9-.601.5-1.402.901-2.302.901z"/>
    <path fill="#3ABD85" d="M15.208 22.212l-1 1c-.2.401-.6.601-.9 1.001-.1.1-.1.2-.2.3-.1.1-.201.2-.401.3-.5.3-.9.701-1.401 1.001-.5.3-.8.8-1.6.7.1-1.3 1.5-1.6 2-2.6.1-.501.7-.601.9-1.102.301-.4.601-.6 1.101-.6.3-.1.5-.2.801-.3.5-.5.9-.5.7.3z"/>
    <path fill="#E4F2E8" d="M16.71 22.912c-.2.3-.4.5-.7.5-.4.2-.6.6-1 .801-.1 0-.2 0-.3-.1-.1-.2-.2-.3-.2-.5l-.1-.1.1-.1c1-.7 1.9-1.501 2.9-2.002.401.3.201.6 0 .9-.1.101-.2.101-.3.201-.1.2-.3.3-.4.4z"/>
    <path fill="#2FC089" d="M13.708 22.015c-.2.4-.6.7-1 .7-.1.1-.2 0-.2 0 .3-.9 1-1.6 1.8-2.101-.2.5-1 .7-.6 1.4z"/>
    <path fill="#30C088" d="M12.707 27.615c.8-.3 1.6-.7 2.201-1.2.1.1.2.2.2.3 0 .3-.3.5-.4.8-.7-.4-1.2.7-2.001.1z"/>
    <path fill="#C8E2CB" d="M14.71 24.718c-.3.3-.4.9-1 1-.401-.8.1-1.2.8-1.5.2.1.4.2.2.5z"/>
    <path fill="#08C189" d="M14.508 23.417v.2c-.4.3-.8.5-1.2.8-.1 0-.2-.1-.2-.2.3-.5.6-.9 1.2-1l.2.2z"/>
    <path fill="#60C492" d="M28.718 10.51c-.4.3-.7.7-1.301.7.2-.4.4-.8.8-1 .3-.2.5-.2.5.3z"/>
    <path fill="#30C088" d="M12.508 27.017c-.1.2-.2.5-.3.7-.5.301-.7.201-.8-.5.4-.1.6-.7 1.1-.2z"/>
    <path fill="#1CBF87" d="M30.419 8.505l.5.5c-.4.5-.7.4-1-.1.1-.2.2-.4.5-.4z"/>
    <path fill="#A2CFAA" d="M19.212 16.909c-.1.7-.5 1-1.201.8.2-.5.6-.7 1.2-.8z"/>
    <path fill="#58C28E" d="M28.717 10.506c-.2-.1-.3-.2-.5-.3.2-.4.6-.5 1-.7.4.4-.1.7-.2 1h-.3z"/>
    <path fill="#D2E9D8" d="M12.407 22.717h.2c0 .6-.6.7-.9 1 0-.5.3-.8.7-1z"/>
    <path fill="#BBE0C7" d="M14.709 24.716c-.1-.2-.2-.3-.2-.5.1 0 .1-.1.2-.1h.3c.2-.4.4-.5.8-.2-.2.5-.6.8-1.1.8z"/>
    <path fill="#64C08D" d="M12.508 27.015c-.4.1-.7.1-1.1.2.3-.5.8-.6 1.4-.5l-.3.3z"/>
    <path fill="#1BBE86" d="M13.008 24.218c.1.1.1.2.2.2-.1.1-.2.1-.3.2v-.1c.1-.1.1-.2.1-.3z"/>
    <path fill="#1ABF87" d="M13.009 24.515v.1h-.2s.1-.1.2-.1z"/>
    <path fill="#42BB82" d="M22.213 19.91v.5c-.7.901-1.701 1.402-2.502 2.202-.2.1-.4 0-.5-.2-.1-.2-.1-.4-.1-.6.1-.2.2-.3.3-.5.5-.3 1.101-.701 1.701-.801.3-.2.7-.4 1.101-.6z"/>
    <path fill="#24BF86" d="M19.412 22.513c.1.1.2.1.3.2l-1 1c-.3.1-.6.2-1 .3-.101.4-.201.801-.801.5.1-.5.3-.9.7-1.3.4-.1.4-.5.8-.7.4-.1.7-.4 1.001 0z"/>
    <path fill="#31BB81" d="M21.213 22.71c-.3.2-.5.5-.8.701h-.5c.4-.6.8-1 1.7-1.601-.2.5-.3.7-.4.9z"/>
    <path fill="#1EBE85" d="M15.21 22.213c-.2-.3-.4-.6-.8-.5.5-.5 1.1-.9 1.7-1.2.2.4.6.3 1 .3-.5.5-1.1 1.1-1.9 1.4z"/>
    <path fill="#22BC81" d="M16.91 24.413c.3-.2.5-.3.8-.5.2.4 1.101-.1.901.7-.3.1-.5.2-.8.2-.4 0-.7.3-1.001.5-.3.2-.5.501-.9.3-.2-.8.7-.7 1-1.2z"/>
    <path fill="#79C190" d="M16.01 25.716c.3-.2.5-.3.8-.5.3-.2.4 0 .5.2-.7.3-.8 1.2-1.6 1.4-.2 0-.5.1-.7-.1v-.3c.3-.2.6-.5 1-.7z"/>
    <path fill="#48BA80" d="M17.21 25.413c-.2-.1-.3-.1-.5-.2.3-.3.7-.6 1.2-.3-.2.2-.5.3-.7.5z"/>
    <path fill="#D1E9D8" d="M14.908 26.713c.2 0 .5-.1.7.1l-.9.6c-.1-.3.1-.5.2-.7z"/>
    <path fill="#5EBA82" d="M22.214 18.411c-.3.1-.6.3-.8.5-.4.3-.701.6-1.001 1.001-.3.9-1.1 1.1-1.801 1.601-.3.2-.5 0-.7-.3.2-1 1.2-1.2 1.8-1.801.4-.4.9-.7 1.201-1.201.4-.2.7-.7 1.3-.7V18.41z"/>
    <path fill="#1EBE85" d="M17.911 21.211c.7.3.9-.3 1.301-.6.4-.2.6-.6 1.1-.7.1.8-.3 1.3-1 1.7-.4.3-.8.801-1.4.5-.2-.2-.3-.5-.1-.7.1-.1.1-.2.1-.2z"/>
    <path fill="#54C18D" d="M17.91 21.411c.1.2.1.4.2.6.3.501-.1.601-.4.701h-.5l-.1-.1.1-.1c.1-.3.2-.6.2-1 .2-.1.4-.1.5-.1z"/>
    <path fill="#82C698" d="M56.033 83.249h-.7c-.1-.3.2-.4.2-.6.3-.601 1.1-.801 1.501-1.401.3.1 1-.4.7.5-.4.2-.7.5-1.1.7 0 .4-.2.7-.6.8z"/>
    <path fill="#B1D2B1" d="M55.533 82.651c-.1.2-.2.4-.2.6v.301c-.4.1-.8.2-.9.7h-.3v-.2-.6c.4-.4.8-.7 1.4-.8z"/>
    <path fill="#45BE87" d="M53.633 83.554c-1.1.9-1.3-.2-1.8-.8.7 0 1.2.6 1.8.8z"/>
    <path fill="#40AA81" d="M18.91 80.852c-.1 0-.2 0-.2-.1.1-.3.2-.6.3-1h.501c-.1.4-.3.8-.6 1.1z"/>
    <path fill="#BFDCCF" d="M19.512 78.247c.2-.4.5-.7 1-.7-.2.4-.5.8-1 .7z"/>
    <path fill="#31BC82" d="M19.412 21.411c.3-.5.7-1 1-1.5h.501c-.1.3-.3.6.2.7-.5.4-.9.9-1.5 1-.2.1-.2 0-.2-.2z"/>
    <path fill="#B4D8B9" d="M56.034 83.25l.7-.7c0 .2 0 .3.1.5l-.5.5-.3-.3z"/>
    <path fill="#24BE86" d="M19.41 21.411l.201.2c-.1.2-.1.3-.2.4-.3.3-.4.701-.7 1.001-.3.2-.6.6-1.001.2v-.5c.1-.2.3-.5.4-.7.4-.2.9-.4 1.3-.6z"/>
    <path fill="#BDDABD" d="M15.81 24.016c-.3.1-.5.1-.8.2.1-.6.4-.8 1-.7-.1.1-.1.3-.2.5z"/>
    <path fill="#50BB83" d="M16.71 22.912c0-.2 0-.4.2-.5.1 0 .1.1.1.2s0 .2-.1.2c0 .1-.1.1-.2.1z"/>
    <path fill="#97CDA5" d="M17.01 22.914v-.2c.1-.1.2-.1.2 0-.1.1-.2.1-.2.2z"/>
    <path fill="#3BB87E" d="M17.21 22.712h-.2v-.2c.1 0 .2 0 .2-.1v.3z"/>
    <path fill="#A4D0AB" d="M18.71 22.912c.1-.5.1-.9.7-1 0 .2 0 .4.101.5-.3.2-.6.4-.8.5z"/>
</svg>
