<svg id="Layer_1" data-name="Layer 1" xmlns="http://www.w3.org/2000/svg" viewBox="0 0 580.72 122.61"><defs><style>.cls-1,.cls-3{fill:#637178;}.cls-2{fill:#fff;}.cls-3,.cls-4{fill-rule:evenodd;}.cls-4{fill:#59676e;}</style></defs><title>icon@2x</title><path id="Path_1173" data-name="Path 1173" class="cls-1" d="M487,53h14.19v3.58H497.1v8.18H491V56.58h-4Zm28.64,0h14.19v3.58h-4.09v8.18h-6V56.58h-4.09Zm-16,11.76h5.75L508.35,58l2.94,6.9h5.76l-5.88-11.75h-5.88Zm28.51,0h5.75L536.86,58l2.95,6.9h5.88L539.8,53.13h-5.88l-5.75,11.63Z"/><path id="Rectangle_1364" data-name="Rectangle 1364" class="cls-1" d="M563.07,53.51H566V64.76h-2.94Z"/><path id="Path_1441" data-name="Path 1441" class="cls-1" d="M576.63,54.53a1.24,1.24,0,0,0-1.15-.89,10.24,10.24,0,0,0-2.82,0,1.83,1.83,0,0,0-1.4,1.15l-3.84,9.84h2.94l1.15-2.94h5.12l1.15,3.07h2.94Zm-4.48,5.25,1.28-4a.28.28,0,0,1,.26-.25c.13,0,.38.13.38.25l1.41,4Z"/><path id="Path_1175" data-name="Path 1175" class="cls-1" d="M548.88,66.81H550v3.83h3.07v.76h-4.22Zm9.72,0h1.15V71.4H558.6Zm7,0h4.22v.76h-2.94v1h2.43v.76h-2.43v2h-1.28Zm10,0h4.48v.76h-3.2v1H580v.76h-3.07v1.28h3.2v.76h-4.47V66.81Z"/><path id="Path_1442" data-name="Path 1442" class="cls-1" d="M558,54.53a1.23,1.23,0,0,0-1.15-.89,10.17,10.17,0,0,0-2.81,0,1.85,1.85,0,0,0-1.41,1.15l-3.84,9.84h2.94l1.16-2.94H558l1.15,3.07h2.94Zm-4.35,5.25,1.41-4a.28.28,0,0,1,.25-.25c.13,0,.39.13.39.25l1.41,4Z"/><path id="Path_5488" data-name="Path 5488" class="cls-1" d="M380.7.08a10.11,10.11,0,0,1,9.65,7.33,10.62,10.62,0,0,1-3.94,11.7,9.82,9.82,0,0,1-12-.46,9.92,9.92,0,0,1-12.51,0,9.92,9.92,0,0,1-12.51,0,9.92,9.92,0,0,1-12.51,0,10.6,10.6,0,0,1-3.81-9.73A10.35,10.35,0,0,1,339.4.7a9.8,9.8,0,0,1,10,1.61,9.9,9.9,0,0,1,12.51,0,9.9,9.9,0,0,1,12.51,0A9.68,9.68,0,0,1,380.7.08ZM340,18a7.57,7.57,0,0,0,7.75-.93,10.82,10.82,0,0,1,0-12.95,7.49,7.49,0,0,0-9.23,0,8.16,8.16,0,0,0-3.15,7.39A8,8,0,0,0,340,18Zm20.26-.94a10.8,10.8,0,0,1,0-12.94,7.49,7.49,0,0,0-9.23,0,10.8,10.8,0,0,1,0,12.94A7.46,7.46,0,0,0,360.29,17.05Zm1.64-1.7a8.17,8.17,0,0,0,0-9.54,8.18,8.18,0,0,0,0,9.55Z"/><path id="Path_5489" data-name="Path 5489" class="cls-2" d="M349.42,15.36a8.18,8.18,0,0,1,0-9.55A8.18,8.18,0,0,1,349.42,15.36Zm23.38,1.7a7.49,7.49,0,0,1-9.23,0,10.47,10.47,0,0,0,2.16-6.48,10.46,10.46,0,0,0-2.16-6.47,7.49,7.49,0,0,1,9.23,0,10.51,10.51,0,0,0,0,12.94Z"/><path id="Path_5490" data-name="Path 5490" class="cls-2" d="M374.44,15.36a8.18,8.18,0,0,1,0-9.55A8.53,8.53,0,0,1,374.44,15.36Z"/><path id="Path_5491" data-name="Path 5491" class="cls-2" d="M380.7,18.54A7.38,7.38,0,0,1,376.08,17a10.43,10.43,0,0,0,2.15-6.47A10.41,10.41,0,0,0,376.08,4a7.55,7.55,0,0,1,7.75-.94,8,8,0,0,1,4.63,6.5A8.15,8.15,0,0,1,385.31,17a7.36,7.36,0,0,1-4.62,1.59Z"/><path id="Path_5497" data-name="Path 5497" class="cls-3" d="M492.28,5.3h8v8l5.26,5.28V0c-1.53,0-3.13,0-4.64,0H487.28L487,0Z"/><path id="Path_5498" data-name="Path 5498" class="cls-4" d="M505.55,18.59l-5.26-5.28h-8v-8L487,0V18.52c0,.07,0,.07.13.07Z"/><path id="Path_5499" data-name="Path 5499" class="cls-3" d="M567.46,7.4A5.84,5.84,0,0,1,567.73,5a2.26,2.26,0,0,1,.55-.78,2.86,2.86,0,0,1,2-.68c1.94,0,2.09,1.21,1.78,1.3s-.65-.24-1.33.1c-.84.42-.87,1.61-.78,2.43h1.81c0,.37.06.72-.2.92a.65.65,0,0,1-.47.13H570v5.38A1.32,1.32,0,0,1,569,15a2.13,2.13,0,0,1-.6.12c-.35,0-.76.07-.85-.37,0-.29,0-1.89,0-2.32-.08.05-.47.38-.71.54-.85.56-2.59,1.38-3.65.84a1.82,1.82,0,0,1-.83-1.58V7.65a.45.45,0,0,1,.47-.42h0c.63,0,1.88.19,2,.91v3.52a.87.87,0,0,0,.19.54c.58.74,2-.4,2.46-.78v-3h-1.06c0-.36-.06-.82.32-1A3.29,3.29,0,0,1,567.46,7.4Zm3.84,3.48v0a3.38,3.38,0,0,1,.1-.7,2.81,2.81,0,0,1,.7-1.33,4.58,4.58,0,0,1,2.35-1.3c1.15-.23,3-.34,3.86.67a1.8,1.8,0,0,1,.28.51,2.56,2.56,0,0,1,.13.67,2.26,2.26,0,0,1-1.63,2.17,3.08,3.08,0,0,1-1.8.16,1.62,1.62,0,0,1-.41-.17,1.22,1.22,0,0,1-.52-.62,3.38,3.38,0,0,0,1.53-.4,1.06,1.06,0,0,0,.63-1.19c-.21-.7-1.23-.62-1.72-.32l-.1.07a2.33,2.33,0,0,0-.32,3.28,1.66,1.66,0,0,0,.59.34,4.23,4.23,0,0,0,3.13-.49c.34-.16.41-.28.63-.28a.46.46,0,0,1,0,.48,1.45,1.45,0,0,1-.24.35,3.57,3.57,0,0,1-.67.55,4.24,4.24,0,0,1-2.16.63,7.81,7.81,0,0,1-2.1-.22,2.66,2.66,0,0,1-2.26-2.88ZM555.29,5V5c0-.34.23-.48.57-.48.7,0,2,.32,2,1.17v6.7H561c.94,0,.78.76.78,1.59h-5.85a.69.69,0,0,1-.63-.63Zm6.84.36a1.13,1.13,0,0,1,.51-.85,1.6,1.6,0,0,1,1-.28,2,2,0,0,1,.55.11A1.2,1.2,0,0,1,565,5.45c0,.84-.68,1.17-1.39,1.25a1.57,1.57,0,0,1-1-.3,1.06,1.06,0,0,1-.48-1.07Zm-51.81,9.35V4.32h3.44V8.2h3.44V4.32h3.48V14.68H517.2V10.53h-3.44v4.15Zm12.1-11v-.1c.58,0,1.08-.11,1.63-.11h3.39a4.61,4.61,0,0,1,3.62,1.68,5.19,5.19,0,0,1,.85,2.7,2.09,2.09,0,0,0,0,.5V9.8a5.35,5.35,0,0,1-1.31,3.73,5.88,5.88,0,0,1-3.78,1.15H524c-.51,0-1.06-.13-1.56-.13Zm3.27,8.63v0c2.6.05,2.84-.25,2.84-3.24a5.1,5.1,0,0,0-.4-2.67c-.42-.59-1.46-.52-2.44-.52Zm7.95,2.39V4.32h7.76v2a.33.33,0,0,1,0,.14c0,.11.05.11-.09.11H537V8.41h4.06v2H537v4.23Zm8.67-6.59h0c0-.16,0-.52.08-.77s.06-.47.11-.7A4.55,4.55,0,0,1,543,5.4c.87-1.74,2.83-2,4.8-1.95.62,0,1.08.07,1.65.07l1.47.2V6.05c-.53,0-1.15-.07-1.89-.07a5.43,5.43,0,0,0-2,.09,1.36,1.36,0,0,0-.62.37,2.38,2.38,0,0,0-.35.67,14.65,14.65,0,0,0-.15,3.1,2.84,2.84,0,0,0,.45,1.44,1.43,1.43,0,0,0,.53.41,13.41,13.41,0,0,0,4,0v2.11c0,.18,0,.18-.14.18a22.34,22.34,0,0,1-2.3.33h-.9l-1.22-.08a4.79,4.79,0,0,1-2.71-1,3.24,3.24,0,0,1-1-1.51,11.45,11.45,0,0,1-.37-3.95Z"/><path id="Path_5487" data-name="Path 5487" class="cls-3" d="M228.78,17.52l-.12-11H232V20.34h-4.74L223.92,8.93h-.12l.12,11.41h-3.36V6.49h5l3.24,11ZM168.35,7.9l-1.87,12.69h-3.62l2.5-14h6l2.49,14h-3.61L168.35,7.9ZM184,17.26l1.62-10.64h5.48l.25,14H188L187.86,8h-.12L185.5,20.6h-3.38L179.88,8h-.12l-.13,12.57h-3.36l.25-14H182Zm-26.77-.64c-.73-1.79-5.5-2.69-6-5.64a4.77,4.77,0,0,1,0-1.92C151.62,6.75,153.62,6,156,6c1.87,0,4.49.39,4.49,3.46v1h-3.37v-1a1.14,1.14,0,0,0-1.25-1,1,1,0,0,0-.81.16,1.05,1.05,0,0,0-.43.74v.76c.37,1.54,5.36,2.44,6,5.39a6.83,6.83,0,0,1,0,2.3c-.25,2.31-2.37,3.2-4.73,3.2S151,20,151,16.87v-1h3.61v1.54a1.28,1.28,0,0,0,.45.87,1.2,1.2,0,0,0,.92.28,1.09,1.09,0,0,0,1.25-.9,1.49,1.49,0,0,0,0-1Zm43.64-.13c-.62-1.68-5.4-2.56-5.85-5.38a4.82,4.82,0,0,1,0-1.93c.37-2.3,2.24-3.07,4.61-3.07,1.87,0,4.49.51,4.49,3.46v1h-3.37V9.44a1.22,1.22,0,0,0-1.25-1,1,1,0,0,0-.81.16,1.05,1.05,0,0,0-.43.74v.76c.38,1.67,5.36,2.44,6,5.39a6.83,6.83,0,0,1,0,2.3c-.37,2.31-2.36,3.2-4.73,3.2s-4.87-.9-4.87-4V16h3.62v1.41a1.24,1.24,0,0,0,1.37,1,1.09,1.09,0,0,0,1.24-.9,1.52,1.52,0,0,0,0-1Zm11.37,1.92a1.21,1.21,0,0,0,1.25-1V6.49h3.36v10.9c-.25,2.56-2.24,3.46-4.74,3.46s-4.48-.9-4.73-3.46V6.49h3.36v10.9a1.65,1.65,0,0,0,1.5,1Zm27.95-.12a1.24,1.24,0,0,0,1.37-1V14.7h-1.37v-2h4.74v4.61c-.25,2.57-2.37,3.47-4.74,3.47s-4.49-.9-4.74-3.47V9.57c.25-2.56,2.37-3.46,4.74-3.46s4.49.9,4.74,3.46V11h-3.37V9.7a1.24,1.24,0,0,0-1.37-1,1.37,1.37,0,0,0-1.37,1v7.56a1.31,1.31,0,0,0,1.37,1Z"/><path id="Path_5492" data-name="Path 5492" class="cls-1" d="M421.2,120.81h-2.46l-1.42-3.55h-5.56l-1.48,3.55h-4.39V107.44h2.34v13.25l5.69-13.25h1.79l5.49,13.17V107.45h2.26v11.78h5v1.59H421.2Zm-47.3-8.1v-5.26H382v1.47H376.2v4.21h5.5v1.55h-5.5v4.57h6.37v-11.8h2l7.87,9.86v-9.86H405.5V109h-4.3v11.86h-2.35V109h-4.66v11.88h-1.9l-8-9.79v9.79H373.9v-5.71c-.43,3-2.54,5.71-7.3,5.71h-4.78a6.29,6.29,0,0,0,1.91-1.48h2.95a4.53,4.53,0,0,0,2.7-.87,5.51,5.51,0,0,0,2.06-4.71,5.25,5.25,0,0,0-2.06-4.23,4.08,4.08,0,0,0-2.76-.66h-2.37v7a4.45,4.45,0,0,1-1.18,3.46,6.37,6.37,0,0,1-4.5,1.73c-3.72,0-5.92-1.75-5.92-4.88v-8.76h2.25v8.46a5.49,5.49,0,0,0,.17,1.56c.35,1.21,1.77,2,3.5,2,2.2,0,3.34-1.24,3.34-3.51v-8.49h5.56a7.51,7.51,0,0,1,3,.51,5.88,5.88,0,0,1,3.47,4.75Zm-25.84-5.25a5.25,5.25,0,0,1,1.85.22,3.6,3.6,0,0,1,2.46,3.59,3.77,3.77,0,0,1-2.36,3.52l3.92,6h-2.79l-3.41-5.45H345.4v5.45H343V107.45Zm-2.67,6.37h2.14c1.49,0,2.32-.83,2.32-2.54,0-1-.28-2.48-2.16-2.48h-2.3Zm-7.7-6.37a12.21,12.21,0,0,1,1.71,0c2.09.34,3.23,1.85,3.23,4.13a4,4,0,0,1-1.74,3.33,5.34,5.34,0,0,1-3.17.76h-2v5.11h-2.38V107.45Zm.19,6.8c2-.07,2.33-1.64,2.33-2.77,0-2.35-1.33-2.64-2.49-2.64h-2v5.41Zm74.51,1.47h4.32l-2.19-5.33Zm-97.85-12.58c.22,0,.17.34.64.34.27,0,.3-.13.62-.13.91,0,1.24,1.11,1.87,1.11.29,0,.32-.2.62-.2a.74.74,0,0,1,.41.16c.09.08.27.24.72,1.49.05.14,0,.2-.09.2s-.21-.07-.53-.4-.33-.1-1.12-.6a7.42,7.42,0,0,0-1.12-.73,10.3,10.3,0,0,0-1.32-.27c-.33-.08-.86-.33-.86-.72C314.38,103.27,314.45,103.15,314.54,103.15ZM319,103c.19,0,.33.29.52.48.46.44,1.16.16,1.69.7a1.3,1.3,0,0,1,.25.79c0,.32-.07.64-.24.64-.37,0-.13-.62-.89-1.08a4.57,4.57,0,0,1-1.2-.8c-.32-.32-.33-.44-.33-.53a.2.2,0,0,1,.2-.2Zm3.45,1.45c.19,0,.13.26.34.44s.35.12.64.41a.46.46,0,0,1,.16.25.54.54,0,0,1-.54.5.25.25,0,0,1-.26-.17c-.11-.23-.06-.55-.3-.84s-.23-.26-.23-.41a.18.18,0,0,1,.19-.18Zm.75,2.38c.59.16.88.41.88.77s-.14.4-.27.58a1.32,1.32,0,0,0-.17.89q0,.18-.12.18a.11.11,0,0,1-.13-.1v0c0-.05,0-.09,0-.14a.65.65,0,0,0-.17-.48c-.54-.49-3.18-.82-4.86-.82a31.59,31.59,0,0,0-4.13.43c-.83,0-1.22-.41-1.22-.73s.18-.36.18-.51,0-.17,0-.3.1-.39.2-.39.13.17.28.43a1.43,1.43,0,0,0,1.3.74,10.68,10.68,0,0,0,2.16-.47,12.92,12.92,0,0,1,3-.4,11.59,11.59,0,0,1,3,.35Zm.19,3.35c.13,0,.2,0,.2.12s-.13.09-.21.1a1.26,1.26,0,0,0-.8.47.09.09,0,0,0,0,.12h0c.06,0,.63.31.63.53s-.44.42-.57.42-.19-.17-.19-.2.13-.12.13-.18-.11-.14-.17-.14-.09,0-.13.18c-.08.37-.15.74-.2,1.11S322,114,322,114.15a.8.8,0,0,1-.28.64c-.26.18-.49.31-.49.31l-.13.07s-.12-.09-.22-.18a.52.52,0,0,0-.29-.09c-.14,0-.4.21-.6.21s-.6-.21-.6-.34.08-.08.1-.08a2.34,2.34,0,0,0,.43.11c.19,0,.35-.17.6-.17s.46.08.72.08.36-.07.4-.15a.8.8,0,0,0,.12-.48c0-.3-.18-1.3-.18-1.9a2,2,0,0,1,.41-1.44,2.31,2.31,0,0,1,1.42-.56Zm.38,1.75c.07,0,.14.09.14.34a12.37,12.37,0,0,1-.61,3.08,7.79,7.79,0,0,1-1,1.83,9.75,9.75,0,0,1-1.1,1.8,1.21,1.21,0,0,1-1,.36,6.35,6.35,0,0,1-2.32-.5,7.69,7.69,0,0,1-2.39-1.49c-.09-.09,0-.17.1-.09a8.27,8.27,0,0,0,2.32,1.11,4.63,4.63,0,0,0,1.77.32,1.56,1.56,0,0,0,1.4-.46,8.2,8.2,0,0,0,1.16-1.79,9.22,9.22,0,0,0,.92-2.08,8.58,8.58,0,0,0,.46-2.24c0-.11,0-.19.07-.19Zm-3.59,3.66c.21,0,.38.3.6.3s.29-.25.42-.25.17.29.22.38a1.08,1.08,0,0,1,.08.19s-.06.06-.1.06a1.37,1.37,0,0,0-.4-.09.43.43,0,0,0-.32.14s-.05,0-.08,0-.23-.3-.48-.3a1.28,1.28,0,0,0-.5.2.81.81,0,0,1-.49.17c-.15,0-.34-.06-.34-.16s.07-.09.14-.09a1,1,0,0,0,.61-.16c.21-.13.46-.38.64-.38Zm-.64,1a1.92,1.92,0,0,0,.84.23c.54,0,.68-.25.79-.25a.1.1,0,0,1,.09.1s-.21.72-.77.72a1.36,1.36,0,0,1-.8-.42.73.73,0,0,1-.22-.3.08.08,0,0,1,.07-.08Zm-.95-5.88c.38,0,1.22.08,1.22.31s-.38,0-.67,0-.32,0-.32,0a.05.05,0,0,0,0,.05,1.06,1.06,0,0,1,.22.29c0,.23-.59.47-.73.47s-.23-.09-.23-.19.31-.15.31-.22-.18-.23-.34-.23-.66.36-.73.36-.08,0-.08-.11.05-.14.05-.19-.11-.15-.11-.28.08-.19.58-.25a3.46,3.46,0,0,1,.79-.06Zm-.23-1.09c.39,0,1.22.07,1.35.09s.16.09.16.13,0,.07-.2.07a6,6,0,0,0-1.73.23,9.29,9.29,0,0,0-1.5.7.15.15,0,0,1-.14-.15c0-.07.11-.25.11-.38s-.09-.2-.09-.25c0-.22,1-.44,2-.44Zm10.1-.35c.58,0,.81.57.81,1.26,0,.11-.05.29-.14.29s0-.38-.3-.38a.68.68,0,0,0-.39.23,10.21,10.21,0,0,0-1.62,3.25,7.51,7.51,0,0,0-.45,2.09,5.83,5.83,0,0,0,.1.73c0,.21-.22.07-.26,0a2.7,2.7,0,0,1-.24-1.15,14.79,14.79,0,0,1,.69-3.49c.22-.81.9-2.85,1.79-2.85Zm-1.7,9.35c.07,0,.13,0,.13.08s-.29.32-.41.45-.26.56-.43.56-.08-.06-.08-.11,0-.09,0-.13-.22-.12-.22-.26.31-.31.44-.4a1.52,1.52,0,0,1,.54-.19Zm-.25,1.38c.1,0,.16,0,.16.07s-.34.29-.4.35a2.67,2.67,0,0,0-.48.81c-.05.27-.14.36-.21.36s-.07-.27-.19-.36-.31,0-.31-.23.21-.33.4-.51a1.69,1.69,0,0,1,1-.49Zm-1.38-2.56a.22.22,0,0,1,.2.12c.05.08,0,.13.1.2s.34.11.34.24-.14.13-.21.18a1,1,0,0,0-.41.39,2.58,2.58,0,0,0-.26,1.05,2.91,2.91,0,0,1-.4,1.29c-.25.42-.62.74-.82,1.08s-.11.62-.29.62-.2-.49-.2-.66a1.66,1.66,0,0,1,.49-1.18c.49-.47.89-.49.89-1.25,0-.48-.06-.63-.06-.92s.1-1.16.63-1.16ZM305.71,107c.29,0,0,.12.43.59a.94.94,0,0,0,.85.31,4.64,4.64,0,0,0,1.85-.57,4.4,4.4,0,0,1,1.64-.41,2.55,2.55,0,0,1,1.51.58c.36.27.78.64,1,.79a3.5,3.5,0,0,0,.58.36c.11,0,.13.1.1.19a2.46,2.46,0,0,1-.19.32.79.79,0,0,1-.23.14,3.16,3.16,0,0,0-.71.42,2.72,2.72,0,0,1-1.63.58c-.7,0-1.78-.29-2.38-.29a1.32,1.32,0,0,0-.88.41c-.1.1-.19.29-.26.36a.85.85,0,0,1-.37.21c-.09,0-.23,0-.23-.13s.34-.23.34-.5-.08-.29-.08-.42a.86.86,0,0,1,.26-.52,3.33,3.33,0,0,1,2-.56c.57,0,1.7.26,2.46.26a1.81,1.81,0,0,0,.73-.12c.2-.09.16-.2.07-.2a1.54,1.54,0,0,1-.3,0,2.42,2.42,0,0,1-1.07-.38,3.12,3.12,0,0,0-1.65-.64,3,3,0,0,0-1.24.3,8.33,8.33,0,0,1-2.08.79c-.57,0-1.23-.28-1.23-.77s.48-.45.48-.75c0,0,0-.08,0-.14a.26.26,0,0,1,.25-.25Zm7,4.18c.12,0,.11.13.19.22s.11,0,.22.1.06.19.14.26.2.06.2.13c0,.26-.1.68-.1,1.32a4.48,4.48,0,0,0,.23,1.41c.06.19-.07.23-.14.1a7.64,7.64,0,0,1-.87-3.13c0-.24,0-.42.13-.42Zm-.59.95c.06,0,.09,0,.09.1a3.64,3.64,0,0,1-.5,1.14c-.3.39-.77.91-.94.91s-.08-.1-.1-.13a.14.14,0,0,1,0-.2c.12-.09.13-.14.13-.21s-.05-.15-.05-.2a.35.35,0,0,1,.12-.23,2.52,2.52,0,0,0,.79-.59c.25-.32.33-.6.42-.6Zm.46,3.55c.63.32,1.2.72,1.2,1.35s-.42,1-1,1.35a3.23,3.23,0,0,1-.41.22c0,.29-.07.55-.1.76a7.09,7.09,0,0,1-.53,2.27c-.15,0-.16-.69-.18-1s0-.93-.07-1.58a1.86,1.86,0,0,0-.28.21,1.21,1.21,0,0,0-.41.83c0,.23.19.61.19.83s-.15.59-.34.59,0-.2,0-.39c0-.5-.65-.47-.65-1.2a.84.84,0,0,1,.33-.67,6.82,6.82,0,0,1,1.18-.73c0-.19,0-.35,0-.45,0-.3.06-1.17.12-1.85a1.36,1.36,0,0,1-1.06-.33.86.86,0,0,1-.25-.48c0-.14.1-.25.64-.25a2.53,2.53,0,0,1,.77.12c.1-.56.34-1.62.55-1.62s.38.69.38,1.77v.23Zm-.19,2.43c.19-.1.69-.42.69-.88a.76.76,0,0,0-.54-.71c0,.52-.09,1-.15,1.58Z"/><path id="Path_1443" data-name="Path 1443" class="cls-1" d="M384.9,57.22v8.49l5.63-4.2Z"/><path id="Path_1444" data-name="Path 1444" class="cls-1" d="M318.92,68.28a1.29,1.29,0,0,1-1.25,1.33h-1.41V60c.1-2.56,1.13-4.6,5-4.71a4.72,4.72,0,0,1,3.58,1.53A5.78,5.78,0,0,1,326,60.6a6.34,6.34,0,0,1-1.13,3.89,3.5,3.5,0,0,1-3,1.43,4.55,4.55,0,0,1-3-.92v3.28m4.4-7.57c0-1-.2-3.18-2.25-3.18s-2.15,2-2.15,3.18c0,2.66,1.54,3,2.25,3,1.85.1,2.15-1.94,2.15-3"/><path id="Path_1445" data-name="Path 1445" class="cls-1" d="M306.54,64.89A5.83,5.83,0,0,0,310.43,66a5.51,5.51,0,0,0,3.89-1.13,4.09,4.09,0,0,0,1.43-3.27,3.39,3.39,0,0,0-.41-1.74A3.16,3.16,0,0,0,314,58.65c-.34-.15-.68-.29-1-.41-.51-.1-2.76-.82-3.07-.82-1.33-.3-2.15-.71-2.15-1.53.1-1.54,1.44-1.64,2.26-1.64a3.07,3.07,0,0,1,1.84.51,1.65,1.65,0,0,1,.71,1.44h2.56a4,4,0,0,0-1.43-3.07A5.33,5.33,0,0,0,310.12,52a5.82,5.82,0,0,0-3.79,1A3.58,3.58,0,0,0,305,56a3.44,3.44,0,0,0,1.43,3,12.05,12.05,0,0,0,2.67.92l1,.2c1.84.41,2.87,1,2.76,1.84a1.43,1.43,0,0,1-.61,1.23,3.12,3.12,0,0,1-1.84.41,4.22,4.22,0,0,1-2.15-.51,2,2,0,0,1-.92-1.64H305a4.47,4.47,0,0,0,1.54,3.48"/><path id="Path_1446" data-name="Path 1446" class="cls-1" d="M331.31,57.53a1.92,1.92,0,0,1,1.95,1.88c0,.05,0,.11,0,.16h-3.89a1.9,1.9,0,0,1,1.73-2h.22m.1,6.14c-.72,0-2-.2-2.05-2.36H336v-.82a5.88,5.88,0,0,0-1.23-3.89,4.61,4.61,0,0,0-3.58-1.43,4.31,4.31,0,0,0-3.37,1.43,5.72,5.72,0,0,0-1.23,3.89,5.84,5.84,0,0,0,1.23,4,4.31,4.31,0,0,0,3.37,1.43,4.47,4.47,0,0,0,3-.92,4.61,4.61,0,0,0,1.64-2.46h-2.35c-.2,1-1.13,1.23-2,1.13"/><path id="Path_1447" data-name="Path 1447" class="cls-1" d="M375.93,65.72h-2.66V59.16a1.79,1.79,0,0,0-3.58,0v6.56H367v-6a4.09,4.09,0,0,1,1.33-3.48,4.63,4.63,0,0,1,3.07-.92,11.31,11.31,0,0,1,1.74.2,2.84,2.84,0,0,1,1.53.82,3.4,3.4,0,0,1,1.34-.71,7.42,7.42,0,0,1,1.63-.2c3.28,0,4.61,1.53,4.71,1.94v8.5h-1.53a1.32,1.32,0,0,1-1.33-1.33h0V59.27c0-.72-.2-1.74-1.85-1.74A1.66,1.66,0,0,0,375.84,59a1.11,1.11,0,0,0,0,.26v6.45Z"/><path id="Path_1448" data-name="Path 1448" class="cls-1" d="M343.38,62.54h2.56a4.46,4.46,0,0,1-4.5,3.38c-3.78,0-4.7-3.07-4.7-5.12s.3-5.42,4.6-5.53A4.43,4.43,0,0,1,346,58.65h-2.67a1.75,1.75,0,0,0-1.84-1.12c-1.64,0-2.05,1.53-2.05,3s.31,3.18,2.15,3.18a1.58,1.58,0,0,0,1.85-1.13"/><path id="Path_1449" data-name="Path 1449" class="cls-1" d="M357.3,55.48H360V62a1.63,1.63,0,0,0,1.51,1.74h.23a1.72,1.72,0,0,0,1.84-1.59.76.76,0,0,0,0-.15V56.71s.1-1.23,1.22-1.23h1.44v6c0,.31.3,4.3-4.5,4.3s-4.4-4.1-4.5-4.3l.1-6Z"/><path id="Path_1450" data-name="Path 1450" class="cls-1" d="M349.12,58.24h1.54V55.58h-1.54V53.84A1.26,1.26,0,0,0,348,52.51h-1.49V63.77c0,1.23.4,1.84,1.43,1.84h1.23Z"/><path id="Path_1451" data-name="Path 1451" class="cls-1" d="M353.52,65.72V60.5a2.91,2.91,0,0,1,.51-1.74,2,2,0,0,1,1.64-.52h.92V55.48a8.82,8.82,0,0,0-2.35.31,4.41,4.41,0,0,0-1.74.81,4,4,0,0,0-1.23,1.64,6.4,6.4,0,0,0-.41,2.56v4.92Z"/><path id="Path_5493" data-name="Path 5493" class="cls-3" d="M85.3,69.18V56.67h2.53v5.38l4.36-5.38h3l-4.25,5,4.55,7.55H92.69L89.45,63.6l-1.62,1.76v3.83Zm-8.39-2.27a4,4,0,0,0,2.23,0A2.23,2.23,0,0,0,80,66.4a2.28,2.28,0,0,0,.5-.83,3.69,3.69,0,0,0,.2-1.14V56.68h2.43v8.16a4,4,0,0,1-.4,1.86,4.46,4.46,0,0,1-1,1.45,5.14,5.14,0,0,1-1.62.93,6.67,6.67,0,0,1-4,0,5.14,5.14,0,0,1-1.62-.93,4.46,4.46,0,0,1-1-1.45,3.72,3.72,0,0,1-.4-1.86V56.67H75.4v7.76a4.87,4.87,0,0,0,.2,1.14,2.28,2.28,0,0,0,.5.83,2.23,2.23,0,0,0,.81.51Zm-9,1.45a1.47,1.47,0,0,1-.1-.62,1.45,1.45,0,0,1,.1-.62,1,1,0,0,1,.3-.52,2.25,2.25,0,0,1,.51-.31,1.8,1.8,0,0,1,1.21,0,.88.88,0,0,1,.51.31c.1.21.2.31.3.52a1.29,1.29,0,0,1,.1.62,1.33,1.33,0,0,1-.1.62.92.92,0,0,1-.3.52c-.2.1-.3.2-.51.3a1.12,1.12,0,0,1-.6.1,1.44,1.44,0,0,1-1.11-.41c-.11-.2-.21-.3-.31-.51ZM64,69.19H60.65L57.21,56.67h2.73l2.33,9.41h.1l2.33-9.41h2.73ZM48.86,66.71a3.43,3.43,0,0,0,2.84,0,2.63,2.63,0,0,0,1-.83,3.28,3.28,0,0,0,.61-1.34,10.31,10.31,0,0,0,.2-1.66v-.1a9.08,9.08,0,0,0-.2-1.65,3.38,3.38,0,0,0-.61-1.35,4,4,0,0,0-1-.83,3.43,3.43,0,0,0-2.84,0,2.63,2.63,0,0,0-1,.83,3.38,3.38,0,0,0-.61,1.35,10.19,10.19,0,0,0-.2,1.65v.1a10.05,10.05,0,0,0,.2,1.65,3.38,3.38,0,0,0,.61,1.35,4,4,0,0,0,1,.83Zm-1-9.72a5.89,5.89,0,0,1,5,0,4.72,4.72,0,0,1,1.82,1.34,6,6,0,0,1,1.11,2.07,8.59,8.59,0,0,1,0,5.07,6,6,0,0,1-1.11,2.07,6.13,6.13,0,0,1-1.82,1.34,6.85,6.85,0,0,1-5,0A4.58,4.58,0,0,1,46,67.54a5.87,5.87,0,0,1-1.12-2.07,8.76,8.76,0,0,1,0-5.07A5.16,5.16,0,0,1,46,58.33,5.89,5.89,0,0,1,47.85,57Zm-13.58,5.9h0a4.23,4.23,0,0,0,.3,1.65,3.23,3.23,0,0,0,.6,1.35,3.1,3.1,0,0,0,1,.93,4,4,0,0,0,1.52.31,3.16,3.16,0,0,0,1.42-.31,2.24,2.24,0,0,0,.91-.73,2.06,2.06,0,0,0,.5-.93,1.89,1.89,0,0,0,.1-.82v-.11H37.52v-2h5.57v6.83H40.94V67.64l-.61.62a3.55,3.55,0,0,1-.8.52l-.92.31a4.14,4.14,0,0,1-1.11.1,6,6,0,0,1-2.43-.52,5.23,5.23,0,0,1-1.72-1.34,5.87,5.87,0,0,1-1.12-2.07,7,7,0,0,1-.4-2.48,7.17,7.17,0,0,1,.41-2.48,6.83,6.83,0,0,1,1.21-2.07,6.16,6.16,0,0,1,1.82-1.35,7.06,7.06,0,0,1,2.43-.52,8.76,8.76,0,0,1,1.62.21,6,6,0,0,1,1.42.62,11.15,11.15,0,0,1,1.11.93,9.17,9.17,0,0,1,.82,1.24L40.54,60.6c-.2-.2-.3-.51-.51-.72a2.75,2.75,0,0,0-1.41-1,3.19,3.19,0,0,0-1-.1,3.83,3.83,0,0,0-1.52.31,2.9,2.9,0,0,0-1,.93,3.13,3.13,0,0,0-.6,1.34,7.4,7.4,0,0,0-.2,1.55ZM4.45,57.54a1.34,1.34,0,0,1-.71-1.68,1.27,1.27,0,0,1,2.37,0,1.36,1.36,0,0,1-.68,1.72A1.28,1.28,0,0,1,4.45,57.54Zm-2.83,1.7a1.35,1.35,0,0,1-.71-1.69,1.22,1.22,0,0,1,.68-.71,1.3,1.3,0,0,1,1.69.68,1.38,1.38,0,0,1-.69,1.72,1.26,1.26,0,0,1-1,0ZM.79,62.5a1.35,1.35,0,0,1-.71-1.69,1.3,1.3,0,0,1,.68-.72,1.24,1.24,0,0,1,1,0,1.28,1.28,0,0,1,.7.69,1.33,1.33,0,0,1,0,1,1.27,1.27,0,0,1-.68.72,1.26,1.26,0,0,1-1,0Zm6.85-3.86A1.47,1.47,0,0,1,6.93,57a1.3,1.3,0,0,1,.68-.72,1.26,1.26,0,0,1,1.67.69,1.29,1.29,0,0,1,0,1,1.25,1.25,0,0,1-.68.71,1.21,1.21,0,0,1-1,0Zm11.62-1.09a1.24,1.24,0,0,1-1,0,1.38,1.38,0,0,1-.69-1.72,1.31,1.31,0,0,1,1.7-.68,1.28,1.28,0,0,1,.67.72,1.46,1.46,0,0,1-.7,1.68Zm2.83,1.69a1.26,1.26,0,0,1-1.65-.72,1.33,1.33,0,0,1,0-1,1.31,1.31,0,0,1,.7-.69,1.28,1.28,0,0,1,1,0,1.3,1.3,0,0,1,.68.72,1.35,1.35,0,0,1-.71,1.69Zm.83,3.26a1.24,1.24,0,0,1-1,0,1.37,1.37,0,0,1-.69-1.72A1.32,1.32,0,0,1,23,60.1a1.23,1.23,0,0,1,.67.71,1.35,1.35,0,0,1-.7,1.69ZM16,58.64a1.28,1.28,0,0,1-1,0,1.38,1.38,0,0,1-.69-1.73,1.32,1.32,0,0,1,1.7-.67,1.22,1.22,0,0,1,.68.71A1.45,1.45,0,0,1,16,58.64Zm-3.53-3.38c0,.12-.12.12-.24.12l.95,2.77v.24a1.57,1.57,0,0,1-.3,1.13,1.45,1.45,0,0,1-1,.56h-.59a1.58,1.58,0,0,1-.94-1.93l.94-2.77a.11.11,0,0,1-.11-.12h0l-1.54.84V53.69l1.54.48.11-.12-.59-2h2.24l-.59,2,.12.12L14,53.69V56.1ZM11.75,69a65.36,65.36,0,0,0-8.39.6A16.39,16.39,0,0,0,.88,63.45l1.66-.6a2.37,2.37,0,0,0,0,1.81,3.78,3.78,0,0,0,.7-1.57l.83,2.77a1.89,1.89,0,0,0-1.3-.6c.71,1.69,1.77,2.18,2.36,2.06a1.26,1.26,0,0,0,1-1.45C6,65,5,64.78,4.66,65.75c-.71-1.57.59-2.06,1.42-1.57,0-.12-.12-.12-.24-.24a2.56,2.56,0,0,1-.13-3.61h0c1.42,1.2,1.42,2.29.83,3.86.83-1.09,2.13-.49,1.65,1.08-.59-1-1.41-.36-1.3.6S8,67.31,9.27,67.19c1.89-.12,2-1.45,2-2.54-.48-.12-1.3.37-2,1.33L9,63a3.18,3.18,0,0,0,2.25,1,7,7,0,0,0-1.42-2.17h3.66a11.06,11.06,0,0,0-1.41,2.17,3.19,3.19,0,0,0,2.24-1l-.23,3c-.71-1-1.54-1.45-2-1.32.12,1.08.12,2.41,2,2.53a2,2,0,0,0,2.36-1.33c.12-1-.71-1.56-1.3-.6-.47-1.56.83-2.05,1.65-1.08-.59-1.57-.59-2.78.83-3.86.12,0,.12.12.24.24a2.62,2.62,0,0,1,.46,1.94,2.57,2.57,0,0,1-1.05,1.68c.82-.48,2.12,0,1.41,1.57-.35-1-1.18-.73-1.41.12a1.33,1.33,0,0,0,1.06,1.45c.59.12,1.53-.37,2.36-2.06a2.73,2.73,0,0,0-1.3.6l.83-2.77a3.72,3.72,0,0,0,.7,1.57,2.37,2.37,0,0,0,0-1.81l1.66.6a18.56,18.56,0,0,0-2.48,6.16,61.94,61.94,0,0,0-8.39-.6Z"/><path id="Path_5494" data-name="Path 5494" class="cls-1" d="M16,109.43c0,.18-.17.36-.44.63a9.41,9.41,0,0,0-2.46,7.06c0,2.27.35,3.17.35,4.17,0,.45-.09.72-.35.72-.53,0-1.5-2.35-1.5-5.16,0-5.88,3.61-7.51,4.14-7.51.26-.09.26,0,.26.09ZM7,109.24c.53.1,4.14,1.73,4.14,7.61,0,2.81-1,5.16-1.5,5.16-.27,0-.35-.27-.35-.72,0-1.09.35-2,.35-4.17a9.73,9.73,0,0,0-2.47-7.06c-.26-.27-.44-.45-.44-.64.09,0,.09-.09.26-.18Zm3.2,1.27a1.33,1.33,0,0,1,.38-1,1.22,1.22,0,0,1,.94-.39,1.36,1.36,0,1,1-1.32,1.39Zm12.58,8.78c.09,0,.09,0,.09.09l-.09-.09a30.6,30.6,0,0,0-9-1.72v-.36c0-.27.09-.45.09-.73a19.9,19.9,0,0,1,8.9,2.81Zm-9.16-15.94a1.16,1.16,0,0,1-.35-1.36,1.9,1.9,0,0,1,1.23-1.36,2.17,2.17,0,0,1,.26,1.82,1.33,1.33,0,0,1-1.14.9ZM16.66,106a1.23,1.23,0,0,1,.44-1.36,1.85,1.85,0,0,1,1.68-.45,2,2,0,0,1-.7,1.63,1.21,1.21,0,0,1-1.42.18Zm.09,4a1.39,1.39,0,0,1,1.06-.9,1.75,1.75,0,0,1,1.59.54,1.79,1.79,0,0,1-1.41.91,1.19,1.19,0,0,1-1.2-.55Zm-1.15,1.36a1.14,1.14,0,0,1,1.15-.45,1.86,1.86,0,0,1,1.23.9,1.35,1.35,0,0,1-1.41.37A1,1,0,0,1,15.6,111.32Zm-3.35-3.71a1.46,1.46,0,0,1-.44-1.72,2.34,2.34,0,0,1,1.41-1.63,2.68,2.68,0,0,1,.35,2.17,1.43,1.43,0,0,1-1.32,1.18Zm1.5.81a1.47,1.47,0,0,1,.44-1.54,2,2,0,0,1,1.85-.45,2.06,2.06,0,0,1-.79,1.81,1.15,1.15,0,0,1-1.5.18Zm1-3.17a1.69,1.69,0,0,1,0-1.81,2.58,2.58,0,0,1,1.85-1.18,2.41,2.41,0,0,1-.26,2.18,1.42,1.42,0,0,1-1.59.81Zm1.94,2.81a1.39,1.39,0,0,1,.88-1.36,2,2,0,0,1,2,.09,2.4,2.4,0,0,1-1.33,1.63,1.54,1.54,0,0,1-1.58-.36Zm-6.35-5.8a1.38,1.38,0,0,1,2.12-1.77,1.4,1.4,0,0,1,0,1.77A1.67,1.67,0,0,1,11.37,104a1.73,1.73,0,0,1-1.06-1.72ZM0,119.38l.09-.09a19.69,19.69,0,0,1,8.9-2.9v1.09a29.5,29.5,0,0,0-8.9,1.9Zm8.19-17a2.19,2.19,0,0,1,.27-1.81,1.88,1.88,0,0,1,1.23,1.36,1.23,1.23,0,0,1-.35,1.36,1,1,0,0,1-1.12-.9h0ZM4.84,105.8a2.16,2.16,0,0,1-.71-1.63,1.67,1.67,0,0,1,1.68.45A1.22,1.22,0,0,1,6.26,106a1.16,1.16,0,0,1-1.39-.18Zm.09,4.71a1.73,1.73,0,0,1-1.41-.91,1.75,1.75,0,0,1,1.59-.54,1.12,1.12,0,0,1,1,.91,1.34,1.34,0,0,1-1.23.54Zm1.41,1.72a1.55,1.55,0,0,1-1.41-.36A1.68,1.68,0,0,1,6.08,111a1.14,1.14,0,0,1,1.14.46,1.17,1.17,0,0,1-.87.81Zm2.91-5.8a2.4,2.4,0,0,1,.35-2.17A2.15,2.15,0,0,1,11,105.89a1.46,1.46,0,0,1-.44,1.72,1.51,1.51,0,0,1-1.32-1.18Zm-1.68,1.81a2.31,2.31,0,0,1-.79-1.81,2,2,0,0,1,1.85.45,1.45,1.45,0,0,1,.44,1.54,1.08,1.08,0,0,1-1.5-.18Zm-1.05-3.71a2.36,2.36,0,0,1-.27-2.17,2.33,2.33,0,0,1,1.85,1.17,1.67,1.67,0,0,1,0,1.82,1.71,1.71,0,0,1-1.59-.82Zm-1.94,3.8a2.21,2.21,0,0,1-1.32-1.63,2.27,2.27,0,0,1,2-.09A1.47,1.47,0,0,1,6.16,108a1.22,1.22,0,0,1-1.58.36Zm50.69,9.74v-7c0-.93-.11-2.79-.11-3.14h2.15l.12,1.4a3.26,3.26,0,0,1,2.93-1.63,3.53,3.53,0,0,1,3.51,3.37v7H61.5v-6.17a2,2,0,0,0-.4-1.47,1.92,1.92,0,0,0-2.73-.33,2,2,0,0,0-.72,1.33v6.75l-2.37-.12ZM41.47,108v10.12H39.1V108Zm33.6,10.12H72.92c0-.35-.11-1.4-.11-1.75H72.7a3.41,3.41,0,0,1-3.06,1.86c-2.6,0-4-2.09-4-4.88a5.41,5.41,0,0,1,5.1-5.7,5,5,0,0,1,.67,0,14.67,14.67,0,0,1,3.29.47v6.63a31.77,31.77,0,0,0,.33,3.37Zm-2.6-5h.11V109.7a3.14,3.14,0,0,0-1-.12h-.34A3.11,3.11,0,0,0,69,110.73a3.25,3.25,0,0,0-.7,2.46c0,2,.67,3.14,2,3.14s2.15-.93,2.15-3.25Zm-35.75,2.44h.11v2.1a8.65,8.65,0,0,1-2.94.46h-.68a6.55,6.55,0,0,1-4.67-2.15A6.91,6.91,0,0,1,26.76,111v-.7a6.88,6.88,0,0,1,2.17-4.77,6.56,6.56,0,0,1,4.84-1.74,8.16,8.16,0,0,1,2.94.47v2.21a6.41,6.41,0,0,0-2.6-.46h-.45a4.53,4.53,0,0,0-3.16,1.58A4.74,4.74,0,0,0,29.37,111v.46A4.68,4.68,0,0,0,34.12,116a4.87,4.87,0,0,0,2.6-.46Zm13.58,1.28a3.44,3.44,0,0,1-2.95,1.63c-2.6,0-4-2.09-4-4.88a5.42,5.42,0,0,1,5.1-5.71,5,5,0,0,1,.67,0,15.08,15.08,0,0,1,3.28.46v9c0,4.18-1.92,5.35-4.75,5.35a8.92,8.92,0,0,1-2.94-.47v-2.08a7.42,7.42,0,0,0,2.72.47H48a2.68,2.68,0,0,0,2.27-2.91Zm-.12-3.72v-3.48a3.48,3.48,0,0,0-1-.12c-2,0-3.17,1.75-3.17,3.72s.68,3.14,2,3.14,2.15-.93,2.15-3.25Zm-11.42-7.78a1.47,1.47,0,1,1,1.46,1.51,1.51,1.51,0,0,1-1.46-1.51Z"/><path id="Path_5496" data-name="Path 5496" class="cls-1" d="M0,13.2V6.27C0,6,.07,6,.31,6h9.2c.23,0,.32,0,.31.27,0,.66,0,1.33,0,2,0,.23-.09.27-.31.27H3c-.25,0-.31.07-.31.3,0,1,0,1.93,0,2.9,0,.22.07.26.29.26H9.51c.23,0,.31,0,.31.27,0,.68,0,1.36,0,2,0,.22-.12.22-.28.22H3.06c-.37,0-.37,0-.37.35,0,.94,0,1.89,0,2.83,0,.25.08.3.33.3H9.53c.24,0,.3.05.3.27,0,.67,0,1.35,0,2,0,.16,0,.24-.23.24q-4.68,0-9.36,0c-.23,0-.23-.1-.23-.26v-7Zm34.14,4.22.78-1.92c.75-1.88,1.49-3.76,2.24-5.63a.34.34,0,0,1,.38-.26c.7,0,1.4,0,2.1,0,.2,0,.22.06.14.24l-4.2,9.86c-.15.36-.31.71-.45,1.07a.25.25,0,0,1-.29.2c-.46,0-.92,0-1.39,0a.28.28,0,0,1-.31-.21q-.95-2.23-1.9-4.47L28.54,10a1.22,1.22,0,0,0-.07-.17c-.07-.13,0-.17.12-.17h1.26c.28,0,.56,0,.84,0a.38.38,0,0,1,.44.28c.67,1.72,1.36,3.43,2,5.14.32.78.64,1.55,1,2.39Zm18-2.24V12c0-.33,0-.33-.32-.33h-1c-.16,0-.21,0-.21-.21,0-.61,0-1.23,0-1.84,0-.16.05-.21.2-.21.36,0,.71,0,1.07,0,.2,0,.24-.08.24-.27,0-.95,0-1.91,0-2.87,0-.2.05-.27.24-.26h1.86c.18,0,.22.06.22.23,0,1,0,2,0,2.93,0,.21,0,.26.24.25h2c.15,0,.2,0,.2.21,0,.62,0,1.23,0,1.84,0,.18-.06.21-.21.21h-2c-.17,0-.22,0-.22.23,0,2,0,3.9,0,5.85a.8.8,0,0,0,.68.91h.16a10.78,10.78,0,0,0,1.39-.06c.14,0,.17,0,.16.16v1.94c0,.1,0,.17-.12.19a6.51,6.51,0,0,1-2.71,0,2.46,2.46,0,0,1-1.81-2.34c-.12-1.17,0-2.34,0-3.3Zm-40,5.27H11c-.18,0-.2-.05-.16-.21q.8-3.1,1.57-6.21,1-3.87,1.94-7.74c.06-.24.14-.32.39-.32.7,0,1.41,0,2.11,0,.16,0,.21,0,.17.21q-1.44,5.7-2.87,11.39c-.23.89-.46,1.78-.67,2.68a.22.22,0,0,1-.27.2H12.14Zm15.68-7.07a13.44,13.44,0,0,1,.11,2.1c0,.24-.13.2-.26.2H19.86c-.37,0-.37,0-.28.37a3,3,0,0,0,2.79,2.45,4.18,4.18,0,0,0,3.56-1.56l.23-.27L26.49,18c.09.38.17.76.27,1.14a.29.29,0,0,1-.09.34,5.71,5.71,0,0,1-4,1.51A5.19,5.19,0,0,1,19,19.58a5.88,5.88,0,0,1-1.78-3.41,7.09,7.09,0,0,1,.8-5,5.06,5.06,0,0,1,4-2.6,5,5,0,0,1,3.67.94,5.86,5.86,0,0,1,2.18,3.83Zm-2.74.11c.09,0,.24.07.19-.16a3.05,3.05,0,0,0-.93-1.7,2.95,2.95,0,0,0-4.6,1.66c0,.19,0,.21.18.21h5.16Zm44-.72a10,10,0,0,1,.25,2.73c0,.14,0,.2-.18.18h-8c-.25,0-.28.07-.23.3a3,3,0,0,0,2.91,2.53A4.15,4.15,0,0,0,67.26,17l.21-.24.07,0c.21.84.4,1.66.61,2.49,0,.17-.07.23-.16.32a5.46,5.46,0,0,1-2.84,1.38,5.72,5.72,0,0,1-3.27-.33A5.35,5.35,0,0,1,58.79,17a7.1,7.1,0,0,1,.75-6,5,5,0,0,1,3.81-2.36,5.11,5.11,0,0,1,3.09.56,5.48,5.48,0,0,1,2.62,3.6Zm-2.61.72c.18,0,.23,0,.18-.24a2.59,2.59,0,0,0-2.06-2.16,3,3,0,0,0-3.43,2.15c0,.19,0,.26.17.26.85,0,1.7,0,2.56,0Zm-16.8-.31v7.29c0,.22,0,.29-.27.28q-1,0-2,0c-.15,0-.2-.05-.2-.21,0-.33,0-.66,0-1A4,4,0,0,1,45,20.87a4.43,4.43,0,0,1-3.74-.75,3.64,3.64,0,0,1-1.31-3.83,3.28,3.28,0,0,1,2.6-2.57,12.19,12.19,0,0,1,2-.26c.73-.08,1.46-.14,2.2-.21.31,0,.44-.2.46-.53a1.34,1.34,0,0,0-1-1.6l-.18,0a3.87,3.87,0,0,0-2.21.05,2.12,2.12,0,0,0-1.38,1.47c-.06.18-.11.22-.28.13-.62-.35-1.24-.68-1.87-1-.17-.09-.11-.19-.07-.3a4,4,0,0,1,3.06-2.69,7.21,7.21,0,0,1,3.66.1,3.73,3.73,0,0,1,2.7,3.34,7.93,7.93,0,0,1,.06,1Zm-4.79,5.26a2.82,2.82,0,0,0,2.33-2.75c0-.23-.07-.28-.28-.25-1,.13-2.09.25-3.13.39a2.1,2.1,0,0,0-.78.25,1.21,1.21,0,0,0-.65,1.13,1.14,1.14,0,0,0,.72,1.05,2.48,2.48,0,0,0,1.17.23,2.18,2.18,0,0,0,.62-.06Z"/><path id="Path_8590" data-name="Path 8590" class="cls-1" d="M163,117.91a3.29,3.29,0,0,0,.11.93v.07h-1.88v0a7.44,7.44,0,0,1-.16-1.42,3.88,3.88,0,0,1-1.38,1.26,4.21,4.21,0,0,1-2,.47,4.75,4.75,0,0,1-1.24-.17,4,4,0,0,1-1.19-.53,3,3,0,0,1-.9-1A3.09,3.09,0,0,1,154,116a2.72,2.72,0,0,1,.62-1.86,3.79,3.79,0,0,1,1.63-1,9.2,9.2,0,0,1,2.25-.47c.83-.07,1.66-.11,2.48-.11v-.24a2,2,0,0,0-.66-1.65,2.75,2.75,0,0,0-1.77-.54,4,4,0,0,0-2.82,1.17l0,0-1.1-1.35,0,0a5.39,5.39,0,0,1,1.81-1.12,6,6,0,0,1,2.3-.42,5,5,0,0,1,1.88.3,3.82,3.82,0,0,1,1.31.86,3.45,3.45,0,0,1,.78,1.28,5,5,0,0,1,.26,1.59v4.42C163,117.16,163,117.53,163,117.91Zm-2-3.38V114h-.44c-.5,0-1,0-1.54.07a8.44,8.44,0,0,0-1.42.25,2.53,2.53,0,0,0-1.06.56,1.31,1.31,0,0,0-.41,1,1.52,1.52,0,0,0,.18.73,1.44,1.44,0,0,0,.46.49,2.14,2.14,0,0,0,.65.25,3.54,3.54,0,0,0,.73.07,2.62,2.62,0,0,0,2.11-.84A3.08,3.08,0,0,0,161,114.53Zm12,1.77,0,0,1.42,1.28,0,0a4.37,4.37,0,0,1-1.61,1.18,5.43,5.43,0,0,1-2.18.42,5.91,5.91,0,0,1-2.16-.4,5.09,5.09,0,0,1-1.72-1.09,5,5,0,0,1-1.15-1.7,6.19,6.19,0,0,1,0-4.43,4.87,4.87,0,0,1,2.85-2.79,5.56,5.56,0,0,1,2.13-.4,5.7,5.7,0,0,1,2.12.44,3.85,3.85,0,0,1,1.67,1.26l0,0-1.51,1.23,0,0a2.36,2.36,0,0,0-.95-.82,2.9,2.9,0,0,0-1.33-.32,3,3,0,0,0-2.36,1.09,3.5,3.5,0,0,0-.65,1.16,4.3,4.3,0,0,0-.23,1.38,4.92,4.92,0,0,0,.23,1.37,3.89,3.89,0,0,0,.65,1.16,2.92,2.92,0,0,0,1,.8,3.12,3.12,0,0,0,1.38.3,3.53,3.53,0,0,0,1.35-.3,2.67,2.67,0,0,0,1-.78Zm10.13,0,.07,0,1.4,1.28,0,0a4.37,4.37,0,0,1-1.61,1.18,5.46,5.46,0,0,1-2.18.42,5.87,5.87,0,0,1-2.16-.4,5,5,0,0,1-2.88-2.79,6.19,6.19,0,0,1,0-4.43,4.9,4.9,0,0,1,2.85-2.79,5.58,5.58,0,0,1,4.25,0,3.82,3.82,0,0,1,1.68,1.26l0,0L183,111.3l0,0a2.33,2.33,0,0,0-.94-.82,2.93,2.93,0,0,0-1.33-.32,3.07,3.07,0,0,0-1.36.3,3.11,3.11,0,0,0-1,.79,3.66,3.66,0,0,0-.64,1.16,3.81,3.81,0,0,0-.23,1.38,4.58,4.58,0,0,0,.23,1.37,3.66,3.66,0,0,0,.64,1.16,3,3,0,0,0,1,.8,3.12,3.12,0,0,0,1.38.3,3.54,3.54,0,0,0,1.36-.3,2.75,2.75,0,0,0,1-.78Zm11.09-6.5a4.56,4.56,0,0,1,1,1.7,6.63,6.63,0,0,1,.34,2.21v.35a1.37,1.37,0,0,1,0,.35v0h-8a3.24,3.24,0,0,0,.28,1.14,2.94,2.94,0,0,0,.69,1,3.65,3.65,0,0,0,1,.63,3,3,0,0,0,1.21.23,3.17,3.17,0,0,0,1.73-.44,3.34,3.34,0,0,0,1.14-1.07l0-.05,1.47,1.19,0,0a5,5,0,0,1-1.9,1.61,6,6,0,0,1-4.57.11,4.92,4.92,0,0,1-1.68-1.09,5.46,5.46,0,0,1-1.1-1.7,5.81,5.81,0,0,1-.41-2.21,6.06,6.06,0,0,1,.39-2.19,5.25,5.25,0,0,1,1.1-1.73,4.84,4.84,0,0,1,1.67-1.11,5.66,5.66,0,0,1,4.09,0,4.26,4.26,0,0,1,1.54,1.08Zm-6.66,3v0h5.88a4,4,0,0,0-.21-1.07,3,3,0,0,0-.52-.88,2.3,2.3,0,0,0-.85-.61,2.76,2.76,0,0,0-1.2-.23,3.13,3.13,0,0,0-1.17.23,2.76,2.76,0,0,0-1,.61,3.16,3.16,0,0,0-.67.91,2.8,2.8,0,0,0-.3,1.07ZM197.91,103H200v16.14h-2.07Zm15,8.57a6,6,0,0,1,0,4.36,5.41,5.41,0,0,1-1.15,1.72,5.52,5.52,0,0,1-1.74,1.12,6,6,0,0,1-4.32,0,4.83,4.83,0,0,1-1.72-1.12,5.52,5.52,0,0,1-1.15-1.72,5.88,5.88,0,0,1-.42-2.19,5.74,5.74,0,0,1,.42-2.17,4.92,4.92,0,0,1,1.15-1.7,4.83,4.83,0,0,1,1.72-1.12,6,6,0,0,1,4.32,0,5.64,5.64,0,0,1,1.74,1.12A5.22,5.22,0,0,1,212.86,111.57Zm-2,3.56a5.69,5.69,0,0,0,.23-1.37,4.86,4.86,0,0,0-.23-1.37,3.79,3.79,0,0,0-.65-1.14,3.08,3.08,0,0,0-2.43-1.1,3.39,3.39,0,0,0-1.4.3,3.3,3.3,0,0,0-1.68,1.93,4.3,4.3,0,0,0-.23,1.38,4.92,4.92,0,0,0,.23,1.37,4.07,4.07,0,0,0,.65,1.17,3.1,3.1,0,0,0,2.43,1.09,3.39,3.39,0,0,0,1.4-.3,2.85,2.85,0,0,0,1-.79,3.54,3.54,0,0,0,.65-1.17Zm25.9,2.05a1,1,0,0,1-1,1H221.05a1,1,0,0,1,0-2.1h14.72a1,1,0,0,1,1,1Zm-7-13.13a1,1,0,0,1-1,1h-11a1.05,1.05,0,1,1,0-2.1h11a1,1,0,0,1,1,1Zm7,4.38a1,1,0,0,1-1,1H221.05a1,1,0,0,1,0-2.1h14.72a1,1,0,0,1,1,1v0Zm6.59,4.37a1,1,0,0,1-1,1H224.45a1.05,1.05,0,1,1,0-2.1h17.91a1,1,0,0,1,1,1v0Zm-13.62,8.76a1,1,0,0,1-1,1h-11a1,1,0,0,1,0-2.1h11a1,1,0,0,1,1,1v0Z"/><path id="Path_8591" data-name="Path 8591" class="cls-3" d="M165.17,54.87c.35,0,.31.25.25.33-1,1.57-3.41,4.33-5.15,7.35a2.61,2.61,0,0,0-.5,1.39,2.16,2.16,0,0,0,1.38,2,4,4,0,0,0,1.64.26c4.86.15,6.8,0,11.15-.13a.83.83,0,0,0,.57-.27A5.88,5.88,0,0,0,175.84,62c0-3.08-2.23-5.85-5.71-7.18l-.56.71a6.92,6.92,0,0,1,4.62,6.43,5.43,5.43,0,0,1-.29,1.74.75.75,0,0,1-.8.62c-3.54.07-5.55.13-9.1,0-.45,0-.6-.18-.68-.54a.82.82,0,0,1,.14-.66,75.84,75.84,0,0,1,5.81-8c.12-.16.07-.5-.35-.61a14.7,14.7,0,0,0-4-.5c-6.34,0-10.8,3.56-10.91,8,.26,5.27,4.87,8,10.91,8A12.75,12.75,0,0,0,174,66.59l-1.83.07A11.09,11.09,0,0,1,164.94,69c-5.1,0-9.25-2.52-9.25-7,0-3.88,4.15-7,9.25-7Zm41,9.52,3.45-2.25-5.22-3.87v.95h-7.72a2,2,0,0,0-2,1.64h8.95v1.68h-6.84a2,2,0,0,0-2,1.84Zm32.8-5.2h7.92V57.54h-8a5.43,5.43,0,0,0-5.53,5.09H243a.92.92,0,1,1,0,1.8H232.42V57.54h-3.14v6.83H223c-.93-.15-1.21-.82-1.21-2.11V57.54h-5.06l-4.54,2.92-4-2.92H196.06a5.46,5.46,0,0,0-5.43,4.29h2.43a5.38,5.38,0,0,0-2,2.54h-7.73c-.91-.15-1.21-.82-1.21-2.11V57.54H179v4.4c-.13,2.92,1.47,4,3.28,4.13h24.3L211,63.2l3.91,2.91h4.78l-6.09-4.55,5-3.22v3.6c-.13,2.92,1.62,4,3.44,4.13h22.74a2.56,2.56,0,1,0,0-5.1H237a2,2,0,0,1,2-1.78Z"/></svg>