<svg xmlns="http://www.w3.org/2000/svg" width="101" height="92" viewBox="0 0 101 92">
    <g fill="none" fill-rule="nonzero">
        <path fill="#236DB6" d="M33.997 41.761c5.87.242 11.352.877 16.635 2.645 2.266.759 4.9 1.527 6.622-.583 1.783-2.204.123-4.518-1.083-6.537-2.294-3.83-5.936-5.831-10.027-7.225-4.55-1.555-9.252-2.692-13.608-4.788C24.39 21.357 21.813 12.84 26.6 5.79 29.91.902 37.299-1.284 43.59.77c7.156 2.337 12.439 7.11 16.658 13.146A67.052 67.052 0 0 1 71.6 42.22c1.182 7.514 5.098 12.951 11.843 16.331 4.196 2.11 8.188 4.475 10.969 8.396 2.048 2.887 3.396 6.006 2.043 9.614-1.59 4.266-5.922 5.3-9.256 2.237-3.098-2.844-5.066-6.499-7.095-10.107a19.202 19.202 0 0 0-11.825-9.452c-6.91-2.006-14.355 1.265-18.527 7.86-3.14 4.968-5.675 10.353-9.46 14.876C34.22 89.229 26.449 93.4 16.89 91.57 3.811 89.077-3.388 75.1 1.58 62.278c4.782-12.325 14.289-18.65 27.215-20.123.946-.11 1.92-.214 2.886-.285.898-.057 1.783-.08 2.317-.109z"/>
        <path fill="#236EB6" d="M81.981 50c-2.407-7.347-.23-16.102 4.843-19.463 4.396-2.802 10.16-1.675 13.235 2.586 1.561 2.255 1.175 4.756-1.124 6.193a18.176 18.176 0 0 1-4.02 1.842c-7.837 2.548-8.373 2.885-12.934 8.842z"/>
    </g>
</svg>
