<svg width="147" height="79" viewBox="0 0 147 79" fill="none" xmlns="http://www.w3.org/2000/svg">
<mask id="mask0" mask-type="alpha" maskUnits="userSpaceOnUse" x="0" y="0" width="147" height="79">
<rect width="79" height="147" rx="10" transform="matrix(-4.37114e-08 1 1 4.37114e-08 0 0)" fill="#C4C4C4"/>
</mask>
<g mask="url(#mask0)">
<path d="M209.605 63.8199C210.375 65.1534 211.255 66.6774 212.025 68.0109C211.402 69.1323 212.443 70.0553 212.502 71.0373C212.642 71.7188 213.162 72.1803 213.192 72.6713C212.848 75.1556 210.261 76.3949 209.317 78.7183C207.911 81.5621 205.228 79.555 203.074 79.7829C201.41 79.9813 199.827 79.8792 198.523 81.1401C197.761 81.58 196.97 81.529 196.259 81.1774L196.369 81.3679C200.143 83.5066 203.376 86.4661 206.228 89.6457C206.998 90.9792 206.595 92.4816 206.684 93.9545C206.2 95.7574 207.3 97.6624 207.308 99.4358C207.397 100.909 207.075 102.111 206.042 102.961C204.818 103.922 203.045 103.929 201.682 104.208C201.301 104.428 200.619 104.568 200.348 104.978C198.151 107.771 195.505 108.028 192.361 106.542C191.32 105.619 190.199 104.996 188.806 104.784C182.987 103.064 177.358 101.234 171.62 99.2128C171.019 99.0517 170.608 98.7807 170.007 98.6197C171.019 99.0517 172.03 99.4838 173.122 99.6153C178.04 101.094 182.445 103.885 186.74 106.485C193.498 110.711 200.527 114.527 207.366 118.453C210.129 120.159 212.321 122.196 214.051 124.753C215.121 126.167 215.21 127.64 214.617 129.252C213.804 130.483 214.383 131.927 213.46 132.968L213.57 133.158C214.09 133.62 214.721 134.272 214.67 135.063C213.945 137.768 212.18 139.549 209.344 139.916C208.362 139.975 207.6 140.415 206.918 140.555C211.785 142.825 215.377 146.847 219.321 150.158C221.293 151.814 220.839 154.107 219.975 156.13C219.733 157.032 219.682 157.823 219.822 158.505C219.288 161.099 217.713 162.77 215.207 163.709C214.826 163.929 214.254 164.259 213.763 164.289L213.683 164.589C213.903 164.97 213.932 165.461 213.852 165.762C212.445 168.605 209.961 168.262 207.477 167.918C201.716 167.18 196.469 165.13 191.302 162.779C191.602 162.859 190.921 162.999 191.001 162.698C191.082 162.398 190.4 162.537 190.701 162.618C191.111 162.889 191.712 163.05 192.123 163.321C193.764 164.405 193.853 165.878 193.56 167.571C193.107 169.865 192.052 171.997 192.39 174.342C192.698 176.196 191.123 177.868 189.489 178.557C184.888 180.706 180.147 182.173 175.09 180.013C172.466 178.988 169.22 179.084 166.837 177.157C166.507 176.586 166.097 176.315 165.496 176.154C164.594 175.912 163.612 175.971 162.631 176.03C155.199 173.717 148.068 171.484 141.259 168.049C137.704 166.292 133.688 165.054 129.752 163.517C129.642 163.326 129.452 163.436 129.342 163.246L129.452 163.436C129.562 163.627 129.752 163.517 129.862 163.707C139.947 167.537 148.867 173.308 157.517 179.491C158.748 180.304 159.708 181.527 160.559 182.56C161.189 183.212 161.439 184.084 162.179 184.927C162.399 185.308 162.619 185.689 162.839 186.07C163.118 187.433 162.906 188.825 163.185 190.188C163.214 190.679 163.134 190.98 162.863 191.39C162.482 191.61 162.401 191.91 162.02 192.13C160.966 194.263 163.018 195.618 162.835 197.502C162.784 198.293 162.132 198.924 161.37 199.364C160.337 200.214 158.234 199.65 158.051 201.534C157.78 201.944 157.59 202.054 157.209 202.274C151.113 205.794 145.03 206.257 138.632 203.094C137.892 202.251 137.232 201.108 135.488 201.607C134.997 201.636 134.696 201.556 134.286 201.285C133.545 200.442 132.563 200.501 131.581 200.56C131.281 200.48 130.87 200.209 130.57 200.128C129.419 199.015 127.866 199.404 126.393 199.492C117.818 197.839 109.515 195.775 101.563 193C100.661 192.758 99.9501 192.407 99.2097 191.564C98.6303 190.121 97.5894 189.198 95.6549 189.807C91.6682 189.06 88.0329 187.603 84.2366 186.747C80.1398 185.81 76.1235 184.573 72.5393 182.325C71.4689 180.911 70.699 179.577 68.6251 179.505C68.2147 179.233 67.6137 179.072 67.3937 178.691C67.1738 178.31 66.5433 177.658 66.8143 177.248C68.4404 174.785 66.447 174.412 64.9151 173.519C64.2847 172.867 63.7348 171.914 62.7233 171.482C59.909 170.567 59.1607 167.951 57.8409 165.665C56.961 164.141 58.214 163.672 59.247 162.821C59.8185 162.491 60.3095 162.462 60.8004 162.432C61.8924 162.564 62.9843 162.695 64.1568 162.526C64.4573 162.607 64.9483 162.577 65.1388 162.467C65.6297 162.438 66.2012 162.108 66.8827 161.969C68.1357 161.499 69.3082 161.33 70.4296 161.953C72.643 162.707 74.8563 163.461 77.1502 163.915C79.0336 164.097 80.595 165.482 82.5589 165.364C82.8594 165.444 83.1599 165.525 83.5409 165.305C83.6214 165.004 83.3209 164.924 83.2109 164.733C82.8004 164.462 82.39 164.191 81.789 164.03C80.8876 163.789 80.0666 163.247 79.1652 163.005C78.8647 162.925 78.4542 162.654 78.1537 162.573C77.3328 162.031 76.3214 161.599 75.6104 161.248C74.6795 160.515 73.507 160.684 72.2246 160.662C71.6236 160.501 71.3231 160.421 70.8027 159.959C70.4727 159.388 69.7618 159.036 69.1608 158.875C68.5598 158.714 67.9884 159.044 67.3874 158.883C66.8964 158.913 66.4859 158.642 66.0755 158.371C65.555 157.909 65.0346 157.448 64.2431 157.397C60.8788 155.529 57.0825 154.673 53.4473 153.216C52.5458 152.974 51.8349 152.623 51.0139 152.081C50.354 150.938 49.4526 150.696 48.2801 150.865C38.8473 146.405 29.1729 142.847 20.4431 136.965C17.0493 134.606 14.4981 131.507 13.4709 127.528C13.412 126.546 13.1625 125.674 12.6126 124.722C11.0728 122.055 10.735 119.71 13.1525 117.298C13.995 116.558 14.647 115.927 15.3796 114.997C15.5701 114.887 15.6506 114.586 16.0316 114.366C16.6836 113.736 17.2256 112.915 18.1781 112.365C18.5591 112.145 18.9401 111.925 19.4311 111.895C20.8745 111.316 22.318 110.737 23.7615 110.157C25.7254 110.039 27.9309 109.02 29.7122 110.786C30.3506 113.211 30.3506 113.211 32.6365 111.891C33.208 111.561 33.7795 111.231 34.351 110.901C35.0325 110.762 35.6335 110.923 36.3444 111.274C38.0747 113.831 40.779 114.556 43.7249 114.379C45.6889 114.261 47.1913 114.664 49.3241 115.718C44.919 112.928 42.0378 109.257 38.3436 106.818C37.1417 106.496 36.2913 105.463 35.0893 105.141C34.7889 105.061 34.6789 104.87 34.3784 104.79C33.8579 104.328 33.3375 103.867 32.6265 103.515C31.1752 102.321 28.9913 102.058 27.2689 101.274C27.1589 101.084 27.0489 100.893 26.8289 100.512C26.7995 100.021 26.9605 99.4203 27.532 99.0904C29.2465 98.1005 31.0278 99.866 32.7423 98.8762C32.8228 98.5757 32.9033 98.2752 32.9838 97.9747C32.9544 97.4838 33.1154 96.8828 32.9759 96.2013C34.0226 92.295 35.9197 89.4218 40.0086 88.585C37.0843 87.4794 34.1089 87.1652 31.8071 84.9382C31.4182 83.3847 30.5678 82.3517 28.9554 81.7587C28.655 81.6781 28.2445 81.4071 27.944 81.3266C26.5221 80.6236 24.9902 79.73 23.8393 78.6165C23.1499 76.9825 21.5081 75.8985 22.1817 73.9856C22.3427 73.3846 22.9142 73.0547 22.9652 72.2632C23.0163 71.4717 22.1148 71.2302 21.8949 70.8492C19.4536 67.9407 20.7282 66.1888 23.2773 62.6851C24.8228 60.5228 27.3288 59.584 30.3552 59.1067C37.39 58.0931 44.0006 59.8644 50.9628 60.9248C52.0547 61.0563 52.6851 61.7084 53.2861 61.8694C50.6033 59.8623 46.9386 57.9142 44.7684 54.5952C44.3285 53.8332 43.8885 53.0712 44.0201 51.9792C45.5656 49.8169 44.1653 47.8314 43.7469 45.787C43.527 45.406 43.6075 45.1055 43.578 44.6145C43.6585 44.314 43.5486 44.1235 43.6291 43.8231C44.2221 42.2107 45.5556 41.4408 47.0796 40.5609C47.2701 40.4509 47.4606 40.3409 47.6511 40.2309C48.4131 39.791 49.5051 39.9226 50.4575 39.3726C51.029 39.0427 51.41 38.8227 51.7616 38.1118C53.0656 36.8509 54.4285 36.572 56.2314 37.0551C66.0079 39.0306 75.5134 41.4165 84.8873 44.8944C85.5983 45.2459 86.4192 45.788 87.1302 46.1395C87.4306 46.22 87.5406 46.4105 87.6506 46.601C88.6405 48.3155 90.1939 47.9266 91.8574 47.7282C96.6062 48.0345 100.601 50.5541 104.918 51.8718C105.709 51.9228 106.23 52.3844 106.75 52.8459C106.12 52.1939 105.328 52.1428 104.617 51.7913C96.8556 48.9064 90.2587 44.0793 83.1197 40.073C79.0445 37.8539 78.5887 33.545 78.844 29.5877C78.9597 24.9489 86.3597 20.1685 90.867 21.3762C91.3874 21.8377 91.5269 22.5192 91.7468 22.9002C91.9668 23.2812 92.3773 23.5522 92.8682 23.5227C93.3592 23.4933 93.7697 23.7643 94.2607 23.7348C95.4626 24.0569 96.7451 24.0784 97.837 24.21C98.929 24.3416 100.021 24.4731 100.681 25.6161C100.96 26.9791 101.861 27.2206 103.063 27.5427C104.756 27.8353 106.178 28.5383 107.79 29.1314C108.501 29.4829 109.593 29.6145 109.381 31.0069C109.22 31.6079 108.839 31.8278 108.158 31.9673C107.396 32.4072 106.575 31.8652 105.974 31.7042C106.985 32.1362 108.026 33.0592 109.419 33.2713C111.001 33.3734 112.694 33.666 114.036 34.6695C114.886 35.7025 116.139 35.2331 117.341 35.5552C117.341 35.5552 117.532 35.4452 117.642 35.6357L117.341 35.5552C116.74 35.3942 115.949 35.3431 115.157 35.2921C114.857 35.2116 114.556 35.131 114.446 34.9405C113.706 34.098 112.614 33.9665 111.712 33.7249C110.4 33.2124 109.008 33.0003 109 31.2269C109.894 29.695 111.316 30.398 112.327 30.8301C113.829 31.2327 115.251 31.9357 116.885 31.2463C117.376 31.2169 117.977 31.3779 118.388 31.6489C119.539 32.7624 120.66 33.385 122.162 33.7875C124.156 34.1606 125.285 36.5566 127.33 36.1382C129.184 35.8299 130.715 36.7234 132.137 37.4265C132.848 37.778 133.449 37.939 134.27 38.481C135.18 40.496 137.055 38.9052 138.367 39.4177C138.968 39.5788 139.569 39.7398 140.17 39.9008C140.771 40.0619 141.482 40.4134 142.273 40.4644C143.475 40.7865 144.597 41.409 145.689 41.5406C146.4 41.8921 147.301 42.1337 148.012 42.4852C148.422 42.7562 148.913 42.7267 149.214 42.8072C149.815 42.9683 150.526 43.3198 150.877 42.6088C151.119 41.7074 150.217 41.4659 149.807 41.1948C149.286 40.7333 148.495 40.6823 147.784 40.3308C147.073 39.9792 146.252 39.4372 145.351 39.1957C145.05 39.1151 144.64 38.8441 144.42 38.4631C144.2 38.0821 144.17 37.5912 144.251 37.2907C144.412 36.6897 145.093 36.5503 145.584 36.5208C146.075 36.4913 146.566 36.4618 147.167 36.6229C148.289 37.2454 149.3 37.6775 150.663 37.3985C151.154 37.3691 151.645 37.3396 152.246 37.5006C153.177 38.2332 154.188 38.6652 155.39 38.9873C159.407 40.2244 163.152 41.8721 165.805 43.3882C163.562 42.1431 159.927 40.6859 156.402 39.4193C154.408 39.0462 152.766 37.9621 150.934 36.9881C150.333 36.827 149.732 36.666 149.212 36.2045C148.361 35.1715 147.511 34.1385 146.008 33.7359C143.986 32.8718 141.692 32.4182 140.211 30.7332C140.071 30.0517 140.342 29.6413 140.914 29.3113C141.485 28.9814 141.976 28.9519 142.467 28.9224C144.27 29.4055 145.912 30.4895 148.008 29.2797C149.371 29.0008 150.412 29.9238 151.423 30.3559C154.055 33.1544 157.851 34.0106 161.025 35.9882C162.857 36.9623 164.499 38.0463 166.141 39.1304C167.482 40.1339 169.014 41.0275 170.627 41.6205C172.81 41.8837 174.211 43.8692 176.043 44.8432C177.355 45.3558 178.696 46.3593 179.928 47.1724C181.35 47.8754 182.391 48.7984 183.622 49.6115C184.172 50.564 184.722 51.5165 185.924 51.8385C187.625 53.9045 188.336 54.2561 189.157 54.7981C189.567 55.0691 190.168 55.2301 190.388 55.6111C190.967 57.0546 191.898 57.7871 193.32 58.4902C195.534 59.2443 197.234 61.3103 199.638 61.9544C200.239 62.1154 201.001 61.6755 201.221 62.0565C200.811 61.7855 200.129 61.9249 199.338 61.8739C196.604 60.6583 194.141 59.0322 191.568 57.2156C190.468 55.3106 189.098 53.8161 187.155 52.6516C186.855 52.571 186.444 52.3 186.144 52.2195C185.543 52.0585 185.132 51.7875 184.912 51.4065C183.652 50.1024 182.01 49.0184 180.287 48.2348C178.946 47.2313 177.143 46.7482 176.073 45.3342C175.823 44.4622 175.984 43.8613 176.746 43.4213C178.08 42.6514 179.201 43.274 180.323 43.8965C187.703 47.0013 194.652 51.1176 201.219 55.4538C203.682 57.0798 205.793 59.4169 207.604 61.6734C208.344 62.5159 208.784 63.2779 209.605 63.8199Z" fill="#FFBB00"/>
<path d="M44.7276 45.7283C44.9692 44.8268 45.2912 43.6249 45.5328 42.7234C46.1043 42.3935 46.8663 41.9535 47.4377 41.6236C47.9287 41.5941 48.4197 41.5646 48.3687 42.3561C47.2257 43.016 45.8627 43.2949 46.1711 45.1489C46.23 46.1308 45.3286 45.8893 44.7276 45.7283Z" fill="#FFBB00"/>
<path d="M48.3715 42.357C47.961 42.086 47.6605 42.0055 47.4406 41.6245C48.2026 41.1846 48.9646 40.7446 49.7266 40.3047C49.8365 40.4952 49.8365 40.4952 49.9465 40.6857C50.0055 41.6676 49.544 42.1881 48.3715 42.357C48.562 42.247 48.3715 42.357 48.3715 42.357Z" fill="#FFBB00"/>
<path d="M150.852 42.1194C151.152 42.1999 151.343 42.0899 151.453 42.2804C152.684 43.0934 154.817 44.148 153.923 45.6799C152.949 47.5123 151.549 45.5268 150.156 45.3147C149.665 45.3442 149.145 44.8827 148.735 44.6117C148.134 44.4506 147.423 44.0991 146.712 43.7476C145.51 43.4255 144.659 42.3925 143.377 42.3709C142.585 42.3199 141.684 42.0783 140.892 42.0273C140.292 41.8663 139.991 41.7858 139.39 41.6247C139.09 41.5442 138.98 41.3537 138.87 41.1632C138.019 40.1302 136.576 40.7096 135.755 40.1676C135.014 39.3251 133.321 39.0325 134.105 37.3101C135.219 36.1592 136.45 36.9722 137.652 37.2943C139.975 38.2389 142.299 39.1835 144.702 39.8276C145.413 40.1791 146.124 40.5307 146.725 40.6917C147.326 40.8527 148.037 41.2042 148.748 41.5558C149.078 42.1273 149.98 42.3688 150.852 42.1194Z" fill="#FFBB00"/>
<path d="M147.823 31.1608C148.123 31.2413 148.233 31.4318 148.534 31.5123C148.102 32.5238 147.64 33.0442 146.629 32.6122C145.617 32.1802 144.415 31.8581 143.404 31.4261C142.282 30.8035 141.03 31.2729 139.938 31.1414C139.036 30.8998 138.406 30.2478 137.424 30.3067C135.731 30.0142 134.47 28.7101 132.858 28.1171C132.147 27.7655 131.817 27.194 131.868 26.4026C132.702 23.8887 134.213 26.0647 135.576 25.7858C138.8 26.972 141.945 28.4586 145.169 29.6447C145.8 30.2967 146.621 30.8388 147.823 31.1608Z" fill="#FFBB00"/>
<path d="M100.907 27.7667C106.807 29.1865 112.707 30.6063 117.823 33.7484C115.017 34.6067 112.634 32.6802 110.069 32.637C108.017 31.282 105.804 30.5279 103.4 29.8837C102.198 29.5617 100.805 29.3496 100.907 27.7667Z" fill="#FFBB00"/>
<path d="M118.912 33.8829C120.245 33.113 121.506 34.417 122.869 34.1381C123.06 34.0281 123.06 34.0281 123.25 33.9182C124.122 33.6687 124.753 34.3207 125.354 34.4818C126.695 35.4853 128.329 34.7959 129.67 35.7995C130.381 36.151 131.173 36.202 131.613 36.964C131.943 37.5355 132.654 37.887 132.984 38.4585C133.204 38.8395 133.123 39.14 132.852 39.5505C131.46 39.3384 130.148 38.8259 128.675 38.9143C126.901 38.9222 125.098 38.4391 124.109 36.7246C123.779 36.1531 123.178 35.9921 122.687 36.0215C120.672 36.9309 119.872 35.1064 118.912 33.8829Z" fill="#FFBB00"/>
<path d="M141.389 32.3364C143.302 33.0099 145.325 33.874 147.047 34.6576C147.568 35.1191 147.597 35.6101 147.326 36.0206C145.912 37.0909 144.761 35.9774 143.559 35.6554C141.757 35.1723 140.276 33.4873 138.151 34.2061C137.96 34.3161 137.66 34.2356 137.359 34.1551C137.059 34.0745 136.648 33.8035 136.238 33.5325C134.567 31.9575 132.273 31.5039 130.631 30.4198C130.22 30.1488 129.81 29.8778 129.67 29.1963C129.45 28.8153 129.721 28.4048 129.992 27.9944C131.216 27.034 132.447 27.847 133.459 28.2791C134.991 29.1726 136.794 29.6557 138.596 30.1388C139.527 30.8713 140.92 31.0834 141.389 32.3364Z" fill="#FFBB00"/>
<path d="M76.8003 72.6788C72.1614 72.5631 67.9252 70.9449 63.3885 69.2462C65.975 68.0069 66.9569 67.9479 70.4017 69.5151C71.3621 70.7386 72.8645 71.1411 74.2569 71.3532C75.1584 71.5948 76.1403 71.5358 76.5803 72.2978C76.6903 72.4883 76.8003 72.6788 76.8003 72.6788Z" fill="#FFBB00"/>
<path d="M114.483 37.2042C113.061 36.5012 111.478 36.3991 109.975 35.9965C109.044 35.264 108.194 34.231 108.897 32.8091C109.388 32.7796 109.689 32.8601 110.07 32.6402C111.66 34.5157 114.496 34.1484 115.897 36.1339C116.285 37.6873 115.384 37.4458 114.483 37.2042Z" fill="#FFBB00"/>
<path d="M133.164 66.0426C131.09 65.97 129.477 65.3769 127.945 64.4833C127.234 64.1318 126.985 63.2598 127.336 62.5489C127.578 61.6474 128.509 62.38 129 62.3505C130.913 63.0241 131.983 64.4381 133.164 66.0426Z" fill="#FFBB00"/>
<path d="M129.127 41.4482C129.046 41.7487 128.966 42.0492 128.885 42.3497C128.614 42.7601 128.314 42.6796 128.013 42.5991C126.701 42.0865 125.499 41.7645 124.188 41.2519C123.286 41.0104 123.447 40.4094 123.608 39.8085C123.74 38.7165 124.451 39.068 125.052 39.2291C126.283 40.0421 127.785 40.4447 129.127 41.4482Z" fill="#FFBB00"/>
<path d="M108.9 32.811C109.64 33.6535 110 34.716 109.978 35.9984C107.464 35.1638 105.031 34.0287 104.173 31.2223C106.027 30.9139 106.936 32.9289 108.9 32.811Z" fill="#FFBB00"/>
<path d="M133.334 42.5781C137.269 44.1158 141.205 45.6534 144.599 48.012C140.502 47.0753 136.837 45.1272 132.982 43.2891C133.363 43.0691 133.143 42.6881 133.334 42.5781Z" fill="#FFBB00"/>
<path d="M76.6292 71.5048C79.0625 72.6399 81.3054 73.885 83.7387 75.0201C84.0392 75.1006 84.1492 75.2911 83.9587 75.4011C81.2838 75.1675 78.7699 74.3329 76.6076 72.7873C76.8786 72.3768 76.3582 71.9153 76.6292 71.5048Z" fill="#FFBB00"/>
<path d="M76.6312 71.5026C76.6607 71.9936 76.5802 72.294 76.6096 72.785C75.2977 72.2725 73.7953 71.8699 72.4834 71.3573C71.4719 70.9253 70.38 70.7937 70.2916 69.3208C72.5344 70.5659 74.7183 70.829 76.6312 71.5026Z" fill="#FFBB00"/>
<path d="M45.7711 53.2559C44.5102 51.9519 46.4957 50.5516 45.4253 49.1376C44.4944 48.4051 43.9445 47.4526 45.168 46.4922C45.3074 47.1737 45.4469 47.8551 45.6668 48.2361C46.9572 50.0311 48.6285 51.6062 45.7711 53.2559Z" fill="#FFBB00"/>
<path d="M141.39 32.3353C140.489 32.0938 139.287 31.7717 138.385 31.5302C137.564 30.9881 136.062 30.5856 137.857 29.2952C138.458 29.4563 139.359 29.6978 139.96 29.8588C140.481 30.3203 141.653 30.1514 142.013 31.2139C141.932 31.5144 141.661 31.9248 141.39 32.3353Z" fill="#FFBB00"/>
<path d="M132.965 39.7426C132.745 39.3616 132.635 39.1711 132.415 38.7901C132.656 37.8887 130.794 36.4236 133.029 35.8953C133.931 36.1368 134.451 36.5983 134.32 37.6903C134.108 39.0827 135.119 39.5147 136.021 39.7563C136.512 39.7268 136.731 40.1078 136.761 40.5988C136.028 41.5297 135.317 41.1782 134.687 40.5262C134.277 40.2552 133.566 39.9036 132.965 39.7426Z" fill="#FFBB00"/>
<path d="M134.688 40.5263C135.48 40.5774 135.97 40.5479 136.762 40.5989C137.714 40.049 138.616 40.2906 138.975 41.353C139.085 41.5435 139.195 41.734 139.195 41.734C138.294 41.4925 137.451 42.2329 136.66 42.1819C135.868 42.1308 134.205 42.3292 134.688 40.5263Z" fill="#FFBB00"/>
<path d="M95.3018 24.6576C96.5037 24.9797 98.0867 25.0818 98.2851 26.7452C97.1931 26.6137 95.9912 26.2916 94.7087 26.27C94.2688 25.508 94.4298 24.9071 95.3018 24.6576Z" fill="#FFBB00"/>
<path d="M148.014 42.4867C147.303 42.1352 146.892 41.8642 146.181 41.5127C145.25 40.7802 145.411 40.1792 146.584 40.0103C147.566 39.9513 148.196 40.6033 149.208 41.0354C149.486 42.3983 148.805 42.5378 148.014 42.4867Z" fill="#FFBB00"/>
<path d="M144.896 48.0912C146.78 48.2738 148.583 48.7569 149.844 50.0609C147.77 49.9883 146.157 49.3952 144.896 48.0912Z" fill="#FFBB00"/>
<path d="M87.577 48.6738C89.4604 48.8564 91.0218 50.241 92.8247 50.724C90.6703 50.9519 88.8968 50.9598 87.577 48.6738Z" fill="#FFBB00"/>
<path d="M26.4221 82.2071C25.6306 82.156 24.3481 82.1344 25.6522 80.8736C26.3042 80.2431 25.4832 79.7011 25.9448 79.1807C26.6341 80.8146 28.5176 80.9972 29.6684 82.1108C28.6649 83.4521 27.675 81.7377 26.4221 82.2071Z" fill="#FFBB00"/>
<path d="M102.108 46.1237C100.686 45.4207 98.8829 44.9376 97.8126 43.5236C99.696 43.7062 101.118 44.4092 102.489 45.9037C102.298 46.0137 102.108 46.1237 102.108 46.1237Z" fill="#FFBB00"/>
<path d="M150.443 37.0175C150.253 37.1274 150.062 37.2374 149.872 37.3474C148.86 36.9154 147.226 37.6048 147.108 35.6408C147.079 35.1498 147.159 34.8494 146.939 34.4684C148.742 34.9514 150.054 35.464 150.443 37.0175Z" fill="#FFBB00"/>
<path d="M109.25 50.1328C108.048 49.8107 106.927 49.1882 106.267 48.0452C107.74 47.9568 108.781 48.8798 109.822 49.8028C109.741 50.1033 109.851 50.2938 109.25 50.1328C109.551 50.2133 109.36 50.3233 109.25 50.1328Z" fill="#FFBB00"/>
<path d="M48.5597 42.2461C49.0212 41.7256 49.6732 41.0952 50.1347 40.5748C50.6257 40.5453 51.3072 40.4058 51.7982 40.3764C52.3186 40.8379 52.2381 41.1384 51.9671 41.5488C50.8536 42.6997 49.6517 42.3777 48.5597 42.2461Z" fill="#FFBB00"/>
<path d="M95.3003 24.6579C95.1393 25.2589 94.9782 25.8598 94.8172 26.4608C94.3262 26.4903 94.0258 26.4097 93.5348 26.4392C92.5528 26.4982 91.8419 26.1466 91.9734 25.0547C92.5154 24.2337 93.2264 24.5853 93.9079 24.4458C94.4794 24.1159 94.8898 24.3869 95.3003 24.6579Z" fill="#FFBB00"/>
<path d="M145.242 39.0042C145.462 39.3852 145.572 39.5757 145.792 39.9567C145.711 40.2572 145.521 40.3672 145.33 40.4772C144.238 40.3456 143.146 40.214 142.296 39.181C141.827 37.9281 142.479 37.2976 143.841 37.0187C144.743 37.2603 146.025 37.2818 145.242 39.0042Z" fill="#FFBB00"/>
<path d="M114.483 37.2061C115.165 37.0666 115.656 37.0372 116.007 36.3262C116.198 36.2162 116.198 36.2162 116.388 36.1062C117.019 36.7582 118.492 36.6698 118.661 37.8423C117.107 38.2312 115.634 38.3196 114.483 37.2061Z" fill="#FFBB00"/>
<path d="M143.154 41.9905C144.627 41.9021 145.587 43.1256 146.708 43.7481C146.628 44.0486 146.547 44.3491 146.137 44.0781C145.125 43.646 143.924 43.324 142.802 42.7014C142.692 42.5109 142.773 42.2105 143.154 41.9905Z" fill="#FFBB00"/>
<path d="M118.684 36.5563C119.776 36.6878 120.868 36.8194 121.718 37.8524C120.766 38.4023 119.945 37.8603 119.344 37.6993C118.743 37.5382 118.523 37.1572 118.684 36.5563Z" fill="#FFBB00"/>
<path d="M145.24 39.0051C145.291 38.2137 144.5 38.1626 144.089 37.8916C143.789 37.8111 143.378 37.5401 143.349 37.0491C143.429 36.7486 143.62 36.6386 143.7 36.3381C145.063 36.0592 145.965 36.3008 146.815 37.3338C147.145 37.9053 146.874 38.3157 146.413 38.8362C145.922 38.8657 145.731 38.9757 145.24 39.0051Z" fill="#FFBB00"/>
<path d="M105.747 54.1885C105.827 53.888 105.908 53.5875 105.988 53.287C107.19 53.6091 108.282 53.7406 108.752 54.9936C107.609 55.6535 106.758 54.6205 105.747 54.1885Z" fill="#FFBB00"/>
<path d="M108.75 54.9899C109.893 54.33 110.824 55.0625 111.455 55.7145L111.294 56.3155C110.312 56.3744 109.3 55.9424 108.75 54.9899C108.941 54.8799 108.75 54.9899 108.75 54.9899Z" fill="#FFBB00"/>
<path d="M24.1265 75.1514C24.1776 74.3599 22.9462 73.5469 24.1697 72.5865C24.9611 72.6375 25.5621 72.7985 25.621 73.7805C25.1595 74.301 24.698 74.8214 24.1265 75.1514Z" fill="#FFBB00"/>
<path d="M111.649 50.7782C112.66 51.2102 113.672 51.6422 114.412 52.4848C114.712 52.5653 114.822 52.7558 114.632 52.8657C113.62 52.4337 112.419 52.1116 111.407 51.6796C111.378 51.1886 111.268 50.9981 111.649 50.7782Z" fill="#FFBB00"/>
<path d="M118.684 36.5562C118.904 36.9372 119.124 37.3182 119.344 37.6992C119.153 37.8091 118.853 37.7286 118.853 37.7286C117.841 37.2966 116.749 37.165 116.581 35.9926C117.262 35.8531 117.973 36.2046 118.684 36.5562Z" fill="#FFBB00"/>
<path d="M102.11 46.1274C102.3 46.0174 102.3 46.0174 102.491 45.9074C103.282 45.9585 104.074 46.0095 104.433 47.072C103.18 47.5414 102.63 46.5889 102.11 46.1274Z" fill="#FFBB00"/>
<path d="M92.3585 24.8346C92.4979 25.5161 93.0184 25.9776 93.7294 26.3291C92.4764 26.7985 91.9559 26.337 91.406 25.3845C91.3765 24.8935 91.6475 24.4831 92.3585 24.8346Z" fill="#FFBB00"/>
<path d="M51.8852 41.8454C51.8557 41.3545 51.8262 40.8635 51.7162 40.673C52.2072 40.6435 52.6177 40.9145 53.1087 40.8851C53.3286 41.2661 53.7391 41.5371 53.2776 42.0575C52.8966 42.2775 52.3762 41.816 51.8852 41.8454Z" fill="#FFBB00"/>
<path d="M45.2765 46.6791C44.7345 47.5 45.2844 48.4525 45.5338 49.3245C44.1924 48.3209 44.0235 47.1485 44.7266 45.7266C44.9465 46.1076 45.0565 46.2981 45.2765 46.6791Z" fill="#FFBB00"/>
<path d="M92.3547 24.8354C91.9737 25.0553 91.4827 25.0848 91.2922 25.1948C91.4532 24.5938 91.4237 24.1028 91.6948 23.6924C92.5667 23.4429 93.3582 23.494 94.0986 24.3365C93.4171 24.4759 92.7357 24.6154 92.3547 24.8354Z" fill="#FFBB00"/>
<path d="M114.637 52.8664C114.527 52.6759 114.417 52.4854 114.417 52.4854C115.399 52.4264 116.22 52.9684 117.151 53.701C115.788 53.9799 115.348 53.2179 114.637 52.8664Z" fill="#FFBB00"/>
<path d="M142.015 31.2166C141.304 30.8651 140.673 30.2131 139.962 29.8616C141.245 29.8832 142.447 30.2052 143.297 31.2382C142.806 31.2677 142.506 31.1872 142.015 31.2166Z" fill="#FFBB00"/>
<path d="M25.4279 73.8896C24.9074 73.4281 24.497 73.1571 23.9765 72.6955C23.7566 72.3145 23.5366 71.9336 23.4266 71.7431C24.6285 72.0651 26.4825 71.7567 25.4279 73.8896Z" fill="#FFBB00"/>
<path d="M143.151 41.9886C143.07 42.2891 142.99 42.5895 142.909 42.89C142.037 43.1395 141.517 42.6779 140.806 42.3264C141.568 41.8865 142.249 41.747 143.151 41.9886Z" fill="#FFBB00"/>
<path d="M124.415 61.4445C125.096 61.305 125.397 61.3855 125.917 61.847C125.075 62.5875 124.635 61.8255 124.415 61.4445Z" fill="#FFBB00"/>
<path d="M115.041 57.9684C113.868 58.1373 113.348 57.6758 112.717 57.0238C113.78 56.6644 114.381 56.8254 115.041 57.9684Z" fill="#FFBB00"/>
<path d="M133.335 42.5775C133.255 42.878 133.174 43.1785 132.984 43.2885C132.573 43.0174 131.782 42.9664 131.642 42.2849C132.595 41.735 132.925 42.3065 133.335 42.5775Z" fill="#FFBB00"/>
<path d="M111.653 50.7788C111.572 51.0793 111.492 51.3798 111.411 51.6803C110.7 51.3287 110.07 50.6767 109.359 50.3252C109.549 50.2152 109.74 50.1052 109.74 50.1052C110.341 50.2663 110.942 50.4273 111.653 50.7788Z" fill="#FFBB00"/>
<path d="M146.415 38.8386C146.386 38.3476 146.466 38.0471 146.437 37.5561C147.389 37.0062 147.99 37.1672 148.269 38.5302C148.079 38.6402 147.888 38.7501 147.698 38.8601C147.207 38.8896 146.906 38.8091 146.415 38.8386Z" fill="#FFBB00"/>
<path d="M145.408 40.1788C145.598 40.0688 145.789 39.9588 145.979 39.8488C146.28 39.9293 146.58 40.0098 146.69 40.2003C146.229 40.7208 146.148 41.0213 146.288 41.7027C145.687 41.5417 144.976 41.1902 144.565 40.9192C144.426 40.2377 144.807 40.0177 145.408 40.1788Z" fill="#FFBB00"/>
<path d="M85.144 47.54C86.0454 47.7816 87.1374 47.9131 87.7678 48.5652C86.5954 48.7341 85.6939 48.4925 85.144 47.54Z" fill="#FFBB00"/>
<path d="M146.136 44.0791C146.327 43.9691 146.517 43.8591 146.708 43.7492C147.499 43.8002 147.91 44.0712 148.54 44.7232C147.668 44.9727 146.957 44.6211 146.136 44.0791Z" fill="#FFBB00"/>
<path d="M143.169 45.5319C143.249 45.2314 143.249 45.2314 143.33 44.9309C143.63 45.0114 143.931 45.0919 144.151 45.4729L144.07 45.7734C143.77 45.6929 143.469 45.6124 143.169 45.5319Z" fill="#FFBB00"/>
<path d="M84.0692 75.5917L83.9592 75.4012L83.8492 75.2107C84.6407 75.2617 85.1316 75.2323 85.7621 75.8843C85.0001 76.3242 84.6701 75.7527 84.0692 75.5917Z" fill="#FFBB00"/>
<path d="M88.0042 77.1304C88.1947 77.0205 88.2753 76.72 88.2753 76.72C88.4657 76.61 88.5757 76.8005 88.8762 76.881C88.8762 76.881 88.7957 77.1815 88.9057 77.372C88.4952 77.101 88.3047 77.211 88.0042 77.1304Z" fill="#FFBB00"/>
<path d="M139.395 43.396C139.094 43.3155 138.794 43.235 138.684 43.0445C138.874 42.9345 138.764 42.744 138.955 42.634C139.145 42.5241 139.255 42.7146 139.556 42.7951C139.365 42.9051 139.285 43.2055 139.395 43.396Z" fill="#FFBB00"/>
<path d="M120.29 30.548C120.07 30.167 119.96 29.9765 119.549 29.7055C119.791 28.8041 120.282 28.7746 121.073 28.8256C121.484 29.0966 121.594 29.2871 122.004 29.5582C122.906 29.7997 123.807 30.0412 125.009 30.3633C126.182 30.1944 127.244 29.8349 128.175 30.5675C128.805 31.2195 129.597 31.2705 130.388 31.3216C130.879 31.2921 131.37 31.2626 131.861 31.2332C132.462 31.3942 133.173 31.7457 133.884 32.0972C133.994 32.2877 134.295 32.3683 134.405 32.5588C134.815 32.8298 134.925 33.0203 135.145 33.4013C135.365 33.7823 135.394 34.2732 135.314 34.5737C135.043 34.9842 134.852 35.0942 134.471 35.3141C133.189 35.2926 132.287 35.051 131.035 35.5204C129.752 35.4989 128.631 34.8763 127.458 35.0452C126.286 35.2142 125.545 34.3717 124.534 33.9396C122.921 33.3466 121.28 32.2625 120.29 30.548Z" fill="#FFBB00"/>
<path d="M133.33 29.3694C132.429 29.1278 131.227 28.8058 130.325 28.5642C129.343 28.6232 128.522 28.0812 127.43 27.9496C127.13 27.8691 126.939 27.9791 126.639 27.8986C126.338 27.818 126.038 27.7375 125.627 27.4665C124.506 26.844 123.304 26.5219 122.183 25.8994C121.061 25.2768 119.779 25.2553 119.089 23.6213C121.676 22.382 123.787 24.719 126.242 24.5717C127.305 24.2122 128.155 25.2453 129.327 25.0763C130.419 25.2079 131.13 25.5594 131.68 26.5119C132.201 26.9734 132.611 27.2444 133.132 27.7059C134.634 28.1085 135.074 28.8705 133.33 29.3694Z" fill="#FFBB00"/>
<path d="M133.649 33C132.857 32.949 132.256 32.7879 131.926 32.2164C131.105 31.6744 130.123 31.7333 129.303 31.1913C129.193 31.0008 129.083 30.8103 129.163 30.5098C129.434 30.0994 129.515 29.7989 129.896 29.5789C129.976 29.2784 129.976 29.2784 129.976 29.2784L130.277 29.359C132.71 30.494 135.224 31.3287 137.276 32.6837C137.145 33.7757 136.353 33.7246 135.562 33.6736C135.261 33.5931 135.151 33.4026 134.851 33.3221C134.36 33.3515 133.949 33.0805 133.649 33Z" fill="#FFBB00"/>
<path d="M132.059 26.2945C131.077 26.3535 130.066 25.9214 129.626 25.1594C129.325 25.0789 129.406 24.7784 129.406 24.7784C131.45 24.3601 133.554 24.9237 135.386 25.8977C134.214 26.0667 132.953 24.7626 132.059 26.2945Z" fill="#FFBB00"/>
<path d="M120.292 30.5464C121.744 31.7404 123.385 32.8245 124.998 33.4175C124.917 33.718 124.837 34.0185 124.646 34.1285C124.075 34.4585 123.364 34.1069 122.682 34.2464C122.674 32.473 120.029 32.7303 120.292 30.5464Z" fill="#FFBB00"/>
<path d="M128.019 31.1712C127.117 30.9296 125.864 31.399 125.014 30.366C126.098 28.7242 127.41 29.2367 128.751 30.2403C128.781 30.7312 128.81 31.2222 128.019 31.1712Z" fill="#FFBB00"/>
<path d="M130.272 29.3596C130.082 29.4696 130.082 29.4696 129.891 29.5796C128.88 29.1475 128.059 28.6055 127.047 28.1735C126.937 27.983 127.018 27.6825 127.208 27.5725C128.491 27.5941 129.583 27.7256 130.433 28.7587C130.433 28.7587 130.353 29.0591 130.272 29.3596Z" fill="#FFBB00"/>
<path d="M121.218 29.5108C120.727 29.5403 120.046 29.6798 119.555 29.7092C118.433 29.0867 118.404 28.5957 119.627 27.6353C120.258 28.2873 121.621 28.0084 121.218 29.5108Z" fill="#FFBB00"/>
<path d="M147.824 31.1649C146.38 31.7443 145.369 31.3123 144.98 29.7588C146.152 29.5899 146.973 30.1319 147.824 31.1649Z" fill="#FFBB00"/>
<path d="M129.297 24.5874C129.407 24.7779 129.517 24.9684 129.517 24.9684C128.374 25.6283 127.524 24.5953 126.622 24.3538C127.575 23.8038 128.476 24.0454 129.297 24.5874Z" fill="#FFBB00"/>
<path d="M128.016 31.1715C128.287 30.761 128.368 30.4605 128.749 30.2406C128.859 30.4311 129.049 30.3211 129.159 30.5116C129.269 30.7021 129.379 30.8926 129.489 31.0831C130.471 31.0241 130.881 31.2951 130.75 32.3871C129.577 32.556 128.566 32.124 128.016 31.1715Z" fill="#FFBB00"/>
<path d="M121.216 29.5107C120.586 28.8586 120.256 28.2871 119.626 27.6351C120.908 27.6567 121.649 28.4992 122.118 29.7522C121.817 29.6717 121.517 29.5912 121.216 29.5107Z" fill="#FFBB00"/>
<path d="M127.098 27.3819C127.018 27.6824 126.827 27.7924 126.937 27.9829C126.637 27.9024 126.527 27.7119 126.226 27.6314L126.417 27.5214C126.717 27.6019 126.908 27.4919 127.098 27.3819Z" fill="#FFBB00"/>
<path d="M126.529 27.713L126.338 27.823C126.228 27.6325 126.118 27.442 126.118 27.442C126.118 27.442 126.419 27.5225 126.529 27.713Z" fill="#FFBB00"/>
<path d="M145.41 40.1789C145.029 40.3989 144.648 40.6189 144.457 40.7288C141.973 40.3852 139.92 39.0301 137.516 38.386C137.106 38.115 137.077 37.624 137.348 37.2136C137.619 36.8031 138 36.5831 138.381 36.3632C138.872 36.3337 139.172 36.4142 139.663 36.3847C140.784 37.0073 142.206 37.7103 143.057 38.7433C143.768 39.0949 144.589 39.6369 145.41 40.1789Z" fill="#FFBB00"/>
<path d="M137.376 37.7036C137.296 38.0041 137.406 38.1946 137.325 38.495C136.424 38.2535 135.222 37.9314 134.32 37.6899C133.8 37.2284 133.279 36.7669 132.649 36.1149C131.777 36.3643 130.905 36.6137 130.817 35.1408C131.879 34.7814 132.861 34.7224 134.063 35.0445C134.693 35.6965 135.455 35.2566 136.276 35.7986C136.907 36.4506 137.808 36.6921 137.376 37.7036Z" fill="#FFBB00"/>
<path d="M138.977 41.3531C138.266 41.0016 137.475 40.9505 136.764 40.599C136.544 40.218 136.434 40.0275 136.214 39.6465C137.797 39.7486 138.999 40.0706 141.131 41.1252C139.959 41.2941 139.468 41.3236 138.977 41.3531Z" fill="#FFBB00"/>
<path d="M133.329 29.3742C133.68 28.6633 134.032 27.9523 133.402 27.3003C134.904 27.7029 136.326 28.4059 137.557 29.219C137.015 30.0399 137.646 30.6919 138.086 31.4539C136.583 31.0513 134.78 30.5682 133.329 29.3742Z" fill="#FFBB00"/>
<path d="M131.007 35.0291C131.718 35.3807 132.128 35.6517 132.839 36.0032C132.297 36.8241 134.24 37.9887 132.496 38.4876C131.975 38.0261 131.565 37.7551 131.235 37.1836C130.795 36.4216 129.894 36.18 129.183 35.8285C128.472 35.477 127.68 35.4259 127.621 34.444C128.925 33.1831 129.725 35.0076 131.007 35.0291Z" fill="#FFBB00"/>
<path d="M127.54 34.7453C128.251 35.0968 128.662 35.3678 129.373 35.7193C130.084 36.0709 129.813 36.4813 129.542 36.8918C128.2 35.8882 126.376 36.6876 125.115 35.3836C124.895 35.0026 124.374 34.5411 124.535 33.9401C124.726 33.8301 124.916 33.7201 125.107 33.6102C125.818 33.9617 126.719 34.2032 127.54 34.7453Z" fill="#FFBB00"/>
<path d="M129.431 36.6977C129.402 36.2067 129.292 36.0162 129.262 35.5252C130.164 35.7668 131.175 36.1988 131.153 37.4813C130.552 37.3202 130.032 36.8587 129.431 36.6977Z" fill="#FFBB00"/>
<path d="M124.425 33.7495C124.645 34.1305 125.165 34.592 125.004 35.193C124.293 34.8414 123.582 34.4899 122.872 34.1384C123.333 33.6179 123.934 33.779 124.425 33.7495Z" fill="#FFBB00"/>
<path d="M148.265 38.529C147.744 38.0675 147.033 37.7159 146.432 37.5549C145.421 37.1229 144.52 36.8813 143.428 36.7498C141.383 37.1681 140.122 35.8641 138.4 35.0805C137.689 34.729 137.85 34.128 138.202 33.4171C140.327 32.6982 141.807 34.3833 143.61 34.8664C144.812 35.1884 145.934 35.811 147.216 35.8325C148.037 36.3745 149.319 36.3961 149.979 37.5391C149.598 37.7591 149.027 38.089 148.646 38.309C148.455 38.419 148.455 38.419 148.265 38.529Z" fill="#FFBB00"/>
<path d="M138.203 33.4178C138.401 35.0813 139.764 34.8024 140.775 35.2344C141.596 35.7764 142.578 35.7175 143.319 36.56C141.905 37.6304 140.512 37.4183 138.98 36.5248C137.969 36.0927 136.577 35.8806 136.488 34.4077C136.649 33.8067 137.111 33.2863 137.712 33.4473C138.012 33.5278 138.203 33.4178 138.203 33.4178Z" fill="#FFBB00"/>
<path d="M137.821 33.6373C137.55 34.0478 137.169 34.2677 136.898 34.6782C136.276 35.7996 135.645 35.1476 135.125 34.6861C134.905 34.3051 134.795 34.1146 134.575 33.7336L134.655 33.4331L134.956 33.5136C135.637 33.3742 136.319 33.2347 137.081 32.7948C137.491 33.0658 137.711 33.4468 137.821 33.6373Z" fill="#FFBB00"/>
<path d="M139.471 36.4935C140.753 36.5151 142.146 36.7272 143.428 36.7488C143.648 37.1297 143.758 37.3202 143.978 37.7012C143.296 37.8407 142.505 37.7897 142.864 38.8521C141.552 38.3396 140.16 38.1275 139.31 37.0945C138.899 36.8235 139.09 36.7135 139.471 36.4935Z" fill="#FFBB00"/>
<path d="M139.471 36.4924C139.391 36.7929 139.31 37.0934 139.31 37.0934C138.819 37.1228 138.629 37.2328 138.328 37.1523C137.427 36.9108 136.555 37.1602 135.653 36.9187C134.942 36.5671 133.851 36.4356 134.173 35.2336C134.554 35.0137 134.744 34.9037 135.125 34.6837C135.616 34.6543 136.408 34.7053 136.899 34.6758C137.719 35.2178 138.65 35.9504 139.471 36.4924Z" fill="#FFBB00"/>
<path d="M130.556 32.4955C130.036 32.034 129.816 31.653 129.296 31.1914C130.548 30.722 131.259 31.0736 131.729 32.3265C131.428 32.246 131.047 32.466 130.556 32.4955Z" fill="#FFBB00"/>
<path d="M133.645 32.9992C134.026 32.7792 134.407 32.5592 134.818 32.8302C134.928 33.0207 134.737 33.1307 134.547 33.2407C134.356 33.3507 134.166 33.4607 134.056 33.2702C133.865 33.3802 133.755 33.1897 133.645 32.9992Z" fill="#FFBB00"/>
<path d="M133.976 33.572C134.167 33.462 134.357 33.352 134.357 33.352C134.658 33.4325 134.768 33.623 134.577 33.733C134.277 33.6525 134.167 33.462 133.976 33.572Z" fill="#FFBB00"/>
<path d="M134.574 33.7344C134.464 33.5439 134.354 33.3534 134.354 33.3534C134.545 33.2434 134.545 33.2434 134.735 33.1334C134.845 33.3239 134.955 33.5144 135.146 33.4045C134.955 33.5144 134.765 33.6244 134.574 33.7344Z" fill="#FFBB00"/>
<path d="M135.841 36.8108C136.904 36.4514 137.666 36.0114 138.516 37.0444C138.135 37.2644 137.754 37.4844 137.673 37.7849C136.963 37.4333 136.252 37.0818 135.841 36.8108Z" fill="#FFBB00"/>
</g>
</svg>
