<svg xmlns="http://www.w3.org/2000/svg" width="16" height="18" fill="none" viewBox="0 0 16 18">
    <path fill="#123399" d="M16 6.246c-.01-.083-.027-.164-.053-.243v-.081c-.043-.093-.1-.178-.17-.252L10.445.27c-.073-.07-.157-.128-.248-.171-.027-.004-.054-.004-.08 0-.09-.052-.19-.086-.294-.099h-3.6c-.707 0-1.385.284-1.885.79-.5.507-.781 1.194-.781 1.91v.9h-.89c-.707 0-1.385.284-1.885.79C.281 4.898 0 5.585 0 6.3v9c0 .716.281 1.403.781 1.91.5.505 1.178.79 1.886.79h7.11c.708 0 1.386-.285 1.886-.79.5-.507.781-1.194.781-1.91v-.9h.89c.707 0 1.385-.284 1.885-.79.5-.507.781-1.194.781-1.91V6.246zm-5.333-3.177L12.969 5.4h-1.413c-.236 0-.462-.095-.629-.264-.167-.168-.26-.397-.26-.636V3.069zm0 12.231c0 .239-.094.468-.26.636-.167.17-.393.264-.63.264h-7.11c-.236 0-.462-.095-.629-.264-.167-.168-.26-.397-.26-.636v-9c0-.239.093-.468.26-.636.167-.17.393-.264.629-.264h.889v6.3c0 .716.28 1.403.78 1.91.5.506 1.179.79 1.886.79h4.445v.9zm3.555-3.6c0 .239-.093.468-.26.636-.167.17-.393.264-.629.264h-7.11c-.237 0-.463-.095-.63-.264-.166-.168-.26-.397-.26-.636v-9c0-.239.094-.468.26-.636.167-.17.393-.264.63-.264h2.666v2.7c0 .716.28 1.403.78 1.91.501.506 1.18.79 1.887.79h2.666v4.5z"/>
</svg>
