<?xml version="1.0" encoding="UTF-8"?>
<svg width="482px" height="104px" viewBox="0 0 482 104" version="1.1" xmlns="http://www.w3.org/2000/svg" xmlns:xlink="http://www.w3.org/1999/xlink">
    <!-- Generator: Sketch 55.1 (78136) - https://sketchapp.com -->
    <title>Group 6</title>
    <desc>Created with Sketch.</desc>
    <g id="Page-1" stroke="none" stroke-width="1" fill="none" fill-rule="evenodd">
        <g id="Artboard" transform="translate(-455.000000, -132.000000)">
            <g id="Group-6" transform="translate(455.000000, 132.000000)">
                <g id="Group-5">
                    <path d="M212.654432,13.1755161 L212.512164,0.584088126 L216.359333,0.584088126 L216.359333,16.3971462 L210.947214,16.3971462 L207.102415,3.36551822 L206.962518,3.36551822 L207.102415,16.3971462 L203.258802,16.3971462 L203.258802,0.579210564 L208.949531,0.579210564 L212.650875,13.1706385 L212.654432,13.1755161 Z M143.640123,2.19002563 L141.5061,16.6849224 L137.377951,16.6849224 L140.223315,0.724318052 L147.056932,0.724318052 L149.902296,16.6849224 L145.772961,16.6849224 L143.638938,2.19002563 L143.640123,2.19002563 Z M161.511382,12.8853011 L163.359683,0.731634396 L169.627783,0.731634396 L169.913505,16.6922388 L166.066336,16.6922388 L165.925253,2.34366885 L165.78417,2.34366885 L163.223343,16.6922388 L159.376173,16.6922388 L156.815345,2.34366885 L156.671892,2.34366885 L156.529623,16.6922388 L152.683639,16.6922388 L152.970547,0.731634396 L159.23509,0.731634396 L161.511382,12.8853011 Z M130.942686,12.1512279 C130.112788,10.1026516 124.659173,9.07836347 124.113812,5.70796768 C123.970805,4.98372577 123.970805,4.23730641 124.113812,3.51306449 C124.542987,0.879180666 126.815722,1.27897692e-13 129.522375,1.27897692e-13 C131.659955,1.27897692e-13 134.648773,0.440200028 134.648773,3.95448391 L134.648773,5.12509895 L130.80516,5.12509895 L130.80516,3.95326452 C130.7227,3.2282993 130.088168,2.70673589 129.382478,2.78386888 C129.060213,2.70968541 128.722472,2.77827559 128.451807,2.97287443 C128.180956,3.16780797 128.002375,3.47098292 127.959796,3.80815703 L127.959796,4.6873377 C128.3866,6.44691842 134.083256,7.46998719 134.794598,10.8367248 C134.936403,11.7090379 134.936403,12.5995149 134.794598,13.471828 C134.510061,16.1044925 132.090316,17.13 129.384849,17.13 C126.537114,17.13 123.829275,15.9569462 123.829275,12.4426623 L123.829275,11.2720473 L127.952682,11.2720473 L127.952682,13.0291892 C127.987837,13.4192772 128.173607,13.7785758 128.468404,14.0266508 C128.762973,14.2741266 129.141975,14.3892692 129.520004,14.3461311 C130.186696,14.4601394 130.819382,14.0040822 130.942686,13.3206236 C131.083169,12.944215 131.083169,12.5276365 130.942686,12.1512279 Z M180.782796,12.0036817 C180.071455,10.0892383 174.617841,9.07714408 174.095005,5.85551395 C173.953151,5.13115339 173.953151,4.38497133 174.095005,3.66061076 C174.522995,1.02550755 176.657018,0.14754627 179.362485,0.14754627 C181.497694,0.14754627 184.487698,0.734073178 184.487698,4.10081079 L184.487698,5.27142583 L180.644085,5.27142583 L180.644085,3.95204513 C180.519413,3.25208772 179.912685,2.75337805 179.221403,2.78264949 C178.898558,2.70708529 178.559701,2.77528451 178.28836,2.97043565 C178.017174,3.16576234 177.839233,3.47020071 177.798721,3.80815703 L177.798721,4.68611831 C178.231453,6.58958713 183.922182,7.4687678 184.633523,10.8355054 C184.775901,11.7077695 184.775901,12.5983445 184.633523,13.4706086 C184.201976,16.1032731 181.929241,17.1287806 179.222588,17.1287806 C176.374853,17.1287806 173.669386,16.1032731 173.669386,12.5902086 L173.669386,11.4183741 L177.795164,11.4183741 L177.795164,13.0279698 C177.932385,13.7834584 178.618941,14.2975515 179.360114,14.1998042 C180.026051,14.3104068 180.656639,13.8558624 180.782796,13.1742967 C180.920606,12.7969635 180.920606,12.3810149 180.782796,12.0036817 Z M193.763585,14.2010236 C194.455931,14.2323585 195.064011,13.7320157 195.186267,13.0304086 L195.186267,0.580429954 L199.031065,0.580429954 L199.031065,13.0267504 C198.747715,15.953288 196.469052,16.9800149 193.620131,16.9800149 C190.77121,16.9800149 188.496105,15.9545074 188.211568,13.0267504 L188.211568,0.580429954 L192.055181,0.580429954 L192.055181,13.0267504 C192.341079,13.7366431 193.014142,14.1999169 193.761214,14.2010236 L193.763585,14.2010236 Z M225.685015,14.0534774 C226.425855,14.1525092 227.112651,13.6383825 227.248779,12.8828623 L227.248779,9.95632474 L225.685015,9.95632474 L225.685015,7.61387528 L231.094763,7.61387528 L231.094763,12.8853011 C230.810227,15.8118387 228.389296,16.8410044 225.685015,16.8410044 C222.980733,16.8410044 220.559802,15.8142775 220.275266,12.8853011 L220.275266,4.0995914 C220.559802,1.17305382 222.980733,0.146326879 225.685015,0.146326879 C228.389296,0.146326879 230.810227,1.17183442 231.094763,4.0995914 L231.094763,5.71040646 L227.248779,5.71040646 L227.248779,4.24713767 C227.112113,3.49182802 226.42592,2.97761731 225.685015,3.07530325 C224.959407,3.03778639 224.306859,3.52655259 224.118879,4.24835706 L224.118879,12.8853011 C224.289068,13.6188778 224.954205,14.1150014 225.685015,14.0534774 Z" id="Combined-Shape" fill="#6A7A8E"></path>
                    <g id="Group-32" transform="translate(275.755715, 0.000000)" fill-rule="nonzero">
                        <path d="M38.7452269,0.0827105578 C42.3397206,0.070625128 45.5209652,2.48647027 46.5867041,6.03754801 C47.652443,9.58862575 46.3531049,13.4433561 43.3839544,15.5391061 C40.4148039,17.634856 36.4711472,17.4808496 33.663201,15.1594942 C30.6771439,17.57202 26.486808,17.57202 23.5007509,15.1594942 C20.5146937,17.57202 16.3243579,17.57202 13.3383007,15.1594942 C10.3522436,17.57202 6.16190774,17.57202 3.17585061,15.1594942 C0.845699906,13.2946947 -0.335502139,10.2781361 0.0832331341,7.26155495 C0.501968407,4.24497381 2.45599214,1.69410243 5.19924862,0.582875858 C7.94250509,-0.528350714 11.0514609,-0.0283693682 13.3391016,1.8919246 C16.3251587,-0.520601234 20.5154946,-0.520601234 23.5015517,1.8919246 C26.4876088,-0.520601234 30.6779447,-0.520601234 33.6640018,1.8919246 C35.1057432,0.701462116 36.900595,0.0623896292 38.7452269,0.0827105578 Z M5.71114542,14.6296496 C7.78922048,15.5626571 10.1912248,15.2726553 12.0057304,13.8705121 C9.67279579,10.7815912 9.67279579,6.44627574 12.0057304,3.35735483 C9.78445376,1.63346531 6.72969759,1.63346531 4.5084209,3.35735483 C2.67706836,4.73670464 1.70034728,7.02516288 1.94886934,9.35438612 C2.1973914,11.6836094 3.63307037,13.6966421 5.71114542,14.6296496 Z M22.1681806,13.8696837 L22.1681806,13.8705121 C19.8352459,10.7815912 19.8352459,6.44627574 22.1681806,3.35735483 C19.9469039,1.63346531 16.8921477,1.63346531 14.670871,3.35735483 C17.0033886,6.44611541 17.0033886,10.7809231 14.670871,13.8696837 C16.8921477,15.5935732 19.9469039,15.5935732 22.1681806,13.8696837 Z M23.5007509,12.4912349 C25.1672647,10.1934828 25.1672647,7.0335557 23.5007509,4.73580362 C21.834237,7.0335557 21.834237,10.1934828 23.5007509,12.4912349 Z" id="Combined-Shape" fill="#637178"></path>
                        <path d="M13.3383007,12.4912349 C11.6717869,10.1934828 11.6717869,7.0335557 13.3383007,4.73580362 C15.0048146,7.0335557 15.0048146,10.1934828 13.3383007,12.4912349 L13.3383007,12.4912349 Z" id="Path" fill="#FFFFFF"></path>
                        <path d="M32.3306307,13.8696837 C30.109354,15.5935732 27.0545978,15.5935732 24.8333212,13.8696837 C25.9841618,12.3783052 26.6019643,10.5216591 26.5823197,8.61351925 C26.6019643,6.70537936 25.9841618,4.84873333 24.8333212,3.35735483 C27.0545978,1.63346531 30.109354,1.63346531 32.3306307,3.35735483 C29.9142923,6.4160385 29.9142923,10.8118284 32.3306307,13.8705121 L32.3306307,13.8696837 Z" id="Path" fill="#FFFFFF"></path>
                        <path d="M33.663201,12.4912349 C31.9966872,10.1934828 31.9966872,7.0335557 33.663201,4.73580362 C35.2464928,7.06154243 35.2464928,10.1654961 33.663201,12.4912349 L33.663201,12.4912349 Z" id="Path" fill="#FFFFFF"></path>
                        <path d="M38.7444261,15.0767471 C37.3914775,15.0841314 36.0738982,14.6299145 34.9957713,13.784359 C36.146612,12.2929805 36.7644144,10.4363345 36.7447698,8.52819459 C36.7644144,6.62005471 36.146612,4.76340868 34.9957713,3.27203018 C36.8102769,1.86905857 39.2122813,1.57905669 41.2903563,2.51206422 C43.3684314,3.44507175 44.8041103,5.45810448 45.0526324,7.78732772 C45.3011544,10.116551 44.3244334,12.4050092 42.4930808,13.784359 C41.4149821,14.62997 40.0973841,15.0841933 38.7444261,15.0767471 L38.7444261,15.0767471 Z" id="Path" fill="#FFFFFF"></path>
                    </g>
                    <g id="Group-2" transform="translate(368.000000, 0.000000)" fill="#6A7A8E">
                        <path d="M100.310188,16.8578681 L100.310188,0.400857217 L103.634041,0.400857217 L103.634041,7.47260325 L109.36089,0.400857217 L113.351959,0.400857217 L107.762628,6.92910333 L113.750251,16.8568269 L110.02403,16.8568269 L105.767094,9.5133309 L103.634041,11.8258085 L103.634041,16.8578681 L100.310188,16.8578681 Z M89.2710821,13.8696597 L89.2731194,13.8738245 C90.2305052,14.1483528 91.2433327,14.1483528 92.2007184,13.8738245 C92.6004154,13.7311706 92.9637933,13.4988567 93.2641886,13.193929 C93.5613643,12.8857612 93.7887758,12.5147055 93.9303854,12.1069292 C94.0951158,11.6255083 94.184832,11.1206249 94.1962529,10.6107426 L94.1962529,0.407104343 L97.3917567,0.407104343 L97.3917567,11.1448718 C97.407923,11.9926889 97.2259818,12.8322164 96.8610403,13.593745 C96.5408932,14.3107504 96.0877128,14.9574724 95.5266093,15.4980771 C94.8959473,16.0349572 94.1748495,16.44988 93.3986503,16.7225137 C91.6636228,17.2658288 89.8091964,17.2658288 88.0741689,16.7225137 C87.2975678,16.4498724 86.5758606,16.035349 85.9441725,15.4991183 C85.386356,14.9565178 84.9348457,14.3102056 84.6138162,13.5947862 C84.2350427,12.8386159 84.0519855,11.9959156 84.0820811,11.1469542 L84.0820811,0.402939593 L87.2755476,0.402939593 L87.2755476,10.6065779 C87.3116971,11.113573 87.4008272,11.6151579 87.5414151,12.1027644 C87.6839355,12.5098485 87.9108402,12.8806446 88.2065933,13.1897642 C88.5080694,13.4938064 88.87157,13.7259765 89.2710821,13.8696597 Z M77.3885346,15.7719094 L77.3885346,15.7729506 C77.2795592,15.5160579 77.2337457,15.2358096 77.2550915,14.9566596 C77.2337437,14.6771712 77.279554,14.3965854 77.3885346,14.1393273 C77.439539,13.8716031 77.5812986,13.6308471 77.7888639,13.4594318 C77.9917652,13.2933561 78.2154715,13.1557424 78.4540421,13.0502451 C78.7057314,12.9388533 78.9802436,12.8920295 79.253682,12.9138495 C79.525784,12.8923345 79.7989054,12.9391597 80.0492473,13.0502451 C80.3116244,13.1012791 80.5477303,13.2459293 80.7154442,13.4583906 C80.8478686,13.7301406 80.9813117,13.8665362 81.1127175,14.1382861 C81.2223095,14.3950248 81.2688203,14.6752598 81.2481979,14.9545772 C81.2701938,15.2341947 81.223994,15.5150228 81.1137362,15.7719094 C81.0627139,16.0388345 80.9217818,16.279041 80.7154442,16.4507637 C80.448558,16.5861181 80.3171522,16.7225137 80.0482287,16.8589093 C79.797718,16.969355 79.5246691,17.0158105 79.2526633,16.9942636 C78.7127545,17.0230645 78.1844078,16.8274045 77.7878452,16.4518049 C77.6554208,16.1790138 77.5219777,16.0436594 77.3885346,15.7719094 Z M72.2779695,16.8578681 L67.8906457,16.8578681 L63.3647856,0.401898405 L66.9596,0.401898405 L70.0155488,12.7784951 L70.1469546,12.7784951 L73.2100339,0.401898405 L76.8038297,0.401898405 L72.2779695,16.8578681 Z M52.3878175,13.598951 L52.3847615,13.598951 C53.570073,14.1434421 54.9266889,14.1434421 56.1120004,13.598951 C56.6390131,13.3592058 57.0970587,12.985307 57.4423568,12.5129923 C57.8401845,11.9948532 58.1137017,11.3886451 58.2409781,10.7429734 C58.3952919,10.0278815 58.4849708,9.29980497 58.5088829,8.56793258 L58.5088829,8.431537 C58.4927993,7.6984248 58.4033716,6.96891836 58.2419967,6.25441378 C58.1154945,5.60867721 57.8422811,5.00236922 57.4443941,4.4843949 C57.0617556,4.05049282 56.6123965,3.68333308 56.1140377,3.39739507 C54.9285583,2.85370525 53.5722783,2.85370525 52.3867988,3.39739507 C51.8591183,3.63745011 51.4004046,4.01168017 51.0544052,4.4843949 C50.657306,5.00273338 50.3844932,5.60892652 50.2578212,6.25441378 C50.1024101,6.96998769 50.0130561,7.69889249 49.990935,8.431537 L49.990935,8.56793258 C50.0147009,9.29953267 50.1047267,10.0273091 50.2598585,10.7419322 C50.3870351,11.3872516 50.6597964,11.9933303 51.0564425,12.5119511 C51.4388056,12.9465742 51.8886229,13.3138271 52.3878175,13.598951 Z M51.0533865,0.815249873 L51.0513492,0.815249873 C53.1249751,-0.135295293 55.4970808,-0.135295293 57.5707066,0.815249873 C58.4985737,1.19676759 59.3210852,1.8044235 59.9665705,2.58526876 C60.6293296,3.38118147 61.1269873,4.3064197 61.4293513,5.30485071 C62.0962403,7.47375497 62.0962403,9.79954694 61.4293513,11.9684512 C61.1294124,12.9677159 60.6318793,13.8933672 59.9675892,14.6880332 C59.2857829,15.4277318 58.4727621,16.0283762 57.5717253,16.458052 C55.4716749,17.2726472 53.1524182,17.2726472 51.0523679,16.458052 C50.1248411,16.075904 49.3024681,15.4683504 48.656504,14.6880332 C47.9929681,13.8926685 47.4952183,12.967259 47.1937232,11.9684512 C46.5285979,9.79927071 46.5285979,7.47403121 47.1937232,5.30485071 C47.4644365,4.29278318 47.9660941,3.3607574 48.6575227,2.58526876 C49.3398182,1.84613993 50.1527256,1.24557934 51.0533865,0.815249873 Z M33.1984964,8.56793258 L33.2321118,8.56793258 C33.2225742,9.3131946 33.358317,10.052938 33.6314225,10.7440146 C33.7569708,11.390068 34.0302825,11.9965941 34.4290251,12.5140335 C34.7707265,13.0247785 35.2272868,13.44431 35.7604001,13.7374289 C36.3942313,14.0029444 37.0719719,14.141845 37.7569533,14.1466156 C38.4007965,14.155762 39.0383554,14.0162466 39.6221007,13.7384701 C40.0966731,13.5340388 40.5099431,13.2050159 40.8200327,12.7847423 C41.138115,12.4409251 41.3658941,12.0204186 41.4821549,11.5623881 C41.6018706,11.2138902 41.6480432,10.8434341 41.6176353,10.4753882 L41.6176353,10.3369103 L37.4910858,10.3369103 L37.4910858,7.75476508 L44.8111018,7.75476508 L44.8111018,16.7318844 L41.9833305,16.7318844 L41.9833305,14.8265111 C41.7195003,15.1013846 41.4526141,15.3710522 41.1857279,15.6438434 C40.8629067,15.9177228 40.5055623,16.1460483 40.1232763,16.3226977 C39.7188724,16.458052 39.3205805,16.5954888 38.9233071,16.7329256 C38.4428254,16.8448567 37.9497684,16.890035 37.4574703,16.8672388 C36.3587572,16.8666162 35.2718544,16.6355667 34.2640039,16.1883845 C33.3961662,15.7671046 32.6246645,15.1640585 31.9995458,14.4183656 C31.3362428,13.6221113 30.8379153,12.6965622 30.5347277,11.6977424 C30.154618,10.6545445 29.9741022,9.54642552 30.0029926,8.43361938 C29.9836704,7.32210274 30.1642509,6.21641166 30.5357463,5.1715787 C30.907576,4.17571044 31.4478824,3.25445333 32.1319702,2.44991437 C32.814525,1.71108765 33.6273725,1.11057134 34.5278341,0.679895488 C35.5446391,0.259718288 36.6269569,0.0294375634 37.7233379,-1.79412041e-13 C38.4404165,0.0239310473 39.1537929,0.115598885 39.8543528,0.273832333 C40.507291,0.463425174 41.133769,0.737756219 41.7184816,1.09012339 C42.2319412,1.46406746 42.7202907,1.87278275 43.1802438,2.3135188 C43.5798453,2.8258638 43.9366097,3.37163174 44.2467699,3.94505973 L41.4515954,5.57555948 C41.1857279,5.30276833 41.0543221,4.89670518 40.7864172,4.62287285 C40.318975,3.98223344 39.6671534,3.50712547 38.9222885,3.26412306 C38.4869124,3.15121785 38.0375077,3.10524796 37.5888761,3.12772748 C36.904484,3.13079635 36.2271592,3.26939996 35.5943602,3.53587301 C35.0602928,3.82714099 34.603411,4.24661061 34.2629852,4.75822723 C33.865951,5.27660618 33.5931456,5.8827829 33.4664012,6.52824611 C33.31207,7.19755331 33.2223388,7.88071937 33.1984964,8.56793258 Z" id="Combined-Shape"></path>
                        <path d="M4.32968226,5.39311057 L4.32968226,5.39400913 C3.7119837,5.11856657 3.41048738,4.39951016 3.64134554,3.75235418 C3.75978541,3.43842659 3.99721231,3.18667438 4.2997928,3.05417908 C4.60247268,2.92179487 4.94442641,2.91888221 5.24922275,3.04609211 C5.56294007,3.15916396 5.81605233,3.40125887 5.94722959,3.71371643 C6.07751788,4.02640165 6.07401195,4.38051653 5.93755947,4.69044272 C5.81758572,5.00325074 5.58017301,5.25400514 5.27823311,5.38682071 C4.97557256,5.51837793 4.63398727,5.520643 4.32968226,5.39311057 Z M1.57106078,7.0446496 C0.952792653,6.76882182 0.651537638,6.04863463 0.88360317,5.40119755 C1.00212891,5.08732593 1.23952781,4.83560342 1.54205042,4.70302245 C1.84452632,4.57055732 2.18646939,4.56828988 2.49060128,4.69673258 C2.80449066,4.80902034 3.05777391,5.05095275 3.18860811,5.36345835 C3.31915842,5.6761591 3.31533127,6.03050596 3.17805889,6.34018464 C3.05848645,6.65316189 2.82138943,6.90424075 2.51961164,7.03746118 C2.21721265,7.17001168 1.8753494,7.17260242 1.57106078,7.0446496 Z M0.768440833,10.2129448 L0.766682629,10.2129448 C0.148273304,9.93674572 -0.153512855,9.21673576 0.0774668112,8.56859421 C0.19724462,8.25544716 0.43468282,8.00434225 0.736793168,7.87131767 C1.03944648,7.73851559 1.38167827,7.73592445 1.68622312,7.86412925 C1.99325502,7.98615589 2.23961058,8.22889971 2.37016433,8.53804343 C2.49940065,8.84754061 2.50193364,9.19705978 2.37719714,9.50847986 C2.25792006,9.82246978 2.01994903,10.074127 1.71699168,10.206655 C1.41451579,10.3391201 1.07257272,10.3413875 0.768440833,10.2129448 Z M7.42939524,6.45699643 L7.42851614,6.45699643 C6.84616271,6.14643792 6.55862106,5.45941004 6.74105852,4.81444293 C6.86043485,4.50112669 7.09755736,4.24969725 7.39950578,4.11626783 C7.70158812,3.98366474 8.04320303,3.98107348 8.34717753,4.10907942 C8.65453206,4.23011292 8.90112054,4.47276228 9.03111874,4.78209505 C9.16094692,5.0914659 9.16348167,5.44122874 9.03815155,5.75253147 C8.91888186,6.06601147 8.6812784,6.31729115 8.37882519,6.44980802 C8.07602752,6.58190374 7.73407419,6.58449277 7.42939524,6.45699643 Z M18.7320072,5.39311057 C18.4280523,5.52214614 18.0859885,5.52020194 17.7834563,5.38771926 C17.480601,5.25533595 17.2428601,5.0035869 17.12413,4.68954417 C16.9875702,4.37964211 16.9840638,4.02548119 17.1144599,3.71281788 C17.2452941,3.40031228 17.4985773,3.15837987 17.8124667,3.04609211 C18.1167167,2.91793581 18.4586601,2.92052717 18.7610176,3.05328053 C19.0636998,3.18592047 19.3013568,3.43758072 19.4203439,3.75145562 C19.5961074,4.39596663 19.3098355,5.07871325 18.7320072,5.39311057 Z M21.4879914,7.0446496 C21.1834744,7.17078613 20.8422549,7.16722727 20.5403196,7.03476553 C20.2382175,6.90235502 20.000489,6.65192501 19.8801142,6.33928609 C19.754732,6.02830445 19.7572672,5.6787954 19.887147,5.36974822 C20.0172921,5.06095357 20.2629614,4.81826197 20.56933,4.69583403 C20.8738915,4.56805114 21.2158445,4.57031654 21.5187599,4.7021239 C21.8217061,4.83496482 22.0598526,5.08647265 22.1798445,5.40029899 C22.4105566,6.04818555 22.1082565,6.76771566 21.4897496,7.0428525 L21.4879914,7.0446496 Z M22.2923695,10.2129448 C21.9876906,10.3404412 21.6457372,10.3378521 21.3429396,10.2057564 C21.0404864,10.0732395 20.8028829,9.82195985 20.6836132,9.50847986 C20.5470534,9.1985778 20.543547,8.84441688 20.6739431,8.53175357 C20.8046863,8.21918273 21.058003,7.97721836 21.3719499,7.8650278 C21.6763767,7.73653658 22.0186082,7.73880383 22.3213799,7.87131767 C22.6236609,8.00455116 22.8611246,8.25600669 22.9807062,8.56949276 C23.2117202,9.2171451 22.9103134,9.93677495 22.2923695,10.2129448 Z M15.5435049,6.45699643 C15.2393342,6.5852357 14.8974714,6.5829688 14.5949541,6.45070657 C14.2921682,6.31838682 14.054223,6.06708079 13.9347486,5.75343003 C13.7969963,5.44379741 13.7934848,5.08912233 13.9250785,4.77670373 C14.0572974,4.46342483 14.31265,4.22167136 14.62836,4.11087652 C14.9329215,3.98309363 15.2748745,3.98535903 15.5777899,4.11716639 C15.8804721,4.24980632 16.1181292,4.50146658 16.2371163,4.81534148 C16.4199958,5.4607967 16.1314653,6.14842849 15.5479004,6.45789499 L15.5435049,6.45699643 Z M12.1106124,3.17009232 L12.1079751,3.17009232 C12.1079751,3.28780266 11.9936918,3.28780266 11.8785295,3.28780266 L12.7971909,5.9834594 L12.7971909,6.21798154 C12.8473913,6.60789611 12.7418766,7.00204791 12.50445,7.31151962 C12.2673537,7.62001485 11.9189045,7.81816861 11.537438,7.86143359 L10.9625054,7.86143359 C10.220649,7.57990699 9.81907621,6.75899158 10.043844,5.9834594 L10.9616263,3.28780266 C10.9309604,3.28828478 10.9014307,3.27595191 10.8798698,3.25365768 C10.8582507,3.23161909 10.8467551,3.20126524 10.8482222,3.17009232 L9.3537491,3.99226762 L9.3537491,1.64435061 L10.8482222,2.11339488 L10.9625054,1.99568454 L10.3884519,-2.10498285e-13 L12.5703826,-2.10498285e-13 L11.9963291,1.99568454 L12.1106124,2.11339488 L13.6050854,1.64435061 L13.6050854,3.99226762 L12.1106124,3.17009232 Z M11.433704,16.5432454 L11.4372204,16.5432454 C8.7086811,16.5680256 5.98420277,16.7639789 3.2791556,17.13 C2.88847519,14.9859319 2.06710171,12.9479508 0.866900236,11.1447435 L2.47565655,10.5588874 C2.24394243,11.1214304 2.24394243,11.7557098 2.47565655,12.3182527 C2.81835593,11.870923 3.05379528,11.347774 3.16311416,10.7907139 L3.96837142,13.4863706 C3.63773523,13.1301089 3.18424822,12.9196229 2.70422302,12.899616 C3.39343883,14.5421695 4.42726256,15.0121124 5.00219515,14.8953006 C5.62903197,14.7549516 6.03469198,14.1326013 5.91997743,13.4872692 C5.8056942,12.6650939 4.88703281,12.4314703 4.5415458,13.3695589 C3.85232998,11.84202 5.11559928,11.3729758 5.91997743,11.84202 C5.91997743,11.7234111 5.8048151,11.7234111 5.69141096,11.6065993 C5.20799968,11.1621244 4.92236243,10.5357143 4.90021934,9.87149496 C4.87903155,9.20738865 5.12271235,8.56297886 5.57536952,8.08607165 C6.95380116,9.25958089 6.95380116,10.3135827 6.38062678,11.8411215 C7.18412583,10.7853226 8.44739513,11.3702801 7.98850399,12.8978189 C7.41445051,11.9570347 6.61095146,12.5455864 6.72435559,13.4845735 C6.72435559,14.3067488 7.75993752,14.8935035 9.02320682,14.7757931 C10.8614087,14.6571842 10.976571,13.3668632 10.976571,12.3101658 C10.5176799,12.193354 9.71066443,12.6632968 9.02320682,13.6013853 L8.79200304,10.6667137 C9.37250295,11.2588461 10.1565081,11.5955105 10.976571,11.6048022 C10.6533268,10.8169377 10.1847399,10.1000312 9.5963812,9.49320447 L13.1567435,9.49320447 C12.6186957,10.1400425 12.1561081,10.8486731 11.7783119,11.6048022 C12.5974112,11.5954295 13.3804637,11.2590902 13.9602426,10.6676123 L13.7316761,13.6013853 C13.0407021,12.6623982 12.237203,12.1924554 11.7774328,12.3101658 C11.8925951,13.3668632 11.8925951,14.6580828 13.7316761,14.7757931 C14.8780249,14.8935035 15.9136068,14.3067488 16.02789,13.4845735 C16.1421733,12.5455864 15.3377951,11.9597304 14.7637416,12.8978189 C14.3048505,11.3720772 15.5689989,10.9039315 16.3724979,11.8411215 C15.7984445,10.3153798 15.7984445,9.14187054 17.175997,8.08607165 C17.2937966,8.08607165 17.2937966,8.20288345 17.4072008,8.31879668 C17.8009335,8.85953057 17.9621842,9.54086676 17.8537845,10.2057564 C17.7448088,10.8698672 17.3763987,11.4601699 16.8331473,11.8411215 C17.6375254,11.3729758 18.8999156,11.8411215 18.2115789,13.3686603 C17.8660919,12.4305718 17.0625929,12.6641953 16.8331473,13.4863706 C16.7674814,14.1585625 17.2156894,14.7704362 17.8652128,14.8953006 C18.4401454,15.0121124 19.3588068,14.5430681 20.1623058,12.899616 C19.696549,12.9722145 19.2595844,13.1753142 18.8999156,13.4863706 L19.7034147,10.7907139 C19.8125006,11.3481845 20.0486255,11.8715183 20.3926305,12.3182527 C20.622125,11.7549424 20.622125,11.1212992 20.3926305,10.5579889 L22.0013868,11.1447435 C20.8485358,12.9736308 20.0311195,15.0017935 19.5891315,17.13 C16.8858034,16.755614 14.1616865,16.5596233 11.433704,16.5432454 Z" id="Combined-Shape"></path>
                    </g>
                    <path d="M0.00614497487,8.2468537 C0.00614497487,5.60938014 0.0104464573,2.97190659 3.57047725e-13,0.334433029 C3.57047725e-13,0.0684983311 0.0780411809,2.14939178e-13 0.357637538,2.14939178e-13 C3.85986355,0.00920985965 7.36249923,0.00920985965 10.8655446,2.14939178e-13 C11.124248,2.14939178e-13 11.2250256,0.0477761469 11.2194951,0.309105914 C11.2031085,1.06661687 11.2031085,1.82412783 11.2194951,2.58163878 C11.2256401,2.8481491 11.1150305,2.88844223 10.8606286,2.88786662 C8.38297472,2.87865676 5.90470635,2.88786662 3.42520899,2.87577868 C3.13700967,2.87577868 3.06695696,2.95176002 3.07064394,3.21308979 C3.08621121,4.31597048 3.08621121,5.41904304 3.07064394,6.52230748 C3.06695696,6.76982246 3.15114311,6.82047669 3.3987856,6.81990107 C5.88688593,6.81126683 8.37621525,6.81990107 10.8637011,6.80896436 C11.124248,6.80896436 11.2176516,6.85386243 11.2121212,7.11807028 C11.1961442,7.89457657 11.2010602,8.67223409 11.2225676,9.44816477 C11.2293271,9.70258714 11.0922941,9.6939529 10.9030289,9.6939529 C8.43520701,9.69088294 5.96758993,9.69088294 3.50017769,9.6939529 C3.07555992,9.6939529 3.07617442,9.6939529 3.07678892,10.1037917 C3.07678892,11.1778915 3.08907887,12.2519914 3.06880045,13.3272425 C3.06326997,13.61908 3.16650555,13.6662805 3.44978889,13.6651293 C5.92744276,13.6547682 8.40509663,13.6651293 10.8852085,13.6530413 C11.1537439,13.6530413 11.2311706,13.7106029 11.2250256,13.9696302 C11.2053617,14.7363511 11.2127356,15.5042231 11.2213386,16.2720952 C11.2213386,16.4574436 11.1930717,16.5426348 10.9601772,16.5426348 C7.39609176,16.5357274 3.83200633,16.5357274 0.267920904,16.5426348 C0.00307248744,16.5426348 0.00122899497,16.4275115 0.00122899497,16.246768 C0.0049159799,13.5805137 0.0049159799,10.9134918 0.00122899497,8.24570247 L0.00614497487,8.2468537 Z M39.0009429,13.06846 C39.3127382,12.2926822 39.5996351,11.583115 39.8837027,10.8723759 C40.7393006,8.72902599 41.5933895,6.58509011 42.4459694,4.44056829 C42.5319819,4.22435831 42.6332729,4.13881181 42.8782953,4.14760083 C43.6790037,4.16869449 44.4802779,4.15580392 45.2815522,4.14232742 C45.5079008,4.13881181 45.5322333,4.20970994 45.4467867,4.41009968 C43.8465017,8.16359879 42.2484802,11.9182698 40.6527222,15.6741126 C40.4778679,16.0842671 40.296789,16.4914918 40.1338179,16.904576 C40.0681768,17.0721534 39.9866913,17.1389499 39.8039148,17.1330906 C39.2757679,17.1186375 38.7476211,17.1186375 38.2194742,17.1330906 C38.0299072,17.138364 37.9365384,17.0744971 37.8624092,16.8940291 C37.1465816,15.1866148 36.4200024,13.4838879 35.694555,11.7794032 C34.6676866,9.36183571 33.640441,6.94446353 32.6128181,4.52728666 C32.5862221,4.46459163 32.5613238,4.40131065 32.5307667,4.34095936 C32.4509788,4.18334286 32.5058684,4.13822587 32.6643124,4.14115555 C33.1447374,4.15111644 33.6262942,4.15287425 34.1061533,4.15404612 C34.4264367,4.15404612 34.7489835,4.16869449 35.0681351,4.13939774 C35.3346606,4.11478848 35.4642452,4.21029587 35.5677998,4.46634943 C36.3390828,6.42512988 37.1222491,8.38098065 37.9014544,10.3321439 C38.2585194,11.222765 38.6167161,12.1122142 39.0009429,13.06846 Z M59.6188155,10.5133105 L59.6188155,6.83597477 C59.6188155,6.46262017 59.6188155,6.46321185 59.2538249,6.46321185 C58.8888344,6.46321185 58.5098916,6.45433655 58.1376459,6.46676198 C57.9624058,6.47267885 57.8959932,6.42948569 57.8993417,6.2259453 C57.9116197,5.52657108 57.9093873,4.82660517 57.8993417,4.12663926 C57.8993417,3.94321624 57.9551507,3.88996439 58.1225775,3.88996439 C58.531099,3.89647295 58.9407367,3.87103041 59.3503744,3.88996439 C59.5842139,3.90002308 59.6232802,3.80002795 59.6216059,3.58228707 C59.6121184,2.48825751 59.6216059,1.39304458 59.6104441,0.299606705 C59.6104441,0.0688487127 59.6662531,-0.00452049518 59.8894889,0.000213002106 C60.5960302,0.0150051811 61.3025714,0.0132301196 62.0102289,0.000213002106 C62.2139316,-0.00392880802 62.2557883,0.0706237742 62.254114,0.26943066 C62.2463008,1.38357758 62.254114,2.49772451 62.2446265,3.61127974 C62.2446265,3.84795461 62.3088068,3.90712332 62.5236713,3.90120645 C63.2670465,3.88345584 64.0109797,3.89292283 64.7560292,3.87990571 C64.9374083,3.87990571 64.9921011,3.9313825 64.9887525,4.12900601 C64.9764746,4.82916915 64.9764746,5.52893783 64.9887525,6.22831205 C64.9926592,6.42948569 64.929595,6.4703121 64.7543549,6.46498692 C64.0009341,6.45551992 63.2475133,6.46794535 62.4952087,6.45611161 C62.3015516,6.45611161 62.2446265,6.5069967 62.2451846,6.71704565 C62.2524398,8.94474781 62.2451846,11.17245 62.2513236,13.4031106 C62.2513236,14.069942 62.5861773,14.4202208 63.2106794,14.4450716 C63.740493,14.4561642 64.2704372,14.4316587 64.7973278,14.3717024 C64.9552672,14.3569103 64.9876364,14.4024702 64.9865202,14.5551255 C64.9816834,15.2947344 64.9816834,16.0339489 64.9865202,16.7727689 C64.9865202,16.8881479 64.9608481,16.9644756 64.8447654,16.9810428 C63.8100675,17.1265979 62.771463,17.2467104 61.7456945,16.9526418 C60.5218043,16.602363 59.8292152,15.6834729 59.6807634,14.2835411 C59.5434734,12.9463281 59.6640207,11.6043816 59.6188155,10.5133105 Z M13.8676969,16.5379639 C13.4475636,16.5379639 13.0274303,16.5299044 12.6072971,16.5419936 C12.4045127,16.5477504 12.3793047,16.4844258 12.4286004,16.2915737 C13.0302312,13.930142 13.6266338,11.5675591 14.217808,9.20382473 C14.9587363,6.25635279 15.697424,3.30830517 16.433871,0.359681871 C16.5005321,0.0896888354 16.5985632,-0.00760076583 16.8792122,0.000458727762 C17.6813867,0.0223344961 18.4846815,0.0113966119 19.2879764,0.00506415267 C19.4689138,0.00506415267 19.532774,0.0257885648 19.4773164,0.24397057 C18.380115,4.57844298 17.2879552,8.9152181 16.200837,13.2542959 C15.9442757,14.2732462 15.6787514,15.2898937 15.4356343,16.3117224 C15.3885794,16.5103313 15.3045527,16.5483261 15.1314578,16.5419936 C14.7079635,16.5316314 14.2878302,16.5379639 13.8676969,16.5379639 Z M31.7784576,8.44741443 C31.922456,9.24418404 31.8886078,10.0482859 31.9035239,10.8511657 C31.9086872,11.1200143 31.7578045,11.0821311 31.606348,11.0821311 L22.6841864,11.0821311 C22.2613705,11.0821311 22.2613705,11.0821311 22.3600466,11.5098449 C22.7358193,13.132713 23.9669766,14.2142178 25.5509586,14.3034266 C27.1699362,14.3944686 28.5244388,13.7901701 29.6144663,12.5168052 L29.8806624,12.2070183 C30.0126131,12.7434935 30.1342373,13.2323092 30.2529929,13.7211249 C30.3585534,14.1543379 30.4532137,14.5924389 30.5679534,15.0201527 C30.6115545,15.185128 30.5914751,15.2828911 30.4606718,15.4050951 C29.1646865,16.5971944 27.6466798,17.11595 25.951974,17.1330586 C24.3421755,17.1489451 22.898176,16.6735718 21.6773452,15.5327982 C20.5637961,14.4946758 19.910927,13.1724293 19.6458782,11.6351039 C19.301659,9.63157049 19.5311385,7.71907902 20.5637961,5.97156286 C21.6125173,4.19227367 23.1442927,3.21708633 25.1017526,2.99895232 C26.6180381,2.8303109 28.0373686,3.12543338 29.2943424,4.07434688 C30.7125255,5.14363125 31.4589075,6.66079301 31.7784576,8.44741443 Z M28.6454892,8.57572856 L28.6466366,8.57572856 C28.7493287,8.57511754 28.9168487,8.64966193 28.8600525,8.39425572 C28.6919588,7.63353627 28.3936355,6.9498053 27.8067418,6.4487692 C26.0386025,4.95604822 23.1081497,6.01738933 22.5476461,8.33926396 C22.4960132,8.55312083 22.5769047,8.57572856 22.7444247,8.57572856 C23.7277443,8.57267346 24.7116375,8.57572856 25.694957,8.57572856 C26.6782765,8.57572856 27.6621697,8.58000569 28.6454892,8.57572856 Z M78.8859723,7.75260177 C79.1567973,8.77221695 79.1774097,9.81747515 79.1659584,10.864565 C79.1642407,11.023918 79.1127095,11.0880256 78.9661319,11.0752041 C78.8997139,11.0703197 78.8327234,11.0752041 78.7657328,11.0752041 C75.7986817,11.0752041 72.8316307,11.0794779 69.8645796,11.068488 C69.5874563,11.0672669 69.5565376,11.1472487 69.6080688,11.4103949 C69.9361507,13.0802437 71.2776792,14.253717 72.9289673,14.3013398 C74.4771932,14.3465203 75.7803595,13.7719946 76.8321683,12.5563935 C76.9094651,12.466643 76.9873344,12.3768924 77.0663489,12.2889735 C77.0928944,12.2685017 77.121056,12.2505248 77.1505165,12.2352453 C77.3852697,13.197469 77.6114343,14.1395445 77.84676,15.0791779 C77.8965735,15.2794377 77.7614473,15.3514824 77.6578124,15.4455068 C76.7413333,16.2883287 75.618569,16.8351659 74.4210814,17.0219417 C73.1488337,17.2258648 71.88861,17.1764104 70.68049,16.6519496 C68.9020916,15.8789958 67.7111486,14.4942729 67.1511764,12.549067 C66.4577957,10.1398445 66.6570496,7.81426712 68.0100295,5.69566551 C69.0486691,4.07282888 70.534485,3.20646125 72.3615517,2.99948547 C73.5954373,2.85966998 74.7789369,3.03367616 75.8857122,3.64422418 C77.4728727,4.52097112 78.4073048,5.95087458 78.8859723,7.75260177 Z M75.8994538,8.57867323 L75.8994538,8.57806268 C76.1095866,8.57989433 76.1588275,8.52860829 76.1015706,8.30087388 C75.7780693,6.97415305 75.0560601,6.10045884 73.7494583,5.83609155 C72.0128574,5.48441589 70.3329408,6.53333738 69.8370963,8.28744183 C69.7758314,8.50357583 69.7867102,8.58416816 70.0329148,8.58050488 C71.0062816,8.56585172 71.9796484,8.5743994 72.9530152,8.5743994 C73.9349706,8.5743994 74.9174985,8.56951501 75.8994538,8.57867323 Z M56.7128879,8.22303852 C56.714063,10.9984482 56.7093623,13.7732455 56.717605,16.5449807 C56.7187638,16.7972907 56.6570668,16.8720038 56.4120417,16.8664922 C55.6481745,16.852407 54.8843074,16.8573062 54.1204402,16.8664922 C53.9388749,16.8664922 53.8830538,16.8083139 53.8889297,16.6215311 C53.9012691,16.2479653 53.8924553,15.8731748 53.8924553,15.4996091 C53.1720698,16.2638878 52.3705968,16.8095388 51.3834454,16.9987712 C49.8568863,17.2914998 48.3855606,17.1500347 47.1069645,16.1444693 C45.7043868,15.0427566 45.2542928,13.5295091 45.6068469,11.7768122 C45.9388353,10.1086269 47.0858112,9.26596055 48.5829909,8.83727857 C49.3251172,8.62661199 50.0925099,8.62661199 50.849326,8.54026319 C51.6848791,8.44656555 52.5239578,8.38103845 53.3606862,8.29530205 C53.7232293,8.25855788 53.8619006,8.07483703 53.8930428,7.69943409 C53.9911704,6.53035706 53.4946567,6.09738825 52.5310089,5.83834185 C51.7017033,5.61347655 50.8285991,5.63468805 50.0102473,5.89958214 C49.1981977,6.15801614 48.7022717,6.76307014 48.4343306,7.57940313 C48.3661701,7.78394568 48.3015352,7.82620148 48.114094,7.72270539 C47.4054603,7.33260479 46.693301,6.94617859 45.9746783,6.57873689 C45.7854743,6.48136484 45.8430581,6.37174473 45.8935909,6.2364037 C46.5217247,4.55045868 47.7027809,3.53386996 49.385639,3.16642826 C50.7829283,2.86145164 52.1849183,2.8730873 53.5669303,3.27849798 C55.3297007,3.79597838 56.4408336,5.19041965 56.6541288,7.09499248 C56.6945038,7.46951806 56.7141227,7.8461586 56.7128879,8.22303852 Z M51.2383107,14.2245864 L51.2383107,14.227036 C52.7008225,13.933695 53.9805938,12.6500987 53.9059698,11.093983 C53.8930428,10.8312622 53.8278203,10.7681847 53.5886712,10.7994173 C52.3964508,10.9543552 51.2024677,11.093983 50.0108349,11.248921 C49.6971555,11.2819757 49.3929361,11.3798227 49.1159351,11.5367503 C48.6335236,11.8215176 48.3544183,12.2532616 48.3743964,12.8295327 C48.3943744,13.4058038 48.7069724,13.7940672 49.1970226,14.0292299 C49.6169701,14.2227052 50.0746703,14.3106009 50.5332025,14.2858266 C50.7697916,14.2973371 51.0068128,14.2767513 51.2383107,14.2245864 Z" id="Combined-Shape" fill="#6A7A8E" fill-rule="nonzero"></path>
                </g>
                <g id="Group-3" transform="translate(10.000000, 41.000000)" fill="#6A7A8E">
                    <path d="M12.011029,0.934374765 C12.3805327,0.944528407 12.3412697,1.20227602 12.2801517,1.29113498 C11.1896839,2.97504046 8.61306929,5.94005365 6.73696158,9.19314883 C6.42635229,9.72024827 6.19503133,10.1080366 6.19503133,10.6864712 C6.19503133,11.4706876 6.68823226,12.3978731 7.6790179,12.7957519 C8.33079548,13.0549501 8.74108692,13.0628964 9.44451607,13.0729866 C14.6669319,13.2332986 16.7605738,13.0932307 21.4337534,12.9358198 C21.703639,12.935063 21.9545903,12.7545703 22.0448062,12.6455304 C22.9482991,11.7103987 23.4691361,10.0293311 23.4691361,8.54609927 C23.4691361,5.24248879 21.0721905,2.26669154 17.3330642,0.835488534 L16.732938,1.59946107 C20.0101228,2.9440123 21.703639,5.62952038 21.703639,8.50567443 C21.703639,9.15272399 21.5930293,9.77946663 21.3929657,10.3780821 C21.2446183,10.795511 21.0620259,11.0352221 20.5309597,11.0431684 C16.7227088,11.1240179 14.566551,11.1832362 10.7481347,11.083593 C10.2556325,11.0735028 10.0963571,10.8951541 10.0163064,10.5080596 C9.95518839,10.2784389 10.0061414,10.0877927 10.1654803,9.79971055 C12.1906984,6.23828928 15.7188354,2.16774213 16.4114008,1.20227602 C16.5430391,1.02392751 16.4812228,0.664329335 16.0294441,0.545199184 C14.7076561,0.157410811 13.2244319,1.90070182e-13 11.72075,1.90070182e-13 C4.91250545,0.0274332357 0.110546247,3.82856573 4.97379915e-14,8.54609927 C0.272807545,14.2089182 5.23327991,17.1334432 11.72075,17.1334432 C15.6905002,17.1334432 19.3270227,15.7404589 21.4548465,13.5315342 L19.4892213,13.6102397 C17.6742314,15.2126023 14.7666135,16.0690284 11.7593142,16.0690284 C6.27794083,16.0690284 1.81498987,13.3632762 1.81498987,8.50567443 C1.81498987,4.32760116 6.27717844,0.924284308 11.7593142,0.924284308 C11.7593142,0.924284308 12.011029,0.934374765 12.011029,0.934374765 Z M57.0419375,11.1622985 L60.7497433,8.74544867 L55.1374292,4.59550224 L55.1374292,5.61148364 L46.835733,5.61148364 C45.7525704,5.61148364 44.8614045,6.37621296 44.6999052,7.37195026 L54.324154,7.36185999 L54.324154,9.17290491 L46.96591,9.18299537 C45.8034599,9.18299537 44.8512381,10.0596655 44.8002858,11.1622985 L57.0419375,11.1622985 Z M92.2972621,5.58114926 L100.80779,5.58114926 L100.80779,3.80043854 L92.2492952,3.80043854 C89.0484752,3.80043854 86.4332974,6.22813582 86.3023566,9.27254811 L96.619108,9.26176387 C97.2890562,9.26176387 97.830287,9.70006753 97.830287,10.2279238 C97.830287,10.7651767 97.288357,11.1933897 96.619108,11.1933897 L85.2606181,11.1926329 L85.2606181,3.80043854 L81.8917561,3.80043854 L81.8917561,11.144262 L75.1264591,11.144262 C74.1334495,10.98395 73.8221415,10.2683486 73.8221415,8.87466928 L73.8228408,3.80043854 L68.3901964,3.80043854 L63.5060912,6.94373724 L59.2562907,3.80043854 L46.1839553,3.80043854 C43.286502,3.80043854 40.8713232,5.7797417 40.3395578,8.41612187 L42.9656641,8.41612187 C41.9748779,9.08335235 41.2124922,10.0293311 40.791272,11.1450188 L32.4794094,11.144262 C31.4995517,10.98395 31.1780144,10.2683486 31.1780144,8.87466928 L31.1787137,3.80043854 L27.8193189,3.80043854 L27.8193189,8.53600899 C27.6782135,11.6721182 29.392059,12.7957519 31.347455,12.9741004 L57.4623939,12.9733436 L62.2745183,9.8885065 L66.4755253,13.0145252 L71.6157296,13.0145252 L65.0715892,8.12873348 L70.4532795,4.66626145 L70.463446,8.53600899 C70.3252631,11.6721182 72.2079145,12.7957519 74.1640098,12.9741004 L98.6028391,12.9733436 C100.286888,12.9733436 101.651625,11.7508235 101.651625,10.2279238 C101.651625,8.7143575 100.286191,7.49183738 98.6028391,7.49183738 L90.1621963,7.49183738 C90.2414838,6.42672825 91.1653705,5.58114926 92.2972621,5.58114926 L92.2972621,5.58114926 Z" id="path2383"></path>
                    <g id="Group" transform="translate(277.598176, 0.000000)" fill-rule="nonzero">
                        <path d="M44.2214405,13.1495109 L44.2214405,7.2260084 C44.2214405,6.43686804 44.1244148,4.85788021 44.1244148,4.56089191 L45.9500133,4.56089191 L46.0484153,5.74601667 L46.0484153,5.74601667 C46.5714488,4.85055471 47.5287922,4.32029456 48.5442486,4.36360682 C50.1202108,4.35025879 51.4297835,5.60859761 51.5224583,7.22530128 L51.5224583,13.1488038 L49.5083133,13.1488038 L49.5083133,7.91615265 C49.5640088,7.46935254 49.441945,7.0183573 49.1697552,6.66526619 C48.8979955,6.31203923 48.4990519,6.08641241 48.0632485,6.0394694 C47.6293343,5.98267339 47.1914185,6.10753185 46.8480178,6.38595576 C46.505228,6.66378418 46.2853276,7.07139391 46.23765,7.51733978 L46.23765,13.2449714 L44.2221287,13.1459753 L44.2214405,13.1495109 Z M32.4992126,4.55735633 L30.4836913,4.55735633 L30.4836913,13.1459753 L32.4992126,13.1459753 L32.4992126,4.55735633 Z M61.0358015,13.1459753 C60.8904851,12.1975535 60.7946985,11.2418155 60.7488529,10.2828666 L60.7488529,4.65635243 C59.8362635,4.42157444 58.9016151,4.2890427 57.9612541,4.26107514 C54.5970057,4.26107514 53.0611082,6.62991044 53.0611082,9.09774184 C53.0611082,11.4672843 54.2144076,13.2443516 56.4253567,13.2443516 C57.5080736,13.2527339 58.5064038,12.6446643 59.0189039,11.6645693 L59.1138653,11.6645693 C59.1138653,11.9601434 59.2108911,12.8482799 59.2108911,13.1452682 L61.0358015,13.1459753 Z M58.8276049,8.90328521 C58.8276049,10.8775503 58.058968,11.6673978 57.0006301,11.6673978 C55.8473308,11.6673978 55.2713692,10.6774368 55.2713692,9.0015742 C55.1816521,8.25040882 55.399465,7.49468442 55.8727914,6.91487779 C56.346497,6.33508377 57.0329182,5.98304232 57.7685788,5.94259464 L58.0575918,5.94259464 C58.3487484,5.92672035 58.6404706,5.95992222 58.92119,6.04088363 L58.92119,8.90328521 L58.8276049,8.90328521 Z M28.4633531,10.9786678 C27.7733053,11.3080287 27.0108091,11.4441476 26.2530922,11.373238 C24.11327,11.4303597 22.3211539,9.72008382 22.2186089,7.5229967 L22.2186089,7.12913364 C22.1509327,6.06943373 22.4977203,5.02581617 23.1819854,4.22996208 C23.866599,3.43254894 24.8326364,2.94892815 25.8656772,2.88644355 L26.2517159,2.88644355 C27.0067432,2.86462575 27.7583486,2.99880045 28.4619769,3.28101373 L28.4619769,1.40574471 C27.6582661,1.1228208 26.8120075,0.9889792 25.9627029,1.01046742 C24.4558581,0.917196103 22.9757721,1.4502475 21.8552783,2.48975203 C20.7348883,3.52937967 20.0681301,4.9881102 20.0049073,6.53798549 L20.0049073,7.13054787 C19.9419196,8.67970226 20.487418,10.1898789 21.5187847,11.3216186 C22.5489953,12.4537546 23.9786248,13.1131337 25.4865197,13.1516322 L26.0638575,13.1516322 C26.9117086,13.1653965 27.7557387,13.0319992 28.5603789,12.757062 L28.5603789,10.9786678 L28.4633531,10.9786678 Z M39.9949701,12.0640893 L39.9949701,12.7556478 C40.1002194,13.9759688 39.2503429,15.0645109 38.0682171,15.2234792 L37.5906576,15.2234792 C36.803654,15.2372468 36.0208135,15.1032928 35.2806183,14.8282019 L35.2806183,16.6051819 C36.0880209,16.8733355 36.9320809,17.0065539 37.7805804,16.9997521 C40.1828285,16.9997521 41.8136874,16.0097911 41.8136874,12.4593666 L41.8136874,4.85929444 C40.9023024,4.62432106 39.9687732,4.49178445 39.0295292,4.46401715 C35.6645926,4.46401715 34.1293833,6.83285245 34.1293833,9.30068385 C34.1293833,11.6702263 35.2806183,13.4464992 37.4936318,13.4464992 C38.5040111,13.463842 39.4504437,12.9399348 39.9922176,12.0633822 L39.9949701,12.0640893 Z M39.8972562,8.90540655 C39.8972562,10.8796717 39.1286194,11.6695191 38.0702814,11.6695191 C36.9142296,11.6695191 36.3410206,10.6795581 36.3410206,9.00369554 C36.3410206,7.32783296 37.3043971,5.84571989 39.0315936,5.84571989 C39.3232396,5.83013669 39.6154055,5.863575 39.8965681,5.94471599 L39.8972562,8.90540655 Z M30.1946784,2.29175983 C30.2060668,2.99550747 30.7581029,3.56340252 31.4429391,3.57588069 C32.1277753,3.56340252 32.6798114,2.99550747 32.6911998,2.29175983 C32.6790788,1.58856438 32.1272509,1.02150872 31.4429391,1.00905319 L31.4429391,1.00905319 C30.7589094,1.02265931 30.2080975,1.59023358 30.1967428,2.29317406 L30.1946784,2.29175983 Z" id="Combined-Shape"></path>
                        <path d="M12.4778564,7.33555706 C12.4778564,7.47672856 12.3422149,7.61790006 12.1358544,7.82876382 C10.7688201,9.30004441 10.0708335,11.296654 10.2142668,13.3255174 C10.2142668,15.086885 10.4901871,15.7915512 10.4901871,16.5665053 C10.4901871,16.9197319 10.421207,17.13 10.2148465,17.13 C9.80386441,17.13 9.04914133,15.2983445 9.04914133,13.1134623 C9.04914133,8.53343 11.8616731,7.26467348 12.2738145,7.26467348 C12.4784361,7.19438556 12.4784361,7.26467348 12.4784361,7.3349614 L12.4778564,7.33555706 Z M5.41406572,7.19438556 C5.82620713,7.26467348 8.63873891,8.53283434 8.63873891,13.1134623 C8.63873891,15.2983445 7.88517516,17.13 7.47245409,17.13 C7.26551389,17.13 7.19711349,16.9185406 7.19711349,16.5665053 C7.19711349,15.7212633 7.47245409,15.0177884 7.47245409,13.3249218 C7.58352542,11.3010773 6.8907331,9.31753097 5.55260552,7.82816816 C5.34682465,7.6173044 5.20770519,7.4761329 5.20770519,7.3349614 C5.27784458,7.3349614 5.27784458,7.26467348 5.41348606,7.19438556 L5.41406572,7.19438556 Z M7.90546342,8.17484248 C7.89997385,7.89277113 8.00675008,7.62061572 8.20109227,7.42133215 C8.39508337,7.22178642 8.65994369,7.11227329 8.93436777,7.11814104 C9.49670812,7.132237 9.94950075,7.59700052 9.96385179,8.17484248 C9.94950038,8.75301331 9.49644849,9.21804324 8.93378811,9.23213958 C8.3713071,9.21830436 7.91861012,8.75285292 7.90546342,8.17484248 Z M17.6971549,15.0124275 C17.7661349,15.0124275 17.7661349,15.0124275 17.7661349,15.0833111 L17.6971549,15.0124275 C15.4424353,14.2154484 13.0856805,13.7644488 10.7029239,13.6739787 L10.7029239,13.3916357 C10.7029239,13.1801763 10.770165,13.0390048 10.770165,12.8275454 C13.2133265,12.991056 15.5854506,13.7392615 17.6971549,15.0124275 Z M10.5672825,2.6072053 C10.2531203,2.35975708 10.1401396,1.92615997 10.2919419,1.55050386 C10.4130852,1.05094378 10.7767436,0.651121011 11.2536051,0.49320676 C11.5251752,0.907449156 11.6003584,1.42549286 11.4582267,1.90313478 C11.3210495,2.29734887 10.973128,2.57345763 10.5672825,2.6101836 L10.5672825,2.6072053 Z M12.9676728,4.65210724 C12.8421497,4.26060499 12.981398,3.83084831 13.3102545,3.59481014 C13.6650789,3.26831332 14.1510565,3.13709367 14.6162385,3.24217922 C14.6410704,3.7311997 14.4365624,4.2028778 14.0661369,4.51093574 C13.7679261,4.79608822 13.3254415,4.85274504 12.9682525,4.65151158 L12.9676728,4.65210724 Z M13.0366529,7.75311496 C13.1672088,7.38271388 13.4817235,7.11323402 13.8597764,7.04785312 C14.3140324,6.96859684 14.7768481,7.12720038 15.0938819,7.47077196 C14.867233,7.88103513 14.4547265,8.14638601 13.9965772,8.17662946 C13.6297579,8.23820494 13.2622082,8.07109481 13.0598395,7.75073232 L13.0366529,7.75311496 Z M12.1462883,8.81041206 C12.3512916,8.52486383 12.698791,8.38732543 13.0372326,8.45778114 C13.4416996,8.53844916 13.7920463,8.79585088 13.9971569,9.16304298 C13.7137678,9.46502561 13.2875522,9.57440425 12.8992724,9.44479032 C12.5295126,9.45532891 12.2084181,9.1850195 12.1457087,8.81041206 L12.1462883,8.81041206 Z M9.53779844,5.9202681 C9.13187144,5.61192074 8.9891542,5.05502602 9.1946371,4.58122366 C9.33886157,4.00084474 9.74751967,3.52808485 10.2913622,3.31246714 C10.6177214,3.80834529 10.7182078,4.42550976 10.5667028,5.00354684 C10.4706499,5.51670621 10.0451832,5.89557015 9.53721877,5.9202681 L9.53779844,5.9202681 Z M10.7035036,6.55464636 C10.5676472,6.12070714 10.7040015,5.64553813 11.0472446,5.35677342 C11.4424958,5.00490846 11.9800228,4.87348944 12.487131,5.00473816 C12.5334445,5.55323514 12.2992523,6.08709631 11.8686291,6.41466618 C11.5634553,6.74238255 11.0748562,6.80136282 10.7040833,6.55524202 L10.7035036,6.55464636 Z M11.4570673,4.08742124 C11.1822928,3.66007105 11.1822928,3.10543907 11.4570673,2.67808888 C11.7845095,2.17080971 12.3113519,1.83592828 12.8992724,1.76136762 C13.108163,2.3255586 13.0306101,2.95953141 12.6923322,3.45304298 C12.4754307,3.93479935 11.9627622,4.19795984 11.457647,4.08682558 L11.4570673,4.08742124 Z M12.9641948,6.27230336 C12.9469207,5.80505414 13.2234454,5.37918136 13.6499379,5.21619758 C14.1526312,4.95651997 14.7503402,4.98289125 15.2295234,5.28588984 C15.0924912,5.84794644 14.7134544,6.31507896 14.2000394,6.55464636 C13.7690549,6.70412072 13.2929469,6.59534835 12.9641948,6.27230336 Z M8.02545395,1.76196328 C8.0074439,1.07250908 8.31414374,0.416454948 8.8491571,-2.12274642e-13 C9.38402885,0.416517176 9.69052344,1.07259398 9.67228058,1.76196328 C9.72879522,2.34936902 9.38963391,2.90111133 8.8491571,3.10100772 C8.32165996,2.88461342 7.98915414,2.34445891 8.02487429,1.76196328 L8.02545395,1.76196328 Z M2.43360887e-13,15.0827154 L0.068400402,15.0124275 C2.17138576,13.7084417 4.54534573,12.9355687 6.99539027,12.7572575 L6.99539027,13.6024995 C4.62700556,13.7344461 2.29163219,14.2334878 0.0684004021,15.0827154 L2.43360887e-13,15.0827154 Z M6.37630867,1.83165554 C6.23630391,1.35389735 6.3118037,0.836821654 6.58208954,0.42232318 C7.05866168,0.581083916 7.4223433,0.980450862 7.54491214,1.47962028 C7.68043871,1.85675569 7.5693331,2.28071918 7.26783255,2.53691738 C6.83875162,2.59025592 6.44826207,2.27759904 6.3936986,1.83701648 L6.37630867,1.83165554 Z M3.76781876,4.51212706 C3.4116494,4.19303316 3.2104038,3.72887944 3.21771722,3.24337054 C3.68246579,3.1034474 4.18440834,3.23915846 4.52196217,3.59600146 C4.85179149,3.83130114 4.99301539,4.26061743 4.86976083,4.65329856 C4.51762425,4.85406741 4.07934281,4.79614125 3.78810701,4.51034008 L3.76781876,4.51212706 Z M3.83679882,8.17722512 C3.37846488,8.14807033 2.96557423,7.88269644 2.73949407,7.47196328 C3.05652789,7.1283917 3.51934365,6.96978816 3.97359963,7.04904444 C4.37293529,7.06171 4.71248015,7.3523903 4.79672311,7.75371062 C4.57188597,8.05870458 4.20743805,8.2195946 3.83737849,8.17722512 L3.83679882,8.17722512 Z M4.93236459,9.5156739 C4.54450196,9.60996833 4.136231,9.50491744 3.83737849,9.23392656 C4.0146453,8.87144532 4.34307708,8.61180013 4.72948204,8.52866472 C5.06783748,8.46075878 5.41413519,8.59805307 5.62042626,8.8818913 C5.52304837,9.20296499 5.2646379,9.44504943 4.94453754,9.51507824 L4.93236459,9.5156739 Z M7.19769315,5.00533382 C7.01021095,4.42954417 7.11316397,3.79567279 7.47245409,3.31365846 C8.02978229,3.50886326 8.44627127,3.99068236 8.56917918,4.58241498 C8.77373676,5.05610377 8.632007,5.61220934 8.22775684,5.92205508 C7.7281729,5.87646282 7.31325995,5.50699664 7.19827282,5.00533382 L7.19769315,5.00533382 Z M5.89402786,6.41526184 C5.48956346,6.06683647 5.26236991,5.54746908 5.27726492,5.00533382 C5.78419152,4.87418785 6.32149967,5.00560626 6.71657168,5.35736908 C7.05901324,5.64642525 7.19484135,6.12112638 7.05915336,6.55464636 C6.69687681,6.83622399 6.18298062,6.7742209 5.89402786,6.41407052 L5.89402786,6.41526184 Z M5.07032472,3.52511788 C4.73291943,3.03112463 4.65645049,2.3971341 4.86628284,1.83344252 C5.46255065,1.88040275 5.9993777,2.22231788 6.30558961,2.75016378 C6.57975184,3.17770286 6.57975184,3.73195706 6.30558961,4.15949614 C5.81005873,4.20505363 5.33180986,3.95990653 5.06916539,3.52571354 L5.07032472,3.52511788 Z M3.56319722,6.48554976 C3.03623271,6.26542162 2.65077049,5.78978994 2.53545219,5.2173889 C3.02355669,4.94846929 3.60421838,4.9223835 4.11329875,5.14650532 C4.52678174,5.32604467 4.79599147,5.74194034 4.79730277,6.20320676 C4.50896885,6.59556594 3.9862849,6.71514741 3.56319722,6.48554976 Z" id="Combined-Shape"></path>
                    </g>
                    <path d="M147.773422,1.75156337 L146.053713,0.0377686488 L146.309973,0.0148726285 C150.492899,0.0316043356 154.698722,0.0148726285 158.859634,0.0148726285 C160.252768,0.0148726285 161.731323,-0.0185907857 163.141189,0.0148726285 L163.141189,17.1261253 L158.293397,12.260721 L158.293397,4.88644124 L150.920248,4.88644124 L150.924137,4.89031595 L150.924137,12.2645957 L158.297536,12.2645957 L163.145328,17.13 L163.139164,17.13 L146.174974,17.13 C146.053449,17.1238357 146.053449,17.1238357 146.053449,17.0604313 L146.053449,0.0381208952 L147.773422,1.75156337 Z M222.750527,7.60874941 C222.669511,6.85670321 222.75405,6.09585084 222.99798,5.3799099 C223.113341,5.10691889 223.284181,4.86122698 223.500812,4.65780465 C224.016853,4.21749657 224.68348,3.99470068 225.361554,4.03344779 C227.146563,4.03344779 227.28482,5.14830785 227.002142,5.23460823 C226.817213,5.28656459 226.405965,5.01533481 225.777205,5.32707293 C225.003143,5.71894712 224.979367,6.81179178 225.0551,7.56824107 L226.725629,7.56824107 C226.731793,7.90992014 226.782869,8.23310627 226.546864,8.41187135 C226.421816,8.50433605 226.267708,8.54748624 226.11272,8.534277 L225.039249,8.534277 L225.039249,13.4930266 C225.014591,14.0284412 224.642091,14.4863616 224.122527,14.6166928 C223.944643,14.678336 223.759713,14.7153218 223.573903,14.7258892 C223.25512,14.7258892 222.879097,14.7875324 222.792797,14.3824489 C222.759333,14.1112192 222.759333,12.6379483 222.759333,12.2451935 C222.678317,12.2901049 222.319906,12.59744 222.100633,12.741861 C221.315123,13.2561409 219.714163,14.0108289 218.742843,13.5132808 C218.251459,13.1971396 217.959095,12.6485157 217.971423,12.0637866 L217.971423,7.87469549 C217.970543,7.86236686 217.971423,7.85003824 217.972304,7.83859023 C217.988155,7.61227187 218.183652,7.44319357 218.40997,7.45816405 C218.988535,7.45816405 220.143903,7.63164543 220.288325,8.29651063 L220.288325,11.5318944 C220.288325,11.7150626 220.351729,11.8920664 220.46709,12.0338456 C220.993698,12.7163232 222.322548,11.6639868 222.727631,11.312621 L222.727631,8.55012809 L221.743983,8.55012809 C221.738699,8.22077764 221.690265,7.79279819 222.033706,7.64309344 C222.269711,7.59906263 222.511,7.58761462 222.750527,7.60874941 Z M226.286818,10.8156012 L226.288579,10.8384972 C226.298266,10.6183432 226.329087,10.3999504 226.380163,10.1859607 C226.484076,9.72892088 226.70511,9.30622512 227.022132,8.96102359 C227.607742,8.35780152 228.359788,7.9430313 229.183164,7.77043054 C230.246068,7.55644081 231.986165,7.4525281 232.742615,8.38245877 C232.853572,8.52335736 232.940753,8.68186827 232.999755,8.85182718 C233.067562,9.05260767 233.10807,9.26307493 233.12128,9.47618404 C233.117757,10.4017116 232.504848,11.2145203 231.614545,11.4716603 C231.090579,11.68565 230.514656,11.7367257 229.961629,11.6160813 C229.828656,11.5817373 229.700966,11.5306616 229.580322,11.465496 C229.358407,11.3351648 229.19109,11.1299812 229.10567,10.8878118 C229.598815,10.8825281 230.083154,10.7574806 230.516417,10.5232367 C230.942635,10.3391879 231.183924,9.88126748 231.094101,9.42598892 C230.896843,8.78754221 229.961629,8.85887211 229.510753,9.13098251 C229.479932,9.15299791 229.450871,9.17677455 229.420931,9.20055119 C228.50597,9.95259739 228.372997,11.302582 229.124163,12.2184228 C229.280032,12.3610826 229.464961,12.4693984 229.666622,12.5354446 C230.652032,12.7600017 231.685875,12.5979683 232.555924,12.0845691 C232.862379,11.9366256 232.931067,11.8274292 233.133608,11.8274292 C233.217267,11.9621635 233.217267,12.1321224 233.133608,12.265976 C233.073726,12.3839786 232.997993,12.493175 232.909051,12.5900428 C232.725883,12.7811365 232.519819,12.9502148 232.296142,13.0928746 C231.696443,13.4618528 231.00692,13.6608721 230.302427,13.6705588 C229.650771,13.6952161 228.999996,13.6282893 228.366833,13.4741814 C227.078492,13.2786846 226.167054,12.1136295 226.286818,10.8156012 Z M211.53817,5.37198436 L211.526722,5.35525265 C211.526722,5.04351453 211.734547,4.91582518 212.05245,4.91582518 C212.690897,4.91582518 213.886773,5.2055479 213.85331,5.98665444 L213.85331,12.161535 C213.93961,12.1685799 214.02503,12.1685799 214.11045,12.161535 L216.784881,12.161535 C217.657572,12.161535 217.506986,12.8669085 217.506986,13.6295221 L212.115854,13.6295221 C211.807639,13.6057455 211.561947,13.3600536 211.53817,13.0518379 L211.53817,5.37198436 Z M217.833167,5.70221542 L217.832286,5.69869295 C217.864869,5.38255175 218.035708,5.09723211 218.299893,4.91846703 C218.571123,4.73617949 218.892548,4.64635664 219.218376,4.66132711 C219.394499,4.66661081 219.568861,4.70183546 219.733536,4.76523982 C220.184412,4.91318333 220.488224,5.33675971 220.484702,5.81141182 C220.484702,6.59163774 219.855061,6.89192785 219.207808,6.96766084 C218.878458,6.98087009 218.555272,6.88400231 218.289326,6.69026675 C217.954692,6.48156072 217.775927,6.09320899 217.833167,5.70221542 Z M167.206353,14.3739016 L167.206353,4.02912449 L170.640392,4.02912449 L170.640392,7.90822149 L174.076072,7.90822149 L174.076072,4.02912449 L177.55113,4.02912449 L177.539645,14.3739016 L174.074432,14.3739016 L174.074432,10.2335022 L170.640392,10.2335022 L170.640392,14.3739016 L167.206353,14.3739016 Z M178.682075,4.21790553 L178.67173,4.13156078 C179.203746,4.13156078 179.670738,4.03006782 180.174675,4.03006782 L183.295836,4.03006782 C184.578585,4.00280105 185.8037,4.56782902 186.637191,5.57064005 C187.116006,6.30835753 187.389403,7.16726064 187.421915,8.05494533 C187.402703,8.20642735 187.402703,8.3594242 187.421915,8.51242105 L187.421915,9.87575931 C187.46625,11.1391194 187.03177,12.3721832 186.211579,13.3144014 C185.19927,14.0581781 183.972678,14.4293091 182.728352,14.3672015 L180.121474,14.3672015 C179.651526,14.3672015 179.138722,14.2490455 178.682075,14.2490455 L178.682075,4.21790553 Z M181.696832,12.1691972 L181.69831,12.1298119 C184.092382,12.179801 184.315533,11.8995592 184.315533,9.14864557 C184.417503,8.30943513 184.288932,7.45962095 183.946077,6.69160707 C183.558888,6.14475694 182.598303,6.20534975 181.696832,6.20534975 L181.696832,12.1691972 Z M188.545603,14.3739016 L188.545603,4.02912449 L196.298232,4.02912449 L196.298232,6.02933248 C196.304621,6.07754901 196.304621,6.12421016 196.298232,6.17242668 C196.290247,6.28441344 196.350939,6.28441344 196.205597,6.28441344 L191.929992,6.28441344 L191.929992,8.11197518 L195.985188,8.11197518 L195.985188,10.1526228 L191.929992,10.1526228 L191.929992,14.3739016 L188.545603,14.3739016 Z M197.458143,8.29975669 L197.498707,8.30567979 C197.498707,8.15908293 197.540832,7.83035056 197.570475,7.59638788 C197.601678,7.36242521 197.6204,7.18769359 197.673446,6.95521169 C197.754575,6.56280593 197.89343,6.18372717 198.082211,5.82686005 C198.882579,4.21873684 200.692377,4.02475513 202.503736,4.02912449 C203.080999,4.02912449 203.500685,4.09731317 204.023342,4.09731317 L205.382307,4.27648712 L205.382307,6.42361295 C204.892357,6.43397838 204.318215,6.35697801 203.644221,6.35697801 C203.035754,6.27849686 202.417926,6.30663161 201.820381,6.44434382 C201.601957,6.50505565 201.406935,6.62351777 201.257159,6.7849224 C201.113623,6.972981 201.001291,7.18325126 200.929523,7.40536772 C200.779747,8.35158386 200.736062,9.30964621 200.795348,10.2617855 C200.80939,10.7297108 200.949805,11.1828284 201.204113,11.5841188 C201.333607,11.7440427 201.503666,11.874351 201.695567,11.9631976 C202.917181,12.1438523 204.160637,12.1438523 205.380691,11.9631976 L205.380691,13.9059763 C205.390052,14.0718232 205.360409,14.0718232 205.248076,14.0718232 C204.54912,14.2110162 203.840802,14.3131898 203.129364,14.3739016 L202.308714,14.3739016 L201.183831,14.2954205 C200.26333,14.2376702 199.384954,13.8956108 198.685997,13.3240311 C198.261631,12.9464331 197.952717,12.4651808 197.7967,11.9335821 C197.475304,10.7474801 197.361412,9.51991647 197.458143,8.29975669 Z" id="Combined-Shape"></path>
                    <path d="M391.843658,13.0204276 C391.843658,13.3459382 391.883779,13.6307601 391.943961,13.8342043 L391.943961,13.8952375 L390.298999,13.8952375 L390.298999,13.8748931 C390.218757,13.4680048 390.158575,13.040772 390.158575,12.6338836 C389.837607,13.1018052 389.436397,13.4680048 388.954945,13.7324822 C388.473493,13.9969596 387.871678,14.1393705 387.209681,14.1393705 C386.868652,14.1393705 386.507563,14.0986817 386.126414,13.9969596 C385.745264,13.8952375 385.384175,13.7324822 385.083267,13.529038 C384.762299,13.3052494 384.501513,13.0204276 384.300908,12.6745724 C384.100303,12.3287173 384,11.8811401 384,11.3725297 C384,10.6808195 384.180545,10.1518646 384.541634,9.74497625 C384.902723,9.33808789 385.384175,9.03292162 385.96593,8.82947743 C386.547684,8.62603325 387.209681,8.48362233 387.931859,8.42258907 C388.654037,8.36155582 389.376216,8.32086698 390.098394,8.32086698 L390.098394,8.1174228 C390.098394,7.46640143 389.897789,6.97813539 389.516639,6.67296912 C389.13549,6.36780285 388.613916,6.20504751 387.97198,6.20504751 C387.490528,6.20504751 387.009076,6.3067696 386.587805,6.48986936 C386.166535,6.67296912 385.785385,6.93744656 385.504538,7.22226841 L385.484477,7.24261283 L384.521573,6.06263658 L384.541634,6.04229216 C384.962904,5.6354038 385.504538,5.30989311 386.126414,5.0657601 C386.748289,4.82162708 387.410286,4.69956057 388.132464,4.69956057 C388.75434,4.69956057 389.316034,4.78093824 389.777426,4.964038 C390.238817,5.14713777 390.619967,5.4116152 390.920875,5.71678147 C391.221782,6.04229216 391.462508,6.40849169 391.602932,6.83572447 C391.743355,7.26295724 391.823598,7.73087886 391.823598,8.21914489 L391.823598,12.0845843 C391.823598,12.3694062 391.823598,12.6949169 391.843658,13.0204276 Z M390.078333,10.0704869 L390.078333,9.64325416 L389.697184,9.64325416 C389.255853,9.64325416 388.814522,9.66359857 388.35313,9.70428741 C387.891738,9.74497625 387.470468,9.82635392 387.109378,9.92807601 C386.728229,10.0297981 386.427321,10.1925534 386.186595,10.416342 C385.945869,10.6401306 385.825506,10.9249525 385.825506,11.291152 C385.825506,11.535285 385.885688,11.7590736 385.98599,11.921829 C386.086293,12.1049287 386.226716,12.2473397 386.3872,12.3490618 C386.547684,12.4507838 386.748289,12.5321615 386.948894,12.5728504 C387.1495,12.6135392 387.370165,12.6338836 387.590831,12.6338836 C388.393251,12.6338836 389.015127,12.3897506 389.436397,11.9014846 C389.857668,11.4335629 390.078333,10.802886 390.078333,10.0704869 Z M400.590039,11.6166627 L400.63016,11.5759739 L401.873911,12.6949169 L401.853851,12.7152613 C401.472701,13.1628385 401.011309,13.5086936 400.449615,13.7528266 C399.887921,13.9969596 399.245985,14.1190261 398.543867,14.1190261 C397.86181,14.1190261 397.239934,13.9969596 396.65818,13.773171 C396.076425,13.5493824 395.574912,13.2238717 395.153642,12.8169834 C394.732371,12.410095 394.391342,11.9014846 394.150616,11.3318409 C393.90989,10.7621971 393.789527,10.1111758 393.789527,9.39912114 C393.789527,8.68706651 393.90989,8.03604513 394.150616,7.46640143 C394.391342,6.89675772 394.71231,6.38814727 395.133581,5.98125891 C395.554852,5.57437055 396.056364,5.24885986 396.638119,5.02507126 C397.199813,4.80128266 397.841749,4.67921615 398.503746,4.67921615 C399.105561,4.67921615 399.747498,4.82162708 400.349313,5.0657601 C400.971188,5.30989311 401.452641,5.69643705 401.81373,6.16435867 L401.83379,6.18470309 L400.509797,7.26295724 L400.489736,7.22226841 C400.309192,6.93744656 400.028345,6.69331354 399.667256,6.51021378 C399.306166,6.32711401 398.904956,6.22539192 398.503746,6.22539192 C398.062415,6.22539192 397.661205,6.32711401 397.320176,6.48986936 C396.979148,6.6526247 396.67824,6.89675772 396.437514,7.18157957 C396.196788,7.48674584 395.996183,7.81225653 395.87582,8.19880048 C395.735396,8.58534442 395.675215,8.97188836 395.675215,9.39912114 C395.675215,9.8060095 395.755457,10.2128979 395.87582,10.5994418 C396.016243,10.9859857 396.196788,11.3318409 396.437514,11.6166627 C396.67824,11.9014846 396.979148,12.1456176 397.320176,12.3083729 C397.681265,12.4914727 398.082476,12.5728504 398.523807,12.5728504 C398.945077,12.5728504 399.346287,12.4711283 399.707377,12.3083729 C400.068466,12.1456176 400.369373,11.9014846 400.590039,11.6166627 Z M409.436722,11.6166627 L409.496904,11.5759739 L410.720595,12.6949169 L410.700534,12.7152613 C410.319384,13.1628385 409.857993,13.5086936 409.296299,13.7528266 C408.734604,13.9969596 408.092668,14.1190261 407.39055,14.1190261 C406.708493,14.1190261 406.086618,13.9969596 405.504863,13.773171 C404.923108,13.5493824 404.421596,13.2238717 404.000325,12.8169834 C403.579054,12.410095 403.238026,11.9014846 402.9973,11.3318409 C402.756574,10.7621971 402.63621,10.1111758 402.63621,9.39912114 C402.63621,8.68706651 402.756574,8.03604513 402.9973,7.46640143 C403.238026,6.89675772 403.558994,6.38814727 403.980264,5.98125891 C404.401535,5.57437055 404.903048,5.24885986 405.484802,5.02507126 C406.046497,4.80128266 406.688433,4.67921615 407.350429,4.67921615 C407.952245,4.67921615 408.594181,4.82162708 409.195996,5.0657601 C409.817872,5.30989311 410.299324,5.69643705 410.660413,6.16435867 L410.680474,6.18470309 L409.35648,7.26295724 L409.33642,7.22226841 C409.155875,6.93744656 408.875028,6.69331354 408.513939,6.51021378 C408.15285,6.32711401 407.75164,6.22539192 407.350429,6.22539192 C406.909098,6.22539192 406.507888,6.32711401 406.16686,6.48986936 C405.825831,6.6526247 405.524923,6.89675772 405.284197,7.18157957 C405.043471,7.48674584 404.842866,7.81225653 404.722503,8.19880048 C404.58208,8.58534442 404.521898,8.97188836 404.521898,9.39912114 C404.521898,9.8060095 404.60214,10.2128979 404.722503,10.5994418 C404.862927,10.9859857 405.043471,11.3318409 405.284197,11.6166627 C405.524923,11.9014846 405.825831,12.1456176 406.16686,12.3083729 C406.527949,12.4914727 406.929159,12.5728504 407.37049,12.5728504 C407.791761,12.5728504 408.192971,12.4711283 408.55406,12.3083729 C408.915149,12.1456176 409.216057,11.9014846 409.436722,11.6166627 Z M419.125947,5.94057007 C419.507096,6.34745843 419.787943,6.83572447 419.988549,7.42571259 C420.189154,7.99535629 420.289456,8.64637767 420.289456,9.3584323 L420.289456,9.66359857 C420.289456,9.76532067 420.289456,9.86704276 420.269396,9.96876485 L420.269396,10.0094537 L413.3084,10.0094537 C413.32846,10.3553088 413.408702,10.7011639 413.549126,11.0063302 C413.68955,11.3114964 413.890155,11.5963183 414.150941,11.8404513 C414.411728,12.0642399 414.692575,12.2473397 415.033603,12.3897506 C415.354572,12.5321615 415.715661,12.5931948 416.09681,12.5931948 C416.678565,12.5931948 417.180078,12.4711283 417.601348,12.2066508 C418.022619,11.9625178 418.363648,11.6370071 418.604374,11.2708076 L418.624434,11.2301188 L419.908306,12.2676841 L419.888246,12.2880285 C419.426854,12.9187055 418.86516,13.3866271 418.223224,13.6917933 C417.581288,13.9969596 416.87917,14.1393705 416.09681,14.1393705 C415.414753,14.1393705 414.792877,14.017304 414.231183,13.7935154 C413.669489,13.5697268 413.167976,13.2442162 412.766766,12.8373278 C412.365556,12.4304394 412.044588,11.921829 411.803862,11.3521853 C411.563136,10.7621971 411.442773,10.1111758 411.442773,9.41946556 C411.442773,8.72775534 411.563136,8.09707838 411.783801,7.50709026 C412.024527,6.91710214 412.345496,6.40849169 412.746706,6.00160333 C413.167976,5.57437055 413.649428,5.24885986 414.211123,5.02507126 C414.772817,4.80128266 415.374632,4.67921615 416.016568,4.67921615 C416.658504,4.67921615 417.26032,4.80128266 417.781893,5.00472684 C418.303466,5.22851544 418.764858,5.53368171 419.125947,5.94057007 Z M413.3084,8.58534442 L413.3084,8.565 L418.44389,8.565 C418.423829,8.23948931 418.363648,7.91397862 418.263345,7.62915677 C418.142982,7.34433492 418.002558,7.07985748 417.801953,6.85606888 C417.601348,6.63228029 417.360622,6.44918052 417.059715,6.32711401 C416.758807,6.18470309 416.417778,6.12366983 416.016568,6.12366983 C415.655479,6.12366983 415.314451,6.20504751 414.993482,6.32711401 C414.672514,6.44918052 414.391667,6.63228029 414.150941,6.85606888 C413.910215,7.07985748 413.729671,7.34433492 413.569186,7.64950119 C413.428763,7.95466746 413.32846,8.25983373 413.3084,8.58534442 Z M422.355688,1.32338585e-13 L424.161134,1.32338585e-13 L424.161134,14.0986817 L422.355688,14.0986817 L422.355688,1.32338585e-13 Z M435.415078,7.48674584 C435.655804,8.05638955 435.776167,8.70741093 435.776167,9.37877672 C435.776167,10.0704869 435.655804,10.7215083 435.415078,11.291152 C435.174352,11.8811401 434.833323,12.3694062 434.412053,12.796639 C433.970721,13.2035273 433.469209,13.5493824 432.887454,13.773171 C432.305699,13.9969596 431.663763,14.1190261 431.001767,14.1190261 C430.319709,14.1190261 429.697834,13.9969596 429.116079,13.773171 C428.534324,13.5493824 428.032812,13.2238717 427.611541,12.796639 C427.19027,12.3694062 426.849242,11.8607957 426.608516,11.291152 C426.36779,10.7011639 426.247427,10.0704869 426.247427,9.37877672 C426.247427,8.68706651 426.36779,8.05638955 426.608516,7.48674584 C426.849242,6.91710214 427.19027,6.40849169 427.611541,6.00160333 C428.032812,5.57437055 428.534324,5.24885986 429.116079,5.02507126 C429.697834,4.80128266 430.33977,4.67921615 431.001767,4.67921615 C431.683824,4.67921615 432.305699,4.80128266 432.887454,5.02507126 C433.469209,5.26920428 433.990782,5.59471496 434.412053,6.00160333 C434.833323,6.40849169 435.174352,6.91710214 435.415078,7.48674584 Z M433.709935,10.5994418 C433.830298,10.2128979 433.890479,9.8060095 433.91054,9.39912114 C433.91054,8.99223278 433.830298,8.58534442 433.709935,8.19880048 C433.569511,7.83260095 433.388967,7.48674584 433.148241,7.20192399 C432.907515,6.91710214 432.606607,6.67296912 432.245518,6.51021378 C431.904489,6.32711401 431.483219,6.24573634 431.021827,6.24573634 C430.560435,6.24573634 430.159225,6.34745843 429.798136,6.51021378 C429.437047,6.69331354 429.136139,6.91710214 428.895413,7.20192399 C428.654687,7.48674584 428.454082,7.81225653 428.333719,8.19880048 C428.193296,8.58534442 428.133114,8.97188836 428.133114,9.39912114 C428.133114,9.82635392 428.213356,10.2128979 428.333719,10.5994418 C428.474143,10.9859857 428.654687,11.3318409 428.895413,11.6166627 C429.136139,11.9014846 429.437047,12.1456176 429.798136,12.3083729 C430.139165,12.4914727 430.560435,12.5728504 431.021827,12.5728504 C431.483219,12.5728504 431.884429,12.4711283 432.245518,12.3083729 C432.606607,12.1456176 432.907515,11.9014846 433.148241,11.6166627 C433.388967,11.3114964 433.589572,10.9859857 433.709935,10.5994418 Z M456.338186,12.3897506 C456.338186,12.898361 455.936976,13.3052494 455.435463,13.3052494 L442.576679,13.3052494 C442.075166,13.3052494 441.673956,12.898361 441.673956,12.3897506 C441.673956,11.8811401 442.075166,11.4742518 442.576679,11.4742518 L455.435463,11.4742518 C455.936976,11.4742518 456.338186,11.8811401 456.338186,12.3897506 Z M450.199671,0.915498812 C450.199671,1.42410926 449.798461,1.83099762 449.296948,1.83099762 L439.667905,1.83099762 C439.166393,1.83099762 438.765183,1.42410926 438.765183,0.915498812 C438.765183,0.406888361 439.166393,-7.54951657e-14 439.667905,-7.54951657e-14 L449.296948,-7.54951657e-14 C449.798461,-7.54951657e-14 450.199671,0.406888361 450.199671,0.915498812 Z M456.338186,4.74024941 C456.338186,5.24885986 455.936976,5.65574822 455.435463,5.65574822 L442.576679,5.65574822 C442.075166,5.65574822 441.673956,5.24885986 441.673956,4.74024941 C441.673956,4.23163895 442.075166,3.82475059 442.576679,3.82475059 L455.435463,3.82475059 C455.936976,3.82475059 456.338186,4.23163895 456.338186,4.74024941 Z M462.095551,8.565 C462.095551,9.07361045 461.694341,9.48049881 461.192829,9.48049881 L445.545634,9.48049881 C445.044121,9.48049881 444.642911,9.07361045 444.642911,8.565 C444.642911,8.05638955 445.044121,7.64950119 445.545634,7.64950119 L461.192829,7.64950119 C461.694341,7.64950119 462.095551,8.05638955 462.095551,8.565 Z M450.199671,16.2145012 C450.199671,16.7231116 449.798461,17.13 449.296948,17.13 L439.667905,17.13 C439.166393,17.13 438.765183,16.7231116 438.765183,16.2145012 C438.765183,15.7058907 439.166393,15.2990024 439.667905,15.2990024 L449.296948,15.2990024 C449.798461,15.2990024 450.199671,15.7058907 450.199671,16.2145012 Z" id="Combined-Shape" fill-rule="nonzero"></path>
                </g>
                <g id="Group-4" transform="translate(121.000000, 82.000000)" fill="#6A7A8E" fill-rule="nonzero">
                    <path d="M235.92677,14.5378522 C237.168938,15.106107 237.721013,15.9584892 237.721013,16.96872 C237.721013,18.2472933 236.69354,19.6995 234.59259,19.6995 C231.908894,19.6995 231.433496,17.8211022 231.433496,16.9055805 L233.28908,16.5425288 C233.273745,16.6214531 233.273745,16.6688077 233.273745,16.7003774 C233.273745,17.4106959 233.764478,18.0105204 234.561919,18.0105204 C235.252012,18.0105204 235.55872,17.6001142 235.55872,17.1739231 C235.55872,16.858226 235.420702,16.5740986 234.945304,16.3531106 L234.040515,15.9427043 C232.798347,15.4060192 232.307614,14.6167764 232.307614,13.6065457 C232.307614,12.1385541 233.549782,10.8441959 235.405366,10.8441959 C237.767019,10.8441959 238.3651,12.4068966 238.426441,13.353988 L236.540186,13.7170397 C236.540186,13.1961394 236.279484,12.5331755 235.35936,12.5331755 C234.776615,12.5331755 234.377894,12.912012 234.377894,13.3697728 C234.377894,13.7170397 234.577254,13.9380276 234.883963,14.0800913 L235.92677,14.5378522 Z M231.939565,0.441975962 L234.193869,7.28306304e-14 L230.160658,19.4627272 L227.98303,19.4627272 L231.939565,0.441975962 Z M228.581111,1.08915505 L230.881422,0.647179087 L226.955558,19.4627272 L224.77793,19.4627272 L228.581111,1.08915505 Z M225.483359,11.1125385 L224.133843,17.7579627 C224.01116,18.3735721 223.949819,18.8471178 223.949819,19.2733089 L223.949819,19.4627272 L221.864203,19.4627272 C221.848868,19.368018 221.848868,19.1785998 221.848868,19.0996755 C221.848868,18.9576118 221.848868,18.8471178 221.864203,18.5945601 C221.434812,19.2890937 220.576029,19.6679303 219.83993,19.6679303 C218.107029,19.6679303 217.186905,18.499851 217.186905,16.9371502 C217.186905,16.637238 217.217576,16.305756 217.355594,15.7059315 L218.214377,11.5545144 L220.484017,11.1125385 L219.548557,15.6270072 C219.47188,16.0058437 219.441209,16.2584014 219.441209,16.4320349 C219.441209,17.1739231 219.824595,17.6790385 220.652706,17.6790385 C221.557495,17.6790385 222.10957,16.9213654 222.30893,15.9584892 L223.24439,11.5387296 L225.483359,11.1125385 Z M213.629091,10.9231202 C215.714706,10.9231202 216.788184,12.4858209 216.788184,14.4273582 C216.788184,17.4738353 214.978606,19.6679303 212.540277,19.6679303 C211.267438,19.6679303 210.377985,18.9733966 210.101948,18.2946478 L209.856581,19.4627272 L207.72496,19.4627272 L209.519202,10.8915505 L210.838047,4.51446875 L213.046345,4.08827764 L211.451463,11.7912873 C211.89619,11.2861719 212.708967,10.9231202 213.629091,10.9231202 Z M212.325581,17.6632536 C213.368389,17.6632536 214.579886,16.6688077 214.579886,14.7904099 C214.579886,13.5591911 213.874457,12.9277969 212.862321,12.9277969 C211.620153,12.9277969 210.669358,14.1590156 210.669358,15.7532861 C210.669358,16.9371502 211.374786,17.6632536 212.325581,17.6632536 Z M208.553072,11.1125385 L207.234227,17.6474687 C207.126879,18.1367993 207.080873,18.6734844 207.080873,19.14703 C207.080873,19.2101695 207.080873,19.3048786 207.096208,19.4627272 L205.071935,19.4627272 C205.056599,19.3206635 205.056599,19.1943846 205.056599,19.0681058 C205.056599,18.8944724 205.071935,18.6419147 205.08727,18.4367115 C204.703885,19.0207512 203.998456,19.6047909 202.909643,19.6047909 C200.91604,19.6047909 199.750549,17.947381 199.750549,15.8953498 C199.750549,13.0540757 201.544791,10.9073353 203.891108,10.9073353 C204.933916,10.9073353 205.562668,11.2546022 205.915382,11.6176538 C206.068736,11.7755024 206.176084,11.933351 206.237425,12.0596298 L206.344773,11.5387296 L208.553072,11.1125385 Z M203.492388,17.6632536 C204.611873,17.6632536 205.593338,16.5583137 205.608674,14.7114856 C205.608674,13.6065457 205.025928,12.9277969 204.059798,12.9277969 C202.648941,12.9277969 201.912841,14.4589279 201.912841,15.8164255 C201.912841,16.96872 202.526257,17.6632536 203.492388,17.6632536 Z M198.094325,11.4598053 L199.919238,11.0967536 L198.186338,19.4469423 L196.00871,19.4469423 L197.649599,11.5387296 L198.094325,11.4598053 Z M199.551189,6.69277885 C200.271953,6.69277885 200.762686,7.22946394 200.762686,7.89242788 C200.762686,8.77637981 200.041922,9.40777404 199.259816,9.40777404 C198.569723,9.40777404 198.063654,8.8868738 198.063654,8.19234014 C198.063654,7.37152764 198.738412,6.69277885 199.551189,6.69277885 Z M197.649599,7.05583053 L195.471971,17.6316839 C195.349288,18.1525841 195.303281,18.7050541 195.287946,19.0996755 C195.287946,19.257524 195.287946,19.3995877 195.303281,19.4627272 L193.309679,19.4627272 C193.294343,19.3048786 193.294343,19.1785998 193.294343,19.0365361 C193.294343,18.8629026 193.309679,18.6261298 193.325014,18.4367115 C192.941629,19.0207512 192.2362,19.6047909 191.147387,19.6047909 C189.153784,19.589006 187.988293,17.9631659 187.988293,15.8953498 C187.988293,13.0540757 189.782536,10.9073353 192.128853,10.9073353 C193.493704,10.9073353 194.168461,11.5229447 194.429163,11.9964904 L195.349288,7.49780649 L197.649599,7.05583053 Z M191.745467,17.6632536 C192.864952,17.6632536 193.861753,16.5583137 193.861753,14.7114856 C193.861753,13.6065457 193.279008,12.9277969 192.312877,12.9277969 C190.90202,12.9277969 190.165921,14.4589279 190.165921,15.8164255 C190.165921,16.96872 190.764002,17.6632536 191.745467,17.6632536 Z M185.120572,10.8915505 C186.73079,10.8915505 187.620243,12.0122752 187.635579,13.4960517 C187.635579,13.7801791 187.589573,14.0800913 187.528231,14.3800036 L186.470088,19.4311575 L184.307796,19.4311575 L185.304597,14.6009916 C185.335268,14.4273582 185.350603,14.2695096 185.350603,14.1116611 C185.350603,13.3697728 184.936548,12.8804423 184.123771,12.8804423 C183.172976,12.8804423 182.605566,13.68547 182.406206,14.6167764 L181.378733,19.4469423 L179.201106,19.4469423 L180.611963,12.5331755 C180.673305,12.2174784 180.765317,11.8070721 180.734646,11.5387296 L182.896939,11.1283233 C182.896939,11.2861719 182.896939,11.6334387 182.850932,11.9649207 C183.372336,11.1914627 184.277125,10.8915505 185.120572,10.8915505 Z M178.311652,7.97135216 L180.719311,7.49780649 L178.265646,19.4469423 L175.95,19.4469423 L178.311652,7.97135216 Z" id="Combined-Shape"></path>
                    <path d="M9.61816434,2.45426891 C9.84028477,2.45426891 9.78912711,2.79282186 10.2617889,2.79282186 C10.5324435,2.79282186 10.5643624,2.659078 10.8831139,2.659078 C11.8022028,2.659078 12.1384442,3.77625858 12.7759473,3.77625858 C13.0671524,3.77625858 13.0946988,3.58071888 13.4012075,3.58071888 C13.5166402,3.58071888 13.7291412,3.64737011 13.8130923,3.73609129 C13.898355,3.81995707 14.0798117,3.97532948 14.5384816,5.23640611 C14.5900765,5.37456396 14.5166194,5.43018022 14.4466602,5.43018022 C14.3775755,5.43018022 14.2341591,5.36485319 13.9132214,5.02541744 C13.7308902,4.83296752 13.5791662,4.9221301 12.7829432,4.41849397 C12.4082243,4.18366976 12.0479345,3.84158562 11.6478553,3.6901858 C11.2447155,3.54099298 10.5735445,3.48184553 10.3186307,3.42004968 C9.98588733,3.34192208 9.45463473,3.08546932 9.45463473,2.6957141 C9.45463473,2.56682563 9.52984086,2.45426891 9.61816434,2.45426891 Z M14.1502518,2.3 C14.3352065,2.3 14.4829952,2.59220606 14.6775692,2.78686297 C15.1331785,3.22737907 15.8402035,2.94311818 16.3758286,3.48471462 C16.5126862,3.62507947 16.6224347,3.95701143 16.6224347,4.27570143 C16.6224347,4.59659842 16.5524755,4.9241164 16.3893832,4.9241164 C16.0094173,4.9241164 16.2555862,4.30262676 15.4877841,3.84136492 C14.7177958,3.37833749 14.5901202,3.35715034 14.2744294,3.03537055 C13.9556778,2.71270796 13.9412488,2.58823347 13.9412488,2.50171929 C13.9412488,2.41652931 14.0011513,2.3 14.1502518,2.3 Z M17.626043,3.75493902 C17.8140583,3.75493902 17.7594027,4.02066115 17.972341,4.19633791 C18.1809069,4.37289746 18.3182018,4.31551561 18.6111559,4.60948727 C18.7423294,4.74102414 18.7759972,4.82930391 18.7759972,4.86594002 C18.7759972,4.90301753 18.7034146,5.36516217 18.229441,5.36516217 C18.1271257,5.36516217 18.0457982,5.34397502 17.972341,5.18816121 C17.8573456,4.95819239 17.9089405,4.636854 17.6662696,4.35126892 C17.4568292,4.10452694 17.4292828,4.08201559 17.4292828,3.93856096 C17.4292828,3.79775471 17.560019,3.75493902 17.626043,3.75493902 Z M18.3819521,6.14348083 C18.9796659,6.3134194 19.2704338,6.55839578 19.2704338,6.92563966 C19.2704338,7.30038731 19.1248312,7.32201586 19.0006537,7.5034308 C18.906646,7.63673327 18.8126383,7.82962458 18.8244439,8.39991195 C18.8244439,8.51732405 18.7885899,8.58000269 18.7033271,8.58000269 C18.6215623,8.58000269 18.5756516,8.53453861 18.5756516,8.45199702 C18.5756516,8.39593936 18.6110684,8.35753765 18.6110684,8.30765958 C18.6110684,8.2595471 18.6272465,7.98720399 18.4414174,7.82521059 C17.9014199,7.33128524 15.236412,6.99847047 13.5407761,6.99847047 C11.4835387,6.99847047 9.84037222,7.43854517 9.37820432,7.43854517 C8.54175475,7.43854517 8.15348125,7.01965762 8.15348125,6.70538161 C8.15348125,6.3924298 8.33537514,6.33548934 8.33537514,6.18629652 C8.33537514,6.0357795 8.28684095,6.01326815 8.28684095,5.88570388 C8.28684095,5.7568154 8.38740729,5.50036265 8.48972261,5.50036265 C8.6414466,5.50036265 8.62920374,5.67250821 8.7748063,5.92940237 C8.96282163,6.24985796 9.35240687,6.67360089 10.0887273,6.67360089 C10.7441575,6.67360089 11.2985841,6.42200353 12.2670816,6.19865569 C13.4528899,5.92498838 14.390343,5.79389291 15.3242982,5.79389291 C15.7519238,5.79389291 17.3539892,5.81331446 18.3819521,6.14348083 Z M18.5756516,9.5157242 C18.7033271,9.5157242 18.7811567,9.54750492 18.7811567,9.6340191 C18.7811567,9.71920909 18.647797,9.71920909 18.5699674,9.73554085 C18.4930123,9.74745862 17.9814357,9.84235938 17.7593153,10.2038651 C17.723024,10.2621297 17.7536311,10.3173046 17.7995418,10.3389331 C17.851574,10.3610031 18.4296118,10.6496779 18.4296118,10.8686118 C18.4296118,11.0791591 17.9836219,11.2883821 17.851574,11.2883821 C17.7142791,11.2883821 17.6657449,11.1255059 17.6657449,11.0954908 C17.6657449,11.0363434 17.7929831,10.9670437 17.7929831,10.9074549 C17.7929831,10.8540456 17.6858581,10.7728282 17.6259556,10.7728282 C17.5590571,10.7728282 17.5323852,10.8037262 17.4956566,10.952919 C17.4628632,11.1043188 17.3290663,11.7015315 17.2984591,12.0687754 C17.2704754,12.4417574 17.157229,13.3828199 17.157229,13.5006734 C17.157229,13.6251479 17.1379902,13.9575212 16.8738943,14.1446743 C16.6128591,14.3269721 16.3815565,14.4589504 16.3815565,14.4589504 C16.3815565,14.4589504 16.2836136,14.523836 16.2490713,14.523836 C16.2132172,14.523836 16.1279544,14.4355562 16.0243274,14.3494834 C15.9158906,14.2669418 15.8039559,14.2585553 15.732685,14.2585553 C15.5962646,14.2585553 15.3299824,14.4726337 15.1327849,14.4726337 C14.936462,14.4726337 14.5315732,14.2523757 14.5315732,14.126577 C14.5315732,14.0864097 14.6111517,14.0497736 14.6321395,14.0497736 C14.7178395,14.0497736 14.872187,14.1605647 15.0637002,14.1605647 C15.2512783,14.1605647 15.4213666,13.9884191 15.6692845,13.9884191 C15.8122636,13.9884191 16.1380111,14.0616914 16.3951111,14.0616914 C16.6557091,14.0616914 16.7562754,13.9945987 16.7982509,13.9182367 C16.8406637,13.8392263 16.9259264,13.7377046 16.9259264,13.4371119 C16.9259264,13.1404919 16.7348504,12.133661 16.7348504,11.5236477 C16.7348504,10.9074549 16.8467851,10.3760106 17.1524193,10.0692384 C17.4567418,9.76202478 18.1060505,9.5157242 18.5756516,9.5157242 Z M18.951245,11.2691371 C19.0220787,11.2691371 19.1003455,11.3640379 19.1003455,11.6134283 C19.1003455,11.865467 18.9241358,13.544107 18.4772715,14.7076345 C18.0325934,15.8685136 17.9084158,15.8777829 17.5166443,16.5456195 C17.1292453,17.2152216 16.8257973,17.922784 16.4034187,18.3487339 C16.2407636,18.5116101 16.0007161,18.710681 15.4209294,18.710681 C14.8450778,18.710681 14.0160614,18.5862065 13.0847297,18.2052793 C12.1533979,17.8292074 11.2281876,17.2703964 10.6711376,16.7102613 C10.5893728,16.6250713 10.6348463,16.5456195 10.7765136,16.6250713 C10.91993,16.7018747 11.675052,17.2946734 13.1183975,17.7356309 C14.1739068,18.0582935 14.4629257,18.0605005 14.9049803,18.0605005 C15.3304197,18.0605005 15.7851544,18.1381867 16.3199049,17.6014456 C16.8524693,17.062939 17.2984591,16.1536573 17.4899724,15.8031865 C17.6819229,15.4549228 18.0601398,14.843144 18.4204296,13.7096316 C18.7820312,12.5765607 18.845869,11.9497742 18.8830348,11.4589387 C18.8874072,11.3534443 18.8944031,11.2691371 18.951245,11.2691371 Z M15.3392957,14.9520812 C15.5491733,14.9520812 15.7153264,15.2469357 15.939633,15.2469357 C16.1635024,15.2469357 16.2282147,14.9957797 16.3650723,14.9957797 C16.4953713,14.9957797 16.5312254,15.2866616 16.5797596,15.3837693 C16.6282938,15.4892636 16.6580265,15.5404659 16.6580265,15.5678326 C16.6580265,15.596965 16.6068688,15.6353667 16.5526504,15.6353667 C16.5010555,15.6353667 16.3952423,15.5404659 16.1551948,15.5404659 C15.9794223,15.5404659 15.8399412,15.6565538 15.8276983,15.6848034 C15.8189534,15.7121701 15.7817876,15.7042249 15.748557,15.6830378 C15.6750998,15.6296285 15.5216269,15.3828865 15.2662758,15.3828865 C15.1298554,15.3828865 14.9536457,15.4724905 14.7630069,15.5832816 C14.5749916,15.7042249 14.4320125,15.7501304 14.2649849,15.7501304 C14.1189451,15.7501304 13.9221849,15.6909829 13.9221849,15.5894612 C13.9221849,15.5316379 14.000889,15.4950018 14.0647267,15.4950018 C14.2129528,15.4950018 14.3563691,15.5289895 14.686489,15.339188 C14.9112329,15.20412 15.1565273,14.9520812 15.3392957,14.9520812 Z M14.6931352,15.9544539 C14.8055071,15.9544539 14.987401,16.1782432 15.5422648,16.1782432 C16.0792016,16.1782432 16.2248042,15.9262044 16.3393623,15.9262044 C16.4080098,15.9262044 16.4220016,15.999918 16.4220016,16.0281675 C16.4220016,16.0546515 16.2134358,16.7502961 15.6480781,16.7502961 C15.3201444,16.7502961 14.9664132,16.4655938 14.8383005,16.3367054 C14.7119367,16.2082583 14.6201153,16.0820182 14.6201153,16.0281675 C14.6201153,15.9716685 14.6651515,15.9544539 14.6931352,15.9544539 Z M13.729185,10.0408565 C14.114835,10.0408565 14.9665881,10.1273706 14.9665881,10.3538083 C14.9665881,10.4791656 14.5839988,10.3617535 14.2901702,10.3617535 C13.9924064,10.3617535 13.9652972,10.3780852 13.9652972,10.3997138 C13.9652972,10.4217837 13.9714187,10.4363499 13.9950299,10.4579784 C14.0225763,10.4791656 14.2171503,10.693244 14.2171503,10.7515087 C14.2171503,10.9819189 13.6259952,11.2167431 13.4856395,11.2167431 C13.4104334,11.2167431 13.2517135,11.1319945 13.2517135,11.0304728 C13.2517135,10.9572006 13.5621574,10.8803971 13.5621574,10.8066835 C13.5621574,10.7294387 13.382887,10.5771561 13.2193574,10.5771561 C13.054516,10.5771561 12.5538706,10.9315994 12.4878466,10.9315994 C12.4187619,10.9315994 12.4034583,10.8861353 12.4034583,10.8318433 C12.4034583,10.7797582 12.4484945,10.684416 12.4484945,10.6358622 C12.4484945,10.472986 12.3396206,10.4910833 12.3396206,10.3617535 C12.3396206,10.2920124 12.4275068,10.1728347 12.9220308,10.1057421 C13.4165548,10.0373253 13.5372344,10.0408565 13.729185,10.0408565 Z M13.4979698,8.95152814 C13.8954255,8.95152814 14.7331868,9.01641378 14.863923,9.04245631 C14.9968455,9.06761605 15.0239547,9.12808769 15.0239547,9.1656066 C15.0239547,9.23093364 14.9815419,9.23932022 14.8271945,9.23932022 C14.5416735,9.23932022 13.8189076,9.24108581 13.0852106,9.46884764 C11.9330702,9.82858773 11.7695406,10.1697891 11.5771528,10.1697891 C11.5198737,10.1697891 11.429364,10.0969583 11.429364,10.0192721 C11.429364,9.94688263 11.5447967,9.76855748 11.5447967,9.6414346 C11.5447967,9.54565104 11.4503518,9.4445707 11.4503518,9.38674744 C11.4503518,9.17443458 12.4249708,8.95152814 13.4979698,8.95152814 Z M23.6750644,8.59289154 C24.2635961,8.59289154 24.4992711,9.17421388 24.4992711,9.86632734 C24.4992711,9.97402867 24.4481134,10.1545608 24.3519196,10.1545608 C24.2150619,10.1545608 24.3943323,9.76833678 24.0449736,9.76833678 C23.9597108,9.76833678 23.7966185,9.86191335 23.6536394,10.0044852 C23.5080368,10.1483812 22.6471015,11.3202953 22.021404,13.2655402 C21.7096484,14.2388247 21.5692928,14.8483966 21.5692928,15.3692473 C21.5692928,15.713097 21.6694219,15.9757294 21.6694219,16.0962313 C21.6694219,16.3094269 21.4455525,16.1708277 21.4096984,16.1077076 C21.3239984,15.9563078 21.1630922,15.5290337 21.1630922,14.9521253 C21.1630922,14.3747756 21.4096984,12.9194835 21.855251,11.446094 C22.0944239,10.6418652 22.7822102,8.59289154 23.6750644,8.59289154 Z M21.964431,17.9909801 C22.0361392,17.9909801 22.0969162,18.0276162 22.0969162,18.0713147 C22.0969162,18.1467939 21.8100836,18.3913289 21.685906,18.5268384 C21.4838988,18.7409168 21.427057,19.0900634 21.2578432,19.0900634 C21.2023131,19.0900634 21.1695197,19.0260605 21.1695197,18.9766238 C21.1695197,18.9271872 21.1909447,18.8826059 21.1909447,18.8468526 C21.1909447,18.6760312 20.9727595,18.7192883 20.9727595,18.585103 C20.9727595,18.4774017 21.2853896,18.2699442 21.4204983,18.1838714 C21.5547325,18.1004471 21.8459376,17.9909801 21.964431,17.9909801 Z M21.7266572,19.3815632 C21.8184787,19.3815632 21.8871261,19.4115783 21.8871261,19.4504214 C21.8871261,19.5369356 21.5443261,19.7413033 21.4787393,19.8083959 C21.4122781,19.8768127 21.0537373,20.3513165 20.9986444,20.6214527 C20.9413653,20.8898232 20.856977,20.9763374 20.7804592,20.9763374 C20.6173668,20.9763374 20.7174959,20.7070841 20.5959418,20.6214527 C20.5084928,20.556567 20.2771903,20.5865822 20.2771903,20.3879527 C20.2771903,20.2590642 20.489254,20.0511653 20.6860143,19.8732816 C20.883649,19.6958392 21.2968454,19.3815632 21.7266572,19.3815632 Z M20.3349503,16.8095319 C20.4232738,16.8095319 20.4892978,16.8549959 20.5317105,16.9317994 C20.5776213,17.0072786 20.557508,17.0562738 20.6322769,17.1264563 C20.7052968,17.2037011 20.9728907,17.243427 20.9728907,17.3723154 C20.9728907,17.4981141 20.8294743,17.4981141 20.7595151,17.5497578 C20.6856208,17.6014015 20.4945447,17.6835017 20.3471932,17.9412786 C20.2020278,18.1990556 20.1167651,18.5362843 20.0887814,18.9988704 C20.0586115,19.4601322 19.9108227,19.9130075 19.6773339,20.2992315 C19.4316023,20.7167948 19.0586323,21.0403402 18.8513782,21.3833072 C18.679541,21.6750718 18.7390063,21.9995 18.5597359,21.9995 C18.3878986,21.9995 18.3603522,21.5064574 18.3603522,21.3351947 C18.3603522,21.1626077 18.4032022,20.5790784 18.8513782,20.1522456 C19.3494002,19.6803902 19.7490421,19.6592031 19.7490421,18.8964658 C19.7490421,18.4193136 19.6922003,18.2687966 19.6922003,17.9783561 C19.6922003,17.6835017 19.7923293,16.8095319 20.3349503,16.8095319 Z M0.710523024,6.31350768 C1.00391438,6.31350768 0.678604143,6.43400958 1.14339551,6.9023338 C1.36201798,7.12259184 1.49013075,7.2183754 2.00214457,7.2183754 C2.30821603,7.2183754 2.75158239,7.14686878 3.864808,6.64543964 C4.30380192,6.44592735 5.00776627,6.23140749 5.51759387,6.23140749 C6.16908882,6.23140749 6.67847918,6.55098028 7.04008074,6.81626101 C7.4016823,7.08639713 7.83236857,7.45982059 8.02300736,7.61033761 C8.21320891,7.76041324 8.49872985,7.93211741 8.60804109,7.9744917 C8.71472885,8.01819019 8.73615385,8.07822044 8.70204875,8.16738301 C8.67187885,8.24904181 8.54507781,8.44281592 8.51490791,8.48607301 C8.48080281,8.52800591 8.35312729,8.59289154 8.28010738,8.62378946 C8.20490125,8.65777718 7.91981755,8.77386509 7.56827262,9.04267701 C7.22153739,9.31016474 6.63737815,9.63106173 5.93035309,9.63106173 C5.21720659,9.63106173 4.12802946,9.34017986 3.52463144,9.34017986 C3.27277836,9.34017986 2.89937118,9.48054471 2.63527524,9.74714964 C2.53514615,9.84822998 2.45119512,10.0406799 2.38036144,10.1077725 C2.31171398,10.1792791 2.08347213,10.3258236 2.00214457,10.3258236 C1.91644456,10.3258236 1.76821853,10.2706487 1.76821853,10.1885485 C1.76821853,10.0256723 2.11713999,9.9607867 2.11713999,9.6831468 C2.11713999,9.4050655 2.03187722,9.39447192 2.03187722,9.26646625 C2.03187722,9.13757777 2.13462979,8.90893315 2.29509868,8.74429136 C2.64227116,8.39602764 3.53643705,8.18592177 4.34009325,8.18592177 C4.92250351,8.18592177 6.0549679,8.44281592 6.82801694,8.44281592 C7.1555134,8.44281592 7.4104272,8.39293785 7.55865324,8.32628661 C7.76547009,8.23226865 7.71868488,8.11927053 7.62467722,8.11927053 C7.54072619,8.11927053 7.54990834,8.16076203 7.32822515,8.16076203 C7.12796697,8.16076203 6.65486795,8.04511552 6.25172812,7.7749794 C5.85121175,7.50351908 5.20758721,7.13539241 4.58844837,7.13539241 C3.96449985,7.13539241 3.52157073,7.35609185 3.33093193,7.43289526 C2.87226199,7.61033761 1.8049471,8.22873746 1.2347797,8.22873746 C0.663737815,8.22873746 -6.57661233e-14,7.94447657 -6.58262333e-14,7.45364101 C-6.58866136e-14,6.96059845 0.481843921,6.99855875 0.481843921,6.70546989 C0.481843921,6.65426762 0.458232695,6.6211627 0.458232695,6.56245665 C0.458232695,6.5050748 0.515949026,6.31350768 0.710523024,6.31350768 Z M7.72935366,10.51024 C7.85309398,10.51024 7.84041387,10.6475151 7.9204297,10.7371191 C7.99869654,10.8320198 8.03192716,10.7146077 8.1442991,10.837758 C8.26016901,10.9600255 8.20288993,11.0249111 8.28071953,11.095535 C8.35592565,11.1683658 8.48141495,11.1595378 8.48403842,11.2235406 C8.50502618,11.4870558 8.38434658,11.9059433 8.38434658,12.5477373 C8.38434658,13.0001712 8.46217617,13.5179321 8.61783537,13.9734557 C8.6803614,14.1632572 8.54525271,14.197245 8.47879148,14.0652667 C8.01706083,13.1952695 7.60124089,11.9205095 7.60124089,10.9233894 C7.60124089,10.6867996 7.63753222,10.51024 7.72935366,10.51024 Z M7.13378233,11.4628671 C7.19149866,11.4628671 7.22166856,11.502593 7.22166856,11.5696856 C7.22166856,11.6398681 7.01878691,12.310353 6.71533892,12.7084948 C6.41495165,13.1039882 5.93922916,13.6252803 5.76608017,13.6252803 C5.68693883,13.6252803 5.68693883,13.5312623 5.67250975,13.4994816 C5.65414546,13.4663767 5.59642913,13.3917803 5.71229904,13.2964381 C5.82991793,13.2006545 5.8452215,13.1476867 5.8452215,13.0854494 C5.8452215,13.0214466 5.7936266,12.9353738 5.7936266,12.8788748 C5.7936266,12.8254655 5.83866282,12.6996668 5.91343171,12.6542027 C5.98688886,12.6127112 6.44818227,12.377887 6.70571954,12.0627282 C6.96456854,11.747128 7.04239814,11.4628671 7.13378233,11.4628671 Z M7.59866115,15.0325924 C8.23266631,15.3521652 8.80851789,15.7609005 8.80851789,16.3890111 C8.80851789,16.9063306 8.38745101,17.3578817 7.75913004,17.7432229 C7.62489584,17.8253231 7.48978716,17.9016851 7.34986878,17.9696606 C7.31357745,18.2574526 7.27947234,18.5169952 7.24973969,18.7257769 C7.12512488,19.6659565 6.86059169,21.0122231 6.71236566,21.0122231 C6.56457687,21.0122231 6.55189677,20.3174613 6.53047176,20.0181928 C6.51779166,19.8372193 6.48762176,19.08331 6.46401053,18.4251842 C6.35513654,18.4900699 6.26025439,18.5637835 6.1815503,18.6392627 C5.84793242,18.9769328 5.76835384,19.2364754 5.76835384,19.4765964 C5.76835384,19.7083308 5.96030437,20.0852854 5.96030437,20.3086333 C5.96030437,20.5333053 5.80245894,20.9054046 5.61138291,20.9054046 C5.45135126,20.9054046 5.57815229,20.7036853 5.57815229,20.5112354 C5.57815229,20.0053922 4.93234152,20.0380558 4.93234152,19.3040094 C4.93234152,19.1027315 4.96513489,18.9310273 5.26289869,18.6308761 C5.46578034,18.4251842 6.07661152,18.0857485 6.445209,17.8902088 C6.44039931,17.6995244 6.43690135,17.5410622 6.43690135,17.4421889 C6.43690135,17.1371823 6.50073911,16.2667436 6.5580182,15.5891964 C6.20078908,15.5746302 5.82126048,15.5830168 5.49420126,15.2506434 C5.35952982,15.1186651 5.24147369,14.9103249 5.24147369,14.7730498 C5.24147369,14.6313608 5.34466349,14.5152729 5.8837865,14.5152729 C6.07661152,14.5152729 6.32103144,14.5333702 6.66689219,14.6410715 C6.76396056,14.0769638 7.00357079,13.0087784 7.22175601,13.0087784 C7.36735858,13.0087784 7.60128462,13.7026575 7.60128462,14.7902644 C7.60128462,14.8697162 7.59866115,14.9474024 7.59866115,15.0325924 Z M7.40408715,17.4704384 C7.59516319,17.3697995 8.09843211,17.0511095 8.09843211,16.588082 C8.09843211,16.2014166 7.86450607,16.0151463 7.55624839,15.8716916 C7.51908257,16.3925423 7.46180348,16.9553259 7.40408715,17.4704384 Z M111.334194,7.00834413 L115.690741,17.7702736 L113.31375,17.7702736 L112.544282,15.7058202 L108.057489,15.7058202 L107.306034,17.7702736 L104.928812,17.7702736 L109.207534,7.00834413 L111.334194,7.00834413 Z M108.783773,13.7041429 L111.791441,13.7041429 L110.270518,9.63616588 L108.783773,13.7041429 Z M67.350535,7.53015842 C68.9758325,8.32176525 69.9523162,9.9709846 69.9525413,12.3882703 C69.9525413,14.8080947 68.9758325,16.4563909 67.350535,17.2484593 C66.6591872,17.5824112 65.8001785,17.7702736 64.3425419,17.7702736 L60.535853,17.7702736 L60.535853,7.00834413 L64.3425419,7.00834413 C65.7999535,7.00834413 66.6591872,7.19689887 67.350535,7.53015842 Z M66.5160566,15.35068 C67.4680101,14.7460124 67.7963553,13.5362156 67.7963553,12.3887319 C67.7963553,11.2428637 67.4680101,10.0326053 66.5160566,9.42839928 C66.1285237,9.17799304 65.4387513,9.0106709 64.5788424,9.0106709 L62.6756105,9.0106709 L62.6756105,15.7688699 L64.5788424,15.7688699 C65.4387513,15.7688699 66.1282987,15.601317 66.5160566,15.35068 Z M79.6829843,7.00834413 L79.2568032,9.01113248 L73.4170971,9.01113248 L73.4170971,11.2424021 L78.4323033,11.2424021 L78.4323033,13.2451904 L73.4170971,13.2451904 L73.4170971,15.7693315 L79.4157295,15.7693315 L80.0418501,17.7702736 L71.2977825,17.7702736 L71.2977825,7.00834413 L79.6829843,7.00834413 Z M101.565709,7.00834413 L103.583571,7.00834413 L103.583571,17.7702736 L101.565709,17.7702736 L101.565709,7.00834413 Z M123.783594,15.7690578 L124.434809,17.7702736 L116.363362,17.7702736 L116.363362,7.00834413 L118.567384,7.00834413 L118.567384,15.7690578 L123.783594,15.7690578 Z M90.8037796,7.00834413 L90.8037796,17.7702736 L88.7931129,17.7702736 L82.9260405,10.1782333 L82.9260405,17.7702736 L80.7144707,17.7702736 L80.7144707,7.00834413 L83.1365216,7.00834413 L88.5828655,13.9119403 L88.5828655,7.00834413 L90.8037796,7.00834413 Z M36.2649934,7.36260549 C37.6331967,7.90519081 38.3393736,9.05221295 38.3393736,10.5957309 C38.3393736,12.1600198 37.6331967,13.3065804 36.2649934,13.8493965 C35.6360797,14.0991104 34.947609,14.2029655 33.3296798,14.2029655 L31.1090513,14.2029655 L31.1090513,17.7702736 L28.9226853,17.7702736 L28.9226853,7.00834413 L33.3296798,7.00834413 C34.947609,7.00834413 35.6363097,7.11196846 36.2649934,7.36260549 Z M35.3265668,11.99339 C35.9032818,11.7425222 36.1355314,11.2200155 36.1357614,10.6169635 C36.1357614,10.0116035 35.9035117,9.46901817 35.3265668,9.21907351 C35.0340703,9.09329342 34.6976532,9.00997853 33.5626193,9.00997853 L31.1090513,9.00997853 L31.1090513,12.2015619 L33.5626193,12.2015619 C34.6976532,12.2015619 35.0343002,12.1180162 35.3265668,11.99339 Z M45.9049162,13.3488148 C46.9743806,14.1623466 47.8020937,15.8731866 48.4286824,17.7702736 L45.9640705,17.7702736 C45.2450672,15.6223188 44.5762893,14.5579192 43.6492416,14.1623466 C43.3070398,14.016257 42.9393905,13.9537132 42.3956178,13.9537132 L41.1261451,13.9537132 L41.1261451,17.7702736 L39.0119942,17.7702736 L39.0119942,7.00834413 L43.9753713,7.00834413 C45.1198388,7.00834413 45.7468739,7.17566627 46.247118,7.42538014 C47.4177027,8.00950751 48.0021021,9.13598941 48.0021021,10.3462478 C48.0021021,12.0136995 47.1752818,12.9320096 45.9049162,13.3065804 L45.9049162,13.3488148 Z M45.1363573,11.7630624 C45.6209758,11.5140409 45.8636199,11.0339995 45.8636199,10.4713355 C45.8636199,9.92759624 45.6209758,9.44847794 45.1363573,9.19761012 C44.9017493,9.07321476 44.576066,9.01020932 43.9336285,9.01020932 L41.1259218,9.01020932 L41.1259218,11.9532327 L43.9336285,11.9532327 C44.576066,11.9532327 44.9017493,11.8886118 45.1363573,11.7630624 Z M100.893088,7.00834413 L100.251857,9.01113248 L97.0868332,9.01113248 L97.0868332,17.7702736 L94.9234195,17.7702736 L94.9234195,9.01113248 L91.4764002,9.01113248 L91.4764002,7.00834413 L100.893088,7.00834413 Z M54.4869515,17.7702736 C52.4000407,17.7702736 50.6640708,16.9379907 50.0220499,15.2114083 C49.8765099,14.8262752 49.7739236,14.3193557 49.7739236,13.3646122 L49.7739236,7.00834413 L51.9460565,7.00834413 L51.9460565,13.34394 C51.9460565,14.0135412 52.0237387,14.3591273 52.1514575,14.6435954 C52.5448952,15.5374456 53.4681716,15.9239269 54.486723,15.9239269 C55.494993,15.9239269 56.4274085,15.5376703 56.8126211,14.6435954 C56.9403398,14.359352 57.0267042,14.0135412 57.0267042,13.34394 L57.0267042,7.00834413 L59.1906119,7.00834413 L59.1906119,13.3646122 C59.1906119,14.3193557 59.0882541,14.8262752 58.9424856,15.2114083 C58.3004647,16.9379907 56.5731769,17.7702736 54.4869515,17.7702736 Z" id="Combined-Shape"></path>
                </g>
            </g>
        </g>
    </g>
</svg>