<svg xmlns="http://www.w3.org/2000/svg" width="36" height="36" viewBox="0 0 36 36"><g transform="translate(4553 -802)"><g transform="translate(-6267 472)"><rect width="36" height="36" rx="3" transform="translate(1750 366) rotate(180)" fill="#d1e3fe"/></g><g transform="translate(-5203 589)"><g transform="translate(657 48)"><g transform="translate(3 175)"><path d="M13,0H7V6L5,5,3,6V0A2.946,2.946,0,0,0,0,3V13a2.946,2.946,0,0,0,3,3H13a2.946,2.946,0,0,0,3-3V3A2.946,2.946,0,0,0,13,0Zm1,13a.945.945,0,0,1-1,1H3a1,1,0,0,1,0-2H13a1.6,1.6,0,0,0,1-.2Z" fill="#0265ff"/></g></g></g></g></svg>