<svg xmlns="http://www.w3.org/2000/svg" width="36" height="36" viewBox="0 0 36 36"><g transform="translate(4060 -802)"><rect width="36" height="36" rx="3" transform="translate(-4024 838) rotate(180)" fill="#d1e3fe"/><g transform="translate(-4840.689 353.922)"><path d="M862.3,712.3h-7.388a1.829,1.829,0,0,0-1.824,1.824v5.014s0,.006,0,.009c.01,4.988,2.476,9.026,5.518,9.026s5.508-4.038,5.518-9.026c0,0,0-.006,0-.009v-5.014A1.829,1.829,0,0,0,862.3,712.3Z" transform="translate(-60.349 -247.712)" fill="#0265ff"/><path d="M4845.318-341.789a3.945,3.945,0,0,1-3.566-2.279.786.786,0,0,1-.252.041.813.813,0,0,1-.811-.811v-1.929a.813.813,0,0,1,.811-.811.785.785,0,0,1,.252.041,3.945,3.945,0,0,1,3.566-2.279h1.615a.383.383,0,0,1,.075-.176l.344-.435a.2.2,0,0,1,.155-.084h.728v-1.73a.406.406,0,0,1,.4-.406.406.406,0,0,1,.406.406v1.73h.751a.2.2,0,0,1,.161.091l.321.435a.391.391,0,0,1,.068.168h1.615a3.945,3.945,0,0,1,3.566,2.279.787.787,0,0,1,.252-.041.813.813,0,0,1,.811.811v1.929a.813.813,0,0,1-.811.811.788.788,0,0,1-.252-.041,3.945,3.945,0,0,1-3.566,2.279Zm-2.467-4.014a2.786,2.786,0,0,0,2.778,2.779h6.02a2.787,2.787,0,0,0,2.779-2.779,2.787,2.787,0,0,0-2.779-2.778h-6.02A2.786,2.786,0,0,0,4842.851-345.8Zm5.206-7.537a.583.583,0,0,1,.582-.583.583.583,0,0,1,.583.583.583.583,0,0,1-.583.583A.583.583,0,0,1,4848.057-353.34Z" transform="translate(-4050.384 806)" fill="#0265ff" stroke="rgba(0,0,0,0)" stroke-width="1"/><circle cx="0.612" cy="0.612" r="0.612" transform="translate(795.636 458.756)" fill="#0265ff"/><circle cx="0.612" cy="0.612" r="0.612" transform="translate(799.649 458.756)" fill="#0265ff"/><path d="M947.6,638.946a1.094,1.094,0,0,1-2.158,0" transform="translate(-148.264 -177.887)" fill="#0265ff"/><path d="M.772,0h0a2,2,0,0,1,2,2V6.721A1.386,1.386,0,0,1,1.386,8.107h0A1.386,1.386,0,0,1,0,6.721V.772A.772.772,0,0,1,.772,0Z" transform="translate(789.689 465.858)" fill="#0265ff"/><path d="M2,0H2a.772.772,0,0,1,.772.772V6.721A1.386,1.386,0,0,1,1.386,8.107h0A1.386,1.386,0,0,1,0,6.721V2A2,2,0,0,1,2,0Z" transform="translate(806.86 473.966) rotate(-180)" fill="#0265ff"/></g></g></svg>