<svg xmlns="http://www.w3.org/2000/svg" width="36" height="36" viewBox="0 0 36 36"><g transform="translate(-14094 -12160.36)"><rect width="36" height="36" rx="3" transform="translate(14130 12196.36) rotate(180)" fill="#d1e3fe"/><g transform="translate(13522 11257.361)"><g transform="translate(582 913)"><g transform="translate(0 0)"><path d="M0,1V15.047a.948.948,0,0,0,1,1H15.047a.948.948,0,0,0,1-1V1a.948.948,0,0,0-1-1H1A.948.948,0,0,0,0,1ZM13.041,8.025,11.235,6.219,6.721,10.733l-1.4-1.4L9.831,4.815,8.025,3.009h5.016Z" transform="translate(0 0)" fill="#0265ff"/></g></g></g></g></svg>