<svg xmlns="http://www.w3.org/2000/svg" width="36" height="36" viewBox="0 0 36 36"><g transform="translate(4553 -726)"><rect width="36" height="36" rx="3" transform="translate(-4517 762) rotate(180)" fill="#136efb" opacity="0.19"/><g transform="translate(-19615.738 -11874.134)"><path d="M28.659,0h0a.848.848,0,0,0-.606.253A.865.865,0,0,0,27.8.859V13.737a.858.858,0,0,0,.859.859c2,0,5.343.424,7.656,2.838V3.959a.78.78,0,0,0-.121-.434C34.315.465,30.669,0,28.659,0Zm0,0" transform="translate(15043.938 12610.134)" fill="#0265ff"/><path d="M133.825,13.737V.859A.862.862,0,0,0,132.966,0h0c-2,0-5.646.465-7.545,3.525a.78.78,0,0,0-.121.434V17.434c2.313-2.414,5.656-2.838,7.656-2.838a.86.86,0,0,0,.869-.859Zm0,0" transform="translate(14956.286 12610.134)" fill="#0265ff"/></g></g></svg>