<svg xmlns="http://www.w3.org/2000/svg" width="50" height="50" viewBox="0 0 50 50">
    <g fill="none" fill-rule="evenodd">
        <rect width="50" height="50" fill="#00BEF2" rx="4"/>
        <g fill-rule="nonzero">
            <path fill="#FFF" d="M24.87 10.003c.031 0 .063.04.11.112.04.063 3.387 4.077 7.44 8.918 4.054 4.84 7.36 8.823 7.345 8.847-.008.024-3.235 2.67-7.17 5.874-3.934 3.203-7.28 5.93-7.432 6.057-.262.214-.278.222-.373.127-.056-.056-3.41-2.798-7.456-6.097-4.046-3.298-7.344-6.017-7.329-6.057.016-.04 3.339-4.006 7.4-8.822 4.062-4.817 7.385-8.8 7.4-8.863.017-.064.04-.096.064-.096z"/>
            <path fill="#00BEF2" d="M24.32 35.224c-.46-.167-1.017-.644-1.247-1.089-.286-.548-.262-1.407.056-2.09.246-.509.246-.525.087-.644-.087-.064-1.145-.652-2.337-1.296a849.572 849.572 0 0 1-2.305-1.247c-.095-.056-.254 0-.54.182-.93.589-1.9.525-2.663-.182-.549-.51-.708-.867-.708-1.598 0-.708.143-1.073.596-1.526.613-.612 1.431-.819 2.218-.557.43.143.437.143.708-.063.317-.239 2.869-2.568 4.101-3.736l.85-.81-.254-.533c-.516-1.073-.254-2.266.652-2.981.493-.39.858-.509 1.566-.509 1.653 0 2.806 1.733 2.186 3.283-.167.43-.167.437-.008.7.135.23 2.432 3.004 3.648 4.419.215.246.453.445.533.445.08 0 .35-.08.604-.175 1.184-.469 2.432.056 2.925 1.232.318.755.04 1.773-.636 2.385-.477.429-.827.564-1.463.564-.445 0-.612-.048-1.08-.302-.35-.19-.62-.286-.732-.254-.19.047-3.124 2.058-3.775 2.583-.398.326-.43.445-.223.93.199.477.175 1.224-.048 1.693-.246.517-.858 1.033-1.39 1.192-.541.151-.867.151-1.32-.016zm.136-8.759v-4.53l-.254-.35c-.143-.191-.279-.35-.302-.35-.104 0-5.239 4.666-5.239 4.761 0 .024.08.262.175.517.096.262.167.636.16.85-.009.215-.009.453-.009.533.008.183 1.725 1.28 4.3 2.766.708.413.954.516 1.042.445.103-.087.127-.97.127-4.642zm2.178 4.006c3.402-2.138 4.038-2.567 4.078-2.726.023-.096.055-.47.063-.843l.024-.668-1.733-2.058c-1.86-2.202-2.543-2.95-2.702-2.95-.056 0-.334.16-.62.35l-.525.35.024 4.523c.024 4.054.056 4.737.207 4.737.015.008.556-.317 1.184-.715z"/>
        </g>
    </g>
</svg>
