<svg xmlns="http://www.w3.org/2000/svg" width="50" height="50" viewBox="0 0 50 50">
    <g fill="none" fill-rule="evenodd">
        <rect width="50" height="50" fill="#25C16F" rx="4"/>
        <path fill="#FFF" fill-rule="nonzero" d="M24.949 10h11.267A3.75 3.75 0 0 1 40 13.784v11.267C40 33.307 33.307 40 25.05 40h-.085A14.949 14.949 0 0 1 10 25.051c0-8.284 6.682-14.965 14.949-15.05zm.238 6.47a6.87 6.87 0 0 0-6.87 6.868v4.67a2.335 2.335 0 0 0 2.284 2.285h1.944v-5.37H19.92v-1.5a5.335 5.335 0 0 1 10.653 0v1.5h-2.66v5.37h1.756v.085a2.148 2.148 0 0 1-2.113 2.114h-2.097c-.17 0-.358.085-.358.255.009.194.164.35.358.358h2.114a2.744 2.744 0 0 0 2.727-2.727v-.17a2.25 2.25 0 0 0 1.756-2.216v-4.568c.085-3.87-2.983-6.955-6.87-6.955z"/>
    </g>
</svg>
