<svg xmlns="http://www.w3.org/2000/svg" width="50" height="50" viewBox="0 0 50 50">
    <g fill="none" fill-rule="evenodd">
        <rect width="50" height="50" fill="#08C7FB" rx="4"/>
        <path fill="#FFF" fill-rule="nonzero" d="M24.978 10h11.244a3.747 3.747 0 0 1 2.68 1.1A3.758 3.758 0 0 1 40 13.783v11.261a14.955 14.955 0 0 1-4.37 10.58A14.91 14.91 0 0 1 25.065 40h-.088C16.706 40 10 33.284 10 25c0-8.284 6.706-15 14.978-15zm-.125 22.827a.433.433 0 0 0 .614-.087l4.744-6.599 1.054-1.495a.655.655 0 0 0-.087-.792c-.088-.088-.176-.088-.352-.088h-7.115l1.756-5.279a.394.394 0 0 0-.702-.351l-4.744 6.598-1.142 1.407a.655.655 0 0 0 .088.792c.088.088.175.088.351.088h7.116L24.677 32.3a.423.423 0 0 0 .176.527z"/>
    </g>
</svg>
