<svg xmlns="http://www.w3.org/2000/svg" width="50" height="50" viewBox="0 0 50 50">
    <g fill="none" fill-rule="evenodd">
        <rect width="50" height="50" fill="#F8761F" rx="4"/>
        <path fill="#FFF" fill-rule="nonzero" d="M38.02 24.25c-.665-1.143-1.6-2.06-2.768-2.75a7.437 7.437 0 0 0-2.8-.969v-3.633a2.682 2.682 0 0 0 1.654-2.51 2.749 2.749 0 0 0-2.746-2.76 2.767 2.767 0 0 0-2.77 2.76c0 1.118.597 2.077 1.618 2.51v3.635c-.848.122-1.67.38-2.436.763-1.579-1.199-6.757-5.133-9.785-7.43.071-.26.127-.527.127-.808a3.057 3.057 0 1 0-3.056 3.058c.576 0 1.11-.169 1.57-.446l.638.485 8.783 6.328a7.37 7.37 0 0 0-1.242 1.455c-.702 1.11-1.13 2.33-1.13 3.661v.278c0 .934.178 1.816.48 2.645a6.939 6.939 0 0 0 1.138 1.976l-2.915 2.923a2.347 2.347 0 0 0-2.483.545 2.347 2.347 0 0 0-.691 1.671 2.347 2.347 0 0 0 .692 1.67A2.347 2.347 0 0 0 21.57 40a2.35 2.35 0 0 0 1.672-.693 2.35 2.35 0 0 0 .692-1.67c0-.245-.038-.483-.11-.71l3.014-3.013c.42.288.87.533 1.338.733a7.83 7.83 0 0 0 3.133.658h.21a7.384 7.384 0 0 0 3.574-.904 7.399 7.399 0 0 0 2.802-2.638c.702-1.123 1.088-2.364 1.088-3.728v-.068c0-1.343-.31-2.582-.964-3.717zm-3.682 6.321c-.818.909-1.758 1.469-2.82 1.469h-.175c-.607 0-1.2-.168-1.782-.473-.655-.336-1.153-.815-1.56-1.422-.422-.596-.65-1.245-.65-1.935V28c0-.677.13-1.32.457-1.927a4.177 4.177 0 0 1 1.453-1.589 3.555 3.555 0 0 1 2.013-.608h.069c.666 0 1.297.132 1.893.437a4.006 4.006 0 0 1 1.486 1.353c.37.571.598 1.223.667 1.9.011.142.017.288.017.428 0 .931-.356 1.794-1.068 2.577z"/>
    </g>
</svg>
