<svg xmlns="http://www.w3.org/2000/svg" width="50" height="50" viewBox="0 0 50 50">
    <g fill="none" fill-rule="evenodd">
        <rect width="50" height="50" fill="#00B900" rx="4"/>
        <path fill="#FFF" fill-rule="nonzero" d="M40.579 22.775c0 2.82-1.096 5.359-3.385 7.86h.001c-3.312 3.802-10.72 8.433-12.406 9.14-1.684.709-1.436-.45-1.367-.848l.225-1.348c.053-.401.108-1.025-.05-1.423-.178-.438-.878-.666-1.392-.776C14.617 34.38 9 29.09 9 22.776 9 15.73 16.084 10 24.79 10s15.789 5.731 15.789 12.775zM21.58 19.371h-1.107a.307.307 0 0 0-.308.306v6.86c0 .169.138.306.308.306h1.107c.17 0 .308-.137.308-.306v-6.86a.307.307 0 0 0-.308-.306zm7.624 0h-1.108a.307.307 0 0 0-.308.306v4.076l-3.152-4.245a.34.34 0 0 0-.024-.032l-.002-.002a.276.276 0 0 0-.019-.018l-.006-.006a.177.177 0 0 0-.016-.013l-.008-.006-.016-.011a.058.058 0 0 0-.01-.006c-.005-.003-.01-.007-.016-.009l-.01-.005a.17.17 0 0 0-.017-.007l-.01-.004-.018-.006-.011-.002-.017-.004a.19.19 0 0 0-.013-.002l-.017-.002-.015-.001h-1.119a.307.307 0 0 0-.308.305v6.86c0 .169.139.306.308.306h1.108c.17 0 .307-.137.307-.306v-4.074l3.157 4.25c.022.031.05.058.08.078l.02.012.009.004a.13.13 0 0 0 .014.008l.015.006.01.003a.338.338 0 0 0 .02.007l.005.001c.025.007.051.01.079.01h1.107c.17 0 .308-.136.308-.305v-6.86a.307.307 0 0 0-.308-.306zM18.91 25.126h-3.009v-5.448a.307.307 0 0 0-.307-.307h-1.108a.307.307 0 0 0-.308.307v6.859c0 .083.033.157.086.212l.004.004.005.004c.055.054.13.086.212.086h4.426c.17 0 .307-.138.307-.307v-1.104a.307.307 0 0 0-.307-.306zm16.41-4.037c.17 0 .306-.137.306-.307v-1.104a.307.307 0 0 0-.306-.307h-4.425a.305.305 0 0 0-.214.087l-.003.003a.304.304 0 0 0-.09.217v6.859a.309.309 0 0 0 .307.307h4.425c.17 0 .306-.139.306-.307v-1.105a.307.307 0 0 0-.306-.306h-3.01v-1.16h3.01c.17 0 .306-.137.306-.307v-1.104a.307.307 0 0 0-.306-.307h-3.01v-1.16h3.01z"/>
    </g>
</svg>
