<?xml version="1.0" encoding="UTF-8"?>
<svg width="50px" height="50px" viewBox="0 0 50 50" version="1.1" xmlns="http://www.w3.org/2000/svg" xmlns:xlink="http://www.w3.org/1999/xlink">
    <!-- Generator: Sketch 56.3 (81716) - https://sketch.com -->
    <title>apple</title>
    <desc>Created with Sketch.</desc>
    <g id="Page-1" stroke="none" stroke-width="1" fill="none" fill-rule="evenodd">
        <g id="apple">
            <rect id="Rectangle-Copy-12" fill="#000000" x="0" y="0" width="50" height="50" rx="4"></rect>
            <path d="M36.739993,33.3791082 C36.286303,34.4272247 35.7492822,35.3920103 35.1270788,36.2790206 C34.2789563,37.4882433 33.5845328,38.325255 33.0493638,38.7900558 C32.2197593,39.5529957 31.3308972,39.9437246 30.3790742,39.9659462 C29.6957615,39.9659462 28.8717123,39.7715076 27.912482,39.3770751 C26.9501037,38.9844944 26.065686,38.7900558 25.2570067,38.7900558 C24.4088842,38.7900558 23.4992821,38.9844944 22.5263485,39.3770751 C21.5519335,39.7715076 20.7669573,39.977057 20.1667902,39.9974267 C19.25404,40.0363144 18.3442527,39.6344747 17.436132,38.7900558 C16.8565199,38.2845155 16.1315418,37.417875 15.2630495,36.1901344 C14.3312258,34.8790629 13.5651379,33.3587385 12.9649708,31.6254575 C12.3222125,29.7532919 12,27.9403837 12,26.1852516 C12,24.1747568 12.4344313,22.4407351 13.3045902,20.9876309 C13.9884584,19.8204439 14.8982457,18.899731 16.036915,18.2238255 C17.1755843,17.54792 18.4059175,17.203486 19.7308775,17.1814496 C20.4558555,17.1814496 21.4065676,17.4057021 22.5880133,17.8464295 C23.7661259,18.2886384 24.5225845,18.5128909 24.8542411,18.5128909 C25.1021966,18.5128909 25.9425416,18.2506766 27.3671281,17.7279146 C28.7143097,17.2431144 29.8513123,17.0423797 30.7827657,17.1214514 C33.3067634,17.325149 35.2030024,18.3201189 36.4640754,20.1126573 C34.2067362,21.4803938 33.0901033,23.3960766 33.1123249,25.8535949 C33.1326946,27.7677963 33.8271181,29.3607111 35.1918917,30.6254877 C35.8103915,31.212507 36.5011113,31.666197 37.2696066,31.9884095 C37.102945,32.4717282 36.9270244,32.9346772 36.739993,33.3791082 L36.739993,33.3791082 Z M30.9512791,10.600167 C30.9512791,12.1005106 30.4031475,13.5013757 29.3105879,14.7980031 C27.9921093,16.339438 26.3973426,17.2301519 24.6679505,17.0896005 C24.6459141,16.909606 24.6331367,16.7201673 24.6331367,16.5210992 C24.6331367,15.0807724 25.2601548,13.5393375 26.3736397,12.2790052 C26.9295488,11.6408763 27.6365644,11.1102813 28.4939459,10.6870163 C29.3494756,10.2700659 30.1587104,10.0394803 30.9197985,10 C30.9420201,10.200568 30.9512791,10.4011545 30.9512791,10.6001485 L30.9512791,10.600167 Z" id="Shape" fill="#FFFFFF" fill-rule="nonzero"></path>
        </g>
    </g>
</svg>