<svg xmlns="http://www.w3.org/2000/svg" width="50" height="50" viewBox="0 0 50 50">
    <g fill="none" fill-rule="evenodd">
        <rect width="50" height="50" fill="#006BB6" rx="4"/>
        <path fill="#FFF" fill-rule="nonzero" d="M33.03 15.172c.567 0 .677.275.677.754v20.177c0 .28-.994.073-1.46 0-6.994-1.271-13.778-.712-20.3 2.234-.448.204-.879.424-1.323.662-.042 0-.063.055-.072.14l.393-.166a37.076 37.076 0 0 1 14.63-3.098c2.648-.008 5.288.317 7.857.966.613.161.871-.038.871-.644v-9.614a.984.984 0 0 1 .347-.801c1.967-1.819 3.954-3.701 5.959-5.613.288.038.385.284.385.687v18.465a.594.594 0 0 1-.846.619 43.645 43.645 0 0 0-8.387-1.988c-1.755-.23-3.522-.424-5.294-.47a47.972 47.972 0 0 0-14.908 1.695c-.673.19-1.341.424-2.018.614-.156.047-.313.072-.541.12v-2.337c0-.101.127-.212.211-.296a62.171 62.171 0 0 0 8.37-11.022c2.707-4.552 4.885-9.325 6.132-14.505.072-.297.144-.602.203-.903.06-.301.11-.572.161-.848.766.038.766.038.766.73v22.254c0 .716 0 .716-.707.792a30.128 30.128 0 0 0-9.215 2.438 21.367 21.367 0 0 0-4.369 2.543l.334-.182a29.982 29.982 0 0 1 11.5-4.048c.824-.11 1.645-.178 2.478-.25.494-.047.57-.12.57-.615v-6.265c-.007-.306.11-.602.326-.818a37.394 37.394 0 0 0 7.148-11.153c.046-.098.093-.187.122-.254z"/>
    </g>
</svg>
