<?xml version="1.0" encoding="UTF-8"?>
<svg width="50px" height="50px" viewBox="0 0 50 50" version="1.1" xmlns="http://www.w3.org/2000/svg" xmlns:xlink="http://www.w3.org/1999/xlink">
    <!-- Generator: Sketch 56.3 (81716) - https://sketch.com -->
    <title>okta</title>
    <desc>Created with Sketch.</desc>
    <g id="Page-1" stroke="none" stroke-width="1" fill="none" fill-rule="evenodd">
        <g id="okta">
            <g id="Group-9-Copy" fill="#027DC1">
                <g id="Group-5">
                    <rect id="Rectangle-Copy-38" x="0" y="0" width="50" height="50" rx="4"></rect>
                </g>
            </g>
            <path d="M38.0164776,28.9234998 C39.400069,28.9243782 40.5255938,27.815392 40.5190721,26.4342349 C40.5121672,24.9887306 39.3570789,23.933501 38.0261649,23.9307348 C36.6899304,23.9279546 35.5279405,24.971916 35.5194872,26.418374 C35.5107746,27.9195422 36.7535499,28.9487468 38.0164776,28.9234998 Z M43.0675863,24.5280103 C43.0675863,25.3685902 43.0617389,26.2092203 43.0705226,27.0496747 C43.0739106,27.3749496 43.1094723,27.6993461 43.1926168,28.0171171 C43.3211356,28.5081288 43.6519818,28.7527939 44.1387773,28.8202029 C44.2885027,28.8409326 44.438228,28.8464036 44.5887815,28.8484364 C44.8602998,28.8521256 44.9979035,28.9913606 44.9982047,29.2613731 C44.9988321,29.8133942 44.9955193,30.3654404 44.999981,30.9174365 C45.0014923,31.1085709 44.9130274,31.232999 44.7517326,31.3174234 C44.5891077,31.4024752 44.4108729,31.4390407 44.2322114,31.449531 C43.6965531,31.4810521 43.1629779,31.4813282 42.643281,31.3097439 C42.1134702,31.1347967 41.6827903,30.8264368 41.3560348,30.3759056 C41.2927918,30.2886705 41.2518093,30.2876164 41.1699698,30.3535196 C40.3974765,30.9756602 39.5182732,31.3436241 38.5293734,31.4385388 C37.1524075,31.5706966 35.9148271,31.2091574 34.8420049,30.3393652 C33.8104662,29.5030266 33.1955785,28.4138415 33.0226641,27.0946977 C32.8315799,25.6372224 33.2160823,24.3299995 34.1517777,23.2012122 C34.9783789,22.2040556 36.0502726,21.6192586 37.3354107,21.4404214 C38.3948064,21.293005 39.3993914,21.477012 40.3489651,21.9672959 C40.4734685,22.031618 40.4739454,22.0307397 40.4766307,21.8840008 C40.4819009,21.5972239 40.6634736,21.4160779 40.9519822,21.415325 C41.5040033,21.4139196 42.0560244,21.4140701 42.6080456,21.415325 C42.8438516,21.4158771 43.0036657,21.5501681 43.0440459,21.7820089 C43.0568953,21.855667 43.0623663,21.9314833 43.0624667,22.0062707 C43.0637215,22.8468505 43.0632697,23.6874304 43.0632697,24.5280103 L43.0675863,24.5280103 Z M16.3076724,24.7191121 C16.3076724,22.649058 16.3076724,20.5789537 16.3076724,18.5088745 C16.3076724,18.1631461 16.4671602,18.0038841 16.8144697,18.003583 C17.3414195,18.0032245 17.8683693,18.0030058 18.395294,18.0036583 C18.7111577,18.0040849 18.8769196,18.1680901 18.8769698,18.4803148 C18.877271,20.299505 18.8769698,22.11867 18.8776474,23.9378602 C18.8776976,24.0128483 18.8839466,24.0880122 18.8903713,24.1628246 C18.9062825,24.3483876 19.0023265,24.4783621 19.1786289,24.5348039 C19.3562866,24.5916976 19.5176566,24.5529989 19.6483589,24.4131866 C19.905271,24.1383556 20.1627353,23.8641018 20.4183927,23.5881414 C20.7903971,23.1864981 21.1603185,22.7829224 21.5324484,22.3813544 C21.7824089,22.1115678 22.0360585,21.8451189 22.2852159,21.5745794 C22.3886885,21.4622478 22.5119872,21.4133599 22.6638959,21.4138869 C23.3622795,21.416246 24.0606881,21.4158696 24.7590716,21.4142634 C24.9481481,21.4138367 25.0944352,21.4835546 25.1751202,21.658803 C25.2579886,21.8387444 25.2379115,22.0081203 25.1023155,22.1590251 C24.6749734,22.6346276 24.2484847,23.1110081 23.8208415,23.5863345 C23.2030928,24.2729478 22.5831356,24.9575784 21.9676205,25.6461743 C21.8350863,25.7944692 21.7232064,25.959428 21.761102,26.1763867 C21.7974667,26.3845114 21.9307037,26.5389799 22.0687842,26.6836357 C22.4469373,27.0798331 22.8320671,27.4693799 23.2146622,27.861336 C23.9126191,28.5764087 24.6109775,29.291155 25.3087587,30.0064284 C25.5160051,30.2188697 25.7198885,30.4345987 25.9291174,30.6450825 C26.0780899,30.7949583 26.1179932,30.9679982 26.0457155,31.1621442 C25.9736887,31.3556628 25.8353572,31.4365235 25.6005549,31.436649 C24.8477875,31.4370506 24.09502,31.4347668 23.3422776,31.4383054 C23.1720234,31.4391336 23.0400915,31.3844735 22.9213351,31.2588408 C21.8731325,30.1499549 20.8219433,29.0438799 19.7513797,27.9564515 C19.6871328,27.8911757 19.6366137,27.8134269 19.5575349,27.7616279 C19.2992675,27.5924277 18.9667649,27.7233809 18.8951145,28.023208 C18.878325,28.0934027 18.8770953,28.1638986 18.8770953,28.2350219 C18.8771204,29.1425089 18.8773714,30.0499959 18.8769698,30.9574828 C18.8768192,31.2455397 18.75209,31.4105236 18.4654134,31.4204367 C17.8724349,31.4409656 17.2779758,31.4524347 16.6853486,31.4136607 C16.4156874,31.3960179 16.3078481,31.2537211 16.3077979,30.9796179 C16.3076724,28.8927994 16.3076724,26.8059307 16.3076724,24.7191121 Z M26.4983196,22.5365558 C26.4983196,21.2026302 26.5039914,19.8686293 26.4941043,18.534754 C26.4918196,18.2209984 26.6549464,17.9905128 27.0312423,18.0003004 C27.5285281,18.013225 28.0263911,18.0033621 28.5240032,18.0035127 C28.8883532,18.0036131 29.0586827,18.1744445 29.0592599,18.5429856 C29.0605147,19.3249402 29.0607406,20.1068949 29.0613931,20.8888746 C29.0616942,21.2457961 29.2308693,21.414168 29.593588,21.4145947 C30.2960873,21.4154228 30.9987874,21.4244576 31.7010609,21.4106294 C32.0293975,21.4041545 32.163563,21.6298468 32.1685572,21.8535564 C32.1810302,22.4094423 32.179424,22.9658553 32.1697368,23.5218417 C32.1652947,23.7765454 31.9829942,23.9322687 31.7240492,23.9326452 C31.0131677,23.933649 30.3022862,23.932068 29.5914046,23.9323691 C29.2363905,23.9325197 29.0628236,24.1076928 29.0624973,24.4655679 C29.061895,25.1471619 29.0645301,25.8288061 29.0614684,26.5104001 C29.0562985,27.6693784 29.9570094,28.7339189 31.1031133,28.9186788 C31.3774424,28.9628736 31.6525997,28.9629991 31.9275311,28.927312 C32.1788719,28.8947117 32.3856665,29.0504602 32.4184424,29.314826 C32.4595253,29.6462746 32.490168,29.9790031 32.5257548,30.3111292 C32.5470867,30.51042 32.5652816,30.7101374 32.5920595,30.9087004 C32.6324146,31.2077244 32.4646449,31.4201155 32.1658719,31.4607717 C31.1693177,31.596443 30.2162054,31.4312583 29.3280427,30.981731 C27.8047143,30.2106682 26.8818432,28.9711805 26.5719525,27.2859551 C26.5120975,26.9605548 26.4974161,26.6308128 26.4977674,26.3000167 C26.4990976,25.0455465 26.4983196,23.7910511 26.4983196,22.5365558 Z M7.54506914,26.4258176 C7.54286396,27.8032353 8.64507416,28.9055709 10.0097429,28.9276056 C11.3469058,28.9491634 12.5223223,27.8706945 12.538635,26.490466 C12.5554998,25.0604462 11.453139,23.93585 10.0560458,23.9311423 C8.6659293,23.926489 7.54728094,25.0378594 7.54506914,26.4258176 Z M10.0353663,31.4627719 C7.33117556,31.4832757 4.96488317,29.2847027 5.00039462,26.3651595 C5.03467635,23.5484364 7.31456172,21.3937069 10.0411887,21.3919491 C12.8383115,21.3901432 15.1180212,23.6705556 15.0824596,26.5020355 C15.0475504,29.2807626 12.7466844,31.4920092 10.0353663,31.4627719 Z" id="Combined-Shape" fill="#FFFFFF"></path>
        </g>
    </g>
</svg>