<svg xmlns="http://www.w3.org/2000/svg" width="50" height="50" viewBox="0 0 50 50">
    <g fill="none" fill-rule="evenodd">
        <rect width="50" height="50" fill="#262627" rx="4"/>
        <path fill="#FFF" fill-rule="nonzero" d="M25.007 10c8.292 0 15.006 6.715 15.006 14.993C40.013 33.285 33.3 40 25.007 40S10 33.285 10 24.993C10 16.715 16.728 10 25.007 10zm2.238 20.306h-.014v-9.708c0-.202-.067-.35-.35-.35h-5.259c-.283 0-.431.148-.431.43v2.697c0 .283.148.432.431.432h2.063v6.499c0 .283.149.431.432.431h2.696c.284 0 .432-.148.432-.431z"/>
    </g>
</svg>
