<svg xmlns="http://www.w3.org/2000/svg" width="50" height="50" viewBox="0 0 50 50">
    <g fill="none" fill-rule="evenodd">
        <rect width="50" height="50" fill="#00A1E0" rx="4"/>
        <path fill="#FFF" fill-rule="nonzero" d="M22.147 14.836c1.174-1.248 2.809-2.023 4.616-2.023 2.403 0 4.5 1.368 5.616 3.398a7.625 7.625 0 0 1 3.174-.69c4.334 0 7.847 3.618 7.847 8.08 0 4.46-3.513 8.078-7.847 8.078a7.66 7.66 0 0 1-1.546-.158c-.983 1.79-2.857 2.999-5.007 2.999-.87 0-1.728-.2-2.51-.59-.996 2.393-3.318 4.07-6.024 4.07-2.818 0-5.22-1.82-6.142-4.372-.41.089-.829.133-1.249.133C9.72 33.761 7 30.956 7 27.497c0-2.32 1.222-4.344 3.038-5.427a7.298 7.298 0 0 1-.582-2.865c0-3.98 3.166-7.205 7.07-7.205 2.292 0 4.33 1.112 5.621 2.836zm-9.892 10.647c-.023.06.008.074.016.084.068.05.137.087.207.129.37.2.72.259 1.085.259.744 0 1.206-.405 1.206-1.058v-.012c0-.604-.522-.823-1.01-.981l-.065-.021c-.369-.123-.687-.229-.687-.478v-.012c0-.213.186-.37.474-.37.321 0 .701.11.946.248 0 0 .072.047.099-.024.014-.039.138-.38.15-.417.015-.04-.01-.07-.035-.086a2.07 2.07 0 0 0-1.067-.293H13.5c-.681 0-1.157.422-1.157 1.025v.013c0 .636.525.843 1.017.987l.078.025c.358.112.667.21.667.467v.013c0 .236-.2.412-.524.412-.125 0-.526-.002-.959-.283-.052-.03-.082-.053-.122-.079-.022-.013-.075-.037-.098.035l-.147.417zm10.895 0c-.022.06.009.074.016.084.068.05.137.087.207.129.37.2.72.259 1.085.259.744 0 1.207-.405 1.207-1.058v-.012c0-.604-.522-.823-1.011-.981l-.064-.021c-.37-.123-.688-.229-.688-.478v-.012c0-.213.187-.37.475-.37.32 0 .7.11.945.248 0 0 .073.047.099-.024l.151-.417c.014-.04-.01-.07-.036-.086a2.07 2.07 0 0 0-1.066-.293h-.075c-.68 0-1.156.422-1.156 1.025v.013c0 .636.524.843 1.016.987l.079.025c.358.112.667.21.667.467v.013c0 .236-.201.412-.524.412-.126 0-.527-.002-.96-.283-.051-.03-.082-.052-.122-.079-.013-.008-.076-.033-.098.035l-.147.417zm7.438-1.278c0 .368-.067.66-.199.865-.131.203-.329.302-.605.302-.276 0-.473-.099-.602-.302-.13-.205-.196-.497-.196-.865s.066-.658.196-.861c.129-.202.326-.3.602-.3.276 0 .474.098.605.3.132.203.2.493.2.861zm.622-.683a1.548 1.548 0 0 0-.283-.553 1.369 1.369 0 0 0-.477-.371 1.534 1.534 0 0 0-.666-.137c-.252 0-.476.046-.666.137-.19.09-.35.215-.477.371a1.55 1.55 0 0 0-.283.553c-.06.21-.091.44-.091.683 0 .244.03.474.091.683.061.211.156.397.283.553.127.156.288.28.477.368.19.089.414.134.666.134.252 0 .476-.045.666-.134.19-.088.35-.212.477-.368a1.55 1.55 0 0 0 .283-.553c.06-.21.091-.44.091-.683 0-.243-.03-.473-.091-.683zm5.101 1.751c-.02-.062-.08-.038-.08-.038-.09.035-.185.068-.288.084a2.158 2.158 0 0 1-.34.025c-.3 0-.54-.091-.71-.272-.172-.181-.269-.474-.268-.87.001-.36.086-.63.239-.837.15-.206.382-.311.689-.311.256 0 .452.03.657.096 0 0 .048.022.072-.044.054-.154.094-.264.152-.434.017-.049-.024-.07-.038-.075a2.379 2.379 0 0 0-.88-.14c-.262 0-.494.046-.693.137-.199.09-.367.216-.5.371a1.578 1.578 0 0 0-.303.553 2.24 2.24 0 0 0-.101.684c0 .528.139.954.413 1.266.275.314.688.473 1.227.473.318 0 .644-.066.88-.16 0 0 .044-.023.025-.076l-.153-.432zm1.087-1.421c.03-.205.085-.375.17-.508.129-.202.325-.313.601-.313.277 0 .459.111.59.313.086.133.124.31.139.508h-1.5zm2.092-.45a1.35 1.35 0 0 0-.27-.504 1.227 1.227 0 0 0-.399-.312 1.504 1.504 0 0 0-.602-.125c-.262 0-.5.045-.694.138-.194.093-.357.22-.484.378a1.568 1.568 0 0 0-.285.56 2.473 2.473 0 0 0-.092.687c0 .248.032.479.095.687.064.21.166.394.305.547.138.154.316.275.528.359.212.084.469.127.764.126.607-.002.927-.14 1.059-.215.023-.014.045-.037.018-.103l-.138-.394c-.02-.059-.079-.038-.079-.038-.15.058-.364.16-.863.16-.326-.001-.568-.1-.72-.254-.155-.157-.231-.389-.244-.716l2.102.002s.056 0 .061-.056c.003-.023.073-.442-.062-.927zm-18.934.45c.03-.205.085-.375.17-.508.13-.202.325-.313.601-.313.277 0 .459.111.59.313.086.133.124.31.139.508h-1.5zm2.092-.45a1.35 1.35 0 0 0-.27-.504 1.226 1.226 0 0 0-.399-.312 1.505 1.505 0 0 0-.602-.125c-.262 0-.5.045-.694.138a1.39 1.39 0 0 0-.485.378 1.577 1.577 0 0 0-.284.56 2.478 2.478 0 0 0-.092.687c0 .248.031.479.095.687.064.21.166.394.304.547.139.154.317.275.53.359.211.084.468.127.763.126.607-.002.927-.14 1.059-.215.023-.014.045-.037.018-.103l-.138-.394c-.021-.059-.08-.038-.08-.038-.15.058-.363.16-.862.16-.326-.001-.568-.1-.72-.254-.155-.157-.231-.389-.244-.716l2.102.002s.056 0 .061-.056c.003-.023.073-.442-.062-.927zm-6.637 1.86a.416.416 0 0 1-.122-.128.525.525 0 0 1-.063-.28c0-.19.062-.326.188-.417-.001 0 .181-.161.61-.156.191.004.382.02.57.05v.979h.001s-.267.059-.568.077c-.428.027-.618-.126-.616-.125zm.836-1.514a4.569 4.569 0 0 0-.328-.01c-.18 0-.354.024-.518.069a1.345 1.345 0 0 0-.439.208 1.035 1.035 0 0 0-.305.355 1.058 1.058 0 0 0-.112.497c0 .19.032.356.096.491.062.134.157.25.274.337.117.087.261.151.429.19.165.039.352.058.556.058.216 0 .431-.018.64-.054.176-.031.353-.067.529-.106.07-.016.147-.038.147-.038.052-.013.048-.07.048-.07v-1.97c0-.431-.113-.75-.335-.95-.22-.197-.546-.297-.966-.297-.158 0-.411.022-.564.053 0 0-.459.091-.648.243 0 0-.041.026-.019.085l.15.41c.018.053.068.035.068.035s.016-.007.035-.018c.404-.225.916-.219.916-.219.227 0 .402.047.52.14.115.09.173.226.173.513v.09c-.18-.026-.347-.042-.347-.042zM33.81 22.64a.06.06 0 0 0 0-.045.058.058 0 0 0-.032-.032 1.812 1.812 0 0 0-.352-.062 1.02 1.02 0 0 0-.542.09.95.95 0 0 0-.356.268v-.262c0-.036-.025-.066-.06-.066h-.54c-.034 0-.06.03-.06.066v3.211c0 .036.029.066.064.066h.553c.035 0 .063-.03.063-.066v-1.604c0-.216.024-.43.07-.565a.81.81 0 0 1 .184-.317.635.635 0 0 1 .26-.16 1.002 1.002 0 0 1 .513-.012c.04.005.063-.02.077-.058.036-.098.138-.393.158-.452zm-5.186-1.488a1.592 1.592 0 0 0-.494-.073c-.38 0-.68.11-.89.327-.21.216-.352.544-.423.976l-.026.146h-.477s-.058-.002-.07.063l-.079.448c-.006.043.012.07.068.069h.465l-.471 2.695a3.45 3.45 0 0 1-.126.53 1.1 1.1 0 0 1-.147.306.391.391 0 0 1-.192.153.763.763 0 0 1-.248.036.936.936 0 0 1-.168-.019c-.05-.01-.076-.021-.114-.038 0 0-.054-.02-.076.035a40.72 40.72 0 0 0-.156.438c-.015.042.006.076.032.086.062.022.108.037.193.057.117.028.215.03.308.03.193 0 .37-.028.516-.082a.967.967 0 0 0 .388-.278c.123-.138.2-.283.274-.481a4.19 4.19 0 0 0 .184-.723l.474-2.745h.693s.058.002.07-.063l.079-.447c.005-.043-.013-.07-.069-.07h-.672c.003-.015.034-.257.111-.485a.626.626 0 0 1 .147-.23.435.435 0 0 1 .177-.112.715.715 0 0 1 .225-.033c.064 0 .126.007.173.017.065.015.09.022.108.027.068.022.077.001.09-.033l.161-.452c.017-.049-.023-.07-.038-.075zm-9.395 4.656v-4.595c0-.036-.025-.065-.06-.065h-.558c-.035 0-.06.03-.06.065v4.595c0 .036.025.066.06.066h.558c.035 0 .06-.03.06-.066z"/>
    </g>
</svg>
