<svg xmlns="http://www.w3.org/2000/svg" width="50" height="50" viewBox="0 0 50 50">
    <g fill="none" fill-rule="evenodd">
        <rect width="50" height="50" fill="#95BF47" rx="4"/>
        <g fill-rule="nonzero">
            <path fill="#FFF" d="M35.204 15.825c.018.157 3.28 22.087 3.262 22.122l-9.31 2L12 36.755s2.204-16.965 2.292-17.56c.106-.79.124-.808.97-1.071.124-.053 1.199-.369 2.715-.842C18.56 14.824 20.43 10 24.307 10c.494 0 1.094.28 1.553.877h.158c1.675 0 2.61 1.421 3.156 2.982.547-.175.882-.28.9-.28.14-.035.476-.088.652.088.194.157 1.799 1.754 1.799 1.754s2.31.175 2.415.175c.106 0 .247.07.265.228zm-6.982-1.72c-.37-1.123-.917-2.087-1.799-2.193.23.614.353 1.386.353 2.334v.316c.478-.164.96-.316 1.446-.457zm-2.874-2c-.917.404-2.028 1.492-2.61 3.702 1.04-.333 2.045-.632 2.998-.93v-.175c0-1.158-.16-2-.388-2.597zm-1.129-1.087c-2.785 0-4.372 3.649-5.007 5.894.758-.245 1.551-.473 2.38-.736.547-2.948 1.87-4.404 3.12-4.983a.847.847 0 0 0-.493-.176zm1.799 9.666s-.776-.456-2.292-.439c-4.073 0-6.084 2.702-6.084 5.492 0 3.333 3.315 3.421 3.315 5.439 0 .49-.352 1.158-1.216 1.158-1.305 0-2.857-1.334-2.857-1.334l-.793 2.597s1.481 1.824 4.443 1.824c2.45 0 4.267-1.842 4.267-4.702 0-3.631-4.055-4.228-4.055-5.771 0-.281.088-1.422 1.904-1.422 1.217 0 2.24.544 2.24.544l1.128-3.386z"/>
            <path fill="#E6E6E6" d="M34.94 15.561c-.106 0-2.416-.175-2.416-.175s-1.605-1.597-1.798-1.754a.342.342 0 0 0-.23-.106L29.21 39.948l9.31-2s-3.262-21.966-3.28-22.123a.478.478 0 0 0-.3-.264z"/>
        </g>
    </g>
</svg>
