<?xml version="1.0" encoding="UTF-8"?>
<svg width="50px" height="50px" viewBox="0 0 50 50" version="1.1" xmlns="http://www.w3.org/2000/svg" xmlns:xlink="http://www.w3.org/1999/xlink">
    <!-- Generator: Sketch 57.1 (83088) - https://sketch.com -->
    <title>skype</title>
    <desc>Created with Sketch.</desc>
    <g id="Page-1" stroke="none" stroke-width="1" fill="none" fill-rule="evenodd">
        <g id="skype">
            <rect id="Rectangle-Copy-12" fill="#0078D7" x="0" y="0" width="50" height="50" rx="4"></rect>
            <path d="M24.9783097,34.0286336 C19.9947846,34.0286336 17.7178698,31.4899498 17.7178698,29.6279191 C17.7171982,29.183716 17.8995065,28.7588449 18.2219036,28.4532686 C18.5443006,28.1476923 18.9783221,27.98839 19.4218521,28.012842 C21.5555318,28.012842 20.9974165,31.2133617 24.9783097,31.2133617 C27.013208,31.2133617 28.2084638,29.9884714 28.2084638,28.8376673 C28.2084638,28.146197 27.8133379,27.3559453 26.4699099,27.0398446 L22.0247438,25.9186749 C18.4537936,25.0098854 17.8314704,23.0243778 17.8314704,21.1821034 C17.8314704,17.3592605 21.3283344,15.9763199 24.65727,15.9763199 C27.7244346,15.9763199 31.3694708,17.6704221 31.3694708,19.9621522 C31.3694708,20.9499669 30.5446456,21.4784478 29.5864653,21.4784478 C27.7639472,21.4784478 28.0701697,18.9200077 24.4053772,18.9200077 C22.5828591,18.9200077 21.6246788,19.7744674 21.6246788,20.9697232 C21.6246788,22.164979 23.0421929,22.569983 24.2868394,22.8416321 L27.5663842,23.5824931 C31.1620297,24.3925012 32.12021,26.5014855 32.12021,28.5215666 C32.12021,31.6282438 29.7148812,34.0286336 24.9733707,34.0286336 M38.7385685,27.4547267 C38.8809345,26.6392762 38.9519965,25.8129741 38.9509486,24.98519 C38.9683821,20.8270437 37.141334,16.8751681 33.9623012,14.1948258 C30.7832684,11.5144835 26.5794704,10.3815635 22.4840776,11.1014544 C21.2253008,10.3767103 19.7976362,9.99679476 18.345134,10.0000204 C15.3637115,10.0182539 12.6155527,11.6161412 11.1248494,14.1981978 C9.63414615,16.7802543 9.62450278,19.9591736 11.0995132,22.5502268 C10.2764685,27.07261 11.7181976,31.7115604 14.9596584,34.9707449 C18.2011193,38.2299295 22.8321392,39.6969327 27.3589432,38.89856 C28.6161797,39.6226821 30.0420894,40.002584 31.4929477,39.9999868 C34.4728538,39.9807762 37.2193291,38.3835683 38.7097171,35.8030736 C40.2001051,33.222579 40.2110851,30.045461 38.7385685,27.4547267" id="Shape" fill="#FFFFFF" fill-rule="nonzero"></path>
        </g>
    </g>
</svg>