<svg xmlns="http://www.w3.org/2000/svg" width="50" height="50" viewBox="0 0 50 50">
    <g fill="none" fill-rule="evenodd">
        <rect width="50" height="50" fill="#611F69" rx="4"/>
        <g fill-rule="nonzero">
            <path fill="#E01E5A" d="M16.29 28.904a3.145 3.145 0 1 1-3.145-3.145h3.145v3.145zm1.572 0a3.145 3.145 0 1 1 6.29 0v7.863a3.145 3.145 0 0 1-6.29 0v-7.863z"/>
            <path fill="#36C5F0" d="M21.007 16.324a3.145 3.145 0 1 1 3.145-3.145v3.145h-3.145zm0 1.573a3.145 3.145 0 1 1 0 6.29h-7.862a3.145 3.145 0 1 1 0-6.29h7.862z"/>
            <path fill="#2EB67D" d="M33.587 21.042a3.145 3.145 0 1 1 3.145 3.144h-3.145v-3.144zm-1.572 0a3.145 3.145 0 0 1-6.29 0v-7.863a3.145 3.145 0 1 1 6.29 0v7.863z"/>
            <path fill="#ECB22E" d="M28.87 33.622a3.145 3.145 0 1 1-3.145 3.145V33.62h3.145zm0-1.573a3.145 3.145 0 0 1 0-6.29h7.862a3.145 3.145 0 1 1 0 6.29H28.87z"/>
        </g>
    </g>
</svg>
