<svg xmlns="http://www.w3.org/2000/svg" width="50" height="50" viewBox="0 0 50 50">
    <g fill="none" fill-rule="evenodd">
        <rect width="50" height="50" fill="#2684FF" rx="4"/>
        <path fill="#FFF" fill-rule="nonzero" d="M23.984 35.437a6.52 6.52 0 1 1 0-13.04 6.52 6.52 0 0 1 0 13.04zm-13.808-14.99a.746.746 0 0 1 .086-1.048c8.225-7.199 19.096-7.199 27.325 0 .312.267.35.735.086 1.049l-3.504 4.146a.746.746 0 0 1-1.06.079c-5.684-5.083-12.704-5.083-18.373 0a.746.746 0 0 1-1.06-.079l-3.5-4.146z"/>
    </g>
</svg>
