<svg xmlns="http://www.w3.org/2000/svg" width="50" height="50" viewBox="0 0 50 50">
    <g fill="none" fill-rule="evenodd">
        <rect width="50" height="50" fill="#F7F7F7" rx="4"/>
        <g fill-rule="nonzero">
            <path fill="#E10213" d="M26.2 20.276c-.646.269-1.754.269-2.4 0L11.892 15.71c-.646-.269-.646-.672 0-.94L23.8 10.2c.646-.268 1.754-.268 2.4 0l11.908 4.568c.646.268.646.671 0 .94L26.2 20.276z"/>
            <path fill="#383231" d="M24.308 39.037c0 .672-.554 1.03-1.2.806L11.2 35.276c-.646-.269-1.2-1.03-1.2-1.701v-16.03c0-.672.554-1.03 1.2-.806l11.908 4.567c.646.269 1.2 1.03 1.2 1.701v16.03z"/>
            <path fill="#B4B4B5" d="M25.646 39.037c0 .672.554 1.03 1.2.806l11.908-4.567c.646-.269 1.2-1.03 1.2-1.701v-16.03c0-.672-.554-1.03-1.2-.806l-11.908 4.567c-.646.269-1.2 1.03-1.2 1.701v16.03z"/>
        </g>
    </g>
</svg>
