<svg xmlns="http://www.w3.org/2000/svg" width="50" height="50" viewBox="0 0 50 50">
    <defs>
        <linearGradient id="a" x1="67.942%" x2="85.941%" y1="46.148%" y2="73.583%">
            <stop offset="0%" stop-color="#EFF7FC"/>
            <stop offset="100%" stop-color="#FFF"/>
        </linearGradient>
    </defs>
    <g fill="none" fill-rule="evenodd">
        <rect width="50" height="50" fill="#08C" rx="4"/>
        <g fill-rule="nonzero">
            <path fill="#C8DAEA" d="M21.157 35.367c-.887 0-.737-.334-1.044-1.172l-2.597-8.55L37.52 13.78"/>
            <path fill="#A9C9DD" d="M21.157 35.367a1.732 1.732 0 0 0 1.363-.682l3.634-3.531-4.534-2.728"/>
            <path fill="url(#a)" d="M11.62 16.42l10.991 8.12c1.255.682 2.155.334 2.468-1.166l4.473-21.082C30.016.452 28.87-.38 27.657.165L1.387 10.297c-1.794.716-1.787 1.718-.328 2.161l6.743 2.107L23.41 4.733c.736-.45 1.411-.204.852.287" transform="translate(10 12)"/>
        </g>
    </g>
</svg>
