<svg xmlns="http://www.w3.org/2000/svg" width="50" height="50" viewBox="0 0 50 50">
    <g fill="none" fill-rule="evenodd">
        <rect width="50" height="50" fill="#1DA1F2" rx="4"/>
        <path fill="#FFF" fill-rule="nonzero" d="M19.435 37.375c11.321 0 17.512-9.377 17.512-17.508 0-.266-.005-.531-.017-.795A12.514 12.514 0 0 0 40 15.885c-1.103.49-2.29.82-3.535.97a6.175 6.175 0 0 0 2.707-3.405 12.345 12.345 0 0 1-3.908 1.494A6.148 6.148 0 0 0 30.77 13a6.155 6.155 0 0 0-5.996 7.556 17.477 17.477 0 0 1-12.687-6.43 6.136 6.136 0 0 0-.834 3.093 6.148 6.148 0 0 0 2.74 5.123 6.11 6.11 0 0 1-2.788-.77l-.001.078a6.156 6.156 0 0 0 4.938 6.033 6.164 6.164 0 0 1-2.78.105 6.161 6.161 0 0 0 5.75 4.274 12.35 12.35 0 0 1-7.645 2.634c-.496 0-.986-.028-1.468-.085a17.426 17.426 0 0 0 9.435 2.764"/>
    </g>
</svg>
