<?xml version="1.0" encoding="UTF-8"?>
<svg width="50px" height="50px" viewBox="0 0 50 50" version="1.1" xmlns="http://www.w3.org/2000/svg" xmlns:xlink="http://www.w3.org/1999/xlink">
    <!-- Generator: Sketch 56.3 (81716) - https://sketch.com -->
    <title>ubuntu</title>
    <desc>Created with Sketch.</desc>
    <g id="Page-1" stroke="none" stroke-width="1" fill="none" fill-rule="evenodd">
        <g id="ubuntu">
            <rect id="Rectangle-Copy-40" fill="#DD4814" x="0" y="0" width="50" height="50" rx="4"></rect>
            <path d="M40.000441,25.0001765 C40.000441,33.2840612 33.2846786,40 25.0002646,40 C16.7156742,40 10,33.2840612 10,25.0001765 C10,16.7157624 16.7157624,10 25.0002646,10 C33.2847668,10 40.000441,16.7157624 40.000441,25.0001765 Z M14.8005892,22.9970719 C13.6939956,22.9970719 12.7974847,23.8936711 12.7974847,25.0001765 C12.7974847,26.1061525 13.6939956,27.0026636 14.8005892,27.0026636 C15.9065653,27.0026636 16.8030763,26.1061525 16.8030763,25.0001765 C16.8030763,23.8936711 15.9065653,22.9970719 14.8005892,22.9970719 Z M29.0996085,32.099238 C28.1417131,32.6524907 27.8132718,33.8766493 28.3666125,34.8340154 C28.9192479,35.7919107 30.1434065,36.120264 31.1013018,35.5670113 C32.059109,35.014376 32.3875503,33.7902174 31.8342976,32.8322338 C31.2816623,31.8749559 30.0567981,31.5466028 29.0996085,32.099238 Z M19.1506738,25.0001765 C19.1506738,23.0210612 20.1337049,21.2725781 21.6378854,20.2137868 L20.1737459,17.7615008 C18.4215586,18.9327418 17.1178473,20.7225005 16.5760601,22.8186516 C17.2082481,23.3345094 17.6128907,24.1198052 17.6128907,25.0000882 C17.6128907,25.879842 17.2082481,26.665138 16.5760601,27.1809956 C17.1171418,29.2777641 18.420853,31.067611 20.1737459,32.2388521 L21.6378854,29.7859487 C20.1337049,28.7277747 19.1506738,26.9793798 19.1506738,25.0001765 Z M25.0002646,19.1499682 C28.0562514,19.1499682 30.5634834,21.4930678 30.8266599,24.481232 L33.6803253,24.4391625 C33.5399175,22.2331193 32.5762012,20.2526812 31.0953927,18.796391 C30.3339096,19.084086 29.4543322,19.0400762 28.6940839,18.601831 C27.9325126,18.1623509 27.4550202,17.4209765 27.3244903,16.6161892 C26.5843505,16.4119276 25.8054046,16.3000953 25.0000882,16.3000953 C23.6156777,16.3000953 22.3067628,16.6252734 21.144606,17.2004869 L22.5361603,19.6941368 C23.2847668,19.3457631 24.1198935,19.1499682 25.0002646,19.1499682 Z M25.0002646,30.8497672 C24.1198935,30.8497672 23.2847668,30.6538842 22.5362485,30.3055988 L21.1446942,32.7991605 C22.3068511,33.3750794 23.6157659,33.7003458 25.0002646,33.7003458 C25.8055811,33.7003458 26.584527,33.5884252 27.3245784,33.3835462 C27.4551083,32.5787589 27.9327771,31.8380901 28.694172,31.3978163 C29.4549495,30.9588655 30.3339978,30.9156495 31.0954808,31.2033444 C32.5762895,29.7470543 33.5400057,27.7666161 33.6804135,25.560573 L30.8260426,25.5185035 C30.5634834,28.5074613 28.0563395,30.8497672 25.0002646,30.8497672 Z M29.0989029,17.89988 C30.0567981,18.4530445 31.281045,18.1253969 31.8336803,17.1675016 C32.386933,16.2096063 32.0592853,14.9853595 31.1013018,14.4320186 C30.1434065,13.8793833 28.9192479,14.2077366 28.3658189,15.1656319 C27.8132718,16.122998 28.1416249,17.3472448 29.0989029,17.89988 Z" id="Combined-Shape" fill="#FFFFFF" fill-rule="nonzero"></path>
        </g>
    </g>
</svg>