<svg xmlns="http://www.w3.org/2000/svg" width="50" height="50" viewBox="0 0 50 50">
    <g fill="none" fill-rule="evenodd">
        <rect width="50" height="50" fill="#7B519C" rx="4"/>
        <g fill-rule="nonzero">
            <path fill="#FFF" d="M17.743 35.185a9.549 9.549 0 0 1-1.53-.563 8.07 8.07 0 0 1-4.093-4.361 12.735 12.735 0 0 1-.813-3 26.32 26.32 0 0 1-.227-4.646c0-.685.048-1.372.103-2.053.09-1.614.461-3.2 1.097-4.686a8.126 8.126 0 0 1 1.647-2.43 7.405 7.405 0 0 1 1.83-1.302 13.409 13.409 0 0 1 3.475-1.226 25.299 25.299 0 0 1 5.798-.552c1.098 0 2.196.07 3.293.194 1.587.157 3.144.53 4.628 1.112a9.838 9.838 0 0 1 2.166 1.17 7.112 7.112 0 0 1 2.148 2.646c.467.963.806 1.982 1.01 3.033.185.912.308 1.836.365 2.766.073 1.11.073 2.223 0 3.333-.066 1.075-.142 2.147-.314 3.208a10.072 10.072 0 0 1-1.387 3.882 7.84 7.84 0 0 1-4.222 3.292 21.03 21.03 0 0 1-3.538.853c-1.84.274-3.702.37-5.56.285-.33 0-.656-.029-.985-.047a.146.146 0 0 0-.128.055l-2.422 2.743a2.722 2.722 0 0 1-.805.652 1.013 1.013 0 0 1-1.156-.176 1.306 1.306 0 0 1-.33-.647 2.122 2.122 0 0 1-.043-.366v-3.037l-.007-.132zm.812.644v2.375c.003.147.04.292.106.424a.102.102 0 0 0 .073.048.45.45 0 0 0 .366-.132c.157-.146.311-.3.454-.461.439-.488.874-.985 1.306-1.493.508-.596 1.01-1.2 1.51-1.8l.637-.753a.18.18 0 0 1 .117-.059c.319 0 .633.037.952.04.854.021 1.709-.003 2.56-.073.414-.036.827-.066 1.237-.117.468-.062.937-.139 1.405-.223.838-.15 1.665-.352 2.477-.607a6.04 6.04 0 0 0 3.56-2.876 9.234 9.234 0 0 0 1.06-3.534c.045-.34.07-.684.1-1.028.029-.344.069-.78.087-1.171.022-.45.04-.9.037-1.35 0-.618-.04-1.237-.073-1.851a10.032 10.032 0 0 0-.096-.999 23.039 23.039 0 0 0-.281-1.5 9.227 9.227 0 0 0-.933-2.51 5.078 5.078 0 0 0-1.807-1.935c-.6-.342-1.23-.625-1.885-.845a16.99 16.99 0 0 0-4.094-.838 18.431 18.431 0 0 0-1.097-.077c-.505 0-1.01-.033-1.518-.036a19.756 19.756 0 0 0-2.327.073c-.326.033-.655.051-.977.099-.432.062-.863.139-1.291.223-.966.18-1.906.478-2.8.885a6.651 6.651 0 0 0-1.898 1.273 6.717 6.717 0 0 0-1.405 2.148 10.946 10.946 0 0 0-.768 2.981 20.756 20.756 0 0 0-.128 1.508 39.264 39.264 0 0 0-.04 1.646v1.98c0 .303.021.603.058.903.048.41.11.823.183 1.23.127.735.347 1.452.655 2.132A6.454 6.454 0 0 0 16 32.017a7.035 7.035 0 0 0 2.411 1.2.154.154 0 0 1 .132.18c.005.814.008 1.625.01 2.432z"/>
            <path fill="#7B519C" d="M18.555 35.88v-2.429a.15.15 0 0 0-.132-.175 7.054 7.054 0 0 1-2.41-1.208 6.439 6.439 0 0 1-1.925-2.491 8.916 8.916 0 0 1-.655-2.137c-.073-.41-.135-.82-.183-1.233a9.364 9.364 0 0 1-.059-.903c0-.663-.021-1.321 0-1.983 0-.553 0-1.098.04-1.654.041-.556.067-1.006.129-1.507.114-1.028.372-2.034.768-2.99.326-.8.803-1.53 1.405-2.15a6.585 6.585 0 0 1 1.899-1.277 12.34 12.34 0 0 1 2.784-.89c.428-.083.86-.16 1.291-.223.322-.047.652-.065.977-.098.774-.069 1.55-.093 2.327-.073.509 0 1.013 0 1.518.04.366 0 .732.04 1.098.073a16.83 16.83 0 0 1 4.097.834c.655.224 1.286.51 1.885.856a5.089 5.089 0 0 1 1.807 1.958 9.23 9.23 0 0 1 .933 2.517c.113.493.201.998.281 1.5.052.333.077.67.096 1.002.033.618.062 1.237.073 1.859 0 .45 0 .9-.037 1.35-.018.391-.055.782-.088 1.174-.033.391-.054.688-.098 1.028a9.267 9.267 0 0 1-1.061 3.545 6.033 6.033 0 0 1-3.564 2.854c-.806.254-1.627.457-2.458.607-.469.08-.937.161-1.405.22-.41.054-.823.084-1.237.12a25.2 25.2 0 0 1-2.56.074c-.319 0-.634-.03-.952-.04a.165.165 0 0 0-.117.058c-.212.249-.424.505-.637.757-.5.6-1.002 1.204-1.51 1.8a127.37 127.37 0 0 1-1.307 1.496 6.741 6.741 0 0 1-.453.461.465.465 0 0 1-.366.136.106.106 0 0 1-.073-.051.984.984 0 0 1-.106-.425V35.88h-.015zm-1.409-16.756c.004.1.017.2.04.297.121.366.231.731.366 1.072a25.16 25.16 0 0 0 1.775 3.377 15.71 15.71 0 0 0 4.002 4.39 22.73 22.73 0 0 0 3.403 2.027c.592.305 1.203.571 1.829.797.244.092.505.13.765.114.358-.04.699-.178.984-.4.331-.25.627-.546.878-.877.215-.25.394-.53.53-.83.077-.177.11-.369.1-.56a1.098 1.098 0 0 0-.436-.754c-.392-.315-.776-.633-1.175-.937-.462-.349-.952-.66-1.463-.933a1.193 1.193 0 0 0-1.496.308c-.147.2-.304.398-.465.592a.83.83 0 0 1-.757.326 2.32 2.32 0 0 1-.286-.051 6.22 6.22 0 0 1-2.433-1.372 7.654 7.654 0 0 1-2.041-3.121 1.098 1.098 0 0 1-.077-.3.9.9 0 0 1 .366-.809c.165-.131.336-.256.501-.391.18-.13.321-.305.41-.509.146-.392.1-.83-.125-1.185a15.82 15.82 0 0 0-1.876-2.601.984.984 0 0 0-1.098-.29 2.78 2.78 0 0 0-.768.447c-.442.312-.825.7-1.13 1.145a1.884 1.884 0 0 0-.323 1.028zm7.884-3.5h-.065c-.141-.002-.282.007-.421.025a.366.366 0 0 0 .062.706c.205.022.41.044.615.055a6.044 6.044 0 0 1 1.672.303 6.428 6.428 0 0 1 3.83 3.198c.54 1.09.814 2.292.798 3.509.002.078.009.156.022.234.017.199.192.347.391.333a.395.395 0 0 0 .366-.4 9.82 9.82 0 0 0-.135-1.671 8.1 8.1 0 0 0-.761-2.36 7.072 7.072 0 0 0-3.355-3.212 7.395 7.395 0 0 0-3.019-.72zm5.32 6.95a4.441 4.441 0 0 0-.11-1.075 4.774 4.774 0 0 0-2.107-3.084 5.437 5.437 0 0 0-2.272-.809 3.959 3.959 0 0 0-.501-.055.366.366 0 0 0-.403.476.41.41 0 0 0 .366.293c.38.043.757.106 1.13.19a4.101 4.101 0 0 1 3.129 4.024c-.002.122.006.245.022.366a.367.367 0 0 0 .731-.044c.019-.102.015-.197.015-.293v.011zm-1.884-.464c-.022-.18-.033-.366-.066-.542a2.532 2.532 0 0 0-.9-1.533 2.63 2.63 0 0 0-1.098-.46 1.976 1.976 0 0 0-.508-.037.337.337 0 0 0-.366.256.366.366 0 0 0 .333.486c.143.012.284.033.424.063a1.53 1.53 0 0 1 1.328 1.233c.055.234.077.475.121.731a.366.366 0 0 0 .56.234.435.435 0 0 0 .172-.431z"/>
            <path fill="#FFF" d="M17.146 19.124c.005-.368.117-.726.322-1.031a4.544 4.544 0 0 1 1.13-1.142 2.78 2.78 0 0 1 .762-.442.984.984 0 0 1 1.097.289c.715.8 1.346 1.67 1.884 2.597.222.355.265.794.118 1.185-.089.204-.23.38-.41.509-.165.135-.337.26-.501.391a.9.9 0 0 0-.366.809c.011.103.037.204.077.3a7.654 7.654 0 0 0 2.041 3.12 6.22 6.22 0 0 0 2.433 1.373c.094.023.19.04.285.05a.83.83 0 0 0 .758-.325c.16-.194.318-.391.464-.592.36-.45.989-.58 1.497-.308.511.272 1 .584 1.463.933.399.304.783.622 1.174.937.243.18.4.453.436.753.011.192-.022.384-.099.56-.136.301-.315.58-.53.83a4.537 4.537 0 0 1-.879.879c-.284.221-.625.36-.984.399a1.83 1.83 0 0 1-.757-.114 15.391 15.391 0 0 1-1.83-.797 22.73 22.73 0 0 1-3.387-2.038 15.71 15.71 0 0 1-4.003-4.39 25.16 25.16 0 0 1-1.756-3.366 9.492 9.492 0 0 1-.365-1.072 1.515 1.515 0 0 1-.074-.297zM25.03 15.623a7.394 7.394 0 0 1 3.008.732 7.072 7.072 0 0 1 3.355 3.212 8.1 8.1 0 0 1 .76 2.36 9.82 9.82 0 0 1 .136 1.672.395.395 0 0 1-.366.399.366.366 0 0 1-.391-.333 1.69 1.69 0 0 1-.022-.235 7.657 7.657 0 0 0-.798-3.508 6.428 6.428 0 0 0-3.83-3.198 6.044 6.044 0 0 0-1.672-.303c-.205 0-.41-.033-.615-.055a.366.366 0 0 1-.058-.72c.14-.019.28-.027.42-.027l.073.004z"/>
            <path fill="#FFF" d="M30.35 22.563v.282a.367.367 0 0 1-.732.044 2.605 2.605 0 0 1-.022-.366 4.101 4.101 0 0 0-3.128-4.024 10.72 10.72 0 0 0-1.13-.19.41.41 0 0 1-.366-.293.366.366 0 0 1 .402-.476c.168.008.336.026.502.055a5.437 5.437 0 0 1 2.257.82 4.774 4.774 0 0 1 2.107 3.091c.079.347.116.702.11 1.057z"/>
            <path fill="#FFF" d="M28.466 22.11a.435.435 0 0 1-.176.413.366.366 0 0 1-.56-.234c-.043-.238-.065-.48-.12-.732a1.53 1.53 0 0 0-1.328-1.233c-.14-.03-.282-.05-.425-.062a.366.366 0 0 1-.333-.486.337.337 0 0 1 .366-.256c.17-.01.342.002.509.036a2.63 2.63 0 0 1 1.097.461c.476.385.795.93.9 1.533.037.198.048.38.07.56z"/>
        </g>
    </g>
</svg>
