<svg xmlns="http://www.w3.org/2000/svg" width="50" height="50" viewBox="0 0 50 50">
    <g fill="none" fill-rule="evenodd">
        <rect width="50" height="50" fill="#02DC6C" rx="4"/>
        <path fill="#FFF" fill-rule="nonzero" d="M34.255 40h-18.51A5.775 5.775 0 0 1 10 34.255V15.798A5.786 5.786 0 0 1 15.745 10h18.458A5.786 5.786 0 0 1 40 15.745v18.458A5.786 5.786 0 0 1 34.255 40zm-9.66-18.356a1.069 1.069 0 1 1 0-2.134c.575.03 1.035.49 1.065 1.065a1.042 1.042 0 0 1-1.065 1.069zm-5.392 0a1.069 1.069 0 1 1 1.068-1.069 1.076 1.076 0 0 1-1.068 1.069zm2.696-5.696c-4.474 0-8.085 3-8.085 6.75a6.251 6.251 0 0 0 2.797 5.085c.144.105.221.28.203.457a.18.18 0 0 1-.053.15c-.15.51-.375 1.324-.375 1.376 0 .053-.048.15-.048.203a.244.244 0 0 0 .255.255.18.18 0 0 0 .15-.053l1.78-1.016a.615.615 0 0 1 .406-.101.472.472 0 0 1 .255.049 8.955 8.955 0 0 0 2.644.375h.457a5.887 5.887 0 0 1-.251-1.677c0-3.408 3.304-6.153 7.372-6.153h.469c-.559-3.203-3.915-5.697-7.984-5.697l.008-.003zm9.814 10.927a.915.915 0 1 1 0-1.83.915.915 0 0 1 0 1.83zm-4.463 0a.915.915 0 1 1 0-1.83.915.915 0 0 1 0 1.83zm6.649 5.194a5.25 5.25 0 0 0 2.351-4.271c0-3.102-3-5.644-6.75-5.644s-6.75 2.542-6.75 5.644c0 3.1 3 5.625 6.75 5.625a7.459 7.459 0 0 0 2.186-.308c.053 0 .154-.049.207-.049a.709.709 0 0 1 .352.102l1.478.866c.048 0 .1.049.15.049a.221.221 0 0 0 .206-.203.184.184 0 0 0-.053-.154c0-.048-.202-.712-.303-1.125v-.153a.45.45 0 0 1 .202-.405l-.026.026z"/>
    </g>
</svg>
