<svg xmlns="http://www.w3.org/2000/svg" width="50" height="50" viewBox="0 0 50 50">
    <g fill="none" fill-rule="evenodd">
        <rect width="50" height="50" fill="#00E676" rx="4"/>
        <path fill="#FFF" fill-rule="nonzero" d="M35.668 14.379C38.447 17.134 40 20.864 40 24.837c0 8.189-6.703 14.918-14.96 14.918-2.452 0-4.904-.567-7.111-1.783L10 40l2.126-7.703c-1.227-2.27-1.962-4.784-1.962-7.378C10.082 16.729 16.784 10 25.123 10c3.923 0 7.765 1.54 10.545 4.379zm-3.352 13.864l-.899-.405s-1.308-.568-2.126-.973c-.081 0-.163-.081-.245-.081-.245 0-.409.08-.572.162 0 0-.082.08-1.226 1.378a.45.45 0 0 1-.409.244h-.081c-.082 0-.246-.082-.327-.163l-.41-.162c-.898-.405-1.716-.892-2.37-1.54-.163-.162-.409-.325-.572-.487-.572-.567-1.144-1.216-1.553-1.946l-.082-.162c-.081-.081-.081-.162-.163-.324 0-.162 0-.325.082-.405 0 0 .326-.406.572-.65.163-.161.245-.405.409-.567.163-.243.244-.567.163-.81-.082-.406-1.063-2.595-1.308-3.082-.164-.243-.327-.324-.572-.405h-.9c-.163 0-.326.08-.49.08l-.082.082c-.163.081-.327.243-.49.324-.164.163-.245.325-.409.487-.572.73-.899 1.621-.899 2.513 0 .649.163 1.298.409 1.865l.081.243a13.512 13.512 0 0 0 3.025 4.136l.327.324c.245.243.49.405.654.649 1.716 1.459 3.678 2.513 5.885 3.08.245.082.573.082.818.163h.817c.409 0 .9-.162 1.226-.325.246-.162.41-.162.573-.324l.163-.162c.164-.162.327-.243.49-.405.164-.163.328-.325.41-.487.163-.324.245-.73.326-1.135v-.568s-.081-.081-.245-.162z"/>
    </g>
</svg>
