<svg xmlns="http://www.w3.org/2000/svg" width="50" height="50" viewBox="0 0 50 50">
    <g fill="none" fill-rule="evenodd">
        <rect width="50" height="50" fill="#464342" rx="4"/>
        <path fill="#FFF" d="M25 12.102a12.85 12.85 0 0 1 8.725 3.4c-1.126-.03-2.249.64-2.295 2.171-.095 3.098 3.703 3.758 1.657 9.988l-1.693 5.153-4.611-13.582c-.072-.21.011-.33.27-.33h1.303a.126.126 0 0 0 .124-.129v-.772c0-.07-.056-.132-.124-.129a83.437 83.437 0 0 1-7.362 0c-.068-.003-.123.058-.123.13v.771c0 .071.056.13.123.13h1.311c.292 0 .373.096.442.284l1.895 5.181-2.85 8.606-4.685-13.798c-.058-.174.012-.274.179-.274h1.493a.126.126 0 0 0 .124-.129v-.772c0-.07-.056-.132-.124-.128-1.567.083-3.14.1-4.605.115A12.887 12.887 0 0 1 25 12.102zm11.344 6.756A12.836 12.836 0 0 1 37.898 25c0 4.879-2.71 9.125-6.707 11.317l4.022-11.393c.623-1.764 1.202-4.147 1.131-6.066zM29.32 37.156c-1.35.48-2.804.742-4.319.742-1.305 0-2.564-.195-3.75-.555l3.973-11.387 4.096 11.2zm-9.838-.496C15.12 34.59 12.102 30.147 12.102 25c0-1.908.415-3.719 1.16-5.349l6.22 17.009zM25 10.892c7.79 0 14.108 6.318 14.108 14.108 0 7.79-6.318 14.108-14.108 14.108-7.79 0-14.108-6.318-14.108-14.108 0-7.79 6.318-14.108 14.108-14.108zM25 10c8.283 0 15 6.717 15 15 0 8.283-6.717 15-15 15-8.283 0-15-6.717-15-15 0-8.283 6.717-15 15-15z"/>
    </g>
</svg>
