<svg xmlns="http://www.w3.org/2000/svg" width="50" height="50" viewBox="0 0 50 50">
    <g fill="none" fill-rule="evenodd">
        <rect width="50" height="50" fill="#FF4A00" rx="4"/>
        <path fill="#FFF" fill-rule="nonzero" d="M39.791 22.499l-.003.001c.139.823.209 1.655.209 2.489v.022c-.001.834-.07 1.666-.21 2.489h-8.755l6.19 6.192a15.048 15.048 0 0 1-3.53 3.534l-6.194-6.19v8.755c-.823.138-1.655.207-2.488.209h-.021a15.227 15.227 0 0 1-2.489-.209v-8.756l-6.19 6.19a15.065 15.065 0 0 1-3.538-3.536l6.194-6.19H10.21A14.92 14.92 0 0 1 10 25.005v-.01c0-.85.209-2.495.209-2.495h8.756l-6.188-6.193a14.886 14.886 0 0 1 3.53-3.532l6.193 6.19V10.21A15.08 15.08 0 0 1 24.992 10h.016c.835 0 1.668.07 2.492.209v8.756l6.19-6.191a15.058 15.058 0 0 1 3.536 3.535l-6.19 6.19h8.755zm-11.04 2.507l-.004.007V25a8.949 8.949 0 0 0-.576-3.167 8.933 8.933 0 0 0-3.158-.577h-.012a8.961 8.961 0 0 0-3.169.577 8.972 8.972 0 0 0-.577 3.16v.014c0 1.082.196 2.155.577 3.167a9 9 0 0 0 3.162.578h.012a8.989 8.989 0 0 0 3.167-.578 8.989 8.989 0 0 0 .578-3.167z"/>
    </g>
</svg>
