<svg xmlns="http://www.w3.org/2000/svg" width="50" height="50" viewBox="0 0 50 50">
    <g fill="none" fill-rule="evenodd">
        <rect width="50" height="50" fill="#088E45" rx="4"/>
        <path fill="#FFF" fill-rule="nonzero" d="M14.205 40c-.304-.114-.19-.608-.152-.836.076-.419.152-.875.228-1.293.19-1.14.38-2.243.608-3.383.418-2.243.798-4.524 1.217-6.767l.57-3.193c.19-1.103.38-2.167.608-3.27.228-1.254 1.33-2.128 2.585-2.128h7.299c.836 0 1.178.418 1.026 1.254-.076.456-.228.913-.266 1.369-.114.608-.456.836-1.064.836h-5.17c-.875 0-1.179.228-1.369 1.102-.532 2.852-1.064 5.703-1.558 8.554-.152.76.342 1.292 1.102 1.292h8.667c.685 0 1.027-.266 1.179-.988.722-3.84 1.407-7.641 2.09-11.48.267-1.407.533-2.852.761-4.258.19-.913-.19-1.369-1.14-1.407h-1.103c-.684 0-1.102-.494-.988-1.14.152-.799.304-1.559.456-2.357.114-.57.228-1.483.836-1.787.228-.114.456-.114.723-.114 1.558.038 3.573-.266 4.713 1.026.609.685.723 1.559.57 2.433-1.254 6.995-2.546 13.99-3.839 21.023-.304 1.71-1.216 2.433-2.965 2.433H18.653c-.343 0-.723.076-.989.266-.608.494-1.178.988-1.749 1.482-.266.229-.532.533-.798.76-.228.229-.494.571-.836.571h-.076zm12.62-12.773c.039 0 .039 0 .039.038-.114.646-.19 1.216-.342 1.749-.038.19-.304.418-.495.418-.798.038-1.634.038-2.433 0-.342 0-.532-.152-.494-.494.076-.57.228-1.14.342-1.825 0-.038.038-.038.038 0 .419.342.76.684 1.179.95.152.114.418.114.608.038.532-.228.989-.532 1.559-.874zm-.227-.304c-.57.304-.913.494-1.483.76-.076.038-.228.038-.266 0-.418-.304-.798-.646-1.293-1.064h3.422v.038a2.308 2.308 0 0 1-.38.266z"/>
    </g>
</svg>
