<svg xmlns="http://www.w3.org/2000/svg" width="50" height="50" viewBox="0 0 50 50">
    <defs>
        <linearGradient id="a" x1="43.707%" x2="57.509%" y1="90.577%" y2="8.092%">
            <stop offset="0%" stop-color="#D92231"/>
            <stop offset="100%" stop-color="#BA2234"/>
        </linearGradient>
    </defs>
    <g fill="none" fill-rule="evenodd">
        <rect width="50" height="50" fill="#D42231" fill-opacity=".09" rx="4"/>
        <g fill-rule="nonzero">
            <path fill="url(#a)" d="M20.103 29.858L0 26.763 3.192 7.135l19.875 3.132-2.964 19.591zm-2.135-16.471a1.44 1.44 0 0 0 .303-.695c.02-.114.03-.223.03-.33a1.29 1.29 0 0 0-.476-1.036c-.394-.325-1.071-.558-2.045-.727l-5.501-.945c-.865-.148-1.55-.223-2.057-.223-.4 0-.69.044-.889.151-.212.118-.384.316-.52.581-.134.267-.234.603-.304 1.011a5.232 5.232 0 0 0-.072.881c0 .424.047.866.14 1.326a9.242 9.242 0 0 0 .874 2.404c.593 1.18 1.573 2.601 2.942 4.267.35.442.61.768.78.977.6.767.977 1.37 1.127 1.793a2.747 2.747 0 0 1 .15 1.205l-5.074-.86a4.83 4.83 0 0 0-.809-.076c-.36 0-.669.055-.924.171-.433.193-.702.573-.787 1.09a1.84 1.84 0 0 0-.028.313c0 .385.141.72.416.98.346.327.888.544 1.622.67l6.062 1.043c.456.078.845.118 1.17.118.393-.001.694-.056.907-.187.19-.118.343-.304.464-.55.121-.245.211-.551.274-.92a7.332 7.332 0 0 0 .088-1.705 8.156 8.156 0 0 0-.298-1.732c-.285-1.011-1.027-2.3-2.227-3.882-.181-.242-.32-.425-.421-.55l-.606-.813c-.77-1.02-1.353-1.895-1.748-2.624-.354-.651-.555-1.185-.61-1.591l5.246.9c.457.08.862.12 1.216.12.377 0 .696-.045.96-.138.257-.09.468-.23.625-.417z" transform="matrix(1 0 0 -1 13 46.994)"/>
            <path fill="#EF463D" d="M13 20.228l1.396-6.995 20.068-3.232-1.36 7.134L13 20.228"/>
            <path fill="#761116" d="M34.464 10l2.942 19.78-1.338 6.945-2.965-19.59L34.463 10"/>
        </g>
    </g>
</svg>
