<?xml version="1.0" encoding="UTF-8"?>
<svg width="22px" height="19px" viewBox="0 0 22 19" version="1.1" xmlns="http://www.w3.org/2000/svg" xmlns:xlink="http://www.w3.org/1999/xlink">
    <!-- Generator: Sketch 60 (88103) - https://sketch.com -->
    <title>Group 45</title>
    <desc>Created with Sketch.</desc>
    <g id="Page-1" stroke="none" stroke-width="1" fill="none" fill-rule="evenodd">
        <g id="Desktop-HD-Copy-8" transform="translate(-653.000000, -10.000000)" fill="#FFFFFF" fill-rule="nonzero">
            <g id="Group-47" transform="translate(653.000000, 7.000000)">
                <g id="Group-45" transform="translate(0.000000, 3.000000)">
                    <g id="acquire-logo" transform="translate(0.200000, 0.200000)">
                        <path d="M10.5184362,13.5106923 L11.1776933,12.0615579 C11.0384068,11.8133086 11.4496705,11.5002717 11.592159,11.2541488 L11.8763961,10.7399279 C12.1880565,10.2030289 14.2489457,5.9290268 14.5606061,6.46592576 L21.026889,17.1895376 C21.3380157,17.7269682 20.9489739,18.3978261 20.326187,18.3978261 L13.7818538,18.3978261 C13.4926074,18.3978261 13.2257749,18.2447302 13.0811517,17.9948861 L10.5184362,13.5106923 Z" id="Fill-1" opacity="0.5"></path>
                        <path d="M14.5606061,6.46592576 L13.5583529,4.71322024 L11.0930101,0.403489078 C10.7854348,-0.13449636 10.0164964,-0.13449636 9.70892112,0.403489078 L0.108251836,17.1878904 C-0.199323503,17.7258759 0.185145671,18.3978261 0.800296348,18.3978261 L7.25727178,18.3978261 C7.54272697,18.3978261 7.8065887,18.2447235 7.94931629,17.9948687 L12.8120613,9.50033378 L14.5606061,6.46592576 Z" id="Fill-4"></path>
                    </g>
                </g>
            </g>
        </g>
    </g>
</svg>