<?xml version="1.0" encoding="UTF-8"?>
<svg width="11px" height="11px" viewBox="0 0 11 11" version="1.1" xmlns="http://www.w3.org/2000/svg" xmlns:xlink="http://www.w3.org/1999/xlink">
    <!-- Generator: Sketch 55.1 (78136) - https://sketchapp.com -->
    <title>Path_332</title>
    <desc>Created with Sketch.</desc>
    <g id="Page-1" stroke="none" stroke-width="1" fill="none" fill-rule="evenodd">
        <path d="M10.6887689,0.234150719 C10.5464017,0.0846241561 10.3490194,0 10.1426221,0 C9.93622479,0 9.73884246,0.0846241561 9.59647524,0.234150719 L5.46101358,4.36929032 L1.32905062,0.234150719 C1.1866834,0.0846241561 0.989301069,0 0.78290378,0 C0.576506491,0 0.379124157,0.0846241561 0.23675694,0.234150719 C0.0873584891,0.376480533 0.00279895882,0.57386639 0.00279895882,0.780274811 C0.00279895882,0.986683231 0.0873584891,1.18406909 0.23675694,1.3263989 L4.3687199,5.4615385 L0.233957981,9.5966781 C0.0845595303,9.73900791 0,9.93639377 0,10.1428022 C0,10.3492106 0.0845595303,10.5465965 0.233957981,10.6889263 C0.373086955,10.843224 0.572846673,10.9287038 0.780454691,10.9227794 C0.98806271,10.9287038 1.18782243,10.843224 1.3269514,10.6889263 L5.46101358,6.55378668 L9.59647524,10.6889263 C9.73884246,10.8384528 9.93622479,10.923077 10.1426221,10.923077 C10.3490194,10.923077 10.5464017,10.8384528 10.6887689,10.6889263 C10.8381674,10.5465965 10.9227269,10.3492106 10.9227269,10.1428022 C10.9227269,9.93639377 10.8381674,9.73900791 10.6887689,9.5966781 L6.554007,5.4615385 L10.6894687,1.3263989 C10.838776,1.18397328 10.9232091,0.986533182 10.923077,0.780124748 C10.9229446,0.573716313 10.8382586,0.376384685 10.6887689,0.234150719 Z" id="Path_332" fill="#0265ff" fill-rule="nonzero"></path>
    </g>
</svg>