<?xml version="1.0" encoding="UTF-8"?>
<svg width="13px" height="8px" viewBox="0 0 13 8" version="1.1" xmlns="http://www.w3.org/2000/svg" xmlns:xlink="http://www.w3.org/1999/xlink">
    <!-- Generator: Sketch 55.1 (78136) - https://sketchapp.com -->
    <title>Combined Shape</title>
    <desc>Created with Sketch.</desc>
    <g id="Page-1" stroke="none" stroke-width="1" fill="none" fill-rule="evenodd">
        <g id="Combined-Shape" transform="translate(6.500000, 4.000000) rotate(-90.000000) translate(-6.500000, -4.000000) translate(3.000000, -2.000000)" fill="#6A7A8E" fill-rule="nonzero" stroke="#6A7A8E">
            <path d="M3.4013598,8.36163537 L8.36027839,3.07908204 C8.45500001,2.97817859 8.61358546,2.97316722 8.71448891,3.06788884 C8.71833692,3.0715011 8.72206985,3.07523403 8.72568211,3.07908204 C8.82839961,3.18850321 8.82839961,3.35891198 8.72568211,3.46833316 L3.6100301,8.91784882 C3.55431019,8.97720519 3.47649103,9.00337935 3.40131399,8.99558945 C3.33150576,9.0028191 3.25906764,8.98084606 3.2038827,8.92904202 C3.20003469,8.92542976 3.19630176,8.92169683 3.1926895,8.91784882 L-1.92296251,3.46833316 C-2.02568001,3.35891198 -2.02568001,3.18850321 -1.92296251,3.07908204 C-1.82824089,2.97817859 -1.66965544,2.97316722 -1.56875199,3.06788884 C-1.56490398,3.0715011 -1.56117105,3.07523403 -1.55755879,3.07908204 L3.4013598,8.36163537 Z" transform="translate(3.401360, 5.998465) rotate(90.000000) translate(-3.401360, -5.998465) "></path>
        </g>
    </g>
</svg>