<svg width="40" height="40" viewBox="0 0 40 40" fill="none" xmlns="http://www.w3.org/2000/svg">
<path fill-rule="evenodd" clip-rule="evenodd" d="M35.2569 7.87294C35.2597 7.88597 35.2565 7.89272 35.2569 7.9035C35.2369 7.87789 35.2169 7.85227 35.1965 7.82665C35.2169 7.84328 35.2356 7.85541 35.2569 7.87294M36.6435 31.1186C36.6394 31.1096 36.6371 31.0952 36.6321 31.0858C36.6585 31.1235 36.6812 31.1622 36.6867 31.2067C36.6153 31.3689 36.5462 31.3918 36.4944 31.3851C36.5376 31.315 36.5853 31.2314 36.6435 31.1186M39.7141 17.3856L39.9147 17.2586C39.8136 17.1073 39.6975 16.9604 39.5896 16.8142C39.4388 16.4917 39.513 16.181 39.5612 15.8417C39.5853 15.6725 39.6031 15.497 39.5841 15.3145C39.5545 15.1347 39.4755 14.951 39.3337 14.7618L39.2278 14.9057C39.1658 14.5977 38.8692 13.9809 39.0402 13.9829C39.0066 13.9598 38.8704 13.9289 38.9067 13.7894L39.0086 13.7464C38.9411 13.6334 38.8798 13.5185 38.8072 13.4083L38.5737 13.0847C38.4236 12.5055 39.0208 13.021 38.7076 12.1951C38.5429 11.9039 38.0606 11.4619 38.0405 11.6069C38.0851 11.73 38.1033 11.9426 38.0053 11.9958L37.8426 11.7488C37.8232 11.7539 37.8031 11.7578 37.7833 11.7621C37.7766 11.748 37.7719 11.7343 37.7652 11.7206C37.2714 10.6657 36.6888 9.6804 36.0379 8.76034L36.0873 8.75878L36.0063 8.71539C35.9158 8.58837 35.8285 8.45978 35.7353 8.33588C35.7768 8.3222 35.8297 8.33549 35.8937 8.39763C35.8183 8.04938 35.6326 8.23426 35.5856 7.92001C35.5856 7.88093 35.6058 7.88327 35.633 7.89852L35.3621 7.70583C35.4501 7.71638 35.4885 7.53776 35.5813 7.7156C35.3427 7.1645 34.8245 7.14105 34.8537 6.83189L34.8976 6.85729C34.4504 6.47153 34.5484 6.69509 34.3947 6.73965C34.307 6.64584 34.2174 6.554 34.1281 6.46215L34.1901 6.03846L33.9832 6.13227C33.9302 6.06934 33.8263 5.94388 33.9073 5.9044C33.5886 5.79301 33.8793 6.00681 33.6577 5.98023C33.5838 5.77542 33.3816 5.59251 33.2038 5.44281C33.0198 5.29898 32.878 5.16609 32.9538 5.00975C32.7385 5.04258 33.1643 5.34158 32.7654 5.1614C32.9076 4.80846 32.3487 4.90305 32.1765 4.54777C32.3783 4.46999 32.5849 4.76586 32.4068 4.40511C32.2223 4.45982 32.0971 4.33593 31.9814 4.17763C31.8636 4.02286 31.7384 3.8544 31.5943 3.79108C31.4359 3.98846 30.9777 3.50772 30.5041 3.29431C30.5914 3.21692 29.7374 2.6967 29.3519 2.39106L29.3843 2.36057C29.1781 2.55014 28.7796 2.24762 28.4209 2.16515C28.4979 2.03421 28.5856 1.99982 28.7938 2.02171C28.6919 1.9709 28.5844 1.9322 28.4794 1.88686C28.3708 1.92986 28.255 1.9279 28.0398 1.86967L28.1962 1.72896C27.7652 1.56949 27.2735 1.56519 26.7667 1.25955C26.7075 1.36625 26.8481 1.60154 26.7576 1.72271C26.6612 1.68831 26.5637 1.65822 26.4661 1.62499C26.4965 1.57536 26.5451 1.53823 26.6261 1.54331C26.5716 1.53979 26.4223 1.56363 26.3354 1.49367L26.621 1.41355C26.3923 1.26815 26.4452 1.49992 26.2501 1.42371C26.2975 1.29512 26.1324 1.28496 26.1948 1.19076C26.2508 1.19428 26.3528 1.29903 26.4479 1.27206C26.2279 1.17825 25.9763 1.01527 25.9143 0.887462C25.9116 0.967977 25.8598 1.06374 25.688 1.02895C25.2531 0.904659 25.5861 0.824926 25.3503 0.678358C25.2223 0.729168 24.9616 0.575564 24.9035 0.773334C24.7744 0.745193 24.7728 0.647481 24.7357 0.58299C24.4833 0.622075 23.6514 0.382485 23.8687 0.650217L23.9248 0.676403C23.9133 0.676794 23.8995 0.677185 23.8857 0.677576C23.6889 0.68852 23.4962 0.666632 23.3046 0.626766C23.1119 0.59198 22.9167 0.561494 22.7236 0.515374C22.3365 0.428605 21.947 0.326984 21.5659 0.328548L21.5726 0.26054C21.1156 0.291808 20.5575 0.280082 20.2348 0.413362C20.1021 0.411408 19.9192 0.2836 19.9761 0.203476C19.6281 0.258195 19.5929 0.303533 19.0881 0.240216C19.4314 0.0924746 18.9621 0.144067 19.442 0.123743C18.989 0.101073 18.8744 0.00101582 18.4032 0.226927C18.5549 0.0385374 18.0398 0.0358014 17.8285 0.105373L18.1607 0.203867C17.9213 0.249596 17.7084 0.251159 17.4912 0.255068L17.5781 0.016259C17.0926 -0.0603475 16.6897 0.149929 16.3208 0.309396C15.9515 0.482933 15.6079 0.587681 15.2109 0.474725C15.0134 0.698682 15.7272 0.445411 15.5585 0.689301C15.1449 0.775288 14.6251 0.579864 14.492 0.617385C13.8837 0.667805 14.0563 1.07507 13.4524 1.19467C13.5535 1.24313 13.6926 1.42371 13.3019 1.66291C12.9026 1.78954 12.6913 1.5351 12.9188 1.37329C13.012 1.32873 13.0677 1.33459 13.0732 1.36234C13.1905 1.283 13.3485 1.18255 13.1585 1.16184L13.1356 1.25955C12.9081 1.25994 12.3599 1.4882 12.4373 1.31192C12.1636 1.50579 12.3611 1.48781 12.6 1.43856C12.0451 1.54409 11.7852 1.72779 11.2543 1.93416C11.355 1.93298 11.4707 1.98184 11.3906 2.02249C10.6081 2.31445 11.1374 2.33009 10.6606 2.61892C10.3182 2.65566 10.6164 2.3039 10.1665 2.65723C9.81653 2.744 9.99033 2.50284 10.0808 2.37972C9.98519 2.47509 9.87934 2.54388 9.77229 2.5986C9.66999 2.66192 9.56374 2.70882 9.46025 2.74673C9.25328 2.82295 9.05499 2.86516 8.92149 2.93551L9.1174 2.72758C8.99969 2.85187 8.88554 2.92535 8.76942 3.00118L8.99298 3.05159C8.8417 3.11608 8.72636 3.19074 8.69081 3.1325C8.61261 3.31268 8.95032 3.29001 8.76152 3.59058C8.53795 3.64295 8.26936 4.00918 8.08924 3.89114C8.68252 3.56439 7.89136 3.75121 8.34717 3.40375C8.27015 3.48661 8.1556 3.55774 8.00432 3.62692C7.97035 3.62223 7.99445 3.57533 8.02526 3.54172C7.39248 3.78835 7.93954 3.92514 7.41697 4.33827C7.40512 4.18936 7.1468 4.2558 7.07807 4.3457C7.29137 4.17607 7.30914 4.42308 7.17998 4.64939C6.78539 4.8452 6.86715 4.9949 6.68743 5.12622L6.91494 4.99998C6.92877 5.1442 6.75339 5.2638 6.57683 5.50417C6.4927 5.4518 6.7214 5.26849 6.61752 5.31109C6.53654 5.69608 5.93418 5.66989 5.71062 6.0967C5.49851 6.18894 5.52734 5.95131 5.35197 6.0455C5.09523 6.51217 4.84441 6.34841 4.58688 6.85104C4.81557 6.83619 4.79977 6.79124 4.68167 7.18717L5.16237 6.42697L4.98028 7.02301C5.15526 6.82368 5.25322 6.51452 5.39344 6.42462C5.30457 6.70877 5.30457 6.6693 5.48429 6.66109C5.06442 6.776 5.1367 7.30599 4.74132 7.51861L4.42809 7.25166C4.15476 7.44474 4.00071 7.6898 3.87155 7.97669C3.7491 8.26904 3.62389 8.5825 3.34858 8.89675L3.55753 8.71617C3.63219 8.89753 3.29131 9.14923 3.1977 9.40563C3.095 9.313 2.95754 9.42478 2.82088 9.47716C2.91568 9.51663 2.5199 10.0075 2.72529 10.2061L2.38916 10.4433C2.00483 11.0015 2.35953 11.2778 2.08027 11.8406C2.01866 11.6034 1.81484 11.8312 1.88633 11.3919C1.80062 11.5885 1.70148 11.7562 1.78798 11.7972C1.65882 11.8797 1.72715 12.4132 1.52926 12.5442C1.5502 12.6489 1.67383 12.7275 1.57034 12.9413C1.534 12.9553 1.50675 12.9166 1.50675 12.9166C1.56205 12.9389 1.46646 13.2961 1.67659 13.1527C1.3764 13.3872 1.24448 13.8273 1.12558 14.2545C1.06673 14.4683 1.00748 14.6794 0.935595 14.8662C0.878717 15.0573 0.802089 15.2226 0.682012 15.3415C0.633428 15.8066 0.549691 16.3573 0.488467 16.7716C0.450548 16.7384 0.420529 16.7595 0.443833 16.6829C0.250289 17.2418 0.795769 17.0917 0.57971 17.7198C0.320202 18.0285 0.499132 17.3606 0.391695 17.5587C-0.0617528 17.6029 0.343111 18.3541 0.0701736 18.779L0.0452893 18.6692C-0.114681 19.0065 0.20368 19.511 0.163391 20.0625C0.163391 20.0625 0.123497 20.0363 0.0946629 20.0602C0.293737 20.4401 0.460028 21.1421 0.561145 21.6607C0.36997 21.5138 0.446993 21.4293 0.275568 21.5462C0.320992 21.7811 0.55917 21.4524 0.648438 21.9155C0.567465 22.0774 0.501502 22.4295 0.330471 22.4995C0.296897 22.3521 0.293342 22.2013 0.273198 22.052C0.161021 22.1809 0.168921 22.3291 0.218295 22.4713C0.272803 22.6128 0.352986 22.7508 0.352986 22.8708L0.240019 22.8575C0.40236 23.5391 0.674112 23.4957 0.790239 24.2247L0.856597 24.1313C1.2034 24.4608 0.793794 24.4936 1.09636 24.8309L0.863707 25.0197C1.00985 25.2597 1.36969 25.8475 1.57903 26.2735C1.28319 26.0933 1.04422 25.579 0.822628 25.2776C0.896096 25.5348 1.09833 26.1449 1.26699 26.2329C1.2109 26.1391 1.1086 26.03 1.11926 25.9155C1.4005 26.1684 1.67975 26.5155 1.86777 27.0017C1.60115 27.0556 1.6999 27.3878 1.83657 27.7713C1.95506 28.1629 2.19561 28.5619 2.09449 28.8301C2.40811 29.2033 2.59968 29.6297 2.80745 30.0765C3.04326 30.5052 3.2763 30.9657 3.5994 31.4183C3.72106 30.8554 3.789 31.6801 4.09788 31.3749C4.25864 31.5668 4.32855 31.6348 4.31828 31.6723L4.29893 31.6219C4.30722 31.6442 4.31157 31.6571 4.31789 31.6762L4.31907 31.6754L4.61057 32.4274C4.6323 32.6483 4.38148 32.2977 4.32184 32.3751C4.65837 32.8339 4.3329 32.6725 4.48852 33.0379C4.55607 32.88 4.7816 33.0493 4.94553 33.3385L4.80254 32.8578C5.13749 33.0903 5.18054 33.2768 5.24216 33.4554C5.29786 33.6367 5.35789 33.8232 5.72405 34.028L5.44716 33.942C5.62254 34.0604 5.8935 34.3301 6.18658 34.574C6.25965 34.635 6.33431 34.6944 6.40857 34.7495C6.48875 34.7979 6.56893 34.8421 6.64793 34.8792C6.80513 34.9539 6.95602 35.0012 7.08913 34.9992C7.11283 35.0821 7.11244 35.2318 6.95207 35.1407C7.13495 35.306 7.34746 35.4581 7.56983 35.6019C7.79379 35.7438 8.01696 35.89 8.26028 35.9963C8.73347 36.2261 9.16599 36.452 9.42668 36.7506L9.30897 36.7971C9.48119 36.8694 9.67118 36.8171 9.82246 37.0082C9.79007 37.0395 9.70396 37.0621 9.77585 37.1079C9.88092 37.1235 10.296 37.1802 10.4797 37.3471L10.24 37.351C10.6314 37.6375 10.9932 37.7492 11.3416 37.8251C11.703 37.8782 12.0553 37.888 12.4341 38.0088C12.314 38.2792 12.9658 38.692 13.3157 38.844L13.2885 38.8804C13.8213 39.0668 14.3005 39.1489 14.7669 39.2063C15.2354 39.2618 15.7094 39.227 16.2213 39.2818C16.3607 39.3955 16.5633 39.4885 16.8031 39.5706C17.0437 39.648 17.3276 39.6793 17.6211 39.725C18.2112 39.8004 18.8476 39.9001 19.3662 39.9759C19.2094 39.9181 19.4021 39.7391 19.585 39.7109C19.8264 39.7766 20.251 39.5096 20.2134 39.7887L20.1273 39.782C20.3098 40.0529 20.8154 40.0119 21.2049 39.9685L21.2487 39.598C21.5074 39.7105 21.8056 39.7406 22.1122 39.7293C22.4179 39.7105 22.737 39.6836 23.0297 39.5878C23.6202 39.4244 24.1416 39.2653 24.4675 39.4479C24.6918 39.3248 24.9837 39.2388 25.1931 39.0824L25.2306 39.2755C25.5651 39.2059 25.8175 39.1532 26.0857 39.0828C26.2192 39.0476 26.3575 39.0082 26.5119 38.9601C26.5886 38.9347 26.6699 38.9085 26.7568 38.88C26.8406 38.8421 26.9294 38.8014 27.0258 38.7576L26.9129 38.9534C27.3663 38.7873 27.2731 38.2015 27.6657 38.0322L27.8995 38.2542C28.6733 37.9802 29.5194 37.7696 30.1202 37.1704C30.13 37.2138 30.151 37.299 30.0372 37.3713C30.403 37.2306 31.4355 36.7514 31.0974 36.497C31.2471 36.7076 31.8313 36.0569 32.116 35.709L32.1788 35.9072C32.3218 35.4745 32.2875 35.4147 32.6453 35.0371C32.7559 34.9797 32.8278 35.0891 32.6694 35.1536C33.0526 34.9738 32.7982 34.8132 33.2485 34.581L33.1869 34.7905C33.5214 34.5326 33.4618 34.515 33.5254 34.2453C33.6581 34.0053 34.121 33.7258 34.2916 33.804C34.2565 33.6883 34.3161 33.4284 34.5275 33.2908C34.5993 33.3127 34.5654 33.4042 34.5476 33.4495C34.6965 33.3487 34.8079 33.2424 34.8972 33.1368C34.9817 33.0266 35.0378 32.9109 35.0947 32.8066C35.2064 32.5947 35.3044 32.4118 35.5327 32.2867C35.5888 32.3196 35.6338 32.3157 35.6749 32.2969C35.3135 32.7245 35.0172 33.0637 35.0334 33.0215C35.1665 33.1415 35.4845 32.8093 35.4367 33.2521C35.575 32.8761 35.7448 32.2129 36.0924 31.9252C36.1197 31.9193 36.1465 31.9135 36.1789 31.9178L36.1655 31.9651C36.2445 31.8963 36.2919 31.8169 36.3203 31.7306C36.4234 31.6313 36.4917 31.5695 36.5707 31.4581C36.7212 31.5003 36.9314 31.0696 37.0649 30.8851C36.8907 30.7929 37.0822 30.5662 36.7915 30.7069C36.8231 30.685 36.7872 30.7546 36.7102 30.8832C36.6959 30.9145 36.6762 30.9489 36.673 30.9739C36.6715 30.9672 36.6699 30.9594 36.6675 30.9516C36.5873 31.0759 36.483 31.2381 36.3638 31.4218C36.3831 31.2166 36.4167 31.018 36.6462 30.8734C36.6059 30.7081 36.568 30.5338 36.5561 30.4427C36.7556 30.3919 36.9705 30.2629 37.1597 30.1476C37.3528 30.035 37.4887 29.9166 37.5863 29.9248C37.7047 29.5934 37.8841 29.2272 38.018 28.8758C38.0843 28.6999 38.1416 28.5291 38.1693 28.3669C38.1862 28.2 38.1799 28.0448 38.1377 27.9088C38.1696 27.7126 38.3213 27.7478 38.4031 27.7036C38.3932 27.8217 38.3355 27.9424 38.36 28.0198C38.4268 27.6239 38.7795 26.9419 38.5745 26.7668C38.868 26.3572 38.7025 27.1072 38.8988 26.465L38.9454 26.578C39.342 26.0128 39.3519 25.4363 39.3724 24.8719C39.359 24.2927 39.3321 23.7201 39.7476 23.0533C39.6947 23.1471 39.6694 23.1936 39.6224 23.2065C39.7014 23.0099 39.7488 22.8051 39.7788 22.5968C39.8132 22.3893 39.8405 22.179 39.8626 21.9675C39.8958 21.5438 39.9586 21.119 39.9266 20.6906C39.9143 20.2638 39.9064 19.839 39.9258 19.4176C39.9432 19.207 39.942 18.9979 39.9447 18.7888C39.9507 18.58 39.9665 18.3713 39.9953 18.1622C40.0304 17.6877 39.8622 17.6522 39.7141 17.3856" fill="#FF4651" fill-opacity="0.1"/>
<path d="M12.0823 15.6651C12.1067 15.6651 12.131 15.6651 12.1796 15.6388C12.2526 15.6388 12.3256 15.6388 12.3986 15.6125C12.5445 15.6125 12.7148 15.5862 12.8608 15.5598C13.1771 15.5335 13.4933 15.5072 13.7609 15.5335C13.8825 15.4282 14.0528 15.4282 14.2231 15.4019L14.2474 15.5335L14.3934 15.4809C14.4421 15.5335 14.2718 15.5072 14.3934 15.5598L14.4421 15.5072C14.4421 15.5598 14.807 15.5335 14.5637 15.6388H15.1232C15.2449 15.6388 15.1962 15.5335 15.3422 15.5598C15.3665 15.5862 15.2935 15.5862 15.2935 15.6388C15.7071 15.7441 15.7801 15.3756 16.145 15.4282V15.4546C16.2179 15.4282 16.3396 15.4282 16.3396 15.4019C16.2909 15.2703 16.2666 15.4809 16.145 15.4019C16.145 15.2966 16.2909 15.3493 16.2909 15.244C16.3882 15.2966 16.4369 15.2177 16.5099 15.2177C16.6315 15.2966 16.8261 15.244 16.9477 15.323C17.0207 15.2966 17.0937 15.165 17.2153 15.165C17.3127 15.244 17.191 15.244 17.337 15.2966L17.3613 15.2177C17.4829 15.2177 17.4586 15.244 17.4586 15.2703C17.5803 15.2703 17.5559 15.1914 17.7019 15.2177L17.6046 15.2966C17.7262 15.2703 17.7505 15.2703 17.9208 15.2966C17.9208 15.323 17.8479 15.323 17.7992 15.323C17.8722 15.4282 17.9452 15.2703 17.9938 15.2966C17.9695 15.2703 17.8722 15.244 17.9208 15.1914C17.9938 15.1914 18.0911 15.1124 18.1398 15.1914L18.0668 15.244C18.2371 15.1914 18.1641 15.165 18.3344 15.1914V15.2177C18.456 15.1387 18.602 15.2177 18.7723 15.2177L18.748 15.244C18.8209 15.2177 18.8453 15.165 18.8939 15.165C18.7966 15.1387 18.8209 15.1124 18.8209 15.0334C18.9426 15.1387 19.0156 14.9019 19.2345 14.9808C19.2345 15.0071 19.1858 15.0598 19.1129 15.0334C19.0399 15.1387 19.0399 15.244 18.8939 15.2966C18.9669 15.2703 19.0642 15.244 19.0399 15.2966L19.0642 15.165C19.1129 15.165 19.1615 15.165 19.1858 15.165C19.2102 15.0861 19.0885 15.0598 19.2102 15.0071C19.3318 14.9808 19.2831 15.1124 19.3075 15.0598C19.4778 15.0071 19.3805 14.9545 19.5507 14.9808C19.5264 14.9808 19.5021 15.0071 19.4778 15.0071C19.5994 15.0598 19.7697 14.9808 19.8183 15.1124C19.794 15.1387 19.794 15.165 19.7454 15.165V15.1387C19.6237 15.2177 19.867 15.1124 19.8183 15.2177C19.8183 15.1387 19.9886 15.165 20.0616 15.165L20.0373 15.0861C20.2806 14.8492 20.013 15.244 20.2806 15.2177C20.4508 15.165 20.2319 15.1914 20.3292 15.1387C20.4265 15.165 20.4752 15.2177 20.6455 15.1914C20.6941 15.2177 20.7914 15.2703 20.7914 15.3493C20.8887 15.323 21.0834 15.3756 21.132 15.2966C20.9617 15.2177 20.9617 15.3756 20.7671 15.2703L20.8158 15.1914C20.9374 15.1914 21.1077 15.165 21.205 15.1914C21.1807 15.165 21.1807 15.165 21.1807 15.1387C21.3753 15.1124 21.4239 15.0334 21.6185 15.0598C21.6429 15.1387 21.5456 15.1124 21.4483 15.1387C21.5699 15.1914 21.5699 15.1387 21.7645 15.165C21.7645 15.244 21.6429 15.165 21.6185 15.2177L21.8132 15.1914C21.8132 15.1914 21.8132 15.1914 21.8132 15.2177C21.8375 15.1124 21.9591 15.2177 22.1051 15.1914C22.1537 15.1914 22.1781 15.1914 22.2024 15.1914C22.2267 15.1914 22.2511 15.1914 22.2511 15.165C22.2754 15.165 22.324 15.1387 22.3484 15.1124C22.397 15.0861 22.4457 15.0071 22.5187 14.9808C22.543 15.0071 22.543 15.0598 22.5187 15.0861C22.47 15.0334 22.47 15.0861 22.4457 15.1124C22.5187 15.1124 22.5673 15.2703 22.5187 15.2966C22.6403 15.2966 22.4943 15.2177 22.5673 15.2177C22.616 15.244 22.6646 15.2703 22.7133 15.2703C22.7133 15.2177 22.6646 15.165 22.7619 15.165C22.8349 15.1914 22.8592 15.2177 22.9322 15.2703C22.9079 15.2966 22.9079 15.3493 22.8592 15.323C22.8836 15.3756 22.9322 15.4019 22.9809 15.3756C22.9322 15.2703 23.1512 15.4546 23.1268 15.323L23.1998 15.4546C23.1755 15.4282 23.1512 15.4546 23.1268 15.4282C23.1025 15.5072 23.1998 15.4809 23.2241 15.5072C23.2485 15.5598 23.2971 15.6388 23.2728 15.6651C23.2971 15.6914 23.3458 15.7704 23.3214 15.7967C23.3701 15.823 23.3701 15.7704 23.3944 15.7704C23.4431 15.7967 23.4674 15.8493 23.4917 15.902C23.4674 15.9283 23.3458 16.0073 23.3214 15.9809C23.3701 16.0073 23.4431 15.9283 23.4917 16.0336C23.3944 16.0073 23.4674 16.1652 23.3458 16.1389C23.2971 16.2178 23.3458 16.3231 23.3701 16.402C23.4431 16.4284 23.3944 16.3231 23.4674 16.2968C23.4917 16.402 23.5647 16.4547 23.6134 16.5336C23.662 16.5863 23.7107 16.6652 23.6864 16.7968L23.7107 16.7442C23.7593 16.9021 23.735 16.8758 23.808 16.9811C23.7107 16.9284 23.5647 17.1653 23.589 17.4022C23.6377 17.4285 23.662 17.2706 23.735 17.2969L23.7593 17.4548C23.7593 17.4548 23.735 17.4548 23.735 17.4285C23.7593 17.5864 23.6134 17.718 23.735 17.7443L23.6134 17.9022L23.662 17.8496C23.7107 17.8759 23.7107 18.0338 23.735 18.0865C23.7837 18.2707 23.735 18.3234 23.6864 18.4286C23.7107 18.4023 23.808 18.3234 23.808 18.4549C23.662 18.4549 23.7593 18.7445 23.6864 18.7445C23.6864 18.7971 23.6377 18.9024 23.7107 18.9024H23.6134C23.735 18.9024 23.735 19.1129 23.7593 19.2708C23.589 19.2445 23.7837 19.4288 23.6134 19.5077C23.735 19.534 23.662 19.7709 23.7593 19.7972C23.7593 19.9288 23.662 19.9025 23.6134 19.9288L23.662 19.9815C23.6134 20.0341 23.589 20.271 23.5647 20.4026L23.662 20.5342L23.6134 20.5868C23.6377 20.6131 23.662 20.7184 23.6864 20.6394V20.7184C23.7837 20.7184 23.7107 20.8237 23.7593 20.9553C23.735 20.9816 23.7107 20.9816 23.7107 20.9553C23.7107 21.0342 23.662 20.9816 23.6134 21.0342C23.6377 20.9816 23.808 21.2711 23.8566 21.0869C23.9053 21.0869 23.9296 21.1922 23.9053 21.2448L23.808 21.2974L23.9053 21.3764C23.9296 21.4817 23.8566 21.5343 23.8566 21.6133C23.8566 21.5343 23.662 21.429 23.662 21.6396C23.6377 21.5343 23.589 21.4553 23.5647 21.4027C23.5647 21.4553 23.5404 21.4817 23.5161 21.4027C23.5404 21.5869 23.5647 21.4553 23.589 21.6396C23.4917 21.6396 23.4674 21.6659 23.4431 21.8238L23.5161 21.7185C23.5161 21.7185 23.5404 21.7185 23.5404 21.7449C23.5404 21.6922 23.5647 21.6922 23.589 21.6922C23.589 21.7185 23.6864 21.8765 23.6377 21.9291C23.7837 21.7712 23.735 22.2186 23.8323 22.1133C23.8566 22.1396 23.8566 22.2449 23.808 22.2712C23.735 22.1396 23.7107 22.3765 23.6377 22.3502C23.662 22.4028 23.7107 22.2449 23.735 22.2976C23.735 22.3765 23.6864 22.4555 23.662 22.4818L23.6377 22.4555L23.589 22.5871C23.6377 22.6134 23.662 22.4555 23.6864 22.5871C23.662 22.6134 23.6864 22.745 23.662 22.745C23.6134 22.6923 23.5161 22.7187 23.5161 22.6397C23.5161 22.7187 23.5404 23.0082 23.6134 22.8766V22.9819C23.662 22.9292 23.7107 22.745 23.735 22.9555H23.7107L23.7837 23.0871L23.7107 23.0082C23.735 23.0082 23.7593 23.0345 23.735 23.0608C23.7107 23.0608 23.6864 23.1135 23.662 23.0871C23.662 23.2187 23.6864 23.2187 23.7107 23.2187C23.7107 23.2977 23.6864 23.2977 23.6377 23.2714C23.6134 23.3503 23.5647 23.5082 23.4917 23.5346C23.4674 23.6662 23.5161 23.5082 23.5404 23.6135C23.3701 23.6398 23.2971 23.9294 23.1512 24.0609C23.2728 24.1399 23.1268 24.1136 23.1755 24.2452C23.1755 24.1925 22.9565 24.2715 23.0782 24.1399C23.0538 24.1662 23.0295 24.1925 23.0052 24.2189C22.9565 24.1925 22.9809 24.1662 23.0052 24.1399C23.0295 24.1136 23.0295 24.0609 22.9565 24.0609C22.8836 24.1136 22.8836 24.2978 22.7376 24.3241C22.7376 24.2189 22.6646 24.4031 22.6403 24.2715C22.6403 24.2189 22.6889 24.2189 22.7133 24.1925H22.6889C22.47 24.2452 22.6646 24.3241 22.5673 24.4294C22.4213 24.4821 22.4457 24.3768 22.4213 24.3241C22.397 24.2978 22.324 24.3241 22.2997 24.3768C22.3727 24.2978 22.47 24.4031 22.4457 24.4821C22.3727 24.3768 22.2267 24.5084 22.1781 24.5347C22.4213 24.64 22.324 24.5347 22.5673 24.6137C22.5916 24.561 22.5673 24.4821 22.6889 24.4821C22.6403 24.5873 22.7133 24.561 22.7376 24.5873C22.6889 24.5347 22.8106 24.5347 22.8349 24.4821C22.8836 24.5084 22.8106 24.64 22.9565 24.6137L22.9322 24.4821C22.9809 24.4821 22.9565 24.5873 23.0538 24.5084C23.0295 24.6137 23.1268 24.6137 22.9809 24.6926C23.2241 24.6926 23.2241 24.4557 23.2971 24.3241C23.2971 24.3505 23.2971 24.3505 23.2971 24.3768C23.2971 24.3241 23.3458 24.2978 23.3701 24.2452C23.4674 24.1925 23.3458 24.3505 23.3944 24.3505C23.4431 24.2978 23.4674 24.2715 23.5161 24.2189C23.5404 24.1662 23.5404 24.1399 23.589 24.1399C23.589 24.2189 23.6134 24.2452 23.6134 24.2978C23.6377 24.2189 23.662 24.1662 23.662 24.0873C23.6864 24.1399 23.808 24.0083 23.7593 24.1399C23.808 24.0609 23.8566 23.9557 23.9053 23.8767L24.0026 23.903C24.0269 23.8241 24.0026 23.8241 23.9539 23.903C23.9783 23.8504 24.0026 23.7451 24.0026 23.6398C24.0026 23.5346 24.0269 23.4819 24.0999 23.5346C24.0999 23.403 24.0999 23.324 24.0999 23.2451C24.0999 23.1661 24.1242 23.0608 24.0999 22.9292C24.1729 23.1398 24.2215 22.6923 24.2459 22.9029C24.2945 22.7713 24.1972 22.745 24.1729 22.6397C24.2215 22.5344 24.2945 22.5871 24.3189 22.6923L24.2702 22.5608H24.2945L24.2459 22.4555C24.2945 22.3502 24.3432 22.4292 24.3432 22.3239L24.2702 22.2976L24.3189 22.2186C24.2945 22.2449 24.2702 22.1923 24.2702 22.087H24.2945L24.2702 21.9817C24.3189 22.087 24.2945 21.8765 24.3432 21.9291C24.3432 21.8501 24.3432 21.8501 24.3432 21.6922L24.2945 21.7185C24.2459 21.508 24.3675 21.7185 24.3675 21.5343H24.2945C24.3918 21.2974 24.2459 21.1132 24.2945 20.9553C24.3189 21.0606 24.3918 21.0342 24.3675 21.0342C24.3432 20.8763 24.3675 20.6394 24.2945 20.4815C24.3918 20.4289 24.4162 20.4026 24.4405 20.2447C24.4405 20.1131 24.4162 20.1131 24.3675 20.0604C24.3918 19.9551 24.3432 19.7183 24.4162 19.7183C24.3675 19.692 24.4162 19.613 24.3918 19.5604L24.4162 19.534H24.3432C24.4891 19.3235 24.2702 19.1919 24.3918 18.9813L24.4162 19.0077L24.3918 18.9287C24.4162 18.9024 24.4405 18.955 24.4648 18.955V18.5602L24.4162 18.6392C24.4162 18.5602 24.3432 18.5076 24.3918 18.4023C24.4891 18.5602 24.3918 18.2707 24.4648 18.2444L24.4891 18.3234C24.4891 18.2181 24.4891 18.2181 24.4162 18.2181C24.3918 18.0602 24.5378 18.1128 24.4648 17.9812V18.0865C24.4405 18.1128 24.3675 18.0338 24.3918 17.9812C24.3918 17.9549 24.4405 17.9286 24.4405 17.9812C24.4162 17.8496 24.4405 17.6917 24.4162 17.6127C24.4405 17.5601 24.4891 17.5601 24.4891 17.6127C24.4405 17.3495 24.4891 17.5075 24.4405 17.2443H24.4648L24.4162 17.1653L24.4891 17.0337L24.4405 17.0863C24.4405 17.0074 24.4162 16.9548 24.4405 16.8495L24.4891 16.9021C24.4648 16.7705 24.4891 16.7179 24.5135 16.6389C24.5378 16.56 24.5378 16.4547 24.4891 16.3231C24.4891 16.2968 24.5135 16.3494 24.5378 16.3757C24.4162 16.1125 24.6108 16.1389 24.4405 15.902C24.4648 15.902 24.4648 15.8757 24.4891 15.8757C24.4648 15.8493 24.4405 15.7967 24.4162 15.7704L24.4891 15.7441L24.4162 15.6651L24.4648 15.5598C24.4405 15.5598 24.4405 15.5335 24.4162 15.5335C24.4405 15.4546 24.4162 15.3756 24.3918 15.2703C24.3432 15.1914 24.3189 15.1124 24.2945 15.0071L24.2459 15.0861C24.0513 14.9545 23.9053 14.7439 23.735 14.5334C23.5647 14.3228 23.3458 14.1123 23.0782 14.0596L23.1025 13.9807C23.0295 13.9807 22.9565 13.9807 22.8592 13.9807C22.7619 13.9017 22.9565 13.928 22.9322 13.9017C22.6889 13.8754 22.8106 13.9807 22.543 13.9544C22.4213 13.8754 22.5916 13.9017 22.6646 13.9017C22.543 13.9017 22.3727 13.9017 22.2267 13.9017C22.0808 13.9017 22.0078 13.9017 21.9348 13.8754V13.9017C21.8132 13.928 21.6429 13.9017 21.4969 13.9017C21.4969 13.8754 21.5456 13.8491 21.5699 13.8491C21.5212 13.8491 21.4483 13.8228 21.3996 13.8491L21.4483 13.7964C21.351 13.7701 21.132 13.8491 21.1077 13.7701C21.132 13.7964 21.1077 13.8491 21.0104 13.8491C20.9617 13.7438 20.7671 13.9017 20.5968 13.8228C20.6455 13.8228 20.7671 13.7964 20.7184 13.7964C20.6455 13.7701 20.5725 13.8228 20.4995 13.8491L20.5238 13.7964L20.1833 13.8491C20.1346 13.7438 19.8427 13.8754 19.867 13.7701C19.7454 13.7701 19.9643 13.8228 19.8183 13.8228C19.7697 13.7701 19.6724 13.8491 19.6724 13.7701H19.6967H19.5751L19.6481 13.6912C19.5507 13.7175 19.4778 13.7701 19.4778 13.8491C19.3805 13.7964 19.2588 13.8491 19.2102 13.7701L19.2832 13.7964C19.0399 13.8228 18.8696 13.5859 18.675 13.7175C18.6506 13.7175 18.6506 13.6912 18.6993 13.6912H18.5533L18.602 13.6385L18.3344 13.7175V13.6912C18.1641 13.6648 17.8965 13.6912 17.6776 13.7175L17.7019 13.6912C17.4586 13.7438 17.4829 13.6648 17.2883 13.6912C17.2883 13.6912 17.2883 13.6648 17.3127 13.6648H17.1667L17.191 13.6385C17.0694 13.7175 16.8504 13.5333 16.9234 13.6122C16.8504 13.6385 16.7531 13.6912 16.7288 13.7438C16.5585 13.7438 16.6802 13.6912 16.5828 13.6648C16.4612 13.6648 16.4369 13.7175 16.2666 13.6912V13.6648C16.1936 13.6648 16.145 13.6912 16.0233 13.7175L16.0476 13.6912C15.8774 13.7701 15.8287 13.5859 15.6827 13.7438C15.6098 13.7175 15.4638 13.7438 15.4638 13.6648C15.2449 13.7175 15.0746 13.7438 14.8556 13.7701C14.8313 13.6385 14.807 13.7701 14.6853 13.7175V13.7964C14.3691 13.7964 14.0042 13.6385 13.6636 13.6648V13.5859L13.5906 13.6648C13.2257 13.5859 12.7392 13.5596 12.4472 13.5596C12.3986 13.5859 12.3256 13.6122 12.277 13.6385C12.2526 13.6385 12.204 13.6648 12.1796 13.6648C12.131 13.6648 12.0823 13.6648 12.0094 13.6648H12.0337C11.6201 13.6912 11.2552 13.8491 10.866 14.0333C10.866 14.007 10.8417 14.007 10.866 13.9544C10.793 14.0596 10.647 14.086 10.5741 14.1386C10.6227 14.1386 10.647 14.1123 10.6957 14.1123C10.6227 14.2439 10.4524 14.2965 10.3794 14.3228L10.2821 14.5071C10.2578 14.5071 10.2578 14.5071 10.2335 14.5071V14.5597L10.1118 14.586C10.0875 14.6387 9.94155 14.8755 9.96588 14.9808C9.94155 14.9808 9.81992 15.1387 9.86857 14.9808C9.74693 15.1914 9.6253 15.4019 9.55232 15.6388L9.6253 15.5335C9.69828 15.5335 9.64963 15.7704 9.60097 15.8757C9.60097 15.7441 9.52799 15.8493 9.45501 15.902C9.45501 16.0073 9.52799 15.823 9.55232 15.902C9.55232 16.0336 9.55232 16.2968 9.52799 16.3494C9.52799 16.3231 9.50366 16.2968 9.50366 16.2705C9.50366 16.3494 9.47934 16.4284 9.45501 16.481C9.43068 16.5073 9.43068 16.5336 9.40636 16.5863C9.40636 16.6126 9.38203 16.6389 9.38203 16.6652C9.43068 16.7705 9.38203 16.8495 9.50366 16.8232C9.52799 16.9811 9.43068 16.8758 9.43068 16.9284C9.47934 17.0074 9.45501 17.2179 9.40636 17.2443C9.55232 17.3232 9.3577 17.6654 9.47934 17.6917L9.40636 17.8233C9.43068 17.8233 9.52799 17.8496 9.52799 17.9549C9.47934 18.0602 9.43068 18.0338 9.38203 18.0602L9.50366 18.1128C9.3577 18.6655 9.45501 19.4024 9.33337 20.0078C9.3577 20.271 9.43068 20.6131 9.40636 20.9553L9.38203 20.929L9.3577 21.2448L9.40636 21.0079C9.43068 21.0869 9.45501 21.1395 9.45501 21.1922C9.40636 21.5343 9.33337 22.008 9.40636 22.4292C9.55232 22.7187 9.26039 22.6134 9.38203 22.8766C9.3577 22.8503 9.3577 22.8239 9.33337 22.8239C9.38203 23.2187 9.45501 23.4556 9.64963 23.8241C9.50366 23.8241 9.74693 24.0609 9.64963 24.0609H9.72261C9.72261 24.1662 9.79559 24.3505 9.74693 24.3505L9.8929 24.4557L9.84424 24.5084C9.91722 24.6137 10.0145 24.7452 10.1362 24.8768C10.2578 25.0084 10.3551 25.14 10.3551 25.219C10.5984 25.3769 10.939 25.5611 11.3039 25.6927C11.4012 25.7191 11.4985 25.7454 11.5715 25.7717C11.6688 25.798 11.7661 25.798 11.8634 25.8243C11.9607 25.8243 12.058 25.8507 12.131 25.8507C12.204 25.8507 12.2526 25.8507 12.3256 25.8507C12.3986 25.798 12.5445 25.798 12.6419 25.798L12.7635 25.877C12.8851 25.8507 12.9824 25.7454 13.1041 25.798C13.1041 25.798 13.1041 25.8243 13.0797 25.8243C13.2014 25.798 13.2987 25.8507 13.396 25.7717C13.5176 25.7717 13.6393 25.8243 13.6149 25.9033C13.6149 25.7717 13.8825 25.9296 13.8825 25.9296C13.8825 25.9296 20.2562 26.2454 21.8132 25.5348C21.8618 25.4822 22.0078 25.4295 21.9591 25.3506C22.0808 25.3243 22.1294 25.4295 22.1537 25.3769C22.0078 25.3243 22.2024 25.219 22.0564 25.1137L22.1537 25.0874C22.1781 25.0348 22.0321 25.14 22.0564 25.0611L22.0321 25.1927C21.9591 25.1664 21.9105 25.14 21.8861 25.1137C21.8132 25.1664 21.7645 25.3243 21.5942 25.2453H21.6429C21.4969 25.2453 21.5456 25.1664 21.5212 25.14H21.5456L21.4239 25.0874C21.5212 25.14 21.6672 25.0348 21.5942 25.0348C21.4239 25.0084 21.6429 25.0611 21.5212 25.0874C21.4483 25.0874 21.4726 25.0348 21.4726 24.9821H21.3266C21.3266 24.9295 21.4239 24.9821 21.351 24.9295L21.1807 24.9821C21.1563 24.8505 20.986 25.0611 20.9131 24.9032C21.0347 24.8768 20.9131 24.8505 20.9131 24.7979H20.5968C20.5725 24.7716 20.6698 24.7452 20.6211 24.7716C20.5725 24.7716 20.5482 24.8505 20.5238 24.8505C20.4995 24.7979 20.2806 24.8505 20.3049 24.7452C20.0859 24.6926 20.2076 24.8768 20.013 24.8242C19.9886 24.7716 20.1589 24.7979 20.0859 24.7452L19.8913 24.7716C19.9157 24.7452 19.94 24.6663 20.013 24.6926C19.4534 24.6137 19.1615 24.2978 18.6506 24.3768C18.5777 24.2978 18.6993 24.3241 18.748 24.2978C18.383 24.3768 18.2371 24.1399 17.9208 24.1662V24.2189C17.4829 24.0346 16.9721 24.1399 16.4612 24.0609L16.5099 24.1136C16.4369 24.1662 16.3396 24.1662 16.2423 24.1925C16.2179 24.1662 16.2909 24.0609 16.1693 24.0873C16.1936 24.1136 16.2666 24.1399 16.2423 24.1662C15.8287 24.0083 14.9286 24.0609 14.2231 23.982C13.7609 24.0083 13.2744 23.982 12.7878 23.982L12.4229 23.9557C12.3013 23.9557 12.1553 23.9557 12.1067 23.9294C11.985 23.9294 11.8634 23.8767 11.7661 23.8241C11.8391 23.8504 11.7661 23.982 11.7174 23.903C11.6931 23.7714 11.6444 23.7451 11.5715 23.6925C11.4985 23.6662 11.4255 23.6398 11.4498 23.5082C11.3282 23.4293 11.3039 23.2714 11.2795 23.1398C11.2795 23.0608 11.2552 23.0082 11.2552 22.9292C11.2552 22.9029 11.2309 22.8766 11.2309 22.8239C11.2309 22.745 11.2066 22.6923 11.1822 22.6134H11.2552C11.2795 22.5344 11.2309 22.5081 11.2309 22.4292H11.2552C11.2795 22.2186 11.2066 21.9817 11.2552 21.8765H11.1822C11.1822 21.7449 11.2309 21.8238 11.2066 21.6922H11.2309L11.1579 21.5606C11.2795 21.5869 11.1579 21.2185 11.2309 21.1395C11.2066 20.9816 11.1579 20.6921 11.1822 20.4552C11.2552 20.4026 11.2552 20.1131 11.2795 19.9551C11.2552 19.5867 11.2552 19.0866 11.2552 18.6392H11.1822V18.5339C11.2066 18.5339 11.2066 18.5076 11.2066 18.5339C11.3039 18.4549 11.1822 18.2707 11.2309 18.1654C11.1579 18.2181 11.2309 18.2444 11.2066 18.3234C11.1579 18.4286 11.0849 18.3234 11.1336 18.1918H11.1579L11.1093 18.1128C11.1822 18.1128 11.2066 18.0338 11.2552 18.0075C11.2309 17.6127 11.1336 17.3495 11.1579 16.9548C11.2309 17.0074 11.1336 16.6652 11.2552 16.7442C11.2066 16.5073 11.1579 16.7968 11.0606 16.6652C11.0606 16.5863 11.0363 16.56 11.0849 16.56C11.1093 16.5863 11.1579 16.5336 11.1579 16.56C11.1579 16.5336 11.1579 16.5073 11.1579 16.481L11.1822 16.5073C11.1579 16.4284 11.1822 16.3494 11.2309 16.2705C11.2795 16.1915 11.3282 16.1389 11.3282 16.0599C11.3039 16.0336 11.2795 16.1125 11.2552 16.0599C11.2552 15.8757 11.3768 15.9809 11.4255 15.823L11.4498 15.902C11.4498 15.8493 11.4255 15.7704 11.5228 15.7704C11.5715 15.823 11.5228 15.8493 11.5228 15.902C11.5471 15.8757 11.6201 15.7704 11.5715 15.7441C11.5958 15.6914 11.6688 15.7177 11.6931 15.7177C11.6931 15.6914 11.6201 15.6914 11.6201 15.6651C11.7174 15.6651 11.8147 15.5862 11.912 15.5862C11.912 15.6125 11.9364 15.6388 11.9364 15.6388C11.9607 15.5335 11.985 15.6914 12.0823 15.6651Z" fill="#FF4651"/>
<path d="M29.0569 19.6133C29.1683 19.6412 29.0848 19.6133 29.0848 19.5576L29.0569 19.6133Z" fill="#FF4651"/>
<path d="M29.0848 19.5601L29.1127 19.5322C29.0848 19.5322 29.0848 19.5601 29.0848 19.5601Z" fill="#FF4651"/>
<path d="M29.1682 19.1963C29.2518 19.2799 29.1403 19.3914 29.2797 19.4471C29.3633 19.3356 29.3075 19.2242 29.1682 19.1963Z" fill="#FF4651"/>
<path d="M29.0568 19.3326H29.1404L29.0289 19.249L29.0568 19.3326Z" fill="#FF4651"/>
<path d="M29.0012 19.3605H29.029L28.9454 19.249L29.0012 19.3605Z" fill="#FF4651"/>
<path d="M29.224 18.8896L29.2519 18.9732C29.1404 19.0568 29.1125 18.9175 29.0289 18.9732C29.0289 19.0847 29.2519 19.0011 29.224 19.1404C29.3355 19.1404 29.224 18.9175 29.3912 18.9454C29.4191 18.8339 29.2797 18.9454 29.224 18.8896Z" fill="#FF4651"/>
<path d="M27.3292 16.1865C27.3013 16.1865 27.2734 16.1865 27.2734 16.2144C27.3013 16.2144 27.3013 16.2144 27.3292 16.2144V16.1865Z" fill="#FF4651"/>
<path d="M28.3601 15.0713C28.3601 15.0992 28.3601 15.127 28.3601 15.1549C28.388 15.127 28.388 15.0992 28.3601 15.0713Z" fill="#FF4651"/>
<path d="M24.6261 21.4238C24.6261 21.4238 24.5983 21.4238 24.5983 21.4517L24.6261 21.4238Z" fill="#FF4651"/>
<path d="M26.4655 17.5801C26.4655 17.6079 26.4376 17.6079 26.4376 17.6358C26.4655 17.6079 26.4655 17.5801 26.4655 17.5801Z" fill="#FF4651"/>
<path d="M29.3913 17.5499C29.4191 17.522 29.3913 17.4941 29.3634 17.4941C29.3634 17.522 29.3634 17.522 29.3913 17.5499Z" fill="#FF4651"/>
<path d="M29.3911 17.4954C29.4468 17.4397 29.6418 17.4397 29.4468 17.3839H29.4189C29.4747 17.3561 29.3911 17.3003 29.3632 17.2725C29.3353 17.2725 29.3353 17.2725 29.3075 17.2725C29.3075 17.3003 29.3075 17.3282 29.2796 17.3561C29.2239 17.4118 29.3353 17.4397 29.3911 17.4954Z" fill="#FF4651"/>
<path d="M27.8027 15.4053C27.8306 15.461 27.8306 15.4331 27.8027 15.4053V15.4053Z" fill="#FF4651"/>
<path d="M28.0524 15.1005C28.0524 15.1005 28.0262 15.0743 28.0524 15.1005C28.0262 15.1005 28.0262 15.1005 28.0524 15.1005Z" fill="#FF4651"/>
<path d="M29.9206 23.2359C29.9485 23.2917 29.8928 23.3195 29.8649 23.3753C30.0042 23.5146 29.8649 23.0966 30.0042 23.3195C30.0042 23.2638 29.9764 23.2081 29.9764 23.1523C29.9206 23.1802 29.8928 23.2081 29.837 23.2359C29.8928 23.3753 29.8649 23.1802 29.9206 23.2359Z" fill="#FF4651"/>
<path d="M24.6821 21.9279C24.6542 21.9557 24.6263 21.9557 24.6263 22.0393C24.7378 22.0115 24.7935 21.8721 24.9329 21.8721C24.905 21.8721 24.905 21.8443 24.905 21.8164C24.8493 21.8721 24.7657 21.9 24.6821 21.9279Z" fill="#FF4651"/>
<path d="M24.9048 21.7882C24.9048 21.7603 24.9327 21.7603 24.9327 21.7603V21.7324C24.9048 21.7324 24.9048 21.7603 24.9048 21.7882Z" fill="#FF4651"/>
<path d="M29.3912 24.9902C29.3633 24.9902 29.3633 25.0181 29.3354 25.0181C29.3912 25.046 29.3912 25.0181 29.3912 24.9902Z" fill="#FF4651"/>
<path d="M24.2639 21.232C24.2639 21.2042 24.2639 21.2042 24.2639 21.1763C24.2639 21.1763 24.2639 21.1763 24.2361 21.1484L24.2639 21.232Z" fill="#FF4651"/>
<path d="M26.9945 22.4004C26.8552 22.484 27.0224 22.4004 26.9945 22.5119H27.0781C27.0781 22.4283 27.0224 22.4283 26.9945 22.4004Z" fill="#FF4651"/>
<path d="M24.7378 21.507L24.6263 21.3398V21.3956C24.7099 21.3956 24.6542 21.5349 24.7378 21.507Z" fill="#FF4651"/>
<path d="M26.521 21.6758L26.5768 21.5922C26.2981 21.5643 26.3538 21.2021 26.0473 21.2857C26.1309 20.8956 25.7129 21.3693 25.7965 21.007L25.7686 21.0349C25.5457 20.7284 25.3507 20.4218 25.1277 20.1153L25.0441 20.0038C25.0163 19.976 24.9884 19.9202 24.9884 19.9202C24.9884 19.9202 24.9884 19.8924 24.9605 19.8924C24.9327 19.8367 24.8769 19.7809 24.8491 19.7252H24.9048C24.9048 19.6416 24.9327 19.558 24.9605 19.5023C24.9884 19.4465 25.0163 19.4187 25.0163 19.3908C25.4621 18.8613 25.8801 18.304 26.3817 17.7746C26.4096 17.6631 26.2424 17.6074 26.2424 17.4959C26.2702 17.468 26.326 17.4123 26.3817 17.4402C26.3538 17.5238 26.4374 17.5516 26.4653 17.5795C26.5489 17.468 26.7161 17.4123 26.7161 17.273H26.5768C26.5768 17.2173 26.6325 17.1894 26.6604 17.1615C26.6882 17.2173 26.8275 17.2451 26.7997 17.273C26.744 16.9386 26.9947 17.2173 27.0505 16.9943C26.9111 16.8271 26.9111 16.5206 26.9111 16.2977L27.0226 16.2698C26.939 16.3534 27.1619 16.3813 27.0505 16.4649C27.1619 16.4091 27.1619 16.2698 27.2734 16.2141C27.2177 16.1862 27.1619 16.1305 27.1619 16.1026C27.2177 16.0748 27.3291 16.1305 27.3849 16.0748V16.1862C27.4685 16.2141 27.4127 16.1026 27.4406 16.0469C27.5242 16.1026 27.6078 16.019 27.6635 16.1026C27.6635 16.0748 27.6635 16.0469 27.6635 16.019C27.6635 15.9912 27.6635 15.9912 27.6635 15.9633C27.6635 15.9633 27.6635 15.9354 27.6357 15.9076C27.5521 15.8518 27.5521 15.7961 27.4963 15.7404V15.824C27.5799 15.824 27.4963 15.8518 27.6078 15.9633C27.5521 15.9633 27.5242 15.9076 27.4963 15.8518C27.4685 15.824 27.4406 15.7682 27.4127 15.824C27.4406 15.6846 27.4685 15.7404 27.4685 15.5453C27.4406 15.6289 27.4127 15.4338 27.357 15.4338C27.4127 15.3502 27.4127 15.4617 27.4685 15.5453C27.4685 15.5453 27.4685 15.5453 27.4963 15.5453C27.5242 15.5453 27.5521 15.5732 27.5242 15.4338C27.5799 15.4338 27.5799 15.5732 27.6078 15.601C27.6357 15.6568 27.5799 15.6568 27.5521 15.6846C27.5242 15.7125 27.5242 15.7404 27.6357 15.9076C27.6357 15.9354 27.6914 16.0469 27.6914 16.0469C27.7471 16.0748 27.8029 16.1584 27.775 16.0748L27.6635 15.9076C27.6635 15.9076 27.6635 15.8797 27.6635 15.8518C27.6357 15.7961 27.6357 15.7404 27.6357 15.7682C27.6635 15.824 27.6914 15.9076 27.7193 15.8797C27.7471 15.7961 27.7471 15.824 27.7471 15.7682C27.775 15.7404 27.7193 15.5732 27.7471 15.4896C27.6914 15.4617 27.6635 15.406 27.6078 15.3781C27.5521 15.2109 27.6357 15.3224 27.6635 15.2666C27.6635 15.2945 27.6635 15.2945 27.6914 15.3224V15.2109C27.775 15.2109 27.7471 15.4617 27.8029 15.4896C27.8586 15.6289 27.8307 15.3781 27.8586 15.4338C27.8586 15.406 27.8586 15.406 27.8586 15.3781C27.8865 15.3224 27.9143 15.3224 27.9422 15.183C27.9422 15.2388 27.9701 15.1552 27.9979 15.0994C27.9979 15.0716 28.0258 14.988 28.0536 14.9601C28.0815 14.9323 28.1094 14.9601 28.1094 15.0716C28.1651 15.0994 28.193 15.183 28.1372 15.2666C28.1651 15.2945 28.1651 15.3224 28.193 15.3502L28.0536 15.5732C28.1094 15.5453 28.1372 15.4338 28.2766 15.2666C28.2766 15.406 28.3602 15.3781 28.4159 15.3781C28.4159 15.3781 28.4159 15.406 28.4438 15.406L28.4716 15.3224C28.4995 15.3781 28.5552 15.2945 28.5831 15.3502C28.5831 15.3224 28.5831 15.3224 28.5831 15.3781V15.406C28.5831 15.406 28.5552 15.406 28.5831 15.3781L28.5552 15.4338C28.4438 15.601 28.6667 15.4338 28.6388 15.5453H28.611C28.5831 15.601 28.4159 15.7682 28.5274 15.7125C28.5274 15.7404 28.5274 15.7125 28.5552 15.7125L28.5274 15.7404C28.5274 15.7404 28.5274 15.7125 28.5552 15.7125C28.5831 15.7125 28.6388 15.6846 28.611 15.7125C28.611 15.7404 28.611 15.7682 28.5831 15.7961C28.5552 15.824 28.5831 15.824 28.611 15.8518L28.5552 15.8797C28.5552 15.9076 28.5274 15.9076 28.5274 15.9076C28.3323 16.0469 28.6388 16.019 28.4716 16.1584C28.5552 16.1862 28.611 16.1305 28.6667 16.1026C28.7503 16.1305 28.806 16.2141 28.8618 16.2698C28.7224 16.3534 28.611 16.5763 28.4438 16.5485C28.4159 16.6878 28.5552 16.4927 28.611 16.5763V16.6042C28.6388 16.5485 28.6946 16.5206 28.7782 16.4927C28.8896 16.4927 28.9175 16.6042 28.8896 16.6321L28.7503 16.6042C28.806 16.7435 29.029 16.7157 29.1683 16.7993C29.1126 16.9107 28.9732 16.855 28.8618 16.855L28.8896 16.9665H28.7782C28.806 17.0501 28.9175 17.0501 28.8618 17.1615C28.7503 17.0779 28.7503 17.3009 28.6388 17.2173C28.611 17.273 28.806 17.3009 28.6667 17.3287C28.7782 17.3566 28.7224 17.273 28.7503 17.2451C28.9175 17.2173 28.8339 17.3566 28.8618 17.4402C28.7782 17.4402 28.7503 17.3845 28.6946 17.468C28.7503 17.4959 28.806 17.5238 28.7224 17.5795C28.8339 17.5795 28.7503 17.6631 28.7503 17.7188C28.7782 17.6631 28.8618 17.6074 28.9454 17.6352C29.0011 17.6631 29.0011 17.7188 29.0011 17.8024L29.0568 17.7467C29.224 17.8303 28.9454 17.886 29.0011 17.9696C28.9454 17.9139 28.9454 17.886 28.8618 17.8582C28.9175 17.9139 29.0011 17.9975 29.029 18.0811L28.8618 18.1647C28.9454 18.1647 28.8618 18.2762 28.9732 18.2762C28.8896 18.3876 28.8339 18.1926 28.7782 18.1647C28.6946 18.304 28.9454 18.2762 28.806 18.4155L28.6946 18.3598C28.6946 18.4155 28.7503 18.4991 28.6946 18.4991C28.7224 18.4991 28.7224 18.4712 28.7224 18.4434C28.9454 18.4712 28.8618 18.6384 29.0847 18.6384L29.1126 18.5827C29.1683 18.6663 29.3076 18.7499 29.224 18.8056C29.1404 18.8613 29.0847 18.7777 29.029 18.722C29.0011 18.8056 29.2798 18.8056 29.2519 18.8892C29.2798 18.8335 29.3633 18.8335 29.4191 18.8892C29.4469 18.8335 29.4748 18.6941 29.3912 18.722L29.3633 18.7499C29.3076 18.7499 29.2798 18.722 29.2519 18.6941C29.2519 18.6106 29.3633 18.6663 29.3912 18.6384C29.4191 18.4991 29.1683 18.6384 29.1683 18.4991L29.224 18.4712C29.1683 18.4155 29.1683 18.3319 29.029 18.304C29.1683 18.2483 28.9732 18.1647 29.0568 18.109C29.3633 18.109 29.029 18.3319 29.1962 18.3876C29.2519 18.3319 29.3355 18.4155 29.4191 18.4434L29.2797 18.2483C29.3355 18.2204 29.4748 18.1647 29.3633 18.1368V18.1647C29.3355 18.0811 29.1962 18.109 29.2519 18.0254C29.2798 18.0254 29.3355 18.0254 29.3633 18.0532C29.3912 17.9975 29.2798 17.9975 29.2519 17.9418C29.2798 17.886 29.3912 17.9696 29.4191 17.9139C29.3076 17.8303 29.4469 17.8024 29.4469 17.7188C29.2797 17.7467 29.1962 17.468 29.0568 17.6074L28.9454 17.4402C29.029 17.3845 29.1962 17.5516 29.3355 17.4959V17.6352C29.5584 17.6074 29.1962 17.3845 29.4469 17.3009C29.4469 17.2451 29.4191 17.2451 29.5305 17.1337L29.3355 17.1615C29.3912 17.1058 29.5027 17.0779 29.5305 17.0779C29.5305 17.0501 29.5305 16.9943 29.5305 16.9665C29.5584 16.9665 29.5863 16.9943 29.5863 17.0222C29.6977 16.9665 29.642 16.9665 29.5863 16.9386C29.4191 16.8829 29.4191 16.8271 29.4191 16.7993L29.5027 16.8271C29.4748 16.7993 29.4748 16.7714 29.4191 16.7714C29.4191 16.7435 29.4191 16.7435 29.3912 16.7157C29.3633 16.7157 29.2519 16.7435 29.1962 16.7993C29.2797 16.6599 29.224 16.5206 29.3912 16.4091C29.4469 16.4091 29.5305 16.4649 29.5305 16.4649C29.5584 16.4091 29.4469 16.3255 29.3633 16.3255C29.3633 16.2977 29.3633 16.2977 29.3633 16.2977C29.4191 16.2977 29.4748 16.2698 29.4748 16.2419C29.5027 16.2419 29.5027 16.2141 29.5027 16.2141C29.4191 16.1862 29.3912 16.1862 29.3912 16.1305C29.3912 16.0748 29.3912 16.019 29.3355 16.019C29.3076 16.0469 29.3076 16.1026 29.3355 16.1584C29.224 16.0748 29.1126 16.0469 29.1962 15.9912C29.3076 16.1026 29.3633 15.824 29.3912 16.019C29.5863 15.8518 29.2519 15.9633 29.3076 15.7961L29.4191 15.6568C29.5305 15.6289 29.4748 15.7961 29.5305 15.7682L29.5027 15.7125C29.5584 15.7404 29.5584 15.824 29.5584 15.9354C29.5584 16.019 29.5863 16.1862 29.642 16.2141L29.6977 16.1305L29.7256 16.0469L29.7535 15.8518C29.7256 15.7404 29.6977 15.6289 29.6699 15.4896C29.642 15.3781 29.6141 15.2666 29.5863 15.1273C29.5305 14.9044 29.4191 14.7093 29.224 14.6815C29.224 14.6815 29.1962 14.7093 29.1683 14.7372V14.7093C29.1404 14.7093 29.1126 14.7093 29.0847 14.7093C29.1126 14.57 29.0568 14.4307 29.029 14.2913C29.029 14.4028 29.029 14.4028 29.0011 14.4864C28.9175 14.57 28.8896 14.5979 28.8618 14.4864C28.8896 14.4028 28.9454 14.4585 28.9175 14.3471C28.9175 14.4028 28.8618 14.4307 28.8339 14.4028C28.8339 14.3192 28.7503 14.2356 28.7782 14.1799C28.806 14.1799 28.806 14.2077 28.8339 14.2356C28.8618 14.2356 28.7782 14.0963 28.8618 14.0963L28.7503 14.0684C28.7503 13.9569 28.8618 13.9848 28.8618 13.9291C28.6667 13.8733 28.5274 14.0127 28.3602 14.0405C28.388 14.0127 28.4159 13.8176 28.4159 13.8733C28.2766 13.7897 28.1094 14.0405 27.9701 14.0963C27.9979 14.0405 28.0536 14.0405 28.0815 14.0127C27.8586 14.0127 27.6914 14.0405 27.5242 14.1241C27.357 14.1799 27.1898 14.2913 26.9669 14.3749V14.4028C26.9669 14.4864 26.9669 14.57 26.9669 14.6536C26.9111 14.6536 26.8554 14.6536 26.7997 14.6536C26.6882 14.7372 26.6046 14.8208 26.521 14.9044C26.4653 14.9601 26.4653 14.988 26.4374 15.0158C26.4096 15.0437 26.3817 15.0716 26.3817 15.0994C26.2981 15.2109 26.2424 15.3502 26.1588 15.4896C26.103 15.5732 26.0194 15.4617 25.9637 15.4617C25.7965 15.601 25.9358 15.7961 25.8244 15.9633C25.7965 15.9076 25.7129 15.7682 25.6572 15.824C25.685 15.8797 25.7408 15.9354 25.685 15.9633L25.6572 15.9076C25.5736 15.8797 25.6015 15.9912 25.49 16.0469C25.3785 16.1862 25.3507 16.4091 25.4064 16.6599C25.2949 16.7714 25.2671 16.5206 25.2113 16.5206C25.3507 16.4649 25.2392 16.437 25.2113 16.3813C25.2113 16.4649 25.1835 16.5485 25.072 16.4649C25.0163 16.5485 24.9884 16.5485 25.0163 16.6878C25.0163 16.6321 25.0999 16.6321 25.0999 16.7157C25.0163 16.7435 24.9327 16.9107 24.8212 16.7993C24.5704 17.1337 24.2639 17.4402 23.9852 17.8024C24.0131 17.9139 24.041 17.7746 24.0688 17.8582C24.0967 18.0254 23.9574 17.886 23.9852 17.9975L23.9295 17.9139C23.8459 17.9975 23.8738 18.2204 23.8738 18.3598C23.8459 18.3319 23.818 18.3319 23.7902 18.3319C23.7623 18.3319 23.7623 18.3319 23.7623 18.304V18.2762H23.7344C23.623 18.2762 23.2886 18.1926 23.3164 18.304C23.4558 18.3598 23.5951 18.3876 23.7344 18.4434C23.7623 18.4712 23.6787 18.5548 23.7066 18.5548C23.5951 18.5827 23.4558 18.6106 23.4279 18.6663C23.3164 18.6384 23.4 18.527 23.4558 18.4434C23.2886 18.3319 23.205 18.6384 23.1214 18.4712C23.0657 18.6663 23.205 18.4991 23.2328 18.6106C23.205 18.6663 23.1771 18.6941 23.1493 18.7499C23.1771 18.722 23.205 18.6941 23.2607 18.6663C23.2607 18.8056 23.3722 18.8892 23.2328 19.0007C23.2607 19.0564 23.3164 19.14 23.3722 19.1957C23.2328 19.1957 23.3164 19.3072 23.2886 19.3629L23.205 19.3072C23.205 19.4187 23.1771 19.4465 23.1214 19.5301C23.0099 19.4465 23.1493 19.4187 23.0378 19.3908C23.0099 19.4187 23.0099 19.4744 22.9821 19.5023C23.0657 19.5023 23.1214 19.5859 23.1771 19.5023C23.3164 19.6137 23.4558 19.6695 23.4558 19.9202C23.3443 20.0596 23.3164 19.8088 23.1771 19.8645C23.1493 20.171 23.5951 20.1432 23.623 20.2825C23.623 20.4776 23.7623 20.4218 23.8459 20.589C23.7344 20.589 23.818 20.7562 23.7902 20.8398C23.7344 20.8398 23.7066 20.8398 23.6508 20.812C23.7066 20.8677 23.7344 20.9234 23.6508 20.9513C23.6787 20.9234 23.7066 20.9234 23.7344 20.9513C23.7623 20.9513 23.7623 20.9792 23.7902 20.9792C23.7902 20.9792 23.818 20.9792 23.8459 21.007C23.9016 21.0349 23.9574 21.0906 24.0131 21.1185L24.0967 21.0349C24.1803 21.0628 24.2918 21.1185 24.3475 21.2021C24.4589 21.2857 24.5147 21.2021 24.654 21.1742C24.6261 21.2857 24.5147 21.3414 24.4311 21.425C24.4589 21.3693 24.4032 21.3414 24.3754 21.2857C24.2082 21.2299 23.9574 21.2857 23.8738 21.1185C23.623 21.2299 23.9574 21.1742 23.9574 21.2857H23.9295C23.9295 21.2857 23.9295 21.2857 23.9295 21.3135C23.8738 21.2857 23.7623 21.2578 23.6508 21.3135C23.7344 21.3693 23.9016 21.2021 23.8738 21.3693C23.9852 21.3971 23.8738 21.5643 23.9016 21.6201C24.0131 21.5922 24.1803 21.4529 24.236 21.5922L24.0688 21.6479C24.1803 21.7873 24.2918 21.5643 24.3754 21.6758C24.3475 21.6201 24.5147 21.6201 24.4589 21.5365C24.5425 21.5365 24.6261 21.5922 24.654 21.6758C24.6819 21.6758 24.6819 21.6479 24.7376 21.6201C24.7655 21.4807 24.5704 21.5643 24.6261 21.425L24.4589 21.4807C24.4589 21.3693 24.5425 21.2857 24.6261 21.2857C24.5983 21.2857 24.5704 21.2578 24.5983 21.2299C24.7655 21.0628 24.5983 21.3693 24.7655 21.2578H24.6819C24.7933 21.1463 24.8769 21.2857 24.9048 21.3414C24.9048 21.4529 24.9327 21.5365 24.8491 21.6201L24.7376 21.5643C24.7097 21.6758 24.8769 21.6479 24.9048 21.7037C24.9048 21.7037 24.9048 21.7315 24.8769 21.7315C24.8769 21.7315 24.8769 21.7037 24.9048 21.7037C24.9048 21.7315 24.9048 21.7315 24.9048 21.7594C24.9327 21.8151 25.0441 21.843 25.0441 21.8987L25.1277 21.8151L25.072 21.843C25.0441 21.7873 25.0441 21.7037 25.1277 21.6758C25.2671 21.7315 25.1277 21.8709 25.072 21.9545C24.9327 22.0381 24.9884 21.8709 24.9048 21.843C24.8212 21.9823 24.9605 21.9545 24.9884 22.1217C24.8212 22.2053 24.9048 22.0102 24.7655 22.0938C24.8212 22.1774 24.9048 22.1217 24.9605 22.2331C24.9048 22.261 24.8212 22.2053 24.7376 22.261V22.3446C24.6261 22.2331 24.5983 22.5118 24.4868 22.4282C24.4868 22.5118 24.654 22.4003 24.6261 22.5396C24.654 22.4839 24.7097 22.3446 24.8212 22.3446L24.8491 22.456C24.8212 22.5396 24.654 22.4839 24.6261 22.5954L24.7376 22.6232C24.7655 22.5954 24.7655 22.5396 24.8212 22.5118C24.8212 22.5954 25.0441 22.456 25.1277 22.456C25.1556 22.5118 25.1835 22.5396 25.1556 22.5954C25.3507 22.5954 25.4621 22.7347 25.6572 22.7347C25.5179 22.7347 25.5179 22.8462 25.5179 22.9298C25.4343 22.874 25.3228 22.9576 25.2392 23.0412C25.2949 23.0691 25.4343 23.0134 25.4621 22.9298C25.49 23.0412 25.6014 22.9019 25.5736 23.0412C25.5736 23.1248 25.4343 23.1248 25.4064 23.1806C25.4621 23.2642 25.5736 23.0691 25.6293 23.1806C25.6015 23.1806 25.6014 23.1806 25.5736 23.2084C25.6014 23.292 25.685 23.292 25.7686 23.2363C25.6572 23.4314 25.908 23.3756 25.7408 23.4871C25.8801 23.5707 25.7965 23.4035 25.8801 23.3756C25.9916 23.3756 26.0194 23.515 26.0194 23.5428C25.9916 23.515 25.9358 23.515 25.9358 23.4871L25.8522 23.5985C25.908 23.8215 26.1588 23.4871 26.1866 23.71C26.0752 23.6821 26.0752 23.7657 25.9916 23.7936C26.0473 23.7936 26.103 23.9329 26.1309 23.7936C26.1588 23.8493 26.1866 23.9051 26.1866 23.9608C26.2702 23.9608 26.3538 23.9887 26.4374 23.9608C26.4932 24.0444 26.4653 24.1559 26.4374 24.2395C26.6325 24.3509 26.744 24.6017 26.9111 24.7968C26.9669 24.8525 27.0505 24.9082 27.1062 24.9361L27.0783 24.9082C27.2455 25.1033 27.0783 24.6575 27.2455 24.8246C27.1619 24.9918 27.3291 25.0476 27.357 25.1869C27.4685 25.2984 27.5799 25.3262 27.7193 25.3262C27.8307 25.3262 27.9422 25.3262 28.1094 25.382C28.1094 25.4098 28.1094 25.4656 28.0536 25.4656C28.2766 25.5213 28.4716 25.4656 28.6388 25.382V25.4098C29.0011 25.4098 29.1683 25.0476 29.3355 24.7689C29.3355 24.7968 29.3633 24.8525 29.3633 24.9082C29.4469 24.8525 29.5027 24.7689 29.5584 24.6575C29.6141 24.546 29.6141 24.4345 29.5863 24.3231C29.6977 24.2673 29.6977 24.2395 29.6977 24.1837C29.6977 24.128 29.6977 24.0723 29.8092 23.9887C29.8371 23.9887 29.8371 24.0444 29.8371 24.0444C29.9207 23.9329 29.9207 23.8215 29.9485 23.6543C29.8928 23.4592 29.8371 23.3478 29.7535 23.2084C29.7256 23.1527 29.6977 23.097 29.6977 23.0412C29.6977 22.9855 29.6699 22.9576 29.6977 22.9019C29.9207 22.9019 29.7535 23.0134 29.9485 23.0691C29.9207 22.9855 29.8649 22.9855 29.9207 22.9019C30.0043 22.9298 29.9764 22.9019 30.06 22.9298C30.1157 22.874 29.8092 22.7347 29.8371 22.7347C29.7813 22.7347 29.7813 22.7347 29.7813 22.7904C29.642 22.7347 29.7813 22.5675 29.7256 22.456C29.7256 22.4839 29.6699 22.5954 29.5584 22.5675C29.6141 22.4282 29.3912 22.3724 29.2797 22.2889C29.3912 22.1495 29.4748 22.4003 29.642 22.3724C29.6977 22.3446 29.8371 22.2889 29.8928 22.3446C29.9207 22.2331 29.7813 22.1495 29.7535 22.0381H29.8092C29.7813 21.9823 29.5863 21.843 29.6977 21.7037L29.642 21.7594C29.6141 21.7315 29.6141 21.6479 29.5305 21.6201C29.6141 21.6201 29.6699 21.5365 29.7256 21.5643C29.4748 21.5086 29.5863 21.2299 29.3355 21.1463C29.3912 21.1185 29.5027 21.1463 29.5584 21.1463C29.5305 21.2299 29.5027 21.2857 29.5863 21.3135C29.5863 21.2299 29.642 21.1742 29.6977 21.2021C29.5584 21.1185 29.4748 20.9513 29.3355 20.8956C29.4191 20.8398 29.4469 20.7841 29.5863 20.812C29.5027 20.5612 29.1962 20.9234 29.1962 20.6726C29.3076 20.5612 29.3633 20.7841 29.3912 20.6169L29.4191 20.6448C29.7535 20.5333 29.1962 20.5612 29.1962 20.4218C29.3633 20.394 29.3355 20.5054 29.4469 20.4218C29.3912 20.2825 29.1404 20.2268 29.1962 20.1153L29.2797 20.1432C29.2519 20.0596 29.3076 19.8924 29.2797 19.8367C29.3076 19.8367 29.3076 19.8367 29.3076 19.8645C29.3633 19.7252 29.224 19.8088 29.3355 19.6695L29.2519 19.6416C29.1962 19.6973 29.1126 19.8088 29.1962 19.8924C29.0847 19.8088 28.9732 20.0038 28.8339 19.976L28.8896 20.0038C28.6388 20.1989 28.611 20.4776 28.4995 20.7284C28.6946 20.8956 28.4159 21.007 28.5552 21.1742C28.7503 21.2021 28.5831 21.2021 28.6388 21.3693C28.611 21.2857 28.4716 21.3693 28.4438 21.3971C28.4995 21.425 28.5274 21.4529 28.5274 21.5086C28.4438 21.5365 28.2766 21.7315 28.4438 21.7873C28.388 21.8709 28.388 21.7594 28.3323 21.7594C28.2208 21.7873 28.4159 21.843 28.3323 21.8709H28.3044C28.3044 22.0102 28.2487 22.0938 28.2208 22.2331C28.4159 22.2331 28.3044 22.3724 28.3602 22.4282C28.3044 22.4003 28.2766 22.5118 28.2487 22.5396L28.388 22.6232C28.5274 22.7068 28.3044 22.7347 28.3602 22.8183L28.388 22.7904C28.4438 22.874 28.3323 23.0412 28.2208 23.1248C28.4159 23.292 28.3602 23.4592 28.2487 23.4871C28.1372 23.5428 27.9979 23.4314 27.9422 23.5707C27.9701 23.6543 27.9979 23.71 28.0258 23.8493C27.9979 23.9051 27.9979 23.8772 27.9701 23.9051C28.0258 23.9887 27.9979 23.8772 27.9979 23.9608C27.9979 23.9329 28.0258 23.9051 28.0258 23.8493C28.0258 23.8772 28.0258 23.8772 28.0536 23.9329C28.0536 23.9051 28.0536 23.8215 28.0815 23.8215C28.0815 23.9051 28.1651 24.128 28.0815 24.0723C28.0815 24.0444 28.0815 24.0165 28.0815 24.0165C28.0536 24.0165 28.0815 24.128 28.0258 24.0723C27.9701 24.0444 27.9979 24.1001 27.9701 24.0165C27.9143 23.9887 27.8865 23.9329 27.8586 23.9051C27.8307 24.1559 27.7471 23.8772 27.7471 23.8493C27.775 23.6543 27.8029 23.8215 27.8029 23.6264C27.8029 23.5707 27.775 23.515 27.775 23.4871V23.6543L27.7471 23.5985V23.5707C27.7471 23.6264 27.7471 23.6821 27.7193 23.6264C27.7193 23.5985 27.7193 23.5707 27.7193 23.5428C27.7193 23.5707 27.6914 23.5985 27.6914 23.5985C27.7193 23.4592 27.6914 23.5428 27.7193 23.3756C27.7193 23.3199 27.6914 23.3756 27.6635 23.4035C27.6357 23.4314 27.6357 23.4314 27.6635 23.3199C27.6635 23.3478 27.6357 23.4035 27.6078 23.4314C27.5799 23.4592 27.5521 23.4871 27.5521 23.4592C27.5521 23.4314 27.5799 23.4035 27.6078 23.3478C27.5799 23.3756 27.5799 23.3756 27.5521 23.3756C27.6078 23.292 27.6078 23.2642 27.6078 23.2642L27.5799 23.2363C27.5521 23.2084 27.5521 23.1806 27.5242 23.1527L27.5799 23.1248C27.4963 23.1248 27.4127 23.1248 27.357 23.0412L27.4406 22.9855C27.4406 22.8462 27.2177 23.0691 27.1898 22.9298C27.1062 23.0134 27.1062 23.097 27.0226 23.1806C27.1062 23.0691 27.0226 22.9855 26.9947 23.0412C26.8833 22.9855 26.939 22.9855 26.9669 22.9576H26.8554C26.7997 22.9019 26.9669 22.8462 27.0226 22.8183C26.8833 22.8462 26.8833 22.7347 26.8554 22.6511H26.9111L26.8554 22.5396C26.744 22.5396 26.6604 22.456 26.6325 22.3724L26.7997 22.3167C26.8275 22.2053 26.744 22.3167 26.7161 22.3167C26.5768 22.2889 26.6604 22.2053 26.6882 22.0938C26.5768 22.0381 26.7997 21.6479 26.521 21.6758ZM28.5831 15.8518C28.6388 15.8518 28.6667 15.8518 28.5831 15.8518V15.8518ZM28.4716 15.2388C28.5552 15.2388 28.4995 15.2945 28.4716 15.3502C28.4716 15.2388 28.4159 15.2666 28.388 15.1552C28.388 15.2109 28.3602 15.2666 28.3323 15.2945C28.3323 15.2666 28.3323 15.2109 28.3602 15.0994C28.4159 14.988 28.4438 15.0716 28.4438 15.1552C28.4438 15.2109 28.4438 15.2945 28.4716 15.2388ZM29.4191 16.8829H29.3912H29.4191ZM29.2797 16.3255C29.3076 16.3255 29.3355 16.2977 29.3355 16.2977C29.3076 16.2977 29.2797 16.2977 29.2797 16.3255ZM29.3076 14.8765C29.3633 14.7929 29.3076 14.7372 29.2519 14.7093C29.2798 14.7372 29.2797 14.7929 29.3076 14.8765ZM23.8459 18.4991C23.8459 18.4434 23.8459 18.3319 23.7623 18.3598C23.7902 18.4155 23.6508 18.4434 23.7066 18.527C23.7623 18.4991 23.818 18.4991 23.8459 18.4991ZM25.2113 21.5365C25.1556 21.5643 25.0999 21.5922 25.072 21.6479C25.072 21.6758 25.0441 21.6758 25.0441 21.7037C25.0441 21.7315 25.0441 21.7594 25.072 21.7594C25.2392 21.5922 25.2949 21.6201 25.2113 21.5365Z" fill="#FF4651"/>
<path d="M23.8181 21.2598C23.8443 21.286 23.8443 21.286 23.8181 21.2598C23.8443 21.286 23.8443 21.286 23.8181 21.2598Z" fill="#FF4651"/>
<path d="M25.0719 21.7301C25.0719 21.7301 25.0719 21.6744 25.0719 21.6465C25.0441 21.6744 25.0441 21.7022 25.0719 21.7301Z" fill="#FF4651"/>
<path d="M28.6946 18.7208L28.6667 18.693L28.611 18.7487C28.6946 18.8602 28.7782 18.8602 28.8896 18.888C28.7782 18.7766 28.8339 18.7208 28.806 18.6094L28.6946 18.7208Z" fill="#FF4651"/>
<path d="M29.4191 18.6676C29.4469 18.6676 29.5305 18.6397 29.5305 18.6119L29.4748 18.584L29.4191 18.6676Z" fill="#FF4651"/>
<path d="M29.7257 17.3584L29.6699 17.4699C29.7257 17.4977 29.8371 17.3863 29.7257 17.3584Z" fill="#FF4651"/>
<path d="M28.611 17.8307L28.6946 17.8864C28.7503 17.8307 28.7503 17.7749 28.6667 17.7471C28.6946 17.8028 28.611 17.7749 28.611 17.8307Z" fill="#FF4651"/>
<path d="M29.7536 17.0792C29.6142 17.0514 29.8093 16.9678 29.6978 16.9678C29.7257 16.9956 29.6142 17.0792 29.7536 17.0792Z" fill="#FF4651"/>
<path d="M28.5271 17.1602C28.4157 17.188 28.4993 17.2438 28.4714 17.2995C28.4714 17.2438 28.6107 17.188 28.5271 17.1602Z" fill="#FF4651"/>
<path d="M29.3913 16.5209C29.4749 16.5209 29.4749 16.5766 29.447 16.6324C29.4191 16.6045 29.3634 16.6045 29.3634 16.5766C29.447 16.6602 29.4191 16.6602 29.4749 16.716C29.5306 16.6602 29.5863 16.5488 29.6978 16.5488C29.5863 16.5209 29.4749 16.4652 29.3913 16.5209Z" fill="#FF4651"/>
<path d="M28.4996 16.9961C28.4718 17.0518 28.3882 17.0797 28.3882 17.1354C28.4439 17.1354 28.5554 17.1076 28.5275 17.024L28.639 17.0518C28.7226 16.9961 28.4996 17.1076 28.4996 16.9961Z" fill="#FF4651"/>
<path d="M29.6419 16.2119L29.5862 16.2398C29.6698 16.3234 29.6419 16.407 29.7534 16.4627C29.7534 16.3791 29.6976 16.2676 29.6419 16.2119Z" fill="#FF4651"/>
<path d="M28.6945 16.7148H28.5552C28.5273 16.7984 28.6109 16.7148 28.6388 16.7427C28.6109 16.7706 28.6109 16.7984 28.6388 16.8263C28.6109 16.7148 28.7502 16.7984 28.6945 16.7148Z" fill="#FF4651"/>
<path d="M28.5274 16.465L28.4716 16.3535L28.3044 16.465C28.3602 16.5764 28.4159 16.465 28.5274 16.465Z" fill="#FF4651"/>
<path d="M28.6389 16.3512H28.6668L28.4438 16.2119C28.5274 16.2955 28.5274 16.2955 28.6389 16.3512Z" fill="#FF4651"/>
<path d="M28.8896 14.0965C28.8339 14.1522 28.8896 14.2915 28.8896 14.1801C28.9175 14.1522 28.8339 13.985 28.8896 14.0965Z" fill="#FF4651"/>
<path d="M28.3323 15.5461C28.3602 15.4625 28.2487 15.5182 28.193 15.5461C28.2487 15.5461 28.2487 15.6576 28.3323 15.5461Z" fill="#FF4651"/>
<path d="M27.5243 16.3264C27.58 16.2985 27.58 16.2149 27.5522 16.1592C27.5243 16.2428 27.5243 16.2985 27.5243 16.3821C27.5243 16.3821 27.58 16.3821 27.5243 16.3264Z" fill="#FF4651"/>
<path d="M27.1339 16.7433C27.1339 16.6876 27.1618 16.6876 27.1061 16.6318C27.0782 16.6318 27.0782 16.7433 27.1339 16.7433Z" fill="#FF4651"/>
<path d="M23.0657 18.918C23.0099 19.0016 23.0099 19.0573 23.1214 19.0573C23.1493 18.9458 23.0935 19.0016 23.0657 18.918Z" fill="#FF4651"/>
<path d="M23.1215 19.1709H23.0936L23.01 19.2266L23.1215 19.1709Z" fill="#FF4651"/>
<path d="M22.9543 19.7271C22.9264 19.7271 22.9264 19.6992 22.8986 19.6992C22.9264 19.7271 22.9264 19.755 22.9543 19.7271Z" fill="#FF4651"/>
<path d="M22.9263 19.6426H22.8706C22.8706 19.6426 22.8985 19.6704 22.8985 19.6983C22.8985 19.6704 22.8985 19.6426 22.9263 19.6426Z" fill="#FF4651"/>
<path d="M22.9542 19.9191C23.0099 19.8633 23.0378 19.8355 23.0935 19.8076C23.0099 19.6961 23.0378 19.9469 22.8706 19.8355L22.9542 19.9191Z" fill="#FF4651"/>
<path d="M23.0656 20.3096C23.0377 20.4489 23.3164 20.5046 23.177 20.644C23.2885 20.7833 23.3442 20.7276 23.4 20.6718C23.4557 20.6161 23.5114 20.5882 23.6229 20.7276C23.5672 20.5882 23.5114 20.5882 23.4 20.5882C23.3164 20.5882 23.2328 20.5882 23.2049 20.421C23.177 20.5882 23.1213 20.3374 23.0656 20.3096Z" fill="#FF4651"/>
<path d="M23.3167 20.2002C23.2331 20.2002 23.2609 20.3395 23.3167 20.3674C23.3167 20.3117 23.4281 20.2281 23.3167 20.2002Z" fill="#FF4651"/>
<path d="M23.3722 20.8672C23.3722 20.8951 23.3722 20.9508 23.3722 21.0065H23.4279C23.4279 20.9508 23.4001 20.9229 23.3722 20.8672Z" fill="#FF4651"/>
<path d="M23.5674 21.2012C23.5395 21.2012 23.4838 21.229 23.4559 21.2012C23.5117 21.2012 23.5674 21.2848 23.5674 21.2012Z" fill="#FF4651"/>
<path d="M23.7068 21.5099C23.7068 21.5656 23.9297 21.4542 23.8183 21.3984V21.4263C23.7625 21.4542 23.7625 21.5656 23.7068 21.5099Z" fill="#FF4651"/>
<path d="M24.4312 21.8408C24.4033 21.8129 24.3476 21.785 24.3197 21.8408L24.4312 21.8965V21.8408Z" fill="#FF4651"/>
<path d="M24.8492 21.4792C24.9328 21.3677 24.7656 21.4234 24.7656 21.3398C24.7935 21.3956 24.7935 21.4234 24.8492 21.4792Z" fill="#FF4651"/>
<path d="M24.3756 22.0635C24.3198 22.0914 24.3198 22.0357 24.292 22.0078C24.2641 22.0635 24.3198 22.0914 24.3756 22.0635Z" fill="#FF4651"/>
<path d="M24.5147 22.1793C24.4868 22.235 24.4589 22.235 24.4311 22.2629C24.4311 22.3465 24.4868 22.4022 24.5704 22.4022C24.5983 22.3465 24.7097 22.235 24.7655 22.2072C24.654 22.1514 24.4311 22.2629 24.5425 22.0957L24.2917 22.1793C24.3475 22.2629 24.4868 22.0957 24.5147 22.1793Z" fill="#FF4651"/>
<path d="M24.7096 21.6777L24.6818 21.7892C24.7375 21.7335 24.7654 21.7613 24.8211 21.7613C24.9604 21.6499 24.7375 21.7056 24.7096 21.6777Z" fill="#FF4651"/>
<path d="M25.0165 22.5957L25.1279 22.6793V22.6236L25.0165 22.5957Z" fill="#FF4651"/>
<path d="M25.0443 22.6797L24.9885 22.7354H25.1279L25.0443 22.6797Z" fill="#FF4651"/>
<path d="M25.0721 22.8448V22.8169L24.9885 22.7891L25.0721 22.8448Z" fill="#FF4651"/>
<path d="M25.2391 23.0665L25.2669 23.0108C25.2391 23.0108 25.2391 22.8993 25.1833 22.9551C25.2391 22.9551 25.2669 23.0108 25.2391 23.0665Z" fill="#FF4651"/>
<path d="M27.2733 22.5391C27.2176 22.5391 27.1897 22.5948 27.1619 22.6227L27.2733 22.5669C27.2733 22.5948 27.2455 22.5669 27.2733 22.5391Z" fill="#FF4651"/>
<path d="M27.2176 22.7897L27.3848 22.7619C27.3291 22.6504 27.2176 22.734 27.1619 22.6504C27.1619 22.7061 27.2733 22.6783 27.2733 22.7619L27.2176 22.7897Z" fill="#FF4651"/>
<path d="M27.9143 23.7391C27.9143 23.8784 27.9143 23.8506 27.8865 23.9342C27.9422 23.8784 27.9701 23.9063 28.0258 23.8784C27.9979 23.7948 27.9979 23.6276 27.9979 23.6834C27.9979 23.7112 27.9701 23.7391 27.9701 23.767V23.6834C27.9143 23.544 27.9422 23.7948 27.9143 23.7391Z" fill="#FF4651"/>
<path d="M29.2517 20.198C29.3074 20.198 29.3353 20.198 29.391 20.1701C29.3353 20.1144 29.2796 20.2259 29.2517 20.198Z" fill="#FF4651"/>
</svg>
