<svg xmlns="http://www.w3.org/2000/svg" width="51" height="51" fill="none" viewBox="0 0 51 51">
    <path fill="#FB0" fill-opacity=".1" fill-rule="evenodd" d="M44.447 10.038c.004.017 0 .025 0 .04l-.076-.099c.026.021.05.037.076.06zm1.749 29.638c-.005-.011-.008-.03-.014-.042.033.048.061.098.068.154-.09.207-.177.237-.242.228.054-.09.114-.196.188-.34zm3.87-17.51l.253-.161c-.127-.193-.273-.38-.41-.567-.19-.411-.096-.807-.035-1.24.03-.216.053-.44.029-.672-.038-.23-.137-.463-.316-.705l-.134.184c-.078-.393-.452-1.18-.236-1.177-.042-.03-.214-.069-.168-.247l.128-.054c-.085-.144-.162-.29-.254-.431l-.294-.413c-.19-.739.564-.081.169-1.134-.208-.371-.816-.935-.841-.75.056.157.079.428-.045.496l-.205-.315-.075.017-.022-.053c-.623-1.345-1.357-2.602-2.178-3.775l.062-.002-.102-.055c-.114-.162-.224-.326-.341-.484.052-.017.119 0 .2.079-.096-.444-.33-.208-.39-.609 0-.05.026-.047.06-.027l-.341-.246c.111.013.16-.214.276.012-.3-.702-.954-.732-.917-1.126l.056.032c-.564-.492-.44-.207-.634-.15-.111-.12-.224-.237-.337-.354l.079-.54-.261.12c-.067-.08-.198-.24-.096-.29-.402-.143-.035.13-.315.096-.093-.261-.348-.495-.572-.685-.232-.184-.41-.353-.315-.553-.271.042.265.424-.237.194.179-.45-.526-.33-.743-.783.255-.099.515.278.29-.181-.232.07-.39-.089-.536-.29-.148-.198-.306-.413-.488-.493-.2.251-.777-.362-1.374-.634.11-.098-.967-.762-1.453-1.151l.041-.04c-.26.242-.762-.143-1.214-.248.097-.167.207-.211.47-.183-.129-.065-.264-.114-.397-.172-.137.055-.283.052-.554-.022l.197-.18c-.543-.203-1.163-.208-1.802-.598-.075.136.103.436-.011.59-.122-.043-.245-.082-.368-.124.038-.063.1-.11.202-.104-.069-.005-.257.026-.367-.064l.36-.102c-.288-.185-.221.11-.467.013.06-.164-.149-.177-.07-.297.07.005.2.138.32.104-.278-.12-.595-.328-.674-.49-.003.102-.068.224-.285.18-.548-.159-.128-.26-.426-.447-.16.065-.49-.131-.563.121-.163-.036-.165-.16-.211-.243-.319.05-1.367-.255-1.093.086l.07.033-.049.002c-.248.014-.491-.014-.732-.065-.243-.044-.49-.083-.733-.142-.488-.11-.979-.24-1.46-.238l.009-.087c-.576.04-1.28.025-1.687.195-.167-.002-.397-.165-.326-.268-.438.07-.483.128-1.12.047.434-.188-.158-.122.447-.148-.571-.03-.716-.157-1.31.131.192-.24-.458-.243-.724-.155l.419.126c-.302.058-.57.06-.844.065l.11-.304c-.613-.098-1.12.17-1.586.373-.465.222-.899.355-1.399.211-.249.286.65-.037.438.274-.521.11-1.177-.14-1.344-.092-.767.064-.55.584-1.31.736.127.062.302.292-.19.597-.504.162-.77-.163-.484-.37.118-.056.188-.048.195-.013.148-.101.347-.23.108-.256l-.03.125c-.286 0-.977.291-.88.067-.345.247-.096.224.205.161-.7.135-1.027.369-1.696.632.127-.001.273.06.172.113-.987.372-.32.392-.92.76-.432.047-.056-.402-.623.049-.442.11-.223-.197-.108-.354-.12.122-.254.21-.39.28-.128.08-.262.14-.393.188-.26.097-.51.151-.679.24l.247-.264c-.148.158-.292.252-.439.348l.282.065c-.19.082-.336.177-.38.103-.1.23.326.2.088.584-.281.067-.62.534-.847.383.748-.416-.25-.178.325-.621-.097.105-.241.196-.432.284-.043-.006-.013-.065.026-.108-.797.314-.108.489-.767 1.015-.015-.19-.34-.105-.427.01.269-.217.291.098.129.387-.498.25-.395.44-.621.608l.286-.161c.018.184-.203.336-.426.643-.106-.067.182-.3.052-.246-.103.49-.862.457-1.144 1.001-.267.118-.23-.185-.452-.065-.324.595-.64.386-.964 1.027.288-.019.268-.076.12.429l.605-.97-.23.76c.221-.254.345-.648.521-.763-.112.363-.112.312.115.302-.53.146-.438.822-.937 1.093l-.395-.34c-.344.246-.538.559-.701.924-.155.373-.312.773-.66 1.173l.264-.23c.094.231-.336.552-.454.88-.13-.119-.302.024-.475.09.12.05-.38.677-.12.93l-.424.302c-.485.712-.037 1.064-.39 1.782-.077-.303-.334-.012-.244-.572-.108.25-.233.464-.124.516-.163.106-.077.786-.326.953.026.133.182.233.052.506-.046.018-.08-.031-.08-.031.07.028-.051.484.214.3-.379.3-.545.86-.695 1.405-.074.273-.149.542-.24.78-.071.244-.168.455-.32.606-.06.593-.166 1.296-.243 1.824-.048-.043-.086-.016-.056-.113-.244.712.443.52.17 1.322-.326.393-.1-.458-.236-.206-.572.057-.061 1.014-.406 1.556l-.03-.14c-.203.43.199 1.074.148 1.777 0 0-.05-.034-.087-.003.251.484.46 1.38.588 2.04-.24-.187-.143-.295-.36-.146.058.3.358-.12.47.471-.102.207-.185.656-.4.745-.043-.188-.047-.38-.073-.57-.141.164-.131.353-.069.534.069.18.17.356.17.51l-.142-.018c.204.87.547.814.693 1.744l.084-.12c.437.42-.08.462.302.892l-.293.241c.184.306.638 1.056.902 1.599-.373-.23-.675-.886-.954-1.27.093.328.348 1.106.56 1.218-.07-.12-.2-.259-.186-.405.355.323.707.765.944 1.385-.336.069-.212.492-.04.981.15.5.453 1.008.325 1.35.396.476.637 1.02.9 1.59.297.546.59 1.133.998 1.71.153-.717.239.334.628-.055.203.245.29.331.278.38l-.024-.065.023.07.002-.002.367.959c.028.282-.288-.166-.364-.067.425.585.014.38.21.845.086-.2.37.015.577.384l-.18-.613c.422.296.476.534.554.762.07.23.146.468.607.73l-.349-.11c.221.151.563.495.932.806.092.078.186.153.28.224.101.061.202.118.302.165.198.095.388.156.556.153.03.106.03.296-.173.18.23.211.499.405.78.588.281.181.563.368.87.503.596.293 1.141.581 1.47.962l-.148.06c.217.091.456.025.647.268-.04.04-.15.07-.059.127.133.02.656.093.887.306l-.302.005c.494.365.95.507 1.389.604.456.068.9.08 1.377.234-.151.345.67.871 1.112 1.065l-.034.046c.671.238 1.275.343 1.863.416.59.07 1.188.026 1.834.096.175.145.431.264.733.368.303.1.662.139 1.032.197.743.096 1.546.224 2.2.32-.198-.074.045-.302.275-.338.305.084.84-.256.793.1l-.109-.009c.23.346.867.293 1.358.238l.056-.473c.326.144.702.182 1.088.168.386-.024.788-.059 1.157-.18.744-.209 1.402-.412 1.813-.179.282-.157.65-.267.914-.466l.048.246c.421-.088.74-.156 1.078-.245.168-.045.342-.096.537-.157l.309-.102.339-.156-.143.25c.572-.212.455-.96.95-1.175l.294.283c.976-.35 2.042-.618 2.8-1.382.012.056.039.164-.105.256.461-.179 1.763-.79 1.337-1.114.188.268.925-.562 1.284-1.005l.079.253c.18-.552.137-.628.588-1.11.14-.073.23.067.03.149.483-.23.163-.434.73-.73l-.077.267c.422-.329.346-.351.427-.695.167-.306.75-.663.966-.563-.045-.147.03-.479.297-.654.09.028.048.144.025.202.188-.128.328-.264.441-.399.106-.14.177-.288.249-.42.14-.27.264-.504.552-.663.07.041.128.037.18.013-.456.545-.83.977-.81.923.169.153.57-.27.51.295.173-.48.388-1.326.826-1.692.034-.008.068-.015.109-.01l-.017.06c.1-.087.16-.188.195-.299.13-.126.216-.205.316-.347.19.054.454-.495.623-.73-.22-.118.022-.407-.345-.228.04-.028-.005.061-.102.225-.018.04-.043.084-.047.116l-.007-.029-.383.6c.024-.262.067-.515.356-.7-.05-.21-.099-.432-.114-.549.252-.064.523-.229.761-.376.244-.143.415-.294.538-.284.15-.422.376-.89.544-1.337.084-.225.156-.442.191-.65.021-.212.013-.41-.04-.583.04-.25.232-.206.335-.262-.013.15-.085.305-.055.403.085-.505.53-1.374.27-1.597.37-.523.162.434.41-.385l.058.144c.5-.72.513-1.456.539-2.175-.017-.739-.051-1.469.473-2.319-.067.12-.099.179-.158.195.1-.25.16-.512.197-.777.043-.265.078-.533.106-.802.041-.54.12-1.082.08-1.628-.015-.545-.025-1.086 0-1.623.021-.27.02-.536.023-.802.008-.267.028-.533.064-.8.044-.604-.168-.65-.355-.99z" clip-rule="evenodd"/>
    <path fill="#FECB2F" d="M24.6 30.044s-.1 0-.1-.1c.2.1.5.2.7.3.3.1.5.2.8.2-1.1-.5-2.1-1.3-3.2-1.3.1-.3-.6-1.1-.7-1.1-.2-.1-.4-.3-.6-.4.1.1.3.2.4.3-.1-.1-.3-.2-.4-.3-1.1-1-1.7-2.8-1.6-4.4 0-.5.1-1.3.4-2.2.3-.8.7-1.6 1-1.9.1-.1.2-.3.2-.2l-.1.1-.2.2c.1-.2.1-.2.2-.3v-.2c0-.1 0-.2.1-.2 0-.1 0-.1-.1-.2h.1c.1-.1.3.1.4.1v.1c0 .1.1.1.2.2v-.1c.5.6 1.2 1.2 1.7 1.6.1.1.1.1.1.2l.5.4c-.1 0 .3.4.1.3.3.3.6.7 1 1 1.2 1.2 2.5 2.4 3.8 3.5v-.1c.5.4 1 .6 1.5 1.2.5.3 1 .8 1.3.8.4.4.7.5 1.1.9 0-.2.5.3.3.1-.2-.4-.3-.3-.4-.6-1-1.2-2.1-2.4-3.2-3.5-.8-.7-1.6-1.6-2.4-2.3-.9-.8-1.8-1.7-2.6-2.3 0-.3-.1-.4-.2-.6-.8-.8-1.7-1.7-2.7-2.6l.1.1c-.2-.1-.3-.3-.5-.4l-.2-.3c0-.1-.1 0-.1 0l-.1.2c-.3.2-.5.5-.8.9 0 0-.1.1-.1.2l-.2.2c0 .1-.1.1-.2.2 0 .1-.1.1-.1.2-.2.3-.4.7-.6 1.1-.3.8-.5 1.7-.5 1.8v.2c-.4 1.2-.7 2.5-.4 3.6.1.2.2.5.3.6 0 .2.1.2.2.4-.1.6.2.9.2.6.2.4.4.9.6 1.2.1.2.2.3.4.5.1.1.1.2.1.3.3.3.1.3.4.6 0 .1.2.3.4.4.2.2.5.3.5.4h-.1c.4.4.6.7 1 1 1.2.9 2.8 1.3 4.1 1.5 0-.1-.3 0-.3-.1.8.1 1.6.2 2.4.2h.4c.3 0 .1-.1.3-.1v.1c.3-.1.4 0 .7-.1 0 0 .1-.1.2-.1 0 .1.3-.1.3 0h.2c.1 0 .9-.7 1-.8h.1c.1-.1.1-.2.1-.1l.2-.1.2-.1s.1 0 .1.1c.1-.1.2-.2.3-.2l-.9.3c.1-.1.3-.1.4-.2.2 0 .5-.1.7-.3 0 0 0-.1.1-.2.1 0 .1-.1.2-.1-.1.1-.2.2-.3.2.1.1.3-.1.4-.2l.3-.3c0 .1.1 0 .2-.1l.1-.1c0-.1-.3.2-.3.1.1 0 .2-.1.3-.2 0 0-.1 0-.1-.1.1-.1.1-.2.2-.2l-.1.1c.1-.1-.4.8-.3.6-.1 0 .5-.8.4-.7-.1 0 0-.1-.1-.1v.1c-.1.1-.2 0-.2 0 .2-.1-.2.6-.1.5h-.1c0-.1.2-.2.3-.3 0 0 0-.1.1-.2s.2-.2.1-.2c-.4.4-.1-.6-.5-.2.2-.1 0 .1-.1.3 0 0-.1 0-.3.1-.1.1 0 .1 0 .1-.1 0-.2.1-.2 0 0 .1-.2.1-.2.2-.1.1 0 0 0 .1-.1.1-.3.2-.4.3-.1 0-.2 0-.2-.1.2-.1 0 .2.2 0-.2 0 .2-.1.2-.2-.1 0-.2.1-.3.2-.1.1-.3.2-.4.2 0-.1-.1 0 0-.1l-.6.1c-.1.1-.1.1-.2.1l-.7.5c-.1 0-.2 0-.3.1 0 0 .3-.1.5-.2s.4-.3.4-.2c-.1 0-1.2.7-1.3.6-.1 0-.2.1-.2.1-.1 0 0-.1-.1-.1h-.1c-.2.1-.6.1-.8.2.1-.1.1-.1.3-.2 0 0 .1 0 .1-.1-.1 0-.3 0-.4.1h-.1c-.1 0 0 0 0 0-.1-.1-.5.1-.8.1-.1 0 0 0-.1.1-.3 0-.4-.1-.7-.1-.1 0-.1.1 0 .1h-.2c.2-.1-.4-.2-.1-.3-.1 0-.2-.1-.3-.1 0 0 0 .1-.2.1-.2-.1-.1-.1-.3-.1v-.1c-.3 0-.2-.2-.4-.2-.1 0-.4-.1-.5-.1-.1-.4 0-.4 0-.5z"/>
    <path fill="#FECB2F" d="M32.4 21.744s.1-.1.2-.1c-.3-.1-.6-.1-.3.4-.2-.2-.5-.2-.4-.1v.2-.1.1c0 .3-.2.4-.5.5-.1.1-.5.3-.6.3h-.1.1v.3l.1.1c.1.1 0 .2 0 .2 0-.1-.1 0-.1 0-.1.1-.1.2-.2.2h-.1v.1c-.1-.1-.1 0-.1-.1 0 .1-.1.1 0 .3-.2.2-.3.4-.3.7 0 .1.1.3-.1.3 0 .1 0 .3.1.4v.3c.1.1 0 .1.1.2s.1 0 .2 0c.3 0 .5-.1.6-.3 0-.2.2-.2.3-.3.1-.1.2-.3.2-.5h.1c.1-.1.2-.2.3-.4 0-.1.2 0 .2-.1.1.1.1-.5.2-.5.2-.1.4 0 .5-.1 0-.1 0-.1-.1-.2.1 0 0-.1 0-.1.2.1.2 0 .1 0 0-.1.1-.1.1-.1v-.1h.1c0-.1 0 0 .1 0 .1.1 0-.2 0-.2.1 0 .2.1.3 0 .2-.1.3-.3.4-.4-.1-.1 0 0-.1 0 .1-.1.2 0 .3-.1h.1v-.1l.1.1c0-.1.1 0 .1 0 .1.1 0 0 .1 0l-.1-.3v-.1l.1.1v-.1c-.1 0-.1 0-.2-.1h.2s-.1-.1 0-.1h.1c.1.1.1 0 .1 0v-.1c0 .1 0 0 .1 0l-.3.2-.1-.1s0-.1 0 0c0 0 .1.3.1.2l-.1-.3-.1-.1-.1-.1s.2.3.2.2c0 0 0-.1 0 0v-.1-.1c0 .1-.3-.4-.4-.3l.1.1s-.1 0-.1-.1v.1h-.1c0 .1 0 0 0 0h-.1s-.1-.1-.2-.1l.1.1-.1-.1h-.1s0 .1-.1 0c0 0-.1 0-.1-.1v.2s-.1 0 0 0v-.2V21.544l-.1-.1c0 .1-.1 0 0 .1l-.1-.1v-.1.1c-.1-.1 0 .1-.1.1h-.2s0 .1.1.1l-.2-.2s.1.1 0 .1h-.1l-.1-.1c.2.3.1.2 0 .3.1 0 .1 0 .1.1 0 0-.1 0-.1-.1zM27.6 16.945s.1-.1.2-.1c-.3-.1-.6-.1-.3.4-.3-.2-.5-.2-.5-.2v.2-.1.1c0 .3-.2.4-.5.5-.1.1-.4.3-.6.4h-.1.1v.3l.1.1c.1.1 0 .2 0 .2 0-.1-.1 0-.1 0 0 .1-.1.2-.2.3h-.1v.1c0-.1-.1 0-.1-.1 0 .1-.1.1 0 .3-.1.1-.3.3-.3.6 0 .1.1.3-.1.3 0 .1 0 .3.1.4v.3l.2.2c.1.1.1 0 .2 0 .3 0 .5-.1.6-.3 0-.2.2-.2.3-.3.1-.1.2-.3.2-.5h.1c.1-.1.2-.2.3-.4 0-.1.2 0 .2-.1.1.1.1-.5.2-.5.2-.1.4 0 .5-.1 0-.1 0-.1-.1-.2.1 0 0-.1 0-.1.2.1.2 0 .1 0 0-.1.1-.1.1-.1v-.1h.1c0-.1 0 0 .1 0 .1.1 0-.2 0-.2.1 0 .2.1.3 0 .2-.1.3-.3.4-.4-.1-.1 0 0-.1 0 .1-.1.2 0 .3-.1h.1v-.1l.1.1c0-.1.1 0 .1 0 .1.1 0 0 .1 0l-.1-.3v-.1l.1.1v-.1c-.1 0-.1 0-.2-.1h.2s-.1-.1 0-.1h.1c.1.1.1 0 .1 0v-.1c0 .1 0 0 .1 0-.1-.1-.1 0-.1-.1l-.1-.1s0-.1 0 0c0 0 .1.3.1.2l-.1-.3-.1-.1-.1-.1s.2.3.2.2c0 0 0-.1 0 0v-.1-.1c0 .1-.3-.4-.4-.3l.1.1s-.1 0-.1-.1v.1h-.1c0 .1 0 0 0 0h-.1s-.1-.1-.2-.1l.1.1-.1-.1h-.1s0 .1-.1 0c0 0-.1 0-.1-.1v.2s-.1 0 0 0v-.2V16.445l-.1-.1c0 .1-.1 0 0 .1l-.1-.1v-.1.1c-.1-.1 0 .1-.1.1h-.2c0 .6 0 .6.1.6l-.2-.2s.1.1 0 .1h-.1l-.1-.1c0 .1-.1 0-.2.1.1 0 .1 0 .1.1-.1 0-.1-.1-.1-.1zM18.4 33.444c0 .1-.1.1-.2.1.3.1.7.1.4-.5.2.2.5.2.4.1v-.2.1-.1c0-.4.3-.5.6-.6.1-.1.5-.3.7-.4h0v-.4l-.1-.1h.1c-.1-.1 0-.2 0-.3 0 .1.1 0 .1 0l.3-.3h.1v-.1c.1.1.1 0 .1.1 0-.1.1-.1.1-.3.2-.2.3-.4.4-.8 0-.1 0-.3.1-.3 0-.1 0-.3-.1-.4v-.3c-.1-.1 0-.1-.1-.2s-.1 0-.2 0c-.3.1-.5.2-.7.3-.1.2-.2.3-.3.4-.1.2-.2.3-.3.5h-.1c-.1.1-.2.2-.3.4-.1.1-.2.1-.2.1-.3.2-.4.8-.5.8-.2.1-.5 0-.6.2 0 .1 0 .1.1.2-.1 0 0 .1 0 .1-.2-.1-.2 0-.1 0 0 .1-.1.1-.1.2v.1h-.1c0 .1-.1 0-.1 0-.1-.1 0 .2-.1.2h-.3c-.2.1-.3.3-.5.4.1.1 0 0 .1 0-.1.1-.3.1-.3.1h-.1c-.1 0 0 0 0 .1l-.1-.1c0 .1-.1 0-.1 0-.1-.1 0 0-.1 0l.1.3v.1l-.1-.1v.1c.1 0 .2 0 .3.1H16.3s.1.1 0 .1h-.1c-.1-.1-.1 0-.1 0v.1c0-.1 0 0-.1 0 .1.1.1 0 .1.1H16l.1.1s0 .1 0 0l-.1-.3.1.3.1.1v-.1l.1.1s-.2-.3-.1-.2c0 0 0 .1 0 0v.2c0-.1.3.4.4.3-.1 0-.1-.1-.1-.1h.1v-.1h.1c0-.1 0 0 0 0h.1s.1.1.2.1l-.1-.1.1.1h.1s0-.1.1 0c0 0 .1 0 0 .1v-.2s.1 0 0 0v.2s0-.3.1-.3v-.1l.1.1c0-.1.1-.1 0-.1 0 0 .1.1.1.2v0c.1.1 0-.1.1-.1h.2s0-.1-.1-.1l.2.2s.1 0 0 0c0 0-.1-.1 0-.1h.1l.1.1c.1-.3.2-.2.3-.2-.1 0-.1 0-.1-.1 0 0 .1 0 .1.1z"/>
</svg>
