<svg xmlns="http://www.w3.org/2000/svg" width="40" height="40" fill="none" viewBox="0 0 40 40">
    <path fill="#FF4651" fill-opacity=".1" fill-rule="evenodd" d="M35.257 7.873c.003.013 0 .02 0 .03l-.06-.076c.02.016.039.028.06.046zm1.387 23.246c-.005-.01-.007-.024-.012-.033.026.038.05.076.055.12-.072.163-.14.186-.193.18.044-.071.091-.155.15-.267zm3.07-13.733l.2-.127c-.1-.152-.217-.299-.324-.445-.151-.322-.077-.633-.029-.972.024-.17.042-.345.023-.527-.03-.18-.109-.364-.25-.553l-.106.144c-.062-.308-.359-.925-.188-.923-.033-.023-.17-.054-.133-.194l.102-.043c-.068-.113-.13-.228-.202-.338l-.233-.323c-.15-.58.447-.064.134-.89-.165-.291-.647-.733-.667-.588.044.123.062.336-.036.389l-.162-.247-.06.013c-.006-.014-.011-.028-.018-.041-.494-1.055-1.076-2.04-1.727-2.96l.05-.002-.082-.044c-.09-.127-.178-.255-.27-.38.04-.013.094 0 .158.063-.076-.349-.261-.164-.308-.478 0-.04.02-.037.047-.021l-.27-.193c.087.01.126-.168.218.01-.238-.551-.757-.575-.727-.884l.044.025c-.448-.385-.35-.162-.503-.117-.088-.094-.178-.186-.267-.278l.062-.424-.207.094c-.053-.063-.157-.188-.076-.228-.318-.111-.028.103-.25.076-.073-.205-.275-.387-.453-.537-.184-.144-.326-.277-.25-.433-.215.033.21.332-.189.151.143-.353-.416-.258-.589-.613.202-.078.409.218.23-.143-.184.055-.309-.07-.425-.227-.117-.155-.243-.324-.387-.387-.158.197-.616-.283-1.09-.497.087-.077-.767-.597-1.152-.903l.032-.03c-.206.19-.604-.113-.963-.196.077-.13.165-.165.373-.143-.102-.051-.21-.09-.315-.135-.108.043-.224.04-.44-.017l.157-.141c-.43-.16-.923-.164-1.43-.47-.058.107.082.343-.008.464-.097-.035-.194-.065-.292-.098.03-.05.08-.087.16-.082-.054-.003-.204.02-.29-.05l.285-.08c-.229-.145-.176.087-.37.01.046-.128-.119-.138-.056-.232.056.003.158.108.253.081-.22-.094-.472-.257-.534-.385-.003.081-.054.177-.226.142-.435-.124-.102-.204-.338-.35-.128.05-.388-.103-.447.094-.129-.028-.13-.126-.167-.19-.253.04-1.085-.2-.867.067l.056.026-.04.002c-.196.01-.389-.011-.58-.051-.193-.035-.388-.066-.581-.112-.387-.086-.777-.188-1.158-.186l.007-.068c-.457.03-1.015.02-1.338.152-.133-.002-.316-.13-.259-.21-.348.055-.383.1-.888.037.343-.148-.126-.096.354-.116C18.989.1 18.874 0 18.403.227c.152-.188-.363-.191-.575-.122l.333.099c-.24.046-.453.047-.67.051l.087-.239c-.485-.076-.888.134-1.257.293-.37.174-.713.279-1.11.166-.198.224.516-.03.348.214-.414.086-.934-.11-1.067-.072-.608.05-.436.458-1.04.578.101.048.24.229-.15.468-.4.127-.61-.128-.383-.29.093-.044.149-.038.154-.01.117-.08.275-.18.085-.201l-.022.098c-.228 0-.776.228-.699.052-.273.194-.076.176.163.127-.555.105-.815.289-1.346.495.101-.001.217.048.137.088-.783.292-.254.308-.73.597-.343.037-.045-.315-.495.038-.35.087-.176-.154-.085-.277-.096.095-.202.164-.309.219-.102.063-.208.11-.312.148-.207.076-.405.118-.539.189l.196-.208C9 2.852 8.886 2.925 8.77 3l.224.05c-.151.065-.267.14-.302.081-.078.18.26.158.07.459-.223.052-.492.418-.672.3.594-.327-.198-.14.258-.487-.077.083-.191.154-.343.223-.034-.005-.01-.052.021-.085-.633.246-.085.383-.608.796-.012-.149-.27-.082-.339.008.213-.17.231.077.102.303-.395.196-.313.346-.493.477L6.915 5c.014.144-.162.264-.338.504-.084-.052.144-.236.04-.193-.08.385-.683.359-.906.786-.212.092-.184-.146-.359-.052-.257.467-.508.303-.765.806.229-.015.213-.06.095.336l.48-.76-.182.596c.175-.2.273-.508.413-.598-.088.284-.088.244.091.236-.42.115-.347.645-.743.858l-.313-.267c-.273.193-.427.438-.556.725-.123.292-.248.605-.523.92l.209-.18c.074.18-.267.432-.36.689-.103-.093-.24.019-.377.071.095.04-.301.53-.096.73l-.336.236c-.384.559-.03.835-.309 1.398-.061-.238-.265-.01-.194-.45-.085.197-.185.365-.098.406-.13.083-.06.616-.259.747.021.105.145.183.041.397-.036.014-.063-.024-.063-.024.055.022-.04.38.17.236-.3.234-.433.674-.551 1.101-.06.214-.119.425-.19.612-.057.191-.134.357-.254.476-.049.465-.132 1.015-.194 1.43-.037-.034-.067-.012-.044-.09-.194.56.352.41.136 1.038-.26.309-.08-.36-.188-.161-.454.044-.049.795-.322 1.22l-.025-.11c-.16.337.159.842.118 1.393 0 0-.04-.026-.068-.002.199.38.365 1.082.466 1.6-.191-.146-.114-.23-.285-.114.045.235.283-.094.372.37-.08.161-.146.514-.318.584-.033-.148-.037-.299-.057-.448-.112.129-.104.277-.055.42.055.14.135.279.135.399l-.113-.013c.162.681.434.638.55 1.367l.067-.094c.346.33-.063.363.24.7l-.233.189c.146.24.506.828.715 1.253-.296-.18-.535-.694-.756-.995.073.257.275.867.444.955-.056-.094-.158-.203-.148-.317.282.252.56.6.749 1.086-.267.054-.168.386-.031.77.118.39.359.79.257 1.058.314.373.506.8.713 1.247.236.428.47.889.792 1.341.122-.563.19.262.499-.043.16.192.23.26.22.297l-.02-.05c.01.022.014.035.02.054h.001l.292.751c.021.221-.23-.13-.29-.052.337.459.012.297.168.663.067-.158.293.011.457.3l-.143-.48c.334.232.378.419.44.597.055.182.115.368.481.573l-.277-.086c.176.118.447.388.74.632.073.061.147.12.222.175.08.049.16.093.239.13.157.075.308.122.441.12.024.083.023.233-.137.142.183.165.395.317.618.46.224.143.447.289.69.395.473.23.906.456 1.167.755l-.118.046c.172.072.362.02.513.211-.032.031-.118.054-.046.1.105.016.52.072.704.24l-.24.003c.391.287.753.398 1.102.474.361.053.713.063 1.092.184-.12.27.532.683.882.835l-.027.036c.532.187 1.011.269 1.478.326.468.056.942.021 1.454.076.14.114.342.207.582.289.24.077.525.108.818.154.59.075 1.227.175 1.745.25-.157-.057.036-.236.219-.264.241.066.666-.201.628.078l-.086-.007c.183.27.688.23 1.078.187l.044-.371c.258.113.557.143.863.131.306-.018.625-.045.918-.141.59-.164 1.112-.323 1.438-.14.224-.123.516-.21.725-.366l.038.194c.334-.07.586-.123.855-.193.133-.035.272-.075.426-.123l.245-.08.269-.122-.113.195c.453-.166.36-.752.753-.92l.233.221c.774-.274 1.62-.484 2.221-1.084.01.044.031.129-.083.201.366-.14 1.399-.62 1.06-.874.15.21.734-.44 1.019-.788l.063.198c.143-.432.108-.492.466-.87.11-.057.183.052.024.117.384-.18.13-.34.58-.573l-.062.21c.334-.258.275-.276.338-.546.133-.24.596-.52.767-.441-.035-.116.024-.376.236-.513.071.022.037.113.02.159.148-.101.26-.208.35-.313.084-.11.14-.226.197-.33.111-.212.21-.395.438-.52.056.033.1.029.142.01-.361.428-.658.767-.642.725.133.12.451-.213.404.23.138-.376.308-1.04.655-1.327.028-.006.055-.012.087-.007l-.014.047c.08-.069.127-.148.155-.235.103-.099.172-.16.25-.272.151.042.361-.388.495-.573-.174-.092.017-.319-.273-.178.031-.022-.005.048-.082.176-.014.032-.034.066-.037.09l-.006-.021-.303.47c.02-.205.053-.404.282-.549-.04-.165-.078-.34-.09-.43.2-.051.415-.18.604-.295.193-.113.329-.231.426-.223.119-.332.298-.698.432-1.05.066-.175.124-.346.151-.508.017-.167.01-.322-.031-.458.032-.196.183-.161.265-.205-.01.118-.067.238-.043.316.067-.396.42-1.078.215-1.253.293-.41.127.34.324-.302l.046.113c.397-.565.407-1.142.427-1.706-.013-.58-.04-1.152.376-1.819-.053.094-.079.14-.126.153.08-.196.127-.4.157-.61.034-.207.061-.417.084-.628.033-.424.096-.849.064-1.277-.013-.427-.02-.852-.001-1.273.017-.211.016-.42.019-.63.006-.208.021-.417.05-.626.035-.474-.133-.51-.28-.776z" clip-rule="evenodd"/>
    <path fill="#FF4651" fill-rule="evenodd" d="M28.842 24.755c.112.09.04-.028.022-.139-.006.047-.014.094-.022.14z" clip-rule="evenodd"/>
    <path fill="#FF4651" fill-rule="evenodd" d="M28.87 24.752c.005-.033.006-.067.01-.1-.018.028-.016.063-.01.1zM28.178 23.317c.196.087.299.235.378.368.08.134.142.254.311.323.028-.159-.051-.354-.195-.493-.143-.141-.337-.223-.494-.198zM28.19 24.068l.08-.005c-.06-.044-.122-.084-.185-.118.036.038.071.08.104.123z" clip-rule="evenodd"/>
    <path fill="#FF4651" fill-rule="evenodd" d="M28.25 24.132l.019-.034c-.056-.08-.117-.153-.183-.22.062.079.117.163.164.254zM27.482 22.741c.095.044.188.092.277.146.123.258-.273.021-.193.193.136.1.21.077.293.063.08-.013.177-.015.309.17.045-.049-.077-.19-.205-.311-.127-.122-.256-.227-.154-.277-.324-.277-.095.073-.327.016zM17.064 20.546c-.001-.013-.004-.022-.006-.033-.007.02-.009.036.006.033zM17.718 16.386c.028-.012.05-.029.07-.047-.017-.002-.035-.002-.052.003l-.018.044zM19.108 21.86c.023.046.047.086.07.12-.004-.033-.021-.072-.07-.12zM12.912 17.741c-.013-.004-.029-.005-.048-.001l-.002.007.052.02-.002-.026zM17.079 14.355c-.012-.056-.024-.11-.042-.158.012.094.027.138.042.158zM19.856 22.623l-.039-.033c.009.015.022.033.039.052l.002-.018-.002-.001zM16.278 17.13c.068-.053.126-.1.17-.145-.063.045-.118.094-.17.144zM24.775 21.936c-.048-.033-.085-.036-.145-.038.039.038.073.055.145.038zM24.006 21.927l.008-.004c-.013-.015-.016-.01-.008.004zM23.312 22.623l.01-.014c-.017-.003-.024 0-.01.014z" clip-rule="evenodd"/>
    <path fill="#FF4651" fill-rule="evenodd" d="M25.397 21.997c-.102-.094-.103-.3-.335-.122l.029.035c-.097-.068-.27-.003-.389.002.012.02.025.038.041.054.06.005.138.017.254.047.13.066.243-.014.4-.016zM17.054 20.506c-.024.033.041.087 0 0zM17.784 21.267l-.062-.084c.015.03.03.06.062.084zM21.24 24.017l-.019-.022c-.015.017.004.025.019.022z" clip-rule="evenodd"/>
    <path fill="#FF4651" fill-rule="evenodd" d="M17.723 21.188c.021.024.04.049.06.074-.013-.028-.029-.054-.06-.074zM20.538 23.318l-.01-.014c0 .004.005.01.01.014zM24.083 28.895c-.084-.005-.113-.074-.182-.113-.205.086.34.108.064.156.073.022.137.02.197.016l-.068-.159c-.158.007.084.072-.011.1zM13.003 18.394l-.005-.036c-.088.046-.137.033-.095.167.245.064.357-.15.68-.014-.046-.03-.08-.083-.098-.136-.085.106-.292.07-.482.02z" clip-rule="evenodd"/>
    <path fill="#FF4651" fill-rule="evenodd" d="M13.574 18.509c0-.003.002-.005.004-.008.008-.013.015-.025.02-.039-.011-.025-.018-.052-.018-.075-.013.028-.015.074-.006.122zM21.265 27.504l-.076-.05c.029.042.053.053.076.05zM18.418 14.233c.02.031.04.062.06.086-.018-.05-.038-.073-.06-.086zM12.208 16.437c.002-.032-.002-.063-.007-.096l-.023-.054.03.15zM15.61 21.809c-.158.044.039.03.045.18l.133.04c-.045-.097-.123-.158-.178-.22zM24.008 28.876c.001-.005.002-.008.005-.013h-.01l.005.013zM18.433 24.676l.03.051c-.004-.014-.012-.03-.03-.051zM12.964 17.75c-.05-.233-.105-.461-.15-.695l.009.222c.093.055.033.428.14.473z" clip-rule="evenodd"/>
    <mask id="prefix__a" width="18" height="19" x="11" y="11" maskUnits="userSpaceOnUse">
        <path fill="#fff" fill-rule="evenodd" d="M11 11h17.79v18.244H11V11z" clip-rule="evenodd"/>
    </mask>
    <g mask="url(#prefix__a)">
        <path fill="#FF4651" fill-rule="evenodd" d="M13.197 18.504c-.064.013-.15-.012-.18.041l-.005-.022c-.012.027-.022.049-.04.04.012.062.024.128.058.16.2-.066.28.038.167-.22zm.085-6.94c.09-.037.28-.105.104-.148-.078.059-.252-.017-.306.083l-.018-.005c.109.033.192.07.22.07zm7.163 10.501c-.004-.087-.115-.15-.197-.197.03.033.078.097.197.197zm1.568.71c-.03-.018-.055-.019-.08-.012.034.026.066.043.08.012zm.913-.99c-.005.016-.01.033-.017.05h-.001l.018-.05zm-3.765.275c.234.132.124.13.11.177-.163-.208-.306-.265-.434-.465.005.049-.019.084-.028.111-.06-.07-.103-.159-.07-.237.096-.017.202.124.287.25.086.124.146.236.135.164zm1.734 1.395l-.03-.047c.103.035.165.045.03.047zm-5.974-3.473l.06-.08c-.392-.268-.367-.836-.764-1.015.07-.61-.41-.189-.34-.75l-.036.033c-.286-.74-.492-1.531-.66-2.31-.08-.392-.158-.779-.227-1.16l-.107-.566-.053-.278-.028-.137c-.002-.011-.005-.024-.007-.026 0-.001-.002-.002-.004-.01l-.008-.032h.065c.02-.262.178-.486.395-.59.055-.026.111-.044.17-.056.03-.005.06-.009.09-.01l.189-.002.924-.008.923-.01.462-.005c.073-.002.127.004.19.02.243.06.441.28.468.527.009.011.018.008.03.027.013.018.026.032.038.042.027.021.053.028.08.034.055.013.109.02.16.121.008.094.052.3-.025.315-.075-.172-.125-.059-.166-.115.056.298.05.707.213.948l.045-.245c.066.092.077.258.098.351-.061-.025-.133.139-.178.065.401.482.018.466.271.899.058 0 .131.049.196.084.059.016.118.045.173.091.113.09.2.243.251.387-.026.043-.055.082-.085.119.041-.167-.147-.039-.106-.225-.077.14-.037.306-.148.421.06.004.12.046.103.118-.042.035-.087.035-.13.035-.02.001-.043 0-.063.005-.02.004-.034.007-.072.04l.018-.042.005-.03.006-.058c-.026-.002-.043.005-.052.014-.006.004-.01.01-.012.017l-.02.035c-.024.05-.04.109-.073.152-.089-.04-.284.134-.323.029-.04.206-.26.35-.473.648l-.03.05c.024-.018.046-.032.057-.037.178-.11.136-.029.099.051-.027.059-.049.119-.008.118.02-.03.045-.058.067-.087l.223-.262c-.52.437.134-.158-.007-.237.04-.028.05-.022.065-.02.013.003.021.013.027.026.005.015.01.03.009.05l-.015.073c-.01.046-.015.084.003.088.009.002.023-.005.046-.023.02-.018.059-.056.08-.082-.017.03-.064.087-.096.127l-.095.115-.164.184c-.069.075-.124.151-.168.24-.04.093-.096.177-.075.339.046-.31.077.067.17-.083-.031.087-.023.143-.027.169-.002.027-.01.03-.026.025-.028-.01-.076-.055-.116.002.084.195.042.292.238.45.053.166.036.167-.02.144-.05-.022-.117-.07-.094.03-.095-.048-.163-.314-.258-.534-.056-.106-.042-.222-.056-.302-.01-.08-.04-.123-.136-.115.05-.138.053-.34.208-.55.049-.065.105-.13.17-.194l-.222.166c-.128.095-.242.218-.312.347-.038.066-.06.127-.077.197-.016.07-.02.15-.01.224l.19.035c-.008.132.08.2.133.265.058.063.109.113.136.198-.093-.084-.107.098-.01.299.003-.066-.034-.143.008-.13.021.045.037.084.063.12.027.034.053.065.079.092.05.056.1.1.153.144l.078.068c.027.024.056.05.075.063.042.034.087.076.14.135-.087-.22-.12-.37-.19-.651.17.026.128.171.243.32-.03-.012-.054-.043-.047.017.055.046.092.063.14.096.13.293-.185.078-.089.331.012.216.194.169.226.318.004-.015.009-.03.01-.042.018.026.028.046.035.061l.006-.007c.115.125.218.276.328.25-.025.042.101.107.16.13.088.05.323.138.29.351l-.007-.007c.121.17.196.325.125.329.065.093.132.186.202.277l-.12.064c.243.2.275.127.52.177.103.213.433.427.573.486.015.02.042.044.093.079l-.063-.123c.177.16.2.088.32.19-.018-.031-.017-.04.037.033.02.018.04.038.064.063-.015.006-.04-.017-.064-.045l-.005.052c.063.228.275.124.408.283-.019-.007-.05-.02-.067-.033.07.096.093.346.198.283.013.028.059.034.108.033l.057.065c-.024-.025-.042-.046-.056-.065.064 0 .132-.01.121.017l.227.187c.036.046.104.071.188.104l.03.085c.124.071.113.1.093.106.09.12.189.174.282.222.095.045.186.073.274.1.086.035.183.02.287-.004.103-.03.18-.077.308-.11.046-.152-.138-.066-.16-.112.044-.107.215-.356.274-.491.242-.066.684-.353.753-.166.236-.217-.15-.008-.08-.167l.031-.02c-.093.063-.197.08-.29.075-.086-.053.094-.274.174-.316l.056.142c.09-.126.07-.194.057-.282-.016-.085-.047-.174-.006-.288.238-.084.18.104.282.187.057-.046.12-.087.184-.124l.037.099c.115-.068.129-.179.332-.163-.065.057.011.071.075.097.064.026.113.06.03.127.088.034.13-.166.168-.022.08-.104-.081-.066-.131-.098-.045-.165.236-.073.368-.072-.012.084-.1.074.02.166.023-.027.06-.044.1-.04.046.005.094.03.129.084.035-.098.198.048.293.086-.103-.056-.232-.183-.133-.244.096-.011.173-.007.358.067l-.115-.088c.209-.095.239.192.481.208-.112.035-.172.018-.278.067.123-.015.347-.031.527-.038l.16.195c.04-.069.219.055.24-.048.23.118-.221.084-.263.15.296.136.28-.116.549.096l-.117.079c.1.026.31.002.315.052.005-.035-.047-.028-.11-.038.047-.1.168-.116.275-.14.11-.024.188-.046.197-.155-.044-.014-.09-.026-.133-.037.207-.015.418-.103.55.042.088.119-.145.092-.226.127.166.082.243-.167.457-.015-.096-.1-.041-.156.064-.158-.124-.107-.435-.268-.408-.158l.046.04c-.033.047-.118.038-.165.054-.196-.053-.07-.119-.102-.17-.181-.054-.184.006-.196.06-.011.057-.019.119-.157.095l-.03-.047c-.142.036-.348.005-.41.129-.094-.16-.326-.01-.441-.123.042-.304.464.126.654-.016-.133-.087.108-.13.178-.191-.157.02-.314.037-.473.05-.028-.05-.126-.227-.23-.137l.033.015c-.183-.006-.166.127-.31.048-.016-.033.043-.069.06-.086-.134-.063-.135.037-.236.039-.133-.065.103-.103-.005-.168-.193.069-.245-.1-.383-.138.007.19-.627.035-.377.286-.127 0-.256-.013-.365 0-.037-.058.03-.104.112-.15.081-.045.171-.09.149-.178l.26.1c.009-.11-.125-.12-.308-.153-.193-.033-.393-.03-.497-.156-.09-.009-.124-.002-.178-.008-.055-.004-.129-.024-.313-.045.032.06.062.12.09.181-.17-.016-.256-.095-.274-.128-.1.043-.19.073-.285.107.012-.037.036-.077.095-.11-.174-.047-.2.015-.218.088-.046.08-.147.131-.243.2.015-.04.03-.08.048-.12-.054.053-.113.125-.097.157-.038.031-.07.064-.095.103.046.004.174.037.325-.006-.184.076-.321.21-.431.293-.118.092-.24.173-.4.222-.032-.048.007-.186-.025-.164-.031.021-.057.049-.078.079-.018.027-.014.041-.017.066-.001.046.01.1.037.131-.012.02-.023.034-.033.045-.04-.029-.08-.062-.11-.043-.014-.01-.03-.015-.052-.003.021.087-.008.145-.043.192-.032.053-.092.056-.107.093.046.029.102.002.135-.048-.012.087-.034.183-.072.227-.036.047-.081.046-.112-.024.076-.023.028-.09.002-.142-.026-.062-.044-.083.049-.08-.074-.133-.074-.11-.096-.059-.018.05-.046.11-.113.03-.025-.047-.047-.09-.066-.132.049-.102.136.017.128-.037l-.052-.015c.035-.029.09-.004.148.017.03.01.072-.004.094-.042.021-.04.037-.085.043-.135-.028.012-.05.026-.077.03-.03.002-.062-.021-.083-.05-.044.012-.105-.005-.161-.033l-.04-.021-.105-.064-.212-.142c-.282-.186-.55-.37-.835-.443l.02.012c-.014.002-.03.016-.063.044l-.002-.037-.134-.004c-.026-.16-.184-.321-.268-.514.042.133.043.133-.004.204-.092.067-.137.09-.244-.063.052-.06.133.016.077-.12.025.075-.058.075-.123.029-.038-.109-.151-.235-.097-.293.048.017.056.063.07.093.048.017-.085-.183.059-.134l-.146-.11c-.027-.121.123-.025.123-.085-.245-.173-.484-.158-.707-.328.04-.019.173-.136.133-.103-.1-.19-.44-.211-.603-.394.063-.005.101.08.168.119-.206-.307-.396-.583-.557-.87l-.118-.216-.054-.11-.014-.054c-.017-.072-.02-.143-.003-.196-.08-.015-.172-.04-.243-.08.05-.029.117-.044.18-.05.05-.025.09-.047.12-.068.026-.017.048-.034.068-.051l.029-.027.07-.072c.1-.104.193-.21.284-.318l.068-.082c.028-.034.064-.076.092-.114.06-.08.115-.163.164-.25.099-.174.176-.363.231-.565.074-.295.172-.145.255-.284.07-.356.003-.588-.08-.788-.042-.1-.092-.195-.149-.298-.026-.048-.063-.116-.087-.152-.024-.04-.049-.085-.072-.136.073.04.254.081.199-.097-.06-.016-.147-.01-.154-.134l.072.04c.043-.129-.063-.204-.092-.43-.112-.378-.317-.714-.57-1.012-.04-.358.198.006.225-.07-.022.257.062.165.133.206-.075-.118-.133-.271-.014-.357-.018-.089-.027-.156-.047-.222-.026-.106-.065-.204-.145-.326.081.125.033.257-.05.144-.002-.114-.062-.303-.121-.459-.057-.156-.109-.286-.032-.316-.367-.574-1.007-1.015-1.73-1.114-.09-.013-.182-.021-.27-.023l-.21-.003-.373-.003h-.743c-.165.084.126.032.035.091-.24.11-.19-.056-.383.03l.08-.088c-.288-.013-.592.151-.87.233.023-.05-.034-.071-.069-.087-.043-.015-.043-.027.071-.057-.106.01-.449-.422-.599-.291.108.121.204.25.287.382-.007.038-.26.056-.23.082-.17-.05-.401-.072-.51-.02-.099-.075.193-.18.358-.214-.009-.09-.158-.08-.281-.062-.122.018-.22.036-.128-.092-.35.189.084.058-.098.216-.104.037-.207.08-.306.132.082-.031.165-.057.25-.079-.11.088-.16.178-.225.257-.065.081-.143.15-.303.237-.047.127-.082.254-.105.38-.134-.057-.17.19-.275.333-.01-.047-.018-.095-.024-.144-.114.22-.167.3-.266.436-.07-.18.107-.207.026-.31-.053.083-.1.169-.144.258.074.027.083.212.187.037.03.145.072.252.095.393.026.143.027.311.047.603-.056.105-.091.07-.13-.018-.038-.096-.068-.209-.134-.15-.003.04-.002.08 0 .118l.005.061.009.043c.011.047.027.09.047.127.04.076.092.135.145.188.105.105.217.183.229.317-.005.348.118.308.187.647-.111-.091-.052.257-.122.338l-.122-.116c.05.099.036.207-.036.19.058-.023.11.083.161.221.054.138.11.31.166.419l.093-.067c.079.173.213.404.24.601.118.271.188.18.364.359-.052.146-.163.17-.287.166.025-.09-.042-.21-.05-.343-.195-.328-.487-.554-.524-.935-.287-.1.085.242.047.44-.016-.001-.025-.012-.03-.026.003.016.006.03.004.047-.068-.122-.157-.329-.294-.334.08.218.285.099.253.4.123.183-.025.405-.003.533.135.106.326.052.397.387l-.184-.097c.122.37.256.107.368.446-.027-.123.173.065.098-.16.11.085.213.32.241.514.04.038.05-.009.099-.018.018-.232-.208-.279-.133-.49l-.194-.088c-.01-.205.103-.263.199-.17-.024-.05-.06-.089-.046-.135.21-.107-.005.248.204.247l-.06-.124c.124-.105.228.256.282.423-.001.211.047.389-.051.443l-.143-.233c-.032.164.176.301.23.448-.01.015-.016.034-.016.053.006-.01.013-.019.023-.023.008.033.008.065-.006.099.05.128.19.286.213.417l.082-.056-.058.008c-.049-.116-.06-.297.045-.24.172.228.031.357-.019.456-.164.006-.118-.251-.22-.363-.103.143.103.271.141.581-.198-.035-.144-.312-.309-.308.078.23.207.238.281.483-.084.006-.194-.215-.276-.158l.028.169c-.181-.362-.152.154-.324-.116.006.165.207.133.212.369.036-.086.076-.294.224-.143l.061.226c-.026.123-.263-.134-.255.03l.16.19c.039-.03.008-.144.1-.11.017.148.274.11.413.216.057.115.098.208.072.276.285.209.494.556.768.727-.19-.114-.135.098-.13.24-.144-.183-.274-.102-.347-.034.092.112.274.102.278.013.078.234.174.079.208.31.034.142-.162.03-.183.1.142.22.192-.048.323.204-.026 0-.045-.018-.056.017.063.143.218.232.298.212-.066.253.293.347.12.443.266.259.05-.11.147-.094.156.066.279.32.31.409-.06-.067-.154-.098-.186-.184l-.055.146c.218.418.417.024.614.434-.2-.125-.125.011-.27-.011.069.031.272.314.208.089.103.13.164.231.223.333.138.072.277.16.398.159.15.175.208.36.246.482.418.264.646.69 1.112.935l-.024-.031c.295.267-.027-.248.293.01-.144.095.123.242.18.39.358.377.782.41 1.108.755-.021.027-.07.047-.147.001.27.237.533.36.809.53l-.022.011c.386.376.882.457 1.382.645-.048 0-.084.052-.124.058.228.15.62.348.852.276.238.274.213.035.545.329.012.035-.048.01-.076.007.172.125.316.154.505.24.468.042.632-.13 1.119.07-.031.226-.325-.032-.385.137.113-.01.212-.03.34.06-.108.063-.033.05-.112.113.093.091.495-.118.486-.097.016-.04-.016-.073-.118-.091.15-.103.503.109.764.104-.08-.02-.323-.118-.206-.202.32.12.473-.077.715-.123.285.156-.255.146-.228.312.041.066.144.214.002.25.274.088.5-.02.752-.015l-.013.043c.088.007.179.002.27-.006l.136-.015.067-.008.094-.007c.241-.024.456-.071.659-.07-.073-.002-.144-.007-.215-.015.071-.032.307-.067.396-.197.007.081.317.03.224.132.055-.15.273-.294.452-.485.183-.186.319-.412.285-.562.11-.058.142.068.163.132-.19.22-.292.242-.341.416.179-.16.332-.266.351-.201.026-.145.101-.344.136-.533.037-.189.035-.362-.022-.434.115-.131.173-.29.287-.213.001-.374-.114-.276-.197-.211-.044.033-.087.06-.114.037-.027-.02-.04-.111-.04-.26.118-.281.16.273.2-.114l.02.071c.315-.28-.225-.195-.215-.512.172-.042.123.22.246.002-.043-.29-.298-.416-.243-.706l.073.045c-.013-.186.022-.546.008-.73.034-.009.03.018.038.053.065-.342-.087-.143.031-.422l-.083-.08c-.06.14-.143.412-.045.59-.098-.178-.217.278-.364.19l.059.035c-.252.464-.284 1.062-.378 1.651.089.151.051.275-.006.386-.06.113-.133.204-.168.363.131.154.01.084-.158.3.09-.119-.091-.12-.168-.096-.005.07-.045.121-.09.168-.04-.017-.146-.024-.243-.024-.099.002-.19.012-.236.087-.148-.05.027-.066.046-.115-.066-.093-.098.095-.15.028 0 0 .001-.022.014-.033-.049.005-.096.002-.134-.006l-.168-.039-.395-.1c-.054.19-.32.03-.469.072.056-.055-.163-.106-.244-.16-.064.04-.13.077-.195.112-.19.086-.211-.133-.438-.117l.043.047c-.17.021-.55-.198-.669-.346-.757-.013-1.287-.265-1.784-.569-.499-.308-.968-.665-1.658-.995-.115.002.015.124-.097.162-.146-.06-.173-.086-.298-.156.082.11.098.043.056.082l.217.064c.002.018-.021.01-.017.046.073.02.168.027.246.082-.142-.021-.25.092-.383-.053.022-.01.046-.004.094.01-.126-.088-.168-.032-.249-.124-.105-.1-.098-.044-.081-.108l-.332-.302c-.278.027-.417-.261-.463-.316.11-.08.264.128.424.079l-.08-.167-.064.083c-.057-.05-.115-.097-.17-.148l.022-.01c-.044.019-.09.037-.116-.026 0-.017-.001-.053.023-.044l-.163-.043c.138-.036-.095-.106-.003-.196-.372-.354-.627-.258-.867-.68.02.093-.237.061-.327-.051-.041-.077-.037-.111.032-.114l-.18-.072c-.038-.3-.286-.357-.477-.642l.05-.027c-.134-.039-.262-.101-.378-.248l.103-.053c-.1-.216-.286.033-.406-.201-.086.08-.022.24-.087.336.047-.128-.125-.341-.145-.237-.204-.161-.114-.136-.107-.171l-.152-.066c-.113-.14.08-.144.174-.14-.205-.042-.25-.243-.353-.4l.089.025-.136-.207c-.173-.069-.312-.249-.396-.446l.21.023c-.02-.164-.087-.028-.131-.043-.196-.143-.136-.247-.133-.396-.342-.216-.186-.753-.545-.896z" clip-rule="evenodd"/>
    </g>
    <path fill="#FF4651" fill-rule="evenodd" d="M12.181 16.327c.011.028.016.052.024.07-.005-.02-.013-.041-.024-.07zM13.59 18.531c.014 0 .005-.076-.01-.167-.016.027-.018.075.01.167zM27.006 23.337l-.08.001c.04.032.078.065.112.1.25.014.319-.047.444-.108-.273-.024-.379-.121-.695-.15.08.048.153.101.219.157zM27.58 22.685c-.023-.036-.086-.123-.135-.139l-.059.055c.068.025.131.053.193.084zM24.703 21.173c.223.036.439.08.645.13.12-.01.007-.07-.169-.113-.174-.043-.408-.062-.476-.017zM25.4 22.677l.143-.031c-.095-.086-.243-.125-.29-.059.159.006.023.053.147.09zM24.007 21.131c-.13.143-.653.045-.694.188.13-.075.718-.066.694-.188zM24.577 22.607c.066.112.143 0 .251.036-.082-.009-.222-.126-.25-.036zM22.838 22.608c-.088-.124.032-.239.182-.35-.011.08.008.162-.033.24.066-.157.107-.235.146-.302.034-.061.086-.139.18-.274-.072.03-.16.085-.229.124-.063.033-.126.065-.184.09-.117.048-.217.062-.266-.021-.031.238-.045.559.204.493zM23.878 22.674c.098.003.165.072.259.051-.024-.06-.076-.15-.2-.1.006-.038.012-.076.02-.115-.144-.04.08.12-.079.164z" clip-rule="evenodd"/>
    <path fill="#FF4651" fill-rule="evenodd" d="M22.542 23.267c.014.017.03.032.046.045.007-.13.028-.203.042-.277-.001-.02.032-.113.045-.185.016-.075.023-.151.017-.233-.036.076-.073.162-.107.25-.017.053-.016.078-.023.125-.01.085-.02.186-.02.275zM23.231 22.576l.083.124c.113-.07-.04-.032-.026-.09.044-.01.099-.032.106-.072-.113.112-.08-.092-.163.038zM23.289 23.203l-.057.102c-.018.033-.035.064-.07.116l.073-.017.059-.002.118-.005c.145-.225-.056-.074-.123-.194zM22.748 23.313h-.04c-.058.21-.126.458-.22.695.172-.374.186-.39.26-.695zM19.842 21.181c-.07.02.012.21.002.102.061-.013-.06-.246-.002-.102zM19.838 22.587c-.068-.206-.499-.527-.695-.665.21.199.638.84.695.665zM19.116 22.602l.054.027c-.022-.014-.04-.023-.055-.027zM17.06 16.373c.002-.006.001-.013-.005-.023l.005.023z" clip-rule="evenodd"/>
    <path fill="#FF4651" fill-rule="evenodd" d="M17.093 16.295c-.02.009-.037.036-.043.063-.018.04-.048.108-.032.14l.06-.092c.012-.022.012-.033.018-.053.008-.037.01-.078 0-.126-.008.027-.066.022-.003.068zM17.707 15.64c.044.025.025.072.086.058.028-.023-.047-.087-.086-.059zM12.28 12.07c-.17.113-.224.224-.12.244.145-.16.024-.111.12-.244zM11.589 12.161l-.052-.005c-.044.02-.087.044-.13.068.06-.024.121-.045.182-.063z" clip-rule="evenodd"/>
    <mask id="prefix__b" width="1" height="1" x="11" y="13" maskUnits="userSpaceOnUse">
        <path fill="#fff" fill-rule="evenodd" d="M11.08 13.688h.262v.277h-.261v-.277z" clip-rule="evenodd"/>
    </mask>
    <g mask="url(#prefix__b)">
        <path fill="#FF4651" fill-rule="evenodd" d="M11.223 13.869c-.017-.015-.034-.064-.039-.114.003.104.013.191.04.114z" clip-rule="evenodd"/>
    </g>
    <mask id="prefix__c" width="1" height="1" x="11" y="13" maskUnits="userSpaceOnUse">
        <path fill="#fff" fill-rule="evenodd" d="M11.081 13.586h.24v.278h-.24v-.278z" clip-rule="evenodd"/>
    </mask>
    <g mask="url(#prefix__c)">
        <path fill="#FF4651" fill-rule="evenodd" d="M11.184 13.699v0z" clip-rule="evenodd"/>
    </g>
    <mask id="prefix__d" width="1" height="1" x="11" y="13" maskUnits="userSpaceOnUse">
        <path fill="#fff" fill-rule="evenodd" d="M11.081 13.074h.268v.278h-.268v-.278z" clip-rule="evenodd"/>
    </mask>
    <g mask="url(#prefix__d)">
        <path fill="#FF4651" fill-rule="evenodd" d="M11.24 13.173l-.059-.031c.004.03.002.088.003.143.003-.05.02-.1.056-.112z" clip-rule="evenodd"/>
    </g>
    <path fill="#FF4651" fill-rule="evenodd" d="M11.472 14.277c.041-.19.087-.37.137-.541-.027-.276-.05-.127-.08.033-.03.157-.069.33-.142.039.025.161.054.318.085.469zM11.5 14.973c-.027.14.324.305.12.402.238.364.353-.123.573.293-.005-.413-.511-.159-.48-.533-.095.188-.143-.108-.213-.162z" clip-rule="evenodd"/>
    <path fill="#FF4651" fill-rule="evenodd" d="M11.504 14.845c-.087-.016-.063.196.002.253 0-.063.098-.184-.002-.253zM11.501 15.575l-.033.156.06.027-.027-.183z" clip-rule="evenodd"/>
    <path fill="#FF4651" fill-rule="evenodd" d="M11.56 15.705l-.124-.119c.045.038.086.249.124.119zM11.417 16.335c.005.14.25.195.129-.064l.009.064c-.038-.007-.073.162-.138 0zM12.95 18.483c-.028-.087-.09-.178-.127-.144.043.074.085.146.131.218l-.003-.074zM12.926 17.75c.097-.232-.089-.387-.103-.695.039.333.014.308.103.695zM12.253 18.556c-.077-.042-.084-.154-.099-.216-.06.057.024.212.099.216z" clip-rule="evenodd"/>
    <path fill="#FF4651" fill-rule="evenodd" d="M12.487 18.674c-.019.091-.084.013-.094.08.015.176.11.332.233.386.035-.062.16-.177.262-.143-.18-.214-.488-.247-.357-.435-.114-.037-.226-.076-.338-.117.055.211.241.09.294.23zM12.801 18.309l-.018.166c.06-.056.114.042.166.104.145-.102-.107-.196-.148-.27zM13.489 20.402c.063.087.123.174.188.259l-.043-.095-.146-.164z" clip-rule="evenodd"/>
    <path fill="#FF4651" fill-rule="evenodd" d="M13.521 20.43l-.039.033.202.165-.163-.197z" clip-rule="evenodd"/>
    <path fill="#FF4651" fill-rule="evenodd" d="M13.655 20.619l-.012-.037-.133-.141.145.178zM14.323 21.365l.03-.089c-.059-.058-.075-.237-.15-.172.065.041.143.19.12.26zM16.386 21.874c-.07-.01-.083.042-.097.094l.147-.016c-.02-.015-.06-.044-.05-.078zM16.638 22.7l.42.068c-.245-.2-.432-.15-.695-.303.04.1.315.13.394.242l-.12-.007zM20.016 24.7c-.063.125-.017.157-.178.08.208.147.352.377.566.614-.006-.138.197-.107.105-.166l-.257-.2.066-.058c-.125-.316-.157.034-.302-.27zM28.934 25.399c-.048-.176-.113.079-.123.044.044.027.084-.009.123-.044z" clip-rule="evenodd"/>
</svg>
