<svg width="40" height="40" viewBox="0 0 40 40" fill="none" xmlns="http://www.w3.org/2000/svg">
<path d="M11.1647 26.5098C11.1647 26.5728 11.1647 26.6674 11.1963 26.7304C11.1963 26.8565 11.2278 26.9825 11.2278 27.1086C11.2908 27.3607 11.3538 27.6129 11.4484 27.865C11.669 28.3378 11.9842 28.779 12.2994 29.0627C12.52 29.0942 12.7406 29.2518 12.9927 29.3779L12.9297 29.5354L13.1819 29.5985C13.2449 29.693 12.9927 29.5354 13.1188 29.6615C13.1503 29.63 13.2134 29.63 13.2449 29.5985C13.2449 29.63 13.371 29.693 13.4655 29.7561C13.5601 29.7876 13.5916 29.8506 13.371 29.8191C13.6861 29.9137 14.0013 29.9767 14.3165 29.9767C14.4425 29.9767 14.4425 29.9452 14.4425 29.9137C14.4741 29.8821 14.4741 29.8506 14.5686 29.8821C14.6001 29.9137 14.5056 29.9137 14.5371 29.9767C14.9468 30.1028 15.0414 29.6615 15.4196 29.7246V29.7876C15.4826 29.7561 15.6087 29.7561 15.6087 29.7246C15.5457 29.567 15.5457 29.8191 15.4196 29.7246C15.4196 29.5985 15.5772 29.6615 15.5772 29.5354C15.6717 29.5985 15.7348 29.5039 15.7978 29.5039C15.9239 29.5985 16.1445 29.5354 16.239 29.63C16.3021 29.5985 16.3966 29.4409 16.5227 29.4409C16.6172 29.5354 16.4912 29.5354 16.6488 29.5985L16.6803 29.5039C16.8064 29.5039 16.7748 29.5354 16.7748 29.567C16.9009 29.567 16.8694 29.4724 17.027 29.5039L16.9324 29.567C17.0585 29.5354 17.09 29.5354 17.2476 29.567C17.2476 29.5985 17.1846 29.5985 17.1215 29.5985C17.2161 29.7246 17.2791 29.5354 17.3106 29.567C17.3106 29.5354 17.1846 29.5039 17.2476 29.4409C17.3421 29.4409 17.4052 29.3463 17.4682 29.4409L17.3737 29.5039C17.5313 29.4409 17.4682 29.4094 17.6573 29.4409V29.4724C17.7834 29.3779 17.941 29.4724 18.0986 29.4724V29.5354C18.1616 29.5039 18.2246 29.4409 18.2562 29.4409C18.1616 29.4094 18.1931 29.3779 18.1616 29.2833C18.2877 29.4094 18.3822 29.1257 18.5713 29.2203C18.5713 29.2518 18.5083 29.3148 18.4453 29.2833C18.3822 29.4094 18.3507 29.5354 18.2246 29.5985C18.3192 29.567 18.4137 29.5354 18.3822 29.5985L18.4137 29.4724C18.4768 29.4724 18.5083 29.4724 18.5398 29.4724C18.5713 29.3779 18.4453 29.3463 18.5398 29.2833C18.6659 29.2518 18.6028 29.4094 18.6344 29.3463C18.8235 29.2833 18.6974 29.2203 18.8865 29.2518C18.855 29.2518 18.8235 29.2833 18.8235 29.2833C18.9495 29.3463 19.1386 29.2518 19.1702 29.4094C19.1386 29.4409 19.1386 29.4724 19.1071 29.4724V29.4409C18.9811 29.5354 19.2332 29.4094 19.1702 29.5354C19.1702 29.4409 19.3277 29.4724 19.4223 29.4724L19.3908 29.3779C19.6429 29.0942 19.3908 29.567 19.6429 29.5354C19.8005 29.4724 19.5799 29.5039 19.6744 29.4409C19.8005 29.4724 19.832 29.5354 19.9896 29.5039C20.0211 29.5354 20.1157 29.5985 20.1472 29.693C20.2417 29.6615 20.4624 29.7246 20.4939 29.63C20.3363 29.5354 20.3363 29.7246 20.1157 29.5985L20.1787 29.5039C20.3048 29.5039 20.4939 29.4724 20.5884 29.5039C20.62 29.5039 20.62 29.4724 20.62 29.4724C20.8091 29.4409 20.8721 29.3463 21.0612 29.3779C21.0927 29.4724 20.9666 29.4409 20.9036 29.4724C21.0297 29.5354 21.0297 29.4724 21.2188 29.5039C21.2188 29.5985 21.0927 29.5039 21.0612 29.567L21.2818 29.5354C21.2818 29.5354 21.2818 29.5354 21.2818 29.567C21.3133 29.4409 21.4394 29.567 21.5655 29.5354C21.8806 29.5354 21.9122 29.3463 22.1013 29.2518C22.1328 29.2833 22.1643 29.3148 22.1328 29.3463C22.0698 29.2833 22.0698 29.3463 22.0382 29.3779C22.1328 29.3779 22.2589 29.5039 22.1958 29.567C22.3534 29.5354 22.1328 29.5039 22.2273 29.4409H22.448C22.4164 29.3779 22.3534 29.3463 22.448 29.3148C22.5425 29.2833 22.6055 29.3148 22.7316 29.3148C22.7001 29.3463 22.7631 29.4094 22.6686 29.4094C22.7316 29.4409 22.8262 29.4409 22.8577 29.3779C22.7316 29.3148 23.0783 29.3148 22.9838 29.2203L23.1098 29.2833C23.0783 29.2833 23.0783 29.3148 23.0153 29.3148C23.0468 29.4094 23.1413 29.2833 23.1729 29.2833C23.2359 29.3148 23.362 29.3148 23.362 29.3463C23.3935 29.3148 23.5196 29.3463 23.5196 29.4094C23.5826 29.3779 23.5196 29.3463 23.5511 29.3148H23.7717C23.7717 29.3779 23.8032 29.5354 23.7717 29.567C23.8662 29.5039 23.8032 29.4094 23.9293 29.4094C23.8662 29.5354 24.0869 29.5039 23.9923 29.63C24.0553 29.7246 24.276 29.7246 24.402 29.693C24.4651 29.5985 24.276 29.63 24.276 29.5354C24.5911 29.5039 24.6227 29.2518 24.8433 29.2833L24.7802 29.2518C25.0324 29.1572 25.0324 29.1572 25.1269 29.0942C25.0639 29.2203 25.3791 29.4094 25.6943 29.2833C25.6943 29.2203 25.5051 29.2203 25.5367 29.1257C25.5997 29.0942 25.6627 29.0942 25.7258 29.0627C25.7573 29.0627 25.7258 29.0942 25.6943 29.1257C25.8518 29.0312 26.0725 29.1257 26.0725 28.9997C26.167 29.0312 26.23 29.0312 26.3246 29.0627L26.23 29.0312C26.23 28.9681 26.3876 28.8421 26.4192 28.8105C26.5452 28.653 26.6398 28.6214 26.7658 28.5899C26.7028 28.5899 26.5767 28.5584 26.6713 28.4323C26.7974 28.5584 26.9549 28.2117 27.018 28.2748C27.0495 28.2117 27.1756 28.1487 27.1125 28.1172L27.2071 28.1802C27.081 28.0856 27.2071 27.865 27.2701 27.7074C27.4592 27.8335 27.3332 27.5183 27.5223 27.4868C27.4592 27.4553 27.4592 27.3607 27.4592 27.2662C27.4592 27.1716 27.4592 27.1086 27.3962 27.0771C27.3962 26.951 27.5223 26.951 27.5853 26.9195L27.5223 26.8565C27.5853 26.7619 27.6168 26.5728 27.6483 26.4467L27.5223 26.3207L27.5853 26.2892C27.5538 26.2576 27.5223 26.1631 27.4907 26.2261V26.1631C27.3647 26.1631 27.4592 26.0685 27.3962 25.9425C27.4277 25.9109 27.4592 25.9109 27.4592 25.9425C27.4592 25.8794 27.5223 25.9109 27.5853 25.8794C27.5538 25.9109 27.3332 25.6588 27.2701 25.8164C27.2071 25.8164 27.1756 25.7218 27.2071 25.6588L27.3332 25.6273L27.2071 25.5643C27.1756 25.4697 27.2701 25.4382 27.2701 25.3436C27.2701 25.4382 27.5223 25.5327 27.5223 25.3121C27.5538 25.4067 27.6168 25.4697 27.6483 25.5327C27.6483 25.5012 27.6798 25.4697 27.7114 25.5327C27.6798 25.3752 27.6483 25.4697 27.6168 25.3121C27.7429 25.3121 27.7744 25.2806 27.8059 25.123L27.7114 25.2176C27.7114 25.2176 27.6798 25.2176 27.6798 25.1861C27.6798 25.2176 27.6483 25.2491 27.6168 25.2491C27.6168 25.2176 27.4907 25.06 27.5538 25.0285C27.3647 25.1861 27.4277 24.7448 27.3016 24.8394C27.2701 24.8078 27.2701 24.7133 27.3332 24.6818C27.4277 24.8078 27.4592 24.5872 27.5538 24.5872C27.5223 24.5242 27.4592 24.6818 27.4277 24.6187C27.4277 24.5242 27.4907 24.4927 27.5223 24.4296L27.5538 24.4611L27.6168 24.3351C27.5538 24.3036 27.5223 24.4612 27.4907 24.3351C27.5223 24.3036 27.4907 24.1775 27.5223 24.209C27.5853 24.272 27.7114 24.209 27.7114 24.3351C27.7114 24.2405 27.6798 23.9884 27.5853 24.1145V24.0199C27.5223 24.0829 27.4592 24.2405 27.4277 24.0514H27.4592L27.3647 23.9254L27.4277 23.8623C27.3962 23.8623 27.3647 23.8308 27.3647 23.7993C27.3962 23.7993 27.4277 23.7363 27.4592 23.7363C27.4592 23.5787 27.3962 23.6102 27.3647 23.5787C27.3647 23.4841 27.3962 23.4526 27.4592 23.5156C27.4592 23.3896 27.4592 23.2005 27.5223 23.1374C27.4592 22.9798 27.4907 23.1689 27.4277 23.0744C27.6168 22.9483 27.4907 22.5701 27.4907 22.3495C27.3016 22.4125 27.4592 22.2865 27.3016 22.2234C27.3647 22.2865 27.4277 22.0028 27.4907 22.1919L27.4592 22.0658C27.5538 21.9713 27.5223 22.2865 27.6483 22.1604C27.6483 22.0028 27.4592 21.9082 27.5223 21.7507C27.6483 21.8137 27.4907 21.6246 27.6168 21.6561C27.6483 21.6876 27.6483 21.7507 27.6483 21.7822L27.6798 21.7507C27.7114 21.4355 27.5223 21.6561 27.4592 21.4985C27.4592 21.3094 27.5538 21.3409 27.6168 21.3409C27.6483 21.3094 27.6168 21.2149 27.5853 21.1518C27.6483 21.2779 27.5223 21.3724 27.4277 21.3094C27.5538 21.2149 27.4277 21.0258 27.3962 20.9627C27.2386 21.2464 27.3962 21.1518 27.2386 21.404C27.2701 21.4355 27.3962 21.4355 27.3647 21.5931C27.3016 21.4985 27.3016 21.5931 27.2701 21.6246C27.3332 21.5931 27.3016 21.7191 27.3332 21.7822C27.2701 21.8137 27.1756 21.6876 27.1441 21.8452L27.3016 21.8767C27.2701 21.9398 27.1756 21.8452 27.2071 21.9713C27.1125 21.9082 27.081 22.0028 27.0495 21.8137C26.8919 22.0343 27.1125 22.1289 27.1756 22.318C27.1756 22.2865 27.1441 22.2865 27.1441 22.2865C27.1756 22.318 27.1756 22.381 27.2071 22.444C27.1756 22.5386 27.144 22.3495 27.081 22.381V22.5701C27.1125 22.6016 27.1125 22.6647 27.081 22.6647C27.018 22.6016 26.9549 22.6016 26.9234 22.5701L27.0495 22.7592C26.9865 22.7277 26.9549 22.9168 26.9234 22.7907L26.9549 23.0744L26.8289 23.1059C26.8604 23.1689 26.8604 23.1689 26.8919 23.1059C26.8604 23.2005 27.081 23.5156 26.8604 23.4841C26.9549 23.7047 26.9234 23.7678 26.9865 24.0514C26.8919 23.8623 26.8604 24.272 26.7974 24.0829C26.7343 24.209 26.8604 24.2405 26.8919 24.3351C26.8289 24.4296 26.7343 24.3981 26.7028 24.272L26.7658 24.3981H26.7343L26.7974 24.4927C26.7343 24.5872 26.6713 24.5242 26.6713 24.6187L26.7658 24.6503L26.7028 24.7133C26.7343 24.6818 26.7658 24.7448 26.7658 24.8394H26.7343L26.7658 24.9339C26.7028 24.8394 26.7343 25.0285 26.6713 24.9654C26.6713 25.06 26.6713 25.06 26.6713 25.2176L26.7343 25.1861C26.7974 25.3752 26.6398 25.1861 26.6398 25.3436H26.7343C26.6083 25.5643 26.7974 25.7218 26.7343 25.9109C26.7028 25.8164 26.6083 25.8479 26.6398 25.8479C26.6713 26.0055 26.6398 26.2261 26.7343 26.3837C26.6083 26.4467 26.5767 26.4467 26.5452 26.6043C26.5452 26.7304 26.5767 26.7304 26.6398 26.7619C26.6083 26.7934 26.6083 26.8565 26.6083 26.9195C26.6083 26.9825 26.5767 27.0141 26.5452 27.0141C26.6083 27.0456 26.5137 27.0771 26.5767 27.1401H26.5452H26.6398C26.5452 27.2032 26.5452 27.2662 26.5452 27.3292C26.5452 27.3923 26.5452 27.4868 26.4507 27.5183V27.4868V27.5499C26.4192 27.5499 26.4192 27.5183 26.3876 27.4868C26.3246 27.5499 26.2931 27.6444 26.1985 27.7074H26.2931C26.2616 27.7705 26.2931 27.8335 26.1985 27.865C26.1985 27.7074 26.1355 27.9281 26.0409 27.865L26.0725 27.802C26.0094 27.865 26.0094 27.865 26.0725 27.9281C26.0094 28.0226 25.9149 27.865 25.8834 27.9596C25.9149 27.9596 25.9149 27.9281 25.9464 27.9281C25.9779 27.9596 25.9779 28.0541 25.9464 28.0541C25.9149 28.0541 25.8834 28.0226 25.9149 28.0226C25.8518 28.0856 25.7258 28.1172 25.6943 28.1487C25.6312 28.1487 25.6312 28.0856 25.6627 28.0541C25.5367 28.1802 25.5997 28.0541 25.4421 28.1802V28.1487L25.3791 28.2117C25.3476 28.1802 25.316 28.1487 25.2845 28.1172L25.316 28.1802C25.253 28.1802 25.2215 28.2117 25.1585 28.2117C25.1585 28.1802 25.19 28.1802 25.19 28.1487C24.9694 28.1802 24.9378 28.0226 24.7172 28.1172L24.7487 28.0856C24.5596 28.1802 24.5911 27.9596 24.402 28.0856C24.402 28.0541 24.402 28.0226 24.402 28.0226L24.0869 27.9911V27.8965L24.0238 28.0226L23.9608 27.9281L23.9293 27.9596C23.8347 27.7705 23.6771 27.9281 23.5511 27.7705L23.5826 27.8965C23.2359 28.1487 22.7947 27.7705 22.3849 27.865V27.7705L22.2273 27.865C22.1328 27.802 22.2904 27.802 22.2589 27.739C22.0698 27.802 22.1958 27.865 21.9752 27.8965C21.8806 27.8335 22.0067 27.8335 22.0698 27.802C21.8806 27.8335 21.5655 27.8965 21.4394 27.8335V27.865C21.3133 27.8965 21.1242 27.865 20.9982 27.865C20.9982 27.8335 21.0297 27.802 21.0612 27.802C20.9982 27.802 20.9351 27.7705 20.9036 27.802L20.9666 27.739C20.8406 27.7074 20.6515 27.802 20.62 27.7074C20.62 27.739 20.62 27.802 20.5254 27.802C20.4624 27.6759 20.2733 27.865 20.1157 27.7705C20.1472 27.739 20.2417 27.739 20.2102 27.739C20.1472 27.7074 20.0526 27.7705 19.9896 27.802L20.0211 27.739L19.6744 27.802C19.6114 27.6759 19.3277 27.8335 19.3593 27.7074C19.2332 27.7074 19.4538 27.7705 19.2962 27.7705C19.2647 27.7074 19.1386 27.802 19.1702 27.7074H19.2017H19.0756L19.1386 27.6129C19.0441 27.6444 18.9811 27.7074 18.9495 27.802C18.855 27.739 18.7289 27.802 18.6974 27.7074L18.7289 27.6759C18.4768 27.7074 18.2877 27.4238 18.0986 27.5814C18.0986 27.5814 18.0986 27.5499 18.1301 27.5499H17.9725L18.004 27.4868L17.7519 27.5814V27.5499C17.5628 27.5183 17.3106 27.5499 17.09 27.5814L17.1215 27.5499C16.8694 27.6129 16.8694 27.5183 16.7118 27.5499C16.7118 27.5499 16.7118 27.5183 16.7433 27.5183H16.5857L16.6172 27.4868C16.4912 27.5814 16.2706 27.3607 16.3336 27.4553C16.2706 27.4868 16.1445 27.5499 16.113 27.6129C15.9239 27.6129 16.0815 27.5499 15.9554 27.5183C15.8293 27.5183 15.7978 27.5814 15.6402 27.5499V27.5183C15.5457 27.5183 15.5141 27.5499 15.3881 27.5814L15.4196 27.5499C15.2305 27.6444 15.199 27.4238 15.0414 27.6129C14.9783 27.5814 14.8208 27.6129 14.8208 27.5183C14.7262 27.5499 14.6001 27.5814 14.5056 27.5814C14.4425 27.5814 14.411 27.6129 14.348 27.6129C14.348 27.4553 14.3165 27.6129 14.285 27.5183L14.2534 27.5814C14.1589 27.5814 14.0959 27.4868 14.0643 27.4238C14.0013 27.3607 14.0013 27.2662 13.9068 27.2347V27.2662L13.8122 27.2977C13.7492 27.1716 13.7176 26.951 13.6861 26.8565C13.6231 26.825 13.5285 26.7934 13.5601 26.6043V26.6358C13.5285 26.3522 13.4655 26.0685 13.5285 25.7534C13.5601 25.7849 13.5916 25.7534 13.6231 25.7849C13.5285 25.7218 13.6231 25.5958 13.6231 25.5327L13.5601 25.5958C13.497 25.5012 13.5601 25.3752 13.6231 25.3436L13.5285 25.2176L13.5601 25.1861L13.5285 25.1545L13.6231 25.0915C13.5916 25.06 13.5601 24.8709 13.4655 24.8078C13.497 24.8078 13.5285 24.6818 13.5601 24.7763L13.5916 24.272L13.5601 24.3351C13.4655 24.3351 13.434 24.209 13.4655 24.1145C13.5285 24.209 13.5916 24.1145 13.6231 24.0829C13.5916 24.0199 13.5601 24.146 13.497 24.1145C13.434 24.0199 13.4025 23.8623 13.4655 23.7993L13.497 23.8623C13.4655 23.7363 13.5916 23.7047 13.5916 23.5787C13.5285 23.4841 13.5916 23.3896 13.434 23.4211C13.4025 23.2635 13.5285 23.358 13.5285 23.3265C13.4655 23.2635 13.497 23.0429 13.5601 23.0114C13.371 22.9168 13.6231 22.6016 13.4655 22.5701L13.5601 22.444C13.5285 22.444 13.4025 22.4125 13.4025 22.318C13.4655 22.2234 13.5285 22.2549 13.5916 22.2234L13.434 22.1604C13.6546 21.6561 13.5285 20.9627 13.6861 20.3954C13.6546 20.1433 13.5601 19.7966 13.5916 19.5129L13.6231 19.5444L13.6546 19.2293L13.5916 19.4499C13.5601 19.3869 13.5285 19.3238 13.5285 19.2608C13.5916 18.9141 13.6861 18.4728 13.5916 18.0946C13.4025 17.8425 13.7492 17.9055 13.6231 17.6534C13.6546 17.6849 13.6861 17.6849 13.6861 17.6849C13.6231 17.4013 13.5916 17.2752 13.4655 16.9915C13.6546 17.023 13.4655 16.8024 13.5601 16.8339L13.497 16.8024C13.5601 16.7394 13.5601 16.6133 13.6231 16.6133L13.5285 16.4873H13.6231C13.6231 16.3297 13.5601 15.983 13.7176 15.8884C13.5916 15.4787 13.6231 14.8799 13.6546 14.3756C13.5916 14.3126 13.5916 14.155 13.5916 14.0604L13.6861 13.9659C13.6546 13.8398 13.5285 13.7137 13.5916 13.6192H13.6231C13.5916 13.4931 13.6546 13.3986 13.5601 13.2725C13.5601 13.1464 13.6231 13.0203 13.7176 13.0519C13.6231 13.0519 13.6546 12.9888 13.6546 12.9258C13.6546 12.8943 13.6546 12.8943 13.6861 12.8628C13.6861 12.8628 13.7176 12.8628 13.7176 12.8312C13.7492 12.8312 13.7492 12.8312 13.7492 12.8312C13.7492 12.8312 13.7807 12.6737 13.9068 12.4845C13.9698 12.39 14.0959 12.2954 14.2219 12.2639C14.285 12.2324 14.348 12.2324 14.4425 12.2009C14.6317 12.2009 14.8208 12.2009 14.9783 12.2009C16.8379 12.2009 18.8865 12.0748 19.6744 11.6336C19.7375 11.5705 19.8635 11.5075 19.832 11.413C19.9581 11.3814 19.9896 11.5075 20.0211 11.4445C19.8635 11.3814 20.0842 11.2554 19.9266 11.1293L20.0211 11.0978C20.0526 11.0347 19.8951 11.1608 19.9266 11.0663L19.8951 11.2239C19.8005 11.1923 19.769 11.1608 19.7375 11.1293C19.6744 11.1923 19.6114 11.3814 19.4223 11.2869H19.4853C19.3277 11.2869 19.3908 11.1923 19.3593 11.1608H19.3908L19.2647 11.0978C19.3593 11.1608 19.5168 11.0347 19.4223 11.0347C19.2332 11.0032 19.4538 11.0663 19.3277 11.0978C19.2332 11.0978 19.2647 11.0347 19.2647 10.9717H19.1071C19.1071 10.9087 19.2017 10.9717 19.1386 10.9087L18.9495 10.9717C18.918 10.8141 18.7604 11.0663 18.6659 10.8772C18.7919 10.8456 18.6659 10.8141 18.6659 10.7511H18.3507C18.3192 10.7196 18.4453 10.6881 18.3822 10.7196C18.3192 10.6565 18.2877 10.7511 18.2562 10.7511C18.2246 10.6881 18.004 10.7511 18.0355 10.625C17.8149 10.562 17.941 10.7826 17.7519 10.7196C17.7204 10.6565 17.9095 10.6881 17.8149 10.625L17.5943 10.6565C17.6258 10.625 17.6258 10.5305 17.7204 10.562C17.1215 10.562 16.8379 10.1838 16.3021 10.2783C16.239 10.1838 16.3651 10.2153 16.3966 10.1838C16.0184 10.2783 15.8608 9.99468 15.5457 10.0262V10.0892C15.325 9.96316 15.0729 9.93164 14.8208 9.93164C14.6947 9.93164 14.5686 9.93164 14.411 9.93164C14.2219 9.93164 14.0328 9.93164 13.8437 9.96316L13.9383 9.99468C13.8437 10.0577 13.6861 10.1207 13.5916 10.1838C13.5601 10.1523 13.6231 10.0262 13.434 10.1207C13.497 10.1207 13.5916 10.1207 13.5601 10.1523C13.2134 10.1523 12.7406 10.3729 12.2994 10.7511C12.1103 10.9717 11.9212 11.1923 11.7636 11.4445C11.606 11.7281 11.5114 12.0118 11.4169 12.2639C11.3854 12.453 11.3538 12.6421 11.3538 12.8312C11.3538 12.9573 11.3538 13.0834 11.3538 13.2094C11.3538 13.4616 11.3223 13.7137 11.3223 13.9659C11.2908 14.4701 11.2908 14.9744 11.2908 15.4472C11.2908 15.2896 11.4484 15.3526 11.4169 15.4787C11.1647 15.7939 11.4799 16.0145 11.2908 16.3297C11.3854 16.897 11.1332 17.3697 11.3538 17.9055H11.2593C11.2278 17.9686 11.2908 18.0001 11.2908 18.0946H11.2593C11.2278 18.2837 11.3223 18.5044 11.2593 18.6304H11.3538C11.3538 18.7565 11.2908 18.6935 11.3223 18.8195H11.2908L11.3854 18.9456C11.2278 18.9456 11.3854 19.2608 11.2908 19.3553C11.3223 19.5129 11.3854 19.7966 11.3538 20.0172C11.2593 20.0487 11.2593 20.3324 11.2278 20.5215C11.2593 20.8682 11.2593 21.3409 11.2593 21.7822H11.3538V21.9082C11.3223 21.9082 11.3223 21.9082 11.3223 21.9082C11.1963 22.0028 11.3538 22.1604 11.2908 22.2549C11.3854 22.1919 11.2908 22.1604 11.3223 22.0973C11.3854 22.0028 11.4799 22.0973 11.4169 22.2234H11.3854H11.4484C11.3538 22.2234 11.3223 22.318 11.2593 22.318C11.2908 22.6962 11.4169 22.9483 11.3854 23.3265C11.2908 23.295 11.4169 23.6102 11.2593 23.5156C11.2908 23.7678 11.3538 23.4841 11.4799 23.6102C11.4799 23.6732 11.5114 23.7363 11.4484 23.7678C11.4169 23.7363 11.3538 23.8308 11.3538 23.7678V23.9254L11.3223 23.8938C11.4169 24.209 11.2278 24.4612 11.3223 24.7448C11.3854 24.7763 11.3538 24.6187 11.3854 24.6503C11.5114 24.9339 11.2908 24.9024 11.3538 25.1545L11.2908 25.06C11.3538 25.1545 11.4169 25.186 11.3538 25.3121C11.2593 25.3436 11.2908 25.1861 11.2278 25.123C11.2278 25.2176 11.2593 25.4697 11.3223 25.3752C11.3538 25.5012 11.2593 25.5327 11.2593 25.5958C11.2908 25.5958 11.3223 25.5012 11.3538 25.5643C11.2908 25.7218 11.2908 25.974 11.2908 26.1631C11.2593 26.1631 11.2278 26.1631 11.2278 26.1631C11.3538 26.3207 11.1332 26.3207 11.1647 26.5098Z" fill="#FFBB00"/>
<path d="M19.7375 23.1076C19.8321 23.0761 19.9266 22.95 20.0212 22.9816C20.0527 22.8555 20.0527 22.8555 20.0842 22.824V22.9816L20.1157 22.9185C20.1157 22.9816 20.0842 22.95 20.1157 23.0131V22.9185C20.1157 22.9816 20.1787 22.95 20.1472 23.0761H20.2418C20.2733 23.0761 20.2418 22.95 20.2733 22.9816C20.2733 23.0131 20.2733 23.0131 20.2733 23.0761C20.3363 23.2022 20.3363 22.7609 20.3994 22.824V22.8555C20.3994 22.824 20.4309 22.824 20.4309 22.7925C20.4309 22.6349 20.4309 22.887 20.3994 22.7925C20.3994 22.6664 20.4309 22.7294 20.4309 22.6034C20.4309 22.6664 20.4624 22.5718 20.4624 22.5718C20.4939 22.6664 20.5254 22.6034 20.5254 22.6979C20.5254 22.6664 20.557 22.5088 20.557 22.5088C20.557 22.6034 20.557 22.6034 20.5885 22.6664V22.5718C20.62 22.5718 20.5885 22.6034 20.5885 22.6349C20.62 22.6349 20.5885 22.5403 20.62 22.5718V22.6349C20.6515 22.6034 20.6515 22.6034 20.6515 22.6349C20.6515 22.6664 20.6515 22.6664 20.62 22.6664C20.62 22.7925 20.6515 22.6034 20.6515 22.6349C20.6515 22.6034 20.62 22.5718 20.6515 22.5088C20.6515 22.5088 20.683 22.4143 20.683 22.5088V22.5718C20.7145 22.5088 20.683 22.4773 20.7145 22.5088V22.5403C20.7461 22.4458 20.7461 22.5403 20.7776 22.5403V22.5718C20.7776 22.5403 20.8091 22.4773 20.8091 22.4773C20.8091 22.4458 20.8091 22.4143 20.8091 22.3197C20.8406 22.4458 20.8406 22.1621 20.8721 22.2567C20.8721 22.2882 20.8721 22.3512 20.8406 22.3197C20.8406 22.4458 20.8406 22.5718 20.8091 22.6349C20.8091 22.6034 20.8406 22.5718 20.8406 22.6349V22.5088C20.8406 22.5088 20.8406 22.5088 20.8721 22.5088C20.8721 22.4143 20.8721 22.3827 20.8721 22.3197C20.9036 22.2882 20.8721 22.4458 20.8721 22.3827C20.9036 22.3197 20.8721 22.2567 20.9036 22.2882V22.3197C20.9352 22.3827 20.9352 22.2882 20.9667 22.4458C20.9667 22.4773 20.9667 22.5088 20.9667 22.5088V22.4773C20.9352 22.5718 20.9982 22.4458 20.9667 22.5718C20.9667 22.4773 20.9982 22.5088 20.9982 22.5088V22.4143C21.0297 22.1306 20.9982 22.6034 21.0297 22.5718C21.0612 22.5088 21.0297 22.5403 21.0297 22.4773C21.0612 22.5088 21.0612 22.5718 21.0612 22.5403C21.0612 22.5718 21.0927 22.6349 21.0927 22.7294C21.0927 22.6979 21.1243 22.7609 21.1558 22.6664C21.1243 22.5718 21.1243 22.7609 21.0927 22.6349V22.5403C21.1243 22.5403 21.1243 22.5088 21.1558 22.5403C21.1558 22.5088 21.1558 22.5088 21.1558 22.4773C21.1873 22.4458 21.1873 22.3512 21.2188 22.3827C21.2188 22.4773 21.2188 22.4458 21.1873 22.4773C21.2188 22.5403 21.2188 22.4773 21.2188 22.5088C21.2188 22.6034 21.1873 22.5088 21.1873 22.5718L21.2188 22.5403C21.2188 22.5403 21.2188 22.5403 21.2188 22.5718C21.2188 22.4458 21.2503 22.5718 21.2503 22.5403C21.2819 22.5403 21.3134 22.3512 21.3134 22.2567C21.3134 22.2882 21.3134 22.3197 21.3134 22.3512C21.3134 22.2882 21.3134 22.3512 21.3134 22.3827C21.3134 22.3827 21.3449 22.5088 21.3449 22.5718C21.3764 22.5403 21.3449 22.5088 21.3449 22.4458H21.3764C21.3764 22.3827 21.3764 22.3512 21.3764 22.3197C21.3764 22.2882 21.4079 22.3197 21.4079 22.3197C21.4079 22.3512 21.4079 22.4143 21.4079 22.4143C21.4079 22.4458 21.4394 22.4458 21.4394 22.3827C21.4079 22.3197 21.471 22.3197 21.471 22.2251L21.5025 22.2882V22.3197C21.5025 22.4143 21.534 22.2882 21.534 22.2882C21.534 22.3197 21.5655 22.3197 21.5655 22.3512C21.5655 22.3197 21.597 22.3512 21.597 22.4143C21.597 22.3827 21.597 22.3512 21.597 22.3197H21.6285C21.6285 22.3827 21.6285 22.5403 21.6285 22.5718C21.6285 22.5088 21.6285 22.4143 21.6601 22.4143C21.6601 22.5403 21.6916 22.5088 21.6601 22.6349C21.6601 22.7294 21.6916 22.7294 21.7231 22.6979C21.7231 22.6034 21.6916 22.6349 21.6916 22.5403C21.7231 22.5088 21.7546 22.2567 21.7861 22.2882V22.2567C21.8176 22.1936 21.8176 22.2251 21.8176 22.1306C21.8176 22.2567 21.8492 22.4458 21.8807 22.4143C21.8807 22.3512 21.8492 22.3197 21.8807 22.2251L21.9122 22.1936V22.2251C21.9437 22.1936 21.9437 22.3827 21.9437 22.2251L21.9752 22.3827V22.3197C21.9752 22.2567 22.0068 22.2567 22.0068 22.2251C22.0383 22.1621 22.0383 22.2251 22.0383 22.2882C22.0383 22.2567 22.0383 22.1306 22.0383 22.1306C22.0383 22.3197 22.0698 22.1936 22.0698 22.2882C22.0698 22.2882 22.1013 22.3512 22.1013 22.2567V22.3827C22.1013 22.2251 22.1328 22.2251 22.1643 22.1936C22.1643 22.4143 22.1959 22.1621 22.1959 22.3827C22.1959 22.2251 22.2274 22.3197 22.2274 22.1936C22.2589 22.1936 22.2274 22.3197 22.2589 22.3827V22.3197C22.2589 22.3827 22.2904 22.4143 22.3219 22.4458L22.3534 22.3197V22.3827C22.3534 22.3512 22.385 22.3197 22.3534 22.2882C22.3534 22.1621 22.3534 22.2567 22.385 22.1936C22.385 22.2251 22.385 22.2567 22.385 22.2567C22.385 22.2567 22.385 22.3197 22.385 22.3827C22.385 22.3512 22.4165 22.1306 22.385 22.0676C22.385 22.0045 22.385 21.973 22.4165 22.0045V22.1306V22.0045C22.4165 21.973 22.448 22.0676 22.448 22.0676C22.448 22.0676 22.4165 22.3197 22.448 22.3197C22.4165 22.3512 22.4165 22.4143 22.4165 22.4458C22.4165 22.4458 22.4165 22.4773 22.4165 22.5088C22.448 22.4773 22.4165 22.4458 22.448 22.4143C22.448 22.5403 22.448 22.5718 22.4795 22.6034V22.5088V22.4773C22.4795 22.4773 22.4795 22.4458 22.4795 22.4143C22.4795 22.4143 22.511 22.2882 22.511 22.3512C22.4795 22.1621 22.5425 22.2251 22.5425 22.0991C22.5425 22.0676 22.5741 22.0676 22.5741 22.1306C22.5425 22.2251 22.5741 22.2567 22.5741 22.3512C22.5741 22.3197 22.5741 22.2567 22.5741 22.2251C22.5741 22.2251 22.6056 22.2882 22.6056 22.3197V22.3512L22.6371 22.4143C22.6371 22.3512 22.6056 22.3197 22.6371 22.2882C22.6371 22.3197 22.6686 22.2882 22.6686 22.3197C22.6686 22.3827 22.6686 22.5088 22.6371 22.5088C22.6371 22.5088 22.7001 22.4773 22.6686 22.3827C22.6686 22.3197 22.6371 22.2567 22.6686 22.2251V22.2567L22.7001 22.1621V22.2251C22.7001 22.1936 22.7001 22.1621 22.7001 22.1621C22.7001 22.1936 22.7001 22.2251 22.7001 22.2567C22.7317 22.2567 22.7317 22.1936 22.7317 22.1621C22.7317 22.1621 22.7632 22.1936 22.7317 22.2567C22.7632 22.2567 22.7632 22.2567 22.7947 22.3197C22.8262 22.2567 22.7947 22.2882 22.7947 22.2251C22.8262 22.4143 22.8577 22.2882 22.8892 22.2882C22.8892 22.0991 22.8892 22.2567 22.9208 22.0991C22.9208 22.1621 22.9523 22.2251 22.9208 22.2882L22.9523 22.2567C22.9523 22.3512 22.9208 22.3197 22.9523 22.4458C22.9838 22.4458 22.9838 22.2567 23.0153 22.3197C23.0153 22.4458 23.0468 22.2882 23.0153 22.4143C23.0153 22.4458 23.0153 22.4458 22.9838 22.4458V22.4773C23.0153 22.5088 22.9838 22.3197 23.0153 22.2567C23.0468 22.2567 23.0468 22.3512 23.0468 22.4143C23.0468 22.4458 23.0783 22.4143 23.0783 22.3827C23.0468 22.4458 23.0468 22.3197 23.0468 22.2251C23.0468 22.3512 23.0783 22.2251 23.1099 22.1936C23.0783 22.036 23.0783 22.1936 23.0468 22.036C23.0468 22.0676 23.0468 22.1936 23.0153 22.1621C23.0153 22.0991 23.0153 22.0991 23.0153 22.0676C23.0153 22.1306 23.0153 22.0991 22.9838 22.1306C22.9838 22.0676 22.9838 21.973 22.9838 21.9415V22.0991C22.9838 22.0676 22.9838 21.973 22.9838 22.0045C22.9838 21.91 22.9838 21.8785 23.0153 21.8469C22.9838 21.6894 22.9523 21.91 22.9523 21.973V21.9415C22.9523 21.973 22.9523 21.973 22.9208 22.0045C22.8892 21.973 22.9208 21.9415 22.9208 21.8785H22.8892C22.8892 21.91 22.8892 21.91 22.8892 21.8785C22.8892 21.8154 22.8892 21.7524 22.9208 21.7209L22.8892 21.8469C22.8892 21.7839 22.8577 21.7524 22.8892 21.7209L22.8577 21.7524V21.6263C22.8577 21.6578 22.8577 21.6578 22.8577 21.6894C22.8577 21.6578 22.7947 21.8785 22.7947 21.6578C22.7632 21.7524 22.7632 21.7209 22.7001 21.7839C22.7317 21.6894 22.6686 21.6578 22.7001 21.5948C22.6686 21.5318 22.6686 21.6578 22.6686 21.6894C22.6686 21.6263 22.6686 21.5318 22.6686 21.5002L22.511 21.4687V21.4372V21.5002C22.511 21.4372 22.511 21.3742 22.4795 21.3742V21.4687V21.4057C22.4795 21.4372 22.4795 21.4687 22.448 21.4687V21.4372V21.4687C22.448 21.4057 22.448 21.4372 22.448 21.3742C22.448 21.3742 22.448 21.3742 22.4165 21.3742V21.4372C22.385 21.5002 22.4165 21.3427 22.385 21.3427V21.4372C22.3534 21.3111 22.3219 21.5002 22.2904 21.4372C22.2904 21.4057 22.2904 21.3111 22.2904 21.3427C22.2589 21.3742 22.2274 21.3427 22.2274 21.4372C22.2274 21.3111 22.2274 21.2796 22.1959 21.2481C22.1959 21.2796 22.1959 21.2796 22.1643 21.3427C22.1328 21.3111 22.1328 21.3742 22.1328 21.2796C22.1328 21.3427 22.1328 21.2796 22.1013 21.3111V21.2796V21.3742C22.0698 21.1851 22.0383 21.4687 22.0383 21.3111V21.2796V21.3111C22.0383 21.2796 22.0383 21.2481 22.0383 21.2166H21.9752V21.2796C21.9752 21.2796 21.9437 21.3742 21.9437 21.3111C21.9752 21.1851 21.9122 21.3111 21.9122 21.2166V21.1851C21.8807 21.1851 21.8807 21.1851 21.9122 21.2796C21.8807 21.3111 21.9122 21.122 21.8807 21.2166C21.8807 21.2481 21.8807 21.3427 21.8807 21.3111V21.2481C21.8492 21.2796 21.8492 21.2481 21.8176 21.2796C21.8176 21.2481 21.8176 21.1851 21.8176 21.1851C21.7861 21.2481 21.7861 21.1851 21.7546 21.2481V21.2166V21.2796L21.7231 21.1851V21.2481C21.7231 21.2481 21.6916 21.2796 21.6916 21.2481V21.1851C21.6601 21.2166 21.6601 21.059 21.6285 21.1536V21.122C21.597 21.2166 21.597 20.996 21.5655 21.122C21.5655 21.0905 21.5655 21.059 21.5655 21.059V21.0905V20.996V21.122V21.0275V21.059C21.5655 20.8699 21.534 21.0275 21.5025 20.8699V20.996C21.4394 21.2481 21.3764 20.8699 21.3449 20.9645V20.8699L21.3134 20.9645C21.3134 20.9014 21.3134 20.9014 21.3134 20.8384C21.2819 20.9014 21.3134 20.9645 21.2819 20.996C21.2819 20.9329 21.2819 20.9329 21.2819 20.9014C21.2819 20.9645 21.2503 21.0275 21.2188 20.9645V20.996C21.1873 21.0275 21.1873 20.996 21.1558 20.996C21.1558 20.9645 21.1558 20.9329 21.1558 20.9329C21.1558 20.9329 21.1243 20.9014 21.1243 20.9329V20.8699C21.0927 20.8384 21.0612 20.9329 21.0612 20.8384C21.0612 20.8699 21.0612 20.9329 21.0612 20.9329C21.0612 20.8069 21.0297 20.996 20.9982 20.9014C20.9982 20.8699 21.0297 20.8699 20.9982 20.8699C20.9982 20.8384 20.9667 20.9014 20.9667 20.9329V20.8699V20.9645C20.9667 20.8384 20.9036 20.996 20.9352 20.8699C20.9036 20.8699 20.9352 20.9329 20.9352 20.9329C20.9352 20.8699 20.9036 20.9645 20.9036 20.8699H20.8721V20.7753C20.8721 20.8069 20.8406 20.8699 20.8406 20.9645C20.8406 20.9014 20.8091 20.9645 20.8091 20.8699V20.8384C20.7776 20.8699 20.7461 20.5862 20.7145 20.7438V20.7123H20.683V20.6493L20.6515 20.7438V20.7123C20.62 20.6808 20.5885 20.7123 20.557 20.7438V20.7123C20.5254 20.7753 20.5254 20.6808 20.4939 20.7123V20.6808H20.4624V20.6493C20.4309 20.7438 20.3994 20.5232 20.4309 20.6178C20.4309 20.6493 20.3994 20.7123 20.3994 20.7753C20.3678 20.7753 20.3994 20.7123 20.3678 20.6808C20.3363 20.6808 20.3363 20.7438 20.3363 20.7123V20.6808C20.3363 20.6808 20.3048 20.7123 20.3048 20.7438V20.7123C20.2733 20.8069 20.2733 20.5862 20.2418 20.7753C20.2418 20.7438 20.2103 20.7753 20.2103 20.6808C20.1787 20.7438 20.1472 20.7753 20.1157 20.8069C20.1157 20.6493 20.1157 20.8069 20.0842 20.7438V20.8384C20.0527 20.8384 19.9896 20.6493 19.9266 20.6808V20.5862V20.6808C19.8636 20.6493 19.8005 20.6178 19.769 20.6178C19.769 20.6493 19.7375 20.7438 19.706 20.7123C19.6745 20.7438 19.6114 20.8069 19.5799 20.7438C19.5799 20.7123 19.5799 20.6808 19.5799 20.6493C19.5799 20.7438 19.5484 20.6493 19.5484 20.6493V20.7123C19.5484 20.7753 19.5169 20.7123 19.5169 20.6493L19.4854 20.7438V20.7123V20.7438V20.6493C19.4854 20.6808 19.4538 20.7123 19.4538 20.8069C19.4538 20.7753 19.4223 20.7438 19.4538 20.7123L19.3908 20.6493V20.6808C19.3908 20.7753 19.3593 20.8069 19.3593 20.7753C19.3593 20.7123 19.3593 20.6493 19.3593 20.6178C19.3593 20.6493 19.3593 20.6808 19.3593 20.7438C19.3593 20.8069 19.3278 20.8384 19.3278 20.7753V20.7438C19.2963 20.7753 19.2963 20.6493 19.2963 20.6493C19.2963 20.7123 19.2647 20.6493 19.2647 20.8069C19.2332 20.8384 19.2647 20.7123 19.2647 20.7123C19.2647 20.7753 19.2332 20.7438 19.2332 20.6808C19.2332 20.8699 19.1702 20.6178 19.1702 20.7753L19.1387 20.6493C19.1387 20.6808 19.1387 20.8069 19.1072 20.8069C19.1072 20.7438 19.1072 20.6808 19.1072 20.6178V20.7753C19.0441 20.5862 18.918 20.7123 18.855 20.5547C18.8235 20.5862 18.7605 20.6808 18.7289 20.6493V20.6178L18.6974 20.5862L18.7289 20.6493C18.7289 20.6808 18.6974 20.7123 18.6974 20.7123C18.6344 20.6493 18.5714 20.5547 18.5398 20.6493C18.5083 20.8384 18.5083 20.4917 18.4768 20.6178C18.4768 20.5862 18.4768 20.5862 18.4768 20.5547C18.4453 20.6178 18.4138 20.6493 18.3823 20.7753C18.3823 20.5862 18.3507 20.7753 18.3507 20.6808V20.7438C18.3507 20.6808 18.3192 20.6808 18.3192 20.6178L18.2877 20.7123V20.6178C18.2562 20.6178 18.2247 20.6808 18.1931 20.5232C18.1301 20.6493 18.0356 20.6178 17.9725 20.5862C17.9725 20.6493 17.941 20.6493 17.9095 20.6493L17.878 20.5547C17.8465 20.5862 17.8465 20.7123 17.8149 20.6493V20.6178C17.7834 20.6493 17.7834 20.5862 17.7519 20.6808C17.7834 20.7123 17.7834 20.6493 17.7834 20.5547C17.7834 20.7123 17.7519 20.5232 17.7519 20.5232C17.7519 20.5232 16.8064 20.145 16.5542 20.996C16.5542 21.059 16.5227 21.122 16.5227 21.2166C16.4912 21.2481 16.4912 21.122 16.4912 21.1851C16.5227 21.2481 16.4912 21.3742 16.4912 21.5002V21.5318C16.4912 21.5948 16.5227 21.4687 16.5227 21.5633V21.4057C16.5227 21.4372 16.5542 21.4687 16.5542 21.5002C16.5542 21.4372 16.5858 21.2481 16.5858 21.3427C16.6173 21.3427 16.5858 21.4372 16.6173 21.4687L16.6488 21.5318C16.6488 21.4687 16.6173 21.5948 16.6173 21.5948C16.6488 21.6263 16.6173 21.5633 16.6173 21.5318C16.6173 21.5318 16.6173 21.5948 16.6173 21.6578H16.6488C16.6488 21.7209 16.6488 21.6578 16.6488 21.7209L16.6803 21.6578C16.6803 21.8154 16.7118 21.5633 16.7118 21.7524C16.6803 21.7839 16.7118 21.8154 16.7118 21.8785H16.7434C16.7434 21.91 16.7434 21.9415 16.7434 21.91C16.7434 21.973 16.7433 21.8785 16.7749 21.8785C16.7749 21.9415 16.8064 21.8785 16.8064 22.0045C16.8379 22.0676 16.8064 21.8469 16.8379 21.91C16.8379 21.973 16.8064 21.9415 16.8379 22.0045L16.8694 21.973C16.8694 22.0045 16.8694 22.0991 16.8379 22.0676C16.9325 22.1621 16.964 22.5403 17.027 22.4458C17.027 22.5403 17.027 22.5088 17.027 22.5403C17.09 22.4458 17.09 22.7294 17.1531 22.6979V22.6349C17.2161 22.8555 17.3107 22.7294 17.3737 22.824V22.7609C17.3737 22.6979 17.4052 22.6979 17.4052 22.6664C17.4052 22.6979 17.4052 22.824 17.4052 22.7925C17.4052 22.7609 17.4052 22.7294 17.4052 22.6979C17.4682 22.887 17.5943 22.824 17.7204 22.9185C17.8465 22.8555 18.004 23.0131 18.1616 22.95C18.1301 22.95 18.1616 22.7925 18.1616 22.824C18.1931 23.1076 18.2247 22.7609 18.2877 22.9816C18.3823 22.887 18.4453 23.1392 18.5083 22.9185V23.0131C18.5083 23.0446 18.5083 22.9816 18.5398 22.9816V23.0131C18.5714 23.0446 18.6029 22.95 18.6029 23.0131V22.9185C18.6344 22.9185 18.6029 22.9816 18.6344 22.95V22.9816L18.6659 22.887C18.6659 23.0446 18.6974 22.887 18.7289 22.9816C18.7605 22.95 18.792 22.887 18.8235 22.9185C18.8235 23.0131 18.855 23.0131 18.8865 23.0446C18.9496 23.0131 19.0126 23.0131 19.0756 23.0131V22.9185H19.1072C19.1072 22.95 19.1072 22.95 19.1072 22.95C19.1072 23.0761 19.1387 22.9185 19.1702 22.9816C19.1702 22.887 19.1702 22.9816 19.1387 22.95C19.1387 22.887 19.1387 22.7925 19.1702 22.8555V22.887V22.824C19.1702 22.9185 19.1702 22.95 19.1702 23.0131C19.2332 22.9816 19.2647 22.8555 19.3278 22.887C19.3278 22.9816 19.3593 22.8555 19.3593 23.0131C19.3908 22.95 19.3593 22.887 19.3593 22.7609C19.3593 22.7609 19.3908 22.7294 19.3908 22.7925C19.3908 22.824 19.3908 22.887 19.3908 22.887H19.4223V22.9185C19.4538 22.824 19.5169 23.0131 19.5484 22.9185C19.5484 22.8555 19.5169 22.887 19.5484 22.8555C19.5799 22.7294 19.5799 22.95 19.6114 22.887V22.95C19.6114 22.887 19.6429 22.824 19.6429 22.887C19.6429 22.9816 19.6114 22.95 19.6114 23.0131C19.6114 23.0131 19.6745 22.9816 19.6429 22.9185C19.6745 22.887 19.6745 22.9816 19.6745 22.9816C19.6745 22.95 19.6745 22.9185 19.6745 22.887C19.706 22.95 19.7375 22.95 19.769 22.95C19.769 22.9816 19.769 23.0131 19.769 23.0131C19.706 22.9185 19.706 23.1076 19.7375 23.1076Z" fill="#FFBB00"/>
<path d="M19.7375 26.0078C19.8321 25.9762 19.9266 25.8502 20.0212 25.8817C20.0527 25.7556 20.0527 25.7556 20.0842 25.7241V25.8817L20.1157 25.8187C20.1157 25.8817 20.0842 25.8502 20.1157 25.9132V25.8187C20.1157 25.8817 20.1787 25.8502 20.1472 25.9762H20.2418C20.2733 25.9762 20.2418 25.8502 20.2733 25.8817C20.2733 25.9132 20.2733 25.9132 20.2733 25.9762C20.3363 26.1023 20.3363 25.6611 20.3994 25.7241V25.7556C20.3994 25.7241 20.4309 25.7241 20.4309 25.6926C20.4309 25.535 20.4309 25.7871 20.3994 25.6926C20.3994 25.5665 20.4309 25.6295 20.4309 25.5035C20.4309 25.5665 20.4624 25.472 20.4624 25.472C20.4939 25.5665 20.5254 25.5035 20.5254 25.598C20.5254 25.5665 20.557 25.4089 20.557 25.4089C20.557 25.5035 20.557 25.5035 20.5885 25.5665V25.472C20.62 25.472 20.5885 25.5035 20.5885 25.535C20.62 25.535 20.5885 25.4404 20.62 25.472V25.535C20.6515 25.5035 20.6515 25.5035 20.6515 25.535C20.6515 25.5665 20.6515 25.5665 20.62 25.5665C20.62 25.6926 20.6515 25.5035 20.6515 25.535C20.6515 25.5035 20.62 25.472 20.6515 25.4089C20.6515 25.4089 20.683 25.3144 20.683 25.4089V25.472C20.7145 25.4089 20.683 25.3774 20.7145 25.4089V25.4404C20.7461 25.3459 20.7461 25.4404 20.7776 25.4404V25.472C20.7776 25.4404 20.8091 25.3774 20.8091 25.3774C20.8091 25.3459 20.8091 25.3144 20.8091 25.2198C20.8406 25.3459 20.8406 25.0622 20.8721 25.1568C20.8721 25.1883 20.8721 25.2513 20.8406 25.2198C20.8406 25.3459 20.8406 25.472 20.8091 25.535C20.8091 25.5035 20.8406 25.472 20.8406 25.535V25.4089C20.8406 25.4089 20.8406 25.4089 20.8721 25.4089C20.8721 25.3144 20.8721 25.2829 20.8721 25.2198C20.9036 25.1883 20.8721 25.3459 20.8721 25.2829C20.9036 25.2198 20.8721 25.1568 20.9036 25.1883V25.2198C20.9352 25.2829 20.9352 25.1883 20.9667 25.3459C20.9667 25.3774 20.9667 25.4089 20.9667 25.4089V25.3774C20.9352 25.472 20.9982 25.3459 20.9667 25.472C20.9667 25.3774 20.9982 25.4089 20.9982 25.4089V25.3144C21.0297 25.0307 20.9982 25.5035 21.0297 25.472C21.0612 25.4089 21.0297 25.4404 21.0297 25.3774C21.0612 25.4089 21.0612 25.472 21.0612 25.4404C21.0612 25.472 21.0927 25.535 21.0927 25.6295C21.0927 25.598 21.1243 25.6611 21.1558 25.5665C21.1243 25.472 21.1243 25.6611 21.0927 25.535V25.4404C21.1243 25.4404 21.1243 25.4089 21.1558 25.4404C21.1558 25.4089 21.1558 25.4089 21.1558 25.3774C21.1873 25.3459 21.1873 25.2513 21.2188 25.2829C21.2188 25.3774 21.2188 25.3459 21.1873 25.3774C21.2188 25.4404 21.2188 25.3774 21.2188 25.4089C21.2188 25.5035 21.1873 25.4089 21.1873 25.472L21.2188 25.4404C21.2188 25.4404 21.2188 25.4404 21.2188 25.472C21.2188 25.3459 21.2503 25.472 21.2503 25.4404C21.2819 25.4404 21.3134 25.2513 21.3134 25.1568C21.3134 25.1883 21.3134 25.2198 21.3134 25.2513C21.3134 25.1883 21.3134 25.2513 21.3134 25.2829C21.3134 25.2829 21.3449 25.4089 21.3449 25.472C21.3764 25.4404 21.3449 25.4089 21.3449 25.3459H21.3764C21.3764 25.2829 21.3764 25.2513 21.3764 25.2198C21.3764 25.1883 21.4079 25.2198 21.4079 25.2198C21.4079 25.2513 21.4079 25.3144 21.4079 25.3144C21.4079 25.3459 21.4394 25.3459 21.4394 25.2829C21.4079 25.2198 21.471 25.2198 21.471 25.1253L21.5025 25.1883V25.2198C21.5025 25.3144 21.534 25.1883 21.534 25.1883C21.534 25.2198 21.5655 25.2198 21.5655 25.2513C21.5655 25.2198 21.597 25.2513 21.597 25.3144C21.597 25.2829 21.597 25.2513 21.597 25.2198H21.6285C21.6285 25.2829 21.6285 25.4404 21.6285 25.472C21.6285 25.4089 21.6285 25.3144 21.6601 25.3144C21.6601 25.4404 21.6916 25.4089 21.6601 25.535C21.6601 25.6295 21.6916 25.6295 21.7231 25.598C21.7231 25.5035 21.6916 25.535 21.6916 25.472C21.7231 25.4404 21.7546 25.1883 21.7861 25.2198V25.1883C21.8176 25.1253 21.8176 25.1568 21.8176 25.0622C21.8176 25.1883 21.8492 25.3774 21.8807 25.3459C21.8807 25.2829 21.8492 25.2513 21.8807 25.1568L21.9122 25.1253V25.1568C21.9437 25.1253 21.9437 25.3144 21.9437 25.1568L21.8807 25.3774V25.3144C21.8807 25.2513 21.9122 25.2513 21.9122 25.2198C21.9437 25.1568 21.9437 25.2198 21.9437 25.2829C21.9437 25.2513 21.9437 25.1253 21.9437 25.1253C21.9437 25.3144 21.9752 25.1883 21.9752 25.2829C21.9752 25.2829 22.0068 25.3459 22.0068 25.2513V25.3774C22.0068 25.2198 22.0383 25.2198 22.0698 25.1883C22.0698 25.4089 22.1013 25.1568 22.1013 25.3774C22.1013 25.2198 22.1328 25.3144 22.1328 25.1883C22.1643 25.1883 22.1328 25.3144 22.1643 25.3774V25.3144C22.1643 25.3774 22.1959 25.4089 22.2274 25.4404L22.2589 25.3144V25.3774C22.2589 25.3459 22.2904 25.3144 22.2589 25.2829C22.2589 25.1568 22.2589 25.2513 22.2904 25.1883C22.2904 25.2198 22.2904 25.2513 22.2904 25.2513C22.2904 25.2513 22.2904 25.3144 22.2904 25.3774C22.2904 25.3459 22.3219 25.1253 22.2904 25.0622C22.2904 24.9992 22.2904 24.9677 22.3219 24.9992V25.1253V24.9992C22.3219 24.9677 22.3534 25.0622 22.3534 25.0622C22.3534 25.0622 22.3219 25.3144 22.3534 25.3144C22.3219 25.3459 22.3219 25.4089 22.3219 25.4404C22.3219 25.4404 22.3219 25.472 22.3219 25.5035C22.3534 25.472 22.3219 25.4404 22.3534 25.4089C22.3534 25.535 22.3534 25.5665 22.385 25.598V25.5035V25.472C22.385 25.472 22.385 25.4404 22.385 25.4089C22.385 25.4089 22.4165 25.2829 22.4165 25.3459C22.385 25.1568 22.448 25.2198 22.448 25.0938C22.448 25.0622 22.4795 25.0622 22.4795 25.1253C22.448 25.2198 22.4795 25.2513 22.4795 25.3459C22.4795 25.3144 22.4795 25.2513 22.4795 25.2198C22.4795 25.2198 22.511 25.2829 22.511 25.3144V25.3459L22.5425 25.4089C22.5425 25.3459 22.511 25.3144 22.5425 25.2829C22.5425 25.3144 22.5741 25.2829 22.5741 25.3144C22.5741 25.3774 22.5741 25.5035 22.5425 25.5035C22.5425 25.5035 22.6056 25.472 22.5741 25.3774C22.5741 25.3144 22.5425 25.2513 22.5741 25.2198V25.2513L22.6056 25.1568V25.2198C22.6056 25.1883 22.6056 25.1568 22.6056 25.1568C22.6056 25.1883 22.6056 25.2198 22.6056 25.2513C22.6371 25.2513 22.6371 25.1883 22.6371 25.1568C22.6371 25.1568 22.6686 25.1883 22.6371 25.2513C22.6686 25.2513 22.6686 25.2513 22.7001 25.3144C22.7317 25.2513 22.7001 25.2829 22.7001 25.2198C22.7317 25.4089 22.7632 25.2829 22.7947 25.2829C22.7947 25.0938 22.7947 25.2513 22.8262 25.0938C22.8262 25.1568 22.8577 25.2198 22.8262 25.2829L22.8577 25.2513C22.8577 25.3459 22.8262 25.3144 22.8577 25.4404C22.8892 25.4404 22.8892 25.2513 22.9208 25.3144C22.9208 25.4404 22.9523 25.2829 22.9208 25.4089C22.9208 25.4404 22.9208 25.4404 22.8892 25.4404V25.472C22.9208 25.5035 22.8892 25.3144 22.9208 25.2513C22.9523 25.2513 22.9523 25.3459 22.9523 25.4089C22.9523 25.4404 22.9838 25.4089 22.9838 25.3774C22.9523 25.4404 22.9523 25.3144 22.9523 25.2198C22.9523 25.3459 22.9838 25.2198 23.0153 25.1883C22.9838 25.0307 22.9838 25.1883 22.9523 25.0307C22.9523 25.0622 22.9523 25.1883 22.9208 25.1568C22.9208 25.0938 22.9208 25.0938 22.9208 25.0622C22.9208 25.1253 22.9208 25.0938 22.8892 25.1253C22.8892 25.0622 22.8892 24.9677 22.8892 24.9362V25.0938C22.8892 25.0622 22.8892 24.9677 22.8892 24.9992C22.8892 24.9046 22.8892 24.8731 22.9208 24.8416C22.8892 24.684 22.8577 24.9046 22.8577 24.9677V24.9362C22.8577 24.9677 22.8577 24.9677 22.8262 24.9992C22.7947 24.9677 22.8262 24.9362 22.8262 24.8731H22.7947C22.7947 24.9046 22.7947 24.9046 22.7947 24.8731C22.7947 24.8101 22.7947 24.7471 22.8262 24.7155L22.7632 24.7471C22.7632 24.684 22.7317 24.6525 22.7632 24.621L22.7317 24.6525V24.5264C22.7317 24.558 22.7317 24.558 22.7317 24.5895C22.7317 24.558 22.6686 24.7786 22.6686 24.558C22.6371 24.6525 22.6371 24.621 22.5741 24.684C22.6056 24.5895 22.5425 24.558 22.5741 24.4949C22.5425 24.4319 22.5425 24.558 22.5425 24.5895C22.5425 24.5264 22.5425 24.4319 22.5425 24.4004H22.511V24.3689V24.4319C22.511 24.3689 22.511 24.3058 22.4795 24.3058V24.4004V24.3373C22.4795 24.3689 22.4795 24.4004 22.448 24.4004V24.3689V24.4004C22.448 24.3373 22.448 24.3689 22.448 24.3058C22.448 24.3058 22.448 24.3058 22.4165 24.3058V24.3689C22.385 24.4319 22.4165 24.2743 22.385 24.2743V24.3689C22.3534 24.2428 22.3219 24.4319 22.2904 24.3689C22.2904 24.3373 22.2904 24.2428 22.2904 24.2743C22.2589 24.3058 22.2274 24.2743 22.2274 24.3689C22.2274 24.2428 22.2274 24.2113 22.1959 24.1797C22.1643 24.1797 22.1643 24.2113 22.1643 24.2743C22.1328 24.2428 22.1328 24.3058 22.1328 24.2113C22.1328 24.2743 22.1328 24.2113 22.1013 24.2428V24.2113V24.3058C22.0698 24.1167 22.0383 24.4004 22.0383 24.2428V24.2113V24.2428C22.0383 24.2113 22.0383 24.1797 22.0383 24.1482H21.9752V24.2113C21.9752 24.2113 21.9437 24.3058 21.9437 24.2428C21.9752 24.1167 21.9122 24.2428 21.9122 24.1482V24.1167C21.8807 24.1167 21.8807 24.1167 21.9122 24.2113C21.8807 24.2428 21.9122 24.0537 21.8807 24.1482C21.8807 24.1797 21.8807 24.2743 21.8807 24.2428V24.1797C21.8492 24.2113 21.8492 24.1797 21.8176 24.2113C21.8176 24.1797 21.8176 24.1167 21.8176 24.1167C21.7861 24.1797 21.7861 24.1167 21.7546 24.1797V24.1482V24.2113L21.7231 24.1167V24.1797C21.7231 24.1797 21.6916 24.2113 21.6916 24.1797V24.1167C21.6601 24.1482 21.6601 23.9906 21.6285 24.0852V24.0537C21.597 24.1482 21.597 23.9276 21.5655 24.0537C21.5655 24.0222 21.5655 23.9906 21.5655 23.9906V24.0222V23.9276V24.0537V23.9591V23.9906C21.5655 23.8015 21.534 23.9591 21.5025 23.8015V23.9276C21.4394 24.1797 21.3764 23.8015 21.3449 23.8961V23.8015L21.3134 23.8961C21.3134 23.8331 21.3134 23.8331 21.3134 23.77C21.2819 23.8331 21.3134 23.8961 21.2819 23.9276C21.2819 23.8646 21.2819 23.8646 21.2819 23.8331C21.2503 23.8646 21.2188 23.9276 21.1873 23.8646V23.8961C21.1558 23.9276 21.1558 23.8961 21.1243 23.8961C21.1243 23.8646 21.1243 23.8331 21.1243 23.8331C21.1243 23.8331 21.0927 23.8015 21.0927 23.8331V23.77C21.0612 23.7385 21.0297 23.8331 21.0297 23.7385C21.0297 23.77 21.0297 23.8331 21.0297 23.8331C21.0297 23.707 20.9982 23.8961 20.9667 23.8015C20.9667 23.77 20.9982 23.77 20.9667 23.77C20.9667 23.7385 20.9352 23.8015 20.9352 23.8331V23.77L20.8721 23.8331C20.8721 23.707 20.8091 23.8646 20.8406 23.7385C20.8091 23.7385 20.8406 23.8015 20.8406 23.8015C20.8406 23.7385 20.8091 23.8331 20.8091 23.7385H20.7776V23.644C20.7776 23.6755 20.7461 23.7385 20.7461 23.8331C20.7461 23.77 20.7145 23.8331 20.7145 23.7385V23.707C20.683 23.7385 20.6515 23.4548 20.62 23.6124V23.5809H20.5885V23.5179L20.557 23.6124V23.5809C20.5254 23.5494 20.4939 23.5809 20.4624 23.6124V23.5809C20.4309 23.644 20.4309 23.5494 20.3994 23.5809V23.5494H20.3678V23.5179C20.3363 23.6124 20.3048 23.3918 20.3363 23.4864C20.3363 23.5179 20.3048 23.5809 20.3048 23.644C20.2733 23.644 20.3048 23.5809 20.2733 23.5494C20.2418 23.5494 20.2418 23.6124 20.2418 23.5809V23.5494C20.2418 23.5494 20.2103 23.5809 20.2103 23.6124V23.5809C20.3048 23.7385 20.3048 23.4864 20.2733 23.707C20.2733 23.6755 20.2418 23.707 20.2418 23.6124C20.2103 23.6755 20.1787 23.707 20.1472 23.7385C20.1472 23.5809 20.1472 23.7385 20.1157 23.6755V23.77C20.0842 23.77 20.0212 23.5809 19.9581 23.6124V23.5179V23.6124C19.8951 23.5809 19.8321 23.5494 19.8005 23.5494C19.8005 23.5809 19.769 23.6755 19.7375 23.644C19.706 23.6755 19.6429 23.7385 19.6114 23.6755C19.6114 23.644 19.6114 23.6124 19.6114 23.5809C19.6114 23.6755 19.5799 23.5809 19.5799 23.5809V23.644C19.5799 23.707 19.5484 23.644 19.5484 23.5809L19.5169 23.6755V23.644V23.6755V23.5809C19.5169 23.6124 19.4854 23.644 19.4854 23.7385C19.4854 23.707 19.4538 23.6755 19.4854 23.644L19.4223 23.6124V23.644C19.4223 23.7385 19.3908 23.77 19.3908 23.7385C19.3908 23.6755 19.3908 23.6124 19.3908 23.5809C19.3908 23.6124 19.3908 23.644 19.3908 23.707C19.3908 23.77 19.3593 23.8015 19.3593 23.7385V23.707C19.3278 23.7385 19.3278 23.6124 19.3278 23.6124C19.3278 23.6755 19.2963 23.6124 19.2963 23.77C19.2647 23.8015 19.2963 23.6755 19.2963 23.6755C19.2963 23.7385 19.2647 23.707 19.2647 23.644C19.2647 23.8331 19.2017 23.5809 19.2017 23.7385L19.1702 23.644C19.1702 23.6755 19.1702 23.8015 19.1387 23.8015C19.1387 23.7385 19.1387 23.6755 19.1387 23.6124V23.77C19.0756 23.5809 18.9496 23.707 18.8865 23.5494C18.855 23.5809 18.792 23.6755 18.7605 23.644V23.6124L18.7289 23.5809L18.7605 23.644C18.7605 23.6755 18.7289 23.707 18.7289 23.707C18.6659 23.644 18.6029 23.5494 18.5714 23.644C18.5398 23.8331 18.5398 23.4864 18.5083 23.6124C18.5083 23.5809 18.5083 23.5809 18.5083 23.5494C18.4768 23.6124 18.4453 23.644 18.4138 23.77C18.4138 23.5809 18.3823 23.77 18.3823 23.6755V23.7385C18.3823 23.6755 18.3507 23.6755 18.3507 23.6124L18.3192 23.707V23.6124C18.2877 23.6124 18.2562 23.6755 18.2247 23.5179C18.1616 23.644 18.0671 23.6124 18.004 23.5809C18.004 23.644 17.9725 23.644 17.941 23.644L17.9095 23.5494C17.878 23.5809 17.878 23.707 17.8465 23.644V23.6124C17.8149 23.644 17.8149 23.5809 17.7834 23.6755C17.7834 23.644 17.7834 23.5809 17.7834 23.4864C17.7834 23.644 17.7519 23.4548 17.7519 23.4548C17.7519 23.4548 16.8064 23.0766 16.5542 23.9276C16.5542 23.9906 16.5227 24.0537 16.5227 24.1482C16.4912 24.1797 16.4912 24.0537 16.4912 24.1167C16.5227 24.1797 16.4912 24.3058 16.4912 24.4319V24.4634C16.4912 24.5264 16.5227 24.4004 16.5227 24.4949V24.3373C16.5227 24.3689 16.5542 24.4004 16.5542 24.4319C16.5542 24.3689 16.5858 24.1797 16.5858 24.2743C16.6173 24.2743 16.5858 24.3689 16.6173 24.4004L16.6488 24.4634C16.6488 24.4004 16.6173 24.5264 16.6173 24.5264C16.6488 24.558 16.6173 24.4949 16.6173 24.4634C16.6173 24.4634 16.6173 24.5264 16.6173 24.5895H16.6488C16.6488 24.6525 16.6488 24.5895 16.6488 24.6525L16.6803 24.5895C16.6803 24.7471 16.7118 24.4949 16.7118 24.684C16.6803 24.7155 16.7118 24.7471 16.7118 24.8101H16.7434C16.7434 24.8416 16.7434 24.8731 16.7434 24.8416C16.7434 24.9046 16.7433 24.8101 16.7749 24.8101C16.7749 24.8731 16.8064 24.8101 16.8064 24.9362C16.8379 24.9992 16.8064 24.7786 16.8379 24.8416C16.8379 24.9046 16.8064 24.8731 16.8379 24.9362L16.8694 24.9046C16.8694 24.9362 16.8694 25.0307 16.8379 24.9992C16.9325 25.0938 16.964 25.472 17.027 25.3774C17.027 25.472 17.027 25.4404 17.027 25.472C17.09 25.3774 17.09 25.6611 17.1531 25.6295V25.5665C17.2161 25.7871 17.3107 25.6611 17.3737 25.7556V25.6926C17.3737 25.6295 17.4052 25.6295 17.4052 25.598C17.4052 25.6295 17.4052 25.7556 17.4052 25.7241C17.4052 25.6926 17.4052 25.6611 17.4052 25.6295C17.4682 25.8187 17.5943 25.7556 17.7204 25.8502C17.8465 25.7871 18.004 25.9447 18.1616 25.8817C18.1301 25.8817 18.1616 25.7241 18.1616 25.7556C18.1931 26.0393 18.2247 25.6926 18.2877 25.9132C18.3823 25.8187 18.4453 26.0708 18.5083 25.8502V25.9447C18.5083 25.9762 18.5083 25.9132 18.5398 25.9132V25.9447C18.5714 25.9762 18.6029 25.8817 18.6029 25.9447V25.8502C18.6344 25.8502 18.6029 25.9132 18.6344 25.8817V25.9132L18.6659 25.8187C18.6659 25.9762 18.6974 25.8187 18.7289 25.9132C18.7605 25.8817 18.792 25.8187 18.8235 25.8502C18.8235 25.9447 18.855 25.9447 18.8865 25.9762C18.9496 25.9447 19.0126 25.9447 19.0756 25.9447V25.8502H19.1072C19.1072 25.8817 19.1072 25.8817 19.1072 25.8817C19.1072 26.0078 19.1387 25.8502 19.1702 25.9132C19.1702 25.8187 19.1702 25.9132 19.1387 25.8817C19.1387 25.8187 19.1387 25.7241 19.1702 25.7871V25.8187V25.7556C19.1702 25.8502 19.1702 25.8817 19.1702 25.9447C19.2332 25.9132 19.2647 25.7871 19.3278 25.8187C19.3278 25.9132 19.3593 25.7871 19.3593 25.9447C19.3908 25.8817 19.3593 25.8187 19.3593 25.6926C19.3593 25.6926 19.3908 25.6611 19.3908 25.7241C19.3908 25.7556 19.3908 25.8187 19.3908 25.8187H19.4223V25.8502C19.4538 25.7556 19.5169 25.9447 19.5484 25.8502C19.5484 25.7871 19.5169 25.8187 19.5484 25.7871C19.5799 25.6611 19.5799 25.8817 19.6114 25.8187V25.8817C19.6114 25.8187 19.6429 25.7556 19.6429 25.8187C19.6429 25.9132 19.6114 25.8817 19.6114 25.9447C19.6114 25.9447 19.6745 25.9132 19.6429 25.8502C19.6745 25.8187 19.6745 25.9132 19.6745 25.9132C19.6745 25.8817 19.6745 25.8502 19.6745 25.8187C19.706 25.8817 19.7375 25.8817 19.769 25.8817C19.769 25.9132 19.769 25.9447 19.769 25.9447C19.706 25.8502 19.706 26.0393 19.7375 26.0078Z" fill="#FFBB00"/>
<path d="M25.0639 10.2812L26.167 12.4559C26.167 12.5504 26.2616 12.5504 26.3876 12.5504L28.783 12.8656C29.0036 12.8656 29.0981 13.1808 28.8775 13.4014L27.144 15.1349C27.0495 15.2294 27.0495 15.3555 27.0495 15.3555L27.4907 17.7508C27.4907 17.9714 27.2701 18.1921 27.0495 18.066L24.8748 16.8683C24.7802 16.8683 24.6542 16.8683 24.5596 16.8683L22.3849 18.066C22.2904 18.2866 22.0697 18.066 22.0697 17.8454L22.511 15.45C22.511 15.3555 22.511 15.2294 22.4164 15.2294L20.62 13.4329C20.3993 13.3384 20.5254 12.9917 20.7145 12.9917L23.1098 12.6765C23.2044 12.6765 23.3304 12.582 23.3304 12.582L24.402 10.4073C24.6227 9.96602 24.9693 9.96602 25.0639 10.2812Z" fill="#FFBB00"/>
<path d="M24.1499 16.3303C24.1184 16.3618 24.0869 16.3618 24.0554 16.3933L23.9923 16.4248C23.9608 16.4564 23.8978 16.4879 23.8663 16.5194C23.7717 16.5824 23.6772 16.6455 23.6141 16.677C23.425 16.803 23.2674 16.8976 23.0783 16.9921C23.0468 17.0237 23.0153 17.0867 22.9838 17.1182L22.9207 17.1813C22.9207 17.1813 22.9207 17.1813 22.9207 17.2128L22.8892 17.1497V17.1813C22.8892 17.1497 22.8892 17.1497 22.8892 17.1497C22.8892 17.1813 22.8892 17.1813 22.8892 17.2128C22.8892 17.1813 22.8577 17.2128 22.8892 17.1182C22.8892 17.1182 22.8577 17.2128 22.8577 17.1813C22.8577 17.1497 22.8577 17.1497 22.8892 17.1182C22.9207 17.0867 22.8892 17.1497 22.8262 17.2128C22.7947 17.2758 22.7001 17.3388 22.7316 17.2758C22.7001 17.3073 22.7001 17.2758 22.7001 17.2758C22.6056 17.3704 22.7632 17.2443 22.7001 17.3073C22.6056 17.4019 22.6371 17.3388 22.5741 17.4019C22.6056 17.3388 22.5741 17.3704 22.5741 17.3704C22.6371 17.3073 22.6056 17.2758 22.6686 17.2128C22.6371 17.2128 22.5741 17.2443 22.5741 17.1813C22.6371 17.1497 22.6371 17.1813 22.6686 17.1182H22.6371C22.6371 17.0867 22.6686 17.0867 22.6686 17.0867C22.6686 17.0552 22.6056 17.0552 22.6371 17.0237L22.6686 17.0552C22.6686 17.0552 22.6686 16.9921 22.7001 16.8976C22.7316 16.8976 22.7001 16.9606 22.7001 16.9606C22.7632 16.9291 22.7001 16.8661 22.7001 16.8346C22.6686 16.8346 22.6686 16.8976 22.6371 16.8661C22.6686 16.803 22.6056 16.74 22.6686 16.7085L22.7001 16.7715C22.7001 16.6455 22.6686 16.7085 22.7001 16.5824C22.7001 16.5824 22.7001 16.5824 22.7316 16.5824C22.7001 16.4879 22.7632 16.3933 22.7947 16.2988V16.3303C22.7947 16.2672 22.7632 16.2357 22.7632 16.2357C22.7316 16.2988 22.7316 16.2672 22.6686 16.2672C22.7632 16.2042 22.6056 16.1097 22.6686 15.9836C22.7001 15.9836 22.7001 16.0151 22.6686 16.0781C22.7316 16.1412 22.7947 16.1412 22.7947 16.2357C22.7947 16.1727 22.7947 16.1097 22.8262 16.1412L22.7632 16.1097C22.7632 16.0781 22.7632 16.0466 22.7947 16.0151C22.7632 15.9836 22.7316 16.0781 22.7001 15.9836C22.7001 15.889 22.7632 15.9521 22.7316 15.9206C22.7316 15.7945 22.6686 15.8575 22.7001 15.763V15.7945C22.7001 15.763 22.7316 15.763 22.7316 15.7315C22.7316 15.6999 22.7316 15.6684 22.7632 15.6369C22.7632 15.5739 22.7947 15.5108 22.8262 15.5108C22.8262 15.5423 22.8577 15.5423 22.8577 15.5739C22.8892 15.6999 22.8577 15.4478 22.9207 15.5108C22.8892 15.5108 22.8892 15.3532 22.8892 15.2587L22.8577 15.2902C22.7632 15.1957 22.7947 15.1957 22.8262 15.1641C22.8577 15.1641 22.9207 15.1326 22.8577 15.0381C22.7316 14.975 22.8892 15.0696 22.7947 15.0381C22.7316 14.975 22.7001 14.912 22.6056 14.8174C22.6056 14.7859 22.5741 14.7229 22.6056 14.6914C22.5425 14.6599 22.4795 14.5338 22.4165 14.5338C22.448 14.6283 22.5425 14.5653 22.5741 14.7229H22.511C22.448 14.6599 22.3534 14.5968 22.3219 14.5338C22.3219 14.5653 22.3219 14.5653 22.2904 14.5653C22.1958 14.4708 22.1328 14.5023 22.0383 14.4077C22.0698 14.3762 22.1013 14.4077 22.1328 14.4708C22.1013 14.3762 22.0698 14.4077 22.0067 14.3132C22.0383 14.2817 22.0698 14.3762 22.1013 14.3447L22.0067 14.2501C21.9437 14.2817 21.9437 14.1556 21.8807 14.1241C21.7546 13.9665 21.6601 14.0295 21.534 13.9665C21.534 13.935 21.534 13.9034 21.5655 13.9034C21.5655 13.9665 21.597 13.935 21.6285 13.935C21.5655 13.9034 21.5655 13.7774 21.6285 13.7774C21.534 13.7143 21.6285 13.8404 21.5655 13.8089L21.4709 13.7143C21.4394 13.7459 21.4709 13.7774 21.4079 13.7459C21.3764 13.7143 21.3764 13.7143 21.3449 13.6828C21.3764 13.6828 21.3764 13.6513 21.4079 13.6828C21.4079 13.6513 21.3764 13.6513 21.3449 13.6513C21.3449 13.7143 21.2503 13.5883 21.2188 13.6513V13.6198C21.2188 13.6198 21.2503 13.6198 21.2503 13.6513C21.3134 13.6198 21.2188 13.6198 21.1873 13.6198C21.1873 13.6198 21.1558 13.5568 21.1873 13.5568C21.1558 13.5568 21.1558 13.5252 21.1873 13.5252C21.1558 13.4937 21.1243 13.5252 21.0927 13.5252C21.0612 13.5252 21.0612 13.4937 21.0297 13.4622C21.0612 13.4622 21.2188 13.4937 21.2188 13.4937C21.1558 13.4622 21.0612 13.4622 21.0612 13.4307C21.1558 13.4622 21.1558 13.3992 21.2503 13.4622C21.3134 13.4622 21.3449 13.4307 21.3449 13.4307C21.2818 13.3992 21.2818 13.4307 21.2188 13.3992C21.2818 13.3361 21.1243 13.2731 21.2503 13.2731H21.2188C21.2503 13.2416 21.2503 13.2416 21.2503 13.2101C21.2818 13.2731 21.4394 13.3361 21.5025 13.3046C21.5025 13.2731 21.4394 13.2731 21.4079 13.2101L21.4709 13.1785C21.4709 13.1785 21.4709 13.1785 21.4709 13.2101C21.534 13.1785 21.597 13.2731 21.597 13.2101L21.6916 13.2731L21.6601 13.2416C21.6601 13.2101 21.7861 13.1785 21.7861 13.1785C21.8807 13.147 21.9437 13.147 22.0067 13.1785C21.9752 13.147 21.9437 13.1155 22.0067 13.084C22.0067 13.1785 22.1958 13.084 22.1958 13.147C22.2274 13.147 22.2904 13.147 22.2904 13.1155V13.1785C22.2904 13.084 22.4165 13.084 22.511 13.0525C22.511 13.147 22.6056 13.021 22.6686 13.1155C22.6686 13.0525 22.8262 13.0525 22.8577 12.9894C22.9207 12.9894 22.9207 13.0525 22.9523 13.0525L22.9838 13.021C22.9838 13.0525 23.0783 13.021 23.1414 13.021C23.2359 13.021 23.299 13.021 23.362 12.9894C23.3935 12.9579 23.425 12.9264 23.425 12.8949H23.4881C23.4881 12.8634 23.5511 12.8003 23.4881 12.8319L23.5196 12.7688C23.4881 12.7058 23.5511 12.6743 23.5826 12.5797C23.6141 12.5482 23.6141 12.5797 23.6141 12.6112C23.6456 12.5482 23.6456 12.6112 23.7087 12.5797C23.6772 12.5797 23.6772 12.5167 23.6772 12.4852C23.6772 12.4221 23.6456 12.3906 23.5826 12.4536C23.5511 12.4536 23.5826 12.3591 23.5826 12.3276H23.6456L23.6141 12.2645C23.6456 12.2015 23.6772 12.2015 23.7087 12.17C23.6772 12.233 23.7717 12.3276 23.8347 12.2015C23.8032 12.2645 23.8347 12.3276 23.8347 12.3591C23.8347 12.3276 23.8663 12.3276 23.8663 12.3906C23.8978 12.2961 23.8348 12.3276 23.8978 12.233C23.9608 12.2645 23.9608 12.233 24.0239 12.17L23.9608 12.2015C23.9608 12.2015 23.9608 12.2015 23.9608 12.17C23.9293 12.2015 23.9293 12.2015 23.8978 12.2015C23.8978 12.17 23.8978 12.0754 23.9293 12.0754C23.8032 12.1385 23.9608 11.8863 23.8663 11.9179C23.8663 11.8863 23.8978 11.8233 23.9293 11.8233C23.9293 11.9179 24.0239 11.7918 24.0554 11.8233C24.0554 11.7918 23.9923 11.8548 23.9923 11.8233C24.0239 11.7603 24.0554 11.7603 24.0869 11.7287V11.7603L24.1499 11.6972C24.1184 11.6657 24.0869 11.7603 24.0869 11.6657C24.1184 11.6657 24.1184 11.5712 24.1499 11.6027C24.1814 11.6657 24.213 11.6657 24.213 11.7287C24.2445 11.6657 24.3075 11.5396 24.213 11.5712L24.2445 11.5081C24.213 11.5396 24.1184 11.6027 24.1814 11.5081V11.4136L24.213 11.3821C24.213 11.3821 24.1814 11.3505 24.213 11.319C24.2445 11.319 24.2445 11.2875 24.276 11.319C24.3075 11.2245 24.276 11.2245 24.276 11.193C24.3075 11.1299 24.3075 11.1299 24.339 11.1614C24.3705 11.0984 24.4336 10.9723 24.4651 10.9408C24.4966 10.8463 24.4336 10.9408 24.4336 10.8778C24.5596 10.8463 24.6227 10.5941 24.6542 10.4681C24.5596 10.4681 24.6542 10.4365 24.5912 10.3735C24.5912 10.405 24.7172 10.3105 24.6857 10.405C24.6857 10.3735 24.7172 10.3735 24.7172 10.342C24.7803 10.342 24.6857 10.4365 24.7803 10.4365C24.8118 10.405 24.7803 10.3105 24.8118 10.3105C24.8433 10.3735 24.8118 10.3105 24.8118 10.3105C24.8118 10.342 24.8433 10.3735 24.8433 10.3735C24.7803 10.2474 24.8118 10.2789 24.8118 10.2474C24.8118 10.2474 24.8118 10.2474 24.8118 10.2159V10.2474C24.8118 10.2474 24.8118 10.2789 24.7803 10.2789C24.7488 10.3105 24.7803 10.2789 24.7803 10.2789L24.8118 10.2474L24.8433 10.2159C24.8118 10.2474 24.8118 10.2474 24.8433 10.2474C24.8748 10.2474 24.9063 10.2789 24.9063 10.2789C24.9063 10.2159 24.9063 10.1844 24.9063 10.1844C24.9063 10.1844 24.9063 10.1529 24.8748 10.1214C24.8433 10.1529 24.8433 10.1844 24.8433 10.1844C24.8748 10.1529 24.8433 10.1529 24.8118 10.1529C24.8433 10.1844 24.7803 10.1844 24.7803 10.2159C24.7488 10.2159 24.7803 10.1214 24.6857 10.1529C24.6857 10.1844 24.7172 10.2159 24.7172 10.2159C24.6857 10.2159 24.6857 10.1529 24.6542 10.2159C24.6542 10.1529 24.5912 10.1844 24.6542 10.0898C24.4966 10.1214 24.5281 10.2789 24.5281 10.3735V10.342C24.5281 10.3735 24.5281 10.405 24.4966 10.4365C24.4336 10.4996 24.4966 10.3735 24.4651 10.3735L24.4021 10.4996C24.4021 10.5311 24.4021 10.5626 24.3705 10.5626C24.3705 10.5311 24.339 10.4996 24.339 10.4681V10.5941C24.3075 10.5626 24.2445 10.6572 24.276 10.5626L24.213 10.7202H24.1499C24.1499 10.7517 24.1499 10.7832 24.1814 10.7202C24.1499 10.7832 24.1499 11.0038 24.0554 10.9408C24.0239 11.0984 23.9923 11.1299 23.9293 11.2875C23.9293 11.1614 23.8032 11.3821 23.8347 11.256C23.7717 11.319 23.8347 11.3505 23.8032 11.4136C23.7402 11.4451 23.7087 11.4136 23.7402 11.3505V11.4451V11.5081C23.6772 11.5712 23.6772 11.5081 23.6456 11.5712L23.6772 11.6027L23.6141 11.6342C23.6456 11.6342 23.6456 11.6657 23.6141 11.7287L23.5826 11.7918C23.5826 11.7287 23.5511 11.8548 23.5196 11.7918C23.4881 11.8233 23.4881 11.8233 23.4565 11.9179H23.4881C23.4565 12.0439 23.4565 11.9179 23.3935 12.0124H23.425C23.299 12.107 23.3305 12.2645 23.2674 12.3276C23.2674 12.2645 23.2359 12.2645 23.2359 12.2645C23.2044 12.3276 23.1729 12.4221 23.1099 12.4852C23.0783 12.4536 23.0783 12.4536 22.9838 12.4221H22.9523C22.9207 12.4221 22.9207 12.4536 22.9207 12.4536C22.8577 12.4536 22.7316 12.4852 22.7001 12.4536C22.7001 12.4852 22.6371 12.4536 22.6056 12.4852V12.4536V12.4852C22.4795 12.4221 22.385 12.5797 22.2589 12.5167H22.2904L22.2274 12.5482C22.2274 12.5167 22.2274 12.5167 22.2274 12.4852L21.9752 12.5167L22.0383 12.5482C21.9752 12.5482 21.9437 12.6112 21.8807 12.5797C21.9752 12.5167 21.7861 12.5797 21.7861 12.5482L21.8492 12.5167C21.7861 12.5167 21.7861 12.5167 21.7861 12.5797C21.6916 12.6112 21.7231 12.5167 21.6285 12.5797H21.6916C21.7231 12.6112 21.6601 12.6428 21.6285 12.6428C21.6285 12.6428 21.597 12.6112 21.6285 12.6112C21.597 12.6112 21.534 12.6428 21.5025 12.6428C21.4394 12.6428 21.4079 12.6428 21.3764 12.6743C21.3134 12.6743 21.3134 12.6428 21.3449 12.6112C21.1243 12.6743 21.2503 12.6112 21.0297 12.6743V12.6428L20.9667 12.6743C20.9036 12.6743 20.8721 12.6428 20.8091 12.6428L20.8721 12.6743C20.8091 12.7058 20.7776 12.7058 20.683 12.7373V12.7058C20.5254 12.7688 20.4309 12.7373 20.3678 12.8319V12.8003C20.3048 12.8949 20.2103 12.8319 20.2103 13.021H20.1787C20.1787 13.0525 20.1787 13.084 20.1787 13.1155L20.1472 13.084C20.1472 13.1155 20.1787 13.147 20.2103 13.1785L20.1472 13.2101C20.1472 13.2101 20.1472 13.2416 20.1787 13.2416C20.1472 13.2731 20.1472 13.3046 20.1472 13.3677V13.3992C20.1472 13.4307 20.1472 13.4307 20.1472 13.4622H20.2103C20.3363 13.5568 20.3678 13.6828 20.4939 13.8404C20.5254 13.8719 20.5569 13.935 20.62 13.9665C20.6515 13.998 20.683 14.061 20.7145 14.0926C20.746 14.1241 20.7776 14.1871 20.8091 14.2186L20.8721 14.2817C20.9036 14.3132 20.9036 14.3132 20.9036 14.3132L20.8721 14.3447L20.9982 14.3762C20.9982 14.4392 20.9352 14.3762 20.9352 14.4077C21.0297 14.4708 21.0297 14.4077 21.1243 14.5023C21.1558 14.5653 21.0927 14.5023 21.0612 14.5023C21.1558 14.5653 21.3134 14.6914 21.3449 14.7859C21.4079 14.849 21.4709 14.9435 21.534 15.0066C21.5025 15.0066 21.5025 15.0066 21.4709 14.975C21.5025 15.0066 21.5025 15.0381 21.534 15.0381H21.4709C21.5025 15.1011 21.6285 15.1641 21.6285 15.2272C21.6285 15.1957 21.6601 15.1957 21.6916 15.2272C21.6601 15.2902 21.8176 15.3217 21.8807 15.4163C21.8492 15.4163 21.8176 15.3532 21.8176 15.3848C21.8492 15.4163 21.9122 15.4478 21.9437 15.4478H21.9122L21.9437 15.4793C21.9437 15.4793 21.9752 15.4793 22.0067 15.4793C21.9437 15.5108 22.0383 15.5739 21.9752 15.5739C21.9752 15.6054 22.0067 15.5423 22.0067 15.5739C21.9752 15.5739 22.0067 15.6054 21.9752 15.6054V15.6369C21.9752 15.6369 21.9437 15.6369 21.9437 15.6054C21.9437 15.6054 21.9437 15.6369 21.9752 15.6369C21.9752 15.6684 22.0067 15.6684 22.0067 15.6684C21.9752 15.7315 21.9752 15.826 21.9437 15.826V15.7945C21.9437 15.9521 21.7861 16.0466 21.8176 16.2042C21.8176 16.2042 21.7861 16.2042 21.8176 16.2042L21.7861 16.2988L21.7546 16.2672L21.7861 16.4564H21.7546C21.7546 16.5194 21.7231 16.5824 21.7231 16.6455C21.7231 16.74 21.6916 16.8346 21.6916 16.8976V16.8661C21.6916 17.1497 21.6285 17.1497 21.597 17.3388C21.597 17.3388 21.597 17.3388 21.597 17.3073L21.5655 17.5279L21.534 17.4964C21.5655 17.6225 21.4079 17.9377 21.4709 17.8116C21.5025 17.8746 21.534 17.9692 21.5655 17.9692C21.597 18.0953 21.534 18.0322 21.534 18.1268C21.5655 18.2213 21.597 18.1898 21.6285 18.3159H21.597C21.6285 18.3789 21.6601 18.3789 21.7231 18.4735H21.6916C21.8176 18.5365 21.8176 18.6941 21.9752 18.6311C22.0383 18.6626 22.0383 18.6311 22.0383 18.6941C22.1328 18.6941 22.1958 18.6941 22.2904 18.6626C22.385 18.6626 22.4795 18.5995 22.6056 18.5365C22.6056 18.568 22.6371 18.5365 22.6686 18.505C22.7001 18.4735 22.7316 18.505 22.7947 18.4419V18.4104C22.8262 18.3789 22.8892 18.3159 22.9207 18.2528C22.9523 18.2213 23.0153 18.2213 23.0468 18.2213C23.1414 18.1898 23.2359 18.1898 23.3305 18.1583C23.4565 18.1268 23.4881 18.1268 23.5511 18.0953C23.6141 18.0637 23.6456 18.0322 23.7087 18.0007L23.7402 18.0322L23.7717 17.9692C23.9923 17.8746 24.276 17.717 24.4651 17.6225C24.4966 17.5595 24.5912 17.4964 24.6857 17.4334C24.6857 17.4019 24.6857 17.4019 24.7172 17.4019C24.7488 17.4019 24.7488 17.4019 24.7803 17.4019V17.4334C24.7803 17.4019 24.7803 17.4019 24.8118 17.4334L24.8433 17.4649L24.8118 17.4334C24.8748 17.4334 24.9379 17.4964 24.9379 17.5279H25.0324V17.5595H25.0639V17.6225C25.0954 17.6225 25.19 17.654 25.253 17.654C25.253 17.6855 25.3161 17.717 25.253 17.717L25.5367 17.8746L25.5052 17.8431C25.5052 17.8116 25.6312 17.8431 25.6628 17.8746C25.5997 17.8746 25.6312 17.9377 25.6312 17.9692C25.6943 17.9692 25.5997 17.9062 25.6312 17.9062C25.6943 17.9062 25.7888 17.9692 25.8203 17.9692H25.7888C25.8519 18.0007 25.8519 18.0637 25.9149 18.0953C25.9779 18.0953 26.0094 18.1583 26.041 18.0953C26.1355 18.1268 26.041 18.1583 26.0725 18.1898C26.0725 18.1898 26.104 18.1898 26.1355 18.1898H26.167L26.2301 18.2213C26.2931 18.2528 26.3561 18.3159 26.3561 18.3474C26.4192 18.3159 26.5137 18.3789 26.6083 18.4419C26.7028 18.505 26.7974 18.568 26.7974 18.5365L26.9235 18.6311C26.9235 18.5995 26.955 18.5365 27.018 18.568C27.1126 18.5995 27.081 18.6626 27.1126 18.6941L27.1441 18.5995C27.2386 18.6311 27.3647 18.6311 27.4908 18.5995C27.6168 18.568 27.7429 18.4419 27.8375 18.3474C27.869 18.2844 27.932 18.2213 27.9635 18.1583C27.995 18.0953 27.995 18.0637 28.0266 17.9692C28.0581 17.8431 28.0896 17.6855 28.0581 17.4964C28.0266 17.3388 27.9635 17.1497 27.932 16.9921L27.9005 16.8346C27.9005 16.7715 27.869 16.74 27.869 16.677V16.7085V16.5194V16.677C27.8375 16.6455 27.8375 16.6139 27.8375 16.5509C27.8375 16.3303 27.8375 16.0466 27.7429 15.7945C27.6799 15.7315 27.7114 15.6999 27.7114 15.6684C27.7114 15.6369 27.7429 15.6369 27.7429 15.6054V15.5739C27.7429 15.5739 27.7429 15.5739 27.7114 15.5739H27.7429C27.7114 15.5739 27.6799 15.5423 27.6484 15.4793C27.7429 15.5423 27.6484 15.4478 27.7114 15.4793L27.6799 15.4478H27.7114C27.7429 15.4478 27.7429 15.4163 27.7744 15.4478L27.8059 15.3532L27.8375 15.3848C27.9005 15.3217 28.0581 15.1326 28.1526 15.1641C28.2787 14.9435 28.5939 14.6599 28.846 14.4392C28.846 14.4077 28.8775 14.3762 28.8775 14.3447C28.8775 14.3447 28.909 14.3132 28.9406 14.2817C28.9721 14.2501 29.0036 14.2186 29.0036 14.2186L29.1612 14.1556C29.2557 14.0295 29.2873 13.935 29.4133 13.8404C29.4764 13.7459 29.5709 13.6513 29.5709 13.5568C29.6339 13.4622 29.6655 13.3677 29.697 13.3992C29.6655 13.3992 29.6655 13.3361 29.697 13.2731C29.7285 13.2101 29.7285 13.147 29.7285 13.147C29.7285 13.147 29.7285 13.1155 29.7285 13.0525C29.7285 12.9894 29.697 12.8949 29.6655 12.8003C29.6339 12.7058 29.5394 12.5797 29.4764 12.5167C29.3818 12.4221 29.2557 12.3276 29.0036 12.2961C28.5939 12.233 28.0581 12.17 27.5223 12.0754C27.3017 12.0439 27.1126 12.0124 26.8919 11.9809H26.7974L26.7659 11.9494L26.6713 11.7918C26.6083 11.6972 26.5768 11.6027 26.5137 11.5081C26.4192 11.319 26.2931 11.1614 26.1986 11.0038C26.0094 10.6887 25.8203 10.4681 25.6628 10.3105C25.5997 10.3105 25.5367 10.2159 25.5052 10.2789C25.4737 10.2159 25.5052 10.1529 25.4737 10.1529C25.3476 10.2474 25.2215 10.1529 25.2215 10.2789L25.19 10.2159C25.1585 10.2159 25.253 10.2789 25.19 10.2789L25.253 10.2474C25.253 10.3105 25.253 10.342 25.253 10.3735C25.3161 10.405 25.4106 10.3735 25.4106 10.4996L25.3791 10.4681C25.4106 10.5626 25.3476 10.5311 25.3476 10.5626V10.5311V10.6256C25.3476 10.5626 25.253 10.4996 25.2845 10.5311C25.3476 10.6887 25.3161 10.5626 25.3476 10.6256C25.3791 10.6572 25.3476 10.6887 25.3161 10.6887L25.3476 10.7832C25.3161 10.7832 25.3161 10.7202 25.3161 10.7832L25.4106 10.8778C25.3476 10.9408 25.5052 10.9723 25.4421 11.0669C25.3791 11.0038 25.4106 11.0984 25.3791 11.0984L25.4737 11.2875C25.4737 11.319 25.4106 11.256 25.4421 11.2875C25.4421 11.319 25.5052 11.3505 25.5052 11.3505C25.5052 11.3821 25.5682 11.4766 25.5367 11.5081C25.5682 11.6657 25.6312 11.5396 25.6628 11.6657C25.6628 11.6342 25.6312 11.5081 25.5997 11.5712L25.6628 11.6972C25.6312 11.6972 25.5997 11.6972 25.5682 11.6342C25.6628 11.8233 25.6628 11.9494 25.6943 12.0754C25.6943 12.1385 25.7258 12.2015 25.7258 12.2645C25.7258 12.3276 25.7888 12.4221 25.8203 12.5167C25.8519 12.5482 25.8519 12.5797 25.8834 12.6428C25.8834 12.7373 25.8519 12.6112 25.7888 12.5797C25.8519 12.6428 25.8834 12.7373 25.9149 12.7688C25.9464 12.8319 26.0094 12.8634 26.0725 12.8949C26.167 12.9579 26.2931 12.9894 26.4822 13.021V12.9894C26.7659 13.147 27.1126 13.1155 27.4277 13.2101L27.3962 13.1785C27.4592 13.147 27.5223 13.147 27.5853 13.147C27.5853 13.1785 27.5223 13.2101 27.6484 13.2101C27.6168 13.2101 27.5853 13.1785 27.6168 13.147C27.7114 13.1785 27.8059 13.2101 27.932 13.2416C27.9635 13.2416 27.9635 13.2416 27.995 13.2416H28.0266H28.0581C28.0896 13.2731 28.1211 13.2416 28.1211 13.3046C28.1526 13.3361 28.0896 13.3992 28.0581 13.3992L28.0266 13.4307L27.995 13.4622L27.7429 13.7143C27.6168 13.8404 27.5223 13.935 27.3962 14.061C27.4592 13.998 27.4908 14.0926 27.4277 14.1241C27.1756 14.1556 27.2071 14.3762 26.9865 14.4392C26.9235 14.5023 26.8919 14.5653 26.7974 14.6283C26.6713 14.7544 26.5452 14.849 26.4822 15.0066C26.4192 15.1326 26.3561 15.2902 26.3877 15.4478C26.3877 15.5108 26.4192 15.6054 26.4507 15.6684C26.4507 15.6999 26.4822 15.7315 26.4822 15.763C26.4822 15.7945 26.5137 15.7945 26.5137 15.826H26.4822C26.4822 15.889 26.5137 15.889 26.5137 15.9521C26.5137 16.0781 26.5768 16.2042 26.5768 16.2988H26.6083C26.6398 16.3618 26.5768 16.3303 26.6083 16.4248H26.5768L26.6398 16.5194C26.5452 16.5194 26.6713 16.74 26.6398 16.803C26.6398 16.8346 26.6713 16.9291 26.7028 16.9921C26.7028 17.0237 26.7343 17.0552 26.7343 17.1182C26.7343 17.1497 26.7343 17.2128 26.7343 17.1813C26.7028 17.1813 26.7028 17.2128 26.6713 17.2128C26.6713 17.2128 26.7028 17.2758 26.6713 17.2758L26.7028 17.3388C26.7028 17.3073 26.7028 17.3073 26.6713 17.3073C26.6398 17.2128 26.6713 17.3388 26.6398 17.2758C26.6713 17.3388 26.6398 17.2758 26.6398 17.3073C26.6713 17.3388 26.6713 17.4019 26.6398 17.3704V17.4019C26.6083 17.3388 26.6083 17.3073 26.6083 17.2758C26.6083 17.2758 26.6083 17.3073 26.5768 17.3073C26.5768 17.3073 26.5768 17.3073 26.5452 17.3073C26.5137 17.3073 26.5137 17.2758 26.4822 17.2758C26.5137 17.2443 26.3246 17.2128 26.3877 17.1497C26.2301 17.1182 26.3877 17.2128 26.2931 17.2443C26.2616 17.2128 26.1986 17.2128 26.2301 17.1813C26.2616 17.1813 26.2301 17.1182 26.2616 17.1182L26.167 17.0867H26.1986C26.0094 17.0237 25.9149 16.8661 25.7258 16.8346C25.6943 16.8661 25.7888 16.8661 25.7573 16.8976C25.5682 16.8661 25.6312 16.7715 25.4737 16.74L25.5367 16.7085C25.4737 16.7085 25.4421 16.7085 25.3791 16.6455C25.3791 16.5824 25.4737 16.6455 25.5052 16.6455C25.4421 16.6139 25.3161 16.5509 25.3161 16.6139C25.2845 16.6139 25.253 16.5824 25.253 16.5509C25.253 16.5194 25.2215 16.5194 25.19 16.4879L25.2215 16.5194C25.2215 16.5194 25.2215 16.5509 25.19 16.5509C25.127 16.4879 25.0324 16.4248 24.9063 16.3618C24.7803 16.3618 24.6227 16.3618 24.4966 16.3618C24.4966 16.3618 24.4651 16.3303 24.4966 16.3303C24.3705 16.3618 24.339 16.3303 24.276 16.3303C24.3075 16.2672 24.2445 16.2672 24.1499 16.3303Z" fill="#FFBB00"/>
<path fill-rule="evenodd" clip-rule="evenodd" d="M35.2569 7.87294C35.2597 7.88597 35.2565 7.89272 35.2569 7.9035C35.2369 7.87789 35.2169 7.85227 35.1965 7.82665C35.2169 7.84328 35.2356 7.85541 35.2569 7.87294M36.6435 31.1186C36.6394 31.1096 36.6371 31.0952 36.6321 31.0858C36.6585 31.1235 36.6812 31.1622 36.6867 31.2067C36.6153 31.3689 36.5462 31.3918 36.4944 31.3851C36.5376 31.315 36.5853 31.2314 36.6435 31.1186M39.7141 17.3856L39.9147 17.2586C39.8136 17.1073 39.6975 16.9604 39.5896 16.8142C39.4388 16.4917 39.513 16.181 39.5612 15.8417C39.5853 15.6725 39.6031 15.497 39.5841 15.3145C39.5545 15.1347 39.4755 14.951 39.3337 14.7618L39.2278 14.9057C39.1658 14.5977 38.8692 13.9809 39.0402 13.9829C39.0066 13.9598 38.8704 13.9289 38.9067 13.7894L39.0086 13.7464C38.9411 13.6334 38.8798 13.5185 38.8072 13.4083L38.5737 13.0847C38.4236 12.5055 39.0208 13.021 38.7076 12.1951C38.5429 11.9039 38.0606 11.4619 38.0405 11.6069C38.0851 11.73 38.1033 11.9426 38.0053 11.9958L37.8426 11.7488C37.8232 11.7539 37.8031 11.7578 37.7833 11.7621C37.7766 11.748 37.7719 11.7343 37.7652 11.7206C37.2714 10.6657 36.6888 9.6804 36.0379 8.76034L36.0873 8.75878L36.0063 8.71539C35.9158 8.58837 35.8285 8.45978 35.7353 8.33588C35.7768 8.3222 35.8297 8.33549 35.8937 8.39763C35.8183 8.04938 35.6326 8.23426 35.5856 7.92001C35.5856 7.88093 35.6058 7.88327 35.633 7.89852L35.3621 7.70583C35.4501 7.71638 35.4885 7.53776 35.5813 7.7156C35.3427 7.1645 34.8245 7.14105 34.8537 6.83189L34.8976 6.85729C34.4504 6.47153 34.5484 6.69509 34.3947 6.73965C34.307 6.64584 34.2174 6.554 34.1281 6.46215L34.1901 6.03846L33.9832 6.13227C33.9302 6.06934 33.8263 5.94388 33.9073 5.9044C33.5886 5.79301 33.8793 6.00681 33.6577 5.98023C33.5838 5.77542 33.3816 5.59251 33.2038 5.44281C33.0198 5.29898 32.878 5.16609 32.9538 5.00975C32.7385 5.04258 33.1643 5.34158 32.7654 5.1614C32.9076 4.80846 32.3487 4.90305 32.1765 4.54777C32.3783 4.46999 32.5849 4.76586 32.4068 4.40511C32.2223 4.45982 32.0971 4.33593 31.9814 4.17763C31.8636 4.02286 31.7384 3.8544 31.5943 3.79108C31.4359 3.98846 30.9777 3.50772 30.5041 3.29431C30.5914 3.21692 29.7374 2.6967 29.3519 2.39106L29.3843 2.36057C29.1781 2.55014 28.7796 2.24762 28.4209 2.16515C28.4979 2.03421 28.5856 1.99982 28.7938 2.02171C28.6919 1.9709 28.5844 1.9322 28.4794 1.88686C28.3708 1.92986 28.255 1.9279 28.0398 1.86967L28.1962 1.72896C27.7652 1.56949 27.2735 1.56519 26.7667 1.25955C26.7075 1.36625 26.8481 1.60154 26.7576 1.72271C26.6612 1.68831 26.5637 1.65822 26.4661 1.62499C26.4965 1.57536 26.5451 1.53823 26.6261 1.54331C26.5716 1.53979 26.4223 1.56363 26.3354 1.49367L26.621 1.41355C26.3923 1.26815 26.4452 1.49992 26.2501 1.42371C26.2975 1.29512 26.1324 1.28496 26.1948 1.19076C26.2508 1.19428 26.3528 1.29903 26.4479 1.27206C26.2279 1.17825 25.9763 1.01527 25.9143 0.887462C25.9116 0.967977 25.8598 1.06374 25.688 1.02895C25.2531 0.904659 25.5861 0.824926 25.3503 0.678358C25.2223 0.729168 24.9616 0.575564 24.9035 0.773334C24.7744 0.745193 24.7728 0.647481 24.7357 0.58299C24.4833 0.622075 23.6514 0.382485 23.8687 0.650217L23.9248 0.676403C23.9133 0.676794 23.8995 0.677185 23.8857 0.677576C23.6889 0.68852 23.4962 0.666632 23.3046 0.626766C23.1119 0.59198 22.9167 0.561494 22.7236 0.515374C22.3365 0.428605 21.947 0.326984 21.5659 0.328548L21.5726 0.26054C21.1156 0.291808 20.5575 0.280082 20.2348 0.413362C20.1021 0.411408 19.9192 0.2836 19.9761 0.203476C19.6281 0.258195 19.5929 0.303533 19.0881 0.240216C19.4314 0.0924746 18.9621 0.144067 19.442 0.123743C18.989 0.101073 18.8744 0.00101582 18.4032 0.226927C18.5549 0.0385374 18.0398 0.0358014 17.8285 0.105373L18.1607 0.203867C17.9213 0.249596 17.7084 0.251159 17.4912 0.255068L17.5781 0.016259C17.0926 -0.0603475 16.6897 0.149929 16.3208 0.309396C15.9515 0.482933 15.6079 0.587681 15.2109 0.474725C15.0134 0.698682 15.7272 0.445411 15.5585 0.689301C15.1449 0.775288 14.6251 0.579864 14.492 0.617385C13.8837 0.667805 14.0563 1.07507 13.4524 1.19467C13.5535 1.24313 13.6926 1.42371 13.3019 1.66291C12.9026 1.78954 12.6913 1.5351 12.9188 1.37329C13.012 1.32873 13.0677 1.33459 13.0732 1.36234C13.1905 1.283 13.3485 1.18255 13.1585 1.16184L13.1356 1.25955C12.9081 1.25994 12.3599 1.4882 12.4373 1.31192C12.1636 1.50579 12.3611 1.48781 12.6 1.43856C12.0451 1.54409 11.7852 1.72779 11.2543 1.93416C11.355 1.93298 11.4707 1.98184 11.3906 2.02249C10.6081 2.31445 11.1374 2.33009 10.6606 2.61892C10.3182 2.65566 10.6164 2.3039 10.1665 2.65723C9.81653 2.744 9.99033 2.50284 10.0808 2.37972C9.98519 2.47509 9.87934 2.54388 9.77229 2.5986C9.66999 2.66192 9.56374 2.70882 9.46025 2.74673C9.25328 2.82295 9.05499 2.86516 8.92149 2.93551L9.1174 2.72758C8.99969 2.85187 8.88554 2.92535 8.76942 3.00118L8.99298 3.05159C8.8417 3.11608 8.72636 3.19074 8.69081 3.1325C8.61261 3.31268 8.95032 3.29001 8.76152 3.59058C8.53795 3.64295 8.26936 4.00918 8.08924 3.89114C8.68252 3.56439 7.89136 3.75121 8.34717 3.40375C8.27015 3.48661 8.1556 3.55774 8.00432 3.62692C7.97035 3.62223 7.99445 3.57533 8.02526 3.54172C7.39248 3.78835 7.93954 3.92514 7.41697 4.33827C7.40512 4.18936 7.1468 4.2558 7.07807 4.3457C7.29137 4.17607 7.30914 4.42308 7.17998 4.64939C6.78539 4.8452 6.86715 4.9949 6.68743 5.12622L6.91494 4.99998C6.92877 5.1442 6.75339 5.2638 6.57683 5.50417C6.4927 5.4518 6.7214 5.26849 6.61752 5.31109C6.53654 5.69608 5.93418 5.66989 5.71062 6.0967C5.49851 6.18894 5.52734 5.95131 5.35197 6.0455C5.09523 6.51217 4.84441 6.34841 4.58688 6.85104C4.81557 6.83619 4.79977 6.79124 4.68167 7.18717L5.16237 6.42697L4.98028 7.02301C5.15526 6.82368 5.25322 6.51452 5.39344 6.42462C5.30457 6.70877 5.30457 6.6693 5.48429 6.66109C5.06442 6.776 5.1367 7.30599 4.74132 7.51861L4.42809 7.25166C4.15476 7.44474 4.00071 7.6898 3.87155 7.97669C3.7491 8.26904 3.62389 8.5825 3.34858 8.89675L3.55753 8.71617C3.63219 8.89753 3.29131 9.14923 3.1977 9.40563C3.095 9.313 2.95754 9.42478 2.82088 9.47716C2.91568 9.51663 2.5199 10.0075 2.72529 10.2061L2.38916 10.4433C2.00483 11.0015 2.35953 11.2778 2.08027 11.8406C2.01866 11.6034 1.81484 11.8312 1.88633 11.3919C1.80062 11.5885 1.70148 11.7562 1.78798 11.7972C1.65882 11.8797 1.72715 12.4132 1.52926 12.5442C1.5502 12.6489 1.67383 12.7275 1.57034 12.9413C1.534 12.9553 1.50675 12.9166 1.50675 12.9166C1.56205 12.9389 1.46646 13.2961 1.67659 13.1527C1.3764 13.3872 1.24448 13.8273 1.12558 14.2545C1.06673 14.4683 1.00748 14.6794 0.935595 14.8662C0.878717 15.0573 0.802089 15.2226 0.682012 15.3415C0.633428 15.8066 0.549691 16.3573 0.488467 16.7716C0.450548 16.7384 0.420529 16.7595 0.443833 16.6829C0.250289 17.2418 0.795769 17.0917 0.57971 17.7198C0.320202 18.0285 0.499132 17.3606 0.391695 17.5587C-0.0617528 17.6029 0.343111 18.3541 0.0701736 18.779L0.0452893 18.6692C-0.114681 19.0065 0.20368 19.511 0.163391 20.0625C0.163391 20.0625 0.123497 20.0363 0.0946629 20.0602C0.293737 20.4401 0.460028 21.1421 0.561145 21.6607C0.36997 21.5138 0.446993 21.4293 0.275568 21.5462C0.320992 21.7811 0.55917 21.4524 0.648438 21.9155C0.567465 22.0774 0.501502 22.4295 0.330471 22.4995C0.296897 22.3521 0.293342 22.2013 0.273198 22.052C0.161021 22.1809 0.168921 22.3291 0.218295 22.4713C0.272803 22.6128 0.352986 22.7508 0.352986 22.8708L0.240019 22.8575C0.40236 23.5391 0.674112 23.4957 0.790239 24.2247L0.856597 24.1313C1.2034 24.4608 0.793794 24.4936 1.09636 24.8309L0.863707 25.0197C1.00985 25.2597 1.36969 25.8475 1.57903 26.2735C1.28319 26.0933 1.04422 25.579 0.822628 25.2776C0.896096 25.5348 1.09833 26.1449 1.26699 26.2329C1.2109 26.1391 1.1086 26.03 1.11926 25.9155C1.4005 26.1684 1.67975 26.5155 1.86777 27.0017C1.60115 27.0556 1.6999 27.3878 1.83657 27.7713C1.95506 28.1629 2.19561 28.5619 2.09449 28.8301C2.40811 29.2033 2.59968 29.6297 2.80745 30.0765C3.04326 30.5052 3.2763 30.9657 3.5994 31.4183C3.72106 30.8554 3.789 31.6801 4.09788 31.3749C4.25864 31.5668 4.32855 31.6348 4.31828 31.6723L4.29893 31.6219C4.30722 31.6442 4.31157 31.6571 4.31789 31.6762L4.31907 31.6754L4.61057 32.4274C4.6323 32.6483 4.38148 32.2977 4.32184 32.3751C4.65837 32.8339 4.3329 32.6725 4.48852 33.0379C4.55607 32.88 4.7816 33.0493 4.94553 33.3385L4.80254 32.8578C5.13749 33.0903 5.18054 33.2768 5.24216 33.4554C5.29786 33.6367 5.35789 33.8232 5.72405 34.028L5.44716 33.942C5.62254 34.0604 5.8935 34.3301 6.18658 34.574C6.25965 34.635 6.33431 34.6944 6.40857 34.7495C6.48875 34.7979 6.56893 34.8421 6.64793 34.8792C6.80513 34.9539 6.95602 35.0012 7.08913 34.9992C7.11283 35.0821 7.11244 35.2318 6.95207 35.1407C7.13495 35.306 7.34746 35.4581 7.56983 35.6019C7.79379 35.7438 8.01696 35.89 8.26028 35.9963C8.73347 36.2261 9.16599 36.452 9.42668 36.7506L9.30897 36.7971C9.48119 36.8694 9.67118 36.8171 9.82246 37.0082C9.79007 37.0395 9.70396 37.0621 9.77585 37.1079C9.88092 37.1235 10.296 37.1802 10.4797 37.3471L10.24 37.351C10.6314 37.6375 10.9932 37.7492 11.3416 37.8251C11.703 37.8782 12.0553 37.888 12.4341 38.0088C12.314 38.2792 12.9658 38.692 13.3157 38.844L13.2885 38.8804C13.8213 39.0668 14.3005 39.1489 14.7669 39.2063C15.2354 39.2618 15.7094 39.227 16.2213 39.2818C16.3607 39.3955 16.5633 39.4885 16.8031 39.5706C17.0437 39.648 17.3276 39.6793 17.6211 39.725C18.2112 39.8004 18.8476 39.9001 19.3662 39.9759C19.2094 39.9181 19.4021 39.7391 19.585 39.7109C19.8264 39.7766 20.251 39.5096 20.2134 39.7887L20.1273 39.782C20.3098 40.0529 20.8154 40.0119 21.2049 39.9685L21.2487 39.598C21.5074 39.7105 21.8056 39.7406 22.1122 39.7293C22.4179 39.7105 22.737 39.6836 23.0297 39.5878C23.6202 39.4244 24.1416 39.2653 24.4675 39.4479C24.6918 39.3248 24.9837 39.2388 25.1931 39.0824L25.2306 39.2755C25.5651 39.2059 25.8175 39.1532 26.0857 39.0828C26.2192 39.0476 26.3575 39.0082 26.5119 38.9601C26.5886 38.9347 26.6699 38.9085 26.7568 38.88C26.8406 38.8421 26.9294 38.8014 27.0258 38.7576L26.9129 38.9534C27.3663 38.7873 27.2731 38.2015 27.6657 38.0322L27.8995 38.2542C28.6733 37.9802 29.5194 37.7696 30.1202 37.1704C30.13 37.2138 30.151 37.299 30.0372 37.3713C30.403 37.2306 31.4355 36.7514 31.0974 36.497C31.2471 36.7076 31.8313 36.0569 32.116 35.709L32.1788 35.9072C32.3218 35.4745 32.2875 35.4147 32.6453 35.0371C32.7559 34.9797 32.8278 35.0891 32.6694 35.1536C33.0526 34.9738 32.7982 34.8132 33.2485 34.581L33.1869 34.7905C33.5214 34.5326 33.4618 34.515 33.5254 34.2453C33.6581 34.0053 34.121 33.7258 34.2916 33.804C34.2565 33.6883 34.3161 33.4284 34.5275 33.2908C34.5993 33.3127 34.5654 33.4042 34.5476 33.4495C34.6965 33.3487 34.8079 33.2424 34.8972 33.1368C34.9817 33.0266 35.0378 32.9109 35.0947 32.8066C35.2064 32.5947 35.3044 32.4118 35.5327 32.2867C35.5888 32.3196 35.6338 32.3157 35.6749 32.2969C35.3135 32.7245 35.0172 33.0637 35.0334 33.0215C35.1665 33.1415 35.4845 32.8093 35.4367 33.2521C35.575 32.8761 35.7448 32.2129 36.0924 31.9252C36.1197 31.9193 36.1465 31.9135 36.1789 31.9178L36.1655 31.9651C36.2445 31.8963 36.2919 31.8169 36.3203 31.7306C36.4234 31.6313 36.4917 31.5695 36.5707 31.4581C36.7212 31.5003 36.9314 31.0696 37.0649 30.8851C36.8907 30.7929 37.0822 30.5662 36.7915 30.7069C36.8231 30.685 36.7872 30.7546 36.7102 30.8832C36.6959 30.9145 36.6762 30.9489 36.673 30.9739C36.6715 30.9672 36.6699 30.9594 36.6675 30.9516C36.5873 31.0759 36.483 31.2381 36.3638 31.4218C36.3831 31.2166 36.4167 31.018 36.6462 30.8734C36.6059 30.7081 36.568 30.5338 36.5561 30.4427C36.7556 30.3919 36.9705 30.2629 37.1597 30.1476C37.3528 30.035 37.4887 29.9166 37.5863 29.9248C37.7047 29.5934 37.8841 29.2272 38.018 28.8758C38.0843 28.6999 38.1416 28.5291 38.1693 28.3669C38.1862 28.2 38.1799 28.0448 38.1377 27.9088C38.1696 27.7126 38.3213 27.7478 38.4031 27.7036C38.3932 27.8217 38.3355 27.9424 38.36 28.0198C38.4268 27.6239 38.7795 26.9419 38.5745 26.7668C38.868 26.3572 38.7025 27.1072 38.8988 26.465L38.9454 26.578C39.342 26.0128 39.3519 25.4363 39.3724 24.8719C39.359 24.2927 39.3321 23.7201 39.7476 23.0533C39.6947 23.1471 39.6694 23.1936 39.6224 23.2065C39.7014 23.0099 39.7488 22.8051 39.7788 22.5968C39.8132 22.3893 39.8405 22.179 39.8626 21.9675C39.8958 21.5438 39.9586 21.119 39.9266 20.6906C39.9143 20.2638 39.9064 19.839 39.9258 19.4176C39.9432 19.207 39.942 18.9979 39.9447 18.7888C39.9507 18.58 39.9665 18.3713 39.9953 18.1622C40.0304 17.6877 39.8622 17.6522 39.7141 17.3856" fill="#FFBB00" fill-opacity="0.1"/>
</svg>
