<svg xmlns="http://www.w3.org/2000/svg" width="40" height="40" fill="none" viewBox="0 0 40 40">
    <path fill="#123399" fill-opacity=".1" fill-rule="evenodd" d="M35.257 7.873c.003.013 0 .02 0 .03l-.06-.076c.02.016.039.028.06.046zm1.387 23.246c-.005-.01-.007-.024-.012-.033.026.038.05.076.055.12-.072.163-.14.186-.193.18.044-.071.091-.155.15-.267zm3.07-13.733l.2-.127c-.1-.152-.217-.299-.324-.445-.151-.322-.077-.633-.029-.972.024-.17.042-.345.023-.527-.03-.18-.109-.364-.25-.553l-.106.144c-.062-.308-.359-.925-.188-.923-.033-.023-.17-.054-.133-.194l.102-.043c-.068-.113-.13-.228-.202-.338l-.233-.323c-.15-.58.447-.064.134-.89-.165-.291-.647-.733-.667-.588.044.123.062.336-.036.389l-.162-.247-.06.013c-.006-.014-.011-.028-.018-.041-.494-1.055-1.076-2.04-1.727-2.96l.05-.002-.082-.044c-.09-.127-.178-.255-.27-.38.04-.013.094 0 .158.063-.076-.349-.261-.164-.308-.478 0-.04.02-.037.047-.021l-.27-.193c.087.01.126-.168.218.01-.238-.551-.757-.575-.727-.884l.044.025c-.448-.385-.35-.162-.503-.117-.088-.094-.178-.186-.267-.278l.062-.424-.207.094c-.053-.063-.157-.188-.076-.228-.318-.111-.028.103-.25.076-.073-.205-.275-.387-.453-.537-.184-.144-.326-.277-.25-.433-.215.033.21.332-.189.151.143-.353-.416-.258-.589-.613.202-.078.409.218.23-.143-.184.055-.309-.07-.425-.227-.117-.155-.243-.324-.387-.387-.158.197-.616-.283-1.09-.497.087-.077-.767-.597-1.152-.903l.032-.03c-.206.19-.604-.113-.963-.196.077-.13.165-.165.373-.143-.102-.051-.21-.09-.315-.135-.108.043-.224.04-.44-.017l.157-.141c-.43-.16-.923-.164-1.43-.47-.058.107.082.343-.008.464-.097-.035-.194-.065-.292-.098.03-.05.08-.087.16-.082-.054-.003-.204.02-.29-.05l.285-.08c-.229-.145-.176.087-.37.01.046-.128-.119-.138-.056-.232.056.003.158.108.253.081-.22-.094-.472-.257-.534-.385-.003.081-.054.177-.226.142-.435-.124-.102-.204-.338-.35-.128.05-.388-.103-.447.094-.129-.028-.13-.126-.167-.19-.253.04-1.085-.2-.867.067l.056.026-.04.002c-.196.01-.389-.011-.58-.051-.193-.035-.388-.066-.581-.112-.387-.086-.777-.188-1.158-.186l.007-.068c-.457.03-1.015.02-1.338.152-.133-.002-.316-.13-.259-.21-.348.055-.383.1-.888.037.343-.148-.126-.096.354-.116C18.989.1 18.874 0 18.403.227c.152-.188-.363-.191-.575-.122l.333.099c-.24.046-.453.047-.67.051l.087-.239c-.485-.076-.888.134-1.257.293-.37.174-.713.279-1.11.166-.198.224.516-.03.348.214-.414.086-.934-.11-1.067-.072-.608.05-.436.458-1.04.578.101.048.24.229-.15.468-.4.127-.61-.128-.383-.29.093-.044.149-.038.154-.01.117-.08.275-.18.085-.201l-.022.098c-.228 0-.776.228-.699.052-.273.194-.076.176.163.127-.555.105-.815.289-1.346.495.101-.001.217.048.137.088-.783.292-.254.308-.73.597-.343.037-.045-.315-.495.038-.35.087-.176-.154-.085-.277-.096.095-.202.164-.309.219-.102.063-.208.11-.312.148-.207.076-.405.118-.539.189l.196-.208C9 2.852 8.886 2.925 8.77 3l.224.05c-.151.065-.267.14-.302.081-.078.18.26.158.07.459-.223.052-.492.418-.672.3.594-.327-.198-.14.258-.487-.077.083-.191.154-.343.223-.034-.005-.01-.052.021-.085-.633.246-.085.383-.608.796-.012-.149-.27-.082-.339.008.213-.17.231.077.102.303-.395.196-.313.346-.493.477L6.915 5c.014.144-.162.264-.338.504-.084-.052.144-.236.04-.193-.08.385-.683.359-.906.786-.212.092-.184-.146-.359-.052-.257.467-.508.303-.765.806.229-.015.213-.06.095.336l.48-.76-.182.596c.175-.2.273-.508.413-.598-.088.284-.088.244.091.236-.42.115-.347.645-.743.858l-.313-.267c-.273.193-.427.438-.556.725-.123.292-.248.605-.523.92l.209-.18c.074.18-.267.432-.36.689-.103-.093-.24.019-.377.071.095.04-.301.53-.096.73l-.336.236c-.384.559-.03.835-.309 1.398-.061-.238-.265-.01-.194-.45-.085.197-.185.365-.098.406-.13.083-.06.616-.259.747.021.105.145.183.041.397-.036.014-.063-.024-.063-.024.055.022-.04.38.17.236-.3.234-.433.674-.551 1.101-.06.214-.119.425-.19.612-.057.191-.134.357-.254.476-.049.465-.132 1.015-.194 1.43-.037-.034-.067-.012-.044-.09-.194.56.352.41.136 1.038-.26.309-.08-.36-.188-.161-.454.044-.049.795-.322 1.22l-.025-.11c-.16.337.159.842.118 1.393 0 0-.04-.026-.068-.002.199.38.365 1.082.466 1.6-.191-.146-.114-.23-.285-.114.045.235.283-.094.372.37-.08.161-.146.514-.318.584-.033-.148-.037-.299-.057-.448-.112.129-.104.277-.055.42.055.14.135.279.135.399l-.113-.013c.162.681.434.638.55 1.367l.067-.094c.346.33-.063.363.24.7l-.233.189c.146.24.506.828.715 1.253-.296-.18-.535-.694-.756-.995.073.257.275.867.444.955-.056-.094-.158-.203-.148-.317.282.252.56.6.749 1.086-.267.054-.168.386-.031.77.118.39.359.79.257 1.058.314.373.506.8.713 1.247.236.428.47.889.792 1.341.122-.563.19.262.499-.043.16.192.23.26.22.297l-.02-.05c.01.022.014.035.02.054h.001l.292.751c.021.221-.23-.13-.29-.052.337.459.012.297.168.663.067-.158.293.011.457.3l-.143-.48c.334.232.378.419.44.597.055.182.115.368.481.573l-.277-.086c.176.118.447.388.74.632.073.061.147.12.222.175.08.049.16.093.239.13.157.075.308.122.441.12.024.083.023.233-.137.142.183.165.395.317.618.46.224.143.447.289.69.395.473.23.906.456 1.167.755l-.118.046c.172.072.362.02.513.211-.032.031-.118.054-.046.1.105.016.52.072.704.24l-.24.003c.391.287.753.398 1.102.474.361.053.713.063 1.092.184-.12.27.532.683.882.835l-.027.036c.532.187 1.011.269 1.478.326.468.056.942.021 1.454.076.14.114.342.207.582.289.24.077.525.108.818.154.59.075 1.227.175 1.745.25-.157-.057.036-.236.219-.264.241.066.666-.201.628.078l-.086-.007c.183.27.688.23 1.078.187l.044-.371c.258.113.557.143.863.131.306-.018.625-.045.918-.141.59-.164 1.112-.323 1.438-.14.224-.123.516-.21.725-.366l.038.194c.334-.07.586-.123.855-.193.133-.035.272-.075.426-.123l.245-.08.269-.122-.113.195c.453-.166.36-.752.753-.92l.233.221c.774-.274 1.62-.484 2.221-1.084.01.044.031.129-.083.201.366-.14 1.399-.62 1.06-.874.15.21.734-.44 1.019-.788l.063.198c.143-.432.108-.492.466-.87.11-.057.183.052.024.117.384-.18.13-.34.58-.573l-.062.21c.334-.258.275-.276.338-.546.133-.24.596-.52.767-.441-.035-.116.024-.376.236-.513.071.022.037.113.02.159.148-.101.26-.208.35-.313.084-.11.14-.226.197-.33.111-.212.21-.395.438-.52.056.033.1.029.142.01-.361.428-.658.767-.642.725.133.12.451-.213.404.23.138-.376.308-1.04.655-1.327.028-.006.055-.012.087-.007l-.014.047c.08-.069.127-.148.155-.235.103-.099.172-.16.25-.272.151.042.361-.388.495-.573-.174-.092.017-.319-.273-.178.031-.022-.005.048-.082.176-.014.032-.034.066-.037.09l-.006-.021-.303.47c.02-.205.053-.404.282-.549-.04-.165-.078-.34-.09-.43.2-.051.415-.18.604-.295.193-.113.329-.231.426-.223.119-.332.298-.698.432-1.05.066-.175.124-.346.151-.508.017-.167.01-.322-.031-.458.032-.196.183-.161.265-.205-.01.118-.067.238-.043.316.067-.396.42-1.078.215-1.253.293-.41.127.34.324-.302l.046.113c.397-.565.407-1.142.427-1.706-.013-.58-.04-1.152.376-1.819-.053.094-.079.14-.126.153.08-.196.127-.4.157-.61.034-.207.061-.417.084-.628.033-.424.096-.849.064-1.277-.013-.427-.02-.852-.001-1.273.017-.211.016-.42.019-.63.006-.208.021-.417.05-.626.035-.474-.133-.51-.28-.776z" clip-rule="evenodd"/>
    <path fill="#123399" d="M9.71 24.762c-.096 0-.096.095 0 0zM8.946 24.376s.095-.095 0 0c0-.095 0 0 0 0z"/>
    <path fill="#123399" d="M16.302 19.791c-.286 0-.668.096-.955.096 0 .095-.096.095-.191.19v-.095h-.096s.096 0 0-.095v.095s-.19 0-.095-.095h-.287c-.096 0 0 .095-.096.095v-.095c-.19 0-.19.286-.382.286 0 0-.095 0-.095.096.095.095 0-.096.095 0 0 .095-.095.095 0 .19-.095 0-.095 0-.095.096h-.191s0 .191-.096.191c-.095-.095 0-.095-.095-.095v.095h-.096c-.095 0 0 .096-.095.096v-.096s-.096 0-.191.096c.095-.382.095-.287.095-.287s.096 0 .096.096l-.096.095v-.095c-.095.095 0 .095-.095.095 0 .096-.096.096-.192.096v.096c.096 0 .096 0 .096.095-.096-.096 0 .096-.191.096v-.096-.287s-.096.096-.096 0v.096h-.095c0 .096.095.096.095.096 0 .095-.095-.096-.095 0-.096.095 0 .095-.096.095-.095 0-.095.096-.19 0v-.096c0-.095 0 0-.096-.095 0 .096-.096.096-.096.096v.095c0 .287-.095-.096-.191-.096-.096.096 0 0 0 .096h-.191s-.096 0-.096-.096c0 .096-.19 0-.095.096.095 0 0-.096.191-.096v.096c-.096 0-.096.096-.191.096.095.286.191.382.095.382v-.096c-.095 0-.095 0-.19.096 0-.096.095 0 0-.096l-.096.096c0 .095-.096 0-.096.095-.095.096-.095.191-.095.287 0 0-.096 0-.096-.096.096 0 0 0 0 0s-.19 0-.19-.095c-.096.095.095 0 0 .095l-.096.096s.095 0 .095.095c0 0-.095 0-.095.096 0 0-.096-.096 0-.096 0 0-.096 0-.096.096.096 0-.095.096 0 .096h-.095c-.096-.096 0 .095 0 .095h-.096s-.096.096-.096 0v.096l-.095.095-.096-.095c0 .095.096.095 0 .095 0-.095-.095 0-.095-.095-.096 0-.096 0-.191.095 0 .096.095 0 .095 0-.095.096 0 .287-.095.287v.095c0-.095-.191-.095-.287 0 0 0 .096 0 .096.096v.095c0 .096-.191 0-.096.096h-.095.095v.095c0 .096-.095.096-.095.096s.095 0 .095.096c-.095-.096-.095.095-.191 0 0 0-.096 0 0 .095l-.096-.095c.096.095 0 .19 0 .19-.095-.095 0 .096-.19 0 .095.096 0 .096 0 .192h-.192c-.095 0-.095.095-.19.095l.095.096H9.04s0 .095.096.095c.095.096 0 .096 0 .096H9.04s.096.19.191.19v.096h-.095l.095.096s-.095 0-.095.095c0 0-.096-.19-.191-.095v-.096.096c-.096-.096-.096 0-.191 0h.191v.095c.19 0 0 .192.095.192v.095c0-.095-.095 0-.19 0h.095-.191.095s0 .096-.095 0c0-.095-.096-.095-.096-.095s-.095.19 0 .095h.096v.096h-.096-.095v.095h-.096l-.096.096c0 .095 0 0 .096.095-.191 0-.191.191-.191.287.095 0 0 0 .095.096 0 0-.095.095-.095 0v.095c-.096 0 0-.095-.096-.095 0 .095.096.19 0 .19-.095-.095 0 .096-.095 0v-.095c-.096.096.095.096.095.191 0 .096-.095 0-.095 0v.096c0-.096.095-.096.095 0-.095 0-.095.095 0 .19.191-.095 0-.095.191-.19L8.277 26c0 .096.095 0 .095 0-.095 0 0-.095 0-.095.096 0 .096.095.192 0l-.096-.096h.096c.095.096.095 0 .095.096.096-.096 0-.191 0-.287v-.096c.096 0 0 .096.096.096v-.096s0-.095 0 0l.095.096v-.096h.096v-.095h.095s-.095-.191.096-.096v-.286c0 .095.095 0 .095.095.096 0 0-.095 0-.095.096 0 .096 0 .096.095v-.191h.095-.095.095v-.095c0 .095 0 0 .096 0v-.096h-.096c0-.096.096 0 .096 0h-.096c.096 0 0-.191.096-.191 0 0 .095.095 0 .095 0-.095.095-.095.095-.19h.192v-.096c.095 0 .095-.096.095-.096v-.095h-.095c.19 0 0-.191.19-.191l.096.095.096-.095h-.096v-.096c0 .096 0 0 .096 0v-.095c0-.096.095 0 .095 0s-.095-.096 0-.096c0-.095.096-.095.096-.095s.095 0 .095.095c0-.095 0 0 .096-.095v-.096h.095s0-.095.096-.095c.096-.096.096 0 .191-.096 0-.096.096 0 .096-.096v-.095.095-.095h.095c.096.095.096 0 .191 0l-.095-.096c0-.19.286-.095.382-.286v.095-.095c.095 0 0 .095 0 .095v-.19c.095 0 0 .095 0 .095 0-.096.095-.191.19-.191 0-.096.096-.096.192-.096v.096h.095v.095s.096-.095.096 0v-.095c.096.095.096-.096.191-.096v.096s0-.096.096-.096l.095-.095c.096.095.096-.096.096 0 .095 0-.096 0 0-.096h.095v-.095h.096c.095-.096.19.095.286 0h.096v.095l.096-.095c.095 0 .19-.096.286-.096.096-.096.096 0 .191-.096h.096c0-.095.19.096.095 0l.096-.095c.095 0 0 0 .095.095.096 0 0-.095.096-.095l.096-.096c.095-.095.095.096.095-.095 0 0 .095 0 .095.095.096-.095.192-.095.192-.095 0 .095 0 0 .095.095v-.095c.096 0 .287.095.382.095v.096-.096h.478s.096-.095.191-.095c.096 0 .191-.096.382 0v.095c0-.095.096 0 .096 0 0-.095.095 0 .095 0l.383-.19v.095s.095 0 .095-.096c0 0 .096.096 0 .096h.191c0-.096.096-.096.096-.096v.096-.096s.095-.095.095 0c.096 0 .096.096.096.096.095 0 .095 0 .095-.096.096 0 0 .096 0 .096s.096 0 .096.095c.095-.19.095.096.19 0v.096s0-.096.096-.096v.096l.096-.096c.191.191.478.191.669.383.095 0 .286 0 .382.095l.095.096-.095-.096h.095c.096.096.192.191.383.287.19-.096 0 .19.095.095h.287c-.096.096.095 0 0 .096v.095h.095v.096c.096 0 .191.095.191.19.191 0 .383.192.478.288h.096v.095h.19l.096.096v.095c.096-.095.096.096.096.096s.382.477.86 1.05c.382.574.764 1.243 1.242 1.434h.19s-.095.095 0 .095c0-.095.192 0 .192-.095 0 0-.096 0 0-.096h-.096s0-.095.096-.095c-.096 0-.191 0-.191-.096 0-.095.095-.095.095-.095v-.096c0 .096.096.096.096.096 0-.096 0 0-.096 0l.096-.096v-.095h.095l-.19.095c.095-.095-.096-.095 0-.095h.095s0-.096-.096-.096c0 0 .096 0 0 0h-.095v-.096c0-.095-.096 0-.096-.095 0 0 0 .095.096 0l-.096-.096h.096c0-.286.095-.477-.096-.669 0-.095.096 0 .096 0-.191-.095 0-.286-.096-.382 0-.286-.19-.477-.286-.668-.096 0-.096 0-.096-.096 0 0 .096 0 0-.095v.095c0-.287-.382-.573-.573-.86-.382-.286-.669-.764-1.051-.955.095 0 0 .095-.096.095 0-.286-.19-.095-.286-.286-.287-.096-.383-.382-.67-.382v-.096h-.095c-.095-.096-.19-.096-.286-.096v.096c-.096 0 0-.096-.096-.096h-.095c.095-.095-.096-.095-.191-.19-.096 0-.191 0-.287-.096 0-.096-.096-.096-.191-.191-.191-.096-.382-.096-.573-.191v.095h-.096c0-.095-.095 0-.19-.095 0 .095 0 0 .095 0 0 .095 0 .095-.096.095h-.096v-.19c-.19 0-.286.095-.477 0 0-.096-.096 0-.096-.096-.095 0 0 .095-.095.19h-.096v-.095h-.095c.19-.095.095-.286 0-.19 0 0 .095 0 0 .095-.191.095-.096-.096-.287 0v-.096s-.096.096-.096 0c0-.095.096-.095.096-.095s-.191 0-.096.095c-.095 0-.095 0-.095-.095 0 0 .095.095 0 .095-.096 0-.191 0-.287-.095v-.096c-.095.096-.095 0-.19 0zM16.493 11.193s-.095 0-.095.096l.095-.096zM14.105 12.818c0 .096-.096.096 0 0 0 .096 0 .096 0 0zM12.767 13.766c0 .095.096.095 0 0 .096 0 .096 0 0 0z"/>
    <path fill="#123399" d="M16.302 19.791c-.286 0-.668.096-.955 0h-.191v-.095h-.096s.096 0 0-.096v.096s-.19-.096 0-.096c-.095-.095-.19-.095-.286-.095-.096 0-.096.095-.096 0l.096-.096c-.287-.191-.382.096-.574 0h-.095c-.096.096.095 0 .095.096-.095 0-.095-.096-.19 0 0-.096-.096 0-.096-.096 0-.095-.096-.095-.096-.191-.095 0-.19.096-.19 0s.095-.096 0-.096h-.096v-.095c0-.096-.096 0-.096-.096h.096c-.096 0-.096-.095-.096-.095h.096c0-.096-.096 0-.096-.096v.096s-.095 0-.095-.096h.095c-.095 0-.095 0-.095-.095-.287.095-.287 0-.287-.096h-.096c0 .096 0 .096-.095.096 0-.096-.191 0-.191-.191h.095c.096 0 .191-.096.287 0-.096 0-.096-.096 0-.096h-.096v-.095c-.095 0-.095.095-.095.095-.096-.095.095-.095 0-.095-.096-.096-.096 0-.096-.096s-.095-.191 0-.191h.096c.095 0 0 0 .095-.096-.095 0-.095-.095-.095-.095h-.096c-.286 0 .096-.096 0-.191-.095-.096 0 0-.095 0v-.191s0-.096.095-.096c-.095 0 0-.19-.095-.19 0 .095.095.095 0 .19h-.096c0-.095-.095-.19-.095-.19-.096.095-.191.095-.191 0 .095 0 .095 0 .095.095v-.192c.096 0 0 .096.096.096v-.096c-.096 0 0-.095 0-.19 0-.192-.191-.192-.287-.287h.096v.095c0-.095.095-.095.095-.095 0-.096-.095 0-.095 0v-.287c-.096 0-.096.096-.096 0v-.19h.096v-.096c-.096.19-.096-.096-.191 0v-.096.096c.095 0 0-.096 0-.096 0-.096.095-.096.095-.096s0-.095.096-.095h-.096v-.096h.191c0-.095-.095 0-.095-.095.095.095.095-.096.19 0 .096 0 .096-.096.096-.191-.095-.096-.095.095-.095 0 0-.191-.191-.287-.096-.382v-.191c.096.095.287 0 .287-.096h-.191v-.095c0-.096.19-.096.095-.192h.191-.095v-.19c0-.096.095-.096.095-.096s-.095 0-.095-.096c.095.096.095-.095.19 0 0 0 .096 0 0-.095l.096.095c-.095-.095 0-.19 0-.286.096.095 0-.096.191 0-.095-.096 0-.191 0-.191 0-.096.096 0 .192 0v-.096c.095 0 .19-.096.19-.096V13.2h.096v-.096c-.095-.095 0-.095 0-.095h.096s0-.191-.096-.191v-.096l.096.096v-.096h.095s0 .191.096.096c0 .095 0 .095-.096.19.191 0 .096 0 .191-.095 0 .096 0 .096.096.096l-.096-.096v-.095c-.095-.096.096-.191 0-.191 0 0 .096-.096.096 0 0 .095.095.095.095.095s-.095 0-.095-.095h.191s-.096 0 0-.096h.096c0 .096.095.096 0 .191 0 0 .19-.095.095-.19h.096s-.191 0-.096-.096v-.096h.096v-.096l.095.096c.096 0 .096-.096.096-.096h.095c.096 0 .191-.095.191 0 .096-.095 0 0 0-.095.096.095.287 0 .382-.095-.095-.096 0 0 0-.096 0 0 .191.095 0 .095h.096c.095.096-.096.096 0 .191.095 0 .095-.19.191-.095 0 .095.096 0 .096.095h-.096c.191 0 0-.095.096-.19.095 0 .095.095.095.095h.096c.095.095 0 0 0-.095.095.095.19 0 .19 0-.095-.096-.095 0-.286-.192 0 .096 0 .191-.095.096.095 0 0 0 0 0h-.096s0-.096-.095-.096v.096s0-.096-.096-.096c0-.095 0-.095.095-.095-.095-.096-.095.095-.19.19 0 0-.096 0-.096.097-.096 0 0-.096 0-.096h-.191v-.096s-.096 0 0-.095l-.287.095v-.095c-.095 0-.19.19-.19.095-.096.096-.192.096-.287.191.095-.095-.192 0-.096-.095-.096 0-.096.095-.096.095-.095 0-.095-.095-.095-.095v.095c-.191 0-.096-.095-.191 0v.096h-.096v.095h-.095c0-.095-.096 0-.096 0-.095 0-.095 0-.095.096-.096.096-.096-.096-.096 0-.191 0-.191.191-.287.191v-.095c0 .095-.095.19-.19.286-.096 0-.096-.095-.192 0v.191c-.095 0-.19.096-.19.096s-.096 0-.096.095h.095c-.19 0-.095.191-.286.287v.096l-.096-.096s-.096.096-.096.191h.096c-.096 0-.096.096-.096.096 0-.096-.095.095-.095.095v-.095.095c0 .096-.095 0-.095.096v-.096s.095.096 0 .096c0 0-.096 0 0 0 0 .095-.096.19-.096.19h-.096c0 .192-.095.096-.095.287v.096h-.096.096v.191c0 .191-.191.191-.096.287 0 .19-.095.095-.095.286h-.096v.096h-.095l.095.095h-.095c-.096-.095 0 0-.191.096h.095c.191.286-.095.573 0 .86h-.095l.095.095c-.095.096-.095 0-.095 0 0 .191.095.096.095.191 0 .096 0 0-.095 0 .095.096.095.287.095.382 0 .096 0 .192.096.287h-.096v.096c0 .095.096.19 0 .286h.096c0 .096.19.191.095.287l-.095-.096c0 .096.095.096.095.096.096.096.096.191.191.191-.095.096.096.191 0 .191 0 .096 0-.095.096 0 0 .096.095.096 0 .096v.095h-.096c0 .096.096.096.191 0 0 .096.096.096 0 .191.096.191 0 .382.192.382l.095.096h-.095l.19.382c.096.096.192.287.383.382.19.096.095.191.19.191l.096.096c.096 0 .096.287.096.191h.19c.096 0 0 0 0 .095.096.096.096 0 .192.096.096 0 .096 0 .191.096.191 0 .096.19.287.095 0 .096.19.096.095.096.191 0 .287.095.478.095 0 .096 0 0 .096.096v-.096c.19.191.382.478.668.478v.096l.096-.096c.286.096.669.191.86.191.095 0 .19-.096.286-.096.191-.095.478-.095.67-.095v.096c0-.096.095 0 .19 0h-.095c.095-.096.19 0 .19 0l.096-.096h.096s.19-.096.19-.191c0 0 .096 0 0 .095.096 0 .288-.095.383-.095h-.095c0-.096.095-.096.095-.096-.095.096 0 .096.096.096 0-.096-.096 0 0-.096 0-.095.19-.095.19-.095.096-.096.192 0 .192 0 .095-.096.095-.096.095-.191.096-.096.096 0 .096 0 0-.096.19-.096.19-.096 0-.19.288-.095.192-.19h.096v-.192c.095 0 .095.095.095.095v-.095c.382-.096.764-.573 1.051-.86l.287-.573.19-.191-.095.095v-.095c.191-.191.382-.478.382-.764-.095-.192.191-.096.096-.287v-.478c.095.096 0-.095.095-.095h-.095l.095-.096-.095-.096h.095c0-.095 0-.382.096-.477.287-.287.287-.764.191-1.147-.096 0-.096-.19-.096-.19l.096-.096c0-.096-.191-.191-.096-.191 0-.096 0-.191-.095-.191 0-.096 0-.191.095-.191-.095 0-.095-.192-.095-.192s-.096-.286-.287-.764c-.19-.478-.669-.955-1.146-1.433-.573-.478-1.242-.764-1.911-.955-.669-.287-1.242-.191-1.529 0 0 .095-.19.095-.095.19-.096 0-.096-.095-.096 0 .096 0 0 .192.096.192h-.096.096v-.096c.095 0 .095 0 .095.096.096 0 .096-.191.192-.096.095 0 .095.096.095.096l.095.095h-.095.095c.096 0 0 .096 0 .096h.096c0 .095-.096 0 0 0h.096c0 .095.095 0 .19.095-.095 0 0 0 0 .096h.192s-.096 0 0 0h.095s.191 0 .096.095c.095.096.095-.095.19 0 0 .096-.095 0-.095.096h.096s-.096.095-.096 0c.287.191.383.478.67.573 0 .096 0 0-.096 0 .19 0 .19.287.286.382.096.287.382.383.478.67v-.096c.096 0 .096 0 .191.095 0 0-.095.096 0 .096v-.096c.096.287.382.669.478 1.051.286.478.286.955.286 1.529 0-.096.096 0 .096 0-.191.19 0 .286-.096.382 0 .286-.19.478-.095.764h-.096v.096c-.095.095 0 .19-.095.286h.095c0 .096-.095 0-.095.096v.096c-.096-.096-.096.095-.191.19 0 .096 0 .192-.096.287-.095 0-.191.096-.191.096-.382 0-.478.19-.669.382l.096.095c-.096 0-.096.096-.191.096h.095c.096 0 .096.096 0 .096v.095s-.095 0-.095-.095c-.096.095-.191.286-.382.382 0-.096-.096.095-.096 0-.287-.096-.191-.096-.191 0 0 0-.096.095-.096 0 0 0-.095-.096 0-.096h-.095c-.096.096-.287 0-.382.096h.095c-.095.095-.19 0-.286.095v-.095c0 .095 0 .095-.096.095 0-.095.096-.095.096-.095s-.192 0-.096.095h-.096s.096 0 0 .096h-.286v-.096c-.191.096-.191-.095-.287 0z"/>
    <path fill="#123399" d="M13.627 19.027c-.095-.096-.095 0 0 0zM27.48 24.473c-.095.095-.095.095 0 0zM27.098 21.895c-.095 0-.286 0-.477-.096-.096.096-.096.096-.191.096v-.096h-.096v-.095.095s-.096-.095 0-.095l-.096-.096-.095.096v-.096c-.096-.095-.191.191-.287.096h-.095c0 .095 0-.096 0 0 0 .095-.096 0-.096.095h-.095c0-.095-.096 0-.096-.095l-.095.095v-.095 0s0 .095-.096 0v-.096h-.096c0-.095 0 0-.095 0v.096s-.096.095-.096 0v-.096c-.095 0 0 .096-.095 0 0 .096-.096 0-.096 0s0 .096-.095.096v.095c0-.095-.096.096-.096 0 0 0 0-.095 0 0 0-.095.096-.19.096-.19s-.096 0 0 0v.19-.095c-.096 0 0 .095-.096.095 0 0-.095 0-.095-.095 0 0 0-.096 0 0 .095-.096 0 0 0-.096 0 .096 0 0-.096 0v.096c-.095.19 0-.096 0-.096v.096s0-.096-.095-.096v-.191s-.096-.096-.096 0 .096-.096.096 0v.096h-.096v.095c-.095 0-.095.096-.095.096v-.096c0-.095 0 0-.096 0v-.095h-.096c0 .095 0 0-.095 0 .669 0 .669.19.669.19v-.095-.191.096h-.096v.095h-.095v-.095c0 .095-.096 0 0 .095v-.095c0-.096 0 0 0 0v-.096.096h-.096v-.192-.095c0-.096-.095-.096-.095 0v.096c-.096 0-.096.19-.096.19l-.096.096c0-.095 0-.191-.095-.191v.191s-.096-.095-.096 0v-.095.191c0 .095-.095 0-.095 0v.095c0-.095-.096-.095-.096-.095v-.096c0 .096 0 .096-.095.096 0-.191 0 0-.096-.096 0 .096-.095.096-.095.191v-.095c0-.096-.096-.096-.096-.096V21.8v-.095.382-.096.096l-.095-.096V21.704v-.096.096c0-.096 0-.096-.096-.096V21.895c.096.095 0 .095 0 .19v-.19.095l-.095-.095V21.8s-.096 0 0 .095c0 0 .095.095 0 .095v0h-.096v.096c-.096-.096-.096 0-.191 0v.095s-.096-.095 0-.095v-.191s0 .19-.096.095v-.095c-.095 0 0 .095 0 .19l-.095-.095c0-.095.095 0 .095.096-.095-.096-.095 0-.095.095l.095.096v-.096 0s0 .096.096.096v-.096.191c.095.096.095-.095.095-.095v.191-.096s.096.096 0 .096h.096v.096s.096-.192.096 0c0-.096.095-.096.095-.096 0 .096.096.096 0 .096v-.096.191-.095.095-.191.096-.096.096-.096c.096.096.096-.096.096 0v.096s.095 0 .095-.096c0 .096 0 .096.096.191v-.095h.095c0-.096 0 0 0 0v-.096c.096.096.096-.096.096 0v.096h.095s0-.096 0 0v.095-.095h.096v.095c0-.095 0 0 .095 0v.191s.096.096.096 0c0-.095 0 .096.095 0v.191-.095.095c0 .096 0 0 .096.096v-.096c.096-.19.096.096.191 0v.096-.096.096s0-.096.096-.096v.096s.095-.096.095 0h.096v.095h.095v-.095c0 .095.096 0 .096 0h.191c0 .095.095 0 0 .095v-.095.191l.095-.096v.096c.096 0 0 .19.096.095l.096-.095h.191c0-.096 0 .095 0 0l.095-.096v.096h.191c.096-.096 0 .095.096 0v.095h.095v.096-.096c.096 0 .096.191.096.191v.096-.096c.095.096.095.096.19.096 0 0 .096-.096.096 0 .096 0 .096 0 .192.095v.096c0-.096 0 0 0 0v.096h.095v.095s.096 0 .096-.095v.095l.095.096c0-.096.096-.096.096 0l-.096.095v-.095h.096v.095l.095-.095v.095s.096 0 0 .096c.096-.096 0 .095.096 0v.095l.095-.095s0 .095-.095.095l.095-.095c0 .19.191.19.191.286.096 0 .096 0 .191.096v.096-.096h.096c0 .096 0 .191.096.191.095-.096-.096.095 0 .095h.19c-.095.096 0 0 0 .096v.096h.096s.096 0 0 .095c.096 0 .191.096.191.191h.096v.096h.191s0 .095-.096.095c.096-.095 0 .096 0 .096s.287 1.05.956 1.146h.19s-.095.096 0 0c0 0 .192 0 .192-.095 0 0-.096 0 0 0l-.382-.573.095-.096h-.095s.095 0 .095-.095H29.678h-.096c.096-.096-.095 0 0-.096h.096v-.096l.095-.095c0-.096-.095 0-.095 0h.191c0-.096.191-.287.096-.382h.095c-.095 0 .096-.191 0-.191.096-.192-.095-.192-.095-.383h-.096s.096 0 .096-.095c.095-.191-.096-.287-.096-.478-.191-.19-.287-.382-.382-.573l-.096.095c.096-.19-.095-.095 0-.19-.095-.096-.095-.287-.286-.287 0-.096-.096 0-.096-.096l-.095.096s0-.096 0 0h-.096c.096-.096-.096-.096 0-.096 0 0-.096 0-.191-.095v-.191c-.096 0-.191-.096-.287-.191v.095c0-.095-.095 0-.095-.095 0 .095 0 0 0 0s-.096.095-.096 0c0-.096 0-.096.096-.096-.096 0-.191 0-.287-.095 0-.096-.095 0 0-.096-.095 0 0 .096-.095.096v-.096c-.096 0-.096-.096-.191-.096v.096c-.096 0 0-.096-.096-.096 0 0-.096.096-.096 0 0-.095.096 0 .096-.095h-.096v-.096.096c0-.096-.095-.096-.095-.096-.287-.19-.287-.19-.287-.286 0 .19 0 0 0 0z"/>
    <path fill="#123399" d="M25.76 21.607c-.095.096 0 .096 0 0 0 .096 0 .096 0 0zM20.984 16.162c-.096-.096-.096-.096 0 0-.096-.096-.096-.096 0 0zM23.945 14.635s-.095 0-.095.095l.095-.095z"/>
    <path fill="#123399" d="M23.85 21.034c-.191 0-.478.096-.669 0-.095.096-.095.096-.19.096v-.096h-.096v-.095.095s-.096-.095 0-.095c-.096 0-.096 0-.192-.096 0 0-.095.096-.095 0v-.095c-.096-.096-.287.095-.382 0h-.096c-.095.095.096 0 .096 0-.096.095-.096 0-.096.095 0-.095-.095 0-.095 0 0-.095-.096-.095-.096-.19 0 0-.095.095-.19 0 0-.096.095-.096 0-.096v-.096h-.096.095s-.095 0-.095-.095c0-.096-.096 0-.096 0s0 .095-.095.095c0 0-.096 0-.096-.095h.096c-.096 0-.096 0-.096-.096-.096 0-.096-.096-.096-.191h-.095c0 .095 0 .095-.096.095 0-.095-.19 0-.19-.095h.095c.095 0 .19-.096.286-.096 0 0-.095 0 0-.095h-.095c-.096 0-.096.095-.096.095-.095 0 .096-.095 0-.095-.095 0-.095 0-.095-.096 0-.095-.096-.095 0-.19h.095c.096 0 0 0 .096-.096-.096 0-.096 0-.096-.096h-.095c-.191 0 .095-.095.095-.095h-.095s.095-.096 0-.096c0 0 0-.096.095-.096 0 0 0-.095-.095-.095-.096.096.095 0 0 .096h-.096c0-.096-.095-.096-.095-.192 0-.095-.096-.095-.096-.19.096 0 .096 0 .096.095v-.096c.095 0 0 .096.095.096v-.096c-.095 0 0-.095 0-.095 0-.096-.19-.096-.19-.191h.095l.095-.096c0-.095-.095 0-.095 0v-.095h-.096v-.096h.096v-.095c-.096.095 0-.096-.096-.096l.096-.096c.095 0 0-.095 0-.095s0-.096.095-.096v-.095h-.095v-.096h.19s-.095 0-.095-.095c.096 0 .096-.096.191 0 .096 0 .096-.096.096-.096h-.096c0-.095-.19-.19-.095-.286 0-.096 0-.096-.096-.096.096 0 .191 0 .287-.095h-.191v-.096c0-.095.19-.095.095-.095h.096-.096v-.096c0-.096 0-.096.096-.096 0 0-.096 0-.096-.095.096.095.096-.096.191 0 0 0 .096 0 0-.096l.096.096c-.096-.096 0-.096 0-.191.096.095 0-.096.191 0-.095-.096 0-.096 0-.191 0 0 .096 0 .096.095h.19v-.191c-.095-.095 0-.095 0-.095s.096 0 .096.095c0 0 0-.19-.095-.19v-.096l.095.095v-.095h.096s0 .19.095.095v0c0 .096.096.096.096.096h-.096-.095v-.096c-.096-.095.095-.191 0-.191 0 0 0-.095.095 0 0 .096.096.096.096.096s-.096 0-.096-.096h.191s-.095 0 0-.095h.096c0 .095.095.095 0 .19 0 0 .095-.095 0-.095l-.096-.095v-.096-.096l.287.574c.095 0 0-.096 0-.096s.095 0 .095.096h.192c.095-.096 0 0 0-.096.095.096.19 0 .286 0-.095-.095 0 0 0-.095 0 0 .096.095 0 .095h.096c.095.096-.096.096 0 .191.095 0 .095-.19.19-.095 0 .095.096 0 0 .095h-.095c.096 0 0-.095.096-.19.095 0 .095.095.095.095h.096c0 .095-.096-.096-.096-.096 0 .096.096 0 .192 0-.096-.095-.096 0-.192-.095 0 0 0 .095-.095.095v-.095c0 .095 0 0-.096.095v-.191.096s0-.096-.095-.096c0-.095 0-.095.095-.095-.095-.096-.19.095-.19.095l-.096.096c-.096 0 0-.096 0-.096h-.096-.095v-.095l-.096.095s-.096-.095 0-.095l-.096.095v-.095c-.095 0-.19.19-.19 0l-.192.19c.096-.095-.19 0-.095-.095-.096 0 0 .096-.096.096-.095 0-.095-.096 0-.191v.191c-.095 0-.095-.096-.095-.096v.096h-.096v.095c0-.095-.095 0-.095-.095l-.096.095c-.095.096-.095-.095-.095 0-.191 0-.096.191-.191.191v-.095c-.096.095-.192.095-.192.286-.095 0-.095-.095-.19 0v.096c-.096 0-.096.095-.192.095v.096h.096c-.191 0 0 .191-.191.191v.096l-.096-.096c0 .096-.095.096-.095.191h.095v.096c0-.096 0 .095-.095 0v-.096.096c0 .095-.096 0-.096.095 0 0 .096.096 0 .096 0 .095-.095.095-.095.19h-.096V17.5h-.096.096v.096c0 .095-.096.095-.096.287.096.095-.095.095 0 .19h-.095v.096h-.096l.096.096h-.096c-.095 0-.095.095-.19.19h.095c.19.192-.191.383-.096.67h-.095v-.287c-.096.095-.096 0-.096 0 0 .095.096 0 .096.191 0 .096-.096 0-.096 0 0 .096.096.287.096.382 0 .096 0 .191.095.287h-.095v.095-.19c0 .095.095.19 0 .19h.095c-.095.096.096.096.096.191 0 0-.096-.095-.096 0 0 .096.096.096.096.096 0 .095.095.095.095.191-.095.096.096.191 0 .191 0 .096 0-.095.096 0 0 0 .096.096 0 .096v.095h-.096.192c0 .096.095.096 0 .191.095.096 0 .287.19.382l.096.096h-.095l.19.095.287.287.191.191.096.096c.095 0 .095.19.095.095h.192c.095.096 0 .096 0 .096.095.095.095 0 .19.095h.192c.095 0 .095.191.19.096 0 .095.096.095.096.095.191 0 .287.096.382.096 0 .096 0 0 .096.096v-.096c.191.096.382.287.573.287v.095l.096-.095c.19.095.477.095.668.095.096 0 .192-.095.287-.095.191 0 .287-.096.478-.096v.096c0-.096.095 0 .19 0h-.095c0-.096.096 0 .192 0l.095-.096.096.096s.095-.096.095-.192c0 0 .096 0 0 .096.096 0 .191 0 .287-.096h-.096c0-.095 0-.095.096-.095 0 .096 0 .096.095.096 0 0-.095 0 0-.096 0-.096.096-.096.191-.096.096-.095.096 0 .191 0 0-.095.096-.095 0-.095.096-.096.096.095.096 0 0-.096.095-.096.191-.096 0-.19.191-.095.191-.19h.096s-.096-.096 0-.192c.095 0 .095.096.095.096v-.096c.382-.095.573-.477.86-.669.096-.19.191-.286.287-.477l.095-.096-.095.096v-.096c.19-.095.286-.382.382-.573-.096-.191.19-.096.095-.191 0-.191 0-.287-.095-.478.095.096 0-.095.095-.095h-.095l.095-.096-.095-.096h.095c0-.095 0-.286.096-.382-.096-.286-.096-.573-.096-.955-.095 0-.095-.096-.095-.191l-.191.095c0-.095-.191-.095-.096-.19 0-.096 0-.096-.095-.192 0-.095 0-.19.095-.19-.095 0 0-.192 0-.192s-.19-.191-.382-.478c-.191-.382-.478-.764-.955-1.146-.478-.382-.956-.669-1.529-.764-.478-.096-.955 0-1.146.095 0 .096-.096.096-.096.191-.096 0-.096-.095-.096 0 .096 0 0 .191.096.191h-.096.096v-.095s.095 0 .095.095c0 0 .096-.19.192-.095.095 0 0 .095.095.095l.096.096h-.096c.096 0 0 0 0 0v.095h.096c0 .096 0 0 0 0h.095c0 .096.096 0 .096.096-.096 0 0 0 0 .096H24.805s.096 0 .096.095c.096.096.096-.095.191 0 0 .096-.095 0-.095.096h.095s0 .095-.095.095c.19.191.19.478.477.478 0 .095 0 0-.095.095.19 0 .095.191.19.287 0 .191.287.287.383.478h.095s-.095.095 0 .095v-.095c0 .19.191.477.287.764.191.287.191.669.191 1.05 0-.095.096 0 .096 0-.191.096 0 .192-.096.288 0 .19-.191.382-.095.573h-.096v.095c0 .096 0 .191-.096.191h.096s-.096 0 0 .096v.095c-.096-.095-.096.096-.096.096 0 .096 0 .191-.095.191-.096 0-.096.096-.191.096-.287-.191-.382-.096-.478 0l.096.095c-.096-.095-.096.096-.096.096h.096c.095 0 .095.095 0 .095v.096l-.096-.096c-.095.096-.095.191-.287.287 0-.096-.095.095-.095-.096-.095.096.096.096.096.191 0 0 0 .096-.096 0v-.095c-.095.095-.191 0-.287.095-.095.096-.095-.095-.19 0v-.095s0 .095-.096.095v-.095s-.096 0-.096.095h-.095v.096h-.191v-.096c-.192 0-.192-.19-.287-.19z"/>
    <path fill="#123399" d="M21.94 20.557c-.096 0 0 .095 0 0 0 .095 0 .095 0 0zM21.366 17.023c-.096 0-.096-.096 0 0-.096-.096-.096 0 0 0z"/>
</svg>
