<svg width="40" height="40" viewBox="0 0 40 40" fill="none" xmlns="http://www.w3.org/2000/svg">
<g opacity="0.1">
<path fill-rule="evenodd" clip-rule="evenodd" d="M35.2569 7.87294C35.2597 7.88597 35.2565 7.89272 35.2569 7.9035C35.2369 7.87788 35.2169 7.85227 35.1965 7.82665C35.2169 7.84328 35.2356 7.85541 35.2569 7.87294ZM36.6435 31.1186C36.6394 31.1096 36.6371 31.0952 36.6321 31.0858C36.6585 31.1235 36.6812 31.1622 36.6867 31.2067C36.6153 31.3689 36.5462 31.3918 36.4944 31.3851C36.5376 31.315 36.5853 31.2314 36.6435 31.1186ZM39.7141 17.3856L39.9147 17.2586C39.8136 17.1073 39.6975 16.9604 39.5896 16.8142C39.4388 16.4917 39.513 16.181 39.5612 15.8417C39.5853 15.6725 39.6031 15.497 39.5841 15.3145C39.5545 15.1347 39.4755 14.951 39.3337 14.7618L39.2278 14.9057C39.1658 14.5977 38.8692 13.9809 39.0402 13.9829C39.0066 13.9598 38.8704 13.9289 38.9067 13.7894L39.0086 13.7464C38.9411 13.6334 38.8798 13.5185 38.8072 13.4083L38.5737 13.0847C38.4236 12.5055 39.0209 13.021 38.7076 12.1951C38.5429 11.9039 38.0606 11.4619 38.0405 11.6069C38.0851 11.73 38.1033 11.9426 38.0053 11.9958L37.8426 11.7488C37.8232 11.7539 37.8031 11.7578 37.7833 11.7621C37.7766 11.748 37.7719 11.7343 37.7652 11.7206C37.2714 10.6657 36.6888 9.6804 36.0379 8.76034L36.0873 8.75878L36.0063 8.71539C35.9158 8.58837 35.8285 8.45978 35.7353 8.33588C35.7768 8.3222 35.8297 8.33549 35.8937 8.39763C35.8183 8.04938 35.6326 8.23426 35.5856 7.92001C35.5856 7.88093 35.6058 7.88327 35.633 7.89852L35.3621 7.70583C35.4501 7.71638 35.4885 7.53776 35.5813 7.7156C35.3427 7.1645 34.8245 7.14105 34.8537 6.83189L34.8976 6.85729C34.4504 6.47153 34.5484 6.69509 34.3947 6.73965C34.307 6.64584 34.2174 6.554 34.1281 6.46215L34.1901 6.03847L33.9832 6.13227C33.9302 6.06934 33.8263 5.94388 33.9073 5.9044C33.5886 5.79301 33.8793 6.00681 33.6577 5.98023C33.5838 5.77542 33.3816 5.59251 33.2038 5.44281C33.0198 5.29898 32.878 5.16609 32.9538 5.00975C32.7385 5.04258 33.1643 5.34158 32.7654 5.1614C32.9076 4.80846 32.3487 4.90305 32.1765 4.54777C32.3783 4.46999 32.5849 4.76586 32.4068 4.40511C32.2223 4.45982 32.0971 4.33593 31.9814 4.17763C31.8636 4.02286 31.7384 3.8544 31.5943 3.79108C31.4359 3.98846 30.9777 3.50772 30.5041 3.29431C30.5914 3.21692 29.7374 2.6967 29.3519 2.39106L29.3843 2.36057C29.1781 2.55013 28.7796 2.24762 28.4209 2.16515C28.4979 2.03421 28.5856 1.99982 28.7938 2.02171C28.6919 1.9709 28.5844 1.9322 28.4794 1.88686C28.3708 1.92986 28.255 1.9279 28.0398 1.86967L28.1962 1.72896C27.7652 1.56949 27.2735 1.56519 26.7667 1.25955C26.7075 1.36625 26.8481 1.60154 26.7576 1.72271C26.6612 1.68831 26.5637 1.65822 26.4661 1.62499C26.4965 1.57536 26.5451 1.53823 26.6261 1.54331C26.5716 1.53979 26.4223 1.56363 26.3354 1.49367L26.621 1.41355C26.3923 1.26815 26.4452 1.49992 26.2501 1.42371C26.2975 1.29512 26.1324 1.28496 26.1948 1.19076C26.2508 1.19428 26.3528 1.29903 26.4479 1.27206C26.2279 1.17825 25.9763 1.01527 25.9143 0.887462C25.9116 0.967977 25.8598 1.06374 25.688 1.02895C25.2531 0.904659 25.5861 0.824926 25.3503 0.678358C25.2223 0.729168 24.9616 0.575564 24.9035 0.773334C24.7744 0.745193 24.7728 0.647481 24.7357 0.58299C24.4833 0.622075 23.6514 0.382485 23.8687 0.650217L23.9248 0.676403C23.9133 0.676794 23.8995 0.677185 23.8857 0.677576C23.6889 0.68852 23.4962 0.666632 23.3046 0.626766C23.1119 0.59198 22.9167 0.561494 22.7236 0.515374C22.3365 0.428605 21.947 0.326984 21.5659 0.328548L21.5726 0.26054C21.1156 0.291808 20.5575 0.280082 20.2348 0.413362C20.1021 0.411408 19.9192 0.2836 19.9761 0.203476C19.6281 0.258195 19.5929 0.303533 19.0881 0.240216C19.4314 0.0924746 18.9621 0.144067 19.442 0.123743C18.989 0.101073 18.8744 0.00101582 18.4032 0.226927C18.5549 0.0385374 18.0398 0.0358014 17.8285 0.105373L18.1607 0.203867C17.9213 0.249596 17.7084 0.251159 17.4912 0.255068L17.5781 0.016259C17.0926 -0.0603475 16.6897 0.149929 16.3208 0.309396C15.9515 0.482933 15.6079 0.587681 15.2109 0.474725C15.0134 0.698682 15.7272 0.445411 15.5585 0.689301C15.1449 0.775288 14.6251 0.579864 14.492 0.617385C13.8837 0.667805 14.0563 1.07507 13.4524 1.19467C13.5535 1.24313 13.6926 1.42371 13.3019 1.66291C12.9026 1.78954 12.6913 1.5351 12.9188 1.37329C13.012 1.32873 13.0677 1.33459 13.0732 1.36234C13.1905 1.283 13.3485 1.18255 13.1585 1.16184L13.1356 1.25955C12.9081 1.25994 12.3599 1.4882 12.4373 1.31192C12.1636 1.50579 12.3611 1.48781 12.6 1.43856C12.0451 1.54409 11.7852 1.72779 11.2543 1.93416C11.355 1.93298 11.4707 1.98184 11.3906 2.02249C10.6081 2.31445 11.1374 2.33009 10.6606 2.61892C10.3182 2.65566 10.6164 2.3039 10.1665 2.65723C9.81653 2.744 9.99033 2.50284 10.0808 2.37972C9.98519 2.47509 9.87934 2.54388 9.77229 2.5986C9.66999 2.66192 9.56374 2.70882 9.46025 2.74673C9.25328 2.82295 9.05499 2.86516 8.92149 2.93551L9.1174 2.72758C8.99969 2.85187 8.88554 2.92535 8.76942 3.00117L8.99298 3.05159C8.8417 3.11608 8.72636 3.19074 8.69081 3.1325C8.61261 3.31268 8.95032 3.29001 8.76152 3.59058C8.53795 3.64295 8.26936 4.00918 8.08924 3.89114C8.68252 3.56439 7.89136 3.75121 8.34717 3.40375C8.27015 3.48661 8.1556 3.55774 8.00432 3.62692C7.97035 3.62223 7.99445 3.57533 8.02526 3.54172C7.39248 3.78835 7.93954 3.92514 7.41697 4.33827C7.40512 4.18936 7.1468 4.2558 7.07807 4.3457C7.29137 4.17607 7.30914 4.42308 7.17998 4.64939C6.78539 4.8452 6.86715 4.9949 6.68743 5.12622L6.91494 4.99998C6.92877 5.1442 6.75339 5.2638 6.57683 5.50417C6.4927 5.4518 6.7214 5.26849 6.61752 5.31109C6.53654 5.69608 5.93418 5.66989 5.71062 6.0967C5.49851 6.18894 5.52734 5.95131 5.35197 6.0455C5.09523 6.51217 4.84441 6.34841 4.58688 6.85104C4.81557 6.83619 4.79977 6.79124 4.68167 7.18717L5.16237 6.42697L4.98028 7.02301C5.15526 6.82368 5.25322 6.51452 5.39344 6.42462C5.30457 6.70877 5.30457 6.6693 5.48429 6.66109C5.06442 6.776 5.1367 7.30599 4.74132 7.51861L4.42809 7.25166C4.15476 7.44474 4.00071 7.6898 3.87155 7.97669C3.7491 8.26904 3.62389 8.5825 3.34858 8.89675L3.55753 8.71617C3.63219 8.89753 3.29131 9.14923 3.1977 9.40563C3.095 9.313 2.95754 9.42478 2.82088 9.47716C2.91568 9.51663 2.5199 10.0075 2.72529 10.2061L2.38916 10.4433C2.00483 11.0015 2.35953 11.2778 2.08027 11.8406C2.01866 11.6034 1.81484 11.8312 1.88633 11.3919C1.80062 11.5885 1.70148 11.7562 1.78798 11.7972C1.65882 11.8797 1.72715 12.4132 1.52926 12.5442C1.5502 12.6489 1.67383 12.7275 1.57034 12.9413C1.534 12.9553 1.50675 12.9166 1.50675 12.9166C1.56205 12.9389 1.46646 13.2961 1.67659 13.1527C1.3764 13.3872 1.24448 13.8273 1.12558 14.2545C1.06673 14.4683 1.00748 14.6794 0.935595 14.8662C0.878717 15.0573 0.802089 15.2226 0.682012 15.3415C0.633428 15.8066 0.54969 16.3573 0.488467 16.7716C0.450548 16.7384 0.420529 16.7595 0.443833 16.6829C0.250289 17.2418 0.795769 17.0917 0.57971 17.7198C0.320202 18.0285 0.499132 17.3606 0.391695 17.5587C-0.0617528 17.6029 0.343111 18.3541 0.0701736 18.779L0.0452893 18.6692C-0.114681 19.0065 0.20368 19.511 0.163391 20.0625C0.163391 20.0625 0.123497 20.0363 0.0946629 20.0602C0.293737 20.4401 0.460028 21.1421 0.561145 21.6607C0.36997 21.5138 0.446993 21.4293 0.275568 21.5462C0.320992 21.7811 0.55917 21.4524 0.648438 21.9155C0.567465 22.0774 0.501502 22.4295 0.330471 22.4995C0.296897 22.3521 0.293342 22.2013 0.273198 22.052C0.161021 22.1809 0.168921 22.3291 0.218295 22.4713C0.272803 22.6128 0.352986 22.7508 0.352986 22.8708L0.240019 22.8575C0.40236 23.5391 0.674112 23.4957 0.790239 24.2247L0.856597 24.1313C1.2034 24.4608 0.793794 24.4936 1.09636 24.8309L0.863707 25.0197C1.00985 25.2597 1.36969 25.8475 1.57903 26.2735C1.28319 26.0933 1.04422 25.579 0.822628 25.2776C0.896096 25.5348 1.09833 26.1449 1.26699 26.2329C1.2109 26.1391 1.1086 26.03 1.11926 25.9155C1.4005 26.1684 1.67975 26.5155 1.86777 27.0017C1.60115 27.0556 1.6999 27.3878 1.83657 27.7712C1.95506 28.1629 2.19561 28.5619 2.09449 28.8301C2.40811 29.2033 2.59968 29.6297 2.80745 30.0765C3.04326 30.5052 3.2763 30.9657 3.5994 31.4183C3.72106 30.8554 3.789 31.6801 4.09788 31.3749C4.25864 31.5668 4.32855 31.6348 4.31828 31.6723L4.29893 31.6219C4.30722 31.6442 4.31157 31.6571 4.31789 31.6762L4.31907 31.6754L4.61057 32.4274C4.6323 32.6483 4.38148 32.2977 4.32184 32.3751C4.65837 32.8339 4.3329 32.6725 4.48852 33.0379C4.55607 32.88 4.7816 33.0493 4.94553 33.3385L4.80254 32.8578C5.13749 33.0903 5.18054 33.2768 5.24216 33.4554C5.29786 33.6367 5.35789 33.8232 5.72405 34.028L5.44716 33.942C5.62254 34.0604 5.8935 34.3301 6.18658 34.574C6.25965 34.635 6.33431 34.6944 6.40857 34.7495C6.48875 34.7979 6.56893 34.8421 6.64793 34.8792C6.80513 34.9539 6.95602 35.0012 7.08913 34.9992C7.11283 35.0821 7.11244 35.2318 6.95207 35.1407C7.13495 35.306 7.34746 35.4581 7.56983 35.6019C7.79379 35.7438 8.01696 35.89 8.26028 35.9963C8.73347 36.2261 9.16599 36.452 9.42668 36.7506L9.30897 36.7971C9.48119 36.8694 9.67118 36.8171 9.82246 37.0082C9.79007 37.0395 9.70396 37.0621 9.77585 37.1079C9.88092 37.1235 10.296 37.1802 10.4797 37.3471L10.24 37.351C10.6314 37.6375 10.9932 37.7492 11.3416 37.8251C11.703 37.8782 12.0553 37.888 12.4341 38.0088C12.314 38.2792 12.9658 38.692 13.3157 38.844L13.2885 38.8804C13.8213 39.0668 14.3005 39.1489 14.7669 39.2063C15.2354 39.2618 15.7094 39.227 16.2213 39.2818C16.3607 39.3955 16.5633 39.4885 16.8031 39.5706C17.0436 39.648 17.3276 39.6793 17.6211 39.725C18.2112 39.8004 18.8476 39.9001 19.3662 39.9759C19.2094 39.9181 19.4021 39.7391 19.585 39.7109C19.8264 39.7766 20.251 39.5096 20.2134 39.7887L20.1273 39.782C20.3098 40.0529 20.8154 40.0119 21.2049 39.9685L21.2487 39.598C21.5074 39.7105 21.8056 39.7406 22.1122 39.7293C22.4179 39.7105 22.737 39.6836 23.0297 39.5878C23.6202 39.4244 24.1416 39.2653 24.4675 39.4479C24.6918 39.3248 24.9837 39.2388 25.1931 39.0824L25.2306 39.2755C25.5651 39.2059 25.8175 39.1532 26.0857 39.0828C26.2192 39.0476 26.3575 39.0082 26.5119 38.9601C26.5886 38.9347 26.6699 38.9085 26.7568 38.88C26.8406 38.8421 26.9294 38.8014 27.0258 38.7576L26.9129 38.9534C27.3663 38.7873 27.2731 38.2015 27.6657 38.0322L27.8995 38.2542C28.6733 37.9802 29.5194 37.7696 30.1202 37.1704C30.13 37.2138 30.151 37.299 30.0372 37.3713C30.403 37.2306 31.4355 36.7514 31.0974 36.497C31.2471 36.7076 31.8313 36.0569 32.116 35.709L32.1788 35.9072C32.3218 35.4745 32.2875 35.4147 32.6453 35.0371C32.7559 34.9797 32.8278 35.0891 32.6694 35.1536C33.0526 34.9738 32.7982 34.8132 33.2485 34.581L33.1869 34.7905C33.5214 34.5326 33.4618 34.515 33.5254 34.2453C33.6581 34.0053 34.121 33.7258 34.2916 33.804C34.2565 33.6883 34.3161 33.4284 34.5275 33.2908C34.5993 33.3127 34.5654 33.4042 34.5476 33.4495C34.6965 33.3487 34.8079 33.2424 34.8972 33.1368C34.9817 33.0266 35.0378 32.9109 35.0947 32.8066C35.2064 32.5947 35.3044 32.4118 35.5327 32.2867C35.5888 32.3196 35.6338 32.3157 35.6749 32.2969C35.3135 32.7245 35.0172 33.0637 35.0334 33.0215C35.1665 33.1415 35.4845 32.8093 35.4367 33.2521C35.575 32.8761 35.7448 32.2129 36.0924 31.9252C36.1197 31.9193 36.1465 31.9135 36.1789 31.9178L36.1655 31.9651C36.2445 31.8963 36.2919 31.8169 36.3203 31.7306C36.4234 31.6313 36.4917 31.5695 36.5707 31.4581C36.7212 31.5003 36.9314 31.0696 37.0649 30.8851C36.8907 30.7929 37.0822 30.5662 36.7915 30.7069C36.8231 30.685 36.7872 30.7546 36.7102 30.8832C36.6959 30.9145 36.6762 30.9489 36.673 30.9739C36.6715 30.9672 36.6699 30.9594 36.6675 30.9516C36.5873 31.0759 36.483 31.2381 36.3638 31.4218C36.3831 31.2166 36.4167 31.018 36.6462 30.8734C36.6059 30.7081 36.568 30.5338 36.5561 30.4427C36.7556 30.3919 36.9705 30.2629 37.1597 30.1476C37.3528 30.035 37.4887 29.9166 37.5863 29.9248C37.7048 29.5934 37.8841 29.2272 38.018 28.8758C38.0843 28.6999 38.1416 28.5291 38.1693 28.3669C38.1862 28.2 38.1799 28.0448 38.1377 27.9088C38.1697 27.7126 38.3213 27.7478 38.4031 27.7036C38.3932 27.8217 38.3355 27.9424 38.36 28.0198C38.4268 27.6239 38.7795 26.9419 38.5745 26.7668C38.868 26.3572 38.7025 27.1072 38.8988 26.465L38.9454 26.578C39.342 26.0128 39.3518 25.4363 39.3724 24.8719C39.359 24.2927 39.3321 23.7201 39.7476 23.0533C39.6947 23.1471 39.6694 23.1936 39.6224 23.2065C39.7014 23.0099 39.7488 22.8051 39.7788 22.5968C39.8132 22.3893 39.8405 22.179 39.8626 21.9675C39.8958 21.5438 39.9586 21.119 39.9266 20.6906C39.9143 20.2638 39.9064 19.839 39.9258 19.4176C39.9431 19.207 39.942 18.9979 39.9447 18.7888C39.9507 18.58 39.9665 18.3713 39.9953 18.1622C40.0304 17.6877 39.8622 17.6522 39.7141 17.3856Z" fill="#00C48C"/>
</g>
<path fill-rule="evenodd" clip-rule="evenodd" d="M28.7767 11.1405L28.3411 10.2565C28.262 9.99253 28.0293 9.92042 27.8104 10.096C27.7853 10.1093 27.7671 10.1269 27.7538 10.1473C27.6917 10.2106 27.6318 10.295 27.5784 10.4018L27.5196 10.5211C27.5122 10.5059 27.5058 10.4906 27.5058 10.4754V10.5492L27.4571 10.6481C27.4263 10.6711 27.3968 10.69 27.3968 10.6207L27.3242 10.8023H27.2879H27.2516C27.2516 10.8386 27.2516 10.8749 27.2879 10.8023C27.2772 10.8236 27.2696 10.8608 27.2615 10.9007C27.2421 10.9963 27.2195 11.1077 27.1426 11.0565C27.1174 11.1823 27.0923 11.2384 27.055 11.3214C27.0385 11.3582 27.0196 11.4003 26.9973 11.456C26.9973 11.379 26.9564 11.4143 26.9235 11.4428C26.8943 11.468 26.8713 11.4879 26.8884 11.4197C26.8471 11.4609 26.8527 11.4905 26.8586 11.5216C26.8631 11.5453 26.8677 11.5699 26.852 11.6013C26.8194 11.6176 26.7941 11.6193 26.7794 11.6095V11.5286C26.7594 11.5686 26.7614 11.5976 26.7794 11.6095V11.6376V11.7102C26.7431 11.7466 26.7249 11.7466 26.7113 11.7466C26.6977 11.7466 26.6886 11.7466 26.6704 11.7829L26.7068 11.8192L26.6341 11.8555C26.6704 11.8555 26.6704 11.8918 26.6341 11.9645L26.5978 12.0371C26.5978 12.0056 26.591 12.0151 26.5802 12.0301C26.5663 12.0496 26.5457 12.0782 26.5252 12.0371L26.5252 12.0371C26.4888 12.1098 26.4888 12.1098 26.4525 12.2187H26.4888C26.4696 12.2956 26.4504 12.2809 26.4312 12.2662C26.4141 12.2532 26.397 12.2401 26.3799 12.2914H26.4162C26.3297 12.3562 26.3076 12.4468 26.2885 12.5248C26.2756 12.5779 26.264 12.6251 26.2346 12.6546C26.2346 12.5819 26.1983 12.5819 26.1983 12.5819C26.1897 12.5991 26.1811 12.6182 26.1721 12.6385C26.1428 12.704 26.1085 12.7807 26.053 12.8362C26.0302 12.8248 26.0146 12.8134 26.0005 12.8031C25.9696 12.7806 25.9462 12.7635 25.8714 12.7635H25.8351C25.7988 12.7635 25.7988 12.7998 25.7988 12.7998C25.7758 12.7998 25.7455 12.8035 25.7137 12.8073C25.6451 12.8155 25.5694 12.8247 25.5445 12.7998C25.5445 12.818 25.5264 12.818 25.5037 12.818C25.481 12.818 25.4537 12.818 25.4356 12.8362C25.3629 12.7998 25.2994 12.8271 25.2358 12.8543C25.178 12.8791 25.1203 12.9038 25.0556 12.8808L25.0724 12.8725H25.0361C25.0427 12.8758 25.0492 12.8785 25.0556 12.8808L24.9997 12.9088V12.8362L24.7092 12.8725L24.7818 12.9088C24.7515 12.9088 24.7275 12.9214 24.7046 12.9336C24.6725 12.9504 24.6425 12.9663 24.6002 12.9451C24.6614 12.9043 24.6195 12.9093 24.571 12.9152C24.5355 12.9194 24.4965 12.9241 24.4917 12.9115C24.4918 12.9105 24.4919 12.9095 24.4919 12.9085L24.5639 12.8725C24.5064 12.8725 24.4944 12.8725 24.4919 12.9085L24.4913 12.9088C24.4913 12.9098 24.4914 12.9107 24.4917 12.9115C24.4913 12.9205 24.4913 12.9315 24.4913 12.9451C24.4404 12.9621 24.4212 12.9474 24.4041 12.9342C24.3846 12.9193 24.3678 12.9064 24.3097 12.9451H24.3823C24.4186 12.9814 24.346 13.0177 24.3097 13.0177C24.3097 13.0177 24.2734 12.9814 24.3097 12.9814C24.2915 12.9814 24.2643 12.9905 24.237 12.9996C24.2098 13.0087 24.1826 13.0177 24.1644 13.0177C24.0918 13.0177 24.0554 13.0177 24.0191 13.0541C23.9465 13.0541 23.9465 13.0177 23.9828 12.9814C23.8557 13.0177 23.8284 13.0177 23.8012 13.0177C23.774 13.0177 23.7467 13.0177 23.6196 13.0541V13.0177L23.547 13.0541C23.514 13.0541 23.4885 13.0466 23.4637 13.0384C23.4783 13.0329 23.4934 13.0264 23.5106 13.0177H23.3654C23.4017 13.0177 23.4289 13.0268 23.4562 13.0359C23.4587 13.0367 23.4612 13.0376 23.4637 13.0384C23.4402 13.0472 23.4183 13.0533 23.3919 13.0606C23.3654 13.0679 23.3343 13.0765 23.2927 13.0904V13.0541C23.2234 13.0818 23.1646 13.0937 23.1144 13.1038C23.0332 13.1202 22.9744 13.132 22.9295 13.1993V13.163C22.9029 13.203 22.8713 13.2185 22.8421 13.2329C22.7916 13.2578 22.7479 13.2793 22.7479 13.4173H22.7116V13.5262L22.6753 13.4899C22.6753 13.5262 22.7116 13.5625 22.7479 13.5989L22.7479 13.5989L22.6753 13.6352C22.6753 13.6352 22.6753 13.6715 22.7116 13.6715C22.6753 13.7078 22.6753 13.7441 22.6753 13.8168V13.8168V13.8531V13.9257H22.7479C22.8353 13.9913 22.8833 14.07 22.9393 14.1618C22.9763 14.2226 23.0169 14.2892 23.0748 14.3616C23.0858 14.3726 23.0968 14.3869 23.1088 14.4025C23.1365 14.4385 23.1694 14.4815 23.2201 14.5069C23.2382 14.525 23.2564 14.5523 23.2746 14.5795C23.2927 14.6067 23.3109 14.634 23.329 14.6521C23.3472 14.6703 23.3654 14.6975 23.3835 14.7248C23.4017 14.752 23.4198 14.7792 23.438 14.7974L23.5106 14.87L23.547 14.9064L23.5106 14.9427L23.6559 14.979C23.6559 15.0216 23.631 15.0143 23.6103 15.0082C23.5957 15.0039 23.5833 15.0003 23.5833 15.0153C23.6311 15.0472 23.6579 15.0511 23.6821 15.0546C23.7132 15.0592 23.74 15.0631 23.8012 15.1243C23.8236 15.1692 23.8045 15.1586 23.778 15.1439C23.7616 15.1349 23.7424 15.1243 23.7286 15.1243C23.8375 15.1969 24.0191 15.3422 24.0554 15.4512C24.0918 15.4875 24.1281 15.5329 24.1644 15.5783C24.2007 15.6237 24.237 15.6691 24.2734 15.7054C24.2579 15.7054 24.249 15.7054 24.2412 15.7026C24.2305 15.6988 24.2216 15.69 24.2007 15.6691C24.2146 15.683 24.2232 15.6968 24.2305 15.7087C24.24 15.7241 24.2475 15.7361 24.2618 15.7402C24.2791 15.7597 24.3014 15.7793 24.3238 15.7988C24.3712 15.8403 24.4186 15.8818 24.4186 15.9233C24.4186 15.887 24.455 15.887 24.4913 15.9233C24.4713 15.9633 24.5174 15.9923 24.5751 16.0286C24.622 16.058 24.6766 16.0923 24.7092 16.1412C24.691 16.1412 24.6729 16.1231 24.6592 16.1095C24.6456 16.0958 24.6365 16.0868 24.6365 16.1049C24.6729 16.1412 24.7455 16.1776 24.7818 16.1776H24.7455L24.7818 16.2139H24.8545C24.8165 16.2329 24.8282 16.2618 24.8376 16.2851C24.8461 16.3063 24.8528 16.3228 24.8181 16.3228C24.8181 16.341 24.8272 16.3319 24.8363 16.3228C24.8454 16.3138 24.8545 16.3047 24.8545 16.3228C24.8363 16.3228 24.8363 16.3319 24.8363 16.341C24.8363 16.3501 24.8363 16.3591 24.8181 16.3591V16.3955C24.8181 16.3955 24.8027 16.3955 24.7919 16.3854C24.7818 16.3746 24.7818 16.3591 24.7818 16.3591C24.7818 16.3718 24.7862 16.38 24.7919 16.3854C24.7973 16.3911 24.8055 16.3955 24.8181 16.3955C24.8181 16.4318 24.8545 16.4318 24.8545 16.4318C24.8393 16.4622 24.8304 16.499 24.8226 16.5315C24.8118 16.5766 24.8029 16.6134 24.7818 16.6134V16.5771C24.7818 16.661 24.743 16.7295 24.7049 16.7967C24.6605 16.8749 24.617 16.9516 24.6365 17.0492L24.6002 17.1582H24.5276L24.5639 17.3761H24.5276C24.5276 17.4124 24.5185 17.4487 24.5094 17.4851C24.5004 17.5214 24.4913 17.5577 24.4913 17.594C24.4913 17.654 24.4803 17.714 24.4704 17.7679C24.4623 17.8119 24.455 17.8519 24.455 17.8846V17.8483C24.455 18.0521 24.4267 18.1288 24.3966 18.2105C24.3785 18.2598 24.3597 18.311 24.346 18.393V18.3567L24.3097 18.611L24.2734 18.5746C24.2993 18.6784 24.2141 18.8934 24.1897 18.9548C24.18 18.9793 24.18 18.9793 24.2007 18.9378C24.2098 18.956 24.2189 18.9764 24.228 18.9969C24.2552 19.0581 24.2824 19.1194 24.3097 19.1194C24.3301 19.201 24.3161 19.2139 24.2999 19.2288C24.2873 19.2404 24.2734 19.2533 24.2734 19.301C24.2895 19.3495 24.3056 19.3692 24.3218 19.3889C24.342 19.4136 24.3621 19.4382 24.3823 19.519H24.346C24.3642 19.5553 24.3823 19.5734 24.405 19.5961C24.4277 19.6188 24.455 19.6461 24.4913 19.7005H24.455C24.5097 19.7279 24.5438 19.7707 24.5747 19.8096C24.626 19.8739 24.6686 19.9274 24.7818 19.8821C24.806 19.8943 24.8222 19.8983 24.8329 19.901C24.8545 19.9064 24.8545 19.9064 24.8545 19.9548C24.9634 19.9548 25.0361 19.9548 25.145 19.9185C25.2312 19.9185 25.3175 19.873 25.4217 19.818C25.4492 19.8035 25.4779 19.7883 25.5082 19.7732C25.5082 19.8095 25.5445 19.7732 25.5809 19.7369C25.5959 19.7218 25.6109 19.7192 25.6286 19.7162C25.6535 19.7119 25.6836 19.7068 25.7261 19.6642V19.6279C25.7625 19.5916 25.8351 19.519 25.8714 19.4463C25.9077 19.41 25.9804 19.41 26.0167 19.41C26.0712 19.3918 26.1257 19.3828 26.1801 19.3737C26.2346 19.3646 26.2891 19.3555 26.3436 19.3374C26.3861 19.3267 26.4193 19.3192 26.4468 19.313C26.5132 19.2979 26.5464 19.2904 26.5978 19.2647C26.6341 19.2466 26.6614 19.2284 26.6886 19.2102C26.7158 19.1921 26.7431 19.1739 26.7794 19.1558L26.8157 19.1921L26.852 19.1194C27.027 19.0444 27.2364 18.935 27.421 18.8386C27.5046 18.7949 27.5831 18.7539 27.6511 18.7199C27.6874 18.6473 27.7964 18.5746 27.9053 18.502C27.9053 18.4657 27.9053 18.4657 27.9416 18.4657H28.0143V18.502C28.0143 18.4855 28.0143 18.4765 28.0177 18.475C28.0217 18.4732 28.0307 18.4822 28.0506 18.502C28.1232 18.502 28.1959 18.5746 28.1959 18.611H28.3048V18.6473H28.3411V18.7199C28.3562 18.7199 28.3837 18.7262 28.4159 18.7335C28.4615 18.7438 28.5165 18.7562 28.5591 18.7562C28.5591 18.7701 28.5697 18.784 28.5787 18.7958C28.5934 18.815 28.604 18.8289 28.5591 18.8289L28.7951 18.96C28.7839 18.9618 28.777 18.9662 28.777 18.9742L28.8859 19.0105L28.7951 18.96C28.8352 18.9537 28.9302 18.9821 28.9586 19.0105C28.9031 19.0105 28.9112 19.0529 28.9181 19.0891C28.9202 19.1003 28.9223 19.1109 28.9223 19.1194C28.9648 19.1194 28.945 19.0945 28.9287 19.0739C28.9171 19.0593 28.9072 19.0468 28.9223 19.0468C28.9648 19.0468 29.0198 19.0717 29.0654 19.0924C29.0976 19.107 29.1251 19.1194 29.1402 19.1194H29.1039C29.1402 19.1376 29.1583 19.1648 29.1765 19.1921C29.1947 19.2193 29.2128 19.2466 29.2491 19.2647C29.2769 19.2647 29.2993 19.2753 29.3185 19.2844C29.3495 19.299 29.372 19.3096 29.3944 19.2647C29.4598 19.2865 29.4467 19.3083 29.4336 19.3301C29.4249 19.3446 29.4162 19.3591 29.4307 19.3737H29.5034H29.5397L29.6123 19.41C29.685 19.4463 29.7576 19.519 29.7576 19.5553C29.8302 19.519 29.9392 19.5916 30.0482 19.6642C30.1571 19.7369 30.2661 19.8095 30.2661 19.7732L30.4114 19.8821C30.4114 19.8458 30.4477 19.7732 30.5203 19.8095C30.5917 19.8333 30.6007 19.8726 30.6087 19.9072C30.6129 19.9254 30.6167 19.9422 30.6293 19.9548L30.6656 19.8458C30.7746 19.8821 30.9198 19.8821 31.0651 19.8458C31.2104 19.8095 31.3557 19.6642 31.4646 19.5553C31.4828 19.519 31.51 19.4826 31.5373 19.4463C31.5645 19.41 31.5917 19.3737 31.6099 19.3374C31.6324 19.2925 31.6409 19.2614 31.6528 19.2186C31.6601 19.1921 31.6687 19.1611 31.6825 19.1194C31.7189 18.9742 31.7552 18.7926 31.7189 18.5746C31.7007 18.4838 31.6735 18.384 31.6462 18.2841C31.619 18.1842 31.5917 18.0843 31.5736 17.9935L31.5373 17.8119C31.5373 17.7756 31.5282 17.7484 31.5191 17.7211C31.51 17.6939 31.5009 17.6667 31.5009 17.6303C31.4646 17.594 31.4646 17.5577 31.4646 17.4851C31.4646 17.2308 31.4646 16.9039 31.3557 16.6134C31.3002 16.5579 31.3083 16.5236 31.3152 16.4943C31.3173 16.4853 31.3193 16.4767 31.3193 16.4681C31.3193 16.4499 31.3284 16.4409 31.3375 16.4318C31.3466 16.4227 31.3557 16.4136 31.3557 16.3955V16.3591C31.3193 16.3591 31.283 16.3228 31.2467 16.2502C31.3057 16.2895 31.3008 16.2756 31.2955 16.2604C31.2909 16.2474 31.286 16.2335 31.3193 16.2502L31.283 16.2139H31.3193C31.3332 16.2139 31.3418 16.2086 31.3491 16.204C31.361 16.1967 31.3695 16.1914 31.392 16.2139L31.4283 16.1049L31.4646 16.1412C31.4751 16.1308 31.4878 16.1173 31.5023 16.102C31.5881 16.011 31.7346 15.8559 31.8278 15.887C31.9731 15.6328 32.3363 15.3059 32.6269 15.0516C32.6269 15.0335 32.6359 15.0153 32.645 14.9972C32.6541 14.979 32.6632 14.9608 32.6632 14.9427L32.7358 14.87L32.8085 14.7974L32.99 14.7248C33.024 14.6796 33.0508 14.6379 33.0761 14.5986C33.1322 14.5117 33.1805 14.4366 33.2806 14.3616C33.2988 14.3343 33.3192 14.3071 33.3396 14.2799C33.4009 14.1981 33.4622 14.1164 33.4622 14.0347C33.4845 14.0012 33.5034 13.9678 33.5199 13.9386C33.5491 13.8868 33.5709 13.8482 33.591 13.8461C33.5953 13.8506 33.6008 13.8531 33.6075 13.8531C33.602 13.8477 33.5966 13.8455 33.591 13.8461C33.5724 13.8262 33.5779 13.767 33.6075 13.7078C33.6438 13.6352 33.6438 13.5625 33.6438 13.5625V13.4536C33.6438 13.381 33.6075 13.272 33.5712 13.1631L33.5712 13.163C33.5348 13.0541 33.4259 12.9088 33.3532 12.8362C33.2443 12.7272 33.099 12.6182 32.8085 12.5819C32.64 12.556 32.4531 12.5301 32.2543 12.5025C31.8958 12.4528 31.4986 12.3978 31.1014 12.3277C30.9743 12.3095 30.8563 12.2914 30.7382 12.2732C30.6202 12.255 30.5022 12.2369 30.375 12.2187H30.2661L30.2298 12.1824L30.1208 12.0008C30.0845 11.9463 30.0572 11.8918 30.03 11.8374C30.0028 11.7829 29.9755 11.7284 29.9392 11.6739C29.871 11.5375 29.7885 11.4153 29.7097 11.2984C29.6626 11.2286 29.6167 11.1607 29.576 11.0928C29.3581 10.7296 29.1402 10.4754 28.9586 10.2938C28.9291 10.2938 28.8996 10.2758 28.8726 10.2594C28.833 10.2352 28.7986 10.2143 28.777 10.2575C28.7588 10.2211 28.7588 10.1848 28.7588 10.1576C28.7588 10.1303 28.7588 10.1122 28.7407 10.1122C28.7592 10.1679 28.7303 10.1761 28.6976 10.1854C28.6664 10.1943 28.6317 10.2042 28.6317 10.2575L28.5954 10.1848C28.5803 10.1848 28.5902 10.1973 28.6018 10.2119C28.6182 10.2325 28.6379 10.2575 28.5954 10.2575H28.5591V10.4027C28.5796 10.413 28.603 10.4175 28.626 10.4218C28.6845 10.433 28.7407 10.4437 28.7407 10.548L28.7043 10.5117C28.7528 10.5843 28.7366 10.5924 28.7205 10.6005C28.7124 10.6045 28.7043 10.6086 28.7043 10.6207V10.657C28.6991 10.6517 28.6943 10.6477 28.6901 10.6449C28.6619 10.5949 28.6037 10.5647 28.6317 10.6207C28.6488 10.6891 28.6498 10.685 28.6537 10.6691C28.6574 10.6537 28.6638 10.6273 28.6901 10.6449C28.6986 10.6599 28.7043 10.6766 28.7043 10.6933V10.657C28.7407 10.6933 28.7043 10.7296 28.668 10.7296L28.7043 10.8386C28.68 10.8386 28.672 10.8059 28.6693 10.8063C28.668 10.8065 28.668 10.8147 28.668 10.8386L28.777 10.9475C28.7426 10.982 28.7652 11.0082 28.7909 11.0379C28.8194 11.0709 28.8515 11.1081 28.8133 11.1655C28.7954 11.1475 28.7841 11.1407 28.7767 11.1405Z" fill="#00C48C"/>
<path fill-rule="evenodd" clip-rule="evenodd" d="M12.9661 27.8707C12.2771 27.7619 11.3396 27.6139 10.6174 26.8557C10.4887 26.7108 10.4527 26.6159 10.4272 26.5488C10.3951 26.4644 10.3797 26.424 10.2179 26.3835C10.2361 26.3835 10.2452 26.3744 10.2542 26.3654C10.2633 26.3563 10.2724 26.3472 10.2906 26.3472C10.2758 26.2883 10.2552 26.2235 10.2334 26.1552C10.2013 26.0548 10.1669 25.9467 10.1453 25.8387C10.109 25.6571 10.109 25.4755 10.1453 25.3666C10.118 25.3393 10.0908 25.3734 10.0636 25.4074C10.0545 25.4188 10.0454 25.4301 10.0363 25.4392C10.0465 25.4189 10.0595 25.4014 10.0722 25.3844C10.1048 25.3405 10.1351 25.2998 10.109 25.2213C10.0363 25.2939 10 25.076 10 24.967C10.0115 24.99 10.0193 25.0201 10.0269 25.0495C10.0435 25.1133 10.0592 25.1735 10.109 25.1486C10.1658 25.035 10.1337 24.988 10.0996 24.9382C10.0902 24.9243 10.0805 24.9102 10.0726 24.8944L10.1453 24.9307C10.1113 24.8288 10.1409 24.7745 10.1709 24.7196C10.205 24.6571 10.2396 24.5938 10.1816 24.4586C10.1396 24.4376 10.134 24.4773 10.1298 24.5075C10.1267 24.5295 10.1243 24.5465 10.109 24.5312C10.051 24.3767 10.0752 24.2427 10.0997 24.1074C10.1212 23.9883 10.143 23.8682 10.109 23.7322L10.1453 23.7685V23.6232C10.1634 23.6414 10.1816 23.6323 10.1998 23.6232C10.2179 23.6141 10.2361 23.6051 10.2542 23.6232C10.2767 23.6008 10.2714 23.5783 10.2641 23.5473C10.2595 23.5281 10.2542 23.5057 10.2542 23.4779C10.2038 23.4275 10.1612 23.4549 10.1263 23.4772C10.0858 23.5032 10.0558 23.5224 10.0363 23.4053C10.1214 23.4479 10.1193 23.3658 10.1175 23.2978C10.1163 23.2497 10.1152 23.2087 10.1453 23.2237C10.1651 23.0253 10.1308 22.8702 10.0955 22.7111C10.0662 22.579 10.0363 22.4441 10.0363 22.2794C10.065 22.2651 10.088 22.2451 10.1098 22.2262C10.1433 22.1971 10.1739 22.1704 10.2179 22.1704L10.1816 22.0978H10.2179C10.2868 21.9945 10.1925 21.9239 10.1515 21.9786C10.1371 21.9125 10.1249 21.8451 10.1816 21.8072H10.2179V21.6983H10.109C10.1453 21.2988 10.1453 20.8266 10.109 20.4997C10.1203 20.4429 10.1281 20.379 10.1357 20.3169C10.1524 20.1804 10.168 20.0525 10.2179 20.0276C10.2179 19.8097 10.1816 19.5554 10.1453 19.4102C10.1768 19.3629 10.1673 19.2814 10.1583 19.2043C10.1465 19.1037 10.1357 19.0106 10.2179 19.0106L10.1453 18.8654H10.1816C10.1385 18.8007 10.1465 18.7872 10.1602 18.7642C10.1696 18.7484 10.1816 18.7281 10.1816 18.6838H10.109C10.1265 18.6312 10.1187 18.5534 10.1099 18.4665C10.1006 18.3731 10.0901 18.2693 10.109 18.1753H10.1453C10.1388 18.1624 10.1324 18.1507 10.1264 18.1397C10.0984 18.0886 10.0791 18.0535 10.109 17.9937H10.1816C10.051 17.6891 10.0769 17.3975 10.103 17.1033C10.1205 16.9064 10.1381 16.7084 10.109 16.5046C10.1934 16.3695 10.1758 16.2501 10.1583 16.1318C10.1381 15.9957 10.1182 15.861 10.2542 15.7056C10.2906 15.5966 10.1453 15.524 10.1453 15.6692V15.3424V15.1244L10.1816 14.7976C10.2542 14.3617 10.4722 13.9622 10.799 13.6353C11.3801 13.0542 12.0339 12.8363 12.615 12.691C13.0508 12.6184 13.5956 12.6184 13.8862 12.6547C14.2131 12.691 14.5399 12.7274 14.7579 12.8C14.7942 12.7637 14.7215 12.7274 14.7215 12.7274C14.8342 12.6992 14.8158 12.7584 14.8019 12.8033C14.7979 12.8163 14.7942 12.8282 14.7942 12.8363C14.8668 12.8 14.9758 12.8 15.0484 12.8L14.9758 12.7637C15.1573 12.7916 15.3443 12.7927 15.5304 12.7938C15.8283 12.7955 16.124 12.7972 16.3922 12.909V12.8363C16.5202 12.8203 16.62 12.8677 16.7226 12.9165C16.853 12.9784 16.988 13.0426 17.1913 12.9816C17.1606 13.0123 17.1234 13.0235 17.0962 13.0318C17.059 13.043 17.0404 13.0486 17.0823 13.0906C17.38 13.0268 17.6029 13.1248 17.8459 13.2316C18.0056 13.3018 18.1739 13.3757 18.3777 13.4101C18.3619 13.4164 18.3527 13.4335 18.3429 13.4517C18.3356 13.4652 18.328 13.4792 18.3172 13.4901L18.5351 13.4537C18.5714 13.4901 18.5442 13.4901 18.5124 13.4901C18.4806 13.4901 18.4443 13.4901 18.4625 13.5264C18.5714 13.5627 18.5896 13.5264 18.6077 13.4901C18.6259 13.4537 18.6441 13.4174 18.753 13.4537C18.753 13.5245 18.8296 13.534 18.8932 13.5419C18.9276 13.5462 18.9582 13.55 18.9709 13.5627C18.9709 13.5627 19.0073 13.4901 19.0799 13.5264H19.3704C19.3704 13.5571 19.3899 13.5748 19.4042 13.5878C19.4236 13.6055 19.4334 13.6144 19.3704 13.6353C19.4075 13.7094 19.4634 13.6891 19.5142 13.6706C19.5629 13.6528 19.6069 13.6368 19.6247 13.708L19.8063 13.6353C19.8426 13.6717 19.8335 13.6717 19.8154 13.6717C19.7972 13.6717 19.77 13.6717 19.77 13.708H19.9152C19.8789 13.7443 19.8789 13.8169 19.9516 13.8169C20.0034 13.8169 19.9813 13.8005 19.9634 13.7872C19.9436 13.7725 19.9289 13.7616 20.0242 13.7806C20.0968 13.7806 19.9516 13.8896 19.8789 13.8533L19.9879 13.9259H19.9516C19.9637 13.938 19.9637 13.9541 19.9637 13.9703C19.9637 14.0026 19.9637 14.0349 20.0605 14.0349H20.0242C20.1508 14.1108 20.2068 14.0279 20.2537 13.9584C20.2741 13.9282 20.2928 13.9006 20.3148 13.8896C20.3431 13.9463 20.3715 13.9587 20.4171 13.9787C20.4299 13.9844 20.4441 13.9906 20.46 13.9985L20.4964 13.8533C20.4964 13.8702 20.4998 13.8818 20.5056 13.8896H20.4964C20.5704 13.9451 20.5595 14.0101 20.5503 14.0652C20.5414 14.1183 20.5341 14.1623 20.6053 14.1801C20.5881 14.2145 20.5709 14.2001 20.5461 14.1792C20.5184 14.1559 20.4811 14.1247 20.4237 14.1438C20.4469 14.2134 20.3961 14.2533 20.3468 14.292C20.3189 14.314 20.2916 14.3355 20.2784 14.3617C19.5157 14.7613 17.5545 14.8702 15.8111 14.8702H15.8111C15.4623 14.8702 15.1193 14.8702 14.7938 14.8679C14.7942 14.8684 14.7945 14.8686 14.7945 14.8686C14.7945 14.8686 14.7649 15.0456 14.8389 14.9742C14.7953 15.0351 14.8 15.092 14.8308 15.1228C14.9067 15.0722 14.9297 15.0922 14.949 15.1089C14.9574 15.1162 14.9651 15.1228 14.9761 15.1228L14.9397 15.1592C14.9144 15.2351 14.9774 15.2052 15.0301 15.18C15.053 15.1691 15.074 15.1592 15.085 15.1592L15.0487 15.2681C15.085 15.3044 15.1213 15.3044 15.194 15.2681C15.3029 15.4134 15.4482 15.5587 15.6298 15.5223C15.5453 15.6631 15.6137 15.6948 15.6656 15.7188C15.6806 15.7258 15.6943 15.7321 15.7024 15.7403L15.6661 15.8129L15.7751 15.7403C15.7388 15.7766 15.7388 15.8129 15.7388 15.8855L15.8114 15.8129C15.7843 15.84 15.7926 15.8368 15.8061 15.8315C15.8288 15.8226 15.8661 15.808 15.7751 15.9219C15.9204 15.8492 15.993 15.8492 16.102 15.8492C16.0656 15.8492 16.0293 15.8855 16.0293 15.8855C16.1192 15.8496 16.0934 15.9116 16.0708 15.9657C16.0478 16.0208 16.0283 16.0679 16.1383 15.9945C16.2836 15.9945 16.3562 16.1398 16.3925 16.2851C16.3925 16.3075 16.4064 16.3022 16.4256 16.2949C16.4374 16.2904 16.4513 16.2851 16.4652 16.2851C16.4896 16.3583 16.5632 16.3659 16.6419 16.374C16.6803 16.378 16.72 16.3821 16.7557 16.394C16.7732 16.5163 16.841 16.5798 16.9108 16.645C16.9862 16.7155 17.0637 16.788 17.0826 16.9388L17.2279 16.7935C17.1915 16.8299 17.1189 16.9025 17.1189 16.9751C17.1442 16.9751 17.1872 16.9222 17.2232 16.8778C17.2389 16.8585 17.2532 16.8409 17.2642 16.8299L17.2279 16.9388C17.2787 16.871 17.29 16.906 17.3024 16.9442C17.3165 16.9878 17.332 17.0357 17.4095 16.9388C17.3731 17.0115 17.3731 17.0841 17.4458 17.0478C17.4458 17.0478 17.3368 17.1567 17.4095 17.1567C17.4821 17.0599 17.4902 17.0599 17.509 17.0599C17.5184 17.0599 17.5305 17.0599 17.5547 17.0478C17.5729 17.0478 17.5638 17.0841 17.5547 17.1204C17.5457 17.1567 17.5366 17.193 17.5547 17.193L17.5184 17.2294C17.5184 17.302 17.5547 17.302 17.6274 17.2657C17.6455 17.2475 17.6546 17.2294 17.6637 17.2112C17.6728 17.193 17.6819 17.1749 17.7 17.1567C17.6892 17.1784 17.6816 17.2001 17.6743 17.2208C17.6572 17.2695 17.642 17.3128 17.5911 17.3383C17.5547 17.411 17.6637 17.3746 17.7 17.302V17.2657L17.809 17.411C17.7908 17.411 17.7908 17.42 17.7908 17.4337C17.7908 17.4473 17.7908 17.4654 17.7727 17.4836C17.8453 17.411 17.9179 17.411 17.9543 17.411L17.9179 17.5199L17.9543 17.4836V17.5199L18.0269 17.4473C17.9906 17.5199 17.9906 17.5926 18.0632 17.5562H18.0995C18.1139 17.5562 18.1169 17.5732 18.1198 17.5893C18.1223 17.6033 18.1247 17.6167 18.1344 17.6175C18.1327 17.6201 18.1311 17.6228 18.1293 17.6256C18.122 17.6375 18.1134 17.6513 18.0995 17.6652C18.1359 17.7742 18.2448 17.8105 18.3538 17.8105C18.3901 17.8468 18.4627 17.8105 18.5354 17.7742C18.608 17.8105 18.717 17.9558 18.7896 18.0647L18.8622 17.9921L18.8259 18.0647C18.8816 18.0833 18.8994 18.1588 18.9179 18.2378C18.9357 18.3135 18.9543 18.3924 19.0075 18.4279L19.0438 18.3553C19.0264 18.4075 19.0508 18.4013 19.0688 18.3967C19.0884 18.3917 19.1006 18.3886 19.0438 18.4642H19.2981C19.2618 18.5006 19.2618 18.5369 19.2618 18.5369V18.5732C19.3433 18.4712 19.3333 18.4952 19.3217 18.523C19.3126 18.5447 19.3026 18.5687 19.3344 18.5369V18.5732C19.3344 18.6095 19.3707 18.5369 19.3707 18.5369C19.3707 18.5732 19.3344 18.6458 19.3344 18.6458C19.3526 18.6277 19.3616 18.6004 19.3707 18.5732C19.3798 18.546 19.3889 18.5187 19.407 18.5006C19.4276 18.4595 19.4133 18.523 19.4035 18.5662C19.396 18.5993 19.3913 18.6205 19.407 18.5732V18.6095V18.6458C19.4252 18.6095 19.4252 18.6277 19.4252 18.6458C19.4252 18.664 19.4252 18.6822 19.4434 18.6458V18.6822C19.4434 18.6822 19.4797 18.6458 19.4797 18.6822V18.7548C19.516 18.6822 19.516 18.6458 19.516 18.6095V18.7185V18.7548C19.516 18.6095 19.5523 18.7548 19.5523 18.8637C19.5782 18.8896 19.5856 18.9155 19.5878 18.9151C19.5886 18.9149 19.5886 18.9105 19.5886 18.9001V18.9364C19.5886 18.9964 19.5996 19.0013 19.6095 19.0058C19.6176 19.0094 19.625 19.0127 19.625 19.0453V18.9001C19.6506 18.9771 19.6582 18.9452 19.6604 18.9456C19.6613 18.9457 19.6613 18.9514 19.6613 18.9727C19.6873 18.9467 19.6761 18.9022 19.6676 18.8789C19.6726 18.861 19.6815 18.8561 19.6976 18.9364V18.9001C19.6976 18.8694 19.6911 18.8387 19.6864 18.8162C19.6799 18.7855 19.6766 18.7701 19.6976 18.7911V18.8274V18.8637C19.7126 18.8938 19.709 18.8741 19.7047 18.8509C19.6987 18.8182 19.6914 18.7786 19.7339 18.8637C19.7339 18.8637 19.6976 18.7911 19.6976 18.7548C19.7339 18.8274 19.7339 18.7548 19.7339 18.7548L19.7702 18.8274C19.7339 18.7548 19.7702 18.7911 19.7702 18.7911C19.7702 18.7911 19.7702 18.8274 19.8066 18.8637C19.8066 18.8637 19.8429 18.8637 19.8429 18.8274C19.8066 18.8274 19.8066 18.7911 19.8066 18.7911C19.8429 18.8274 19.8429 18.7185 19.8429 18.6822C19.8574 18.6967 19.8603 18.7112 19.8632 18.7257C19.8676 18.7475 19.8719 18.7693 19.9155 18.7911C19.9155 18.7761 19.9031 18.7548 19.8884 18.7299C19.8678 18.6946 19.8429 18.6521 19.8429 18.6095C19.8574 18.624 19.8603 18.6386 19.8632 18.6531C19.8676 18.6749 19.8719 18.6967 19.9155 18.7185L19.8792 18.5732L19.9882 18.6822C20.005 18.5809 20.1003 18.5816 20.1865 18.5822C20.2859 18.5829 20.3734 18.5835 20.315 18.4279L20.2061 18.319C20.2532 18.3504 20.2731 18.341 20.2923 18.3321C20.3176 18.3203 20.3415 18.3091 20.424 18.3916L20.4603 18.4279L20.3877 18.2826L20.4603 18.3553V18.2826C20.4603 18.3008 20.4694 18.3099 20.4785 18.319C20.4798 18.3203 20.4811 18.3215 20.4823 18.3229C20.4716 18.2915 20.4912 18.3028 20.515 18.3165C20.5477 18.3353 20.5883 18.3586 20.5693 18.2826L20.6056 18.319C20.6056 18.26 20.6375 18.2649 20.6726 18.2702C20.7023 18.2747 20.7342 18.2796 20.7509 18.2463L20.8961 18.3916C20.9284 18.3916 20.932 18.3629 20.9324 18.331L20.9688 18.3553L20.9325 18.2826L20.9688 18.319C20.9688 18.2645 20.9779 18.2645 20.9869 18.2645C20.996 18.2645 21.0051 18.2645 21.0051 18.21C21.0051 18.21 21.0414 18.2826 21.0777 18.2826C21.0777 18.2401 21.1027 18.2225 21.1233 18.2079C21.1379 18.1975 21.1504 18.1887 21.1504 18.1737L21.1867 18.21C21.1867 18.21 21.1504 18.1374 21.1141 18.101H21.0777C21.059 18.0447 21.0887 18.066 21.1218 18.0897C21.1528 18.1119 21.1867 18.1362 21.1867 18.101C21.1421 18.0565 21.1249 18.0392 21.1266 18.0242C21.1277 18.0147 21.1363 18.0061 21.1504 17.9921V18.0284C21.1855 18.0635 21.2036 18.0392 21.2171 18.0211C21.2315 18.0018 21.2406 17.9897 21.2593 18.0647C21.3138 18.092 21.307 18.0579 21.3002 18.0239C21.2979 18.0125 21.2957 18.0012 21.2957 17.9921L21.223 17.9558L21.332 17.8831C21.332 17.9088 21.3501 17.9163 21.3865 17.9314C21.4015 17.9376 21.4197 17.9451 21.4409 17.9558C21.5317 17.9921 21.5317 17.9467 21.5317 17.9058C21.5317 17.865 21.5317 17.8286 21.6225 17.8831L21.5862 17.8468C21.5681 17.8105 21.5771 17.8105 21.5862 17.8105C21.5953 17.8105 21.6044 17.8105 21.5862 17.7742C21.6311 17.8191 21.6483 17.8085 21.672 17.7938C21.6866 17.7848 21.7037 17.7742 21.7315 17.7742C21.6589 17.7015 21.6589 17.7015 21.6952 17.6652C21.7401 17.6877 21.7711 17.7101 21.814 17.7411C21.8404 17.7603 21.8715 17.7827 21.9131 17.8105C21.8915 17.7457 21.9213 17.7066 21.949 17.6702C21.9622 17.6529 21.9749 17.6362 21.9814 17.6176C21.9851 17.6249 21.9901 17.6333 21.9955 17.642C22.0081 17.6627 22.022 17.6856 22.022 17.7015C22.0724 17.7183 22.0762 17.6808 22.0801 17.6428C22.0844 17.6008 22.0887 17.5581 22.1558 17.5872C22.1817 17.6245 22.2036 17.6525 22.2036 17.5926L22.131 17.5199C22.131 17.4473 22.131 17.4473 22.1673 17.4473C22.1855 17.4836 22.1946 17.4836 22.2036 17.4836C22.2127 17.4836 22.2218 17.4836 22.24 17.5199C22.24 17.5199 22.24 17.5199 22.24 17.5199C22.24 17.4836 22.24 17.4473 22.2036 17.411L22.2763 17.4473L22.2036 17.3383C22.2261 17.3159 22.2485 17.3351 22.2796 17.3615C22.2987 17.3779 22.3212 17.3971 22.3489 17.411L22.3126 17.3383V17.302C22.3126 17.3383 22.3852 17.4473 22.4579 17.4836C22.4579 17.4726 22.4512 17.455 22.444 17.4357C22.4272 17.3913 22.4072 17.3383 22.4579 17.3383C22.4579 17.369 22.4773 17.3738 22.5024 17.38C22.5369 17.3885 22.5822 17.3996 22.6032 17.4836C22.617 17.442 22.6309 17.4216 22.6428 17.4041C22.6619 17.3759 22.6758 17.3555 22.6758 17.2657C22.7727 17.3868 22.7727 17.3141 22.7727 17.2522C22.7727 17.2322 22.7727 17.2134 22.7759 17.2025L22.8574 17.3383L22.8937 17.2657C22.8937 17.3141 22.926 17.3303 22.9583 17.3464C22.9744 17.3545 22.9906 17.3625 23.0027 17.3746L22.9743 17.2611C22.9802 17.2742 22.989 17.2885 22.9994 17.3053C23.0112 17.3245 23.0251 17.3469 23.039 17.3746C23.0753 17.3746 23.0753 17.3746 23.0753 17.3383L23.1116 17.302C23.126 17.3163 23.129 17.3363 23.1319 17.3553C23.1363 17.3843 23.1403 17.411 23.1843 17.411C23.1843 17.411 23.2206 17.3746 23.1843 17.3383L23.2206 17.3746C23.2206 17.3533 23.208 17.3193 23.1949 17.2839C23.1634 17.1989 23.1288 17.1055 23.2569 17.1567C23.2362 17.1982 23.251 17.216 23.2743 17.244C23.2918 17.2649 23.314 17.2916 23.3296 17.3383C23.3296 17.2985 23.3405 17.3133 23.3563 17.3348C23.3694 17.3524 23.3858 17.3746 23.4022 17.3746L23.2932 17.2294C23.3363 17.2078 23.3666 17.2501 23.3992 17.2957C23.4217 17.327 23.4452 17.3599 23.4748 17.3746C23.4748 17.3608 23.4854 17.3575 23.4945 17.3547C23.5091 17.3502 23.5197 17.3469 23.4748 17.302C23.4874 17.302 23.4957 17.302 23.5026 17.305C23.5155 17.3108 23.5238 17.3272 23.5475 17.3746C23.6201 17.3746 23.5475 17.2657 23.5112 17.2294C23.6233 17.2668 23.6393 17.256 23.6531 17.2467C23.6661 17.238 23.6773 17.2304 23.7654 17.2657C23.8017 17.3383 23.8743 17.4836 23.7291 17.3746C23.7564 17.4293 23.8455 17.5252 23.8724 17.5227C23.8692 17.5421 23.8607 17.5562 23.838 17.5562C23.8017 17.4836 23.7291 17.3746 23.6927 17.4473C23.7069 17.4896 23.7429 17.5319 23.7753 17.57C23.8263 17.6299 23.8683 17.6793 23.8017 17.7015H23.7654C23.7654 17.6877 23.7707 17.6791 23.7752 17.6718C23.7825 17.6599 23.7878 17.6513 23.7654 17.6289C23.7059 17.5495 23.7005 17.5677 23.6961 17.5828C23.6924 17.5953 23.6894 17.6057 23.6564 17.5562C23.6161 17.5562 23.6318 17.6123 23.6475 17.6683C23.66 17.7132 23.6726 17.758 23.6564 17.7742C23.5781 17.735 23.5737 17.7064 23.5692 17.6769C23.5653 17.6518 23.5613 17.626 23.5112 17.5926L23.4748 17.6289C23.4748 17.5896 23.4429 17.5715 23.4078 17.5517C23.3873 17.5401 23.3658 17.528 23.3489 17.5106C23.3799 17.5563 23.375 17.5657 23.371 17.5732C23.366 17.5828 23.3626 17.5893 23.4385 17.6652C23.4313 17.6796 23.4255 17.6983 23.4195 17.7179C23.395 17.7971 23.3661 17.8906 23.2206 17.7742C23.2401 17.8326 23.2596 17.8388 23.2735 17.8432C23.2854 17.847 23.2932 17.8495 23.2932 17.8831C23.2461 17.8595 23.2142 17.8819 23.1877 17.9005C23.1734 17.9105 23.1607 17.9194 23.148 17.9194C23.1116 17.8468 23.0753 17.8105 23.0753 17.8468C23.1116 17.8831 23.148 17.9194 23.1116 17.9558L23.039 17.8831C23.039 17.9194 23.039 17.9194 23.0753 17.9558L23.0027 17.9194L23.0317 18.0065C23.0315 18.0112 23.0332 18.0158 23.0364 18.0205L23.039 18.0284C23.0165 18.006 23.008 18.0113 22.9961 18.0186C22.9888 18.0231 22.9802 18.0284 22.9664 18.0284C22.9664 18.0526 22.9986 18.0768 23.0309 18.101C23.0471 18.1131 23.0632 18.1253 23.0753 18.1374H23.0027V18.101C22.9868 18.101 22.9638 18.0871 22.9431 18.0745C22.9166 18.0583 22.8937 18.0443 22.8937 18.0647C22.9134 18.1041 22.9438 18.1222 22.9675 18.1362C22.9875 18.148 23.0027 18.1571 23.0027 18.1737C22.9769 18.1479 22.9512 18.1313 22.9271 18.1158C22.8831 18.0874 22.8445 18.0624 22.8211 17.9921C22.7848 17.9194 22.7484 17.9558 22.7848 17.9921C22.8323 18.0238 22.8314 18.0555 22.8304 18.0903C22.8293 18.1309 22.828 18.1756 22.9038 18.2292C22.881 18.2328 22.93 18.3553 22.93 18.3553C22.9509 18.3762 22.9598 18.385 22.9705 18.3888C22.9784 18.3916 22.9872 18.3916 23.0027 18.3916V18.4279L23.0753 18.4642C23.0027 18.4642 22.9664 18.4642 22.8937 18.3553C22.8713 18.4002 22.8766 18.4173 22.8839 18.441C22.8884 18.4557 22.8937 18.4728 22.8937 18.5006C22.8937 18.4279 22.8574 18.4279 22.8574 18.4279C22.8574 18.4098 22.8483 18.3825 22.8392 18.3553C22.8302 18.328 22.8211 18.3008 22.8211 18.2826C22.7848 18.319 22.6395 18.101 22.6395 18.0647C22.6236 18.0647 22.6007 18.0508 22.5799 18.0381C22.5534 18.022 22.5305 18.008 22.5305 18.0284L22.6032 18.1737L22.4942 18.0647C22.4579 18.0647 22.4579 18.1374 22.4942 18.1737C22.5419 18.1975 22.6051 18.2995 22.6533 18.3771C22.6785 18.4178 22.6996 18.4517 22.7121 18.4642C22.6758 18.4642 22.6032 18.3916 22.6032 18.3916C22.5893 18.3777 22.5807 18.3638 22.5734 18.352C22.5615 18.3328 22.553 18.319 22.5305 18.319C22.5469 18.3682 22.5337 18.3804 22.5243 18.389C22.5129 18.3994 22.5072 18.4046 22.5668 18.4642H22.5305C22.5741 18.486 22.5785 18.5078 22.5828 18.5296C22.5857 18.5441 22.5886 18.5587 22.6032 18.5732L22.5305 18.5369L22.6032 18.6822C22.585 18.664 22.5578 18.664 22.526 18.664C22.4942 18.664 22.4579 18.664 22.4216 18.6458V18.7548C22.3852 18.7548 22.3489 18.7185 22.3171 18.6867C22.2854 18.6549 22.2581 18.6277 22.24 18.6458C22.2932 18.6991 22.2857 18.7176 22.2769 18.7396C22.2677 18.7627 22.2569 18.7895 22.3126 18.8637C22.2417 18.7928 22.2314 18.8085 22.2225 18.8219C22.2131 18.836 22.2054 18.8477 22.131 18.7548C22.1011 18.7847 22.0712 18.8146 22.1223 18.9052L22.1045 18.8784C22.1098 18.9001 22.0584 18.9001 22.0584 18.9001C22.0283 18.87 22.0169 18.8773 22.0035 18.8858C21.9847 18.8979 21.9619 18.9125 21.8768 18.8274C21.8507 18.8535 21.8996 18.8984 21.9426 18.935C21.8987 18.9037 21.8768 18.9162 21.8768 18.9727C21.8768 18.9837 21.8734 18.998 21.8698 19.0137C21.8641 19.0381 21.8577 19.0657 21.862 19.0888L21.8041 19.0453C21.8645 19.1259 21.8357 19.1171 21.7979 19.1057C21.7676 19.0965 21.7315 19.0856 21.7315 19.118L21.6952 19.0817L21.6589 19.118C21.7014 19.1605 21.744 19.1906 21.7792 19.2156C21.8041 19.2332 21.8254 19.2482 21.8405 19.2633C21.7678 19.3359 21.5862 19.2269 21.5136 19.118C21.5327 19.1562 21.5417 19.1743 21.546 19.1935C21.5499 19.2108 21.5499 19.2289 21.5499 19.2633H21.5862C21.5542 19.2633 21.5715 19.3055 21.5947 19.3621C21.6242 19.4341 21.6632 19.5292 21.6225 19.5901C21.6589 19.6446 21.6861 19.6446 21.7088 19.6446C21.7315 19.6446 21.7497 19.6446 21.7678 19.6991C21.7678 19.7354 21.6952 19.8081 21.6225 19.7354C21.5826 19.6555 21.5536 19.6415 21.5236 19.627C21.499 19.6151 21.4736 19.6029 21.4409 19.5538C21.4155 19.5793 21.4436 19.6227 21.4752 19.6713C21.4756 19.6719 21.4759 19.6724 21.4762 19.6729C21.4306 19.6161 21.3565 19.542 21.332 19.5175L21.2593 19.5538C21.2957 19.5901 21.332 19.6265 21.332 19.6628C21.2957 19.6265 21.2593 19.6265 21.2593 19.6628C21.223 19.6265 21.1867 19.6265 21.1504 19.6265C21.1504 19.6403 21.161 19.6648 21.17 19.6857C21.1847 19.7195 21.1953 19.744 21.1504 19.6991C21.1867 19.6991 21.1504 19.6628 21.1504 19.6628L21.0777 19.6265C21.1374 19.6662 21.1426 19.706 21.147 19.7398C21.1507 19.7678 21.1538 19.7916 21.1867 19.8081C21.223 19.8807 21.1867 19.8807 21.1504 19.8807C21.1504 19.8444 21.1141 19.8081 21.0777 19.7717C21.0639 19.7856 21.05 19.7942 21.0381 19.8015C21.019 19.8134 21.0051 19.8219 21.0051 19.8444C21.0261 19.8863 21.0349 19.8919 21.0527 19.9032C21.0656 19.9114 21.0834 19.9226 21.1141 19.9533L21.0414 19.9897C21.0414 20.026 21.0596 20.0351 21.0777 20.0441C21.0959 20.0532 21.1141 20.0623 21.1141 20.0986C21.0777 20.0623 20.9688 19.9533 20.9325 19.9897C20.8961 19.9533 20.8598 19.917 20.9325 19.9533C20.9325 19.9309 20.9186 19.9223 20.8994 19.9105C20.8876 19.9031 20.8737 19.8946 20.8598 19.8807C20.8649 19.901 20.8707 19.9221 20.8766 19.9436C20.9129 20.0754 20.9535 20.2228 20.8598 20.3165C20.8434 20.3657 20.8048 20.3705 20.7741 20.3743C20.7367 20.3789 20.711 20.3821 20.7509 20.4618L20.6782 20.5708C20.6587 20.512 20.6813 20.4955 20.7006 20.4814C20.7172 20.4693 20.7313 20.459 20.7145 20.4255C20.6627 20.4428 20.6438 20.4682 20.6303 20.4863C20.6155 20.5063 20.6074 20.5172 20.5693 20.4981C20.5752 20.4922 20.582 20.4863 20.589 20.4803C20.6253 20.4491 20.6664 20.4137 20.6056 20.3529C20.567 20.3721 20.5592 20.4119 20.5494 20.4612C20.5408 20.5049 20.5307 20.556 20.4966 20.6071C20.4966 20.6434 20.5329 20.6797 20.5329 20.6797C20.4917 20.6797 20.4622 20.7149 20.431 20.7519C20.4074 20.78 20.3827 20.8093 20.3513 20.825V20.9703C20.4301 21.0096 20.4448 20.9637 20.4591 20.9191C20.4712 20.8814 20.483 20.8447 20.5329 20.8613C20.5329 20.9267 20.4937 20.9529 20.4545 20.979C20.4283 20.9964 20.4022 21.0139 20.3877 21.0429C20.3322 20.9319 20.2979 20.9057 20.2686 20.8834C20.2595 20.8764 20.251 20.8699 20.2424 20.8613C20.2154 20.9422 20.1684 20.923 20.1311 20.9077C20.1182 20.9025 20.1065 20.8976 20.0971 20.8976C20.079 20.9703 20.088 20.9703 20.0971 20.9703C20.1062 20.9703 20.1153 20.9703 20.0971 21.0429C20.0404 21.1185 20.0132 20.9681 19.9951 20.8676C19.9783 20.775 19.9693 20.7248 19.9518 20.934L19.9882 21.0429C19.9606 21.0429 19.9121 21.0638 19.9062 21.1215C19.8988 21.113 19.8885 21.1272 19.8806 21.138C19.8688 21.1541 19.8625 21.1628 19.8792 21.0792V21.0066C19.8554 20.8877 19.8161 20.9089 19.7815 20.9276C19.777 20.93 19.7726 20.9324 19.7684 20.9344C19.7702 20.9246 19.7702 20.9111 19.7702 20.8976C19.7405 20.8976 19.7351 20.9098 19.7341 20.9342C19.7339 20.9396 19.7339 20.9455 19.7339 20.9521C19.7339 20.9884 19.7339 21.0429 19.6976 21.1156C19.6976 21.1249 19.6976 21.1288 19.6975 21.1288C19.697 21.1288 19.6929 20.948 19.6613 21.0429C19.6381 21.1124 19.6445 21.1523 19.6521 21.2004C19.6565 21.2277 19.6613 21.2577 19.6613 21.2972L19.625 21.3335V21.5151C19.625 21.4424 19.5886 21.4424 19.5523 21.4424C19.5886 21.4061 19.625 21.2972 19.625 21.1519V21.0429C19.6613 21.1156 19.6613 21.0066 19.6613 20.934C19.6613 20.8976 19.625 20.934 19.625 20.9703C19.6146 20.9807 19.6042 21.0029 19.5938 21.0251C19.5679 21.0807 19.5419 21.1363 19.516 21.0066C19.516 21.0597 19.516 21.0869 19.5202 21.1135C19.5246 21.1414 19.5337 21.1686 19.5523 21.2245C19.5327 21.2049 19.5236 21.2278 19.5137 21.2529C19.5054 21.2742 19.4963 21.2972 19.4797 21.2972V21.2608C19.4558 21.237 19.4359 21.2014 19.4173 21.1682C19.3793 21.1003 19.3469 21.0424 19.2981 21.1156V21.0792C19.2244 21.0056 19.2172 21.0149 19.1977 21.0399C19.1884 21.0519 19.1763 21.0675 19.1528 21.0792V21.0429C19.131 20.9775 19.1092 20.9906 19.0874 21.0037C19.0729 21.0124 19.0584 21.0211 19.0438 21.0066C19.0177 21.0588 19.0292 21.1111 19.0377 21.1498C19.041 21.1649 19.0438 21.178 19.0438 21.1882C19.0317 21.1882 19.0156 21.2084 18.9995 21.2286C18.9672 21.2689 18.9349 21.3093 18.9349 21.1882C18.9712 21.2245 19.0075 21.2608 19.0075 21.1882C18.9862 21.1669 18.9712 21.1488 18.9587 21.1337C18.9287 21.0974 18.9136 21.0792 18.8622 21.0792L18.9349 21.0066C18.8941 20.9454 18.8762 20.9644 18.8555 20.9864C18.8393 21.0035 18.8215 21.0225 18.7896 21.0066C18.7896 20.9703 18.7896 20.934 18.7533 20.8976L18.717 20.9703C18.696 20.9074 18.6992 20.8929 18.7057 20.8639C18.7105 20.8427 18.717 20.8138 18.717 20.7524C18.6806 20.716 18.5717 20.825 18.5354 20.8613C18.5354 20.7827 18.5034 20.7466 18.4684 20.707C18.4387 20.6735 18.4067 20.6374 18.3901 20.5708C18.3815 20.5708 18.3709 20.5728 18.3597 20.5749C18.3235 20.5818 18.2811 20.5899 18.2811 20.5344C18.2641 20.5855 18.2471 20.5887 18.2264 20.5926C18.2028 20.5971 18.1745 20.6025 18.1359 20.6797C18.1359 20.7557 18.1756 20.7224 18.2031 20.6993C18.2282 20.6783 18.2431 20.6658 18.2085 20.7524C18.1915 20.7694 18.1745 20.7625 18.1537 20.7541C18.1366 20.7472 18.117 20.7392 18.0928 20.7428C18.0202 20.6456 17.9146 20.6808 17.809 20.716C17.7363 20.7524 17.6637 20.7524 17.6274 20.7524C17.5911 20.7524 17.5547 20.716 17.5547 20.6797L17.6274 20.6071C17.6274 20.5708 17.6092 20.5889 17.5865 20.6116C17.5638 20.6343 17.5366 20.6616 17.5184 20.6434L17.3731 20.5344C17.4646 20.4887 17.4553 20.4574 17.4449 20.4223C17.4415 20.4109 17.438 20.3991 17.4379 20.3862C17.4429 20.3823 17.4458 20.3734 17.4458 20.3529H17.3731L17.4821 20.2076C17.4458 20.1713 17.3731 20.1713 17.2642 20.2439C17.1875 20.1416 17.0207 20.0933 16.8653 20.0483C16.8001 20.0295 16.7368 20.0111 16.6831 19.9897C16.6445 19.9704 16.6673 19.9102 16.681 19.8743C16.693 19.8424 16.6979 19.8295 16.6468 19.8807C16.6468 19.8807 16.6831 19.8444 16.6831 19.8081C16.6687 19.7794 16.6488 19.7564 16.6298 19.7346C16.6007 19.7011 16.5741 19.6704 16.5741 19.6265C16.541 19.643 16.523 19.6596 16.5132 19.6761C16.5193 19.6495 16.5219 19.6265 16.5015 19.6265C16.4652 19.6991 16.3925 19.6991 16.3562 19.6628C16.3839 19.6489 16.4011 19.6456 16.4157 19.6428C16.4394 19.6383 16.4566 19.635 16.5015 19.5901C16.5015 19.5308 16.4773 19.5442 16.4288 19.5708C16.418 19.5768 16.4058 19.5835 16.3925 19.5901L16.4652 19.5175C16.4147 19.5343 16.4188 19.5045 16.4232 19.4711C16.4284 19.4324 16.4343 19.389 16.3562 19.4085C16.3154 19.4289 16.3204 19.4379 16.3262 19.4482C16.3308 19.4563 16.3358 19.4653 16.3199 19.4812C16.2472 19.4993 16.2291 19.4449 16.2109 19.3904C16.1928 19.3359 16.1746 19.2814 16.102 19.2996L16.1383 19.2633L16.102 19.2269C16.1224 19.2269 16.1313 19.204 16.1416 19.1775C16.1497 19.1568 16.1587 19.1339 16.1746 19.118C16.2109 19.0817 16.1383 19.0817 16.1383 19.0817C16.0913 19.1287 16.0713 19.1756 16.0551 19.2139C16.0336 19.2643 16.0186 19.2996 15.9567 19.2996C16.0167 19.2396 15.9996 19.2236 15.9843 19.2093C15.9717 19.1976 15.9603 19.187 15.993 19.1543C15.9506 19.0696 15.8712 19.0713 15.7908 19.0731C15.7333 19.0744 15.6752 19.0756 15.6298 19.0453C15.654 18.9727 15.6782 18.9324 15.7024 18.892C15.7145 18.8718 15.7267 18.8516 15.7388 18.8274L15.6661 18.8637V18.8274C15.6661 18.7557 15.5599 18.8256 15.5572 18.8973C15.5561 18.8972 15.5549 18.897 15.5537 18.8969C15.5182 18.8924 15.4807 18.8877 15.5208 18.8274C15.5208 18.8274 15.5572 18.8274 15.5572 18.7911H15.5208L15.4482 18.9001C15.3392 18.7911 15.194 18.7185 15.085 18.6822C15.085 18.6531 15.0734 18.624 15.0618 18.595C15.0443 18.5514 15.0269 18.5078 15.0487 18.4642C15.0124 18.3916 14.9034 18.3916 14.8308 18.3916C14.8456 18.362 14.8242 18.3565 14.801 18.3506C14.7673 18.342 14.7299 18.3324 14.7945 18.2463L14.7218 18.2826L14.7581 18.2463C14.7173 18.2667 14.7224 18.2527 14.7282 18.2366C14.7327 18.224 14.7377 18.21 14.7218 18.21L14.6492 18.2826C14.6492 18.2449 14.6198 18.2366 14.5865 18.2271C14.5556 18.2183 14.5214 18.2086 14.5039 18.1737V18.1374C14.49 18.1374 14.4762 18.1427 14.4643 18.1472C14.4451 18.1545 14.4313 18.1598 14.4313 18.1374L14.4676 18.0647C14.299 18.1279 14.2405 18.0445 14.1785 17.9562C14.1336 17.8922 14.0869 17.8257 13.9954 17.8105C14.0281 17.7125 13.9873 17.71 13.9425 17.7072C13.8876 17.7037 13.8265 17.6999 13.8865 17.5199C13.8501 17.4473 13.7412 17.5926 13.7775 17.6289C13.6322 17.5562 13.5142 17.4382 13.3962 17.3202C13.2781 17.2021 13.1601 17.0841 13.0148 17.0115C12.9724 16.9267 12.9026 16.853 12.8331 16.7796C12.7323 16.673 12.632 16.5671 12.6172 16.4292C12.6294 16.4162 12.6418 16.4038 12.6516 16.394C12.6399 16.394 12.6282 16.394 12.6153 16.3952C12.6153 16.3948 12.6153 16.3944 12.6153 16.394C12.6148 16.3945 12.6144 16.3949 12.614 16.3954C12.587 16.3981 12.5548 16.4061 12.5063 16.4303V16.503C12.4784 16.4331 12.4236 16.3902 12.3688 16.3472C12.3267 16.3141 12.2845 16.2811 12.2546 16.2358C12.2285 16.3279 12.238 16.4476 12.2458 16.5449C12.2489 16.5848 12.2518 16.6209 12.2518 16.6499H12.1792L12.2518 16.7588C12.2246 16.7588 12.1973 16.8201 12.1701 16.8814C12.161 16.9018 12.1519 16.9223 12.1429 16.9404L12.2155 16.9767C12.1885 16.9632 12.1966 16.9849 12.2082 17.0156C12.2277 17.0674 12.2569 17.1448 12.1429 17.122C12.1876 17.2264 12.2201 17.3124 12.2504 17.3926C12.2939 17.5078 12.3329 17.611 12.3971 17.7395C12.3734 17.7395 12.3496 17.7395 12.336 17.7293C12.3672 17.8116 12.3276 17.8465 12.2886 17.8808C12.2393 17.9242 12.191 17.9667 12.2881 18.1027C12.3608 18.5022 12.2881 18.9017 12.2155 19.2286C12.2155 19.2649 12.2246 19.2921 12.2337 19.3194C12.2427 19.3466 12.2518 19.3738 12.2518 19.4102L12.3245 19.2286L12.2881 19.5191L12.2518 19.4828C12.2518 19.6099 12.27 19.7552 12.2881 19.9005C12.3063 20.0457 12.3245 20.191 12.3245 20.3181C12.2778 20.5516 12.2711 20.8051 12.2644 21.0586C12.2555 21.3966 12.2466 21.7346 12.1429 22.0252L12.2881 22.0978C12.2746 22.1113 12.2561 22.1198 12.2362 22.1289C12.2028 22.1442 12.1657 22.1612 12.1429 22.2068C12.1429 22.2794 12.2518 22.3157 12.2881 22.3157L12.2155 22.4247C12.2834 22.4417 12.264 22.5142 12.2426 22.5941C12.2183 22.6851 12.1914 22.7855 12.2881 22.8242C12.2155 22.8605 12.1792 23.0421 12.2518 23.1148C12.2518 23.1269 12.2397 23.1269 12.2249 23.1269C12.1953 23.1269 12.155 23.1269 12.1792 23.2237C12.2715 23.2006 12.2758 23.2216 12.2853 23.2679C12.2908 23.2944 12.298 23.3293 12.3245 23.369C12.3245 23.4191 12.2937 23.4539 12.264 23.4874C12.2292 23.5267 12.1959 23.5644 12.2155 23.6232L12.1792 23.5869C12.1429 23.6232 12.1792 23.8048 12.2155 23.8775C12.2325 23.8945 12.2416 23.8716 12.2501 23.85C12.2598 23.8255 12.2688 23.8026 12.2881 23.8411C12.2804 23.8489 12.2727 23.8598 12.2647 23.8713C12.2348 23.9139 12.2001 23.9633 12.1429 23.8775C12.1065 23.9501 12.1429 24.0954 12.2155 24.0954L12.2518 24.0227L12.2155 24.4949C12.2155 24.4329 12.2037 24.4532 12.1869 24.4822C12.1742 24.5042 12.1585 24.5312 12.1429 24.5312C12.2148 24.5552 12.2392 24.6425 12.258 24.7095C12.2676 24.744 12.2758 24.7731 12.2881 24.7855H12.2155L12.2518 24.8218L12.2155 24.8581L12.2881 25.0034C12.2838 25.0121 12.2789 25.0213 12.2738 25.0309C12.2365 25.1016 12.1879 25.1937 12.2518 25.2576L12.2881 25.185C12.2881 25.2394 12.27 25.2667 12.2609 25.2803C12.2518 25.2939 12.2518 25.2939 12.2881 25.2939H12.2155C12.1792 25.3666 12.2518 25.4029 12.3245 25.4029C12.3245 25.461 12.4174 25.4494 12.4732 25.4424C12.4872 25.4407 12.4988 25.4392 12.506 25.4392C12.615 25.5118 12.8692 25.6571 13.0508 25.6934L13.1235 25.6208V25.6934C13.178 25.7116 13.2415 25.7298 13.3051 25.7479C13.3686 25.7661 13.4322 25.7842 13.4867 25.8024C13.632 25.8387 13.8136 25.875 13.9588 25.875V25.8024C14.028 25.837 14.0642 25.8222 14.0871 25.8129C14.1123 25.8026 14.1214 25.7989 14.1404 25.875C14.2099 25.8635 14.2757 25.8556 14.3402 25.8478C14.4778 25.8313 14.6094 25.8156 14.7579 25.7661C14.7579 25.8387 14.8224 25.8468 14.887 25.8549C14.9193 25.8589 14.9516 25.8629 14.9758 25.875C15.0586 25.7715 15.106 25.786 15.1652 25.8042C15.2097 25.8179 15.2609 25.8336 15.339 25.8024L15.3027 25.8387C15.3626 25.8387 15.4006 25.8277 15.4347 25.8178C15.4626 25.8097 15.4879 25.8024 15.5206 25.8024V25.8387C15.6077 25.8605 15.6557 25.8431 15.7036 25.8256C15.7356 25.814 15.7675 25.8024 15.8111 25.8024C15.859 25.8184 15.8578 25.8343 15.8568 25.8472C15.8555 25.8636 15.8546 25.875 15.9564 25.875C15.9564 25.8142 16.0329 25.7788 16.1004 25.7476C16.1135 25.7415 16.1262 25.7357 16.138 25.7298C16.1133 25.7051 16.1222 25.7097 16.1489 25.7238C16.2008 25.7512 16.3203 25.814 16.3922 25.7661L16.3559 25.8024H16.5012C16.5824 25.7862 16.6273 25.799 16.6716 25.8116C16.7264 25.8272 16.7802 25.8426 16.9007 25.8024L16.8644 25.8387H17.5182V25.875L17.845 25.8387L17.8087 25.9114H17.954V25.9477C18.0761 25.8663 18.1754 25.9103 18.2838 25.9584C18.3689 25.9961 18.4596 26.0363 18.5714 26.0203L18.5351 26.0566C18.5569 26.1002 18.6179 26.1046 18.6789 26.1089C18.7196 26.1118 18.7603 26.1147 18.7893 26.1293C18.7984 26.1202 18.8075 26.1066 18.8177 26.0913C18.8484 26.0453 18.8892 25.984 18.9709 25.984L18.8983 26.0566H19.0073C19.0073 26.1249 19.05 26.1219 19.0908 26.119C19.1152 26.1173 19.139 26.1157 19.1525 26.1293C19.2304 26.1293 19.2039 26.1084 19.1794 26.0891C19.1581 26.0723 19.1383 26.0566 19.1889 26.0566C19.1725 26.1056 19.2223 26.0959 19.2853 26.0835C19.3625 26.0684 19.4594 26.0493 19.4794 26.1293L19.8063 26.0566L19.77 26.093C19.7881 26.0839 19.8063 26.0725 19.8244 26.0612C19.8789 26.0271 19.9334 25.9931 19.9879 26.0203C19.9879 26.0203 19.8789 26.0203 19.8789 26.0566C19.9399 26.0719 20.0136 26.0487 20.0814 26.0275C20.1751 25.9981 20.2574 25.9723 20.2784 26.0566C20.3511 26.0566 20.3511 25.984 20.3511 25.9477C20.3511 26.0032 20.4783 25.9951 20.5869 25.9882C20.6204 25.986 20.6522 25.984 20.678 25.984L20.6416 26.0566C20.667 26.0313 20.7099 26.0413 20.7459 26.0497C20.7616 26.0533 20.7759 26.0566 20.7869 26.0566C20.7506 26.0566 20.7143 26.0566 20.7143 26.093C20.7627 26.093 20.8152 26.097 20.8676 26.101C20.9725 26.1091 21.0775 26.1172 21.1501 26.093V26.0566C21.2591 26.093 21.5496 26.0566 21.7312 26.0203C21.7198 26.0318 21.6975 26.0396 21.6757 26.0473C21.6286 26.0639 21.584 26.0795 21.6586 26.1293C21.7494 26.1111 21.7675 26.0839 21.7857 26.0566C21.8039 26.0294 21.822 26.0022 21.9128 25.984C21.9128 25.997 21.8988 26.0054 21.8841 26.0141C21.858 26.0297 21.8299 26.0464 21.8765 26.093L22.0218 25.984V26.0566C22.1941 26.0253 22.3664 26.0683 22.5329 26.1099C22.7524 26.1646 22.9618 26.2169 23.1477 26.093L23.1114 25.984C23.178 26.034 23.237 26.0381 23.2918 26.0419C23.3566 26.0465 23.4156 26.0506 23.4746 26.1293L23.5109 26.093L23.5472 26.1293L23.6198 26.0203V26.093L23.6925 26.0566V26.1293C23.7833 26.0748 23.8196 26.102 23.8559 26.1293C23.8878 26.1532 23.9197 26.1771 23.9885 26.1457C23.983 26.1553 23.983 26.1656 23.983 26.1656C24.1065 26.1039 24.1716 26.1237 24.2446 26.1459C24.3004 26.163 24.3607 26.1813 24.4552 26.1656L24.4189 26.2382C24.4915 26.2624 24.5319 26.2544 24.5722 26.2463C24.5924 26.2423 24.6126 26.2382 24.6368 26.2382L24.6005 26.2019L24.7457 26.2746L24.8184 26.2382V26.2746C24.9168 26.2582 24.9485 26.264 24.9738 26.2686C25.0045 26.2742 25.0257 26.2781 25.1453 26.2382C25.1089 26.2746 25.0726 26.3109 25.1453 26.3472C25.1634 26.329 25.2179 26.329 25.2815 26.329C25.3332 26.329 25.3909 26.329 25.44 26.3193C25.4377 26.33 25.4721 26.3472 25.4721 26.3472C25.535 26.3472 25.5978 26.2929 25.5901 26.2547C25.5939 26.2596 25.5975 26.2648 25.601 26.27C25.6212 26.2991 25.6407 26.3273 25.6901 26.3109C25.6901 26.2965 25.6901 26.2849 25.6906 26.2756C25.7083 26.3085 25.7646 26.3027 25.8086 26.2981C25.8589 26.2929 25.8932 26.2894 25.8353 26.3472C25.8776 26.3684 25.9076 26.3525 25.9397 26.3356C25.9626 26.3235 25.9866 26.3109 26.0169 26.3109L25.9443 26.2746C26.0532 26.2382 26.1622 26.2382 26.1622 26.2746V26.3835L26.2348 26.3472L26.1985 26.3835C26.3075 26.438 26.362 26.3926 26.4164 26.3472C26.4709 26.3018 26.5254 26.2564 26.6344 26.3109L26.598 26.2382L26.6344 26.2746C26.6487 26.2602 26.6687 26.2572 26.6876 26.2543C26.7167 26.2499 26.7433 26.2459 26.7433 26.2019C26.7651 26.2455 26.8261 26.2106 26.8871 26.1758C26.9278 26.1525 26.9685 26.1293 26.9976 26.1293C26.9719 26.0779 26.9825 26.0629 27.0038 26.0328C27.0126 26.0203 27.0232 26.0053 27.0339 25.984C27.1189 25.9556 27.1597 25.9716 27.2254 25.9972C27.2438 26.0044 27.2642 26.0124 27.2881 26.0203C27.2881 25.9425 27.3194 25.875 27.3484 25.8125C27.3736 25.7583 27.3971 25.7077 27.3971 25.6571C27.3971 25.6571 27.4697 25.6571 27.4697 25.7298C27.5236 25.7028 27.5175 25.6559 27.5108 25.6038C27.5085 25.5857 27.506 25.5669 27.506 25.5482C27.506 25.5294 27.5036 25.5131 27.5013 25.4973C27.4945 25.4519 27.4885 25.4111 27.5424 25.3302H27.4697C27.4697 25.2607 27.5113 25.2661 27.5468 25.2706C27.5853 25.2756 27.6165 25.2796 27.5787 25.185L27.506 25.2213V25.0034C27.5208 25.0182 27.5236 24.9968 27.5265 24.9736C27.5308 24.9399 27.5356 24.9025 27.5787 24.967V24.8581H27.615C27.615 24.7855 27.5787 24.7128 27.5424 24.7491L27.615 24.6765L27.506 24.6402C27.506 24.5805 27.5169 24.5753 27.5387 24.5649C27.5567 24.5563 27.5821 24.5442 27.615 24.4949L27.5424 24.3859H27.5787L27.5424 24.277C27.5787 24.3496 27.6876 24.3859 27.7239 24.3133C27.7239 24.2645 27.7021 24.2303 27.6813 24.1976C27.6555 24.1573 27.6312 24.1192 27.6513 24.0591C27.6866 24.165 27.7048 24.125 27.7266 24.0768C27.7497 24.0258 27.7769 23.9658 27.8329 24.0591C27.7975 23.935 27.788 23.8541 27.7791 23.7786C27.7698 23.6993 27.7611 23.6258 27.7239 23.5143C27.8655 23.5379 27.8232 23.4082 27.7861 23.2946C27.7747 23.2598 27.7639 23.2266 27.7589 23.1996C27.7562 23.2156 27.7481 23.1994 27.7239 23.1511L27.8329 23.1148L27.7966 22.8605C27.8408 22.9269 27.8716 22.8855 27.8971 22.8511C27.9135 22.8291 27.9277 22.81 27.9419 22.8242L27.8329 22.6426C27.8511 22.6608 27.8783 22.6789 27.9055 22.6971C27.9328 22.7152 27.96 22.7334 27.9782 22.7516C28.0145 22.7152 28.0145 22.6789 27.9782 22.6426V22.461C27.9922 22.461 28.0061 22.4879 28.0201 22.5147C28.0424 22.5577 28.0648 22.6007 28.0871 22.5336C28.0871 22.5064 28.0871 22.4589 28.0719 22.4214C28.0799 22.4247 28.0871 22.4247 28.0871 22.4247C28.0669 22.3842 28.0353 22.3465 28.0035 22.3085C27.9212 22.2102 27.8371 22.1097 27.9419 21.9525C27.9419 22.0648 27.9696 22.066 28.008 22.0677C28.0317 22.0688 28.0594 22.0701 28.0871 22.0978C28.0661 22.0137 28.0816 22.0148 28.1055 22.0166C28.1228 22.0178 28.1445 22.0194 28.1598 21.9888L28.0145 21.9525C28.0381 21.8582 28.0923 21.871 28.1373 21.8817C28.1617 21.8875 28.1834 21.8926 28.1961 21.8799C28.1817 21.8655 28.1787 21.8339 28.1758 21.8034C28.1715 21.7569 28.1673 21.7127 28.1235 21.7346C28.1235 21.6983 28.1235 21.5893 28.1961 21.6983C28.2233 21.5893 28.1689 21.5621 28.1246 21.54C28.1098 21.5326 28.0962 21.5258 28.0871 21.5167C28.1598 21.3896 28.1598 21.3442 28.1598 21.2988C28.1598 21.2534 28.1598 21.208 28.2324 21.0809C28.2687 21.1172 28.414 21.3351 28.2687 21.4077C28.3348 21.4738 28.461 21.3896 28.4286 21.2919C28.4588 21.3541 28.4817 21.4126 28.4503 21.4441C28.4397 21.4441 28.4291 21.4433 28.4188 21.4425C28.3581 21.4381 28.3051 21.4342 28.3051 21.5893C28.3369 21.6689 28.3896 21.6718 28.4357 21.6743C28.495 21.6776 28.5434 21.6803 28.523 21.8436L28.4867 21.8799C28.4867 21.8436 28.4867 21.8072 28.4503 21.7709C28.3943 21.7523 28.4055 21.7912 28.4148 21.8235C28.4236 21.8541 28.4307 21.8789 28.3777 21.8436C28.3351 21.9501 28.38 22.0192 28.4244 22.0874C28.4557 22.1354 28.4867 22.1831 28.4867 22.2431C28.4253 22.3249 28.3985 22.2685 28.3738 22.2166C28.3547 22.1763 28.3368 22.1387 28.3051 22.1704V22.2794C28.2572 22.1357 28.2093 22.1973 28.1718 22.2455C28.1578 22.2636 28.1452 22.2797 28.1347 22.2826C28.1937 22.3013 28.2046 22.3402 28.2129 22.3698C28.2226 22.4045 28.2287 22.4265 28.3051 22.3884C28.3107 22.422 28.318 22.4592 28.3258 22.4983C28.3681 22.7124 28.4223 22.9863 28.2687 23.0784C28.3039 23.1136 28.322 23.0892 28.3355 23.0712C28.3499 23.0519 28.3589 23.0397 28.3777 23.1148C28.3051 23.1874 28.3051 23.369 28.3051 23.4779C28.2324 23.4416 28.2324 23.4779 28.2324 23.5506C28.2324 23.5627 28.2405 23.5667 28.2513 23.5721C28.2728 23.5829 28.3051 23.599 28.3051 23.6959C28.2847 23.6755 28.2757 23.6894 28.2654 23.7056C28.2573 23.7182 28.2483 23.7322 28.2324 23.7322C28.2324 23.7685 28.2324 23.8048 28.2687 23.8048L28.2324 23.8775V24.0954H28.1961C28.2324 24.277 28.3051 24.1317 28.3414 24.0591V24.168C28.414 24.0591 28.4503 24.3133 28.4503 24.3859C28.4503 24.3125 28.4008 24.3051 28.3463 24.2969C28.3199 24.2929 28.2924 24.2888 28.2687 24.277C28.2506 24.277 28.2506 24.3042 28.2506 24.336C28.2506 24.3678 28.2506 24.4041 28.2324 24.4223C28.2536 24.4858 28.2748 24.4629 28.296 24.4399C28.3111 24.4235 28.3262 24.4071 28.3414 24.4223L28.3051 24.5312L28.2687 24.4949C28.2324 24.5312 28.1598 24.6039 28.1598 24.6765C28.171 24.699 28.1823 24.7006 28.1936 24.6931C28.1921 24.6955 28.1905 24.6978 28.189 24.7002C28.1579 24.749 28.1284 24.7953 28.0871 24.7128C28.0508 24.7491 28.0508 24.8581 28.0871 24.8581C28.1344 24.8266 28.1475 24.8838 28.1619 24.9469C28.1801 25.026 28.2004 25.1144 28.2928 25.049C28.2668 25.0792 28.3091 25.1425 28.3427 25.193C28.3616 25.2213 28.3777 25.2455 28.3777 25.2576C28.3916 25.2437 28.4054 25.2352 28.4173 25.2278C28.4365 25.216 28.4503 25.2074 28.4503 25.185C28.4503 25.2213 28.4867 25.2213 28.4867 25.2213L28.5593 25.1123C28.523 25.2576 28.4867 25.2939 28.3777 25.2939C28.3777 25.359 28.385 25.3658 28.3963 25.3763C28.4102 25.3892 28.4303 25.4078 28.4503 25.5482C28.414 25.4392 28.3777 25.4755 28.3777 25.5482C28.3777 25.4755 28.3777 25.4392 28.3414 25.4029C28.3414 25.3666 28.3323 25.3484 28.3232 25.3302C28.3141 25.3121 28.3051 25.2939 28.3051 25.2576C28.3051 25.4755 28.0871 25.3666 28.0871 25.2939C28.0871 25.3266 28.0725 25.3519 28.0563 25.3798C28.0365 25.4139 28.0145 25.4519 28.0145 25.5118L28.1235 25.6208L28.0145 25.6571C27.9782 25.7298 28.0145 25.8387 28.0508 25.8387C28.0871 25.7661 28.1598 25.8024 28.1961 25.875C28.2304 25.9094 28.2486 25.9518 28.2619 25.9832C28.2684 25.9984 28.2738 26.0111 28.2794 26.0189C28.2695 26.0178 28.2604 26.0164 28.2519 26.015C28.2121 26.0085 28.186 26.0043 28.1598 26.0566C28.1598 26.0203 28.1235 25.984 28.0871 26.0203C28.0716 26.0983 28.0359 26.1494 28.0089 26.1882C27.973 26.2398 27.9523 26.2694 28.0145 26.3109L27.9419 26.3835C28.0219 26.3568 28.004 26.4085 27.9888 26.4522C27.9833 26.4681 27.9782 26.4828 27.9782 26.4925H27.9055L27.8692 26.7104C27.8293 26.7304 27.7839 26.7558 27.7367 26.7822C27.6124 26.8519 27.4761 26.9283 27.3971 26.9283L27.3608 27.0009C27.339 26.9901 27.3205 26.9727 27.3024 26.9556C27.2599 26.9157 27.2192 26.8774 27.1428 26.9283C27.1599 26.9795 27.1048 27.0146 27.0454 27.0526C26.9783 27.0954 26.9057 27.1418 26.9249 27.2189C26.8533 27.1473 26.7905 27.1815 26.7409 27.2086C26.6899 27.2365 26.6528 27.2567 26.6344 27.1462C26.6027 27.162 26.5694 27.1761 26.5366 27.19C26.4186 27.2398 26.3075 27.2868 26.3075 27.4005V27.3303C26.2931 27.3406 26.259 27.3367 26.2226 27.3326C26.2022 27.3302 26.181 27.3278 26.1622 27.3278C26.1622 27.2997 26.1186 27.3042 26.0652 27.3098C25.9807 27.3187 25.8717 27.3301 25.8717 27.2189C25.7264 27.2189 25.799 27.3278 25.8353 27.3641C25.8245 27.3587 25.8137 27.3525 25.8026 27.3461C25.7387 27.3094 25.663 27.266 25.5085 27.3278C25.4721 27.3278 25.3269 27.3641 25.2905 27.4005L25.2179 27.3278C25.1978 27.4084 25.1553 27.3884 25.0966 27.3608C25.0536 27.3406 25.0019 27.3163 24.944 27.3246C24.9637 27.3156 24.9637 27.2915 24.9637 27.2915H24.8184C24.7983 27.3317 24.8449 27.3719 24.8845 27.406C24.9163 27.4334 24.9436 27.4569 24.9273 27.4731C24.6731 27.5094 24.4915 27.3278 24.5278 27.2189C24.4983 27.2386 24.4794 27.2529 24.4647 27.2641C24.4252 27.2942 24.4158 27.3014 24.3099 27.3278L24.3825 27.3641C24.271 27.3455 24.207 27.3936 24.1322 27.4498C24.0608 27.5033 23.9796 27.5643 23.8378 27.5821C23.8378 27.6377 23.8852 27.6555 23.9218 27.6692C23.957 27.6823 23.9822 27.6918 23.9467 27.7273C23.8378 27.7637 23.6562 27.7637 23.5835 27.691C23.6218 27.6145 23.5795 27.5884 23.5414 27.5649C23.5072 27.5437 23.4765 27.5247 23.5109 27.4731C23.4479 27.4731 23.4335 27.5095 23.4185 27.5472C23.4086 27.5719 23.3986 27.5973 23.3744 27.6133C23.389 27.5923 23.3786 27.511 23.3712 27.4535C23.3681 27.4297 23.3656 27.41 23.3656 27.4005H23.1477C23.1321 27.416 23.1366 27.4316 23.141 27.4472C23.1469 27.4679 23.1529 27.4887 23.1114 27.5094C23.075 27.4731 22.9661 27.4368 22.9298 27.4731C22.9298 27.4538 22.8888 27.4448 22.8449 27.4351C22.8062 27.4265 22.7652 27.4175 22.7482 27.4005C22.7361 27.4005 22.7199 27.4166 22.7024 27.4341C22.6675 27.4691 22.6271 27.5094 22.6029 27.4368C22.621 27.4368 22.6301 27.4277 22.6392 27.4186C22.6483 27.4095 22.6574 27.4005 22.6755 27.4005L22.5303 27.3278C22.5879 27.3855 22.5133 27.4025 22.4518 27.4164C22.3972 27.4289 22.3529 27.4389 22.4213 27.4731C22.385 27.5457 22.3123 27.5457 22.2397 27.5094C22.2952 27.5094 22.2871 27.467 22.2802 27.4308C22.278 27.4196 22.276 27.409 22.276 27.4005H22.0218C21.9491 27.4247 21.9572 27.4327 21.9814 27.457C21.9935 27.4691 22.0097 27.4852 22.0218 27.5094H21.8039C21.7915 27.5135 21.7834 27.5176 21.7784 27.5218C21.7518 27.4753 21.687 27.4368 21.6223 27.4368C21.6223 27.4005 21.6223 27.3278 21.6949 27.4005C21.7312 27.3641 21.6949 27.3278 21.6586 27.2915C21.5916 27.3183 21.5444 27.3599 21.4969 27.4017C21.4156 27.4734 21.3335 27.5457 21.1501 27.5457C21.0878 27.5613 21.0323 27.5502 20.9862 27.541C20.9248 27.5287 20.8803 27.5198 20.8596 27.5821L20.6416 27.6184C20.6598 27.5821 20.6961 27.5821 20.7279 27.5821C20.7597 27.5821 20.7869 27.5821 20.7869 27.5457C20.7044 27.5292 20.6593 27.5352 20.6246 27.5399C20.5828 27.5454 20.5558 27.549 20.4964 27.5094C20.569 27.5094 20.678 27.5094 20.6416 27.4368C20.5301 27.4145 20.4597 27.447 20.3799 27.4838C20.3297 27.5069 20.2759 27.5317 20.2058 27.5457C20.1876 27.5639 20.1786 27.573 20.1786 27.5821C20.1786 27.5911 20.1876 27.6002 20.2058 27.6184C20.1342 27.5945 20.047 27.602 19.9544 27.61C19.906 27.6141 19.8561 27.6184 19.8063 27.6184L19.7754 27.7109C19.7537 27.6832 19.7241 27.6635 19.699 27.6468C19.6837 27.6365 19.6701 27.6275 19.661 27.6184C19.5738 27.6402 19.5259 27.6227 19.478 27.6053C19.446 27.5937 19.414 27.5821 19.3704 27.5821C19.3238 27.5976 19.3371 27.5998 19.3562 27.603C19.3816 27.6073 19.4171 27.6132 19.3341 27.6547C19.2279 27.6724 19.2339 27.5779 19.2384 27.5058C19.2433 27.4301 19.2465 27.3791 19.1162 27.5094L19.1525 27.5821C19.0862 27.5489 18.9593 27.546 18.9378 27.6011C18.9441 27.5391 18.8822 27.547 18.8445 27.5519C18.8118 27.556 18.7973 27.5579 18.862 27.5094V27.5457C18.8983 27.5457 18.9346 27.5094 18.9346 27.4731C18.9104 27.3762 18.8216 27.3762 18.7328 27.3762C18.6884 27.3762 18.6441 27.3762 18.6077 27.3641C18.6441 27.3641 18.6804 27.3278 18.6804 27.3278C18.5808 27.3079 18.5686 27.3207 18.5479 27.3424C18.5312 27.3599 18.5089 27.3833 18.43 27.3997C18.4345 27.3795 18.4354 27.3206 18.3833 27.322C18.3877 27.3114 18.3898 27.3004 18.3898 27.2915C18.2787 27.2545 18.2148 27.3024 18.1596 27.3439C18.1065 27.3837 18.0615 27.4175 17.9903 27.3641C17.9903 27.3801 17.9886 27.3942 17.987 27.4071C17.9814 27.4527 17.9779 27.4811 18.0629 27.5094C18.0405 27.5094 18.0181 27.5233 17.987 27.5425C17.9679 27.5543 17.9454 27.5682 17.9177 27.5821L17.954 27.5457C17.8888 27.5457 17.8282 27.5317 17.7724 27.5187C17.6727 27.4956 17.588 27.4759 17.5182 27.5457V27.5094C17.3983 27.4854 17.3892 27.4931 17.355 27.522C17.3375 27.5369 17.3133 27.5574 17.2639 27.5821L17.3366 27.5094C17.2881 27.4368 17.2397 27.461 17.1913 27.4852C17.1671 27.4973 17.1428 27.5094 17.1186 27.5094C17.0963 27.554 17.1288 27.5712 17.1572 27.5863C17.175 27.5958 17.1913 27.6044 17.1913 27.6184C17.1802 27.6184 17.1658 27.6319 17.149 27.6475C17.1107 27.6833 17.0602 27.7305 17.0097 27.6547C17.046 27.6547 17.1186 27.6547 17.1186 27.6184C17.0631 27.6184 17.0235 27.6131 16.9897 27.6086C16.935 27.6012 16.8954 27.5959 16.8281 27.6184L16.9007 27.5457C16.8127 27.5018 16.778 27.5244 16.7402 27.549C16.7155 27.5651 16.6895 27.5821 16.6465 27.5821C16.6828 27.5457 16.6828 27.5094 16.5738 27.5094L16.5375 27.5821C16.4626 27.5633 16.465 27.5543 16.4699 27.535C16.4745 27.5168 16.4814 27.4896 16.4286 27.4368C16.3317 27.4368 16.2671 27.5013 16.2133 27.5552C16.1864 27.5821 16.1622 27.6063 16.138 27.6184C16.1003 27.5807 16.0332 27.5723 15.9571 27.5629C15.8866 27.5541 15.8083 27.5443 15.7385 27.5094C15.7094 27.5094 15.6804 27.521 15.6513 27.5327C15.6077 27.5501 15.5642 27.5675 15.5206 27.5457C15.5206 27.6002 15.4843 27.6184 15.4479 27.6365C15.4116 27.6547 15.3753 27.6729 15.3753 27.7273C15.4298 27.7637 15.4661 27.7273 15.4933 27.7001C15.5206 27.6729 15.5387 27.6547 15.5569 27.7273C15.5569 27.7484 15.5201 27.7573 15.475 27.7681C15.4425 27.7759 15.4057 27.7848 15.3753 27.8L15.4116 27.7637C15.2379 27.7289 15.1307 27.8022 15.0224 27.8761C14.9042 27.9568 14.7847 28.0384 14.5763 27.9816C14.5763 27.9656 14.5902 27.9567 14.6029 27.9486C14.619 27.9383 14.633 27.9293 14.6126 27.9089C14.5309 27.8885 14.5066 27.914 14.4817 27.9403C14.4622 27.9607 14.4424 27.9816 14.3947 27.9816H13.8499C14.0225 27.9076 13.9104 27.8838 13.8207 27.8648C13.7783 27.8559 13.7409 27.8479 13.7409 27.8363L13.7046 27.9453C13.6474 27.9262 13.6703 27.9171 13.6944 27.9076C13.7162 27.8989 13.7391 27.8899 13.7046 27.8726L13.5593 27.9089V27.7637C13.4982 27.7759 13.4289 27.7799 13.3583 27.7839C13.219 27.792 13.0746 27.8003 12.9782 27.8726L12.9661 27.8707ZM18.3218 27.356C18.3283 27.3472 18.3385 27.3379 18.3535 27.3278C18.365 27.324 18.3749 27.3222 18.3833 27.322C18.3736 27.3456 18.3531 27.3668 18.3218 27.356ZM18.214 27.6009C18.2024 27.5835 18.1211 27.5893 18.0629 27.6184C18.1632 27.5682 18.1943 27.5008 18.2278 27.4279C18.2428 27.3953 18.2584 27.3616 18.2809 27.3278C18.2961 27.3431 18.3097 27.3519 18.3218 27.356C18.3012 27.3839 18.3176 27.4069 18.3348 27.4308C18.3515 27.4542 18.369 27.4785 18.3535 27.5094H18.2445L18.214 27.6009ZM18.214 27.6009C18.2169 27.6053 18.2155 27.6111 18.2082 27.6184L18.214 27.6009ZM18.4261 27.4005C18.4275 27.4002 18.4288 27.3999 18.43 27.3997C18.4283 27.4073 18.4261 27.4094 18.4261 27.4005ZM18.9346 27.6184C18.9346 27.6121 18.9357 27.6063 18.9378 27.6011C18.9372 27.6063 18.9362 27.6121 18.9346 27.6184ZM19.7948 27.7431C19.7869 27.7383 19.7786 27.7331 19.77 27.7273L19.7754 27.7109C19.783 27.7206 19.7897 27.7312 19.7948 27.7431ZM19.7948 27.7431C19.9017 27.807 19.9512 27.7852 19.9976 27.7647C20.0352 27.7482 20.0708 27.7325 20.1332 27.7637C20.1127 27.8047 20.0459 27.7994 19.972 27.7935C19.915 27.789 19.8537 27.7842 19.8063 27.8C19.8063 27.7783 19.802 27.7595 19.7948 27.7431ZM21.7906 27.5569C21.7761 27.5452 21.7643 27.5335 21.7784 27.5218C21.7849 27.5331 21.7892 27.545 21.7906 27.5569ZM21.7906 27.5569C21.7923 27.5583 21.794 27.5597 21.7957 27.561C21.8199 27.5801 21.844 27.5993 21.7675 27.6184C21.7864 27.5995 21.793 27.5782 21.7906 27.5569ZM23.3656 27.6184C23.3687 27.6168 23.3717 27.6151 23.3744 27.6133C23.3721 27.6166 23.3692 27.6184 23.3656 27.6184ZM24.9273 27.3278C24.9329 27.3264 24.9385 27.3253 24.944 27.3246C24.9395 27.3266 24.9341 27.3278 24.9273 27.3278ZM28.3051 26.0203C28.2942 26.0311 28.2866 26.0291 28.2794 26.0189C28.2874 26.0197 28.296 26.0203 28.3051 26.0203ZM28.3051 25.0397C28.3008 25.0431 28.2967 25.0462 28.2928 25.049C28.2959 25.0454 28.2999 25.0423 28.3051 25.0397ZM28.2451 24.6381C28.2365 24.6437 28.2279 24.6547 28.2192 24.6657C28.2107 24.6766 28.2021 24.6874 28.1936 24.6931C28.2096 24.6682 28.2262 24.6442 28.2451 24.6381ZM28.2687 24.6402C28.2609 24.6323 28.253 24.633 28.2451 24.6381C28.2526 24.6357 28.2604 24.636 28.2687 24.6402ZM28.414 21.2625C28.4206 21.2723 28.4254 21.2822 28.4286 21.2919C28.4239 21.2821 28.4189 21.2723 28.414 21.2625ZM28.0508 22.3884C28.0599 22.3975 28.0668 22.4089 28.0719 22.4214C28.062 22.4174 28.0508 22.4085 28.0508 22.3884ZM25.6907 26.2742C25.6907 26.2747 25.6906 26.2752 25.6906 26.2756C25.6904 26.2753 25.6902 26.2749 25.6901 26.2746L25.6907 26.2742ZM25.6907 26.2742C25.6916 26.261 25.6938 26.2526 25.6991 26.2473C25.7082 26.2382 25.7264 26.2382 25.7627 26.2382L25.6907 26.2742ZM25.5755 26.2382H25.5811C25.586 26.2431 25.5889 26.2487 25.5901 26.2547C25.5856 26.2487 25.5808 26.2431 25.5755 26.2382ZM25.4721 26.2382H25.5755C25.5549 26.2193 25.526 26.2113 25.4721 26.2382ZM25.4721 26.3109C25.462 26.3143 25.4512 26.317 25.44 26.3193C25.441 26.3144 25.4495 26.3109 25.4721 26.3109ZM24.0194 26.1293C24.0083 26.1359 23.998 26.1413 23.9885 26.1457C23.9933 26.1372 24.0024 26.1293 24.0194 26.1293ZM19.7341 20.9342C19.7435 20.9434 19.7554 20.9405 19.7684 20.9344C19.7652 20.9509 19.7568 20.9568 19.7341 20.9342ZM19.9155 21.1882C19.9067 21.1619 19.9043 21.1398 19.9062 21.1215C19.9117 21.1278 19.9155 21.1465 19.9155 21.1882ZM21.5136 19.7354C21.503 19.7143 21.4894 19.6932 21.4762 19.6729C21.4982 19.7003 21.5136 19.7236 21.5136 19.7354ZM21.862 19.0888C21.8641 19.0998 21.8686 19.1098 21.8768 19.118L21.9494 19.1543L21.862 19.0888ZM21.9426 18.935C21.946 18.9379 21.9494 18.9408 21.9527 18.9435C21.9657 18.9545 21.9776 18.9645 21.9857 18.9727C21.9696 18.9565 21.9552 18.944 21.9426 18.935ZM22.1673 18.9727C22.148 18.947 22.1333 18.9247 22.1223 18.9052L22.1673 18.9727ZM22.93 18.2463C22.9204 18.2405 22.9117 18.2348 22.9038 18.2292C22.9087 18.2285 22.9171 18.2333 22.93 18.2463ZM23.1552 18.2194C23.1572 18.1799 23.1243 18.1405 23.0915 18.101C23.0713 18.0768 23.0511 18.0526 23.039 18.0284V18.024C23.0502 18.0376 23.0729 18.0511 23.0955 18.0647C23.1157 18.0768 23.1358 18.0889 23.148 18.101H23.1116C23.1926 18.128 23.1733 18.175 23.1581 18.2123C23.1571 18.2147 23.1561 18.2171 23.1552 18.2194ZM23.1552 18.2194C23.1547 18.2284 23.1524 18.2373 23.148 18.2463C23.148 18.2387 23.1511 18.2295 23.1552 18.2194ZM23.039 18.024V17.9921C23.0342 17.9969 23.0319 18.0017 23.0317 18.0065L23.0364 18.0205C23.0372 18.0217 23.038 18.0228 23.039 18.024ZM23.8743 17.4836C23.8833 17.5105 23.8812 17.5219 23.8724 17.5227C23.8743 17.511 23.8743 17.4973 23.8743 17.4836ZM22.9664 17.2294L22.9743 17.2611C22.9693 17.25 22.9664 17.2397 22.9664 17.2294ZM22.7701 17.1929C22.7742 17.193 22.779 17.193 22.7848 17.193C22.7805 17.193 22.7777 17.1966 22.7759 17.2025L22.7701 17.1929ZM22.7701 17.1929C22.7613 17.1926 22.7561 17.1916 22.753 17.1885C22.7484 17.184 22.7484 17.1749 22.7484 17.1567L22.7701 17.1929ZM22.1422 17.5675L22.1673 17.5926C22.1633 17.5906 22.1595 17.5888 22.1558 17.5872C22.154 17.5845 22.1521 17.5818 22.1502 17.5791C22.1476 17.5752 22.1449 17.5713 22.1422 17.5675ZM22.0947 17.5199L22.1422 17.5675C22.1251 17.5428 22.1076 17.5199 22.0947 17.5199ZM21.9857 17.5926C21.9857 17.6014 21.9841 17.6097 21.9814 17.6176C21.9738 17.6029 21.9721 17.5926 21.9857 17.5926ZM20.9324 18.331C20.9325 18.327 20.9325 18.323 20.9325 18.319L20.8598 18.2826L20.9324 18.331ZM19.6676 18.8789C19.6642 18.8696 19.6613 18.8637 19.6613 18.8637C19.6613 18.8992 19.6613 18.9108 19.6618 18.9109C19.6625 18.9109 19.664 18.8916 19.6676 18.8789ZM18.1722 17.5926C18.1533 17.6115 18.1417 17.6181 18.1344 17.6175C18.144 17.6026 18.153 17.5926 18.1722 17.5926ZM16.4652 16.2851V16.1761L16.5015 16.2851H16.4652ZM14.8671 14.9412C14.8563 14.9556 14.847 14.9664 14.8389 14.9742C14.8467 14.9633 14.8561 14.9523 14.8671 14.9412ZM20.59 13.8896C20.5648 13.8999 20.5238 13.9141 20.5056 13.8896H20.59ZM20.59 13.8896C20.5925 13.8885 20.5949 13.8875 20.5971 13.8866C20.6106 13.8809 20.6164 13.8785 20.6053 13.8896H20.59ZM18.4261 13.4174C18.4098 13.4152 18.3936 13.4128 18.3777 13.4101C18.3893 13.4055 18.4045 13.4066 18.4261 13.4174ZM10.1662 22.0608C10.1658 22.06 10.1653 22.0591 10.1649 22.0582C10.1559 22.039 10.1453 22.0166 10.1453 21.9888C10.1472 21.985 10.1493 21.9816 10.1515 21.9786C10.1522 21.9814 10.1528 21.9842 10.1534 21.987C10.159 22.0126 10.1646 22.0378 10.1662 22.0608ZM10.1453 22.1341C10.1889 22.1123 10.1801 22.0905 10.1662 22.0608C10.1682 22.0899 10.1638 22.1156 10.1453 22.1341ZM17.4231 20.3892C17.429 20.3892 17.434 20.3892 17.4379 20.3862C17.4377 20.3759 17.4398 20.3649 17.4458 20.3529L17.4081 20.3905C17.3974 20.3932 17.3853 20.4013 17.3731 20.4255L17.4081 20.3905C17.4135 20.3892 17.4185 20.3892 17.4231 20.3892ZM18.0995 20.7524C18.0973 20.749 18.0951 20.7458 18.0928 20.7428C18.0836 20.7441 18.0738 20.7471 18.0632 20.7524H18.0995ZM12.6153 16.3952C12.6148 16.3953 12.6144 16.3953 12.614 16.3954C12.5887 16.4213 12.5816 16.4472 12.5797 16.4732C12.5676 16.4904 12.5639 16.503 12.579 16.503C12.579 16.493 12.579 16.4831 12.5797 16.4732C12.5889 16.4601 12.6029 16.4443 12.6172 16.4292C12.616 16.4181 12.6153 16.4068 12.6153 16.3952ZM15.5665 18.8986C15.5635 18.8981 15.5604 18.8977 15.5572 18.8973C15.5572 18.8982 15.5572 18.8991 15.5572 18.9001C15.5603 18.9001 15.5635 18.8995 15.5665 18.8986ZM15.5982 18.9219C15.5998 18.9062 15.5849 18.9015 15.5665 18.8986C15.5763 18.8957 15.5856 18.889 15.593 18.8837C15.6089 18.8722 15.6157 18.8674 15.5982 18.9219ZM15.5982 18.9219C15.5978 18.926 15.5963 18.9307 15.5935 18.9364C15.5952 18.9311 15.5968 18.9263 15.5982 18.9219ZM16.5095 19.691C16.5108 19.686 16.512 19.681 16.5132 19.6761C16.5015 19.6959 16.5015 19.7157 16.5015 19.7354C16.5015 19.7233 16.5055 19.7072 16.5095 19.691Z" fill="#00C48C"/>
</svg>
