<svg xmlns="http://www.w3.org/2000/svg" width="40" height="40" fill="none" viewBox="0 0 40 40">
    <path fill="#FF4651" fill-opacity=".1" fill-rule="evenodd" d="M35.257 7.873c.003.013 0 .02 0 .03l-.06-.076c.02.017.039.029.06.046zm1.387 23.246c-.005-.009-.007-.023-.012-.033.026.038.05.077.055.121-.072.162-.14.185-.193.179.044-.07.091-.154.15-.267zm3.07-13.733l.2-.127c-.1-.152-.217-.299-.324-.445-.151-.322-.077-.633-.029-.972.024-.17.042-.345.023-.527-.03-.18-.109-.364-.25-.553l-.106.144c-.062-.308-.359-.925-.188-.923-.033-.023-.17-.054-.133-.194l.102-.043c-.068-.113-.13-.228-.202-.338l-.233-.323c-.15-.58.447-.064.134-.89-.165-.291-.647-.733-.667-.588.044.123.062.336-.036.389l-.162-.247-.06.013c-.006-.014-.011-.028-.018-.041-.494-1.055-1.076-2.04-1.727-2.96l.05-.002-.082-.044c-.09-.127-.178-.255-.27-.38.04-.013.094 0 .158.063-.076-.349-.261-.164-.308-.478 0-.04.02-.037.047-.021l-.27-.193c.087.01.126-.168.218.01-.238-.551-.757-.575-.727-.884l.044.025c-.448-.385-.35-.162-.503-.117-.088-.094-.178-.186-.267-.278l.062-.424-.207.094c-.053-.063-.157-.188-.076-.228-.318-.111-.028.103-.25.076-.073-.205-.275-.387-.453-.537-.184-.144-.326-.277-.25-.433-.215.033.21.332-.189.151.143-.353-.416-.258-.589-.613.202-.078.409.218.23-.143-.184.055-.309-.07-.425-.227-.117-.155-.243-.324-.387-.387-.158.197-.616-.283-1.09-.497.087-.077-.767-.597-1.152-.903l.032-.03c-.206.19-.604-.113-.963-.196.077-.13.165-.165.373-.143-.102-.051-.21-.09-.315-.135-.108.043-.224.04-.44-.017l.157-.141c-.43-.16-.923-.164-1.43-.47-.058.107.082.343-.008.464-.097-.035-.194-.065-.292-.098.03-.05.08-.087.16-.082-.054-.003-.204.02-.29-.05l.285-.08c-.229-.145-.176.087-.37.01.046-.128-.119-.138-.056-.232.056.003.158.108.253.081-.22-.094-.472-.257-.534-.385-.003.081-.054.177-.226.142-.435-.124-.102-.204-.338-.35-.128.05-.388-.103-.447.094-.129-.028-.13-.126-.167-.19-.253.04-1.085-.2-.867.067l.056.026-.04.002c-.196.01-.389-.011-.58-.051-.193-.035-.388-.066-.581-.112-.387-.086-.777-.188-1.158-.186l.007-.068c-.457.03-1.015.02-1.338.152-.133-.002-.316-.13-.259-.21-.348.055-.383.1-.888.037.343-.148-.126-.096.354-.116C18.989.1 18.874 0 18.403.227c.152-.188-.363-.191-.575-.122l.333.099c-.24.046-.453.047-.67.051l.087-.239c-.485-.076-.888.134-1.257.293-.37.174-.713.279-1.11.166-.198.224.516-.03.348.214-.414.086-.934-.11-1.067-.072-.608.05-.436.458-1.04.578.101.048.24.229-.15.468-.4.127-.61-.128-.383-.29.093-.044.149-.038.154-.01.117-.08.275-.18.085-.201l-.022.098c-.228 0-.776.228-.699.052-.273.194-.076.176.163.127-.555.105-.815.289-1.346.495.101-.001.217.048.137.088-.783.292-.254.308-.73.597-.343.037-.045-.315-.495.038-.35.087-.176-.154-.085-.277-.096.095-.202.164-.309.219-.102.063-.208.11-.312.148-.207.076-.405.118-.539.189l.196-.208C9 2.852 8.886 2.925 8.77 3l.224.05c-.151.065-.267.14-.302.081-.078.18.26.158.07.459-.223.052-.492.418-.672.3.594-.327-.198-.14.258-.487-.077.083-.191.154-.343.223-.034-.005-.01-.052.021-.085-.633.246-.085.383-.608.796-.012-.149-.27-.082-.339.008.213-.17.231.077.102.303-.395.196-.313.346-.493.477L6.915 5c.014.144-.162.264-.338.504-.084-.052.144-.236.04-.193-.08.385-.683.359-.906.786-.212.092-.184-.146-.359-.052-.257.467-.508.303-.765.806.229-.015.213-.06.095.336l.48-.76-.182.596c.175-.2.273-.508.413-.598-.088.284-.088.244.091.236-.42.115-.347.645-.743.858l-.313-.267c-.273.193-.427.438-.556.725-.123.292-.248.605-.523.92l.209-.18c.074.18-.267.432-.36.689-.103-.093-.24.019-.377.071.095.04-.301.53-.096.73l-.336.236c-.384.559-.03.835-.309 1.398-.061-.238-.265-.01-.194-.45-.085.197-.185.365-.098.406-.13.083-.06.616-.259.747.021.105.145.183.041.397-.036.014-.063-.024-.063-.024.055.022-.04.38.17.236-.3.234-.433.674-.551 1.101-.06.214-.119.425-.19.612-.057.191-.134.357-.254.476-.049.465-.132 1.015-.194 1.43-.037-.034-.067-.012-.044-.09-.194.56.352.41.136 1.038-.26.309-.08-.36-.188-.161-.454.044-.049.795-.322 1.22l-.025-.11c-.16.337.159.842.118 1.393 0 0-.04-.026-.068-.002.199.38.365 1.082.466 1.6-.191-.146-.114-.23-.285-.114.045.235.283-.094.372.37-.08.161-.146.514-.318.584-.033-.148-.037-.299-.057-.448-.112.129-.104.277-.055.42.055.14.135.279.135.399l-.113-.013c.162.681.434.638.55 1.367l.067-.094c.346.33-.063.363.24.7l-.233.189c.146.24.506.828.715 1.253-.296-.18-.535-.694-.756-.995.073.257.275.867.444.955-.056-.094-.158-.203-.148-.317.282.252.56.6.749 1.086-.267.054-.168.386-.031.77.118.39.359.79.257 1.058.314.373.506.8.713 1.247.236.428.47.889.792 1.341.122-.563.19.262.499-.043.16.192.23.26.22.297l-.02-.05c.01.022.014.035.02.054h.001l.292.751c.021.221-.23-.13-.29-.052.337.459.012.297.168.663.067-.158.293.011.457.3l-.143-.48c.334.232.378.419.44.597.055.182.115.368.481.573l-.277-.086c.176.118.447.388.74.632.073.061.147.12.222.175.08.049.16.093.239.13.157.075.308.122.441.12.024.083.023.233-.137.142.183.165.395.317.618.46.224.143.447.289.69.395.473.23.906.456 1.167.755l-.118.046c.172.072.362.02.513.211-.032.031-.118.054-.046.1.105.016.52.072.704.24l-.24.003c.391.287.753.398 1.102.474.361.053.713.063 1.092.184-.12.27.532.683.882.835l-.027.036c.532.187 1.011.269 1.478.326.468.056.942.021 1.454.076.14.114.342.207.582.289.24.077.525.108.818.154.59.075 1.227.175 1.745.25-.157-.057.036-.236.219-.264.241.066.666-.201.628.078l-.086-.007c.183.27.688.23 1.078.187l.044-.371c.258.113.557.143.863.131.306-.018.625-.045.918-.141.59-.164 1.112-.323 1.438-.14.224-.123.516-.21.725-.366l.038.194c.334-.07.586-.123.855-.193.133-.035.272-.075.426-.123l.245-.08.269-.122-.113.195c.453-.166.36-.752.753-.92l.233.221c.774-.274 1.62-.484 2.221-1.084.01.044.031.129-.083.201.366-.14 1.399-.62 1.06-.874.15.21.734-.44 1.019-.788l.063.198c.143-.432.108-.492.466-.87.11-.057.183.052.024.117.384-.18.13-.34.58-.573l-.062.21c.334-.258.275-.276.338-.546.133-.24.596-.52.767-.441-.035-.116.024-.376.236-.513.071.022.037.113.02.159.148-.101.26-.208.35-.313.084-.11.14-.226.197-.33.111-.212.21-.395.438-.52.056.033.1.029.142.01-.361.428-.658.767-.642.725.133.12.451-.213.404.23.138-.376.308-1.04.655-1.327.028-.006.055-.012.087-.007l-.014.047c.08-.069.127-.148.155-.235.103-.099.172-.16.25-.272.151.042.361-.388.495-.573-.174-.092.017-.319-.273-.178.031-.022-.005.048-.082.176-.014.032-.034.066-.037.09l-.006-.021-.303.47c.02-.205.053-.404.282-.549-.04-.165-.078-.34-.09-.43.2-.051.415-.18.604-.295.193-.113.329-.231.426-.223.119-.332.298-.698.432-1.05.066-.175.124-.346.151-.508.017-.167.01-.322-.031-.458.032-.196.183-.161.265-.205-.01.118-.067.238-.043.316.067-.396.42-1.078.215-1.253.293-.41.127.34.324-.302l.046.113c.397-.565.407-1.142.427-1.706-.013-.58-.04-1.152.376-1.819-.053.094-.079.14-.126.153.08-.196.127-.4.157-.61.034-.207.061-.417.084-.628.033-.424.096-.849.064-1.277-.013-.427-.02-.852-.001-1.273.017-.211.016-.42.019-.63.006-.208.021-.417.05-.626.035-.474-.133-.51-.28-.776z" clip-rule="evenodd"/>
    <path fill="#FF4651" d="M22.143 24.916v.4c.1-.1.1-.3.2-.3l.1-.1c0-.1 0-.2-.2-.5.3.1.5.1.5.1v-.2.1-.1c.1-.2.3-.3.4-.2.1 0 .3.1.3.1.1.1.3.1.1.2h-.1.1c.2-.1.3-.1.4-.1.1 0 .2 0 .3-.1h-.1c.2 0 .1 0 .2.1-.1 0-.1 0-.2.1h.1l-.3.3h-.1v.1c-.1-.1-.1 0-.1-.1 0 .1-.2.3-.2.5-.4.5-.9 1-1.2 1.5-.1.2-.1.5-.4.6.1.3-.1.5 0 .7-.1.2-.1.3-.3.5.1 0-.1.2.1.2s.1-.1.3-.1c.5-.3 1-.7 1.4-1.1.2-.3.6-.6.8-.9.1-.2.3-.3.4-.5.1-.1.1-.2.2-.3.1-.1.2-.2.3-.4.1-.1.2-.2.4-.2.3-.4 1.1-1 1.1-1.4.1-.2.2-.4.2-.5 0 0 .1-.1 0-.2s-.2-.3-.4-.3h-1c-.5-.1-.9-.3-1.4-.4-.1 0-.2.1-.3.1-.1-.1-.1 0-.2 0-.2-.3-.4-.2-.3-.1-.2 0-.5 0-.6.1-.1 0-.2.1-.3.1h-.2c-.2.1-.1 0-.3.1-.1-.1-.4.4-.4.5-.2.2-.4.2-.6.4-.2.3-.3.7-.4 1v.9c.1 0 0-.1.1-.1 0 .3-.1.5-.1.8l-.1.1v.1h-.1c.1.1-.1.1-.1.2v.1c-.1 0 0 .1-.1.1v.1l.3.4s.1.1.1 0v.2h-.1v.1c.1-.1.1-.2.2-.3v.2c-.1.1-.1.2-.1.2s.1 0 .1.1c-.1 0 0 0 0 .1v-.1c-.1 0-.1.1-.1.1v.1c-.1 0 0 0-.1.1 0 0 0 .1 0 0 .1 0 .1-.1.1-.1v.1h.1v.1c0 .1-.3-.3-.3-.2l.3.3h.1-.1s.1-.1.1 0-.3-.2-.3-.1c0 0 .1.1 0 .1 0 0 .1 0 .1.1 0 0 0 .1.1.1 0-.2.5.1.5-.1-.1.1-.1 0-.1-.1 0 0 .1 0 .1-.1h-.1s0-.1.1-.1c-.1 0 0-.1 0-.1h-.1v-.2s.1-.1.2 0c0 .1-.1 0-.1.1.1 0 0 .1.1.1s.1-.1 0-.1v-.2h.1v-.2l-.2-.3s.1-.1 0-.1l.1.4s-.2-.5-.1-.5c0 0 0-.1-.1-.1 0-.1.1 0 .1 0h.1c-.1-.1 0-.2-.1-.3 0 0 .1.1.2.1 0 0 0 .1.1.1v-.2c.1 0-.1-.2 0-.3 0-.1.1-.2.1-.3h-.1v-.1c.1.1.1-.2.3-.1v-.1s-.1 0-.1-.1 0-.1.1-.1h.1c-.1-.1.1-.1.1-.2 0 0 0-.1-.1-.1.3-.4.4-.3.4-.3z"/>
    <path fill="#FF4651" d="M13.743 23.616v-.2c0 .7 0 1.5-.1 2.3.3-1.7.6-3.7 0-4.9.3-.2.5-1.8.4-1.8-.1-.4-.1-.7-.2-1 0 .2.1.5.1.7 0-.2-.1-.5-.1-.7-.1-1.1-.1-2.2-.1-3.4v-.9c0-.3 0-.3.1-.5.2-.2.5-.4.8-.4.7 0 1.8.1 3 .1 1.3 0 2.5.1 3.2.1h.6-.7c.8-.1 1.6-.2 2.3-.2-.1 0-.2-.1-.5-.2h.4c.3-.1 1.1-.1 1.5-.2 0 .1.1.1.3.1l-.1-.1c.3.1.6.3.8.6.1.1.1.3.2.5V14.416l.1.8c-.1-.1-.1.7-.1.3.1.6.1 1.3.2 1.9 0 .9 0 1.9.1 2.9 0 .5 0 1 .1 1.5 0 .5.1 1 .1 1.3l-.4.5h.1c-.5.6-.9 1.2-1.6 1.8-.4.6-1 1.3-1.1 1.6-.5.6-.7.8-1.2 1.4.2-.1-.4.6-.1.4.5-.3.4-.4.8-.6.8-.6 1.5-1.3 2.3-2 .4-.3.7-.7 1.1-1l1.2-1.2.3-.4v-1.4-1-2c0-1.5-.1-3.1-.2-4.4 0-.3 0-.5.1-.8v-.5c0-.2 0-.5-.1-.7-.1-.5-.4-.9-.8-1.2-.4-.3-.9-.5-1.4-.6h-1.2.1c-1 .1-1.5 0-2.2 0h-.2c-.1-.1-4.1.3-4.3.2h-.2c-.7 0-1.5-.1-2.2-.2h-.7c-.3 0-.5.1-.7.2-.5.3-.9.7-1.1 1.1-.2.4-.2.8-.2 1.2-.1.3 0 .3 0 .6-.2.6-.1 1 0 .7v1.6c0 .2 0 .5.1.7 0 .2 0 .3-.1.4 0 .5 0 .4-.1.9-.1.1.2 1.3.1 1.5v-.1c0 .6-.2 1-.2 1.6-.1 1.7 0 3.5 0 5.1.1 0 0-.3.1-.4v.8c0 .3.1.7.3 1 .3.6.9 1.1 1.6 1.2.2.1.5.2.7.2h.4v.1c.3-.1.5.1.8.1h.2c0 .1.3 0 .3.1h.2c.1 0 1.2-.3 1.4-.3h.1c.2 0 .2-.1.1-.1h.4s.1 0 0 .1h.4c-.4-.2-.8-.3-1.1-.3h.5c.2 0 .6.1.9.1.1 0 .1-.1.3-.1.1.1.2 0 .3 0h-.4c0 .1.3.1.5.1h.5c-.1.1.1 0 .2.1h.1c0-.1-.5-.1-.3-.1h.4s-.1 0 0-.1h.4-.1c.2 0-1 .3-.7.3-.1 0 1-.3.9-.3-.1 0 .1-.1 0-.1l-.4.1c-.2 0-.2-.1-.2-.1.3 0-.7.3-.5.3h-.1c.1 0 .3-.1.4 0 0 0 .1-.1.2-.1s.3 0 .2-.1c-.6 0 .4-.5-.2-.5.3.1-.1.1-.4.1 0 0-.1-.1-.3-.1-.2 0-.1 0-.1.1-.1 0-.3 0-.2-.1-.1.1-.2 0-.4 0-.1 0 0 0-.1.1h-.7c-.1 0-.3-.1-.1-.2.3 0-.1.1.2.1-.1-.1.3 0 .3-.1-.1-.1-.3-.1-.5 0h-.6s0-.1.1-.1h-.2s-.1 0 0 0h-.3l-1.1.2c-.2 0-.2-.1-.3 0 0 0 1.5-.1 1.3-.1-.1 0-1.7.2-1.8.1-.1 0-.2 0-.2.1-.2 0 .1-.1-.1-.1l-.1-.1c-.3.1-.7 0-1 0 .1 0 .2-.1.4-.1 0 0 .2 0 .2-.1h-.5s-.1 0-.1-.1v-.1c0-.1-.6-.1-.7-.4l-.1-.1c-.1-.3-.2-.5-.2-.7-.1-.1-.1-.1-.1 0v-.3c.1.3.1-.5.3-.2v-.4s-.1 0-.1-.2c0-.3 0-.2.1-.4 0-.1.1 0 .1 0-.1-.3.1-.3.1-.6 0-.2 0-.6-.1-.6.1-.5.1-.5.2-.5z"/>
    <path fill="#FF4651" d="M15.244 16.614c-.1 0-.2 0-.4-.1.3.3.7.6.9-.1 0 .3.3.5.3.4l.2-.2-.1.1.1-.1c.4-.3.9-.1 1.3 0 .3.1 1 .1 1.2.2h.1c.1.2.1.2 0 .1.2-.1.3-.2.5-.2 0 0 0-.1-.1-.2h.1c.1-.1.2-.1.3-.2 0 .1 0 .1.1.1h.6l.1.1.2-.1c0 .1.1.1.1.1.1-.1.2 0 .4-.2.4 0 .8-.1 1.3-.3.1-.1.3-.3.5-.2.1-.1.3-.2.4-.4.1 0 .2-.1.4-.2 0-.1.1-.1.1-.2-.1-.1-.1 0-.2-.1-.4-.2-.8-.2-1.1-.3-.3.1-.5 0-.8 0-.3 0-.6.1-.8.2-.1 0-.1-.1-.2-.1-.2 0-.5 0-.8.1-.7.1-.8 0-.9 0 0-.1-.8.3-.8.2-.4 0-.7-.2-.9-.2-.1 0-.1.1-.2.2 0-.1 0 0-.1 0-.1-.3-.2-.1-.1-.1-.1.1-.2.1-.3.1 0 0-.1 0-.1.1 0 0-.1 0-.1-.1-.1 0-.1 0-.2-.1 0-.1-.2.1-.3.1-.1 0-.2-.2-.3-.2-.3-.1-.7 0-1 0 0 .1.1 0 .1.1-.2 0-.4-.1-.5-.2l-.1-.1h-.1v-.1c0 .1 0 0-.1 0 0-.1-.1 0-.1-.1 0 0-.2.3-.3.3v.1-.1s0 .1-.1 0c0 .1.1.2.1.3h-.1c0-.1-.1-.1-.2-.2v.1c0-.1 0 0-.1-.1h.1c0-.1-.1-.1-.1-.1h-.1v-.1.1c0 .1.1.1 0 .2h-.1v.1h-.1s.2-.3.1-.3l-.2.3v.1-.1.1l.1-.3s-.1.1-.1 0v.2c.1 0-.1.5 0 .5 0-.1 0-.1.1-.1 0 0 0 .1.1.1v-.1s.1 0 0 .1c0-.1 0 0 .1 0v-.1h.1v.2c-.1 0 0-.1 0-.1 0 .1-.1 0-.1.1s.1.1.1 0h.1v.1h.1l.2-.2s0 .1.1 0c0 0-.3.2-.2.1 0 0 .3-.2.3-.1v-.1.2c.1-.1.1 0 .2-.1 0 0 0 .1-.1.2v.1h.1v.1c0 .1.1-.1.2 0s.1.1.2.1v-.1h.1c0 .2.1.1 0 .3h.1v-.1l.1.1v.1c.4.1.4.3.5.3 0 0 .1 0 .1-.1v.1zM15.444 19.915c-.1 0-.2 0-.3-.1.2.3.4.6.6-.1.1.5.3.6.3.5 0-.1.1-.1.1-.2l-.1.1.1-.1c.3-.3.6-.1.9 0 .2.1.6.1.8.2h.1l-.1-.1c.1.1.1 0 .2-.1v-.1c0-.1.1-.1.2-.2 0 .1 0 .1.1.1h.4v.1l.1-.1c0 .1.1.1 0 .1.1-.1.2-.1.2-.2.3 0 .5-.1.8-.3.1 0 .2-.2.3-.2.1-.1.2-.2.3-.4.1 0 .1-.1.2-.2 0-.1.1-.1 0-.2s-.1 0-.1-.1c-.2-.1-.5-.2-.7-.3-.2.1-.3 0-.5 0s-.4.1-.5.2l-.1-.1c-.1 0-.3 0-.5.1-.2 0-.2-.1-.3 0 0-.1-.5.3-.5.2-.3 0-.5-.3-.6-.3 0 .1-.1.1-.1.2 0-.1 0 .1-.1 0-.1-.2-.1-.1-.1 0h-.2s-.1 0-.1.1l-.1-.1c-.1 0 0 0-.1-.1 0-.1-.2.2-.2.1-.1 0-.1-.2-.2-.2-.2-.1-.4 0-.6 0v.1s-.1-.1-.2-.1c0 0 0-.1-.1-.1v-.1c0 .1-.1-.1-.1-.1v-.1l-.2.3v.1-.1s0 .1 0 0c0 .1.1.1.1.2h-.1c0-.1-.1-.1-.1-.2v0h.1c0-.1 0-.1-.1-.1h-.1c-.2.1-.2.2-.2.1V18.315c-.1 0 0-.3 0-.3l-.1.3v.1-.1.1l.1-.3s0 .1-.1 0v.2c.1 0-.1.5 0 .5v-.1.1c0-.1 0 0 0 0v-.1h.1v.2-.1.1c0 .1 0 .1.1 0h.1v.1l.1-.2s0 .1 0 0c0 0-.2.2-.2.1 0 0 .2-.2.2-.1v-.1.2c0-.1.1 0 .1-.1V19.115h.1v.1c0 .1.1-.1.1 0 .4.2.4.3.4.3v-.1c0 .2.1.1 0 .3h.1v-.1c0 .1 0 0 .1.1v.1c0-.1 0 .1.1.1 0 0 .1 0 .1-.1v.1zM14.744 23.115s-.1 0-.1-.1c.1.3.2.6.3-.1 0 .3.1.5.1.4 0-.1 0-.1.1-.2v.1-.1c.1-.3.3-.1.4 0 .1.1.3.1.4.2v-.1c0 .2.1.1.1.1v-.2c0-.1.1-.1.1-.2v.1h.2v.1l.1-.1v.2c0-.1.1 0 .1-.2.1 0 .3-.1.4-.2.1-.2.1-.4.2-.3 0-.1.1-.2.1-.4 0 0 .1-.1.1-.2s.1-.1 0-.2c0-.1 0 0-.1-.1-.1-.2-.2-.2-.4-.3-.1.1-.2 0-.3 0-.1 0-.2.1-.3.2v-.1c-.1 0-.2 0-.3.1l-.1-.1c0-.1-.3.3-.3.2-.1-.1-.2-.3-.3-.3 0 .1 0 .1-.1.2 0-.1 0 .1 0 0 0-.3-.1-.2 0-.1h-.1v0l-.1-.1c0-.1-.1.1-.1.1l-.1-.2c-.1-.1-.2 0-.3 0v.1c-.1 0-.1-.1-.2-.2v-.2-.1-.1l-.1.3v.1-.1s0 .1 0 0c0 .1 0 .1.1.2v-.2-.1-.1.4l.1-.3-.1.3v.1-.1.1s.1-.3 0-.3c0 0 0 .1 0 0v.7c0-.1 0 0 0 0v-.1.2-.1.1c0 .1 0 .1 0 0v.1l.1-.2s0 .1 0 0c0 0-.1.2-.1.1 0 .1.1-.2.1-.1v-.1.2c0-.1 0 0 .1-.1v.4c0 .1 0-.1.1 0 0 .1 0 .1.1.1v-.1.3-.1.2c0 .4 0 .6.1.6v-.1.1z"/>
</svg>
