<svg xmlns="http://www.w3.org/2000/svg" width="51" height="51" fill="none" viewBox="0 0 51 51">
    <path fill="#005EF5" fill-rule="evenodd" d="M44.447 10.038c.004.017 0 .025 0 .04l-.076-.099c.026.021.05.037.076.06zm1.749 29.638c-.005-.011-.008-.03-.014-.042.033.048.061.098.068.154-.09.207-.177.237-.242.228.054-.09.114-.196.188-.34zm3.87-17.51l.253-.161c-.127-.193-.273-.38-.41-.567-.19-.411-.096-.807-.035-1.24.03-.216.053-.44.029-.672-.038-.23-.137-.463-.316-.705l-.134.184c-.078-.393-.452-1.18-.236-1.177-.042-.03-.214-.069-.168-.247l.128-.054c-.085-.144-.162-.29-.254-.431l-.294-.413c-.19-.739.564-.081.169-1.134-.208-.371-.816-.935-.841-.75.056.157.079.428-.045.496l-.205-.315-.075.017-.022-.053c-.623-1.345-1.357-2.602-2.178-3.775l.062-.002-.102-.055c-.114-.162-.224-.326-.341-.484.052-.017.119 0 .2.079-.096-.444-.33-.208-.39-.609 0-.05.026-.047.06-.027l-.341-.246c.111.013.16-.214.276.012-.3-.702-.954-.732-.917-1.126l.056.032c-.564-.492-.44-.207-.634-.15-.111-.12-.224-.237-.337-.354l.079-.54-.261.12c-.067-.08-.198-.24-.096-.29-.402-.143-.035.13-.315.096-.093-.261-.348-.495-.572-.685-.232-.184-.41-.353-.315-.553-.271.042.265.424-.237.194.179-.45-.526-.33-.743-.783.255-.099.515.278.29-.181-.232.07-.39-.089-.536-.29-.148-.198-.306-.413-.488-.493-.2.251-.777-.362-1.374-.634.11-.098-.967-.762-1.453-1.151l.041-.04c-.26.242-.762-.143-1.214-.248.097-.167.207-.211.47-.183-.129-.065-.264-.114-.397-.172-.137.055-.283.052-.554-.022l.197-.18c-.543-.203-1.163-.208-1.802-.598-.075.136.103.436-.011.59-.122-.043-.245-.082-.368-.124.038-.063.1-.11.202-.104-.069-.005-.257.026-.367-.064l.36-.102c-.288-.185-.221.11-.467.013.06-.164-.149-.177-.07-.297.07.005.2.138.32.104-.278-.12-.595-.328-.674-.49-.003.102-.068.224-.285.18-.548-.159-.128-.26-.426-.447-.16.065-.49-.131-.563.121-.163-.036-.165-.16-.211-.243-.319.05-1.367-.255-1.093.086l.07.033-.049.002c-.248.014-.491-.014-.732-.065-.243-.044-.49-.083-.733-.142-.488-.11-.979-.24-1.46-.238l.009-.087c-.576.04-1.28.025-1.687.195-.167-.002-.397-.165-.326-.268-.438.07-.483.128-1.12.047.434-.188-.158-.122.447-.148-.571-.03-.716-.157-1.31.131.192-.24-.458-.243-.724-.155l.419.126c-.302.058-.57.06-.844.065l.11-.304c-.613-.098-1.12.17-1.586.373-.465.222-.899.355-1.399.211-.249.286.65-.037.438.274-.521.11-1.177-.14-1.344-.092-.767.064-.55.584-1.31.736.127.062.302.292-.19.597-.504.162-.77-.163-.484-.37.118-.056.188-.048.195-.013.148-.101.347-.23.108-.256l-.03.125c-.286 0-.977.291-.88.067-.345.247-.096.224.205.161-.7.135-1.027.369-1.696.632.127-.001.273.06.172.113-.987.372-.32.392-.92.76-.432.047-.056-.402-.623.049-.442.11-.223-.197-.108-.354-.12.122-.254.21-.39.28-.128.08-.262.14-.393.188-.26.097-.51.151-.679.24l.247-.264c-.148.158-.292.252-.439.348l.282.065c-.19.082-.336.177-.38.103-.1.23.326.2.088.584-.281.067-.62.534-.847.383.748-.416-.25-.178.325-.621-.097.105-.241.196-.432.284-.043-.006-.013-.065.026-.108-.797.314-.108.489-.767 1.015-.015-.19-.34-.105-.427.01.269-.217.291.098.129.387-.498.25-.395.44-.621.608l.286-.161c.018.184-.203.336-.426.643-.106-.067.182-.3.052-.246-.103.49-.862.457-1.144 1.001-.267.118-.23-.185-.452-.065-.324.595-.64.386-.964 1.027.288-.019.268-.076.12.429l.605-.97-.23.76c.221-.254.345-.648.521-.763-.112.363-.112.312.115.302-.53.146-.438.822-.937 1.093l-.395-.34c-.344.246-.538.559-.701.924-.155.373-.312.773-.66 1.173l.264-.23c.094.231-.336.552-.454.88-.13-.119-.302.024-.475.09.12.05-.38.677-.12.93l-.424.302c-.485.712-.037 1.064-.39 1.782-.077-.303-.334-.012-.244-.572-.108.25-.233.464-.124.516-.163.106-.077.786-.326.953.026.133.182.233.052.506-.046.018-.08-.031-.08-.031.07.028-.051.484.214.3-.379.3-.545.86-.695 1.405-.074.273-.149.542-.24.78-.071.244-.168.455-.32.606-.06.593-.166 1.296-.243 1.824-.048-.043-.086-.016-.056-.113-.244.712.443.52.17 1.322-.326.393-.1-.458-.236-.206-.572.057-.061 1.014-.406 1.556l-.03-.14c-.203.43.199 1.074.148 1.777 0 0-.05-.034-.087-.003.251.484.46 1.38.588 2.04-.24-.187-.143-.295-.36-.146.058.3.358-.12.47.471-.102.207-.185.656-.4.745-.043-.188-.047-.38-.073-.57-.141.164-.131.353-.069.534.069.18.17.356.17.51l-.142-.018c.204.87.547.814.693 1.744l.084-.12c.437.42-.08.462.302.892l-.293.241c.184.306.638 1.056.902 1.599-.373-.23-.675-.886-.954-1.27.093.328.348 1.106.56 1.218-.07-.12-.2-.259-.186-.405.355.323.707.765.944 1.385-.336.069-.212.492-.04.981.15.5.453 1.008.325 1.35.396.476.637 1.02.9 1.59.297.546.59 1.133.998 1.71.153-.717.239.334.628-.055.203.245.29.331.278.38l-.024-.065.023.07.002-.002.367.959c.028.282-.288-.166-.364-.067.425.585.014.38.21.845.086-.2.37.015.577.384l-.18-.613c.422.296.476.534.554.762.07.23.146.468.607.73l-.349-.11c.221.151.563.495.932.806.092.078.186.153.28.224.101.061.202.118.302.165.198.095.388.156.556.153.03.106.03.296-.173.18.23.211.499.405.78.588.281.181.563.368.87.503.596.293 1.141.581 1.47.962l-.148.06c.217.091.456.025.647.268-.04.04-.15.07-.059.127.133.02.656.093.887.306l-.302.005c.494.365.95.507 1.389.604.456.068.9.08 1.377.234-.151.345.67.871 1.112 1.065l-.034.046c.671.238 1.275.343 1.863.416.59.07 1.188.026 1.834.096.175.145.431.264.733.368.303.1.662.139 1.032.197.743.096 1.546.224 2.2.32-.198-.074.045-.302.275-.338.305.084.84-.256.793.1l-.109-.009c.23.346.867.293 1.358.238l.056-.473c.326.144.702.182 1.088.168.386-.024.788-.059 1.157-.18.744-.209 1.402-.412 1.813-.179.282-.157.65-.267.914-.466l.048.246c.421-.088.74-.156 1.078-.245.168-.045.342-.096.537-.157l.309-.102.339-.156-.143.25c.572-.212.455-.96.95-1.175l.294.283c.976-.35 2.042-.618 2.8-1.382.012.056.039.164-.105.256.461-.179 1.763-.79 1.337-1.114.188.268.925-.562 1.284-1.005l.079.253c.18-.552.137-.628.588-1.11.14-.073.23.067.03.149.483-.23.163-.434.73-.73l-.077.267c.422-.329.346-.351.427-.695.167-.306.75-.663.966-.563-.045-.147.03-.479.297-.654.09.028.048.144.025.202.188-.128.328-.264.441-.399.106-.14.177-.288.249-.42.14-.27.264-.504.552-.663.07.041.128.037.18.013-.456.545-.83.977-.81.923.169.153.57-.27.51.295.173-.48.388-1.326.826-1.692.034-.008.068-.015.109-.01l-.017.06c.1-.087.16-.188.195-.299.13-.126.216-.205.316-.347.19.054.454-.495.623-.73-.22-.118.022-.407-.345-.228.04-.028-.005.061-.102.225-.018.04-.043.084-.047.116l-.007-.029-.383.6c.024-.262.067-.515.356-.7-.05-.21-.099-.432-.114-.549.252-.064.523-.229.761-.376.244-.143.415-.294.538-.284.15-.422.376-.89.544-1.337.084-.225.156-.442.191-.65.021-.212.013-.41-.04-.583.04-.25.232-.206.335-.262-.013.15-.085.305-.055.403.085-.505.53-1.374.27-1.597.37-.523.162.434.41-.385l.058.144c.5-.72.513-1.456.539-2.175-.017-.739-.051-1.469.473-2.319-.067.12-.099.179-.158.195.1-.25.16-.512.197-.777.043-.265.078-.533.106-.802.041-.54.12-1.082.08-1.628-.015-.545-.025-1.086 0-1.623.021-.27.02-.536.023-.802.008-.267.028-.533.064-.8.044-.604-.168-.65-.355-.99z" clip-rule="evenodd" opacity=".1"/>
    <path fill="#4E56FF" d="M18.666 31.778h-.222c.778 0 1.667 0 2.556.11-.89-.11-1.89-.333-2.89-.333-.332 0-.444 0-.555-.11-.333-.112-.555-.223-.777-.334.11 0 .11-.111.222-.222 0 0 0-.111.11-.111 0-.111 0-.223.112-.334v-1.11c-.111-.334-.111-.779-.111-1.112 0 .222.111.556.111.778 0-.222-.111-.556-.111-.778-.222-1.222-.222-2.444-.222-3.667v-2-1c0-.333 0-.777.11-.777.112-.223.223-.445.445-.556.111-.111.223-.111.445-.111h.889c1.333 0 2.777.111 3.555.111H23h-.778C23.111 20.111 24 20 24.778 20c-.111 0-.223-.111-.556-.222h.444c.334-.112 1.223-.112 1.667-.223-.111.111.222.111.556.111h-.111H30.444l.89-.11c-.112.11.777.11.332.11.223 0 .334 0 .556-.11h.333c.223 0 .445.11.556.222.333.333.444.555.444 1.11v1.89c0 1.222.111 2.444.223 3.666v-.11C33.888 27.221 34 28 34 29c.11.778.222 1.778.333 2.222-.111.444-.333.778-.555 1-.223.222-.556.444-1 .667.11 0-.111.11-.334.11-.222 0-.333.112-.11.112.777.111.777-.111 1.444-.222.666-.334 1.222-1 1.444-1.778 0-.222.111-.445.111-.556v-1.333c0-1.111.111-2.222.111-3.333-.11-1.556 0-3.111 0-4.667 0-.333 0-1.111-.333-1.667-.222-.555-.778-1-1.333-1.333-.334-.111-.556-.222-.89-.333h-.777c-.444 0-.778 0-1.111.11-.445.112-.667 0-1 0-1.334 0-3 0-4.556.112h.111c-.777 0-1.333-.111-2.11-.111h-.223c-.111-.111-4.556.333-4.889.222h-.222c-.445 0-1.111 0-1.556.333-.444.223-.889.667-1.222 1.223-.111.222-.222.555-.222.777v1.889c.111.334.111.667.222.89-.222.221-.111.221-.111.555-.222.777-.111 1.222 0 .777v1.778c0 .222 0 .556.111.778 0 .222 0 .333-.111.444 0 .556 0 .445-.111 1-.111.223.222 1.556.111 1.667v-.111 1.222c0 .445.222.778.556 1.223.444.555 1.11.888 1.777 1h4.334c0-.112-.334 0-.445-.112 1 0 2 .111 3.111.111.223 0 .445.112.445.112h.444v.11c.334-.11.556.112.89.112h.221c0 .11.334 0 .334.11h.222c.111 0 1.333-.332 1.555-.332h.112c.222 0 .222-.111.11-.111h.445s.111 0 0 .11h.445c-.334-.11-.778-.11-1.223-.222h.556c.222.111.667.111.889.111.11 0 .11-.11.333-.11.111.11.222 0 .334 0h-.445c0 .11.333.11.556.11h.555c-.111.112.111 0 .222.112h.111c0-.111-.555-.111-.333-.111h.445s-.111 0 0-.112h.444-.111c.222 0-1.111.334-.778.334-.111 0 1.111-.334 1-.334-.111 0 .111-.11 0-.11l-.111.11c-.222 0-.222-.11-.222-.11.333 0-.778.333-.556.333h-.11c.11 0 .332-.111.444 0 0 0 .11-.111.222-.111.11 0 .333 0 .222-.112-.667 0 .444-.555-.222-.555.333.11-.111.11-.445.11 0 0-.11-.11-.333-.11-.222 0-.111 0-.111.11-.111 0-.333 0-.222-.11-.111.11-.223 0-.445 0-.11 0 0 0-.11.11h-.779c-.11 0-.333-.11-.11-.221.333 0-.112.11.221.11-.11-.11.334 0 .334-.11-.111-.111-.334-.111-.556 0h-.666s0-.111.11-.111h-.222s-.11 0 0 0h-.333L27.111 33c-.222 0-.222-.111-.333 0 0 0 1.666-.111 1.444-.111-.111 0-1.889.222-2 .11-.111 0-.222 0-.222.112-.222 0 .11-.111-.111-.111l-.111-.556c-.334.111-.778 0-1.111.111.11 0 .222-.11.444-.222 0 0 .222 0 .222-.111h-.778c-.11 0-.11 0 0 0-.11-.111-.777.111-1.222 0h-.111c-.444 0-.667-.111-1.111-.111-.111.111-.111.111 0 .111h-.333c.333-.111-.556-.111-.223-.333h-.444s0 .11-.222.11c-.334 0-.223 0-.445-.11-.11 0 0-.111 0-.111-.444.11-.333-.111-.666-.111-.223 0-.667 0-.667.11-.445.112-.445 0-.445 0z"/>
    <path fill="#4E56FF" d="M17.666 24c-.111 0-.222-.111-.333-.222.11.444.333.777.889.333-.223.222 0 .556.11.444.112 0 .112 0 .223-.11h-.111.111c.444-.112.778.222 1.222.555.111.222.667.555.89.778 0 0 .11 0 .11.11l-.11-.11h.443v-.223.112c.112-.112.223 0 .334-.112v.112c.333 0 .555 0 .666.11v.112h.112c0 .11.11.11 0 .11.11-.11.222.112.333 0l1.333.334c.111 0 .334-.11.445 0 .222-.11.333-.11.444-.222h.445c0-.111.222-.111.11-.111 0-.222-.11-.111-.11-.222-.223-.445-.445-.667-.778-.89-.334 0-.556-.221-.778-.221-.222-.112-.556-.223-.778-.223-.11 0-.11-.11-.11-.11-.223 0-.445-.223-.668-.223-.11 0-.222-.222-.333-.222 0-.111-.778 0-.778-.111-.333-.223-.555-.667-.777-.667-.112 0-.112.111-.223.111 0-.111-.11 0-.11 0 0-.333-.112-.222-.112-.111-.11 0-.222-.111-.333-.111h-.111v-.111c-.111 0 0 0-.111-.111 0-.111-.334 0-.334 0 0-.111 0-.334-.11-.334-.223-.222-.556-.333-.779-.444 0 .111.111 0 0 .111-.222-.111-.222-.222-.444-.333v-.111c0-.112 0 0-.111 0v-.112c-.111 0 0-.11-.111-.11 0-.112-.111 0 0-.112l-.334.223s-.11 0-.11.11v-.11h-.112c0 .11.111.222.111.333h-.11c0-.111 0-.111-.112-.222 0 0-.111.11-.111 0v-.112h.111v-.11h-.111v-.112.222h-.111s.333-.222.222-.222l-.333.223v.222l.222-.223h-.111l-.111.112-.111.11c.11 0-.334.445-.223.556.111-.444.111-.444.223-.444v.222s0 .111 0 0c0 0 .11 0 .11.111 0 0 0 .111-.11.222 0 0 .11-.11 0-.11 0 .11-.112 0-.112.11h.223s.11 0 .11.111v.112l.223-.112s0 .112 0 0h-.222c0 .112.333-.11.333 0h.111v.222c.111 0 .111.112.222 0l-.11.112-.112.11H17c0 .112.111 0 .223.112 0 .111 0 .111.11.222l.112-.11c-.111.11 0 .221-.111.332 0 0 0 .112.11 0 0 0 0-.11.112-.11v.222c.111 0 0 .11.111.11h.111c-.11 0-.11.112-.11.223zM31.888 22.333c.111 0 .223-.11.334-.11-.445-.112-.89-.223-.778.444-.222-.334-.556-.334-.444-.223 0 .111-.112.111-.112.223l.111-.112s0 .112-.11.112c-.223.444-.667.444-1.112.555-.222 0-.889.222-1.222.222h-.111.111c-.111.111-.222.334-.333.445l.11.111h-.11c0 .111-.111.222-.223.333 0-.11-.11-.11-.11-.11-.223 0-.334.221-.445.221h-.111l-.111.111c0-.11-.111 0-.111-.11.11.222 0 .222-.111.333-.334.222-.667.444-1 .777 0 .112-.112.334-.223.334 0 .222-.222.333-.11.555-.223.111-.223.223-.334.334.111.11-.111.222 0 .222.111.111.111 0 .222 0 .445 0 .778-.111 1.111-.222.222-.223.445-.223.667-.334.222-.11.444-.333.667-.555h.222l.666-.334c.111-.11.223 0 .334-.11v-.112c.11.111.555-.555.666-.555.223-.111.667.11.89 0v-.223c.11 0 0-.11.11-.11.223.222.223.11.111 0 .112-.112.223-.112.223-.112l.11-.11h.112c.111-.112.111 0 .222 0 .111.11.111-.223.222-.223s.223.111.334.111c.333-.111.555-.222.889-.333 0-.111 0 0-.111-.111.11 0 .333 0 .555-.112 0 0 .111 0 .111.112.111 0 0-.112 0-.112v.112c0-.112.111.11.111 0 0 .11 0 0 .111 0 0 0 .111-.334.111-.445v-.11.11-.11c-.11 0-.222-.112-.333-.112h.111c.111 0 .111.111.222.111V23c0 .111 0 0 .112 0H34c0 .111.11 0 .11 0l.112-.111c0 .111 0 0 .11.111v-.111c0-.111-.11 0-.11-.111h.11v-.111s0-.112.112 0V23v-.445.112l-.111-.112v.334s0-.111.111 0v-.111-.111c-.111.11-.111-.556-.222-.445.11.111 0 .111 0 .111l-.111-.11v.11s-.111 0-.111-.11c0 .11 0 0-.112 0v.11h-.11s-.112-.11-.112-.222c.222.111.222.333.222.222-.11-.11 0 0 0-.11h-.11s-.112.11-.112 0v-.112l-.11.222h-.112s.222-.222.111-.222c0 0-.222.333-.222.222v.111s0-.11-.111-.11c0 .11-.111 0-.111.11v-.222-.11s-.111 0-.111.11c-.112 0-.112.222-.223.222v.111h-.222c0 .112 0 .112.111.112 0-.112-.11-.112-.222-.223h-.111v.111h-.111v-.11c0 .11-.111-.112-.111 0l-.111.11c-.112-.11-.112-.222-.112-.222z"/>
</svg>
