<?xml version="1.0" encoding="UTF-8"?>
<svg width="13px" height="8px" viewBox="0 0 13 8" version="1.1" xmlns="http://www.w3.org/2000/svg" xmlns:xlink="http://www.w3.org/1999/xlink">
    <!-- Generator: Sketch 55.1 (78136) - https://sketchapp.com -->
    <title>Combined Shape</title>
    <desc>Created with Sketch.</desc>
    <g id="Page-1" stroke="none" stroke-width="1" fill="none" fill-rule="evenodd">
        <g id="Combined-Shape" transform="translate(6.500000, 4.000000) rotate(-180.000000) translate(-6.500000, -4.000000) " fill="#6A7A8E" fill-rule="nonzero" stroke="#6A7A8E">
            <g transform="translate(6.500000, 4.000000) rotate(-90.000000) translate(-6.500000, -4.000000) translate(3.000000, -2.000000)" id="Path">
                <path d="M3.40135957,8.36163474 L8.36027816,3.07908141 C8.45499978,2.97817796 8.61358523,2.97316659 8.71448868,3.06788821 C8.71833669,3.07150047 8.72206962,3.0752334 8.72568188,3.07908141 C8.82839938,3.18850258 8.82839938,3.35891135 8.72568188,3.46833253 L3.61002987,8.91784819 C3.55430996,8.97720456 3.4764908,9.00337872 3.40131376,8.99558882 C3.33150553,9.00281847 3.25906741,8.98084543 3.20388247,8.92904139 C3.20003446,8.92542913 3.19630153,8.9216962 3.19268927,8.91784819 L-1.92296274,3.46833253 C-2.02568024,3.35891135 -2.02568024,3.18850258 -1.92296274,3.07908141 C-1.82824112,2.97817796 -1.66965567,2.97316659 -1.56875222,3.06788821 C-1.56490421,3.07150047 -1.56117128,3.0752334 -1.55755902,3.07908141 L3.40135957,8.36163474 Z" transform="translate(3.401360, 5.998465) rotate(90.000000) translate(-3.401360, -5.998465) "></path>
            </g>
        </g>
    </g>
</svg>