<svg width="45" height="45" viewBox="0 0 45 45" fill="none" xmlns="http://www.w3.org/2000/svg">
<rect width="45" height="45" rx="22.5" fill="#E4EEFF"/>
<path d="M21.4951 28.416C21.4951 28.6484 21.4062 28.8535 21.2285 29.0312C21.0645 29.1953 20.8662 29.2773 20.6338 29.2773H19.6289C18.5762 29.2773 17.585 29.0791 16.6553 28.6826C15.7256 28.2861 14.9121 27.7461 14.2148 27.0625C13.5312 26.3652 12.9912 25.5518 12.5947 24.6221C12.1982 23.7061 12 22.7217 12 21.6689C12 20.6162 12.1982 19.625 12.5947 18.6953C12.9912 17.7656 13.5312 16.959 14.2148 16.2754C14.9121 15.5781 15.7256 15.0312 16.6553 14.6348C17.585 14.2383 18.5762 14.04 19.6289 14.04H21.5771V12.1943C21.5771 11.9482 21.6592 11.7432 21.8232 11.5791C22.001 11.4014 22.2129 11.3125 22.459 11.3125C22.6914 11.3125 22.8896 11.4014 23.0537 11.5791C23.2314 11.7432 23.3203 11.9482 23.3203 12.1943V14.04H25.2891C26.3418 14.04 27.3262 14.2383 28.2422 14.6348C29.1719 15.0449 29.9785 15.5918 30.6621 16.2754C31.3594 16.959 31.9062 17.7656 32.3027 18.6953C32.6992 19.625 32.8975 20.6162 32.8975 21.6689C32.8975 21.9014 32.8086 22.1064 32.6309 22.2842C32.4668 22.4482 32.2686 22.5303 32.0361 22.5303C31.79 22.5303 31.5781 22.4482 31.4004 22.2842C31.2363 22.1064 31.1543 21.9014 31.1543 21.6689C31.1543 20.8623 31.0039 20.1035 30.7031 19.3926C30.4023 18.6816 29.9854 18.0664 29.4521 17.5469C28.9189 17.0137 28.3037 16.5967 27.6064 16.2959C26.8955 15.9814 26.1367 15.8242 25.3301 15.8242H19.6289C18.8086 15.8242 18.043 15.9814 17.332 16.2959C16.6211 16.5967 15.999 17.0137 15.4658 17.5469C14.9326 18.0801 14.5156 18.7021 14.2148 19.4131C13.9004 20.1377 13.7432 20.9033 13.7432 21.71C13.7432 22.5166 13.9004 23.2754 14.2148 23.9863C14.5156 24.7109 14.9326 25.3398 15.4658 25.873C15.999 26.3926 16.6211 26.8096 17.332 27.124C18.043 27.4248 18.8086 27.5752 19.6289 27.5752H20.6338C20.8662 27.5752 21.0645 27.6572 21.2285 27.8213C21.3926 27.9854 21.4814 28.1836 21.4951 28.416ZM32.6514 24.7451C32.7334 24.8271 32.7949 24.9229 32.8359 25.0322C32.877 25.1279 32.8975 25.2373 32.8975 25.3604C32.8975 25.4834 32.877 25.5996 32.8359 25.709C32.7949 25.8184 32.7334 25.9072 32.6514 25.9756L28.6729 29.9541C28.5908 30.0361 28.4951 30.1045 28.3857 30.1592C28.2764 30.2002 28.1602 30.2207 28.0371 30.2207C27.9277 30.2207 27.8184 30.2002 27.709 30.1592C27.5996 30.1045 27.5039 30.0361 27.4219 29.9541L26.1299 28.6621L22.7666 32.0459C22.6846 32.1279 22.5889 32.1895 22.4795 32.2305C22.3838 32.2852 22.2744 32.3125 22.1514 32.3125C22.0283 32.3125 21.9121 32.2852 21.8027 32.2305C21.707 32.1895 21.6182 32.1279 21.5361 32.0459C21.4541 31.9775 21.3857 31.8887 21.3311 31.7793C21.29 31.6699 21.2695 31.5537 21.2695 31.4307C21.2695 31.3213 21.29 31.2119 21.3311 31.1025C21.3857 30.9932 21.4541 30.8975 21.5361 30.8154L25.5146 26.8369C25.5967 26.7549 25.6855 26.6934 25.7812 26.6523C25.8906 26.5977 26.0068 26.5703 26.1299 26.5703C26.2529 26.5703 26.3691 26.5977 26.4785 26.6523C26.5879 26.6934 26.6768 26.7549 26.7451 26.8369L28.0371 28.1289L31.4209 24.7451C31.4893 24.6631 31.5781 24.6016 31.6875 24.5605C31.7969 24.5195 31.9131 24.499 32.0361 24.499C32.1592 24.499 32.2686 24.5195 32.3643 24.5605C32.4736 24.6016 32.5693 24.6631 32.6514 24.7451ZM19.2188 19.3105C19.5332 19.3105 19.8066 19.4268 20.0391 19.6592C20.2715 19.8779 20.3877 20.1514 20.3877 20.4795C20.3877 20.7939 20.2715 21.0674 20.0391 21.2998C19.8066 21.5186 19.5332 21.6279 19.2188 21.6279C18.8906 21.6279 18.6104 21.5186 18.3779 21.2998C18.1592 21.0674 18.0498 20.7939 18.0498 20.4795C18.0498 20.1514 18.1592 19.8779 18.3779 19.6592C18.6104 19.4268 18.8906 19.3105 19.2188 19.3105ZM25.6992 19.3105C26.0137 19.3105 26.2871 19.4268 26.5195 19.6592C26.752 19.8779 26.8682 20.1514 26.8682 20.4795C26.8682 20.7939 26.752 21.0674 26.5195 21.2998C26.2871 21.5186 26.0137 21.6279 25.6992 21.6279C25.3711 21.6279 25.0908 21.5186 24.8584 21.2998C24.6396 21.0674 24.5303 20.7939 24.5303 20.4795C24.5303 20.1514 24.6396 19.8779 24.8584 19.6592C25.0908 19.4268 25.3711 19.3105 25.6992 19.3105Z" fill="#123399"/>
</svg>
