<svg width="45" height="45" viewBox="0 0 45 45" fill="none" xmlns="http://www.w3.org/2000/svg">
<rect width="45" height="45" rx="22.5" fill="#E4EEFF"/>
<path d="M29.4844 18.5117C29.1589 17.9128 28.7357 17.3984 28.2148 16.9688C27.694 16.5391 27.1081 16.2266 26.457 16.0312L26.418 16.0117C26.3919 15.3346 26.1315 14.7617 25.6367 14.293C25.1419 13.8242 24.556 13.5898 23.8789 13.5898H23.625V12.6328C23.625 12.4505 23.5599 12.3008 23.4297 12.1836C23.3125 12.0664 23.1693 12.0078 23 12.0078C22.8307 12.0078 22.681 12.0664 22.5508 12.1836C22.4336 12.3008 22.375 12.4505 22.375 12.6328V13.5898H22.1211C21.431 13.5898 20.8385 13.8307 20.3438 14.3125C19.862 14.7812 19.6081 15.3477 19.582 16.0117V16.0312C18.918 16.2266 18.319 16.5391 17.7852 16.9688C17.2643 17.3984 16.8477 17.9062 16.5352 18.4922L16.5156 18.5312C16.3984 18.5964 16.2878 18.6745 16.1836 18.7656C16.0794 18.8438 15.9883 18.9284 15.9102 19.0195H15.8906C15.5781 19.332 15.3307 19.6966 15.1484 20.1133C14.9792 20.5299 14.8945 20.9727 14.8945 21.4414C14.8945 22.1185 15.0703 22.737 15.4219 23.2969C15.7865 23.8438 16.2552 24.2539 16.8281 24.5273L16.8477 24.5469C17.3034 25.2109 17.8958 25.7448 18.625 26.1484C19.3672 26.5391 20.168 26.7344 21.0273 26.7344C21.0273 26.7344 21.0339 26.7344 21.0469 26.7344H24.9922C25.8516 26.7344 26.6458 26.5391 27.375 26.1484C28.1172 25.7448 28.7161 25.2109 29.1719 24.5469C29.7578 24.2604 30.2266 23.8438 30.5781 23.2969C30.9427 22.75 31.125 22.138 31.125 21.4609C31.125 21.4479 31.125 21.4414 31.125 21.4414C31.125 20.8294 30.9753 20.2695 30.6758 19.7617C30.3763 19.2409 29.9792 18.8242 29.4844 18.5117ZM22.1211 14.8398H23.8789C24.1784 14.8398 24.4388 14.931 24.6602 15.1133C24.8945 15.2956 25.0508 15.5234 25.1289 15.7969H20.8711C20.9362 15.5234 21.0859 15.2956 21.3203 15.1133C21.5547 14.931 21.8216 14.8398 22.1211 14.8398ZM28.8398 21.6172C28.8398 21.7214 28.8333 21.819 28.8203 21.9102C28.8203 22.0013 28.8138 22.0924 28.8008 22.1836V22.1641C28.7617 22.4505 28.6901 22.724 28.5859 22.9844C28.4948 23.2448 28.3711 23.4922 28.2148 23.7266L28.2344 23.707C27.8828 24.2409 27.4206 24.6706 26.8477 24.9961C26.2747 25.3216 25.6497 25.4844 24.9727 25.4844H21.0273C20.4935 25.4844 19.9922 25.3867 19.5234 25.1914C19.0547 24.9831 18.6445 24.7031 18.293 24.3516C17.9414 24 17.6615 23.5898 17.4531 23.1211C17.2578 22.6523 17.1602 22.151 17.1602 21.6172V20.9336C17.1602 20.9206 17.1602 20.9141 17.1602 20.9141C17.1602 20.6146 17.1927 20.3216 17.2578 20.0352C17.3359 19.7357 17.4401 19.4622 17.5703 19.2148L17.5508 19.2344C17.8242 18.6875 18.1953 18.2318 18.6641 17.8672C19.1458 17.4896 19.6862 17.2422 20.2852 17.125H20.3242C20.4284 17.099 20.5391 17.0794 20.6562 17.0664C20.7734 17.0534 20.8971 17.0469 21.0273 17.0469H24.9727C25.1029 17.0469 25.2266 17.0534 25.3438 17.0664C25.4609 17.0794 25.5781 17.099 25.6953 17.125H25.6758C26.2878 17.2422 26.8281 17.4896 27.2969 17.8672C27.7786 18.2318 28.1497 18.681 28.4102 19.2148L28.4297 19.2344C28.5469 19.4818 28.638 19.7487 28.7031 20.0352C28.7812 20.3216 28.8203 20.6211 28.8203 20.9336L28.8398 21.6172ZM29.7969 29.4492C29.8359 29.5013 29.8685 29.5599 29.8945 29.625C29.9206 29.7031 29.9336 29.7812 29.9336 29.8594C29.9336 29.9505 29.9141 30.0352 29.875 30.1133C29.8359 30.2044 29.7839 30.276 29.7188 30.3281C29.6667 30.3802 29.6016 30.4193 29.5234 30.4453C29.4583 30.4714 29.3932 30.4844 29.3281 30.4844C29.3151 30.4844 29.3086 30.4844 29.3086 30.4844C29.2174 30.4844 29.1328 30.4648 29.0547 30.4258C28.9766 30.3867 28.9049 30.3346 28.8398 30.2695C28.4492 29.8268 27.9805 29.4753 27.4336 29.2148C26.8867 28.9544 26.2943 28.8242 25.6562 28.8242H20.3438C20.3438 28.8242 20.3372 28.8242 20.3242 28.8242C19.6992 28.8242 19.1133 28.9479 18.5664 29.1953C18.0195 29.4557 17.5508 29.8073 17.1602 30.25C17.0951 30.3151 17.0234 30.3672 16.9453 30.4062C16.8672 30.4453 16.7826 30.4648 16.6914 30.4648C16.5091 30.4648 16.3594 30.3997 16.2422 30.2695C16.125 30.1523 16.0664 30.0091 16.0664 29.8398C16.0664 29.7617 16.0794 29.6836 16.1055 29.6055C16.1315 29.5404 16.1706 29.4818 16.2227 29.4297H16.2031C16.7109 28.8568 17.3229 28.401 18.0391 28.0625C18.7552 27.724 19.5234 27.5547 20.3438 27.5547H25.6562C26.4766 27.5547 27.2448 27.724 27.9609 28.0625C28.6771 28.401 29.2826 28.8633 29.7773 29.4492H29.7969ZM22.375 10.9922V10.875C22.375 10.7057 22.4336 10.5625 22.5508 10.4453C22.681 10.3151 22.8307 10.25 23 10.25C23.1693 10.25 23.3125 10.3151 23.4297 10.4453C23.5599 10.5625 23.625 10.7057 23.625 10.875V10.9922C23.625 11.1615 23.5599 11.3112 23.4297 11.4414C23.3125 11.5586 23.1693 11.6172 23 11.6172C22.8307 11.6172 22.681 11.5586 22.5508 11.4414C22.4336 11.3112 22.375 11.1615 22.375 10.9922ZM21.125 20.2891C21.125 20.4844 21.0534 20.6536 20.9102 20.7969C20.7799 20.9271 20.6172 20.9922 20.4219 20.9922C20.2266 20.9922 20.0573 20.9271 19.9141 20.7969C19.7839 20.6536 19.7188 20.4844 19.7188 20.2891C19.7188 20.0938 19.7839 19.931 19.9141 19.8008C20.0573 19.6576 20.2266 19.5859 20.4219 19.5859C20.6172 19.5859 20.7799 19.6576 20.9102 19.8008C21.0534 19.931 21.125 20.0938 21.125 20.2891ZM25.8125 20.2891C25.8125 20.4844 25.7409 20.6536 25.5977 20.7969C25.4674 20.9271 25.3047 20.9922 25.1094 20.9922C24.9141 20.9922 24.7448 20.9271 24.6016 20.7969C24.4714 20.6536 24.4062 20.4844 24.4062 20.2891C24.4062 20.0938 24.4714 19.931 24.6016 19.8008C24.7448 19.6576 24.9141 19.5859 25.1094 19.5859C25.3047 19.5859 25.4674 19.6576 25.5977 19.8008C25.7409 19.931 25.8125 20.0938 25.8125 20.2891ZM21.5156 22.0078H24.0156V22.0469C24.0156 22.3854 23.8919 22.6784 23.6445 22.9258C23.3971 23.1732 23.1042 23.2969 22.7656 23.2969C22.4141 23.2969 22.1146 23.1732 21.8672 22.9258C21.6328 22.6784 21.5156 22.3854 21.5156 22.0469V22.0078Z" fill="#123399"/>
</svg>
