<svg width="45" height="45" viewBox="0 0 45 45" fill="none" xmlns="http://www.w3.org/2000/svg">
<rect width="45" height="45" rx="22.5" fill="#E4EEFF"/>
<path d="M32.8828 17.4102V26.5117C32.8828 27.3581 32.5833 28.0807 31.9844 28.6797C31.3984 29.2656 30.6823 29.5586 29.8359 29.5586H17.4531L14.4062 32.3711C14.3281 32.4362 14.237 32.4883 14.1328 32.5273C14.0417 32.5664 13.944 32.5859 13.8398 32.5859C13.8398 32.5859 13.8333 32.5859 13.8203 32.5859C13.7682 32.5859 13.7096 32.5794 13.6445 32.5664C13.5924 32.5534 13.5404 32.5339 13.4883 32.5078H13.5078C13.3516 32.4557 13.2279 32.3581 13.1367 32.2148C13.0456 32.0846 13 31.9349 13 31.7656V17.4102C13 16.5638 13.293 15.8477 13.8789 15.2617C14.4779 14.6628 15.2005 14.3633 16.0469 14.3633H29.8359C30.6823 14.3633 31.3984 14.6628 31.9844 15.2617C32.5833 15.8477 32.8828 16.5638 32.8828 17.4102ZM31.2227 17.4102C31.2227 17.0326 31.0859 16.707 30.8125 16.4336C30.5521 16.1602 30.2266 16.0234 29.8359 16.0234H16.0469C16.0469 16.0234 16.0404 16.0234 16.0273 16.0234C15.6497 16.0234 15.3242 16.1602 15.0508 16.4336C14.7904 16.694 14.6602 17.013 14.6602 17.3906C14.6602 17.3906 14.6602 17.3971 14.6602 17.4102V29.9102L16.5938 28.1523C16.6589 28.1003 16.737 28.0547 16.8281 28.0156C16.9323 27.9766 17.0365 27.957 17.1406 27.957H29.8359C30.2266 27.944 30.5521 27.8073 30.8125 27.5469C31.0859 27.2734 31.2227 26.9479 31.2227 26.5703V17.4102ZM20.4414 18.5234C20.168 18.5234 19.9336 18.6211 19.7383 18.8164C19.556 18.9987 19.4648 19.2201 19.4648 19.4805C19.4648 19.7539 19.556 19.9883 19.7383 20.1836C19.9336 20.3659 20.168 20.457 20.4414 20.457C20.7018 20.457 20.9232 20.3659 21.1055 20.1836C21.3008 19.9883 21.3984 19.7539 21.3984 19.4805C21.3854 19.2201 21.2878 18.9987 21.1055 18.8164C20.9232 18.6341 20.7018 18.543 20.4414 18.543V18.5234ZM25.4609 18.5234C25.4609 18.5234 25.4544 18.5234 25.4414 18.5234C25.181 18.5234 24.9531 18.6211 24.7578 18.8164C24.5755 18.9987 24.4844 19.2201 24.4844 19.4805C24.4844 19.7539 24.5755 19.9883 24.7578 20.1836C24.9531 20.3659 25.181 20.457 25.4414 20.457C25.7148 20.457 25.9427 20.3659 26.125 20.1836C26.3203 19.9883 26.418 19.7539 26.418 19.4805C26.4049 19.2201 26.3073 19.0052 26.125 18.8359C25.9427 18.6536 25.7214 18.556 25.4609 18.543V18.5234ZM20.4414 23.25C20.168 23.25 19.9336 23.3477 19.7383 23.543C19.556 23.7253 19.4648 23.9466 19.4648 24.207C19.4648 24.4805 19.556 24.7148 19.7383 24.9102C19.9336 25.0924 20.168 25.1836 20.4414 25.1836C20.7018 25.1836 20.9232 25.0924 21.1055 24.9102C21.3008 24.7148 21.3984 24.4805 21.3984 24.207C21.3984 23.9466 21.3008 23.7253 21.1055 23.543C20.9232 23.3477 20.7018 23.25 20.4414 23.25ZM25.4609 23.25C25.4609 23.25 25.4544 23.25 25.4414 23.25C25.181 23.25 24.9531 23.3477 24.7578 23.543C24.5755 23.7253 24.4844 23.9466 24.4844 24.207C24.4844 24.4805 24.5755 24.7148 24.7578 24.9102C24.9531 25.0924 25.181 25.1836 25.4414 25.1836C25.7148 25.1836 25.9427 25.0924 26.125 24.9102C26.3203 24.7148 26.418 24.4805 26.418 24.207C26.418 23.9466 26.3203 23.7253 26.125 23.543C25.9427 23.3477 25.7214 23.25 25.4609 23.25Z" fill="#123399"/>
</svg>
