<svg width="45" height="45" viewBox="0 0 45 45" fill="none" xmlns="http://www.w3.org/2000/svg">
<rect width="45" height="45" rx="22.5" fill="#FFF7E0"/>
<path d="M22 32.25C20.6198 32.25 19.3242 31.9896 18.1133 31.4688C16.8893 30.9479 15.8216 30.2383 14.9102 29.3398C14.0117 28.4284 13.3021 27.3607 12.7812 26.1367C12.2604 24.9258 12 23.6302 12 22.25C12 20.8698 12.2604 19.5742 12.7812 18.3633C13.3021 17.1393 14.0117 16.0781 14.9102 15.1797C15.8216 14.2682 16.8893 13.5521 18.1133 13.0312C19.3242 12.5104 20.6198 12.25 22 12.25C23.3802 12.25 24.6758 12.5104 25.8867 13.0312C27.1107 13.5521 28.1719 14.2682 29.0703 15.1797C29.9818 16.0781 30.6979 17.1393 31.2188 18.3633C31.7396 19.5742 32 20.8698 32 22.25C32 23.6302 31.7396 24.9258 31.2188 26.1367C30.6849 27.3477 29.9622 28.4089 29.0508 29.3203C28.1523 30.2188 27.0977 30.9349 25.8867 31.4688C24.6758 31.9896 23.3802 32.25 22 32.25ZM22 13.9688C22 13.9688 21.9935 13.9688 21.9805 13.9688C20.8477 13.9688 19.7734 14.1836 18.7578 14.6133C17.7552 15.043 16.8763 15.6354 16.1211 16.3906C15.3789 17.1458 14.7865 18.0247 14.3438 19.0273C13.9141 20.0299 13.6992 21.1042 13.6992 22.25C13.6992 23.3958 13.9141 24.4701 14.3438 25.4727C14.7865 26.4753 15.3789 27.3542 16.1211 28.1094C16.8763 28.8646 17.7552 29.457 18.7578 29.8867C19.7734 30.3164 20.8477 30.5312 21.9805 30.5312C23.1263 30.5312 24.207 30.3164 25.2227 29.8867C26.2253 29.457 27.0977 28.8646 27.8398 28.1094C28.5951 27.3542 29.1875 26.4753 29.6172 25.4727C30.0599 24.4701 30.2812 23.3958 30.2812 22.25C30.2812 21.1042 30.0599 20.0299 29.6172 19.0273C29.1875 18.0247 28.5951 17.1523 27.8398 16.4102C27.0977 15.6549 26.2253 15.056 25.2227 14.6133C24.2201 14.1836 23.1458 13.9688 22 13.9688ZM20.9648 25.8633C20.9648 25.8633 20.9583 25.8633 20.9453 25.8633C20.8281 25.8633 20.7174 25.8438 20.6133 25.8047C20.5221 25.7526 20.4375 25.6875 20.3594 25.6094L18.1133 23.3633C18.0352 23.2852 17.9766 23.2005 17.9375 23.1094C17.8984 23.0052 17.8789 22.8945 17.8789 22.7773C17.8789 22.5299 17.9635 22.3216 18.1328 22.1523C18.3021 21.9831 18.5104 21.8984 18.7578 21.8984C18.875 21.8984 18.9857 21.9245 19.0898 21.9766C19.207 22.0286 19.3047 22.1003 19.3828 22.1914L20.9648 23.793L24.8125 19.9453C24.8906 19.8672 24.9818 19.8086 25.0859 19.7695C25.2031 19.7174 25.3203 19.6914 25.4375 19.6914C25.6849 19.6914 25.8932 19.776 26.0625 19.9453C26.2448 20.1146 26.3359 20.3229 26.3359 20.5703C26.3359 20.7005 26.3099 20.8177 26.2578 20.9219C26.2057 21.026 26.1406 21.1237 26.0625 21.2148L21.5898 25.6875C21.5117 25.7396 21.4271 25.7852 21.3359 25.8242C21.2578 25.8633 21.1667 25.8828 21.0625 25.8828C21.0495 25.8828 21.0299 25.8828 21.0039 25.8828C20.9909 25.8698 20.9714 25.8633 20.9453 25.8633H20.9648Z" fill="#FFBB00"/>
</svg>
