<svg width="45" height="45" viewBox="0 0 45 45" fill="none" xmlns="http://www.w3.org/2000/svg">
<rect width="45" height="45" rx="22.5" fill="#D1FFF2"/>
<path fill-rule="evenodd" clip-rule="evenodd" d="M18.6499 11C18.2128 11 17.8586 11.3543 17.8586 11.7914V13.2157H14.0071C13.57 13.2157 13.2157 13.57 13.2157 14.0071V17.8586H11.7914C11.3543 17.8586 11 18.2128 11 18.65C11 19.0871 11.3543 19.4413 11.7914 19.4413H13.2157V23.6355H11.7914C11.3543 23.6355 11 23.9898 11 24.4269C11 24.864 11.3543 25.2183 11.7914 25.2183H13.2157V29.9928C13.2157 30.4298 13.57 30.7841 14.0071 30.7841H17.8586V32.2086C17.8586 32.6457 18.2128 33 18.6499 33C19.087 33 19.4413 32.646 19.4413 32.2086V30.7841H24.5587V32.2086C24.5587 32.6457 24.9129 33 25.35 33C25.7874 33 26.1414 32.646 26.1414 32.2086V30.7841H29.9928C30.4298 30.7841 30.7841 30.4298 30.7841 29.9928V25.2182H32.2086C32.646 25.2182 33 24.8639 33 24.4269C33 23.9898 32.6457 23.6355 32.2086 23.6355H30.7841V19.4413H32.2086C32.646 19.4413 33 19.087 33 18.6499C33 18.2128 32.6457 17.8586 32.2086 17.8586H30.7841V14.0071C30.7841 13.57 30.4298 13.2157 29.9927 13.2157H26.1414V11.7914C26.1414 11.3543 25.7871 11 25.35 11C24.9129 11 24.5587 11.3543 24.5587 11.7914V13.2157H19.4413V11.7914C19.4413 11.3543 19.087 11 18.6499 11ZM14.7985 24.4378V29.2014H29.2014V14.7985H25.3571L25.35 14.7985L25.3429 14.7985H18.657L18.6499 14.7985L18.6428 14.7985H14.7985V18.639L14.7985 18.65L14.7985 18.6609V24.416C14.7985 24.4196 14.7985 24.4232 14.7985 24.4269C14.7985 24.4306 14.7985 24.4342 14.7985 24.4378Z" fill="#29B68D"/>
<path d="M22.8766 23.5727C22.9281 23.6815 22.9539 23.7875 22.9539 23.8906C22.9539 24.0797 22.8766 24.2401 22.7219 24.3719C22.5729 24.5037 22.4011 24.5695 22.2063 24.5695C22.0745 24.5695 21.9542 24.5352 21.8453 24.4664C21.7365 24.3977 21.6505 24.2945 21.5875 24.157L21.2008 23.2891H18.4164L18.0211 24.157C17.9581 24.2945 17.8693 24.3977 17.7547 24.4664C17.6458 24.5352 17.5255 24.5695 17.3938 24.5695C17.199 24.5695 17.0214 24.5037 16.8609 24.3719C16.7063 24.2401 16.6289 24.0797 16.6289 23.8906C16.6289 23.7875 16.6547 23.6815 16.7063 23.5727L18.975 18.9148C19.0495 18.7602 19.1583 18.6427 19.3016 18.5625C19.4505 18.4766 19.6138 18.4336 19.7914 18.4336C19.9633 18.4336 20.1237 18.4766 20.2727 18.5625C20.4216 18.6427 20.5333 18.7602 20.6078 18.9148L22.8766 23.5727ZM18.9492 22.1031H20.668L19.8086 20.1867L18.9492 22.1031Z" fill="#29B68D"/>
<path d="M25.4783 20.2125C26.1314 20.2125 26.6127 20.3701 26.922 20.6852C27.2371 20.9945 27.3947 21.4672 27.3947 22.1031V23.8992C27.3947 24.1169 27.3288 24.2888 27.197 24.4149C27.071 24.5352 26.8934 24.5953 26.6642 24.5953C26.4637 24.5953 26.2975 24.538 26.1658 24.4235C26.0397 24.3089 25.971 24.1542 25.9595 23.9594C25.8793 24.1656 25.7447 24.3261 25.5556 24.4406C25.3666 24.5552 25.1403 24.6125 24.8767 24.6125C24.5845 24.6125 24.321 24.5552 24.0861 24.4406C23.8512 24.3203 23.665 24.157 23.5275 23.9508C23.3957 23.7388 23.3298 23.5011 23.3298 23.2375C23.3298 22.9339 23.4072 22.6932 23.5619 22.5156C23.7223 22.3323 23.9744 22.2005 24.3181 22.1203C24.6619 22.0401 25.1259 22 25.7103 22H25.9423V21.8969C25.9423 21.6964 25.8965 21.5531 25.8048 21.4672C25.7132 21.3755 25.5585 21.3297 25.3408 21.3297C25.1059 21.3297 24.7621 21.4099 24.3095 21.5703C24.1778 21.6162 24.066 21.6391 23.9744 21.6391C23.8311 21.6391 23.7166 21.5875 23.6306 21.4844C23.5447 21.3813 23.5017 21.2466 23.5017 21.0805C23.5017 20.9544 23.5275 20.8513 23.5791 20.7711C23.6306 20.6909 23.7137 20.6193 23.8283 20.5563C24.0288 20.4531 24.2809 20.3701 24.5845 20.307C24.8882 20.244 25.1861 20.2125 25.4783 20.2125ZM25.2377 23.5899C25.4439 23.5899 25.6129 23.5182 25.7447 23.375C25.8765 23.2261 25.9423 23.037 25.9423 22.8078V22.7047H25.8048C25.4382 22.7047 25.1775 22.7391 25.0228 22.8078C24.8681 22.8708 24.7908 22.9797 24.7908 23.1344C24.7908 23.2662 24.8309 23.375 24.9111 23.461C24.997 23.5469 25.1059 23.5899 25.2377 23.5899Z" fill="#29B68D"/>
</svg>
