<svg width="45" height="45" viewBox="0 0 45 45" fill="none" xmlns="http://www.w3.org/2000/svg">
<rect width="45" height="45" rx="22.5" fill="#D1FFF2"/>
<path d="M29.9778 26.3413C29.9778 26.2403 29.9778 26.2403 29.9778 26.1392L29.8767 16.4388C29.8767 15.0241 28.6642 13.9126 27.3506 13.9126H17.448C16.0334 13.8116 14.9219 14.9231 14.9219 16.3377V29.3727C14.9219 30.7874 16.0334 31.9999 17.448 31.9999H24.016C24.016 31.9999 24.016 31.9999 24.1171 31.9999C24.1171 31.9999 24.1171 31.9999 24.2181 31.9999C24.4202 31.9999 24.6223 31.8989 24.7234 31.7978L29.8767 26.6445C29.8767 26.5434 29.9778 26.4424 29.9778 26.3413ZM24.9255 29.2717V27.857C24.9255 27.2508 25.4307 26.8466 25.9359 26.8466H27.3506L24.9255 29.2717ZM16.4376 29.3727V16.3377C16.4376 15.7315 16.9428 15.3273 17.448 15.3273H27.3506C27.9569 15.3273 28.361 15.8325 28.361 16.3377L28.4621 25.3309H26.037C24.6223 25.3309 23.5108 26.4424 23.5108 27.857V30.3832H17.448C16.9428 30.4842 16.4376 29.979 16.4376 29.3727Z" fill="#29B68D"/>
<path d="M23.4087 24.7219C23.4087 25.0251 23.3076 25.2271 23.1055 25.3282C22.9034 25.5303 22.7014 25.6313 22.4993 25.6313C22.1961 25.6313 21.994 25.5303 21.893 25.3282C21.6909 25.1261 21.5898 24.924 21.5898 24.7219C21.5898 24.5198 21.6909 24.2167 21.893 24.1156C22.0951 24.0146 22.2972 23.8125 22.4993 23.8125C22.8024 23.8125 23.0045 23.9135 23.1055 24.1156C23.2066 24.3177 23.4087 24.4188 23.4087 24.7219Z" fill="#29B68D"/>
<path d="M21.6933 18.2584C21.4912 18.4605 21.1881 18.6626 20.7839 18.8647C20.5818 18.9657 20.3797 19.0668 20.2787 19.0668C20.1776 19.0668 20.0766 18.9657 19.9755 18.8647C19.8745 18.6626 19.7734 18.5615 19.7734 18.3594C19.7734 18.1574 19.8745 17.9553 20.0766 17.7532C20.3797 17.45 20.7839 17.2479 21.2891 17.0458C21.7944 16.8438 22.1985 16.8438 22.7038 16.8438C23.209 16.8438 23.6132 16.9448 24.0174 17.1469C24.4216 17.349 24.6237 17.5511 24.9268 17.8542C25.1289 18.1574 25.2299 18.4605 25.2299 18.8647C25.2299 19.2689 25.1289 19.673 24.9268 19.9762C24.7247 20.2793 24.4216 20.5825 24.0174 20.9867C23.7142 21.3908 23.4111 21.694 23.3101 21.8961C23.108 22.0982 23.0069 22.4013 23.0069 22.7044C22.9059 22.8055 22.9059 22.9065 22.8048 22.9065C22.7038 23.0076 22.6027 23.0076 22.5017 23.0076C22.4006 23.0076 22.2996 23.0076 22.1985 22.9065C22.0975 22.8055 21.9965 22.7044 21.9965 22.5023C21.9965 22.0982 22.0975 21.694 22.1985 21.3908C22.4006 21.0877 22.6027 20.7846 22.9059 20.3804C23.209 20.0772 23.4111 19.8751 23.5122 19.673C23.6132 19.471 23.7142 19.2689 23.7142 19.0668C23.7142 18.7636 23.6132 18.5615 23.4111 18.4605C23.209 18.1574 22.9059 18.1574 22.6027 18.1574C22.2996 18.1574 21.9965 18.1574 21.6933 18.2584Z" fill="#29B68D"/>
</svg>
