<svg width="45" height="45" viewBox="0 0 45 45" fill="none" xmlns="http://www.w3.org/2000/svg">
<rect width="45" height="45" rx="22.5" fill="#FFF7E0"/>
<path d="M28.5612 28.5847H16.0394C14.5017 28.5847 13.1836 27.4863 13.1836 25.9485V18.6991C13.1836 18.2598 13.5131 17.8204 14.0623 17.8204C14.6115 17.8204 14.8312 18.2598 14.8312 18.6991V26.0584C14.8312 26.6076 15.3804 27.0469 16.0394 27.0469H28.5612C29.2202 27.0469 29.7694 26.6076 29.7694 26.0584V18.6991C29.7694 18.1499 29.2202 17.7106 28.5612 17.7106C28.1218 17.7106 27.6824 17.381 27.6824 16.8318C27.6824 16.2826 28.012 15.9531 28.5612 15.9531C30.0989 15.9531 31.417 17.1614 31.417 18.5893V25.9485C31.417 27.4863 30.2087 28.5847 28.5612 28.5847Z" fill="#FFBB00"/>
<path d="M26.6954 30.1209C26.6954 29.6815 26.3659 29.2422 25.8167 29.2422H18.7869C18.3476 29.2422 17.9082 29.5717 17.9082 30.1209C17.9082 30.6701 18.2377 30.9996 18.7869 30.9996H25.8167C26.256 30.8898 26.6954 30.5603 26.6954 30.1209Z" fill="#FFBB00"/>
<path d="M21.0927 18.8068L22.5206 23.2004C22.6305 23.4201 23.0698 23.4201 23.1797 23.0906L27.0241 13.5345C27.1339 13.3148 26.9142 13.0952 26.5847 13.205L16.0401 16.7199C15.7106 16.8297 15.7106 17.1592 16.0401 17.2691L20.8731 18.5871C20.9829 18.5871 21.0927 18.697 21.0927 18.8068Z" fill="#FFBB00"/>
</svg>
