<svg width="45" height="45" viewBox="0 0 45 45" fill="none" xmlns="http://www.w3.org/2000/svg">
<rect width="45" height="45" rx="22.5" fill="#FFE5E6"/>
<path d="M31.8 19.3V29.2C31.8 30.7 30.6 31.9 29.1 31.9H17.4C15.6 31.9 14.1 30.6 14 28.9C14 28.8 14 28.7 14 28.7V28.6V17.3C14 15.5 15.5 14 17.3 14C18.9 14 20.2 15.1 20.5 16.5H29.1C30.6 16.5 31.8 17.8 31.8 19.3ZM15.5 25.9C15.6 25.8 15.8 25.7 15.9 25.7C15.9 25.7 15.9 25.7 16 25.7C16.2 25.6 16.3 25.6 16.5 25.5H16.6C16.8 25.5 17 25.4 17.2 25.4C17.9 25.4 18.5 25.6 19 25.9V17.3C19 16.3 18.2 15.5 17.2 15.5C16.2 15.5 15.4 16.3 15.4 17.3V25.9H15.5ZM30 19.3C30 18.6 29.7 18.1 29.1 18.1H20.6V28.7C20.6 28.8 20.6 28.9 20.5 29C20.4 29.3 20.1 29.5 19.8 29.5C19.4 29.5 19 29.2 19 28.7C19 27.7 18.2 26.9 17.2 26.9C17.1 26.9 17 26.9 16.8 26.9C16.8 26.9 16.8 26.9 16.7 26.9C16.6 26.9 16.5 27 16.4 27C16.4 27 16.3 27 16.3 27.1C16.2 27.1 16.2 27.2 16.1 27.2L16 27.3C15.9 27.3 15.9 27.4 15.8 27.4L15.7 27.5L15.6 27.6C15.6 27.7 15.5 27.7 15.5 27.8C15.5 27.8 15.5 27.9 15.4 28C15.4 28.1 15.4 28.1 15.3 28.2C15.3 28.3 15.3 28.3 15.3 28.4C15.3 28.5 15.3 28.5 15.3 28.6C15.3 28.7 15.3 28.8 15.3 28.9C15.4 29.8 16.2 30.5 17.2 30.5H28.8C29.5 30.5 30 29.9 30 29.3V19.3Z" fill="#FF4651"/>
<path d="M27.7008 23.6992L26.3008 23.7992L27.1008 22.5992C27.2008 22.4992 27.2008 22.3992 27.2008 22.2992C27.2008 22.0992 27.1008 21.9992 27.0008 21.8992C26.9008 21.7992 26.7008 21.6992 26.5008 21.6992C26.3008 21.6992 26.1008 21.7992 26.0008 21.9992L25.4008 23.2992L24.8008 21.9992C24.7008 21.7992 24.5008 21.6992 24.3008 21.6992C24.1008 21.6992 24.0008 21.7992 23.8008 21.8992C23.6008 21.9992 23.5008 22.0992 23.5008 22.1992C23.5008 22.2992 23.5008 22.3992 23.6008 22.4992L24.4008 23.6992H23.0008C22.8008 23.6992 22.7008 23.6992 22.5008 23.8992C22.3008 24.0992 22.3008 24.1992 22.3008 24.3992C22.3008 24.5992 22.4008 24.6992 22.5008 24.7992C22.6008 24.8992 22.8008 24.9992 23.0008 24.9992L24.4008 24.8992L23.6008 25.9992C23.5008 26.0992 23.5008 26.1992 23.5008 26.2992C23.5008 26.4992 23.6008 26.5992 23.7008 26.6992C23.8008 26.7992 24.0008 26.9992 24.2008 26.9992C24.4008 26.9992 24.6008 26.8992 24.7008 26.6992L25.3008 25.3992L25.9008 26.6992C26.0008 26.8992 26.2008 26.9992 26.4008 26.9992C26.6008 26.9992 26.7008 26.8992 26.9008 26.7992C27.1008 26.6992 27.1008 26.4992 27.1008 26.3992C27.1008 26.2992 27.1008 26.1992 27.0008 26.0992L26.2008 24.8992L27.6008 24.9992C27.8008 24.9992 27.9008 24.9992 28.1008 24.7992C28.3008 24.5992 28.3008 24.4992 28.3008 24.2992C28.3008 24.0992 28.2008 23.9992 28.1008 23.8992C28.0008 23.7992 27.9008 23.6992 27.7008 23.6992Z" fill="#FF4651"/>
</svg>
