<svg width="45" height="45" viewBox="0 0 45 45" fill="none" xmlns="http://www.w3.org/2000/svg">
<rect width="45" height="45" rx="22.5" fill="#FFE5E6"/>
<path d="M22.5 14C21.3314 14 20.2289 14.2205 19.1926 14.6615C18.1563 15.1135 17.2523 15.7254 16.4805 16.4971C15.7198 17.2578 15.1135 18.1563 14.6615 19.1926C14.2205 20.2289 14 21.3314 14 22.5C14 23.6686 14.2205 24.7711 14.6615 25.8074C15.1135 26.8437 15.7198 27.7477 16.4805 28.5195C17.2523 29.2802 18.1563 29.8865 19.1926 30.3385C20.2289 30.7795 21.3314 31 22.5 31C23.6686 31 24.7711 30.7795 25.8074 30.3385C26.8437 29.8865 27.7422 29.2802 28.5029 28.5195C29.2746 27.7477 29.8865 26.8437 30.3385 25.8074C30.7795 24.7711 31 23.6686 31 22.5C31 21.3314 30.7795 20.2289 30.3385 19.1926C29.8865 18.1563 29.2746 17.2578 28.5029 16.4971C27.7422 15.7254 26.8437 15.1135 25.8074 14.6615C24.7711 14.2205 23.6686 14 22.5 14ZM29.1975 20.3171C29.1975 20.3281 29.1975 20.3447 29.1975 20.3667C29.1975 20.3778 29.1975 20.3888 29.1975 20.3998C29.1975 20.4219 29.1975 20.4439 29.1975 20.466C29.1975 20.477 29.203 20.488 29.214 20.499H29.1975C29.1975 20.9069 28.9384 21.3149 28.4202 21.7228C27.9021 22.1307 27.1965 22.4724 26.3035 22.7481C26.3035 22.704 26.3035 22.6599 26.3035 22.6158C26.3035 22.5717 26.3035 22.522 26.3035 22.4669C26.3035 22.4118 26.3035 22.3512 26.3035 22.285C26.3035 22.2189 26.3035 22.1527 26.3035 22.0866C26.3035 21.5133 26.2704 20.9565 26.2043 20.4163C26.1492 19.8651 26.061 19.3249 25.9397 18.7957C25.8184 18.2665 25.6696 17.7484 25.4932 17.2412C25.3168 16.7341 25.1128 16.2435 24.8813 15.7695L24.9309 15.8687C25.4381 16.0561 25.9121 16.2931 26.3531 16.5798C26.7941 16.8774 27.1965 17.2137 27.5603 17.5885C27.9241 17.9634 28.2383 18.3768 28.5029 18.8288C28.7785 19.2808 28.999 19.7549 29.1644 20.251L29.1809 20.3171H29.1975ZM22.5 29.5117C22.3016 29.5117 22.0921 29.4014 21.8716 29.1809C21.6401 28.9494 21.4196 28.6187 21.2101 28.1887C21.0006 27.7588 20.8132 27.2351 20.6479 26.6177C20.4825 26.0003 20.3557 25.3058 20.2675 24.534C20.5982 24.5781 20.951 24.6167 21.3259 24.6498C21.7007 24.6719 22.0866 24.6829 22.4835 24.6829C22.4945 24.6829 22.5 24.6829 22.5 24.6829C22.511 24.6829 22.5165 24.6829 22.5165 24.6829C22.9024 24.6829 23.2883 24.6719 23.6741 24.6498C24.06 24.6167 24.4403 24.5726 24.8152 24.5175L24.7325 24.534C24.6443 25.3058 24.5175 26.0003 24.3521 26.6177C24.1757 27.2351 23.9828 27.7588 23.7733 28.1887C23.5639 28.6187 23.3489 28.9494 23.1284 29.1809C22.8969 29.4014 22.6874 29.5117 22.5 29.5117ZM22.5 23.2772C22.0811 23.2772 21.6676 23.2607 21.2597 23.2276C20.8628 23.1835 20.466 23.1284 20.0691 23.0623L20.1518 23.0788C20.1518 22.9796 20.1518 22.8804 20.1518 22.7811C20.1518 22.6819 20.1518 22.5772 20.1518 22.4669C20.1518 21.3975 20.2234 20.4274 20.3667 19.5564C20.5211 18.6855 20.714 17.9468 20.9455 17.3405C21.1881 16.7231 21.4471 16.249 21.7228 15.9183C22.0094 15.5875 22.2685 15.4222 22.5 15.4222C22.7315 15.4222 22.9851 15.5875 23.2607 15.9183C23.5363 16.249 23.7899 16.7231 24.0214 17.3405C24.2529 17.9468 24.4458 18.6855 24.6002 19.5564C24.7435 20.4384 24.8152 21.4196 24.8152 22.5C24.8152 22.5992 24.8152 22.704 24.8152 22.8142C24.8152 22.9134 24.8152 23.0126 24.8152 23.1119C24.4955 23.156 24.1482 23.1946 23.7733 23.2276C23.4095 23.2607 23.0347 23.2772 22.6488 23.2772C22.6268 23.2772 22.5992 23.2772 22.5661 23.2772C22.5441 23.2772 22.522 23.2772 22.5 23.2772ZM20.0691 15.8852C19.8486 16.3372 19.6556 16.8113 19.4903 17.3074C19.3249 17.8035 19.1816 18.3106 19.0603 18.8288C18.9501 19.347 18.8674 19.8761 18.8123 20.4163C18.7461 20.9676 18.713 21.5243 18.713 22.0866C18.713 22.1527 18.713 22.2244 18.713 22.3016C18.713 22.3787 18.7185 22.4504 18.7296 22.5165V22.5V22.7811C17.8256 22.4945 17.1089 22.1472 16.5798 21.7393C16.0616 21.3204 15.8025 20.9069 15.8025 20.499C15.8025 20.488 15.8025 20.477 15.8025 20.466C15.8025 20.4439 15.8025 20.4219 15.8025 20.3998C15.8025 20.3888 15.8025 20.3778 15.8025 20.3667C15.8025 20.3447 15.797 20.3226 15.786 20.3006L15.8025 20.3171C15.9679 19.799 16.1884 19.3139 16.464 18.8619C16.7396 18.4099 17.0593 17.9964 17.4232 17.6216C17.787 17.2468 18.1839 16.9105 18.6138 16.6128C19.0548 16.3262 19.5233 16.0892 20.0195 15.9018L20.0691 15.8852ZM15.4222 22.5827C15.8962 22.9796 16.4089 23.3213 16.9601 23.608C17.5224 23.8836 18.1122 24.0875 18.7296 24.2198L18.7957 24.2364C18.8508 25.1294 18.9887 25.9893 19.2091 26.8161C19.4407 27.643 19.7383 28.4368 20.1021 29.1975L20.0691 29.1148C19.3855 28.8612 18.7626 28.5195 18.2004 28.0895C17.6381 27.6595 17.153 27.1634 16.7451 26.6012C16.3372 26.0279 16.0175 25.405 15.786 24.7325C15.5545 24.049 15.4332 23.3324 15.4222 22.5827ZM24.8648 29.0982C25.2176 28.3816 25.5042 27.6209 25.7247 26.8161C25.9452 26.0003 26.0885 25.1569 26.1547 24.286V24.2364C26.8051 24.0931 27.4115 23.8781 27.9737 23.5914C28.536 23.3048 29.0541 22.9685 29.5282 22.5827H29.5117C29.5006 23.3324 29.3794 24.049 29.1479 24.7325C28.9163 25.405 28.5966 26.0279 28.1887 26.6012C27.7918 27.1634 27.3123 27.6595 26.75 28.0895C26.1877 28.5084 25.5759 28.8447 24.9144 29.0982L24.8648 29.1148V29.0982Z" fill="#FF4651"/>
</svg>
