<svg xmlns="http://www.w3.org/2000/svg" width="35" height="35" fill="none" viewBox="0 0 35 35">
    <rect width="35" height="35" fill="#D1FFF2" rx="17.5"/>
    <path stroke="#29B68D" stroke-linecap="round" stroke-linejoin="round" stroke-miterlimit="10" stroke-width="1.5" d="M22.778 12.5c1.137 1.337 1.806 3.009 1.806 4.881 0 1.94-.736 3.678-1.94 5.015M20.106 15.184c.535.601.802 1.337.802 2.206 0 .87-.334 1.672-.869 2.273M11.13 22.337C9.993 21 9.324 19.328 9.324 17.457c0-1.94.736-3.678 1.94-5.016M13.748 19.663c-.535-.601-.803-1.337-.803-2.206 0-.87.335-1.672.87-2.273M16.958 18.131c.406 0 .736-.33.736-.735 0-.407-.33-.736-.736-.736-.406 0-.735.33-.735.736 0 .406.329.735.735.735z"/>
</svg>
