<svg xmlns="http://www.w3.org/2000/svg" width="35" height="35" fill="none" viewBox="0 0 35 35">
    <rect width="35" height="35" fill="#FFF7E0" rx="17.5"/>
    <path fill="#FB0" d="M23.726 14.83h-.363c-.605-2.663-2.965-4.72-5.868-4.72-2.904 0-5.263 1.997-5.808 4.72h-.423c-1.089 0-1.936.848-1.936 1.937v.969c0 1.09.847 1.937 1.936 1.937h.544c.06 0 .121-.06.182-.121.242 0 .423-.182.423-.424v-3.026c0-2.785 2.3-5.085 5.082-5.085s5.081 2.3 5.081 5.085v2.965c0 .061.06.182.06.242-.362 1.816-1.693 3.269-3.447 3.814-.242-.727-.968-1.21-1.755-1.21-1.028 0-1.875.847-1.875 1.876 0 1.028.847 1.876 1.875 1.876.968 0 1.755-.726 1.876-1.634 2.117-.545 3.69-2.24 4.174-4.419h.181c1.09 0 1.936-.847 1.936-1.937v-.908c.06-1.09-.847-1.936-1.875-1.936z"/>
</svg>
