<svg xmlns="http://www.w3.org/2000/svg" width="206" height="162" fill="none" viewBox="0 0 206 162">
    <path fill="#E7F6FD" d="M182.634 12.572h-22.138c-5.558 0-10.063 4.506-10.063 10.063v116.73c0 5.557 4.505 10.063 10.063 10.063h22.138c5.557 0 10.063-4.506 10.063-10.063V22.635c0-5.557-4.506-10.063-10.063-10.063z" opacity=".5"/>
    <path fill="#fff" stroke="#E5EFFE" d="M169.553 1H15.591C7.533 1 1 7.533 1 15.591V146.41C1 154.467 7.533 161 15.591 161h153.962c8.059 0 14.592-6.533 14.592-14.591V15.591C184.145 7.533 177.612 1 169.553 1z"/>
    <path fill="#F9F9FC" d="M103.14 26.66H74.963c-3.334 0-6.037 2.704-6.037 6.038v34.214c0 3.334 2.703 6.038 6.037 6.038h28.177c3.334 0 6.037-2.704 6.037-6.038V32.698c0-3.334-2.703-6.038-6.037-6.038zM154.46 87.037H73.957c-2.779 0-5.031 2.253-5.031 5.032s2.252 5.031 5.031 5.031h80.503c2.779 0 5.032-2.252 5.032-5.031s-2.253-5.032-5.032-5.032zM113.203 112.195H73.957c-2.779 0-5.031 2.252-5.031 5.031s2.252 5.032 5.031 5.032h39.246c2.778 0 5.031-2.253 5.031-5.032s-2.253-5.031-5.031-5.031zM154.458 26.66h-29.182c-2.779 0-5.032 2.253-5.032 5.032s2.253 5.031 5.032 5.031h29.182c2.779 0 5.031-2.252 5.031-5.031s-2.252-5.032-5.031-5.032zM154.458 44.774h-29.182c-2.779 0-5.032 2.252-5.032 5.031s2.253 5.032 5.032 5.032h29.182c2.779 0 5.031-2.253 5.031-5.032s-2.252-5.031-5.031-5.031zM154.458 61.881h-29.182c-2.779 0-5.032 2.253-5.032 5.031 0 2.78 2.253 5.032 5.032 5.032h29.182c2.779 0 5.031-2.253 5.031-5.032 0-2.778-2.252-5.03-5.031-5.03z"/>
    <path fill="#F9F9FC" d="M154.458 62.887h-29.182c-2.779 0-5.032 2.252-5.032 5.031s2.253 5.032 5.032 5.032h29.182c2.779 0 5.031-2.253 5.031-5.032s-2.252-5.031-5.031-5.031z"/>
    <path fill="#EFF5FF" stroke="#E5EFFE" d="M33.202 29.176c2.438 0 4.72.01 6.787.29 2.063.28 3.874.825 5.378 1.872 2.978 2.074 4.942 6.257 4.942 14.945s-1.964 12.872-4.942 14.945c-1.504 1.047-3.315 1.593-5.378 1.872-2.068.28-4.35.29-6.787.29-2.438 0-4.72-.01-6.787-.29-2.064-.28-3.874-.825-5.378-1.872-2.979-2.073-4.942-6.257-4.942-14.945s1.963-12.871 4.942-14.945c1.504-1.047 3.314-1.592 5.378-1.872 2.067-.28 4.349-.29 6.787-.29z"/>
    <path fill="#001033" d="M3.122 30.375L1.504 26.66v39.246l1.618-3.715c.26-.597.394-1.242.394-1.894V32.27c0-.652-.134-1.297-.394-1.894z"/>
    <path fill="#F9F9FC" d="M50.81 86.534c0-17.474-7.883-17.61-17.61-17.61-9.725 0-17.61.136-17.61 17.61s7.885 17.61 17.61 17.61c9.727 0 17.61-.136 17.61-17.61z"/>
    <path fill="#F9F9FC" d="M50.81 126.786c0-17.474-7.883-17.61-17.61-17.61-9.725 0-17.61.136-17.61 17.61 0 17.475 7.885 17.61 17.61 17.61 9.727 0 17.61-.135 17.61-17.61z" opacity=".5"/>
    <path fill="#C0FFC0" d="M176.599 13.579h-26.164c-2.223 0-4.025 1.802-4.025 4.025v26.163c0 2.224 1.802 4.026 4.025 4.026h26.164c2.223 0 4.025-1.802 4.025-4.026V17.604c0-2.223-1.802-4.025-4.025-4.025z"/>
    <path fill="#00B900" fill-rule="evenodd" d="M173.631 29.194c0 1.891-.736 3.595-2.271 5.272h.001c-2.222 2.55-7.192 5.657-8.323 6.133-1.099.46-.973-.261-.922-.546l.004-.024.152-.904c.035-.27.072-.688-.034-.955-.119-.293-.589-.447-.934-.52-5.09-.672-8.859-4.22-8.859-8.456 0-4.727 4.753-8.571 10.593-8.571 5.841 0 10.593 3.844 10.593 8.57zm-12.746-2.285h-.743c-.113 0-.206.092-.206.206v4.602c0 .112.093.205.206.205h.743c.114 0 .206-.093.206-.205v-4.602c0-.114-.092-.206-.206-.206zm4.371 0h.743c.054 0 .107.021.146.06.038.038.06.091.06.146v4.6c0 .114-.092.206-.206.206h-.743c-.018 0-.036-.003-.052-.006l-.004-.002-.014-.004-.006-.002-.004-.002h-.002l-.004-.002-.009-.005-.006-.003-.013-.008c-.021-.014-.04-.032-.055-.053l-2.117-2.85v2.733c0 .112-.092.205-.207.205h-.743c-.114 0-.206-.093-.206-.205v-4.602c0-.114.092-.206.206-.206h.751l.01.002h.011l.009.002.011.003.008.001c.002.001.005.001.007.003h.005l.007.003.011.006.007.002.008.005.003.002.006.004c.003 0 .006.002.008.005l.004.002.005.004c.004.003.007.005.011.01l.004.003.012.012.001.001.016.022 2.115 2.847v-2.733c0-.114.093-.206.206-.206zm-6.162 3.861h-2.019v-3.654c0-.114-.091-.207-.205-.207h-.744c-.113 0-.206.093-.206.207v4.6c0 .056.022.107.057.143l.003.004.003.002c.038.035.087.057.142.057h2.97c.114 0 .205-.093.205-.205v-.741c0-.054-.021-.107-.06-.146-.038-.038-.091-.06-.145-.06h-.001zm11.215-2.914c0 .115-.093.206-.206.206h-2.019v.778h2.019c.113 0 .206.091.206.205v.741c0 .114-.093.206-.206.206h-2.019v.778h2.019c.113 0 .206.092.206.206v.74c0 .113-.093.206-.206.206h-2.969c-.055 0-.106-.022-.143-.057-.04-.038-.063-.093-.063-.148v-4.601c0-.056.022-.107.061-.146l.002-.003c.037-.034.088-.058.143-.058h2.969c.054 0 .106.022.146.061.038.039.06.092.06.146v.74z" clip-rule="evenodd"/>
    <path fill="#E5EFFE" d="M176.599 111.189h-26.164c-2.223 0-4.025 1.802-4.025 4.025v26.164c0 2.223 1.802 4.025 4.025 4.025h26.164c2.223 0 4.025-1.802 4.025-4.025v-26.164c0-2.223-1.802-4.025-4.025-4.025z"/>
    <path fill="#E01E5A" fill-rule="evenodd" d="M160.697 129.212c-.544.317-.875.901-.868 1.529v4.365c0 .964.782 1.746 1.746 1.746.965 0 1.747-.782 1.747-1.746v-4.365c.006-.628-.325-1.212-.868-1.529-.543-.316-1.214-.316-1.757 0zm-3.487 3.275c.964 0 1.746-.782 1.746-1.746v-1.746h-1.746c-.964 0-1.746.781-1.746 1.746 0 .964.782 1.746 1.746 1.746z" clip-rule="evenodd"/>
    <path fill="#36C5F0" fill-rule="evenodd" d="M159.829 122.011c0 .964.782 1.746 1.746 1.746h1.746v-1.746c0-.965-.782-1.746-1.746-1.746s-1.746.781-1.746 1.746zm3.493 4.365c0-.964-.782-1.746-1.747-1.746h-4.365c-.964 0-1.746.782-1.746 1.746 0 .965.782 1.746 1.746 1.746h4.365c.965 0 1.747-.781 1.747-1.746z" clip-rule="evenodd"/>
    <path fill="#2EB67D" fill-rule="evenodd" d="M165.942 128.122c.964 0 1.746-.782 1.746-1.747v-4.365c.007-.628-.324-1.212-.867-1.528-.543-.317-1.214-.317-1.757 0-.544.316-.875.9-.868 1.528v4.365c0 .965.782 1.747 1.746 1.747zm3.697-3.359c-.653.27-1.078.907-1.078 1.613v1.746h1.747c.705 0 1.342-.425 1.613-1.078.27-.652.12-1.403-.379-1.903-.499-.499-1.25-.649-1.903-.378z" clip-rule="evenodd"/>
    <path fill="#ECB22E" fill-rule="evenodd" d="M163.862 130.381c0 .965.782 1.747 1.746 1.747h4.366c.964 0 1.745-.782 1.745-1.747 0-.964-.781-1.746-1.745-1.746h-4.366c-.964 0-1.746.782-1.746 1.746zm3.491 4.366c0-.964-.782-1.745-1.746-1.745h-1.746v1.745c0 .964.782 1.746 1.746 1.746s1.746-.782 1.746-1.746z" clip-rule="evenodd"/>
    <path fill="#C0E8FF" d="M201.756 62.887h-26.163c-2.223 0-4.026 1.802-4.026 4.025v26.163c0 2.223 1.803 4.026 4.026 4.026h26.163c2.223 0 4.025-1.803 4.025-4.026V66.912c0-2.223-1.802-4.025-4.025-4.025z"/>
    <path fill="url(#paint0_linear)" d="M188.673 90.057c5.558 0 10.063-4.505 10.063-10.063 0-5.558-4.505-10.063-10.063-10.063-5.557 0-10.063 4.505-10.063 10.063 0 5.558 4.506 10.063 10.063 10.063z"/>
    <path fill="#C8DAEA" d="M186.829 84.608c-.327 0-.272-.124-.385-.433l-.959-3.155 7.381-4.377"/>
    <path fill="#A9C9DD" d="M186.83 84.605c.197-.002.383-.094.503-.252l1.341-1.303-1.673-1.006"/>
    <path fill="url(#paint1_linear)" d="M186.998 82.043l4.056 2.996c.462.251.795.123.91-.43l1.651-7.78c.171-.678-.252-.985-.7-.784l-9.692 3.738c-.663.265-.66.634-.121.798l2.487.777 5.759-3.627c.272-.166.521-.076.314.105"/>
    <defs>
        <linearGradient id="paint0_linear" x1="185.302" x2="180.472" y1="70.585" y2="82.661" gradientUnits="userSpaceOnUse">
            <stop stop-color="#37AEE2"/>
            <stop offset="1" stop-color="#1E96C8"/>
        </linearGradient>
        <linearGradient id="paint1_linear" x1="188.012" x2="189.474" y1="80.897" y2="84.673" gradientUnits="userSpaceOnUse">
            <stop stop-color="#EFF7FC"/>
            <stop offset="1" stop-color="#fff"/>
        </linearGradient>
    </defs>
</svg>
