<svg xmlns="http://www.w3.org/2000/svg" width="211" height="162" fill="none" viewBox="0 0 211 162">
    <path fill="#E7F6FD" d="M182.634 12.572h-22.138c-5.558 0-10.063 4.506-10.063 10.063v116.73c0 5.557 4.505 10.063 10.063 10.063h22.138c5.557 0 10.063-4.506 10.063-10.063V22.635c0-5.557-4.506-10.063-10.063-10.063z" opacity=".5"/>
    <path fill="#fff" stroke="#E5EFFE" d="M169.553 1H15.591C7.533 1 1 7.533 1 15.591V146.41C1 154.467 7.533 161 15.591 161h153.962c8.059 0 14.592-6.533 14.592-14.591V15.591C184.145 7.533 177.612 1 169.553 1z"/>
    <path fill="#E5EFFE" stroke="#E5EFFE" d="M15.591 6.031h153.962c5.28 0 9.56 4.28 9.56 9.56v9.56H6.031v-9.56c0-5.28 4.28-9.56 9.56-9.56z"/>
    <path stroke="#FF4752" d="M5.527 15.591c0-5.557 4.506-10.062 10.063-10.062h153.962c5.558 0 10.063 4.505 10.063 10.063v130.817c0 5.558-4.505 10.063-10.063 10.063H15.59c-5.557 0-10.063-4.505-10.063-10.063V15.592z"/>
    <path fill="#fff" d="M16.598 18.61c1.667 0 3.019-1.352 3.019-3.019s-1.352-3.019-3.019-3.019-3.019 1.352-3.019 3.02c0 1.666 1.352 3.018 3.019 3.018zM27.667 18.61c1.668 0 3.02-1.352 3.02-3.019s-1.352-3.019-3.02-3.019c-1.667 0-3.019 1.352-3.019 3.02 0 1.666 1.352 3.018 3.02 3.018zM38.736 18.61c1.667 0 3.019-1.352 3.019-3.019s-1.352-3.019-3.02-3.019c-1.667 0-3.018 1.352-3.018 3.02 0 1.666 1.351 3.018 3.019 3.018z"/>
    <path fill="#F9F9FC" d="M135.339 103.139H25.654c-2.78 0-5.032 2.252-5.032 5.031s2.253 5.032 5.032 5.032h109.685c2.779 0 5.032-2.253 5.032-5.032s-2.253-5.031-5.032-5.031zM135.339 49.805H93.074c-2.778 0-5.031 2.253-5.031 5.032 0 2.778 2.253 5.031 5.031 5.031h42.265c2.778 0 5.031-2.253 5.031-5.031 0-2.78-2.253-5.032-5.031-5.032zM135.339 69.931H93.074c-2.778 0-5.031 2.253-5.031 5.032 0 2.778 2.253 5.031 5.031 5.031h42.265c2.778 0 5.031-2.253 5.031-5.031 0-2.78-2.253-5.032-5.031-5.032zM81 128.295H25.653c-2.78 0-5.032 2.253-5.032 5.032 0 2.778 2.253 5.031 5.032 5.031h55.345c2.78 0 5.032-2.253 5.032-5.031 0-2.779-2.253-5.032-5.032-5.032z"/>
    <path fill="#fff" stroke="#E4EEFF" d="M46.786 93.075c25.962 0 26.163-11.714 26.163-26.164 0-14.45-.201-26.163-26.163-26.163-25.963 0-26.164 11.713-26.164 26.163 0 14.45.201 26.164 26.164 26.164z"/>
    <path fill="#E0E9FA" d="M57.877 65.42c.623-1.052 2.145-1.052 2.769-.002l4.822 8.117c.638 1.074-.135 2.433-1.384 2.433h-9.638c-1.248 0-2.022-1.359-1.385-2.432l4.816-8.117z" opacity=".5"/>
    <path fill="#E0E9FA" d="M41.364 54.233c.62-1.074 2.17-1.074 2.789 0l11.155 19.32c.62 1.074-.155 2.416-1.395 2.416h-22.31c-1.239 0-2.013-1.342-1.394-2.415l11.155-19.321zM52.824 59.868c2 0 3.623-1.622 3.623-3.623 0-2-1.623-3.622-3.623-3.622S49.2 54.245 49.2 56.245c0 2.001 1.622 3.623 3.623 3.623z"/>
    <g filter="url(#filter0_d)">
        <path fill="#FFF7E0" d="M192.697 19.616h-34.214c-4.446 0-8.05 3.604-8.05 8.05V61.88c0 4.446 3.604 8.05 8.05 8.05h34.214c4.446 0 8.05-3.604 8.05-8.05V27.666c0-4.446-3.604-8.05-8.05-8.05z"/>
    </g>
    <path fill="url(#paint0_linear)" d="M183.459 43.823c-.082-.264-.293-.465-.556-.535l-5.46-1.463 2.327-8.688c.1-.372-.071-.763-.411-.937-.346-.178-.755-.083-.996.217l-10.05 12.543c-.172.215-.225.505-.141.766.083.263.293.465.557.535l5.46 1.463-2.327 8.688c-.1.373.071.764.41.938.052.025.105.046.158.06.303.082.633-.021.838-.278l10.049-12.543c.172-.216.228-.503.142-.766z"/>
    <defs>
        <linearGradient id="paint0_linear" x1="172.43" x2="179.202" y1="57.41" y2="32.138" gradientUnits="userSpaceOnUse">
            <stop stop-color="#FD5900"/>
            <stop offset="1" stop-color="#FFDE00"/>
        </linearGradient>
        <filter id="filter0_d" width="70.314" height="70.314" x="140.433" y="14.616" color-interpolation-filters="sRGB" filterUnits="userSpaceOnUse">
            <feFlood flood-opacity="0" result="BackgroundImageFix"/>
            <feColorMatrix in="SourceAlpha" values="0 0 0 0 0 0 0 0 0 0 0 0 0 0 0 0 0 0 127 0"/>
            <feOffset dy="5"/>
            <feGaussianBlur stdDeviation="5"/>
            <feColorMatrix values="0 0 0 0 0 0 0 0 0 0 0 0 0 0 0 0 0 0 0.1 0"/>
            <feBlend in2="BackgroundImageFix" result="effect1_dropShadow"/>
            <feBlend in="SourceGraphic" in2="effect1_dropShadow" result="shape"/>
        </filter>
    </defs>
</svg>
