<svg xmlns="http://www.w3.org/2000/svg" width="45" height="45" fill="none" viewBox="0 0 45 45">
    <rect width="45" height="45" fill="#FFF7E0" rx="22.5"/>
    <path fill="#FB0" d="M27.352 28.93H23.23c-.234 0-.436-.078-.605-.235-.156-.169-.234-.364-.234-.586 0-.234.078-.43.234-.586.17-.169.371-.253.605-.253h3.34v-8.028H13.66v8.906c0 .222-.085.417-.254.586-.156.157-.345.235-.566.235-.235 0-.436-.078-.606-.235-.156-.169-.234-.364-.234-.586v-9.726c0-.235.078-.43.234-.586.17-.17.371-.254.606-.254h14.512c.22 0 .41.085.566.254.17.156.254.352.254.586v9.687c0 .222-.085.417-.254.586-.156.157-.345.235-.566.235zm3.73-4.434c-.234 0-.436-.078-.605-.234-.157-.17-.235-.371-.235-.606V15.59h-12.48c-.235-.013-.436-.098-.606-.254-.156-.156-.234-.352-.234-.586 0-.234.078-.43.234-.586.17-.156.371-.24.606-.254h13.32c.234.013.43.098.586.254.17.156.254.352.254.586v8.907c0 .234-.085.435-.254.605-.156.156-.352.234-.586.234zm-14.746 5.742l2.168-2.168.898 1.582c.04.04.078.072.117.098.04.026.092.04.157.04.052 0 .097-.014.137-.04.039-.04.071-.085.097-.137l2.656-6.66v-.039c.013-.026.02-.046.02-.059 0-.078-.033-.143-.098-.195-.052-.065-.117-.098-.195-.098-.013 0-.033.007-.059.02h-.039l-6.66 2.656c-.052.026-.098.059-.137.098-.026.039-.039.085-.039.137v.02c0 .051.013.103.04.155.026.04.058.072.097.098l1.563.899-2.13 2.168c-.025.026-.045.058-.058.097-.013.026-.02.059-.02.098 0 .039.007.078.02.117.013.04.033.072.059.098l1.015 1.015c.026.026.052.046.078.059.04.013.079.02.118.02.039 0 .071-.007.097-.02.04-.013.072-.033.098-.059z"/>
</svg>
