<svg xmlns="http://www.w3.org/2000/svg" width="45" height="45" fill="none" viewBox="0 0 45 45">
    <rect width="45" height="45" fill="#FFE5E6" rx="22.5"/>
    <path fill="#FF4651" d="M32.137 31.156c-.196-.599-.456-1.165-.782-1.699-.312-.534-.677-1.022-1.093-1.465-.417-.443-.88-.84-1.387-1.191-.508-.339-1.042-.625-1.602-.86l-.058-.02c.625-.468 1.126-1.06 1.504-1.776.377-.717.566-1.498.566-2.344v-.117c.013-.04.02-.085.02-.137 0-.716-.137-1.387-.41-2.012-.274-.638-.651-1.191-1.133-1.66-.469-.469-1.016-.84-1.64-1.113-.639-.274-1.316-.41-2.032-.41s-1.393.136-2.031.41c-.625.273-1.172.644-1.641 1.113-.469.469-.84 1.022-1.113 1.66-.274.625-.41 1.296-.41 2.012v.254c0 .43.052.853.156 1.27.104.403.247.787.43 1.152v-.04c.182.352.397.671.644.958.247.286.52.547.82.78l-.254.099c-.325.156-.631.319-.918.488-.273.156-.533.332-.78.527l.019-.02c-.69.508-1.29 1.114-1.797 1.817-.495.69-.88 1.445-1.152 2.266l-.02.058-.04.117v.137c0 .195.053.365.157.508.104.143.241.24.41.293h.274c.169 0 .319-.052.449-.156.143-.091.24-.215.293-.371h.02c.208-.69.514-1.316.917-1.875.404-.573.88-1.068 1.426-1.485h.02c.195-.156.403-.293.625-.41.221-.13.449-.247.683-.352l.04-.019c.403-.182.833-.326 1.288-.43.47-.104.951-.156 1.446-.156.755 0 1.471.117 2.148.352.677.22 1.296.54 1.856.957.573.416 1.067.905 1.484 1.465.417.572.736 1.197.957 1.874l.02.04c.052.182.15.325.293.43.156.116.332.175.527.175.234 0 .43-.085.586-.254.17-.156.254-.358.254-.605 0-.04-.007-.078-.02-.118 0-.039-.006-.078-.02-.117zm-11.192-7.715c-.117-.234-.215-.488-.293-.761-.065-.287-.097-.58-.097-.88 0-.963.345-1.79 1.035-2.48s1.517-1.035 2.48-1.035c.977 0 1.81.345 2.5 1.035s1.035 1.517 1.035 2.48c0 .977-.345 1.81-1.035 2.5s-1.517 1.036-2.48 1.036c-.677 0-1.296-.17-1.856-.508-.547-.351-.97-.807-1.27-1.367l-.019-.02zm-4.023-1.347h-.059c-.69 0-1.328-.13-1.914-.39-.599-.261-1.126-.613-1.582-1.056-.443-.442-.794-.963-1.055-1.562-.247-.599-.37-1.237-.37-1.914 0-.69.123-1.335.37-1.934.26-.586.613-1.1 1.055-1.543.456-.455.983-.813 1.582-1.074.586-.26 1.224-.39 1.914-.39 1.003 0 1.908.28 2.715.84.82.546 1.42 1.256 1.797 2.128l.02.04.039.155c.013.053.02.111.02.176 0 .222-.085.417-.255.586-.156.157-.345.235-.566.235-.182 0-.345-.046-.488-.137-.13-.091-.228-.208-.293-.352v-.02c-.248-.598-.645-1.08-1.192-1.444-.534-.378-1.133-.567-1.797-.567-.898 0-1.666.32-2.304.957-.638.625-.957 1.387-.957 2.285 0 .899.319 1.667.957 2.305.638.625 1.406.938 2.304.938.235 0 .43.084.586.253.17.17.254.365.254.586 0 .235-.084.436-.254.606-.156.156-.351.234-.586.234l.059.059zm-.078-6.23c.364 0 .67.13.918.39.26.247.39.553.39.918 0 .364-.13.677-.39.937-.248.248-.554.371-.918.371-.365 0-.677-.123-.938-.37-.247-.261-.37-.573-.37-.938s.123-.67.37-.918c.26-.26.573-.39.938-.39z"/>
</svg>
