<svg xmlns="http://www.w3.org/2000/svg" width="45" height="45" fill="none" viewBox="0 0 45 45">
    <rect width="45" height="45" fill="#D1FFF2" rx="22.5"/>
    <path fill="#29B68D" d="M15.773 18.813c-.104 0-.208-.02-.312-.06-.091-.051-.176-.11-.254-.175l-1.973-1.914c-.078-.065-.143-.15-.195-.254-.039-.117-.059-.234-.059-.351 0-.235.085-.43.254-.586.17-.17.365-.254.586-.254.117 0 .228.026.332.078.105.039.19.091.254.156l1.348 1.348 4.004-4.278c.078-.09.17-.156.273-.195.104-.052.215-.078.332-.078.104 0 .202.02.293.059.104.039.196.09.274.156.078.078.136.17.175.273.04.104.06.209.06.313 0 .117-.02.228-.06.332-.039.104-.097.189-.175.254l-4.551 4.922c-.078.078-.17.143-.274.195-.09.039-.195.058-.312.058h-.02zm0 6.699c-.104 0-.208-.02-.312-.059-.091-.039-.176-.098-.254-.176l-1.973-1.972c-.065-.078-.117-.163-.156-.254-.026-.091-.039-.189-.039-.293 0-.104.013-.202.04-.293.038-.104.09-.195.155-.274.079-.065.17-.117.274-.156.104-.052.208-.078.312-.078.117 0 .228.026.332.078.105.04.19.091.254.156l1.348 1.329 4.004-4.297c.078-.078.163-.137.254-.176.104-.04.215-.059.332-.059.117 0 .221.02.312.059.104.039.196.098.274.176.078.078.136.169.175.273.04.091.06.195.06.313 0 .117-.02.227-.06.332-.039.09-.097.175-.175.254l-4.551 4.882c-.078.078-.17.144-.274.196-.09.039-.195.058-.312.058l-.02-.02zm0 6.738c-.104 0-.208-.026-.312-.078-.091-.04-.176-.091-.254-.156l-1.973-1.953c-.065-.079-.117-.163-.156-.254-.039-.105-.058-.209-.058-.313 0-.234.078-.43.234-.586.17-.156.371-.234.605-.234.104 0 .202.02.293.058.105.04.19.091.254.157l1.348 1.328 4.004-4.278c.078-.065.163-.117.254-.156.104-.052.215-.078.332-.078.117 0 .221.026.312.078.104.04.196.091.274.156.078.079.136.17.175.274.04.104.06.208.06.312 0 .117-.02.228-.06.332-.039.104-.097.19-.175.254l-4.551 4.864c-.078.078-.17.143-.274.195-.09.052-.195.078-.312.078h-.02zm15.684-15.723h-6.289c-.273 0-.508-.097-.703-.293-.195-.195-.293-.43-.293-.703 0-.273.098-.508.293-.703.195-.195.43-.293.703-.293h6.289c.273 0 .508.098.703.293.196.195.293.43.293.703 0 .274-.098.508-.293.703-.195.196-.43.293-.703.293zm0 6.72h-6.289c-.273 0-.508-.099-.703-.294-.195-.195-.293-.43-.293-.703 0-.273.098-.508.293-.703.195-.195.43-.293.703-.293h6.289c.273 0 .508.098.703.293.196.195.293.43.293.703 0 .273-.098.508-.293.703-.195.195-.43.293-.703.293zm0 6.698h-6.289c-.273 0-.508-.097-.703-.293-.195-.195-.293-.43-.293-.703 0-.273.098-.508.293-.703.195-.195.43-.293.703-.293h6.289c.273 0 .508.098.703.293.196.195.293.43.293.703 0 .274-.098.508-.293.703-.195.196-.43.293-.703.293z"/>
</svg>
