<svg xmlns="http://www.w3.org/2000/svg" width="45" height="45" fill="none" viewBox="0 0 45 45">
    <rect width="45" height="45" fill="#FFF7E0" rx="22.5"/>
    <path fill="#FB0" d="M20.559 33.016h-.02c-.13 0-.254-.026-.371-.078-.117-.053-.215-.118-.293-.196-.091-.091-.163-.195-.215-.312-.039-.105-.058-.222-.058-.352 0-.13.02-.254.058-.371.052-.117.124-.215.215-.293l8.75-8.75-8.75-7.734c-.091-.078-.163-.176-.215-.293-.052-.117-.078-.248-.078-.39 0-.131.026-.255.078-.372.052-.117.124-.221.215-.313.091-.09.195-.162.313-.214.117-.065.247-.098.39-.098.117 0 .228.026.332.078.104.04.195.091.274.156l9.511 8.38c.091.077.163.175.215.292.052.117.085.241.098.371v.059c0 .13-.026.254-.078.371-.052.104-.117.195-.196.273l-9.511 9.512c-.078.078-.176.143-.293.196-.104.052-.222.078-.352.078h-.02zm-4.747-3.692c-.13 0-.253-.026-.37-.078-.105-.052-.202-.117-.294-.195-.078-.091-.143-.189-.195-.293-.052-.117-.078-.241-.078-.371s.026-.248.078-.352c.052-.117.117-.221.195-.312l4.883-4.883-4.843-4.258c-.092-.091-.17-.195-.235-.313-.052-.13-.078-.26-.078-.39 0-.117.02-.228.059-.332.039-.117.097-.215.175-.293.091-.104.196-.182.313-.235.13-.052.26-.078.39-.078.118 0 .228.02.333.059.117.04.214.091.293.156l5.585 5c.092.078.17.17.235.274.065.104.104.215.117.332v.039c0 .13-.026.254-.078.37-.052.118-.117.216-.195.294l-5.625 5.586c-.092.078-.196.143-.313.195-.104.052-.221.078-.352.078z"/>
</svg>
