<svg xmlns="http://www.w3.org/2000/svg" width="45" height="45" fill="none" viewBox="0 0 45 45">
    <rect width="45" height="45" fill="#FFE5E6" rx="22.5"/>
    <path fill="#FF4651" fill-rule="evenodd" d="M14.386 14.401c.266-.266.609-.401.976-.401.079 0 .157.007.233.021.106.012.214.04.319.091l14.03 5.026h.016l.134.049c.266.097.484.268.644.49.177.235.262.51.262.793 0 .238-.055.474-.177.692l-.01.018-.01.018c-.114.181-.264.332-.445.447l-3.22 2.091 2.797 2.81.009.01c.201.215.36.46.477.73.138.299.204.617.204.944 0 .438-.11.854-.34 1.227-.208.348-.555.65-.844.84l.005.009c-.186.108-.385.186-.593.234-.204.059-.413.085-.623.085-.338 0-.666-.066-.975-.206-.286-.128-.543-.303-.764-.524l-2.785-2.773-2.091 3.221c-.119.187-.275.332-.453.44-.209.142-.452.217-.707.217-.307 0-.585-.104-.814-.281-.222-.162-.393-.387-.478-.667l-5.036-14.096c-.053-.108-.092-.23-.106-.363-.014-.075-.021-.153-.021-.231 0-.344.115-.69.386-.96zm1.392 1.378l4.745 13.28 2.913-4.485 4.197 4.179c.078.078.17.143.284.194.09.04.192.064.313.064.078 0 .137-.01.182-.024l.034-.01.034-.008c.025-.006.049-.012.07-.02.156-.1.304-.245.346-.317l.006-.01.007-.01c.064-.104.102-.224.102-.382 0-.106-.021-.192-.057-.268l-.008-.016-.007-.017c-.042-.099-.097-.185-.168-.263l-4.182-4.2 4.496-2.92-13.307-4.767zm-.173-.463l-.01-.028c-.006-.017-.013-.033-.02-.048l-.249.124.279-.048z" clip-rule="evenodd"/>
</svg>
