<svg xmlns="http://www.w3.org/2000/svg" width="45" height="45" fill="none" viewBox="0 0 45 45">
    <rect width="45" height="45" fill="#E4EEFF" rx="22.5"/>
    <path fill="#123399" d="M17.685 22.155c.286.262.73.243.993-.043s.244-.73-.042-.993c-1.034-.948-1.626-2.296-1.626-3.697 0-2.766 2.25-5.016 5.015-5.016 2.766 0 5.016 2.25 5.016 5.016 0 1.401-.593 2.749-1.626 3.697-.286.262-.305.707-.043.993.262.285.706.307.994.043 1.323-1.214 2.081-2.939 2.081-4.733 0-3.541-2.88-6.422-6.422-6.422-3.54 0-6.421 2.88-6.421 6.422 0 1.794.758 3.52 2.08 4.733z"/>
    <path fill="#123399" d="M30.19 24.78l-5.94-1.928v-3.909c0-1.226-.998-2.224-2.224-2.224-1.227 0-2.225.998-2.225 2.224v6.569l-1.59-.753c-.948-.45-2.102-.173-2.744.658-.53.686-.617 1.628-.222 2.4l1.644 3.212C18.136 33.465 20.642 35 23.382 35c4.022 0 7.294-3.272 7.294-7.294v-2.258c0-.305-.197-.575-.486-.669zm-.92 2.926c0 3.247-2.642 5.888-5.888 5.888-2.221 0-4.23-1.229-5.241-3.206l-1.644-3.212c-.148-.29-.115-.643.084-.9.24-.311.673-.415 1.028-.247l2.594 1.23c.218.102.474.087.677-.042.204-.129.328-.353.328-.594v-7.68c0-.451.367-.818.818-.818.45 0 .818.367.818.818v4.42c0 .305.196.575.486.67l5.94 1.926v1.747z"/>
</svg>
