<svg xmlns="http://www.w3.org/2000/svg" width="45" height="45" fill="none" viewBox="0 0 45 45">
    <rect width="45" height="45" fill="#D1FFF2" rx="22.5"/>
    <path fill="#29B68D" d="M26.43 13.188h-8.758c-.742 0-1.373.26-1.893.779-.52.52-.779 1.15-.779 1.892v13.694c0 .73.26 1.354.78 1.874.519.532 1.15.798 1.892.798h8.758c.742 0 1.373-.266 1.892-.798.52-.52.78-1.144.78-1.874V15.859c0-.73-.26-1.354-.78-1.874-.52-.531-1.15-.797-1.892-.797zm-8.758 1.577h3.58v1.261c0 .21.075.396.224.557.16.148.352.223.575.223.222 0 .408-.075.556-.223.161-.16.242-.346.242-.557v-1.261h3.58c.298 0 .545.105.743.315.21.21.315.458.315.742v10.39h-10.91V15.86v-.037c0-.284.105-.532.316-.742.21-.21.457-.315.742-.315h.037zm8.758 15.864h-8.758c-.285 0-.532-.1-.742-.297-.21-.21-.316-.464-.316-.76v-1.745h10.91v1.726c0 .284-.105.532-.315.742-.21.21-.458.315-.742.315h-.037v.019z"/>
</svg>
