<svg xmlns="http://www.w3.org/2000/svg" width="45" height="45" fill="none" viewBox="0 0 45 45">
    <rect width="45" height="45" fill="#D1FFF2" rx="22.5"/>
    <path fill="#29B68D" d="M31.883 17.41v9.102c0 .846-.3 1.569-.899 2.168-.586.586-1.302.879-2.148.879H16.453l-3.047 2.812c-.078.065-.169.117-.273.156-.091.04-.189.059-.293.059h-.02c-.052 0-.11-.007-.175-.02-.053-.013-.105-.032-.157-.058h.02c-.156-.052-.28-.15-.371-.293-.091-.13-.137-.28-.137-.45V17.41c0-.846.293-1.562.879-2.148.599-.6 1.322-.899 2.168-.899h13.789c.846 0 1.562.3 2.148.899.6.586.899 1.302.899 2.148zm-1.66 0c0-.377-.137-.703-.41-.976-.26-.274-.586-.41-.977-.41h-13.79-.019c-.377 0-.703.136-.976.41-.26.26-.39.579-.39.957v12.52l1.933-1.759c.065-.052.143-.097.234-.136.104-.04.209-.059.313-.059h12.695c.39-.013.716-.15.977-.41.273-.274.41-.6.41-.977v-9.16zM19.44 18.523c-.273 0-.507.098-.703.293-.182.183-.273.404-.273.665 0 .273.091.507.273.703.196.182.43.273.703.273.26 0 .482-.091.665-.273.195-.196.292-.43.292-.704-.013-.26-.11-.481-.293-.664-.182-.182-.403-.273-.664-.273v-.02zm5.02 0h-.02c-.26 0-.488.098-.683.293-.182.183-.274.404-.274.665 0 .273.091.507.274.703.195.182.423.273.683.273.274 0 .502-.091.684-.273.195-.196.293-.43.293-.704-.013-.26-.11-.475-.293-.644-.182-.182-.404-.28-.664-.293v-.02zm-5.02 4.727c-.273 0-.507.098-.703.293-.182.182-.273.404-.273.664 0 .273.091.508.273.703.196.182.43.274.703.274.26 0 .482-.092.665-.274.195-.195.292-.43.292-.703 0-.26-.097-.482-.293-.664-.182-.195-.403-.293-.664-.293zm5.02 0h-.02c-.26 0-.488.098-.683.293-.182.182-.274.404-.274.664 0 .273.091.508.274.703.195.182.423.274.683.274.274 0 .502-.092.684-.274.195-.195.293-.43.293-.703 0-.26-.098-.482-.293-.664-.182-.195-.404-.293-.664-.293z"/>
</svg>
