<svg xmlns="http://www.w3.org/2000/svg" width="45" height="45" fill="none" viewBox="0 0 45 45">
    <rect width="45" height="45" fill="#D1FFF2" rx="22.5"/>
    <path fill="#29B68D" d="M30.217 18.457v-.65-.649-.018-.019c0-.396-.136-.73-.408-1.002-.273-.272-.6-.408-.984-.408h-.093.019c-.062.012-.13.018-.204.018h-.204c-1.027 0-1.998-.185-2.913-.556-.903-.384-1.701-.903-2.394-1.559h.019c-.136-.123-.291-.216-.464-.278-.161-.074-.334-.111-.52-.111-.198 0-.383.037-.556.11-.161.063-.303.156-.427.28-.693.655-1.49 1.174-2.394 1.558-.903.37-1.867.556-2.894.556h-.223c-.062-.012-.123-.018-.185-.018h0c-.384 0-.712.136-.984.408-.272.272-.408.606-.408 1.002v1.336c-.025 1.089-.006 2.282.056 3.581s.321 2.585.779 3.86c.47 1.261 1.23 2.449 2.282 3.562 1.052 1.1 2.56 1.998 4.527 2.69h.91c1.966-.692 3.476-1.59 4.527-2.69 1.052-1.113 1.812-2.3 2.282-3.563.483-1.274.749-2.56.798-3.859.062-1.299.08-2.492.056-3.581zm-8.09 12.135c-1.682-.594-2.969-1.348-3.86-2.264-.902-.928-1.558-1.936-1.966-3.024-.396-1.101-.619-2.245-.668-3.433-.037-1.175-.05-2.313-.037-3.414v-.612-.594h.352c.594 0 1.175-.056 1.744-.167.57-.111 1.114-.272 1.633-.482.52-.21 1.015-.464 1.485-.761.47-.31.909-.65 1.317-1.02.396.383.835.73 1.317 1.038.47.31.965.57 1.485.78.532.21 1.082.37 1.651.482.582.124 1.169.186 1.763.186h.148c.05-.013.1-.019.149-.019h-.019v1.188c.025 1.088.019 2.22-.018 3.395-.05 1.175-.279 2.313-.687 3.414-.396 1.101-1.039 2.115-1.93 3.043-.903.916-2.19 1.67-3.859 2.264z"/>
</svg>
