<svg xmlns="http://www.w3.org/2000/svg" width="45" height="45" fill="none" viewBox="0 0 45 45">
    <rect width="45" height="45" fill="#FFE5E6" rx="22.5"/>
    <path fill="#FF4651" d="M29.365 29.553l-11.151-5.066v-3.673l11.151-5.066c.136-.062.248-.155.334-.278.087-.136.13-.285.13-.446 0-.061-.006-.117-.018-.167-.013-.061-.031-.117-.056-.167-.062-.136-.16-.247-.297-.334-.124-.086-.266-.13-.427-.13-.062 0-.123.013-.185.038l-.149.037h.019L17.23 19.515h-2.115c-.581 0-1.082.21-1.503.63-.408.409-.612.904-.612 1.485v2.115c0 .581.204 1.082.612 1.503.42.408.922.612 1.503.612h1.893l-.297 1.503-.037.186v.185c0 .42.105.798.315 1.132.223.334.501.588.835.761h.019l2.356 1.169c.136.062.278.111.427.148.16.037.328.056.501.056.371 0 .711-.087 1.02-.26.31-.185.557-.42.743-.705l.018-.018.65-1.336L28.678 31c.05.025.1.043.15.056.061.012.123.018.185.018.222 0 .408-.074.556-.222.149-.161.223-.353.223-.576 0-.16-.043-.303-.13-.426-.074-.124-.18-.223-.315-.297h.018zm-14.788-5.808V21.63v-.019-.037c0-.136.043-.247.13-.334.099-.099.216-.148.353-.148.012 0 .018.006.018.018h1.559v3.099h-1.522c-.012.012-.024.018-.037.018h-.018c-.124 0-.236-.043-.334-.13-.087-.098-.137-.216-.149-.352zm6.94 5.418c-.05.062-.112.118-.186.167-.074.037-.155.056-.241.056-.05 0-.093-.006-.13-.019l-.111-.037-2.357-1.169c-.062-.037-.117-.093-.167-.167-.037-.086-.055-.173-.055-.26v-.055-.074l.26-1.262 3.655 1.67-.668 1.15zm9.63-5.678h-.557l.352-1.91h.39c.087 0 .167-.02.241-.056.087-.038.161-.087.223-.149s.105-.13.13-.204c.037-.087.055-.173.055-.26 0-.099-.018-.185-.055-.26-.025-.086-.068-.16-.13-.222s-.136-.111-.223-.149c-.074-.037-.16-.055-.26-.055h-.11l.222-1.114v-.037c.012-.024.018-.043.018-.055 0-.013-.006-.025-.018-.037v-.056c0-.087-.019-.167-.056-.241-.025-.087-.062-.161-.111-.223-.074-.05-.155-.093-.241-.13-.087-.037-.174-.056-.26-.056h-.037c-.087 0-.167.013-.241.038-.075.024-.137.061-.186.11-.062.05-.111.106-.148.168-.038.062-.062.13-.075.204l-.278 1.466h-2.115l.222-1.058v-.037c.013-.025.019-.043.019-.056 0-.012-.006-.024-.019-.037v-.055-.037c.013-.013.019-.025.019-.038 0-.099-.019-.185-.056-.26-.037-.086-.086-.16-.148-.222s-.136-.105-.223-.13c-.086-.037-.18-.056-.278-.056h-.019-.018c-.149 0-.285.05-.408.149-.112.099-.18.216-.204.352v.019l-.279 1.447h-.89-.019c-.087 0-.173.019-.26.056-.074.037-.142.08-.204.13-.062.062-.111.136-.148.223-.037.074-.056.154-.056.24.012.1.03.192.056.279.037.074.086.142.148.204s.13.111.204.149c.087.037.18.055.279.055h.612l-.334 1.911h-.445-.019c-.087 0-.173.019-.26.056-.074.025-.142.068-.204.13s-.111.136-.148.223c-.025.074-.037.16-.037.26 0 .086.012.172.037.26.037.073.086.141.148.203.062.062.13.111.204.149.087.037.173.055.26.055h.186l-.223 1.188v.185c0 .087.012.174.037.26.037.074.087.142.148.204.062.062.137.111.223.149.087.037.18.055.278.055h.019c.074 0 .142-.012.204-.037.074-.037.136-.074.186-.111.061-.05.11-.105.148-.167.037-.062.056-.13.056-.204l.334-1.522H28.9l-.24 1.188v.185c0 .087.018.174.055.26.037.074.093.142.167.204.062.062.13.111.204.149.087.037.18.055.278.055h.037c.087 0 .161-.012.223-.037.074-.037.136-.074.186-.111.061-.05.11-.105.148-.167.037-.062.062-.13.074-.204l.297-1.54h.835c.099 0 .186-.019.26-.056.074-.037.142-.08.204-.13.062-.062.105-.13.13-.204.037-.087.055-.173.055-.26v-.018 0c0-.1-.018-.186-.055-.26-.025-.087-.068-.16-.13-.223-.062-.05-.13-.086-.204-.111-.074-.037-.149-.056-.223-.056h-.037-.018zm-1.967 0h-2.116l.372-1.91h2.115l-.371 1.91z"/>
</svg>
