<svg xmlns="http://www.w3.org/2000/svg" width="45" height="45" fill="none" viewBox="0 0 45 45">
    <rect width="45" height="45" fill="#E4EEFF" rx="22.5"/>
    <path fill="#123399" d="M27.583 18.833h-12.5c-1.15 0-2.083.933-2.083 2.084v10c0 1.15.932 2.083 2.083 2.083h12.5c1.151 0 2.084-.932 2.084-2.083v-10c0-1.151-.933-2.084-2.084-2.084zm-.416 12.5H15.5c-.46 0-.833-.373-.833-.833V23H28v7.5c0 .46-.374.833-.833.833z"/>
    <path fill="#123399" d="M30.917 13h-12.5c-1.15 0-2.083.933-2.083 2.083v2.084h15v9.958c.95-.192 1.667-1.033 1.667-2.042v-10c0-1.15-.934-2.083-2.084-2.083z"/>
</svg>
