<svg xmlns="http://www.w3.org/2000/svg" width="213" height="162" fill="none" viewBox="0 0 213 162">
    <path fill="#E7F6FD" d="M182.634 12.572h-22.138c-5.558 0-10.063 4.506-10.063 10.063v116.73c0 5.557 4.505 10.063 10.063 10.063h22.138c5.557 0 10.063-4.506 10.063-10.063V22.635c0-5.557-4.506-10.063-10.063-10.063z" opacity=".5"/>
    <path fill="#fff" stroke="#E5EFFE" d="M169.553 1H15.591C7.533 1 1 7.533 1 15.591V146.41C1 154.467 7.533 161 15.591 161h153.962c8.059 0 14.592-6.533 14.592-14.591V15.591C184.145 7.533 177.612 1 169.553 1z"/>
    <path fill="#E5EFFE" stroke="#E5EFFE" d="M15.591 6.031h153.962c5.28 0 9.56 4.28 9.56 9.56v9.56H6.031v-9.56c0-5.28 4.28-9.56 9.56-9.56z"/>
    <path fill="#E5EFFE" stroke="#E5EFFE" d="M15.591 6.031h153.962c5.28 0 9.56 4.28 9.56 9.56v9.56H6.031v-9.56c0-5.28 4.28-9.56 9.56-9.56z"/>
    <path fill="#fff" d="M47.791 17.604c0-5.557 4.505-10.063 10.063-10.063h31.195c5.557 0 10.063 4.506 10.063 10.063v8.05H47.79v-8.05z"/>
    <path fill="#fff" d="M104.146 17.604c0-5.557 4.506-10.063 10.063-10.063h31.195c5.558 0 10.063 4.506 10.063 10.063v8.05h-51.321v-8.05z" opacity=".5"/>
    <path fill="#E5EFFE" d="M58.954 10.56c-3.34-.05-6.066 2.579-6.13 5.918-.01.49.039.968.14 1.426.171.775.273 1.564.273 2.357v1.535c0 .235.19.425.425.425h1.535c.793 0 1.582.102 2.357.273.458.1.935.15 1.426.14 3.34-.064 5.968-2.79 5.917-6.13-.05-3.26-2.683-5.893-5.943-5.943z"/>
    <path fill="#fff" d="M60.34 14.585h-2.953c-.296 0-.536.257-.536.574v2.876c0 .317.24.575.536.575h2.952c.296 0 .537-.258.537-.575v-2.876c0-.317-.24-.575-.537-.575z"/>
    <path fill="#E5EFFE" d="M119.326 20.985c1.175-1.097 1.927-2.66 1.927-4.387 0-3.319-2.719-6.038-6.038-6.038-3.318 0-6.037 2.72-6.037 6.038s2.719 6.038 6.037 6.038c1.331 0 2.561-.456 3.56-1.191.098-.071.994.485.994.485s-.527-.864-.443-.945z"/>
    <path fill="#fff" d="M120.899 21.927c-.65 0-1.268-.384-1.573-.943-.17.162-.353.318-.551.46.446.714 1.262 1.19 2.124 1.19.198 0 .354-.155.354-.353 0-.198-.156-.354-.354-.354zm-5.655-7.099c.78 0 1.415-.635 1.415-1.415s-.635-1.415-1.415-1.415-1.415.635-1.415 1.415.635 1.415 1.415 1.415zm-1.683 1.222c.242-.742-.166-1.542-.909-1.783-.74-.241-1.539.162-1.782.909-.241.742.166 1.541.909 1.783.744.241 1.541-.165 1.782-.91zm.643 1.978c-.63-.458-1.516-.322-1.976.313-.461.633-.319 1.518.313 1.976.633.46 1.518.317 1.976-.312.46-.633.319-1.518-.313-1.977zm5.414-2.852c-.24-.74-1.033-1.152-1.783-.91-.748.244-1.149 1.044-.909 1.784.242.744 1.039 1.15 1.783.909.742-.242 1.15-1.041.909-1.783zm-3.341 1.42c0-.584-.476-1.06-1.061-1.06-.586 0-1.062.476-1.062 1.06 0 .586.476 1.062 1.062 1.062.585 0 1.061-.476 1.061-1.061zm.007 1.432c-.635.46-.772 1.346-.313 1.977.456.628 1.338.775 1.976.313.635-.461.771-1.347.313-1.977-.462-.637-1.349-.77-1.976-.313z"/>
    <path stroke="#FF4752" d="M6.031 26.157h173.082V146.41c0 5.28-4.28 9.56-9.56 9.56H15.591c-5.28 0-9.56-4.28-9.56-9.56V26.158z"/>
    <path fill="#F9F9FC" d="M83.011 39.742H27.665c-2.779 0-5.031 2.253-5.031 5.032 0 2.778 2.252 5.031 5.031 5.031h55.346c2.779 0 5.032-2.253 5.032-5.031 0-2.78-2.253-5.032-5.032-5.032zM157.479 39.742h-55.346c-2.779 0-5.031 2.253-5.031 5.032 0 2.778 2.252 5.031 5.031 5.031h55.346c2.779 0 5.031-2.253 5.031-5.031 0-2.78-2.252-5.032-5.031-5.032zM83.011 79.994H27.665c-2.779 0-5.031 2.253-5.031 5.032 0 2.778 2.252 5.031 5.031 5.031h55.346c2.779 0 5.032-2.253 5.032-5.031 0-2.78-2.253-5.032-5.032-5.032z"/>
    <path fill="red" d="M32.74 86.504l-.443.755-1.74-1.007c-.121-.073-.229-.147-.323-.221-.094-.074-.177-.168-.251-.282.107.222.16.467.16.735v1.992h-.885v-1.982c0-.134.007-.258.02-.372.02-.114.058-.225.111-.332-.074.093-.154.177-.241.251-.088.074-.188.144-.302.211l-1.731.997-.443-.755 1.731-1.006c.255-.155.51-.235.765-.242-.134-.013-.265-.037-.393-.07-.12-.04-.244-.101-.372-.181l-1.74-1.017.442-.754 1.74 1.006c.122.073.229.15.323.231.094.08.178.178.251.292-.107-.235-.16-.486-.16-.755v-1.992h.885v1.982c0 .134-.01.262-.03.383-.014.114-.047.224-.1.332.073-.094.153-.178.24-.252.088-.074.188-.147.302-.221l1.731-.996.443.754L31 84.995c-.115.073-.229.13-.343.17-.114.04-.235.068-.362.081.127.014.248.04.362.08.114.034.228.088.342.162l1.741 1.016zM40.789 86.504l-.443.755-1.74-1.007c-.122-.073-.229-.147-.323-.221-.094-.074-.178-.168-.251-.282.107.222.16.467.16.735v1.992h-.885v-1.982c0-.134.007-.258.02-.372.02-.114.057-.225.111-.332-.074.093-.154.177-.242.251-.087.074-.187.144-.301.211l-1.731.997-.443-.755 1.73-1.006c.256-.155.51-.235.766-.242-.134-.013-.265-.037-.393-.07-.12-.04-.245-.101-.372-.181l-1.741-1.017.443-.754 1.74 1.006c.121.073.229.15.323.231.093.08.177.178.251.292-.107-.235-.16-.486-.16-.755v-1.992h.885v1.982c0 .134-.01.262-.03.383-.014.114-.047.224-.101.332.074-.094.154-.178.241-.252.088-.074.188-.147.302-.221l1.731-.996.443.754-1.731 1.007c-.114.073-.228.13-.342.17-.114.04-.235.068-.362.081.127.014.248.04.362.08.114.034.228.088.342.162l1.74 1.016zM48.838 86.504l-.443.755-1.74-1.007c-.122-.073-.229-.147-.323-.221-.094-.074-.178-.168-.252-.282.108.222.162.467.162.735v1.992h-.886v-1.982c0-.134.007-.258.02-.372.02-.114.057-.225.11-.332-.073.093-.153.177-.24.251-.088.074-.189.144-.303.211l-1.73.997-.443-.755 1.73-1.006c.255-.155.51-.235.765-.242-.134-.013-.264-.037-.392-.07-.12-.04-.245-.101-.372-.181l-1.741-1.017.443-.754 1.74 1.006c.121.073.229.15.322.231.094.08.178.178.252.292-.107-.235-.161-.486-.161-.755v-1.992h.886v1.982c0 .134-.01.262-.03.383-.014.114-.048.224-.101.332.074-.094.154-.178.241-.252.088-.074.188-.147.302-.221l1.73-.996.444.754-1.731 1.007c-.114.073-.228.13-.342.17-.114.04-.235.068-.363.081.128.014.249.04.363.08.114.034.228.088.342.162l1.74 1.016z"/>
    <path fill="#F9F9FC" d="M83.011 59.868H27.665c-2.779 0-5.031 2.253-5.031 5.032 0 2.778 2.252 5.031 5.031 5.031h55.346c2.779 0 5.032-2.253 5.032-5.031 0-2.78-2.253-5.032-5.032-5.032zM158.484 59.868h-55.346c-2.779 0-5.032 2.253-5.032 5.032v40.251c0 2.779 2.253 5.032 5.032 5.032h55.346c2.779 0 5.031-2.253 5.031-5.032V64.9c0-2.78-2.252-5.032-5.031-5.032z"/>
    <path fill="#CACEE7" d="M133.062 69.931h-22.616c-1.258 0-2.277 1.02-2.277 2.277v.478c0 1.257 1.019 2.277 2.277 2.277h22.616c1.257 0 2.277-1.02 2.277-2.277v-.478c0-1.257-1.02-2.277-2.277-2.277zM151.177 69.931h-9.534c-1.257 0-2.277 1.02-2.277 2.277v.478c0 1.257 1.02 2.277 2.277 2.277h9.534c1.258 0 2.277-1.02 2.277-2.277v-.478c0-1.257-1.019-2.277-2.277-2.277z"/>
    <path fill="#fff" fill-opacity=".15" d="M85.026 74.963H24.649c-2.78 0-5.032 2.252-5.032 5.031v10.063c0 2.779 2.253 5.031 5.032 5.031h60.377c2.779 0 5.031-2.252 5.031-5.031V79.994c0-2.779-2.252-5.031-5.031-5.031z"/>
    <path stroke="#E4EEFF" d="M85.026 74.963H24.649c-2.78 0-5.032 2.252-5.032 5.031v10.063c0 2.779 2.253 5.031 5.032 5.031h60.377c2.779 0 5.031-2.252 5.031-5.031V79.994c0-2.779-2.252-5.031-5.031-5.031z"/>
    <path fill="#E5EFFE" d="M129.538 127.289h-37.32c-4.443 0-8.044 3.601-8.044 8.044 0 4.442 3.601 8.043 8.043 8.043h37.321c4.443 0 8.044-3.601 8.044-8.043 0-4.443-3.601-8.044-8.044-8.044z"/>
    <path fill="#CACEE7" d="M122.341 132.867H99.44c-1.258 0-2.277 1.02-2.277 2.277v.165c0 1.258 1.02 2.277 2.277 2.277h22.901c1.257 0 2.277-1.019 2.277-2.277v-.165c0-1.257-1.02-2.277-2.277-2.277zM67.938 132.867H45.037c-1.258 0-2.277 1.02-2.277 2.277v.165c0 1.258 1.02 2.277 2.277 2.277h22.9c1.258 0 2.277-1.019 2.277-2.277v-.165c0-1.257-1.019-2.277-2.276-2.277z"/>
    <path fill="#F9F9FC" d="M47.791 100.119H27.665c-2.779 0-5.031 2.253-5.031 5.031 0 2.779 2.252 5.032 5.031 5.032h20.126c2.779 0 5.032-2.253 5.032-5.032 0-2.778-2.253-5.031-5.032-5.031z"/>
    <path fill="#fff" d="M16.598 18.61c1.667 0 3.019-1.352 3.019-3.019s-1.352-3.019-3.019-3.019-3.019 1.352-3.019 3.02c0 1.666 1.352 3.018 3.019 3.018zM27.667 18.61c1.668 0 3.02-1.352 3.02-3.019s-1.352-3.019-3.02-3.019c-1.667 0-3.019 1.352-3.019 3.02 0 1.666 1.352 3.018 3.02 3.018zM38.736 18.61c1.667 0 3.019-1.352 3.019-3.019s-1.352-3.019-3.02-3.019c-1.667 0-3.018 1.352-3.018 3.02 0 1.666 1.351 3.018 3.019 3.018z"/>
    <g filter="url(#filter0_d)">
        <path fill="#C0F1E3" d="M194.709 105.15h-24.151c-4.446 0-8.05 3.605-8.05 8.051v24.151c0 4.446 3.604 8.05 8.05 8.05h24.151c4.446 0 8.05-3.604 8.05-8.05v-24.151c0-4.446-3.604-8.051-8.05-8.051z"/>
    </g>
    <path fill="url(#paint0_linear)" d="M183.171 134.938c-.061 0-.122-.009-.181-.027-4.99-1.536-8.404-6.178-8.404-11.421v-6.417c0-.269.175-.507.433-.586l7.971-2.453c.118-.036.244-.036.361 0l7.972 2.453c.257.079.432.317.432.586v6.417c0 5.241-3.411 9.884-8.404 11.421-.059.018-.119.027-.18.027z"/>
    <path fill="url(#paint1_linear)" d="M182.556 115.449l-6.745 2.076v5.964c0 4.385 2.735 8.369 6.745 9.969v-18.009z" opacity=".2"/>
    <defs>
        <linearGradient id="paint0_linear" x1="181.263" x2="181.268" y1="134.938" y2="105.286" gradientUnits="userSpaceOnUse">
            <stop stop-color="#00C48C"/>
            <stop offset="1" stop-color="#00C48C" stop-opacity="0"/>
        </linearGradient>
        <linearGradient id="paint1_linear" x1="179.183" x2="179.183" y1="130.025" y2="115.449" gradientUnits="userSpaceOnUse">
            <stop stop-color="#FFC2CC"/>
            <stop offset="1" stop-color="#FFF2F4"/>
        </linearGradient>
        <filter id="filter0_d" width="60.252" height="60.252" x="152.508" y="100.15" color-interpolation-filters="sRGB" filterUnits="userSpaceOnUse">
            <feFlood flood-opacity="0" result="BackgroundImageFix"/>
            <feColorMatrix in="SourceAlpha" values="0 0 0 0 0 0 0 0 0 0 0 0 0 0 0 0 0 0 127 0"/>
            <feOffset dy="5"/>
            <feGaussianBlur stdDeviation="5"/>
            <feColorMatrix values="0 0 0 0 0 0 0 0 0 0 0 0 0 0 0 0 0 0 0.1 0"/>
            <feBlend in2="BackgroundImageFix" result="effect1_dropShadow"/>
            <feBlend in="SourceGraphic" in2="effect1_dropShadow" result="shape"/>
        </filter>
    </defs>
</svg>
