<svg xmlns="http://www.w3.org/2000/svg" width="45" height="45" fill="none" viewBox="0 0 45 45">
    <rect width="45" height="45" fill="#FFE5E6" rx="22.5"/>
    <path fill="#FF4651" d="M21.197 16.031c.44-.462.968-.83 1.554-1.081.586-.252 1.217-.381 1.855-.38 1.746 0 3.306 1.007 4.128 2.467.705-.336 1.51-.503 2.351-.503 3.188 0 5.773 2.618 5.773 5.841 0 3.223-2.586 5.841-5.792 5.841-.386 0-.77-.049-1.141-.116-.363.662-.897 1.215-1.547 1.599-.65.384-1.391.585-2.146.583-.671 0-1.293-.168-1.847-.42-.371.873-.99 1.616-1.782 2.138-.79.522-1.718.8-2.666.799-.988.002-1.952-.299-2.763-.863-.81-.564-1.428-1.364-1.769-2.292-.302.069-.604.084-.923.084-2.467 0-4.482-2.014-4.482-4.532 0-1.678.908-3.139 2.25-3.928-.286-.638-.437-1.343-.437-2.066 0-2.887 2.35-5.202 5.204-5.202 1.712 0 3.189.788 4.162 2.014"/>
    <path stroke="#fff" stroke-linecap="round" stroke-linejoin="round" stroke-miterlimit="10" stroke-width="1.5" d="M18 22.3l3.3-3.3v8.3M27.5 24l-3.3 3.3V19"/>
</svg>
