<svg xmlns="http://www.w3.org/2000/svg" width="45" height="45" fill="none" viewBox="0 0 45 45">
    <rect width="45" height="45" fill="#D1FFF2" rx="22.5"/>
    <path fill="#29B68D" d="M20.768 15.031c.439-.462.967-.83 1.553-1.082.586-.25 1.218-.38 1.855-.38 1.746 0 3.306 1.008 4.128 2.468.705-.336 1.511-.503 2.352-.503 3.188 0 5.773 2.618 5.773 5.841 0 3.223-2.586 5.841-5.793 5.841-.386 0-.77-.049-1.14-.116-.363.662-.898 1.215-1.547 1.599-.65.384-1.392.585-2.147.583-.671 0-1.292-.168-1.846-.42-.372.873-.991 1.616-1.782 2.138-.791.522-1.719.8-2.666.799-.988.003-1.953-.299-2.764-.863-.81-.564-1.428-1.364-1.769-2.292-.302.069-.604.084-.923.084-2.466 0-4.482-2.014-4.482-4.532 0-1.678.908-3.139 2.25-3.928-.286-.638-.437-1.343-.437-2.066 0-2.887 2.35-5.202 5.204-5.202 1.712 0 3.19.788 4.163 2.014"/>
    <mask id="k1wygms3fa" fill="#fff">
        <rect width="4.17" height="4.17" x="17" y="17.871" rx=".834"/>
    </mask>
    <rect width="4.17" height="4.17" x="17" y="17.871" stroke="#fff" stroke-width="2" mask="url(#k1wygms3fa)" rx=".834"/>
    <mask id="tjir18aopb" fill="#fff">
        <rect width="4.17" height="4.17" x="17" y="22.879" rx=".834"/>
    </mask>
    <rect width="4.17" height="4.17" x="17" y="22.879" stroke="#fff" stroke-width="2" mask="url(#tjir18aopb)" rx=".834"/>
    <path stroke="#fff" d="M22.646 19.892c-.13-.13-.13-.341 0-.472l1.48-1.479c.13-.13.341-.13.472 0l1.478 1.48c.13.13.13.341 0 .471l-1.478 1.48c-.13.13-.342.13-.473 0l-1.479-1.48z"/>
    <mask id="q911jzwkbc" fill="#fff">
        <rect width="4.17" height="4.17" x="22.004" y="22.879" rx=".834"/>
    </mask>
    <rect width="4.17" height="4.17" x="22.004" y="22.879" stroke="#fff" stroke-width="2" mask="url(#q911jzwkbc)" rx=".834"/>
</svg>
