<svg xmlns="http://www.w3.org/2000/svg" width="215" height="162" fill="none" viewBox="0 0 215 162">
    <path fill="#E7F6FD" d="M182.634 12.572h-22.138c-5.558 0-10.063 4.506-10.063 10.063v116.73c0 5.557 4.505 10.063 10.063 10.063h22.138c5.557 0 10.063-4.506 10.063-10.063V22.635c0-5.557-4.506-10.063-10.063-10.063z" opacity=".5"/>
    <path fill="#fff" stroke="#E5EFFE" d="M169.553 1H15.591C7.533 1 1 7.533 1 15.591V146.41C1 154.467 7.533 161 15.591 161h153.962c8.059 0 14.592-6.533 14.592-14.591V15.591C184.145 7.533 177.612 1 169.553 1z"/>
    <path fill="#E5EFFE" stroke="#E5EFFE" d="M15.591 6.031h153.962c5.28 0 9.56 4.28 9.56 9.56v9.56H6.031v-9.56c0-5.28 4.28-9.56 9.56-9.56z"/>
    <path fill="#fff" d="M16.598 18.61c1.667 0 3.019-1.352 3.019-3.019s-1.352-3.019-3.019-3.019-3.019 1.352-3.019 3.02c0 1.666 1.352 3.018 3.019 3.018zM27.667 18.61c1.668 0 3.02-1.352 3.02-3.019s-1.352-3.019-3.02-3.019c-1.667 0-3.019 1.352-3.019 3.02 0 1.666 1.352 3.018 3.02 3.018zM38.736 18.61c1.667 0 3.019-1.352 3.019-3.019s-1.352-3.019-3.02-3.019c-1.667 0-3.018 1.352-3.018 3.02 0 1.666 1.351 3.018 3.019 3.018z"/>
    <path fill="#F9F9FC" d="M135.339 103.139H25.654c-2.78 0-5.032 2.252-5.032 5.031s2.253 5.032 5.032 5.032h109.685c2.779 0 5.032-2.253 5.032-5.032s-2.253-5.031-5.032-5.031zM67.918 49.805H25.653c-2.778 0-5.03 2.253-5.03 5.032 0 2.778 2.252 5.031 5.03 5.031h42.265c2.778 0 5.031-2.253 5.031-5.031 0-2.78-2.252-5.032-5.031-5.032zM135.339 49.805H93.074c-2.778 0-5.031 2.253-5.031 5.032v36.226c0 2.779 2.253 5.031 5.031 5.031h42.265c2.778 0 5.031-2.252 5.031-5.031V54.837c0-2.78-2.253-5.032-5.031-5.032zM67.918 67.918H25.653c-2.778 0-5.03 2.253-5.03 5.032 0 2.778 2.252 5.031 5.03 5.031h42.265c2.778 0 5.031-2.252 5.031-5.031 0-2.78-2.252-5.032-5.031-5.032zM67.918 86.031H25.653c-2.778 0-5.03 2.253-5.03 5.032s2.252 5.031 5.03 5.031h42.265c2.778 0 5.031-2.252 5.031-5.031s-2.252-5.032-5.031-5.032z"/>
    <path fill="#00C48C" d="M28.666 144.382h37.32c4.443 0 8.044-3.601 8.044-8.043 0-4.442-3.6-8.044-8.043-8.044H28.666c-4.442 0-8.044 3.602-8.044 8.044s3.602 8.043 8.044 8.043z"/>
    <path fill="#80DCC1" d="M35.861 138.804h22.901c1.258 0 2.277-1.019 2.277-2.277v-.165c0-1.257-1.02-2.277-2.277-2.277h-22.9c-1.258 0-2.278 1.02-2.278 2.277v.165c0 1.258 1.02 2.277 2.277 2.277z"/>
    <path fill="#CACEE7" d="M90.269 138.804h22.9c1.258 0 2.277-1.019 2.277-2.277v-.165c0-1.257-1.019-2.277-2.277-2.277h-22.9c-1.258 0-2.277 1.02-2.277 2.277v.165c0 1.258 1.019 2.277 2.276 2.277z"/>
    <g filter="url(#filter0_d)">
        <path fill="#fff" d="M198.691 33.705h-48.214c-2.803 0-5.076 2.272-5.076 5.075v85.01c0 2.803 2.273 5.075 5.076 5.075h48.214c2.803 0 5.075-2.272 5.075-5.075V38.78c0-2.803-2.272-5.075-5.075-5.075z"/>
        <path stroke="#E5EFFE" stroke-width="1.261" d="M198.691 33.705h-48.214c-2.803 0-5.076 2.272-5.076 5.075v85.01c0 2.803 2.273 5.075 5.076 5.075h48.214c2.803 0 5.075-2.272 5.075-5.075V38.78c0-2.803-2.272-5.075-5.075-5.075z"/>
    </g>
    <path fill="#00C48C" d="M191.693 110.182h-34.214c-3.334 0-6.038 2.703-6.038 6.038 0 3.334 2.704 6.037 6.038 6.037h34.214c3.335 0 6.038-2.703 6.038-6.037 0-3.335-2.703-6.038-6.038-6.038z"/>
    <path fill="#001033" fill-rule="evenodd" d="M174.522 140.159l-5.894-5.617-2.489 4.097c-.142.241-.421.379-.713.361-.29-.023-.542-.196-.648-.455l-7.247-17.308c-.115-.268-.048-.575.167-.779.216-.206.537-.269.818-.159l18.176 6.899c.271.103.452.344.476.621.021.277-.127.54-.378.678l-4.301 2.366 5.894 5.617c.143.136.225.32.225.511 0 .193-.082.378-.225.514l-2.788 2.654c-.294.282-.776.282-1.073 0z" clip-rule="evenodd"/>
    <path fill="#E5EFFE" d="M187.027 40.047h-24.885c-5.742 0-10.396 4.654-10.396 10.395V84.21c0 5.742 4.654 10.396 10.396 10.396h24.885c5.742 0 10.396-4.654 10.396-10.396V50.442c0-5.741-4.654-10.395-10.396-10.395z"/>
    <defs>
        <filter id="filter0_d" width="79.626" height="116.421" x="134.771" y="28.075" color-interpolation-filters="sRGB" filterUnits="userSpaceOnUse">
            <feFlood flood-opacity="0" result="BackgroundImageFix"/>
            <feColorMatrix in="SourceAlpha" values="0 0 0 0 0 0 0 0 0 0 0 0 0 0 0 0 0 0 127 0"/>
            <feOffset dy="5"/>
            <feGaussianBlur stdDeviation="5"/>
            <feColorMatrix values="0 0 0 0 0 0 0 0 0 0 0 0 0 0 0 0 0 0 0.1 0"/>
            <feBlend in2="BackgroundImageFix" result="effect1_dropShadow"/>
            <feBlend in="SourceGraphic" in2="effect1_dropShadow" result="shape"/>
        </filter>
    </defs>
</svg>
