<svg width="929" height="104" viewBox="0 0 929 104" fill="none" xmlns="http://www.w3.org/2000/svg">
<g clip-path="url(#clip0)">
<rect x="6.73926" y="12" width="89" height="80" fill="white"/>
<path d="M68.5871 55.477C65.6981 55.477 63.3481 57.851 63.3481 60.74C63.3481 63.652 65.6981 65.978 68.5871 65.978C71.4751 65.978 73.8491 63.628 73.8491 60.74C73.8491 57.851 71.4991 55.477 68.5871 55.477ZM68.5871 36.874C65.6981 36.874 63.3481 39.224 63.3481 42.112C63.3481 45.001 65.6981 47.375 68.5871 47.375C71.4751 47.375 73.8491 45.025 73.8491 42.112C73.8491 39.224 71.4991 36.874 68.5871 36.874Z" fill="black"/>
<path d="M0 1.40698V101.47H99.965V1.40698H0V1.40698ZM81.95 60.74C81.95 68.107 75.953 74.104 68.585 74.104C61.218 74.104 55.221 68.107 55.221 60.74C55.221 57.876 56.126 55.232 57.644 53.054C55.49 54.596 52.822 55.477 49.983 55.477C47.877 55.477 46.042 56.725 45.209 58.537C44.891 59.197 44.72 59.957 44.72 60.74C44.72 63.628 47.07 65.978 49.983 65.978C51.084 65.978 52.112 65.635 52.944 65.048C53.679 67.74 55.098 70.138 57.007 72.073C54.976 73.345 52.553 74.08 49.983 74.08C46.36 74.08 43.08 72.635 40.657 70.286C38.258 72.636 34.978 74.08 31.355 74.08C23.988 74.08 17.991 68.083 17.991 60.715H26.093C26.093 63.603 28.443 65.953 31.355 65.953C34.244 65.953 36.593 63.603 36.593 60.715C36.593 57.827 34.244 55.452 31.355 55.452C23.988 55.452 17.991 49.456 17.991 42.088C17.991 36.36 21.613 31.465 26.68 29.555C28.124 29.017 29.715 28.723 31.331 28.723C33.925 28.723 36.324 29.458 38.356 30.73C36.447 32.664 35.027 35.087 34.293 37.755C33.436 37.168 32.408 36.825 31.331 36.825C28.443 36.825 26.093 39.175 26.093 42.063C26.093 44.952 28.443 47.326 31.355 47.326C34.758 47.326 37.866 48.599 40.241 50.728C40.387 50.851 40.51 50.973 40.657 51.12C43.08 48.77 46.36 47.326 49.983 47.326C52.871 47.326 55.221 44.976 55.221 42.063C55.221 39.175 52.871 36.825 49.983 36.825C47.094 36.825 44.72 39.175 44.72 42.063H36.593C36.593 34.696 42.59 28.699 49.958 28.699C53.581 28.699 56.836 30.143 59.259 32.493C61.658 30.143 64.963 28.699 68.561 28.699C75.928 28.699 81.925 34.696 81.925 42.063C81.925 45.686 80.481 48.966 78.156 51.389C80.506 53.837 81.95 57.141 81.95 60.739V60.74Z" fill="black"/>
<path d="M687.965 0H928.117V103.877H687.965V0Z" fill="black"/>
<path d="M762.529 51.014H762.735V51.374H757.489V51.014H757.695C757.901 51.014 758.055 50.962 758.209 50.808C758.363 50.654 758.466 50.499 758.569 50.294C758.672 50.088 758.775 49.882 758.826 49.677C758.878 49.471 758.878 49.265 758.878 49.059V29.52C758.878 29.365 758.878 29.16 758.826 28.954C758.775 28.748 758.723 28.542 758.621 28.336C758.518 28.131 758.415 27.976 758.261 27.822C758.106 27.668 757.901 27.616 757.746 27.616H757.541V27.256H771.58V30.651H771.22C771.22 30.085 771.014 29.622 770.654 29.159C770.294 28.748 769.677 28.542 768.906 28.542H761.398V37.798H767.465C768.03 37.798 768.493 37.644 768.853 37.284C769.213 36.924 769.419 36.564 769.419 36.101H769.779V40.627H769.419C769.419 40.164 769.213 39.804 768.853 39.496C768.493 39.186 768.03 39.033 767.413 39.033H761.345V49.11C761.345 49.316 761.345 49.521 761.397 49.727C761.447 49.933 761.499 50.138 761.654 50.344C761.757 50.55 761.911 50.704 762.014 50.858C762.168 50.961 762.322 51.012 762.528 51.012L762.529 51.014ZM781.555 51.373V49.522L781.349 49.728C780.732 50.345 780.064 50.808 779.241 51.168C778.47 51.528 777.493 51.682 776.361 51.682C775.487 51.682 774.767 51.579 774.151 51.373C773.533 51.167 773.019 50.91 772.659 50.55C772.247 50.19 771.99 49.779 771.785 49.316C771.579 48.853 771.527 48.391 771.527 47.876C771.527 47.054 771.733 46.334 772.196 45.666C772.659 45.048 773.276 44.482 774.15 43.968C775.024 43.505 776.053 43.042 777.287 42.631C778.521 42.22 779.91 41.808 781.504 41.448C781.452 40.523 781.247 39.751 780.938 39.134C780.578 38.568 780.218 38.106 779.755 37.746C779.292 37.437 778.83 37.18 778.315 37.077C777.801 36.974 777.39 36.923 776.978 36.923C776.361 36.923 775.796 37.026 775.333 37.231C774.87 37.437 774.459 37.694 774.099 38.003C773.739 38.311 773.43 38.62 773.224 38.98C772.967 39.34 772.762 39.648 772.659 40.008H772.35V37.334C772.556 37.334 772.71 37.231 772.916 37.129C773.07 37.026 773.276 36.923 773.533 36.82C773.893 36.666 774.407 36.46 775.024 36.203C775.641 35.946 776.567 35.792 777.698 35.792C779.035 35.792 780.115 35.946 780.938 36.306C781.761 36.666 782.429 37.077 782.841 37.643C783.304 38.209 783.612 38.826 783.715 39.546C783.869 40.266 783.921 40.986 783.921 41.756V49.008C783.921 49.47 784.023 49.933 784.229 50.396C784.435 50.859 784.743 51.013 785.103 51.013V51.373H781.555V51.373ZM781.555 47.928V42.683L781.195 42.733C780.629 42.888 779.91 43.093 779.035 43.3C778.213 43.557 777.39 43.865 776.618 44.225C775.848 44.637 775.23 45.099 774.664 45.614C774.15 46.128 773.841 46.796 773.841 47.464C773.841 48.236 774.151 48.904 774.767 49.419C775.384 49.933 776.207 50.19 777.235 50.19C778.058 50.19 778.727 50.036 779.344 49.676C779.961 49.316 780.527 48.853 781.041 48.288L781.555 47.928V47.928ZM792.2 37.283V46.077C792.2 46.694 792.2 47.26 792.252 47.774C792.252 48.288 792.355 48.699 792.457 49.059C792.56 49.419 792.715 49.676 792.92 49.831C793.126 50.036 793.383 50.088 793.743 50.088C794.257 50.088 794.72 49.831 795.183 49.368C795.646 48.905 795.903 48.288 796.057 47.62H796.366V50.294C796.16 50.294 795.954 50.345 795.8 50.499C795.594 50.653 795.337 50.859 794.977 51.065C794.617 51.271 794.103 51.374 793.383 51.374C792.509 51.374 791.84 51.219 791.326 50.859C790.863 50.499 790.503 50.088 790.246 49.522C790.041 48.956 789.886 48.339 789.886 47.671C789.835 47.002 789.835 46.282 789.835 45.563V37.283H787.778V35.998H789.835V32.758C789.835 32.346 789.783 31.935 789.681 31.626C789.578 31.266 789.218 31.061 788.601 31.061V30.701L792.252 29.518V35.998H796.366V37.232H792.2V37.283V37.283ZM813.747 49.008C813.747 49.214 813.747 49.419 813.798 49.625C813.85 49.882 813.901 50.088 814.055 50.242C814.158 50.448 814.313 50.602 814.415 50.756C814.57 50.911 814.724 50.962 814.93 50.962V51.322H810.199V50.962C810.353 50.962 810.507 50.911 810.661 50.756C810.816 50.602 810.919 50.448 811.021 50.242C811.124 50.036 811.227 49.831 811.279 49.625C811.33 49.368 811.33 49.162 811.33 49.008V42.22C811.33 41.346 811.227 40.574 810.97 39.906C810.713 39.237 810.404 38.723 809.993 38.26C809.581 37.797 809.119 37.489 808.604 37.283C808.09 37.077 807.525 36.974 807.01 36.974C806.496 36.974 805.93 37.077 805.416 37.284C804.902 37.489 804.439 37.797 804.028 38.157C803.616 38.517 803.308 38.98 803.051 39.494C802.793 40.009 802.691 40.574 802.691 41.243V49.008C802.691 49.214 802.691 49.419 802.742 49.625C802.793 49.882 802.845 50.088 802.999 50.242C803.102 50.448 803.256 50.602 803.359 50.756C803.513 50.911 803.668 50.962 803.873 50.962V51.322H799.142V50.962C799.297 50.962 799.451 50.911 799.605 50.756C799.759 50.602 799.862 50.448 799.965 50.242C800.068 50.036 800.171 49.831 800.222 49.625C800.274 49.368 800.274 49.162 800.274 49.008V30.34C800.274 29.928 800.222 29.517 800.068 29.157C799.965 28.797 799.605 28.591 798.988 28.591V28.231L802.639 27.101V37.693C802.793 37.488 803.051 37.283 803.308 37.076C803.565 36.819 803.873 36.614 804.285 36.408C804.645 36.202 805.108 36.048 805.622 35.894C806.136 35.739 806.702 35.688 807.37 35.688C808.502 35.688 809.479 35.894 810.301 36.254C811.124 36.665 811.741 37.128 812.256 37.796C812.77 38.465 813.13 39.082 813.387 39.853C813.593 40.573 813.747 41.345 813.747 42.013V49.007V49.008ZM826.141 51.63C824.907 51.63 823.827 51.425 822.85 51.013C821.873 50.602 821.05 50.088 820.33 49.368C819.61 48.648 819.096 47.825 818.736 46.899C818.376 45.974 818.17 44.894 818.17 43.814C818.17 42.631 818.376 41.551 818.787 40.523C819.199 39.546 819.764 38.671 820.484 38.003C821.204 37.283 822.078 36.769 823.055 36.357C824.032 35.946 825.164 35.792 826.295 35.792C827.426 35.792 828.558 35.997 829.535 36.357C830.512 36.717 831.335 37.283 832.055 37.951C832.775 38.62 833.289 39.443 833.7 40.368C834.112 41.294 834.266 42.322 834.266 43.454C834.266 44.482 834.112 45.511 833.752 46.488C833.392 47.465 832.877 48.339 832.158 49.111C831.438 49.881 830.615 50.499 829.586 50.961C828.661 51.425 827.529 51.631 826.141 51.631V51.63ZM825.935 36.974C825.061 37.026 824.29 37.232 823.621 37.591C822.953 37.951 822.387 38.466 821.924 39.031C821.461 39.648 821.153 40.317 820.896 41.037C820.638 41.757 820.536 42.58 820.536 43.351C820.536 44.277 820.69 45.099 820.947 45.974C821.204 46.796 821.616 47.568 822.13 48.236C822.644 48.905 823.261 49.419 824.032 49.831C824.752 50.241 825.575 50.396 826.501 50.396C827.375 50.396 828.198 50.19 828.866 49.83C829.535 49.42 830.152 48.956 830.615 48.288C831.078 47.619 831.438 46.951 831.643 46.179C831.849 45.408 832.003 44.637 832.003 43.814C832.003 42.991 831.9 42.22 831.643 41.397C831.386 40.574 831.026 39.854 830.512 39.186C829.998 38.517 829.381 37.951 828.609 37.54C827.838 37.18 826.964 36.974 825.935 36.974V36.974ZM861.006 49.008C861.006 49.214 861.006 49.419 861.058 49.625C861.109 49.882 861.16 50.088 861.263 50.242C861.366 50.448 861.469 50.602 861.623 50.756C861.777 50.91 861.932 50.962 862.137 50.962V51.322H857.406V50.962C857.612 50.962 857.766 50.91 857.921 50.756C858.075 50.602 858.178 50.448 858.281 50.242C858.383 50.036 858.486 49.831 858.538 49.625C858.589 49.368 858.589 49.162 858.589 49.008V41.088C858.589 40.523 858.486 40.008 858.332 39.494C858.178 38.98 857.921 38.517 857.612 38.157C857.304 37.797 856.892 37.489 856.429 37.232C855.966 37.026 855.452 36.872 854.835 36.872C854.167 36.872 853.601 37.026 853.138 37.334C852.675 37.643 852.264 38.003 851.955 38.466C851.647 38.929 851.441 39.34 851.287 39.803C851.133 40.266 851.081 40.626 851.081 40.934V49.008C851.081 49.214 851.081 49.419 851.133 49.625C851.184 49.882 851.235 50.088 851.39 50.242C851.493 50.448 851.595 50.602 851.75 50.756C851.904 50.91 852.058 50.962 852.264 50.962V51.322H847.533V50.962C847.687 50.962 847.841 50.91 847.996 50.756C848.15 50.602 848.253 50.448 848.356 50.242C848.459 50.036 848.561 49.831 848.613 49.625C848.664 49.368 848.664 49.162 848.664 49.008V40.883C848.664 40.317 848.561 39.751 848.356 39.237C848.15 38.723 847.893 38.312 847.533 37.952C847.173 37.592 846.762 37.334 846.35 37.129C845.887 36.923 845.424 36.82 844.962 36.82C844.345 36.82 843.779 36.923 843.316 37.18C842.853 37.437 842.442 37.746 842.133 38.106C841.825 38.466 841.619 38.877 841.413 39.289C841.259 39.7 841.156 40.111 841.156 40.523V48.956C841.156 49.162 841.156 49.368 841.208 49.573C841.259 49.831 841.311 50.036 841.465 50.19C841.568 50.396 841.722 50.55 841.825 50.705C841.928 50.859 842.133 50.911 842.339 50.911V51.271H837.608V50.911C837.762 50.911 837.917 50.859 838.071 50.705C838.225 50.551 838.328 50.396 838.431 50.191C838.534 49.985 838.636 49.779 838.688 49.574C838.739 49.316 838.739 49.111 838.739 48.956V39.186C838.739 38.98 838.739 38.774 838.688 38.517C838.688 38.26 838.636 38.054 838.534 37.797C838.482 37.592 838.328 37.386 838.174 37.232C838.019 37.077 837.762 37.026 837.454 37.026V36.717L841.053 35.535V37.385C841.413 36.975 841.928 36.563 842.596 36.203C843.265 35.792 844.087 35.637 845.116 35.637C845.784 35.637 846.402 35.74 846.967 35.946C847.481 36.152 847.996 36.409 848.356 36.717C848.767 37.026 849.127 37.386 849.384 37.746C849.693 38.157 849.898 38.517 850.104 38.877C850.31 38.517 850.515 38.157 850.824 37.746C851.081 37.386 851.39 37.026 851.801 36.717C852.161 36.409 852.624 36.152 853.138 35.946C853.652 35.74 854.269 35.637 854.989 35.637C856.378 35.637 857.406 35.895 858.229 36.357C859.001 36.82 859.566 37.437 859.978 38.106C860.338 38.774 860.595 39.494 860.698 40.266C860.8 40.986 860.852 41.654 860.852 42.168V49.008H861.006V49.008ZM866.15 49.83C866.15 49.368 866.304 48.905 866.664 48.596C866.972 48.236 867.384 48.082 867.898 48.082C868.361 48.082 868.824 48.236 869.132 48.596C869.492 48.956 869.646 49.368 869.646 49.831C869.646 50.293 869.492 50.705 869.132 51.065C868.772 51.373 868.361 51.579 867.898 51.579C867.435 51.579 867.024 51.425 866.664 51.065C866.304 50.705 866.15 50.293 866.15 49.831V49.83ZM753.428 72.663C753.428 73.074 753.325 73.486 753.171 73.897C753.017 74.257 752.759 74.617 752.451 74.874C752.142 75.131 751.731 75.388 751.268 75.543C750.805 75.697 750.291 75.8 749.674 75.8H744.891V75.491C745.354 75.491 745.714 75.388 745.971 75.183C746.229 74.977 746.331 74.72 746.331 74.36V66.338C746.331 65.978 746.229 65.721 745.971 65.515C745.714 65.309 745.354 65.206 744.891 65.206V64.898H749.52C750.548 64.898 751.32 65.104 751.885 65.566C752.451 66.029 752.708 66.646 752.708 67.418C752.708 67.623 752.657 67.88 752.605 68.086C752.554 68.292 752.451 68.549 752.297 68.755C752.142 68.96 751.988 69.166 751.731 69.32C751.525 69.475 751.268 69.629 750.96 69.783V69.835C751.371 69.937 751.73 70.092 752.04 70.297C752.348 70.503 752.605 70.709 752.81 70.966C753.017 71.223 753.17 71.48 753.274 71.789C753.377 72.097 753.428 72.354 753.428 72.663V72.663ZM751.268 67.572C751.268 66.903 751.062 66.389 750.702 66.081C750.342 65.721 749.828 65.566 749.262 65.566H748.902C748.542 65.566 748.286 65.618 748.132 65.721C747.926 65.823 747.874 66.029 747.874 66.389V69.783H748.954C749.365 69.783 749.725 69.732 749.983 69.577C750.291 69.475 750.497 69.269 750.703 69.063C750.908 68.857 751.011 68.6 751.113 68.343C751.217 68.086 751.268 67.829 751.268 67.572V67.572ZM751.731 72.869C751.731 72.56 751.68 72.251 751.577 71.943C751.474 71.634 751.319 71.377 751.114 71.172C750.908 70.966 750.651 70.76 750.342 70.606C750.034 70.452 749.674 70.4 749.212 70.349L747.822 70.297V74.308C747.822 74.514 747.822 74.617 747.874 74.771C747.926 74.874 747.977 74.977 748.131 75.028C748.234 75.08 748.44 75.131 748.646 75.131H749.468C750.24 75.131 750.805 74.926 751.165 74.514C751.577 74.154 751.731 73.589 751.731 72.869V72.869ZM756.462 71.377V72.097C756.462 72.509 756.514 72.868 756.616 73.28C756.719 73.64 756.874 74 757.079 74.308C757.285 74.617 757.542 74.874 757.851 75.028C758.159 75.234 758.519 75.285 758.931 75.285C759.239 75.285 759.496 75.234 759.701 75.183C759.908 75.131 760.113 75.028 760.319 74.925L760.782 74.617C760.936 74.514 761.039 74.411 761.142 74.308C761.193 74.257 761.296 74.205 761.347 74.205C761.399 74.205 761.45 74.257 761.45 74.308C761.45 74.36 761.45 74.411 761.399 74.411C761.296 74.565 761.142 74.771 760.936 74.925L760.319 75.388C760.062 75.542 759.856 75.645 759.548 75.697C759.291 75.8 758.982 75.8 758.673 75.8C758.159 75.8 757.645 75.697 757.183 75.543C756.719 75.337 756.359 75.08 756.051 74.771C755.742 74.463 755.485 74.051 755.331 73.537C755.177 73.074 755.074 72.508 755.074 71.943C755.074 71.48 755.125 71.017 755.279 70.554C755.434 70.091 755.639 69.68 755.948 69.32C756.256 68.96 756.616 68.652 757.079 68.395C757.542 68.137 758.005 68.035 758.571 68.035C759.445 68.035 760.113 68.343 760.679 68.909C761.193 69.474 761.45 70.297 761.45 71.274H756.462V71.377V71.377ZM759.908 70.914C759.908 70.606 759.908 70.297 759.856 70.04C759.805 69.783 759.702 69.526 759.599 69.32C759.496 69.115 759.342 68.96 759.136 68.857C758.93 68.754 758.725 68.703 758.416 68.703C758.005 68.703 757.594 68.909 757.234 69.269C756.874 69.629 756.668 70.194 756.514 70.914H759.908V70.914ZM770.655 75.748H767.312V75.44C767.569 75.44 767.826 75.337 768.032 75.183C768.237 74.977 768.289 74.771 768.289 74.514V70.503C768.289 70.04 768.186 69.68 767.929 69.32C767.672 69.012 767.312 68.857 766.797 68.857C766.54 68.857 766.335 68.909 766.129 69.012C765.923 69.115 765.769 69.269 765.615 69.423C765.46 69.577 765.357 69.783 765.255 69.989C765.152 70.194 765.1 70.4 765.1 70.606V74.514C765.1 74.771 765.203 75.028 765.357 75.183C765.563 75.388 765.769 75.44 766.077 75.44V75.748H762.735V75.44C762.992 75.44 763.249 75.337 763.455 75.183C763.66 74.977 763.763 74.771 763.763 74.514V69.577C763.763 69.32 763.66 69.063 763.455 68.909C763.249 68.703 763.043 68.652 762.735 68.652V68.394H765.1V69.474H765.152C765.409 69.166 765.717 68.857 766.077 68.6C766.437 68.343 766.9 68.24 767.414 68.24C767.62 68.24 767.826 68.292 768.134 68.343C768.443 68.394 768.649 68.549 768.854 68.703C769.111 68.857 769.266 69.115 769.42 69.423C769.574 69.732 769.677 70.091 769.677 70.554V74.617C769.677 74.874 769.78 75.131 769.934 75.285C770.14 75.491 770.346 75.543 770.654 75.543V75.748H770.655ZM773.485 71.377V72.097C773.485 72.509 773.536 72.868 773.639 73.28C773.742 73.64 773.896 74 774.102 74.308C774.307 74.617 774.565 74.874 774.873 75.028C775.182 75.234 775.542 75.285 775.953 75.285C776.261 75.285 776.519 75.234 776.724 75.183C776.93 75.131 777.136 75.028 777.341 74.925L777.804 74.617C777.958 74.514 778.061 74.411 778.164 74.308C778.216 74.257 778.318 74.205 778.37 74.205C778.421 74.205 778.473 74.257 778.473 74.308C778.473 74.36 778.473 74.411 778.421 74.411C778.318 74.565 778.164 74.771 777.958 74.925C777.753 75.08 777.548 75.234 777.341 75.388C777.084 75.542 776.879 75.645 776.57 75.697C776.313 75.8 776.004 75.8 775.696 75.8C775.182 75.8 774.667 75.697 774.205 75.543C773.742 75.337 773.382 75.08 773.073 74.771C772.765 74.463 772.507 74.051 772.353 73.537C772.199 73.074 772.096 72.508 772.096 71.943C772.096 71.48 772.148 71.017 772.302 70.554C772.456 70.091 772.662 69.68 772.97 69.32C773.279 68.96 773.639 68.652 774.102 68.395C774.565 68.137 775.027 68.035 775.593 68.035C776.467 68.035 777.136 68.343 777.701 68.909C778.216 69.474 778.473 70.297 778.473 71.274H773.485V71.377V71.377ZM776.93 70.914C776.93 70.606 776.93 70.297 776.879 70.04C776.827 69.783 776.724 69.526 776.621 69.32C776.519 69.115 776.364 68.96 776.159 68.857C775.953 68.754 775.747 68.703 775.439 68.703C775.027 68.703 774.616 68.909 774.256 69.269C773.896 69.629 773.69 70.194 773.536 70.914H776.93V70.914ZM786.907 74.926C786.907 74.977 786.907 75.028 786.856 75.028C786.804 75.08 786.753 75.131 786.701 75.234L786.393 75.543C786.239 75.646 786.084 75.749 785.93 75.8C785.724 75.851 785.57 75.903 785.313 75.903C785.107 75.903 785.004 75.851 784.85 75.8C784.696 75.749 784.644 75.646 784.593 75.491C784.542 75.388 784.49 75.234 784.439 75.08C784.439 74.926 784.387 74.771 784.387 74.668H784.336C784.182 74.823 783.976 74.978 783.822 75.131C783.667 75.286 783.462 75.388 783.256 75.543C783.05 75.646 782.845 75.749 782.588 75.8C782.33 75.851 782.125 75.903 781.816 75.903C781.559 75.903 781.302 75.851 781.045 75.8C780.788 75.697 780.582 75.594 780.376 75.44C780.17 75.286 780.016 75.08 779.913 74.823C779.811 74.566 779.759 74.309 779.759 74C779.759 73.486 779.913 73.074 780.171 72.766C780.428 72.457 780.788 72.2 781.199 71.943C781.61 71.737 782.125 71.583 782.69 71.429L784.387 71.12V70.143C784.387 69.629 784.233 69.218 783.925 69.012C783.616 68.806 783.256 68.652 782.793 68.652C782.639 68.652 782.485 68.652 782.33 68.703C782.176 68.755 782.022 68.755 781.919 68.806C781.765 68.858 781.662 68.909 781.61 69.012C781.559 69.115 781.508 69.166 781.508 69.32C781.508 69.423 781.508 69.526 781.559 69.578C781.61 69.629 781.61 69.732 781.662 69.835C781.713 70.092 781.662 70.298 781.559 70.503C781.405 70.709 781.251 70.76 780.942 70.76C780.685 70.76 780.479 70.657 780.376 70.503C780.273 70.297 780.17 70.143 780.17 69.937C780.17 69.68 780.273 69.423 780.428 69.167C780.582 68.96 780.788 68.755 781.096 68.6C781.353 68.446 781.662 68.343 781.97 68.24C782.279 68.138 782.588 68.138 782.896 68.138C783.256 68.138 783.616 68.189 783.976 68.24C784.336 68.343 784.645 68.446 784.902 68.6C785.159 68.755 785.364 68.96 785.57 69.269C785.776 69.577 785.827 69.835 785.827 70.246V74.411C785.827 74.566 785.827 74.72 785.879 74.926C785.93 75.08 786.033 75.183 786.239 75.183C786.341 75.183 786.444 75.183 786.547 75.08C786.65 75.028 786.701 74.977 786.804 74.874C786.856 74.823 786.907 74.823 786.959 74.823C786.907 74.823 786.907 74.874 786.907 74.926V74.926ZM784.439 71.635C783.307 71.789 782.536 72.097 782.022 72.457C781.508 72.869 781.25 73.332 781.25 73.949C781.25 74.36 781.353 74.669 781.61 74.874C781.868 75.08 782.125 75.183 782.433 75.183C782.69 75.183 782.896 75.131 783.153 75.028C783.41 74.926 783.616 74.771 783.822 74.618C784.027 74.463 784.182 74.258 784.285 74.103C784.387 73.897 784.439 73.743 784.439 73.589V71.635V71.635ZM792.305 74.617C792.305 74.617 792.305 74.668 792.254 74.72C792.254 74.771 792.202 74.823 792.099 74.977C792.048 75.08 791.945 75.234 791.791 75.388C791.636 75.542 791.482 75.645 791.276 75.748C791.071 75.851 790.814 75.902 790.505 75.902C789.939 75.902 789.477 75.748 789.168 75.44C788.86 75.131 788.705 74.617 788.705 73.845V68.755H787.471V68.445C787.78 68.343 788.037 68.24 788.242 68.035C788.5 67.829 788.654 67.675 788.859 67.417C789.014 67.212 789.168 66.954 789.322 66.749C789.477 66.492 789.579 66.286 789.631 66.029H790.042V68.292H791.585V68.754H790.042V74.308C790.042 74.72 790.145 74.977 790.299 75.131C790.454 75.285 790.659 75.337 790.865 75.337C791.071 75.337 791.276 75.234 791.482 75.08C791.688 74.925 791.791 74.72 791.894 74.617C791.945 74.514 792.048 74.514 792.099 74.514C792.305 74.514 792.305 74.565 792.305 74.617V74.617ZM801.048 75.748H797.706V75.44C797.963 75.44 798.22 75.337 798.426 75.183C798.631 74.977 798.683 74.771 798.683 74.514V70.503C798.683 70.04 798.58 69.68 798.323 69.32C798.066 69.012 797.706 68.857 797.191 68.857C796.934 68.857 796.729 68.909 796.523 69.012C796.317 69.115 796.163 69.269 796.009 69.423C795.854 69.577 795.752 69.783 795.649 69.989C795.546 70.194 795.494 70.4 795.494 70.606V74.514C795.494 74.771 795.597 75.028 795.752 75.183C795.957 75.388 796.163 75.44 796.471 75.44V75.748H793.129V75.44C793.386 75.44 793.643 75.337 793.849 75.183C794.055 74.977 794.157 74.771 794.157 74.514V65.772C794.157 65.515 794.055 65.258 793.849 65.103C793.643 64.898 793.437 64.846 793.129 64.846V64.538H795.494V69.423H795.546C795.752 69.115 796.06 68.806 796.471 68.549C796.831 68.292 797.294 68.189 797.809 68.189C798.014 68.189 798.22 68.24 798.528 68.292C798.837 68.343 799.043 68.497 799.248 68.652C799.506 68.806 799.66 69.063 799.814 69.372C799.968 69.68 800.071 70.04 800.071 70.503V74.566C800.071 74.823 800.174 75.08 800.328 75.234C800.534 75.44 800.74 75.491 801.048 75.491V75.748V75.748ZM810.406 74.617C810.406 74.617 810.406 74.668 810.355 74.72C810.355 74.771 810.303 74.823 810.2 74.977C810.149 75.08 810.046 75.234 809.892 75.388C809.738 75.542 809.583 75.645 809.378 75.748C809.172 75.851 808.915 75.902 808.606 75.902C808.041 75.902 807.578 75.748 807.269 75.44C806.961 75.131 806.806 74.617 806.806 73.845V68.755H805.572V68.445C805.881 68.343 806.138 68.24 806.344 68.035C806.601 67.829 806.755 67.675 806.961 67.417C807.115 67.212 807.269 66.954 807.424 66.749C807.578 66.492 807.681 66.286 807.732 66.029H808.144V68.292H809.686V68.754H808.144V74.308C808.144 74.72 808.246 74.977 808.401 75.131C808.555 75.285 808.761 75.337 808.966 75.337C809.172 75.337 809.378 75.234 809.583 75.08C809.789 74.925 809.892 74.72 809.995 74.617C810.046 74.514 810.149 74.514 810.2 74.514C810.406 74.514 810.406 74.565 810.406 74.617V74.617ZM819.148 75.748H815.805V75.44C816.062 75.44 816.319 75.337 816.525 75.183C816.731 74.977 816.782 74.771 816.782 74.514V70.503C816.782 70.04 816.679 69.68 816.422 69.32C816.165 68.96 815.805 68.857 815.291 68.857C815.034 68.857 814.828 68.909 814.622 69.012C814.417 69.115 814.262 69.269 814.108 69.423C813.954 69.577 813.851 69.783 813.748 69.989C813.645 70.194 813.594 70.4 813.594 70.606V74.514C813.594 74.771 813.697 75.028 813.851 75.183C814.057 75.388 814.262 75.44 814.571 75.44V75.748H811.228V75.44C811.485 75.44 811.742 75.337 811.948 75.183C812.154 74.977 812.205 74.771 812.205 74.514V65.772C812.205 65.515 812.102 65.258 811.948 65.103C811.742 64.898 811.537 64.846 811.228 64.846V64.538H813.594V69.423H813.645C813.851 69.115 814.159 68.806 814.571 68.549C814.931 68.292 815.394 68.189 815.908 68.189C816.114 68.189 816.319 68.24 816.628 68.292C816.936 68.343 817.142 68.497 817.348 68.652C817.605 68.806 817.759 69.063 817.913 69.372C818.068 69.68 818.17 70.04 818.17 70.503V74.566C818.17 74.823 818.273 75.08 818.428 75.234C818.633 75.44 818.839 75.491 819.148 75.491V75.748V75.748ZM821.976 71.377V72.097C821.976 72.509 822.027 72.868 822.13 73.28C822.233 73.64 822.387 74 822.593 74.308C822.799 74.617 823.056 74.874 823.365 75.028C823.673 75.234 824.033 75.285 824.444 75.285C824.753 75.285 825.01 75.234 825.216 75.183C825.421 75.131 825.627 75.028 825.833 74.925L826.296 74.617C826.45 74.514 826.553 74.411 826.656 74.308C826.707 74.257 826.81 74.205 826.861 74.205C826.913 74.205 826.964 74.257 826.964 74.308C826.964 74.36 826.964 74.411 826.913 74.411C826.81 74.565 826.656 74.771 826.45 74.925L825.833 75.388C825.576 75.542 825.37 75.645 825.062 75.697C824.804 75.8 824.496 75.8 824.187 75.8C823.673 75.8 823.159 75.697 822.696 75.543C822.233 75.337 821.873 75.08 821.565 74.771C821.256 74.463 820.999 74.051 820.845 73.537C820.69 73.074 820.588 72.508 820.588 71.943C820.588 71.48 820.639 71.017 820.793 70.554C820.948 70.091 821.153 69.68 821.462 69.32C821.77 68.96 822.13 68.652 822.593 68.395C823.056 68.137 823.519 68.035 824.084 68.035C824.959 68.035 825.627 68.343 826.193 68.909C826.707 69.474 826.964 70.297 826.964 71.274H821.976V71.377V71.377ZM825.422 70.914C825.422 70.606 825.422 70.297 825.37 70.04C825.319 69.783 825.216 69.526 825.113 69.32C825.01 69.115 824.856 68.96 824.65 68.857C824.444 68.754 824.239 68.703 823.93 68.703C823.519 68.703 823.107 68.909 822.747 69.269C822.387 69.629 822.182 70.194 822.027 70.914H825.422V70.914ZM839.411 72.92C839.411 73.383 839.308 73.794 839.154 74.154C839 74.514 838.742 74.874 838.434 75.131C838.125 75.388 837.765 75.645 837.303 75.799C836.84 75.954 836.377 76.057 835.811 76.057C835.4 76.057 835.091 76.005 834.731 75.902C834.423 75.799 834.114 75.697 833.857 75.594C833.6 75.491 833.291 75.337 833.086 75.131C833.034 75.183 832.931 75.234 832.88 75.285C832.726 75.388 832.623 75.594 832.571 75.799H832.314V72.405H832.571C832.726 72.715 832.931 73.075 833.086 73.434C833.24 73.794 833.497 74.103 833.754 74.411C834.011 74.72 834.32 74.977 834.68 75.183C835.04 75.388 835.4 75.491 835.863 75.491C836.12 75.491 836.428 75.44 836.634 75.337C836.891 75.234 837.097 75.131 837.303 74.925C837.508 74.72 837.611 74.514 837.714 74.257C837.817 74 837.868 73.691 837.868 73.383C837.868 72.92 837.765 72.457 837.508 72.148C837.251 71.788 836.943 71.531 836.583 71.326L834.166 70.091C833.909 69.937 833.651 69.834 833.446 69.68C833.189 69.526 833.034 69.371 832.829 69.166C832.674 68.96 832.52 68.754 832.417 68.497C832.314 68.24 832.263 67.932 832.263 67.623C832.263 67.212 832.366 66.852 832.52 66.492C832.674 66.132 832.931 65.875 833.24 65.618C833.549 65.36 833.857 65.155 834.268 65.052C834.68 64.949 835.091 64.846 835.503 64.846C835.965 64.846 836.428 64.898 836.788 65.052C837.148 65.206 837.508 65.309 837.817 65.463C837.868 65.412 837.971 65.36 838.022 65.309C838.177 65.206 838.28 65.052 838.382 64.795H838.691V68.24H838.382C838.228 67.829 838.074 67.469 837.92 67.109C837.765 66.749 837.611 66.44 837.405 66.183C837.2 65.926 836.994 65.72 836.685 65.566C836.428 65.412 836.068 65.36 835.657 65.36C835.348 65.36 835.091 65.412 834.834 65.515C834.577 65.618 834.423 65.72 834.217 65.875C834.011 66.029 833.909 66.183 833.857 66.389C833.754 66.595 833.703 66.8 833.703 67.006C833.703 67.16 833.703 67.314 833.754 67.469C833.806 67.623 833.857 67.777 833.909 67.88C833.96 67.983 834.114 68.137 834.268 68.292C834.423 68.446 834.628 68.549 834.886 68.703L837.611 70.091C838.28 70.4 838.742 70.811 839 71.326C839.257 71.788 839.411 72.303 839.411 72.92V72.92ZM848.716 75.748H846.711C846.659 75.697 846.608 75.594 846.557 75.491L846.402 75.183C846.351 75.08 846.351 74.925 846.299 74.771H846.351C846.145 75.028 845.837 75.285 845.425 75.491C845.014 75.697 844.551 75.8 844.088 75.8C843.831 75.8 843.574 75.748 843.317 75.697C843.06 75.645 842.803 75.491 842.597 75.337C842.391 75.183 842.185 74.925 842.031 74.617C841.877 74.308 841.825 73.948 841.825 73.485V69.423C841.825 69.166 841.723 68.909 841.568 68.754C841.363 68.549 841.157 68.497 840.848 68.497V68.24H843.214V73.537C843.214 73.845 843.265 74.154 843.368 74.36C843.471 74.566 843.574 74.72 843.728 74.874C843.882 74.977 844.037 75.08 844.191 75.131C844.345 75.183 844.5 75.183 844.654 75.183C844.911 75.183 845.117 75.131 845.322 75.028C845.528 74.925 845.682 74.823 845.837 74.668C845.991 74.514 846.094 74.36 846.197 74.154C846.299 73.948 846.351 73.743 846.351 73.537V69.577C846.351 69.32 846.248 69.063 846.042 68.909C845.837 68.703 845.631 68.652 845.322 68.652V68.394H847.688V74.617C847.688 74.874 847.791 75.131 847.945 75.285C848.151 75.491 848.356 75.543 848.665 75.543V75.748H848.716V75.748ZM855.608 69.217C855.608 69.474 855.557 69.68 855.403 69.834C855.249 69.989 855.094 70.091 854.837 70.091C854.631 70.091 854.477 70.04 854.323 69.937C854.22 69.834 854.117 69.68 854.117 69.474C854.117 69.423 854.117 69.32 854.169 69.269C854.169 69.166 854.22 69.114 854.22 69.063C854.22 69.011 854.22 68.96 854.169 68.909C854.117 68.857 854.066 68.857 853.963 68.857C853.809 68.857 853.654 68.909 853.552 68.96C853.397 69.012 853.243 69.114 853.14 69.269C852.986 69.371 852.883 69.526 852.729 69.68C852.626 69.834 852.472 69.989 852.42 70.194V74.565C852.42 74.823 852.523 75.08 852.729 75.234C852.934 75.44 853.14 75.491 853.449 75.491V75.799H849.952V75.491C850.209 75.491 850.466 75.388 850.672 75.234C850.877 75.028 850.98 74.823 850.98 74.565V69.63C850.98 69.372 850.877 69.115 850.672 68.961C850.466 68.755 850.26 68.704 849.952 68.704V68.447H852.317V69.681H852.369C852.42 69.578 852.523 69.424 852.626 69.27C852.729 69.115 852.883 68.961 853.037 68.807C853.192 68.653 853.397 68.55 853.603 68.447C853.809 68.344 854.066 68.293 854.323 68.293C854.734 68.293 855.043 68.395 855.249 68.601C855.506 68.704 855.608 68.961 855.608 69.218V69.217ZM861.626 65.67C861.626 65.926 861.575 66.132 861.42 66.235C861.266 66.389 861.112 66.441 860.958 66.441C860.752 66.441 860.598 66.389 860.443 66.235C860.289 66.081 860.289 65.875 860.341 65.566C860.341 65.515 860.392 65.463 860.392 65.412V65.258C860.392 65.155 860.341 65.052 860.289 65.001C860.238 64.949 860.135 64.898 859.929 64.898C859.621 64.898 859.364 65.001 859.158 65.258C858.952 65.515 858.901 65.824 858.901 66.132V68.292H860.443V68.755H858.901V74.463C858.901 74.72 859.004 74.977 859.158 75.131C859.364 75.337 859.569 75.388 859.878 75.388V75.697H856.535V75.388C856.792 75.388 857.049 75.286 857.255 75.131C857.461 74.926 857.512 74.72 857.512 74.463V68.755H856.278V68.292H857.512V67.109C857.512 66.749 857.564 66.389 857.667 66.081C857.769 65.772 857.924 65.463 858.129 65.258C858.335 65.001 858.592 64.846 858.901 64.692C859.209 64.538 859.569 64.486 859.981 64.486C860.443 64.486 860.855 64.589 861.112 64.846C861.472 65.103 861.626 65.361 861.626 65.669V65.67ZM868.515 74.925C868.515 74.977 868.515 75.028 868.464 75.028C868.412 75.079 868.361 75.131 868.309 75.234L868.001 75.542C867.847 75.645 867.692 75.748 867.538 75.799C867.332 75.851 867.178 75.902 866.921 75.902C866.715 75.902 866.612 75.851 866.458 75.799C866.304 75.748 866.253 75.645 866.201 75.491C866.15 75.388 866.098 75.234 866.047 75.079C866.047 74.925 865.995 74.771 865.995 74.669H865.944C865.79 74.822 865.584 74.977 865.43 75.131C865.275 75.285 865.07 75.388 864.864 75.542C864.658 75.645 864.453 75.748 864.196 75.799C863.938 75.851 863.733 75.902 863.424 75.902C863.167 75.902 862.91 75.851 862.653 75.799C862.396 75.696 862.19 75.594 861.984 75.439C861.779 75.285 861.624 75.079 861.521 74.822C861.419 74.565 861.367 74.308 861.367 73.999C861.367 73.485 861.521 73.074 861.779 72.765C862.036 72.457 862.396 72.2 862.807 71.943C863.218 71.737 863.733 71.583 864.298 71.428L865.995 71.12V70.143C865.995 69.629 865.841 69.217 865.533 69.011C865.224 68.806 864.864 68.651 864.401 68.651C864.247 68.651 864.093 68.651 863.938 68.703C863.784 68.754 863.63 68.754 863.527 68.806C863.373 68.857 863.27 68.909 863.218 69.011C863.167 69.114 863.116 69.166 863.116 69.32C863.116 69.423 863.116 69.526 863.167 69.577C863.218 69.629 863.218 69.731 863.27 69.834C863.321 70.091 863.27 70.297 863.167 70.503C863.013 70.708 862.859 70.76 862.55 70.76C862.293 70.76 862.087 70.657 861.984 70.503C861.881 70.297 861.779 70.143 861.779 69.937C861.779 69.68 861.881 69.423 862.036 69.166C862.19 68.96 862.396 68.754 862.704 68.6C863.013 68.446 863.27 68.343 863.578 68.24C863.887 68.137 864.196 68.137 864.504 68.137C864.864 68.137 865.224 68.189 865.584 68.24C865.944 68.343 866.253 68.446 866.51 68.6C866.767 68.754 866.972 68.96 867.178 69.269C867.384 69.577 867.435 69.834 867.435 70.246V74.411C867.435 74.565 867.435 74.719 867.487 74.925C867.538 75.079 867.641 75.182 867.847 75.182C867.95 75.182 868.052 75.182 868.155 75.079C868.258 75.028 868.309 74.977 868.412 74.874C868.464 74.822 868.515 74.822 868.567 74.822C868.618 74.822 868.515 74.874 868.515 74.925V74.925ZM865.995 71.634C864.864 71.788 864.093 72.097 863.578 72.457C863.064 72.817 862.807 73.331 862.807 73.948C862.807 74.36 862.91 74.668 863.167 74.874C863.424 75.08 863.681 75.182 863.99 75.182C864.247 75.182 864.453 75.131 864.71 75.028C864.967 74.925 865.173 74.771 865.378 74.617C865.584 74.462 865.738 74.257 865.841 74.102C865.944 73.897 865.995 73.742 865.995 73.588V71.634V71.634ZM875.97 74.41C875.97 74.41 875.97 74.462 875.919 74.514C875.713 74.771 875.559 75.028 875.302 75.182C875.096 75.388 874.839 75.491 874.633 75.594C874.376 75.697 874.171 75.799 873.913 75.799C873.656 75.799 873.451 75.851 873.296 75.851C872.834 75.851 872.371 75.799 871.959 75.645C871.548 75.491 871.137 75.285 870.828 74.977C870.468 74.668 870.211 74.257 870.005 73.794C869.8 73.331 869.697 72.714 869.697 72.045C869.697 71.48 869.8 70.965 869.954 70.503C870.108 70.04 870.365 69.629 870.674 69.269C870.982 68.909 871.394 68.651 871.805 68.446C872.268 68.24 872.731 68.137 873.296 68.137C873.708 68.137 874.016 68.189 874.325 68.291C874.633 68.394 874.891 68.549 875.096 68.703C875.302 68.857 875.456 69.063 875.559 69.269C875.662 69.474 875.713 69.679 875.713 69.886C875.713 70.194 875.61 70.4 875.456 70.554C875.302 70.708 875.096 70.811 874.891 70.811C874.582 70.811 874.376 70.708 874.273 70.503C874.171 70.297 874.119 70.091 874.171 69.886C874.171 69.783 874.222 69.68 874.222 69.629C874.222 69.577 874.273 69.474 874.273 69.371C874.273 69.166 874.171 69.011 874.016 68.857C873.862 68.703 873.605 68.651 873.245 68.651C872.834 68.651 872.525 68.754 872.216 68.909C871.959 69.114 871.702 69.371 871.548 69.679C871.394 69.989 871.239 70.349 871.188 70.759C871.085 71.171 871.085 71.583 871.085 71.994C871.085 72.405 871.137 72.817 871.239 73.228C871.342 73.64 871.497 74 871.702 74.308C871.908 74.617 872.165 74.874 872.474 75.028C872.782 75.234 873.142 75.285 873.502 75.285C873.759 75.285 874.016 75.234 874.222 75.182C874.428 75.131 874.633 75.028 874.788 74.925L875.251 74.617C875.405 74.514 875.508 74.411 875.61 74.308C875.662 74.205 875.765 74.205 875.816 74.257C875.97 74.308 875.97 74.359 875.97 74.411V74.41ZM878.904 71.377V72.097C878.904 72.508 878.956 72.868 879.059 73.279C879.162 73.639 879.316 73.999 879.522 74.308C879.727 74.616 879.984 74.874 880.293 75.028C880.602 75.234 880.961 75.285 881.373 75.285C881.681 75.285 881.939 75.234 882.144 75.182C882.35 75.131 882.556 75.028 882.761 74.925C882.967 74.822 883.07 74.719 883.224 74.616C883.378 74.513 883.481 74.411 883.584 74.308C883.636 74.256 883.738 74.205 883.79 74.205C883.841 74.205 883.893 74.256 883.893 74.308C883.893 74.359 883.893 74.411 883.841 74.411C883.738 74.565 883.584 74.771 883.378 74.925L882.761 75.388C882.504 75.542 882.299 75.645 881.99 75.696C881.733 75.799 881.424 75.799 881.116 75.799C880.602 75.799 880.087 75.696 879.624 75.542C879.162 75.336 878.802 75.079 878.493 74.771C878.185 74.411 877.927 74.051 877.773 73.537C877.619 73.074 877.516 72.508 877.516 71.942C877.516 71.48 877.567 71.017 877.722 70.554C877.876 70.091 878.082 69.68 878.39 69.32C878.699 68.96 879.059 68.651 879.522 68.394C879.933 68.137 880.447 68.034 881.013 68.034C881.887 68.034 882.556 68.343 883.121 68.908C883.636 69.474 883.893 70.297 883.893 71.274H878.904V71.377V71.377ZM882.35 70.914C882.35 70.605 882.35 70.297 882.299 70.04C882.247 69.782 882.144 69.525 882.041 69.32C881.939 69.114 881.784 68.96 881.579 68.857C881.373 68.754 881.167 68.703 880.859 68.703C880.447 68.703 880.036 68.908 879.676 69.268C879.316 69.628 879.11 70.194 878.956 70.914H882.35V70.914Z" fill="white"/>
<path d="M917.575 95.238H698.095C697.015 95.238 696.193 94.364 696.193 93.335V10.131C696.193 9.10203 697.067 8.22803 698.095 8.22803H917.575C918.655 8.22803 919.478 9.10203 919.478 10.13V93.335C919.529 94.415 918.655 95.238 917.575 95.238V95.238ZM699.792 91.638H915.929V11.828H699.792V91.638V91.638Z" fill="white"/>
<rect x="273.965" y="1" width="240" height="104" fill="black"/>
<path d="M309.896 30.9214H325.887C334.336 30.9214 339.224 35.8109 339.224 42.388C339.224 46.7926 336.449 50.4133 332.948 51.5609C336.811 52.4661 340.551 56.0253 340.551 61.5776C340.551 68.5765 335.241 73.7068 327.155 73.7068H309.896V30.9214ZM319.191 48.0598H324.379C327.698 48.0598 329.87 46.3109 329.87 43.4144C329.87 40.6374 328 38.8271 324.258 38.8271H319.191V48.0598ZM319.191 65.9224H325.163C328.845 65.9224 331.077 63.9908 331.077 60.9132C331.077 57.9569 328.905 55.9057 325.163 55.9057H319.191V65.9224ZM343.233 65.4391C343.233 60.1293 347.156 57.1115 352.103 56.3874L359.164 55.3012C360.793 55.0603 361.336 54.2764 361.336 53.25C361.336 51.4995 359.828 49.9914 356.931 49.9914C353.733 49.9914 351.982 52.1638 351.801 54.396L343.836 52.7667C344.198 48.4833 348.18 42.8098 356.991 42.8098C366.706 42.8098 370.266 48.2409 370.266 54.396V69.0598C370.266 71.4132 370.569 73.4046 370.629 73.7068H362.364C362.303 73.4644 362.062 72.3798 362.062 70.3286C360.494 72.8615 357.596 74.5522 353.613 74.5522C347.036 74.5522 343.234 70.2074 343.234 65.4391H343.233ZM355.845 67.9138C358.561 67.9138 361.336 66.5867 361.336 61.9396V60.6126L355.663 61.5178C353.733 61.8184 352.284 62.7236 352.284 64.8362C352.284 66.4041 353.311 67.9138 355.845 67.9138ZM373.793 65.1982L381.578 63.8098C381.697 65.8626 383.146 67.854 386.285 67.854C388.638 67.854 389.784 66.5867 389.784 65.2581C389.784 64.1718 389.06 63.2667 386.826 62.785L383.388 61.9994C376.991 60.6126 374.456 56.9919 374.456 52.7667C374.456 47.2759 379.284 42.8098 385.983 42.8098C394.672 42.8098 397.69 48.2409 397.992 51.7419L390.387 53.1288C390.146 51.1374 388.879 49.4483 386.104 49.4483C384.353 49.4483 382.845 50.4747 382.845 52.0426C382.845 53.3098 383.87 54.0339 385.199 54.2764L389.181 55.0603C395.396 56.3276 398.414 60.0695 398.414 64.4741C398.414 69.6029 394.491 74.612 386.466 74.612C377.052 74.612 374.034 68.5183 373.793 65.1982ZM409.603 55.1201H421.612C421.491 52.8281 419.922 50.0512 415.577 50.0512C411.715 50.0512 409.784 52.8879 409.603 55.1201ZM422.275 62.9046L429.94 65.077C428.492 70.2672 423.723 74.612 416.12 74.612C407.854 74.612 400.491 68.6977 400.491 58.6212C400.491 48.965 407.673 42.8098 415.457 42.8098C424.75 42.8098 430.483 48.5431 430.483 58.1977C430.483 59.465 430.362 60.8534 430.302 61.0345H409.422C409.603 64.4127 412.68 66.8276 416.241 66.8276C419.559 66.8276 421.43 65.2597 422.275 62.9046Z" fill="white"/>
<path d="M448.99 58.6212H442.224V40.4305H435.542V35.9047C439.724 35.8627 442.698 33.4914 443.171 30.6466H448.99V58.6212ZM460.457 44.6557C460.457 46.896 460.715 49.0943 461.491 50.7333C462.267 52.285 463.517 53.3195 465.586 53.3195C467.698 53.3195 468.904 52.285 469.68 50.7333C470.499 49.0943 470.758 46.896 470.758 44.6557C470.758 42.4138 470.499 40.2156 469.68 38.5782C468.904 37.0264 467.698 35.992 465.586 35.992C463.517 35.992 462.267 37.0264 461.491 38.5782C460.715 40.2156 460.457 42.4138 460.457 44.6557ZM453.645 44.6557C453.645 41.2064 454.163 37.715 456.102 34.7845C457.956 31.9834 461.06 30.0001 465.586 30.0001C470.155 30.0001 473.259 31.9834 475.111 34.7845C477.051 37.715 477.568 41.2064 477.568 44.6557C477.568 48.1035 477.051 51.5948 475.111 54.5253C473.259 57.2845 470.155 59.3098 465.586 59.3098C461.06 59.3098 457.956 57.2845 456.102 54.5253C454.163 51.5948 453.645 48.1035 453.645 44.6557Z" fill="white"/>
<path fill-rule="evenodd" clip-rule="evenodd" d="M434.616 68.5345H478.258V75H434.616V68.5345Z" fill="#45AEEB"/>
</g>
<defs>
<clipPath id="clip0">
<rect width="929" height="104" fill="white"/>
</clipPath>
</defs>
</svg>
