<svg width="16" height="16" viewBox="0 0 16 16" fill="none" xmlns="http://www.w3.org/2000/svg">
<path d="M8.7516 12.4963L13.7729 7.49014C14.0642 7.23066 14.5077 7.24306 14.784 7.51841C15.0602 7.79376 15.0731 8.23637 14.8134 8.5273L8.53415 14.7853C8.24664 15.0716 7.78115 15.0716 7.49364 14.7853L1.21551 8.5273C1.02964 8.34182 0.957055 8.07148 1.02509 7.81811C1.09312 7.56474 1.29144 7.36684 1.54534 7.29895C1.79924 7.23106 2.07015 7.3035 2.25602 7.48897L7.27852 12.4963L7.27852 1.73383C7.27852 1.32855 7.60776 1 8.01389 1C8.42003 1 8.74926 1.32855 8.74926 1.73383L8.74926 12.4963L8.7516 12.4963Z" fill="#123399" stroke="#123399" stroke-width="0.3"/>
</svg>
