<svg xmlns="http://www.w3.org/2000/svg" width="31" height="30" fill="none" viewBox="0 0 31 30">
    <path fill="#00C38B" d="M29.3 1.8s0-.1.1-.1c.4-.2.6-1 1-.7.4.3-.1.8-.3 1.2-1.5 2.4-3.1 4.7-5.4 6.4-1.7 1.4-3.4 2.4-5.6 1.8-.5-.1-.6.1-.6.5-.1.7-.2 1.3-.4 1.9-.7 2.6-2.4 3.9-5.1 3.3-.9-.2-1.3-.2-1.1.9.3 1.3.1 2.6.3 3.9.2 1.1-1.4 3.4-2.2 3.2-1-.3-2.1 0-3.1-.5-.5-.3-1-.4-1.6-.7 0 .5.3.7.4 1 .1.3.6.8-.3.4-.3-.1-.1.3 0 .5.2.6.6 1.2.3 1.9-2.4-3.1-4.3-6.3-5.7-10.1 1.2.3 2 .8 2.6 1.5 0 .6.3 1 .9 1.2.4.2.7.5 1 .8.4.4.8.6 1.4.6.6.3 1.3.5 2 .7 1.2.3 1.8 0 2-1.3.3-1.6.4-3.2-.5-4.7-.3-.5-.4-1-.3-1.6.1-1 .6-1.6 1.7-1.3.8.2 1.6.4 2.4.7 1.1.4 1.8 0 2.1-1.1.3-.9.5-1.8.6-2.7.2-1.3 1.7-2.5 2.9-2.1 2.3.8 3.8-.5 5.4-1.7 1.5-1.1 2.5-2.8 4.2-3.7.3.3.6.3.9-.1z"/>
    <path fill="#00C38B" d="M3.4 19.6c-.4-.4-1.8-.2-.8-1.4.3.3.7.5 1 .8.6.4.2.5-.2.6zM8.698 29.402c-.8-.2-1.2-.5-1.3-1.1 0 0 .2-.2.3-.2.6.1.7.6 1 1.3zM4.398 20.402c.2-.1.4-.2.5-.3.3.3.7.5 1 .8-.7.4-1.1 0-1.5-.5zM7.898 21.598c-.8.1-1.4-.2-2-.7.7 0 1.4.3 2 .7zM29.298 1.798c-.2.5-.3 1-.9.4.2-.1.3-1 .9-.4z"/>
</svg>
