<svg xmlns="http://www.w3.org/2000/svg" width="98" height="67" fill="none" viewBox="0 0 98 67">
    <g clip-path="url(#clip0)">
        <path fill="#0096AE" d="M57.899 48.4c.3-.2.8-.1 1.2-.6-1-.3-1.9-.5-2.8-.4-1.6.1-2.9-.6-4.2-1.3-.6-.3-1.1-.8-1.7-1-.7-.3-1-.9-1.1-1.7 0-.1.1-.2.2-.2-.1-.1-.3.1-.4 0 .1-.7-.3-1.5.2-2.2.2-.9.8-1.4 1.5-1.9.4-.3.5-.7.6-1.2 0-.3.2-.6.4-.9-.8-.1-1.5 0-2.1-.2-.8-.2-1.9.1-2-1.3 0-.1-.2-.2-.3-.2-1.4-.1-1.6-1-1.3-2.1 0-.1.1-.3.1-.3-1.5-.7-.3-1.8-.4-2.7-.1-.7.6-.8.8-1.3-2.2-.4-4.4.2-6.5-.3-.7-.2-.8-1.1-1.4-1.3-.3-.4-.3-.9-.6-1.3-.5-.2-.9-.7-1.4-.8-.6-.2-.4-.7-.2-1.1.2-.3.3-.7.2-1-.1-1.3.6-1.7 1.7-1.8.1.1.3 0 .3 0 .2-1 1.1-1.2 1.8-1.6.5 0 1-.2 1.4-.4.2 0 .3-.1.5-.1.3.3 0 .5-.2.7 1.9-.5 3.7-.5 5.3-.9-.4 0-1 .2-1.7 0-.5-.1-.9-.4-1.4-.3h-.2c-.3-.4-.6-.6-1-.7-.4-.1-.4-.3-.3-.6.2-.6-.1-.8-.6-.9-.1 0-.1.1-.1.1-.4-.7.1-.9.5-1.2.3-.1.6-.2 1-.1-.4-.5-1.1-.5-1.3-1.1-.1-.7-.6-.8-1.2-.9-.3 0-.7 0-.8-.4 0-.5.5-.4.8-.5 1 .2 1.8-.8 2.8-.5.5 0 1.1-.1 1.6-.2.3 0 .6-.1 1-.2 1.6-.5 3.2-.6 4.8-.5.4 0 .8-.1 1.2-.3.1-.1.3-.2.4-.2.3-.1.7-.2 1-.1.7.2 1.5-.2 2.2.2.5.2.9.2 1.4.2 1.3 0 2.5 0 3.7-.4.2 0 .3-.1.5-.1.6.1 1.2.1 1.8-.1.3-.1.6-.1 1-.1.2 0 .4.2.6.2.9.2 1.8.1 2.7.1.4 0 .8.1 1.1 0 .7 0 1.3 0 2 .1.8.1 1.1 1.2 2.1.9.4.1.8.2 1.3.2.9.1 1.7.2 2.6.2.5 0 1 .1 1.4.3 1 .3 2 .3 3 .4.6.1 1.2.1 1.8.3.8.3 1.7.2 2.5.5.8 0 1.8.7 2.4-.4.7-.2 1.4 0 2.1.2.4.1.8.2 1.3.3.7 0 1.2-.1 1.3-.9.3 0 .7.1 1 .3.7.3 1.3.6 1.9 1.1.5.6 1.3.7 1.8 1.3.8 1.4-.2 2.6-.3 3.9-.7.5-1.6.6-2.2 1.2-.6 1-1.6 1.3-2.6 1.4-2.4.3-4.7.6-7.1.9-.3 0-.8-.1-.9.4-.1.5.5.4.7.6.8.4.9 1.3.9 1.8-.1 1.9-.5 3.8-2.4 4.8-.1.1-.4 0-.6 0-.5.1-.5.1-.6.8-.1.5-.7.3-1 .5-.3.2-.8-.1-.8.5-.1.5.4.5.6.8.5.7 1.4 1.4.5 2.4-.3.4-.4.9-.3 1.2.3 1.4-.4 2-1.5 2.5-.4 0-.4.5-.7.6-.3.1-.6.1-.8.4-.1.1-.1.3-.2.4-.7.5-1.6.4-2.4.6-.3.1-.7 0-.8.4 0 .2.2.3.4.3.4.3.9.5 1.3.8 1.8 1.3 1.9 2.1 1.6 4.3-.2 1.4-1.1 2.2-1.7 3.3 0 .3-.2.3-.4.4-.4 0-.7 0-1.1.2-2.1 1.6-4.7 2-7.2 2.8-.8.3-1.6.4-2.5.6-.2-.2-.4 0-.6 0-.2 0-.5.1-.7.2-.5.4-1.3.1-1.7.7.3.2.5.5.9.5 1 0 1.7.5 2.6.9.1.6-.2.6-.6.6-.5-.1-.8.1-1.2.4-.3.2-.7-.2-1-.1.5 0 .9.3 1.3.4.6.2 1.1.4 1.6.8.1.1.3.1.4.2.4.3 1 .2 1 .9 0 .6-.4 1-.9 1.3-1.4 1-3 1.8-4 3.4-.5.2-.5.1-.5-.5.1-.4.3-.8.5-1.2.1-.3.2-.7 0-1-.4-.3-1.7-.1-.7-1.3.1-.1-.4 0-.5-.2-.2-.3-.3-.7-.7-.8-.1-.1-.2-.1-.3-.2-.9-.7-1.9-1.1-3.1-.9-.8.2-1.6-.3-2.4-.2-.2 0-.3.2-.4.3-.2.2-.1.5-.4.6-.7-.2-.8-1.1-1.5-1.2-.2-.3-.8-.1-.7-.7 0-.9-.5-1.6-.7-2.4-.3-1.2.2-2.1 1-2.8 1.1-.9 2-2.1 3.6-2.2.4-.2.9-.4 1.3-.5.5 0 .6-.4.9-.6z"/>
        <path fill="#2FAABD" d="M52.6 11.1c-.4.2-.8.3-1.3.3-1.7-.1-3.3.1-4.9.4-.2 0-.2-.2-.3-.3-.2-.4-1-.3-.6-1 .4-.4 1.2.1 1.6-.5h1.4c.4.5 1 .1 1.5.4.3.2.6.1.8.1h.3c.3.1.6.1.9.1.3 0 .6.1.6.5z"/>
        <path fill="#1EA3B8" d="M81.3 12.6c-1 0-2.1-.1-3.1-.4 0-.1 0-.2.1-.3.3-.2.6-.2.9-.2H81.1c1-.1 2.1-.3 3-.8 1.1.1 2.2.1 3.3.4-.3.6-.9.4-1.3.4-.5 0-.9.1-1.2.6-.3.1-.5.1-.8.1-1 .1-1.9.2-2.8.2z"/>
        <path fill="#0799B0" d="M54.499 57.7c1.6.3 3.2-.2 4.8.4.5.2.9.4 1.2.7-.2.4-.6.2-.8.1-.5-.4-.4.3-.6.3-1 0-1.8-.5-2.7-.8-.1-.1 0 .2 0 0h.1c.2.1.4.2.6.4.1.2.2.4 0 .6-.8-.2-1.6-.6-2.2-1.2-.4 0-.5-.2-.4-.5z"/>
        <path fill="#0A9BB1" d="M92.8 12.4c.5.9-.1 1.1-.8 1.2-1.3.2-2.5-.7-3.9-.6-.2 0-.3.1-.5 0-.1-.1-.1-.2-.1-.3.1-.2.2-.3.3-.4.2-.1.3-.1.5 0 .5.2 1 .2 1.5.3 0 0 .1 0 .1-.1v-.1c0-.2-.1-.4.2-.5 1 0 1.9.1 2.7.5z"/>
        <path fill="#17A0B5" d="M87.999 12.5l-.3.3c-1-.1-2 0-2.9-.5.1-.6.4-.9 1.1-.8.5.1 1 .2 1.5-.1.7 0 1.4.1 2 .3.3.3.6.6 1 .8.2.2.2.5-.2.4-.6-.1-1.3 0-1.9-.4 0-.1-.1-.2-.2-.2-.1-.1-.1 0-.1.2z"/>
        <path fill="#0D9CB2" d="M45.499 18.8c.9.1 1.8.1 2.7.2v.2c-2.3.4-4.6.7-6.9 1.1 0-.6.9-.4.8-1.1.6-.4 1.3-.1 1.9-.5.5.3 1 .5 1.5.1z"/>
        <path fill="#30AABD" d="M42.3 14.2c.3.2.6.4 1 .4.5 0 .1.7.5 1.1-.4 0-.8-.1-1.2-.1-.4.2-.8-.1-1.3-.1-.5-.1-1-.3-1.6-.2-.4 0-.5-.2-.5-.6.2-.4.6-.4.9-.4.6 0 1.2 0 1.8-.1.2-.1.3-.1.4 0z"/>
        <path fill="#35ACBF" d="M72.999 11.6c-.6 0-1.2-.1-1.8-.1.6-.8-.1-.6-.4-.8 0-.3 0-.5.3-.6 1 .1 1.9.1 2.9.2.4.4-.1.5-.3.7-.3 0-.4.4-.7.6z"/>
        <path fill="#5EBDCC" d="M83.999 10.9c-.8 1.1-2 .9-3.1 1-.1-.3-.1-.5-.1-.8.3-.6.9 0 1.3-.4.7-.1 1.3 0 1.9.2z"/>
        <path fill="#26A6BA" d="M39.499 10c.6-.1 1.1-.1 1.7 0 .5.8-.4.9-.6 1.3-.1.1-.2.2-.3.2-1.2.5-1.5.3-1.4-.9.2-.3.4-.5.6-.6z"/>
        <path fill="#139EB4" d="M38.1 25.9c.3.4.3.9.4 1.4 0 .2-.1.3-.3.3-.9-.1-1.5-.4-1.8-1.3.4-.7 1.1-.3 1.7-.4z"/>
        <path fill="#3FB0C2" d="M32.799 11.3c.1-.7.5-1 1.2-1 .4 0 .7-.1.9-.4.3.1.3.5.4.7.1.5-.1.8-.6.8-.3 0-.8-.2-.6.4-.1.1-.2.2-.4.2-.4-.1-.7-.4-.9-.7z"/>
        <path fill="#4CB6C6" d="M57.4 11.1c-.4-.2-1 .1-1.4-.3.1-.3.3-.4.6-.5h.6c.4-.1.7-.2.9-.5.1-.1.2-.1.3-.1h.7c.3.4 1 .1 1.3.5.1.1.1.2.1.3-1 .5-2.1.2-3.1.6z"/>
        <path fill="#8FD1DB" d="M41.9 10c.7.2 1.5-.2 2.2.2v.2c-.4.3-.9.5-1.2.8-.5.3-1 .4-1.5.1-.8-.8.2-.9.5-1.3z"/>
        <path fill="#2DA9BC" d="M50 10.6c-.4-.4-1.4.5-1.5-.6 1.1-.1 2.2-.301 3.3-.1.1.2.1.3 0 .5-.2.2-.5.3-.7.3-.4-.2-.8-.1-1.1-.1z"/>
        <path fill="#46B3C4" d="M61.2 59.9c.3.1.6-.4.9.2.3.7-.6.4-.5.8.4.4.9 0 1.3.4-.1.4-.4.6-.7.8-.4.2-.8.5-1-.2.1-.3.2-.7 0-1-.1-.1-.2-.1-.3-.2v-.3c0-.1.1-.3.2-.4-.1-.1 0-.1.1-.1z"/>
        <path fill="#88CED8" d="M62.199 63.7c.2.1-.3.5.2.6 0 .3.3.8-.1.8-.9 0-.5.8-.7 1.2-.5 0-.4-.5-.6-.6-.3-.2-.2-.4-.1-.6.4-.6.4-1.6 1.3-1.4z"/>
        <path fill="#33ABBE" d="M56.999 59.5c.1-.2-.1-.4-.2-.5 1.2-.3 2.1.4 3 1 .1.1.1.2.2.3 0 .2-.1.2-.2.2-1-.1-1.9-.4-2.8-1z"/>
        <path fill="#8FD0DB" d="M71.1 10l-.3.6c-.6 0-1.3-.1-1.9-.1-.3-.1-.5-.2-.5-.6.9-.1 1.8 0 2.7.1z"/>
        <path fill="#1AA1B6" d="M63.9 57.1c.3-.5.5-.9 1.2-.5.3.2.6.1.7-.3.1.1.2.2.4.3.5.7-.2.8-.5 1-.5.2-1.1 0-1.6-.2-.1 0-.2-.1-.2-.3z"/>
        <path fill="#A3D9E2" d="M74.9 10.4c.4-.1.9-.1 1.3 0 .4 0 .7.1.9.4.1.2.1.3.1.5-.1.1-.1.2-.2.2-.4 0-.7-.2-1.1-.2h-.8c-.3 0-.7 0-.9-.3 0-.6.4-.6.7-.6z"/>
        <path fill="#75C6D3" d="M77.199 10.9c-.3-.1-.7-.3-.9-.5 1-.3 2-.1 3 .1-.1.4-.5.3-.8.6-.5.2-1 .3-1.3-.2z"/>
        <path fill="#2DA9BC" d="M50.9 39.3c-.7.4-1.4.9-1.7 1.7.3-.9.1-2.2 1.4-2.5.4.5.4.5.3.8z"/>
        <path fill="#73C5D3" d="M51 54.6c.4.7 1.3 1.4.7 2.4-.9-.6-1-1.5-.7-2.4z"/>
        <path fill="#4AB4C5" d="M39.5 10c-.1.3-.2.5-.5.6-.5.5-1.1.3-1.6.2-.3-.2-.4-.4-.3-.8.8-.1 1.6-.1 2.4 0z"/>
        <path fill="#A7DBE3" d="M59.799 65.7c-.6-1-.5-1.2.5-1.4.4-.1.7-.5 1-.8.2 0 .2.1.2.3-.3.7-.9 1.1-1.2 1.7-.1.1-.3.2-.5.2z"/>
        <path fill="#43B2C3" d="M45.5 10.6c-.2.7 1 .1.9.9-.4.2-.8.1-1.2 0-.2 0-.5 0-.7-.1-.1-.1-.2-.1-.2-.2-.1-.3-.1-.6-.1-.9h-.1c.3 0 .6-.1.9-.1.3-.1.5 0 .5.4z"/>
        <path fill="#61BECD" d="M53.8 10.6c-.3.1-.5.1-.8.2-.3 0-.5-.1-.8-.3-.1-.2-.2-.4-.1-.6h.4c.3.1.7.1 1 0 .3-.2.7-.2 1 0 .1 0 .2.1.2.2-.2.5-.6.4-.9.5z"/>
        <path fill="#2AA7BB" d="M35.2 13.4c-.5-.1-1-.2-1.6-.2-.2-.3-.5-.2-.7-.3-.6-.2-.5-.5 0-.7.3-.1.6 0 .8 0 .1 0 .2.1.3.1.4.2.8.3 1.1.6.2.1.2.3.1.5z"/>
        <path fill="#39AEC0" d="M59.799 65.7l.3-.3c.3-.4.5-.8 1-.3-.1.2-.2.3-.1.5-.1.1-.3.3-.2.5.1.3.1.6-.3.7-.3 0-.5-.2-.6-.5 0-.2 0-.4-.1-.6z"/>
        <path fill="#65C0CE" d="M61.699 9.5c.3.2.1.5.2.8 0 .2 0 .2-.2.2h-.3c-.3 0-.6.3-.9-.1l-.2-.2c0-.3.3-.4.4-.7.3-.1.6 0 1 0z"/>
        <path fill="#109DB3" d="M40.2 19.7c-.3.3-.3 1-1.1.8-.1 0-.3.1-.2.3.3.9-.3.6-.8.6.4-1 .9-1.8 2.1-1.7z"/>
        <path fill="#48B4C5" d="M54.7 10.1c-.1-.1-.1-.2-.2-.3.7-.4 1.5-.2 2.2-.2.2.1.2.2.2.4-.1.1-.1.2-.2.3-.7.2-1.4.2-2-.2z"/>
        <path fill="#21A4B9" d="M37.1 10c.1.2.2.4.4.7-.9.3-1.7-.3-2.6-.2v-.7c.7-.2 1.5.3 2.2.2z"/>
        <path fill="#1DA2B7" d="M45.5 10.6l-.5-.5c.7-.3 1.3-.1 2-.1 0 1.4-1 .2-1.5.6z"/>
        <path fill="#8BD0DA" d="M95 20.2c.5-.8 1.2-1.3 2.2-1.2.1.6-.4.7-.8.7-.5 0-.8.4-1.4.5z"/>
        <path fill="#43B2C3" d="M38.099 25.9c-.4.8-1.3-.1-1.8.4 0-.3.9-.6.1-1 .6.1 1.2.1 1.7.6z"/>
        <path fill="#3EB0C2" d="M68.4 10c.2.2.3.4.5.6-.3.2-.7-.1-1 0-.5-.1-1.1 0-1.6-.1-.1-.1-.1-.2-.1-.3.7-.3 1.4-.2 2.2-.2zM97.5 15c-.6-.3-1.4-.3-1.8-1 0-.2 0-.2.2-.2.8.1 1.3.5 1.6 1.2z"/>
        <path fill="#72C5D2" d="M82.2 10.7c-.2.7-1 0-1.2.5 0 .4-.3.4-.6.5-.1 0-.2-.1-.3-.2-.2-.4.1-.6.4-.8h1.7z"/>
        <path fill="#5CBCCB" d="M80.4 10.7c.2.3-.4.4-.3.7-.1.1-.2.1-.3.1-.4-.2-1 0-1.3-.5 0-.5.5-.1.7-.4.4-.1.9-.3 1.2.1z"/>
        <path fill="#83CCD8" d="M62 61.8c-.1.4.3 1.2-.7 1-.3-.4-.7-.8-.3-1.4.2 0 .3.1.3.3.3.9.5.2.7.1z"/>
        <path fill="#41B1C3" d="M60.7 9.6c.4.5-.1.5-.4.7-.3-.3-1.1.4-1.2-.6.5-.1 1.1-.1 1.6-.1z"/>
        <path fill="#2FA9BD" d="M57.899 48.4c.4.9-.4.8-.9.9-.2-.1-.6 0-.7-.4.5-.4 1-.5 1.6-.5z"/>
        <path fill="#22A4B9" d="M63.2 55.4c-.6.3-.9-.1-1.2-.5.4-.6 1-.6 1.6-.6.1.2.2.3 0 .4-.2.3-1 .1-.4.7z"/>
        <path fill="#37ADBF" d="M42.1 16.5c1.6-.3.6 1 .9 1.5-.5 0-.6-.2-.5-.6.1-.5-.2-.7-.4-.9z"/>
        <path fill="#47B3C4" d="M38.2 27.5l.3-.3c.3 0 .7-.2.7.3s.4.7.7 1.1c-.8.1-1-1-1.7-1.1z"/>
        <path fill="#A1D8E1" d="M33.799 12.3h-.7c-.2 0-.3-.1-.3-.3v-.7c.4.1.7.4 1 .7.2 0 .2.2 0 .3z"/>
        <path fill="#4AB4C5" d="M41.9 10c0 .5-1.1.5-.5 1.2-.3.5-.7.2-1 0 0-.6 1.1-.5.9-1.3.2.1.4.1.6.1z"/>
        <path fill="#1BA2B7" d="M50.899 39.3c.1-.3-.6-.4-.3-.8.2-.2.5-.4.7-.6 0 .5.1 1.1-.4 1.4z"/>
        <path fill="#48B3C5" d="M52.4 57.7c.1-.3.6-.6.6-.3-.1.9.7 1 1 1.5-.9-.1-1.1-.9-1.6-1.2z"/>
        <path fill="#0B9BB2" d="M95.899 13.8l-.2.2c-.6-.4-1.3-.9-1.9-1.3.8.1 1.5.5 2.1 1.1z"/>
        <path fill="#47B3C4" d="M65.299 57.5c.3-.3 1-.2.9-.9.8.2.3.6.2 1-.1.2-.2.3-.4.4-.3-.1-.6-.2-.7-.5z"/>
        <path fill="#6CC2D0" d="M39.5 14.5c-.1.3.1.5.3.6-.5.3-1 .1-1.2-.4 0-.1 0-.2.1-.3.3-.2.6-.2.8.1z"/>
        <path fill="#A8DAE2" d="M63.6 54.8v-.4c0-.3.5-.2.5-.5.2-.3.5-.3.7 0 .1.3-.3.4-.3.6-.3.2-.6.3-.9.3z"/>
        <path fill="#5ABBCA" d="M56.7 10v-.4c.6-.1 1.2-.1 1.8.1l-.2.2c-.2.4-.6.2-.8.4-.3-.1-.7.1-.8-.3z"/>
        <path fill="#3DAFC1" d="M32.8 12l.3.3c-.3.1-.4.3-.2.5-.4 0-.8-.2-.8-.6 0-.3.4-.3.7-.2z"/>
        <path fill="#63BFCD" d="M54 58.9c.1-.2.2-.5.3-.7.1 0 .2.1.2.2-.1.4.5.4.5.7-.4.2-.7 0-1-.2z"/>
        <path fill="#0B9BB2" d="M90.4 12.5c-.5-.1-1.1 0-1-.8.3-.1.6 0 .8.2 0 .2 0 .4.2.6z"/>
        <path fill="#58BBCA" d="M74.9 10.4c-.1.3-.6.1-.5.5 0 .2-.2.2-.3.3-.1 0-.2 0-.3-.1-.1-.1-.2-.2-.2-.4.2-.1.6-.1.5-.5.3-.1.6 0 .8.2z"/>
        <path fill="#52B8C8" d="M56.4 48.9c.2.2.7-.1.7.4-.4.3-.9.4-1.4.3.2-.2.4-.5.7-.7z"/>
        <path fill="#5CBCCB" d="M60 66.3c.4.4.7.5.8-.2.3.3.4.7-.1.8-.5.1-.7-.2-.7-.6z"/>
        <path fill="#3EB0C2" d="M64.4 10.2c.2-.1.3-.2.5-.2.4 0 .8.1 1.2.1v.1c-.3.5-.8.1-1.2.2-.2.1-.3 0-.5-.2z"/>
        <path fill="#7CC9D4" d="M79.099 39.2c.2-.3.4-.6.8-.5-.3.3-.1 1-.8 1-.2 0-.2-.1-.3-.2 0-.2.1-.3.3-.3z"/>
        <path fill="#5DBCCB" d="M64.399 54.5c-.1-.3.2-.4.3-.6.2-.2.5-.2.7 0-.3.2-.6.4-1 .6z"/>
        <path fill="#49B4C5" d="M59.799 60.6l.2-.2c.3-.4.7-.4 1 0-.1.1-.1.2-.2.3-.4.5-.7-.1-1-.1z"/>
        <path fill="#51B6C8" d="M54.5 58.4l-.2-.2c-.2-.3-.3-.5.2-.5.1.2.2.5.3.7h-.3z"/>
        <path fill="#91D2DC" d="M38.8 14.5c-.1.1-.1.2-.2.2h-1v-.4c.5-.1.9-.3 1.2.2z"/>
        <path fill="#109DB3" d="M41.6 19.3c-.4.4-.9.6-1.4.4.4-.3.9-.5 1.4-.4z"/>
        <path fill="#42B1C3" d="M52.099 9.8c.1.2.2.3.2.5 0 .1 0 .2-.1.2h-.1c-.2-.1-.3-.2-.3-.4v-.4c0 .1.1.1.3.1z"/>
        <path fill="#2AA7BB" d="M76.1 50.1c.2.1.4 0 .6-.2-.1.6-.4.8-1 .7-.1-.3.2-.4.4-.5z"/>
        <path fill="#4DB6C7" d="M61.3 61.8l-.3-.3c0-.2.1-.4.1-.6.3.2.6.5.2.9z"/>
        <path fill="#67C0CF" d="M53.4 9.9c-.3.3-.7.3-1 0h1z"/>
        <path fill="#5EBCCB" d="M78.9 39.5l.2.2c-.3.2-.5.5-.9.4 0-.1-.1-.2-.1-.3.3-.2.4-.4.8-.3z"/>
        <path fill="#97D4DD" d="M76.1 50.1c-.1.2-.3.3-.4.5-.2 0-.4-.1-.6-.1.3-.3.6-.5 1-.4z"/>
        <path fill="#0598B0" d="M71.5 13.5c-.4.6-.8.9-1.6.8-.3-.1-.6 0-.8 0-1.4.2-2.6 0-3.2-1.5.5-.2 1-.1 1.5 0 .4.5 1 .2 1.5.3.3-.1.5 0 .8 0 .6 0 1.1 0 1.6.1.1.1.2.2.2.3z"/>
        <path fill="#24A5B9" d="M40.399 11.2h1c.4-.1 1 .1 1.4-.3.5-.1 1.1-.5 1.6.1l.2.2c-.3.2-.5.5-.5.9-1-.2-1.8 1-2.9.5-.2-.3-.6-.3-.7-.6-.3-.2-.2-.5-.1-.8z"/>
        <path fill="#2EA9BD" d="M40.399 11.9c0 .4 1.1-.1.7.7-.2.1-.4.1-.7.2.5.7 2.3-.6 1.9 1.4h-.1c-.7 0-1.4 0-2.1.1-.4-.1-.8 0-1.1-.3.2-.5-.3-.6-.6-.8-.1-.1-.1-.2-.1-.3.3-.4.9-.2 1.2-.7.3-.3.6-.4.9-.3z"/>
        <path fill="#0A9BB1" d="M84.7 12.3c1 .1 2-.1 2.9.5-.5.9-1.5.1-2.1.7-.8-.3-1.8-.1-2.6-.5.3-.4.6-.5 1-.7.4-.1.6-.1.8 0z"/>
        <path fill="#099AB1" d="M71.5 16.6c-.7 0-1.4.1-2 .1-.5 0-1-.2-1.1-.8.1-.3.3-.4.6-.5h.3c.7.4 1.5.8 2.4.7 0 .2-.1.3-.2.5z"/>
        <path fill="#0498AF" d="M85.6 13.5c.1-.4.3-.7.8-.5.4.2.8 0 1.2-.2.2.1.3.1.5.2-.1.8-.5 1.1-1.3.8-.3-.2-.8-.2-1.2-.3z"/>
        <path fill="#5BBBCB" d="M75.3 11.1h.7c.2.3.4.4.7.6.1.1.1.2.1.3-.9.2-1.7 0-2.6-.2-.3-.1-.8 0-.8-.5 0-.2.3-.2.5-.2.5.1.9.2 1.4 0z"/>
        <path fill="#5CBCCB" d="M61.1 65.1c-.5-.2-.7.1-1 .3.2-.8 1-1.1 1.4-1.7l1.2-1.2c0 .5-.2.8-.5 1.2-.7.2-.6.9-1.1 1.4z"/>
        <path fill="#0E9CB3" d="M60.5 10.4c.3 0 .6.1.9.1-1.3.6-2.6.5-4 .5.9-.7 2.1-.3 3.1-.6zM71.5 16.6c-.1-.2 0-.4.2-.5.7 0 1.5-.5 2.2-.2.2 0 .3.1.3.3-.9.2-1.8.5-2.7.4z"/>
        <path fill="#19A1B6" d="M43.999 12.1c.1-.5-.7-.1-.5-.6.2-.5.7-.1 1.1-.3.2-.1.5-.1.7 0 .4.1.5.3.3.7-.6.1-1.1.4-1.6.2z"/>
        <path fill="#17A0B5" d="M83.999 12.3c-.2.4-.6.7-1 .7-.6-.1-1.1-.2-1.7-.3.9-.4 1.8-.6 2.7-.4z"/>
        <path fill="#72C5D2" d="M66 57.8c-.2.3-.2.5 0 .8-.6-.2-1.2-.5-1.7-.7-.3-.1-.5-.3-.2-.6.4.1.8.1 1.2.2.2.1.5.2.7.3z"/>
        <path fill="#0799B0" d="M71.5 13.5l-.2-.2c-.1-.1 0-.2 0-.3.8-.2 1.6.1 2.5.2-.8.8-1.6-.1-2.3.3z"/>
        <path fill="#27A6BA" d="M45.5 18.8c-.9.9-1.2.8-1.5-.2.6-.8 1 .2 1.5.2z"/>
        <path fill="#099AB1" d="M67.4 15.9h-.3c-.3-.3-1.1-.1-.9-.7.1-.5.8-.4 1.2-.3.1 0 .2 0 .2.1 0 .3-.2.6-.2.9z"/>
        <path fill="#52B8C8" d="M67.4 15.9c-.3-.4-.1-.6.2-.8.6-.1 1.2-.1 1.6.5-.2.1-.5.2-.7.3-.5-.1-.8-.1-1.1 0z"/>
        <path fill="#2EA9BD" d="M65 10.4c.4-.1.8-.1 1.2-.2.6.2 1.2-.1 1.7.3-1 .1-2 .4-2.9-.1z"/>
        <path fill="#159EB4" d="M71.3 13v.3c-.6.1-1.1.1-1.7 0-.1-.1-.1-.2 0-.4.6-.1 1.1.1 1.7.1z"/>
        <path fill="#75C6D3" d="M76.8 11.9l-.2-.2c0-.2.1-.3.3-.3.1 0 .1-.1.2-.1.5.1 1.2 0 1.2.8l-.2.2c-.4-.2-.8-.3-1.3-.4z"/>
        <path fill="#1DA3B8" d="M74.2 16.2l-.3-.3c.6-.1 1.1-.1 1.7 0 .1.1.1.2 0 .4-.4.1-.9.1-1.4-.1z"/>
        <path fill="#47B3C4" d="M73.9 11.1c-.7.6.4.4.3.7-.4.2-.8-.1-1.2-.2 0-.4.1-.7.5-.9.2.1.3.3.4.4z"/>
        <path fill="#0598B0" d="M69.099 15.5c-.5-.4-1.1-.2-1.6-.5l-.2-.2c.7-.2 1.4-.1 1.9.5 0 .1 0 .2-.1.2z"/>
        <path fill="#2BA8BC" d="M64.099 57.3c-.1.2 0 .4.2.6-.6-.1-1-.7-2-.7.8-.4 1.2.1 1.7 0l.1.1z"/>
        <path fill="#1CA2B7" d="M61.7 10.5l.2-.2h1.7c-.6.6-1.3.4-1.9.2z"/>
        <path fill="#24A5BA" d="M45.5 11.9c-.1-.2-.2-.5-.3-.7.4.1.8.1 1.2.2v.4c-.3 0-.6.1-.9.1z"/>
        <path fill="#7FCAD6" d="M60.7 59.7V59c.6 0 .9.2.6.8-.1 0-.1.1-.2.2-.3.1-.4-.1-.4-.3z"/>
        <path fill="#159FB5" d="M68.9 13.3c-.5-.3-1.3.3-1.5-.5.4.1.8.1 1.2.2.2 0 .3.1.3.3z"/>
        <path fill="#27A7BA" d="M75.6 16.2v-.4c.3-.1.7-.1 1 0 .1.1.1.2 0 .4-.3.1-.6.2-1 0z"/>
        <path fill="#25A5BA" d="M68.9 13.3l-.3-.3c.3-.1.7-.1 1 0v.4c-.2-.1-.5-.1-.7-.1z"/>
        <path fill="#30AABD" d="M76.6 16.2v-.4h.7c.2.1.2.2 0 .4h-.7z"/>
        <path fill="#80CBD7" d="M52.1 10.5c.1-.1.1-.1.2-.1.2.1.5.2.7.4-.1.1-.2.2-.4.3-.2-.1-.5-.2-.7-.3 0-.1 0-.1.1-.2 0-.1 0-.1.1-.1z"/>
        <path fill="#169FB5" d="M77.299 16.2v-.4c.3-.1.5-.1.8 0-.1.4-.4.4-.8.4z"/>
        <path fill="#119DB3" d="M70.299 15.5c.5-.2.7-.2 1.1 0-.4.2-.6.1-1.1 0z"/>
        <path fill="#28A7BB" d="M63.2 60.9c.1-.2.1-.3.2-.3h.3c0 .1-.1.2-.1.3h-.4z"/>
        <path fill="#5CBCCB" d="M50 10.6c.3-.3.7-.3 1 0-.3.2-.7.5-1 0z"/>
        <path fill="#63BFCE" d="M52.1 10.5l-.2.2c-.3.1-.6.1-.9-.2.2-.1.5-.2.7-.3.1.1.2.2.4.3z"/>
        <path fill="#ABDCE4" d="M78.4 12.1c-.2-.6-1-.2-1.2-.8v-.4c.5.1.9.1 1.4 0 .4.2 1-.1 1.4.3 0 .5-.5.4-.7.7-.4.1-.7.1-.9.2z"/>
        <path fill="#85CDD8" d="M80.3 11.6c.2-.1.4-.2.7-.3.2.2.2.5 0 .7-.3.1-.7.1-1 0 0-.3.1-.4.3-.4z"/>
        <path fill="#1DA2B7" d="M88 12.5c-.1-.1-.3-.1-.5-.2.4-.3.8-.3 1.1-.1.1.1-.2.2-.3.3H88z"/>
        <path fill="#A9DBE3" d="M40.4 14.4c-.1-.1-.1-.2-.2-.3.7-.1 1.4-.3 2.1.1-.6.4-1.3.2-1.9.2z"/>
        <path fill="#109DB3" d="M40.4 11.9c-.2.1-.5.2-.7.3-1.4.3-2.8.3-4.2 0-.1 0-.2-.1-.3-.1-.2 0-.3-.1-.5-.2-.3-.1-.6-.2-.6-.6 0-.3.3-.2.5-.2.3-.1.7-.2.4-.7.9-.6 1.7-.1 2.6.2.5 0 1-.1 1.5-.1 0 1.2.6 1.1 1.4.7 0 .3 0 .5-.1.7z"/>
        <path fill="#2BA8BC" d="M38.499 12.8l.2.2c-.3.9-1.2.3-1.7.7-.6 0-1.2 0-1.7-.3V13c.2-.2.4-.3.6-.3.8 0 1.7-.6 2.6.1z"/>
        <path fill="#37ADBF" d="M36.9 13.6c.4-.7 1.2-.2 1.7-.7.3.4.8-.1 1.1.2 0 .4-.6.2-.6.6H37l-.1-.1z"/>
        <path fill="#21A4B9" d="M34.5 11.2c-.8.6.4.4.3.7-.3.5-.6.4-.8-.1-.1-.3-.6-.4-.4-.7.2-.3.6-.1.9.1z"/>
        <path fill="#8FD1DB" d="M34 11.8c.3.2.5.3.8.1h.3c0 1.2-.7.5-1.2.5-.1 0-.1-.1-.2-.1v-.4c.2 0 .3-.1.3-.1z"/>
        <path fill="#67C0CF" d="M57.4 10c.3-.1.6-.1.9-.2 0 .7-.6.5-1 .7-.1-.2 0-.3.1-.5z"/>
        <path fill="#79C8D4" d="M57.4 10c.1.2 0 .4-.2.5-.2.1-.4 0-.5-.1l-.2-.2.2-.2h.7z"/>
        <path fill="#84CCD7" d="M44.3 11.1c-.5 0-1-.1-1.6-.1.3-.5.9-.7 1.4-.7.3.2.4.5.2.8z"/>
        <path fill="#97D5DE" d="M77 11.4l-.3.3c-.4 0-.8-.1-.7-.7.4 0 .7.2 1 .4z"/>
        <path fill="#47B3C4" d="M75.3 11.1c-.5.5-.9.3-1.4 0 .2-.1.3-.1.5-.2.3.1.6.1.9.2z"/>
        <path fill="#51B7C8" d="M34 12.4c.4-.1 1 .2 1.2-.5l.2.2c.3.1.7.3.3.7-.2.1-.3.2-.5.2-.4-.2-.9-.2-1.2-.6z"/>
        <path fill="#37ADBF" d="M35.7 12.8c.1-.3-.2-.5-.3-.7 1.4.1 2.9.1 4.3.2-.1.8-.8.4-1.2.5-.9-.3-1.8.4-2.8 0z"/>
        <path fill="#A8D553" d="M14.2 1.7c.8.8 1.1 1.8 1.2 2.8.6 2.4.5 4.7.5 7.1v.1c-.4 4.3-1.2 8.6-2.9 12.7-.2.4-.2.8-.3 1.2-.3.5-.5 1.1-.8 1.6h.1l-.1.1c-.6 1-.7 2.3-1.5 3.2-.3.6-.5 1.3-1 1.7l-.1.1c-.3.3-.3.4-.3.6 0 .2.1.4 0 .5-.1.4-.6.5-.6.9 0 .6-.3 1-.7 1.4-.1.1-.2.2-.2.3-.1.1-.2.3-.3.4-.3.4-.6.9-1.2 1-.1 0-.1 0-.2.1-.1 0-.1-.1-.1-.2V37l.3-.9V36s0-.1.1-.2l.1-.1.1-.1c.3-.3.6-.6.8-1v-.1-.1c.1-.2.2-.4.3-.5 0-.1.1-.3.1-.4-.1 0-.2 0-.3.1-.4.2-.6.5-.8.8l-.2.2c.1 0-.1.2-.2.4v.1l-.2.2-.1.1s0 .1-.1.1c-.1.1-.1.1-.1.2s-.1.1-.1.2c0 0 0 .1-.1.1 0 .1-.1.2-.1.2-.1.2-.2.3-.2.5v.1c0 .3.1.6 0 1v.8c-.2 1-.8 1.9-1.2 2.9-.2.1-.3.3-.5.4-1.2 1.3-1.8 1.4-2.6.7-1.2-1.1-1.2-1.7-.1-3 .4-.4.5-.6.7-.8l.2-.2c2.6-3.5 4.8-7.2 6.6-11.2 1.7-3.8 3.1-7.8 4.1-11.9.3-1 .4-2.1.2-3.2.3-2 .4-3.9.1-5.8 0-.3-.1-.6-.1-.8-.1-.8-.3-1.6-.5-2.4.1-.3.2-.3.3-.3.2 0 .4.1.6 0 .1 0 .3-.1.3-.4 0-.2.3 0 .5.2.1 0 .1.1.2.1h.1c.1 0 .1-.1.1-.1v-.2c0-.3-.2-.5 0-.7.1-.2.1-.2.2-.2 0 0-.1 0 0 0z"/>
        <path fill="#A9D655" d="M11.4 46h.2l.1.1v.1c0 .1 0 .2.1.2v.2c-.1.2-.2.3-.3.4l-.1.1-.7.7c0 .1-.1.1-.1.2v.1c.1 0 .2 0 .3-.1l.1-.1c.1-.1.1-.2.2-.2.2-.2.3-.5.5-.7l.2-.2c.2-.2.5-.4.8-.4H13c.1.1.2.1.3.1.2 0 .3 0 .5.1h.1c.1 0 .2.1.3.1.1 0 .1.1.2.2-1.7 2.1-3.7 4-6 5.4-.2.2-.4.4-.7.3h-.1c-.1-.1-.1-.1-.1-.2v-.2c-.2-.1-.4-.1-.6 0 0 0-.1 0-.1.1-.1.1-.2.1-.3.2 0 .1 0 .2-.1.3 0 .1-.1.2-.1.2-.3.1-.5 0-.7-.1-.4-.3-.2-.7-.2-1.1-.1-.8.2-1.3.8-1.8.2-.1.3-.3.5-.4.4-.3.7-.6 1.1-1 .9-.9 1.9-1.7 3.1-2.1-.1-.1.1-.4.5-.5z"/>
        <path fill="#C0E184" d="M11.7 45.4c.1 0 .1 0 0 0l.1.1c0 .3 0 .5-.3.5h-.1c-.2.1-.3.3-.5.4-.1.1-.2.2-.3.2 0-.6.7-.8 1.1-1.2zM11.9 44.8c.3 0 .6.1.8.1v.7s0 .1-.1.1c-.1.1-.2.1-.4.1-.2-.1-.2-.2-.3-.3h-.1c0-.3 0-.5.1-.7z"/>
        <path fill="#A8D553" d="M23.4 0c.1 0 .3 0 .4.1 1 .3 1.4 1.2 2 2v.1c.9 4.3 1.3 8.7 1.1 13.1 0 .1 0 .2-.1.3-.1.9.1 1.8-.3 2.7-.1.1-.1.2-.3.3-.1.1-.3.1-.4 0-.5-.3-.4-.7-.3-1.2-.1.6-.1 1.3-.3 1.9V19.6c-.1.4-.4.8-.5 1.3 0 .1-.1.1-.1.2v.1c0 .1 0 .1-.1.2 0 .1-.1.2-.1.3 0 .1-.1.2-.1.3 0 .1-.1.2-.2.3 0 .1-.1.1-.1.2-.1.1-.1.2-.2.3-.2.4-.3.9-.7 1.1h-.2c-.1 0-.1-.1-.1-.2.4-3.3.9-6.5 1.6-9.7v-.2c0-.2 0-.3.1-.5v-.2c.1-.4-.1-.8-.1-1.2v-.1-.1-.7c.1-.3-.1-.5-.2-.7-.2-.3-.4-.5-.4-.9 0-2.3-.8-4.4-1.5-6.5C21.7.8 22 .1 23.4 0z"/>
        <path fill="#BADE77" d="M6.3 52.4c.1 0 .1 0 .2-.1H7.1c.1 0 .2 0 .3.1h.1c.1.1.3.1.4.1.2 0 .3-.1.4-.1-.5.8-1.2 1.2-2.2.7v-.2-.3l.2-.2z"/>
        <path fill="#CBE699" d="M12.6 46h.3l.3.6c.1.1.3.2.5.1h.1c.1-.1.3-.2.4-.3.2-.2.5-.4.9 0-.2.2-.5.4-.7.7-.2-.1-.3-.1-.4-.1-.4 0-.9.3-1.1-.4-.1 0-.2 0-.3-.1 0 0-.1 0-.1-.1l-.1-.1c.1-.1.1-.3.2-.3z"/>
        <path fill="#B5DB6D" d="M5.3 52c.1.4.1.7.2 1.1-.6-.3-.6-.7-.2-1.1z"/>
        <path fill="#B2DA67" d="M13.2 1.4c.1 0 .2.1.3.1.2.1.3.4.3.6 0 .2.1.4.1.6V3c0 .1 0 .2-.1.3-.4 0-.6-.9-1.1-.1 0 0-.1.1-.2 0-.2 0-.5-.1-.7-.1.2 0 .3-.1.4-.1.5-.3.7-.8.7-1.4-.1-.3.2-.3.3-.2zM14 1.2c.9.9 1.5 2 1.4 3.3-.4-.8-.4-1.9-1.1-2.6-.1 0-.1-.1-.2-.1l-.3-.3c0-.1 0-.2.2-.3z"/>
        <path fill="#B5DB6C" d="M23.7 9c0 .2.2.3.3.4.4.3.9.5.5 1.2 0 .1-.1.2-.2.2H24c-.3-.6-.3-1.2-.3-1.8z"/>
        <path fill="#C9E594" d="M23.8 11.5c.1 0 .2-.1.3-.1.1 0 .1-.1.2-.1h.3c-.1.6.5 1.1 0 1.7-.1 0-.1 0-.2-.1-.1 0-.1-.1-.1-.1-.1 0-.1-.1-.1-.2v-.1c-.1-.1-.1-.3-.2-.4 0-.1-.1-.1-.1-.2-.2-.1-.3-.3-.1-.4z"/>
        <path fill="#BADD76" d="M24 10.8l.2-.1h.1c.1 0 .1-.1.2-.1 0 .3.1.5.1.8-.1 0-.2.1-.3.1-.1 0-.2.1-.2.1-.1 0-.1 0-.2-.1 0-.2 0-.5.1-.7z"/>
        <path fill="#A7D553" d="M23.9 30.9c-.4 2.6-1.7 4.9-2.8 7.2-.4.8-.8 1.7-1.8 2-.2.4-.4.7-.6 1.1-.3.5-.6 1-1 1.4-.4.3-.7.2-.6-.4 0-.1.1-.2.1-.3.2-.3.5-.6.6-1 .1-.3.2-.5.3-.7.1-.2.2-.4.4-.6.4-.6.2-1.1 0-1.7.7-2.9 1.4-5.7 2.5-8.4.3-.6.5-1.2.8-1.8 1-.7 1.5-.5 2.2 1.1-.1.7-.1 1.4-.1 2.1z"/>
        <path fill="#84C867" d="M18.4 38c1.3.5.6 1.2.1 1.9-.4.1-.7.3-1 .5-.2.1-.3.1-.5 0 .1-.7.6-1.2.9-1.8 0-.2 0-.4.3-.4.1-.2.1-.2.2-.2z"/>
        <path fill="#91CC5F" d="M22.6 26c-.1.5 0 .9.5 1.1.4.2.6.6.8 1 .1.2.1.3.1.5 0 .1 0 .2-.1.3-.1.1-.2.1-.3 0-.4-.8-.8-1.5-2-1.2-.3-.7.3-1.3.5-1.9.3 0 .4.1.5.2z"/>
        <path fill="#9DD159" d="M9 33.5c-.3-.6-.7-1.1.3-1.4.6-.2.4-1.2 1.1-1.5-.2 1.1-1 1.9-1.4 2.9zM5.6 37.4c.7.2.9-.5 1.2-.8.3-.3.4-.6.8-.7 0 .1-.1.2-.1.4 0 .1 0 .2-.1.3-.6.7-1.1 1.4-1.9 1.8-.2-.1-.3-.2-.4-.4v-.4c.1-.3.3-.3.5-.2z"/>
        <path fill="#9FD158" d="M22.6 26c-.1 0-.2-.1-.4-.1.1-.4-.2-.8.4-1 .2.3.2.7 0 1.1z"/>
        <path fill="#7DC56A" d="M5.2 37.8c.1.2.2.3.2.5-.1.1-.3.2-.4.3-.2-.2-.7-.2-.4-.7.3-.1.5-.2.6-.1z"/>
        <path fill="#9DD159" d="M8.4 34.4c0-.5.3-.7.6-1 0 .5-.4.7-.6 1zM6.1 34.3c.4-.7 1-1.2 1.6-1.6.2-.1.4-.2.5 0 0 .1-.1.2-.2.4-.5.3-.4.9-.7 1.3-.1.1-.2.1-.3.2-.3-.1-.6-.1-.9-.3z"/>
        <path fill="#80C669" d="M7 34.4c.1 0 .1-.1.2-.1.2-.2.3-.1.3.1-.3.5-.5 1.1-1 1.3-.4-.2-.3-.5-.2-.8.1-.3.3-.5.7-.5z"/>
        <path fill="#85C866" d="M7.5 34.4c-.1 0-.2-.1-.3-.1.2-.5-.1-1.2.8-1.2-.1.5-.2 1-.5 1.3z"/>
        <path fill="#7EC56B" d="M7 34.4l-.6.6c-.2.2-.4.1-.6 0 .1-.2.2-.4.2-.7.4-.1.7-.3 1 .1z"/>
        <path fill="#CDE79C" d="M12.5 46.4c.1 0 .2.1.4.1-.8.3-1.2 1-1.7 1.6-.3 0-.8.3-.8-.4.3-.2.5-.4.8-.7.4 0 .5-.3.7-.5.2-.1.4-.2.6-.1z"/>
        <path fill="#B7DC71" d="M10.4 47.8c.1.4.5.3.8.4-.3.4-.6.7-1.2.7 0-.5.2-.8.4-1.1z"/>
        <path fill="#B5DB6D" d="M6.6 52.4c-.1.1-.3.1-.4.2.3-.4 1.2-1 1.5-.9.3.1.1.3 0 .5-.4.2-.8.4-1.1.2z"/>
        <path fill="#B6DC6F" d="M12.3 45.8c-.1.3-.3.4-.5.6-.1-.1-.1-.2-.2-.3l.3-.6c.2-.1.3.1.4.3z"/>
        <path fill="#95CE5D" d="M25.1 19.2c0-.9 0-1.8.5-2.5 1.1.1-.9 2 1.1 1.6.1.5-.1 1-.5 1.3-.6.5-.9 0-1.1-.4z"/>
        <path fill="#94CD5E" d="M25.1 19.2c.4 0 .6.6 1.1.3-.1.2-.1.4-.2.6-.3.8-1.1.7-1.7.9.1-.7.5-1.2.8-1.8z"/>
        <path fill="#90CC60" d="M25.8 23.9c.1.9-.1 1.7-.5 2.5-.2 0-.3 0-.5-.1-.3-.7-.1-1.3.1-1.9.1-.2.2-.4.5-.5.1-.1.3-.1.4 0z"/>
        <path fill="#82C767" d="M24.9 26.2c.1.1.3.1.4.2 0 .8-.4 1.6-.6 2.4-.2.2-.3.1-.5 0-.2-1-.1-1.9.7-2.6z"/>
        <path fill="#94CD5E" d="M16.6 42.8c0-.1.1-.2.1-.3 0-.3.2-.3.4-.2 0 .3.1.5.4.3l.1.1c0 .4-.6.5-.4.9v.3c-.1.1-.3.1-.4.2-.3.3-.6.7-1 .2.1-.4.5-.7.6-1.1.1-.2.2-.3.2-.4z"/>
        <path fill="#8DCB61" d="M25.8 23.9c-.1 0-.2.1-.3.1-.4-.2-.3-.6-.3-.9.1-.4.2-.8.5-1.1.3-.2.5-.1.6.2-.2.6-.2 1.2-.5 1.7z"/>
        <path fill="#94CD5E" d="M17.6 42.6c.3-.4.5-1 1.1-1.3-.1.4-.2.8-.6 1.1-.1.1-.3.2-.5.2z"/>
        <path fill="#84C875" d="M17.6 42.6c.2-.1.3-.1.5-.2 0 .6-.6.8-.8 1.2-.3-.5.3-.7.3-1z"/>
        <path fill="#94CD5E" d="M18.7 41.3c0-.5.1-.9.6-1.1-.2.4-.2.8-.6 1.1z"/>
        <path fill="#84C875" d="M15.9 44.2c.4.2.7-.1 1-.2-.4.5-.9.8-1.5.8.2-.2.3-.4.5-.6z"/>
        <path fill="#84C875" d="M16.5 43.1c.2.6-.2.8-.6 1.1-.2-.5.2-.8.6-1.1z"/>
        <path fill="#83C767" d="M18.2 40.3c-.2-.1-.5-.2-.7-.2.3-.4.6-.4 1-.2 0 .2-.1.3-.3.4z"/>
    </g>
    <defs>
        <clipPath id="clip0">
            <path fill="#fff" d="M0 0H97.8V66.9H0z"/>
        </clipPath>
    </defs>
</svg>
