<svg xmlns="http://www.w3.org/2000/svg" width="131" height="65" fill="none" viewBox="0 0 131 65">
    <path fill="#F9E3E4" d="M129.898 39.5c-.6-.6-.6-1.4-.9-2.1-.8-1.8-1.9-3.3-2.6-5.1-.9-1.2-1.5-2.7-2.3-3.9-2.2-3.4-5.4-5.9-8.8-8.2-.8-.5-1.6-1-2.6-1.1-1.7-.8-3.5-1.3-5.3-1.7-1.6-.3-3.2-.8-5-.7-.6 0-1.5.1-1.9-.7-.6-1.1-1.4-1.9-2-2.9-.3-.6-.5-1.3-1.2-1.6-.2-.1-.4-.2-.5-.2-.5-.3-1-.7-1.5-1.1-.2-.1-.4-.3-.6-.4-.2-.1-.4-.2-.7-.1-.6.3-.4.8-.4 1.3 0 .3-.1.5-.1.8V12.1c.1.3.3.5.5.8.8.9 1.7 1.8 2.5 2.7.5.6.6 1.1-.4 1.4-.7.2-1.3.4-1.9.7-.1 0-.1.1-.2.1l-.1.1c-1 .6-2.3.8-3.3 1.5 0 0-.1 0-.1.1v.2c0 .2.3.2.3.4v.1c-.1 0-.1.1-.2.1 0 0-.1.1-.2.1-1.2-.1-1.9.5-2.5 1.3-.1.1-.2.2-.2.3-.2.4-.6.8-.9 1.2v.2c-.1.1-.1.2-.2.3-.1.1-.1.2-.1.2-.1.1-.1.2-.2.4-.1.1-.2.3-.3.4v-.5V23.9c0-.1-.1-.3-.1-.4-.1-.2-.3-.3-.7-.1-3 3.3-3.5 7-1.5 11 .3.5.9.9 1.2 1.4 1.1 1.9 2.8 2.6 4.8 3.1 1.9 0 3.8-.2 5.5-1.2 1.5-.8 2.2-2.1 3.1-3.4v-.1c.3-.6.7-1.2 1.2-1.7 1.8-2 2.4-4.3 2.7-6.8 0-.4-.1-.8-.4-.8-.9-.1-.8-.5-.5-.8.1-.1.1-.2.2-.3.1 0 .1-.1.2-.1s.1 0 .2-.1c.1 0 .2-.1.3-.1.6-.4.4-1 .4-1.6-.1-.7.2-1.1 1-1 .8.1 1.6 0 2.4.2 1.8.8 3.6 1.5 5.4 2.2 3.7 1.5 6.8 3.9 9.3 7 .3.6.9 1 1.1 1.7v.2c0 .4.3.6.5.8 1.6 2.3 3.1 4.7 4 7.3.4 1.3.7 2.7 1.4 3.9.3.8.4 1.8 1.2 2.3 1.7-2.3 1.6-4.6 1-7zm-36.7-6.4c-1 .8-2 1.2-3.1.8-1.4-.5-2.6-1.5-2.8-3.2-.2-2.9.9-5.2 3.1-7.1 1.8-1.6 4-2.5 6.5-2.8.3 0 .7 0 .9-.3.8.2 1.2.5.7 1.4-.2.3-.1.7-.2 1.1-.2 1.7-.2 3.3-1.2 4.8-.4.7-.8 1.4-1.2 2.2-.9 1-1.7 2.2-2.7 3.1z"/>
    <path fill="#F9E3E4" d="M112.799 19.1c-1.9-.5-3.6-1.3-5.6-1.6-1.6-.2-3.1-.7-4.7-.6-2 .2-2.6-1.5-3.4-2.7-.6-.8-1-1.8-1.8-2.5-.6-.5-1.2-1-1.9-1.4-.3-.2-.5-.4-.6-.6-.1-.1-.1-.3-.1-.4v-.1c0-.1.1-.2.1-.2 2.2 1 3.3 3 4.6 4.9.8 1.1 1.1 2.8 2.9 2.7 3.4-.1 6.5.9 9.6 2 .4.1.7.2.9.5zM89.099 7.5v.2s0 .1-.1.1c-.8.3-1.5-.1-2-.6-1.5-1.8-3.6-1.9-5.7-2-1.2 0-2.4.3-3.5.6-.9.2-1.5.7-1.8 1.5-.3.7 0 1.4.6 1.7.7.4.6-.4.9-.7.4-.4.8-.7 1.2-.1 0 0 0 .1-.1.1-.3.5-.7.7-.7 1.3-.1.7-.6 1-1.3.6-2.2-1.5-2.2-3.3.3-5 2.2-.7 4.4-1.1 6.7-.5.2.1.3.1.5.1.3 0 .7-.1 1 .1h.2c.4.2.7.3 1.1.5l.1.1c.5.5 1.1 1 1.7 1.3 0 0 .1.1.2.1s.1.1.2.1c.2.1.4.2.5.5 0 0 0-.1 0 0z"/>
    <path fill="#F9E3E4" d="M89.3 9.2c-.3.1-.5.2-.7 0-1.8-.9-3.8-.5-5.7-.7-1.4-.1-2.8.3-4.2.4-.7 0-.6.6-.7 1-.3.7-.7 1.2-1.4.3.6 0 1.1 0 1.1-.9 0-.5.3-.8.9-.9.8-.3 1.7-.3 2.5-.5 1.1-.1 2.1-.1 3.2-.2.3 0 .6-.1 1-.2.1 0 .1 0 .2-.1h.2c.9-.1 1.8.6 2.7.9h.1c.1 0 .2.1.3.1.1.1.2.1.2.2.1 0 .1.1.2.2.2.1.2.2.1.4zM102.298 25.4c-.3 3.3-1.8 6-4 8.5-.1.1-.1.1-.2.1 0 0-.1 0-.1-.1.2-.8.7-1.3 1.2-1.8 1.7-1.9 2.3-4.3 2.7-6.7 0-.3 0-.5-.3-.6-.4-.2-.3.3-.4.4-.2-.1-.3 0-.4 0-.2 0-.3-.2-.2-.4.4-.6-.1-1.4.4-2 .1.1.2.3.3.4l.1.1c0 .1.1.2.2.3.1.1.1.2.2.2.4.5.8 1 .5 1.6zM96.5 16.9c-.7.2-1.5.5-2.2.8-.1.1-.2.1-.4.1 0 0-.1 0-.1-.1.5-.7 1.4-.6 2.1-.9 1.3-.5.8-1.1.2-1.6-.8-.8-1.8-1.4-2.7-2.1-.2-.1-.3-.3-.4-.4-.1-.4-.4-.7-.4-1.1l.1-.1c.1-.1.2-.1.2-.1.2 0 .3.2.5.3h.1c.1.1.1.2.2.2 1.2 1.1 2.1 2.4 3.1 3.6.6.7.6 1.1-.3 1.4z"/>
    <path fill="#F9E3E4" d="M105.699 20.6c-1 .2-2.4-.5-3 .3-.5.6-.1 2-.2 3 0 .5.1 1.1-.3 1.5 0-.6-.2-1-.8-1.3-.1-.2-.2-.5-.1-.7 0-.1.1-.2.1-.3.1-.1.1-.2.2-.3.5-.5.5-1.1.5-1.7 0-.7.3-1.1 1-1 1 .1 1.9.1 2.6.5zM129.898 39.5c-.9-.5-.8-1.5-1.2-2.2-.7-1.3-1.2-2.6-2-3.9-.2-.4-.3-.7-.3-1.2 1.4 2.4 2.7 4.7 3.5 7.3zM89.6 38.6c-1.6-.1-3.1-.6-4.1-1.9-.6-.9-1.5-1.5-1.9-2.5.3.3.7.5.9.8 1.2 1.8 3 2.9 5.1 3.6zM93.3 9.2l-.1.1c-.9.1-1.7-.2-2.4-.7l-.1-.1v-.2s0-.1.1-.1c.1-.1.3-.2.4-.2.2 0 .3-.1.5-.1h.1c.2-.1.2-.3.3-.4.5.1 1.1.1 1.3.8 0 .2.2.6-.1.9zM90.798 20.3c-.2.1-.4.5-.6.4-1.4-.6-1.7.8-2.4 1.4-.1-.1-.1-.1-.1-.2-.1-.3.2-.5.3-.8.7-.8 1.5-1.6 2.5-2 .1 0 .1.1.1.1v.2l-.1.1v.1c0 .1 0 .2.1.2 0 0 .1.1.1.2v.1c0 .1 0 .2.1.2zM83.598 4.7c-2.3-.4-4.5.2-6.7.5 2.1-1.1 4.4-1.4 6.7-.5zM98.3 33.8c-.8 1.4-1.5 3-3.2 3.5 1.2-1 2.1-2.2 3-3.5h.2z"/>
    <path fill="#F9E3E4" d="M94.3 17.6c-1.1.9-2.5 1-3.7 1.7v-.1-.2c1-.8 2.2-1 3.3-1.5h.1c.1.1.2.1.3.1zM92.099 7.9c-.3.1-.6.1-.8 0-.3-.1-.6-.2-.8-.3h-.1-.1c-.2-.2-.5-.3-.5-.6v-.1c.1-.1.2-.2.3-.2.1-.1.3-.1.4-.1.4 0 .7.4 1.1.4.2.1.3.3.5.4 0 .2.2.3 0 .5zM94.799 8.9v.3h-.1c-.3.1-.6.1-.9.2-.2.1-.5.1-.4-.2v-.1c.1-.3-.3-.7 0-1 .5.2 1 .3 1.4.8zM121.698 31.6h-.2c-.3-.6-1-1-1-1.7.4.5 1.1.8 1.2 1.7zM85.9 24.1c-.1 0-.1 0 0 0-.1.1-.2.1-.3 0-.1-.4.1-.9-.5-1 .1-.4.4-.5.8-.5.3.4.1.7 0 1.1-.1.1-.1.3 0 .4zM90.6 6.4s-.1.1-.2.1c-.1.1-.3.1-.4.1-.2 0-.3.1-.4.3-.5.1-.7-.2-.9-.4l-.1-.1.1-.1c.3-.3.6-.1 1-.2.2.1.6 0 .9.3z"/>
    <path fill="#F9E3E4" d="M91.498 6.9c-.6.1-1.2-.6-1.8 0h-.2c.1-.7.6-.4 1-.5.4.1.8.1 1 .5zM85.1 4.9c-.5 0-1.1.2-1.5-.2.5 0 1-.2 1.5.2z"/>
    <path fill="#F9E3E4" d="M93.3 9.2c.1.1.3.2.4.1.3-1 .7-.3 1.1-.1.2.9 1 1 1.6 1.5.3.3.6.6.9 1-1-.3-1.7-1.1-2.5-1.6-.2-.1-.4-.4-.6-.2-.4.1-.4.3-.2.6.2.5-.1.9-.2 1.4h-.2c-.2-.4-.7-.6-.9-1 .5-.9-.3-.6-.7-.8-.4-.2-.8-.4-1.2-.7-.6-.3-1.3-.5-2-.7-.9-.6-1.8-.9-2.8-1.2-.2-.1-.4-.2-.6-.1-1.3 1-2.9.4-4.3.8-.8.2-1.6.5-2.5.2-.9-.6-1 .3-1.2.8-.1.6-.2.7-.8.4-1.3-.7-1.6-2.4-.1-3.6 1.9-1.4 8-1.7 10 .2.4.4.8.9 1.4 1.2.4.2.8.3 1.2.3.2 0 .4 0 .6.1.4.2.8.3 1.1.6.8.3 1.7.5 2.5.8zM99.198 21c-.4 3.2-.8 6.5-3.2 9 .4-.7.7-1.5 1.2-2.2.9-1.5 1-3.2 1.2-4.8 0-.4 0-.7.2-1.1.5-.8.1-1.2-.7-1.4.6-.6 1.3.2 1.3.5zM89 36.6c-.1.5-.4.5-.7.4-.4 0-.8-.2-.7-.6.1-.5.6-.1.9-.3.4-.1.6.2.5.5zM85.598 24.1h.3c.4.1.6-.4 1-.5-.1.7-.6 1.1-1.1 1.7-.3-.4-.2-.8-.2-1.2zM101.8 22.9c-.1.4-.2.8-.2 1.2-.4-.3-.5-.8-.5-1.2h.7zM90.299 19.9c-.3-.3 0-.4.2-.5.2.1.5.2.7.4.2.2.3.5-.2.3-.2-.1-.5.1-.7-.2zM86.1 36.1c.1-.6.4-.6.8-.3-.1.6-.5.4-.8.3z"/>
    <path fill="#F9E3E4" d="M86.1 36.1c.3 0 .6 0 .8-.3.2.1.4.3.2.4-.3.2-.7.2-1-.1zM90.299 19.9c.3 0 .6-.1.7.2-.1.1-.2.2-.3.2-.2.1-.4-.1-.4-.4zM89.1 7.4c.4.1.8.2 1.3.2.1.1 0 .2 0 .3-.2.1-.5.1-.7-.1-.2 0-.4 0-.5-.2-.1 0-.1-.1-.1-.2zM81.1 8.2c.5-.5 1.1-.2 1.6-.2.7-.1 1.4.1 2-.6.3-.4.9-.1 1.4 0 1 .3 2 .5 2.7 1.4-2-1.4-4.2-.6-6.4-.6h-1.3zM88.799 8.7c.8 0 1.5.1 2.2.5-.2.5-.6.4-1.1.3-.2-.1-.5-.2-.7-.3-.1-.2-.2-.4-.4-.5z"/>
    <path fill="#F9E3E4" d="M89.998 9.5c.4-.1.7-.2 1.1-.3.2.4.6.5 1 .7.4.2.6.6.7 1 .2.3.8.4.7 1-.3-.2-.5-.3-.8-.5-.8-.5-1.2-1.4-2.2-1.5-.1-.1-.3-.3-.5-.4zM90.3 7.9c.2.1.3.2.5.2v.3c-.5 0-.9-.1-1.2-.5h.7z"/>
    <path fill="#F9E3E4" d="M92.8 10.9c-.2-.3-.5-.7-.7-1h.2c.4.4.9-.6 1.2 0 .2.6-.8.4-.7 1z"/>
    <path fill="#FE7214" d="M64.6 29.6c-.9-1.9-2.7-.3-3.8.2-4.6 2-9.1 4.1-13.4 6.8-4.3 2.7-4.4-2.4-6-4.1-2-2 .1-3 1.7-3.9 5.4-2.9 10.9-5.8 16.4-8.7 1.4-.8 3.5-1.6 2.4-3.5-1-1.8-2.9-.7-4.3 0-5.2 2.7-10.6 5-15.6 8.1-3.2 1.9-4.5 1.3-5.5-1.9-.3-.9-.8-1.8-1.4-2.6-2.2-2.7-1.2-4.1 1.6-5.4 6.9-3 13.7-6.2 20.4-9.4 2.1-1 4.6-2 3.9-5.2h-3.9C48.6 4.2 40.3 8.2 32 12.3c-2.3 1.2-2.3-.8-3.1-1.8-1.7-2-2.2-6.9-4.8-5.6-2.8 1.4.5 4.6 1.6 6.9 1.1 2.3.7 3.6-1.6 4.5-1.1.4-2.2.8-3.1 1.5-3.1 2.3-4.6.8-6.3-1.9-1.1-1.7-1.2-5.9-3.9-4.5-3.1 1.6.2 4.3 1.2 6.1 1.7 2.9 1.8 4.3-1.7 5.7-3.6 1.4-6.9 3.6-10.3 5.4v2c2.3 1.5 4.4.3 6.4-.7 2.2-1 4.3-2.3 6.5-3.4.9-.5 2.2-1.5 3 0 1.5 2.9 3.5 5.8 3.9 8.9.2 2.3-3.5 2.8-5.2 4.5-1.3 1.3-4.9 1.3-3.8 3.5 1.4 2.8 3.9.1 5.9-.5.1 0 .3-.2.4-.3 3.7-3.3 5.6-1.8 7.9 2 3.2 5-1.4 5.6-3.5 7.7 0 .4 0 .8.1 1.1.1.3.3.6.5.8.4.3.9.3 1.7.2 3.5-2.6 5.7-1.6 7 2.4.5 1.5 1.3 3 2.2 4.4 1 1.6 1.8 4.2 4.2 3 2.8-1.5.7-3.6-.2-5.4-.6-1.2-1.2-2.3-1.9-3.4-3.4-5.9-3.3-5.9 2.6-8.8 3.6-1.8 5.8-1.7 6.8 2.7.4 1.7 1.3 3.3 2 5 .6 1.6 1.5 3.3 3.5 2.3 1.7-.8 1.9-2.6 1.2-4.2-1.2-2.7-2.4-5.4-4-7.8-1.3-2-1-3 1.1-4.1C53 38.1 57.5 35.6 62 33c1.3-.9 3.3-1.8 2.6-3.4zM30.7 46.1c-1.9-2.1-3.2-4.8-4.3-7.5-.4-1 7.6-6.4 9.3-5.8 3.1 1 3.2 4.4 4.5 6.9.2.6-8 6.4-9.5 6.4zm-2.1-26.9c3.5 1.5 3.7 5.7 5.5 8.3.1 1.3-7.3 6.5-9.3 5.9-3.9-1.1-3.7-5.5-5.6-8.3-.7-.9 7.6-6.7 9.4-5.9z"/>
    <path fill="#FE8330" d="M23.9 54.3c-.2.2-.4.6-.7.6-1.8.5-3.8 3.6-5.2 1.1-1.4-2.5 2.1-2.7 3.7-3.8.2.3.3.6.6.9l.6.6c.3.2.6.4 1 .6z"/>
</svg>
