<?xml version="1.0" encoding="UTF-8"?>
<svg width="1299px" height="22px" viewBox="0 0 1299 22" version="1.1" xmlns="http://www.w3.org/2000/svg" xmlns:xlink="http://www.w3.org/1999/xlink">
    <!-- Generator: Sketch 55.1 (78136) - https://sketchapp.com -->
    <title>Group 97</title>
    <desc>Created with Sketch.</desc>
    <g id="Page-1" stroke="none" stroke-width="1" fill="none" fill-rule="evenodd">
        <g id="Acquire-Video-Voice" transform="translate(-310.000000, -726.000000)">
            <g id="Group-97" transform="translate(310.000000, 726.000000)">
                <path d="M205.37587,17.955935 L205.25136,6.93622102 L208.61831,6.93622102 L208.61831,20.775428 L203.881753,20.775428 L200.516879,9.37046155 L200.394444,9.37046155 L200.516879,20.775428 L197.153041,20.775428 L197.153041,6.9319523 L202.13343,6.9319523 L205.372757,17.9516663 L205.37587,17.955935 Z M144.976212,8.34169878 L143.108566,21.0272828 L139.49571,21.0272828 L141.985904,7.05894687 L147.96652,7.05894687 L150.456714,21.0272828 L146.84282,21.0272828 L144.975174,8.34169878 L144.976212,8.34169878 Z M160.616706,17.7019459 L162.234295,7.06534996 L167.719985,7.06534996 L167.970042,21.0336859 L164.603092,21.0336859 L164.47962,8.47616363 L164.356148,8.47616363 L162.114973,21.0336859 L158.748023,21.0336859 L156.506848,8.47616363 L156.381301,8.47616363 L156.256791,21.0336859 L152.890879,21.0336859 L153.141973,7.06534996 L158.624551,7.06534996 L160.616706,17.7019459 Z M133.863721,17.0595027 C133.137414,15.2666382 128.364542,14.3702059 127.887255,11.4205168 C127.762099,10.7866778 127.762099,10.1334295 127.887255,9.49959048 C128.262859,7.1944789 130.251902,6.42504119 132.620699,6.42504119 C134.491457,6.42504119 137.107198,6.81029363 137.107198,9.88591011 L137.107198,10.9104041 L133.743361,10.9104041 L133.743361,9.88484293 C133.671194,9.25037085 133.115867,8.79391114 132.498264,8.86141607 C132.216226,8.79649249 131.920643,8.85652096 131.683763,9.02682917 C131.446722,9.1974303 131.290432,9.4627617 131.253167,9.75784836 L131.253167,10.5272861 C131.626696,12.0672287 136.612272,12.9625938 137.234821,15.9090813 C137.358926,16.6725087 137.358926,17.4518327 137.234821,18.2152601 C136.985802,20.5193045 134.868099,21.416804 132.500339,21.416804 C130.00807,21.416804 127.638235,20.3901756 127.638235,17.3145591 L127.638235,16.290065 L131.246942,16.290065 L131.246942,17.8278733 C131.277708,18.1692689 131.44029,18.4837184 131.698289,18.7008276 C131.956088,18.9174124 132.287782,19.0181825 132.618624,18.9804291 C133.202097,19.0802064 133.755809,18.6810761 133.863721,18.0829296 C133.986668,17.7535059 133.986668,17.3889264 133.863721,17.0595027 Z M177.482583,16.9303738 C176.860035,15.2548992 172.087163,14.3691387 171.629589,11.5496457 C171.505442,10.9157029 171.505442,10.2626623 171.629589,9.62871942 C172.004156,7.32254065 173.871802,6.55417012 176.239561,6.55417012 C178.108244,6.55417012 180.725023,7.06748432 180.725023,10.0139719 L180.725023,11.0384659 L177.361186,11.0384659 L177.361186,9.88377575 C177.252077,9.2711899 176.721083,8.83473124 176.116089,8.86034889 C175.833543,8.79421693 175.536984,8.85390324 175.299513,9.02469481 C175.062177,9.19564002 174.906447,9.46207714 174.870992,9.75784836 L174.870992,10.5262189 C175.249709,12.1920889 180.230097,12.9615266 180.852646,15.9080141 C180.977252,16.6713987 180.977252,17.4508084 180.852646,18.2141929 C180.474966,20.5182373 178.485924,21.4157368 176.117127,21.4157368 C173.624857,21.4157368 171.257098,20.5182373 171.257098,17.443688 L171.257098,16.4181268 L174.867879,16.4181268 L174.867879,17.8268061 C174.987972,18.4879915 175.588829,18.9379133 176.237486,18.8523673 C176.820298,18.949164 177.372173,18.5513577 177.482583,17.9548678 C177.603191,17.6246349 177.603191,17.2606067 177.482583,16.9303738 Z M188.843056,18.8534345 C189.44898,18.880858 189.981158,18.4429701 190.088153,17.8289405 L190.088153,6.93301948 L193.453028,6.93301948 L193.453028,17.8257389 C193.205046,20.386974 191.210816,21.2855407 188.717509,21.2855407 C186.224202,21.2855407 184.233084,20.3880412 183.984065,17.8257389 L183.984065,6.93301948 L187.347902,6.93301948 L187.347902,17.8257389 C187.598113,18.4470198 188.187162,18.8524659 188.840981,18.8534345 L188.843056,18.8534345 Z M216.779921,18.7243056 C217.428287,18.8109758 218.029354,18.3610246 218.148491,17.6998115 L218.148491,15.1385764 L216.779921,15.1385764 L216.779921,13.0885212 L221.514403,13.0885212 L221.514403,17.7019459 C221.265384,20.263181 219.146643,21.163882 216.779921,21.163882 C214.413199,21.163882 212.294459,20.2653153 212.04544,17.7019459 L212.04544,10.0129047 C212.294459,7.45166959 214.413199,6.55310294 216.779921,6.55310294 C219.146643,6.55310294 221.265384,7.45060241 221.514403,10.0129047 L221.514403,11.4226512 L218.148491,11.4226512 L218.148491,10.1420336 C218.028884,9.48100483 217.428344,9.03098002 216.779921,9.1164724 C216.144887,9.08363856 215.573793,9.51139494 215.409277,10.1431008 L215.409277,17.7019459 C215.558223,18.3439545 216.140334,18.7781499 216.779921,18.7243056 Z" id="Combined-Shape" fill="#6A7A8E"></path>
                <g id="Group-32" transform="translate(269.984315, 3.212521)" fill-rule="nonzero">
                    <path d="M40.713023,0.0869112691 C44.4900741,0.0742120434 47.8328881,2.61275334 48.9527539,6.34418354 C50.0726196,10.0756137 48.7072906,14.1261185 45.5873426,16.3283076 C42.4673947,18.5304967 38.3234471,18.3686685 35.3728907,15.929416 C32.2351774,18.4644694 27.8320224,18.4644694 24.6943091,15.929416 C21.5565959,18.4644694 17.1534408,18.4644694 14.0157276,15.929416 C10.8780143,18.4644694 6.47485928,18.4644694 3.337146,15.929416 C0.88865139,13.9699069 -0.352541652,10.800143 0.0874603861,7.63035546 C0.527462424,4.46056792 2.58072729,1.78014266 5.46330853,0.61247901 C8.34588976,-0.555184638 11.6127435,-0.0298101942 14.0165691,1.98801184 C17.1542823,-0.547041577 21.5574374,-0.547041577 24.6951506,1.98801184 C27.8328639,-0.547041577 32.2360189,-0.547041577 35.3737322,1.98801184 C36.8886969,0.737088038 38.7747058,0.0655582793 40.713023,0.0869112691 Z M6.0012036,15.3726616 C8.18482012,16.3530548 10.7088176,16.0483243 12.6154786,14.5749689 C10.1640586,11.3291676 10.1640586,6.77366977 12.6154786,3.52786848 C10.2813875,1.71642589 7.07148608,1.71642589 4.73739499,3.52786848 C2.81303155,4.97727283 1.78670467,7.3819575 2.04784869,9.82947753 C2.30899271,12.2769976 3.81758708,14.3922684 6.0012036,15.3726616 Z M23.2940601,14.5740984 L23.2940601,14.5749689 C20.8426402,11.3291676 20.8426402,6.77366977 23.2940601,3.52786848 C20.9599691,1.71642589 17.7500677,1.71642589 15.4159766,3.52786848 C17.8669583,6.77350131 17.8669583,11.3284656 15.4159766,14.5740984 C17.7500677,16.385541 20.9599691,16.385541 23.2940601,14.5740984 Z M24.6943091,13.1256408 C26.445462,10.7111903 26.445462,7.39077657 24.6943091,4.97632605 C22.9431563,7.39077657 22.9431563,10.7111903 24.6943091,13.1256408 Z" id="Combined-Shape" fill="#637178"></path>
                    <path d="M14.0157276,13.1256408 C12.2645747,10.7111903 12.2645747,7.39077657 14.0157276,4.97632605 C15.7668804,7.39077657 15.7668804,10.7111903 14.0157276,13.1256408 L14.0157276,13.1256408 Z" id="Path" fill="#FFFFFF"></path>
                    <path d="M33.9726417,14.5740984 C31.6385506,16.385541 28.4286492,16.385541 26.0945581,14.5740984 C27.3038478,13.0069756 27.9530272,11.0560341 27.9323849,9.05098345 C27.9530272,7.04593278 27.3038478,5.09499124 26.0945581,3.52786848 C28.4286492,1.71642589 31.6385506,1.71642589 33.9726417,3.52786848 C31.4335821,6.74189685 31.4335821,11.3609405 33.9726417,14.5749689 L33.9726417,14.5740984 Z" id="Path" fill="#FFFFFF"></path>
                    <path d="M35.3728907,13.1256408 C33.6217378,10.7111903 33.6217378,7.39077657 35.3728907,4.97632605 C37.0365949,7.42018469 37.0365949,10.6817822 35.3728907,13.1256408 L35.3728907,13.1256408 Z" id="Path" fill="#FFFFFF"></path>
                    <path d="M40.7121815,15.8424663 C39.2905193,15.8502256 37.9060227,15.37294 36.7731397,14.4844403 C37.9824294,12.9173175 38.6316088,10.966376 38.6109665,8.96132531 C38.6316088,6.95627465 37.9824294,5.00533311 36.7731397,3.43821034 C38.6798006,1.96398449 41.2037982,1.65925396 43.3874147,2.63964717 C45.5710312,3.62004037 47.0796256,5.73531119 47.3407696,8.18283122 C47.6019136,10.6303513 46.5755867,13.0350359 44.6512233,14.4844403 C43.51837,15.3729982 42.1338537,15.8502906 40.7121815,15.8424663 L40.7121815,15.8424663 Z" id="Path" fill="#FFFFFF"></path>
                </g>
                <path d="M521.873796,5.21773556 C522.2433,5.2278892 522.204037,5.48563681 522.142919,5.57449577 C521.052451,7.25840125 518.475836,10.2234144 516.599729,13.4765096 C516.289119,14.0036091 516.057798,14.3913974 516.057798,14.969832 C516.057798,15.7540484 516.550999,16.6812339 517.541785,17.0791127 C518.193563,17.3383109 518.603854,17.3462572 519.307283,17.3563474 C524.529699,17.5166594 526.623341,17.3765915 531.29652,17.2191805 C531.566406,17.2184238 531.817357,17.0379311 531.907573,16.9288912 C532.811066,15.9937595 533.331903,14.3126919 533.331903,12.8294601 C533.331903,9.52584959 530.934958,6.55005234 527.195831,5.11884933 L526.595705,5.88282186 C529.87289,7.22737309 531.566406,9.91288117 531.566406,12.7890352 C531.566406,13.4360848 531.455796,14.0628274 531.255733,14.6614429 C531.107385,15.0788718 530.924793,15.3185829 530.393727,15.3265292 C526.585476,15.4073787 524.429318,15.466597 520.610902,15.3669538 C520.1184,15.3568635 519.959124,15.1785148 519.879073,14.7914204 C519.817955,14.5617997 519.868908,14.3711535 520.028247,14.0830713 C522.053465,10.5216501 525.581602,6.45110292 526.274168,5.48563681 C526.405806,5.3072883 526.34399,4.94769013 525.892211,4.82855997 C524.570423,4.4407716 523.087199,4.28336079 521.583517,4.28336079 C514.775273,4.31079403 509.973313,8.11192653 509.862767,12.8294601 C510.135575,18.492279 515.096047,21.416804 521.583517,21.416804 C525.553267,21.416804 529.18979,20.0238197 531.317614,17.814895 L529.351988,17.8936005 C527.536998,19.4959631 524.629381,20.3523891 521.622081,20.3523891 C516.140708,20.3523891 511.677757,17.646637 511.677757,12.7890352 C511.677757,8.61096195 516.139946,5.2076451 521.622081,5.2076451 C521.622081,5.2076451 521.873796,5.21773556 521.873796,5.21773556 Z M566.904705,15.4456593 L570.61251,13.0288095 L565.000196,8.87886303 L565.000196,9.89484443 L556.6985,9.89484443 C555.615337,9.89484443 554.724172,10.6595738 554.562672,11.6553111 L564.186921,11.6452208 L564.186921,13.4562657 L556.828677,13.4663562 C555.666227,13.4663562 554.714005,14.3430263 554.663053,15.4456593 L566.904705,15.4456593 Z M602.160029,9.86451005 L610.670557,9.86451005 L610.670557,8.08379933 L602.112062,8.08379933 C598.911242,8.08379933 596.296064,10.5114966 596.165124,13.5559089 L606.481875,13.5451247 C607.151823,13.5451247 607.693054,13.9834283 607.693054,14.5112845 C607.693054,15.0485375 607.151124,15.4767505 606.481875,15.4767505 L595.123385,15.4759937 L595.123385,8.08379933 L591.754523,8.08379933 L591.754523,15.4276228 L584.989226,15.4276228 C583.996217,15.2673108 583.684909,14.5517094 583.684909,13.1580301 L583.685608,8.08379933 L578.252963,8.08379933 L573.368858,11.227098 L569.119058,8.08379933 L556.046722,8.08379933 C553.149269,8.08379933 550.73409,10.0631025 550.202325,12.6994827 L552.828431,12.6994827 C551.837645,13.3667131 551.075259,14.3126919 550.654039,15.4283795 L542.342176,15.4276228 C541.362319,15.2673108 541.040782,14.5517094 541.040782,13.1580301 L541.041481,8.08379933 L537.682086,8.08379933 L537.682086,12.8193698 C537.540981,15.955479 539.254826,17.0791127 541.210222,17.2574612 L567.325161,17.2567044 L572.137285,14.1718673 L576.338292,17.297886 L581.478497,17.297886 L574.934356,12.4120943 L580.316047,8.94962224 L580.326213,12.8193698 C580.18803,15.955479 582.070682,17.0791127 584.026777,17.2574612 L608.465606,17.2567044 C610.149655,17.2567044 611.514392,16.0341843 611.514392,14.5112845 C611.514392,12.9977183 610.148958,11.7751982 608.465606,11.7751982 L600.024963,11.7751982 C600.104251,10.710089 601.028138,9.86451005 602.160029,9.86451005 L602.160029,9.86451005 Z" id="path2383" fill="#6A7A8E"></path>
                <path d="M451.448969,21.0035251 L451.448969,8.82749238 L453.908185,8.82749238 L453.908185,14.0596583 L458.145303,8.82749238 L461.098171,8.82749238 L456.962799,13.6575395 L461.392855,21.0027548 L458.63594,21.0027548 L455.486365,15.5695295 L453.908185,17.2804601 L453.908185,21.0035251 L451.448969,21.0035251 Z M443.281477,18.7926423 L443.282984,18.7957237 C443.991324,18.9988387 444.740684,18.9988387 445.449024,18.7957237 C445.744747,18.6901785 446.013599,18.5182966 446.235852,18.29269 C446.455723,18.0646862 446.623978,17.7901536 446.728751,17.4884525 C446.85063,17.1322641 446.917008,16.7587166 446.925458,16.3814704 L446.925458,8.83211443 L449.289712,8.83211443 L449.289712,16.7766561 C449.301673,17.4039297 449.16706,18.0250701 448.897052,18.5885015 C448.660185,19.1189916 448.324891,19.5974812 447.909747,19.9974579 C447.44314,20.3946789 446.909622,20.7016674 446.335336,20.9033806 C445.051643,21.3053626 443.679611,21.3053626 442.395917,20.9033806 C441.821334,20.7016617 441.287366,20.3949687 440.819999,19.9982282 C440.407288,19.5967749 440.073229,19.1185885 439.83571,18.5892719 C439.555467,18.0298049 439.420029,17.406317 439.442295,16.7781968 L439.442295,8.82903306 L441.805042,8.82903306 L441.805042,16.378389 C441.831788,16.753499 441.897733,17.1246062 442.001749,17.4853711 C442.107196,17.7865601 442.275076,18.0609006 442.493894,18.2896087 C442.716947,18.5145601 442.98589,18.6863355 443.281477,18.7926423 Z M434.489948,20.2000579 L434.489948,20.2008283 C434.40932,20.0107613 434.375424,19.8034143 434.391217,19.5968798 C434.375423,19.390095 434.409316,19.1824983 434.489948,18.992161 C434.527684,18.7940801 434.632568,18.6159522 434.786139,18.4891274 C434.936259,18.3662531 435.101773,18.2644369 435.278284,18.1863828 C435.464501,18.1039675 435.667604,18.0693239 435.869912,18.0854679 C436.071232,18.0695496 436.273306,18.1041941 436.458527,18.1863828 C436.652651,18.2241412 436.827339,18.3311635 436.951425,18.488357 C437.049402,18.6894164 437.148132,18.7903313 437.245355,18.9913906 C437.326439,19.1813437 437.360851,19.3886808 437.345593,19.5953391 C437.361867,19.8022194 437.327685,20.0099955 437.246109,20.2000579 C437.208359,20.3975476 437.104088,20.5752689 436.951425,20.7023212 C436.753964,20.8024657 436.656741,20.9033806 436.457773,21.0042954 C436.272428,21.0860109 436.070407,21.1203818 435.869159,21.10444 C435.469697,21.1257488 435.07879,20.980986 434.785385,20.7030916 C434.687408,20.5012618 434.588678,20.4011173 434.489948,20.2000579 Z M430.708799,21.0035251 L427.462754,21.0035251 L424.11421,8.82826272 L426.773902,8.82826272 L429.034904,17.9853234 L429.132127,17.9853234 L431.398404,8.82826272 L434.057343,8.82826272 L430.708799,21.0035251 Z M415.992691,18.5923532 L415.99043,18.5923532 C416.867405,18.9952054 417.871124,18.9952054 418.748099,18.5923532 C419.138019,18.4149732 419.476913,18.1383371 419.732388,17.7888861 C420.026729,17.405531 420.229096,16.9570164 420.323263,16.4793039 C420.437435,15.9502296 420.503786,15.4115483 420.521478,14.8700585 L420.521478,14.7691437 C420.509578,14.2267367 420.443413,13.6869974 420.324017,13.1583576 C420.230422,12.6805971 420.02828,12.2320086 419.733896,11.8487755 C419.450793,11.5277447 419.118326,11.2560946 418.749606,11.0445379 C417.872507,10.6422787 416.869037,10.6422787 415.991937,11.0445379 C415.601523,11.2221472 415.262135,11.4990285 415.006141,11.8487755 C414.712339,12.232278 414.510494,12.6807816 414.416773,13.1583576 C414.301789,13.6877886 414.235679,14.2270827 414.219312,14.7691437 L414.219312,14.8700585 C414.236896,15.4113468 414.303503,15.949806 414.41828,16.4785336 C414.512374,16.9559854 414.714182,17.4044042 415.007648,17.7881157 C415.290547,18.1096799 415.623353,18.3813989 415.992691,18.5923532 Z M415.005387,9.13408867 L415.00388,9.13408867 C416.538091,8.43080974 418.293139,8.43080974 419.82735,9.13408867 C420.51385,9.41636182 421.122401,9.86594761 421.599976,10.4436708 C422.090331,11.032542 422.458532,11.7170971 422.682242,12.4558053 C423.175653,14.0605104 423.175653,15.7812919 422.682242,17.385997 C422.460327,18.125322 422.092217,18.8101827 421.600729,19.3981314 C421.096282,19.9454115 420.494753,20.3898097 419.828104,20.7077136 C418.274342,21.3104074 416.558396,21.3104074 415.004633,20.7077136 C414.318385,20.4249741 413.709937,19.975464 413.232008,19.3981314 C412.741078,18.8096658 412.372808,18.1249839 412.149742,17.385997 C411.657636,15.7810875 411.657636,14.0607148 412.149742,12.4558053 C412.350034,11.7070079 412.721195,11.0174309 413.232762,10.4436708 C413.737571,9.8968123 414.339016,9.45247612 415.005387,9.13408867 Z M401.795107,14.8700585 L401.819978,14.8700585 C401.812921,15.4214548 401.913353,15.9687681 402.115415,16.4800743 C402.208305,16.9580692 402.410519,17.4068191 402.705537,17.7896564 C402.958351,18.1675408 403.296146,18.4779392 403.69058,18.6948088 C404.159532,18.8912555 404.660971,18.9940237 405.167768,18.9975534 C405.644127,19.0043205 406.115838,18.9010974 406.547733,18.6955791 C406.898854,18.5443268 407.20462,18.3008929 407.434045,17.9899455 C407.669385,17.7355657 407.837911,17.4244461 407.923929,17.0855634 C408.012503,16.8277207 408.046665,16.5536317 408.024167,16.2813259 L408.024167,16.1788704 L404.971061,16.1788704 L404.971061,14.2684211 L410.386914,14.2684211 L410.386914,20.9103137 L408.294733,20.9103137 L408.294733,19.500587 C408.099534,19.7039574 407.902073,19.9034761 407.704612,20.1053058 C407.465767,20.3079408 407.201378,20.4768717 406.918537,20.6075691 C406.619331,20.7077136 406.324647,20.8093988 406.030717,20.911084 C405.675223,20.9938984 405.310426,21.0273244 404.94619,21.0104582 C404.133286,21.0099975 403.32912,20.8390512 402.583443,20.5081949 C401.941356,20.196503 401.370546,19.7503279 400.90804,19.1986128 C400.417283,18.6094889 400.048586,17.9247037 399.824267,17.1857079 C399.543035,16.4138781 399.409477,15.5940152 399.430852,14.7706844 C399.416556,13.9483076 399.550162,13.130241 399.82502,12.3572015 C400.100126,11.6203894 400.499882,10.9387798 401.006017,10.3435263 C401.511018,9.7968913 402.112419,9.35258788 402.778642,9.03394415 C403.530945,8.72306805 404.331718,8.55269048 405.142897,8.53091053 C405.673441,8.54861637 406.201246,8.61643857 406.719569,8.7335106 C407.202657,8.87378447 407.666169,9.07675352 408.09878,9.33745908 C408.478673,9.61412871 408.839987,9.9165245 409.180292,10.2426115 C409.475945,10.6216797 409.739904,11.0254765 409.969382,11.4497381 L407.901319,12.6560943 C407.704612,12.4542646 407.607389,12.1538311 407.409174,11.951231 C407.063328,11.4772417 406.581066,11.1257241 406.029963,10.9459341 C405.707842,10.862399 405.375341,10.8283873 405.043413,10.8450192 C404.537052,10.8472898 404.03592,10.9498383 403.567732,11.1469935 C403.172592,11.3624936 402.834559,11.6728462 402.582689,12.0513755 C402.288936,12.4349081 402.087095,12.8833994 401.993321,13.3609577 C401.879136,13.8561574 401.812747,14.3616108 401.795107,14.8700585 Z M372.784779,9.67755539 L372.784779,9.67845412 C372.166956,9.40295621 371.865399,8.68375526 372.096304,8.0364692 C372.214768,7.72247851 372.452242,7.4706757 372.754884,7.33815377 C373.057624,7.20574295 373.399647,7.2028297 373.704504,7.33006517 C374.018285,7.44315975 374.271448,7.68530332 374.402652,7.99782368 C374.532966,8.31057176 374.529459,8.66475781 374.392979,8.9747463 C374.272982,9.28761719 374.035521,9.538422 373.733521,9.67126426 C373.430799,9.80284793 373.089145,9.80511345 372.784779,9.67755539 Z M370.025603,11.3294264 C369.407211,11.0535432 369.105895,10.3332112 369.338007,9.68564399 C369.456557,9.37170929 369.694003,9.11993617 369.996587,8.98732856 C370.299124,8.8548368 370.641135,8.85256891 370.945328,8.98103743 C371.259281,9.09334776 371.512615,9.33532879 371.643476,9.64789721 C371.774052,9.96066081 371.770224,10.3150789 371.632924,10.6248198 C371.513328,10.93786 371.276183,11.1889893 370.974345,11.3222365 C370.671885,11.4548137 370.329953,11.4574049 370.025603,11.3294264 Z M369.222822,14.4983584 L369.221063,14.4983584 C368.60253,14.2221038 368.300683,13.5019491 368.531709,12.8536773 C368.651511,12.5404673 368.888997,12.2893119 369.191168,12.1562606 C369.493882,12.0234318 369.836183,12.0208402 370.140789,12.1490707 C370.447882,12.2711219 370.694287,12.5139145 370.824867,12.8231204 C370.95413,13.1326798 370.956663,13.4822692 370.831901,13.7937519 C370.7126,14.1078049 370.474582,14.3595127 370.171563,14.4920673 C369.869027,14.6245591 369.527015,14.6268269 369.222822,14.4983584 Z M375.885115,10.7416551 L375.884236,10.7416551 C375.301765,10.4310342 375.014166,9.74386818 375.19664,9.09877143 C375.31604,8.78539222 375.55321,8.53391224 375.85522,8.400456 C376.157363,8.26782626 376.499046,8.26523447 376.803082,8.39326614 C377.110498,8.51432397 377.357136,8.75702211 377.487161,9.06641705 C377.617015,9.37585009 377.61955,9.72568323 377.494195,10.0370485 C377.374901,10.3505915 377.13725,10.6019217 376.834736,10.7344652 C376.531877,10.8665875 376.189855,10.8691771 375.885115,10.7416551 Z M387.189999,9.67755539 C386.885983,9.80661689 386.54385,9.8046723 386.241257,9.67216299 C385.938341,9.53975307 385.700552,9.28795342 385.581798,8.97384757 C385.445211,8.66388322 385.441704,8.30965111 385.572126,7.99692495 C385.702987,7.68435654 385.956321,7.4423755 386.270274,7.33006517 C386.574585,7.20188312 386.916597,7.20447499 387.219015,7.33725503 C387.521758,7.46992163 387.759463,7.72163247 387.878474,8.03557046 C388.054273,8.68021102 387.767943,9.36309488 387.189999,9.67755539 Z M389.946537,11.3294264 C389.641959,11.4555883 389.300671,11.4520287 388.998675,11.3195403 C388.696512,11.1871032 388.458736,10.9366228 388.338337,10.6239211 C388.212929,10.3128769 388.215465,9.96329764 388.345371,9.65418834 C388.475542,9.34533162 388.721261,9.10259124 389.027691,8.9801387 C389.332314,8.85233012 389.674335,8.85459598 389.977312,8.98642983 C390.280319,9.11929745 390.518513,9.37085584 390.638529,9.68474525 C390.869288,10.332762 390.566927,11.0524368 389.948296,11.3276289 L389.946537,11.3294264 Z M390.751077,14.4983584 C390.446337,14.6258804 390.104315,14.6232908 389.801456,14.4911686 C389.498942,14.3586251 389.261291,14.1072949 389.141997,13.7937519 C389.00541,13.4837875 389.001903,13.1295554 389.132325,12.8168293 C389.263095,12.5041956 389.516462,12.2621826 389.830472,12.1499695 C390.13496,12.0214524 390.47726,12.0237201 390.780093,12.1562606 C391.082435,12.2895209 391.319946,12.541027 391.439552,12.854576 C391.670612,13.5023586 391.369145,14.2221331 390.751077,14.4983584 Z M384.000856,10.7416551 C383.696624,10.8699201 383.354692,10.8676528 383.052114,10.735364 C382.749267,10.6030176 382.511274,10.3516611 382.391776,10.0379473 C382.253996,9.72825241 382.250484,9.37350605 382.382104,9.06102465 C382.514349,8.74768278 382.769753,8.50588072 383.085527,8.39506361 C383.39015,8.26725503 383.732171,8.26952089 384.035148,8.40135474 C384.337891,8.53402133 384.575595,8.78573217 384.694606,9.09967017 C384.877523,9.74525512 384.588934,10.4330251 384.005252,10.7425538 L384.000856,10.7416551 Z M380.567273,7.45409031 L380.564635,7.45409031 C380.564635,7.57182431 380.450329,7.57182431 380.335144,7.57182431 L381.25399,10.2680229 L381.25399,10.5025922 C381.3042,10.8925851 381.198664,11.2868161 380.96119,11.59635 C380.724046,11.9049073 380.375527,12.1031009 379.993984,12.1463745 L379.418935,12.1463745 C378.67693,11.8647914 378.275276,11.0437109 378.500089,10.2680229 L379.418056,7.57182431 C379.387384,7.57230652 379.357848,7.55997117 379.336283,7.53767246 C379.31466,7.51562944 379.303162,7.48526949 379.304629,7.45409031 L377.809856,8.27643087 L377.809856,5.92804192 L379.304629,6.39718047 L379.418935,6.27944646 L378.844767,4.28336079 L381.027136,4.28336079 L380.452967,6.27944646 L380.567273,6.39718047 L382.062047,5.92804192 L382.062047,8.27643087 L380.567273,7.45409031 Z M379.890229,20.8299314 L379.893746,20.8299314 C377.164658,20.8547166 374.439632,21.0507093 371.734041,21.416804 C371.343282,19.2723049 370.521744,17.2339142 369.321301,15.4303444 L370.930381,14.8443706 C370.69862,15.4070266 370.69862,16.0414335 370.930381,16.6040895 C371.273149,16.1566698 371.508636,15.6334157 371.617976,15.0762437 L372.423396,17.7724422 C372.092693,17.4161089 371.639115,17.2055806 371.158993,17.1855697 C371.848347,18.8284533 372.882379,19.2984906 373.457427,19.1816553 C374.08439,19.0412782 374.490131,18.4188028 374.375394,17.773341 C374.261088,16.9510004 373.342242,16.7173299 372.996685,17.655607 C372.307331,16.1277611 373.570854,15.6586225 374.375394,16.1277611 C374.375394,16.0091284 374.260208,16.0091284 374.146781,15.8922931 C373.663273,15.4477288 373.377578,14.8211928 373.355431,14.1568399 C373.334239,13.4926001 373.577969,12.8480608 374.030717,12.3710578 C375.409425,13.5448029 375.409425,14.5990165 374.836136,16.1268624 C375.639796,15.0708513 376.90332,15.6559263 376.444336,17.1837722 C375.870167,16.2427989 375.066507,16.8314689 375.179934,17.7706448 C375.179934,18.5929853 376.215724,19.1798579 377.479247,19.0621239 C379.317818,18.9434911 379.433004,17.6529108 379.433004,16.5960009 C378.97402,16.4791656 378.166843,16.9492029 377.479247,17.88748 L377.247997,14.9522185 C377.828613,15.54447 378.612776,15.881202 379.433004,15.8904956 C379.109695,15.1024727 378.641014,14.3854221 378.052537,13.7784734 L381.613615,13.7784734 C381.075459,14.4254415 380.612778,15.1342145 380.234906,15.8904956 C381.05417,15.881121 381.83738,15.5447141 382.417275,14.9531173 L382.188663,17.88748 C381.49755,16.9483042 380.693889,16.4782669 380.234027,16.5960009 C380.349212,17.6529108 380.349212,18.9443899 382.188663,19.0621239 C383.335242,19.1798579 384.371032,18.5929853 384.485338,17.7706448 C384.599644,16.8314689 383.795105,16.2454951 383.220936,17.1837722 C382.761952,15.6577238 384.026355,15.189484 384.830015,16.1268624 C384.255846,14.600814 384.255846,13.4270689 385.633676,12.3710578 C385.751499,12.3710578 385.751499,12.487893 385.864926,12.6038296 C386.258738,13.1446721 386.420021,13.8261453 386.3116,14.4911686 C386.202602,15.1554128 385.834118,15.7458342 385.290757,16.1268624 C386.095297,15.6586225 387.357941,16.1268624 386.669466,17.6547082 C386.32391,16.7164311 385.520249,16.9501017 385.290757,17.7724422 C385.225078,18.4447692 385.673376,19.0567658 386.32303,19.1816553 C386.898078,19.2984906 387.816924,18.8293521 388.620585,17.1855697 C388.154735,17.2581827 387.717682,17.4613232 387.357941,17.7724422 L388.161602,15.0762437 C388.270709,15.6338263 388.506882,16.1572653 388.850956,16.6040895 C389.080497,16.0406659 389.080497,15.4068954 388.850956,14.8434718 L390.460036,15.4303444 C389.306953,17.2595993 388.489372,19.2881696 388.047295,21.416804 C385.343424,21.0423427 382.61876,20.8463126 379.890229,20.8299314 Z" id="Combined-Shape" fill="#6A7A8E"></path>
                <path d="M932.713332,8.92896674 C932.713332,9.10080313 932.548227,9.27263952 932.297042,9.52930653 C930.633064,11.3201747 929.783463,13.7504823 929.958052,16.2200499 C929.958052,18.364017 930.293907,19.2217489 930.293907,20.1650364 C930.293907,20.5949899 930.209943,20.8509318 929.958758,20.8509318 C929.458503,20.8509318 928.539841,18.6214091 928.539841,15.9619328 C928.539841,10.3870384 931.963303,8.84268602 932.464969,8.84268602 C932.714038,8.75713035 932.714038,8.84268602 932.714038,8.92824169 L932.713332,8.92896674 Z M924.115164,8.75713035 C924.61683,8.84268602 928.040292,10.3863133 928.040292,15.9619328 C928.040292,18.6214091 927.123041,20.8509318 926.62067,20.8509318 C926.368779,20.8509318 926.285521,20.5935398 926.285521,20.1650364 C926.285521,19.1361932 926.62067,18.2799114 926.62067,16.2193249 C926.755868,13.7558665 925.912589,11.3414596 924.283797,9.52858148 C924.033317,9.27191447 923.863979,9.10007808 923.863979,8.92824169 C923.949354,8.92824169 923.949354,8.84268602 924.114459,8.75713035 L924.115164,8.75713035 Z M927.147737,9.95055945 C927.141055,9.60721733 927.271025,9.27594507 927.507581,9.03337366 C927.743711,8.79048315 928.066103,8.65718187 928.400137,8.6643242 C929.084627,8.68148205 929.635774,9.24720024 929.653243,9.95055945 C929.635774,10.654319 929.084311,11.2203614 928.399431,11.2375197 C927.71477,11.2206793 927.163739,10.6541237 927.147737,9.95055945 Z M939.066353,18.273386 C939.150316,18.273386 939.150316,18.273386 939.150316,18.3596667 L939.066353,18.273386 C936.321869,17.3032893 933.453186,16.7543248 930.552854,16.644203 L930.552854,16.3005303 C930.552854,16.0431382 930.634701,15.8713018 930.634701,15.6139098 C933.608559,15.8129377 936.49595,16.7236664 939.066353,18.273386 Z M930.387749,3.17353532 C930.005345,2.87233708 929.867823,2.34455518 930.052599,1.88730008 C930.200057,1.27922692 930.642708,0.79255574 931.223153,0.600339786 C931.553712,1.10456278 931.645227,1.73513453 931.472221,2.31652852 C931.305247,2.79637272 930.881751,3.13245707 930.387749,3.17716056 L930.387749,3.17353532 Z M933.309545,5.66262527 C933.156757,5.18608198 933.326252,4.66297472 933.726542,4.37566498 C934.15844,3.97824742 934.74998,3.8185246 935.316208,3.94643654 C935.346434,4.54168071 935.097503,5.11581544 934.646615,5.49078889 C934.283627,5.83788141 933.745028,5.90684507 933.310251,5.66190023 L933.309545,5.66262527 Z M933.393509,9.43722543 C933.552424,8.98636683 933.935257,8.6583513 934.395429,8.57876853 C934.948357,8.48229643 935.511705,8.67535139 935.897604,9.09355265 C935.621723,9.59293206 935.119613,9.91592175 934.561946,9.95273459 C934.115447,10.0276853 933.668059,9.82427599 933.421732,9.43432523 L933.393509,9.43722543 Z M932.309742,10.7241857 C932.559275,10.3766115 932.982258,10.2091974 933.394215,10.2949573 C933.886539,10.3931478 934.312987,10.7064616 934.562651,11.1534142 C934.217705,11.5209926 933.698908,11.6541302 933.226287,11.4963619 C932.776209,11.5091896 932.385367,11.1801644 932.309036,10.7241857 L932.309742,10.7241857 Z M929.134643,7.20625257 C928.640542,6.83092684 928.466824,6.15306497 928.716941,5.57634456 C928.892494,4.86989731 929.389919,4.2944458 930.051894,4.03199221 C930.449144,4.63558366 930.571458,5.38680691 930.387043,6.09040362 C930.270126,6.71503008 929.752241,7.17618981 929.133937,7.20625257 L929.134643,7.20625257 Z M930.55356,7.97842875 C930.388193,7.45023043 930.554166,6.87184651 930.971967,6.52035712 C931.453074,6.09206102 932.107361,5.93209552 932.724622,6.09185372 C932.780995,6.75949371 932.495932,7.40931875 931.97177,7.80804246 C931.600308,8.20694448 931.005576,8.27873629 930.554265,7.9791538 L930.55356,7.97842875 Z M931.47081,4.97527972 C931.13635,4.45510169 931.13635,3.77999406 931.47081,3.25981604 C931.869379,2.64234707 932.51066,2.23472361 933.226287,2.14396709 C933.480553,2.8307101 933.386154,3.60239275 932.974396,4.20310355 C932.71038,4.78950573 932.086351,5.10982922 931.471516,4.97455467 L931.47081,4.97527972 Z M933.305312,7.63475597 C933.284286,7.06601215 933.620876,6.54763246 934.14001,6.34924578 C934.751897,6.03316171 935.479439,6.06526129 936.062709,6.4340764 C935.895911,7.1182214 935.434541,7.68682317 934.809603,7.97842875 C934.285001,8.16037152 933.705475,8.02797192 933.305312,7.63475597 Z M927.293791,2.14469213 C927.271869,1.30547657 927.645189,0.506916155 928.296417,2.7533531e-13 C928.947472,0.5069919 929.320543,1.30557991 929.298337,2.14469213 C929.367128,2.85969254 928.954295,3.53128281 928.296417,3.77460015 C927.654338,3.51120127 927.249606,2.85371587 927.293086,2.14469213 L927.293791,2.14469213 Z M917.52507,18.3589417 L917.608328,18.273386 C920.168118,16.6861519 923.057743,15.7453976 926.03998,15.5283541 L926.03998,16.5571973 C923.157141,16.717805 920.314484,17.3252472 917.608328,18.3589417 L917.52507,18.3589417 Z M925.286423,2.22952276 C925.116007,1.64798724 925.207907,1.01859377 925.536903,0.514059068 C926.116995,0.707305378 926.559675,1.19342172 926.708867,1.80101936 C926.873833,2.26007509 926.738593,2.77613078 926.371601,3.08797965 C925.849317,3.15290424 925.374006,2.77233289 925.30759,2.23604819 L925.286423,2.22952276 Z M922.111324,5.49223898 C921.677789,5.10383238 921.432829,4.53885646 921.441731,3.94788664 C922.007431,3.77756977 922.618404,3.94275962 923.029281,4.37711508 C923.430754,4.66352592 923.602655,5.18609712 923.452627,5.66407537 C923.024,5.90845468 922.490517,5.83794596 922.136019,5.49006384 L922.111324,5.49223898 Z M922.195288,9.95345964 C921.637396,9.91797192 921.134818,9.59495425 920.85963,9.09500275 C921.245529,8.67680148 921.808876,8.48374652 922.361804,8.58021863 C922.847882,8.59563537 923.261182,8.94945645 923.363724,9.43795047 C923.090049,9.80919439 922.646436,10.0050325 922.195993,9.95345964 L922.195288,9.95345964 Z M923.528829,11.5826426 C923.056716,11.6974194 922.559762,11.5695497 922.195993,11.2396949 C922.411766,10.7984765 922.811539,10.4824318 923.281877,10.381238 C923.693729,10.2985817 924.115249,10.4656987 924.36635,10.8111915 C924.24782,11.2020079 923.933278,11.4966773 923.543647,11.5819176 L923.528829,11.5826426 Z M926.286226,6.09257877 C926.05802,5.39171766 926.183336,4.62015848 926.62067,4.03344231 C927.29906,4.27104896 927.806017,4.85752749 927.955623,5.57779465 C928.204614,6.15437683 928.032098,6.83127814 927.540038,7.20842772 C926.931936,7.15293204 926.426896,6.70321142 926.286932,6.09257877 L926.286226,6.09257877 Z M924.699383,7.8087675 C924.207062,7.38465813 923.930518,6.75247517 923.948648,6.09257877 C924.565688,5.93294563 925.219709,6.09291039 925.700597,6.52108217 C926.117423,6.87292633 926.282755,7.45074074 926.117593,7.97842875 C925.676624,8.32116991 925.051101,8.24569867 924.699383,7.80731741 L924.699383,7.8087675 Z M923.696757,4.29083436 C923.286061,3.68953724 923.192982,2.91783302 923.448394,2.2316979 C924.174181,2.2888587 924.827616,2.70504371 925.200343,3.34754685 C925.534058,3.8679548 925.534058,4.54260258 925.200343,5.06301054 C924.597174,5.1184639 924.015041,4.82006661 923.695346,4.29155941 L923.696757,4.29083436 Z M921.862255,7.89432317 C921.220825,7.6263794 920.751634,7.0474323 920.611266,6.35069587 C921.205396,6.02336228 921.912187,5.99161021 922.531848,6.26441516 C923.035147,6.48295355 923.362834,6.98918895 923.36443,7.5506504 C923.013465,8.02823677 922.377245,8.1737934 921.862255,7.89432317 Z M973.670545,17.121743 L973.670545,10.5143216 C973.670545,9.63406821 973.562317,7.87277275 973.562317,7.54149461 L975.598696,7.54149461 L975.70846,8.86345215 C976.291882,7.86460146 977.359759,7.27311825 978.492458,7.32143127 C980.250379,7.3065421 981.711153,8.71016689 981.814528,10.5135328 L981.814528,17.1209542 L979.567832,17.1209542 L979.567832,11.2841489 C979.629959,10.7857619 979.493801,10.2826954 979.190185,9.88883687 C978.887048,9.49482685 978.442043,9.24314949 977.955923,9.1907865 C977.471909,9.1274329 976.983432,9.26670734 976.600383,9.57727767 C976.218015,9.88718375 975.972726,10.3418555 975.919543,10.8392896 L975.919543,17.2282252 L973.671313,17.1177992 L973.670545,17.121743 Z M960.594886,7.53755082 L960.594886,17.1177992 L958.346655,17.1177992 L958.346655,7.53755082 L960.594886,7.53755082 Z M992.426268,17.1177992 L990.390656,17.1170104 C990.390656,16.7857323 990.282428,15.7950529 990.282428,15.4653523 L990.176502,15.4653523 C989.604829,16.5586075 988.491233,17.2368839 987.283508,17.2275339 C984.817286,17.2275339 983.530828,15.2452889 983.530828,12.6021626 C983.530828,9.849399 985.244058,7.20706144 988.996738,7.20706144 C990.045671,7.2382581 991.088233,7.38609175 992.106188,7.64797687 L992.106188,13.9241201 C992.157327,14.9937878 992.264173,16.059874 992.426268,17.1177992 Z M989.963116,12.3852543 L990.067506,12.3852543 L990.067506,9.19236402 C989.754375,9.10205492 989.428971,9.06501961 989.104198,9.08272673 L988.781816,9.08272673 C987.961217,9.12784443 987.195543,9.52053207 986.667144,10.1672683 C986.139168,10.8140185 985.896207,11.6569978 985.996282,12.4948916 C985.996282,14.3642468 986.638744,15.4685073 987.925201,15.4685073 C989.105733,15.4685073 989.963116,14.5874652 989.963116,12.3852543 Z M956.093052,14.7002575 L956.20128,14.7002575 L956.20128,16.6839826 C955.303737,16.9906636 954.362257,17.1394627 953.416514,17.1241092 L952.772518,17.1241092 C951.090523,17.0811657 949.495831,16.3456557 948.346674,15.0828049 C947.196227,13.8203962 946.587746,12.1358568 946.658006,10.4078393 L946.658006,9.74686053 C946.728529,8.0180389 947.47227,6.39088548 948.722019,5.23122395 C949.971883,4.07169974 951.622857,3.47710301 953.30368,3.5811433 C954.251044,3.55717408 955.195011,3.70646883 956.091517,4.02205873 L956.091517,6.11384357 C955.306649,5.79904635 954.468264,5.64938004 953.626062,5.6737169 L953.195452,5.6737169 C952.043138,5.74341587 950.965563,6.28287481 950.201905,7.17235611 C949.438636,8.06009835 949.051809,9.22421047 949.127299,10.4062618 L949.127299,10.8455997 C949.241683,13.2963593 951.240715,15.2041011 953.627597,15.1403842 C954.472799,15.2194809 955.323332,15.0676459 956.093052,14.7002575 Z M968.956093,15.9110002 L968.953022,15.9102115 C968.348696,16.8879696 967.29299,17.4723663 966.165953,17.4530211 C963.697429,17.4530211 962.413274,15.4716623 962.413274,12.828536 C962.413274,10.0757724 964.125736,7.43343484 967.879183,7.43343484 C968.926871,7.46440811 969.968184,7.6122472 970.984796,7.87435027 L970.984796,16.3519157 C970.984796,20.312267 969.165641,21.4165275 966.486033,21.4165275 C965.539567,21.4241145 964.598053,21.2755149 963.697429,20.9764008 L963.697429,18.9942532 C964.523086,19.3011057 965.396312,19.4505259 966.274182,19.4351687 L966.806879,19.4351687 C968.125492,19.2578462 969.073494,18.0436225 968.956093,16.6824051 L968.956093,15.9110002 Z M968.847097,12.3876206 L968.846329,9.085093 C968.532704,8.99458359 968.206805,8.95728454 967.881486,8.97466695 C965.95487,8.97466695 964.880263,10.6279026 964.880263,12.4972579 C964.880263,14.3666131 965.519654,15.4708736 966.809182,15.4708736 C967.989714,15.4708736 968.847097,14.5898315 968.847097,12.3876206 Z M958.024274,5.01037185 L958.026576,5.01194937 C958.039242,4.22784841 958.65365,3.59474284 959.416657,3.57956578 C960.179978,3.59345941 960.795519,4.22598648 960.80904,5.01037185 C960.796336,5.79537318 960.180563,6.42883656 959.416657,6.44275544 C958.65275,6.42883656 958.036977,5.79537318 958.024274,5.01037185 Z" id="Combined-Shape" fill="#6A7A8E" fill-rule="nonzero"></path>
                <path d="M1219.94615,16.7926057 C1219.94615,17.1588788 1219.9913,17.4793678 1220.05902,17.7082885 L1220.05902,17.7769647 L1218.20806,17.7769647 L1218.20806,17.7540726 C1218.11777,17.2962312 1218.05005,16.8154977 1218.05005,16.3576563 C1217.68889,16.8841739 1217.23744,17.2962312 1216.6957,17.5938281 C1216.15395,17.8914251 1215.47678,18.0516696 1214.73188,18.0516696 C1214.34815,18.0516696 1213.94184,18.0058854 1213.51296,17.8914251 C1213.08408,17.7769647 1212.67777,17.5938281 1212.33918,17.3649074 C1211.97802,17.1130947 1211.68458,16.7926057 1211.45885,16.4034405 C1211.23313,16.0142753 1211.12026,15.5106497 1211.12026,14.9383479 C1211.12026,14.1600175 1211.32342,13.5648237 1211.72972,13.1069823 C1212.13603,12.6491409 1212.67777,12.3057598 1213.33238,12.0768391 C1213.98698,11.8479184 1214.73188,11.6876739 1215.54449,11.6189977 C1216.35711,11.5503215 1217.16972,11.5045373 1217.98234,11.5045373 L1217.98234,11.2756166 C1217.98234,10.5430704 1217.75661,9.99366066 1217.32773,9.6502796 C1216.89885,9.30689854 1216.31196,9.12376197 1215.58964,9.12376197 C1215.0479,9.12376197 1214.50615,9.23822232 1214.03213,9.44425096 C1213.55811,9.6502796 1213.12923,9.94787652 1212.81321,10.2683655 L1212.79064,10.2912576 L1211.70715,8.96351747 L1211.72972,8.9406254 C1212.20375,8.48278399 1212.81321,8.11651086 1213.51296,7.84180601 C1214.21271,7.56710116 1214.95761,7.42974874 1215.77022,7.42974874 C1216.46997,7.42974874 1217.102,7.52131702 1217.62117,7.72734565 C1218.14034,7.93337429 1218.56922,8.23097121 1218.90781,8.57435227 C1219.2464,8.9406254 1219.51727,9.35268268 1219.67528,9.83341616 C1219.83329,10.3141496 1219.92358,10.8406673 1219.92358,11.390077 L1219.92358,15.7395704 C1219.92358,16.0600594 1219.92358,16.4263325 1219.94615,16.7926057 Z M1217.95976,13.4732554 L1217.95976,12.9925219 L1217.53088,12.9925219 C1217.03429,12.9925219 1216.53769,13.015414 1216.01852,13.0611981 C1215.49935,13.1069823 1215.02532,13.1985506 1214.61902,13.3130109 C1214.19014,13.4274713 1213.85155,13.6106078 1213.58068,13.8624206 C1213.30981,14.1142334 1213.17437,14.4347224 1213.17437,14.8467797 C1213.17437,15.1214845 1213.24209,15.3732973 1213.35495,15.5564338 C1213.46781,15.7624625 1213.62582,15.922707 1213.8064,16.0371673 C1213.98698,16.1516277 1214.21271,16.243196 1214.43844,16.2889801 C1214.66416,16.3347643 1214.91246,16.3576563 1215.16076,16.3576563 C1216.06366,16.3576563 1216.76342,16.0829515 1217.23744,15.5335418 C1217.71146,15.0070241 1217.95976,14.29737 1217.95976,13.4732554 Z M1229.78781,15.2130528 L1229.83295,15.1672686 L1231.23246,16.4263325 L1231.20988,16.4492246 C1230.781,16.9528502 1230.26183,17.3420154 1229.6298,17.6167202 C1228.99777,17.8914251 1228.27544,18.0287775 1227.4854,18.0287775 C1226.71793,18.0287775 1226.01818,17.8914251 1225.36358,17.6396123 C1224.70897,17.3877995 1224.14466,17.0215264 1223.67063,16.563685 C1223.19661,16.1058435 1222.81287,15.5335418 1222.542,14.8925638 C1222.27113,14.2515858 1222.1357,13.5190396 1222.1357,12.7178171 C1222.1357,11.9165946 1222.27113,11.1840483 1222.542,10.5430704 C1222.81287,9.90209237 1223.17404,9.32979061 1223.64806,8.87194919 C1224.12208,8.41410778 1224.6864,8.04783464 1225.34101,7.79602187 C1225.97304,7.54420909 1226.69536,7.40685666 1227.44026,7.40685666 C1228.11744,7.40685666 1228.83976,7.56710116 1229.51694,7.84180601 C1230.21669,8.11651086 1230.75843,8.5514602 1231.16474,9.07797783 L1231.18731,9.1008699 L1229.69752,10.3141496 L1229.67495,10.2683655 C1229.47179,9.94787652 1229.15578,9.67317167 1228.74947,9.46714303 C1228.34316,9.26111439 1227.89171,9.14665404 1227.44026,9.14665404 C1226.94366,9.14665404 1226.49221,9.26111439 1226.10847,9.44425096 C1225.72474,9.62738753 1225.38615,9.90209237 1225.11528,10.2225814 C1224.84441,10.5659624 1224.61868,10.9322356 1224.48325,11.3671849 C1224.32524,11.8021342 1224.25752,12.2370836 1224.25752,12.7178171 C1224.25752,13.1756585 1224.34781,13.6334999 1224.48325,14.0684492 C1224.64125,14.5033986 1224.84441,14.8925638 1225.11528,15.2130528 C1225.38615,15.5335418 1225.72474,15.8082466 1226.10847,15.9913832 C1226.51478,16.1974118 1226.96623,16.2889801 1227.46283,16.2889801 C1227.93686,16.2889801 1228.38831,16.1745198 1228.79461,15.9913832 C1229.20092,15.8082466 1229.53951,15.5335418 1229.78781,15.2130528 Z M1239.74233,15.2130528 L1239.81005,15.1672686 L1241.18697,16.4263325 L1241.1644,16.4492246 C1240.73552,16.9528502 1240.21635,17.3420154 1239.58432,17.6167202 C1238.95229,17.8914251 1238.22996,18.0287775 1237.43992,18.0287775 C1236.67245,18.0287775 1235.9727,17.8914251 1235.3181,17.6396123 C1234.66349,17.3877995 1234.09918,17.0215264 1233.62515,16.563685 C1233.15113,16.1058435 1232.76739,15.5335418 1232.49652,14.8925638 C1232.22565,14.2515858 1232.09021,13.5190396 1232.09021,12.7178171 C1232.09021,11.9165946 1232.22565,11.1840483 1232.49652,10.5430704 C1232.76739,9.90209237 1233.12855,9.32979061 1233.60258,8.87194919 C1234.0766,8.41410778 1234.64092,8.04783464 1235.29552,7.79602187 C1235.92756,7.54420909 1236.64988,7.40685666 1237.39478,7.40685666 C1238.07196,7.40685666 1238.79428,7.56710116 1239.47146,7.84180601 C1240.17121,8.11651086 1240.71295,8.5514602 1241.11926,9.07797783 L1241.14183,9.1008699 L1239.65204,10.3141496 L1239.62946,10.2683655 C1239.42631,9.94787652 1239.11029,9.67317167 1238.70399,9.46714303 C1238.29768,9.26111439 1237.84623,9.14665404 1237.39478,9.14665404 C1236.89818,9.14665404 1236.44673,9.26111439 1236.06299,9.44425096 C1235.67926,9.62738753 1235.34067,9.90209237 1235.0698,10.2225814 C1234.79893,10.5659624 1234.5732,10.9322356 1234.43777,11.3671849 C1234.27976,11.8021342 1234.21204,12.2370836 1234.21204,12.7178171 C1234.21204,13.1756585 1234.30233,13.6334999 1234.43777,14.0684492 C1234.59577,14.5033986 1234.79893,14.8925638 1235.0698,15.2130528 C1235.34067,15.5335418 1235.67926,15.8082466 1236.06299,15.9913832 C1236.4693,16.1974118 1236.92075,16.2889801 1237.41735,16.2889801 C1237.89137,16.2889801 1238.34283,16.1745198 1238.74913,15.9913832 C1239.15544,15.8082466 1239.49403,15.5335418 1239.74233,15.2130528 Z M1250.6449,8.82616505 C1251.07378,9.28400646 1251.38979,9.83341616 1251.61552,10.4972862 C1251.84124,11.1382642 1251.95411,11.8708105 1251.95411,12.6720329 L1251.95411,13.015414 C1251.95411,13.1298743 1251.95411,13.2443347 1251.93154,13.3587951 L1251.93154,13.4045792 L1244.09884,13.4045792 C1244.12141,13.7937444 1244.2117,14.1829096 1244.36971,14.5262907 C1244.52772,14.8696717 1244.75345,15.1901607 1245.04689,15.4648656 C1245.34033,15.7166783 1245.65635,15.922707 1246.04008,16.0829515 C1246.40125,16.243196 1246.80755,16.3118722 1247.23643,16.3118722 C1247.89104,16.3118722 1248.45535,16.1745198 1248.92938,15.8769228 C1249.4034,15.602218 1249.78714,15.2359449 1250.05801,14.8238876 L1250.08058,14.7781034 L1251.52523,15.945599 L1251.50266,15.9684911 C1250.98349,16.6781453 1250.35145,17.2046629 1249.62913,17.548044 C1248.90681,17.8914251 1248.11676,18.0516696 1247.23643,18.0516696 C1246.46896,18.0516696 1245.76921,17.9143171 1245.13718,17.6625044 C1244.50515,17.4106916 1243.94083,17.0444184 1243.48938,16.586577 C1243.03793,16.1287356 1242.67677,15.5564338 1242.4059,14.9154559 C1242.13502,14.2515858 1241.99959,13.5190396 1241.99959,12.7407091 C1241.99959,11.9623787 1242.13502,11.2527245 1242.38332,10.5888545 C1242.65419,9.92498445 1243.01536,9.35268268 1243.46681,8.89484126 C1243.94083,8.41410778 1244.48258,8.04783464 1245.11461,7.79602187 C1245.74664,7.54420909 1246.42382,7.40685666 1247.14614,7.40685666 C1247.86847,7.40685666 1248.54564,7.54420909 1249.13253,7.7731298 C1249.71942,8.02494257 1250.23859,8.36832364 1250.6449,8.82616505 Z M1244.09884,11.8021342 L1244.09884,11.7792422 L1249.87743,11.7792422 C1249.85486,11.412969 1249.78714,11.0466959 1249.67427,10.7262069 C1249.53884,10.4057179 1249.38083,10.108121 1249.1551,9.85630823 C1248.92938,9.60449545 1248.65851,9.39846682 1248.31992,9.26111439 C1247.98133,9.1008699 1247.59759,9.03219369 1247.14614,9.03219369 C1246.73984,9.03219369 1246.3561,9.12376197 1245.99494,9.26111439 C1245.63378,9.39846682 1245.31776,9.60449545 1245.04689,9.85630823 C1244.77602,10.108121 1244.57287,10.4057179 1244.39228,10.749099 C1244.23428,11.0924801 1244.12141,11.4358611 1244.09884,11.8021342 Z M1254.27909,2.1416804 L1256.31062,2.1416804 L1256.31062,18.0058854 L1254.27909,18.0058854 L1254.27909,2.1416804 Z M1268.97385,10.5659624 C1269.24472,11.2069404 1269.38016,11.9394867 1269.38016,12.694925 C1269.38016,13.4732554 1269.24472,14.2058017 1268.97385,14.8467797 C1268.70298,15.5106497 1268.31925,16.0600594 1267.84522,16.5407929 C1267.34863,16.9986343 1266.78431,17.3877995 1266.1297,17.6396123 C1265.4751,17.8914251 1264.75278,18.0287775 1264.00788,18.0287775 C1263.24041,18.0287775 1262.54066,17.8914251 1261.88605,17.6396123 C1261.23145,17.3877995 1260.66713,17.0215264 1260.19311,16.5407929 C1259.71908,16.0600594 1259.33535,15.4877576 1259.06448,14.8467797 C1258.79361,14.1829096 1258.65817,13.4732554 1258.65817,12.694925 C1258.65817,11.9165946 1258.79361,11.2069404 1259.06448,10.5659624 C1259.33535,9.92498445 1259.71908,9.35268268 1260.19311,8.89484126 C1260.66713,8.41410778 1261.23145,8.04783464 1261.88605,7.79602187 C1262.54066,7.54420909 1263.26298,7.40685666 1264.00788,7.40685666 C1264.77535,7.40685666 1265.4751,7.54420909 1266.1297,7.79602187 C1266.78431,8.07072672 1267.3712,8.43699985 1267.84522,8.89484126 C1268.31925,9.35268268 1268.70298,9.92498445 1268.97385,10.5659624 Z M1267.05518,14.0684492 C1267.19062,13.6334999 1267.25833,13.1756585 1267.28091,12.7178171 C1267.28091,12.2599757 1267.19062,11.8021342 1267.05518,11.3671849 C1266.89717,10.9551276 1266.69402,10.5659624 1266.42315,10.2454734 C1266.15228,9.92498445 1265.81369,9.6502796 1265.40738,9.46714303 C1265.02365,9.26111439 1264.54962,9.16954611 1264.03045,9.16954611 C1263.51128,9.16954611 1263.05983,9.28400646 1262.65352,9.46714303 C1262.24722,9.67317167 1261.90863,9.92498445 1261.63776,10.2454734 C1261.36688,10.5659624 1261.14116,10.9322356 1261.00572,11.3671849 C1260.84771,11.8021342 1260.78,12.2370836 1260.78,12.7178171 C1260.78,13.1985506 1260.87029,13.6334999 1261.00572,14.0684492 C1261.16373,14.5033986 1261.36688,14.8925638 1261.63776,15.2130528 C1261.90863,15.5335418 1262.24722,15.8082466 1262.65352,15.9913832 C1263.03726,16.1974118 1263.51128,16.2889801 1264.03045,16.2889801 C1264.54962,16.2889801 1265.00107,16.1745198 1265.40738,15.9913832 C1265.81369,15.8082466 1266.15228,15.5335418 1266.42315,15.2130528 C1266.69402,14.8696717 1266.91975,14.5033986 1267.05518,14.0684492 Z M1292.51708,16.0829515 C1292.51708,16.6552532 1292.06563,17.1130947 1291.50131,17.1130947 L1277.03227,17.1130947 C1276.46796,17.1130947 1276.01651,16.6552532 1276.01651,16.0829515 C1276.01651,15.5106497 1276.46796,15.0528083 1277.03227,15.0528083 L1291.50131,15.0528083 C1292.06563,15.0528083 1292.51708,15.5106497 1292.51708,16.0829515 Z M1285.60986,3.17182358 C1285.60986,3.74412535 1285.15841,4.20196676 1284.5941,4.20196676 L1273.75925,4.20196676 C1273.19493,4.20196676 1272.74348,3.74412535 1272.74348,3.17182358 C1272.74348,2.59952181 1273.19493,2.1416804 1273.75925,2.1416804 L1284.5941,2.1416804 C1285.15841,2.1416804 1285.60986,2.59952181 1285.60986,3.17182358 Z M1292.51708,7.47553288 C1292.51708,8.04783464 1292.06563,8.50567606 1291.50131,8.50567606 L1277.03227,8.50567606 C1276.46796,8.50567606 1276.01651,8.04783464 1276.01651,7.47553288 C1276.01651,6.90323111 1276.46796,6.44538969 1277.03227,6.44538969 L1291.50131,6.44538969 C1292.06563,6.44538969 1292.51708,6.90323111 1292.51708,7.47553288 Z M1298.99542,11.7792422 C1298.99542,12.3515439 1298.54397,12.8093854 1297.97965,12.8093854 L1280.37302,12.8093854 C1279.8087,12.8093854 1279.35725,12.3515439 1279.35725,11.7792422 C1279.35725,11.2069404 1279.8087,10.749099 1280.37302,10.749099 L1297.97965,10.749099 C1298.54397,10.749099 1298.99542,11.2069404 1298.99542,11.7792422 Z M1285.60986,20.3866608 C1285.60986,20.9589625 1285.15841,21.416804 1284.5941,21.416804 L1273.75925,21.416804 C1273.19493,21.416804 1272.74348,20.9589625 1272.74348,20.3866608 C1272.74348,19.814359 1273.19493,19.3565176 1273.75925,19.3565176 L1284.5941,19.3565176 C1285.15841,19.3565176 1285.60986,19.814359 1285.60986,20.3866608 Z" id="Combined-Shape" fill="#6A7A8E" fill-rule="nonzero"></path>
                <path d="M723.920555,15.4975962 C725.244727,16.1033654 725.833248,17.0120192 725.833248,18.0889423 C725.833248,19.4519231 724.737945,21 722.498296,21 C719.637431,21 719.130649,18.9975962 719.130649,18.0216346 L721.108733,17.6346154 C721.092385,17.71875 721.092385,17.7692308 721.092385,17.8028846 C721.092385,18.5600962 721.615515,19.1995192 722.465601,19.1995192 C723.201252,19.1995192 723.528208,18.7620192 723.528208,18.3076923 C723.528208,17.9711538 723.381077,17.6682692 722.874296,17.4326923 L721.909775,16.9951923 C720.585603,16.4230769 720.062474,15.5817308 720.062474,14.5048077 C720.062474,12.9399038 721.386646,11.5600962 723.36473,11.5600962 C725.882291,11.5600962 726.519855,13.2259615 726.585247,14.2355769 L724.574467,14.6225962 C724.574467,14.0673077 724.296554,13.3605769 723.315686,13.3605769 C722.69447,13.3605769 722.269427,13.7644231 722.269427,14.2524038 C722.269427,14.6225962 722.481948,14.8581731 722.808904,15.0096154 L723.920555,15.4975962 Z M719.670127,0.471153846 L722.073253,1.77635684e-14 L717.773782,20.7475962 L715.452394,20.7475962 L719.670127,0.471153846 Z M716.089958,1.16105769 L718.542128,0.689903846 L714.357091,20.7475962 L712.035703,20.7475962 L716.089958,1.16105769 Z M712.787702,11.8461538 L711.349096,18.9302885 C711.218313,19.5865385 711.152922,20.0913462 711.152922,20.5456731 L711.152922,20.7475962 L708.929621,20.7475962 C708.913273,20.6466346 708.913273,20.4447115 708.913273,20.3605769 C708.913273,20.2091346 708.913273,20.0913462 708.929621,19.8221154 C708.471883,20.5625 707.556406,20.9663462 706.771711,20.9663462 C704.92441,20.9663462 703.943542,19.7211538 703.943542,18.0552885 C703.943542,17.7355769 703.976237,17.3822115 704.123368,16.7427885 L705.038844,12.3173077 L707.458319,11.8461538 L706.461103,16.6586538 C706.379364,17.0625 706.346669,17.3317308 706.346669,17.5168269 C706.346669,18.3076923 706.755364,18.8461538 707.638145,18.8461538 C708.602665,18.8461538 709.191186,18.0384615 709.403707,17.0120192 L710.400923,12.3004808 L712.787702,11.8461538 Z M700.150852,11.6442308 C702.374153,11.6442308 703.518499,13.3100962 703.518499,15.3798077 C703.518499,18.6274038 701.589458,20.9663462 698.990158,20.9663462 C697.63329,20.9663462 696.685118,20.2259615 696.390858,19.5024038 L696.129293,20.7475962 L693.856948,20.7475962 L695.769641,11.6105769 L697.175552,4.8125 L699.529635,4.35817308 L697.829464,12.5697115 C698.30355,12.03125 699.169984,11.6442308 700.150852,11.6442308 Z M698.761289,18.8293269 C699.872939,18.8293269 701.164416,17.7692308 701.164416,15.7668269 C701.164416,14.4543269 700.412417,13.78125 699.333462,13.78125 C698.00929,13.78125 696.995726,15.09375 696.995726,16.7932692 C696.995726,18.0552885 697.747725,18.8293269 698.761289,18.8293269 Z M694.73973,11.8461538 L693.333819,18.8125 C693.219384,19.3341346 693.170341,19.90625 693.170341,20.4110577 C693.170341,20.4783654 693.170341,20.5793269 693.186688,20.7475962 L691.028779,20.7475962 C691.012431,20.5961538 691.012431,20.4615385 691.012431,20.3269231 C691.012431,20.1418269 691.028779,19.8725962 691.045127,19.6538462 C690.636431,20.2764423 689.884433,20.8990385 688.723739,20.8990385 C686.598525,20.8990385 685.356092,19.1322115 685.356092,16.9447115 C685.356092,13.9158654 687.268784,11.6274038 689.769998,11.6274038 C690.881649,11.6274038 691.551908,11.9975962 691.927908,12.3846154 C692.091386,12.5528846 692.20582,12.7211538 692.271212,12.8557692 L692.385646,12.3004808 L694.73973,11.8461538 Z M689.344955,18.8293269 C690.538345,18.8293269 691.584604,17.6514423 691.600952,15.6826923 C691.600952,14.5048077 690.979735,13.78125 689.949824,13.78125 C688.445826,13.78125 687.661132,15.4134615 687.661132,16.8605769 C687.661132,18.0889423 688.315044,18.8293269 689.344955,18.8293269 Z M683.590529,12.2163462 L685.535917,11.8293269 L683.688616,20.7307692 L681.367228,20.7307692 L683.116443,12.3004808 L683.590529,12.2163462 Z M685.14357,7.13461538 C685.911917,7.13461538 686.435047,7.70673077 686.435047,8.41346154 C686.435047,9.35576923 685.6667,10.0288462 684.832962,10.0288462 C684.097311,10.0288462 683.557834,9.47355769 683.557834,8.73317308 C683.557834,7.85817308 684.277137,7.13461538 685.14357,7.13461538 Z M683.116443,7.52163462 L680.795055,18.7956731 C680.664273,19.3509615 680.615229,19.9399038 680.598882,20.3605769 C680.598882,20.5288462 680.598882,20.6802885 680.615229,20.7475962 L678.490015,20.7475962 C678.473667,20.5793269 678.473667,20.4447115 678.473667,20.2932692 C678.473667,20.1081731 678.490015,19.8557692 678.506363,19.6538462 C678.097668,20.2764423 677.345669,20.8990385 676.184975,20.8990385 C674.059761,20.8822115 672.817328,19.1490385 672.817328,16.9447115 C672.817328,13.9158654 674.730021,11.6274038 677.231234,11.6274038 C678.686189,11.6274038 679.405492,12.2836538 679.683405,12.7884615 L680.664273,7.99278846 L683.116443,7.52163462 Z M676.822539,18.8293269 C678.015929,18.8293269 679.078536,17.6514423 679.078536,15.6826923 C679.078536,14.5048077 678.45732,13.78125 677.427408,13.78125 C675.92341,13.78125 675.138716,15.4134615 675.138716,16.8605769 C675.138716,18.0889423 675.77628,18.8293269 676.822539,18.8293269 Z M669.760289,11.6105769 C671.476808,11.6105769 672.424981,12.8052885 672.441329,14.3870192 C672.441329,14.6899038 672.392285,15.0096154 672.326894,15.3293269 L671.198896,20.7139423 L668.893856,20.7139423 L669.956463,15.5649038 C669.989158,15.3798077 670.005506,15.2115385 670.005506,15.0432692 C670.005506,14.2524038 669.564116,13.7307692 668.697682,13.7307692 C667.684118,13.7307692 667.07925,14.5889423 666.866728,15.5817308 L665.771426,20.7307692 L663.450038,20.7307692 L664.954036,13.3605769 C665.019427,13.0240385 665.117514,12.5865385 665.084818,12.3004808 L667.389858,11.8629808 C667.389858,12.03125 667.389858,12.4014423 667.340815,12.7548077 C667.89664,11.9302885 668.86116,11.6105769 669.760289,11.6105769 Z M662.501865,8.49759615 L665.06847,7.99278846 L662.452822,20.7307692 L659.984304,20.7307692 L662.501865,8.49759615 Z" id="Combined-Shape" fill="#6A7A8E" fill-rule="nonzero"></path>
                <path d="M0.00614497487,12.5302145 C0.00614497487,9.89274093 0.0104464573,7.25526738 2.64677169e-13,4.61779382 C2.64677169e-13,4.35185912 0.0780411809,4.28336079 0.357637538,4.28336079 C3.85986355,4.29257065 7.36249923,4.29257065 10.8655446,4.28336079 C11.124248,4.28336079 11.2250256,4.33113694 11.2194951,4.59246671 C11.2031085,5.34997766 11.2031085,6.10748862 11.2194951,6.86499957 C11.2256401,7.13150989 11.1150305,7.17180302 10.8606286,7.17122741 C8.38297472,7.16201755 5.90470635,7.17122741 3.42520899,7.15913947 C3.13700967,7.15913947 3.06695696,7.23512081 3.07064394,7.49645058 C3.08621121,8.59933127 3.08621121,9.70240383 3.07064394,10.8056683 C3.06695696,11.0531832 3.15114311,11.1038375 3.3987856,11.1032619 C5.88688593,11.0946276 8.37621525,11.1032619 10.8637011,11.0923252 C11.124248,11.0923252 11.2176516,11.1372232 11.2121212,11.4014311 C11.1961442,12.1779374 11.2010602,12.9555949 11.2225676,13.7315256 C11.2293271,13.9859479 11.0922941,13.9773137 10.9030289,13.9773137 C8.43520701,13.9742437 5.96758993,13.9742437 3.50017769,13.9773137 C3.07555992,13.9773137 3.07617442,13.9773137 3.07678892,14.3871524 C3.07678892,15.4612523 3.08907887,16.5353522 3.06880045,17.6106033 C3.06326997,17.9024407 3.16650555,17.9496413 3.44978889,17.94849 C5.92744276,17.938129 8.40509663,17.94849 10.8852085,17.9364021 C11.1537439,17.9364021 11.2311706,17.9939637 11.2250256,18.252991 C11.2053617,19.0197118 11.2127356,19.7875839 11.2213386,20.5554559 C11.2213386,20.7408044 11.1930717,20.8259956 10.9601772,20.8259956 C7.39609176,20.8190882 3.83200633,20.8190882 0.267920904,20.8259956 C0.00307248744,20.8259956 0.00122899497,20.7108723 0.00122899497,20.5301288 C0.0049159799,17.8638745 0.0049159799,15.1968526 0.00122899497,12.5290633 L0.00614497487,12.5302145 Z M39.0009429,17.3518208 C39.3127382,16.576043 39.5996351,15.8664758 39.8837027,15.1557367 C40.7393006,13.0123868 41.5933895,10.8684509 42.4459694,8.72392909 C42.5319819,8.5077191 42.6332729,8.4221726 42.8782953,8.43096162 C43.6790037,8.45205528 44.4802779,8.43916471 45.2815522,8.42568821 C45.5079008,8.4221726 45.5322333,8.49307073 45.4467867,8.69346047 C43.8465017,12.4469596 42.2484802,16.2016306 40.6527222,19.9574734 C40.4778679,20.3676279 40.296789,20.7748526 40.1338179,21.1879368 C40.0681768,21.3555141 39.9866913,21.4223107 39.8039148,21.4164514 C39.2757679,21.4019983 38.7476211,21.4019983 38.2194742,21.4164514 C38.0299072,21.4217248 37.9365384,21.3578579 37.8624092,21.1773899 C37.1465816,19.4699756 36.4200024,17.7672487 35.694555,16.062764 C34.6676866,13.6451965 33.640441,11.2278243 32.6128181,8.81064745 C32.5862221,8.74795242 32.5613238,8.68467145 32.5307667,8.62432015 C32.4509788,8.46670365 32.5058684,8.42158667 32.6643124,8.42451634 C33.1447374,8.43447723 33.6262942,8.43623504 34.1061533,8.43740691 C34.4264367,8.43740691 34.7489835,8.45205528 35.0681351,8.42275854 C35.3346606,8.39814927 35.4642452,8.49365666 35.5677998,8.74971022 C36.3390828,10.7084907 37.1222491,12.6643414 37.9014544,14.6155047 C38.2585194,15.5061258 38.6167161,16.395575 39.0009429,17.3518208 Z M59.6188155,14.7966713 L59.6188155,11.1193356 C59.6188155,10.745981 59.6188155,10.7465726 59.2538249,10.7465726 C58.8888344,10.7465726 58.5098916,10.7376973 58.1376459,10.7501228 C57.9624058,10.7560396 57.8959932,10.7128465 57.8993417,10.5093061 C57.9116197,9.80993187 57.9093873,9.10996596 57.8993417,8.41000005 C57.8993417,8.22657703 57.9551507,8.17332519 58.1225775,8.17332519 C58.531099,8.17983374 58.9407367,8.1543912 59.3503744,8.17332519 C59.5842139,8.18338387 59.6232802,8.08338874 59.6216059,7.86564786 C59.6121184,6.7716183 59.6216059,5.67640537 59.6104441,4.5829675 C59.6104441,4.3522095 59.6662531,4.2788403 59.8894889,4.28357379 C60.5960302,4.29836597 61.3025714,4.29659091 62.0102289,4.28357379 C62.2139316,4.27943198 62.2557883,4.35398456 62.254114,4.55279145 C62.2463008,5.66693837 62.254114,6.7810853 62.2446265,7.89464053 C62.2446265,8.1313154 62.3088068,8.19048411 62.5236713,8.18456724 C63.2670465,8.16681663 64.0109797,8.17628362 64.7560292,8.1632665 C64.9374083,8.1632665 64.9921011,8.21474329 64.9887525,8.4123668 C64.9764746,9.11252994 64.9764746,9.81229862 64.9887525,10.5116728 C64.9926592,10.7128465 64.929595,10.7536729 64.7543549,10.7483477 C64.0009341,10.7388807 63.2475133,10.7513061 62.4952087,10.7394724 C62.3015516,10.7394724 62.2446265,10.7903575 62.2451846,11.0004064 C62.2524398,13.2281086 62.2451846,15.4558108 62.2513236,17.6864713 C62.2513236,18.3533028 62.5861773,18.7035816 63.2106794,18.7284324 C63.740493,18.739525 64.2704372,18.7150195 64.7973278,18.6550632 C64.9552672,18.6402711 64.9876364,18.685831 64.9865202,18.8384863 C64.9816834,19.5780952 64.9816834,20.3173097 64.9865202,21.0561297 C64.9865202,21.1715087 64.9608481,21.2478364 64.8447654,21.2644036 C63.8100675,21.4099586 62.771463,21.5300711 61.7456945,21.2360026 C60.5218043,20.8857238 59.8292152,19.9668337 59.6807634,18.5669018 C59.5434734,17.2296889 59.6640207,15.8877424 59.6188155,14.7966713 Z M13.8676969,20.8213247 C13.4475636,20.8213247 13.0274303,20.8132652 12.6072971,20.8253544 C12.4045127,20.8311112 12.3793047,20.7677866 12.4286004,20.5749345 C13.0302312,18.2135028 13.6266338,15.8509199 14.217808,13.4871855 C14.9587363,10.5397136 15.697424,7.59166596 16.433871,4.64304266 C16.5005321,4.37304963 16.5985632,4.27576002 16.8792122,4.28381952 C17.6813867,4.30569529 18.4846815,4.2947574 19.2879764,4.28842494 C19.4689138,4.28842494 19.532774,4.30914936 19.4773164,4.52733136 C18.380115,8.86180377 17.2879552,13.1985789 16.200837,17.5376567 C15.9442757,18.556607 15.6787514,19.5732545 15.4356343,20.5950832 C15.3885794,20.7936921 15.3045527,20.8316869 15.1314578,20.8253544 C14.7079635,20.8149922 14.2878302,20.8213247 13.8676969,20.8213247 Z M31.7784576,12.7307752 C31.922456,13.5275448 31.8886078,14.3316467 31.9035239,15.1345265 C31.9086872,15.4033751 31.7578045,15.3654919 31.606348,15.3654919 L22.6841864,15.3654919 C22.2613705,15.3654919 22.2613705,15.3654919 22.3600466,15.7932056 C22.7358193,17.4160738 23.9669766,18.4975786 25.5509586,18.5867874 C27.1699362,18.6778294 28.5244388,18.0735309 29.6144663,16.800166 L29.8806624,16.4903791 C30.0126131,17.0268543 30.1342373,17.51567 30.2529929,18.0044857 C30.3585534,18.4376986 30.4532137,18.8757997 30.5679534,19.3035135 C30.6115545,19.4684888 30.5914751,19.5662519 30.4606718,19.6884558 C29.1646865,20.8805552 27.6466798,21.3993108 25.951974,21.4164194 C24.3421755,21.4323059 22.898176,20.9569326 21.6773452,19.8161589 C20.5637961,18.7780366 19.910927,17.4557901 19.6458782,15.9184647 C19.301659,13.9149313 19.5311385,12.0024398 20.5637961,10.2549236 C21.6125173,8.47563446 23.1442927,7.50044712 25.1017526,7.28231311 C26.6180381,7.11367169 28.0373686,7.40879417 29.2943424,8.35770767 C30.7125255,9.42699204 31.4589075,10.9441538 31.7784576,12.7307752 Z M28.6454892,12.8590893 L28.6466366,12.8590893 C28.7493287,12.8584783 28.9168487,12.9330227 28.8600525,12.6776165 C28.6919588,11.9168971 28.3936355,11.2331661 27.8067418,10.73213 C26.0386025,9.23940901 23.1081497,10.3007501 22.5476461,12.6226247 C22.4960132,12.8364816 22.5769047,12.8590893 22.7444247,12.8590893 C23.7277443,12.8560342 24.7116375,12.8590893 25.694957,12.8590893 C26.6782765,12.8590893 27.6621697,12.8633665 28.6454892,12.8590893 Z M78.8859723,12.0359626 C79.1567973,13.0555777 79.1774097,14.1008359 79.1659584,15.1479258 C79.1642407,15.3072788 79.1127095,15.3713864 78.9661319,15.3585649 C78.8997139,15.3536805 78.8327234,15.3585649 78.7657328,15.3585649 C75.7986817,15.3585649 72.8316307,15.3628387 69.8645796,15.3518488 C69.5874563,15.3506277 69.5565376,15.4306095 69.6080688,15.6937557 C69.9361507,17.3636045 71.2776792,18.5370778 72.9289673,18.5847006 C74.4771932,18.6298811 75.7803595,18.0553554 76.8321683,16.8397543 C76.9094651,16.7500038 76.9873344,16.6602532 77.0663489,16.5723343 C77.0928944,16.5518624 77.121056,16.5338856 77.1505165,16.5186061 C77.3852697,17.4808298 77.6114343,18.4229053 77.84676,19.3625387 C77.8965735,19.5627985 77.7614473,19.6348432 77.6578124,19.7288675 C76.7413333,20.5716894 75.618569,21.1185266 74.4210814,21.3053025 C73.1488337,21.5092256 71.88861,21.4597712 70.68049,20.9353104 C68.9020916,20.1623566 67.7111486,18.7776337 67.1511764,16.8324278 C66.4577957,14.4232053 66.6570496,12.0976279 68.0100295,9.9790263 C69.0486691,8.35618967 70.534485,7.48982204 72.3615517,7.28284626 C73.5954373,7.14303077 74.7789369,7.31703695 75.8857122,7.92758497 C77.4728727,8.80433192 78.4073048,10.2342354 78.8859723,12.0359626 Z M75.8994538,12.862034 L75.8994538,12.8614235 C76.1095866,12.8632551 76.1588275,12.8119691 76.1015706,12.5842347 C75.7780693,11.2575138 75.0560601,10.3838196 73.7494583,10.1194523 C72.0128574,9.76777668 70.3329408,10.8166982 69.8370963,12.5708026 C69.7758314,12.7869366 69.7867102,12.867529 70.0329148,12.8638657 C71.0062816,12.8492125 71.9796484,12.8577602 72.9530152,12.8577602 C73.9349706,12.8577602 74.9174985,12.8528758 75.8994538,12.862034 Z M56.7128879,12.5063993 C56.714063,15.281809 56.7093623,18.0566063 56.717605,20.8283415 C56.7187638,21.0806515 56.6570668,21.1553646 56.4120417,21.149853 C55.6481745,21.1357677 54.8843074,21.140667 54.1204402,21.149853 C53.9388749,21.149853 53.8830538,21.0916747 53.8889297,20.9048919 C53.9012691,20.5313261 53.8924553,20.1565356 53.8924553,19.7829699 C53.1720698,20.5472486 52.3705968,21.0928995 51.3834454,21.282132 C49.8568863,21.5748606 48.3855606,21.4333955 47.1069645,20.4278301 C45.7043868,19.3261173 45.2542928,17.8128699 45.6068469,16.060173 C45.9388353,14.3919877 47.0858112,13.5493213 48.5829909,13.1206394 C49.3251172,12.9099728 50.0925099,12.9099728 50.849326,12.823624 C51.6848791,12.7299263 52.5239578,12.6643992 53.3606862,12.5786628 C53.7232293,12.5419187 53.8619006,12.3581978 53.8930428,11.9827949 C53.9911704,10.8137179 53.4946567,10.380749 52.5310089,10.1217026 C51.7017033,9.89683734 50.8285991,9.91804885 50.0102473,10.1829429 C49.1981977,10.4413769 48.7022717,11.0464309 48.4343306,11.8627639 C48.3661701,12.0673065 48.3015352,12.1095623 48.114094,12.0060662 C47.4054603,11.6159656 46.693301,11.2295394 45.9746783,10.8620977 C45.7854743,10.7647256 45.8430581,10.6551055 45.8935909,10.5197645 C46.5217247,8.83381947 47.7027809,7.81723075 49.385639,7.44978905 C50.7829283,7.14481243 52.1849183,7.15644809 53.5669303,7.56185877 C55.3297007,8.07933917 56.4408336,9.47378044 56.6541288,11.3783533 C56.6945038,11.7528788 56.7141227,12.1295194 56.7128879,12.5063993 Z M51.2383107,18.5079472 L51.2383107,18.5103968 C52.7008225,18.2170558 53.9805938,16.9334594 53.9059698,15.3773438 C53.8930428,15.114623 53.8278203,15.0515455 53.5886712,15.0827781 C52.3964508,15.237716 51.2024677,15.3773438 50.0108349,15.5322817 C49.6971555,15.5653365 49.3929361,15.6631835 49.1159351,15.8201111 C48.6335236,16.1048784 48.3544183,16.5366224 48.3743964,17.1128935 C48.3943744,17.6891646 48.7069724,18.077428 49.1970226,18.3125906 C49.6169701,18.506066 50.0746703,18.5939617 50.5332025,18.5691874 C50.7697916,18.5806979 51.0068128,18.5601121 51.2383107,18.5079472 Z" id="Combined-Shape" fill="#6A7A8E" fill-rule="nonzero"></path>
                <g id="Group-36" transform="translate(775.055158, 2.000000)" fill="#6A7A8E">
                    <path d="M5.35781926,5.38069313 L13.4779898,5.38069313 L13.4779898,13.5008637 L18.8161244,18.8583921 L18.8161244,0.0163769595 C17.2636533,-0.0204711993 15.6355465,0.0163769595 14.1014995,0.0163769595 C9.51972182,0.0163769595 4.88849008,0.0348010389 0.282470228,0.0163769595 L0.000290906516,0.0415888576 L5.35781926,5.38069313 Z" id="Fill-136"></path>
                    <path d="M18.8206819,18.8626587 L13.4825474,13.5051303 L5.36334648,13.5051303 L5.36334648,5.38495976 L-4.88498131e-13,0.0419767329 L-4.88498131e-13,18.7860533 C-4.88498131e-13,18.8558709 -4.88498131e-13,18.8558709 0.133816998,18.8626587 L18.8138941,18.8626587 L18.8206819,18.8626587 Z" id="Fill-137"></path>
                    <path d="M81.6290417,7.50539573 C81.5398304,6.67728185 81.6329204,5.83947108 81.9015241,5.05111442 C82.0285533,4.75051102 82.2166728,4.47996796 82.4552162,4.25596994 C83.0234536,3.77112575 83.7575077,3.52579458 84.5041678,3.56846087 C86.4697261,3.56846087 86.6219672,4.79608637 86.3106972,4.89111584 C86.1070627,4.94832745 85.6542182,4.64966343 84.9618607,4.99293312 C84.1095046,5.42444445 84.083323,6.62782774 84.1667162,7.46079007 L86.0062151,7.46079007 C86.0130029,7.83702916 86.0692448,8.1929048 85.8093683,8.38975155 C85.6716726,8.49156883 85.5019771,8.53908356 85.331312,8.52453823 L84.1492618,8.52453823 L84.1492618,13.9848536 C84.1221105,14.5744241 83.7119323,15.0786621 83.1398162,15.2221759 C82.9439391,15.2900541 82.7403046,15.330781 82.5357003,15.3424173 C82.1846731,15.3424173 81.7706162,15.4102955 81.6755867,14.9642388 C81.6387386,14.6655748 81.6387386,13.0432861 81.6387386,12.6108051 C81.5495272,12.6602592 81.1548641,12.9986805 80.9134117,13.1577094 C80.0484496,13.7240074 78.2855561,14.5550303 77.2159898,14.0071564 C76.6749037,13.6590383 76.3529672,13.0549224 76.3665428,12.4110493 L76.3665428,7.79824163 C76.3655731,7.78466599 76.3665428,7.77109035 76.3675125,7.7584844 C76.3849669,7.50927449 76.6002377,7.32309432 76.8494476,7.33957902 C77.4865329,7.33957902 78.7587641,7.53060763 78.9177929,8.26272237 L78.9177929,11.8253575 C78.9177929,12.0270527 78.9876105,12.2219601 79.1146397,12.3780799 C79.6945133,13.1295884 81.1577731,11.9708108 81.6038298,11.5839051 L81.6038298,8.54199262 L80.5206879,8.54199262 C80.5148697,8.17932916 80.4615369,7.70806061 80.8397153,7.54321358 C81.0995918,7.49472916 81.3652864,7.48212321 81.6290417,7.50539573 Z M85.5230193,11.036613 L85.5249587,11.0618249 C85.5356253,10.8194028 85.5695644,10.5789201 85.6258063,10.3432858 C85.7402295,9.8400175 85.9836213,9.37456707 86.3327092,8.99444922 C86.9775519,8.33021268 87.8056658,7.87348945 88.7123245,7.68343052 C89.8827383,7.44779624 91.7988426,7.33337301 92.6318049,8.35736395 C92.7539857,8.5125141 92.8499848,8.68705801 92.9149539,8.87420786 C92.9896199,9.09529682 93.0342256,9.32705234 93.0487709,9.56171693 C93.0448922,10.5808594 92.3699891,11.4758818 91.3896341,11.7590308 C90.8126695,11.9946651 90.1784933,12.050907 89.569529,11.9180597 C89.4231061,11.8802419 89.2825012,11.8239999 89.1496539,11.752243 C88.9052925,11.6087291 88.7210517,11.3827917 88.6269919,11.1161274 C89.1700174,11.1103093 89.703346,10.9726135 90.1804327,10.7146764 C90.6497619,10.5120116 90.9154565,10.0077736 90.8165483,9.50644469 C90.5993381,8.80342061 89.569529,8.88196537 89.0730485,9.18159908 C89.0391094,9.20584129 89.0071097,9.23202288 88.9741403,9.25820447 C87.9666341,10.0863184 87.8202111,11.5728507 88.6473553,12.5813266 C88.8189902,12.7384161 89.0226247,12.8576878 89.2446834,12.9304144 C90.3297647,13.1776849 91.4681789,12.9992623 92.426231,12.4339339 C92.7636826,12.2710263 92.8393182,12.1507849 93.0623466,12.1507849 C93.154467,12.2991473 93.154467,12.4862971 93.0623466,12.6336897 C92.9964078,12.763628 92.9130146,12.8838694 92.815076,12.9905351 C92.6133809,13.2009575 92.3864738,13.3871376 92.1401729,13.5442271 C91.4798151,13.9505266 90.7205491,14.1696762 89.9447984,14.1803427 C89.227229,14.207494 88.5106293,14.1337977 87.8134233,13.9641022 C86.3947692,13.7488314 85.3911417,12.4659337 85.5230193,11.036613 Z M69.2825812,5.04238723 L69.2699753,5.02396315 C69.2699753,4.68069346 69.4988217,4.54008864 69.8488793,4.54008864 C70.5519033,4.54008864 71.8687402,4.85911612 71.831892,5.71922972 L71.831892,12.5186847 C71.9269215,12.5264422 72.0209812,12.5264422 72.115041,12.5186847 L75.0599847,12.5186847 C76.0209459,12.5186847 75.8551291,13.2954051 75.8551291,14.1351553 L69.9186968,14.1351553 C69.5793059,14.1089737 69.3087628,13.8384306 69.2825812,13.4990397 L69.2825812,5.04238723 Z M76.2143017,5.40602037 L76.213332,5.40214162 C76.2492105,5.05402349 76.43733,4.73984445 76.7282366,4.5429977 C77.0269006,4.34227221 77.3808369,4.24336399 77.7396216,4.2598487 C77.9335592,4.26566683 78.1255575,4.30445436 78.3068893,4.37427193 C78.8033697,4.53717957 79.1379122,5.00359969 79.1340335,5.52626173 C79.1340335,6.38540564 78.4407063,6.71606939 77.7279853,6.79946259 C77.3653218,6.81400791 77.0094462,6.70734219 76.7166003,6.49401074 C76.3481187,6.2641946 76.151272,5.83656202 76.2143017,5.40602037 Z" id="Combined-Shape"></path>
                    <path d="M23.6558335,14.8944137 L23.6558335,4.3807099 L27.1459496,4.3807099 L27.1459496,8.32315121 L30.6377332,8.32315121 L30.6377332,4.3807099 L34.1695372,4.3807099 L34.1578646,14.8944137 L30.6360656,14.8944137 L30.6360656,10.6864029 L27.1459496,10.6864029 L27.1459496,14.8944137 L23.6558335,14.8944137 Z M35.933211,3.71242034 L35.9218212,3.61735271 C36.5075834,3.61735271 37.0217525,3.50560655 37.5765995,3.50560655 L41.0130713,3.50560655 C42.4254091,3.47558519 43.7742894,4.09769443 44.6919836,5.20181323 C45.2191696,6.01405773 45.5201863,6.95973048 45.5559829,7.93709245 C45.5348304,8.10387776 45.5348304,8.27233093 45.5559829,8.44078411 L45.5559829,9.94185197 C45.6047964,11.3328415 45.1264239,12.690474 44.2233738,13.7278787 C43.1087984,14.5467946 41.758291,14.9554186 40.3882582,14.8870366 L37.5180233,14.8870366 C37.0006,14.8870366 36.4359903,14.7569441 35.933211,14.7569441 L35.933211,3.71242034 Z M39.2525304,12.4669817 L39.2541575,12.4236175 C41.8900875,12.4786567 42.1357823,12.1701038 42.1357823,9.14128244 C42.2480534,8.21729178 42.1064941,7.28162615 41.7290029,6.43602458 C41.3026982,5.83392959 40.2450719,5.90064371 39.2525304,5.90064371 L39.2525304,12.4669817 Z M47.3116669,14.8944137 L47.3116669,4.3807099 L55.1908938,4.3807099 L55.1908938,6.4135806 C55.1973868,6.46258448 55.1973868,6.51000759 55.1908938,6.55901148 C55.1827776,6.67282694 55.2444609,6.67282694 55.0967457,6.67282694 L50.7513212,6.67282694 L50.7513212,8.53023213 L54.872738,8.53023213 L54.872738,10.6042029 L50.7513212,10.6042029 L50.7513212,14.8944137 L47.3116669,14.8944137 Z M56.1098127,8.20663558 L56.1544751,8.21315706 C56.1544751,8.05175042 56.2008553,7.68980826 56.2334932,7.43220979 C56.2678489,7.17461132 56.2884624,6.98222765 56.3468671,6.72625954 C56.4361919,6.29421147 56.5890748,5.87683673 56.7969268,5.48391754 C57.6781508,3.71333563 59.6707818,3.49975715 61.6651307,3.50456792 C62.3007113,3.50456792 62.7627956,3.57964528 63.3382537,3.57964528 L64.8345065,3.77692006 L64.8345065,6.14095668 C64.2950602,6.15236927 63.6629152,6.06759003 62.9208319,6.06759003 C62.2508955,5.98118042 61.5706525,6.01215745 60.9127407,6.16378186 C60.6722507,6.23062704 60.4575276,6.36105664 60.2926202,6.53876698 C60.1345839,6.74582398 60.0109034,6.97733654 59.9318852,7.22189205 C59.7669778,8.26369853 59.7188798,9.31854798 59.7841557,10.3668759 C59.7996158,10.8820729 59.9542164,11.3809661 60.2342155,11.8227964 C60.3767917,11.9988764 60.5640303,12.142349 60.7753179,12.2401712 C62.1203438,12.4390763 63.4894188,12.4390763 64.832727,12.2401712 L64.832727,14.3792167 C64.8430337,14.5618182 64.8103958,14.5618182 64.6867153,14.5618182 C63.9171474,14.7150729 63.1372728,14.8275685 62.3539627,14.8944137 L61.4504075,14.8944137 L60.2118843,14.808004 C59.1983909,14.7444196 58.2312777,14.3678041 57.4617098,13.7384813 C56.9944722,13.3227369 56.6543507,12.7928666 56.4825721,12.2075638 C56.1287083,10.9016373 56.00331,9.55006053 56.1098127,8.20663558 Z" id="Combined-Shape"></path>
                </g>
                <path d="M1050.30714,2.29262597 C1050.52448,2.29262597 1050.47442,2.62388564 1050.9369,2.62388564 C1051.20173,2.62388564 1051.23296,2.49302295 1051.54484,2.49302295 C1052.44413,2.49302295 1052.77313,3.58613668 1053.3969,3.58613668 C1053.68183,3.58613668 1053.70879,3.39480939 1054.00869,3.39480939 C1054.12164,3.39480939 1054.32956,3.46002479 1054.4117,3.54683469 C1054.49513,3.6288938 1054.67268,3.7809191 1055.12147,5.01482898 C1055.17195,5.15001057 1055.10007,5.20442872 1055.03162,5.20442872 C1054.96403,5.20442872 1054.8237,5.14050899 1054.50968,4.80838554 C1054.33127,4.62008147 1054.18282,4.70732326 1053.40375,4.21453671 C1053.0371,3.9847712 1052.68457,3.65005641 1052.29311,3.50191812 C1051.89866,3.35593928 1051.24194,3.29806602 1050.99252,3.23760141 C1050.66695,3.16115687 1050.14714,2.91022875 1050.14714,2.52886983 C1050.14714,2.40275793 1050.22072,2.29262597 1050.30714,2.29262597 Z M1054.7416,2.1416804 C1054.92257,2.1416804 1055.06717,2.42759161 1055.25756,2.61805513 C1055.70335,3.0490814 1056.39515,2.7709442 1056.91923,3.3008733 C1057.05314,3.43821434 1057.16053,3.76299566 1057.16053,4.07482028 C1057.16053,4.38880435 1057.09207,4.70926677 1056.93249,4.70926677 C1056.56071,4.70926677 1056.80158,4.10116557 1056.05032,3.64984047 C1055.29692,3.1967878 1055.17199,3.17605708 1054.8631,2.86120923 C1054.55122,2.5454976 1054.5371,2.4237046 1054.5371,2.33905415 C1054.5371,2.25569937 1054.59571,2.1416804 1054.7416,2.1416804 Z M1058.14251,3.56527639 C1058.32648,3.56527639 1058.273,3.82527421 1058.48135,3.99716645 C1058.68542,4.16992247 1058.81976,4.11377676 1059.1064,4.40141554 C1059.23475,4.53011877 1059.26769,4.61649678 1059.26769,4.65234366 C1059.26769,4.68862242 1059.19668,5.14081131 1058.73291,5.14081131 C1058.6328,5.14081131 1058.55323,5.12008059 1058.48135,4.9676234 C1058.36883,4.74260868 1058.41932,4.42819272 1058.18187,4.14875986 C1057.97694,3.90733332 1057.94999,3.88530692 1057.94999,3.74494266 C1057.94999,3.60716973 1058.07791,3.56527639 1058.14251,3.56527639 Z M1058.88214,5.90236304 C1059.46698,6.06864071 1059.75148,6.30833969 1059.75148,6.66767222 C1059.75148,7.03434688 1059.60901,7.05550949 1059.48751,7.2330163 C1059.39553,7.3634471 1059.30355,7.55218305 1059.3151,8.110185 C1059.3151,8.22506776 1059.28002,8.28639614 1059.19659,8.28639614 C1059.11659,8.28639614 1059.07167,8.24191147 1059.07167,8.16114803 C1059.07167,8.10629799 1059.10632,8.06872356 1059.10632,8.01991998 C1059.10632,7.97284396 1059.12215,7.7063678 1058.94032,7.54786415 C1058.41196,7.06457918 1055.80436,6.73893408 1054.14525,6.73893408 C1052.13233,6.73893408 1050.52457,7.16952846 1050.07235,7.16952846 C1049.25392,7.16952846 1048.87401,6.7596648 1048.87401,6.45215908 C1048.87401,6.14594903 1049.05199,6.09023522 1049.05199,5.94425638 C1049.05199,5.79698187 1049.0045,5.77495548 1049.0045,5.65013925 C1049.0045,5.52402736 1049.1029,5.27309923 1049.20301,5.27309923 C1049.35147,5.27309923 1049.33949,5.44153636 1049.48195,5.69289637 C1049.66592,6.00644855 1050.04711,6.421063 1050.76757,6.421063 C1051.40888,6.421063 1051.95136,6.17488567 1052.899,5.9563493 C1054.05926,5.68857747 1054.97652,5.56030612 1055.89035,5.56030612 C1056.30877,5.56030612 1057.87632,5.57930928 1058.88214,5.90236304 Z M1059.07167,9.20195987 C1059.19659,9.20195987 1059.27274,9.23305595 1059.27274,9.3177064 C1059.27274,9.40106118 1059.14226,9.40106118 1059.0661,9.41704112 C1058.99081,9.42870215 1058.49025,9.52155851 1058.27291,9.87527646 C1058.23741,9.93228595 1058.26735,9.98627221 1058.31227,10.0074348 C1058.36319,10.0290293 1058.92877,10.3114854 1058.92877,10.5257029 C1058.92877,10.7317144 1058.49239,10.9364303 1058.36319,10.9364303 C1058.22885,10.9364303 1058.18136,10.7770629 1058.18136,10.7476944 C1058.18136,10.6898211 1058.30586,10.6220144 1058.30586,10.5637092 C1058.30586,10.5114505 1058.20104,10.4319827 1058.14243,10.4319827 C1058.07697,10.4319827 1058.05087,10.462215 1058.01494,10.6081939 C1057.98285,10.7563322 1057.85193,11.3406794 1057.82199,11.7000119 C1057.79461,12.064959 1057.6838,12.9857486 1057.6838,13.1010633 C1057.6838,13.2228563 1057.66497,13.5480695 1057.40657,13.7311909 C1057.15116,13.9095615 1056.92484,14.0386966 1056.92484,14.0386966 C1056.92484,14.0386966 1056.829,14.1021844 1056.79521,14.1021844 C1056.76012,14.1021844 1056.6767,14.0158064 1056.5753,13.9315879 C1056.4692,13.8508244 1056.35968,13.8426185 1056.28994,13.8426185 C1056.15646,13.8426185 1055.89592,14.0520852 1055.70297,14.0520852 C1055.51087,14.0520852 1055.11471,13.836572 1055.11471,13.7134834 C1055.11471,13.6741814 1055.19257,13.6383345 1055.21311,13.6383345 C1055.29696,13.6383345 1055.44798,13.7467389 1055.63537,13.7467389 C1055.81891,13.7467389 1055.98533,13.5783018 1056.22791,13.5783018 C1056.36781,13.5783018 1056.68654,13.6499955 1056.9381,13.6499955 C1057.19308,13.6499955 1057.29148,13.5843483 1057.33255,13.5096313 C1057.37405,13.432323 1057.45748,13.3329882 1057.45748,13.0388711 C1057.45748,12.748641 1057.27052,11.7634998 1057.27052,11.1666277 C1057.27052,10.5637092 1057.38004,10.0437136 1057.67909,9.74355 C1057.97686,9.44295452 1058.61218,9.20195987 1059.07167,9.20195987 Z M1059.43917,10.9175999 C1059.50847,10.9175999 1059.58506,11.0104563 1059.58506,11.2544742 C1059.58506,11.5010834 1059.41264,13.1435613 1058.9754,14.2820234 C1058.54031,15.4178943 1058.4188,15.426964 1058.03547,16.0804136 C1057.65642,16.7355908 1057.35951,17.4279106 1056.94623,17.8446845 C1056.78708,18.0040519 1056.5522,18.1988343 1055.9849,18.1988343 C1055.42146,18.1988343 1054.6103,18.0770414 1053.69903,17.7043202 C1052.78776,17.3363499 1051.88248,16.7895771 1051.33743,16.2415086 C1051.25743,16.1581538 1051.30192,16.0804136 1051.44054,16.1581538 C1051.58087,16.2333027 1052.31972,16.8133311 1053.73197,17.2447892 C1054.76474,17.5605008 1055.04754,17.5626603 1055.48007,17.5626603 C1055.89634,17.5626603 1056.34128,17.6386729 1056.86451,17.1134946 C1057.3856,16.5865888 1057.82199,15.6968953 1058.00937,15.3539746 C1058.19719,15.0132133 1058.56726,14.4146137 1058.91979,13.30552 C1059.2736,12.1968583 1059.33606,11.5835744 1059.37243,11.1033126 C1059.3767,11.0000909 1059.38355,10.9175999 1059.43917,10.9175999 Z M1055.90503,14.5212042 C1056.11038,14.5212042 1056.27296,14.8097067 1056.49243,14.8097067 C1056.71148,14.8097067 1056.7748,14.5639613 1056.90871,14.5639613 C1057.0362,14.5639613 1057.07128,14.8485768 1057.11877,14.9435926 C1057.16626,15.0468144 1057.19535,15.0969136 1057.19535,15.1236908 C1057.19535,15.1521955 1057.14529,15.18977 1057.09224,15.18977 C1057.04176,15.18977 1056.93823,15.0969136 1056.70335,15.0969136 C1056.53137,15.0969136 1056.39489,15.2105007 1056.38291,15.2381416 C1056.37435,15.2649188 1056.33799,15.2571448 1056.30547,15.2364141 C1056.2336,15.1841554 1056.08343,14.9427289 1055.83358,14.9427289 C1055.7001,14.9427289 1055.52769,15.0304025 1055.34115,15.1388069 C1055.15719,15.2571448 1055.01729,15.3020614 1054.85386,15.3020614 C1054.71097,15.3020614 1054.51845,15.2441881 1054.51845,15.1448534 C1054.51845,15.0882758 1054.59545,15.0524289 1054.65792,15.0524289 C1054.80295,15.0524289 1054.94328,15.0856845 1055.26628,14.8999717 C1055.48619,14.7678134 1055.7262,14.5212042 1055.90503,14.5212042 Z M1055.27279,15.5019833 C1055.38274,15.5019833 1055.56071,15.7209515 1056.10363,15.7209515 C1056.62899,15.7209515 1056.77146,15.4743423 1056.88355,15.4743423 C1056.95072,15.4743423 1056.96441,15.546468 1056.96441,15.5741089 C1056.96441,15.6000223 1056.76034,16.280681 1056.20716,16.280681 C1055.88629,16.280681 1055.54018,16.002112 1055.41483,15.8760001 C1055.29118,15.7503201 1055.20134,15.6267995 1055.20134,15.5741089 C1055.20134,15.518827 1055.24541,15.5019833 1055.27279,15.5019833 Z M1054.3296,9.71577947 C1054.70695,9.71577947 1055.54035,9.80042992 1055.54035,10.0219895 C1055.54035,10.1446463 1055.166,10.0297635 1054.8785,10.0297635 C1054.58715,10.0297635 1054.56063,10.0457435 1054.56063,10.0669061 C1054.56063,10.0885006 1054.56662,10.102753 1054.58972,10.1239156 C1054.61667,10.1446463 1054.80706,10.354113 1054.80706,10.4111225 C1054.80706,10.6365691 1054.22864,10.8663346 1054.0913,10.8663346 C1054.01772,10.8663346 1053.86242,10.7834117 1053.86242,10.684077 C1053.86242,10.6123832 1054.16617,10.5372344 1054.16617,10.4651087 C1054.16617,10.389528 1053.99077,10.2405259 1053.83076,10.2405259 C1053.66947,10.2405259 1053.17961,10.5873336 1053.11501,10.5873336 C1053.04741,10.5873336 1053.03244,10.5428489 1053.03244,10.4897264 C1053.03244,10.4387634 1053.0765,10.3454752 1053.0765,10.2979673 C1053.0765,10.1385998 1052.96997,10.1563073 1052.96997,10.0297635 C1052.96997,9.96152491 1053.05597,9.84491459 1053.53984,9.77926731 C1054.02371,9.71232435 1054.14179,9.71577947 1054.3296,9.71577947 Z M1054.10337,8.649918 C1054.49226,8.649918 1055.31198,8.71340584 1055.4399,8.73888735 C1055.56996,8.76350509 1055.59648,8.82267402 1055.59648,8.85938468 C1055.59648,8.92330441 1055.55498,8.93151032 1055.40396,8.93151032 C1055.12459,8.93151032 1054.41739,8.93323788 1053.6995,9.15609315 C1052.57218,9.50808354 1052.41217,9.84193455 1052.22393,9.84193455 C1052.16789,9.84193455 1052.07933,9.77067269 1052.07933,9.69466004 C1052.07933,9.62383007 1052.19227,9.44934649 1052.19227,9.32496216 C1052.19227,9.23124202 1052.09986,9.13233919 1052.09986,9.0757616 C1052.09986,8.86802248 1053.05349,8.649918 1054.10337,8.649918 Z M1064.06122,8.29900733 C1064.63708,8.29900733 1064.86768,8.86780653 1064.86768,9.54501014 C1064.86768,9.65039131 1064.81762,9.82703435 1064.7235,9.82703435 C1064.58959,9.82703435 1064.765,9.44913055 1064.42316,9.44913055 C1064.33974,9.44913055 1064.18016,9.54069124 1064.04026,9.68019173 C1063.89779,9.82098788 1063.05541,10.967656 1062.44319,12.8709954 C1062.13815,13.823313 1062.00082,14.4197532 1062.00082,14.9293834 C1062.00082,15.2658258 1062.09879,15.5228004 1062.09879,15.6407064 C1062.09879,15.8493093 1061.87974,15.7136958 1061.84466,15.6519355 C1061.76081,15.5037972 1061.60337,15.0857276 1061.60337,14.5212473 C1061.60337,13.9563352 1061.84466,12.5323936 1062.28061,11.0907446 C1062.51463,10.303841 1063.1876,8.29900733 1064.06122,8.29900733 Z M1062.38744,17.4946376 C1062.45761,17.4946376 1062.51707,17.5304845 1062.51707,17.5732416 C1062.51707,17.6470948 1062.23642,17.8863619 1062.11492,18.0189521 C1061.91726,18.2284188 1061.86164,18.5700438 1061.69608,18.5700438 C1061.64174,18.5700438 1061.60965,18.5074198 1061.60965,18.4590481 C1061.60965,18.4106764 1061.63062,18.3670555 1061.63062,18.3320724 C1061.63062,18.164931 1061.41713,18.2072562 1061.41713,18.0759616 C1061.41713,17.9705805 1061.72303,17.7675921 1061.85523,17.6833736 C1061.98657,17.6017463 1062.2715,17.4946376 1062.38744,17.4946376 Z M1062.15479,18.855264 C1062.24463,18.855264 1062.3118,18.8846326 1062.3118,18.9226389 C1062.3118,19.0072893 1061.97639,19.2072544 1061.91221,19.2729017 C1061.84718,19.3398447 1061.49637,19.8041265 1061.44246,20.0684432 C1061.38642,20.3310324 1061.30385,20.4156828 1061.22898,20.4156828 C1061.0694,20.4156828 1061.16737,20.1522299 1061.04843,20.0684432 C1060.96287,20.0049554 1060.73655,20.0343239 1060.73655,19.8399734 C1060.73655,19.7138615 1060.94404,19.5104413 1061.13657,19.3363896 C1061.32994,19.1627698 1061.73424,18.855264 1062.15479,18.855264 Z M1060.79306,16.3386407 C1060.87948,16.3386407 1060.94409,16.3831254 1060.98559,16.4582742 C1061.03051,16.5321274 1061.01083,16.5800672 1061.08399,16.6487378 C1061.15543,16.7243185 1061.41726,16.7631886 1061.41726,16.8893005 C1061.41726,17.0123892 1061.27693,17.0123892 1061.20848,17.0629203 C1061.13618,17.1134515 1060.94922,17.193783 1060.80504,17.4460068 C1060.66301,17.6982306 1060.57958,18.0281946 1060.5522,18.4808154 C1060.52268,18.9321405 1060.37807,19.3752597 1060.14961,19.7531635 C1059.90918,20.1617315 1059.54424,20.4783069 1059.34145,20.8138854 C1059.17332,21.0993648 1059.2315,21.416804 1059.05609,21.416804 C1058.88796,21.416804 1058.861,20.9343828 1058.861,20.7668094 C1058.861,20.5979404 1058.90293,20.0269818 1059.34145,19.6093441 C1059.82875,19.1476536 1060.21978,19.1269229 1060.21978,18.3806169 C1060.21978,17.9137437 1060.16416,17.7664692 1060.16416,17.4822856 C1060.16416,17.193783 1060.26213,16.3386407 1060.79306,16.3386407 Z M1041.5914,6.06872709 C1041.87847,6.06872709 1041.56016,6.18663308 1042.01494,6.64486843 C1042.22886,6.86038156 1042.35421,6.9541017 1042.85519,6.9541017 C1043.15467,6.9541017 1043.58849,6.88413552 1044.67773,6.39350841 C1045.10727,6.19829411 1045.79607,5.98839554 1046.29491,5.98839554 C1046.93237,5.98839554 1047.43079,6.30108394 1047.7846,6.56064986 C1048.13841,6.82496658 1048.55982,7.19034556 1048.74635,7.33762007 C1048.93246,7.48446269 1049.21183,7.65246792 1049.31878,7.69392937 C1049.42317,7.73668648 1049.44413,7.79542353 1049.41076,7.88266532 C1049.38124,7.96256498 1049.25717,8.15216471 1049.22765,8.19448994 C1049.19428,8.2355195 1049.06936,8.29900733 1048.99791,8.32923964 C1048.92433,8.36249517 1048.64538,8.47608226 1048.30141,8.7391033 C1047.96215,9.00082867 1047.39057,9.31481274 1046.69878,9.31481274 C1046.00099,9.31481274 1044.93528,9.0301972 1044.34488,9.0301972 C1044.09845,9.0301972 1043.73309,9.16753823 1043.47468,9.42839983 C1043.37671,9.52730265 1043.29457,9.71560671 1043.22526,9.781254 C1043.15809,9.85122019 1042.93477,9.99460769 1042.85519,9.99460769 C1042.77134,9.99460769 1042.62631,9.94062143 1042.62631,9.86028988 C1042.62631,9.70092245 1042.96771,9.63743461 1042.96771,9.36577577 C1042.96771,9.09368503 1042.88428,9.08331967 1042.88428,8.95807156 C1042.88428,8.83195966 1042.98482,8.60824061 1043.14184,8.44714562 C1043.48153,8.10638437 1044.35643,7.9008047 1045.14278,7.9008047 C1045.71264,7.9008047 1046.82071,8.15216471 1047.5771,8.15216471 C1047.89755,8.15216471 1048.14697,8.10336114 1048.292,8.03814574 C1048.49436,7.94615316 1048.44858,7.8355893 1048.3566,7.8355893 C1048.27446,7.8355893 1048.28344,7.87618697 1048.06654,7.87618697 C1047.87059,7.87618697 1047.40768,7.76303178 1047.01323,7.49871506 C1046.62134,7.23310268 1045.99158,6.87290637 1045.38578,6.87290637 C1044.77527,6.87290637 1044.34189,7.0888514 1044.15535,7.16400027 C1043.70657,7.33762007 1042.66224,7.94269804 1042.10436,7.94269804 C1041.54562,7.94269804 1040.89618,7.66456084 1040.89618,7.1842991 C1040.89618,6.70187791 1041.36764,6.73902046 1041.36764,6.45224546 C1041.36764,6.40214621 1041.34454,6.36975446 1041.34454,6.31231308 C1041.34454,6.25616738 1041.40101,6.06872709 1041.5914,6.06872709 Z M1048.45902,10.1750514 C1048.5801,10.1750514 1048.56769,10.3093692 1048.64598,10.3970428 C1048.72256,10.4898992 1048.75508,10.3750164 1048.86503,10.4955138 C1048.9784,10.6151473 1048.92236,10.6786352 1048.99851,10.7477376 C1049.0721,10.8189994 1049.19488,10.8103616 1049.19745,10.8729857 C1049.21799,11.130824 1049.09991,11.5406877 1049.09991,12.1686558 C1049.09991,12.6113431 1049.17606,13.1179502 1049.32837,13.5636607 C1049.38954,13.7493734 1049.25735,13.782629 1049.19232,13.6534938 C1048.74053,12.8022386 1048.33367,11.5549401 1048.33367,10.5793004 C1048.33367,10.3478074 1048.36918,10.1750514 1048.45902,10.1750514 Z M1047.87628,11.1071565 C1047.93276,11.1071565 1047.96228,11.1460266 1047.96228,11.2116739 C1047.96228,11.2803444 1047.76376,11.9363854 1047.46685,12.3259502 C1047.17294,12.7129237 1046.70746,13.2229858 1046.53804,13.2229858 C1046.46061,13.2229858 1046.46061,13.1309933 1046.44649,13.0998972 C1046.42852,13.0675054 1046.37205,12.994516 1046.48542,12.9012278 C1046.60051,12.8075076 1046.61548,12.7556808 1046.61548,12.6947843 C1046.61548,12.6321602 1046.565,12.5479417 1046.565,12.4926598 C1046.565,12.4404011 1046.60906,12.3173124 1046.68222,12.2728277 C1046.7541,12.2322301 1047.20545,12.0024645 1047.45744,11.6940951 C1047.71071,11.3852937 1047.78687,11.1071565 1047.87628,11.1071565 Z M1048.33115,14.5999809 C1048.95149,14.9126693 1049.51494,15.3125995 1049.51494,15.927179 C1049.51494,16.4333542 1049.10294,16.8751777 1048.48816,17.2522177 C1048.35682,17.3325493 1048.22462,17.4072663 1048.08771,17.4737773 C1048.0522,17.7553696 1048.01883,18.009321 1047.98974,18.213605 C1047.86781,19.1335308 1047.60898,20.4507955 1047.46394,20.4507955 C1047.31934,20.4507955 1047.30693,19.7710005 1047.28597,19.4781791 C1047.27356,19.3011041 1047.24404,18.5634359 1047.22094,17.9194879 C1047.11441,17.9829757 1047.02157,18.0551013 1046.94456,18.1289545 C1046.61813,18.4593504 1046.54027,18.7133018 1046.54027,18.94825 C1046.54027,19.1749922 1046.72808,19.5438264 1046.72808,19.7623627 C1046.72808,19.9821948 1046.57364,20.3462781 1046.38668,20.3462781 C1046.23009,20.3462781 1046.35416,20.1489043 1046.35416,19.9606003 C1046.35416,19.4656543 1045.72227,19.4976141 1045.72227,18.779381 C1045.72227,18.5824391 1045.75435,18.4144339 1046.0457,18.1207486 C1046.24421,17.9194879 1046.84189,17.5873644 1047.20254,17.3960371 C1047.19784,17.2094606 1047.19441,17.0544121 1047.19441,16.9576687 C1047.19441,16.6592327 1047.25688,15.8075455 1047.31292,15.1445943 C1046.96339,15.1303419 1046.59204,15.1385478 1046.27202,14.8133346 C1046.14025,14.6841995 1046.02474,14.4803474 1046.02474,14.3460296 C1046.02474,14.2073928 1046.12571,14.0938058 1046.65321,14.0938058 C1046.84189,14.0938058 1047.08104,14.1115133 1047.41945,14.2168944 C1047.51443,13.6649389 1047.74888,12.619765 1047.96236,12.619765 C1048.10483,12.619765 1048.33371,13.2986962 1048.33371,14.3628733 C1048.33371,14.4406135 1048.33115,14.5166261 1048.33115,14.5999809 Z M1048.14076,16.9853097 C1048.32772,16.8868387 1048.82015,16.5750141 1048.82015,16.1219615 C1048.82015,15.7436258 1048.59126,15.5613682 1048.28965,15.4210039 C1048.25328,15.9306342 1048.19724,16.481294 1048.14076,16.9853097 Z M1149.83196,6.74859503 L1154.09465,17.2786856 L1151.76887,17.2786856 L1151.01598,15.2587058 L1146.62584,15.2587058 L1145.89057,17.2786856 L1143.56456,17.2786856 L1147.75111,6.74859503 L1149.83196,6.74859503 Z M1147.33648,13.3001496 L1150.27935,13.3001496 L1148.7912,9.31980694 L1147.33648,13.3001496 Z M1106.79582,7.25916814 C1108.3861,8.03372178 1109.34155,9.64741283 1109.34177,12.0126241 C1109.34177,14.3803194 1108.3861,15.9931072 1106.79582,16.7681125 C1106.11936,17.0948703 1105.27886,17.2786856 1103.85262,17.2786856 L1100.12794,17.2786856 L1100.12794,6.74859503 L1103.85262,6.74859503 C1105.27864,6.74859503 1106.11936,6.93308783 1106.79582,7.25916814 Z M1105.97931,14.9112161 C1106.91076,14.3195746 1107.23203,13.1358398 1107.23203,12.0130758 C1107.23203,10.8918924 1106.91076,9.70770607 1105.97931,9.11651615 C1105.60013,8.87150428 1104.92522,8.70778668 1104.08383,8.70778668 L1102.2216,8.70778668 L1102.2216,15.3203972 L1104.08383,15.3203972 C1104.92522,15.3203972 1105.59991,15.1564538 1105.97931,14.9112161 Z M1118.86259,6.74859503 L1118.44559,8.70823831 L1112.73169,8.70823831 L1112.73169,10.8914408 L1117.63885,10.8914408 L1117.63885,12.8510841 L1112.73169,12.8510841 L1112.73169,15.3208489 L1118.6011,15.3208489 L1119.21373,17.2786856 L1110.65803,17.2786856 L1110.65803,6.74859503 L1118.86259,6.74859503 Z M1140.27391,6.74859503 L1142.2483,6.74859503 L1142.2483,17.2786856 L1140.27391,17.2786856 L1140.27391,6.74859503 Z M1162.01317,15.3205811 L1162.65035,17.2786856 L1154.75278,17.2786856 L1154.75278,6.74859503 L1156.90933,6.74859503 L1156.90933,15.3205811 L1162.01317,15.3205811 Z M1129.74382,6.74859503 L1129.74382,17.2786856 L1127.77647,17.2786856 L1122.03579,9.85019684 L1122.03579,17.2786856 L1119.87186,17.2786856 L1119.87186,6.74859503 L1122.24173,6.74859503 L1127.57075,13.5034705 L1127.57075,6.74859503 L1129.74382,6.74859503 Z M1076.37993,7.09522472 C1077.71866,7.62612139 1078.40963,8.74843381 1078.40963,10.2587005 C1078.40963,11.7892907 1077.71866,12.9111515 1076.37993,13.442274 C1075.76457,13.6866084 1075.09093,13.7882263 1073.50785,13.7882263 L1071.33506,13.7882263 L1071.33506,17.2786856 L1069.1958,17.2786856 L1069.1958,6.74859503 L1073.50785,6.74859503 C1075.09093,6.74859503 1075.76479,6.84998703 1076.37993,7.09522472 Z M1075.46172,11.6262506 C1076.02601,11.3807871 1076.25326,10.8695365 1076.25349,10.2794757 C1076.25349,9.68715669 1076.02624,9.15626001 1075.46172,8.91169978 C1075.17553,8.7886293 1074.84636,8.70710923 1073.73578,8.70710923 L1071.33506,8.70710923 L1071.33506,11.8299379 L1073.73578,11.8299379 C1074.84636,11.8299379 1075.17575,11.748192 1075.46172,11.6262506 Z M1085.81219,12.9524761 C1086.85861,13.7484824 1087.6685,15.4224667 1088.28159,17.2786856 L1085.87007,17.2786856 C1085.16655,15.1770032 1084.51218,14.1355334 1083.60511,13.7484824 C1083.27028,13.60554 1082.91055,13.5443435 1082.37849,13.5443435 L1081.13636,13.5443435 L1081.13636,17.2786856 L1079.06776,17.2786856 L1079.06776,6.74859503 L1083.92421,6.74859503 C1085.04402,6.74859503 1085.65755,6.91231263 1086.14702,7.15664705 C1087.29239,7.72819085 1087.8642,8.83040552 1087.8642,10.0145919 C1087.8642,11.6461225 1087.05519,12.5446499 1085.81219,12.9111515 L1085.81219,12.9524761 Z M1085.06019,11.4008848 C1085.53437,11.1572279 1085.77178,10.6875277 1085.77178,10.1369849 C1085.77178,9.60495916 1085.53437,9.13616226 1085.06019,8.89069876 C1084.83063,8.76898319 1084.51197,8.70733504 1083.88337,8.70733504 L1081.13615,8.70733504 L1081.13615,11.5869584 L1083.88337,11.5869584 C1084.51197,11.5869584 1084.83063,11.5237295 1085.06019,11.4008848 Z M1139.61578,6.74859503 L1138.98836,8.70823831 L1135.89152,8.70823831 L1135.89152,17.2786856 L1133.77471,17.2786856 L1133.77471,8.70823831 L1130.40195,8.70823831 L1130.40195,6.74859503 L1139.61578,6.74859503 Z M1094.20935,17.2786856 C1092.16739,17.2786856 1090.46882,16.4643322 1089.84063,14.7749447 C1089.69822,14.3981084 1089.59785,13.9021091 1089.59785,12.9679332 L1089.59785,6.74859503 L1091.72319,6.74859503 L1091.72319,12.9477063 C1091.72319,13.6028826 1091.7992,13.941024 1091.92416,14.219364 C1092.30913,15.0939584 1093.21251,15.4721139 1094.20912,15.4721139 C1095.19567,15.4721139 1096.108,15.0941783 1096.48491,14.219364 C1096.60988,13.9412438 1096.69439,13.6028826 1096.69439,12.9477063 L1096.69439,6.74859503 L1098.81168,6.74859503 L1098.81168,12.9679332 C1098.81168,13.9021091 1098.71152,14.3981084 1098.5689,14.7749447 C1097.94071,16.4643322 1096.25063,17.2786856 1094.20935,17.2786856 Z" id="Combined-Shape" fill="#6A7A8E" fill-rule="nonzero"></path>
            </g>
        </g>
    </g>
</svg>