<svg xmlns="http://www.w3.org/2000/svg" width="43" height="38" viewBox="0 0 43 38">
    <g fill="#001033" fill-rule="evenodd">
        <path d="M21.486 27.797l-7.944-14.128a1.63 1.63 0 0 1 .011-1.616L20.065.816c.632-1.088 2.21-1.088 2.842 0l19.728 34.038c.631 1.09-.158 2.45-1.42 2.45h-13.27a1.64 1.64 0 0 1-1.421-.817l-5.038-8.69z" opacity=".5"/>
        <path d="M29.524 13.11l-2.032-3.553-5-8.739a1.612 1.612 0 0 0-2.806 0L.22 34.851c-.623 1.09.156 2.453 1.404 2.453h13.092c.579 0 1.114-.31 1.403-.817l9.86-17.224 3.546-6.152z"/>
    </g>
</svg>
