<svg xmlns="http://www.w3.org/2000/svg" width="31" height="27" viewBox="0 0 31 27">
    <g fill="#123399" fill-rule="evenodd">
        <path d="M15.026 19.301l.942-2.07c-.199-.355.389-.802.592-1.154l.406-.734c.446-.767 3.39-6.873 3.835-6.106l9.237 15.32a1.15 1.15 0 0 1-1 1.726h-9.35c-.413 0-.794-.22-1-.576l-3.662-6.406z" opacity=".5"/>
        <path d="M20.8 9.237l-1.43-2.504L15.846.576a1.136 1.136 0 0 0-1.977 0L.155 24.554c-.44.769.11 1.729.988 1.729h9.225c.407 0 .784-.22.988-.576l6.947-12.135L20.8 9.237z"/>
    </g>
</svg>
