<!-- <svg xmlns="http://www.w3.org/2000/svg" width="310" height="62" viewBox="0 0 310 62"> -->
    <!-- <g fill="#123399" fill-rule="evenodd">
        <path d="M30.053 38.602l1.883-4.14c-.398-.71.777-1.604 1.184-2.307l.813-1.47c.89-1.533 6.778-13.745 7.669-12.21l18.475 30.638c.889 1.535-.223 3.452-2.002 3.452H39.377a2.31 2.31 0 0 1-2.002-1.151l-7.322-12.812z" opacity=".5"/>
        <path d="M41.602 18.474l-2.864-5.008-7.044-12.313a2.272 2.272 0 0 0-3.954 0L.31 49.108c-.88 1.537.219 3.457 1.977 3.457h18.448c.816 0 1.57-.437 1.977-1.151l13.894-24.27 4.996-8.67zM89.811 37.947l-3.351-8.81-3.352 8.81h6.703zm3.204 8.511h-13.11l-2.319 6.107H65.758L80.84 17.522h11.435l15.084 35.043H95.332l-2.317-6.107zM116.776 51.601c-2.942-1.541-5.247-3.695-6.915-6.463-1.668-2.766-2.502-5.908-2.502-9.42 0-3.513.834-6.655 2.502-9.421 1.668-2.768 3.973-4.924 6.915-6.463 2.94-1.543 6.244-2.312 9.913-2.312 3.37 0 6.376.596 9.019 1.789 2.644 1.193 4.825 2.917 6.543 5.17l-7.386 6.613c-2.147-2.718-4.674-4.077-7.582-4.077-2.446 0-4.411.787-5.898 2.36-1.486 1.577-2.23 3.69-2.23 6.34 0 2.651.744 4.766 2.23 6.339 1.487 1.574 3.452 2.36 5.898 2.36 2.908 0 5.435-1.357 7.582-4.075l7.386 6.612c-1.718 2.254-3.899 3.976-6.543 5.17-2.643 1.193-5.65 1.79-9.02 1.79-3.668 0-6.971-.77-9.912-2.312M159.444 28.105c-1.188.714-2.135 1.727-2.838 3.04-.704 1.31-1.056 2.846-1.056 4.606 0 1.76.352 3.297 1.056 4.607.703 1.312 1.65 2.325 2.838 3.04 1.19.714 2.521 1.07 3.996 1.07 1.473 0 2.803-.356 3.994-1.07 1.187-.715 2.135-1.728 2.839-3.04.703-1.31 1.055-2.846 1.055-4.607 0-1.76-.352-3.295-1.055-4.606-.704-1.313-1.652-2.326-2.839-3.04-1.19-.714-2.52-1.07-3.994-1.07-1.475 0-2.807.356-3.996 1.07zm25.75 29.462a12.005 12.005 0 0 1-4.47 3.312c-1.743.748-3.67 1.121-5.778 1.121-2.111 0-4.003-.257-5.678-.772-1.676-.515-3.35-1.378-5.025-2.59-1.676-1.213-3.585-2.932-5.728-5.155-2.948-.599-5.544-1.735-7.788-3.413a17.715 17.715 0 0 1-5.25-6.2c-1.256-2.457-1.884-5.163-1.884-8.119 0-3.487.854-6.616 2.562-9.39 1.709-2.77 4.07-4.938 7.085-6.499 3.014-1.56 6.413-2.34 10.2-2.34 3.784 0 7.185.78 10.198 2.34 3.016 1.561 5.377 3.728 7.085 6.5 1.708 2.773 2.562 5.902 2.562 9.39 0 3.819-1.021 7.196-3.064 10.135-2.043 2.94-4.807 5.105-8.29 6.5.502.531 1.012.904 1.532 1.12.52.217 1.097.325 1.733.325 1.74 0 3.367-.748 4.874-2.242l5.125 5.977zM192.307 49.49c-2.953-2.947-4.428-7.08-4.428-12.401V17.522h11.61v19.212c0 2.61.45 4.505 1.353 5.692.9 1.186 2.205 1.778 3.91 1.778 1.706 0 3.008-.592 3.91-1.778.903-1.187 1.354-3.083 1.354-5.692V17.522h11.413v19.567c0 5.32-1.476 9.454-4.428 12.402-2.951 2.947-7.068 4.422-12.347 4.422-5.28 0-9.397-1.475-12.347-4.422M226.797 52.565h12.077V17.522h-12.077zM263.942 27.71c-.8-.718-2-1.078-3.6-1.078h-4.3v8.212h4.3c1.6 0 2.8-.36 3.6-1.076.8-.718 1.2-1.728 1.2-3.03 0-1.302-.4-2.31-1.2-3.028zm-4.699 16.043h-3.2v8.812h-11.8V17.522h16.85c3.232 0 6.049.534 8.449 1.6 2.4 1.07 4.25 2.604 5.55 4.606 1.3 2.004 1.95 4.34 1.95 7.01 0 2.503-.568 4.689-1.7 6.558-1.133 1.87-2.767 3.355-4.9 4.455l7.35 10.814h-12.6l-5.949-8.812zM310 43.654v8.911h-28.182V17.522h27.553v8.911h-16.32v4.105h14.335v8.51h-14.334v4.606z"/>
    </g> -->
<!-- </svg> -->

<svg version="1.0" xmlns="http://www.w3.org/2000/svg"
 width="500.000000pt" height="500.000000pt" viewBox="0 0 500.000000 500.000000"
 preserveAspectRatio="xMidYMid meet">
<metadata>
Created by potrace 1.16, written by Peter Selinger 2001-2019
</metadata>
<g transform="translate(0.000000,500.000000) scale(0.100000,-0.100000)"
fill="#000000" stroke="none">
<path d="M2162 3057 l-242 -242 245 -245 245 -245 60 60 60 61 -181 183 -181
184 182 182 182 183 -44 43 c-92 90 -52 110 -326 -164z"/>
<path d="M2529 2158 c-1 -29 -1 -65 -1 -79 0 -26 0 -27 -62 -22 -60 5 -63 4
-89 -27 -39 -46 -38 -117 1 -161 23 -26 36 -32 70 -32 23 0 48 6 56 12 10 8
16 9 21 1 3 -5 22 -10 41 -10 l34 0 0 185 0 185 -35 0 -35 0 -1 -52z"/>
<path d="M1580 2155 c0 -34 1 -35 40 -35 l40 0 0 -140 0 -140 45 0 c25 0 44 3
44 8 -1 4 -1 67 0 140 l1 132 40 0 c39 0 40 1 40 35 l0 35 -125 0 -125 0 0
-35z"/>
<path d="M1860 1950 l0 -110 34 0 34 0 4 71 c4 77 15 93 60 85 23 -5 30 0 42
23 9 16 12 31 9 35 -11 11 -79 6 -92 -6 -11 -10 -14 -10 -18 0 -3 6 -20 12
-39 12 l-34 0 0 -110z"/>
<path d="M2089 2030 c-24 -24 -29 -37 -29 -78 0 -87 71 -139 146 -107 19 8 34
10 34 4 0 -5 16 -9 35 -9 l35 0 0 109 0 109 -96 0 c-93 1 -98 0 -125 -28z"/>
<path d="M2674 2026 c-44 -44 -47 -99 -9 -145 48 -56 144 -62 189 -12 24 27 6
36 -69 36 -49 0 -60 3 -63 18 -3 15 6 17 76 17 l80 0 -9 38 c-12 55 -49 82
-111 82 -44 0 -54 -4 -84 -34z"/>
<path d="M2882 2051 c2 -5 28 -54 58 -110 47 -88 57 -101 80 -101 22 0 32 13
79 101 l53 101 17 -29 c9 -15 31 -53 48 -83 l31 -55 -34 -65 c-18 -36 -33 -69
-34 -73 0 -5 18 -7 41 -5 l41 3 85 163 85 162 -45 0 -44 0 -25 -57 -24 -57
-33 57 -32 57 -79 0 -78 0 -23 -55 c-12 -30 -26 -55 -30 -55 -4 0 -17 25 -29
55 l-22 55 -45 0 c-25 0 -43 -4 -41 -9z"/>
</g>
</svg>
