<svg xmlns="http://www.w3.org/2000/svg" width="45" height="45" viewBox="0 0 45 45">
    <g fill="none" fill-rule="evenodd">
        <rect width="45" height="45" fill="#FFE5E6" rx="22.5"/>
        <path stroke="#FF4651" stroke-linecap="round" stroke-linejoin="round" stroke-width="1.617" d="M31 26.728v2.559a1.702 1.702 0 0 1-1.162 1.623 1.697 1.697 0 0 1-.702.083 16.922 16.922 0 0 1-7.376-2.62 16.62 16.62 0 0 1-5.128-5.117 16.85 16.85 0 0 1-2.625-7.396 1.7 1.7 0 0 1 .084-.699 1.698 1.698 0 0 1 .928-1.016c.217-.095.452-.145.69-.145h2.563a1.706 1.706 0 0 1 1.71 1.467c.108.819.308 1.623.597 2.397a1.693 1.693 0 0 1-.384 1.8l-.974.973a.206.206 0 0 0-.032.246 13.652 13.652 0 0 0 4.914 4.905.202.202 0 0 0 .246-.032l.974-.974a1.72 1.72 0 0 1 1.804-.383c.777.29 1.582.49 2.402.597a1.706 1.706 0 0 1 1.47 1.732z"/>
    </g>
</svg>
