<svg width="213" height="136" viewBox="0 0 213 136" fill="none" xmlns="http://www.w3.org/2000/svg">
<mask id="mask0" mask-type="alpha" maskUnits="userSpaceOnUse" x="0" y="0" width="213" height="136">
<path d="M0.478516 0H212.024V135.348H0.478516V0Z" fill="#C4C4C4"/>
</mask>
<g mask="url(#mask0)">
<path d="M109.534 97.9997C112.801 96.9087 116.432 96.9086 120.062 96.5446C120.788 96.1806 121.515 95.8177 121.878 95.0897C122.241 95.0897 122.241 94.7256 122.604 94.7256C123.693 94.3616 124.419 94.3627 125.508 93.9987C127.323 93.2707 129.139 92.9066 131.317 92.9066C132.406 92.5436 133.132 92.5437 133.858 92.5437C134.222 92.5437 134.585 92.9066 135.311 92.9066C136.4 93.2706 137.126 93.6347 138.215 93.6347C140.393 93.2707 142.572 92.5437 144.387 91.0887C145.839 88.9057 148.018 88.9057 149.833 88.9057C155.279 88.1787 158.546 83.8136 163.266 81.6306C171.616 77.2656 177.425 69.9907 183.597 63.0797C183.597 62.3517 183.96 61.6247 183.96 61.2597C185.049 57.6227 188.68 54.7127 190.132 51.0757C190.495 50.7117 190.858 50.3476 190.858 49.9846L191.947 48.8927C197.393 44.1637 200.661 37.9807 201.387 31.0687C202.839 19.4287 203.565 7.78866 202.476 -3.85134C201.75 -12.5813 201.024 -21.3113 197.756 -29.6773C191.221 -47.1373 178.877 -60.2333 164.718 -71.5093C149.833 -83.1493 133.132 -90.0603 113.528 -90.0603C109.897 -90.0603 105.903 -89.6973 101.91 -91.1523H93.922C88.114 -89.3323 81.579 -90.0603 75.77 -87.8783C56.89 -80.9673 42.006 -69.3263 30.388 -53.3213C20.585 -40.2263 13.324 -26.0403 14.05 -8.94334C14.413 -4.21534 15.866 0.149654 15.14 4.87865C14.776 10.3357 14.776 15.7917 15.14 21.2487C15.503 29.9787 17.318 38.7086 21.674 46.3466C23.127 48.5296 24.942 50.7117 26.031 53.2577C31.477 65.6257 40.191 74.3557 52.171 80.5397C53.986 80.5397 55.801 80.1756 55.801 82.7216C56.528 84.9046 58.343 86.3597 60.158 87.4517C70.324 94.3617 81.942 96.5447 93.922 97.2717H94.286C98.642 97.6357 102.999 96.5447 107.356 97.6357H109.534V98.0007V97.9997ZM68.872 75.4467C47.814 65.2617 35.108 47.8017 28.936 25.9767C24.216 9.60765 27.12 -6.39734 34.38 -22.0393C39.826 -33.6793 47.087 -43.8643 54.711 -54.0493C63.425 -66.4173 75.406 -74.7833 91.017 -76.6023C111.711 -79.1483 130.59 -74.0553 148.38 -64.5983C166.169 -54.7763 178.876 -39.8623 185.411 -20.2203C194.125 5.60666 191.946 29.9777 175.246 52.1667C162.54 68.9007 144.75 77.9937 124.419 81.9947C116.432 83.8137 108.082 85.6317 99.005 84.9047C88.477 85.6317 78.675 80.1757 68.872 75.4467Z" fill="#FE7213"/>
<path d="M107.712 97.998H93.916V97.271C97.909 96.907 101.903 97.634 105.896 96.543C106.986 95.816 107.712 96.543 107.712 97.998Z" fill="#FEBC90"/>
<path d="M121.876 94.725C121.15 94.725 120.06 94.361 119.334 93.998C119.697 93.27 120.424 92.543 121.513 92.178C125.143 92.906 128.048 91.451 130.952 89.996C133.493 88.541 135.309 91.816 137.85 91.451C137.124 91.815 136.035 92.179 135.309 92.543C130.952 94.725 126.595 95.816 121.876 94.725Z" fill="#FE8B3E"/>
<path d="M188.312 50.7115C189.401 51.8015 190.127 50.7115 190.854 49.9835C191.217 49.6195 191.58 49.2555 192.306 49.6195C189.038 53.6205 187.586 58.7135 183.592 61.6235C182.866 61.9875 182.503 62.3505 181.777 62.7145C182.866 57.9855 186.86 54.7115 188.312 50.7105V50.7115Z" fill="#FE8B3F"/>
<path d="M130.956 90.3594C131.319 90.7224 132.045 91.0864 131.682 91.0864C128.414 92.1774 125.147 93.9964 121.516 92.5414C124.784 91.8144 127.688 91.0864 130.956 90.3594Z" fill="#FEBE92"/>
<path d="M56.8878 81.6343C55.7988 80.5433 54.7098 79.8153 53.2578 78.7243C55.7988 77.6333 57.6138 78.7243 59.7928 80.5433C58.7028 80.9063 57.6138 81.2703 56.8878 81.6333V81.6343Z" fill="#FE822F"/>
<path d="M149.466 87.0884C147.651 88.1794 146.198 89.6344 144.02 89.6344C144.746 86.7244 146.562 86.3604 149.466 87.0884Z" fill="#FEA364"/>
</g>
</svg>
