<svg xmlns="http://www.w3.org/2000/svg" width="162" height="133" fill="none" viewBox="0 0 162 133">
    <g fill="#fff" clip-path="url(#prefix__clip0)">
        <path d="M160.984 30.994c-.401-2.206-1.103-4.313-1.805-6.42-.702-2.106-2.106-3.911-2.808-6.017-1.204-3.21-3.31-6.018-5.918-8.325-.702-.602-1.304-1.605-2.408-1.605-.802-.702-1.604-1.404-2.808-1.404-.401 0-.903-.201-1.204-.502-.1-.1-.2-.2-.3-.2l-.201-.201c-.1-.1-.201-.2-.201-.301 0-.602-.2-.903-.702-1.204-.602-.3-1.203-.601-1.906-.902-.702-.602-1.705-.402-2.407-1.003-.401-.301-1.003-.201-1.304-.702-.1 0-.2-.1-.2-.1-.402.3-.803.5-1.304.701l-.101.1c-.1.101-.2.101-.3.101-.201 0-.301 0-.502-.1-.401-.301-.802-.201-1.204-.201h-.2c-.301 0-.602 0-.903-.1h-.802c-.602 0-1.104-.1-1.705-.301-.201-.1-.301-.1-.502-.2h-.1c-.101-.101-.201-.101-.301-.201-.1 0-.1 0-.201-.1l-.902-.602c.3.3.601.4 1.003.501h.501c.1 0 .301-.1.401-.2h.101c.2-.502-.101-.703-.602-.903-1.304-.401-2.608-.401-3.912-.2-1.404.2-2.808-.201-4.112.3-.402-.401-1.003.1-1.505-.2-.602.5-.602.802.201.902 0-.2.1.1 0 0-.803.1-1.404-.702-2.207-.702-2.708-.1-5.115.802-7.121 2.307-2.006 1.504-4.514 2.106-6.62 3.51-.702-.1-1.104.502-1.605.803h-.1s-.101 0-.101.1c-.702.301-1.203.903-1.604 1.404-.101.1-.101.201-.201.301-.201.201-.401.402-.602.502 0 0-.1 0-.1.1l-.1.1c-.1 0-.201.1-.201.1-.502.201-1.103.201-1.605.603 0 .601 0 1.103-.702 1.103-.2 0-.301.1-.401.2l-.1.1c-.201 0-.302.101-.302.101-.3.502.201 1.103-.1 1.605v.1c0 .1-.1.301-.2.401-.402 1.003-1.003 1.906-1.605 2.809 0 .1-.1.2-.1.2-.1.1-.1.1-.1.201v.1l-.302.602c-.1.1-.1.2-.2.301-.702 1.003-.502 2.207-1.404 3.11v.1c0 .1 0 .1-.1.2-.201.703-.201 1.405-1.004 1.605-.1.401-.1.803-.3 1.003-2.81 3.31-3.411 7.322-4.013 11.435-.401 3.009-.401 6.118.301 9.127.502 1.906.602 3.912 1.404 5.818 1.104 2.708 2.207 5.416 3.812 7.923 1.203 1.906 2.407 3.812 4.112 5.316 2.608 2.307 5.116 4.714 8.125 6.42 2.407 1.404 5.215 1.905 7.723 3.21 1.404.802 2.909 1.103 4.513 1.303 1.706.301 3.411.2 5.116.502 2.006.401 3.912 0 5.817-.1 2.508-.201 5.015-.1 7.322-1.405.301-.2.903-.1.903-.702s-.602-.702-1.003-.903c0-.3-.401-.702 0-1.003.1 0 .201 0 .301-.1.301-.1.702-.2 1.003-.3 1.404-.603 3.009-.803 4.012-2.107.602-.301 1.304-.602 1.906-.803 2.708-1.003 4.714-2.908 6.82-4.714.401-.1.702-.3.903-.602.1 0 .1-.1.201-.1l.2-.2c.301-.201.602-.402.803-.703 0 0 .1 0 .1-.1.501-.903 1.605-1.103 2.206-1.906.903-1.103 2.007-2.106 2.608-3.51l.101-.1c0-.1.1-.1.1-.201.301-.702.702-1.304 1.103-1.906.401-.501.903-1.003 1.003-1.705.502-2.407 1.304-4.614 2.307-6.82.702-1.706 1.204-3.41 1.304-5.216-.2-2.909-.301-6.119-.903-9.228zm-15.145 23.37c-1.304 2.608-3.31 4.414-5.416 6.22-.502.4-1.003.902-1.706 1.002-.3-.1-.601.1-.902.2-1.605.602-2.909 1.806-4.614 2.207-.803-.4-.301-.802.1-1.304-1.304-.601-2.608 0-3.811.1-1.605.101-3.31.201-4.815.502-2.507.502-4.714-.3-7.021-.702-.802-.1-1.504-.501-2.207-.802-1.705-.803-3.31-1.806-5.115-2.307-1.404-.401-2.207-1.404-3.109-2.407-1.806-2.207-3.411-4.414-4.815-6.921-1.003-1.806-1.705-3.812-2.507-5.718-1.204-3.008-1.204-6.218-.903-9.428.3-3.009 1.204-5.817 2.508-8.526 1.404-3.21 3.51-6.018 6.419-8.124 2.507-1.705 5.015-3.31 7.823-4.413 3.812-1.404 7.724-1.806 11.836-1.404 4.915.501 8.927 2.908 12.839 5.717 3.31 2.307 5.616 5.516 7.823 8.826 1.304 2.006 1.605 4.213 2.006 6.42.602 3.109.702 6.218.301 9.328-.201 1.504-.702 3.009-1.103 4.413-.301.401-.602.802-.702 1.304-1.104 1.805-2.006 3.811-2.909 5.817zM35.005 95.686c-1.805 1.404-3.811 2.708-6.319 2.006-.802-.2-1.705-.1-2.407.602s-1.605.401-2.407.301c-3.01-.702-5.116-2.407-6.32-5.316-.902-2.207-1.504-4.514-.802-6.72.803-2.608 1.806-5.116 3.511-7.423.401-.601 1.003-1.103 1.906-1.003.501 0 .802-.2 1.103-.501 3.611-2.207 7.322-2.608 11.234-.803.1.1.2.402.2.402-.702.4-.3.702 0 1.003 0 0 .1 0 .1.1.101 0 .101.1.201.2.1 0 .1.1.201.201l.1.1.1.1c.1.101.201.201.302.402 0 0 0 .1.1.1.2.401.602.702.802 1.104v.1c0 .1.1.2.1.2h.1s.101 0 .101-.1v-.1-.401c0-.1 0-.1-.1-.2 0 0-.1-.101-.2-.101-.201-.1-.402-.2-.502-.301l-.1-.1s-.1-.1-.1-.201c-.201-.2-.302-.502-.402-.702 0-.1 0-.1-.1-.2.501-.903 1.103-.302 1.604 0 1.806 1.103 2.408 3.008 2.709 4.814.902 5.015-.703 9.228-4.715 12.437zM18.355 125.077c-2.106 2.207-3.41 5.015-5.416 7.422-.2.201-.401.602-.802.502-.502 0-.903-.201-1.304-.502-3.51-2.708-7.021-5.516-10.532-8.124-.501-.401-.501-.702-.1-1.104l6.319-7.823c.602-.702 1.003-.702 1.605-.1 3.21 2.607 6.52 5.316 9.83 7.823.902.602 1.203 1.103.4 1.906z"/>
        <path d="M132.599 1.906h-.1c-.1 0-.201.1-.301.1h-.502c-.601-.2-1.504.201-1.905-.601-.401-.803-2.408-1.304-3.11-.803-.401.301-.501.401-.601-.1-.101-.301-.602-.2-.602-.1-.702.902-1.304.4-2.006.1-.401-.2-.702.1-1.104.2-.401 0-.802.502-1.103 0 1.204-.802 2.508-.601 3.812-.601 2.507-.1 5.015.2 7.422 1.203.301.1.802.2.1.602zM148.046 8.624c-1.104-.802-2.508-.902-3.712-1.304-.2-.1-.401-.3-.601-.4.1-.201.1-.302 0-.402 0-.1-.101-.2-.201-.2-.201-.1-.401-.1-.602-.1.201-.803-.2-1.204-.902-1.505-.402-.201-.903-.301-1.204-.803 2.608 1.104 5.316 2.407 7.222 4.714zM160.282 45.837c-1.103 3.811-1.905 7.723-4.513 10.833l-.101-.1s-.1-.101 0-.101l.101-.1c.2-.401.2-.803.501-1.104 1.705-2.006 1.906-4.513 2.809-6.82.301-1.003.601-1.906 1.203-2.608zM140.222 69.508c-1.204.802-2.107 2.006-3.511 2.407-.401.2-.702.1-1.003-.2H135.407c-.301.1-.501.2-.802.1-.1 0-.201-.1-.201-.1 1.906-.803 3.912-1.305 5.617-2.408 0-.1.201.2.201.2z"/>
        <path d="M155.769 56.572c-.602 1.805-2.107 2.908-3.11 4.413-.2.3-.601.502-.902.802-.301.1-.602.602-.903.201 0 0-.1-.1-.1-.2.401-1.304 1.905-1.304 2.608-2.207.802-1.104 1.705-2.006 2.407-3.21l.1-.1v.2l-.1.1zM96.29 13.742c-.502 1.504-1.404 2.708-2.207 4.012-.1-.1-.1-.1-.1-.2 0-.201 0-.302.1-.502 0-.2.1-.301.1-.502l.301-.602v-.1c0-.1.1-.1.1-.2.101-.201.101-.301.101-.502v-.1c-.2-.2 0-.502-.1-.702.1-.301.2-.602.501-.803.401-.2.602.2 1.003.301 0-.1.1-.1.2-.1zM136.712 2.107c0 .903-.703.802-1.304.802-.201.1-.301.2-.402.1-.1 0-.2-.1-.3-.2v-.2c0-.402-.602-.803-.201-1.305.903-.3 1.504.502 2.207.803zM102.208 7.223s-.101 0 0 0c-.101 0-.101 0 0 0l-.101.1c-.501.602-1.404.703-1.504 1.605 0 .502-.401.602-.702.803-.1.1-.2.1-.301.1-.1 0-.2-.1-.301-.2-.1-.1-.1-.201-.1-.402.802-1.003 1.805-1.705 2.908-2.307 0-.1.101.1.101.301zM36.911 78.336c-.501.1-1.103-.803-1.504.2h-.1c-.1 0-.1.1-.201 0-.1 0-.2-.1-.301-.1h-.2c-.703 0-.602-.803-1.204-1.003.2-.401 1.203.2.902-.702.903.602 1.806 1.103 2.608 1.605z"/>
        <path d="M96.29 13.742c-.2.1-.301.301-.502.502l-.2.2c-.602-.1.2-1.003-.602-.903.2-.702.702-1.303 1.304-1.705l.1.1c0 .101 0 .201-.1.402.3.401.2.903 0 1.404z"/>
        <path d="M97.995 11.332c-.301.201-.502.903-1.003.602-.401-.2-.401.2-.602.301v-.501c.3-.502.702-.903 1.204-1.304.2.3.802.602.4.902zM150.453 63.088c-.702 1.204-1.204 1.304-1.705.502.2-.2.501-.502.702-.803.2-.1.401-.2.602-.1.2 0 .3.2.401.401z"/>
        <path d="M151.756 61.785c-.3.501-.702 1.003-1.304 1.203-.2-.1-.401-.2-.601-.2h-.402c.402-.301.803-.702 1.304-1.003.101.1.101.1.201.1.201.1.502-.2.802-.1zM99.8 9.73c-.601.803-1.404.702-2.206.803.3-.602.702-1.004 1.203-1.204.1.1.1.2.201.3.1.101.2.101.401.201h.1c.201-.1.201-.1.301-.1zM94.183 15.646c0 .3-.1.501-.3.601l-.1.1-.603.602h-.2c-.1 0-.1-.1-.1-.3.4-.602.702-1.304 1.303-1.706.1.201 0 .502 0 .703z"/>
        <path d="M94.585 15.547l-.201.201v.1h-.401c-.301-.2.1-.501 0-.702.2-.3.3-.501.401-.802.3 0 0 .501.3.501.402.301.101.402-.1.702zM138.216 2.908c-.602 0-1.104 0-1.304-.702.501.2 1.103 0 1.304.702zM99.6 9.73s-.1 0-.1.101c-.101.1-.201.1-.302.1-.3 0-.3-.3-.3-.702.1 0 .1-.1.2-.1.1.2.2.3.502.602-.1-.1 0-.1 0 0zM92.88 17.454c0 .2 0 .301-.1.502h-.703c.1-.201.301-.502.502-.803.1 0 .2 0 .2.1s.1.201.1.201z"/>
        <path d="M93.18 17.05c-.1.201-.2.301-.3.502l-.1-.1-.201-.2c0-.201.1-.402.3-.502l.201.2.1.1zM92.077 21.666c-.1.1-.1.2-.2.2l-.301.302c-.301-.302.1-.502 0-.803.2 0 .3 0 .4.1 0 .2.101.2.101.2zM138.717 61.584c-.301.802-.902 1.404-1.805 1.504-1.103.2-2.106.903-3.009 1.404-.803.402-.602-.1-.602-.501 1.705-.401 3.009-1.605 4.614-2.207.201 0 .401-.2.802-.2zM145.438 64.596c-.903.1-1.806-.803-2.709 0-.1.1-.2.1-.301.1-.3-.2-.802-.1-.702-.602.201-.4.602-.501 1.003-.2.201-.1.502-.2.702-.2 1.003-.302 2.007-.101 2.909-.603.201-.1.401.1.301.301-.2.502-.802.803-1.203 1.204zM133.703 2.407c.3.1.702.201 1.003.301.2.301.501.201.702.201-.101.3 0 .903-.502.602-1.504-.803-3.21-.401-4.814-.702-.502-.1-.903-.2-1.304-.602.902-.301 1.805-.301 2.507.501.903.1 1.605-.1 2.408-.3z"/>
        <path d="M144.234 63.09c.802-1.103 2.407-.5 3.31-1.604.1-.1.301 0 .401.2 0 .402.301.903-.401 1.104-.702.2-1.505.2-2.207.501-.401.301-.902.301-1.103-.2zM146.24 58.376c.401-.1.602-.602 1.204-.401-.903 1.304-1.404 2.708-2.909 3.41-.301-.2-.602-.4-.201-.702.803-.602 1.304-1.504 1.906-2.307zM134.003 67.403c-.201.201-.502.201-.602-.1-.1-.401 0-.802.401-1.003.402-.2.903-.2 1.104-.702-.101-.2.1-.3.2-.401.301-.1.602-.1.903 0 .201.1.501.2.602.401.1.401-.101.602-.401.702-.703.301-1.605 0-2.107.702 0 .1-.2.1-.1.401z"/>
        <path d="M134.003 67.401c-.1-.1-.2-.2 0-.3.502-.703 1.304-.703 2.107-.703.601-.2 1.103-.3 1.605.1.2.402-.201.502-.402.703-.401.2-.902.4-1.404.501-.201 0-.401 0-.501-.2.2-.301.3-.703-.301-.602-.402.2-.803.3-1.104.501zM142.73 63.793c-.301 0-.703-.1-.803.2-.201.401.702 0 .502.502-.402.401-.803.902-1.505 1.003-.1 0-.201-.1-.301-.2-.2-.502.201-.803.301-1.104.201-.301.301-.602.502-.903.2-.1.501-.2.702-.3.2.4.602.4.602.802zM144.234 63.089c.401.3.802.3 1.203 0 .602-.402 1.304-.1 2.006-.201-.2.2-.501.3-.702.501-1.103.201-2.206.502-3.31.201.301-.2.502-.3.803-.502zM128.186 64.594c-.301.1-.502.4-.803 0-.1-.201-.1-.301 0-.502 1.204-.1 2.307-.1 3.511-.2-.401.902-1.304.4-1.906.601-.2-.1-.501 0-.802.1zM149.449 49.751c.201-.2.301-.501.502-.702-.201-.3-.201-.702 0-1.003.401-.3.201-.903.501-1.204.201-.1.301 0 .301.301-.2.703-.301 1.505-.501 2.207 0 .502-.201.702-.803.401zM129.189 1.405c-.201.2-.602.3-.301.702-.903-.1-1.204-.903-2.006-1.103.902-.301 1.504.4 2.307.4zM87.564 43.93c-.401-.601.2-1.103-.2-1.604-.101-.1.1-.301.3-.301.2 0 .3.1.3.3.101.602.101 1.104-.4 1.606zM134.906 70.411c-.602.903-1.404.702-2.106.501.301-.4.602-.501 1.003-.4.2 0 .602-.101 1.103-.101z"/>
        <path d="M149.45 49.751c.401 0 .601-.2.802-.501.802.4.1.702-.1 1.003-.101.3-.602.4-.803.3-.301-.2.101-.5.101-.802zM127.684 74.626c-.702-.501-1.404-.2-2.106-.2.602-.301 1.103-.803 1.906-.502.2.1.501.301.2.702zM136.21 65.396h-1.003c-.1-.1-.1-.2-.1-.301.3-.501 1.003-.401 1.404-.702h.301c.2.3 0 .602 0 .903-.201.2-.402.2-.602.1zM142.93 6.22c.602-.5.903.101 1.404.302.201.1.201.2-.501.4-.402-.2-.703-.5-.903-.701zM134.404 65.599c-.501.401-1.203.501-1.805.602.401-.502 1.003-.702 1.605-.903h.1c.1.1.1.2.1.3z"/>
        <path d="M136.41 64.393c-.3.501-.902.401-1.303.702-.301.2-.602.502-1.003.3.601-.801 1.504-.902 2.306-1.002zM145.939 58.377l-.2.2c-.402.401-.703.301-1.104 0 1.003-.802 1.003-.802 1.304-.2zM159.58 41.523c.201.502.101 1.003-.301 1.404-.501-.601.201-1.002.301-1.404zM135.708 6.019c-.501-.1-.903-.2-1.304-.702.803 0 1.104.3 1.304.702z"/>
        <path d="M144.635 58.575c.401.1.702.3 1.104 0-.301 1.003-1.104.1-1.505.501 0-.3.201-.501.401-.501zM130.894 69.207c.401-.502.702-.703 1.103-.502-.201.401-.502.502-1.103.502zM149.75 48.046c-.301.2-.301.602-.802.502.1-.502.401-.903.702-1.304.401.3 0 .501.1.802zM101.907 50.35c.3.201.3.502.1.703h-.301c-.1-.2 0-.401.201-.702zM150.753 47.041l-.301-.3c0-.201.101-.402.101-.602 0 0 .301 0 .301.1.2.301.2.602-.101.803zM127.684 74.624c-.1-.201-.201-.502-.301-.703.301 0 .602.1.803.301-.101.1-.301.201-.502.402zM134.204 65.297c.301-.1.702-.2 1.003-.3v.2l-.301.3h-.501l-.201-.2zM125.477 64.394c.101-.1.201-.2.301-.2.101 0 .201.1.201.2-.1.1-.201.2-.301.2.1 0 0-.1-.201-.2zM149.951 48.043v1.003c-.702-.2 0-.702-.2-1.003h.2zM36.51 81.946c.401.2.501.501.602.902 0 .301-.201.502-.502.402-.401-.1-.401-.402-.401-.803 0-.2-.1-.401.3-.501zM36.911 80.34v.2c-.2.201-.501.201-.702 0-.2-.5-.802-.701-.802-1.203.3-.2.501.1.702.2.2.101.3.201.501.201.301.2.201.502.301.602z"/>
        <path d="M36.209 80.641h.702c.301.2.401.501 0 .702-.501.1-.702-.3-.702-.702zM36.911 80.344c-.2-.1-.2-.301-.2-.502.2 0 .501-.3.601 0 0 .1-.3.401-.4.502zM19.459 82.248c.1-.1.2-.2.3-.2.101 0 .101.1.201.2-.1.1-.1.2-.2.2-.1-.1-.1-.2-.301-.2zM136.711 65.097c.201-.1.502-.2.703-.3.2.2.3.4.3.702.101.2.101.4 0 .601-.601.301-.802 0-1.003-.501-.2-.1-.401-.2-.501-.301.201 0 .301-.1.501-.2zM141.125 64.393c-1.204 0 .1-.502-.201-.803.201-.1.301-.2.502-.2 0 .3.2.702-.301 1.003z"/>
        <path d="M137.714 66.097c0-.2 0-.401.101-.501.1.1.2.2.2.3.1.201.301.201.502.302.2.1.301.2.301.4-.201.302-.402.302-.703.302-.2-.1-.3-.201-.401-.301-.1-.301-.1-.401 0-.502z"/>
        <path d="M137.714 66.502V66.3l.301.3c0 .302.201.502.502.502-.401.301-.803 1.003-1.304 0 .201-.2.301-.4.501-.601zM140.924 65.298c-.502.802-1.404.802-2.207 1.003l-.301-.3c.803-.302 1.505-.603 2.508-.703-.1.1 0 0 0 0z"/>
    </g>
    <defs>
        <clipPath id="prefix__clip0">
            <path fill="#fff" d="M0 0H161.586V133H0z"/>
        </clipPath>
    </defs>
</svg>
