<svg xmlns="http://www.w3.org/2000/svg" width="35" height="35" viewBox="0 0 35 35">
    <g fill="none" fill-rule="evenodd">
        <rect width="35" height="35" fill="#001033" rx="8"/>
        <path fill="#F4F6F8" d="M22.045 15.117c3.73 0 3.942 3.245 3.954 5.322L26 25.503a.498.498 0 0 1-.5.497h-2.484a.498.498 0 0 1-.5-.497v-4.522c0-.674.199-2.956-1.775-2.956-1.531 0-1.842 1.562-1.904 2.262v5.216a.498.498 0 0 1-.5.497h-2.403a.498.498 0 0 1-.5-.497v-9.728c0-.274.224-.496.5-.496h2.403c.276 0 .5.222.5.496v.841c.567-.846 1.411-1.5 3.208-1.5zm-8.688.162c.3 0 .544.241.544.54v9.64c0 .3-.244.541-.544.541h-2.315a.542.542 0 0 1-.544-.54v-9.641c0-.299.243-.54.544-.54h2.315zM12.199 10c1.215 0 2.2.978 2.2 2.185a2.192 2.192 0 0 1-2.2 2.185c-1.214 0-2.199-.978-2.199-2.185S10.985 10 12.2 10z"/>
    </g>
</svg>
