<svg xmlns="http://www.w3.org/2000/svg" width="15" height="15" viewBox="0 0 15 15">
    <path fill="#001033" fill-rule="nonzero" d="M3.345 15V4.991H.235V15h3.11zM1.806 3.615c.48.005.94-.19 1.271-.536.346-.332.54-.792.535-1.272.005-.48-.189-.94-.535-1.271A1.735 1.735 0 0 0 1.807 0C1.326-.005.866.19.534.536A1.738 1.738 0 0 0 0 1.812c-.005.48.19.94.535 1.271.332.347.792.54 1.271.536v-.004zM14.986 15V9.51a6.774 6.774 0 0 0-.67-3.414 3.319 3.319 0 0 0-3.048-1.372 3.296 3.296 0 0 0-1.873.536c-.455.256-.825.64-1.065 1.104h-.034V4.99H5.32V15h3.078v-4.955a3.74 3.74 0 0 1 .334-1.773c.3-.542.89-.857 1.505-.803a1.408 1.408 0 0 1 1.439.903 5.41 5.41 0 0 1 .203 1.74V15h3.107z"/>
</svg>
