<svg xmlns="http://www.w3.org/2000/svg" width="18" height="15" viewBox="0 0 18 15">
    <path fill="#001033" fill-rule="nonzero" d="M16.137 3.749A8.233 8.233 0 0 0 18 1.766a7.78 7.78 0 0 1-2.109.613A3.74 3.74 0 0 0 17.508.29a7.394 7.394 0 0 1-2.355.9A4.175 4.175 0 0 0 13.94.324 3.447 3.447 0 0 0 12.446 0a3.498 3.498 0 0 0-1.83.5A3.662 3.662 0 0 0 9.279 1.89a3.83 3.83 0 0 0-.488 1.892c0 .29.024.58.071.865a10.019 10.019 0 0 1-4.236-1.154A10.236 10.236 0 0 1 1.27.68a3.698 3.698 0 0 0-.537 1.896 3.71 3.71 0 0 0 .457 1.821A4.165 4.165 0 0 0 2.39 5.764a3.412 3.412 0 0 1-1.659-.5v.072c-.006.87.293 1.715.843 2.378a3.707 3.707 0 0 0 2.117 1.334 4.574 4.574 0 0 1-.985.108 6.51 6.51 0 0 1-.668-.037c.23.74.678 1.39 1.283 1.86.617.491 1.38.752 2.162.739A7.206 7.206 0 0 1 .88 13.34c-.326 0-.619-.012-.879-.036a10.057 10.057 0 0 0 5.66 1.694 9.957 9.957 0 0 0 5.736-1.694 10.214 10.214 0 0 0 3.55-4.074 10.91 10.91 0 0 0 1.23-5.007c.005-.159-.009-.318-.04-.474z"/>
</svg>
