<svg id="ad04b345-e53d-45f7-98f5-ff8898a42d3f" data-name="Layer 1" xmlns="http://www.w3.org/2000/svg" width="80" height="53.3" viewBox="0 0 80 53.3"><defs><style>.c3c9d0cc-99b5-481e-be83-3d6c86269439{fill:#e5e5e5;}.\35 3fd2341-13bb-497c-aeb3-1e832942faf7{fill:#07d879;}.f29204f2-cba8-4365-9dd3-3b0a5d9ded7e{fill:#0265ff;}.e73d124d-3b15-4567-be31-f311f6b254ef{fill:#64a3ff;}</style></defs><title>Knowledge Base</title><path class="c3c9d0cc-99b5-481e-be83-3d6c86269439" d="M55.05,39.89c0,5.52-4.9,10.08-11,10.08H4a1.47,1.47,0,0,1,0-1.46L5.7,45.85a13.08,13.08,0,0,0,1.61-6A12.38,12.38,0,0,0,5.7,34L3.18,29.92H44.09a11.51,11.51,0,0,1,7.74,2.92A9.55,9.55,0,0,1,55.05,39.89Z"/><path class="53fd2341-13bb-497c-aeb3-1e832942faf7" d="M62.35,39.89c0,7.31-6.54,13.41-14.61,13.41H3.65a3.34,3.34,0,1,1,0-6.65H47.74c4,0,7.31-3.07,7.31-6.76,0-3.9-3.66-6.65-7.71-6.65H3.65A3.5,3.5,0,0,1,0,29.92a3.51,3.51,0,0,1,3.65-3.33H47.12C55.17,26.59,62.35,32.26,62.35,39.89Z"/><path class="c3c9d0cc-99b5-481e-be83-3d6c86269439" d="M25,13.3c0,5.51,4.9,10,11,10H76a1.46,1.46,0,0,0,0-1.46L74.3,19.15a12.48,12.48,0,0,1-1.61-5.85A12.38,12.38,0,0,1,74.3,7.45l2.52-4.13H35.91a11.47,11.47,0,0,0-7.74,2.93A9.53,9.53,0,0,0,25,13.3Z"/><path class="f29204f2-cba8-4365-9dd3-3b0a5d9ded7e" d="M17.65,13.3c0,7.31,6.54,13.29,14.61,13.29H76.35A3.5,3.5,0,0,0,80,23.27,3.5,3.5,0,0,0,76.35,20H32.26c-4,0-7.31-3-7.31-6.65,0-3.9,3.66-6.65,7.71-6.65H76.35A3.51,3.51,0,0,0,80,3.32,3.51,3.51,0,0,0,76.35,0H32.88C24.83,0,17.65,5.66,17.65,13.3Z"/><path class="e73d124d-3b15-4567-be31-f311f6b254ef" d="M46.83,39.23a2,2,0,0,1-.82-.18L39.52,36.1l-6.61,2.95A2,2,0,0,1,31.13,39a1.64,1.64,0,0,1-.86-1.41V14.3H48.66V37.57A1.63,1.63,0,0,1,47.79,39,1.91,1.91,0,0,1,46.83,39.23Z"/></svg>