<svg xmlns="http://www.w3.org/2000/svg" width="58" height="136" fill="none" viewBox="0 0 58 136">
    <mask id="prefix__a" width="80" height="148" x="-22" y="0" maskUnits="userSpaceOnUse">
        <rect width="79" height="147" fill="#C4C4C4" rx="10" transform="matrix(1.00295 0 0 -1.00295 -21.25 147.433)"/>
    </mask>
    <g mask="url(#prefix__a)">
        <path fill="#00C38B" d="M42.758-62.792l4.203-2.427c1.125.625 2.05-.42 3.036-.478.683-.14 1.146-.662 1.639-.692 2.491.345 3.734 2.94 6.064 3.886 2.853 1.41.84 4.101 1.068 6.262.2 1.669.097 3.256 1.361 4.564.442.764.39 1.558.038 2.271l.19-.11c2.146-3.786 5.114-7.028 8.303-9.888 1.337-.773 2.844-.369 4.322-.457 1.808.484 3.718-.62 5.497-.627 1.477-.089 2.683.234 3.536 1.27.963 1.228.97 3.006 1.25 4.373.221.382.361 1.066.773 1.338 2.8 2.204 3.059 4.857 1.568 8.01-.926 1.044-1.55 2.17-1.763 3.566-1.725 5.836-3.561 11.481-5.588 17.237-.161.602-.433 1.014-.594 1.617.433-1.014.866-2.029.998-3.124 1.483-4.932 4.282-9.35 6.89-13.658 4.238-6.778 8.066-13.828 12.003-20.686 1.711-2.772 3.754-4.97 6.319-6.706 1.418-1.073 2.895-1.162 4.512-.567 1.235.815 2.683.234 3.727 1.16l.191-.11c.463-.522 1.117-1.154 1.911-1.103 2.712.727 4.498 2.497 4.867 5.341.059.985.5 1.75.64 2.433 2.277-4.881 6.311-8.484 9.632-12.439 1.66-1.978 3.961-1.523 5.99-.656.904.242 1.698.293 2.381.154 2.602.535 4.278 2.115 5.22 4.628.22.382.551.956.581 1.448l.301.08c.382-.22.875-.25 1.176-.169 2.852 1.41 2.508 3.902 2.163 6.394-.74 5.777-2.797 11.04-5.154 16.223.081-.302.22.382-.081.301-.301-.08-.161.603-.081.302.272-.412.434-1.015.705-1.427 1.088-1.646 2.565-1.735 4.263-1.441 2.3.454 4.44 1.512 6.791 1.173 1.86-.309 3.536 1.27 4.228 2.91 2.155 4.614 3.626 9.37 1.459 14.441-1.028 2.632-.931 5.888-2.863 8.277-.574.331-.845.743-1.007 1.346-.242.904-.183 1.889-.124 2.873-2.32 7.454-4.559 14.606-8.004 21.435-1.763 3.565-3.004 7.593-4.546 11.54-.191.111-.081.302-.272.413l.191-.11c.191-.111.081-.302.272-.413 3.841-10.114 9.629-19.06 15.83-27.735.815-1.236 2.042-2.199 3.079-3.052.653-.632 1.528-.882 2.373-1.625l1.146-.662c1.367-.28 2.764-.067 4.131-.346.492-.03.794.05 1.205.323.221.382.522.463.743.845 2.139 1.057 3.498-1.001 5.387-.818.794.051 1.426.705 1.867 1.47.853 1.035.288 3.145 2.177 3.328.412.272.522.463.743.845 3.53 6.114 3.995 12.214.821 18.632-.845.742-1.991 1.404-1.491 3.153.03.493-.051.794-.323 1.206-.845.742-.785 1.727-.726 2.712-.081.302-.353.713-.434 1.015-1.116 1.154-.726 2.712-.638 4.19-1.658 8.599-3.728 16.927-6.511 24.902-.242.905-.595 1.618-1.44 2.36-1.448.581-2.373 1.625-1.763 3.566-.748 3.998-2.21 7.644-3.068 11.452-.94 4.108-2.181 8.136-4.436 11.731-1.418 1.074-2.755 1.846-2.828 3.926-.272.412-.434 1.014-.816 1.235-.382.22-1.036.853-1.447.581-2.47-1.63-2.845.368-3.741 1.905-.654.632-1.609 1.184-2.042 2.198-.918 2.823-3.542 3.573-5.835 4.897-1.528.882-1.999-.374-2.852-1.41-.331-.573-.36-1.066-.39-1.558.132-1.095.264-2.19.095-3.367.08-.3.051-.793-.059-.984-.03-.493-.361-1.066-.501-1.75-.471-1.256-.64-2.432-.016-3.557.757-2.22 1.513-4.44 1.968-6.74.183-1.89 1.572-3.455 1.453-5.425.081-.301.162-.603-.059-.985-.301-.08-.382.22-.573.331-.272.412-.543.824-.705 1.426-.242.904-.786 1.728-1.028 2.632-.081.301-.353.713-.433 1.014-.544.824-.977 1.838-1.33 2.551-.735.934-.565 2.11-.587 3.396-.161.603-.242.904-.705 1.426-.573.33-.926 1.044-1.087 1.647-.162.603.169 1.176.008 1.778.029.493-.242.904-.514 1.316-.463.522-.926 1.044-.977 1.838-1.873 3.374-2.732 7.182-4.194 10.828-.242.904-.594 1.617-1.138 2.44-1.146.662-1.389 1.566-1.219 2.742-4.473 9.461-8.042 19.164-13.941 27.919-2.366 3.404-5.474 5.963-9.465 6.993-.984.059-1.859.309-2.814.861-2.675 1.544-5.027 1.883-7.446-.542-.742-.845-1.375-1.499-2.308-2.233-.11-.192-.412-.272-.633-.654-.632-.654-1.455-1.198-2.007-2.153-.22-.382-.441-.764-.47-1.257l-1.744-4.343c-.118-1.97-1.14-4.182.63-5.968 2.433-.641 2.433-.641 1.11-2.933l-.994-1.72c-.14-.683.022-1.286.375-1.999 2.564-1.736 3.29-4.448 3.114-7.402-.119-1.97.285-3.477 1.343-5.616-2.8 4.418-6.48 7.308-8.927 11.013-.323 1.205-1.359 2.058-1.682 3.264-.08.301-.272.411-.352.713-.463.522-.926 1.044-1.279 1.757-1.197 1.455-1.461 3.646-2.247 5.373l-.764.441c-.493.03-1.096-.132-1.426-.705-.993-1.719.778-3.506-.215-5.225l-.904-.243c-.493.03-1.096-.132-1.779.008-3.918-1.049-6.8-2.952-7.639-7.053-1.109 2.933-1.424 5.917-3.657 8.226-1.558.39-2.594 1.242-3.19 2.86-.08.301-.352.713-.433 1.014-.705 1.426-1.6 2.963-2.718 4.117-1.639.691-2.726 2.338-4.644 1.662-.603-.161-.934-.734-1.728-.785-.794-.052-1.036.852-1.418 1.073-2.917 2.448-4.674 1.17-8.188-1.386-2.169-1.551-3.11-4.064-3.589-7.099-1.017-7.056.76-13.686 1.823-20.669.132-1.095.786-1.727.948-2.33-2.013 2.69-3.967 6.366-7.296 8.543-.764.441-1.528.883-2.623.751-2.17-1.551-4.16-.146-6.211.274-.382.22-.684.139-1.176.169-.301-.081-.492.03-.794-.051-1.617-.595-2.389-1.932-3.272-3.461l-.33-.573c-.442-.764-.31-1.86-.861-2.815-.331-.573-.552-.955-1.265-1.308-1.264-1.308-1.544-2.675-1.06-4.483 1.982-9.805 4.375-19.339 7.863-28.74.352-.713.896-1.537 1.249-2.25.08-.301.271-.411.462-.522 1.72-.992 1.33-2.55 1.13-4.219.308-4.762 2.835-8.769 4.157-13.098.051-.794.514-1.316.977-1.838-.654.632-.705 1.426-1.058 2.139-2.893 7.784-7.735 14.4-11.753 21.56-2.226 4.088-6.547 4.545-10.516 4.289-4.653-.116-9.447-7.538-8.236-12.058.463-.522 1.147-.662 1.529-.883.382-.22.654-.632.624-1.125-.03-.492.242-.904.213-1.396.323-1.206.344-2.492.476-3.587.132-1.095.264-2.19 1.41-2.852 1.368-.28 1.61-1.184 1.933-2.39.293-1.697.998-3.123 1.593-4.74.353-.714.485-1.809 1.881-1.596.603.161.824.543.964 1.227.44.764-.103 1.587-.264 2.19.433-1.014 1.359-2.058 1.571-3.455.103-1.587.396-3.285 1.403-4.63 1.036-.853.565-2.11.888-3.316 0 0-.11-.19.08-.3l-.08.3c-.162.603-.213 1.397-.264 2.19-.08.302-.161.604-.352.714-.845.742-.977 1.838-1.22 2.742-.514 1.316-.726 2.712-2.505 2.72-1.536-.896-.831-2.322-.398-3.337.404-1.507 1.109-2.933.418-4.572-.03-.492.131-1.095.403-1.506 1.117-1.155 1.741-2.28 2.145-3.786.374-2 2.777-3.132 2.358-5.183-.31-1.859.587-3.395 1.292-4.821.352-.713.514-1.316 1.058-2.14 2.02-.912.425-2.793.939-4.108l.485-1.809c.161-.602.514-1.315.565-2.11.323-1.205.947-2.33 1.08-3.425.352-.713.594-1.617.946-2.33.272-.412.243-.904.323-1.205.162-.603.515-1.316-.198-1.669-.905-.242-1.147.662-1.419 1.074-.463.522-.514 1.316-.866 2.029-.353.713-.896 1.536-1.139 2.44-.08.302-.352.713-.734.934-.383.22-.875.25-1.176.17-.603-.162-.743-.846-.772-1.338-.03-.493-.06-.985.102-1.588.624-1.124 1.058-2.139.778-3.506-.03-.492-.06-.985.102-1.587.735-.934 1.168-1.949 1.491-3.154 1.241-4.028 2.894-7.784 4.414-10.446-1.249 2.25-2.71 5.896-3.98 9.432-.375 1.999-1.462 3.646-2.439 5.483-.161.603-.323 1.206-.786 1.728-1.036.853-2.072 1.706-2.476 3.212-.866 2.03-1.321 4.33-3.011 5.815-.684.14-1.095-.132-1.426-.705-.331-.573-.36-1.066-.39-1.558.484-1.808 1.571-3.455.358-5.557-.28-1.367.646-2.41 1.08-3.425 2.806-2.64 3.665-6.447 5.648-9.63.977-1.838 2.065-3.485 3.152-5.131 1.006-1.346 1.902-2.882 2.497-4.5.264-2.19 2.256-3.594 3.232-5.432.514-1.316 1.521-2.66 2.336-3.896.706-1.426 1.631-2.47 2.447-3.705.955-.551 1.91-1.103 2.233-2.309 2.072-1.705 2.425-2.418 2.969-3.242.271-.411.433-1.014.815-1.235 1.448-.58 2.183-1.515 2.888-2.94.756-2.22 2.828-3.926 3.474-6.337.162-.603-.28-1.367.102-1.588-.271.412-.131 1.095-.183 1.889-1.219 2.742-2.85 5.212-4.672 7.792-1.91 1.103-3.41 2.478-4.577 4.426-.081.302-.353.714-.433 1.015-.162.603-.434 1.014-.816 1.235-1.308 1.264-2.395 2.911-3.18 4.639-1.007 1.345-1.492 3.153-2.91 4.227-.875.25-1.477.088-1.919-.676-.772-1.337-.147-2.462.477-3.587 3.114-7.402 7.242-14.371 11.591-20.958 1.631-2.47 3.975-4.587 6.238-6.404.845-.742 1.61-1.183 2.153-2.007z"/>
        <path fill="#38C28D" d="M24.613 102.572l-3.014-.808-1.103-1.91c-.03-.493-.059-.985.735-.934.662 1.147.942 2.514 2.801 2.204.985-.059.743.845.581 1.448z"/>
        <path fill="#D3EAD9" d="M21.232 98.917c-.272.412-.353.713-.735.934l-1.323-2.293.382-.22c.985-.06 1.506.403 1.676 1.58-.11-.192 0 0 0 0z"/>
        <path fill="#0DC189" d="M20.994-3.863c.08-.301-.03-.492.161-.603.816-1.235 1.873-3.374 3.41-2.478 1.837.977-.154 2.382-.367 3.778.03.493-.433 1.015-.705 1.426-.161.603-.514 1.316-.866 2.03-.323 1.205-1.36 2.058-1.381 3.344-.051.794-.294 1.698-.345 2.492l-.404 1.506c-.08.302-.271.412-.462.522-1.037.853-.455 2.301-.999 3.124-.845.743-1.138 2.44-2.866 1.655-1.154-1.117-.339-2.352-.016-3.557.948-2.33 1.895-4.66 2.541-7.072.353-.713.705-1.426.867-2.029.161-.602.514-1.315.866-2.028.573-.331.816-1.235.566-2.11z"/>
        <path fill="#12C189" d="M10.003-.83c.08-.3.271-.41.352-.712 1.015.433 1.537.896 1.103 1.91-.433 1.015-.756 2.22-1.19 3.235-.624 1.125-.153 2.381-.285 3.476-.242.904-.896 1.537-.837 2.522-.293 1.697-1.601 2.962-2.196 4.58-.353.712-.926 1.043-1.72.992-2.52-.837-.338-2.352-.618-3.719 1.19-3.234 2.68-6.388 3.87-9.622C9.136 1.2 9.68.376 10.002-.829z"/>
        <path fill="#05C28A" d="M6.599 46.224c1.424-5.917 2.848-11.834 5.999-16.965.86 2.815-1.072 5.204-1.115 7.777-1.359 2.058-2.115 4.278-2.761 6.689-.323 1.205-.536 2.602-2.123 2.5zM12.733 28.167c-.772-1.338.535-2.602.256-3.969l-.22-.382c-.251-.875.403-1.507.564-2.11 1.007-1.345.316-2.984 1.322-4.33.353-.712.404-1.506 1.168-1.947.573-.331.926-1.044 1.499-1.375.382-.22.683-.14 1.095.132-.213 1.396-.727 2.712-.638 4.19.008 1.778-.477 3.586-2.196 4.579-.573.33-.735.934-.705 1.426.912 2.021-.918 2.823-2.145 3.786z"/>
        <path fill="#18BE83" d="M11.182 5.623c.675-1.918 1.542-3.947 2.328-5.674.463-.522.955-.552 1.367-.28 1.073 1.418-.043 2.572-.367 3.778-.484 1.808-2.174 3.293-1.453 5.424.11.191.03.493-.051.794-.081.302-.353.713-.625 1.125-1.58 1.676-2.034 3.977-3.121 5.624-.272.411-.544.823-1.228.963-.382.22-.793-.051-1.205-.323-.963-1.227-.148-2.462.285-3.477.897-1.536 1.381-3.344 1.866-5.153.734-.933.947-2.33 2.204-2.8z"/>
        <path fill="#04C289" d="M51.643 70.407c-.116 4.652-1.739 8.9-3.443 13.451-1.243-2.594-1.302-3.579.27-7.034 1.227-.963 1.63-2.47 1.844-3.867.242-.904.183-1.888.947-2.33l.382-.22z"/>
        <path fill="#1ABD82" d="M16.064 32.61c-.705 1.425-.808 3.013-1.211 4.52-.735.934-1.771 1.786-3.197 1.081-.03-.492.051-.793-.17-1.176 1.881-1.595 1.513-4.44 3.504-5.844 1.558-.39 1.316.514 1.074 1.418z"/>
        <path fill="#07C188" d="M44.987 13.873c-.073 2.08-.667 3.697-1.564 5.234-.352.713-1.227.963-1.94.61-.904-.242-.17-1.175-.199-1.668.676-1.918 2.094-2.992 3.703-4.176z"/>
        <path fill="#10C28A" d="M20.32 17.924l.904.242c.412.272.331.573.25.875-.513 1.316-.836 2.52-1.35 3.837-.243.904-.845.742-1.448.58-1.095-.131-.743-.844-.581-1.447.815-1.235 1.219-2.742 2.225-4.087z"/>
        <path fill="#05C28A" d="M11.658 38.212c.845-.742 1.91-1.103 3.197-1.081-.838 2.521-1.976 4.962-4.79 5.823-.31-1.86 1.711-2.772 1.593-4.742z"/>
        <path fill="#0AC087" d="M21.454 13.705c1.542-3.948 3.084-7.895 5.45-11.299-.94 4.109-2.894 7.785-4.737 11.651-.22-.382-.603-.161-.713-.352zM50.466 70.576c1.138-2.44 2.387-4.69 3.525-7.13.081-.301.272-.412.382-.22-.234 2.682-1.071 5.203-2.621 7.372-.412-.272-.875.25-1.286-.022z"/>
        <path fill="#12BF85" d="M50.463 70.576c.493-.03.794.052 1.287.022-.514 1.316-.918 2.823-1.432 4.138-.434 1.015-.566 2.11-2.043 2.199 1.249-2.25 1.513-4.44 2.188-6.359z"/>
        <path fill="#0BC087" d="M32.163 101.523c-1.308 1.265-2.712-.726-4.13.347-.735.934-1.69 1.485-2.654.258.684-.14 1.367-.279 1.75-.5 1.8-1.294 3.38-2.97 5.034-.105z"/>
        <path fill="#04C28A" d="M11.18 5.623l-.807 3.013c-.543.824-.947 2.33-2.241.53l.565-2.11c.463-.521.293-1.697 1.359-2.058.301.08.713.353 1.125.625z"/>
        <path fill="#11BF85" d="M18.61 14.073l-.956.551c-.904-.242-2.373 1.625-2.903-.616.242-.904.705-1.426 1.8-1.294 1.397.212 1.83-.802 2.073-1.706-.03-.492.352-.713.845-.743.933.735.58 1.448-.073 2.08-.272.412-.625 1.125-.786 1.728z"/>
        <path fill="#05C289" d="M19.396 12.344c.051-.793.021-1.286.073-2.08-.552-.955-.31-1.86.756-2.22l.382-.22c-.242.904.5 1.749.45 2.543-.052.793.147 2.462-1.661 1.977z"/>
        <path fill="#CAE5D0" d="M3.48 51.85c.323-1.205.426-2.792 2.094-2.991-.132 1.095-.455 2.3-.476 3.586-.765.442-1.367.28-1.618-.594z"/>
        <path fill="#34B97F" d="M21.362-1.018c-.352.713-.624 1.124-.977 1.837-.735.934-1.337.772-1.507-.403-.059-.985.595-1.618 1.028-2.632 1.367-.28 1.507.404 1.456 1.198z"/>
        <path fill="#0AC087" d="M26.983 2.108c.183-1.89.668-3.697 1.976-4.962-.073 2.08-.668 3.697-1.976 4.962z"/>
        <path fill="#0CC28A" d="M27.567 59.594c.183-1.889 1.572-3.455 2.057-5.263.228 2.16.236 3.94-2.057 5.263z"/>
        <path fill="#76B296" d="M61.2 120.931c-.052.794-.073 2.081-1.338.773-.632-.654-1.176.169-1.698-.294 1.639-.691 1.822-2.58 2.939-3.734 1.345 1.006-.374 1.999.096 3.255z"/>
        <path fill="#39BD85" d="M25.01 45.02c-.705 1.427-1.19 3.235-2.608 4.308.183-1.888.888-3.315 2.387-4.69l.22.383z"/>
        <path fill="#0EC087" d="M15.877-3.455l.33.573c-.433 1.014.259 2.653-1.711 2.771-.492.03-.794-.05-1.176.17.485-1.808.999-3.124 2.557-3.514z"/>
        <path fill="#2EBB81" d="M29.03 37.861c-.322 1.206-.947 2.33-2.093 2.992-.089-1.477.837-2.521 1.763-3.565.301.08.492-.03.33.573.081-.301.192-.11 0 0z"/>
        <path fill="#86C394" d="M21.12 98.729c-.521-.463-1.154-1.117-1.676-1.58-.03-.493-.169-1.176-.199-1.668.463-.522.765-.442 1.176-.17 1.155 1.117.832 2.322.7 3.418z"/>
        <path fill="#C0E2CB" d="M3.48 51.848l1.809.485c.03.492-.051.794-.022 1.286.06.985-.293 1.698-1.388 1.566-.824-.544-.471-1.257-.611-1.94-.331-.573-.06-.985.213-1.397z"/>
        <path fill="#0EC086" d="M17.87 1.763l.954-.551c.302.08.412.272.522.463-.131 1.095-.263 2.19-1.3 3.043-1.256.47-1.888-.183-2.168-1.55.242-.904.264-2.19 1.991-1.405z"/>
        <path fill="#10C28A" d="M16.066 32.61c-.14-.683-.17-1.175-.883-1.528l-.22-.382c.654-.632.565-2.11 1.74-2.279.39 1.558.48 3.035-.637 4.19z"/>
        <path fill="#26BC81" d="M20.864 3.856c-.088-1.478 1.139-2.44 1.763-3.565.302.08.603.161.331.573-.433 1.014-.756 2.22-1.38 3.344-.192.11-.493.03-.714-.352z"/>
        <path fill="#05C28A" d="M15.414 28.4c.132-1.096.264-2.19 1.3-3.044.552.956.008 1.779-.154 2.382-.161.602-.543.823-1.146.662z"/>
        <path fill="#14C087" d="M17.87 1.763c-.794-.051-.845.743-1.117 1.154-.08.302-.352.713-.845.743-.301-.08-.411-.272-.713-.353-.28-1.367-.037-2.27.999-3.124.573-.33.985-.059 1.507.404.03.492.14.684.17 1.176z"/>
        <path fill="#DAF0E5" d="M33.098 41.373l-.904-.242c.323-1.206.455-2.301 1.712-2.772.662 1.146-.374 2-.808 3.014z"/>
        <path fill="#DCF1E6" d="M33.902 38.36c-.662-1.146.073-2.08.727-2.712l.602.162c.06.984-.374 1.999-1.329 2.55-.11-.19 0 0 0 0z"/>
        <path fill="#85C799" d="M54.123 123.234c-.794-.051-1.61 1.184-2.572-.043.05-.794.212-1.397 1.197-1.456.522.463 1.044.926 1.375 1.499z"/>
        <path fill="#0DC086" d="M29.678 35.452c.433-1.015.866-2.03 1.712-2.772.08-.301.271-.411.382-.22-.434 1.014-.757 2.22-1.19 3.234-.492.03-.684.14-.904-.242z"/>
        <path fill="#C5E5D1" d="M15.414 28.398l1.146-.662c.11.19.03.492.03.492-.433 1.015-.565 2.11-1.741 2.28-.14-.684.212-1.397.565-2.11z"/>
        <path fill="#43B980" d="M25.013 45.02l-.22-.381c.051-.794.102-1.588 1.168-1.948.47 1.256-.485 1.808-.948 2.33z"/>
        <path fill="#90CDA4" d="M3.658 54.803c.683-.14 1.146-.662 1.499-1.375.47 1.256.008 1.778-.948 2.33-.492.03-.904-.242-.551-.955z"/>
        <path fill="#CFE9D7" d="M20.719 95.391c-.493.03-.985.06-1.176.17-.03-.493.242-.904.213-1.397.382-.22.654-.632 1.176-.17.22.383-.243.905-.213 1.397z"/>
        <path fill="#38C28D" d="M25.567 102.02c.823.543 1.778-.008 2.653-.259-1.007 1.346-2.182 1.515-3.609.81l.956-.551z"/>
        <path fill="#3EC491" d="M3.659 54.803c.22.382.25.874.36 1.065-.603-.161-1.095-.132-1.507-.404-.25-.874-.199-1.668.646-2.41.14.683.28 1.366.5 1.748z"/>
        <path fill="#22BD83" d="M31.772 32.458l-.382.22c-.059-.984.485-1.808 1.22-2.741.28 1.367-.485 1.808-.838 2.521z"/>
        <path fill="#1CBD82" d="M10.059 4.998c-.353.713-1.007 1.346-1.36 2.059.022-1.287.345-2.492 1.381-3.345.03.492-.05.794-.021 1.286z"/>
        <path fill="#8BCCA3" d="M52.858 121.927c-.463.522-.735.933-1.198 1.455l-.955.552c.323-1.206.013-3.065 2.153-2.007z"/>
        <path fill="#05C289" d="M20.862 3.857l.905.242c.25.874-.213 1.396-.566 2.11-.441-.765-.58-1.448-.339-2.352z"/>
        <path fill="#19BF85" d="M40.376 22.65c-.14-.684-.06-.985.403-1.507.743.845-.021 1.286-.403 1.507z"/>
        <path fill="#F5F9F4" d="M36.89 32.052c.169 1.176-.294 1.697-.948 2.33-.36-1.066-.199-1.668.947-2.33z"/>
        <path fill="#18BD83" d="M21.453 13.705c.301.081.603.162.713.353-.272.412-.323 1.205-1.006 1.345-.552-.955.021-1.286.293-1.698z"/>
        <path fill="#2BBD83" d="M29.679 35.45l.904.242c-.353.713-1.007 1.345-1.36 2.058l-.22-.382c.162-.603.323-1.205.676-1.918z"/>
        <path fill="#1EBE85" d="M17.703.585c-.492.03-.794-.052-1.286-.022-.552-.955-.39-1.558.977-1.838l.33.573c.03.493-.05.794-.02 1.287z"/>
        <path fill="#45BA81" d="M19.047 1.595l-.33-.573c.08-.302.16-.603.352-.713.522.463.823.543 1.507.403-.162.603-.514 1.316-.786 1.728-.684.14-.904-.242-.743-.845z"/>
        <path fill="#0CC28A" d="M26.43 62.035c.242-.905.374-2 1.028-2.632.17 1.176-.072 2.08-1.028 2.632z"/>
        <path fill="#3ABA80" d="M22.96.864l-.332-.573c.051-.794.323-1.205.977-1.838.25.875-.102 1.588-.646 2.411z"/>
        <path fill="#05C289" d="M24.416 3.84l-.603-.161c.081-.301.162-.603.544-.823l.301.08-.242.904z"/>
        <path fill="#2DBD84" d="M54.565 63.114l-.191.11-.192.111c.052-.794.022-1.286.676-1.919.441.765-.132 1.096-.293 1.698z"/>
        <path fill="#1DBE83" d="M56.108 59.168c-.11-.191-.412-.272-.412-.272-.11-.191.081-.301.162-.603 0 0 .301.08.492-.03-.272.412-.161.603-.242.905z"/>
        <path fill="#05C289" d="M22.274 7.628c-.08.3-.162.602-.353.713-.11-.191-.3-.081-.411-.272-.11-.191.08-.302.161-.603.11.191.412.272.603.162z"/>
        <path fill="#0CC38B" d="M9.388 26.787c-.382.22-.573.331-.845.743-.904-.243-.934-.735-.882-1.529.271-.412.463-.522.734-.934l.808-3.013c-.17-1.176-.53-2.242.205-3.175.654-.633.705-1.427.756-2.22l-.089-1.477c.162-.603.514-1.316.867-2.03.191-.11.272-.411.463-.521.272-.412.463-.522.845-.743.382-.22.874-.25 1.176-.17.411.272.522.463.742.846-.021 1.286-.264 2.19.207 3.447-.021 1.286-.646 2.41-.476 3.587.169 1.175-.676 1.918-1.11 2.932-.594 1.618-1.681 3.264-3.4 4.257z"/>
        <path fill="#3ABD85" d="M8.206 13.71l-.808 3.014c.06.985-.484 1.808-.616 2.903-.08.302.03.493-.051.794-.08.302-.162.603-.433 1.015-.625 1.124-.948 2.33-1.572 3.454-.625 1.125-.646 2.411-2.285 3.103-1.243-2.594 1.1-4.712.953-7.174-.36-1.066.676-1.918.506-3.094.132-1.096.485-1.809 1.44-2.36.463-.522.735-.934 1.198-1.456.403-1.507 1.168-1.948 1.668-.199z"/>
        <path fill="#E4F2E8" d="M11.847 13.39c-.05.794-.212 1.397-.786 1.728-.543.823-.484 1.808-1.028 2.632-.19.11-.382.22-.683.14-.412-.272-.713-.353-.934-.735l-.301-.08.08-.302c1.139-2.44 1.976-4.962 3.335-7.02 1.095.132 1.044.925.993 1.72-.08.3-.272.41-.353.712.03.493-.242.904-.323 1.206z"/>
        <path fill="#2FC089" d="M5.122 14.981c.06.985-.374 2-1.138 2.44-.081.302-.382.221-.382.221-.42-2.05.145-4.16 1.122-5.998.17 1.176-1.138 2.44.398 3.337z"/>
        <path fill="#30C088" d="M9.386 26.785c1.198-1.456 2.285-3.103 2.88-4.72.302.08.603.162.713.353.331.573-.021 1.286.118 1.97-1.778.007-1.52 2.66-3.71 2.397z"/>
        <path fill="#C8E2CB" d="M10.013 19.037c-.242.904.229 2.161-.807 3.014-1.647-1.087-1.133-2.403-.127-3.748.493-.03.985-.06.934.734z"/>
        <path fill="#08C189" d="M8.196 16.775l.22.382c-.433 1.015-.976 1.838-1.41 2.853-.19.11-.492.03-.602-.162.021-1.286.153-2.381 1.19-3.234l.602.161z"/>
        <path fill="#30C088" d="M8.348 25.858c.03.492.17 1.176.199 1.668-.625 1.125-1.117 1.154-2.08-.073.654-.632.374-1.999 1.88-1.595z"/>
        <path fill="#A2CFAA" d="M10.007-.828c.58 1.448.148 2.462-1.41 2.852-.17-1.176.374-2 1.41-2.852z"/>
        <path fill="#D2E9D8" d="M3.41 17.755l.382-.22c.662 1.146-.374 1.999-.616 2.903-.552-.956-.31-1.86.234-2.683z"/>
        <path fill="#BBE0C7" d="M10.013 19.038c-.411-.272-.713-.353-.933-.735.19-.11.08-.301.272-.411l.573-.331c-.06-.985.212-1.397 1.308-1.265.169 1.176-.264 2.19-1.22 2.742z"/>
        <path fill="#64C08D" d="M8.348 25.858c-.654.632-1.227.963-1.881 1.595.021-1.286.866-2.029 2.123-2.5l-.242.905z"/>
        <path fill="#1BBE86" d="M6.213 19.956c.301.081.411.272.602.162-.08.301-.271.412-.352.713l-.11-.191c.08-.301-.03-.492-.14-.684z"/>
        <path fill="#1ABF87" d="M6.545 20.528l.11.19-.382.222s.08-.302.272-.412z"/>
        <path fill="#42BB82" d="M19.047 1.593l.552.956c-.345 2.491-1.704 4.55-2.35 6.96-.272.412-.764.442-1.176.17-.411-.272-.632-.654-.853-1.036-.03-.493.052-.794.022-1.286.624-1.125 1.33-2.551 2.366-3.404.352-.713.896-1.536 1.44-2.36z"/>
        <path fill="#24BF86" d="M16.565 9.648c.301.081.492-.03.794.051l-.808 3.014c-.463.522-.926 1.044-1.58 1.676.25.875.5 1.75-.977 1.838-.36-1.066-.42-2.05-.096-3.256.654-.632.213-1.396.756-2.22.654-.632.896-1.536 1.91-1.103z"/>
        <path fill="#31BB81" d="M20.225 8.045c-.353.713-.404 1.507-.756 2.22l-.956.551c.103-1.587.426-2.793 1.483-4.932.17 1.176.2 1.668.229 2.16z"/>
        <path fill="#1EBE85" d="M8.21 13.707c-.712-.352-1.425-.705-2.08-.072.405-1.507 1.11-2.933 1.925-4.168.823.543 1.477-.089 2.242-.53-.404 1.507-.889 3.315-2.086 4.77z"/>
        <path fill="#22BC81" d="M13.882 16.038c.353-.713.625-1.125.977-1.838.824.544 1.992-1.404 2.492.345-.463.522-.735.934-1.308 1.265-.764.44-1.006 1.345-1.359 2.058-.352.713-.404 1.507-1.388 1.566-1.265-1.308.565-2.11.586-3.396z"/>
        <path fill="#79C190" d="M13.598 19.513c.352-.713.624-1.125.977-1.838.352-.713.764-.44 1.176-.17-1.007 1.346-.205 3.176-1.513 4.44-.382.221-.845.743-1.448.582l-.33-.573c.352-.713.594-1.617 1.138-2.44z"/>
        <path fill="#48BA80" d="M15.556 17.617c-.492.03-.684.14-1.176.17.242-.905.676-1.92 1.962-1.898-.162.603-.625 1.125-.786 1.728z"/>
        <path fill="#D1E9D8" d="M12.599 22.64c.382-.221.845-.743 1.448-.582l-1.058 2.14c-.522-.463-.36-1.066-.39-1.558z"/>
        <path fill="#5EBA82" d="M17.393-1.272c-.463.521-.816 1.235-.977 1.837-.434 1.015-.676 1.919-.808 3.014.42 2.05-.888 3.315-1.674 5.042-.353.714-.955.552-1.668.2-.721-2.132.969-3.617 1.453-5.425.323-1.206.948-2.33.97-3.617.543-.823.565-2.11 1.71-2.771l.773 1.337.22.383z"/>
        <path fill="#1EBE85" d="M12.266 8.821c1.669-.199 1.389-1.566 1.822-2.58.544-.823.485-1.808 1.33-2.55 1.073 1.417.86 2.814-.035 4.35-.434 1.015-.647 2.411-2.124 2.5-.603-.162-1.125-.624-.963-1.227.08-.302-.03-.493-.03-.493z"/>
        <path fill="#54C18D" d="M12.486 9.204c.412.272.633.654 1.044.926 1.125.624.471 1.256.008 1.778l-.955.552-.301-.081.08-.301c-.14-.684-.28-1.367-.72-2.132.271-.411.653-.632.845-.742z"/>
        <path fill="#31BC82" d="M15.351 7.55c.022-1.287.234-2.683.256-3.97l.955-.55c.14.683.09 1.476 1.155 1.116-.514 1.316-.727 2.712-1.763 3.565-.272.412-.382.22-.603-.161z"/>
        <path fill="#24BE86" d="M15.35 7.549l.603.161c.03.493.14.684.059.985-.242.904.008 1.779-.235 2.683-.352.713-.484 1.808-1.69 1.485l-.551-.955c-.03-.492.022-1.286-.008-1.779.544-.823 1.278-1.757 1.822-2.58z"/>
        <path fill="#BDDABD" d="M11.341 16.488c-.463.522-.845.743-1.308 1.265-.47-1.257-.118-1.97 1.139-2.44-.08.3.14.683.17 1.175z"/>
        <path fill="#50BB83" d="M11.847 13.394c-.221-.382-.442-.764-.17-1.176.191-.11.301.081.412.272.11.191.22.382.03.492.11.192-.082.302-.272.412z"/>
        <path fill="#97CDA5" d="M12.421 13.06l-.22-.382c.08-.301.271-.412.381-.22-.08.3-.271.411-.161.602z"/>
        <path fill="#3BB87E" d="M12.584 12.459l-.382.22-.22-.382c.19-.11.381-.22.271-.412l.33.574z"/>
        <path fill="#A4D0AB" d="M15.67 11.188c-.361-1.066-.802-1.83.234-2.683.22.382.44.764.742.845-.352.713-.705 1.426-.977 1.838z"/>
    </g>
</svg>
