<?xml version="1.0" encoding="UTF-8"?>
<svg width="100px" height="99px" viewBox="0 0 100 99" version="1.1" xmlns="http://www.w3.org/2000/svg" xmlns:xlink="http://www.w3.org/1999/xlink">
    <!-- Generator: Sketch 57.1 (83088) - https://sketch.com -->
    <title>Group 5</title>
    <desc>Created with Sketch.</desc>
    <defs>
        <rect id="path-1" x="0" y="0" width="100" height="100"></rect>
        <radialGradient cx="35.2875805%" cy="2.44717419%" fx="35.2875805%" fy="2.44717419%" r="99.6408156%" gradientTransform="translate(0.352876,0.024472),scale(0.990109,1.000000),rotate(72.646916),translate(-0.352876,-0.024472)" id="radialGradient-3">
            <stop stop-color="#FFD969" offset="0%"></stop>
            <stop stop-color="#FFB322" offset="100%"></stop>
        </radialGradient>
        <radialGradient cx="40.9155094%" cy="0.918640828%" fx="40.9155094%" fy="0.918640828%" r="99.9125125%" gradientTransform="translate(0.409155,0.009186),scale(0.975937,1.000000),rotate(79.261168),translate(-0.409155,-0.009186)" id="radialGradient-4">
            <stop stop-color="#FFD969" offset="0%"></stop>
            <stop stop-color="#FFB322" offset="100%"></stop>
        </radialGradient>
        <linearGradient x1="99.8162972%" y1="0%" x2="13.3417549%" y2="86.9448512%" id="linearGradient-5">
            <stop stop-color="#059EFF" offset="0%"></stop>
            <stop stop-color="#0265FF" offset="100%"></stop>
        </linearGradient>
        <filter x="-11.1%" y="-11.3%" width="122.3%" height="122.5%" filterUnits="objectBoundingBox" id="filter-6">
            <feGaussianBlur stdDeviation="3" in="SourceGraphic"></feGaussianBlur>
        </filter>
    </defs>
    <g id="Page-1" stroke="none" stroke-width="1" fill="none" fill-rule="evenodd">
        <g id="Group-5" transform="translate(-0.100000, -1.000000)">
            <mask id="mask-2" fill="white">
                <use xlink:href="#path-1"></use>
            </mask>
            <g id="Mask"></g>
            <g mask="url(#mask-2)">
                <g transform="translate(-1.000000, 0.000000)">
                    <path d="M4.51214593,24.207606 L73.313231,1.51474514 C75.8273013,0.685522052 78.5375761,2.0513606 79.3667992,4.56543093 C79.3712143,4.57881667 79.3755703,4.59222183 79.3798671,4.605646 L100.560627,70.7790409 C101.36261,73.2846153 99.9952753,75.9683388 97.496873,76.792394 L28.6957879,99.4852549 C26.1817176,100.314478 23.4714428,98.9486394 22.6422197,96.4345691 C22.6378046,96.4211833 22.6334486,96.4077782 22.6291518,96.394354 L1.44839228,30.2209591 C0.646408787,27.7153847 2.01374367,25.0316612 4.51214593,24.207606 Z" id="Rectangle-Copy-68" fill="url(#radialGradient-3)" fill-rule="nonzero" opacity="0.5"></path>
                    <path d="M7.90287251,18.3664287 L78.9051432,4.44478306 C81.5029708,3.93541857 84.0218477,5.62845245 84.5312122,8.22628007 C84.5322109,8.23137349 84.5332013,8.23646853 84.5341834,8.24156516 L97.6032737,76.0617796 C98.1030462,78.6552791 96.4106677,81.1643687 93.8188054,81.6725635 L22.8165348,95.5942092 C20.2187071,96.1035737 17.6998303,94.4105398 17.1904658,91.8127122 C17.1894671,91.8076188 17.1884767,91.8025237 17.1874945,91.7974271 L4.11840428,23.9772126 C3.61863176,21.3837131 5.31101019,18.8746236 7.90287251,18.3664287 Z" id="Rectangle-Copy-68" fill="url(#radialGradient-4)" fill-rule="nonzero"></path>
                    <rect id="Rectangle-Copy-80" fill="url(#linearGradient-5)" fill-rule="evenodd" x="11" y="8.51949614" width="80.8510638" height="81" rx="4.7933481"></rect>
                    <path d="M86.6321838,10.7570772 C89.2794769,10.7570772 91.4255319,12.9031322 91.4255319,15.5504253 L91.4255319,85.9637291 C91.4255319,88.5481665 89.3801762,90.6548854 86.8198811,90.7534697 C86.8405762,90.5743281 86.8510638,90.3917147 86.8510638,90.2066519 L86.8510638,90.2066519 L86.8510638,19.7933481 C86.8510638,17.146055 84.7050088,15 82.0577157,15 L82.0577157,15 L10.7933481,15 C10.7305333,15 10.6680006,15.0012083 10.6057722,15.0036028 C10.8769637,12.6135736 12.905586,10.7570772 15.3678162,10.7570772 L86.6321838,10.7570772 Z" id="Combined-Shape" fill="#EEF3F9" fill-rule="evenodd" opacity="0.363839286" filter="url(#filter-6)"></path>
                    <g id="Group-83" opacity="0.5" stroke-width="1" fill="none" fill-rule="evenodd" transform="translate(22.276596, 25.225162)">
                        <rect id="Rectangle" fill="#FFFFFF" x="29.787234" y="13.8297872" width="6.38297872" height="32.9787234" rx="1.06382979"></rect>
                        <path d="M33.9204694,16.86872 L27.5884124,7.72073504 C27.254022,7.23763798 27.3745726,6.57493348 27.8576697,6.24054311 C27.996942,6.1441415 28.1572201,6.08238886 28.3251711,6.06042212 L40.1206368,4.51766295 C40.7032119,4.44146646 41.2372518,4.85196745 41.3134483,5.43454259 C41.3413677,5.64800599 41.3038669,5.86491704 41.2059006,6.05661659 L35.7424919,16.7473607 C35.4751264,17.2705389 34.8342641,17.477916 34.311086,17.2105505 C34.1546536,17.1306072 34.0204535,17.013168 33.9204694,16.86872 Z" id="Path-14" fill="#FFFFFF" transform="translate(34.361091, 11.293391) rotate(-55.000000) translate(-34.361091, -11.293391) "></path>
                        <rect id="Rectangle-Copy-65" fill="#FFFFFF" x="14.893617" y="20.212766" width="6.38297872" height="26.5957447" rx="1.06382979"></rect>
                        <rect id="Rectangle-Copy-66" fill="#FFFFFF" x="0" y="24.4680851" width="6.38297872" height="22.3404255" rx="1.06382979"></rect>
                    </g>
                    <path d="M65.893617,43.3102687 C74.1191346,43.3102687 80.787234,49.9783681 80.787234,58.2038857 C80.787234,66.4294032 74.1191346,73.0975027 65.893617,73.0975027 C57.6680995,73.0975027 51,66.4294032 51,58.2038857 C51,49.9783681 57.6680995,43.3102687 65.893617,43.3102687 Z M65.5844242,47.5675408 C64.9536153,47.5851181 64.8469997,47.6949762 64.8292305,48.3233642 C64.8203458,48.6046008 64.8292305,48.8858374 64.8247882,49.1714683 C64.8203458,50.0063894 64.8159035,49.9932065 64.0074019,50.2832317 C62.0527828,50.9863232 60.8444727,52.3046198 60.7156456,54.4138942 C60.6001453,56.281481 61.5863396,57.5426514 63.1367079,58.4610646 C64.091806,59.0279321 65.1490772,59.3619006 66.1619254,59.8057271 C66.5572915,59.9771056 66.9348884,60.1748501 67.2636198,60.4472981 C68.2364871,61.2426703 68.0587944,62.5653612 66.9037922,63.0663139 C66.2863102,63.3343675 65.6332897,63.4002823 64.9625,63.3167902 C63.9274403,63.1893549 62.9368037,62.9213013 62.0039173,62.4423202 C61.4575124,62.1610836 61.297589,62.235787 61.1110117,62.8202318 C60.9510883,63.3255789 60.8089342,63.8353202 60.6667801,64.3450615 C60.4757605,65.0305757 60.5468375,65.1931656 61.2087427,65.5139511 C62.0527828,65.9182287 62.954573,66.1247619 63.8741325,66.2697745 C64.5937877,66.3840268 64.6159993,66.4147871 64.6248839,67.1530332 C64.6293262,67.4870016 64.6293262,67.8253644 64.6337685,68.1593329 C64.6382109,68.5811877 64.8425574,68.8272698 65.2823467,68.8360584 C65.7798862,68.8448471 66.2818679,68.8448471 66.7794073,68.8316641 C67.1881004,68.8228754 67.3968893,68.6031594 67.3968893,68.1944874 C67.3968893,67.737478 67.4191009,67.2760742 67.4013316,66.8190647 C67.37912,66.3532666 67.5834666,66.1159732 68.0365829,65.9929322 C69.0805272,65.7116956 69.9689905,65.1580111 70.6531072,64.3318786 C72.5544186,62.0468312 71.830321,58.7027523 69.1382773,57.2306545 C68.2942372,56.7692507 67.3968893,56.417705 66.508426,56.0529763 C65.9931173,55.8420488 65.5000202,55.5959668 65.0646732,55.2532097 C64.2073062,54.5764841 64.3716719,53.4779037 65.3756354,53.0428658 C65.6599436,52.9198248 65.9575788,52.8802759 66.2596563,52.8626986 C67.4235432,52.8011781 68.52968,53.0121056 69.5825089,53.5130583 C70.1067023,53.7635346 70.2799526,53.6844368 70.4576452,53.1439352 C70.6442225,52.5726734 70.7997036,51.9926229 70.9729539,51.4169667 C71.0884542,51.0302664 70.9463,50.7753958 70.5775878,50.6128059 C69.9023557,50.3183863 69.2093544,50.1074588 68.4808145,49.9932065 C67.5301588,49.8481939 67.5301588,49.8437995 67.5257165,48.8990203 C67.5212742,47.5675408 67.5212742,47.5675408 66.17081,47.5675408 C65.9753481,47.5675408 65.7798862,47.5631465 65.5844242,47.5675408 Z" id="Combined-Shape-Copy-12" fill="#FFFFFF" fill-rule="evenodd"></path>
                </g>
            </g>
        </g>
    </g>
</svg>