<?xml version="1.0" encoding="UTF-8"?>
<svg width="100px" height="100px" viewBox="0 0 100 100" version="1.1" xmlns="http://www.w3.org/2000/svg" xmlns:xlink="http://www.w3.org/1999/xlink">
    <!-- Generator: Sketch 57.1 (83088) - https://sketch.com -->
    <title>engage</title>
    <desc>Created with Sketch.</desc>
    <defs>
        <rect id="path-1" x="0" y="0" width="100" height="100"></rect>
        <radialGradient cx="50%" cy="0%" fx="50%" fy="0%" r="100%" id="radialGradient-3">
            <stop stop-color="#FFD969" offset="0%"></stop>
            <stop stop-color="#FFB322" offset="100%"></stop>
        </radialGradient>
        <linearGradient x1="100%" y1="10.4416594%" x2="0%" y2="100%" id="linearGradient-4">
            <stop stop-color="#059EFF" offset="0%"></stop>
            <stop stop-color="#0265FF" offset="100%"></stop>
        </linearGradient>
        <filter x="-13.0%" y="-12.0%" width="126.1%" height="124.0%" filterUnits="objectBoundingBox" id="filter-5">
            <feGaussianBlur stdDeviation="3" in="SourceGraphic"></feGaussianBlur>
        </filter>
        <path d="M62.0777287,75.4444444 C77.3465171,65.7302377 81.2243837,50.4305986 72.2568336,48.0020469 C63.6001369,45.657705 62.0777287,56.0161624 62.0777287,56.0161624 C62.0777287,56.0161624 60.8659118,45.0878112 51.8986239,48.0020469 C43.368576,50.774269 46.8089404,65.7303691 62.0777287,75.4444444 Z" id="path-6"></path>
        <filter x="-173.5%" y="-137.8%" width="447.0%" height="468.7%" filterUnits="objectBoundingBox" id="filter-7">
            <feOffset dx="0" dy="13" in="SourceAlpha" result="shadowOffsetOuter1"></feOffset>
            <feGaussianBlur stdDeviation="15" in="shadowOffsetOuter1" result="shadowBlurOuter1"></feGaussianBlur>
            <feColorMatrix values="0 0 0 0 0.417328219   0 0 0 0 0.646519223   0 0 0 0 0.949303668  0 0 0 1 0" type="matrix" in="shadowBlurOuter1"></feColorMatrix>
        </filter>
    </defs>
    <g id="Page-1" stroke="none" stroke-width="1" fill="none" fill-rule="evenodd">
        <g id="engage">
            <mask id="mask-2" fill="white">
                <use xlink:href="#path-1"></use>
            </mask>
            <g id="Mask"></g>
            <g id="Group-10" mask="url(#mask-2)">
                <g id="Group-61">
                    <path d="M42.3293517,53.079242 C41.8922879,53.079242 41.4629507,52.9139465 41.1416197,52.6030411 L34.8616399,46.5238731 C32.8459725,47.0347275 30.7663076,47.2932459 28.6651423,47.2932459 L24.4139318,47.2932459 C10.9521289,47.2932459 1.38555833e-13,36.6855321 1.38555833e-13,23.6467043 C1.38555833e-13,10.6078765 10.9521289,-3.05533376e-13 24.4140997,-3.05533376e-13 L28.6653103,-3.05533376e-13 C42.1271131,-3.05533376e-13 53.079242,10.6078765 53.079242,23.6467043 C53.079242,27.4237734 52.1868053,31.0337573 50.4262878,34.3764375 C48.8762395,37.3195448 46.6675719,39.9540245 44.0087386,42.0395797 L44.0087386,51.452317 C44.0087386,52.1102455 43.5995582,52.7034224 42.9720137,52.9552703 C42.764232,53.0387316 42.545868,53.079242 42.3293517,53.079242 Z" id="Path" fill="url(#radialGradient-3)" fill-rule="nonzero" transform="translate(26.539621, 26.539621) scale(-1, 1) translate(-26.539621, -26.539621) "></path>
                    <path d="M16.1765309,19.2096304 L39.1133554,19.2096304" id="Path-15-Copy" stroke="#FFFFFF" stroke-width="3.17460317" stroke-linecap="round"></path>
                    <path d="M16.1765309,29.3199623 L26.9958741,29.3199623" id="Path-15-Copy-2" stroke="#FFFFFF" stroke-width="3.17460317" stroke-linecap="round"></path>
                </g>
                <path d="M84.8106013,100 C84.193038,100 83.5863924,99.7664404 83.1323576,99.3271367 L74.2588608,90.7373833 C71.4107595,91.4592114 68.472231,91.8244931 65.5033228,91.8244931 L59.4964399,91.8244931 C40.4751582,91.8244931 25,76.8359872 25,58.4123615 C25,39.9887358 40.4751582,25 59.4966772,25 L65.5035601,25 C84.5248418,25 100,39.9887358 100,58.4123615 C100,63.7492912 98.7390032,68.8501326 96.2514241,73.5732786 C94.0612342,77.7318355 90.9404272,81.4543072 87.1835443,84.4011586 L87.1835443,97.7011847 C87.1835443,98.6308256 86.6053797,99.4689737 85.7186709,99.8248303 C85.4250791,99.9427595 85.1165348,100 84.8106013,100 Z" id="Path" fill="url(#linearGradient-4)"></path>
                <path d="M87.1206865,85.2937871 L87.1195059,97.7011847 C87.1195059,98.6308256 86.5384525,99.4689737 85.6473132,99.8248303 C85.3522544,99.9427595 85.0421685,100 84.7347063,100 C84.2827585,100 83.8366288,99.8761539 83.4513017,99.6392021 L83.4523083,88.607826 C84.7552878,87.5908667 85.9821359,86.4815355 87.1206865,85.2937871 Z M65.3311961,25 C84.447519,25 100,39.9887358 100,58.4123615 C100,63.7492912 98.7327025,68.8501326 96.232694,73.5732786 C94.610693,76.6376925 92.4808306,79.4653068 89.9615542,81.9202593 C90.9328667,80.6014589 91.8050033,79.2167303 92.5654964,77.779946 C95.0655049,73.0568 96.3328024,67.9559586 96.3328024,62.6190289 C96.3328024,44.1954032 80.7803214,29.2066674 61.6639985,29.2066674 L61.6639985,29.2066674 L55.6271017,29.2066674 C46.0040714,29.2066674 37.2841739,33.0047916 30.9966206,39.1272595 C37.2838361,30.5851111 47.6250429,25 59.2942994,25 L65.3311961,25 Z" id="Combined-Shape" fill="#EEF3F9" opacity="0.363839286" filter="url(#filter-5)"></path>
                <g id="Path">
                    <use fill="black" fill-opacity="1" filter="url(#filter-7)" xlink:href="#path-6"></use>
                    <use fill="#FFFFFF" fill-rule="evenodd" xlink:href="#path-6"></use>
                </g>
            </g>
        </g>
    </g>
</svg>