<svg width="31" height="30" viewBox="0 0 31 30" fill="none" xmlns="http://www.w3.org/2000/svg">
<path d="M29.3 1.80014C29.3 1.80014 29.3 1.70014 29.4 1.70014C29.8 1.50014 30 0.700142 30.4 1.00014C30.8 1.30014 30.3 1.80014 30.1 2.20014C28.6 4.60014 27 6.90014 24.7 8.60014C23 10.0001 21.3 11.0001 19.1 10.4001C18.6 10.3001 18.5 10.5001 18.5 10.9001C18.4 11.6001 18.3 12.2001 18.1 12.8001C17.4 15.4001 15.7 16.7001 13 16.1001C12.1 15.9001 11.7 15.9001 11.9 17.0001C12.2 18.3001 12 19.6001 12.2 20.9001C12.4 22.0001 10.8 24.3001 10 24.1001C9 23.8001 7.9 24.1001 6.9 23.6001C6.4 23.3001 5.9 23.2001 5.3 22.9001C5.3 23.4001 5.6 23.6001 5.7 23.9001C5.8 24.2001 6.3 24.7001 5.4 24.3001C5.1 24.2001 5.3 24.6001 5.4 24.8001C5.6 25.4001 6 26.0001 5.7 26.7001C3.3 23.6001 1.4 20.4001 0 16.6001C1.2 16.9001 2 17.4001 2.6 18.1001C2.6 18.7001 2.9 19.1001 3.5 19.3001C3.9 19.5001 4.2 19.8001 4.5 20.1001C4.9 20.5001 5.3 20.7001 5.9 20.7001C6.5 21.0001 7.2 21.2001 7.9 21.4001C9.1 21.7001 9.7 21.4001 9.9 20.1001C10.2 18.5001 10.3 16.9001 9.4 15.4001C9.1 14.9001 9 14.4001 9.1 13.8001C9.2 12.8001 9.7 12.2001 10.8 12.5001C11.6 12.7001 12.4 12.9001 13.2 13.2001C14.3 13.6001 15 13.2001 15.3 12.1001C15.6 11.2001 15.8 10.3001 15.9 9.40014C16.1 8.10014 17.6 6.90014 18.8 7.30014C21.1 8.10014 22.6 6.80014 24.2 5.60014C25.7 4.50014 26.7 2.80014 28.4 1.90014C28.7 2.20014 29 2.20014 29.3 1.80014Z" fill="#00C38B"/>
<path d="M3.39929 19.5992C2.99929 19.1992 1.59929 19.3992 2.59929 18.1992C2.89929 18.4992 3.29929 18.6992 3.59929 18.9992C4.19929 19.3992 3.79929 19.4992 3.39929 19.5992Z" fill="#00C38B"/>
<path d="M8.69844 29.3996C7.89844 29.1996 7.49844 28.8996 7.39844 28.2996C7.39844 28.2996 7.59844 28.0996 7.69844 28.0996C8.29844 28.1996 8.39844 28.6996 8.69844 29.3996Z" fill="#00C38B"/>
<path d="M4.39844 20.3996C4.59844 20.2996 4.79844 20.1996 4.89844 20.0996C5.19844 20.3996 5.59844 20.5996 5.89844 20.8996C5.19844 21.2996 4.79844 20.8996 4.39844 20.3996Z" fill="#00C38B"/>
<path d="M7.89844 21.6004C7.09844 21.7004 6.49844 21.4004 5.89844 20.9004C6.59844 20.9004 7.29844 21.2004 7.89844 21.6004Z" fill="#00C38B"/>
<path d="M29.2984 1.80042C29.0984 2.30042 28.9984 2.80042 28.3984 2.20042C28.5984 2.10042 28.6984 1.20042 29.2984 1.80042Z" fill="#00C38B"/>
</svg>
