<svg width="338" height="116" viewBox="0 0 338 116" fill="none" xmlns="http://www.w3.org/2000/svg">
<path d="M137.25 31.12H141L134.25 13.395H130.25L123.45 31.12H127.1L128.575 27.07H135.775L137.25 31.12ZM132.175 17.22L134.625 23.92H129.725L132.175 17.22ZM148.3 21.52C149.95 21.52 150.725 22.57 151.025 23.595L154 22.595C153.475 20.52 151.575 18.445 148.225 18.445C144.65 18.445 141.85 21.17 141.85 24.97C141.85 28.745 144.7 31.495 148.325 31.495C151.6 31.495 153.525 29.395 154.075 27.345L151.15 26.37C150.875 27.32 150.025 28.445 148.325 28.445C146.625 28.445 145.175 27.195 145.175 24.97C145.175 22.745 146.6 21.52 148.3 21.52ZM168.15 35.87V18.82H164.975V20.245C164.625 19.545 163.525 18.52 161.375 18.52C157.8 18.52 155.475 21.345 155.475 24.945C155.475 28.645 157.975 31.42 161.475 31.42C163.1 31.42 164.325 30.82 164.9 29.895V35.87H168.15ZM158.825 24.945C158.825 22.745 160.175 21.495 161.875 21.495C163.575 21.495 164.925 22.745 164.925 24.945C164.925 27.145 163.575 28.445 161.875 28.445C160.175 28.445 158.825 27.145 158.825 24.945ZM179.65 31.12H182.825L182.795 30.848C182.755 30.434 182.711 29.828 182.702 29.151L182.7 18.82H179.375V25.97C179.375 27.395 178.525 28.395 177.05 28.395C175.5 28.395 174.8 27.295 174.8 25.92V18.82H171.475V26.595C171.475 29.27 173.175 31.445 176.15 31.445C177.45 31.445 178.875 30.945 179.55 29.795C179.55 30.295 179.6 30.87 179.65 31.12ZM189.575 31.12V18.82H186.25V31.12H189.575ZM185.85 14.795C185.85 15.895 186.775 16.82 187.9 16.82C189.05 16.82 189.95 15.895 189.95 14.795C189.95 13.645 189.05 12.72 187.9 12.72C186.775 12.72 185.85 13.645 185.85 14.795ZM200.625 18.77C200.375 18.745 200.125 18.72 199.85 18.72C198.8 18.72 197.1 19.02 196.35 20.645V18.82H193.125V31.12H196.45V25.495C196.45 22.845 197.925 22.02 199.625 22.02C199.925 22.02 200.25 22.045 200.625 22.12V18.77ZM205.275 23.57C205.35 22.445 206.3 21.145 208.025 21.145C209.925 21.145 210.725 22.345 210.775 23.57H205.275ZM211.1 26.77C210.7 27.87 209.85 28.645 208.3 28.645C206.65 28.645 205.275 27.47 205.2 25.845H214L214.035 25.325C214.043 25.169 214.05 24.993 214.05 24.82C214.05 20.87 211.775 18.445 207.975 18.445C204.825 18.445 201.925 20.995 201.925 24.92C201.925 29.07 204.9 31.495 208.275 31.495C211.3 31.495 213.25 29.72 213.875 27.595L211.1 26.77ZM226.175 31.12V18.82H222.85V31.12H226.175ZM222.45 14.795C222.45 15.895 223.375 16.82 224.5 16.82C225.65 16.82 226.55 15.895 226.55 14.795C226.55 13.645 225.65 12.72 224.5 12.72C223.375 12.72 222.45 13.645 222.45 14.795ZM228.675 27.695C228.825 29.095 230.1 31.495 233.8 31.495C237.025 31.495 238.575 29.445 238.575 27.445C238.575 25.645 237.35 24.17 234.925 23.67L233.175 23.295C232.5 23.17 232.05 22.795 232.05 22.195C232.05 21.495 232.75 20.97 233.625 20.97C235.025 20.97 235.55 21.895 235.65 22.62L238.425 21.995C238.275 20.67 237.1 18.445 233.6 18.445C230.95 18.445 229 20.27 229 22.47C229 24.133 230 25.518 232.2 26.085L234.075 26.52C235.025 26.72 235.4 27.17 235.4 27.72C235.4 28.37 234.875 28.945 233.775 28.945C232.325 28.945 231.6 28.045 231.525 27.07L228.675 27.695ZM246.675 27.77C246.675 29.695 248.275 31.47 250.9 31.47C252.725 31.47 253.9 30.62 254.525 29.645C254.525 30.12 254.575 30.795 254.65 31.12H257.7C257.625 30.695 257.55 29.82 257.55 29.17V23.12C257.55 20.645 256.1 18.445 252.2 18.445C248.9 18.445 247.125 20.57 246.925 22.495L249.875 23.12C249.975 22.045 250.775 21.12 252.225 21.12C253.625 21.12 254.3 21.845 254.3 22.72C254.3 23.145 254.075 23.495 253.375 23.595L250.35 24.045C248.3 24.345 246.675 25.57 246.675 27.77ZM251.6 28.995C250.525 28.995 250 28.295 250 27.57C250 26.62 250.675 26.145 251.525 26.02L254.3 25.595V26.145C254.3 28.32 253 28.995 251.6 28.995ZM270.4 31.12V13.02H267.075V31.12H270.4ZM276.375 23.57C276.45 22.445 277.4 21.145 279.125 21.145C281.025 21.145 281.825 22.345 281.875 23.57H276.375ZM282.2 26.77C281.8 27.87 280.95 28.645 279.4 28.645C277.75 28.645 276.375 27.47 276.3 25.845H285.1L285.135 25.325C285.143 25.169 285.15 24.993 285.15 24.82C285.15 20.87 282.875 18.445 279.075 18.445C275.925 18.445 273.025 20.995 273.025 24.92C273.025 29.07 276 31.495 279.375 31.495C282.4 31.495 284.35 29.72 284.975 27.595L282.2 26.77ZM287.025 27.77C287.025 29.695 288.625 31.47 291.25 31.47C293.075 31.47 294.25 30.62 294.875 29.645C294.875 30.12 294.925 30.795 295 31.12H298.05C297.975 30.695 297.9 29.82 297.9 29.17V23.12C297.9 20.645 296.45 18.445 292.55 18.445C289.25 18.445 287.475 20.57 287.275 22.495L290.225 23.12C290.325 22.045 291.125 21.12 292.575 21.12C293.975 21.12 294.65 21.845 294.65 22.72C294.65 23.145 294.425 23.495 293.725 23.595L290.7 24.045C288.65 24.345 287.025 25.57 287.025 27.77ZM291.95 28.995C290.875 28.995 290.35 28.295 290.35 27.57C290.35 26.62 291.025 26.145 291.875 26.02L294.65 25.595V26.145C294.65 28.32 293.35 28.995 291.95 28.995ZM312.925 13.02H309.65V20.045C309.3 19.395 308.3 18.52 306.175 18.52C302.7 18.52 300.275 21.345 300.275 24.945C300.275 28.67 302.775 31.42 306.275 31.42C307.925 31.42 309.175 30.67 309.725 29.695C309.725 30.27 309.8 30.87 309.85 31.12H313.025C312.967 30.4722 312.934 29.8223 312.927 29.172L312.925 13.02ZM303.625 24.945C303.625 22.745 304.975 21.495 306.675 21.495C308.375 21.495 309.7 22.72 309.7 24.92C309.7 27.145 308.375 28.445 306.675 28.445C304.925 28.445 303.625 27.145 303.625 24.945ZM318.95 23.57C319.025 22.445 319.975 21.145 321.7 21.145C323.6 21.145 324.4 22.345 324.45 23.57H318.95ZM324.775 26.77C324.375 27.87 323.525 28.645 321.975 28.645C320.325 28.645 318.95 27.47 318.875 25.845H327.675L327.71 25.325C327.718 25.169 327.725 24.993 327.725 24.82C327.725 20.87 325.45 18.445 321.65 18.445C318.5 18.445 315.6 20.995 315.6 24.92C315.6 29.07 318.575 31.495 321.95 31.495C324.975 31.495 326.925 29.72 327.55 27.595L324.775 26.77ZM337.85 18.77C337.6 18.745 337.35 18.72 337.075 18.72C336.025 18.72 334.325 19.02 333.575 20.645V18.82H330.35V31.12H333.675V25.495C333.675 22.845 335.15 22.02 336.85 22.02C337.15 22.02 337.475 22.045 337.85 22.12V18.77ZM128.3 59.24V46.94H124.975V59.24H128.3ZM124.575 42.915C124.575 44.015 125.5 44.94 126.625 44.94C127.775 44.94 128.675 44.015 128.675 42.915C128.675 41.765 127.775 40.84 126.625 40.84C125.5 40.84 124.575 41.765 124.575 42.915ZM135.175 52.165C135.175 50.74 136.025 49.615 137.475 49.615C139.075 49.615 139.75 50.69 139.75 52.065V59.24H143.075V51.49C143.075 48.79 141.675 46.615 138.625 46.615C137.3 46.615 135.825 47.19 135.075 48.465V46.94H131.85V59.24H135.175V52.165ZM164.225 59.24V55.94H156.325V41.515H152.875V59.24H164.225ZM169.95 59.24V46.94H166.625V59.24H169.95ZM166.225 42.915C166.225 44.015 167.15 44.94 168.275 44.94C169.425 44.94 170.325 44.015 170.325 42.915C170.325 41.765 169.425 40.84 168.275 40.84C167.15 40.84 166.225 41.765 166.225 42.915ZM185.1 46.94H181.6L178.675 55.19L175.625 46.94H171.975L177 59.24H180.325L185.1 46.94ZM189.175 51.69C189.25 50.565 190.2 49.265 191.925 49.265C193.825 49.265 194.625 50.465 194.675 51.69H189.175ZM195 54.89C194.6 55.99 193.75 56.765 192.2 56.765C190.55 56.765 189.175 55.59 189.1 53.965H197.9L197.928 53.559C197.94 53.377 197.95 53.156 197.95 52.94C197.95 48.99 195.675 46.565 191.875 46.565C188.725 46.565 185.825 49.115 185.825 53.04C185.825 57.19 188.8 59.615 192.175 59.615C195.2 59.615 197.15 57.84 197.775 55.715L195 54.89ZM215.025 59.615C220 59.615 222.55 56.315 223.225 53.59L220 52.615C219.525 54.265 218.05 56.24 215.025 56.24C212.175 56.24 209.525 54.165 209.525 50.39C209.525 46.365 212.325 44.465 214.975 44.465C218.05 44.465 219.425 46.34 219.85 48.04L223.1 47.015C222.4 44.14 219.875 41.14 214.975 41.14C210.225 41.14 205.95 44.74 205.95 50.39C205.95 56.04 210.075 59.615 215.025 59.615ZM228.925 52.015C229 50.665 229.825 49.615 231.225 49.615C232.825 49.615 233.5 50.69 233.5 52.065V59.24H236.825V51.49C236.825 48.79 235.375 46.615 232.25 46.615C231.075 46.615 229.725 47.015 228.925 47.965V41.14H225.6V59.24H228.925V52.015ZM239.45 55.89C239.45 57.815 241.05 59.59 243.675 59.59C245.5 59.59 246.675 58.74 247.3 57.765C247.3 58.24 247.35 58.915 247.425 59.24H250.475C250.4 58.815 250.325 57.94 250.325 57.29V51.24C250.325 48.765 248.875 46.565 244.975 46.565C241.675 46.565 239.9 48.69 239.7 50.615L242.65 51.24C242.75 50.165 243.55 49.24 245 49.24C246.4 49.24 247.075 49.965 247.075 50.84C247.075 51.265 246.85 51.615 246.15 51.715L243.125 52.165C241.075 52.465 239.45 53.69 239.45 55.89ZM244.375 57.115C243.3 57.115 242.775 56.415 242.775 55.69C242.775 54.74 243.45 54.265 244.3 54.14L247.075 53.715V54.265C247.075 56.44 245.775 57.115 244.375 57.115ZM257.7 43.265H254.7V44.99C254.7 46.09 254.1 46.94 252.8 46.94H252.175V49.89H254.4V55.615C254.4 57.99 255.9 59.415 258.3 59.415C259.275 59.415 259.875 59.24 260.175 59.115V56.365C260 56.415 259.55 56.465 259.15 56.465C258.2 56.465 257.7 56.115 257.7 55.04V49.89H260.175V46.94H257.7V43.265ZM274.625 56.59C273 56.59 271.5 55.39 271.5 53.09C271.5 50.765 273 49.59 274.625 49.59C276.25 49.59 277.75 50.765 277.75 53.09C277.75 55.415 276.25 56.59 274.625 56.59ZM274.625 46.565C270.95 46.565 268.175 49.29 268.175 53.09C268.175 56.865 270.95 59.615 274.625 59.615C278.3 59.615 281.075 56.865 281.075 53.09C281.075 49.29 278.3 46.565 274.625 46.565ZM287.025 52.165C287.025 50.74 287.875 49.615 289.325 49.615C290.925 49.615 291.6 50.69 291.6 52.065V59.24H294.925V51.49C294.925 48.79 293.525 46.615 290.475 46.615C289.15 46.615 287.675 47.19 286.925 48.465V46.94H283.7V59.24H287.025V52.165ZM320.775 59.24V50.015H311.925V53.015H317.525C317.325 54.265 316.05 56.465 312.775 56.465C309.8 56.465 307.175 54.39 307.175 50.39C307.175 46.19 310.075 44.365 312.75 44.365C315.625 44.365 317.1 46.19 317.55 47.765L320.85 46.59C319.975 43.865 317.4 41.14 312.75 41.14C307.95 41.14 303.675 44.665 303.675 50.39C303.675 56.115 307.75 59.615 312.525 59.615C315.2 59.615 316.95 58.415 317.75 57.215L317.975 59.24H320.775ZM326.55 49.29L323.275 49.19C323.198 48.8196 323.157 48.443 323.15 48.065C323.15 45.215 325.3 42.64 329.075 42.64C332.7 42.64 334.925 45.04 334.925 47.865C334.925 49.965 333.775 51.665 331.775 52.89L328.65 54.79C328.025 55.19 327.5 55.64 327.25 56.265H335.025V59.24H323.025C323.05 56.39 323.95 54.065 326.85 52.315L329.525 50.715C330.9 49.89 331.45 49.04 331.45 47.915C331.45 46.74 330.625 45.69 329 45.69C327.275 45.69 326.425 46.865 326.425 48.39C326.425 48.69 326.475 49.015 326.55 49.29Z" fill="#001033"/>
<path fill-rule="evenodd" clip-rule="evenodd" d="M134.2 102.4L127.147 106.108L128.494 98.254L122.787 92.692L130.673 91.546L134.2 84.4L137.727 91.546L145.613 92.692L139.906 98.254L141.253 106.108L134.2 102.4ZM172 102.4L164.947 106.108L166.294 98.254L160.587 92.692L168.473 91.546L172 84.4L175.527 91.546L183.413 92.692L177.706 98.254L179.053 106.108L172 102.4ZM210 102.4L202.947 106.108L204.294 98.254L198.587 92.692L206.473 91.546L210 84.4L213.527 91.546L221.413 92.692L215.706 98.254L217.053 106.108L210 102.4ZM248 102.4L240.947 106.108L242.294 98.254L236.587 92.692L244.473 91.546L248 84.4L251.527 91.546L259.413 92.692L253.706 98.254L255.053 106.108L248 102.4Z" fill="#F67E53"/>
<mask id="mask0" mask-type="alpha" maskUnits="userSpaceOnUse" x="274" y="84" width="24" height="23">
<path d="M286 102.4L278.947 106.108L280.294 98.254L274.587 92.692L282.473 91.546L286 84.4L289.527 91.546L297.413 92.692L291.706 98.254L293.053 106.108L286 102.4Z" fill="white"/>
</mask>
<g mask="url(#mask0)">
<path d="M286 102.4L278.947 106.108L280.294 98.254L274.587 92.692L282.473 91.546L286 84.4L289.527 91.546L297.413 92.692L291.706 98.254L293.053 106.108L286 102.4Z" fill="#C2C2C2"/>
<path fill-rule="evenodd" clip-rule="evenodd" d="M274 83.6H287.6V108.4H274V83.6Z" fill="#F67E53"/>
</g>
<path d="M7.66913 85.4787L45.0681 104.59L81.0468 85.4787V10.7443H7.66913V85.4787Z" fill="white"/>
<path d="M81.8042 11.0295L6.91168 86.8099L45.7308 106.112L81.8042 87.5705V11.0295Z" fill="#F2F3F2"/>
<path d="M5.20746 35.6558V87.0951L6.53299 87.7607L43.9319 106.872L45.0681 107.443L46.2043 106.872L82.2777 87.7607L83.6032 87.0951V8.27216H5.20746V35.6558ZM7.66916 85.6689V10.7443H81.1415V85.6689L45.0681 104.78L7.66916 85.6689Z" fill="#DCDEDC"/>
<path d="M44.4053 11.9804C44.7841 11.9804 45.1628 11.9804 45.5415 12.0754L44.4053 14.2623C42.7011 14.1672 41.1862 15.4984 41.0915 17.2099C40.9968 18.9213 42.3224 20.4426 44.0266 20.5377H44.4053C45.1628 20.5377 45.9202 20.2525 46.4883 19.7771L47.7192 21.8689C46.7724 22.5345 45.6362 22.9148 44.4053 22.9148C41.3756 23.0099 38.8192 20.7279 38.7245 17.6853C38.6298 14.6426 40.9022 12.0754 43.9319 11.9804H44.4053V11.9804ZM48.2873 16.6394L49.7075 19.0164L48.2873 21.2984L46.9617 19.0164H44.216L45.6362 16.6394H48.2873ZM46.0149 15.7836C46.0149 15.4033 46.1096 15.023 46.299 14.7377C46.4883 14.4525 46.867 14.1672 47.1511 13.9771L47.3404 13.882C47.7192 13.6918 47.8139 13.5967 47.8139 13.4066C47.8139 13.2164 47.5298 13.0263 47.3404 13.0263C46.9617 13.0263 46.6777 13.2164 46.4883 13.5967L46.0149 13.1213C46.1096 12.9312 46.299 12.741 46.4883 12.5508C46.7724 12.3607 47.0564 12.3607 47.3404 12.3607C47.6245 12.3607 48.0032 12.4558 48.1926 12.6459C48.3819 12.8361 48.5713 13.1213 48.5713 13.4066C48.5713 13.882 48.2873 14.2623 47.7192 14.4525L47.4351 14.6426C47.1511 14.8328 46.9617 14.9279 46.867 15.2131H48.5713V15.8787L46.0149 15.7836V15.7836ZM44.4053 27.6689L53.4 22.5345V8.27216H35.316V22.4394L44.4053 27.6689Z" fill="#FF492C"/>
<path d="M85.4021 61.3279H3.40851L0.378723 67.9836L3.40851 74.6394H85.4021L88.3372 67.9836L85.4021 61.3279Z" fill="#FF492C"/>
<path d="M18.0367 57.0492C17.9799 57.0492 17.9326 57.0302 17.8947 56.9921C17.8568 56.9478 17.8379 56.897 17.8379 56.84V45.278C17.8379 45.221 17.8568 45.1703 17.8947 45.1259C17.9326 45.0879 17.9799 45.0688 18.0367 45.0688H20.0345C20.0913 45.0688 20.1386 45.0879 20.1765 45.1259C20.2207 45.1703 20.2428 45.221 20.2428 45.278V54.8908C20.2428 54.9479 20.2712 54.9764 20.328 54.9764H25.8952C25.952 54.9764 26.0025 54.9954 26.0467 55.0334C26.0846 55.0778 26.1035 55.1285 26.1035 55.1856V56.84C26.1035 56.897 26.0846 56.9478 26.0467 56.9921C26.0025 57.0302 25.952 57.0492 25.8952 57.0492H18.0367ZM35.1834 51.7436C35.2529 52.1746 35.2749 52.6596 35.2497 53.1984C35.2434 53.3378 35.1708 53.4075 35.0319 53.4075H29.7677C29.6982 53.4075 29.6762 53.4361 29.7014 53.4931C29.733 53.7213 29.7929 53.9495 29.8813 54.1777C30.178 54.8116 30.7808 55.1285 31.6897 55.1285C32.4156 55.1222 32.99 54.8274 33.4129 54.2443C33.4571 54.1745 33.5076 54.1397 33.5644 54.1397C33.6023 54.1397 33.6433 54.1619 33.6875 54.2062L34.9088 55.4233C34.9657 55.4803 34.9941 55.531 34.9941 55.5754C34.9941 55.6008 34.972 55.6483 34.9278 55.718C34.5554 56.1808 34.0725 56.5421 33.4792 56.802C32.8921 57.0555 32.2452 57.1823 31.5382 57.1823C30.5598 57.1823 29.733 56.9604 29.0576 56.5167C28.3822 56.073 27.8962 55.4518 27.5995 54.6531C27.3596 54.0826 27.2397 53.3346 27.2397 52.4092C27.2397 51.7816 27.3249 51.2302 27.4953 50.7547C27.7604 49.9434 28.2181 49.2968 28.8682 48.8151C29.5247 48.3397 30.301 48.102 31.1974 48.102C32.3335 48.102 33.2456 48.4316 33.9336 49.0908C34.6217 49.75 35.0382 50.6343 35.1834 51.7436ZM31.2163 50.1843C30.4967 50.1843 30.0233 50.5202 29.7961 51.1921C29.7519 51.3443 29.714 51.5281 29.6825 51.7436C29.6825 51.8007 29.7109 51.8292 29.7677 51.8292H32.7123C32.7817 51.8292 32.8038 51.8007 32.7785 51.7436C32.7217 51.414 32.6933 51.2555 32.6933 51.2682C32.5923 50.9259 32.4156 50.6597 32.1631 50.4695C31.9043 50.2793 31.5887 50.1843 31.2163 50.1843ZM40.2299 48.1115C40.9684 48.1115 41.628 48.2414 42.2087 48.5013C42.7895 48.7549 43.2408 49.1067 43.5627 49.5567C43.8846 50.0004 44.0456 50.4949 44.0456 51.04V56.84C44.0456 56.897 44.0266 56.9478 43.9887 56.9921C43.9509 57.0302 43.9035 57.0492 43.8467 57.0492H41.849C41.7921 57.0492 41.7448 57.0302 41.7069 56.9921C41.6628 56.9478 41.6407 56.897 41.6407 56.84V56.279C41.6407 56.2473 41.6312 56.2251 41.6123 56.2125C41.587 56.1998 41.5649 56.2093 41.546 56.241C41.0663 56.8685 40.2993 57.1823 39.2452 57.1823C38.3552 57.1823 37.6388 56.9668 37.096 56.5357C36.5468 56.1047 36.2723 55.4645 36.2723 54.6151C36.2723 53.7403 36.5815 53.0589 37.2001 52.5708C37.8124 52.0891 38.6866 51.8482 39.8228 51.8482H41.5554C41.6123 51.8482 41.6407 51.8197 41.6407 51.7626V51.3823C41.6407 51.0083 41.527 50.7135 41.2998 50.498C41.0726 50.2888 40.7317 50.1843 40.2773 50.1843C39.9301 50.1843 39.6397 50.2476 39.4062 50.3744C39.1726 50.5012 39.0212 50.6787 38.9517 50.9069C38.9202 51.0337 38.8476 51.0907 38.734 51.078L36.6699 50.8023C36.531 50.7769 36.4679 50.7262 36.4806 50.6502C36.5247 50.1684 36.7141 49.7342 37.0486 49.3475C37.3832 48.9609 37.8282 48.6598 38.3836 48.4443C38.9328 48.2224 39.5482 48.1115 40.2299 48.1115ZM39.8891 55.3852C40.3751 55.3852 40.7885 55.2553 41.1294 54.9954C41.4702 54.7355 41.6407 54.3996 41.6407 53.9875V53.3695C41.6407 53.3125 41.6123 53.2839 41.5554 53.2839H40.3341C39.8228 53.2839 39.422 53.3822 39.1316 53.5787C38.8413 53.7688 38.6961 54.0414 38.6961 54.3964C38.6961 54.707 38.8034 54.9479 39.018 55.119C39.2326 55.2965 39.523 55.3852 39.8891 55.3852ZM51.175 45.278C51.175 45.221 51.194 45.1703 51.2318 45.1259C51.2697 45.0879 51.317 45.0688 51.3739 45.0688H53.3716C53.4284 45.0688 53.4758 45.0879 53.5136 45.1259C53.5515 45.1703 53.5705 45.221 53.5705 45.278V56.84C53.5705 56.897 53.5515 56.9478 53.5136 56.9921C53.4758 57.0302 53.4284 57.0492 53.3716 57.0492H51.3739C51.317 57.0492 51.2697 57.0302 51.2318 56.9921C51.194 56.9478 51.175 56.897 51.175 56.84V56.279C51.175 56.2473 51.1624 56.2283 51.1372 56.222C51.1119 56.2156 51.0898 56.222 51.0709 56.241C50.5912 56.8685 49.9379 57.1823 49.111 57.1823C48.3157 57.1823 47.6308 56.9604 47.0564 56.5167C46.482 56.073 46.0686 55.4645 45.8161 54.6911C45.6267 54.0953 45.532 53.4044 45.532 52.6184C45.532 51.807 45.633 51.1002 45.835 50.498C46.1001 49.7627 46.5136 49.1827 47.0753 48.758C47.6371 48.327 48.3314 48.1115 49.1583 48.1115C49.9789 48.1115 50.6164 48.3967 51.0709 48.9672C51.0898 49.0052 51.1119 49.0179 51.1372 49.0052C51.1624 48.9926 51.175 48.9704 51.175 48.9387V45.278ZM50.8152 54.3774C51.0425 53.959 51.1561 53.3822 51.1561 52.6469C51.1561 51.8862 51.0298 51.2872 50.7774 50.8498C50.5186 50.4061 50.1398 50.1843 49.6412 50.1843C49.1047 50.1843 48.7007 50.4061 48.4293 50.8498C48.1452 51.2999 48.0032 51.9052 48.0032 52.6659C48.0032 53.3505 48.1231 53.921 48.363 54.3774C48.647 54.8718 49.0668 55.119 49.6223 55.119C50.1335 55.119 50.5312 54.8718 50.8152 54.3774ZM63.1332 51.7436C63.2026 52.1746 63.2247 52.6596 63.1995 53.1984C63.1932 53.3378 63.1206 53.4075 62.9817 53.4075H57.7175C57.648 53.4075 57.6259 53.4361 57.6512 53.4931C57.6828 53.7213 57.7427 53.9495 57.8311 54.1777C58.1278 54.8116 58.7306 55.1285 59.6395 55.1285C60.3654 55.1222 60.9398 54.8274 61.3627 54.2443C61.4069 54.1745 61.4574 54.1397 61.5142 54.1397C61.552 54.1397 61.5931 54.1619 61.6373 54.2062L62.8586 55.4233C62.9155 55.4803 62.9439 55.531 62.9439 55.5754C62.9439 55.6008 62.9218 55.6483 62.8776 55.718C62.5052 56.1808 62.0223 56.5421 61.429 56.802C60.8419 57.0555 60.195 57.1823 59.488 57.1823C58.5096 57.1823 57.6828 56.9604 57.0074 56.5167C56.332 56.073 55.8459 55.4518 55.5493 54.6531C55.3094 54.0826 55.1895 53.3346 55.1895 52.4092C55.1895 51.7816 55.2747 51.2302 55.4451 50.7547C55.7102 49.9434 56.1679 49.2968 56.818 48.8151C57.4745 48.3397 58.2508 48.102 59.1472 48.102C60.2833 48.102 61.1954 48.4316 61.8834 49.0908C62.5714 49.75 62.988 50.6343 63.1332 51.7436ZM59.1661 50.1843C58.4465 50.1843 57.9731 50.5202 57.7459 51.1921C57.7017 51.3443 57.6638 51.5281 57.6323 51.7436C57.6323 51.8007 57.6607 51.8292 57.7175 51.8292H60.662C60.7315 51.8292 60.7536 51.8007 60.7283 51.7436C60.6715 51.414 60.6431 51.2555 60.6431 51.2682C60.5421 50.9259 60.3654 50.6597 60.1129 50.4695C59.8541 50.2793 59.5385 50.1843 59.1661 50.1843ZM69.0508 48.1305C69.4611 48.1305 69.783 48.2097 70.0165 48.3682C70.1112 48.4189 70.1459 48.5045 70.1207 48.6249L69.7609 50.5836C69.7546 50.7167 69.6757 50.7547 69.5242 50.6977C69.3537 50.6407 69.1549 50.6121 68.9277 50.6121C68.8393 50.6121 68.7162 50.6248 68.5584 50.6502C68.1481 50.6819 67.801 50.8308 67.5169 51.097C67.2329 51.3696 67.0909 51.7278 67.0909 52.1715V56.84C67.0909 56.897 67.0719 56.9478 67.0341 56.9921C66.9899 57.0302 66.9394 57.0492 66.8826 57.0492H64.8943C64.8375 57.0492 64.787 57.0302 64.7428 56.9921C64.7049 56.9478 64.686 56.897 64.686 56.84V48.4538C64.686 48.3967 64.7049 48.3492 64.7428 48.3111C64.787 48.2731 64.8375 48.2541 64.8943 48.2541H66.8826C66.9394 48.2541 66.9899 48.2731 67.0341 48.3111C67.0719 48.3492 67.0909 48.3967 67.0909 48.4538V49.1098C67.0909 49.1415 67.1003 49.1637 67.1193 49.1764C67.1445 49.1891 67.1635 49.1827 67.1761 49.1574C67.6432 48.4728 68.2681 48.1305 69.0508 48.1305Z" fill="#252530"/>
<path d="M31.3772 71.7679C30.8849 71.7679 30.4556 71.6886 30.0895 71.5302C29.7234 71.3717 29.4394 71.1499 29.2374 70.8646C29.0417 70.5794 28.9439 70.2434 28.9439 69.8567V69.619C28.9439 69.5873 28.9565 69.5588 28.9818 69.5335C29.0007 69.5144 29.026 69.5049 29.0575 69.5049H29.9002C29.9317 69.5049 29.9601 69.5144 29.9854 69.5335C30.0043 69.5588 30.0138 69.5873 30.0138 69.619V69.7997C30.0138 70.0913 30.1432 70.3321 30.402 70.5223C30.6608 70.7188 31.0143 70.8171 31.4624 70.8171C31.8475 70.8171 32.1378 70.7347 32.3335 70.5699C32.5292 70.405 32.627 70.1927 32.627 69.9328C32.627 69.7553 32.5733 69.6032 32.466 69.4764C32.3587 69.356 32.2072 69.245 32.0116 69.1436C31.8096 69.0422 31.5098 68.9154 31.1121 68.7633C30.6639 68.5985 30.301 68.4432 30.0233 68.2974C29.7455 68.1516 29.5151 67.9519 29.3321 67.6984C29.1427 67.4512 29.0481 67.1406 29.0481 66.7666C29.0481 66.2088 29.25 65.7682 29.654 65.4449C30.058 65.1217 30.5977 64.96 31.2731 64.96C31.7465 64.96 32.1662 65.0424 32.5323 65.2072C32.8921 65.372 33.173 65.6034 33.375 65.9013C33.577 66.1929 33.678 66.532 33.678 66.9187V67.0803C33.678 67.112 33.6653 67.1406 33.6401 67.1659C33.6211 67.1849 33.5959 67.1944 33.5643 67.1944H32.7122C32.6806 67.1944 32.6554 67.1849 32.6365 67.1659C32.6112 67.1406 32.5986 67.112 32.5986 67.0803V66.9758C32.5986 66.6778 32.4787 66.4275 32.2388 66.2246C31.9926 66.0154 31.6549 65.9108 31.2257 65.9108C30.8786 65.9108 30.6103 65.9837 30.4209 66.1295C30.2253 66.2753 30.1274 66.4813 30.1274 66.7476C30.1274 66.9377 30.1779 67.093 30.2789 67.2135C30.3799 67.3339 30.5314 67.4417 30.7334 67.5367C30.9354 67.6382 31.2478 67.7649 31.6707 67.9171C32.1189 68.0882 32.4787 68.2435 32.7501 68.383C33.0152 68.5224 33.2456 68.7158 33.4412 68.963C33.6306 69.2165 33.7253 69.5303 33.7253 69.9043C33.7253 70.4748 33.5138 70.928 33.0909 71.2639C32.6743 71.5999 32.1031 71.7679 31.3772 71.7679ZM37.4936 65.0266C37.8912 65.0266 38.2416 65.109 38.5445 65.2738C38.8475 65.4386 39.0811 65.67 39.2452 65.9679C39.4156 66.2722 39.5008 66.6208 39.5008 67.0138C39.5008 67.4005 39.4156 67.7428 39.2452 68.0407C39.0748 68.3386 38.8349 68.5668 38.5256 68.7253C38.21 68.8901 37.8471 68.9725 37.4368 68.9725H35.9219C35.8903 68.9725 35.8745 68.9883 35.8745 69.02V71.5777C35.8745 71.6094 35.8651 71.6348 35.8461 71.6538C35.8209 71.6791 35.7925 71.6918 35.7609 71.6918H34.8899C34.8583 71.6918 34.8331 71.6791 34.8141 71.6538C34.7889 71.6348 34.7762 71.6094 34.7762 71.5777V65.1407C34.7762 65.109 34.7889 65.0805 34.8141 65.0551C34.8331 65.0361 34.8583 65.0266 34.8899 65.0266H37.4936ZM37.3326 68.0787C37.6545 68.0787 37.9133 67.9836 38.109 67.7935C38.3047 67.6033 38.4025 67.3529 38.4025 67.0423C38.4025 66.7254 38.3047 66.4687 38.109 66.2722C37.9133 66.0756 37.6545 65.9774 37.3326 65.9774H35.9219C35.8903 65.9774 35.8745 65.9932 35.8745 66.0249V68.0312C35.8745 68.0629 35.8903 68.0787 35.9219 68.0787H37.3326ZM44.1875 71.6918C44.1244 71.6918 44.0802 71.6633 44.055 71.6062L42.8052 68.8679C42.7926 68.8425 42.7736 68.8299 42.7484 68.8299H41.6122C41.5806 68.8299 41.5649 68.8457 41.5649 68.8774V71.5777C41.5649 71.6094 41.5522 71.6348 41.527 71.6538C41.5081 71.6791 41.4828 71.6918 41.4512 71.6918H40.5802C40.5486 71.6918 40.5234 71.6791 40.5044 71.6538C40.4792 71.6348 40.4666 71.6094 40.4666 71.5777V65.1502C40.4666 65.1185 40.4792 65.0931 40.5044 65.0741C40.5234 65.0488 40.5486 65.0361 40.5802 65.0361H43.1839C43.5689 65.0361 43.9098 65.1153 44.2065 65.2738C44.5031 65.4386 44.7335 65.6668 44.8976 65.9584C45.0617 66.2563 45.1438 66.5954 45.1438 66.9758C45.1438 67.4131 45.0333 67.784 44.8124 68.0882C44.5852 68.3988 44.2727 68.6143 43.8751 68.7348C43.8625 68.7348 43.853 68.7411 43.8467 68.7538C43.8404 68.7665 43.8404 68.7791 43.8467 68.7918L45.1817 71.5587C45.1943 71.5841 45.2006 71.6031 45.2006 71.6158C45.2006 71.6665 45.1659 71.6918 45.0965 71.6918H44.1875ZM41.6122 65.9869C41.5806 65.9869 41.5649 66.0028 41.5649 66.0344V67.9266C41.5649 67.9583 41.5806 67.9741 41.6122 67.9741H43.0324C43.3354 67.9741 43.5784 67.8822 43.7615 67.6984C43.9508 67.5209 44.0455 67.2832 44.0455 66.9853C44.0455 66.6873 43.9508 66.4465 43.7615 66.2626C43.5784 66.0788 43.3354 65.9869 43.0324 65.9869H41.6122ZM46.3841 71.6918C46.3526 71.6918 46.3242 71.6791 46.2989 71.6538C46.28 71.6348 46.2705 71.6094 46.2705 71.5777V65.1502C46.2705 65.1185 46.28 65.0931 46.2989 65.0741C46.3242 65.0488 46.3526 65.0361 46.3841 65.0361H47.2552C47.2867 65.0361 47.312 65.0488 47.3309 65.0741C47.3562 65.0931 47.3688 65.1185 47.3688 65.1502V71.5777C47.3688 71.6094 47.3562 71.6348 47.3309 71.6538C47.312 71.6791 47.2867 71.6918 47.2552 71.6918H46.3841ZM52.6047 65.1502C52.6047 65.1185 52.6173 65.0931 52.6425 65.0741C52.6615 65.0488 52.6867 65.0361 52.7183 65.0361H53.5893C53.6209 65.0361 53.6493 65.0488 53.6745 65.0741C53.6935 65.0931 53.703 65.1185 53.703 65.1502V71.5777C53.703 71.6094 53.6935 71.6348 53.6745 71.6538C53.6493 71.6791 53.6209 71.6918 53.5893 71.6918H52.7467C52.6836 71.6918 52.6394 71.6665 52.6141 71.6158L49.8873 67.1279C49.8747 67.1089 49.8621 67.0994 49.8494 67.0994C49.8368 67.1057 49.8305 67.1215 49.8305 67.1469L49.8494 71.5777C49.8494 71.6094 49.8368 71.6348 49.8116 71.6538C49.7926 71.6791 49.7674 71.6918 49.7358 71.6918H48.8648C48.8332 71.6918 48.808 71.6791 48.789 71.6538C48.7638 71.6348 48.7511 71.6094 48.7511 71.5777V65.1502C48.7511 65.1185 48.7638 65.0931 48.789 65.0741C48.808 65.0488 48.8332 65.0361 48.8648 65.0361H49.7074C49.7705 65.0361 49.8147 65.0614 49.84 65.1122L52.5573 69.6C52.5699 69.619 52.5826 69.6254 52.5952 69.619C52.6078 69.619 52.6141 69.6064 52.6141 69.581L52.6047 65.1502ZM57.3008 71.7679C56.8274 71.7679 56.4108 71.676 56.051 71.4921C55.6912 71.302 55.4135 71.0358 55.2178 70.6935C55.0222 70.3512 54.9243 69.9582 54.9243 69.5144V67.2135C54.9243 66.7634 55.0222 66.3672 55.2178 66.0249C55.4135 65.689 55.6912 65.4259 56.051 65.2358C56.4108 65.0519 56.8274 64.96 57.3008 64.96C57.7679 64.96 58.1814 65.0519 58.5411 65.2358C58.8946 65.4196 59.1692 65.67 59.3649 65.9869C59.5605 66.3038 59.6584 66.662 59.6584 67.0613V67.1374C59.6584 67.1691 59.6489 67.1944 59.63 67.2135C59.6047 67.2388 59.5763 67.2515 59.5448 67.2515H58.6832C58.6516 67.2515 58.6264 67.2388 58.6074 67.2135C58.5822 67.1944 58.5695 67.1691 58.5695 67.1374V67.0899C58.5695 66.7476 58.4528 66.4655 58.2192 66.2436C57.992 66.0218 57.6859 65.9108 57.3008 65.9108C56.9158 65.9108 56.6065 66.0281 56.373 66.2626C56.1394 66.4908 56.0226 66.7951 56.0226 67.1754V69.5525C56.0226 69.9328 56.1457 70.2402 56.3919 70.4748C56.6381 70.703 56.9568 70.8171 57.3482 70.8171C57.7269 70.8171 58.0267 70.7156 58.2476 70.5128C58.4622 70.3163 58.5695 70.0437 58.5695 69.6951V69.1056C58.5695 69.0739 58.5538 69.0581 58.5222 69.0581H57.3576C57.3261 69.0581 57.2977 69.0454 57.2724 69.02C57.2535 69.001 57.244 68.9756 57.244 68.944V68.2403C57.244 68.2087 57.2535 68.1833 57.2724 68.1643C57.2977 68.1389 57.3261 68.1262 57.3576 68.1262H59.5448C59.5763 68.1262 59.6047 68.1389 59.63 68.1643C59.6489 68.1833 59.6584 68.2087 59.6584 68.2403V69.4574C59.6584 70.1864 59.4469 70.7537 59.024 71.1594C58.5948 71.565 58.0204 71.7679 57.3008 71.7679Z" fill="white"/>
<path d="M31.9453 88.8636C31.9264 88.8826 31.9201 88.9016 31.9264 88.9207C31.939 88.9397 31.9579 88.9492 31.9832 88.9492H35.7041C35.7483 88.9492 35.7862 88.965 35.8178 88.9967C35.8556 89.0284 35.8746 89.0665 35.8746 89.1108V90.4515C35.8746 90.4959 35.8556 90.5339 35.8178 90.5656C35.7862 90.5973 35.7483 90.6131 35.7041 90.6131H29.5309C29.4804 90.6131 29.4394 90.5973 29.4079 90.5656C29.3763 90.5339 29.3605 90.4959 29.3605 90.4515V89.1774C29.3605 89.095 29.3889 89.0253 29.4457 88.9682C29.8939 88.5308 30.3515 88.0522 30.8186 87.5325C31.2857 87.0127 31.5792 86.6894 31.6991 86.5626C31.9516 86.2584 32.2104 85.9668 32.4755 85.6879C33.3087 84.7624 33.7253 84.0747 33.7253 83.6246C33.7253 83.3013 33.6117 83.0351 33.3845 82.8259C33.1572 82.6231 32.8606 82.5216 32.4945 82.5216C32.1284 82.5216 31.8317 82.6231 31.6045 82.8259C31.3709 83.0351 31.2541 83.3108 31.2541 83.6531V83.9954C31.2541 84.0398 31.2384 84.0778 31.2068 84.1095C31.1752 84.1412 31.1374 84.1571 31.0932 84.1571H29.4741C29.43 84.1571 29.3921 84.1412 29.3605 84.1095C29.3226 84.0778 29.3037 84.0398 29.3037 83.9954V83.3489C29.3353 82.8544 29.4931 82.4139 29.7771 82.0272C30.0612 81.6469 30.4367 81.3553 30.9038 81.1525C31.3772 80.9496 31.9074 80.8482 32.4945 80.8482C33.1446 80.8482 33.7095 80.9718 34.1892 81.219C34.669 81.4599 35.0382 81.7863 35.297 82.1984C35.5621 82.6167 35.6947 83.0763 35.6947 83.5771C35.6947 83.9637 35.5968 84.3599 35.4012 84.7656C35.2118 85.1713 34.9246 85.6086 34.5396 86.0777C34.2555 86.4327 33.9494 86.7877 33.6212 87.1426C33.2929 87.4913 32.8037 87.9952 32.1536 88.6544L31.9453 88.8636ZM40.334 90.7653C39.3241 90.7653 38.5288 90.4832 37.9481 89.919C37.3611 89.3549 37.0675 88.5847 37.0675 87.6085V83.9669C37.0675 83.0097 37.3611 82.2522 37.9481 81.6944C38.5288 81.1303 39.3241 80.8482 40.334 80.8482C41.3376 80.8482 42.1361 81.1303 42.7295 81.6944C43.3165 82.2522 43.61 83.0097 43.61 83.9669V87.6085C43.61 88.5847 43.3165 89.3549 42.7295 89.919C42.1361 90.4832 41.3376 90.7653 40.334 90.7653ZM40.334 89.1013C40.7443 89.1013 41.0694 88.9745 41.3092 88.721C41.5554 88.4674 41.6785 88.1283 41.6785 87.7036V83.9098C41.6785 83.4915 41.5554 83.1555 41.3092 82.902C41.0694 82.6484 40.7443 82.5216 40.334 82.5216C39.9301 82.5216 39.6081 82.6484 39.3683 82.902C39.1221 83.1555 38.999 83.4915 38.999 83.9098V87.7036C38.999 88.1283 39.1221 88.4674 39.3683 88.721C39.6081 88.9745 39.9301 89.1013 40.334 89.1013ZM47.454 88.8636C47.4351 88.8826 47.4319 88.9016 47.4446 88.9207C47.4509 88.9397 47.4698 88.9492 47.5014 88.9492H51.2223C51.2665 88.9492 51.3044 88.965 51.3359 88.9967C51.3675 89.0284 51.3833 89.0665 51.3833 89.1108V90.4515C51.3833 90.4959 51.3675 90.5339 51.3359 90.5656C51.3044 90.5973 51.2665 90.6131 51.2223 90.6131H45.0397C44.9955 90.6131 44.9576 90.5973 44.9261 90.5656C44.8945 90.5339 44.8787 90.4959 44.8787 90.4515V89.1774C44.8787 89.095 44.904 89.0253 44.9545 88.9682C45.4089 88.5308 45.8665 88.0522 46.3273 87.5325C46.7944 87.0127 47.0879 86.6894 47.2079 86.5626C47.4667 86.2584 47.7286 85.9668 47.9937 85.6879C48.8269 84.7624 49.2435 84.0747 49.2435 83.6246C49.2435 83.3013 49.1299 83.0351 48.9026 82.8259C48.6691 82.6231 48.3693 82.5216 48.0032 82.5216C47.6371 82.5216 47.3404 82.6231 47.1132 82.8259C46.8859 83.0351 46.7723 83.3108 46.7723 83.6531V83.9954C46.7723 84.0398 46.7565 84.0778 46.725 84.1095C46.6934 84.1412 46.6524 84.1571 46.6019 84.1571H44.9829C44.9387 84.1571 44.9008 84.1412 44.8692 84.1095C44.8377 84.0778 44.8219 84.0398 44.8219 83.9954V83.3489C44.8472 82.8544 45.0018 82.4139 45.2858 82.0272C45.5699 81.6469 45.9486 81.3553 46.422 81.1525C46.8954 80.9496 47.4225 80.8482 48.0032 80.8482C48.6533 80.8482 49.2183 80.9718 49.698 81.219C50.184 81.4599 50.5564 81.7863 50.8152 82.1984C51.074 82.6167 51.2034 83.0763 51.2034 83.5771C51.2034 83.9637 51.1087 84.3599 50.9194 84.7656C50.7237 85.1713 50.4333 85.6086 50.0483 86.0777C49.7642 86.4327 49.4581 86.7877 49.1299 87.1426C48.8017 87.4913 48.3125 87.9952 47.6623 88.6544L47.454 88.8636ZM55.8428 90.7653C54.8391 90.7653 54.0438 90.4832 53.4568 89.919C52.8698 89.3549 52.5763 88.5847 52.5763 87.6085V83.9669C52.5763 83.0097 52.8698 82.2522 53.4568 81.6944C54.0438 81.1303 54.8391 80.8482 55.8428 80.8482C56.8527 80.8482 57.6512 81.1303 58.2382 81.6944C58.8315 82.2522 59.1282 83.0097 59.1282 83.9669V87.6085C59.1282 88.5847 58.8315 89.3549 58.2382 89.919C57.6512 90.4832 56.8527 90.7653 55.8428 90.7653ZM55.8428 89.1013C56.2594 89.1013 56.5876 88.9745 56.8274 88.721C57.0673 88.4674 57.1872 88.1283 57.1872 87.7036V83.9098C57.1872 83.4915 57.0673 83.1555 56.8274 82.902C56.5876 82.6484 56.2594 82.5216 55.8428 82.5216C55.4451 82.5216 55.1232 82.6484 54.877 82.902C54.6372 83.1555 54.5172 83.4915 54.5172 83.9098V87.7036C54.5172 88.1283 54.6372 88.4674 54.877 88.721C55.1232 88.9745 55.4451 89.1013 55.8428 89.1013Z" fill="#252530"/>
</svg>
