<svg xmlns="http://www.w3.org/2000/svg" width="28" height="51" fill="none" viewBox="0 0 28 51">
    <path fill="#FEBA3D" d="M17.876 47.048l-.078.185c-.542-.01-.644.493-.931.918-.98 1.552-2.467 2.236-4.154 2.618-1.556.328-3.18.3-4.78-.045l-.04.093-.092-.039c-.24-.21-.688-.18-.888-.482 0 0-.093-.039-.054-.132-1.737-1.057-2.792-2.7-3.545-4.543-.753-1.843-.384-3.76.634-5.405.94-1.46 1.788-2.958 3.538-3.75.922-.376 1.805-.66 2.81-.455 1.19.282 2.336-.11 3.634.436 3.562 1.387 5.57 5.175 4.383 9.04.045.673-.56 1.073-.437 1.56z"/>
    <path fill="#FE7415" d="M7.57 7.706C5.29 10.02 2.222 9.276.75 6.805c-.6-.907-.674-2.029-.748-3.15l.857-2.04C2.12.945 3.33.145 4.809.002l.463.194.107.264c-.039.092-.039.092.015.224.015.224-.024.317-.156.37-.038.094-.131.055-.131.055-.17.146-.264.107-.264.107s-.092-.039-.131.054c-.093-.039-.225.015-.317-.024-.186-.078-.41-.063-.58.083l-.079.186c-.038.092-.038.092.015.224-.117.278-.38.386-.59.625C1.549 3.868 1.736 6.019 3.79 7.1c.093.039.185.078.332.248 0 0 .093.04.146.171l.054.132c.054.131.2.302.332.248.805-.098 1.595-.42 2.4-.519l.092.039.093.039c.224-.015.278.117.332.248z"/>
    <path fill="#FED17E" d="M6.863 1.083c-.132.054-.132.054 0 0-.395.161-.674.044-.952-.073L5.726.933 5.54.855s-.092-.04-.146-.17c-.093-.04-.147-.172-.2-.303l.078-.186 1.576.662c-.04.093-.078.186.015.225z"/>
    <path fill="#FEBA3D" d="M7.278 7.365c-.04.093-.132.054-.17.147-.83.415-1.634.513-2.44.612-.316-.025-.253-.434-.346-.473-.093-.04-.093-.04-.224.015-.888-.483-1.932-.594-2.114-1.98-.304-1.872-.085-2.653 1.411-3.878.132-.054.21-.24.288-.425.039-.093.131-.054.17-.146.132-.054.356-.069.58-.084.093.04.318.024.45-.03.131-.053.224-.014.355-.068.093.039.225-.015.395-.161.132-.054.171-.147.21-.24l.834.351.093.039c1.767 1.506 2.086 3.603.951 5.526l-.039.093c.161.394-.14.595-.404.702z"/>
    <path fill="#FEB93D" d="M27.381 23.117c-.34.293-.828.416-1.316.538-1.762-.74-2.084-1.53-1.012-3.043.131-.054.263-.107.434-.254 0 0 .092.04.131-.054.132-.053.264-.107.288-.424 1.732.29 2.162 1.344 1.476 3.237z"/>
    <path fill="#FE7A17" d="M26.065 23.654c-1.068.206-1.878-.461-2.084-1.53-.113-1.028.593-1.931 1.584-1.952.053.132.053.132.014.224-.038.093-.077.186-.21.24-1.008 1.103-.963 1.776.218 2.6.278.116.332.248.478.418z"/>
    <path fill="#FEA25E" d="M7.569 7.705l-.278-.116-.186-.078.04-.093c.248-.332.326-.517.535-.757.557.234.61.366-.111 1.044z"/>
    <path fill="#FE7315" d="M27.383 23.118c-.326.517-.667.81-1.316.537.38-.385.867-.508 1.316-.537z"/>
    <path fill="#FE8D2F" d="M26.216 20.447c-.117.278-.527.215-.751.23l.078-.185.117-.279c.131-.053.17-.146.302-.2.093.04.37.156.254.434z"/>
    <path fill="#FE7515" d="M6.057 44.807c-.468 1.113.382 1.688.968 2.37.439.512 1.259.638 1.225 1.496-2.503-1.051-4.018-4.196-3.098-6.645.156-.371.204-1.005.8-.864.502.102.044.673.02.99.044.673-.136 1.36.001 2.073.24.21.293.341.084.58z"/>
    <path fill="#FE7717" d="M6.631 43.959l.195-.464c.17-.146.341-.293.58-.083.24.21.216.526.284.882.054.132-.024.317-.063.41.09 1.346 1.226 1.497 2.021 1.94.278.117.805-.099.664.497-.102.502-.565.308-.975.245-1.454-.175-2.528-.735-2.763-2.252-.161-.395-.23-.75.057-1.175z"/>
    <path fill="#FE7A18" d="M14.805 40.086c-1.615-.57-3.011-1.92-4.743-2.21-.093-.04-.147-.171-.161-.395 2.043-.45 3.517.714 5.03 1.785.24.21.386.38.455.737-.195.463-.342.293-.58.083z"/>
    <path fill="#FEC55C" d="M7.718 44.743l-.108-.263c.234-.557.229-1.322.833-1.723l.132-.054c.795.443 1.214-.035 1.448-.591.156-.371.365-.61.721-.679.225-.015.317.024.332.249.123.487-.18.688-.39.927-.38.385-.667.81-.861 1.274-.366.61-1.156.932-2.107.86z"/>
    <path fill="#FE9226" d="M7.367 43.507c-.132.054-.317-.024-.45.03.776-.547.424-1.786 1.106-2.372.332.249.084.58.191.844.147.17.069.356.084.58-.249.332-.405.703-.931.918z"/>
    <path fill="#FE801B" d="M16.276 41.248c.308.566.391 1.146.358 2.005-.625-.59-.67-1.263-.66-1.804-.015-.225.117-.279.302-.2z"/>
    <path fill="#FE7F1A" d="M16.278 41.25l-.395.16c-.215-.526-.772-.76-1.118-1.232.185.077.37.155.541.009.503.102.888.482.972 1.062z"/>
    <path fill="#FED895" d="M6.63 43.958c.07.356.045.673.075 1.122-.263.108-.542-.01-.65-.273-.014-.224-.068-.356-.083-.58.171-.146.434-.254.659-.269z"/>
    <path fill="#FEE1AD" d="M8.152 42.419c.078-.186.117-.279.102-.503.17-.146.273-.649.512-.44.293.342-.18.689-.243 1.098-.17.147-.264.108-.371-.155z"/>
    <path fill="#FE821E" d="M9.256 37.973c-.264.108-.566.308-.736.455-.225.014-.356.068-.464-.195.341-.293.59-.625 1.131-.616-.078.186.015.225.069.356z"/>
    <path fill="#FE7716" d="M9.252 37.973c-.053-.131-.107-.263-.2-.302.263-.108.58-.083.844-.191l.161.395c-.224.015-.58.083-.805.098z"/>
    <path fill="#FE9528" d="M7.925 38.286l.463.195c-.302.2-.55.532-.843.191-.054-.131.156-.37.38-.386z"/>
    <path fill="#FEAC35" d="M11.145 39.967c-.248.331-.512.439-.883.283.249-.332.512-.44.883-.283z"/>
    <path fill="#FE9D2B" d="M10.796 46.253c-.341.292-.488.122-.727-.088.263-.107.488-.122.727.088z"/>
    <path fill="#FECB6C" d="M8.25 48.674c.146.17.292.34.57.458-.131.053-.17.146-.263.107-.41-.063-.425-.287-.308-.565z"/>
    <path fill="#FEA02E" d="M4.88 1.122c-.327.518-.736.454-1.2.26-.278-.117-.425-.288-.03-.449.395-.161.859.033 1.23.19z"/>
    <path fill="#FE9E2D" d="M5.807.746c.269.659.269.659-.922.377.303-.2.288-.425.312-.742.278.117.463.195.61.365z"/>
    <path fill="#FE871F" d="M4.044 7.535c.698-.362.766-.006.625.59-.907.6-.308-.566-.625-.59z"/>
    <path fill="#FEC257" d="M8.15 42.419l.464.195c-.458.57-.453 1.337-1.057 1.737-.069-.356-.084-.58-.152-.936.155-.371.404-.703.745-.996z"/>
</svg>
