<svg xmlns="http://www.w3.org/2000/svg" width="29" height="28" fill="none" viewBox="0 0 29 28">
    <path fill="#FEBA3D" d="M11.058 0h4.825c2.815.402 5.83.603 8.042 2.815 3.217 3.015 4.222 6.835 4.222 11.057.201 10.254-8.846 14.677-16.486 14.074-4.021-.402-6.836-2.212-9.45-5.026-.804-.805-1.407-1.81-1.407-3.016 0-.804-.2-1.608-.804-2.212.201-1.608.201-3.216.201-4.825.402-1.206.603-2.614.603-3.82.603-4.423 3.217-7.439 7.64-8.243 1.005-.2 1.81-.2 2.614-.804z"/>
    <path fill="#FE811C" d="M22.72 8.44C17.29 4.42 11.862 3.014 5.83 7.035c.402-2.01 3.62-4.222 6.836-4.222 3.619.402 9.45 2.01 10.052 5.629z"/>
    <path fill="#FE7616" d="M7.037 19.303c.201 1.408 1.206 2.212 2.413 2.815 1.206.603 2.412 1.005 3.418 1.608-1.207.604-2.614.805-3.62.201-2.814-2.01-5.227-4.423-5.629-8.041 0-.604-.2-1.609.603-1.81.805-.201.805.804 1.006 1.407.603.604.804 1.408 1.206 2.413.804.201 1.005.603.603 1.407z"/>
    <path fill="#FE7A18" d="M8.444 16.287c1.006 2.815 3.217 3.217 5.83 3.217.403 0 1.006-.201 1.207.402.201.804-.402.804-1.005 1.005-2.413 1.006-4.423.402-6.233-2.211-.804-.201-1.005-.804-.804-1.407v-.403c.402-.402.603-1.005 1.005-.603z"/>
    <path fill="#FED68D" d="M14.277 10.857c-.804 1.206-2.01 2.413-1.81 4.423-1.608-1.407-.804-2.815-.402-4.02.202-1.207 1.408-.403 2.212-.403z"/>
    <path fill="#FE9629" d="M8.446 16.287c-.201.2-.603.402-.805.402.403-1.408.202-3.016.202-5.027 1.206 1.81.603 3.418.603 4.625z"/>
    <path fill="#FECA7A" d="M7.437 17.29c.402.402.603 1.006.804 1.408l-1.206.603c-.2-.603-.402-1.005-.603-1.407.201-.604.402-1.006 1.005-.604z"/>
</svg>
