<svg xmlns="http://www.w3.org/2000/svg" width="34" height="33" fill="none" viewBox="0 0 34 33">
    <path fill="#FF4651" d="M23.598 24.794l-.174.349L25.519 22c-1.746 2.27-4.016 4.365-4.714 6.46-.35-.174-.873.175-1.397.524-.524.35-1.048.524-1.048.524-.349.35-.698.524-1.047.698.349-.174.524-.174.698-.349-.174.175-.524.35-.698.35-1.048.523-2.794-.175-4.19-1.398-1.398-1.222-2.62-2.793-3.667-4.365-.524-.873-1.746-2.619-2.62-4.54-.872-1.92-1.57-3.84-1.92-4.888-.175-.524-.35-.873-.35-1.048l.35 1.048c-.699-1.222-1.048-2.445-1.397-3.492 0 .174-.175.349-.175.873v-.524c-.349-.524-.523-1.746-.698-2.27.175.175.175-.349.175-.698v.174c0-.698.174-1.571.349-1.92.35-.35 1.047-.873 1.571-1.222.175-.175.35-.175.35-.175.349-.524.698-.699 1.222-.873 0 .174 1.047-.35.524 0 .873-.699 1.92-.873 2.793-1.222 3.492-1.048 7.159-1.397 11-1.048 1.222.175 2.62 0 4.016.698 1.222.175 2.794.699 3.317.524 1.223.524 1.747.524 3.143 1.397-.174-.35 1.223.873.873.175-.698-.873-.873-.699-1.396-1.397C27.44 1.92 23.948.873 20.28.175c-2.62-.175-5.413-.35-8.032.174C9.63.7 6.662 1.746 4.567 2.97c-.524.174-.873.348-1.397.523-.35.35-.873.698-1.572 1.048-.174.174-.523.523-.698 1.047-.35.35-.524.699-.698 1.048-.35 1.571-.175 2.968 0 4.19v-.174c.174 1.397.349 2.27.698 3.492l.175.175c0 .174.523 1.92 1.396 3.492.873 1.746 1.921 3.317 1.921 3.492l.175.349c1.222 2.27 2.27 4.889 3.841 6.635.35.349.873.698 1.222.873.35.524.524.524.873.873.699 1.222 1.397 1.571 1.048.873.873.524 1.746 1.222 2.793 1.571.524.175.873.175 1.397.35.35 0 .699 0 .873.174 1.048-.175.873 0 1.921-.175.175 0 .873-.174 1.397-.698.524-.35 1.047-.873 1.222-.873l-.175.175c.873-.699 1.746-1.048 2.445-1.746 2.27-2.27 3.841-5.064 5.238-7.508-.175-.175-.175.523-.524.523.873-1.396 1.746-2.793 2.445-4.365.174-.174.349-.523.523-.698.175-.524 0-.35.175-.699h.175c.174-.523.523-.698.523-1.222v-.349c.175 0 .175-.524.35-.524 0-.174 0-.174.174-.349 0-.175.175-2.27.175-2.619v-.175c0-.349 0-.523-.175-.349v-.699s.175-.174.175 0v-.698c-.175.524-.524 1.397-.699 1.921 0-.175.175-.698.175-1.048.175-.349.35-1.047.524-1.571 0-.175-.175-.175 0-.524.174-.174 0-.35.174-.524v.873c.35 0 .35-.698.35-.873 0-.174 0-.698-.175-1.047.175.174 0-.35 0-.524 0-.35-.175-.524-.175-.35-.174 0 .175 1.048 0 .7 0-.175 0-.7-.174-.874 0 0 0 .175-.175 0 0-.35-.524-.698-.524-.873 0 0 .175.175.175.35 0-.175 0 0 .175.174.174.175.349.524.523.698.35.524.524 1.048.524.699 0 0-.174-.524-.524-1.048-.174-.174-.174-.35-.349-.35-.174-.174-.174-.348-.349-.348-.175-.175-.35-.175-.175-.175.175.35-.174 0 0 .175l.35.174c.174.35.174.524 0 .524-.175-.35.174 0 .523.524.175.35.35.873.35.524v.174c0-.174-.175-.698-.175-1.047 0 0-.175-.35-.35-.524v-.175c-.174-.349-.523-.698-.523-.349.524.699.175.524-.175.524-.523-.175-.873-.175-.523.35-.175-.525.349 0 .523.523v.698c0 .35 0 .175.175.175 0 .175 0 .524-.175.524.175.174 0 .349 0 .698 0 .175 0 0 .175.175 0 .349-.175.873-.175 1.222-.349 0-.523.35-.698 0 .175-.524.175.35.175-.35-.175.175 0-.523-.175-.698-.175.175-.175.524-.175.873 0 .35 0 .873-.174 1.048 0 0-.175 0-.175-.175v.35s0 .174 0 0c0 .174 0 .349-.174.523l-.175 1.921c0 .175-.175.35-.175.524 0 0 .524-2.445.35-2.095-.175.174-.524 2.968-.699 3.143 0 .174-.174.349 0 .349-.174.349-.174-.175-.174 0l-.175.174c0 .524-.524 1.222-.524 1.746v-1.048c-.174.35-.174.524-.35.874l-.174.174h-.174c-.35.175-.35 1.223-.699 1.746v.175c-.349.524-.524.873-.873 1.397 0 .174 0 .174.175 0l-.175.349c0-.524-.698.698-.698.175-.175.174-.175.349-.35.523 0 0 .175.175 0 .35-.349.349-.174.349-.523.523-.175 0 0-.174-.175-.174-.174.524-.349.349-.698.873-.175.349-.524.873-.35 1.047-.174.524-.349.524-.349.35z"/>
    <path fill="#FF4651" d="M13.122 19.036c-.174-.175-.523-.524-.523-.699 0 .699.873 2.096 1.571 1.397-.175.698.524 1.571.524 1.397H14.693 15.219c.698-1.222 1.396-1.746 2.444-2.445l.175-.174s.174 0 .174-.175c.175-.174.35-.174.35-.349.349-.175.523-.35.872-.524h.175-.175c0-.349.175-.524.175-.698 0 0-.175 0-.35-.175h.175c-.174-.174 0-.349 0-.524 0 .175.175 0 .175 0 .175-.174.35-.523.524-.698h.175l.174-.175c.175.175.175 0 .175.175 0-.35.174-.35.174-.524.35-.349.699-.873 1.048-1.397 0-.174 0-.524.174-.698 0-.35.175-.524-.174-.873.174-.175 0-.35.174-.524-.174 0 0-.35-.174-.35h-.35c-.523.175-1.047.525-1.57.874-.175.35-.524.524-.874.873-.349.35-.524.698-.698 1.048 0 .174-.175 0-.35 0-.174.349-.523.523-.698.873.175.349 0 .174-.174.349-.175 0-.524 1.397-.699 1.222-.174.175-.349.35-.524.35h-.174V17.114c-.175-.35-.175-.175-.175 0s-.174.175-.174.175v0-.175c0-.175-.175.175-.175.175v-.524c0-.175 0 0-.524-.524-.174.175.175 0 0 .175-.349-.35-.349-.699-.524-.873v-.175c0-.175-.174 0-.174 0l.174-.175v-.174h-.174c.174-.175 0 0 0-.175 0 0-.524.175-.699.175h-.174l.174-.175h-.174v.524s0-.175-.175-.175v-.349s-.174.175-.174 0v-.174h.174c.175-.175 0-.175 0-.175H12.6c.174 0 0-.175 0-.175h-.175c-.175.175 0 .175-.175.175v-.175l-.174.175s-.175 0 0 0l.524-.175-.524.175-.175.175h.175s0 .174-.175.174c0 0 .524-.174.35-.174h-.35-.174c.174.174-.699.523-.524.698 0-.175.174-.175.174 0v.175h.175v.174c.175 0 0 .175 0 .175h.175s0 .174.174.174c0 0-.174.175-.174.35l.174-.175c0-.35 0-.524-.174-.524v.175s.174 0 .174.174c0 0 0 .175-.174 0h.349v.175s-.524-.175-.35-.175l.524.175h.175l-.175.175v.174c.175 0 .175.175.35.175 0 0-.175.174-.35.174h-.174s0 .175.174 0c0 .35.524.35.35.35v.349c.174 0 .174 0 .174-.175-.174.175 0 .35-.349.35v.174s.175-.175.175 0v.175l-.175.174c.175 0 0 .175 0 .35 0 0 .175.174.35 0 .523.174.523.174.348.349z"/>
</svg>
