<svg xmlns="http://www.w3.org/2000/svg" width="28" height="34" fill="none" viewBox="0 0 28 34">
    <path fill="#00C48C" d="M8.015 31.115l-.316.085c.947-.254 2.052-.55 3.042-.646-1.147.138-2.337.119-3.6.457l-.632.17c-.158.041-.315.084-.673.01.115-.2.273-.242.22-1.074-.012-.673-.181-1.305-.181-1.305-.285-.431-.412-.905-.496-1.22.084.315.327.589.411.904-.084-.315-.327-.589-.411-.905-.54-1.378-1.078-2.757-1.343-4.378l-.634-2.368-.296-1.105-.17-.632-.127-.473c-.042-.158.074-.358.19-.559.157-.042.115-.2.273-.242l.947-.254c1.579-.423 3.358-.73 4.305-.984l.79-.212c-.474.127-.474.127-.99.096 1.063-.454 1.967-.865 3.073-1.161-.116.2-.158.042-.632.169l.474-.127c.431-.285 1.378-.539 1.967-.866.043.158.359.074.674-.011l-.158.042 3.947-1.057.316-.085 1.063-.454c-.116.2.99-.096.358.073.905-.411 1.22-.496 1.737-.465.2.115.4.231.442.389.043.158.043.158.243.273l.042.158.085.316.592 2.21c.38 1.421.962 2.958 1.5 4.336.412.905.823 1.81 1.162 3.073.412.905.866 1.968 1.15 2.4.012.673-.062 1.031-.293 1.431-.23.4-.462.801-1.051 1.128.158-.042-.116.2-.432.285-.315.085-.43.285-.115.2.99-.096.905-.411 1.81-.823.662-.685 1.198-1.844 1.102-2.834l-.085-.315-.084-.316-.127-.474-.254-.947c-.338-1.263-.561-2.726-.9-3.99-.623-1.694-1.015-3.788-1.48-5.525l-.212-.79c-.127-.473-.37-.746-.654-1.178-.527-.704-1.328-1.167-2.044-1.313-.716-.147-1.821.15-2.137.234-.474.127-.947.254-1.379.539-.473.126-.674.01-1.147.138-1.579.423-3.631.973-5.326 1.596l.158-.042c-.947.254-1.62.265-2.568.519l-.158.042c-.358-.073-5.399 1.954-5.757 1.88l-.315.085c-.474.127-1.421.381-1.768.982-.547.485-.851 1.243-.998 1.96-.231.4-.146.715-.02 1.189l.212.79.338 1.262c.243.274.37.747.612 1.02-.073.359.243.274.17.632-.22 1.075.065 1.506.095.99l.593 2.21c.084.316.169.632.411.905.085.316.127.474-.03.516.169.632.126.474.138 1.147-.116.2.623 1.695.665 1.853l-.042-.158c.042.158.084.316.17.631l.21.79c.128.473.455 1.063 1.055 1.41.8.462 1.717.724 2.707.628l.315-.085.158-.042.474-.127.79-.212 3.315-.888c-.043-.158-.474.127-.516-.031 1.263-.338 2.41-.477 3.673-.815.158-.042.516.03.674-.011l.474-.127.042.157c.431-.284.674-.01.99-.095l.315-.085c.043.158.474-.127.516.031l.316-.085c.158-.042 1.452-.896 1.768-.98.157-.043.273-.243.115-.201l.316-.085.316-.084s.157-.043.042.158l.474-.127c-.516-.031-.99.096-1.506.065l.79-.212c.357.073.831-.053 1.147-.138.158-.042.115-.2.273-.243.2.116.158-.042.316-.084l-.474.127c.043.158.516.03.674-.012l.632-.169c-.116.2.158-.042.358.073l.158-.042c-.043-.158-.674.011-.358-.073l.473-.127s-.158.042-.042-.158l.473-.127-.157.043c.157-.043-1.137.811-.82.727 0 0 1.135-.812.977-.77-.157.043.116-.2-.042-.158l-.316.085c-.157.042-.358-.073-.2-.116.316-.084-.82.728-.504.643l-.158.043c.158-.043.431-.285.631-.17 0 0 .116-.2.274-.242.158-.042.316-.085.273-.243-.79.212.262-.916-.527-.704.358.073-.116.2-.431.284 0 0-.2-.115-.516-.03-.158.042-.158.042-.116.2-.158.042-.316.084-.358-.074-.116.2-.316.085-.474.127-.157.043 0 0-.115.2l-.79.212c-.157.042-.358-.073-.242-.274.474-.127-.116.2.358.074-.2-.116.316-.085.431-.285-.2-.116-.515-.031-.631.17l-.79.21s-.042-.157.116-.2l-.316.085-.315.085-1.337.696c-.158.042-.358-.073-.473.127 0 0 1.852-.665 1.694-.623-.158.042-2.126.908-2.326.792-.158.043-.316.085-.273.243-.316.084-.043-.158-.2-.116l-.2-.115c-.274.242-.948.253-1.38.538.159-.042.274-.242.39-.442 0 0 .316-.085.273-.243l-.79.211-.157.043c-.158.042 0 0 0 0-.2-.116-.905.412-1.42.38l-.159.043c-.473.127-.831.053-1.305.18-.116.2-.116.2.042.158l-.316.085c.274-.243-.673.011-.442-.39l-.474.128s.043.158-.273.242c-.316.085-.316.085-.674.012l-.042-.158c-.432.285-.516-.031-.832.053-.316.085-.79.212-.747.37-.674.011-.716-.147-.716-.147z"/>
    <path fill="#00C48C" d="M8.193 13.466l-.158.042c.632-.169 1.421-.38 2.253-.434-1.864-.008-3.727-.017-4.736 1.27-.085-.317-.6-.348-1.075-.22l-.157.042c.042.157-.116.2-.274.242 0 0 .158-.042.116-.2l-.116.2-.158.042c-.158.043-.2-.115-.242-.273l-.043-.158-.084-.316-.212-.789c-.169-.631-.253-.947-.223-1.463.031-.516-.095-.99.136-1.39.03-.516.25-1.59.713-2.39.42-.96 1.082-1.645 1.514-1.93.157-.042.273-.242.43-.284-.357-.073-.357-.073-.515-.031.231-.4.578-1.001 1.167-1.328-.2-.116-.2-.116-.516-.031l.316-.085c.073-.358.662-.685.936-.927.042.158.2.115.516.03l-.158.043c.79-.212 1.694-.623 2.526-.677.158-.042.2.116.2.116.158-.043.474-.127.674-.012 0 0 .674-.011.358.074.473-.127 1.032.062 1.548.092 1.832.525 3.476 1.607 4.773 3.29.443.39.927.936 1.181 1.883.327.59.74 1.494 1.097 1.568.212.79.454 1.063.781 1.652.116-.2.327.589.4.23.032-.515-.126-.473-.095-.989-.254-.947-.35-1.936-.604-2.884-.296-1.105-.592-2.21-1.362-3.188-1.012-1.252-2.182-2.461-3.583-3.27-1.36-.651-3.307-.975-4.813-.91-.316.084-.516-.031-.874-.105-1.305.18-3.084.488-4.22 1.3-.705.528-1.337.697-1.883 1.182l-.116.2c-.158.042-.936.928-1.514 1.929-.42.958-.797 2.075-.755 2.232l-.116.2C.617 8.559.051 10.234.274 11.697c.084.316.327.59.411.905-.073.358.085.316.127.474.012.674.296 1.105.37.747l.211.79.296 1.104c.085.316.17.632.412.905.085.316.127.474.011.674l.085.316c.474-.127.316-.085.99-.096.2.116 2.167-.75 2.167-.75l-.157.042c.631-.169 1.031.062 1.663-.107 1.621-.265 3.315-.888 4.736-1.27-.042-.157-.316.085-.358-.072.79-.212 1.78-.308 2.726-.562.158-.042.358.074.516.031l.316-.084.042.157c.274-.242.516.031.832-.053l.158-.042c.042.158.316-.085.358.073l.158-.042c.158-.043.978-.77 1.136-.813.158-.042.116-.2.116-.2l.157-.042.158-.042.042.158.316-.085c-.358-.073-.673.011-1.032-.062l.474-.127c.2.116.516.031.832-.053 0 0 .115-.2.273-.243.043.158.158-.042.316-.085l-.316.085c.043.158.358.073.516.031l.474-.127c.042.158.158-.042.2.116l.158-.043c-.043-.158-.516-.03-.358-.073l.316-.085-.043-.157.316-.085-.158.042c.158-.042-.82.728-.505.643 0 0 .82-.727.663-.685-.158.042-.042-.158-.042-.158l-.116.2c-.158.043-.2-.115-.2-.115.316-.085-.505.643-.347.6l-.158.043c.158-.043.274-.243.474-.127l.116-.2c.157-.043.315-.085.115-.2-.631.169.104-.875-.37-.748.359.074-.115.2-.273.243 0 0-.2-.116-.358-.074-.158.043-.158.043-.115.2-.158.043-.316.085-.2-.115-.116.2-.159.042-.316.085-.158.042 0 0-.116.2l-.631.17s-.358-.074-.243-.274c.316-.085-.115.2.2.115-.2-.115.316-.084.274-.242-.2-.116-.358-.074-.474.127l-.631.169-.043-.158-.158.042-.315.085-1.02.612c-.159.042-.201-.116-.317.084 0 0 1.379-.538 1.221-.496-.158.042-1.494.739-1.694.623-.158.042-.158.042-.116.2-.158.043-.042-.158-.042-.158l-.054-.831c-.273.242-.631.17-.905.412.158-.043.116-.2.231-.4 0 0 .158-.043.116-.201l-.474.127.043.158c-.2-.116-.59.327-1.105.296l-.158.042c-.316.085-.516-.03-.99.096-.115.2-.115.2.042.158l-.315.085c.273-.243-.358-.074-.285-.432l-.316.085s.043.158-.115.2c-.358-.073-.316.085-.516-.03l-.043-.159c-.273.243-.358-.073-.673.012-.158.042-.474.127-.432.284-.316.085-.316.085-.358-.073zM12.72 23.417c-.042-.158-.042-.158 0 0-.315.085-.746.37.201.116-.474.127-.747.369-.59.327l.159-.043-.158.043.158-.043c.358.074.242.274.127.474-.116.2-.074.358-.19.558l.159-.042c.157-.042.358.073.358.073l.315-.084c.158-.043.2.115.358.073l-.157.042.042.158.158-.042-.158.042c.158-.042.042.158.358.073.042.158.242.274.443.39.157-.043.358.073.358.073.158-.043.358.073.674-.012 0 0 .2.116.357.073l.316-.084.158-.042.347-.6c-.2-.117-.042-.159-.085-.317-.042-.158-.2-.115-.4-.23l.158-.043c-.043-.158-.043-.158-.243-.274l.116-.2c.158-.042-.558-.189-.4-.23.115-.201.43-.286.389-.444l-.316.085c.158-.042-.158.042 0 0 .473-.127.115-.2.158-.042l-.043-.158-.157.042.157-.042.158-.042c.158-.043-.2-.116-.2-.116s.316-.085.273-.242c.116-.2-.084-.316-.084-.316l-.158.042.116-.2.158-.042.157-.043c-.157.043.158-.042.158-.042l.158-.042-.516-.031-.158.042.158-.042-.316.084.158-.042-.158.042c.158-.042 0 0 0 0l.158-.042.158-.042-.158.042-.158.042.474-.127-.474.127-.157.043.157-.043-.157.043.473-.127s-.158.042 0 0l-.158.042-.158.042-.789.212.158-.043-.158.043.158-.043-.158.043c.158-.043 0 0 0 0l.158-.043-.316.085.158-.042-.158.042c-.158.043-.158.043 0 0l-.158.043.358.073s-.157.042 0 0l-.2-.116s.358.073.2.116l.158-.043-.158.043-.157.042.157-.042-.315.084-.158.043c-.158.042.158-.043.042.157l-.158.043.158-.043-.474.127.158-.042-.158.042-.158.043c-.947.253-1.263.338-1.22.496l.158-.042-.158.042z"/>
</svg>
