<svg xmlns="http://www.w3.org/2000/svg" width="100" height="100" fill="none" viewBox="0 0 100 100">
    <rect width="100" height="100" fill="#D1FFF2" rx="50"/>
    <path fill="#00C48C" d="M73.111 66.656l-8.889-8.87C66.667 54.901 68 51.131 68 47.14c0-9.535-7.778-17.075-17.111-17.075-8.445-.222-15.556 5.765-17.111 13.749-.222 1.109.444 1.996 1.555 2.218 1.111.221 2-.444 2.223-1.553 1.11-6.43 6.666-10.866 13.11-10.866C58 33.613 64 39.6 64 46.919c0 5.544-3.333 10.423-8.444 12.418-.89.444-1.334 1.553-1.111 2.44.222.665 1.11 1.109 1.777 1.109.222 0 .445 0 .667-.222 1.555-.665 3.111-1.553 4.444-2.44l8.89 8.871c.444.444.888.444 1.333.444.444 0 .889-.222 1.333-.444.889-.665.889-1.774.222-2.44z"/>
    <path fill="#00C48C" d="M33.333 54.012h12.223c1.11 0 1.777-.887 1.777-1.996s-.666-1.774-1.777-1.774H33.333c-1.11 0-1.777.887-1.777 1.996s.888 1.774 1.777 1.774zM49.111 56.23H33.333c-1.11 0-1.777.888-1.777 1.997 0 1.108.888 1.995 1.777 1.995h15.778c1.111 0 1.778-.887 1.778-1.995 0-1.11-.667-1.996-1.778-1.996zM49.111 62.219H33.333c-1.11 0-1.777.887-1.777 1.997s.888 1.997 1.777 1.997h15.778c1.111 0 1.778-.888 1.778-1.997 0-1.11-.667-1.997-1.778-1.997zM28.667 50.242c-1.111 0-2 .887-2 1.774s.889 1.996 2 1.996c1.11 0 1.777-.887 1.777-1.996s-.888-1.774-1.777-1.774zM28.667 56.23c-1.111 0-2 .888-2 1.997 0 1.108.889 1.995 2 1.995 1.11 0 1.777-.887 1.777-1.995 0-1.11-.888-1.996-1.777-1.996zM28.667 62.219c-1.111 0-2 .887-2 1.997s.889 1.997 2 1.997c1.11 0 1.777-.888 1.777-1.997 0-1.11-.888-1.997-1.777-1.997z"/>
</svg>
