<svg xmlns="http://www.w3.org/2000/svg" xmlns:xlink="http://www.w3.org/1999/xlink" width="118" height="132" viewBox="0 0 118 132">
    <defs>
        <path id="a" d="M.125.617h117.07v123.468H.124z"/>
        <path id="c" d="M.718.277h3.5V3.6h-3.5z"/>
        <path id="e" d="M.026.038h1.448v5.343H.026z"/>
        <path id="g" d="M0 .002h3.666v4.01H0z"/>
        <path id="i" d="M0 .002h3.666v4.01H0z"/>
        <path id="k" d="M.04.002h3.538v4.01H.04z"/>
        <path id="m" d="M.037.002h3.647v4.01H.037z"/>
        <path id="o" d="M.039.037h3.753V5.24H.039z"/>
        <path id="q" d="M0 .051h10.286v11.163H0z"/>
    </defs>
    <g fill="none" fill-rule="evenodd">
        <g transform="rotate(-180 58.9 66)">
            <path fill="#DBE6EE" d="M107.966 36.112c13.818 29.728 3.601 63.718-22.821 75.917-26.421 12.199-59.043-2.011-72.861-31.74-13.82-29.73-3.602-63.719 22.82-75.918 26.422-12.199 59.043 2.011 72.862 31.74M109.253 35.68c1.477 1.136 1.368-.975 1.132-2.895a82.426 82.426 0 0 0-3.46-.385c.851 1.06 1.55 2.185 2.328 3.28"/>
            <path fill="#DBE6EE" d="M104.524 26.663l-2.601-1.404c-.876-.442-1.765-.853-2.631-1.259 1.08.718 2.192 1.443 3.237 2.245.566 2.136-.145 2.398-1.123 2.053-.992-.342-2.211-1.326-2.882-1.761 2.12 2.465 3.12 2.554 3.87 1.953.74-.585 1.166-1.853 2.13-1.827M97.256 20.706c-1.968-3.067-2.642-.761-2.203.862.684-.442 2.663.79 2.203-.862M28.924 111.6c-.383-.96-.86-1.99-.587-2.287-.754-.314-1.067-.1.587 2.287M27.927 108.55c.24.061.5.124.795.214-.214-.112-.382-.22-.64-.328-.098.013-.098.08-.155.114"/>
            <mask id="b" fill="#fff">
                <use xlink:href="#a"/>
            </mask>
            <path fill="#DBE6EE" d="M20.968 51.017c-1.119-2.71-.18-4.153-.256-6.675a34.36 34.36 0 0 1 2.308-.928c-.062-1.335-.41-1.726-.823-2.039-.42-.32-.91-.558-1.17-1.666.484-.509.914-1.19 1.234-1.976.378-.758.64-1.63.935-2.44.548-1.64 1.029-3.156 1.345-3.638.618-.118.786.261.848.726.069.474.058 1.058.234 1.352.76-2.93-1.091-3.832 1.12-7.057l.492.28c1.53-4.563 5.161-8.827 9.822-11.883 4.686-3.114 10.2-5.021 15.705-6.288-.765-.056-.608-.503-.942-.899 6.013-.915 12.747-.218 19.12 1.334 6.417 1.522 12.46 3.837 18.292 5.417-3.064-2.173-6.857-5.625-11.404-8.12-2.247-1.27-4.674-2.226-7.036-2.786-2.374-.511-4.69-.601-6.708-.02-.61-.513-1.38-.758-2.184-.912-.804-.171-1.648-.183-2.436-.204-1.576-.088-2.925-.042-3.502-1.139-5.522-.448-9.395.916-12.732 2.696-3.363 1.82-6.31 3.966-10.525 6.51-1.39.456-1.367-.778-2.255-1.37 2.128-1.782 4.44-3.406 6.928-4.773-1.697.4-3.38.912-5.045 1.516.373-.5 1.011-.955 1.735-1.422.717-.485 1.544-.924 2.33-1.344.773-.446 1.505-.864 2.054-1.276.546-.425.895-.879.9-1.376-3.349 2.307-7.777 4.526-11.653 7.467-3.857 2.914-7.105 6.464-8.127 9.795 2.271-2.009 4.533-5.066 7.499-7.114.838-.197 1.798-.56 2.614-.726.833-.146 1.492-.13 1.7.334-3.288 3.829-6.072 6.995-8.755 10.375-2.61 3.4-5.052 7.097-6.5 11.722-.72 2.305-1.872 5.346-2.885 5.5.102-1.662-1.017-.709-1.062-2.147-.157 1.834.746 2.169 1.367 2.632.65.471 1.043 1.044.336 3.392-1.08-.439-2.156-.892-3.228-1.357 1.534 1.398 1.107 2.848.508 4.553-.585 1.686-1.322 3.666-.315 5.538-1.418 1.28-2.192-1.209-1.982-4.133-.903 3.254 1.106 3.675 1.007 6.224-1.006-.818-1.915-1.674-2.874-2.573.677.75.959 1.424 1.014 2.057.071.634-.11 1.227-.407 1.793-.619 1.13-1.585 2.166-2.029 3.033.362.074 1.08-.306 1.713-.248.636.06 1.149.54 1.254 2.303-.224 1.554-1.037.866-1.415 1.274.756.12 2.202 1.225 2.682 3.477-.894.602-1.74-1.273-2.734-1.292.142.899.383 1.691.474 2.447.091.759.072 1.474-.16 2.207 1.537 2.94 1.336-.516 2.816 1.11.29 2.394-.47 2.767-1.533 2.797-1.054.037-2.397-.305-3.137.903C3.04 68.602 1.692 63.537.678 61.47c.62 2.546 1.3 5.058 2.185 7.49-.608-.099-.813 1.302-1.046 2.27-.232.96-.601 1.517-1.693-.391.482 4.017 1.995 8.264 4.068 12.129 2.063 3.878 4.673 7.382 7.154 10.273-.285-1.1-.777-2.4-.043-2.59 2.634 2.857 1.254 3.264 1.007 4.424 2.385 1.865 3.737.437 5.969.835.553 1.367 1.085 2.391 1.599 3.214a30.79 30.79 0 0 0 1.4 2.134c.446.638.847 1.285 1.273 2.084.443.784.88 1.75 1.409 3.048l1.099-1.68c.79 1.73 1.776 2.16 2.845 2.47 1.076.32 2.144.627 3.336 2.164-.068.46-1.564.07-2.765-.297 3.087 1.47 1.544 3.238 4.799 4.423a101.95 101.95 0 0 1-3.48.386c2.33 1.495 6.189 2.883 4.017 3.817 2.695.226 5.777 1.44 9.1 2.493 3.298 1.078 6.826 2.018 9.886 2.035l-.765 1.583c.886-.32 2.034-.378 3.302-.257 1.278.066 2.683.304 4.098.415.707.058 1.41.112 2.091.14.681.01 1.342-.023 1.955-.088 1.223-.11 2.26-.486 2.915-1.115l.473.693a52.605 52.605 0 0 0 5.875-2.804c2.694-.213 2.26 2.448 2.346 1.718 6.011-1.534 10.35-3.467 14.32-4.38-.03-.63.287-1.312.832-2.017.54-.716 1.28-1.507 2.159-2.278 1.71-1.615 3.874-3.343 5.646-5.036 4.795-3.433 8.889-8.031 11.988-13.186a50.847 50.847 0 0 0 3.894-8.112 55.542 55.542 0 0 0 2.366-8.585 58.5 58.5 0 0 0 .894-8.694 60.92 60.92 0 0 0-.453-8.497c-.75-5.542-2.197-10.781-4.232-15.49-.438-1.46-1.64-2.988-3.003-4.469l-2.158-2.179c-.744-.706-1.454-1.406-2.067-2.112.31 1.068.62 1.855.937 2.508.307.655.592 1.185.913 1.702.648 1.03 1.301 2.07 1.959 4.15.17 1.66-.255 2.923-.87 4.125-.577 1.195-1.344 2.332-1.83 3.746.555-.549 1.11-1.11 1.66-1.689 1.193 1.937 1.02 2.738.9 3.377-.116.65-.19 1.147.944 2.738l-3.145.16c.428.242.687.617.822 1.058.113.443.1.952.011 1.462-.155 1.022-.702 2.038-1.1 2.615.724.346 1.46.705 2.18 1.077-1.257 2.602-1.944 4.201-3.97 4.739l2.008-.031c-.675.412-.922 2.82-1.502 4.662-.63 1.842-1.405 3.052-2.731 1.257.3.775 1.095 1.653.463 3.087l-1.97-.363c-.117 2.19-.716 4.585-1.99 4.68.032-1.226-.647-1.898-1.34-2.553-.849 1.932-1.045 3.104-.827 3.988.233.89.86 1.455 1.517 2.002.657.553 1.345 1.086 1.613 1.959.276.874.104 2.099-1.071 3.9l-1.005-.81c-.04.825-.05 1.705-.152 2.537-.913.26-1.76.537-2.672.718.733 2.568-1.511 4.807-4.27 6.548-2.78 1.79-5.984 2.991-7.813 5.116-.411.324-.973.426-1.591.495-.621.065-1.313.061-2.065.01a34.053 34.053 0 0 0-2.346-.016c-.814.045-1.65.183-2.534.446l.704 1.868c-1.746-.563-5.45-.709-8.904-1.818-3.467-1.046-6.559-2.999-7.328-5.474-2.743 1.029.173.454-.143 1.994-.666.13-1.26.195-1.78.21a5.673 5.673 0 0 1-1.355-.188c-.783-.192-1.309-.623-1.725-1.09-.835-.922-1.184-2.222-2.179-3.198-1.587-.119-1.135.27-.51.799.615.532 1.433 1.114.373 1.546-2.005-1.555-3.092-1.438-4.433-1.353-1.293.033-2.87.041-5.18-2.222.089-1.267 1.767.231 2.699-.12-2.362-.19-5.157-1.794-7.766-4.042-2.63-2.241-5.054-5.087-7.253-7.584-1.784-3.43-3.89-7.632-5.322-12.232-1.474-4.567-2.23-9.433-1.972-13.648l-.733-.043c.33-.929.436-1.82.48-2.716.002-.894-.05-1.79-.147-2.706-.166-1.826-.384-3.767.21-5.689a24.767 24.767 0 0 0-1.174 1.871" mask="url(#b)"/>
            <path fill="#DBE6EE" d="M41.277 2.4c.665-.408 1.34-.839 2.047-1.2-.614.14-1.215.32-1.814.507-.597.19-1.205.348-1.786.575.516.013 1.038.066 1.553.118M4.228 50.4l.327-.66a58.237 58.237 0 0 1-.056-10.14 58.065 58.065 0 0 0-.27 10.8M27.26 112.174c-1.603-.056-2.895-1.385-4.336-1.774.774.442 1.58.843 2.384 1.24.803.397 1.589.805 2.416 1.16l-.464-.626z" mask="url(#b)"/>
            <path fill="#DBE6EE" d="M86.524 123.6c-1.843.62-2.699 1.473-3.6 2.265 1.452.328 2.084.017 2.478-.488.395-.502.564-1.203 1.122-1.777" mask="url(#b)" opacity=".1"/>
        </g>
        <g transform="rotate(-180 22.238 1.8)">
            <mask id="d" fill="#fff">
                <use xlink:href="#c"/>
            </mask>
            <path fill="#DBE6EE" d="M1.337 3.6C3.22-.21 6.143 2.765 2.424.277-1.213 1.504 2.237 2.272 1.337 3.6" mask="url(#d)"/>
        </g>
        <g transform="translate(20.4 32.4)">
            <circle cx="38.157" cy="38.157" r="38.157" fill="#FFF" fill-rule="nonzero"/>
            <path fill="#F6901E" fill-rule="nonzero" d="M64.126 47.745a.829.829 0 0 1-.636-.278l.173-.166a.656.656 0 0 0 .5.24c.267 0 .452-.132.483-.344.025-.186-.072-.293-.42-.425-.412-.155-.54-.296-.499-.586.046-.321.326-.513.702-.513.27 0 .43.08.58.214l-.167.176a.611.611 0 0 0-.456-.187c-.276 0-.41.138-.432.296-.024.167.038.26.42.405.422.16.539.31.497.609-.044.316-.326.56-.745.56M66.78 47.714l.191-1.362.03-.215c-.03.078-.11.227-.168.334l-.718 1.294-.347-1.294a2.874 2.874 0 0 1-.07-.334l-.03.215-.192 1.362h-.215l.282-2.01h.25l.305 1.203c.032.12.077.307.089.39.038-.086.135-.273.198-.39l.648-1.203h.244l-.282 2.01h-.215zM33.588 28.912c-.278-.25-.548-.389-.99-.389-.682 0-1.29.543-1.438 1.503-.146.946.218 1.554.992 1.554.425 0 .731-.154 1.071-.41l.32.351c-.418.33-.873.536-1.49.536-.956 0-1.74-.645-1.532-1.986.22-1.422 1.278-2.023 2.193-2.023.591 0 1.011.19 1.311.454l-.437.41z"/>
            <g transform="translate(34.58 26.595)">
                <mask id="f" fill="#fff">
                    <use xlink:href="#e"/>
                </mask>
                <path fill="#F6901E" fill-rule="nonzero" d="M.026 5.381L.802.346l.672-.308L.65 5.381z" mask="url(#f)"/>
            </g>
            <path fill="#F6901E" fill-rule="nonzero" d="M38.667 28.524c-.757 0-1.343.506-1.5 1.517-.155 1.012.27 1.54 1.028 1.54.757 0 1.354-.528 1.51-1.54.157-1.011-.281-1.517-1.038-1.517m-.563 3.533c-1.065 0-1.773-.697-1.571-2.001.2-1.305 1.158-2.008 2.223-2.008 1.066 0 1.778.674 1.576 1.978-.201 1.305-1.161 2.03-2.228 2.03M43.71 31.976l.073-.468c-.3.321-.743.549-1.292.549-.923 0-1.458-.477-1.287-1.584l.362-2.345h.625l-.348 2.25c-.128.829.147 1.202.847 1.202.607 0 1.137-.36 1.267-1.202l.348-2.25h.624l-.594 3.848h-.624zM48.624 29.103c-.191-.322-.576-.579-1.092-.579-.725 0-1.168.55-1.327 1.583-.15.967.188 1.473.88 1.473.466 0 .882-.22 1.242-.557l.297-1.92zm-.444 2.873l.072-.468c-.352.293-.809.549-1.399.549-.874 0-1.475-.587-1.265-1.942.21-1.364 1.052-2.067 1.967-2.067.55 0 .892.205 1.153.513l.25-1.62.672-.308-.826 5.343h-.624z"/>
            <g transform="translate(34.842 45.614)">
                <mask id="h" fill="#fff">
                    <use xlink:href="#g"/>
                </mask>
                <path fill="#F6901E" fill-rule="nonzero" d="M2.872 2.208c-.262-.14-.558-.22-1.09-.22-.64 0-1.065.271-1.14.755-.088.572.231.822.764.822.566 0 1.03-.258 1.346-.58l.12-.777zm-.266 1.723l.072-.47c-.352.293-.824.55-1.45.55-.681 0-1.351-.3-1.207-1.231.133-.865.997-1.231 1.863-1.231.44 0 .817.095 1.056.22l.07-.455c.089-.571-.176-.85-.818-.85-.457 0-.849.11-1.235.293L.793.31c.41-.182.947-.308 1.512-.308.94 0 1.478.352 1.34 1.246L3.23 3.931h-.624z" mask="url(#h)"/>
            </g>
            <path fill="#F6901E" fill-rule="nonzero" d="M39.455 49.545l.776-5.035.673-.308-.825 5.343zM41.527 49.545l.777-5.035.672-.308-.825 5.343zM44.625 45.008c-.259 0-.431-.176-.399-.389.034-.219.261-.395.52-.395.232 0 .405.176.371.395-.033.213-.26.39-.492.39zm-1.026 4.537l.595-3.848h.624l-.594 3.848h-.625z"/>
            <g transform="translate(45.53 45.614)">
                <mask id="j" fill="#fff">
                    <use xlink:href="#i"/>
                </mask>
                <path fill="#F6901E" fill-rule="nonzero" d="M2.872 2.208c-.262-.14-.557-.22-1.09-.22-.64 0-1.066.271-1.14.755-.088.572.231.822.764.822.566 0 1.03-.258 1.346-.58l.12-.777zm-.267 1.723l.074-.47c-.354.293-.826.55-1.45.55-.683 0-1.352-.3-1.209-1.231.134-.865.997-1.231 1.863-1.231.441 0 .818.095 1.056.22l.07-.455c.09-.571-.176-.85-.817-.85A2.79 2.79 0 0 0 .957.758L.793.31A3.815 3.815 0 0 1 2.305.002c.941 0 1.478.352 1.34 1.246L3.23 3.931h-.625z" mask="url(#j)"/>
            </g>
            <path fill="#F6901E" fill-rule="nonzero" d="M52.838 49.545l.347-2.25c.128-.828-.147-1.202-.846-1.202-.607 0-1.137.359-1.267 1.202l-.348 2.25H50.1l.594-3.849h.624l-.072.47c.3-.322.743-.55 1.292-.55.923 0 1.457.477 1.287 1.584l-.363 2.345h-.624z"/>
            <g transform="translate(54.791 45.614)">
                <mask id="l" fill="#fff">
                    <use xlink:href="#k"/>
                </mask>
                <path fill="#F6901E" fill-rule="nonzero" d="M3.14.867c-.278-.25-.548-.389-.99-.389-.681 0-1.29.543-1.437 1.503-.146.946.216 1.554.992 1.554.424 0 .73-.154 1.07-.41l.32.352c-.417.33-.873.534-1.49.534-.957 0-1.739-.645-1.532-1.986C.292.603 1.35.002 2.266.002c.591 0 1.011.19 1.312.455l-.438.41z" mask="url(#l)"/>
            </g>
            <g transform="translate(58.757 45.614)">
                <mask id="n" fill="#fff">
                    <use xlink:href="#m"/>
                </mask>
                <path fill="#F6901E" fill-rule="nonzero" d="M2.106.478c-.65 0-1.162.41-1.37 1.269h2.355C3.157.999 2.871.478 2.106.478m1.475 1.715H.667C.6 3.015.96 3.535 1.676 3.535c.507 0 .827-.132 1.263-.366l.23.396c-.57.293-.976.446-1.634.446-.798 0-1.694-.513-1.46-2.023C.264.764 1.147.002 2.188.002c1.14 0 1.634.792 1.464 1.892-.02.131-.041.212-.071.3" mask="url(#n)"/>
            </g>
            <path fill="#F6901E" fill-rule="nonzero" d="M42.297 40.364a2.327 2.327 0 0 1-1.463-.491l.428-.403c.307.271.692.425 1.125.425.6 0 .916-.22.974-.595.048-.315-.183-.49-.912-.783-.822-.33-1.152-.565-1.057-1.18.09-.587.725-.983 1.517-.983.599 0 1.039.169 1.334.41l-.412.404c-.304-.235-.57-.345-1.037-.345-.457 0-.754.199-.797.477-.05.322.154.455.85.747.773.33 1.223.542 1.117 1.232-.117.755-.908 1.085-1.667 1.085M46.989 36.831c-.65 0-1.162.41-1.37 1.268h2.356c.065-.748-.221-1.268-.986-1.268m1.474 1.715H45.55c-.068.82.292 1.341 1.008 1.341.508 0 .828-.132 1.263-.366l.231.395c-.57.293-.977.448-1.634.448-.799 0-1.694-.514-1.46-2.024.189-1.224 1.072-1.986 2.112-1.986 1.14 0 1.634.792 1.465 1.892-.02.131-.042.212-.072.3M52.497 37.22c-.278-.25-.548-.39-.989-.39-.682 0-1.29.543-1.439 1.503-.145.946.218 1.554.993 1.554.424 0 .73-.154 1.07-.41l.32.351c-.417.33-.873.536-1.49.536-.957 0-1.739-.646-1.531-1.987.218-1.422 1.276-2.023 2.193-2.023.59 0 1.01.19 1.311.455l-.438.41zM56.02 40.283l.072-.47c-.3.323-.743.55-1.292.55-.924 0-1.458-.476-1.287-1.582l.362-2.346h.624l-.348 2.25c-.127.828.148 1.202.848 1.202.607 0 1.137-.36 1.267-1.202l.347-2.25h.625l-.595 3.848h-.624zM60.745 37.006a1.234 1.234 0 0 0-.635-.146c-.607 0-1.015.433-1.128 1.165l-.35 2.258h-.624l.595-3.848h.624l-.073.477a1.566 1.566 0 0 1 1.168-.558c.324 0 .526.037.667.096l-.244.556zM62.447 35.746c-.259 0-.431-.176-.4-.388.036-.22.262-.396.52-.396.234 0 .406.175.372.396-.033.212-.26.388-.492.388zm-1.025 4.537l.594-3.848h.624l-.595 3.848h-.623zM64.774 36.896l-.387 2.507c-.053.345.037.462.37.462.25 0 .422-.037.633-.11l-.116.477a2.384 2.384 0 0 1-.827.132c-.54 0-.796-.235-.698-.873l.4-2.595h-.54l.071-.461h.541l.183-1.187.672-.308-.23 1.495h1.082l-.072.461h-1.082z"/>
            <g transform="translate(66.563 36.399)">
                <mask id="p" fill="#fff">
                    <use xlink:href="#o"/>
                </mask>
                <path fill="#F6901E" fill-rule="nonzero" d="M.817 5.24H.193l.815-1.4L.038.037h.658l.634 2.792.09.396.21-.389 1.505-2.8h.657z" mask="url(#p)"/>
            </g>
            <g transform="translate(5.894 33.58)">
                <mask id="r" fill="#fff">
                    <use xlink:href="#q"/>
                </mask>
                <path fill="#0063A3" fill-rule="nonzero" d="M.518 3.959C1.46 1.491 3.57.051 6.09.051c2.786 0 3.719 1.145 4.196 3.185L7.278 4.303c-.256-1.005-.551-1.639-1.588-1.639-.827 0-1.43.498-1.828 1.295H.518zm2.939 1.21c-.032.15-.06.306-.083.464-.244 1.654.114 2.968 1.474 2.968.988 0 1.484-.51 2.25-1.53l2.458 1.345c-.971 1.422-2.436 2.798-5.125 2.798-3.369 0-4.816-2.38-4.344-5.58.023-.16.045-.31.077-.463l3.293-.001z" mask="url(#r)"/>
            </g>
            <path fill="#0063A3" fill-rule="nonzero" d="M17.022 37.537c.006-.154.022-.317.047-.49.3-2.04 2.237-3.416 4.973-3.416 1.928 0 3.254.448 4.335 1.253l-1.87 2.35c-.908-.65-1.857-1.021-3.007-1.021-.94 0-1.207.28-1.264.665-.042.29.141.467.775.665l-3.99-.006zm7.523 1.211c.866.573 1.192 1.354 1.016 2.552-.364 2.474-2.474 3.494-5.194 3.494-1.83 0-3.512-.572-4.585-1.314l1.87-2.35c.745.54 2.107 1.082 3.16 1.082 1.117 0 1.5-.185 1.576-.696.059-.402-.31-.649-1.782-.989-1.786-.407-2.907-.855-3.356-1.773l7.295-.006zM28.541 37.54l1.773-3.739h2.73l.672 3.739M29.89 40.334h1.618l-.175-1.588h2.6l1.054 5.879h-2.922l-.25-1.903H28.89l-.81 1.903h-2.897l2.787-5.879h2.59"/>
        </g>
    </g>
</svg>
