<svg xmlns="http://www.w3.org/2000/svg" xmlns:xlink="http://www.w3.org/1999/xlink" width="119" height="118" viewBox="0 0 119 118">
    <defs>
        <path id="a" d="M.576 0H119.96v128.4H.576z"/>
    </defs>
    <g fill="none" fill-rule="evenodd">
        <g transform="translate(-1)">
            <path fill="#DCE2ED" d="M105.985 40.623c13.231 28.502 3.448 61.09-21.85 72.787-25.295 11.695-56.528-1.93-69.757-30.433-13.232-28.502-3.45-61.09 21.848-72.787 25.298-11.695 56.53 1.93 69.76 30.433"/>
            <path fill="#DCE2ED" d="M101.983 33.717c.018.11.122.253.175.378-.371-.283-.509-.436-.175-.378M105.255 40.8c-.957-1.954-2.521-4.987-3.098-7.2l1.253 1.533a23.39 23.39 0 0 1 1.397 2.05c.819 1.433 1.241 2.893.448 3.617M104.615 31.2c.34.8.65 1.607.967 2.4-1.354-.984-.339-1.197-.967-2.4M103.511 33.194l-.725.406c-.038-.808-.1-1.603-.174-2.4.317.65.617 1.313.9 1.994M14.86 62.044c.303-.337.648-.556 1.122-.468l-1.122.468zM12.307 68.4c-.028.532.023.892.063 1.2-.14-.333-.15-.638-.063-1.2M14.272 57.603l.115.594c-.113-.188-.166-.397-.115-.594M48.872 9.6l2.726.971c-1.765.701-2.07-.378-2.726-.971M14.978 101.04l.673-.077c-.006.25-.117.428-.673.078M2.635 72.433c.34-.129.611-.121.827-.023-.023.151-.028.305-.06.454l-.767-.431zM13.159 52.71c-.025-.02-.038-.05-.064-.073l.453-.947c.08.536-.052.857-.39 1.02M21.127 109.2c.091.362.118.757.01 1.2-.543-.58-.46-1.06-.01-1.2M12.408 70.274c-.006.017-.019.005-.024.022l-.014-.192c.02.064.015.112.038.17M1.736 62.4c-.053.397-.078.769-.156 1.2-.212-.49-.089-.922.156-1.2M48.872 9.19l-.896-.366c.393-.066.663.098.896.367M96.6 28.8c-.552-1.049-.346-1.744-.112-2.4.15.8.21 1.597.112 2.4M103.18 43.982l-.117-.364a.68.68 0 0 1 .117.364M105.654 74.822c-.16.142-.337.287-.555.375-.112-.326.193-.443.555-.375"/>
            <mask id="b" fill="#fff">
                <use xlink:href="#a"/>
            </mask>
            <path fill="#DCE2ED" d="M88.866 109.946l-.066.322c.774-.196 1.576-.346 2.344-.601l.056-.335c-.767.256-1.559.427-2.334.614zM115.223 74.4c-.255-3.093 1.694-1.923 2.329-3.6.365 2.55-1.438 1.653-2.33 3.6zm-43.128 37.79c2.84-1.069-1.642-1.855.175-2.777l-1.47.341c2.228-1.77 1.92 1.332 3.592.587l-1.111.49c-.743 1.467 1.912.541 2.319 1.51-.65.387-1.82.539-2.683.42-.86-.105-1.395-.356-.822-.57zm42.096-35.39c-.326-1.548.037-1.606.796-2.4.355.39.026 1.623-.796 2.4zm-30.598 30.857c-.552-.741 2.08-1.737 2.807-1.634-.706-.925-2.367-.104-3.814.31-.214-.015-.531.035-.986.182.309-.016.636-.073.986-.183.632.047.517.726.682 1.097-.191.19-.378.393-.578.571.712-.137 1.412-.31 2.124-.468l-1.22.125zM60 108c.424.399.86.8 1.31 1.2.764.003 1.528-.018 2.29-.027A54.305 54.305 0 0 1 60 108zM24.79 90.483c-.473-.725-.706-.803-.14-1.403-.006-.632-.644-.853-.65-1.48 1.339.828.454 1.797.79 2.883.124.19.26.41.41.717a1.771 1.771 0 0 1-.41-.717zm5.596 3.117c.466-1.06-.2-1.952-.985-2.76-.769-.823-1.713-1.51-1.801-2.04.844.542 2.1 1.532 2.903 2.438.797.908 1.097 1.845-.117 2.362zm62.436 3.346c.296-.544-1.59-.667-2.502.254a34.362 34.362 0 0 0-.32-1.497c.315.366.996.175 1.643-.12.651-.29 1.209-.74 1.365-.783 1.294.71.106.908-.186 2.146zM111.6 44.9l-.16 1.25c-.325.687-.765.38-1.038.649-.034-1.374.375-3.332 1.198-1.9zm-1.696 14.098c.13.372.28.699.496.86l-.356.141c-.55-.419-.387-.724-.14-1.001a25.48 25.48 0 0 1-.408-1.355c-1.12-.333-1.99 1.45-2.696 1.86.417-.812 1.57-1.515.919-2.686-.344.141-.569-.007-.582.705l-.192-1.564c1.566-1.788 2.132-.086 2.551 1.685.25.066.508.208.786.555.158.29-.14.536-.378.8zm-1.91-10.338c-1.363.381-3.165.413-2.042 2.735 1.46.038 1.402-.645 3.17.204.304-.847-.367-1.493-.552-1.891-.154.572.5 1.202-.457 1.403-.583-.894-.575-1.832-.118-2.451.478-.13.895-.308 1.07-.661-.435.051-.815.304-1.07.66zm-2.394-1.722l.373 1.061L108 46.8l-2.4.139zm2.4 16.767c-.624-.474-1.228.777-1.199 1.094L108 63.706zm3.09-.17l.51-1.072c-.801.304-1.601.593-2.4.869l1.89.203zm-6.822 18.275l-.946 1.122-.989 1.067c-.618-.771-.279-1.285.23-1.825.5-.542 1.23-1.082 1.384-1.775.98.023.017.696.321 1.41zM84.088 100.8c-.3-.3.202-1.073.948-1.64.739-.586 1.704-1.017 2.564-.583-.756.438-1.578.868-2.263 1.212-.684.346-1.188.674-1.249 1.011zM24 86.439c.4.784.775 1.611 1.2 2.361-.366-.768-.684-1.602-1.022-2.4l-.178.039zM11.866 67.194c1.913.102 2.165-1.132 2.122-2.516.007-1.412-.305-3.02.412-3.719-.584.107-1.416-.108-1.966.18-.552.288-.828 1.109-.161 3.26-1.114-1.654-.735-2.453-.49-2.963.233-.517.311-.74-1.39-1.436.34.881.413 1.946.433 2.84.034.886-.022 1.61-.022 1.793-.244-.706-.51-1.406-.737-2.121-.885.983-.36 1.746.316 2.453.668.718 1.565 1.344 1.483 2.23zm2.21-42.972l-1.417.086L14.222 24l-.145.222.323-.019-1.247 1.675c-.403.565-.765 1.145-1.153 1.722l.99-1.708 1.087-1.67zm-.876-1.43c.594-.63 1.132-1.272 1.758-1.857a22.4 22.4 0 0 0-1.377.708c.505-.446 1.063-.856 1.596-1.265.538-.408 1.058-.81 1.623-1.178a4.092 4.092 0 0 1-1.438 2.632c-.7.65-1.558 1.03-2.162.96zm2.4-3.592c-.44.516-.652.733-.84.79-.532.376-1.145.587-1.56.216 1.106-1.055 1.08-.063 1.56-.217.322-.233.617-.503.84-.789zM35.024-1.878c-.038-.29-.241-.576-.528-.76-.33.046-.657.019-.896-.148.25-.14.608-.048.896.148.871-.112 1.883-.821 2.259-1.378-.571-.463-1.686.226-2.321.081.529-1.136 2.319-1.102 3.53-1.18 1.221-.067 1.973-.263.642-2.085.49.104 1.49.15 2.282.374.794.222 1.354.546 1.007 1.042-2.17.36-5.853 2.39-6.87 3.906.018.246-.056.484-.363.678.02-.188.169-.424.362-.678zM55.2-6.211l.353-.778c.283.038.566.046.847.112-.404.191-.806.446-1.2.666zM76.8-2.4a17.35 17.35 0 0 0-1.2-.612l.955-.588.245 1.2zM13.2 13.2c-.743 1.085-2.387 3.992-2.227 3.556-.38-.332-.088-1.127.423-1.894.53-.758 1.316-1.46 1.804-1.662zM5.98 27.6l-.622 1.788L4.82 31.2c1.04-.003 1.053-2.377 1.16-3.6zm6.111-16.372c-.444.174-.858.37-1.291.558.743-.83 1.103-.781 1.291-.558L13.2 10.8c-.51 1.05-.665 1.277-.778 1.18-.113-.101-.16-.527-.33-.752zM3.656 33.6l.04 1.184c.432 1.49 2.11 1.988.235 3.616-.085-1.191-.19-2.401-.234-3.616a2.348 2.348 0 0 1-.04-1.184zM9.6 32.071c-.787 1.1-1.408 1.67-2.107 2.165-.7.496-1.555.904-2.657 1.764-.384-2.666 2.404-2.922 3.402-2.442 1.357-1.5-.02-1.406-.028-2.358l1.39.871zM6 31.2c.528-.74 1.27-1.754 1.918-2.512.67-.755 1.318-1.236 1.682-.977-.756-.302-1.497.05-2.074.59-.552.544-.94 1.267-1.037 1.632-.026.446-.182.73-.489 1.267zm39.625 75.648l-.146-1.12.473.062c-.535-.431-1.04-.925-1.552-1.38 1.378-.098 2.258.558 2.973 1.386.702.848 1.259 1.779 1.827 2.204-1.124-.425-3.236-3.872-3.575-1.152zM3.608 50.4c.615-.61.842-1.6.932-2.683.097-1.083.13-2.267.26-3.23-1.106-.536-2.447 1.47-2.227 3.843-.855 2.827 1.772.913 1.035 2.07zm.197 9.027l.274.573c.136-.802.332-1.607.516-2.4-.265.6-.542 1.214-.79 1.827zm27.18 41.698c-.495-.585-.75-.85-1.265-1.084-.122.736.581 2.319-.52 1.885-.184-1.021-2.158-2.695-1.445-3.526.508 1.093 1.609 1.292 2.41 1.449.815.148 1.356.253.82 1.276zm35.5 11.89c-.161-.047-.306-.081-.485-.161.157.03.323.088.485.16.974.298 1.636.015 2.246-.125.613-.155 1.176-.171 2.069.485-1.779 1.37-3.224.138-4.315-.36zM45.446 99.6c-.363-.34-.703-.725-1.046-1.09l.169-.11c.336.366.674.739 1.031 1.076l-.154.124zM30 90.306c.359-.094.716-.192 1.078-.306l.122 1.2c-.397-.298-.817-.57-1.2-.894zM53.054-11.699c.721.83-.979.351-1.454.524.78.022 1.557-.01 2.332.074.312-.516-.53-.504-.878-.598zM23.775 98.4l-1.332-1.47c-.36-.197-.675-.463-.843-.93l.843.93c.924.504 2.043.367 1.332 1.47zm81.085-.27c.593-1.26 1.612-2.119 2.731-2.888 1.066-.802 2.272-1.495 2.959-2.439l-1.066.2 1.854-1.545-.913-.59c1.276-1.436 2.249-3.352 3.107-4.957.855-1.609 1.642-2.907 2.717-3.187l-1.757-.326c.93-1.017 1.935-2.042 2.818-3.14a38.018 38.018 0 0 1-1.956 1.671c.745-2.105 1.886-4.646 2.862-6.83.464-1.104.885-2.106 1.215-2.886.302-.791.514-1.364.562-1.6l-.718.252c-.175-.781.393-1.241.725-1.953l-1.057.383c.733-3.23.538-5.393.313-7.582-.188-2.2-.398-4.417.022-8.037-.335-1.953-.251 1.102-.83 1.14-.774-1.038-.185-3.538.189-4.126-1.443.695-.852 3.593-2.176 1.435.644-1.616-1.308 1.147-1.228-1.594l1.83-1.268c-.494-1.513-1.515-.143-1.663-2.561.221-1.433.885-.69 1.454-.115.567.57 1.04.96.85-1.347-.272-1.13-1.58-2.127-2.849-3.312-.642-.594-1.259-1.242-1.713-2.011a5.305 5.305 0 0 1-.856-2.74c-1.046-1.592-1.619-.88-2.064-.428-.447.456-.768.692-1.298-1.699-.078 1.133-.142 2.239-.25 3.338-.753-.596-1.539.178-1.782-1.881.532-.858.956-2.391.646-3.49.122 2.38-.759 1.628-1.679.925-.923-.72-1.919-1.367-2.069.828-.146-.47-.307-.933-.489-1.39.004.198-.15.313-.325.282l-.895-1.727c.045.638.307 1.621.327 2.358.008.745-.251 1.239-1.138.909l-1.398-2.343c-.696 1.104-1.49.397-2.213.908.413 2.608.648 5.182.707 7.705.544-.461.594-1.609 1.348-1.434 1.161 1.757-.65 1.891.715 3.454.22-.34.414-.68.612-1.026-.272.231-.3.513-.52.146-.716-.486-.168-.94.35-1.099.613.17.888.78.917 1.436.009.663-.21 1.36-.514 1.72.658 2.37 2.037.089 2.478.55-.79.839-.54 1.846-.266 2.9.296 1.047.699 2.136.333 2.955l1.081-1.132c1.646 1.805.564 3.71.18 4.834l.959-.474c-.078 1.373.738 2.404 1.048 3.383.328.969.264 1.894-1.563 2.793l.67-.237c.24 1.143.73 2.981-.43 3.91.397.086.863.355.9.835-1.421.389-.61 1.714-.771 3.429.58-1.02 2.195-.29 2.862-1.42.582 1.52-.041 2.056-.84 2.44-.822.385-1.847.628-2.122 1.698.49 1.546 1.241-.887 1.956-1.05-.898 1.577-.469 3.579-.43 5.41.074 1.82-.255 3.432-2.28 3.722-.105-.615-.256-1.237-.39-1.839-1.215.972-1.555 1.606-1.188 1.607.094-.445.456-.437.816-.443-.102 2.278-1.47 3.493-2.965 4.462-1.515.982-3.096 1.765-4.065 3.547.693.167 1.225-.17 1.675.138-.324.962-1.275.819-2.22.804-.985-.037-1.914.072-2.427 1.596l.953.097c-.37 1.032-1.66.802-1.717.547 1.03 1.072-.137 2.188-1.5 3.458-.693.62-1.403 1.318-1.968 2.071-.276.387-.5.808-.646 1.276-.157.45-.238.943-.208 1.498-.552-.129-1.222-.129-1.943-.077-.73.036-1.493.15-2.203.325-1.456.29-2.71.818-3.146 1.46-1.075 2.386 2.344 1.107 2.387 2.88-1.48.65-2.815-.5-4.79.796-.273-.771.506-1.94.772-2.828.277-.888.054-1.51-1.948-1.276l-.244 1.024c.359-.249.777-.764 1.396-.76 1.443.506-.276 1.27-.4 1.785a40.005 40.005 0 0 1-4.394.75c-.682-1.62 1.878-1.827 1.995-2.366-1.531.68-3.184 1.765-4.956 2.622-1.77.8-3.66 1.332-5.306.777l.33.65c-2.108-.69-2.702.057-3.253.67-.529.612-1.018 1.088-2.587-.478-.914.146-.811.62-.808 1.044 0 .426-.11.814-1.516.674-.789-.103-.226-.689-.058-.89-1.634-.53-2.056-.267-2.458-.026-.387.21-.761.351-2.102-.825l.24 1.963c-1.752-1.076-3.32-2.683-4.74-4.137-.724-.7-1.412-1.38-2.119-1.905-.717-.502-1.428-.912-2.224-1.062-.44 1.372 1.414 2.084 1.764 3.365-1.577-2.001-3.828-3.204-6.087-4.434-2.258-1.2-4.475-2.51-5.654-4.27.833-.113.882-.97 1.069-1.687.181-.723.49-1.299 1.735-.972-.577 1.83 1.039 1.572 2.006 2.423.215-2.232-1.726-3.036-3.622-3.854-.942-.405-1.84-.828-2.414-1.303-.552-.503-.748-1.082-.265-1.819l-1.378.652c-.3-.543-.512-2.365.486-1.955l-1.74-1.151-1.7-1.238c.083.879.141 2.365.517 3.535.357 1.184.94 2.118 1.842 1.89-.142 1.948-1.988-.502-2.397 1.494-.384-3.804-2.03-.582-3.742-3.304 1.248-.151 1.234-1.178 1.101-2.24-.136-1.068-.449-2.141-.015-2.395-.889-.538-1.407-2.83-1.249-3.903-.189-.375-.557-.79-1-1.26l-1.466-1.586c-1.008-1.161-2.022-2.517-2.279-3.909-.15 1.212-.111 3.077-1.304 3.596-.042-1.563-.65-2.923-2.163-2.503-.155 2.888.869 2.861 1.897 2.676 1.064-.182 2.095-.465 2.464 1.87-.923 1.843-.608 3.142.325 5.384-1.442-.307-1.509.32-2.757.63.652-2.285-.272-3.907-1.406-5.604-1.112-1.692-2.437-3.472-2.395-5.606.167-.96.9-1.384 1.458-2 .555-.612.937-1.404.525-3.086.696.79 1.385 1.564 2.13 2.297-2.177-2.555.697-1.116.132-3.657l-.74 1.384c-.806-1.41-.777-2.062-.235-3.164-.44.615-.877 1.242-1.309 1.884-.485-.758-1.235-2.245-.196-2.584-.487-.084-.85-.058-1.15.032.246-.255.32-.708-.017-1.683-.039.637.193 1.025-.326 1.191-.344-1.961-.845-2.069-1.372-1.984-.524.085-1.033.367-1.237-.888-.315.486-1.016-.093-1.422-.957 1.423-.27 1.98-1.646 2.393-3.098.444-1.462.734-3.02 1.493-3.718l-.04.019c.258-1.1.595-2.182.93-3.24-.192.646-1.046 0-1.36-.929l.014.15c-.456-1.03-3.124 1.332-2.317-1.864.273-.557.602-1.102.899-1.64-.114.29-.544-.008-.758-.175.28-.563.557-1.116.876-1.66-.616-.695-.813-1.363-.753-1.998.078-.633.389-1.237.744-1.836.749-1.202 1.653-2.349 1.357-3.956.015.894-.426 2.16-1.177 1.434-.226-.654.307-1.471.815-1.822l-.348.078c.993-1.774 2.13-3.437 3.286-5.014-1.066.09-2.114 3.166-2.734 1.463-.988-1.23.857-2.434 1.341-3.348.658.416.632 2.392 1.685.768-.135-.174-.228-.754-.384-1.227-.146-.464-.35-.82-.778-.523 1.47-1.55 3.164-3.896 5.185-4.654-.027-.639-.707-.063-.937.137l.122.227c-.462.395-.913.2-1.3.2-.392-.004-.722.206-.873 1.428-2.341-.952.901-3.376 1.757-5.222-1.062.617-2.144 1.27-3.174 2.002-.116-3.374 1.974-6.38 4.608-8.643 2.646-2.306 5.768-3.848 8.02-5.494-.856 1.589-2.325 1.936-.926 3.288.797-.349 1.34-.614 1.77-.833a9.284 9.284 0 0 0 1.06-.562c.595-.387 1.185-.79 2.654-1.504l-.287.065c.437-.896 1.462-1.164 2.318-1.515.897-.29 1.66-.627 1.796-1.676-1.143-.632-1.717 1.987-2.768.082C37.04 1.711 38.35 1.123 39.7.636c-1.775-.688-4.017 1.644-5.543 2.24-.967.698 2.23-.94 2.4.615-.852.466-1.582.77-2.247.955a5.875 5.875 0 0 1-1.81.314c-1.164.009-2.222-.221-3.689-.433-1.963-.42.58-2.377 1.265-2.833 3.584.272 7.221-.58 10.716-2.941a30.472 30.472 0 0 1 1.66-2.31c2.448.852 2.331 3.9 5.638 2.816-.412-.325-.838-.664-1.267-.973.672-.61 1.167-.849 1.545-.91-1.687-.63-3.609-1.222-5.314-1.698.35-.78.96-1.175 1.702-1.341.742-.18 1.613-.127 2.526.077.909.177 1.847.463 2.747.758.901.264 1.76.508 2.547.597-.183-.304-1.284-.348-1.68-.933 2.343-.523 4.85-.043 7.053.83 1.108.386 2.146.933 3.116 1.337a19.43 19.43 0 0 0 2.694 1.11c.82-.395.152-.735-.631-1.112-.78-.364-1.67-.813-1.198-1.576.905.446 1.935.385 2.78.479.846.074 1.508.216 1.58 1.032-.341-2.323 4.346.918 1.225-1.954 3.572.385 7.105 1.926 10.223 4.017 3.134 2.09 5.86 4.714 8.256 7.27.115-.721.428-1.164.932-1.344-1.919-1.442-4.583-3.792-5.066-5.797.977-.068 1.647.745 2.118 1.536.463.812.753 1.577 1.126 1.43C84.71.989 83.308.112 83.828-.821c2.494.1 2.589 2.24 3.662 3.282l-.976-.022c1.473 1.943 1.354 3.1 1.444 4.043.042.472.129.893.452 1.35.312.477.854.99 1.837 1.642 2.129.186.728-.819 1.777-2.06.213.625 1.278 1.25 2.27 1.99.949.779 1.837 1.653 1.59 2.688-.69-.692-1.417-1.348-2.122-2.022.545.905 1.165 1.681 1.683 2.443.508.769.954 1.484 1.197 2.192.175-.337.369-.658.188-1.074.656 1.568 2.05 3.107 1.648 4.428l1.67-.681c-1.166-.355-3.069-2.465-2.64-3.483 1.34-.77 2.513 2.151 3.336 3.142-.738-1.24-1.214-2.245-1.548-3.137-.32-.902-.52-1.668-.758-2.38-.449-1.434-1.047-2.675-3.234-4.04.08.323.162.641.227.974-1.575-.607-2.53-1.837-3.46-3.104-.89-1.3-1.764-2.619-2.868-3.445.834.175 1.342-.218 1.23-.687-2.89-1.323-5.469-2.91-8.252-4.423-2.769-1.512-5.774-2.906-9.225-3.652-.472-.794-.988-1.53-1.516-2.296l-.5 1.222c-3.476-.385-.232-1.997-2.475-2.447.85.204.643.378.735.74-1.812-1.238-2.473-1.025-2.89-.662-.426.365-.645.907-1.72.487.412.795 1.442 1.125 2.206 1.464.763.354 1.235.736.55 1.521-.85-.608-1.906-1.004-2.984-1.413-1.09-.338-2.21-.67-3.243-.95-2.055-.603-3.743-1.21-4.017-2.809-3.874.534-8.138.68-12.326 1.24-4.175.522-8.25 1.427-11.332 2.728-.574.904.69.141.563.697-.773-.127-1.628.133-2.472.568-.844.436-1.635 1.12-2.36 1.725-1.422 1.27-2.463 2.438-2.952 1.772-.77 1.121-.467 2.392-.468 2.937C24 .012 22.225.989 20.55 2.274l1.428-.707.025.278c-.668.332-1.35.659-2.02 1.014l-.014-.13c-2.019 1.684-3.916 3.795-5.718 5.907-1.771 2.137-3.538 4.214-5.439 5.94 2.276-1.896 1.38 1.561 2.571.743-1.71.385-3.276 1.922-4.497 3.973-1.266 2.036-2.088 4.59-2.673 6.888.527.14.833.608 1.413.216-.605.75-1.165 1.53-1.753 2.318l.723-.182c-.226 1.193-.529 2.38-.99 3.54-.397 1.166-.9 2.315-1.312 3.44-.83 2.244-1.424 4.391-.894 6.04.416-1.98.997-1.937 1.866-2.061-.335 3.41-.43 6.603-.913 10.673.136-.226.317-.38.51-.4.313 1.023-.202 2.332-.396 3.451l1.312-.017c-.327 2.105.736 4.568.291 7.153.807.304.798 1.797.87 3.558.012.885.047 1.834.192 2.714.142.88.326 1.717.734 2.321.082 1.109.577-2.693 1.568.13-1.243.696-.913 1.635-.598 2.545.34.9.647 1.786-.693 2.522a45.34 45.34 0 0 0 2.145 1.972L7.19 77.326c1.768.405 1.906 1.283 1.9 2.457-.02 1.17-.107 2.602 1.187 3.854.183-.332.082-.704.358-.667.275 1.133 1.598 3.387-.183 2.141.97 1.594 4.246 7.134 3.818 3.858-.559.686-1.557-1.837-1.888-2.953 1.127-.601 2.328 1.916 3.86 1.59-.06.154-.036.584-.04.916l.876-.198c.243.877.618 1.67 1.043 2.407.448.72.95 1.381 1.423 2.032.965 1.291 1.85 2.495 2.106 4.044.39-.188 1.039.001 1.838.88l-1.065 1.244c.919.846 1.893 1.634 2.843 2.446.057-.993.133-1.978.222-2.95 1.639 1.137 2.628 2.59 3.54 4.113.465.746.907 1.507 1.397 2.228.505.698 1.062 1.349 1.723 1.9 1.085-.902 2.345.138 3.859 1.346.772.574 1.602 1.198 2.48 1.608.89.387 1.815.576 2.72.328l-2.054-1.778c2.392 1.434 4.022 1.77 5.546 2.129 1.554.317 3.002.66 5.368 1.825a43.294 43.294 0 0 1-2.683-.31c-.724-.131-1.344-.24-2.026-.363-.694-.102-1.457-.206-2.471-.334-.516-.052-1.094-.112-1.757-.178-.667-.08-1.419-.17-2.28-.271 3.227.934 5.755 2.272 8.36 3.464 2.587 1.184 5.309 2.097 8.497 1.856-.314-.698-1.718-1.416-.152-1.79.458.799 1.892.982 3.052 1.164 1.168.129 2.081.256 1.556 1.036 1.971-.368 2.371-1.947 3.509-2.114a52.6 52.6 0 0 0 6.415 1.84l-.225-.31c1.33-.562 2.61-1.084 3.88-1.444 1.26-.437 2.52-.683 3.766-.992.624-.14 1.25-.26 1.882-.364a53.86 53.86 0 0 1 1.88-.36c1.272-.19 2.522-.461 3.807-.682a68.403 68.403 0 0 0 3.828-.874c1.252-.391 2.553-.739 3.773-1.293 2.49-1.012 4.84-2.498 6.843-4.52l-.701-.564c1.003-.208 1.973-.493 2.983-.764-2.249.748.046-1.443-.362-2.138 2.153-1.092 4.309-2.305 6.355-3.711-.481-.635-2.017-1.442-2.936.02z" mask="url(#b)"/>
            <path fill="#DCE2ED" d="M105.526 80.4c.015-.572.112-.924.258-1.2-.022.395-.09.8-.258 1.2M26.864 93.009c-.262.172-.502.111-.743-.048.157-.096.377-.114.743.048M24.95 88.376c-.022-.058-.062-.107-.083-.159.008-.057.008-.13.012-.193l.07.352zM94.636 27.96c-.455 2.295-.772-.754-1.294-1.56.507.797 1.453.203 1.294 1.56M92.11 21.6c.061.761.343 1.571.813 2.4-.386-.414-.655-1.031-.813-2.4M95.199 26.4c-1.007-.816-1.773-1.612-2.276-2.4.59.593 1.481.704 2.276 2.4M78.237 13.2c.237.517.813.87 1.337 1.096.513.24.97.358.97.358-1.958-.568-1.984-.127-1.509.434.458.597 1.357 1.41 1.328 1.712-1.937-1.268-1.436-2.052-2.126-3.6M73.453 10.031c.395.178.782.325 1.123.325-.455.059-.806-.091-1.123-.325M71.729 10.8c-1.25-.911-1.436-2.346-1.858-3.583.951-.125 1.585.458 2.097 1.196.516.733.935 1.544 1.485 2.03-.951-.477-1.857-1.026-1.724.357M33.07 19.381c.302-.056.876-.377 1.186-.002-.572.316-1.146.634-1.683.993-.854.2.206-.719.497-.99M25.281 21.6c-1.305 1.514.352 1.846-.472 2.4l-1.308-1.63c.58-.29 1.197-.52 1.78-.77M19.422 15.089l.6-.354c-.194.169-.386.337-.582.53l-.018-.176zM21.414 30.138c.782.023 1.592.07 2.368.117-1.236.476-2.596-.006-2.368-.117M19.468 36.568L20.48 36c-.658.76-1.219 1.586-1.833 2.4l.821-1.832zM15.847 43.2l.348.39a28.834 28.834 0 0 0-1.026 2.01c.193-.81.423-1.61.678-2.4M54.796 113.133c-.027.904-.884.953-1.89.8-.995-.179-2.106-.607-2.691-.543.693-.947 1.317-.567 2.05-.15.723.427 1.591.792 2.531-.107M105.414 84c-.454.825-1.021 1.608-1.534 2.4.27-2.123.298-.511 1.534-2.4" mask="url(#b)"/>
        </g>
        <g fill-rule="nonzero" transform="translate(20.792 21.792)">
            <rect width="76.8" height="76.8" fill="#063897" rx="38.4"/>
            <path fill="#FECB2F" d="M38.157 5.517l1.203 3.712h3.917l-3.162 2.291 1.203 3.7-3.161-2.292-3.162 2.291 1.203-3.699-3.161-2.291h3.917zM38.157 61.184l1.203 3.7h3.917l-3.162 2.29 1.203 3.712-3.161-2.29-3.162 2.29 1.203-3.712-3.161-2.29h3.917zM57.664 52.48l1.216 3.7h3.904l-3.162 2.29 1.216 3.712-3.174-2.29-3.162 2.29 1.216-3.712-3.174-2.29h3.917zM18.931 52.48l1.216 3.7h3.917l-3.174 2.29 1.216 3.712-3.175-2.29-3.161 2.29 1.216-3.712-3.175-2.29h3.917zM57.664 13.811l1.216 3.712h3.904l-3.162 2.291 1.216 3.712-3.174-2.29-3.162 2.29 1.216-3.712-3.174-2.29h3.917zM18.931 13.811l1.216 3.712h3.917l-3.174 2.291 1.216 3.712-3.175-2.29-3.161 2.29 1.216-3.712-3.175-2.29h3.917zM65.83 33.523l1.216 3.7h3.904l-3.161 2.29 1.203 3.713-3.162-2.292-3.161 2.292 1.203-3.712-3.162-2.292h3.917zM10.778 33.523l1.203 3.7h3.917l-3.162 2.29 1.203 3.713-3.161-2.292-3.162 2.292 1.203-3.712-3.161-2.292h3.904z"/>
            <path fill="#FFF" stroke="#FFF" stroke-width=".6" d="M28.531 35.238l-.934.576a3.469 3.469 0 0 0-2.714-1.28 3.61 3.61 0 0 0-3.622 3.84 3.622 3.622 0 0 0 6.144 2.816v-1.945h-3.226v-1.05h4.39V41.6a4.915 4.915 0 0 1-3.686 1.613 4.864 4.864 0 0 1 0-9.728 4.48 4.48 0 0 1 3.648 1.753zm26.988-.799a2.74 2.74 0 0 1 .801 2.028 2.56 2.56 0 0 1-2.445 2.74l2.56 3.84H55.04l-2.342-3.751h-1.882v3.738h-1.165v-9.396h3.84a2.74 2.74 0 0 1 2.028.801zm-21.484-.8a4.698 4.698 0 1 1 0 9.395h-3.213v-9.396h3.213zm10.765 0a2.829 2.829 0 1 1 0 5.657h-2.56v3.738h-1.165l-.038-9.396H44.8zm-10.765 1.1H32v7.245h2.035a3.456 3.456 0 0 0 3.61-3.584 3.443 3.443 0 0 0-3.61-3.66zm19.251-.064h-2.47v3.597h2.47a1.805 1.805 0 1 0 0-3.597zm-8.588 0H42.24v3.584h2.458a1.792 1.792 0 0 0 0-3.584z"/>
        </g>
    </g>
</svg>
