<svg xmlns="http://www.w3.org/2000/svg" xmlns:xlink="http://www.w3.org/1999/xlink" width="118" height="132" viewBox="0 0 118 132">
    <defs>
        <path id="a" d="M.125.617h117.07v123.468H.124z"/>
        <path id="c" d="M.718.277h3.5V3.6h-3.5z"/>
        <path id="e" d="M22.208 28.683c0 8.292-14.887 15.737-14.887 15.737L0 0h22.208v28.683z"/>
    </defs>
    <g fill="none" fill-rule="evenodd">
        <g transform="rotate(-180 58.9 66)">
            <path fill="#EEDEE4" d="M107.966 36.112c13.818 29.728 3.601 63.718-22.821 75.917-26.421 12.199-59.043-2.011-72.861-31.74-13.82-29.73-3.602-63.719 22.82-75.918 26.422-12.199 59.043 2.011 72.862 31.74M109.253 35.68c1.477 1.136 1.368-.975 1.132-2.895a82.426 82.426 0 0 0-3.46-.385c.851 1.06 1.55 2.185 2.328 3.28"/>
            <path fill="#EEDEE4" d="M104.524 26.663l-2.601-1.404c-.876-.442-1.765-.853-2.631-1.259 1.08.718 2.192 1.443 3.237 2.245.566 2.136-.145 2.398-1.123 2.053-.992-.342-2.211-1.326-2.882-1.761 2.12 2.465 3.12 2.554 3.87 1.953.74-.585 1.166-1.853 2.13-1.827M97.256 20.706c-1.968-3.067-2.642-.761-2.203.862.684-.442 2.663.79 2.203-.862M28.924 111.6c-.383-.96-.86-1.99-.587-2.287-.754-.314-1.067-.1.587 2.287M27.927 108.55c.24.061.5.124.795.214-.214-.112-.382-.22-.64-.328-.098.013-.098.08-.155.114"/>
            <mask id="b" fill="#fff">
                <use xlink:href="#a"/>
            </mask>
            <path fill="#EEDEE4" d="M20.968 51.017c-1.119-2.71-.18-4.153-.256-6.675a34.36 34.36 0 0 1 2.308-.928c-.062-1.335-.41-1.726-.823-2.039-.42-.32-.91-.558-1.17-1.666.484-.509.914-1.19 1.234-1.976.378-.758.64-1.63.935-2.44.548-1.64 1.029-3.156 1.345-3.638.618-.118.786.261.848.726.069.474.058 1.058.234 1.352.76-2.93-1.091-3.832 1.12-7.057l.492.28c1.53-4.563 5.161-8.827 9.822-11.883 4.686-3.114 10.2-5.021 15.705-6.288-.765-.056-.608-.503-.942-.899 6.013-.915 12.747-.218 19.12 1.334 6.417 1.522 12.46 3.837 18.292 5.417-3.064-2.173-6.857-5.625-11.404-8.12-2.247-1.27-4.674-2.226-7.036-2.786-2.374-.511-4.69-.601-6.708-.02-.61-.513-1.38-.758-2.184-.912-.804-.171-1.648-.183-2.436-.204-1.576-.088-2.925-.042-3.502-1.139-5.522-.448-9.395.916-12.732 2.696-3.363 1.82-6.31 3.966-10.525 6.51-1.39.456-1.367-.778-2.255-1.37 2.128-1.782 4.44-3.406 6.928-4.773-1.697.4-3.38.912-5.045 1.516.373-.5 1.011-.955 1.735-1.422.717-.485 1.544-.924 2.33-1.344.773-.446 1.505-.864 2.054-1.276.546-.425.895-.879.9-1.376-3.349 2.307-7.777 4.526-11.653 7.467-3.857 2.914-7.105 6.464-8.127 9.795 2.271-2.009 4.533-5.066 7.499-7.114.838-.197 1.798-.56 2.614-.726.833-.146 1.492-.13 1.7.334-3.288 3.829-6.072 6.995-8.755 10.375-2.61 3.4-5.052 7.097-6.5 11.722-.72 2.305-1.872 5.346-2.885 5.5.102-1.662-1.017-.709-1.062-2.147-.157 1.834.746 2.169 1.367 2.632.65.471 1.043 1.044.336 3.392-1.08-.439-2.156-.892-3.228-1.357 1.534 1.398 1.107 2.848.508 4.553-.585 1.686-1.322 3.666-.315 5.538-1.418 1.28-2.192-1.209-1.982-4.133-.903 3.254 1.106 3.675 1.007 6.224-1.006-.818-1.915-1.674-2.874-2.573.677.75.959 1.424 1.014 2.057.071.634-.11 1.227-.407 1.793-.619 1.13-1.585 2.166-2.029 3.033.362.074 1.08-.306 1.713-.248.636.06 1.149.54 1.254 2.303-.224 1.554-1.037.866-1.415 1.274.756.12 2.202 1.225 2.682 3.477-.894.602-1.74-1.273-2.734-1.292.142.899.383 1.691.474 2.447.091.759.072 1.474-.16 2.207 1.537 2.94 1.336-.516 2.816 1.11.29 2.394-.47 2.767-1.533 2.797-1.054.037-2.397-.305-3.137.903C3.04 68.602 1.692 63.537.678 61.47c.62 2.546 1.3 5.058 2.185 7.49-.608-.099-.813 1.302-1.046 2.27-.232.96-.601 1.517-1.693-.391.482 4.017 1.995 8.264 4.068 12.129 2.063 3.878 4.673 7.382 7.154 10.273-.285-1.1-.777-2.4-.043-2.59 2.634 2.857 1.254 3.264 1.007 4.424 2.385 1.865 3.737.437 5.969.835.553 1.367 1.085 2.391 1.599 3.214a30.79 30.79 0 0 0 1.4 2.134c.446.638.847 1.285 1.273 2.084.443.784.88 1.75 1.409 3.048l1.099-1.68c.79 1.73 1.776 2.16 2.845 2.47 1.076.32 2.144.627 3.336 2.164-.068.46-1.564.07-2.765-.297 3.087 1.47 1.544 3.238 4.799 4.423a101.95 101.95 0 0 1-3.48.386c2.33 1.495 6.189 2.883 4.017 3.817 2.695.226 5.777 1.44 9.1 2.493 3.298 1.078 6.826 2.018 9.886 2.035l-.765 1.583c.886-.32 2.034-.378 3.302-.257 1.278.066 2.683.304 4.098.415.707.058 1.41.112 2.091.14.681.01 1.342-.023 1.955-.088 1.223-.11 2.26-.486 2.915-1.115l.473.693a52.605 52.605 0 0 0 5.875-2.804c2.694-.213 2.26 2.448 2.346 1.718 6.011-1.534 10.35-3.467 14.32-4.38-.03-.63.287-1.312.832-2.017.54-.716 1.28-1.507 2.159-2.278 1.71-1.615 3.874-3.343 5.646-5.036 4.795-3.433 8.889-8.031 11.988-13.186a50.847 50.847 0 0 0 3.894-8.112 55.542 55.542 0 0 0 2.366-8.585 58.5 58.5 0 0 0 .894-8.694 60.92 60.92 0 0 0-.453-8.497c-.75-5.542-2.197-10.781-4.232-15.49-.438-1.46-1.64-2.988-3.003-4.469l-2.158-2.179c-.744-.706-1.454-1.406-2.067-2.112.31 1.068.62 1.855.937 2.508.307.655.592 1.185.913 1.702.648 1.03 1.301 2.07 1.959 4.15.17 1.66-.255 2.923-.87 4.125-.577 1.195-1.344 2.332-1.83 3.746.555-.549 1.11-1.11 1.66-1.689 1.193 1.937 1.02 2.738.9 3.377-.116.65-.19 1.147.944 2.738l-3.145.16c.428.242.687.617.822 1.058.113.443.1.952.011 1.462-.155 1.022-.702 2.038-1.1 2.615.724.346 1.46.705 2.18 1.077-1.257 2.602-1.944 4.201-3.97 4.739l2.008-.031c-.675.412-.922 2.82-1.502 4.662-.63 1.842-1.405 3.052-2.731 1.257.3.775 1.095 1.653.463 3.087l-1.97-.363c-.117 2.19-.716 4.585-1.99 4.68.032-1.226-.647-1.898-1.34-2.553-.849 1.932-1.045 3.104-.827 3.988.233.89.86 1.455 1.517 2.002.657.553 1.345 1.086 1.613 1.959.276.874.104 2.099-1.071 3.9l-1.005-.81c-.04.825-.05 1.705-.152 2.537-.913.26-1.76.537-2.672.718.733 2.568-1.511 4.807-4.27 6.548-2.78 1.79-5.984 2.991-7.813 5.116-.411.324-.973.426-1.591.495-.621.065-1.313.061-2.065.01a34.053 34.053 0 0 0-2.346-.016c-.814.045-1.65.183-2.534.446l.704 1.868c-1.746-.563-5.45-.709-8.904-1.818-3.467-1.046-6.559-2.999-7.328-5.474-2.743 1.029.173.454-.143 1.994-.666.13-1.26.195-1.78.21a5.673 5.673 0 0 1-1.355-.188c-.783-.192-1.309-.623-1.725-1.09-.835-.922-1.184-2.222-2.179-3.198-1.587-.119-1.135.27-.51.799.615.532 1.433 1.114.373 1.546-2.005-1.555-3.092-1.438-4.433-1.353-1.293.033-2.87.041-5.18-2.222.089-1.267 1.767.231 2.699-.12-2.362-.19-5.157-1.794-7.766-4.042-2.63-2.241-5.054-5.087-7.253-7.584-1.784-3.43-3.89-7.632-5.322-12.232-1.474-4.567-2.23-9.433-1.972-13.648l-.733-.043c.33-.929.436-1.82.48-2.716.002-.894-.05-1.79-.147-2.706-.166-1.826-.384-3.767.21-5.689a24.767 24.767 0 0 0-1.174 1.871" mask="url(#b)"/>
            <path fill="#EEDEE4" d="M41.277 2.4c.665-.408 1.34-.839 2.047-1.2-.614.14-1.215.32-1.814.507-.597.19-1.205.348-1.786.575.516.013 1.038.066 1.553.118M4.228 50.4l.327-.66a58.237 58.237 0 0 1-.056-10.14 58.065 58.065 0 0 0-.27 10.8M27.26 112.174c-1.603-.056-2.895-1.385-4.336-1.774.774.442 1.58.843 2.384 1.24.803.397 1.589.805 2.416 1.16l-.464-.626z" mask="url(#b)"/>
            <path fill="#EEDEE4" d="M86.524 123.6c-1.843.62-2.699 1.473-3.6 2.265 1.452.328 2.084.017 2.478-.488.395-.502.564-1.203 1.122-1.777" mask="url(#b)" opacity=".1"/>
        </g>
        <g transform="rotate(-180 22.238 1.8)">
            <mask id="d" fill="#fff">
                <use xlink:href="#c"/>
            </mask>
            <path fill="#EEDEE4" d="M1.337 3.6C3.22-.21 6.143 2.765 2.424.277-1.213 1.504 2.237 2.272 1.337 3.6" mask="url(#d)"/>
        </g>
        <g transform="translate(19.8 31.2)">
            <circle cx="39" cy="38.4" r="38.4" fill="#FFF" fill-rule="nonzero"/>
            <path fill="#FFF" fill-rule="nonzero" stroke="#004E97" stroke-width="3.931" d="M23.4 15.6v28.683c0 8.292 14.887 15.737 14.887 15.737s14.886-7.445 14.886-15.737V15.6H23.4z"/>
            <path fill="#FFF" fill-rule="nonzero" stroke="#FFF" stroke-width="1.572" d="M23.4 15.6v28.683c0 8.292 14.887 15.737 14.887 15.737s14.886-7.445 14.886-15.737V15.6H23.4z"/>
            <g transform="translate(30.965 15.6)">
                <mask id="f" fill="#fff">
                    <use xlink:href="#e"/>
                </mask>
                <g fill-rule="nonzero" mask="url(#f)">
                    <path fill="#BB133E" d="M23.184 7.107V3.046H11.958v4.061h11.226zm0 7.108v-4.062H11.958v4.062h11.226zm0 7.36v-4.06H11.958v4.06h11.226z"/>
                    <path fill="#002664" d="M14.398 21.576V-1.27H4.881v22.845z"/>
                    <path fill="#BB133E" d="M23.184 29.19v-4.06H4.881v4.06h18.303zm0 7.362V32.49H4.881v4.062h18.303zm0 8.63v-5.584H4.881v5.584h18.303z"/>
                    <path fill="#FFF" d="M10.923 10.227l.37-1.152-.95-.713h1.187l.369-1.152.343 1.152h1.186l-.975.713.369 1.152-.923-.713-.976.713zm0 4.999l.37-1.152-.95-.713h1.187l.369-1.152.343 1.152h1.186l-.975.713.369 1.152-.923-.713-.976.713zm.027 4.998l.369-1.152-.976-.713h1.187l.343-1.152.369 1.152h1.186l-.949.713.37 1.152-.976-.74-.923.74zm-.014-14.995l.37-1.152-.95-.713h1.16l.37-1.152.37 1.152h1.16l-.95.713.37 1.152-.95-.713-.95.713zM7.7 2.515l.37-1.152-.976-.74h1.186L8.65-.53 8.99.622h1.187l-.95.74.343 1.153-.923-.741-.949.74zM7.673 7.61l.369-1.152-.95-.74h1.16l.37-1.152.343 1.152h1.186l-.949.74.37 1.152-.95-.74-.95.74zm0 5.082l.369-1.152-.95-.713h1.16l.37-1.152.343 1.152h1.186l-.949.713.37 1.152-.95-.713-.95.713zm.026 5.11l.37-1.152-.976-.714h1.186l.37-1.179.342 1.18h1.187l-.95.713.343 1.151-.923-.713-.949.713z"/>
                </g>
            </g>
            <path fill="#054DA2" fill-rule="nonzero" d="M23.4 15.6h14.887v44.42S23.4 52.575 23.4 44.283V15.6z"/>
            <path fill="#FFEF52" fill-rule="nonzero" d="M38.285 23.443v2.822l-1.16.88.433-1.411-1.16-.88h1.435l.452-1.41zm.002 20.447v2.821l-1.18.88.433-1.411-1.16-.88h1.435l.472-1.41zM28.3 33.667l.432 1.41h1.435l-1.16.88.433 1.411-1.14-.88-1.16.88.432-1.41-1.16-.88h1.435l.453-1.411zm4.916-8.86l.433 1.41h1.435l-1.16.88.432 1.41-1.16-.878-1.159.879.433-1.411-1.161-.88h1.435l.472-1.41zm0 17.72l.433 1.41h1.435l-1.16.879.432 1.411-1.16-.878-1.16.88.433-1.412-1.16-.879h1.435l.472-1.411zM29.61 28.556l.433 1.41h1.434l-1.16.88.433 1.41-1.14-.878-1.16.878.433-1.41-1.16-.88h1.435l.452-1.41zm.002 10.222l.432 1.411h1.435l-1.16.88.433 1.41-1.16-.88-1.16.88.433-1.41-1.16-.88h1.435l.472-1.41z"/>
        </g>
    </g>
</svg>
