<svg xmlns="http://www.w3.org/2000/svg" width="35" height="37" fill="none" viewBox="0 0 35 37">
    <path fill="#202020" d="M17.5 34.356c.206-.204 0-.204 0 0zM30.882 22.566c.206.204.206.204.412.204l-.412-.204zM28.206 30.7c-.206 0-.618-.204-.618-.204.206.203.618.407.618.203zM31.706 22.16c-.206-.203 0-.203 0 0zM16.47 3.86c-.205.203 0 0 0 0zM31.294 22.77l.206.203c0-.203 0-.203-.206-.203zM7.412 30.7c-.206 0-.412.203-.618.203.206 0 .412-.204.618-.204z"/>
    <path fill="#FB0" d="M1.03 16.264l.617.61c.206.203.412.203.618.406l.617.407.206.203v.813c0 .204.206.407.206.61v.204h-.206-.206.206c-.206 0-.206 0-.206-.204l-.617.813c-.206.204 0 .204-.206.407-.206 0 0-.203 0-.203-.206 0-.206.203-.412.203l-.412.407c-.206.203-.411.61-.411.813-.206.61-.206 1.016-.412 1.83v-.204.813c.206-.203-.206-.406.206-.813.206 0 0 .61.206.61-.206.407 0 .61 0 .813 0 .61.205 1.22.411 1.627.206.203.412.203.618.61 0 .406-.206 0 0 .406h.206c.206.203 0 .203 0 .203 0 .407 0 .407.206.814l-.206-.204c.206.204.206.407.412.813l-.206-.203c0 .203.206.407.411.61 0 0-.205-.407 0-.407l.618.61c-.206 0-.206-.203-.412-.203.412.407.412.203.824.61.412.203.823.61 1.647.813h-.206.618c-.412-.203-.206-.203-.206-.203.412.203.823 0 1.441 0 0 0-.206.203-.412.203-.412 0-.412.203-.823.203h.617v-.203h.412c0-.203-.412-.203 0-.203.412-.204.206.203.412 0 .618-.204.206-.204.618-.407h-.206c.411 0 .823-.406 1.03-.203 0 0 0 .203-.207.203-.206.203.206-.203.206 0-.206 0 .412-.203.412-.203v-.203c.206-.61 0 .203.206.203.206-.203 0 0 0-.203h.206s0 .203.205.203v.406s.618.61.824.407c-.206-.203-.412 0-.618-.407h.206c.206 0 .824.204 1.03.407v-.203c.617.203.617 0 .823.203 0 .203-.206 0-.206 0 0 .203.206 0 .206.203h-.206c.206 0 0 .204 0 .204.206 1.016.618 1.22.824 1.626 0 .203 0 .203-.206.203v-.203c0 .203 0 .61-.206.61.206.61 0-.203.206.203 0 .203.206.61.206.813 0-.203 0-.406.206 0 .206 0 .412 0 .617.407 0 0 0 .203-.205 0 0 .203.411.407.617.407-.206-.407.618.406.412 0 0 .203.206.203.412.406 0 0-.206 0-.206-.203 0 .203.411.203.617.203.206.203.618.203.618.407.206 0 .618.203.618.203.206 0 0-.203.206-.203h.617v.406c.206 0 0-.203.412-.203-.618.203 0 .203-.206.407.206.203.824.203 1.03 0 .205-.204-.412 0-.412-.204.823 0 .823-.406 1.647-.406h-.206c.412-.203.412-.203.618-.407-.206.203.823.407 1.44-.203 0-.203-.411.203-.411 0l.412-.407v.204c.412-.407.823-.61.617-.814.206 0 .412-.203.412-.406l.206.203s.206-.61.206-.813c0-.61.206-.61.206-.813 0 0-.206.203-.206-.203.206 0 .206-.61.412-.61 0-.204.206-.407 0-.407h.206c-.206 0-.206-.407-.206-.61.206.203.206 0 .206 0s.206-.203.411 0c-.206-.203.206-.203.412-.407.206-.203.412 0 .412 0v-.203c.206 0 .823-.406 1.03-.406v-.204s.205-.203 0-.203c0-.203.205 0 .411 0V29.885s.412-.204.206-.407h.412v.203l.206-.203c.206 0 .411.203.411.407-.206 0-.617.203 0 .406h-.617c.206 0 .206 0 0 .203h.617c0 .204 0 .204.412.407l-.206-.203s-.206 0-.206-.204H28c-.412-.406 1.03 0 .618-.203h.411c-.206.203.412.203.412.407.206 0-.412-.204-.206-.204h.618-.206.412c0-.203-.412 0 0-.203.206 0 .412-.203.412-.203-.206.203 0 .203-.206.406.206 0 1.03-.61.617-.61l.206-.203c-.206 0-.823.204-.206-.203.206-.203.206-.203.206-.407h.206s0-.203.206-.203h.206l.206-.406.206-.204c.206-.203.411-.61.617-.813.206-.407 0 0 0-.203.206 0 .412-.407.618-.61 0-.203.206-.407.206-.407 0-.203.206-.406.206-.61-.412.204 0-.203-.206-.406 0 .203.412-.61.206 0v-.407c.206-.203 0 .813.206.407 0-.61-.206-.813-.206-1.423.206.203-.206-.407 0-.407 0 .203.206.203.206.407v-.204c-.206-1.22-.206-.203-.618-.813-.206-.61-.206-.61 0-.61 0-.203-.206-.406-.412-.406.412.203.412.61.206.61 0-.407-.618-.814-.823-.814.411.814.411.407.617 1.22.206 0 .412 0 .412.407-.206-.203 0 0-.206.203 0-.203.206.407.206.407 0 .203-.206-.204-.206.203h.206c0 .203-.206 0-.206.407-.206-.204-.206 0-.206-.407-.206.61.206.813 0 1.423v-.203.406c-.206.204 0-.203-.206-.203 0 .203-.206.203-.206.407 0 .203 0 .203-.206.203v-.407.61s-.411.204-.205 0l-.412.61H31.5c0 .203 0 .203 0 0-.206.203-.206 1.22-.618.813-.206.61-.206.61-.823 1.22.206-.406-.618.203-.206-.203-.206 0-.206.203-.412.406-.206 0-.206-.203 0-.406l-.206.203-.206.203c-.206 0 0-.203-.411-.203v.203h-.206s0 .204-.206.204H28c.206 0-.206 0 0-.204-.206 0-.206 0-.618-.203v.203c-.617 0 0-.203-.411-.406v.203c-.618-.406-1.03-.203-1.442-.61h.206c-.206 0-.617-.203-1.03-.406l-.617.61c-.206 0-.412 0-.823.203-.206.203-.206.203-.206.406-.206 0-.618.407-.824.204 0 .203-.412.203-.412.203h.206c-.411 0-.617.203-.823.203 0 .407 0 .61-.206 1.017v-.204.407l-.206-.203-.206 1.016.206-.203v.61c-.206-.407 0 .407-.206.407v-.204.204c0 .203-.206.203-.206.406v-.203s.206.203 0 .203c0 0-.206 0 0 0 0 .203-.206.407-.411.61h-.206c-.206.407-.206.203-.412.407v.203h-.206.206c.412.406.206.406 0 .406v-.203h-1.029c-.618.203-.412-.203-1.03 0v-.203h-.206v-.204l-.206.204-.206-.204c-.205-.203-.205-.203-.411-.203s-.206 0-.206-.203v.203c-.206.203-.618 0-.824-.203-.206-.203-.206-.61-.412-.813h.206l-.206-.203c0-.204.206 0 .206 0-.206-.204-.206-.204-.411-.61 0-.204.205 0 .205.203-.205-.203-.411-.813-.411-1.627 0-.203-.206-.61-.206-1.016-.206-.203-.412-.203-.824-.407h.412c-.206 0-.412-.203-.617-.203h.205c-.205 0-.411-.203-.823-.406h-.206s0 .203-.206 0c0-.204-.412-.204-1.03-.814l.412.204c-.206-.204-.617-.407-.823-.407l-.412-.407-.823.407c-.206 0-.412 0-.824.203-.206.204-.412.204-.412 0-.411.204.206 0 0 .204-.206 0-.411.203-.411 0l-.206.203.206-.203-.412.406c-.412 0-.412.204-.618 0-.618.204-.618-.406-1.03-.203h-.617l-.206-.203s-.206-.407-.412-.61c-.411-.61-.205-.61-.617-1.017l.206-.61h.206c-.206 0-.206-.406-.206-.406v-.203s-.206-.204-.412-.204c0-.203 0 0 .206-.203 0-.203-.206-.203 0-.407v-.203c0-.203.206-.203 0-.407 0 0 .206-.203.206 0 .206-.406.617-.813 1.03-1.22.205.204.205-.203.823-.406h-.206c.206-.203.617-.407 1.03-.813v-1.22-1.016-.61H7c0-.407 0-.814.206-1.423v-.814l-.618-.406c-.617-.61-1.235-1.017-1.647-1.423-.206 0-.412-.204-.412-.204s-.205 0-.205-.203c-.412-.203-.618-.61-.618-.813h.206c-.206 0 0-.203 0-.203h-.206c-.206-.204 0-.204.206-.204v-.203l.206-.203s.206-.61.206-.813c0 0 .205-.204.205 0l.618-1.017-.206.203c-.206 0 0-.406.206-.61 0 .204.206 0 .206.204h-.206c0-.203 0-.407.206-.407 0-.203.206 0 .412 0 0-.203.206 0 0-.203.206-.203.206.203.206.203 0-.203.205 0 .411 0 .206-.406.412.204.412 0L7 9.962s.206-.204.412-.204c.206.204.206.204.206.407l.206-.203c.205 0 1.44.406 2.47.813l1.235-.813c.412-.204.618-.407.824-.407 0-.203.206-.203.412-.407.412-.203.823-.406 1.44-.406.207 0 .413-.204.413-.204 0-.61.205-1.22.205-1.83 0-.61 0-.812.206-1.219l.206-.813c0 .203-.206.406-.206.61v-.407c.206-.61.618-.813 1.03-1.016.206-.407.206.203.412 0l-.206.203c.617-.203 1.03-.203 1.853-.407 0 .407.411 0 .411.204v-.204h.412v.204l.206-.204v.204c.206 0 .618.203.412.406.206 0 .412.204.412.407 0 .203.206.61.206 1.016.205.407.205.813.411 1.22.206.203.206 1.017.412 1.423l.412.407c.617.203 1.44.406 1.44.406.207 0 .413.204.825.204.205 0 .823.61.411.61 0 0 .412.203.618.406.206.203.412.61.412.61.206 0 1.647-.61 3.706-1.22.205 0 .617 0 .823.204l.206.203c.206.203.206.406.412.813.206.407.617 1.017.823 1.626.206.407.206.61 0 1.017v.203h-.206l-.617.61c-.412.203-.618.61-1.03.813-.412.407-1.03.61-.823 1.22 0 .407.206 1.017.206 1.423 0 .203 0 .407.206.61v2.643l.411.406c.206.204.618.407.824.61.206.204.412.204.617.407l.412.203c.206 0 .618.204.618 0 .206.204.206.407.412.407-.206-.407.411-.203 0-.61l.206.203s-.412-.203-.206-.203l-.412-.203c-.206-.204-.206-.204-.206-.407-.206 0-.618.203-.823-.203h.205c-.411-.204-.206-.204-.206-.407l-.205-.406c.206.203.617.406.411.203-.411-.407 0 .203-.206 0-.205-.203 0-.203 0-.203l-.411-.204c.206 0 .206.204.206 0l-.412-.203c.206-.203 0-.61.206-.813 0 .406 0 0 .206 0v-.813s0 .203 0 0V18.5s0-.61.206-.61c0-.407-.206-.203-.206-.61.206 0 0 .407.206.203 0-.203-.206-.406 0-.406l.205.203c0-.203 0-.203.206-.203s.206-.203.412-.203.412-.204.824-.407c.205 0 .411-.203.617-.407.206-.203.618-.406.824-.813.206-.203 0 .204 0 .407.617-1.22 1.235-1.627 1.235-3.05h-.206c0-.406 0-1.016-.206-1.423 0-.203-.206-.406-.206-.61l-.206-.406c-.411-.61-.617-1.22-1.029-1.83v.203c-.206 0-.412-.61-.618-.61 0 0 .412 0 0-.406 0 .203.206.407.206.407-.617-.814-1.853-1.83-3.5-1.83H28c-.206 0-.412.203-.618.203l-.411.203-.824.204-.412.203h-.412l-.823-.407-.823-.406V5.286l.205-1.22c0-.407-.206-1.017-.411-1.423.206.61 0 .406-.206 0 0-.61-.412-1.22-1.03-1.423-.412-.407-1.03-.61-1.44-1.017C20.175.203 19.558 0 18.94 0h-2.47c-.206 0-.618 0-.824.203V0c-.412 0-.412.203-.824.203-1.029.407-1.646 1.017-2.058 1.423v.204c-.206.203-.206 0-.412.406 0 .204-.206.407-.206.61 0 0-.206.203-.412.61 0 .203 0 .407-.206.61V5.692h-.206-.205c-.412.204-.618.407-.824.61-.206 0-.412.203-.618.407v.203c0-.203 0 0 0 0s-.411 0-.411-.203c0 .203.206 0 .411.203 0 .203 0 .203-.411 0h-.206c0-.203-.206-.203-.206-.407-.412-.203-.618-.406-.824-.406-.205 0-.617-.203-1.029-.203-.618 0-1.441 0-2.265.203 0-.203-1.03.406-.823.203-.824.61.206 0 0 .407l-.412.406c0-.203-.206 0-.206-.203-.206.203-.206.407-.412.407v-.204c-.411.61-.823 1.22-1.03 1.423-.205.204-.41.61-.41 1.017l.205-.203c-.206.61-.618.406-.823 1.22v-.204c0 .203 0 .407-.412.813-.206 0 .206-.61.206-.813-.206.407-.618 1.423-.206 1.22-.206.407-.412.61-.412.813 0 0 .206-.406.206-.203C0 13.01 0 14.028.412 14.84H.206c.618.406.206.61.823 1.423z"/>
    <path fill="#202020" d="M26.765 30.293s-.206 0-.206-.203l.206.203zM21.618 35.371c-.206.203 0 0 0 0zM23.265 32.121c0-.203 0-.203 0 0-.206-.203-.206 0 0 0zM20.794 23.785c0-.203.206-.203 0 0 .206-.203 0-.203 0 0zM17.5 26.836c.206-.203 0 0 0 0zM25.941 17.281c0 .204.206.204 0 0z"/>
    <path fill="#FB0" d="M17.706 13.824c.412 0 1.03-.204 1.235 0 .206-.204.206-.204.412-.204v.204h.206v.203-.203s.206.203 0 .203c0 .203.206.203.206.203s.206-.203.206 0v.204c.206.203.411-.407.617-.204h.206c.206-.203-.206 0-.206 0 .206-.203.206 0 .206-.203 0 .203.206 0 .206 0 0 .203.206.203.206.407 0 0 .206-.204.412 0 0 .203-.206.203 0 .203v.203h.206-.206s.206 0 .206.204c0 .203.205 0 .205 0s0-.204.206-.204c0 0 .206 0 .206.204h-.206.206c.206 0 .206.203.206.203h.206c0-.204 0-.204.206-.204-.206.204.206 0 .206.204h-.206c-.206 0-.412.203-.618.203 0 0 .206 0 0 .203h.206c.206 0 .206-.203.206-.203.206 0-.206.203 0 .203s.206 0 .206.204c0 .203.206.203 0 .406h-.206c-.206 0 0 0-.206.204.206 0 .206 0 .206.203h.206c.412 0-.206.203-.206.203h.206s-.206.203 0 .203c0 0 0 .204-.206.204 0 0 0 .203.206.203.206-.203-.206 0 0-.203h.206l.206.203c0 .203.206.203.206.407-.206 0-.206 0-.206-.204v.204c-.206 0 0-.204-.206 0v.203c.206 0 0 .203 0 .203 0 .204.412.204.412.407h-.206l-.206.203c0 .204.206 0 .206 0v.204h.206v.203h-.206v.203c.206-.203 0 .203.206.203l-.206.204c-.206 0 0 0 0 .203 0 0 0 .203-.206.203v.203h.206v.204h-.412s.206 0 .206.203c-.206 0-.206.203-.412 0-.206 0-.206.203-.206.203h.206c0 .204.412.407.206.61 0 .204 0 .204.206.204-.206 0-.412 0-.618.203h.412v.203c0 .204-.412.204-.206.204h-.206.206v.203c0 .203 0 .203-.206.203 0 0 .206 0 .206.203-.206-.203-.206.204-.412 0 0 0-.206 0 0 .204l.206-1.22c.206.203 0 .203 0 .407-.206-.204 0 .203-.412 0 .206.203 0 .203 0 .406 0 0-.206 0-.206-.203h-.411v.406c.206.204 0 0 0 .204l-.206-.204s0 .407.206.407v.203l-.206-.203v.203h-.206L21 23.38v-.204.204c0-.204-.206-.204-.206-.204h.412v.204c.206.203 0 .406 0 .406s0 .204-.206 0c0-.203-.206-.203-.206-.203s.206 0 .206.203h-.412s.206 0 0 .204h-.206c0-.204-.206-.204 0-.407 0 0-.206.203 0 .203l.206.204v.406l-.206-.203c-.206 0 0 .203 0 .203l-.206-.203h-.411v.203c-.206-.203-.412 0-.618 0 .206.204 0 0 0 .204 0 0-.206-.204 0-.204h-.206c0-.203.206-.203 0-.406-.206 0-.206.406-.412.203 0-.203-.206 0 0-.203-.206 0 0 .203-.206.406-.205 0-.205-.203-.205-.203h-.206c0-.203.206.203.206.203 0-.203-.206 0-.206 0 .206.204.206 0 .412.204 0 0 0-.204.205-.204v.204c0-.204 0 0 .206-.204v.407-.203s0 .203.206.203c0 .203 0 .203-.206.203.206.203.206-.203.412-.203l.206-.203c.206 0 0 .203 0 .203h.206v.203l.206-.203s.206.203 0 .203l.206-.203v.203c.206 0 .206-.406.411 0l.412-.406c-.206.203.206 0 .206.203.206 0 0-.203.206-.203s.206.203 0 .406V24.6c.206 0 .206.203.206.203v-.203h.206v-.204c0 .204 0 0 .206.204l.205-.204c.206-.203.206.204.206 0 .412 0 .206-.406.412-.406v.203c0-.203.206-.203.412-.407.206 0 .206.204.412 0v-.203c.206 0 .206-.203.411-.203v-.204h-.206c.412 0 0-.406.412-.406l.206.203c0-.203.206-.203.206-.407h-.206v-.203c0 .204 0-.203.206 0v0c0-.203.206 0 .206-.203l-.206-.203c0-.204.206-.204.206-.407h.206v-.61h.206-.206v-.203c0-.204.206-.204.206-.407-.206-.203.206-.203 0-.406h.206v-.204h.205l.206.61h.206c.206 0 .206-.203.412-.406h-.206c-.412-.407.206-.813.206-1.423h.206l-.412-.204c.206-.203.206 0 .206 0 0-.203-.206 0-.206-.406 0-.204.206 0 .206 0 0-.204-.206-.61-.206-.814 0-.203 0-.406-.206-.406h.206v-.203h.206c0-.204-.206-.407 0-.407h-.206c.206-.203-.206-.203-.206-.407 0 0 .206.204.206 0 0-.203-.206-.203-.206-.203 0-.203-.206-.203-.206-.406.206-.204-.206-.407 0-.407 0-.203 0 .203-.206 0 0 0-.206-.203 0-.203v-.204h-.206c0-.203-.205-.203 0-.406-.205-.204 0-.61-.205-.813l-.412.406h.206l-.412-.203-.618-.61-.411-.407c-.206 0-.206-.406-.206-.203h-.412c-.206-.203 0-.203 0-.203-.206 0-.206 0-.412-.204h-.206c-.206 0-.206-.406-.412-.203 0-.203-.205-.203-.205-.203-.206 0-.412 0-.824-.203 0-.204 0 0-.206-.204v.204c-.206-.407-.412-.814-.823-.814v-.203l-.206.203c-.412-.203-1.03-.406-1.441-.406-.206 0-.412.203-.412.203-.412.203-.824.203-1.235.203v-.203c0 .203-.206 0-.206 0h.206c0 .203-.206 0-.412 0l-.206.203h-.206s-.206.204-.206.407c0 0-.206 0 0-.203-.206 0-.412 0-.618.203h.206c0 .203 0 .203-.206.203 0-.203 0-.203-.205-.203 0 0 .205 0 0 .203H14c0 .204-.206.204 0 .204-.206.203-.206-.204-.206 0 0 .203-.206.203-.412.203 0 .407-.411.203-.411.407h-.206s.206.203 0 .406c-.206 0-.206-.203-.206-.203v.203c-.618 0-1.236.813-1.853 1.017 0 .406-.206.813-.412 1.016l-.412.203h.412v.204c-.412.203-.823.61-.823 1.22.205.406-.412.203-.206.406 0 .407 0 .61.206.813-.206-.203 0 .203-.206.203h.206l-.206.204.206.203h-.206c0 .203 0 .61-.206.61.206.407.206 1.22.206 1.83.206 0 .206.203.206.406l-.206.203c0 .204.411.204.206.407 0 .203 0 .203.205.407 0 .203 0 .406-.205.406.205 0 0 .407 0 .407l.617 1.22c.412.813 1.03 1.626 1.853 2.44.824.812 2.059 1.422 3.088 1.422 1.03.204 2.06 0 2.471-.203 0-.203.206-.203.206-.407.206 0 .206.204.206 0-.206 0 0-.406-.206-.406h.206-.206v.203s-.206 0-.206-.203c0 0-.206.406-.412.203-.206 0 0-.203-.206-.203l-.206-.204h.206c-.206 0 0 0 0 0v-.203h-.206c0-.203 0 0 0 0h-.205c0-.203-.206.203-.206-.203.206 0 0 0 0-.203h-.618s-.206 0-.206-.204c-.206-.203-.206.204-.206 0 0-.203.206 0 .206-.203h-.206s0-.203.206-.203c-.412-.407-.412-1.017-.823-1.017 0-.203 0 0 .205-.203-.411 0-.205-.407-.411-.61 0-.407-.618-.61-.618-1.016h-.206s.206-.204 0-.204v.204c0-.407-.411-1.017-.617-1.424-.412-.61-.412-1.422-.412-2.032 0 .203-.206 0-.206 0 .618 0 0-.204.412-.407 0-.407.412-.61.206-1.017h.206v-.203c0-.203 0-.406.205-.406h-.205s.205 0 0 0v-.204c.205.204.205-.203.205-.203 0-.203 0-.407.206-.407s.206-.203.412-.203c0-.203.206-.406.412-.61.206.204.206-.203.206-.203-.206 0 0 0 0 0-.206 0-.206-.203 0-.203v-.204l.205.204c.206 0 .206-.204.618-.407 0 .203 0 0 .206.203.206-.203-.206-.203-.206-.406 0 0 0-.204.206 0v.203c.206-.203.412 0 .618-.203.206-.204.206.203.412 0v.203s0-.203.205-.203v.203s.206 0 .206-.203h.206v-.204h.412v.204c-.206.203-.206-.204 0 0z"/>
</svg>
