<svg xmlns="http://www.w3.org/2000/svg" width="52" height="36" fill="none" viewBox="0 0 52 36">
    <path fill="#FF4651" d="M29.56 4.659c.261-.056.261-.056 0 0l-1.835.39-2.36.5c.842.095 1.629-.072 2.733-.034.524-.111.786-.167 1.365-.017l.262-.056s.842.094 1.795.71c-.731.428-.59 3.67-.328 3.615.428.727.539 1.249.705 2.032-.11-.522-.428-.728-.539-1.25.11.522.484.989.54 1.25.705 2.032 1.465 4.324 1.647 6.468l.72 3.392.388 1.826.166.783.11.522c.056.261-.15.578-.357.894l-.262.056-.524.111-1.049.223c-2.359.5-5.035.797-6.346 1.075l-1.31.278c.786-.167.786-.167 1.366-.017-1.517.595-3.034 1.19-4.607 1.523.262-.055.317.206.897.355l-.786.167c-.731.428-2.304.762-2.773 1.135.207-.317-.58-.15-1.103-.039l.262-.055-6.028 1.28-.525.111-1.517.595s-.317-.205-.58-.15c0 0-.262.056-.055-.26-.469.372-1.104-.039-1.739-.45.152-.577.096-.838-.015-1.36l-.332-1.566-.72-3.392c-.444-2.087-1.205-4.38-1.91-6.412-.801-1.194-1.34-2.443-1.728-4.27-.54-1.248-1.19-3.02-1.618-3.747.096-.838.192-1.677.605-2.31.151-.577.62-.95 1.558-1.694-.262.056.206-.317.469-.372.524-.112.73-.428.206-.317-1.366.017-1.517.595-2.51 1.078C.754 8.322.245 9.793.053 11.47c.055.261-.096.839-.04 1.1l.166.783.332 1.565c.388 1.827.57 3.97 1.013 6.058.816 2.553 1.163 5.48 1.773 8.35l.221 1.044.278 1.304c.539 1.25 1.022 2.238 1.975 2.854 1.008.876 2.167 1.176 3.533 1.158 1.366-.017 1.835-.39 2.621-.556.524-.112 1.104.038 1.628-.073 2.359-.501 5.504-1.17 8.07-1.987l-.262.056c1.31-.278 2.414-.24 3.986-.574l.263-.056c.317.206 7.959-2.508 8.538-2.358l.524-.112c.787-.166 2.097-.445 2.98-1.45.937-.745 1.557-1.695 1.597-2.794.152-.578.303-1.155.192-1.677l-.166-.783-.111-.522-.443-2.087c-.373-.466-.484-.988-.857-1.455.151-.577-.373-.466-.222-1.043.51-1.472-.18-2.144-.07-1.622l-.665-3.131c-.11-.522-.166-.783-.54-1.25-.11-.521-.11-.521.097-.838-.222-1.043-.167-.783-.126-1.882.207-.317-.816-2.554-.872-2.815l.056.261c-.111-.522.04-1.1-.07-1.621-.111-.522-.071-1.621-.5-2.349-.539-1.249-1.809-2.07-3.023-2.63-.58-.15-1.422-.244-2.263-.338l-1.573.334-4.98 1.058c.056.26.787-.167.842.094-1.835.39-3.725.518-5.56.908-.262.055-.841-.094-.841-.094l-.787.167-.055-.261c-.993.483-1.366.017-1.89.128l-.524.112c-.056-.261-.524.111-.58-.15l-.262.056c-.262.055-2.193 1.283-2.455 1.34-.262.055-.469.371-.207.316l-.524.111-.524.111s-.262.056-.055-.26l-.787.166c.58.15 1.628-.073 2.208.077l-1.048.223c-.47.372-1.31.278-1.835.39 0 0-.207.316-.469.371-.317-.205-.262.056-.524.112l.786-.167c-.055-.261-.841-.094-.841-.094l-1.049.222c.207-.316-.262.056-.58-.15l-.262.057c.056.26.842.093.58.15l-.786.166s.262-.056.055.261l-.786.167.262-.056c-.262.056 1.668-1.172 1.144-1.06 0 0-1.93 1.227-1.668 1.172.262-.056-.207.316.055.26l.207-.316c.262-.056.58.15.317.205 0 0 1.669-1.172 1.462-.856l.262-.055c-.262.055-.73.428-.786.167 0 0-.207.316-.469.372-.262.056-.524.111-.207.317.731-.428-.826 1.266.222 1.043-.58-.15.207-.316.731-.427.055.26.318.205.58.15l.262-.056c.262-.056.524-.112.58.15.206-.317.524-.112.786-.168.262-.056 0 0 .206-.316l1.31-.279s.58.15.374.466c-.731.428-.056-.26-.524.112.317.205-.525.111-.731.428.317.205.58.15 1.048-.223l1.31-.278s.056.26-.206.316l.524-.11.524-.112s2.248-1.023 1.986-.967c.262-.056.318.205.787-.167 0 0-2.828.873-2.566.817.262-.055 3.296-1.245 3.614-1.04.262-.056.524-.111.469-.372.262-.056.055.26.317.205l.318.205c.468-.372 1.572-.334 2.041-.706-.262.056-.207.317-.675.689 0 0-.262.056-.207.317l1.048-.223.263-.056c.317.206 1.517-.595 2.096-.445l.262-.056c.787-.167 1.366-.017 1.89-.128.207-.317.207-.317-.055-.261l.524-.112c-.73.428.842.094.429.728l.786-.167s-.055-.261.469-.373c.524-.11.262-.055.841.094l.056.261c.73-.428.58.15 1.366-.017.524-.111 1.31-.278 1.255-.54.524-.11.524-.11.317.206z"/>
    <path fill="#FF4651" d="M44.145 7.56s-.262.055 0 0c-.207.316-.207.316-.469.372.262-.056.58.15.58.15.318.205.055.26.51-1.472.014 1.36-.4 1.993-.192 1.677l.206-.317-.262.056.262-.056c.262-.056.262-.056.318.205l.055.261.056.261c.221 1.044.18 2.144.402 3.187.111.522.07 1.622.348 2.926.11.522.221 1.044.07 1.622l.056.26.262-.055c.262-.056.58.15.635.41.055.261.317.206.317.206.373.466.429.727.484.988-.055-.261-.318-.205-.318-.205l.056.26c-.207.317-.786.168-1.104-.038l-.055-.26-.262.055c-.056-.26-.318-.205-.111-.522l-.262.056-1.049.222c-1.794-.71-3.588-1.42-5.59-1.813-.579-.15-1.365.018-2.262-.337-.787.167-1.422-.244-2.001-.393-.428-.727-.54-1.25-.237-2.405-.262.056-.055-.26-.11-.521.206-.317.206-.317-.056-.261-.73.428-.675.689-1.089 1.322-.358.894-.398 1.993.03 2.72.11.523.484.989.801 1.194l.953.616c.635.41 1.532.765 2.485 1.381 1.159.3 2.373.86 3.588 1.42.58.15 1.215.56 2.056.654l.58.15.897.355c.58.15.897.355 1.477.504l.952.616c.842.094 1.366-.017 2.415-.24.73-.428 1.406-1.117 1.82-1.75.357-.894.564-1.21.605-2.31l-.056-.261c.262-.056-.332-1.566-.871-2.815-.429-.727-.913-1.715-.65-1.77l-.056-.262c-.015-1.36.232-2.776.01-3.82-.317-.205-.372-.466-.69-.672.207-.316-.317-.205-.11-.521.675-.69.04-1.1.15-.578l-.443-2.088c-.055-.26-.11-.521-.428-.727-.056-.26-.11-.522-.11-.522-.374-.466-.112-.521-.485-.988.207-.316-1.27-.82-1.532-.765-.635-.41-1.008-.877-1.85-.971-1.103-.038-1.834.39-2.978 1.45-.47.373-.883 1.006-1.351 1.378l-.47.373-.468.372c.056.26.207-.317.524-.111-.675.689-1.462.856-1.875 1.489l-.524.111c-.262.056.055.261-.207.317l-.317-.206c.055.261-.524.112-.469.373l.055.26c-.317-.205-.206.317-.262.056l-.262.056-.247 1.416.055.26-.262.057-.262.055s-.262.056-.317-.205c0 0 .055.26-.207.316l1.048-.222c.056.26-.206.316-.468.372l-.787.167.056.261-.262.056c-.056-.261.206-.317.206-.317-.317-.205-.262.056-.524.111l-.206.317c-.056-.26-.263.056-.263.056l.056.26c.055.262.524-.11.58.15 0 0-.263.056-.207.317l.055.26s.056.262-.206.317c-.263.056.04-1.099-.222-1.043l-.04 1.1s.055.26.317.204l-.055-.26c.262-.056.262-.056.317.205-.262.055-.222-1.044-.166-.783l-.207.317.056.26s-.207.317.055.261c.469-.372.801 1.194 1.008.877-.262.056-.056-.26-.111-.522l.524-.111-.055-.261.262-.056c-.055-.26.262-.055.207-.316l-.056-.261c.262-.056.207-.317.469-.372l.635.41c-.207.317-.055-.26-.262.056.317.205-.207.316.11.522.263-.056.263-.056.47-.373 0 0 .206-.316.468-.372l.056.261.262-.056.262-.055s.302-1.155.358-.894l.262-.056s-.565 1.21-.62.95c.262-.056.51-1.472.771-1.528 0 0 .207-.316-.055-.26.262-.056.055.26.317.205l.262-.056c-.055-.26.47-.372.358-.894l.111.522.056.26c.262-.055.206-.316.206-.316.318.205.414-.633.676-.689l-.056-.26c.263-.056.525-.112.731-.429-.055-.26-.055-.26-.317-.205l.262-.056c.11.522.524-.11.635.411 0 0 .262-.056.206-.317l-.055-.26.262-.056.056.26c.73-.427.841.095 1.31-.277-.262.055-.262.055 0 0l-.055-.261c-.262.055-.262.055.055.26z"/>
</svg>
