<svg xmlns="http://www.w3.org/2000/svg" xmlns:xlink="http://www.w3.org/1999/xlink" width="118" height="132" viewBox="0 0 118 132">
    <defs>
        <path id="a" d="M.125.617h117.07v123.468H.124z"/>
        <path id="c" d="M.718.277h3.5V3.6h-3.5z"/>
        <linearGradient id="e" x1="100%" x2="0%" y1="50%" y2="50%">
            <stop offset="0%" stop-color="#2160AC"/>
            <stop offset="100%" stop-color="#14BCEF"/>
        </linearGradient>
        <path id="f" d="M36.842.032C15.652.892-.828 18.768.032 39.958c.86 21.19 18.736 37.67 39.926 36.81 21.19-.86 37.67-18.736 36.81-39.926C75.928 16.182 58.917 0 38.428 0c-.527 0-1.056.01-1.586.032"/>
        <path id="h" d="M.022 29.837c0 16.406 13.3 29.707 29.707 29.707s29.707-13.3 29.707-29.707S46.136.129 29.73.129.022 13.43.022 29.837"/>
        <linearGradient id="i" x1="0%" y1="50%" y2="50%">
            <stop offset="0%" stop-color="#2160AC"/>
            <stop offset="100%" stop-color="#14BCEF"/>
        </linearGradient>
    </defs>
    <g fill="none" fill-rule="evenodd">
        <g opacity=".1">
            <g>
                <path fill="#16B1E7" d="M107.966 36.112c13.818 29.728 3.601 63.718-22.821 75.917-26.421 12.199-59.043-2.011-72.861-31.74-13.82-29.73-3.602-63.719 22.82-75.918 26.422-12.199 59.043 2.011 72.862 31.74M109.253 35.68c1.477 1.136 1.368-.975 1.132-2.895a82.426 82.426 0 0 0-3.46-.385c.851 1.06 1.55 2.185 2.328 3.28"/>
                <path fill="#16B1E7" d="M104.524 26.663l-2.601-1.404c-.876-.442-1.765-.853-2.631-1.259 1.08.718 2.192 1.443 3.237 2.245.566 2.136-.145 2.398-1.123 2.053-.992-.342-2.211-1.326-2.882-1.761 2.12 2.465 3.12 2.554 3.87 1.953.74-.585 1.166-1.853 2.13-1.827M97.256 20.706c-1.968-3.067-2.642-.761-2.203.862.684-.442 2.663.79 2.203-.862M28.924 111.6c-.383-.96-.86-1.99-.587-2.287-.754-.314-1.067-.1.587 2.287M27.927 108.55c.24.061.5.124.795.214-.214-.112-.382-.22-.64-.328-.098.013-.098.08-.155.114"/>
                <mask id="b" fill="#fff">
                    <use xlink:href="#a"/>
                </mask>
                <path fill="#16B1E7" d="M20.968 51.017c-1.119-2.71-.18-4.153-.256-6.675a34.36 34.36 0 0 1 2.308-.928c-.062-1.335-.41-1.726-.823-2.039-.42-.32-.91-.558-1.17-1.666.484-.509.914-1.19 1.234-1.976.378-.758.64-1.63.935-2.44.548-1.64 1.029-3.156 1.345-3.638.618-.118.786.261.848.726.069.474.058 1.058.234 1.352.76-2.93-1.091-3.832 1.12-7.057l.492.28c1.53-4.563 5.161-8.827 9.822-11.883 4.686-3.114 10.2-5.021 15.705-6.288-.765-.056-.608-.503-.942-.899 6.013-.915 12.747-.218 19.12 1.334 6.417 1.522 12.46 3.837 18.292 5.417-3.064-2.173-6.857-5.625-11.404-8.12-2.247-1.27-4.674-2.226-7.036-2.786-2.374-.511-4.69-.601-6.708-.02-.61-.513-1.38-.758-2.184-.912-.804-.171-1.648-.183-2.436-.204-1.576-.088-2.925-.042-3.502-1.139-5.522-.448-9.395.916-12.732 2.696-3.363 1.82-6.31 3.966-10.525 6.51-1.39.456-1.367-.778-2.255-1.37 2.128-1.782 4.44-3.406 6.928-4.773-1.697.4-3.38.912-5.045 1.516.373-.5 1.011-.955 1.735-1.422.717-.485 1.544-.924 2.33-1.344.773-.446 1.505-.864 2.054-1.276.546-.425.895-.879.9-1.376-3.349 2.307-7.777 4.526-11.653 7.467-3.857 2.914-7.105 6.464-8.127 9.795 2.271-2.009 4.533-5.066 7.499-7.114.838-.197 1.798-.56 2.614-.726.833-.146 1.492-.13 1.7.334-3.288 3.829-6.072 6.995-8.755 10.375-2.61 3.4-5.052 7.097-6.5 11.722-.72 2.305-1.872 5.346-2.885 5.5.102-1.662-1.017-.709-1.062-2.147-.157 1.834.746 2.169 1.367 2.632.65.471 1.043 1.044.336 3.392-1.08-.439-2.156-.892-3.228-1.357 1.534 1.398 1.107 2.848.508 4.553-.585 1.686-1.322 3.666-.315 5.538-1.418 1.28-2.192-1.209-1.982-4.133-.903 3.254 1.106 3.675 1.007 6.224-1.006-.818-1.915-1.674-2.874-2.573.677.75.959 1.424 1.014 2.057.071.634-.11 1.227-.407 1.793-.619 1.13-1.585 2.166-2.029 3.033.362.074 1.08-.306 1.713-.248.636.06 1.149.54 1.254 2.303-.224 1.554-1.037.866-1.415 1.274.756.12 2.202 1.225 2.682 3.477-.894.602-1.74-1.273-2.734-1.292.142.899.383 1.691.474 2.447.091.759.072 1.474-.16 2.207 1.537 2.94 1.336-.516 2.816 1.11.29 2.394-.47 2.767-1.533 2.797-1.054.037-2.397-.305-3.137.903C3.04 68.602 1.692 63.537.678 61.47c.62 2.546 1.3 5.058 2.185 7.49-.608-.099-.813 1.302-1.046 2.27-.232.96-.601 1.517-1.693-.391.482 4.017 1.995 8.264 4.068 12.129 2.063 3.878 4.673 7.382 7.154 10.273-.285-1.1-.777-2.4-.043-2.59 2.634 2.857 1.254 3.264 1.007 4.424 2.385 1.865 3.737.437 5.969.835.553 1.367 1.085 2.391 1.599 3.214a30.79 30.79 0 0 0 1.4 2.134c.446.638.847 1.285 1.273 2.084.443.784.88 1.75 1.409 3.048l1.099-1.68c.79 1.73 1.776 2.16 2.845 2.47 1.076.32 2.144.627 3.336 2.164-.068.46-1.564.07-2.765-.297 3.087 1.47 1.544 3.238 4.799 4.423a101.95 101.95 0 0 1-3.48.386c2.33 1.495 6.189 2.883 4.017 3.817 2.695.226 5.777 1.44 9.1 2.493 3.298 1.078 6.826 2.018 9.886 2.035l-.765 1.583c.886-.32 2.034-.378 3.302-.257 1.278.066 2.683.304 4.098.415.707.058 1.41.112 2.091.14.681.01 1.342-.023 1.955-.088 1.223-.11 2.26-.486 2.915-1.115l.473.693a52.605 52.605 0 0 0 5.875-2.804c2.694-.213 2.26 2.448 2.346 1.718 6.011-1.534 10.35-3.467 14.32-4.38-.03-.63.287-1.312.832-2.017.54-.716 1.28-1.507 2.159-2.278 1.71-1.615 3.874-3.343 5.646-5.036 4.795-3.433 8.889-8.031 11.988-13.186a50.847 50.847 0 0 0 3.894-8.112 55.542 55.542 0 0 0 2.366-8.585 58.5 58.5 0 0 0 .894-8.694 60.92 60.92 0 0 0-.453-8.497c-.75-5.542-2.197-10.781-4.232-15.49-.438-1.46-1.64-2.988-3.003-4.469l-2.158-2.179c-.744-.706-1.454-1.406-2.067-2.112.31 1.068.62 1.855.937 2.508.307.655.592 1.185.913 1.702.648 1.03 1.301 2.07 1.959 4.15.17 1.66-.255 2.923-.87 4.125-.577 1.195-1.344 2.332-1.83 3.746.555-.549 1.11-1.11 1.66-1.689 1.193 1.937 1.02 2.738.9 3.377-.116.65-.19 1.147.944 2.738l-3.145.16c.428.242.687.617.822 1.058.113.443.1.952.011 1.462-.155 1.022-.702 2.038-1.1 2.615.724.346 1.46.705 2.18 1.077-1.257 2.602-1.944 4.201-3.97 4.739l2.008-.031c-.675.412-.922 2.82-1.502 4.662-.63 1.842-1.405 3.052-2.731 1.257.3.775 1.095 1.653.463 3.087l-1.97-.363c-.117 2.19-.716 4.585-1.99 4.68.032-1.226-.647-1.898-1.34-2.553-.849 1.932-1.045 3.104-.827 3.988.233.89.86 1.455 1.517 2.002.657.553 1.345 1.086 1.613 1.959.276.874.104 2.099-1.071 3.9l-1.005-.81c-.04.825-.05 1.705-.152 2.537-.913.26-1.76.537-2.672.718.733 2.568-1.511 4.807-4.27 6.548-2.78 1.79-5.984 2.991-7.813 5.116-.411.324-.973.426-1.591.495-.621.065-1.313.061-2.065.01a34.053 34.053 0 0 0-2.346-.016c-.814.045-1.65.183-2.534.446l.704 1.868c-1.746-.563-5.45-.709-8.904-1.818-3.467-1.046-6.559-2.999-7.328-5.474-2.743 1.029.173.454-.143 1.994-.666.13-1.26.195-1.78.21a5.673 5.673 0 0 1-1.355-.188c-.783-.192-1.309-.623-1.725-1.09-.835-.922-1.184-2.222-2.179-3.198-1.587-.119-1.135.27-.51.799.615.532 1.433 1.114.373 1.546-2.005-1.555-3.092-1.438-4.433-1.353-1.293.033-2.87.041-5.18-2.222.089-1.267 1.767.231 2.699-.12-2.362-.19-5.157-1.794-7.766-4.042-2.63-2.241-5.054-5.087-7.253-7.584-1.784-3.43-3.89-7.632-5.322-12.232-1.474-4.567-2.23-9.433-1.972-13.648l-.733-.043c.33-.929.436-1.82.48-2.716.002-.894-.05-1.79-.147-2.706-.166-1.826-.384-3.767.21-5.689a24.767 24.767 0 0 0-1.174 1.871" mask="url(#b)"/>
                <path fill="#16B1E7" d="M41.277 2.4c.665-.408 1.34-.839 2.047-1.2-.614.14-1.215.32-1.814.507-.597.19-1.205.348-1.786.575.516.013 1.038.066 1.553.118M4.228 50.4l.327-.66a58.237 58.237 0 0 1-.056-10.14 58.065 58.065 0 0 0-.27 10.8M27.26 112.174c-1.603-.056-2.895-1.385-4.336-1.774.774.442 1.58.843 2.384 1.24.803.397 1.589.805 2.416 1.16l-.464-.626z" mask="url(#b)"/>
                <path fill="#16B1E7" d="M86.524 123.6c-1.843.62-2.699 1.473-3.6 2.265 1.452.328 2.084.017 2.478-.488.395-.502.564-1.203 1.122-1.777" mask="url(#b)" opacity=".1"/>
            </g>
            <g transform="translate(73.324 128.4)">
                <mask id="d" fill="#fff">
                    <use xlink:href="#c"/>
                </mask>
                <path fill="#16B1E7" d="M1.337 3.6C3.22-.21 6.143 2.765 2.424.277-1.213 1.504 2.237 2.272 1.337 3.6" mask="url(#d)"/>
            </g>
        </g>
        <path fill="url(#e)" fill-rule="nonzero" d="M36.842.032C15.652.892-.828 18.768.032 39.958c.86 21.19 18.736 37.67 39.926 36.81 21.19-.86 37.67-18.736 36.81-39.926C75.928 16.182 58.917 0 38.428 0c-.527 0-1.056.01-1.586.032" transform="translate(20.6 24.192)"/>
        <g transform="translate(20.6 24.192)">
            <mask id="g" fill="#fff">
                <use xlink:href="#f"/>
            </mask>
            <g mask="url(#g)">
                <g transform="translate(8.554 8.447)">
                    <mask id="j" fill="#fff">
                        <use xlink:href="#h"/>
                    </mask>
                    <path fill="url(#i)" fill-rule="nonzero" d="M.022 29.837c0 16.406 13.3 29.707 29.707 29.707s29.707-13.3 29.707-29.707S46.136.129 29.73.129.022 13.43.022 29.837" mask="url(#j)"/>
                </g>
                <path fill="#FFF" fill-rule="nonzero" d="M14.825 63.554a.43.43 0 0 0 .132-.36c-.015-.132-.094-.322-.237-.57-.144-.246-.23-.446-.257-.6a.596.596 0 0 1 .159-.551.594.594 0 0 1 .525-.181c.208.025.406.128.592.309.127.122.217.257.27.402a.748.748 0 0 1-.166.802l-.163-.157a.558.558 0 0 0 .171-.444c-.012-.166-.093-.322-.244-.467-.145-.141-.293-.221-.443-.24a.424.424 0 0 0-.376.13.402.402 0 0 0-.114.35c.019.137.09.311.216.524.126.212.209.386.248.522.04.136.048.26.025.373a.628.628 0 0 1-.173.312.6.6 0 0 1-.53.187c-.208-.025-.41-.133-.607-.323a1.297 1.297 0 0 1-.3-.43.788.788 0 0 1-.06-.45.725.725 0 0 1 .2-.382l.162.156a.53.53 0 0 0-.158.465c.025.175.121.343.288.504.148.144.3.227.453.249a.428.428 0 0 0 .387-.13M17.26 64.576c.205-.245.31-.483.317-.715a.719.719 0 0 0-.28-.59.719.719 0 0 0-.628-.172c-.229.045-.448.192-.658.442l-.178.212c-.203.24-.308.479-.314.714a.718.718 0 0 0 .277.594c.194.163.404.221.63.173.226-.047.444-.195.652-.444l.181-.214zm-.015.364a1.534 1.534 0 0 1-.51.412.967.967 0 0 1-.553.093.992.992 0 0 1-.512-.235.944.944 0 0 1-.36-.738c-.004-.293.116-.583.358-.872l.176-.21c.156-.185.327-.32.512-.409a.98.98 0 0 1 .556-.095.984.984 0 0 1 .511.234.993.993 0 0 1 .319.46c.056.177.059.36.008.553-.05.193-.15.38-.3.565l-.205.242zM19.038 66.694c-.188.209-.394.324-.619.345-.224.02-.45-.052-.68-.217a.937.937 0 0 1-.336-.425.965.965 0 0 1-.04-.545c.039-.195.126-.387.26-.576l.202-.279c.139-.191.295-.337.468-.436a.955.955 0 0 1 .536-.133.97.97 0 0 1 .521.192c.231.167.368.36.412.581.044.22-.003.449-.14.684l-.183-.132c.219-.399.152-.725-.2-.979a.696.696 0 0 0-.624-.118c-.221.063-.425.223-.611.48l-.19.263c-.18.249-.266.488-.26.717.006.23.105.414.297.553.19.137.366.195.529.174.162-.022.32-.115.475-.282l.183.133zM19.986 68.273l.928-1.536-.279-.169.092-.153.28.17.123-.205c.105-.173.23-.279.373-.318.144-.04.294-.012.451.083.071.043.132.091.183.146l-.108.146a.853.853 0 0 0-.159-.121.356.356 0 0 0-.298-.05.464.464 0 0 0-.251.222l-.127.21.403.243-.093.153-.402-.243-.929 1.535-.187-.113zM21.52 68.073a.895.895 0 0 0-.113.599.588.588 0 0 0 .315.427c.174.094.35.103.53.027.179-.075.327-.222.445-.44l.02-.037c.071-.133.112-.267.122-.404a.675.675 0 0 0-.069-.368.603.603 0 0 0-.256-.255.583.583 0 0 0-.528-.024c-.18.076-.33.223-.446.44l-.02.035zm-.163-.156c.09-.168.203-.3.34-.4a.841.841 0 0 1 .443-.164.839.839 0 0 1 .462.105.812.812 0 0 1 .43.546c.057.24.013.493-.131.76l-.022.04c-.09.169-.204.303-.341.402a.825.825 0 0 1-.441.163.853.853 0 0 1-.462-.107.813.813 0 0 1-.43-.546c-.057-.24-.013-.493.131-.76l.02-.04zM24.503 68.655a.824.824 0 0 0-.128-.075.532.532 0 0 0-.36-.045.623.623 0 0 0-.325.212l-.581 1.224-.196-.093.847-1.783.192.092-.131.285a.58.58 0 0 1 .653-.078.362.362 0 0 1 .12.084l-.09.177zM26.689 70.766a.43.43 0 0 0-.02-.382c-.066-.117-.214-.26-.443-.43-.23-.17-.387-.32-.473-.45a.597.597 0 0 1-.071-.57.594.594 0 0 1 .41-.374c.202-.059.424-.042.667.05.165.063.3.151.406.264.106.114.173.24.201.382a.748.748 0 0 1-.037.42l-.211-.08a.558.558 0 0 0-.018-.476c-.077-.147-.213-.258-.408-.332-.19-.073-.357-.088-.502-.046a.424.424 0 0 0-.295.268.402.402 0 0 0 .034.366c.07.119.205.25.405.396.2.146.344.274.434.383a.77.77 0 0 1 .17.333.628.628 0 0 1-.036.355.6.6 0 0 1-.414.38c-.201.06-.43.04-.685-.058a1.298 1.298 0 0 1-.446-.277.789.789 0 0 1-.232-.389.724.724 0 0 1 .034-.43l.21.08a.53.53 0 0 0 .038.489c.092.15.246.267.463.35.193.074.365.09.514.05a.427.427 0 0 0 .305-.272M28.41 70.097a.545.545 0 0 0-.45.05.835.835 0 0 0-.34.401l1.13.352.006-.022a.725.725 0 0 0-.017-.491.503.503 0 0 0-.33-.29m-.515 1.788a.846.846 0 0 1-.597-.678 1.08 1.08 0 0 1 .04-.508l.024-.075a1.16 1.16 0 0 1 .257-.456.876.876 0 0 1 .4-.25.758.758 0 0 1 .447.001.712.712 0 0 1 .47.404c.086.198.087.432.003.703l-.037.116-1.344-.418-.012.04a.826.826 0 0 0 .017.59c.078.18.21.3.396.358a.712.712 0 0 0 .314.03.686.686 0 0 0 .293-.122l.1.14c-.223.174-.48.216-.77.125M30.431 70.697a.83.83 0 0 0-.14-.05.534.534 0 0 0-.362.024.625.625 0 0 0-.279.27l-.34 1.311-.21-.054.495-1.91.207.053-.075.305a.58.58 0 0 1 .626-.2.356.356 0 0 1 .133.06l-.055.19zM31.093 72.364l.93-1.513.22.046-1.126 1.78-.173-.036-.32-2.084.22.046zM32.663 70.383a.142.142 0 0 1 .172-.12c.045.008.08.028.101.06.023.033.03.07.024.11a.143.143 0 0 1-.058.095.148.148 0 0 1-.116.023.144.144 0 0 1-.101-.06.144.144 0 0 1-.022-.108zm-.17 2.55l-.217-.036.33-1.946.215.037-.329 1.945zM33.893 72.988c.151.02.283-.007.395-.08a.454.454 0 0 0 .208-.309l.208.027a.617.617 0 0 1-.154.312.706.706 0 0 1-.303.196.833.833 0 0 1-.377.037.762.762 0 0 1-.577-.345c-.127-.198-.172-.447-.134-.749l.009-.065c.024-.193.08-.36.166-.5a.787.787 0 0 1 .334-.306.809.809 0 0 1 .458-.065.761.761 0 0 1 .506.259.705.705 0 0 1 .16.533l-.208-.027a.536.536 0 0 0-.119-.391.54.54 0 0 0-.363-.19.544.544 0 0 0-.482.154c-.126.128-.205.319-.237.573l-.008.063c-.032.25-.002.452.088.605.09.154.234.243.43.268M36 71.508a.546.546 0 0 0-.425.152.834.834 0 0 0-.239.47l1.181.08.002-.023a.724.724 0 0 0-.13-.473.504.504 0 0 0-.388-.206m-.088 1.858a.845.845 0 0 1-.737-.522 1.078 1.078 0 0 1-.08-.503l.006-.078c.014-.189.062-.357.146-.504a.883.883 0 0 1 .33-.336.758.758 0 0 1 .436-.1.713.713 0 0 1 .551.283c.13.173.184.4.164.683l-.008.122-1.405-.097-.003.042a.825.825 0 0 0 .154.571.612.612 0 0 0 .468.256.715.715 0 0 0 .312-.042.688.688 0 0 0 .257-.187l.13.113c-.176.22-.417.32-.721.3M39.894 71.909c-.008-.32-.086-.569-.235-.746a.72.72 0 0 0-.6-.258.718.718 0 0 0-.584.286c-.142.185-.21.44-.202.766l.007.277c.007.315.086.563.236.744.15.18.35.268.601.262a.713.713 0 0 0 .588-.286c.138-.185.203-.44.195-.765l-.006-.28zm.23.282c.007.245-.03.46-.11.647a.967.967 0 0 1-.353.435.993.993 0 0 1-.54.162.943.943 0 0 1-.758-.315c-.196-.217-.299-.514-.307-.891l-.007-.274a1.527 1.527 0 0 1 .114-.645.98.98 0 0 1 .353-.439.983.983 0 0 1 .538-.163.99.99 0 0 1 .544.135.969.969 0 0 1 .372.409c.09.178.138.385.147.622l.008.317zM41.529 71.47a.833.833 0 0 0-.149 0 .534.534 0 0 0-.335.14.623.623 0 0 0-.175.346l.108 1.35-.217.018-.156-1.967.213-.017.028.313a.58.58 0 0 1 .527-.394c.06-.004.109 0 .145.013l.01.198zM42.102 72.236c.032.25.108.44.226.572a.49.49 0 0 0 .451.16.583.583 0 0 0 .52-.43l-.118-.91a.624.624 0 0 0-.256-.259.595.595 0 0 0-.356-.054.495.495 0 0 0-.397.27c-.083.156-.106.373-.07.651zm-.224-.01c-.04-.305-.003-.557.11-.753a.661.661 0 0 1 .517-.34.687.687 0 0 1 .649.239l-.026-.283.203-.027.248 1.917c.032.252-.012.46-.134.626-.122.166-.304.264-.545.295a.875.875 0 0 1-.401-.04.763.763 0 0 1-.324-.206l.104-.146c.178.168.372.239.583.211.181-.023.315-.095.402-.214.088-.12.121-.275.1-.465l-.032-.246c-.113.211-.303.334-.568.368a.658.658 0 0 1-.581-.2c-.161-.163-.261-.399-.301-.706l-.004-.03zM44.77 72.652a.732.732 0 0 0 .364-.178c.1-.091.164-.2.193-.325l-.082-.426-.383.073c-.214.044-.373.115-.48.214a.359.359 0 0 0-.12.347c.02.109.078.191.173.248a.463.463 0 0 0 .335.047zm.703.024a1.032 1.032 0 0 1-.094-.262.76.76 0 0 1-.243.281.897.897 0 0 1-.355.151.661.661 0 0 1-.482-.069.517.517 0 0 1-.248-.36.528.528 0 0 1 .149-.493c.136-.14.344-.237.625-.291l.388-.075-.042-.22a.433.433 0 0 0-.191-.303c-.1-.063-.233-.078-.396-.047a.595.595 0 0 0-.349.186.348.348 0 0 0-.094.304l-.215.04c-.03-.155.016-.302.138-.442a.844.844 0 0 1 .496-.271c.216-.041.397-.02.542.064a.593.593 0 0 1 .28.415l.176.917c.036.187.083.324.14.41l.004.021-.23.044zM46.022 70.532l.09.325a.785.785 0 0 1 .2-.338.72.72 0 0 1 .332-.184c.204-.052.372-.034.502.056s.224.25.285.48l.321 1.255-.21.053-.322-1.255c-.045-.17-.114-.289-.207-.354-.092-.065-.217-.078-.374-.038a.552.552 0 0 0-.315.212.744.744 0 0 0-.139.388l.336 1.31-.21.053-.49-1.911.201-.052zM48.595 71.87l-.21.064-.572-1.888.21-.064.572 1.889zm-.984-2.358a.146.146 0 0 1 .008-.112.143.143 0 0 1 .093-.072.146.146 0 0 1 .117.008c.035.02.058.049.07.088a.142.142 0 0 1-.01.11.148.148 0 0 1-.093.073.145.145 0 0 1-.117-.008.143.143 0 0 1-.068-.087zM49.296 71.457l1.211-.42.06.173-1.465.51-.053-.153.598-1.925-1.096.38-.062-.179 1.356-.47.054.154zM51.48 70.676a.733.733 0 0 0 .321-.247.623.623 0 0 0 .124-.357l-.166-.401-.36.149c-.2.085-.343.187-.427.305a.358.358 0 0 0-.048.365.352.352 0 0 0 .218.207c.104.036.217.03.338-.021zm.693-.117a1.024 1.024 0 0 1-.143-.238.763.763 0 0 1-.183.325.898.898 0 0 1-.317.219.662.662 0 0 1-.486.029.517.517 0 0 1-.316-.304.529.529 0 0 1 .048-.513c.105-.164.29-.301.553-.41l.366-.151-.085-.207a.432.432 0 0 0-.248-.258c-.111-.042-.244-.03-.398.033a.596.596 0 0 0-.304.252.347.347 0 0 0-.031.316l-.203.082c-.06-.145-.044-.298.047-.46a.844.844 0 0 1 .431-.365c.203-.084.385-.099.544-.046.16.053.279.17.357.35l.357.864c.072.176.146.3.219.373l.008.02-.216.09zM52.189 67.83l.215.457.37-.174.076.161-.37.174.56 1.192c.047.099.1.164.158.195.059.032.13.028.213-.011.034-.015.084-.046.153-.092l.083.157a.715.715 0 0 1-.198.127c-.135.063-.252.07-.35.02-.1-.049-.184-.15-.256-.303l-.56-1.191-.33.154-.075-.162.328-.154-.215-.457.198-.093zM54.277 69.564l-.195.1-.894-1.76.195-.099.894 1.76zm-1.381-2.15a.146.146 0 0 1-.012-.111.143.143 0 0 1 .079-.088.146.146 0 0 1 .117-.012.144.144 0 0 1 .084.074.142.142 0 0 1 .01.111.148.148 0 0 1-.08.087.145.145 0 0 1-.116.013.143.143 0 0 1-.082-.074zM54.49 68.38a.895.895 0 0 0 .445.416.588.588 0 0 0 .53-.04.585.585 0 0 0 .305-.432c.031-.192-.014-.396-.135-.612l-.021-.036a1.006 1.006 0 0 0-.277-.32.672.672 0 0 0-.348-.137.603.603 0 0 0-.352.08.583.583 0 0 0-.302.434c-.032.193.013.397.134.612l.02.035zm-.22.055a1.16 1.16 0 0 1-.157-.5.84.84 0 0 1 .097-.462.839.839 0 0 1 .336-.335.812.812 0 0 1 .691-.074c.233.08.424.253.573.518l.023.04c.093.165.146.333.157.502a.825.825 0 0 1-.097.46.85.85 0 0 1-.338.333.812.812 0 0 1-.69.073c-.234-.08-.425-.252-.574-.517l-.022-.038zM55.87 66.396l.19.279a.786.786 0 0 1 .081-.384.723.723 0 0 1 .256-.28c.177-.115.342-.151.493-.108.152.044.293.165.424.364l.705 1.086-.182.119-.706-1.088c-.097-.147-.2-.237-.309-.269-.109-.032-.23-.004-.366.084a.553.553 0 0 0-.232.301.742.742 0 0 0-.007.412l.736 1.134-.182.118-1.075-1.655.175-.113zM59.22 65.867a.31.31 0 0 0-.26-.133 1.005 1.005 0 0 0-.408.11c-.163.073-.298.12-.404.138a.542.542 0 0 1-.278-.014.438.438 0 0 1-.205-.16.47.47 0 0 1-.072-.427.789.789 0 0 1 .312-.419c.177-.13.351-.191.523-.183.172.009.31.084.413.225l-.176.13a.353.353 0 0 0-.287-.146.57.57 0 0 0-.363.124.57.57 0 0 0-.221.282.295.295 0 0 0 .042.278c.059.08.133.12.224.12.09 0 .225-.038.406-.115.181-.078.325-.124.432-.14a.557.557 0 0 1 .28.023c.08.03.15.086.211.168a.472.472 0 0 1 .075.441c-.05.16-.16.305-.335.433-.185.136-.368.202-.55.197a.514.514 0 0 1-.422-.213l.176-.13a.38.38 0 0 0 .307.145.661.661 0 0 0 .38-.147.622.622 0 0 0 .237-.3.301.301 0 0 0-.038-.287M62.08 64.785l-.137.122-2.097-2.346.137-.123zM64.04 61.154a.32.32 0 0 0-.282-.091c-.102.018-.25.084-.441.198-.192.114-.36.19-.504.23-.275.077-.503.032-.683-.133a.647.647 0 0 1-.214-.55c.016-.223.118-.436.306-.642.125-.136.261-.234.41-.295a.811.811 0 0 1 .444-.055c.149.024.28.088.393.191l-.311.34a.415.415 0 0 0-.328-.125c-.117.011-.23.077-.339.196a.562.562 0 0 0-.165.324.322.322 0 0 0 .114.274.292.292 0 0 0 .27.065c.11-.022.256-.089.441-.2.185-.11.349-.186.491-.225a.79.79 0 0 1 .385-.02.703.703 0 0 1 .322.176c.163.15.236.33.217.544-.018.213-.125.427-.321.641-.13.142-.276.248-.437.319a.889.889 0 0 1-.471.078.734.734 0 0 1-.413-.197l.312-.34a.43.43 0 0 0 .359.126c.128-.017.255-.095.38-.232.11-.119.167-.23.173-.333a.315.315 0 0 0-.108-.264M64.38 59.244a.373.373 0 0 0-.086.31.66.66 0 0 0 .187.335l.53-.658-.025-.02a.538.538 0 0 0-.337-.12.37.37 0 0 0-.27.153m1.35 1.02c-.177.219-.388.34-.636.365-.247.025-.485-.055-.714-.24l-.042-.034a1.184 1.184 0 0 1-.34-.42.844.844 0 0 1 .107-.915c.168-.21.366-.317.59-.324.226-.006.461.09.705.286l.14.112-.81 1.004c.135.092.27.13.404.115a.489.489 0 0 0 .336-.19.6.6 0 0 0 .12-.541l.327-.043a.796.796 0 0 1 .015.418.989.989 0 0 1-.202.407M65.788 57.522a1.09 1.09 0 0 0-.118.137c-.12.165-.137.32-.053.47l1.09.794-.26.358-1.595-1.162.249-.342.185.122a.5.5 0 0 1 .054-.512.415.415 0 0 1 .113-.111l.335.246zM67.192 57.235l-.95-1.124.25-.383 1.275 1.655-.212.322-2.027-.507.252-.384zM68.56 56.102l-.228.38-1.693-1.012.228-.38 1.693 1.012zm-2.375-.872a.234.234 0 0 1-.112-.143c-.016-.06-.004-.124.037-.193a.247.247 0 0 1 .154-.125.234.234 0 0 1 .179.03.23.23 0 0 1 .11.143.25.25 0 0 1-.04.193c-.04.07-.091.11-.151.125a.229.229 0 0 1-.177-.03zM68.95 54.764a.4.4 0 0 0 .046-.288.33.33 0 0 0-.155-.217l.199-.367c.106.063.188.15.248.264.059.114.087.24.083.377a.87.87 0 0 1-.107.394c-.132.243-.314.393-.548.45-.234.057-.49.011-.767-.139l-.04-.021c-.264-.143-.438-.328-.52-.555-.082-.227-.058-.463.074-.707a.81.81 0 0 1 .453-.406.735.735 0 0 1 .585.051l-.199.368a.405.405 0 0 0-.3-.031.372.372 0 0 0-.228.19.39.39 0 0 0-.02.367c.054.118.174.228.36.33l.062.033c.188.102.347.144.476.126a.39.39 0 0 0 .298-.22M68.651 52.378a.373.373 0 0 0-.009.32.663.663 0 0 0 .262.28l.357-.765-.03-.013a.538.538 0 0 0-.355-.035.37.37 0 0 0-.225.213m1.554.666c-.118.255-.295.424-.529.507-.234.084-.484.063-.75-.061l-.05-.024a1.181 1.181 0 0 1-.43-.326.845.845 0 0 1-.116-.914c.113-.244.279-.396.496-.456.217-.06.468-.024.752.108l.162.076-.545 1.168a.594.594 0 0 0 .42.016.49.49 0 0 0 .28-.266.6.6 0 0 0-.013-.554l.308-.12a.8.8 0 0 1 .115.403.989.989 0 0 1-.1.443M70.308 48.914c-.277-.098-.508-.12-.693-.068a.546.546 0 0 0-.38.368.545.545 0 0 0 .066.52c.11.157.299.285.567.382l.145.051c.275.098.507.119.694.065a.548.548 0 0 0 .383-.367.541.541 0 0 0-.063-.522c-.11-.156-.306-.283-.588-.383l-.13-.046zm.285-.389c.245.087.445.205.6.355.156.15.255.322.299.515.043.192.029.391-.044.596a1.063 1.063 0 0 1-.34.49c-.155.124-.34.197-.554.219a1.577 1.577 0 0 1-.681-.093l-.141-.05a1.616 1.616 0 0 1-.6-.358 1.033 1.033 0 0 1-.3-.517 1.055 1.055 0 0 1 .043-.595c.072-.204.184-.368.338-.491.154-.123.338-.195.552-.216a1.61 1.61 0 0 1 .688.096l.14.05zM70.697 47.021c-.025.054-.047.11-.064.17-.056.195-.02.348.11.458l1.297.374-.123.426-1.896-.547.118-.406.215.05a.499.499 0 0 1-.124-.498.418.418 0 0 1 .068-.144l.399.117zM71.446 46.532c.193.045.354.041.483-.012a.39.39 0 0 0 .243-.289.427.427 0 0 0-.134-.439l-.845-.197a.42.42 0 0 0-.308.332.392.392 0 0 0 .091.371c.094.105.251.183.47.234m-.138.421c-.298-.07-.52-.195-.665-.377a.694.694 0 0 1-.137-.62.65.65 0 0 1 .35-.464l-.19-.065.091-.389 1.863.435c.252.059.433.183.542.374.109.191.132.42.07.686a1.05 1.05 0 0 1-.184.392.754.754 0 0 1-.301.253l-.212-.265a.634.634 0 0 0 .35-.435.49.49 0 0 0-.037-.366c-.058-.101-.162-.169-.312-.204l-.13-.03c.11.156.14.338.092.546a.692.692 0 0 1-.397.488c-.212.101-.476.115-.793.041M72.588 44.2a.504.504 0 0 0-.021-.255.425.425 0 0 0-.14-.2l-.367-.062-.04.236c-.027.161-.02.288.023.379a.277.277 0 0 0 .219.162.258.258 0 0 0 .214-.05.327.327 0 0 0 .112-.21zm.396-.428a.688.688 0 0 1-.19.02.69.69 0 0 1 .131.547.696.696 0 0 1-.247.45.542.542 0 0 1-.445.116.56.56 0 0 1-.439-.312c-.085-.172-.103-.402-.055-.688l.046-.268-.128-.022a.347.347 0 0 0-.256.044c-.07.046-.115.127-.134.242a.39.39 0 0 0 .033.257c.04.072.097.114.174.127l-.074.437a.492.492 0 0 1-.282-.157.719.719 0 0 1-.17-.325 1.032 1.032 0 0 1-.01-.42c.039-.228.127-.4.264-.517.137-.116.31-.158.518-.127l.877.148c.175.03.319.029.432-.003l.03.005-.075.446zM71.206 42.223l.228.012a.71.71 0 0 1-.202-.6c.043-.408.299-.591.767-.549l1.297.138-.047.44-1.27-.135c-.125-.013-.22.004-.286.052-.065.047-.105.132-.118.254a.427.427 0 0 0 .2.423l1.396.148-.047.44-1.962-.208.044-.415zM73.356 40.227l-.027.442-1.97-.12.027-.442 1.97.12zm-2.51.318a.234.234 0 0 1-.165-.074c-.042-.046-.061-.11-.056-.19.005-.08.03-.14.078-.18a.234.234 0 0 1 .174-.056c.067.004.12.03.162.076.042.046.06.11.055.19-.004.08-.03.14-.077.18a.23.23 0 0 1-.17.054zM73.043 39.196l.02-1.05.354.006-.03 1.6-.29-.005-1.307-1.026-.019.983-.357-.007.03-1.544.28.005zM73.067 37.036a.506.506 0 0 0-.073-.245.427.427 0 0 0-.178-.168l-.372.015.01.238c.005.164.039.287.099.367.06.08.143.119.247.115a.26.26 0 0 0 .2-.093.328.328 0 0 0 .067-.23zm.3-.499a.68.68 0 0 1-.182.058.69.69 0 0 1 .24.509.696.696 0 0 1-.15.491.542.542 0 0 1-.413.204.56.56 0 0 1-.492-.216c-.119-.152-.183-.373-.194-.663l-.01-.272-.13.005a.347.347 0 0 0-.242.095c-.059.06-.086.147-.082.264a.39.39 0 0 0 .085.245.234.234 0 0 0 .196.09l.017.442a.492.492 0 0 1-.308-.096.715.715 0 0 1-.232-.284 1.03 1.03 0 0 1-.096-.41c-.009-.23.042-.417.153-.558.11-.142.272-.219.482-.23l.889-.034a1.01 1.01 0 0 0 .421-.09l.032-.002.016.452zM70.819 35.272l.478-.041-.03-.347.327-.028.03.347 1.097-.095c.075-.006.128-.026.159-.059.03-.032.043-.087.036-.163a.68.68 0 0 0-.031-.153l.341-.03c.037.099.059.195.067.288.03.34-.143.525-.517.557l-1.114.096.028.324-.327.028-.028-.324-.478.042-.038-.442zM73.133 33.858l.052.44-1.959.233-.053-.44 1.96-.233zm-2.413.761a.237.237 0 0 1-.176-.044c-.05-.038-.079-.096-.089-.176-.01-.08.006-.144.045-.192a.234.234 0 0 1 .16-.086.227.227 0 0 1 .174.046c.05.038.079.097.089.177.01.08-.006.143-.044.191a.23.23 0 0 1-.159.084zM72.055 33.106c.2-.033.35-.1.45-.202a.409.409 0 0 0 .113-.373.404.404 0 0 0-.23-.316c-.129-.063-.304-.076-.526-.04-.197.033-.346.101-.447.205a.41.41 0 0 0-.115.373c.023.143.099.247.226.312s.304.079.53.041zm.035.444a1.16 1.16 0 0 1-.534-.028.838.838 0 0 1-.405-.26.909.909 0 0 1-.202-.45.862.862 0 0 1 .147-.682c.142-.192.352-.318.629-.377l.102-.02c.192-.03.37-.023.533.026a.832.832 0 0 1 .404.258.915.915 0 0 1 .203.455c.045.275-.01.51-.165.705-.156.196-.385.319-.69.37l-.022.003zM70.668 31.147l.219-.064a.71.71 0 0 1-.388-.5c-.092-.4.09-.657.546-.77l1.27-.295.1.431-1.245.29c-.122.027-.206.075-.252.141-.047.067-.056.16-.028.279.04.174.149.286.326.334l1.368-.317.1.431-1.922.446-.094-.406zM71.343 28.076a.2.2 0 0 0-.145.145 1.035 1.035 0 0 0-.013.341c.013.154.01.286-.008.396-.04.243-.157.393-.351.45a.525.525 0 0 1-.47-.084.85.85 0 0 1-.32-.476c-.068-.226-.066-.425.005-.598a.556.556 0 0 1 .373-.338l.126.425a.273.273 0 0 0-.177.151.364.364 0 0 0-.01.266.392.392 0 0 0 .133.209c.06.046.127.058.2.037a.18.18 0 0 0 .127-.128c.02-.065.023-.187.01-.364a1.636 1.636 0 0 1 .016-.432.58.58 0 0 1 .12-.265.487.487 0 0 1 .238-.146c.17-.05.329-.021.476.089.147.11.255.279.323.507.046.155.058.301.039.44a.71.71 0 0 1-.147.35.568.568 0 0 1-.287.196l-.122-.412a.313.313 0 0 0 .198-.183.46.46 0 0 0-.001-.302.449.449 0 0 0-.14-.236.206.206 0 0 0-.193-.038"/>
                <path fill="#FFF" fill-rule="nonzero" stroke="#FFF" stroke-width=".6" d="M28.108 40.46c.79 0 1.497.152 2.12.457.624.305 1.108.73 1.451 1.275.343.544.515 1.152.515 1.822H31.18c0-.814-.278-1.469-.834-1.963-.556-.495-1.302-.742-2.239-.742-.91 0-1.634.203-2.174.61-.54.406-.809.937-.809 1.592 0 .605.243 1.1.728 1.481.484.382 1.26.719 2.329 1.011 1.067.292 1.876.594 2.427.908.55.313.964.688 1.242 1.123.277.436.416.951.416 1.545 0 .937-.374 1.689-1.123 2.255-.75.567-1.737.85-2.962.85-.84 0-1.61-.15-2.309-.45-.7-.299-1.231-.719-1.594-1.258-.362-.54-.543-1.157-.543-1.855h1.005c0 .84.313 1.501.94 1.986.626.485 1.46.727 2.5.727.927 0 1.67-.204 2.231-.613.561-.408.842-.95.842-1.626 0-.659-.232-1.18-.695-1.565-.463-.384-1.31-.749-2.54-1.095-1.232-.346-2.131-.723-2.698-1.132-.806-.577-1.21-1.334-1.21-2.271 0-.91.375-1.65 1.125-2.219.748-.57 1.706-.854 2.872-.854zm10.309 0c.915 0 1.722.22 2.423.661.7.441 1.24 1.065 1.622 1.871.38.807.58 1.74.596 2.803v1.422c0 1.095-.19 2.057-.568 2.885-.378.828-.919 1.465-1.622 1.912-.703.447-1.514.67-2.435.67-1.39 0-2.512-.497-3.367-1.491-.855-.994-1.283-2.336-1.283-4.025v-1.226c0-1.084.192-2.044.576-2.88.385-.836.928-1.48 1.63-1.929.703-.45 1.512-.674 2.428-.674zm11.126 0c1.274 0 2.28.342 3.019 1.029.738.686 1.167 1.637 1.287 2.852h-1.013c-.251-2.021-1.349-3.032-3.293-3.032-1.079 0-1.938.403-2.579 1.21-.64.807-.96 1.922-.96 3.345v1.456c0 1.374.312 2.47.936 3.287.624.818 1.467 1.227 2.53 1.227 1.05 0 1.843-.252 2.377-.756.534-.503.864-1.26.989-2.267h1.013c-.136 1.253-.584 2.212-1.344 2.876-.76.665-1.772.997-3.036.997-.883 0-1.663-.22-2.341-.662-.679-.441-1.203-1.066-1.573-1.875-.37-.81-.559-1.734-.564-2.775v-1.544c0-1.057.185-1.994.556-2.811.37-.817.902-1.448 1.597-1.892.695-.444 1.494-.666 2.399-.666zm-11.126.882c-1.106 0-1.987.407-2.644 1.221-.656.815-.984 1.952-.984 3.412v1.242c0 1.411.326 2.53.98 3.355.654.825 1.542 1.238 2.664 1.238 1.138 0 2.027-.408 2.664-1.222.637-.814.956-1.949.956-3.404v-1.258c0-1.433-.324-2.555-.972-3.367-.649-.811-1.537-1.217-2.664-1.217zm-1.688-20.206c1.275 0 2.281.343 3.02 1.029.738.687 1.167 1.637 1.287 2.852h-1.014c-.25-2.021-1.348-3.032-3.293-3.032-1.079 0-1.938.404-2.578 1.21-.64.808-.96 1.923-.96 3.346v1.455c0 1.374.312 2.47.936 3.288.623.817 1.466 1.226 2.529 1.226 1.05 0 1.844-.251 2.378-.755.533-.504.863-1.26.988-2.268h1.014c-.137 1.253-.585 2.212-1.345 2.876-.76.665-1.772.997-3.035.997-.883 0-1.663-.22-2.342-.662-.678-.441-1.202-1.066-1.573-1.875-.37-.81-.558-1.734-.563-2.774v-1.545c0-1.056.185-1.994.555-2.81.37-.818.903-1.448 1.598-1.893.694-.444 1.494-.665 2.398-.665zm-14.489.163l4.503 11.898h-1.046l-1.234-3.342h-5.401l-1.226 3.342h-1.054l4.502-11.898h.956zm25.125 0c1.237 0 2.213.316 2.93.948.716.632 1.074 1.5 1.074 2.607 0 1.116-.345 1.979-1.034 2.586-.689.607-1.687.911-2.995.911h-3.023v4.846h-1.005V21.299h4.053zm9.156 0l4.503 11.898h-1.046l-1.234-3.342h-5.402l-1.225 3.342h-1.055l4.503-11.898h.956zm-26.97 0v11.898h-1.006V21.299h1.005zm-7.793 1.226l-2.386 6.48h4.772l-2.386-6.48zm34.281 0l-2.386 6.48h4.772l-2.386-6.48zm-8.609-.376h-3.113V27.5h3.048c.975 0 1.719-.232 2.23-.695.513-.464.769-1.11.769-1.94 0-.824-.255-1.48-.764-1.968-.51-.489-1.233-.738-2.17-.75z"/>
                <path stroke="#FFF" stroke-linecap="round" stroke-linejoin="round" stroke-width=".6" d="M16.414 37.063h45.35"/>
                <path fill="#FFF" fill-rule="nonzero" stroke="#FFF" stroke-width=".6" d="M23.718 58.235a.955.955 0 0 1-.588.194.905.905 0 0 1-.62-.216.717.717 0 0 1-.25-.558c0-.27.106-.484.313-.635.2-.145.474-.216.823-.216h.285v-.084a.346.346 0 0 0-.094-.26c-.063-.061-.16-.094-.295-.094-.12 0-.218.03-.295.087-.071.053-.103.111-.103.18v.096h-.587v-.096c0-.137.048-.268.142-.39a.928.928 0 0 1 .368-.283c.152-.068.318-.102.498-.102.286 0 .516.073.685.222.17.151.26.359.265.618v1.056c0 .199.025.354.073.465l.008.038v.13h-.567l-.026-.053a.486.486 0 0 1-.035-.099zm-.037-.61v-.351h-.211c-.435 0-.625.111-.625.326 0 .095.03.164.089.215a.378.378 0 0 0 .254.08.593.593 0 0 0 .302-.082.488.488 0 0 0 .191-.188zm1.62.762h-.584V55.9h.584v2.486zm-.616-2.999a.33.33 0 0 1 .082-.225.313.313 0 0 1 .245-.098c.102 0 .186.032.245.098a.327.327 0 0 1 .084.225.32.32 0 0 1-.085.225.32.32 0 0 1-.244.094.316.316 0 0 1-.243-.095.322.322 0 0 1-.084-.224zm2.062 2.529a.47.47 0 0 0 .307-.106.352.352 0 0 0 .138-.252l.008-.087h.56l-.005.1a.807.807 0 0 1-.153.426 1.06 1.06 0 0 1-.855.431c-.339 0-.613-.115-.817-.345-.201-.227-.3-.535-.3-.92V57.1c0-.237.043-.45.132-.637.09-.19.22-.339.388-.445.17-.106.369-.159.595-.159.28 0 .517.086.706.256.19.172.292.396.304.667l.005.1h-.56l-.008-.088a.445.445 0 0 0-.138-.304.429.429 0 0 0-.309-.117.454.454 0 0 0-.387.178c-.095.125-.144.312-.144.564v.074c0 .245.049.429.143.553.09.118.217.176.39.176zm1.836.36v.992h-.584V55.9h.543l.01.138a.942.942 0 0 1 .586-.18c.305 0 .551.117.73.348.175.227.26.536.26.926v.036c0 .369-.085.67-.258.902a.864.864 0 0 1-.726.358 1 1 0 0 1-.561-.153zm0-1.648v1.044a.48.48 0 0 0 .442.244c.158 0 .28-.06.372-.185.097-.13.147-.332.147-.607 0-.24-.05-.425-.146-.556a.437.437 0 0 0-.377-.186.477.477 0 0 0-.438.246zm3.239 1.606a.955.955 0 0 1-.588.194.905.905 0 0 1-.62-.216.717.717 0 0 1-.25-.558c0-.27.105-.484.312-.635.2-.145.475-.216.823-.216h.285v-.084a.346.346 0 0 0-.094-.26c-.062-.061-.159-.094-.295-.094-.12 0-.217.03-.295.087-.071.053-.103.111-.103.18v.096h-.587v-.096c0-.137.048-.268.142-.39a.928.928 0 0 1 .368-.283c.152-.068.318-.102.498-.102.286 0 .516.073.685.222.17.151.26.359.266.618v1.056c0 .199.024.354.072.465l.008.038v.13h-.567l-.026-.053a.486.486 0 0 1-.034-.099zm-.038-.61v-.351h-.211c-.435 0-.625.111-.625.326 0 .095.03.164.089.215a.378.378 0 0 0 .254.08.593.593 0 0 0 .302-.082.488.488 0 0 0 .191-.188zm1.01.46c0-.09.029-.17.085-.233.06-.068.147-.1.253-.1a.33.33 0 0 1 .254.098.336.336 0 0 1 .088.235c0 .09-.03.167-.089.23a.335.335 0 0 1-.253.095.327.327 0 0 1-.252-.097.328.328 0 0 1-.086-.228zm1.025-.963c0-.239.048-.455.143-.648.096-.196.231-.348.404-.455a1.1 1.1 0 0 1 .59-.16c.34 0 .619.119.83.356.21.235.314.545.314.927v.027c0 .237-.046.452-.138.643a1.07 1.07 0 0 1-1.001.617 1.06 1.06 0 0 1-.828-.356c-.21-.235-.314-.544-.314-.923v-.028zm.587.047c0 .235.053.419.157.555.1.13.23.193.398.193.17 0 .299-.064.398-.196.103-.138.157-.336.157-.599 0-.231-.054-.415-.16-.553a.474.474 0 0 0-.4-.197.468.468 0 0 0-.392.194c-.104.135-.158.336-.158.603zm2.573-.487v1.705h-.585V55.9h.572l.002.112a.702.702 0 0 1 .457-.155c.09 0 .162.012.217.04l.053.027v.537l-.111-.019a1.08 1.08 0 0 0-.178-.013c-.212 0-.35.082-.427.252zm2.362-.644l.01-.137h.544v2.335c0 .321-.097.58-.293.77-.195.19-.456.284-.776.284-.18 0-.354-.038-.525-.114a.931.931 0 0 1-.403-.325l-.041-.06.327-.378.072.089c.15.186.329.276.542.276.167 0 .291-.045.378-.133.085-.085.13-.207.132-.37a.952.952 0 0 1-.546.154.88.88 0 0 1-.728-.362c-.18-.234-.269-.55-.269-.942 0-.378.089-.683.268-.913a.89.89 0 0 1 .733-.354.92.92 0 0 1 .575.18zm-.032 1.601v-.998a.481.481 0 0 0-.445-.258c-.16 0-.28.06-.37.183-.094.13-.143.33-.143.603 0 .24.048.424.141.554a.421.421 0 0 0 .368.181c.203 0 .35-.085.449-.265zm1.22 1.013h-.542l1.363-3.544h.54l-1.36 3.544zm2.88-.97a.193.193 0 0 0-.08-.17c-.067-.048-.195-.095-.382-.135a2.064 2.064 0 0 1-.496-.16.766.766 0 0 1-.294-.244.603.603 0 0 1-.1-.347.69.69 0 0 1 .273-.551c.177-.145.402-.217.67-.217.282 0 .514.074.695.224a.736.736 0 0 1 .277.589v.096h-.586v-.096a.259.259 0 0 0-.103-.205.417.417 0 0 0-.283-.094.445.445 0 0 0-.276.074.198.198 0 0 0-.084.168c0 .062.022.103.069.133.063.04.19.083.375.125.203.045.368.1.498.165a.788.788 0 0 1 .306.25c.07.103.105.226.105.368a.683.683 0 0 1-.284.57c-.182.136-.415.204-.696.204a1.25 1.25 0 0 1-.528-.106.889.889 0 0 1-.37-.306.753.753 0 0 1-.137-.432v-.096h.579l.005.09a.31.31 0 0 0 .121.243.52.52 0 0 0 .33.095.54.54 0 0 0 .304-.074c.064-.043.092-.093.092-.16zm.794-.56c0-.239.047-.455.142-.648.096-.196.232-.348.405-.455a1.1 1.1 0 0 1 .59-.16c.34 0 .618.119.83.356.21.235.313.545.313.927v.027c0 .237-.045.452-.137.643a1.07 1.07 0 0 1-1.002.617 1.06 1.06 0 0 1-.827-.356c-.21-.235-.314-.544-.314-.923v-.028zm.586.047c0 .235.053.419.157.555.1.13.23.193.398.193.17 0 .3-.064.398-.196.104-.138.157-.336.157-.599 0-.231-.054-.415-.16-.553a.474.474 0 0 0-.4-.197.468.468 0 0 0-.392.194c-.104.135-.158.336-.158.603zm3.005.748a.47.47 0 0 0 .306-.106.352.352 0 0 0 .14-.252l.007-.087h.56l-.005.1a.807.807 0 0 1-.153.426 1.06 1.06 0 0 1-.855.431c-.34 0-.614-.115-.817-.345-.201-.227-.301-.535-.301-.92V57.1c0-.237.044-.45.132-.637.09-.19.22-.339.389-.445.17-.106.368-.159.595-.159.28 0 .517.086.706.256.19.172.291.396.304.667l.004.1h-.56l-.007-.088a.445.445 0 0 0-.139-.304.429.429 0 0 0-.308-.117.454.454 0 0 0-.387.178c-.095.125-.145.312-.145.564v.074c0 .245.05.429.144.553.09.118.217.176.39.176zm3.059-.76h.428v.513h-.428v.717h-.586v-.717H48.86v-.355l1.426-2.207h.566v2.05zm-1.276 0h.69V56.08l-.69 1.078zm3.237.525a.193.193 0 0 0-.08-.17c-.067-.048-.195-.095-.382-.135a2.064 2.064 0 0 1-.496-.16.766.766 0 0 1-.294-.244.603.603 0 0 1-.1-.347.69.69 0 0 1 .273-.551c.177-.145.402-.217.67-.217.282 0 .514.074.695.224a.736.736 0 0 1 .277.589v.096h-.586v-.096a.259.259 0 0 0-.103-.205.417.417 0 0 0-.283-.094.445.445 0 0 0-.276.074.198.198 0 0 0-.084.168c0 .062.022.103.069.133.063.04.19.083.375.125.203.045.368.1.498.165a.788.788 0 0 1 .306.25c.07.103.105.226.105.368a.683.683 0 0 1-.284.57c-.182.136-.415.204-.696.204a1.25 1.25 0 0 1-.528-.106.889.889 0 0 1-.37-.306.753.753 0 0 1-.137-.432v-.096h.579l.005.09a.31.31 0 0 0 .121.243.52.52 0 0 0 .33.095.54.54 0 0 0 .304-.074c.064-.043.092-.093.092-.16zm.794-.56c0-.239.047-.455.142-.648.096-.196.232-.348.405-.455a1.1 1.1 0 0 1 .59-.16c.34 0 .618.119.83.356.21.235.313.545.313.927v.027c0 .237-.045.452-.137.643a1.07 1.07 0 0 1-1.002.617 1.06 1.06 0 0 1-.827-.356c-.21-.235-.314-.544-.314-.923v-.028zm.586.047c0 .235.053.419.157.555.1.13.23.193.398.193.17 0 .3-.064.398-.196.104-.138.157-.336.157-.599 0-.231-.054-.415-.16-.553a.474.474 0 0 0-.4-.197.468.468 0 0 0-.392.194c-.104.135-.158.336-.158.603z"/>
            </g>
        </g>
    </g>
</svg>
