<svg xmlns="http://www.w3.org/2000/svg" width="100" height="100" fill="none" viewBox="0 0 100 100">
    <rect width="100" height="100" fill="#FFF7E0" rx="50"/>
    <path fill="#FB0" d="M63.778 67.322H38.444c-6.444 0-11.778-5.323-11.778-11.754 0-5.322 3.556-9.757 8.445-11.31.889-8.205 7.778-14.414 16-14.414 6 0 11.555 3.326 14.222 8.648.445 1.11.222 2.218-.889 2.884-1.111.443-2.222.221-2.889-.888-2-3.991-6-6.43-10.444-6.43-6.445 0-11.778 5.322-11.778 11.753 0 1.108-.667 1.996-1.778 2.217-3.777.444-6.666 3.77-6.666 7.54 0 4.214 3.555 7.762 7.777 7.762h25.112c4.222 0 7.777-3.548 7.777-7.762 0-1.108.89-1.996 2-1.996 1.111 0 2 .887 2 1.996 0 6.431-5.333 11.754-11.778 11.754z"/>
    <path fill="#FB0" d="M49.333 50.694c-1.777 0-3.11-1.33-3.11-3.105 0-1.774 1.333-3.105 3.11-3.105 1.778 0 3.112 1.33 3.112 3.105 0 1.552-1.556 3.105-3.112 3.105zm2.223-11.089c-4.445 0-8 3.549-8 7.984 0 4.435 3.555 7.983 8 7.983 2.889 0 5.555-1.774 6.889-4.213h2.666c.223 0 .445 0 .445-.222l1.11-1.33.89.887c.222.221.444.221.444.221.222 0 .445 0 .445-.221l.889-.887 1.11.887c.223.221.667.221.89 0l1.333-.887.666.887c.223.221.445.221.667.221h1.334c.222 0 .444 0 .444-.221l2.889-2.883c.222-.222.222-.666 0-1.11l-2.89-2.882c-.221-.222-.221-.222-.444-.222H58.668c-1.334-2.44-4-3.992-7.111-3.992z"/>
</svg>
