<svg xmlns="http://www.w3.org/2000/svg" width="100" height="100" fill="none" viewBox="0 0 100 100">
    <rect width="100" height="100" fill="#E4EEFF" rx="50"/>
    <path fill="#123399" d="M44 75.308c-.222 0-.666 0-.889-.222-.666-.443-.889-.886-.889-1.552v-5.1C34.222 67.768 28 61.115 28 52.91c0-8.649 7.111-15.523 15.556-15.523 1.11 0 1.778.887 1.778 1.996 0 1.108-.89 1.774-2 1.774-6.445 0-11.778 5.322-11.778 11.753s5.333 11.754 11.777 11.754H44c1.111 0 1.778.887 1.778 1.995v3.549c3.778-2.218 10-5.766 11.111-6.21 3.333-1.33 5.778-3.991 6.889-7.318.222-.887 1.333-1.552 2.444-1.33.89.221 1.556 1.33 1.334 2.439-1.334 4.435-4.667 7.983-9.111 9.757-.89.444-7.556 4.214-13.556 7.762H44z"/>
    <path fill="#123399" d="M68.667 38.721h-.89V36.06c0-4.657-3.777-8.427-8.444-8.427-4.666 0-8.444 3.77-8.444 8.427v2.44h-1.111C48.889 38.72 48 39.607 48 40.494v10.201c0 1.109.89 1.774 1.778 1.774h18.667c1.11 0 1.777-.887 1.777-1.774v-10.2c.223-.888-.666-1.775-1.555-1.775zm-9.556 9.758c-1.11 0-2-.887-2-1.996 0-1.11.89-1.996 2-1.996 1.111 0 2 .887 2 1.996s-.889 1.996-2 1.996zm-4.666-9.758V36.06c0-2.661 2.222-4.657 4.666-4.657 2.667 0 4.667 2.217 4.667 4.657v2.44h-9.333v.221z"/>
</svg>
