<svg xmlns="http://www.w3.org/2000/svg" width="72" height="71" fill="none" viewBox="0 0 72 71">
    <path fill="#00C48C" d="M71.908 36.943c.119-.608.049-1.222-.021-1.822-.099-.85-.099-1.695-.127-2.545-.007-.27.064-.56-.126-.81-.147-.668-.252-1.336-.357-2.011-.14-.898-.294-1.809-.567-2.686-.042-.135-.105-.277-.05-.425l-.02-.088.02.088c.036-.108-.034-.237.064-.338.035.108.063.21.098.317.266.918.392 1.863.693 2.774 0 .115-.014.237.12.318.07-.163.027-.304.013-.446l-.014.014c.007-.007.007-.014.014-.014.014-.358-.077-.709-.16-1.053-.365-1.539-.757-3.07-1.31-4.556-.435-1.16-.799-2.362-1.604-3.36-.14-.649-.582-1.162-.827-1.769-.028.04-.049.06-.077.06.021-.02.042-.04.077-.06-.26-.5-.588-.965-.918-1.424-.973-1.37-1.8-2.835-2.885-4.144-1.604-1.937-3.411-3.651-5.415-5.21-1.414-1.107-2.955-1.991-4.496-2.889-1.135-.661-2.319-1.228-3.502-1.809-1.492-.729-3.082-1.228-4.68-1.694-.798-.236-1.631-.297-2.43-.513C41.558.335 39.64.18 37.727.038c-1.233-.094-2.459.014-3.677.027-1.317.014-2.592.405-3.909.432-.224.007-.455.061-.686.115-.673.149-1.338.338-2.025.439-1.085.155-2.129.459-3.102.951-.575.149-1.135.338-1.618.682-1.184.365-2.36.763-3.398 1.458-.714.48-1.38 1.046-2.192 1.383-.014-.006-.028-.006-.035 0-.07-.162-.147-.175-.231-.006l-.07.067c-.105.061-.21.169-.315.169-.203 0-.182.115-.19.23-.329.215-.644.458-.966.681-1.436.985-2.858 2.005-4.027 3.294-.624.695-1.422 1.228-1.983 1.977-.406.54-.938.972-1.344 1.505-.575.756-1.107 1.539-1.695 2.275-.96 1.194-1.625 2.537-2.298 3.88-.119.196-.231.399-.35.594-.091.142-.063.264.07.365-.084.202-.532.337-.14.641.014.007 0 .074-.014.088-.168.155-.19.378-.28.56-.449.918-.904 1.843-.96 2.889-.077.175-.154.357-.231.533-.336.121-.231.398-.245.634-.007.243-.105.46-.196.675-.217.54-.4 1.1-.526 1.667-.23.655-.406 1.316-.49 2.005-.014.054-.035.1-.049.155-.161.85-.147 1.72-.28 2.565-.161.971-.224 1.937-.147 2.908.014.203.035.412-.021.601-.21.75-.056 1.485.007 2.227 0 .048 0 .088.007.135.09 1.296.75 2.47.924 3.746-.14.19-.16.378.014.56.077.668.386 1.283.49 1.944-.23.142-.076.203.064.27.028.263.077.533.09.797.022.499.183.944.449 1.363.26.803.658 1.545 1.023 2.308.07.324.203.62.448.864.07.054.007.135.049.21.33.526.504 1.12.777 1.666.498 1.026 1.058 2.018 1.836 2.896.378.425.623.971 1.001 1.41.448.527.932 1.026 1.443 1.505-.049.101-.098.216-.014.31.28.318.574.628.862.945.007.081.063.129.14.162.294.277.51.621.847.864v.007c.05.081.077.19.203.196.301.297.603.594.904.884.175.223.392.392.623.553.056.041.112.081.168.115.287.216.505.506.827.675.028.02.049.047.077.068.175.175.385.31.616.411.19.108.379.216.568.331.175.034.21.257.399.277.02.135.14.189.238.256.063.061.126.135.196.19 1.695 1.281 3.642 2.166 5.576 3.036 1.407.635 2.878 1.148 4.35 1.64 1.085.365 2.163.716 3.305.878.518.007 1.016.33 1.555.121.217-.054.301.162.47.216.924.297 1.877.398 2.843.365.743-.027 1.471.189 2.214.1.588-.073 1.17-.087 1.765-.053 1.765.101 3.48-.263 5.21-.513.687-.101 1.325-.378 1.983-.594.77-.256 1.583-.412 2.36-.641 1.723-.513 3.313-1.323 4.938-2.065.253-.115.505-.237.736-.385.84-.547 1.702-1.053 2.556-1.58 1.065-.66 2.13-1.316 3.152-2.03.624-.44 1.009-1.08 1.562-1.573.435-.19.848-.412 1.121-.804.378-.303.665-.688 1.016-1.005.847-.77 1.513-1.68 2.22-2.558.168-.21.217-.493.427-.682.736-.661 1.233-1.505 1.772-2.308 1.261-1.85 2.088-3.901 2.914-5.953.19-.479.21-1.005.441-1.464.624-1.229.848-2.572 1.184-3.881.056-.236.028-.493.147-.716.147-.27.21-.567.26-.863.132-.783.125-1.593.399-2.356.09-.25.07-.526.133-.79.056-.215-.19-.303-.183-.465 0-.25.064-.506.099-.756zM.38 36.518c-.014-.075-.035-.156-.007-.223-.007.067 0 .148.007.223zm.02.236c-.006-.014-.006-.02-.006-.034.007-.02.007-.04.007-.06.007.04.007.074.007.114 0-.007 0-.013-.007-.02zM70.333 25.07c0-.007.007-.007 0 0 .007-.007.007 0 .007 0 .049.256.14.506.217.756 0 .007.007.013.007.02 0 .007 0 .007-.007.014-.077-.257-.168-.506-.224-.77.007-.006 0-.013 0-.02z"/>
    <path fill="#fff" fill-rule="evenodd" d="M31.28 25.926h-3.2c-.16 0-.318.033-.467.099-.143.063-.278.159-.384.276-.11.12-.19.257-.24.41-.053.151-.071.308-.056.466.328 3.091 1.4 6.117 3.1 8.733 1.544 2.425 3.64 4.518 6.065 6.058 2.618 1.693 5.635 2.764 8.73 3.1.146.018.308-.007.46-.058.15-.05.29-.135.408-.241.122-.112.214-.24.279-.387.065-.15.097-.308.097-.472v-3.195c.008-.281-.09-.557-.275-.774-.18-.214-.438-.355-.72-.395-1.077-.142-2.15-.408-3.177-.79-.212-.08-.437-.094-.653-.05-.215.046-.413.153-.572.31l-1.203 1.2c-.39.39-.997.47-1.475.188-2.656-1.545-4.88-3.768-6.434-6.422-.28-.474-.202-1.082.19-1.475l1.21-1.206c.15-.152.257-.35.303-.568.046-.212.03-.434-.048-.642-.384-1.027-.652-2.097-.794-3.184-.039-.267-.179-.52-.39-.704-.209-.18-.476-.277-.754-.277zM44.92 47c-.094 0-.187-.004-.28-.013-3.411-.37-6.718-1.544-9.58-3.397-2.657-1.685-4.956-3.98-6.647-6.638-1.859-2.862-3.034-6.178-3.398-9.582-.041-.438.009-.866.148-1.276.137-.406.354-.773.645-1.09.287-.318.634-.566 1.027-.742.401-.173.819-.262 1.246-.262h3.18c.732.03 1.463.257 2.03.743.566.489.936 1.165 1.042 1.902.127.953.358 1.882.69 2.771.208.551.253 1.148.13 1.723-.125.58-.41 1.105-.825 1.524l-.815.814c1.27 2.01 2.982 3.718 4.992 4.982l.816-.813c.427-.419.953-.703 1.529-.823.577-.124 1.177-.079 1.726.128.89.331 1.82.563 2.764.687.758.107 1.44.482 1.93 1.058.488.577.746 1.305.73 2.054v3.162c0 .431-.086.849-.258 1.242-.173.397-.424.746-.745 1.04-.308.282-.687.507-1.092.644-.321.108-.651.162-.985.162z" clip-rule="evenodd"/>
</svg>
