<svg width="1001" height="23" viewBox="0 0 1001 23" fill="none" xmlns="http://www.w3.org/2000/svg">
<mask id="mask0" mask-type="alpha" maskUnits="userSpaceOnUse" x="0" y="0" width="1001" height="23">
<rect width="1001" height="23" fill="#C4C4C4"/>
</mask>
<g mask="url(#mask0)">
<path d="M814.621 10.0733C814.621 10.2126 814.488 10.352 814.284 10.5601C812.938 12.0122 812.25 13.9828 812.392 15.9853C812.392 17.7237 812.663 18.4192 812.663 19.1841C812.663 19.5327 812.595 19.7402 812.392 19.7402C811.987 19.7402 811.244 17.9324 811.244 15.776C811.244 11.2556 814.014 10.0033 814.42 10.0033C814.622 9.93396 814.622 10.0033 814.622 10.0727L814.621 10.0733ZM807.663 9.93396C808.069 10.0033 810.84 11.255 810.84 15.776C810.84 17.9324 810.097 19.7402 809.691 19.7402C809.487 19.7402 809.42 19.5315 809.42 19.1841C809.42 18.3498 809.691 17.6555 809.691 15.9847C809.8 13.9872 809.118 12.0295 807.8 10.5595C807.597 10.3514 807.46 10.212 807.46 10.0727C807.529 10.0727 807.529 10.0033 807.663 9.93396H807.663Z" fill="#939FB9"/>
<path fill-rule="evenodd" clip-rule="evenodd" d="M810.116 10.9029C810.129 11.4734 810.575 11.9328 811.129 11.9464C811.684 11.9325 812.13 11.4736 812.144 10.9029C812.13 10.3326 811.684 9.87387 811.13 9.85996C810.86 9.85417 810.599 9.96226 810.408 10.1592C810.216 10.3559 810.111 10.6245 810.116 10.9029Z" fill="#939FB9"/>
<path d="M819.762 17.6494C817.681 16.3928 815.345 15.6543 812.938 15.493C812.938 15.7017 812.872 15.841 812.872 16.0497V16.3284C815.219 16.4177 817.541 16.8628 819.762 17.6494L819.829 17.7194C819.829 17.6494 819.829 17.6494 819.762 17.6494ZM812.738 5.40566C812.429 5.16144 812.318 4.73348 812.467 4.36272C812.586 3.86966 812.945 3.47504 813.414 3.31918C813.682 3.72803 813.756 4.23933 813.616 4.71076C813.481 5.09984 813.138 5.37235 812.738 5.4086V5.40566ZM815.103 7.42395C814.979 7.03754 815.116 6.61338 815.44 6.38041C815.79 6.05817 816.268 5.92865 816.727 6.03237C816.751 6.51503 816.55 6.98056 816.185 7.28461C815.891 7.56605 815.455 7.62197 815.103 7.42336L815.103 7.42395ZM815.171 10.4846C815.299 10.119 815.609 9.85303 815.982 9.78851C816.429 9.71028 816.885 9.86682 817.197 10.2059C816.974 10.6108 816.568 10.8727 816.116 10.9026C815.755 10.9634 815.393 10.7984 815.194 10.4822L815.171 10.4846ZM814.294 11.5281C814.496 11.2463 814.838 11.1105 815.171 11.1801C815.57 11.2597 815.915 11.5137 816.117 11.8762C815.838 12.1742 815.418 12.2822 815.035 12.1542C814.671 12.1646 814.355 11.8979 814.293 11.5281H814.294ZM811.724 8.6756C811.324 8.37126 811.184 7.82162 811.386 7.35398C811.528 6.78116 811.931 6.31456 812.467 6.10174C812.788 6.59117 812.887 7.2003 812.738 7.77081C812.643 8.27729 812.224 8.65122 811.724 8.6756H811.724ZM812.872 9.30172C812.739 8.87343 812.873 8.40444 813.211 8.11944C813.6 7.77215 814.13 7.64245 814.629 7.77199C814.675 8.31334 814.444 8.84025 814.02 9.16356C813.72 9.48701 813.238 9.54522 812.873 9.30231L812.872 9.30172ZM813.615 6.86661C813.344 6.44482 813.344 5.89741 813.615 5.47562C813.937 4.97495 814.456 4.64443 815.035 4.57084C815.241 5.12768 815.165 5.7534 814.832 6.24049C814.618 6.71598 814.113 6.97571 813.615 6.86602L813.615 6.86661ZM815.099 9.02305C815.082 8.56188 815.355 8.14155 815.775 7.98069C816.27 7.7244 816.859 7.75042 817.331 8.04948C817.196 8.60422 816.822 9.06527 816.317 9.30172C815.892 9.44925 815.423 9.34189 815.099 9.02305ZM810.235 4.57142C810.217 3.89095 810.519 3.24343 811.046 2.8324C811.573 3.24349 811.875 3.89103 811.857 4.57142C811.912 5.15118 811.578 5.69574 811.046 5.89304C810.526 5.67946 810.199 5.14634 810.234 4.57142H810.235ZM802.329 17.7188H802.396C804.586 16.8806 806.887 16.3881 809.22 16.2578V15.4236C806.806 15.5996 804.468 16.3624 802.396 17.6494L802.329 17.7188ZM808.61 4.64021C808.472 4.16867 808.546 3.65833 808.813 3.24922C809.282 3.40592 809.64 3.80009 809.761 4.29276C809.895 4.66498 809.785 5.08343 809.488 5.33629C809.066 5.38893 808.681 5.08035 808.627 4.6455L808.61 4.64021ZM806.041 7.28579C805.69 6.97085 805.491 6.51274 805.499 6.03355C805.956 5.89545 806.451 6.02939 806.783 6.38159C807.108 6.61382 807.247 7.03755 807.126 7.42512C806.779 7.62328 806.347 7.5661 806.061 7.28402L806.041 7.28579ZM806.109 10.9032C805.657 10.8744 805.25 10.6125 805.028 10.2071C805.34 9.86799 805.796 9.71146 806.243 9.78968C806.637 9.80218 806.971 10.0891 807.054 10.4852C806.833 10.7862 806.474 10.945 806.109 10.9032H806.109ZM807.188 12.2242C806.806 12.3173 806.403 12.2136 806.109 11.9461C806.284 11.5884 806.607 11.3321 806.988 11.25C807.321 11.183 807.662 11.3185 807.865 11.5987C807.77 11.9156 807.515 12.1545 807.2 12.2236L807.188 12.2242ZM809.419 7.77257C809.234 7.20428 809.336 6.57866 809.69 6.10292C810.239 6.29558 810.649 6.77113 810.77 7.35516C810.972 7.82268 810.832 8.37155 810.434 8.67736C809.942 8.63236 809.533 8.26771 809.42 7.77257H809.419ZM808.135 9.16415C807.737 8.82026 807.513 8.30765 807.527 7.77257C808.027 7.64314 808.556 7.77284 808.945 8.12003C809.283 8.40532 809.416 8.87384 809.283 9.30172C808.926 9.57963 808.42 9.51843 808.135 9.16297V9.16415ZM807.324 6.31163C806.991 5.82406 806.916 5.19833 807.123 4.64197C807.71 4.68832 808.239 5.02579 808.54 5.54676C808.81 5.96873 808.81 6.51577 808.54 6.93775C808.052 6.98271 807.581 6.74076 807.322 6.31221L807.324 6.31163ZM805.839 9.23352C805.32 9.01626 804.94 8.54682 804.827 7.98187C805.307 7.71645 805.879 7.6907 806.381 7.91191C806.788 8.08911 807.053 8.49959 807.055 8.95485C806.771 9.34211 806.256 9.46013 805.839 9.23352Z" fill="#939FB9"/>
<path d="M847.766 16.7167V11.359C847.766 10.6453 847.678 9.21712 847.678 8.94851H849.326L849.415 10.0204C849.887 9.2105 850.751 8.73089 851.668 8.77007C853.091 8.758 854.273 9.89613 854.356 11.3584V16.716H852.538V11.9832C852.589 11.5791 852.478 11.1712 852.233 10.8519C851.987 10.5324 851.627 10.3283 851.234 10.2858C850.842 10.2345 850.447 10.3474 850.137 10.5992C849.827 10.8505 849.629 11.2192 849.586 11.6225V16.803L847.766 16.7135L847.766 16.7167ZM837.184 8.94531H835.365V16.7135H837.184V8.94531ZM862.944 16.7135C862.813 15.8556 862.726 14.9912 862.685 14.1239V9.03485C861.861 8.8225 861.018 8.70263 860.169 8.67733C857.132 8.67733 855.745 10.8199 855.745 13.052C855.745 15.1951 856.786 16.8024 858.782 16.8024C859.76 16.81 860.661 16.26 861.123 15.3736H861.209C861.209 15.6409 861.297 16.4442 861.297 16.7128L862.944 16.7135ZM860.951 12.8761C860.951 14.6617 860.257 15.3761 859.302 15.3761C858.26 15.3761 857.741 14.4807 857.741 12.965C857.66 12.2856 857.856 11.602 858.283 11.0776C858.711 10.5532 859.331 10.2348 859.995 10.1982H860.256C860.518 10.1839 860.782 10.2139 861.035 10.2871V12.8761H860.951ZM833.541 14.7532C832.918 15.0511 832.23 15.1742 831.546 15.1101C829.614 15.1617 827.997 13.6148 827.904 11.6276V11.2714C827.843 10.3129 828.156 9.36902 828.774 8.64919C829.392 7.92795 830.264 7.49053 831.196 7.43402H831.545C832.226 7.41428 832.905 7.53564 833.54 7.79089V6.09477C832.814 5.83887 832.051 5.71782 831.284 5.73725C829.924 5.65289 828.588 6.13502 827.576 7.07522C826.565 8.01553 825.963 9.33491 825.906 10.7367V11.2727C825.849 12.6739 826.341 14.0398 827.272 15.0634C828.202 16.0874 829.493 16.6838 830.854 16.7186H831.375C832.141 16.731 832.902 16.6104 833.629 16.3617V14.7532H833.541ZM843.951 15.7349V16.3604C844.046 17.4642 843.278 18.4487 842.211 18.5925H841.78C841.07 18.605 840.363 18.4838 839.695 18.235V19.8422C840.424 20.0848 841.186 20.2053 841.952 20.1991C844.12 20.1991 845.592 19.3037 845.592 16.0925V9.2184C844.77 9.00588 843.927 8.886 843.079 8.86089C840.042 8.86089 838.656 11.0034 838.656 13.2355C838.656 15.3787 839.695 16.9853 841.693 16.9853C842.605 17.001 843.459 16.5271 843.948 15.7343L843.951 15.7349ZM843.862 12.878C843.862 14.6637 843.169 15.3781 842.213 15.3781C841.17 15.3781 840.652 14.4827 840.652 12.9669C840.652 11.4511 841.522 10.1106 843.081 10.1106C843.344 10.0965 843.608 10.1267 843.862 10.2001L843.862 12.878ZM835.104 6.89614C835.114 7.53266 835.613 8.04631 836.231 8.05759C836.849 8.04631 837.347 7.53266 837.358 6.89614C837.347 6.26012 836.849 5.74724 836.231 5.73597C835.613 5.74828 835.116 6.26163 835.106 6.89742L835.104 6.89614Z" fill="#939FB9"/>
<path d="M747.171 9.44128H751.831C752.524 11.0037 753.202 12.5726 753.89 14.1368C753.929 13.3773 753.916 12.6155 753.904 11.8554C753.837 11.4739 753.367 11.3524 753.021 11.3576C753.003 10.7196 753.024 10.0799 753.016 9.44128H757.415C757.415 10.0869 757.417 10.7326 757.411 11.3776C757.052 11.3647 756.557 11.5003 756.517 11.9059C756.511 14.5277 756.51 17.1496 756.511 19.7715C756.514 19.9088 756.517 20.0473 756.485 20.1823H752.886C752.788 20.0743 752.751 19.934 752.693 19.8055C752.025 18.2483 751.34 16.6982 750.688 15.1352C750.655 16.008 750.665 16.8819 750.677 17.7541C750.761 18.1251 751.215 18.2272 751.556 18.2278C751.549 18.8793 751.572 19.5314 751.54 20.1823H747.171V18.2284C747.589 18.3035 748.136 18.0054 748.058 17.5423C748.055 15.6629 748.06 13.7829 748.055 11.9029C748.018 11.5026 747.526 11.3647 747.171 11.3817V9.44128Z" fill="#939FB9"/>
<path d="M757.716 9.44116H762.523C762.521 10.0903 762.529 10.7389 762.526 11.388C762.157 11.3751 761.644 11.533 761.635 11.9621C761.631 13.8426 761.633 15.7238 761.634 17.6049C761.624 18.0539 762.149 18.2388 762.536 18.2283C762.532 18.8798 762.547 19.5313 762.522 20.1822H757.738C757.703 19.5395 757.734 18.895 757.722 18.2512C758 18.2265 758.315 18.1884 758.507 17.9683C758.63 17.8344 758.609 17.6466 758.61 17.4817C758.608 15.7021 758.608 13.9225 758.613 12.1429C758.612 11.9773 758.625 11.7925 758.506 11.6575C758.331 11.4127 757.994 11.3927 757.716 11.3657C757.715 10.7242 757.716 10.0827 757.716 9.44116Z" fill="#939FB9"/>
<path d="M763.141 9.44116H767.956C767.955 10.0897 767.956 10.7389 767.955 11.3875C767.609 11.3886 767.118 11.5025 767.078 11.9022C767.075 13.8426 767.068 15.7831 767.083 17.7229C767.143 18.1079 767.612 18.2218 767.955 18.2242C767.964 18.8763 767.961 19.5295 767.954 20.1822H763.174C763.128 19.5366 763.165 18.8886 763.148 18.2418C763.497 18.2441 763.988 18.122 764.026 17.7194C764.03 15.7819 764.033 13.8444 764.024 11.9069C763.995 11.4943 763.494 11.3675 763.14 11.3646C763.142 10.7236 763.14 10.0821 763.141 9.44116Z" fill="#939FB9"/>
<path d="M768.562 9.44116H777.602V13.8432C776.845 13.8426 776.089 13.8438 775.333 13.8426C775.331 13.2563 775.336 12.6699 775.331 12.0842C775.315 11.8558 775.19 11.5471 774.911 11.553C774.699 11.5964 774.611 11.8341 774.62 12.0249C774.623 13.8426 774.617 15.6598 774.616 17.4776C774.615 17.6407 774.598 17.8262 774.721 17.9559C774.907 18.1678 775.21 18.2089 775.479 18.2283C775.478 18.8798 775.489 19.5313 775.473 20.1822H770.747C770.719 19.5372 770.737 18.8909 770.727 18.2453C771.003 18.2289 771.316 18.1872 771.502 17.9624C771.635 17.8121 771.596 17.6038 771.601 17.4218C771.606 15.6211 771.604 13.8203 771.603 12.0196C771.614 11.83 771.524 11.5888 771.312 11.5512C771.019 11.5412 770.87 11.8582 770.863 12.1041C770.857 12.6846 770.861 13.2657 770.856 13.8467C770.091 13.8509 769.327 13.8415 768.562 13.8391C768.562 12.3729 768.562 10.9073 768.562 9.44116Z" fill="#939FB9"/>
<path fill-rule="evenodd" clip-rule="evenodd" d="M672.575 11.9411C672.575 12.7478 671.922 13.4018 671.115 13.4018C670.308 13.4018 669.654 12.7478 669.654 11.9411C669.654 11.1345 670.308 10.4805 671.115 10.4805C671.922 10.4805 672.575 11.1345 672.575 11.9411Z" fill="#939FB9"/>
<path fill-rule="evenodd" clip-rule="evenodd" d="M672.575 16.5075C672.575 17.3142 671.922 17.9682 671.115 17.9682C670.308 17.9682 669.654 17.3142 669.654 16.5075C669.654 15.7009 670.308 15.0469 671.115 15.0469C671.922 15.0469 672.575 15.7009 672.575 16.5075Z" fill="#939FB9"/>
<path fill-rule="evenodd" clip-rule="evenodd" d="M625.049 12.5834H623.885V9.8061H625.049C625.877 9.8061 626.34 10.3807 626.34 11.209C626.34 12.0933 625.821 12.5834 625.049 12.5834ZM625.302 8.12212H621.584V17.8033H623.885V14.2674H625.302C627.168 14.2674 628.571 13.1032 628.571 11.1245C628.571 9.41306 627.519 8.12212 625.302 8.12212ZM640.671 10.6476L639.127 14.9234L637.355 10.6476H635.056L638.083 17.4666L637.139 19.8109H639.275L642.901 10.6476H640.671ZM657.253 10.3529V10.6476H656.06V12.1769H657.253V17.8033H659.484V12.1769H661.027V10.6476H659.484V10.2688C659.484 9.63741 659.736 9.18841 660.424 9.18841C660.634 9.18841 660.901 9.23056 661.083 9.28662V7.68713C660.774 7.60294 660.424 7.54688 660.017 7.54688C658.207 7.54688 657.253 8.65521 657.253 10.3529ZM653.172 16.2319C652.962 16.3863 652.639 16.5126 652.288 16.5126C651.727 16.5126 651.348 16.1898 651.348 15.6707C651.348 15.0814 651.813 14.5049 653.172 14.7306V16.2319ZM652.737 10.4794C651.348 10.4794 650.254 10.9143 649.58 11.3352L650.198 12.612C650.605 12.4296 651.461 12.1069 652.19 12.1069C652.709 12.1069 653.172 12.2893 653.172 12.8365V13.3135C650.078 13.0934 649.188 14.4547 649.188 15.7119C649.188 16.9404 650.229 17.9717 651.598 17.9717C652.138 17.9717 652.724 17.7675 653.172 17.4861V17.8033H655.417V12.8225C655.417 11.209 654.393 10.4794 652.737 10.4794ZM632.758 16.2319C632.547 16.3863 632.225 16.5126 631.874 16.5126C631.312 16.5126 630.934 16.1898 630.934 15.6707C630.934 15.0814 631.398 14.5049 632.758 14.7306V16.2319ZM632.239 10.4794C630.85 10.4794 629.756 10.9143 629.082 11.3352L629.699 12.612C630.106 12.4296 630.962 12.1069 631.692 12.1069C632.211 12.1069 632.674 12.2893 632.674 12.8365V13.3135C629.58 13.0934 628.69 14.4547 628.69 15.7119C628.69 16.9404 629.73 17.9717 631.099 17.9717C631.639 17.9717 632.225 17.7675 632.674 17.4861V17.8033H634.919V12.8225C634.919 11.209 633.895 10.4794 632.239 10.4794ZM645.211 12.6681C645.211 12.3314 645.547 12.1209 646.109 12.1209C646.698 12.1209 647.315 12.3314 647.764 12.5278L648.396 11.0546C647.806 10.76 646.908 10.4794 645.996 10.4794C644.327 10.4794 642.98 11.237 642.98 12.7523C642.98 15.1376 646.347 14.7026 646.347 15.7548C646.347 16.1477 645.954 16.3441 645.295 16.3441C644.621 16.3441 643.976 16.1197 643.471 15.8671L642.755 17.3123C643.597 17.7612 644.579 17.9717 645.491 17.9717C647.119 17.9717 648.522 17.1299 648.522 15.5865C648.522 13.2293 645.211 13.6222 645.211 12.6681ZM664.738 12.0508C665.355 12.0508 665.847 12.5419 665.931 13.4959H663.545C663.63 12.5419 664.121 12.0508 664.738 12.0508ZM668.198 14.6745V14.1155C668.198 12.0172 666.73 10.4794 664.738 10.4794C662.746 10.4794 661.202 12.0648 661.202 14.2677C661.202 16.5265 662.662 17.9717 664.991 17.9717C665.64 17.9717 666.924 17.8545 667.914 17.1689L667.289 15.7779C666.617 16.1587 665.937 16.3301 665.327 16.3301C665.274 16.3301 665.222 16.3281 665.171 16.3252C665.159 16.3244 665.147 16.3237 665.136 16.3229C665.087 16.3194 665.039 16.3147 664.991 16.3083C664.981 16.3069 664.97 16.305 664.96 16.3035C664.921 16.2977 664.883 16.291 664.846 16.2833C664.833 16.2806 664.82 16.2783 664.807 16.2753C664.768 16.2667 664.731 16.2564 664.694 16.2455C664.674 16.2395 664.654 16.2335 664.634 16.227C664.608 16.2183 664.581 16.2086 664.555 16.1986C664.526 16.1871 664.497 16.1751 664.469 16.1623C664.461 16.1585 664.453 16.1544 664.444 16.1505C664.399 16.1287 664.355 16.1054 664.313 16.0803C664.312 16.0796 664.311 16.0788 664.31 16.0781C664.217 16.0215 664.133 15.9568 664.059 15.8851C664.058 15.884 664.056 15.883 664.055 15.8819C664.025 15.8523 663.996 15.8212 663.968 15.7892C663.958 15.7768 663.947 15.7644 663.937 15.7515C663.921 15.7318 663.905 15.7117 663.89 15.6913C663.865 15.6564 663.841 15.621 663.818 15.5832C663.817 15.5821 663.817 15.5811 663.816 15.58C663.674 15.342 663.58 15.0425 663.545 14.6746V14.6745H668.198Z" fill="#939FB9"/>
<path d="M553.904 10.4519C553.701 10.4519 553.548 10.6046 553.548 10.8081V17.7798C553.039 17.8815 552.479 17.9833 551.919 17.9833C550.698 17.9833 550.291 17.5253 550.291 16.2022V10.8081C550.291 10.6046 550.138 10.4519 549.986 10.4519H548.154V16.2022C548.154 18.8993 549.579 19.7644 551.869 19.7644C553.701 19.7644 555.532 19.2555 555.685 19.2046V10.4519H553.904ZM581.943 19.6626C582.096 19.6626 582.3 19.5099 582.3 19.3064V12.2838C582.809 12.1821 583.368 12.0803 583.928 12.0803C585.149 12.0803 585.556 12.5383 585.556 13.8614V19.3064C585.556 19.51 585.709 19.6626 585.862 19.6626H587.694V13.8614C587.694 11.1643 586.269 10.2992 583.979 10.2992C582.147 10.2992 580.315 10.8081 580.162 10.859V19.6626H581.943ZM574.616 10.2992C572.224 10.2992 570.748 11.5714 570.748 14.3703V15.7442C570.748 18.7975 572.376 19.8153 574.107 19.8153C574.972 19.8153 575.888 19.2046 576.142 18.8484V19.4082C576.142 19.5609 576.295 19.7135 576.448 19.7135C576.448 19.7135 578.229 19.7135 578.279 19.7135V10.8081C578.33 10.8081 576.549 10.2992 574.616 10.2992ZM576.193 17.4236C575.786 17.7798 575.481 17.9833 574.616 17.9833C573.394 18.0343 572.885 17.2709 572.885 15.6933V14.4212C572.885 12.6401 573.547 12.1312 574.616 12.1312C575.481 12.1312 575.99 12.1822 576.193 12.2329V17.4236ZM593.088 10.2992C590.696 10.2992 589.22 11.5714 589.22 14.3703V15.7442C589.22 18.7975 590.849 19.8153 592.63 19.8153C593.495 19.8153 594.411 19.2046 594.665 18.8484V19.4082C594.665 19.5609 594.818 19.7135 594.971 19.7135C594.971 19.7135 596.752 19.7135 596.803 19.7135V10.8081C596.803 10.8081 595.022 10.2992 593.088 10.2992ZM594.665 17.4236C594.258 17.7798 593.953 17.9833 593.088 17.9833C591.867 17.9833 591.358 17.2709 591.358 15.6933V14.4212C591.358 12.5892 592.019 12.1312 593.088 12.1312C593.953 12.1312 594.462 12.1822 594.665 12.2329V17.4236ZM537.264 19.6626C537.569 19.6626 539.197 19.6626 539.197 19.6626C539.35 19.6626 539.503 19.5099 539.503 19.3573V14.2685H543.065C543.676 14.2685 544.083 14.7265 544.083 15.2354V19.3573C544.083 19.51 544.235 19.6626 544.388 19.6626C544.388 19.6626 546.22 19.6626 546.322 19.6626C546.322 19.6626 546.322 7.65305 546.322 7.55127H544.388C544.235 7.55127 544.083 7.70396 544.083 7.85657V12.4365H540.419C539.91 12.4365 539.554 12.0294 539.554 11.5714V7.85657C539.503 7.75483 539.401 7.55127 539.197 7.55127H537.264C537.264 7.65301 537.264 19.6626 537.264 19.6626ZM565.914 10.2992C564.896 10.2992 563.929 10.7063 563.471 11.0117C562.809 10.5028 561.894 10.2992 560.774 10.2992C559.095 10.2992 557.67 10.8081 557.466 10.9099V19.7135H559.298C559.502 19.7135 559.604 19.5608 559.604 19.3573V12.2838C560.062 12.1821 560.418 12.1311 560.723 12.1311C561.995 12.1311 562.301 12.64 562.301 13.9122V19.3572C562.301 19.5099 562.402 19.7134 562.606 19.7134H564.133C564.336 19.7134 564.438 19.5607 564.438 19.3572V12.5382C564.794 12.2838 565.252 12.1311 565.71 12.1311C566.677 12.1311 567.084 12.5891 567.084 13.7596V19.3572C567.084 19.5099 567.186 19.7134 567.389 19.7134C567.389 19.7134 569.069 19.7134 569.221 19.7134V13.4542C569.272 11.1134 567.797 10.2992 565.914 10.2992V10.2992Z" fill="#939FB9"/>
<path fill-rule="evenodd" clip-rule="evenodd" d="M722.65 19.5065H721.474V19.7984H722.773V20.2206H720.824V18.3766H722.755V18.7927H721.474V19.0907H722.65V19.5065ZM714.882 18.42C714.709 18.3456 714.48 18.3147 714.201 18.3147C713.718 18.327 713.378 18.4636 713.18 18.7428C713.068 18.8982 713.013 19.0906 713.013 19.3202C713.013 19.5374 713.074 19.7115 713.192 19.8667C713.384 20.1462 713.724 20.2827 714.22 20.2827C714.604 20.2827 714.9 20.2021 715.099 20.0343L715.315 19.7862C715.408 19.6434 715.451 19.4758 715.451 19.2894C715.451 18.867 715.266 18.5752 714.882 18.42ZM714.777 19.3016C714.777 19.5563 714.684 19.7239 714.498 19.8169C714.43 19.8605 714.343 19.879 714.244 19.879C714.059 19.879 713.91 19.8169 713.817 19.693C713.724 19.5811 713.687 19.4569 713.687 19.3016C713.687 19.1464 713.724 19.0221 713.811 18.9168C713.91 18.7802 714.058 18.7181 714.244 18.7181C714.436 18.7304 714.585 18.8049 714.677 18.9353C714.746 19.0407 714.777 19.1649 714.777 19.3016ZM712.672 19.5563H711.632V20.2205H710.982V18.3765H712.765V18.7925H711.632V19.1465H712.672V19.5563ZM719.041 18.867C718.923 18.9665 718.874 19.1152 718.874 19.3016C718.874 19.4568 718.917 19.5811 718.998 19.6803C719.091 19.8046 719.233 19.8667 719.412 19.8667C719.542 19.8667 719.666 19.8293 719.784 19.7424C719.846 19.693 719.883 19.6309 719.914 19.5564L720.533 19.6182L720.434 19.8481C720.254 20.14 719.908 20.2827 719.4 20.2827L718.874 20.2083C718.422 20.0655 718.193 19.7675 718.193 19.3016C718.193 19.0535 718.267 18.8423 718.41 18.6683C718.614 18.4325 718.948 18.3082 719.412 18.3082C720.001 18.3082 720.372 18.5007 720.502 18.8856L719.895 18.9974C719.866 18.9182 719.812 18.8507 719.741 18.8049C719.647 18.7483 719.54 18.7183 719.431 18.7181C719.277 18.7181 719.14 18.774 719.041 18.867ZM717.884 18.9665C717.884 18.7616 717.809 18.6064 717.667 18.5007C717.556 18.42 717.389 18.3765 717.153 18.3765H715.81V20.2205H716.46V19.5501H716.819L717.191 20.2205H717.915L717.463 19.488C717.593 19.4444 717.698 19.3823 717.76 19.3078C717.841 19.2147 717.884 19.1028 717.884 18.9665ZM717.222 18.9665C717.222 19.0843 717.129 19.134 716.955 19.134H716.46V18.8048H717.017C717.092 18.8048 717.141 18.8109 717.185 18.8421L717.222 18.9665ZM702.46 19.1837C702.676 19.2582 702.782 19.401 702.782 19.6181C702.782 19.7423 702.751 19.848 702.689 19.9411C702.547 20.1584 702.225 20.2704 701.73 20.2704C701.371 20.2704 701.123 20.2021 700.975 20.0655C700.876 19.9722 700.814 19.8483 700.783 19.6742L701.432 19.6494C701.451 19.786 701.587 19.8605 701.835 19.8605L702.058 19.8169C702.12 19.7736 702.151 19.7363 702.151 19.6803C702.151 19.6123 702.113 19.5688 702.021 19.5376L701.235 19.3639C700.999 19.2709 700.876 19.1155 700.876 18.8984C700.876 18.7618 700.925 18.6499 701.018 18.532C701.172 18.3766 701.432 18.3083 701.792 18.3083L702.348 18.3766C702.565 18.4511 702.701 18.6065 702.751 18.8424L702.113 18.8733C702.082 18.7618 701.977 18.712 701.792 18.712C701.593 18.712 701.501 18.7618 701.501 18.8548L701.525 18.9169C701.556 18.9605 701.655 18.9976 701.853 19.0408L702.46 19.1837ZM702.905 19.7423H703.506V20.2205H702.905V19.7423ZM699.594 19.339C699.594 19.6182 699.551 19.8293 699.483 19.9411C699.334 20.1707 699.018 20.2827 698.511 20.2827C698.152 20.2827 697.892 20.233 697.737 20.14C697.533 20.0343 697.428 19.8358 697.428 19.5564V18.3766H698.078V19.426C698.078 19.5502 698.096 19.6432 698.127 19.693C698.202 19.8169 698.338 19.879 698.511 19.879C698.647 19.879 698.746 19.8358 698.821 19.7675C698.895 19.693 698.932 19.5811 698.932 19.4135V18.3765H699.594V19.339H699.594ZM699.705 19.7423H700.293V20.2205H699.705V19.7423ZM709.206 18.3765H707.869V20.2205H708.525V19.5501H708.866L709.249 20.2205H709.974L709.509 19.488C709.639 19.4568 709.745 19.395 709.819 19.3078C709.892 19.2093 709.931 19.0894 709.93 18.9665C709.93 18.7616 709.856 18.6064 709.726 18.5007C709.609 18.42 709.448 18.3765 709.206 18.3765ZM709.02 19.134H708.525V18.8048H709.064C709.144 18.8048 709.2 18.8109 709.231 18.8421C709.262 18.873 709.28 18.9166 709.28 18.9664C709.28 19.0843 709.2 19.134 709.02 19.134ZM706.724 18.3765H707.38V20.2205H706.724V18.3765ZM705.319 18.8856L705.536 19.5065H705.115L705.319 18.8856ZM704.948 18.3765L704.156 20.2205H704.874L704.967 19.9224H705.672L705.771 20.2205H706.483L705.691 18.3765H704.948ZM717.376 1.88672L715.315 6.18923L718.379 3.96652L717.376 1.88672ZM718.577 4.29561L710.135 10.4545L710.642 11.9942L717.159 7.24466L718.577 4.29561ZM716.813 7.97717L710.766 12.3852H713.397L715.396 10.9264L716.813 7.97717ZM710.871 13.5153C710.871 13.7637 710.778 13.9811 710.599 14.1548C710.426 14.3349 710.209 14.4279 709.949 14.4279C709.695 14.4279 709.479 14.3349 709.299 14.1548C709.126 13.9811 709.033 13.7637 709.033 13.5153C709.033 13.2546 709.126 13.0371 709.299 12.8634C709.479 12.6897 709.695 12.5964 709.949 12.5964C710.209 12.5964 710.426 12.6897 710.599 12.8634C710.778 13.0371 710.871 13.2546 710.871 13.5153ZM711.273 13.9375L711.899 15.8871L713.904 14.4281L712.251 13.2235L711.273 13.9375ZM701.531 3.96652L704.589 6.18923L702.534 1.88672L701.531 3.96652ZM702.738 7.24466L709.268 11.9942L709.776 10.4545L701.327 4.29561L702.738 7.24466ZM704.502 10.9264L706.508 12.3852H709.138L703.091 7.97717L704.502 10.9264ZM707.652 13.2234L706 14.4279L708.012 15.8869L708.643 13.9374L707.652 13.2234ZM709.949 17.3026L711.602 16.1043L709.949 14.8998L708.302 16.1043L709.949 17.3026Z" fill="#939FB9"/>
<path fill-rule="evenodd" clip-rule="evenodd" d="M892.61 17.885C892.995 17.5913 893.188 17.1808 893.188 16.6534C893.188 16.3291 893.137 16.0632 893.036 15.8552C892.934 15.6476 892.782 15.4778 892.579 15.3458C892.356 15.1938 892.08 15.0771 891.751 14.996C891.421 14.915 891.013 14.8745 890.527 14.8745H889.097V18.3412H890.785C891.201 18.3412 891.555 18.3007 891.849 18.2196C892.143 18.1385 892.397 18.0272 892.61 17.885ZM891.713 13.0194C891.895 12.8776 892.034 12.7104 892.131 12.5176C892.227 12.3252 892.275 12.0869 892.275 11.8029C892.275 11.4889 892.227 11.2279 892.131 11.0201C892.034 10.8124 891.9 10.6425 891.728 10.5105C891.535 10.3687 891.289 10.2595 890.99 10.1836C890.691 10.1077 890.324 10.0697 889.888 10.0697H889.097V13.4451H889.934C890.745 13.4451 891.338 13.3033 891.713 13.0194ZM893.993 14.5552C894.531 15.0623 894.799 15.7361 894.799 16.5774C894.799 17.5812 894.444 18.3718 893.735 18.9495C893.036 19.4967 892.103 19.7706 890.937 19.7706H887.531V8.64014H890.162C890.709 8.64014 891.211 8.70387 891.667 8.83041C892.123 8.95742 892.524 9.15238 892.868 9.41561C893.557 9.98362 893.902 10.7539 893.902 11.7269C893.902 12.6089 893.573 13.3236 892.914 13.8711C893.329 14.023 893.689 14.2509 893.993 14.5552Z" fill="#939FB9"/>
<path fill-rule="evenodd" clip-rule="evenodd" d="M902.978 18.3412V19.7706H896.425V8.64014H902.872V10.0697H897.991V13.4606H902.735V14.8897H897.991V18.3412H902.978Z" fill="#939FB9"/>
<path fill-rule="evenodd" clip-rule="evenodd" d="M916.163 8.64014V19.7706H914.931L907.602 11.3468V19.7706H906.036V8.64014H907.283C907.992 9.50199 908.677 10.3129 909.336 11.0729C909.994 11.8332 910.658 12.5784 911.328 13.3083C911.875 13.9267 912.42 14.5474 912.962 15.1709C913.504 15.7943 914.049 16.4254 914.597 17.0639V8.64014H916.163Z" fill="#939FB9"/>
<path fill-rule="evenodd" clip-rule="evenodd" d="M924.99 18.3412V19.7706H918.437V8.64014H924.884V10.0697H920.003V13.4606H924.747V14.8897H920.003V18.3412H924.99Z" fill="#939FB9"/>
<path fill-rule="evenodd" clip-rule="evenodd" d="M933.385 8.64014V10.0695H928.823V13.2475H932.913V14.6767H928.823V19.7706H927.257V8.64014H933.385Z" fill="#939FB9"/>
<path fill-rule="evenodd" clip-rule="evenodd" d="M935.368 19.7706H936.919V8.64014H935.368V19.7706Z" fill="#939FB9"/>
<path fill-rule="evenodd" clip-rule="evenodd" d="M948.304 8.64014V10.0695H944.412V19.7706H942.846V10.0695H938.953V8.64014H948.304Z" fill="#939FB9"/>
<path fill-rule="evenodd" clip-rule="evenodd" d="M956.227 8.64014V10.0695H951.666V13.2475H955.756V14.6767H951.666V19.7706H950.1V8.64014H956.227Z" fill="#939FB9"/>
<path fill-rule="evenodd" clip-rule="evenodd" d="M981.236 17.0455V18.7483C980.892 18.9513 980.562 19.1186 980.248 19.25C979.934 19.382 979.61 19.4984 979.275 19.6C978.92 19.7112 978.581 19.7899 978.256 19.8355C977.932 19.8811 977.612 19.904 977.298 19.904C975.555 19.904 974.115 19.3719 972.98 18.3074C971.834 17.2432 971.262 15.8746 971.262 14.202C971.262 12.5804 971.834 11.222 972.98 10.127C973.558 9.57963 974.204 9.17174 974.919 8.90304C975.633 8.6345 976.411 8.5 977.253 8.5C977.85 8.5 978.469 8.58139 979.108 8.74339C979.452 8.82462 979.782 8.9257 980.096 9.04739C980.41 9.16908 980.75 9.32655 981.115 9.51886V11.2979C980.598 11.0039 980.177 10.7834 979.853 10.6364C979.528 10.4894 979.219 10.3704 978.925 10.279C978.327 10.0967 977.724 10.0055 977.116 10.0055C975.909 10.0055 974.906 10.4059 974.105 11.2066C973.294 11.9974 972.889 12.9958 972.889 14.202C972.889 15.4488 973.284 16.4576 974.075 17.2278C974.875 18.0086 975.904 18.3986 977.161 18.3986C977.85 18.3986 978.494 18.2921 979.092 18.0795C979.244 18.0289 979.394 17.9729 979.541 17.9122C979.688 17.8512 979.845 17.7805 980.012 17.6994C980.179 17.6183 980.362 17.5243 980.56 17.418C980.757 17.3115 980.983 17.1875 981.236 17.0455Z" fill="#939FB9"/>
<path fill-rule="evenodd" clip-rule="evenodd" d="M992.434 8.64014V14.8897C992.434 15.6095 992.327 16.2684 992.114 16.8663C991.901 17.4646 991.577 18.0018 991.141 18.4782C990.259 19.4308 989.119 19.9072 987.72 19.9072C986.331 19.9072 985.196 19.4461 984.314 18.5238C983.432 17.6013 982.991 16.4153 982.991 14.9656V8.64014H984.557V14.905C984.557 15.4727 984.631 15.9668 984.778 16.3875C984.925 16.8082 985.14 17.1705 985.424 17.4745C985.992 18.0929 986.762 18.4019 987.735 18.4019C988.698 18.4019 989.458 18.0828 990.016 17.444C990.29 17.1301 990.5 16.7576 990.647 16.3264C990.794 15.8959 990.868 15.3967 990.868 14.8287V8.64014H992.434Z" fill="#939FB9"/>
<path fill-rule="evenodd" clip-rule="evenodd" d="M1000.33 14.6581C1000.78 15.1652 1001 15.8646 1001 16.7568C1001 17.6183 1000.68 18.3585 1000.03 18.9766C999.377 19.5948 998.597 19.904 997.685 19.904C997.047 19.904 996.448 19.7824 995.891 19.539C995.647 19.4275 995.42 19.3163 995.206 19.2046C994.994 19.0932 994.786 18.9563 994.583 18.794V16.9086C994.857 17.1115 995.093 17.2839 995.29 17.4255C995.488 17.5677 995.663 17.6841 995.815 17.7753C995.967 17.8666 996.098 17.9425 996.21 18.0032C996.322 18.0643 996.423 18.1151 996.514 18.1556C996.869 18.3177 997.214 18.3986 997.548 18.3986C998.075 18.3986 998.516 18.2366 998.871 17.9122C999.215 17.5777 999.388 17.1775 999.388 16.711C999.388 16.4475 999.35 16.2244 999.274 16.0419C999.198 15.8593 999.084 15.7025 998.932 15.5705C998.749 15.4288 998.513 15.2843 998.225 15.1373C997.936 14.9903 997.578 14.8459 997.153 14.7038C996.271 14.3999 995.607 14.0248 995.161 13.5788C994.918 13.3254 994.737 13.0313 994.621 12.6967C994.504 12.3623 994.446 11.9924 994.446 11.5869C994.446 10.7352 994.781 10.0106 995.45 9.41232C996.098 8.80416 996.874 8.5 997.776 8.5C998.425 8.5 998.993 8.59654 999.479 8.789C999.722 8.87039 999.928 8.95397 1000.09 9.03974C1000.26 9.12612 1000.42 9.22501 1000.57 9.33639L1000.6 11.1004C1000.4 10.9786 1000.23 10.8747 1000.08 10.7884C999.933 10.7025 999.803 10.6288 999.692 10.5679C999.58 10.5073 999.477 10.454 999.38 10.4084C999.284 10.3628 999.185 10.3148 999.084 10.264C998.749 10.0917 998.344 10.0055 997.867 10.0055C997.35 10.0055 996.925 10.1573 996.59 10.4616C996.245 10.7961 996.073 11.161 996.073 11.5566C996.073 11.7996 996.109 11.9999 996.18 12.1569C996.25 12.3142 996.342 12.4434 996.453 12.5448C996.747 12.8084 997.274 13.0822 998.035 13.3659C998.572 13.5585 999.033 13.7586 999.418 13.9662C999.803 14.1742 1000.11 14.4051 1000.33 14.6581Z" fill="#939FB9"/>
<path fill-rule="evenodd" clip-rule="evenodd" d="M968.597 15.5613C967.603 18.241 964.908 19.4655 962.515 18.9203C960.339 18.4244 958.635 16.4042 958.547 14.1879C958.453 11.8039 959.909 9.72306 962.152 9.02008C964.406 8.31366 967.115 9.23238 968.363 11.7353C968.337 11.6695 968.313 11.6022 968.283 11.538C967.237 9.30486 964.742 8.08464 962.334 8.62875C959.357 9.30205 957.487 12.3035 958.135 15.3098C958.749 18.1553 961.419 20.1697 964.326 19.8754C966.049 19.7011 967.422 18.9209 968.471 17.5541C968.521 17.4887 968.59 17.4114 968.591 17.3384C968.601 16.7462 968.597 16.1536 968.597 15.5613Z" fill="#939FB9"/>
<path fill-rule="evenodd" clip-rule="evenodd" d="M963.664 17.9154C961.453 17.9169 959.671 16.1203 959.67 13.8878C959.67 11.7516 961.485 9.94199 963.631 9.93917C965.857 9.93652 967.645 11.7165 967.648 13.9407C967.651 16.1212 965.854 17.9138 963.664 17.9154ZM963.622 9.72313C961.324 9.75812 959.46 11.6077 959.463 13.9093C959.466 16.2606 961.325 18.1338 963.645 18.1252C966 18.1163 967.869 16.2642 967.864 13.9446C967.895 11.5376 965.853 9.68876 963.622 9.72313Z" fill="#939FB9"/>
<path fill-rule="evenodd" clip-rule="evenodd" d="M963.328 11.3159C962.723 11.3887 962.011 11.7822 961.764 12.2109C962.857 11.1478 964.243 11.3006 965.101 12.0095C965.895 12.6648 966.396 14.0291 965.486 15.3544C965.983 15.3121 966.04 15.2701 966.176 14.8311C966.771 12.9067 965.206 11.0905 963.328 11.3159Z" fill="#939FB9"/>
<path fill-rule="evenodd" clip-rule="evenodd" d="M513.756 17.7509L513.756 9.90771H515.341V13.3041L518.141 9.90771H520.091L517.367 13.0252L520.271 17.7534H518.428L516.354 14.2367L515.342 15.3654V17.7509H513.756ZM508.375 16.3256L508.371 16.3263C508.79 16.4609 509.239 16.4609 509.657 16.3263C509.848 16.2622 510.024 16.158 510.171 16.0195C510.321 15.8733 510.438 15.6959 510.513 15.5005C510.601 15.263 510.644 15.0119 510.639 14.7588V9.89658H512.197V14.9944C512.202 15.4028 512.121 15.8073 511.957 16.1813C511.805 16.5269 511.579 16.8343 511.296 17.0835C511.001 17.3391 510.657 17.5339 510.287 17.6582C509.456 17.9281 508.56 17.9281 507.729 17.6582C507.359 17.5339 507.015 17.3385 506.718 17.0835C506.434 16.835 506.207 16.5276 506.055 16.1813C505.892 15.8073 505.811 15.4028 505.817 14.9944V9.89658H507.392V14.7582C507.387 15.0112 507.429 15.2623 507.518 15.4992C507.593 15.6953 507.71 15.8733 507.86 16.0189C508.007 16.1574 508.182 16.2622 508.375 16.3256ZM502.64 17.2528C502.587 17.1305 502.56 16.9978 502.561 16.8645C502.56 16.7338 502.587 16.6037 502.64 16.4846C502.692 16.3674 502.765 16.262 502.856 16.1726C502.949 16.082 503.058 16.0102 503.176 15.9597C503.298 15.9067 503.429 15.8795 503.562 15.8801C503.694 15.8795 503.824 15.9067 503.945 15.9597C504.062 16.0109 504.17 16.0827 504.262 16.1726C504.353 16.262 504.427 16.3674 504.478 16.4846C504.532 16.6037 504.559 16.7331 504.558 16.8645C504.559 16.9978 504.532 17.1305 504.478 17.2528C504.427 17.3719 504.354 17.4793 504.262 17.5699C504.171 17.6612 504.064 17.733 503.945 17.7828C503.824 17.834 503.693 17.8605 503.562 17.8598C503.298 17.8598 503.044 17.7563 502.856 17.5699C502.765 17.4793 502.692 17.3719 502.64 17.2528ZM500.123 17.7509H497.966L495.754 9.90771H497.531L499.047 15.8035H499.097L500.579 9.90771H502.335L500.123 17.7509ZM489.832 10.1124C490.837 9.69363 491.969 9.69363 492.973 10.1124C493.421 10.3123 493.822 10.6049 494.149 10.9705C494.478 11.3439 494.728 11.7788 494.887 12.2506C495.226 13.2764 495.226 14.3837 494.887 15.4088C494.727 15.88 494.477 16.3149 494.149 16.689C493.823 17.0559 493.422 17.3491 492.973 17.5471C491.968 17.9633 490.838 17.9633 489.832 17.5471C489.383 17.3491 488.982 17.0559 488.657 16.689C488.329 16.3149 488.078 15.88 487.918 15.4088C487.579 14.3837 487.579 13.2758 487.918 12.2506C488.077 11.7788 488.328 11.3439 488.657 10.9705C488.983 10.6055 489.384 10.313 489.832 10.1124ZM490.496 16.2321C491.073 16.4909 491.733 16.4909 492.309 16.2321C492.567 16.1052 492.792 15.9214 492.969 15.6936C493.154 15.4503 493.291 15.1733 493.374 14.8782C493.467 14.5442 493.514 14.198 493.511 13.8504V13.8071C493.513 13.4608 493.467 13.1159 493.374 12.782C493.292 12.4862 493.155 12.2086 492.969 11.9639C492.792 11.7368 492.567 11.553 492.309 11.4255C491.733 11.1666 491.073 11.1666 490.496 11.4255C490.238 11.5523 490.012 11.7361 489.837 11.9639C489.653 12.2086 489.516 12.4862 489.435 12.782C489.341 13.1159 489.294 13.4608 489.297 13.8071V13.8504C489.294 14.198 489.34 14.5442 489.435 14.8782C489.517 15.1726 489.654 15.4496 489.837 15.6936C490.012 15.9221 490.238 16.1065 490.496 16.2321ZM481.177 13.797L481.17 13.8526C481.169 14.1795 481.212 14.505 481.296 14.8202C481.373 15.1153 481.502 15.3929 481.679 15.6414C481.852 15.879 482.076 16.0744 482.335 16.2123C482.629 16.3637 482.957 16.4375 483.287 16.4291C483.591 16.4394 483.892 16.3812 484.171 16.2601C484.387 16.1605 484.579 16.0168 484.734 15.8356C484.87 15.6738 484.97 15.4855 485.029 15.2829C485.082 15.1049 485.111 14.9211 485.114 14.736V14.6597H483.109V13.4514H486.659V17.7506H485.27V16.8316C485.169 16.9889 485.046 17.1287 484.904 17.2503C484.754 17.3785 484.589 17.4872 484.411 17.5733C484.22 17.6645 484.02 17.7338 483.813 17.7804C483.586 17.8321 483.354 17.858 483.122 17.8567C482.596 17.8664 482.076 17.7603 481.596 17.5454C481.163 17.3461 480.779 17.0529 480.472 16.6873C480.162 16.3087 479.926 15.8738 479.781 15.4065C479.619 14.8959 479.539 14.3626 479.543 13.8268C479.539 13.289 479.629 12.755 479.809 12.2483C479.974 11.7765 480.231 11.3422 480.564 10.9688C480.893 10.6032 481.296 10.3113 481.745 10.1107C482.233 9.89516 482.762 9.78773 483.295 9.79549C483.652 9.79355 484.008 9.83691 484.353 9.92493C484.673 10.0045 484.98 10.1275 485.266 10.2906C485.537 10.4453 485.783 10.6388 485.996 10.8653C486.206 11.086 486.379 11.3377 486.511 11.6115L485.123 12.3933C485.04 12.2282 484.941 12.0716 484.827 11.926C484.598 11.6322 484.285 11.416 483.929 11.3079C483.723 11.2458 483.509 11.2154 483.294 11.218C482.964 11.2089 482.636 11.2834 482.342 11.4341C482.083 11.572 481.859 11.7674 481.686 12.0056C481.509 12.2541 481.379 12.5337 481.303 12.8288C481.218 13.1446 481.176 13.4702 481.177 13.797ZM461.204 11.4136C460.754 11.2216 460.54 10.7046 460.723 10.2507L460.73 10.2338C460.925 9.77743 461.454 9.56437 461.911 9.75974C462.367 9.95511 462.579 10.484 462.385 10.9404C462.19 11.3968 461.661 11.609 461.204 11.4136ZM459.175 12.6036C458.723 12.4141 458.508 11.8954 458.692 11.4415C458.695 11.4356 458.698 11.4297 458.701 11.4238C458.895 10.9674 459.423 10.7544 459.881 10.9489C460.337 11.1442 460.55 11.6731 460.355 12.1295C460.16 12.5859 459.631 12.7981 459.175 12.6036ZM458.581 14.8585C458.132 14.6665 457.918 14.1503 458.1 13.6964C458.103 13.6905 458.105 13.6838 458.108 13.6787C458.303 13.2215 458.831 13.0101 459.289 13.2046C459.745 13.4 459.957 13.9288 459.762 14.3853C459.567 14.8417 459.038 15.0539 458.581 14.8585ZM463.468 12.1291C463.019 11.9363 462.805 11.4209 462.987 10.967C462.989 10.9602 462.992 10.9544 462.995 10.9485C463.189 10.492 463.718 10.2798 464.175 10.4752C464.632 10.6706 464.843 11.1994 464.649 11.6558C464.453 12.1123 463.925 12.3236 463.468 12.1291ZM471.672 11.4136C471.215 11.609 470.686 11.3968 470.492 10.9404C470.297 10.484 470.509 9.95511 470.965 9.75974C471.422 9.56437 471.95 9.77743 472.146 10.2338C472.148 10.2389 472.151 10.2448 472.153 10.2507C472.336 10.7046 472.122 11.2216 471.672 11.4136ZM473.701 12.6036C473.243 12.7981 472.715 12.5859 472.521 12.1295C472.325 11.6731 472.538 11.1442 472.995 10.9489C473.451 10.7544 473.98 10.9674 474.175 11.4238C474.177 11.4297 474.18 11.4356 474.182 11.4415C474.367 11.8954 474.152 12.4133 473.701 12.6036ZM474.295 14.8585C473.838 15.0539 473.309 14.8417 473.115 14.3853C472.919 13.9288 473.131 13.4 473.588 13.2046C474.044 13.0101 474.573 13.2215 474.768 13.6787C474.771 13.6838 474.773 13.6905 474.776 13.6964C474.958 14.1503 474.744 14.6665 474.295 14.8585ZM469.411 12.1291C468.954 12.3236 468.425 12.1123 468.23 11.6558C468.035 11.1994 468.246 10.6706 468.704 10.4752C469.16 10.2798 469.689 10.492 469.884 10.9485C469.887 10.9544 469.889 10.9602 469.892 10.967C470.074 11.4209 469.86 11.9363 469.411 12.1291ZM466.91 9.81659L466.922 9.81406C466.889 9.85785 466.85 9.89659 466.805 9.93027L467.455 11.8924V11.9C467.471 11.9505 467.483 12.0027 467.49 12.0557C467.575 12.6326 467.176 13.169 466.6 13.2541H466.577C466.489 13.2667 466.401 13.2667 466.312 13.2541H466.29C466.236 13.2465 466.183 13.2347 466.132 13.2187C465.575 13.0469 465.263 12.4566 465.434 11.9V11.8924L466.085 9.93027C466.04 9.89743 466.001 9.85785 465.968 9.81406L464.835 10.4086V8.73953L465.967 9.09827C465.998 9.05785 466.035 9.01995 466.077 8.98879L465.622 7.55469H467.256L466.802 8.98879C466.843 9.01995 466.88 9.05785 466.911 9.09827L468.043 8.73953V10.4111L466.91 9.81659ZM466.437 19.4145L466.431 19.4137C464.426 19.4078 462.422 19.5433 460.435 19.8179C460.138 18.2819 459.53 16.8233 458.647 15.5324L459.865 15.0979C459.733 15.5231 459.732 15.977 459.861 16.4023C460.132 16.084 460.317 15.7025 460.4 15.2924L460.99 17.257C460.72 17.0288 460.389 16.8848 460.037 16.8427C460.6 18.0545 461.301 18.3669 461.756 18.2819C461.769 18.2802 461.781 18.2785 461.792 18.276C462.261 18.1875 462.57 17.7345 462.481 17.2646C462.357 16.6675 461.743 16.5151 461.458 17.2073C460.912 16.0949 461.839 15.748 462.434 16.0764C462.363 16.0275 462.296 15.9728 462.234 15.9139C461.509 15.2334 461.473 14.0957 462.154 13.3707C463.181 14.1581 463.194 14.9379 462.731 16.0326C463.332 15.3446 464.267 15.7143 463.93 16.825C463.497 16.1539 462.923 16.5758 463.013 17.2141C463.088 17.7699 463.822 18.217 464.735 18.1379C466.042 18.02 466.121 17.1172 466.153 16.3703C465.831 16.3122 465.252 16.6086 464.758 17.3016L464.578 15.2174C464.975 15.6646 465.548 15.9147 466.145 15.9004C465.884 15.3581 465.543 14.8579 465.135 14.4149H467.735C467.327 14.857 466.986 15.3581 466.725 15.9004C467.323 15.9147 467.896 15.6646 468.293 15.2174L468.112 17.3016C467.618 16.6086 467.04 16.3105 466.719 16.3703C466.751 17.1164 466.83 18.02 468.138 18.1379C469.05 18.217 469.783 17.769 469.859 17.2141C469.95 16.5758 469.376 16.1539 468.943 16.825C468.606 15.7143 469.541 15.3446 470.141 16.0326C469.679 14.9362 469.69 14.1572 470.719 13.3707C470.778 13.4339 470.833 13.5012 470.882 13.572C471.451 14.3863 471.253 15.5071 470.438 16.0764C471.034 15.748 471.96 16.0949 471.413 17.2073C471.129 16.5151 470.518 16.6692 470.39 17.2646C470.388 17.2764 470.386 17.289 470.384 17.3C470.314 17.7732 470.641 18.2128 471.114 18.2819C471.57 18.3652 472.271 18.0536 472.833 16.8427C472.482 16.8848 472.15 17.0288 471.881 17.257L472.471 15.2924C472.554 15.7025 472.739 16.084 473.011 16.4023C473.139 15.977 473.137 15.5231 473.005 15.0979L474.223 15.5324C473.34 16.8233 472.732 18.2827 472.436 19.8187C470.448 19.5433 468.443 19.4086 466.437 19.4145Z" fill="#939FB9"/>
<path fill-rule="evenodd" clip-rule="evenodd" d="M432.801 18.4355C431.798 18.4293 430.822 18.1089 430.011 17.5175C430.87 16.4334 431.339 15.0907 431.339 13.7068C431.348 12.3167 430.879 10.9652 430.011 9.87923C432.114 8.33047 435.073 8.77949 436.622 10.8816C438.171 12.9842 437.722 15.9444 435.62 17.4925C434.805 18.0927 433.82 18.4155 432.809 18.4143L432.801 18.4355ZM429.001 16.5177C427.755 14.8434 427.755 12.5496 429.001 10.8759C430.228 12.5465 430.228 14.8215 429.001 16.4927V16.5177ZM427.996 17.5175C426.33 18.7409 424.063 18.7409 422.397 17.5175C423.256 16.4334 423.724 15.0907 423.725 13.7068C423.729 12.3235 423.26 10.9802 422.397 9.89984C424.063 8.67707 426.33 8.67707 427.996 9.89984C426.225 12.1299 426.225 15.2874 427.996 17.5175ZM421.394 16.5177C420.785 15.6996 420.457 14.706 420.46 13.6862C420.458 12.672 420.786 11.6853 421.394 10.8753C422.628 12.544 422.628 14.8228 421.394 16.4921V16.5177ZM420.389 17.5175C418.725 18.7403 416.459 18.7403 414.795 17.5175C416.56 15.2849 416.56 12.1324 414.795 9.89984C416.459 8.67707 418.725 8.67707 420.389 9.89984C418.625 12.1324 418.625 15.2849 420.389 17.5175ZM413.789 16.5177C412.543 14.8434 412.543 12.5496 413.789 10.8759C415.023 12.5446 415.023 14.8234 413.789 16.4927V16.5177ZM412.785 17.5175C410.681 19.0688 407.718 18.621 406.168 16.5177C404.616 14.4137 405.064 11.4505 407.168 9.89984C408.837 8.66833 411.115 8.66833 412.785 9.89984C411.02 12.1324 411.02 15.2849 412.785 17.5175ZM432.801 7.55484C431.422 7.55297 430.083 8.01822 429.003 8.87504C426.773 7.11457 423.627 7.11457 421.397 8.87504C419.168 7.11457 416.022 7.11457 413.792 8.87504C411.135 6.77609 407.279 7.22885 405.18 9.8861C403.081 12.5427 403.533 16.3984 406.19 18.4986C408.419 20.2584 411.564 20.2584 413.792 18.4986C416.022 20.2584 419.168 20.2584 421.397 18.4986C423.627 20.2584 426.773 20.2584 429.003 18.4986C431.66 20.5975 435.515 20.1448 437.614 17.4875C439.714 14.8303 439.262 10.9746 436.604 8.87504C435.521 8.01947 434.181 7.55422 432.801 7.55484Z" fill="#939FB9"/>
<path fill-rule="evenodd" clip-rule="evenodd" d="M322.433 8.22351C322.693 8.23078 322.665 8.41527 322.622 8.47887C321.855 9.6842 320.043 11.8065 318.724 14.1351C318.505 14.5124 318.343 14.79 318.343 15.204C318.343 15.7653 318.69 16.429 319.386 16.7138C319.845 16.8993 320.133 16.905 320.628 16.9123C324.3 17.027 325.773 16.9267 329.059 16.8141C329.249 16.8135 329.425 16.6843 329.489 16.6063C330.124 15.9369 330.49 14.7336 330.49 13.6719C330.49 11.3072 328.805 9.17717 326.175 8.15273L325.753 8.69957C328.058 9.66199 329.249 11.5843 329.249 13.643C329.249 14.1062 329.171 14.5548 329.03 14.9833C328.926 15.282 328.798 15.4536 328.424 15.4593C325.746 15.5172 324.23 15.5596 321.545 15.4883C321.198 15.481 321.086 15.3534 321.03 15.0763C320.987 14.9119 321.023 14.7755 321.135 14.5693C322.559 12.02 325.04 9.10634 325.527 8.41527C325.62 8.28761 325.576 8.03021 325.259 7.94494C324.329 7.66736 323.286 7.55469 322.229 7.55469C317.441 7.57432 314.064 10.2952 313.986 13.6719C314.178 17.7253 317.666 19.8187 322.229 19.8187C325.02 19.8187 327.577 18.8216 329.074 17.2405L327.692 17.2968C326.415 18.4438 324.371 19.0568 322.256 19.0568C318.401 19.0568 315.263 17.12 315.263 13.643C315.263 10.6524 318.401 8.21628 322.256 8.21628L322.433 8.22351ZM354.099 15.5446L356.707 13.8146L352.76 10.8441V11.5714H346.922C346.16 11.5714 345.534 12.1187 345.42 12.8315L352.188 12.8243V14.1206L347.014 14.1278C346.196 14.1278 345.527 14.7553 345.491 15.5446H354.099ZM378.892 11.5496H384.876V10.275H378.858C376.607 10.275 374.768 12.0127 374.676 14.1919L381.931 14.1842C382.402 14.1842 382.783 14.4979 382.783 14.8758C382.783 15.2603 382.401 15.5668 381.931 15.5668L373.943 15.5663V10.275H371.574V15.5317H366.817C366.118 15.4169 365.9 14.9047 365.9 13.9071L365.9 10.275H362.08L358.645 12.525L355.657 10.275H346.464C344.426 10.275 342.728 11.6918 342.354 13.5789H344.201C343.504 14.0565 342.968 14.7336 342.672 15.5322L336.827 15.5317C336.137 15.4169 335.911 14.9047 335.911 13.9071L335.912 10.275H333.549V13.6647C333.45 15.9095 334.655 16.7138 336.03 16.8415L354.395 16.8409L357.779 14.6328L360.733 16.8704H364.348L359.746 13.3732L363.531 10.8948L363.538 13.6647C363.44 15.9095 364.764 16.7138 366.14 16.8415L383.326 16.8409C384.51 16.8409 385.47 15.9659 385.47 14.8758C385.47 13.7924 384.51 12.9173 383.326 12.9173H377.39C377.446 12.1549 378.096 11.5496 378.892 11.5496Z" fill="#939FB9"/>
<path d="M247.31 10.5621C248.303 10.509 249.33 10.7394 250.149 11.3207C250.856 11.8169 251.365 12.5678 251.616 13.3924C251.884 14.272 251.919 15.2144 251.789 16.1216C251.668 16.9026 251.373 17.6696 250.863 18.2797C250.299 18.9692 249.478 19.4237 248.611 19.6023C247.677 19.795 246.682 19.7304 245.794 19.3699C245.058 19.0716 244.418 18.5402 244 17.8629C243.484 17.0351 243.289 16.0403 243.308 15.0742C243.303 14.048 243.55 12.9878 244.168 12.1536C244.887 11.1581 246.103 10.6108 247.31 10.5621ZM247.217 12.5217C246.749 12.5832 246.314 12.8438 246.049 13.2368C245.708 13.7426 245.602 14.3662 245.581 14.9654C245.566 15.6325 245.641 16.3303 245.979 16.918C246.213 17.3239 246.621 17.6228 247.08 17.7163C247.642 17.8322 248.274 17.7694 248.745 17.4186C249.168 17.0979 249.394 16.5844 249.498 16.0755C249.611 15.4961 249.615 14.8956 249.521 14.3124C249.432 13.7938 249.234 13.2631 248.826 12.9116C248.392 12.5307 247.771 12.4392 247.217 12.5217ZM255.574 11.7868C256.227 11.0256 257.24 10.5237 258.255 10.6184C258.253 11.3348 258.254 12.0518 258.254 12.7689C257.611 12.7746 256.94 12.799 256.347 13.0806C256.089 13.2144 255.831 13.4187 255.736 13.701C255.727 15.6197 255.735 17.5396 255.732 19.4589C254.957 19.457 254.182 19.4602 253.408 19.457C253.406 16.5659 253.41 13.6747 253.406 10.7836C254.128 10.7772 254.851 10.781 255.574 10.781C255.575 11.1159 255.575 11.4513 255.574 11.7868ZM261.262 10.8534C262.146 10.5704 263.098 10.5474 264.012 10.6786C264.781 10.8015 265.579 11.1063 266.061 11.7497C266.432 12.2253 266.543 12.8508 266.503 13.4417C266.505 15.4468 266.489 17.4532 266.514 19.4583C265.836 19.4583 265.158 19.4576 264.48 19.4583C264.414 19.2073 264.348 18.9577 264.282 18.7073C263.689 19.0972 263.018 19.3706 262.317 19.4877C261.615 19.5998 260.861 19.6164 260.203 19.3098C259.628 19.0518 259.181 18.537 258.995 17.9346C258.767 17.2042 258.808 16.361 259.219 15.7016C259.586 15.1139 260.193 14.7266 260.815 14.4564C261.918 13.9872 263.112 13.7925 264.295 13.653C264.285 13.2977 264.359 12.8886 264.105 12.596C263.745 12.1869 263.141 12.1613 262.637 12.2048C261.933 12.2605 261.282 12.6376 260.842 13.1844C260.325 12.8911 259.807 12.5992 259.294 12.299C259.769 11.6178 260.473 11.1056 261.262 10.8534ZM262.19 15.5179C261.834 15.6728 261.476 15.8873 261.276 16.2323C261.008 16.6779 261.058 17.2951 261.404 17.6849C261.586 17.8789 261.851 17.9929 262.117 17.9858C262.913 18.0006 263.651 17.5921 264.23 17.0723C264.227 16.3956 264.231 15.7189 264.228 15.0428C263.536 15.1306 262.838 15.2496 262.19 15.5179ZM272.578 10.6671C273.303 10.5294 274.087 10.5544 274.767 10.8636C275.274 11.0928 275.657 11.5442 275.842 12.0659C275.984 12.4539 276.041 12.8694 276.049 13.2817C276.049 15.3361 276.049 17.3904 276.049 19.4448C275.288 19.4448 274.526 19.4461 273.764 19.4448C273.764 17.5134 273.765 15.5825 273.763 13.6511C273.751 13.2714 273.71 12.8546 273.453 12.5544C273.194 12.2721 272.775 12.2509 272.418 12.2906C271.71 12.379 271.096 12.7861 270.56 13.233C270.56 15.3034 270.56 17.3738 270.56 19.4448C269.802 19.4448 269.045 19.4454 268.288 19.4448C268.288 16.6357 268.286 13.8265 268.288 11.0166C268.921 10.9277 269.555 10.8399 270.188 10.7535C270.248 11.0935 270.325 11.4315 270.391 11.7708C271.055 11.2919 271.766 10.8348 272.578 10.6671ZM278.516 11.9296C279.051 11.1914 279.898 10.6735 280.813 10.6044C281.401 10.5704 282.006 10.6236 282.555 10.8483C282.972 11.0173 283.361 11.3047 283.561 11.7189C283.617 11.3995 283.679 11.0813 283.729 10.7618C284.373 10.7452 285.018 10.7586 285.663 10.7548C285.663 13.6165 285.663 16.4775 285.663 19.3392C285.649 20.183 285.462 21.0818 284.865 21.7131C284.199 22.4166 283.211 22.683 282.277 22.7764C281.199 22.8801 280.049 22.8206 279.083 22.2828C278.464 21.9461 277.975 21.3507 277.838 20.6491C278.59 20.5281 279.341 20.4064 280.092 20.2854C280.151 20.5069 280.254 20.7323 280.453 20.861C280.854 21.1215 281.354 21.1375 281.817 21.1311C282.257 21.1298 282.733 21.0101 283.037 20.6715C283.371 20.2963 283.442 19.7701 283.457 19.2867C283.453 18.9218 283.466 18.5562 283.448 18.1913C283.219 18.562 282.947 18.9244 282.56 19.1401C282.004 19.457 281.339 19.4833 280.717 19.4237C279.864 19.3341 279.039 18.9128 278.509 18.2297C277.841 17.3898 277.608 16.2867 277.598 15.233C277.576 14.0781 277.82 12.8726 278.516 11.9296ZM281.302 12.2465C280.969 12.3073 280.661 12.4885 280.443 12.7477C280.129 13.1139 279.984 13.5915 279.917 14.0614C279.846 14.596 279.861 15.1382 279.911 15.6741C279.973 16.2003 280.099 16.7599 280.479 17.1523C280.762 17.4602 281.192 17.5902 281.601 17.5774C282.039 17.5883 282.494 17.4429 282.806 17.1248C283.149 16.7733 283.309 16.2867 283.391 15.8111C283.463 15.3597 283.482 14.9001 283.464 14.4436C283.426 13.8207 283.245 13.1722 282.799 12.7164C282.42 12.3201 281.838 12.1479 281.302 12.2465ZM288.021 11.8643C288.604 11.1543 289.485 10.7382 290.387 10.6293C291.394 10.5109 292.479 10.6325 293.347 11.1946C294.055 11.6447 294.545 12.3822 294.787 13.1786C295.006 13.9129 295.079 14.6914 295.015 15.4551C293.101 15.4545 291.187 15.4558 289.274 15.4545C289.278 16.0352 289.365 16.6433 289.682 17.1414C289.939 17.5467 290.384 17.8059 290.854 17.8744C291.34 17.9449 291.859 17.9161 292.304 17.6894C292.699 17.4903 293.004 17.1542 293.254 16.7951C293.812 17.1075 294.371 17.4186 294.931 17.7266C294.418 18.6408 293.469 19.247 292.46 19.4679C291.429 19.6862 290.319 19.69 289.33 19.2912C288.56 18.9852 287.923 18.3789 287.553 17.6388C287.074 16.6894 286.976 15.5973 287.044 14.5499C287.113 13.5902 287.393 12.6114 288.021 11.8643ZM289.805 12.6543C289.483 13.0115 289.346 13.4961 289.309 13.966C290.471 13.9686 291.634 13.9667 292.796 13.9673C292.784 13.5044 292.679 13.0166 292.362 12.6639C292.003 12.2561 291.43 12.1088 290.905 12.1479C290.494 12.1728 290.081 12.3412 289.805 12.6543Z" fill="#939FB9"/>
<path d="M167.467 13.4577C167.467 11.5698 167.47 9.68196 167.463 7.79407C167.463 7.60372 167.519 7.55469 167.719 7.55469C170.226 7.56128 172.733 7.56128 175.24 7.55469C175.426 7.55469 175.498 7.58889 175.494 7.77594C175.482 8.31817 175.482 8.86039 175.494 9.40261C175.498 9.59338 175.419 9.62222 175.237 9.6218C173.463 9.61521 171.689 9.6218 169.915 9.61315C169.708 9.61315 169.658 9.66754 169.661 9.8546C169.672 10.644 169.672 11.4336 169.661 12.2233C169.658 12.4005 169.718 12.4367 169.896 12.4363C171.677 12.4302 173.459 12.4363 175.239 12.4285C175.426 12.4285 175.492 12.4606 175.488 12.6498C175.477 13.2056 175.481 13.7622 175.496 14.3176C175.501 14.4997 175.403 14.4936 175.267 14.4936C173.501 14.4914 171.734 14.4914 169.968 14.4936C169.664 14.4936 169.665 14.4936 169.665 14.7869C169.665 15.5558 169.674 16.3246 169.66 17.0942C169.656 17.3031 169.729 17.3369 169.932 17.3361C171.706 17.3287 173.479 17.3361 175.254 17.3275C175.447 17.3275 175.502 17.3687 175.498 17.5541C175.484 18.1029 175.489 18.6525 175.495 19.2022C175.495 19.3348 175.475 19.3958 175.308 19.3958C172.757 19.3909 170.206 19.3909 167.655 19.3958C167.465 19.3958 167.464 19.3134 167.464 19.184C167.466 17.2755 167.466 15.3665 167.464 13.4569L167.467 13.4577ZM195.38 16.909C195.603 16.3537 195.808 15.8458 196.011 15.3371C196.624 13.8029 197.235 12.2683 197.845 10.7332C197.907 10.5785 197.98 10.5172 198.155 10.5235C198.728 10.5386 199.302 10.5294 199.875 10.5197C200.037 10.5172 200.055 10.568 199.993 10.7114C198.848 13.3981 197.704 16.0857 196.562 18.7741C196.437 19.0677 196.307 19.3592 196.19 19.6549C196.143 19.7748 196.085 19.8226 195.954 19.8184C195.576 19.8081 195.198 19.8081 194.82 19.8184C194.684 19.8222 194.618 19.7765 194.565 19.6473C194.052 18.4252 193.532 17.2064 193.013 15.9863C192.278 14.2558 191.543 12.5255 190.807 10.7953C190.788 10.7504 190.77 10.7051 190.748 10.6619C190.691 10.5491 190.73 10.5168 190.844 10.5189C191.188 10.526 191.532 10.5273 191.876 10.5281C192.105 10.5281 192.336 10.5386 192.564 10.5176C192.755 10.5 192.848 10.5684 192.922 10.7517C193.474 12.1538 194.035 13.5537 194.593 14.9504C194.848 15.5879 195.105 16.2245 195.38 16.909ZM210.138 15.0801V12.4478C210.138 12.1806 210.138 12.181 209.876 12.181C209.615 12.181 209.344 12.1747 209.077 12.1836C208.952 12.1878 208.904 12.1569 208.907 12.0112C208.916 11.5106 208.914 11.0095 208.907 10.5085C208.907 10.3772 208.947 10.3391 209.067 10.3391C209.359 10.3438 209.652 10.3255 209.946 10.3391C210.113 10.3463 210.141 10.2747 210.14 10.1189C210.133 9.33577 210.14 8.55182 210.132 7.76914C210.132 7.60397 210.172 7.55145 210.331 7.55484C210.837 7.56543 211.343 7.56416 211.849 7.55484C211.995 7.55188 212.025 7.60524 212.024 7.74754C212.018 8.54504 212.024 9.34254 212.017 10.1396C212.017 10.309 212.063 10.3514 212.217 10.3471C212.749 10.3344 213.282 10.3412 213.815 10.3319C213.945 10.3319 213.984 10.3687 213.981 10.5102C213.973 11.0114 213.973 11.5123 213.981 12.0129C213.984 12.1569 213.939 12.1861 213.814 12.1823C213.274 12.1755 212.735 12.1844 212.197 12.1759C212.058 12.1759 212.017 12.2124 212.018 12.3627C212.023 13.9573 212.018 15.5519 212.022 17.1486C212.022 17.6259 212.262 17.8766 212.709 17.8944C213.088 17.9023 213.467 17.8848 213.844 17.8419C213.957 17.8313 213.981 17.8639 213.98 17.9732C213.976 18.5026 213.976 19.0317 213.98 19.5605C213.98 19.6431 213.961 19.6978 213.878 19.7096C213.138 19.8138 212.394 19.8998 211.66 19.6893C210.784 19.4386 210.288 18.7808 210.182 17.7788C210.084 16.8216 210.17 15.861 210.138 15.0801ZM177.389 19.3925C177.089 19.3925 176.788 19.3867 176.487 19.3953C176.342 19.3995 176.324 19.3541 176.359 19.2161C176.79 17.5258 177.217 15.8347 177.64 14.1427C178.17 12.0329 178.699 9.92275 179.226 7.81215C179.274 7.61889 179.344 7.54925 179.545 7.55502C180.119 7.57067 180.694 7.56285 181.269 7.55831C181.399 7.55831 181.444 7.57315 181.405 7.72932C180.619 10.8319 179.838 13.9361 179.059 17.042C178.876 17.7714 178.686 18.4991 178.512 19.2305C178.478 19.3727 178.418 19.3999 178.294 19.3953C177.991 19.3879 177.69 19.3925 177.389 19.3925ZM190.21 13.6013C190.313 14.1716 190.289 14.7472 190.299 15.3219C190.303 15.5143 190.195 15.4872 190.087 15.4872H183.7C183.397 15.4872 183.397 15.4872 183.468 15.7934C183.737 16.955 184.618 17.7291 185.752 17.793C186.911 17.8582 187.881 17.4256 188.661 16.5141L188.851 16.2924C188.946 16.6764 189.033 17.0263 189.118 17.3762C189.193 17.6863 189.261 17.9999 189.343 18.306C189.374 18.4241 189.36 18.4941 189.266 18.5816C188.339 19.4349 187.252 19.8062 186.039 19.8184C184.887 19.8298 183.853 19.4895 182.979 18.673C182.182 17.9299 181.715 16.9834 181.525 15.883C181.279 14.4489 181.443 13.08 182.182 11.8291C182.933 10.5555 184.029 9.85746 185.431 9.70132C186.516 9.58061 187.532 9.79185 188.432 10.4711C189.447 11.2365 189.981 12.3224 190.21 13.6013ZM187.967 13.6931H187.968C188.041 13.6927 188.161 13.7461 188.121 13.5632C188 13.0187 187.787 12.5293 187.367 12.1707C186.101 11.1022 184.004 11.8619 183.602 13.5239C183.565 13.677 183.623 13.6931 183.743 13.6931C184.447 13.691 185.151 13.6931 185.855 13.6931C186.559 13.6931 187.263 13.6962 187.967 13.6931ZM223.929 13.104C224.123 13.8338 224.138 14.582 224.129 15.3315C224.128 15.4455 224.091 15.4914 223.986 15.4823C223.939 15.4788 223.891 15.4823 223.843 15.4823C221.719 15.4823 219.595 15.4853 217.472 15.4774C217.273 15.4766 217.251 15.5338 217.288 15.7222C217.523 16.9174 218.483 17.7574 219.665 17.7915C220.773 17.8238 221.706 17.4126 222.459 16.5425C222.514 16.4782 222.57 16.414 222.627 16.3511C222.646 16.3364 222.666 16.3235 222.687 16.3126C222.855 17.0014 223.017 17.6757 223.185 18.3483C223.221 18.4916 223.124 18.5432 223.05 18.6105C222.394 19.2138 221.59 19.6052 220.733 19.7389C219.822 19.8849 218.92 19.8495 218.056 19.4741C216.783 18.9208 215.93 17.9296 215.529 16.5372C215.033 14.8127 215.176 13.1481 216.144 11.6316C216.888 10.47 217.951 9.84985 219.259 9.7017C220.142 9.60162 220.989 9.72617 221.781 10.1632C222.918 10.7908 223.586 11.8143 223.929 13.104ZM221.791 13.6952V13.6948C221.942 13.6961 221.977 13.6594 221.936 13.4964C221.704 12.5467 221.188 11.9214 220.252 11.7321C219.009 11.4804 217.807 12.2312 217.452 13.4868C217.408 13.6415 217.416 13.6992 217.592 13.6966C218.289 13.6861 218.985 13.6922 219.682 13.6922C220.385 13.6922 221.088 13.6887 221.791 13.6952ZM208.058 13.4407C208.058 15.4273 208.055 17.4135 208.061 19.3975C208.062 19.5781 208.018 19.6316 207.842 19.6276C207.296 19.6175 206.749 19.621 206.202 19.6276C206.072 19.6276 206.032 19.586 206.036 19.4523C206.045 19.1849 206.039 18.9166 206.039 18.6492C205.523 19.1963 204.949 19.5869 204.243 19.7223C203.15 19.9318 202.097 19.8306 201.182 19.1108C200.178 18.3222 199.856 17.239 200.108 15.9845C200.346 14.7904 201.167 14.1872 202.238 13.8804C202.77 13.7296 203.319 13.7296 203.861 13.6678C204.459 13.6007 205.059 13.5538 205.658 13.4924C205.918 13.4661 206.017 13.3346 206.039 13.0659C206.109 12.2291 205.754 11.9192 205.064 11.7337C204.471 11.5728 203.846 11.588 203.26 11.7776C202.679 11.9626 202.324 12.3957 202.132 12.98C202.083 13.1264 202.037 13.1566 201.903 13.0826C201.395 12.8033 200.886 12.5267 200.371 12.2637C200.236 12.194 200.277 12.1155 200.313 12.0187C200.763 10.8119 201.608 10.0842 202.813 9.8212C203.813 9.6029 204.817 9.61123 205.806 9.90142C207.068 10.2718 207.863 11.27 208.016 12.6332C208.044 12.9013 208.059 13.1709 208.058 13.4407ZM204.139 17.7366V17.7383C205.186 17.5283 206.102 16.6096 206.048 15.4957C206.039 15.3076 205.993 15.2625 205.821 15.2848C204.968 15.3957 204.113 15.4957 203.26 15.6066C203.036 15.6303 202.818 15.7003 202.62 15.8126C202.274 16.0165 202.075 16.3255 202.089 16.738C202.103 17.1505 202.327 17.4284 202.678 17.5967C202.978 17.7352 203.306 17.7981 203.634 17.7804C203.804 17.7886 203.973 17.7739 204.139 17.7366Z" fill="#939FB9"/>
<path d="M19.2488 20.0614C18.278 19.5483 17.9711 18.2325 18.5889 17.2328C19.2615 16.1446 21.1793 16.0719 21.7059 17.1147C21.9924 17.6822 21.9733 17.7204 21.2772 17.9697C20.93 18.094 20.3691 18.263 20.0308 18.3452C19.4385 18.489 19.4176 18.5025 19.4692 18.7094C19.5641 19.09 19.8411 19.4498 20.1531 19.5978C20.4376 19.7328 20.9399 19.7419 21.6559 19.6251C21.9716 19.5736 21.832 19.8464 21.4455 20.0361C20.9309 20.2887 19.7055 20.3028 19.2488 20.0614ZM20.0302 17.9131C20.8917 17.7347 20.8593 17.7553 20.7696 17.4424C20.601 16.8545 19.9778 16.5649 19.6573 16.9254C19.4687 17.1375 19.2425 18.0406 19.3779 18.0406C19.398 18.0406 19.6916 17.9832 20.0302 17.9131ZM24.1108 20.1728C23.9863 20.0483 24.0664 19.8923 24.2548 19.8923C24.6335 19.8923 24.6481 19.7955 24.6243 17.4419L24.6018 15.2226L24.3503 15.179C24.201 15.1532 24.0874 15.0759 24.0706 14.9889C24.0444 14.8528 24.1852 14.8422 26.0204 14.8422H27.9985L28.054 15.2866C28.1355 15.9392 28.0857 16.231 27.8928 16.231C27.7815 16.231 27.6982 16.1288 27.6186 15.8943C27.4386 15.3645 27.2566 15.2631 26.4862 15.2631H25.8222V16.3187V17.3743L26.4745 17.3497C27.1209 17.3254 27.1279 17.3227 27.2472 17.0516C27.3134 16.9012 27.4176 16.7781 27.4787 16.7781C27.5632 16.7781 27.5897 16.9789 27.5897 17.6198C27.5897 18.2909 27.5655 18.4614 27.4702 18.4614C27.4044 18.4614 27.3256 18.3475 27.295 18.2082C27.2212 17.8721 27.0367 17.7881 26.3722 17.7881H25.8169L25.8406 18.7771L25.8643 19.766L26.1379 19.8465C26.3148 19.8987 26.4114 19.9804 26.4114 20.078C26.4114 20.2156 26.3121 20.2289 25.2892 20.2289C24.6719 20.2289 24.1417 20.2037 24.1108 20.1728ZM28.5156 20.0662C28.5156 19.9512 28.5835 19.8956 28.747 19.8768L28.9785 19.8502V18.4193V16.9885L28.747 16.9619C28.5915 16.944 28.5156 16.8862 28.5156 16.7859C28.5156 16.6351 28.8524 16.5277 29.7553 16.3904L30.1113 16.3363L30.1341 18.0932L30.1568 19.8502L30.3883 19.8768C30.5518 19.8956 30.6198 19.9512 30.6198 20.0662C30.6198 20.2184 30.5516 20.2289 29.5677 20.2289C28.5837 20.2289 28.5156 20.2184 28.5156 20.0662ZM31.1248 20.0632C31.1248 19.9547 31.1801 19.8923 31.2763 19.8923C31.5902 19.8923 31.6298 19.7309 31.6298 18.4515C31.6298 17.7701 31.6068 17.1528 31.5787 17.0795C31.5506 17.0063 31.4369 16.9464 31.3262 16.9464C31.1861 16.9464 31.1248 16.8989 31.1248 16.7903C31.1248 16.6632 31.251 16.6068 31.8013 16.4879C32.5201 16.3326 32.7239 16.3516 32.7239 16.574C32.7239 16.673 32.7655 16.6943 32.8712 16.6495C33.6531 16.3179 34.049 16.2826 34.5839 16.4966C35.1335 16.7166 35.2448 17.054 35.2471 18.5077C35.249 19.7282 35.2911 19.8923 35.6025 19.8923C35.6986 19.8923 35.754 19.9547 35.754 20.0632C35.754 20.227 35.7108 20.2331 34.7239 20.2105C33.8382 20.1902 33.6901 20.1671 33.6668 20.0456C33.6476 19.945 33.7078 19.8966 33.8762 19.8773L34.1127 19.8502L34.137 18.756C34.1503 18.1542 34.1399 17.5757 34.1138 17.4703C34.03 17.1323 33.7665 16.9464 33.3713 16.9464C32.7268 16.9464 32.7162 16.9725 32.7427 18.504L32.766 19.8502L33.0025 19.8773C33.1709 19.8966 33.2312 19.945 33.2119 20.0456C33.1886 20.1671 33.0405 20.1902 32.1548 20.2105C31.1679 20.2331 31.1248 20.227 31.1248 20.0632ZM36.4208 19.9829C36.2309 19.793 36.1748 19.6601 36.1748 19.4002C36.1748 18.7913 36.8249 18.2717 37.8804 18.037L38.3656 17.9291L38.3129 17.6271C38.2197 17.094 38.0726 16.9464 37.6347 16.9464C37.2989 16.9464 37.2087 16.9868 36.9633 17.247C36.8074 17.4123 36.6798 17.5827 36.6798 17.6257C36.6798 17.7915 36.5099 17.6926 36.3873 17.4554C36.2589 17.2072 36.2594 17.2063 36.6504 16.9077C37.0662 16.5903 37.7078 16.3572 38.1663 16.3572C38.5506 16.3572 39.1055 16.594 39.2256 16.8092C39.2828 16.9117 39.3472 17.5292 39.376 18.251C39.4284 19.5643 39.5115 19.8923 39.792 19.8923C39.9996 19.8923 40.1015 20.0582 39.9521 20.1529C39.7376 20.2887 38.7699 20.2423 38.5994 20.088C38.4537 19.9561 38.4245 19.9561 38.148 20.088C37.9582 20.1785 37.6403 20.2289 37.2596 20.2289C36.7167 20.2289 36.6462 20.2083 36.4208 19.9829ZM38.23 19.6728C38.3348 19.6326 38.3631 19.4893 38.3631 18.9995C38.3631 18.3887 38.3592 18.3773 38.1485 18.3773C37.874 18.3773 37.473 18.5837 37.4054 18.7598C37.3087 19.0117 37.352 19.4149 37.4924 19.57C37.6307 19.7228 37.9747 19.7708 38.23 19.6728ZM40.3551 20.1728C40.2281 20.0459 40.3135 19.9018 40.5304 19.8768L40.7619 19.8502V18.4193V16.9885L40.5304 16.9619C40.3749 16.944 40.299 16.8862 40.299 16.7859C40.299 16.635 40.6356 16.5277 41.5405 16.3901C41.8833 16.338 41.8982 16.3448 41.8982 16.5541V16.7724L42.2138 16.5859C42.4593 16.4408 42.6612 16.3993 43.1223 16.3993C44.2269 16.3993 44.4299 16.721 44.5012 18.5841C44.5494 19.841 44.5498 19.8431 44.7598 19.8925C44.8756 19.9197 44.9703 19.997 44.9703 20.0644C44.9703 20.165 44.7828 20.1869 43.9182 20.1869C43.0391 20.1869 42.8661 20.1661 42.8661 20.0606C42.8661 19.9912 42.9514 19.9222 43.0556 19.9074C43.3786 19.8616 43.4381 19.6119 43.3946 18.4839C43.3459 17.219 43.2414 17.0048 42.6522 16.9618C42.4513 16.9472 42.1985 16.9825 42.0905 17.0403C41.8957 17.1445 41.8943 17.1563 41.9172 18.4978L41.9403 19.8502L42.1717 19.8768C42.3352 19.8956 42.4032 19.9512 42.4032 20.0662C42.4032 20.2179 42.3357 20.2289 41.4072 20.2289C40.8594 20.2289 40.386 20.2037 40.3551 20.1728ZM46.1895 20.0363C45.9891 19.9303 45.7092 19.7003 45.5674 19.5251C45.342 19.2466 45.3056 19.1284 45.2782 18.5847C45.2523 18.0731 45.2797 17.8948 45.4321 17.58C45.8911 16.6317 47.1553 16.136 48.2528 16.4738C48.5512 16.5657 48.5874 16.605 48.5715 16.8197C48.5616 16.9529 48.477 17.1383 48.3836 17.2318L48.2137 17.4016L47.9661 17.1644C47.7948 17.0003 47.6018 16.914 47.3397 16.8845C47.0163 16.848 46.9303 16.8725 46.7511 17.0517C46.2144 17.5884 46.255 18.7444 46.8315 19.3379C47.162 19.6782 47.4981 19.7661 48.2191 19.7008C48.6576 19.661 48.7157 19.6734 48.7157 19.8069C48.7157 20.0575 48.139 20.2289 47.2964 20.2289C46.6848 20.2289 46.4896 20.195 46.1895 20.0363ZM49.1365 20.0711C49.1365 19.9628 49.2164 19.8973 49.3911 19.8624L49.6456 19.8115L49.6226 18.4L49.5995 16.9885L49.368 16.9619C49.2122 16.9439 49.1365 16.8863 49.1365 16.7855C49.1365 16.6675 49.271 16.6062 49.7702 16.4965C50.8329 16.263 50.7289 16.0932 50.7551 18.1037L50.7778 19.8502L51.0093 19.8768C51.1728 19.8956 51.2407 19.9512 51.2407 20.0662C51.2407 20.2184 51.1726 20.2289 50.1886 20.2289C49.216 20.2289 49.1365 20.217 49.1365 20.0711ZM52.056 20.0257C51.2934 19.319 51.9812 18.3677 53.5012 18.0267L53.9521 17.9256L53.9081 17.5978C53.8472 17.1431 53.646 16.9464 53.2422 16.9464C52.8186 16.9464 52.6449 17.044 52.4197 17.4083C52.2009 17.7623 52.1471 17.7717 51.9925 17.4829C51.8792 17.2711 51.8889 17.2488 52.2252 16.9504C52.8157 16.4264 53.773 16.2174 54.3941 16.4769C54.8735 16.6772 54.9718 16.9801 55.0245 18.4193C55.05 19.1137 55.1014 19.7292 55.1387 19.7871C55.176 19.8449 55.2778 19.8923 55.3649 19.8923C55.5709 19.8923 55.6718 20.0586 55.523 20.1529C55.3245 20.2786 54.4102 20.2414 54.2075 20.0994C54.041 19.9828 53.9975 19.9828 53.7721 20.0994C53.6128 20.1818 53.2947 20.2289 52.8985 20.2289C52.3563 20.2289 52.2468 20.2025 52.056 20.0257ZM53.9166 19.0296L53.9412 18.3773H53.6916C53.3053 18.3773 52.9241 18.7435 52.9241 19.1146C52.9241 19.5447 53.1286 19.738 53.551 19.7069L53.892 19.6818L53.9166 19.0296ZM55.926 20.1728C55.7991 20.0459 55.8844 19.9018 56.1014 19.8768L56.3328 19.8502V17.3673V14.8843L56.0964 14.8572C55.9295 14.8381 55.8678 14.7892 55.8867 14.6911C55.9139 14.5497 56.1239 14.4951 57.0272 14.3944L57.4691 14.3452V17.0177C57.4691 19.7939 57.4812 19.8923 57.8226 19.8923C57.918 19.8923 57.9741 19.9546 57.9741 20.0606C57.9741 20.2195 57.918 20.2289 56.9781 20.2289C56.4303 20.2289 55.9569 20.2037 55.926 20.1728ZM8.48377 20.029C8.48377 19.9654 8.59248 19.8916 8.72534 19.865C8.88351 19.8334 8.98481 19.7498 9.01877 19.623C9.10397 19.3049 9.0797 15.6285 8.99086 15.3948C8.93266 15.2417 8.84694 15.1789 8.69627 15.1789C8.5389 15.1789 8.48377 15.1346 8.48377 15.0082C8.48377 14.8438 8.52682 14.8384 9.64107 14.8609C10.5998 14.8803 10.7984 14.9058 10.7984 15.0097C10.7984 15.0833 10.6939 15.1532 10.5459 15.1789L10.2934 15.2226L10.271 17.4631L10.2486 19.7036L10.4393 19.7547C11.0637 19.922 11.6897 19.6827 11.9308 19.1847C12.0255 18.9891 12.103 18.7843 12.103 18.7294C12.103 18.6746 12.202 18.6298 12.3229 18.6298C12.5374 18.6298 12.5415 18.6398 12.485 19.0296C12.4532 19.2494 12.3876 19.5903 12.3392 19.7871L12.2513 20.1448H10.3675C8.8253 20.1448 8.48377 20.1238 8.48377 20.029ZM12.8605 20.0185C12.8605 19.9491 12.9286 19.8923 13.012 19.8923C13.3259 19.8923 13.3655 19.7309 13.3655 18.4515C13.3655 17.7701 13.3425 17.1528 13.3144 17.0795C13.2863 17.0063 13.1727 16.9464 13.0619 16.9464C12.9208 16.9464 12.8605 16.899 12.8605 16.7881C12.8605 16.616 13.1987 16.5006 14.016 16.3936L14.4562 16.336L14.4789 18.0931L14.5017 19.8502L14.7332 19.8768C14.8657 19.8921 14.9647 19.955 14.9647 20.0241C14.9647 20.1224 14.77 20.1448 13.9126 20.1448C13.0335 20.1448 12.8605 20.124 12.8605 20.0185ZM15.4065 20.0396C15.4258 19.9817 15.5141 19.9212 15.6029 19.9051C15.6916 19.8891 15.8021 19.8399 15.8484 19.7959C15.8976 19.7492 15.9503 18.8686 15.9752 17.6789C16.0146 15.8002 16.032 15.6156 16.199 15.3052C16.5616 14.631 17.1613 14.2531 17.8684 14.2531C18.2561 14.2531 18.8366 14.4398 18.836 14.5644C18.8355 14.6775 18.5067 15.1789 18.4331 15.1789C18.3951 15.1789 18.2357 15.0842 18.0788 14.9685C17.7182 14.7024 17.3672 14.694 17.2012 14.9474C17.1253 15.0634 17.0674 15.398 17.052 15.8102L17.0267 16.4835L17.5528 16.5086C18.0099 16.5303 18.0788 16.5552 18.0788 16.6979C18.0788 16.8285 18.0204 16.8622 17.7948 16.8622C17.6385 16.8622 17.3923 16.8859 17.2477 16.9149L16.9847 16.9675V18.214C16.9847 19.714 17.0336 19.8923 17.4455 19.8923C17.6531 19.8923 17.7422 19.9302 17.7422 20.0185C17.7422 20.1248 17.5544 20.1448 16.5568 20.1448C15.646 20.1448 15.3796 20.1204 15.4065 20.0396ZM13.3716 15.5463C13.1425 15.2551 13.1513 15.0487 13.4037 14.7963C13.6562 14.5438 13.9437 14.5328 14.2379 14.7642C14.5192 14.9855 14.5307 15.3353 14.2648 15.5851C13.9892 15.844 13.5922 15.8268 13.3716 15.5463ZM29.0219 15.5403C28.6139 15.0216 29.2087 14.3728 29.8047 14.6865C30.0475 14.8143 30.1119 14.9214 30.1135 15.1999C30.1165 15.7479 29.3686 15.981 29.0219 15.5403ZM49.6477 15.5463C49.4186 15.2551 49.4274 15.0487 49.6798 14.7963C50.0732 14.4029 50.7357 14.6596 50.7357 15.2054C50.7357 15.7443 49.9878 15.9787 49.6477 15.5463ZM1.641 12.6403C1.4651 12.5912 1.26111 12.4593 1.18769 12.3473C1.00294 12.0653 0.927845 10.9792 1.08617 10.879C1.3115 10.7363 1.40129 10.8055 1.54253 11.2307C1.80617 12.0245 2.41671 12.4846 3.04892 12.366C3.46001 12.2889 3.64416 12.0388 3.64416 11.5577C3.64416 11.0574 3.45502 10.8314 2.67623 10.4012C1.68288 9.85239 1.40555 9.62678 1.22635 9.22167C1.02256 8.76096 1.06751 8.22437 1.34222 7.83858C1.69705 7.34025 2.73125 7.07766 3.6158 7.2613C4.31139 7.4057 4.37287 7.47553 4.42316 8.1783L4.46637 8.78219H4.24464C4.10111 8.78219 4.02291 8.73648 4.02291 8.65259C4.02291 8.43972 3.70225 7.87711 3.50031 7.73566C3.22819 7.54507 2.66178 7.56688 2.393 7.7783C2.21571 7.91775 2.17123 8.02432 2.17123 8.30964C2.17123 8.76074 2.37356 8.96524 3.34957 9.50061C4.53566 10.1512 4.82144 10.5148 4.76457 11.301C4.72387 11.8637 4.50353 12.2047 3.99439 12.4929C3.7004 12.6593 3.50901 12.6942 2.80249 12.7104C2.33957 12.721 1.8169 12.6895 1.641 12.6403ZM6.22915 12.6112C5.81265 12.4303 5.70775 12.0861 5.69787 10.868C5.68764 9.60871 5.64331 9.41401 5.36628 9.41183C5.24233 9.41085 5.15013 9.35456 5.13383 9.26991C5.10237 9.10657 5.47899 8.97725 6.22234 8.89617L6.69634 8.84446L6.73126 10.2652C6.76837 11.7747 6.81669 11.9684 7.19965 12.1429C7.46676 12.2646 7.91416 12.2568 8.09124 12.1273C8.21906 12.0338 8.23316 11.8699 8.21253 10.7175L8.18919 9.41345L7.95773 9.41677C7.79252 9.41913 7.72627 9.37811 7.72627 9.27343C7.72627 9.10061 8.12256 8.96512 8.84148 8.89212L9.32545 8.84298V10.3628C9.32545 11.1987 9.34844 11.9425 9.37653 12.0157C9.40463 12.089 9.51826 12.1489 9.62904 12.1489C9.7696 12.1489 9.83045 12.1964 9.83045 12.3061C9.83045 12.4259 9.71382 12.4961 9.34097 12.6007C8.7069 12.7786 8.54661 12.7738 8.4213 12.5732C8.31929 12.4098 8.31503 12.4098 7.95918 12.5713C7.52609 12.7679 6.63694 12.7884 6.22915 12.6112ZM10.3512 12.5066C10.3666 12.4256 10.4602 12.3477 10.5592 12.3335C10.803 12.2986 10.838 12.116 10.8393 10.8708C10.8406 9.65541 10.767 9.34743 10.4849 9.3871C10.3666 9.40373 10.2877 9.3644 10.271 9.2805C10.2397 9.12378 10.7118 8.96033 11.4013 8.88917C11.8186 8.8461 11.8505 8.85559 11.8505 9.02292C11.8505 9.24112 11.8257 9.24039 12.2514 9.0347C12.6778 8.82869 13.513 8.80775 13.8732 8.99404C14.3242 9.22726 14.413 9.52602 14.4596 10.967L14.5017 12.268L14.7117 12.3173C14.8272 12.3445 14.9341 12.4313 14.9493 12.5103C14.9742 12.6395 14.8706 12.6539 13.9126 12.6539C12.9545 12.6539 12.8509 12.6395 12.8758 12.5103C12.891 12.4313 12.9979 12.3443 13.1134 12.3169L13.3234 12.2671V11.0222V9.77729L13.0872 9.57433C12.8129 9.33858 12.3995 9.30778 12.1217 9.50239C11.9418 9.62839 11.9346 9.68439 11.9346 10.9648V12.2962L12.1871 12.3467C12.3352 12.3763 12.4396 12.4502 12.4396 12.5255C12.4396 12.6338 12.2736 12.6539 11.3814 12.6539C10.4189 12.6539 10.3257 12.6406 10.3512 12.5066Z" fill="#939FB9"/>
<path d="M24.7184 12.093C24.6118 11.9649 24.3578 11.737 24.1538 11.5867L23.783 11.3134L24.1055 11.0817C24.2829 10.9543 24.4587 10.85 24.4961 10.85C24.6202 10.85 25.0059 11.8838 25.0082 12.2224C25.0093 12.3877 24.9361 12.355 24.7184 12.093ZM20.1758 12.009C19.3068 11.8537 18.3195 11.4004 17.7434 10.892L17.485 10.6641L17.9048 10.7987C18.3881 10.9536 19.5294 10.9861 20.0505 10.8597C20.3549 10.7858 20.3564 10.7863 20.8255 11.0985C21.3255 11.4313 21.7982 11.6492 22.1673 11.7171C22.3069 11.7428 22.2157 11.6869 21.929 11.571C21.4548 11.3793 20.6725 10.8629 20.7027 10.7615C20.7119 10.7306 20.9798 10.6117 21.298 10.4974C22.3772 10.1097 23.2441 9.59173 23.9471 8.91465C24.3906 8.48753 24.6971 8.114 24.8499 7.8146C25.0121 7.49675 25.0398 7.66741 24.8848 8.02909C24.5556 8.79708 23.8449 9.61092 23.0352 10.1471C22.8065 10.2986 22.6194 10.4501 22.6194 10.4838C22.6194 10.5175 22.7792 10.7429 22.9746 10.9847C23.17 11.2265 23.3298 11.4399 23.3298 11.4588C23.3298 11.5283 22.8133 11.7542 22.6543 11.7542C22.5641 11.7542 22.4902 11.7783 22.4902 11.8077C22.4902 11.9806 20.827 12.1253 20.1758 12.009ZM25.9003 10.9135C25.7334 10.8117 25.4501 10.6764 25.2706 10.6126C25.0912 10.5489 24.9444 10.4708 24.9444 10.439C24.9444 10.379 25.3863 9.86358 25.4669 9.82956C25.5557 9.79214 25.9152 10.2405 26.1427 10.6724C26.4 11.161 26.3645 11.1964 25.9003 10.9135ZM18.1446 10.6259C17.0119 10.3893 16.5186 9.92174 16.0677 8.65733C15.9224 8.24987 15.914 8.19179 16.0124 8.27845C16.4041 8.62307 17.1697 8.80793 18.0622 8.77339L18.6394 8.75106L18.9018 9.13309C19.0461 9.34321 19.3733 9.75427 19.6288 10.0466C20.0919 10.5763 20.0928 10.5781 19.9194 10.6157C19.492 10.7082 18.564 10.7135 18.1446 10.6259ZM19.9713 10.0931C19.5619 9.64808 18.9036 8.73178 18.9557 8.67966C18.9715 8.66392 19.1913 8.59371 19.4442 8.52362C20.3819 8.26377 21.5672 7.67884 22.3459 7.09172C23.2177 6.43436 23.7962 5.78449 24.247 4.95586C24.448 4.58647 24.4938 4.53324 24.4655 4.7018C24.4134 5.01177 24.0129 5.77804 23.6396 6.28201C23.1962 6.88051 22.3328 7.66536 21.7104 8.03557L21.1933 8.34319L21.368 8.644C21.4641 8.80944 21.6848 9.15644 21.8584 9.4151L22.174 9.8854L21.8158 10.0438C21.5066 10.1806 21.001 10.3544 20.5118 10.4922C20.4015 10.5233 20.2938 10.4438 19.9713 10.0931ZM26.8284 9.52231C26.6747 9.47399 26.3768 9.41498 26.1664 9.39118C25.9561 9.36739 25.784 9.33277 25.784 9.31426C25.784 9.21292 26.1325 8.5896 26.1891 8.5896C26.3347 8.5896 27.1516 9.28081 27.2768 9.50991C27.3524 9.6484 27.2395 9.65152 26.8284 9.52231ZM16.7893 8.3989C16.5842 8.33336 16.3123 8.20031 16.185 8.10324C15.8172 7.82273 15.7516 7.58587 15.7915 6.68439C15.8104 6.25814 15.8557 5.8329 15.8921 5.73943L15.9583 5.56947L16.2867 5.73197C16.5017 5.8384 16.7664 5.90531 17.0538 5.92587L17.4925 5.95726L17.6693 6.54686C17.7665 6.87115 17.9814 7.42172 18.1469 7.77035C18.3974 8.29805 18.4321 8.41419 18.3539 8.46364C18.1881 8.56852 17.1909 8.52727 16.7893 8.3989ZM18.5984 8.11486C18.2604 7.5102 17.7781 6.2685 17.7763 5.99843C17.7758 5.92176 17.86 5.88255 18.0907 5.85193C18.4433 5.80517 19.1025 5.58865 19.6697 5.33332C20.6318 4.90021 21.887 3.81244 22.2652 3.08401C22.4594 2.7101 22.598 2.58849 22.5231 2.85782C22.3503 3.47931 21.7027 4.40177 21.0611 4.9402C20.7889 5.16871 20.0661 5.63778 19.8845 5.70384C19.8381 5.72071 19.9928 6.09361 20.2944 6.69203C20.5608 7.22064 20.7873 7.67139 20.7977 7.69369C20.8386 7.78158 19.1096 8.39585 18.8213 8.39585C18.7851 8.39585 18.6848 8.2694 18.5984 8.11486ZM26.3244 7.87387C26.3488 7.75247 26.3863 7.54341 26.4078 7.4093C26.4414 7.19966 26.466 7.17065 26.5837 7.20243C26.8294 7.26881 27.8097 7.78046 27.833 7.85446C27.8483 7.90301 27.6384 7.93736 27.1912 7.95949C26.8257 7.97758 26.4712 8.01538 26.4034 8.04349C26.292 8.08971 26.2844 8.07347 26.3244 7.87387ZM26.4637 6.57136C26.396 6.3666 26.4024 5.81196 26.4729 5.78499C26.5771 5.74504 27.3251 5.85609 27.6254 5.95609C27.9882 6.07689 27.9647 6.16365 27.5449 6.2531C27.3401 6.29673 27.0272 6.4041 26.8496 6.49168C26.4703 6.67873 26.4973 6.67315 26.4637 6.57136ZM16.8392 5.64092C16.516 5.57225 16.0965 5.33384 16.0965 5.2188C16.0965 5.03693 16.4499 4.29649 16.749 3.85178C17.1111 3.31334 17.5865 2.82963 17.7078 2.87618C17.7607 2.89648 17.7861 2.89522 17.7643 2.87339C17.709 2.8181 17.958 2.56234 18.2243 2.40077L18.4469 2.26572L18.714 3.05422C18.8609 3.48789 19.1003 4.11881 19.2459 4.45626C19.4878 5.01673 19.5015 5.07692 19.4036 5.15217C19.263 5.26027 18.1936 5.60086 17.9063 5.62903C17.6853 5.6507 17.6806 5.64596 17.6057 5.32813C17.5112 4.92677 17.4955 3.72431 17.5808 3.42677C17.6157 3.30504 17.632 3.19312 17.6169 3.17807C17.6019 3.16302 17.5415 3.31607 17.4827 3.51819C17.373 3.89566 17.3355 5.16045 17.4236 5.51163C17.4649 5.67611 17.4562 5.68303 17.2175 5.67585C17.0805 5.67173 16.9102 5.65601 16.8392 5.64092ZM26.1061 4.84165C26.026 4.62737 25.9727 4.43982 25.9876 4.42487C26.0026 4.40992 26.2771 4.36276 26.5978 4.32007C27.1468 4.24697 27.5277 4.27023 27.5277 4.37687C27.5277 4.40289 27.3931 4.49559 27.2286 4.58287C27.0641 4.67015 26.7911 4.85174 26.622 4.98641C26.4528 5.12108 26.3004 5.23126 26.2831 5.23126C26.2659 5.23126 26.1863 5.05594 26.1061 4.84165ZM25.4574 3.63282C25.3351 3.46409 25.2263 3.30706 25.2156 3.28386C25.1885 3.22512 25.8204 2.93446 26.1715 2.84415C26.3313 2.80304 26.513 2.75464 26.5751 2.7366C26.7665 2.68106 26.7017 2.8228 26.3881 3.14544C26.2231 3.31524 26.0158 3.56338 25.9274 3.69688C25.8391 3.83037 25.7472 3.93959 25.7233 3.93959C25.6993 3.93959 25.5796 3.80154 25.4574 3.63282ZM24.5239 2.63538C24.3467 2.49373 24.1932 2.3549 24.1827 2.32686C24.1552 2.2528 24.7961 1.75652 25.1543 1.57453C25.3231 1.48876 25.4611 1.45028 25.4611 1.48898C25.4611 1.52765 25.3833 1.69199 25.2883 1.85418C25.1932 2.01636 25.0548 2.31643 24.9808 2.52099L24.8461 2.89292L24.5239 2.63538ZM23.2814 1.88647C23.0949 1.79571 22.9423 1.68549 22.9423 1.64153C22.9423 1.47643 23.7798 0.520839 23.9272 0.517699C23.9937 0.516283 23.9881 0.568022 23.8844 0.909733C23.8349 1.07264 23.7737 1.39959 23.7484 1.6363C23.723 1.873 23.6839 2.06326 23.6614 2.05908C23.6389 2.05491 23.4679 1.97723 23.2814 1.88647ZM18.7434 1.78218C18.6405 1.49351 18.5816 0.480505 18.6647 0.429137C18.7021 0.405994 18.8175 0.538106 18.9244 0.726563C19.0302 0.913048 19.2346 1.19881 19.3786 1.36158L19.6405 1.65754L19.2276 1.8198L18.8146 1.98206L18.7434 1.78218ZM20.1188 1.43966C20.0468 1.252 20.3063 0 20.4172 0C20.4422 0 20.5294 0.210703 20.6109 0.46823C20.6924 0.725756 20.8156 1.03458 20.8846 1.1545C20.9536 1.27442 20.9995 1.3831 20.9866 1.39602C20.9737 1.40894 20.7809 1.44442 20.5583 1.47486C20.2331 1.51934 20.1468 1.51242 20.1188 1.43966ZM21.8516 1.48019C21.6958 1.44957 21.5574 1.4137 21.5442 1.40046C21.4472 1.3035 22.0843 0 22.2287 0C22.2576 0 22.2854 0.242383 22.2904 0.538628C22.2954 0.834874 22.3279 1.17617 22.3626 1.29706C22.3973 1.41795 22.4257 1.52432 22.4257 1.53343C22.4257 1.56336 22.1403 1.53689 21.8516 1.48019Z" fill="#939FB9"/>
<path d="M83.0897 16.2092C82.4039 16.8285 81.513 17.0987 80.1027 17.0987H79.5169V9.69905H80.1027C81.513 9.69905 82.3688 9.9514 83.0897 10.604C83.8445 11.2762 84.2987 12.3177 84.2987 13.3897C84.2987 14.4639 83.8445 15.5373 83.0897 16.2092ZM80.5399 7.80313H77.3359V18.993H80.523C82.2178 18.993 83.4415 18.5932 84.5157 17.7013C85.7921 16.6449 86.547 15.0527 86.547 13.4058C86.547 10.1036 84.0797 7.80313 80.5399 7.80313Z" fill="#939FB9"/>
<path d="M87.5508 18.993H89.7335V7.80313H87.5508V18.993Z" fill="#939FB9"/>
<path d="M95.0697 12.0974C93.7599 11.6127 93.3753 11.2931 93.3753 10.6885C93.3753 9.98377 94.0605 9.4482 95.0013 9.4482C95.6553 9.4482 96.1928 9.71682 96.7615 10.3545L97.9035 8.85898C96.965 8.03807 95.8421 7.61837 94.6153 7.61837C92.6355 7.61837 91.1253 8.99331 91.1253 10.8247C91.1253 12.3664 91.8285 13.1556 93.8784 13.8934C94.7328 14.1948 95.1677 14.3956 95.3872 14.5307C95.8233 14.8155 96.0417 15.2186 96.0417 15.6885C96.0417 16.5952 95.3208 17.2669 94.347 17.2669C93.3059 17.2669 92.4674 16.7463 91.9649 15.7745L90.5547 17.1322C91.5603 18.6083 92.7681 19.2626 94.4288 19.2626C96.6972 19.2626 98.2883 17.7544 98.2883 15.5882C98.2883 13.8103 97.5527 13.0055 95.0697 12.0974Z" fill="#939FB9"/>
<path d="M98.9785 13.4113C98.9785 16.7004 101.561 19.2509 104.885 19.2509C105.824 19.2509 106.629 19.0661 107.621 18.5987V16.0293C106.749 16.9027 105.976 17.2549 104.986 17.2549C102.788 17.2549 101.228 15.6612 101.228 13.3952C101.228 11.2468 102.837 9.55202 104.885 9.55202C105.926 9.55202 106.714 9.92352 107.621 10.8111V8.243C106.663 7.75693 105.876 7.55563 104.936 7.55563C101.63 7.55563 98.9785 10.1577 98.9785 13.4113Z" fill="#939FB9"/>
<path d="M124.929 15.3214L121.945 7.80509H119.561L124.309 19.2821H125.484L130.318 7.80509H127.952L124.929 15.3214Z" fill="#939FB9"/>
<path d="M131.305 18.993H137.495V17.0987H133.486V14.0782H137.347V12.1827H133.486V9.69905H137.495V7.80313H131.305V18.993Z" fill="#939FB9"/>
<path d="M141.757 12.9548H141.12V9.56568H141.792C143.151 9.56568 143.89 10.1352 143.89 11.2242C143.89 12.3492 143.151 12.9548 141.757 12.9548ZM146.136 11.1067C146.136 9.0118 144.693 7.80313 142.176 7.80313H138.939V18.993H141.12V14.4979H141.404L144.425 18.993H147.11L143.587 14.2789C145.231 13.9447 146.136 12.8201 146.136 11.1067Z" fill="#939FB9"/>
<path d="M147.114 8.35717H147.075V8.10013H147.117C147.233 8.10013 147.293 8.14193 147.293 8.22661C147.293 8.31365 147.232 8.35717 147.114 8.35717ZM147.528 8.223C147.528 8.02687 147.393 7.91963 147.156 7.91963H146.84V8.9032H147.075V8.52172L147.35 8.9032H147.637L147.313 8.4976C147.451 8.46033 147.528 8.35954 147.528 8.223Z" fill="#939FB9"/>
<path d="M147.201 9.11714C146.825 9.11714 146.518 8.80435 146.518 8.4141C146.518 8.02244 146.821 7.70982 147.201 7.70982C147.575 7.70982 147.88 8.02962 147.88 8.4141C147.88 8.80107 147.575 9.11714 147.201 9.11714ZM147.204 7.55545C146.727 7.55545 146.348 7.93664 146.348 8.41286C146.348 8.88875 146.731 9.27039 147.204 9.27039C147.67 9.27039 148.051 8.88466 148.051 8.41286C148.051 7.94338 147.67 7.55545 147.204 7.55545Z" fill="#939FB9"/>
<g filter="url(#filter0_d)">
<circle cx="114.128" cy="13.6833" r="6.13201" fill="url(#paint0_linear)"/>
</g>
</g>
<defs>
<filter id="filter0_d" x="57.9961" y="-32.4487" width="112.264" height="112.264" filterUnits="userSpaceOnUse" color-interpolation-filters="sRGB">
<feFlood flood-opacity="0" result="BackgroundImageFix"/>
<feColorMatrix in="SourceAlpha" type="matrix" values="0 0 0 0 0 0 0 0 0 0 0 0 0 0 0 0 0 0 127 0"/>
<feOffset dy="10"/>
<feGaussianBlur stdDeviation="25"/>
<feColorMatrix type="matrix" values="0 0 0 0 0 0 0 0 0 0 0 0 0 0 0 0 0 0 0.13 0"/>
<feBlend mode="normal" in2="BackgroundImageFix" result="effect1_dropShadow"/>
<feBlend mode="normal" in="SourceGraphic" in2="effect1_dropShadow" result="shape"/>
</filter>
<linearGradient id="paint0_linear" x1="114.128" y1="7.55127" x2="114.128" y2="19.8153" gradientUnits="userSpaceOnUse">
<stop stop-color="#53607D"/>
<stop offset="1" stop-color="#53607D" stop-opacity="0"/>
</linearGradient>
</defs>
</svg>
