<svg xmlns="http://www.w3.org/2000/svg" width="217" height="160" fill="none" viewBox="0 0 217 160">
    <rect width="50" height="136" x="158" y="12" fill="#C5ECFF" opacity=".5" rx="10"/>
    <rect width="182" height="159" x="19.5" y=".5" fill="#fff" stroke="#E5EFFE" rx="14.5"/>
    <rect width="47" height="24" x="34.5" y="15.5" fill="#EFF5FF" stroke="#E5EFFE" rx="4.5"/>
    <rect width="85" height="24" x="34.5" y="105.5" fill="#EFF5FF" stroke="#E5EFFE" rx="4.5"/>
    <rect width="73" height="15" x="34" y="50" fill="#F9F9FC" rx="5"/>
    <rect width="73" height="15" x="34" y="140" fill="#F9F9FC" opacity=".5" rx="5"/>
    <rect width="73" height="15" x="34" y="75" fill="#F9F9FC" rx="5"/>
    <rect width="73" height="15" x="114" y="50" fill="#F9F9FC" rx="5"/>
    <rect width="73" height="15" x="114" y="140" fill="#F9F9FC" opacity=".5" rx="5"/>
    <rect width="73" height="15" x="114" y="75" fill="#F9F9FC" opacity=".5" rx="5"/>
    <rect width="53.017" height="53.017" x="163" y="10" fill="#C0F1E3" rx="4"/>
    <rect width="28.068" height="28.068" x="175.475" y="22.475" fill="url(#paint0_linear)" rx="2"/>
    <path fill="#FCFCFC" d="M184.496 38.513c-1.658 0-3.007-1.349-3.007-3.007 0-1.658 1.349-3.008 3.007-3.008 1.658 0 3.007 1.35 3.007 3.008s-1.349 3.007-3.007 3.007zM200.893 46.533h-20.761c-.261 0-.497-.153-.597-.388-.1-.235-.044-.504.142-.683l6.504-6.265c.253-.244.66-.243.912.001l1.482 1.437 4.065-3.943c.128-.123.302-.19.481-.183.18.006.348.085.466.217l7.796 8.771c.165.186.203.447.098.67-.105.223-.335.366-.588.366z" opacity=".7"/>
    <rect width="53.017" height="53.017" x="135" y="96" fill="#FFE5E6" rx="4"/>
    <path fill="url(#paint1_linear)" d="M171.064 132.705c2.73-2.549 4.478-6.184 4.478-10.196 0-7.714-6.32-14.034-14.033-14.034-7.714 0-14.034 6.32-14.034 14.034 0 7.713 6.32 14.033 14.034 14.033 3.091 0 5.953-1.058 8.272-2.768.23-.164 2.311 1.129 2.311 1.129s-1.226-2.009-1.028-2.198z"/>
    <path fill="url(#paint2_linear)" d="M174.722 134.898c-1.513 0-2.949-.894-3.656-2.193-.395.378-.823.74-1.283 1.069 1.036 1.661 2.933 2.768 4.939 2.768.46 0 .822-.361.822-.822 0-.46-.362-.822-.822-.822zm-13.146-16.501c1.813 0 3.289-1.475 3.289-3.289s-1.476-3.289-3.289-3.289c-1.813 0-3.289 1.475-3.289 3.289s1.476 3.289 3.289 3.289zm-3.911 2.84c.561-1.724-.387-3.583-2.112-4.144-1.722-.56-3.58.378-4.143 2.113-.561 1.724.387 3.583 2.112 4.144 1.73.561 3.582-.383 4.143-2.113zm1.494 4.598c-1.463-1.066-3.524-.748-4.593.727-1.07 1.471-.743 3.529.727 4.594 1.472 1.069 3.53.737 4.594-.726 1.07-1.471.742-3.529-.728-4.595zm12.583-6.629c-.558-1.72-2.402-2.677-4.143-2.113-1.738.565-2.671 2.426-2.112 4.144.562 1.73 2.414 2.674 4.143 2.113 1.725-.561 2.673-2.42 2.112-4.144zm-7.765 3.302c0-1.36-1.106-2.466-2.467-2.466-1.36 0-2.467 1.106-2.467 2.466 0 1.361 1.107 2.467 2.467 2.467 1.361 0 2.467-1.106 2.467-2.467zm.016 3.327c-1.475 1.07-1.794 3.129-.727 4.595 1.06 1.46 3.11 1.802 4.593.727 1.475-1.071 1.794-3.129.728-4.595-1.074-1.48-3.136-1.789-4.594-.727z"/>
    <rect width="53.017" height="53.017" y="76" fill="#FFF7E0" rx="4"/>
    <path fill="#FFE8A6" d="M33.445 111.852L20.29 98.586c-.155-.156-.365-.244-.584-.244h-3.29c-.454 0-.822.368-.822.823v16.555c0 .454.368.823.823.823H32.86c.455 0 .823-.369.823-.823v-3.289c0-.217-.086-.425-.239-.579zM29.682 95.93l-.932-.877v-2.467c0-.454-.368-.822-.822-.822-.454 0-.823.368-.823.822v2.467l-.767.877v3.125h3.344V95.93z"/>
    <path fill="url(#paint3_linear)" d="M36.15 95.053h-7.4v2.467c0 .454-.368.822-.822.822-.454 0-.823-.368-.823-.822v-2.467h-7.4c-.454 0-.823.368-.823.822v16.556c0 .454.368.822.823.822H36.15c.454 0 .822-.368.822-.822V95.875c0-.454-.368-.822-.822-.822zm-8.222-1.645c1.36 0 2.466-1.106 2.466-2.466s-1.106-2.467-2.466-2.467-2.467 1.106-2.467 2.467c0 1.36 1.106 2.466 2.467 2.466z"/>
    <defs>
        <linearGradient id="paint0_linear" x1="186.39" x2="186.395" y1="50.542" y2="10.78" gradientUnits="userSpaceOnUse">
            <stop stop-color="#00C48C"/>
            <stop offset="1" stop-color="#00C48C" stop-opacity="0"/>
        </linearGradient>
        <linearGradient id="paint1_linear" x1="161.509" x2="161.509" y1="136.542" y2="108.475" gradientUnits="userSpaceOnUse">
            <stop stop-color="#FD3A84"/>
            <stop offset="1" stop-color="#FFA68D"/>
        </linearGradient>
        <linearGradient id="paint2_linear" x1="163.396" x2="163.396" y1="131.83" y2="111.819" gradientUnits="userSpaceOnUse">
            <stop stop-color="#FFC2CC"/>
            <stop offset="1" stop-color="#FFF2F4"/>
        </linearGradient>
        <linearGradient id="paint3_linear" x1="27.928" x2="27.928" y1="113.253" y2="88.475" gradientUnits="userSpaceOnUse">
            <stop stop-color="#FD5900"/>
            <stop offset="1" stop-color="#FFDE00"/>
        </linearGradient>
    </defs>
</svg>
