<svg xmlns="http://www.w3.org/2000/svg" width="45" height="45" fill="none" viewBox="0 0 45 45">
    <rect width="45" height="45" fill="#FFE5E6" rx="22.5"/>
    <path fill="#FF4651" d="M23 12c-6.617 0-12 4.913-12 10.952 0 .362.026 3.562.928 5.2.188.398 1.676 3.305 5.161 3.835.058.009.116.013.173.013.501 0 .943-.33 1.028-.796.095-.519-.29-1.01-.857-1.096-.62-.094-1.152-.308-1.602-.575.826-.183 1.62-.569 2.21-1.107.876-.8 1.351-1.944 1.27-3.062-.07-.982-.558-1.837-1.373-2.408-.395-.276-1.195-.665-3.58-.857-.44-.036-.86-.059-1.22-.073.51-4.555 4.739-8.121 9.862-8.121s9.352 3.566 9.861 8.12c-.358.016-.778.038-1.219.074-2.385.192-3.186.581-3.58.857-.815.57-1.303 1.426-1.374 2.409-.08 1.117.395 2.262 1.27 3.061.84.766 2.093 1.225 3.264 1.225.198 0 .394-.013.585-.04 1.008-.142 1.805-.647 2.243-1.42.923-1.626.95-4.874.95-5.239C35 16.913 29.617 12 23 12zm-6.332 12.468c.425.297.54.72.561 1.021.041.57-.213 1.18-.663 1.59-.517.472-1.38.745-2.054.65-.516-.073-.661-.33-.71-.414-.398-.704-.606-2.19-.681-3.387 1.666.071 3.195.293 3.547.54zm15.53 2.847c-.048.084-.194.34-.71.414-.673.095-1.537-.178-2.053-.65-.45-.41-.705-1.02-.664-1.59.022-.302.137-.724.56-1.021.353-.247 1.883-.469 3.549-.54-.075 1.195-.283 2.682-.683 3.387z"/>
</svg>
