<svg xmlns="http://www.w3.org/2000/svg" width="45" height="45" fill="none" viewBox="0 0 45 45">
    <rect width="45" height="45" fill="#FFF7E0" rx="22.5"/>
    <path fill="#FB0" d="M18.845 23.68l-.554.537c-.079.076-.122.18-.122.29v.229c0 .222.18.403.403.403h3.306c.223 0 .404-.18.404-.403v-.297c0-.223-.18-.403-.404-.403h-1.827l.05-.047c1.195-1.15 2.04-2.055 2.04-3.234 0-.943-.613-1.894-1.982-1.894-.598 0-1.183.192-1.648.54-.151.113-.204.316-.126.489l.102.224c.049.11.144.191.26.223.115.032.24.01.338-.058.3-.209.607-.315.916-.315.6 0 .904.299.904.883-.008.793-.665 1.504-2.06 2.833z"/>
    <path fill="#FB0" d="M24.873 18.96c-.011-.002-.022-.002-.033-.002h-.123c-.132 0-.255.064-.33.172l-2.47 3.534c-.047.068-.072.148-.072.231v.283c0 .223.18.403.403.403h2.255v1.155c0 .223.18.403.403.403h.385c.222 0 .403-.18.403-.403v-1.155h.397c.223 0 .404-.18.404-.403v-.262c0-.222-.181-.403-.404-.403h-.397v-3.152c0-.222-.18-.403-.403-.403h-.385l-.033.001zm-.37 3.553h-1.218c.31-.449.838-1.22 1.218-1.79v1.79z"/>
    <path fill="#FB0" d="M22.35 31.256c-4.745 0-8.606-3.86-8.606-8.605 0-4.494 3.462-8.193 7.858-8.573v1.371c0 .098.054.187.14.233.039.02.081.031.124.031.051 0 .103-.015.147-.045l3.115-2.092c.073-.05.116-.132.116-.22 0-.087-.043-.17-.116-.218l-3.115-2.093c-.081-.054-.185-.06-.271-.014-.086.046-.14.135-.14.233v1.064C16.242 12.712 12 17.195 12 22.65 12 28.357 16.643 33 22.35 33c2.642 0 5.157-.995 7.082-2.803l-1.193-1.271c-1.601 1.503-3.692 2.33-5.89 2.33zM31.186 17.257c-.357-.584-.774-1.134-1.24-1.637l-1.279 1.185c.387.418.734.877 1.03 1.361l1.489-.91zM30.873 21.482l1.728-.235c-.092-.68-.253-1.351-.477-1.997l-1.647.573c.186.536.32 1.094.396 1.659zM28.287 14.171c-.561-.393-1.163-.732-1.79-1.006l-.7 1.598c.521.227 1.022.509 1.489.836l1-1.428zM28.997 28.115l1.346 1.108c.436-.529.82-1.103 1.142-1.706l-1.539-.821c-.268.501-.587.979-.95 1.42zM30.927 23.316c-.043.569-.143 1.135-.298 1.68l1.679.475c.185-.657.306-1.338.358-2.022l-1.738-.133z"/>
</svg>
