<svg xmlns="http://www.w3.org/2000/svg" width="211" height="160" fill="none" viewBox="0 0 211 160">
    <rect width="50" height="136" x="141" y="12" fill="#C5ECFF" opacity=".5" rx="10"/>
    <rect width="182" height="159" x=".5" y=".5" fill="#fff" stroke="#E5EFFE" rx="14.5"/>
    <path stroke="#E5EFFE" d="M21 47.5h141c5.247 0 9.5 4.253 9.5 9.5v102.5h-160V57c0-5.247 4.253-9.5 9.5-9.5z"/>
    <rect width="119" height="10" x="32" y="55" fill="#F9F9FC" rx="5"/>
    <rect width="65" height="10" x="32" y="75" fill="#F9F9FC" rx="5"/>
    <rect width="2" height="15" x="103" y="72" fill="#12121F" rx="1"/>
    <rect width="119" height="52" x="32" y="96" fill="#fff" stroke="#E4EEFF" rx="4"/>
    <path fill="#E0E9FA" d="M105.775 125.897c.774-1.306 2.664-1.306 3.439-.001l5.991 10.082c.792 1.334-.169 3.022-1.72 3.022h-11.973c-1.55 0-2.51-1.687-1.72-3.021l5.983-10.082z" opacity=".5"/>
    <path fill="#E0E9FA" d="M85.268 112c.77-1.333 2.694-1.333 3.464 0l13.856 24c.77 1.333-.192 3-1.732 3H73.144c-1.54 0-2.502-1.667-1.733-3l13.857-24z"/>
    <circle cx="99.5" cy="114.5" r="4.5" fill="#E0E9FA"/>
    <g filter="url(#filter0_d)">
        <rect width="189" height="30" x="11" y="10" fill="#fff" rx="4"/>
        <rect width="189" height="30" x="11" y="10" stroke="#E5EFFE" rx="4"/>
    </g>
    <path fill="#000" stroke="#000" d="M41 17c0-2.21 1.79-4 4-4h16c2.21 0 4 1.79 4 4v16c0 2.21-1.79 4-4 4H45c-2.21 0-4-1.79-4-4V17z"/>
    <path fill="#000" d="M31.26 25c.817-.62 1.34-1.566 1.34-2.625C32.6 20.514 30.985 19 29 19h-6v1.5h.8v9H23V31h6c1.985 0 3.6-1.514 3.6-3.375 0-1.06-.523-2.006-1.34-2.625zM29 29.5h-3.6v-3.75H29c1.103 0 2 .841 2 1.875s-.897 1.875-2 1.875zm0-5.25h-3.6V20.5H29c1.103 0 2 .841 2 1.875s-.897 1.875-2 1.875z"/>
    <path fill="#fff" d="M46.633 22.555h12.03v1.718h-12.03v-1.718zM46.633 26.109h12.03v1.718h-12.03V26.11zM46.602 29.282h8.592V31h-8.592v-1.718zM46.633 19h12.03v1.718h-12.03V19z"/>
    <path fill="#000" d="M76.26 28.53c.146.147.338.22.53.22s.384-.073.53-.22l4.656-4.655L77.1 19l-1.06 1.06.814.815-3.595 3.595c-.293.293-.293.767 0 1.06l3 3zm1.655-6.595l1.94 1.94L78.728 25h-3.878l3.064-3.064zM82.04 28.75c.621 0 1.125-.504 1.125-1.125S82.04 25.75 82.04 25.75s-1.125 1.254-1.125 1.875.504 1.125 1.125 1.125zM72.664 29.5h10.5V31h-10.5v-1.5zM109.234 30.22L104.195 19h-.768l-4.831 11.22h-1.432V31h4.156v-.78h-1.876l1.242-2.882h4.581l1.295 2.883h-1.294V31h5.195v-.78h-1.229zm-8.213-3.662l1.907-4.429 1.989 4.43h-3.896zM136.109 21.483c.195 0 .352-.158.352-.352v-1.78c0-.194-.157-.351-.352-.351h-1.779c-.194 0-.352.157-.352.352v.538h-7.034v-.538c0-.195-.158-.352-.352-.352h-1.78c-.194 0-.351.157-.351.352v1.78c0 .193.157.35.351.35h.539v7.035h-.539c-.194 0-.351.158-.351.352v1.78c0 .194.157.351.351.351h1.78c.194 0 .352-.157.352-.352v-.538h7.034v.538c0 .195.158.352.352.352h1.779c.195 0 .352-.157.352-.352v-1.78c0-.193-.157-.35-.352-.35h-.538v-7.035h.538zm-1.428-1.78h1.077v1.076h-1.077v-1.076zm-9.517 0h1.076v1.076h-1.076v-1.076zm1.076 10.594h-1.076V29.22h1.076v1.076zm9.518 0h-1.077V29.22h1.077v1.076zm-.89-1.78h-.538c-.194 0-.352.158-.352.352v.538h-7.034v-.538c0-.194-.158-.352-.352-.352h-.538v-7.034h.538c.194 0 .352-.158.352-.352v-.538h7.034v.538c0 .194.158.352.352.352h.538v7.034z"/>
    <path fill="#000" d="M132.98 22.215h-5.039c-.194 0-.351.157-.351.351v1.279c0 .194.157.351.351.351.195 0 .352-.157.352-.351v-.927h1.816v4.211h-.655c-.194 0-.351.157-.351.352 0 .194.157.351.351.351h2.014c.194 0 .351-.157.351-.351 0-.195-.157-.352-.351-.352h-.656v-4.211h1.817v.927c0 .194.157.351.351.351.195 0 .352-.157.352-.351v-1.279c0-.194-.157-.351-.352-.351zM161.538 20h-10.154c-.518 0-.923.405-.923.923v8.092c0 .518.405.924.923.924h10.154c.517 0 .923-.406.923-.924v-8.092c0-.517-.406-.923-.923-.923zm0 9.015h-10.154l-.007-8.091h10.161v8.091z"/>
    <path fill="#000" d="M155.046 22.936c-.155-.188-.431-.222-.628-.077l-3.77 2.77.547.743 3.418-2.512 4.861 5.865.711-.589-5.139-6.2z"/>
    <path fill="#000" d="M159.489 23.346c-.168-.133-.406-.133-.574 0l-2.185 1.74.575.721 1.898-1.51 2.513 1.988.573-.724-2.8-2.215zM187.637 19.824c-1.098-1.099-2.879-1.099-3.977 0l-2.351 2.35c-1.136 1.137-1.031 2.947 0 3.978.173.172.364.313.566.429l.429-.43c.281-.28.182-.61.177-.847-.062-.044-.122-.091-.177-.146-.529-.53-.553-1.436 0-1.99l2.35-2.35c.549-.548 1.441-.548 1.989 0 .548.549.548 1.44 0 1.989l-1.554 1.554c.045.248.315.837.176 1.809l.022-.018 2.35-2.35c1.099-1.1 1.099-2.88 0-3.978z"/>
    <path fill="#000" d="M183.795 23.666c-.173-.173-.364-.313-.565-.429l-.429.43c-.282.28-.183.61-.178.847.062.044.122.091.178.146.529.53.552 1.436 0 1.99l-2.533 2.532c-.549.548-1.441.548-1.989 0s-.548-1.44 0-1.989l1.736-1.736c-.045-.248-.315-.837-.176-1.809l-.022.018-2.532 2.533c-1.099 1.098-1.099 2.879 0 3.977 1.098 1.099 2.879 1.099 3.977 0l2.533-2.532c1.115-1.115 1.054-2.924 0-3.978z"/>
    <defs>
        <filter id="filter0_d" width="210" height="51" x=".5" y="4.5" color-interpolation-filters="sRGB" filterUnits="userSpaceOnUse">
            <feFlood flood-opacity="0" result="BackgroundImageFix"/>
            <feColorMatrix in="SourceAlpha" values="0 0 0 0 0 0 0 0 0 0 0 0 0 0 0 0 0 0 127 0"/>
            <feOffset dy="5"/>
            <feGaussianBlur stdDeviation="5"/>
            <feColorMatrix values="0 0 0 0 0 0 0 0 0 0 0 0 0 0 0 0 0 0 0.1 0"/>
            <feBlend in2="BackgroundImageFix" result="effect1_dropShadow"/>
            <feBlend in="SourceGraphic" in2="effect1_dropShadow" result="shape"/>
        </filter>
    </defs>
</svg>
