<svg xmlns="http://www.w3.org/2000/svg" width="199" height="160" fill="none" viewBox="0 0 199 160">
    <rect width="42" height="136" x="149" y="12" fill="#C5ECFF" opacity=".5" rx="10"/>
    <rect width="182" height="159" x=".5" y=".5" fill="#fff" stroke="#E5EFFE" rx="14.5"/>
    <rect width="75" height="10" x="85" y="61" fill="#F9F9FC" rx="5"/>
    <rect width="115" height="10" x="34" y="134" fill="#F9F9FC" opacity=".5" rx="5"/>
    <rect width="75" height="10" x="85" y="85" fill="#F9F9FC" rx="5"/>
    <rect width="41" height="10" x="85" y="109" fill="#F9F9FC" rx="5"/>
    <path fill="#F9F9FC" d="M40.5 122C70.765 122 71 108.345 71 91.5S70.765 61 40.5 61 10 74.655 10 91.5s.235 30.5 30.5 30.5z"/>
    <rect width="83" height="65" x="81" y="57" stroke="#001033" stroke-dasharray="2 4" stroke-linecap="round" stroke-linejoin="round" opacity=".5" rx="2"/>
    <rect width="6" height="6" x="78" y="54" fill="#001033" rx="3"/>
    <rect width="6" height="6" x="78" y="119" fill="#001033" rx="3"/>
    <rect width="6" height="6" x="161" y="54" fill="#001033" rx="3"/>
    <rect width="6" height="6" x="161" y="119" fill="#001033" rx="3"/>
    <rect width="189" height="30" x="10" y="10" fill="#001033" rx="10"/>
    <path stroke="#00C48C" d="M65 17c0-2.21 1.79-4 4-4h16c2.21 0 4 1.79 4 4v16c0 2.21-1.79 4-4 4H69c-2.21 0-4-1.79-4-4V17z"/>
    <path fill="#fff" d="M30.26 25c.817-.62 1.34-1.566 1.34-2.625C31.6 20.514 29.985 19 28 19h-6v1.5h.8v9H22V31h6c1.985 0 3.6-1.514 3.6-3.375 0-1.06-.523-2.006-1.34-2.625zM28 29.5h-3.6v-3.75H28c1.103 0 2 .841 2 1.875s-.897 1.875-2 1.875zm0-5.25h-3.6V20.5H28c1.103 0 2 .841 2 1.875s-.897 1.875-2 1.875zM45.633 22.555h12.03v1.718h-12.03v-1.718zM45.633 26.109h12.03v1.718h-12.03V26.11zM45.602 29.282h8.592V31h-8.592v-1.718zM45.633 19h12.03v1.718h-12.03V19zM75.26 28.53c.146.147.338.22.53.22s.384-.073.53-.22l4.656-4.655L76.1 19l-1.06 1.06.814.815-3.595 3.595c-.293.293-.293.767 0 1.06l3 3zm1.655-6.595l1.94 1.94L77.728 25h-3.878l3.064-3.064zM81.04 28.75c.621 0 1.125-.504 1.125-1.125S81.04 25.75 81.04 25.75s-1.125 1.254-1.125 1.875.504 1.125 1.125 1.125zM71.664 29.5h10.5V31h-10.5v-1.5zM108.234 30.22L103.195 19h-.768l-4.831 11.22h-1.432V31h4.156v-.78h-1.876l1.242-2.882h4.581l1.295 2.883h-1.294V31h5.195v-.78h-1.229zm-8.213-3.662l1.907-4.429 1.989 4.43h-3.896zM135.109 21.483c.195 0 .352-.158.352-.352v-1.78c0-.194-.157-.351-.352-.351h-1.779c-.194 0-.352.157-.352.352v.538h-7.034v-.538c0-.195-.158-.352-.352-.352h-1.78c-.194 0-.351.157-.351.352v1.78c0 .193.157.35.351.35h.539v7.035h-.539c-.194 0-.351.158-.351.352v1.78c0 .194.157.351.351.351h1.78c.194 0 .352-.157.352-.352v-.538h7.034v.538c0 .195.158.352.352.352h1.779c.195 0 .352-.157.352-.352v-1.78c0-.193-.157-.35-.352-.35h-.538v-7.035h.538zm-1.428-1.78h1.077v1.076h-1.077v-1.076zm-9.517 0h1.076v1.076h-1.076v-1.076zm1.076 10.594h-1.076V29.22h1.076v1.076zm9.518 0h-1.077V29.22h1.077v1.076zm-.89-1.78h-.538c-.194 0-.352.158-.352.352v.538h-7.034v-.538c0-.194-.158-.352-.352-.352h-.538v-7.034h.538c.194 0 .352-.158.352-.352v-.538h7.034v.538c0 .194.158.352.352.352h.538v7.034z"/>
    <path fill="#fff" d="M131.98 22.215h-5.039c-.194 0-.351.157-.351.351v1.279c0 .194.157.351.351.351.195 0 .352-.157.352-.351v-.927h1.816v4.211h-.655c-.194 0-.351.157-.351.352 0 .194.157.351.351.351h2.014c.194 0 .351-.157.351-.351 0-.195-.157-.352-.351-.352h-.656v-4.211h1.817v.927c0 .194.157.351.351.351.195 0 .352-.157.352-.351v-1.279c0-.194-.157-.351-.352-.351zM160.538 20h-10.154c-.518 0-.923.405-.923.923v8.092c0 .518.405.924.923.924h10.154c.517 0 .923-.406.923-.924v-8.092c0-.517-.406-.923-.923-.923zm0 9.015h-10.154l-.007-8.091h10.161v8.091z"/>
    <path fill="#fff" d="M154.046 22.936c-.155-.188-.431-.222-.628-.077l-3.77 2.77.547.743 3.418-2.512 4.861 5.865.711-.589-5.139-6.2z"/>
    <path fill="#fff" d="M158.489 23.346c-.168-.133-.406-.133-.574 0l-2.185 1.74.575.721 1.898-1.51 2.513 1.988.573-.724-2.8-2.215zM186.637 19.824c-1.098-1.099-2.879-1.099-3.977 0l-2.351 2.35c-1.136 1.137-1.031 2.947 0 3.978.173.172.364.313.566.429l.429-.43c.281-.28.182-.61.177-.847-.062-.044-.122-.091-.177-.146-.529-.53-.553-1.436 0-1.99l2.35-2.35c.549-.548 1.441-.548 1.989 0 .548.549.548 1.44 0 1.989l-1.554 1.554c.045.248.315.837.176 1.809l.022-.018 2.35-2.35c1.099-1.1 1.099-2.88 0-3.978z"/>
    <path fill="#fff" d="M182.795 23.666c-.173-.173-.364-.313-.565-.429l-.429.43c-.282.28-.183.61-.178.847.062.044.122.091.178.146.529.53.552 1.436 0 1.99l-2.533 2.532c-.549.548-1.441.548-1.989 0s-.548-1.44 0-1.989l1.736-1.736c-.045-.248-.315-.837-.176-1.809l-.022.018-2.532 2.533c-1.099 1.098-1.099 2.879 0 3.977 1.098 1.099 2.879 1.099 3.977 0l2.533-2.532c1.115-1.115 1.054-2.924 0-3.978z"/>
    <rect width="159" height="10" x="11" y="144" fill="url(#paint0_linear)" rx="5"/>
    <circle cx="132" cy="149" r="4.5" stroke="#E5EFFE"/>
    <defs>
        <linearGradient id="paint0_linear" x1="11" x2="176" y1="149" y2="149" gradientUnits="userSpaceOnUse">
            <stop stop-color="#FC1100"/>
            <stop offset=".173" stop-color="#F3FD03"/>
            <stop offset=".373" stop-color="#00FE69"/>
            <stop offset=".561" stop-color="#00F7F6"/>
            <stop offset=".752" stop-color="#055DFF"/>
            <stop offset=".876" stop-color="#F20299"/>
            <stop offset=".973" stop-color="#F20202"/>
        </linearGradient>
    </defs>
</svg>
