<svg xmlns="http://www.w3.org/2000/svg" width="45" height="45" fill="none" viewBox="0 0 45 45">
    <rect width="45" height="45" fill="#E4EEFF" rx="22.5"/>
    <path fill="#123399" d="M25.862 33h-.042c-1.31-.007-2.738-.34-4.243-.988-.376-.163-3.198-1.572-3.035-1.948.162-.377.847-1.023 3.623.585 1.302.561 2.569.861 3.663.867h.033c1.369 0 2.51-.416 3.307-1.204l.005-.006c.484-.54.455-1.356-.067-1.859-1.993-1.922-2.934-1.782-3.805-.933l-1.385 1.375c-.218.216-.545.276-.825.152-.079-.035-1.946-.88-4.05-2.984l-.098-.098c-2.104-2.104-2.949-3.971-2.984-4.05-.124-.28-.064-.607.152-.825l1.375-1.386c.85-.87.989-1.811-.933-3.804-.503-.522-1.32-.551-1.86-.067l-.005.005c-.794.803-1.21 1.957-1.204 3.34.014 2.667 1.525 5.764 4.045 8.286l.006.006c.482.482 1.03.96 1.634 1.422.325.25 3.246 2.108 2.996 2.433-.25.326-3.575-1.006-3.9-1.255-.65-.5-1.247-1.018-1.772-1.543l-.007-.007c-2.794-2.793-4.47-6.283-4.486-9.334-.009-1.796.562-3.321 1.652-4.41.01-.01.019-.02.029-.028l.02-.02c.548-.49 1.254-.747 1.99-.72.734.026 1.42.332 1.93.862 1 1.036 1.577 1.905 1.816 2.733.33 1.14.03 2.198-.891 3.14l-.004.005-.996 1.003c.353.627 1.13 1.847 2.447 3.164l.097.098c1.327 1.326 2.54 2.098 3.164 2.448l1.004-.997.004-.004c.943-.921 2-1.221 3.141-.891.828.239 1.697.816 2.733 1.815.53.51.836 1.197.862 1.932.027.735-.23 1.44-.72 1.988l-.02.021-.027.03C29.15 32.428 27.64 33 25.86 33zM31 18.639C31 16.08 28.92 14 26.361 14c-2.557 0-4.638 2.08-4.638 4.639 0 2.558 2.08 4.638 4.638 4.638s4.64-2.08 4.64-4.638zm-1.484 0c0 1.739-1.415 3.154-3.155 3.154-1.739 0-3.154-1.415-3.154-3.154 0-1.74 1.415-3.155 3.154-3.155 1.74 0 3.155 1.415 3.155 3.155zm-1.336 0c0-.41-.332-.742-.742-.742h-.412v-.778c0-.41-.333-.742-.743-.742s-.738.332-.738.742v1.52c0 .41.329.742.738.742h1.155c.41 0 .742-.332.742-.742z"/>
</svg>
