<svg xmlns="http://www.w3.org/2000/svg" width="45" height="45" fill="none" viewBox="0 0 45 45">
    <rect width="45" height="45" fill="#D1FFF2" rx="22.5"/>
    <path fill="#29B68D" d="M27.359 32.732H16.917c-1.612 0-2.917-1.305-2.917-2.917v-13.82c0-1.612 1.305-2.917 2.917-2.917h5.451c.461 0 .845.384.845.845 0 .46-.384.844-.845.844h-5.45c-.692 0-1.229.538-1.229 1.229v13.819c0 .69.537 1.228 1.228 1.228h10.518c.691 0 1.229-.537 1.229-1.228v-5.681c0-.461.384-.845.844-.845.461 0 .845.384.845.845v5.68c-.077 1.613-1.382 2.918-2.994 2.918z"/>
    <path fill="#29B68D" d="M25.443 25.666h-6.602c-.461 0-.845-.384-.845-.845 0-.46.384-.844.845-.844h6.602c.46 0 .845.383.845.844 0 .46-.384.845-.845.845zM25.443 28.67h-6.602c-.461 0-.845-.384-.845-.845 0-.46.384-.845.845-.845h6.602c.46 0 .845.384.845.845 0 .46-.384.845-.845.845zM33.652 17.3c-.307-.384-.92-.384-1.228-.077l-2.073 1.919v-5.22c0-.461-.384-.922-.921-.922-.538 0-.845.384-.845.921v5.22L26.512 17.3c-.384-.307-.92-.307-1.228.077-.307.384-.307.921.077 1.229l3.531 3.224c.077.077.077.077.154.077l.077.077c.076.076.23.076.307.076.077 0 .23 0 .307-.076.077 0 .154-.077.23-.154l3.532-3.224c.46-.384.537-.922.153-1.306z"/>
</svg>
