<svg xmlns="http://www.w3.org/2000/svg" width="45" height="45" fill="none" viewBox="0 0 45 45">
    <rect width="45" height="45" fill="#D1FFF2" rx="22.5"/>
    <path fill="#29B68D" d="M26.5 26.6l1.5-3.9 1.5 3.9h-3zm1.5-6.3c-.5 0-1 .3-1.2.9L23.4 30c-.2.6.2 1.2.8 1.2.4 0 .7-.2.8-.6l.8-2.2h4.3l.8 2.2c.1.3.4.6.8.6.6 0 1-.6.8-1.2l-3.3-8.9c-.2-.5-.6-.8-1.2-.8zm-4.2 4.6l-2.3-2.3c1.6-1.8 2.7-3.8 3.4-5.9h1.8c.5 0 .9-.4.9-.9s-.4-.9-.9-.9h-5.5v-1c0-.5-.4-.9-.9-.9s-.9.4-.9.9v.9h-5.5c-.5 0-.9.4-.9.9s.4.9.9.9h9.3c-.7 1.8-1.6 3.4-2.9 4.9-.8-.9-1.4-1.8-2-2.8-.1-.1-.2-.2-.4-.2h-1.5c.6 1.4 1.5 2.8 2.7 4.1l-4 3.9c-.4.4-.4.9 0 1.3s.9.4 1.3 0l3.9-3.9 2.8 2.8.7-1.8z"/>
</svg>
