<svg xmlns="http://www.w3.org/2000/svg" width="45" height="45" fill="none" viewBox="0 0 45 45">
    <rect width="45" height="45" fill="#E4EEFF" rx="22.5"/>
    <path fill="#123399" d="M25.342 16.208c-2.364 0-4.222 1.942-4.222 4.222 0 .337-.253.675-.675.675-.422 0-.675-.253-.675-.59 0-3.04 2.448-5.489 5.487-5.489h1.436v-1.35c0-.338.253-.676.675-.676.338 0 .676.253.676.675v1.351h1.435c3.04 0 5.488 2.449 5.488 5.488 0 3.04-2.449 5.488-5.488 5.488h-.76c-.338 0-.675-.253-.675-.675 0-.423.253-.676.675-.676h.76c2.364 0 4.221-1.942 4.221-4.221 0-2.28-1.942-4.222-4.221-4.222h-4.137z"/>
    <path fill="#123399" d="M29.731 20.513c.466 0 .844-.378.844-.845 0-.466-.378-.844-.844-.844-.466 0-.844.378-.844.845 0 .466.378.844.844.844zM25.004 20.513c.467 0 .845-.378.845-.845 0-.466-.378-.844-.845-.844-.466 0-.844.378-.844.845 0 .466.378.844.844.844zM23.736 32.169h-9.203c-1.435 0-2.533-1.098-2.533-2.533V17.478c0-1.435 1.098-2.533 2.533-2.533h4.728c.422 0 .76.338.76.76s-.338.676-.676.676h-4.812c-.591 0-1.098.506-1.098 1.097v12.158c0 .591.507 1.098 1.098 1.098h9.203c.59 0 1.097-.507 1.097-1.098v-4.981c0-.422.338-.76.76-.76s.76.338.76.76v4.981c-.085 1.35-1.267 2.533-2.617 2.533z"/>
    <path fill="#123399" d="M22.054 26.004H16.23c-.422 0-.76-.338-.76-.76s.338-.76.76-.76h5.825c.422 0 .76.338.76.76s-.422.76-.76.76zM22.054 28.617H16.23c-.422 0-.76-.337-.76-.76 0-.422.338-.76.76-.76h5.825c.422 0 .76.338.76.76 0 .423-.422.76-.76.76z"/>
</svg>
