<svg xmlns="http://www.w3.org/2000/svg" width="45" height="45" fill="none" viewBox="0 0 45 45">
    <rect width="45" height="45" fill="#FFF7E0" rx="22.5"/>
    <path fill="#FB0" d="M28.6 30.926h-6.8c-.4 0-.8-.3-.8-.8v-10c0-.1 0-.2.1-.3l2.2-5.4c.2-.3.6-.5 1-.4l1.6.5c1.2.4 1.9 1.6 1.6 2.8l-.5 2.1h2.4c.6 0 1.2.3 1.6.7.4.4.6 1 .5 1.6l-.8 7.3c-.1 1.1-1 1.9-2.1 1.9zm-6-1.5h6.1c.3 0 .6-.2.6-.5l.7-7.3c0-.2 0-.3-.2-.5-.1-.1-.3-.2-.5-.2H26c-.2 0-.4-.1-.6-.3-.1-.2-.2-.4-.1-.6l.7-3c.1-.4-.2-.9-.6-1l-.9-.3-1.9 4.6v9.1zM18.6 29.8h-3.8c-.4 0-.8-.3-.8-.8v-7.7c0-.4.3-.8.8-.8h3.8c.4 0 .8.3.8.8v7.8c-.1.4-.4.7-.8.7zm-3.1-1.5h2.3V22h-2.3v6.3z"/>
</svg>
