<svg xmlns="http://www.w3.org/2000/svg" width="191" height="160" fill="none" viewBox="0 0 191 160">
    <rect width="50" height="136" x="141" y="12" fill="#C5ECFF" opacity=".5" rx="10"/>
    <rect width="182" height="159" x=".5" y=".5" fill="#fff" stroke="#E5EFFE" rx="14.5"/>
    <path stroke="#001033" stroke-dasharray="2 2" stroke-opacity=".5" d="M60 147.5c-.315 0-.626-.015-.932-.045l-.048.498c-.663-.065-1.306-.194-1.924-.381l.145-.479c-.6-.182-1.176-.421-1.72-.713l-.236.441c-.58-.31-1.125-.676-1.629-1.091l.317-.386c-.48-.395-.922-.836-1.317-1.317l-.386.317c-.415-.504-.78-1.05-1.091-1.629l.44-.236c-.29-.544-.53-1.12-.712-1.72l-.479.145c-.187-.618-.316-1.261-.38-1.923l.497-.049c-.03-.306-.045-.617-.045-.932v-1H50v-2h.5v-2H50v-2h.5v-2H50v-2h.5v-2H50v-2h.5v-2H50v-2h.5v-2H50v-2h.5v-2H50v-2h.5v-2H50v-2h.5v-2H50v-2h.5v-2H50v-2h.5v-2H50v-2h.5v-2H50v-2h.5v-2H50v-2h.5v-2H50v-2h.5v-2H50v-2h.5v-2H50v-2h.5v-2H50v-2h.5v-2H50v-2h.5v-2H50v-2h.5v-2H50v-2h.5v-2H50v-2h.5v-2H50v-2h.5v-2H50v-2h.5v-2H50v-2h.5v-2H50v-2h.5v-2H50v-2h.5v-1c0-.315.015-.626.045-.932l-.498-.049c.065-.662.194-1.305.381-1.923l.479.145c.182-.6.422-1.176.713-1.72l-.441-.236c.31-.58.676-1.125 1.09-1.629l.387.317c.395-.48.837-.922 1.317-1.317l-.317-.386c.504-.415 1.05-.78 1.63-1.091l.235.44c.544-.29 1.12-.53 1.72-.712l-.145-.479c.618-.187 1.261-.316 1.924-.38l.048.497c.306-.03.617-.045.932-.045h1.01V24h2.02v.5h2.02V24h2.02v.5h2.02V24h2.02v.5h2.02V24h2.02v.5h2.02V24h2.02v.5h2.02V24h2.02v.5h2.02V24h2.02v.5h2.02V24h2.02v.5h2.02V24h2.02v.5h2.02V24h2.02v.5h2.02V24h2.02v.5h2.02V24h2.02v.5h2.02V24h2.02v.5h2.02V24h2.02v.5h2.02V24h2.02v.5h2.02V24h2.02v.5h2.02V24h2.02v.5h2.02V24h2.02v.5h2.02V24h2.02v.5h2.02V24h2.02v.5h2.02V24h2.02v.5h2.02V24h2.02v.5h2.02V24h2.02v.5h2.02V24h2.02v.5h2.02V24h2.02v.5H161c.315 0 .626.015.932.045l.049-.498c.662.065 1.305.194 1.923.381l-.145.479c.6.182 1.176.421 1.72.713l.236-.441c.579.31 1.125.676 1.629 1.09l-.317.387c.481.395.922.837 1.317 1.317l.386-.317c.415.504.781 1.05 1.091 1.63l-.441.235c.292.544.531 1.12.713 1.72l.479-.145c.187.618.316 1.261.381 1.924l-.498.048c.03.306.045.617.045.932v1h.5v2h-.5v2h.5v2h-.5v2h.5v2h-.5v2h.5v2h-.5v2h.5v2h-.5v2h.5v2h-.5v2h.5v2h-.5v2h.5v2h-.5v2h.5v2h-.5v2h.5v2h-.5v2h.5v2h-.5v2h.5v2h-.5v2h.5v2h-.5v2h.5v2h-.5v2h.5v2h-.5v2h.5v2h-.5v2h.5v2h-.5v2h.5v2h-.5v2h.5v2h-.5v2h.5v2h-.5v2h.5v2h-.5v2h.5v2h-.5v2h.5v2h-.5v2h.5v2h-.5v2h.5v2h-.5v2h.5v2h-.5v1c0 .315-.015.626-.045.932l.498.049c-.065.662-.194 1.305-.381 1.923l-.479-.145c-.182.6-.421 1.176-.713 1.72l.441.236c-.31.579-.676 1.125-1.091 1.629l-.386-.317c-.395.481-.836.922-1.317 1.317l.317.386c-.504.415-1.05.781-1.629 1.091l-.236-.441c-.544.292-1.12.531-1.72.713l.145.479c-.618.187-1.261.316-1.923.381l-.049-.498c-.306.03-.617.045-.932.045h-1.01v.5h-2.02v-.5h-2.02v.5h-2.02v-.5h-2.02v.5h-2.02v-.5h-2.02v.5h-2.02v-.5h-2.02v.5h-2.02v-.5h-2.02v.5h-2.02v-.5h-2.02v.5h-2.02v-.5h-2.02v.5h-2.02v-.5h-2.02v.5h-2.02v-.5h-2.02v.5h-2.02v-.5h-2.02v.5h-2.02v-.5h-2.02v.5h-2.02v-.5h-2.02v.5h-2.02v-.5h-2.02v.5h-2.02v-.5h-2.02v.5h-2.02v-.5h-2.02v.5h-2.02v-.5h-2.02v.5h-2.02v-.5h-2.02v.5h-2.02v-.5h-2.02v.5h-2.02v-.5h-2.02v.5h-2.02v-.5h-2.02v.5h-2.02v-.5h-2.02v.5h-2.02v-.5h-2.02v.5h-2.02v-.5h-2.02v.5h-2.02v-.5h-2.02v.5h-2.02v-.5H60z"/>
    <g filter="url(#filter0_d)">
        <rect width="44.452" height="53" x="89.548" y="59" fill="#fff" rx="3.419"/>
        <rect width="44.452" height="53" x="89.548" y="59" stroke="#00C48C" stroke-width=".855" rx="3.419"/>
    </g>
    <rect width="44.167" height="17.667" x="81" y="89.703" fill="#00C48C" rx="6.839"/>
    <path fill="#FDFDFD" d="M93.017 102.014c1.18 0 2.185-.421 2.852-1.2l-.862-.82c-.523.574-1.17.851-1.918.851-1.488 0-2.565-1.047-2.565-2.524s1.077-2.523 2.565-2.523c.749 0 1.395.276 1.918.84l.862-.81c-.667-.78-1.672-1.2-2.842-1.2-2.205 0-3.847 1.55-3.847 3.693 0 2.144 1.642 3.693 3.837 3.693zm6.486 0c1.97 0 2.903-.985 2.903-2.134 0-2.636-4.257-1.641-4.257-3.17 0-.543.452-.974 1.56-.974.625 0 1.333.185 1.979.564l.421-1.036c-.626-.41-1.529-.636-2.39-.636-1.97 0-2.893.985-2.893 2.144 0 2.667 4.267 1.652 4.267 3.2 0 .534-.471.934-1.59.934-.882 0-1.795-.328-2.37-.79l-.46 1.036c.594.513 1.712.862 2.83.862zm9.628-7.283l-2.41 5.539-2.39-5.54h-1.447l3.139 7.181h1.313l3.129-7.18h-1.334z"/>
    <path fill="#00C48C" fill-opacity=".1" stroke="#00C48C" stroke-width=".849" d="M37.575 33c0 1.938-.007 3.75-.23 5.392-.222 1.639-.655 3.074-1.484 4.265-1.641 2.358-4.957 3.919-11.861 3.919-6.904 0-10.22-1.56-11.861-3.919-.83-1.191-1.262-2.626-1.484-4.264-.223-1.642-.23-3.455-.23-5.393 0-1.939.007-3.75.23-5.392.222-1.639.655-3.074 1.484-4.265 1.641-2.358 4.957-3.919 11.861-3.919 6.904 0 10.22 1.56 11.861 3.919.83 1.191 1.262 2.627 1.485 4.265.222 1.641.23 3.453.23 5.392z"/>
    <path fill="#00A1E0" d="M24 81c13.892 0 14-6.268 14-14s-.108-14-14-14-14 6.268-14 14 .108 14 14 14z" opacity=".1"/>
    <path fill="#03363D" d="M24 115c13.892 0 14-6.268 14-14s-.108-14-14-14-14 6.268-14 14 .108 14 14 14z" opacity=".1"/>
    <path fill="#FFE5E6" d="M24 149c13.892 0 14-6.268 14-14s-.108-14-14-14-14 6.268-14 14 .108 14 14 14z"/>
    <path fill="#001033" d="M2.608 16.691L1 13v39l1.608-3.691c.258-.594.392-1.235.392-1.883V18.573c0-.647-.133-1.288-.392-1.882z"/>
    <defs>
        <filter id="filter0_d" width="79.5" height="88.048" x="72.024" y="41.476" color-interpolation-filters="sRGB" filterUnits="userSpaceOnUse">
            <feFlood flood-opacity="0" result="BackgroundImageFix"/>
            <feColorMatrix in="SourceAlpha" values="0 0 0 0 0 0 0 0 0 0 0 0 0 0 0 0 0 0 127 0"/>
            <feOffset/>
            <feGaussianBlur stdDeviation="8.548"/>
            <feColorMatrix values="0 0 0 0 0 0 0 0 0 0 0 0 0 0 0 0 0 0 0.1 0"/>
            <feBlend in2="BackgroundImageFix" result="effect1_dropShadow"/>
            <feBlend in="SourceGraphic" in2="effect1_dropShadow" result="shape"/>
        </filter>
    </defs>
</svg>
