<svg xmlns="http://www.w3.org/2000/svg" width="45" height="45" fill="none" viewBox="0 0 45 45">
    <rect width="45" height="45" fill="#D1FFF2" rx="22.5"/>
    <path fill="#29B68D" d="M29.484 20.512c-.325-.6-.748-1.114-1.27-1.543-.52-.43-1.106-.742-1.757-.938l-.039-.02c-.026-.676-.287-1.25-.781-1.718-.495-.469-1.081-.703-1.758-.703h-.254v-.957c0-.182-.065-.332-.195-.45-.117-.117-.26-.175-.43-.175-.17 0-.319.058-.45.176-.116.117-.175.267-.175.449v.957h-.254c-.69 0-1.282.24-1.777.723-.482.468-.736 1.035-.762 1.699v.02c-.664.195-1.263.507-1.797.937-.52.43-.937.937-1.25 1.523l-.02.04c-.117.064-.227.142-.331.234-.105.078-.196.162-.274.254h-.02c-.312.312-.56.677-.742 1.093-.169.417-.253.86-.253 1.328 0 .678.175 1.296.527 1.856.364.547.833.957 1.406 1.23l.02.02c.455.664 1.048 1.198 1.777 1.601.742.391 1.543.586 2.402.586h3.965c.86 0 1.654-.195 2.383-.586.742-.403 1.341-.937 1.797-1.601.586-.287 1.055-.703 1.406-1.25.365-.547.547-1.159.547-1.836v-.02c0-.612-.15-1.171-.45-1.68-.299-.52-.696-.937-1.19-1.25zm-7.363-3.672h1.758c.3 0 .56.091.781.273.235.183.39.41.469.684H20.87c.065-.274.215-.501.45-.684.234-.182.5-.273.8-.273zm6.719 6.777c0 .104-.007.202-.02.293 0 .091-.006.182-.02.274v-.02c-.038.287-.11.56-.214.82-.091.26-.215.508-.371.743l.02-.02c-.352.534-.814.964-1.387 1.29-.573.325-1.198.487-1.875.487h-3.946c-.534 0-1.035-.097-1.504-.293-.468-.208-.878-.488-1.23-.84-.352-.351-.631-.761-.84-1.23-.195-.469-.293-.97-.293-1.504v-.683-.02c0-.3.033-.592.098-.879.078-.3.182-.573.312-.82l-.02.02c.274-.547.645-1.003 1.114-1.368.482-.377 1.022-.625 1.621-.742h.04c.103-.026.214-.046.331-.059.117-.013.241-.02.371-.02h3.946c.13 0 .254.007.37.02.118.013.235.033.352.059h-.02c.613.117 1.153.365 1.622.742.482.365.853.814 1.113 1.348l.02.02c.117.247.208.514.273.8.078.287.117.586.117.899l.02.683zm.957 7.832c.039.052.072.11.098.176.026.078.039.156.039.234 0 .091-.02.176-.059.254-.04.091-.091.163-.156.215-.052.052-.117.091-.196.117-.065.026-.13.04-.195.04h-.02c-.09 0-.175-.02-.253-.06-.078-.038-.15-.09-.215-.155-.39-.443-.86-.795-1.406-1.055-.547-.26-1.14-.39-1.778-.39h-5.312-.02c-.625 0-1.21.123-1.758.37-.546.26-1.015.612-1.406 1.055-.065.065-.137.117-.215.156-.078.04-.162.059-.254.059-.182 0-.332-.065-.449-.196-.117-.117-.176-.26-.176-.43 0-.077.013-.155.04-.233.025-.066.065-.124.117-.176h-.02c.508-.573 1.12-1.029 1.836-1.367.716-.339 1.484-.508 2.305-.508h5.312c.82 0 1.589.169 2.305.508.716.338 1.322.8 1.816 1.386h.02zm-7.422-18.457v-.117c0-.17.059-.313.176-.43.13-.13.28-.195.449-.195.17 0 .313.065.43.195.13.117.195.26.195.43v.117c0 .17-.065.32-.195.45-.117.117-.26.175-.43.175-.17 0-.319-.058-.45-.176-.116-.13-.175-.28-.175-.449zm-1.25 9.297c0 .195-.072.365-.215.508-.13.13-.293.195-.488.195s-.365-.065-.508-.195c-.13-.143-.195-.313-.195-.508s.065-.358.195-.488c.143-.143.313-.215.508-.215s.358.072.488.215c.143.13.215.293.215.488zm4.688 0c0 .195-.072.365-.215.508-.13.13-.293.195-.489.195-.195 0-.364-.065-.507-.195-.13-.143-.196-.313-.196-.508s.065-.358.196-.488c.143-.143.312-.215.507-.215.196 0 .358.072.489.215.143.13.215.293.215.488zm-4.297 1.719h2.5v.039c0 .338-.124.631-.371.879-.248.247-.54.37-.88.37-.35 0-.65-.123-.898-.37-.234-.248-.351-.54-.351-.88v-.038z"/>
</svg>
