<svg xmlns="http://www.w3.org/2000/svg" width="45" height="45" fill="none" viewBox="0 0 45 45">
    <rect width="45" height="45" fill="#FFE5E6" rx="22.5"/>
    <path fill="#FF4651" d="M20.409 20.926c0 .444-.37.815-.815.815-.444 0-.815-.37-.815-.815 0-.445.37-.815.815-.815.445-.074.815.296.815.815zM20.852 22.926h2.963V23c0 .815-.666 1.481-1.481 1.481-.815 0-1.482-.666-1.482-1.555zM25.965 20.926c0 .444-.37.815-.815.815-.445 0-.815-.37-.815-.815 0-.445.37-.815.815-.815.444-.074.815.296.815.815z"/>
    <path fill="#FF4651" d="M30.26 18.778c-.74-1.407-2.074-2.519-3.63-2.963-.073-1.63-1.407-2.889-3.036-2.889h-.223v-1.111c0-.444-.37-.74-.74-.74-.445 0-.741.296-.741.74v1.111h-.296c-1.63 0-2.963 1.26-3.038 2.889-1.555.444-2.888 1.556-3.63 2.963-.295.148-.518.37-.74.593-.74.74-1.185 1.777-1.185 2.888 0 1.556.889 2.963 2.296 3.704 1.111 1.63 2.963 2.593 4.963 2.593h4.667c2 0 3.852-.963 4.963-2.593 1.407-.667 2.296-2.074 2.296-3.704.074-1.407-.666-2.74-1.926-3.481zm-8.666-4.37h2.074c.74 0 1.333.518 1.481 1.185H20.038c.222-.667.815-1.185 1.556-1.185zm7.925 8.074c0 .222 0 .444-.074.666-.074.667-.296 1.26-.666 1.852-.815 1.334-2.296 2.148-3.852 2.148H20.26c-1.555 0-3.037-.814-3.852-2.148-.444-.74-.74-1.555-.74-2.444v-.815c0-.74.148-1.407.444-2 .593-1.333 1.852-2.222 3.26-2.519.222-.074.518-.074.814-.074h4.667c.296 0 .592 0 .815.074 1.407.297 2.666 1.186 3.259 2.519.296.593.444 1.333.444 2v.74h.149z"/>
    <path fill="#FF4651" d="M20.409 20.926c0 .444-.37.815-.815.815-.444 0-.815-.37-.815-.815 0-.445.37-.815.815-.815.445-.074.815.296.815.815zM20.852 22.926h2.963V23c0 .815-.666 1.481-1.481 1.481-.815 0-1.482-.666-1.482-1.555zM25.965 20.926c0 .444-.37.815-.815.815-.445 0-.815-.37-.815-.815 0-.445.37-.815.815-.815.444-.074.815.296.815.815zM30.704 31.746c.296.296.222.74-.074 1.037-.148.148-.296.148-.519.148-.222 0-.444-.074-.592-.222-.963-1.112-2.296-1.704-3.778-1.704h-6.296c-1.482 0-2.815.593-3.778 1.704-.296.296-.74.37-1.037.074-.296-.297-.37-.741-.074-1.037 1.26-1.408 3.037-2.223 4.889-2.223h6.296c1.926 0 3.704.815 4.963 2.223zM21.889 9.893v-.148c0-.445.296-.741.74-.741.445 0 .741.296.741.74v.149c0 .444-.296.74-.74.74-.445 0-.741-.37-.741-.74z"/>
    <path fill="#FF4651" d="M20.409 20.93c0 .444-.37.814-.815.814-.444 0-.815-.37-.815-.814 0-.445.37-.815.815-.815.445-.074.815.296.815.815zM25.964 20.93c0 .444-.37.814-.815.814-.445 0-.815-.37-.815-.814 0-.445.37-.815.815-.815.444-.074.815.296.815.815zM23.814 22.934c0 .889-.666 1.555-1.481 1.555-.815 0-1.481-.666-1.481-1.481v-.074h2.962z"/>
</svg>
