<svg xmlns="http://www.w3.org/2000/svg" width="45" height="45" fill="none" viewBox="0 0 45 45">
    <rect width="45" height="45" fill="#D1FFF2" rx="22.5"/>
    <path fill="#29B68D" d="M27.25 17.294h-.319c-.953-1.992-3.097-3.294-5.4-3.294h-3.415C14.7 14 12 16.605 12 19.9c0 2.834 2.144 5.286 5.083 5.822.794 2.451 3.018 4.213 5.639 4.52v1.915c0 .307.159.613.477.766.158.077.317.154.476.154.159 0 .318-.077.477-.154 2.462-1.379 5.241-2.988 5.639-3.14C32.332 28.785 34 26.41 34 23.805c0-3.6-3.018-6.512-6.75-6.512zM16.685 23.73c-1.668-.537-2.86-2.069-2.86-3.83 0-2.223 1.907-4.061 4.21-4.061h3.495c1.27 0 2.462.536 3.256 1.455h-1.35c-3.733 0-6.672 2.912-6.751 6.436zm12.39 4.367c-.477.23-2.86 1.532-4.527 2.451v-1.225c0-.537-.397-.92-.953-.92h-.239c-2.7 0-4.844-2.068-4.844-4.673s2.144-4.674 4.844-4.674h3.813c2.7 0 4.844 2.069 4.844 4.674.08 1.915-1.112 3.6-2.938 4.367z"/>
</svg>
