<svg id="0feccfab-86bf-4de6-a7f5-61aa6b61a700" data-name="Layer 1" xmlns="http://www.w3.org/2000/svg" width="80" height="53.3" viewBox="0 0 80 53.3"><defs><style>.b05223cd-22b3-482d-b511-fafd3845217a{fill:#07d879;}.c9c63171-4ffc-426d-9a39-5f0a915f05af{fill:none;stroke:#000;stroke-linecap:round;stroke-linejoin:round;stroke-width:0.26px;}.\38 8c5d72b-baeb-44ef-838e-1ca3e2617b96{fill:#64a3ff;}.\38 7de66ae-5b94-4434-a66d-1e4bf1fce7bd{fill:#0265ff;}.\33 8c27565-941b-4ef3-81db-d9bdaad1177e{fill:#fff;}</style></defs><title>Chat</title><path class="b05223cd-22b3-482d-b511-fafd3845217a" d="M77.54,0H50.46A2.39,2.39,0,0,0,48,2.31V41.65h3.69v7l7.39-7H77.54A2.38,2.38,0,0,0,80,39.34v-37A2.39,2.39,0,0,0,77.54,0ZM52.92,8.1h6.16a1.16,1.16,0,1,1,0,2.31H52.92a1.16,1.16,0,1,1,0-2.31Zm0,5.78h7.39a1.16,1.16,0,1,1,0,2.32H52.92a1.16,1.16,0,1,1,0-2.32Zm12.31,5.79h7.39a1.16,1.16,0,1,1,0,2.31H61.23a1.16,1.16,0,1,1,0-2.31ZM63.69,15a1.2,1.2,0,0,1,1.23-1.16h3.7l.15,0,.15,0h3.7a1.16,1.16,0,1,1,0,2.32h-3.7l-.15,0-.15,0h-3.7A1.2,1.2,0,0,1,63.69,15ZM52.92,19.67h3.7a1.16,1.16,0,1,1,0,2.31h-3.7a1.16,1.16,0,1,1,0-2.31Zm0,5.79h7.39a1.16,1.16,0,1,1,0,2.31H52.92a1.16,1.16,0,1,1,0-2.31Zm8.62,8.1H52.92a1.16,1.16,0,1,1,0-2.32h8.62a1.16,1.16,0,1,1,0,2.32Zm1.15-7a1.19,1.19,0,0,1,1.23-1.15h8.25c.93,0,1.68.51,1.68,1.15s-.75,1.16-1.68,1.16H63.92A1.2,1.2,0,0,1,62.69,26.61Zm9.93,7H66.46a1.16,1.16,0,1,1,0-2.32h6.16a1.16,1.16,0,1,1,0,2.32Zm0-23.15H64A1.16,1.16,0,1,1,64,8.1h8.62a1.16,1.16,0,1,1,0,2.31Z"/><path class="c9c63171-4ffc-426d-9a39-5f0a915f05af" d="M29.54,20.83h1.23"/><path class="88c5d72b-baeb-44ef-838e-1ca3e2617b96" d="M38.82,17.43H2.55A2.47,2.47,0,0,0,0,19.83V44A2.16,2.16,0,0,0,.2,45a2.53,2.53,0,0,0,2.26,1.46V53.3l7.31-6.88H38.82A2.47,2.47,0,0,0,41.37,44V19.83A2.47,2.47,0,0,0,38.82,17.43ZM13.54,33.63h1.23a1.16,1.16,0,1,1,0,2.31H13.54a1.16,1.16,0,1,1,0-2.31Zm6.15,8.1H13.54a1.16,1.16,0,1,1,0-2.32h6.15a1.16,1.16,0,1,1,0,2.32Zm8.62,0H24.62a1.16,1.16,0,1,1,0-2.32h3.69a1.16,1.16,0,1,1,0,2.32Zm0-5.79H19.69a1.16,1.16,0,1,1,0-2.31h8.62a1.16,1.16,0,1,1,0,2.31Z"/><path class="87de66ae-5b94-4434-a66d-1e4bf1fce7bd" d="M37.16,1.57c-11,0-19.93,8.54-19.93,19.07A18.75,18.75,0,0,0,24.7,35.52v9l6.06-5.79a20.77,20.77,0,0,0,6.4,1c11,0,19.93-8.54,19.93-19.07S48.17,1.57,37.16,1.57"/><path class="38c27565-941b-4ef3-81db-d9bdaad1177e" d="M47.13,16.38H40.9a1.18,1.18,0,1,1,0-2.35h6.23a1.18,1.18,0,1,1,0,2.35"/><path class="38c27565-941b-4ef3-81db-d9bdaad1177e" d="M35.92,16.38H27.2a1.18,1.18,0,1,1,0-2.35h8.72a1.18,1.18,0,1,1,0,2.35"/><path class="38c27565-941b-4ef3-81db-d9bdaad1177e" d="M40.9,22.23h-5a1.17,1.17,0,1,1,0-2.34h5a1.17,1.17,0,1,1,0,2.34"/><path class="38c27565-941b-4ef3-81db-d9bdaad1177e" d="M30.93,22.23H27.2a1.17,1.17,0,1,1,0-2.34h3.73a1.17,1.17,0,1,1,0,2.34"/><path class="38c27565-941b-4ef3-81db-d9bdaad1177e" d="M47.13,28.09H43.39a1.17,1.17,0,1,1,0-2.34h3.74a1.17,1.17,0,1,1,0,2.34"/><path class="38c27565-941b-4ef3-81db-d9bdaad1177e" d="M38.41,28.09H27.2a1.17,1.17,0,1,1,0-2.34H38.41a1.17,1.17,0,1,1,0,2.34"/></svg>