<svg id="4e71bf2c-88d8-4f13-bcb8-7a5cf21c08cc" data-name="Layer 1" xmlns="http://www.w3.org/2000/svg" width="80" height="53.3" viewBox="0 0 80 53.3"><defs><style>.a637e4f9-a326-40bb-9e21-d38ba14a964a{fill:#0265ff;}.\36 f711e20-394f-43b1-9f69-1c2a7adf6e31{fill:#07d879;}.d0107a56-1f20-4d77-808c-6611c5f9f949{fill:#4390ed;}.b3b60770-1356-4600-a5e6-ce88f933cbd9{fill:#64a3ff;}.\32 68e54bc-1211-4a93-b290-c2e985f074ac{fill:#05347b;}</style></defs><title>Customer Profile</title><path class="a637e4f9-a326-40bb-9e21-d38ba14a964a" d="M80,16.14a1.75,1.75,0,0,0-1.77-1.73H65.88a1.73,1.73,0,1,0,0,3.46H78.23A1.75,1.75,0,0,0,80,16.14Z"/><path class="a637e4f9-a326-40bb-9e21-d38ba14a964a" d="M39.91,17.87H57.08a1.81,1.81,0,0,0,1.84-1.58,1.72,1.72,0,0,0-1.72-1.88H40A1.82,1.82,0,0,0,38.19,16,1.72,1.72,0,0,0,39.91,17.87Z"/><path class="a637e4f9-a326-40bb-9e21-d38ba14a964a" d="M31.27,17.87a1.79,1.79,0,0,0,1.23-.5,1.74,1.74,0,1,0-3-1.23,1.74,1.74,0,0,0,.5,1.21A1.69,1.69,0,0,0,31.27,17.87Z"/><path class="a637e4f9-a326-40bb-9e21-d38ba14a964a" d="M60.66,21.61H31.39a1.81,1.81,0,0,0-1.84,1.58,1.73,1.73,0,0,0,1.72,1.89H60.53a1.83,1.83,0,0,0,1.85-1.59A1.73,1.73,0,0,0,60.66,21.61Z"/><path class="a637e4f9-a326-40bb-9e21-d38ba14a964a" d="M68.07,22.11a1.79,1.79,0,0,0-.5,1.23,1.71,1.71,0,0,0,.5,1.23,1.74,1.74,0,0,0,2.46,0,1.75,1.75,0,0,0,.5-1.23,1.73,1.73,0,0,0-3-1.23Z"/><path class="a637e4f9-a326-40bb-9e21-d38ba14a964a" d="M76.71,22.11a1.79,1.79,0,0,0-.5,1.23,1.75,1.75,0,0,0,.5,1.23,1.79,1.79,0,0,0,1.23.51,1.76,1.76,0,0,0,1.23-.52,1.72,1.72,0,0,0,.5-1.22,1.73,1.73,0,0,0-3-1.23Z"/><path class="a637e4f9-a326-40bb-9e21-d38ba14a964a" d="M64.88,1.73A1.75,1.75,0,0,0,63.12,0H50.76A1.75,1.75,0,0,0,49,1.73a1.75,1.75,0,0,0,1.76,1.74H63.12A1.75,1.75,0,0,0,64.88,1.73Z"/><path class="a637e4f9-a326-40bb-9e21-d38ba14a964a" d="M24.8,3.47H42A1.8,1.8,0,0,0,43.8,1.89,1.73,1.73,0,0,0,42.08,0H24.92a1.82,1.82,0,0,0-1.85,1.58A1.74,1.74,0,0,0,24.8,3.47Z"/><path class="a637e4f9-a326-40bb-9e21-d38ba14a964a" d="M16.15,3.47A1.79,1.79,0,0,0,17.38,3a1.84,1.84,0,0,0,.5-1.24A1.83,1.83,0,0,0,17.38.5a1.84,1.84,0,0,0-2.46,0,1.83,1.83,0,0,0-.5,1.23A1.75,1.75,0,0,0,14.92,3,1.73,1.73,0,0,0,16.15,3.47Z"/><path class="a637e4f9-a326-40bb-9e21-d38ba14a964a" d="M45.54,7.2H16.27a1.82,1.82,0,0,0-1.84,1.59,1.73,1.73,0,0,0,1.72,1.88H45.42a1.81,1.81,0,0,0,1.84-1.58A1.73,1.73,0,0,0,45.54,7.2Z"/><path class="a637e4f9-a326-40bb-9e21-d38ba14a964a" d="M53,7.71a1.77,1.77,0,0,0-.5,1.23,1.75,1.75,0,0,0,.5,1.23,1.76,1.76,0,0,0,2.46,0,1.71,1.71,0,0,0,.5-1.23,1.73,1.73,0,0,0-3-1.23Z"/><path class="a637e4f9-a326-40bb-9e21-d38ba14a964a" d="M61.6,7.71a1.77,1.77,0,0,0-.5,1.23,1.71,1.71,0,0,0,.5,1.23,1.81,1.81,0,0,0,1.22.5,1.76,1.76,0,0,0,1.23-.52,1.69,1.69,0,0,0,.5-1.21A1.73,1.73,0,0,0,61.6,7.71Z"/><path class="6f711e20-394f-43b1-9f69-1c2a7adf6e31" d="M43.69,32.65c-3.79,2-5.06,5.76-5.52,9.68L36,40.53c-1.69-1.43-4.15,1-2.44,2.45l4.85,4.08a1.75,1.75,0,0,0,3-1.23c.13-3.75.31-8.22,4.06-10.18C47.42,34.62,45.67,31.62,43.69,32.65Z"/><path class="6f711e20-394f-43b1-9f69-1c2a7adf6e31" d="M70.21,41.47a3.81,3.81,0,0,0-2.83-1.94c-2.51-.2-6.84,3.42-8.62.22a1.74,1.74,0,0,0-2.37-.62c-2.45,1.51-5.65,3.68-8.22.87-1.51-1.65-4,.81-2.44,2.45C49,46,53.13,44.9,56.8,42.9a7.16,7.16,0,0,0,2.93,1.85c1.57.57,7.07-2.12,7.49-1.53C68.52,45,71.52,43.28,70.21,41.47Z"/><g id="1d656021-7597-49a2-a976-73f3db271e7f" data-name="Video-and-Voice-call"><g id="2ec6bcc7-3a0a-4924-bde6-58eb7cc84e5b" data-name="Video-and-Voice-Call-3"><g id="fd17b75d-42be-40a0-9171-edfcc37e4b02" data-name="icon-video-and-voice-call-personalization"><rect id="80cf9aec-fa81-408b-92f4-f804d57efc2c" data-name="Rectangle-path" class="d0107a56-1f20-4d77-808c-6611c5f9f949" x="12.49" y="34.48" width="9.37" height="11.76"/><path id="de4af4de-898c-4a86-be6d-a97925271e22" data-name="Shape" class="b3b60770-1356-4600-a5e6-ce88f933cbd9" d="M25.76,24.93v6.34a8.6,8.6,0,1,1-17.2,0V24.93Z"/><path id="a2c115ba-eab8-4df2-91f6-7ad106dee6d6" data-name="Shape-2" class="a637e4f9-a326-40bb-9e21-d38ba14a964a" d="M34.4,50.16a3.93,3.93,0,0,0-2.16-3.3L21.92,42.32a7.87,7.87,0,0,1-4.72,1.57,7.73,7.73,0,0,1-4.67-1.57L2.21,46.86A3.94,3.94,0,0,0,0,50.16v2.31a.79.79,0,0,0,.76.83H33.57a.78.78,0,0,0,.78-.79h0Z"/><path id="2be2ff7b-13e6-4576-afe7-5b02c7a96f53" data-name="Shape-3" class="268e54bc-1211-4a93-b290-c2e985f074ac" d="M8.56,25.06A7.16,7.16,0,0,1,13,18.74l5.75-2.07a.9.9,0,0,1,1.08.42l1.22,2.45a4.71,4.71,0,0,1,4.71,4.71V29A3.92,3.92,0,0,0,21.84,25H12.48A3.92,3.92,0,0,0,8.56,29h0Z"/><path id="4f53d9e2-7b4b-465c-a261-cceee7aa8df3" data-name="Shape-4" class="b3b60770-1356-4600-a5e6-ce88f933cbd9" d="M17.2,45.45a10,10,0,0,0,6.38-2.3l-1.7-.85a7.77,7.77,0,0,1-9.36,0l-1.71.86A10.09,10.09,0,0,0,17.2,45.45Z"/></g></g></g></svg>