<svg id="434c2f2b-8280-4834-82e3-8267807f861c" data-name="Layer 1" xmlns="http://www.w3.org/2000/svg" width="40" height="40" viewBox="0 0 40 40"><defs><style>.acbde515-589f-4d64-8a9a-058e2a681b79{fill:#fff;}.\38 3e91dab-24ff-4f0f-a084-95ba2fdd6c28{fill:#07d879;}.db675192-d316-46e1-8aa4-929a823f3c8e{fill:#0265ff;}.\31 7c4d93a-9556-4311-ad01-bd1de0ec6b25{fill:#64a3ff;}</style></defs><title>Forms</title><rect id="4e40a66e-334e-4273-b401-79c7afb3128f" data-name="Rectangle-5" class="acbde515-589f-4d64-8a9a-058e2a681b79" x="4" y="3" width="35" height="35"/><polygon id="bbc5db76-3888-408f-8d39-b7f7a879e48a" data-name="Shape" class="83e91dab-24ff-4f0f-a084-95ba2fdd6c28" points="9.14 22.35 12.64 18.85 17.5 24 27.49 13.93 30.99 17.43 17.49 30.45 9.14 22.35"/><path id="fb3425fa-08f7-480f-90c6-1a2478f8b698" data-name="Shape" class="db675192-d316-46e1-8aa4-929a823f3c8e" d="M37.5,2.5H30v5h5V35H5V7.5h5v-5H2.5A2.36,2.36,0,0,0,0,5V37.5A2.36,2.36,0,0,0,2.5,40h35A2.36,2.36,0,0,0,40,37.5V5A2.36,2.36,0,0,0,37.5,2.5Z"/><rect id="705a180a-26be-4bca-98a1-0413a7978576" data-name="Rectangle-path" class="17c4d93a-9556-4311-ad01-bd1de0ec6b25" x="10" width="20" height="10"/></svg>