<svg xmlns="http://www.w3.org/2000/svg" width="45" height="45" fill="none" viewBox="0 0 45 45">
    <rect width="45" height="45" fill="#FFF7E0" rx="22.5"/>
    <path fill="#FB0" d="M28.056 31H17.017C15.398 31 14 29.675 14 27.983v-11.04C14 15.326 15.325 14 17.017 14h11.04c1.618 0 3.017 1.325 3.017 3.017v11.04C31 29.674 29.675 31 28.056 31zM17.017 15.472c-.883 0-1.545.662-1.545 1.545v11.04c0 .809.662 1.545 1.545 1.545h11.04c.809 0 1.545-.663 1.545-1.546V17.017c0-.81-.663-1.545-1.546-1.545H17.017z"/>
    <path fill="#FB0" d="M26.585 21.286c.732 0 1.325-.593 1.325-1.325 0-.731-.593-1.324-1.325-1.324-.731 0-1.324.593-1.324 1.324 0 .732.593 1.325 1.324 1.325zM18.047 21.286c.732 0 1.325-.593 1.325-1.325 0-.731-.593-1.324-1.325-1.324-.731 0-1.324.593-1.324 1.324 0 .732.593 1.325 1.324 1.325zM22.538 26.216c.731 0 1.324-.593 1.324-1.325 0-.731-.593-1.325-1.324-1.325-.732 0-1.325.594-1.325 1.325 0 .732.593 1.325 1.325 1.325zM22.464 20.771c.447 0 .81-.362.81-.81 0-.446-.363-.809-.81-.809-.447 0-.81.363-.81.81 0 .447.363.81.81.81zM26.29 25.701c.447 0 .81-.362.81-.81 0-.446-.363-.809-.81-.809-.447 0-.81.363-.81.81 0 .447.363.81.81.81zM18.784 25.701c.447 0 .81-.362.81-.81 0-.446-.363-.809-.81-.809-.447 0-.81.363-.81.81 0 .447.363.81.81.81z"/>
</svg>
