<svg xmlns="http://www.w3.org/2000/svg" width="45" height="45" fill="none" viewBox="0 0 45 45">
    <rect width="45" height="45" fill="#E4EEFF" rx="22.5"/>
    <path fill="#123399" d="M22.2 28.7c0 .4-.3.8-.8.8h-.9c-3.6-.1-6.5-3-6.5-6.6 0-3.6 2.9-6.5 6.5-6.5h1.7v-1.6c0-.5.4-.8.8-.8s.8.3.8.8v1.6h1.7c3.6 0 6.5 2.9 6.5 6.5 0 .4-.3.8-.8.8s-.8-.3-.8-.8c0-2.8-2.3-5-5-5h-4.9c-2.8 0-5 2.3-5 5s2.3 5 5 5h.9c.4 0 .8.4.8.8zM31.7 25.498c.3.3.3.8 0 1.1l-3.4 3.4c-.1.1-.3.2-.5.2s-.4-.1-.5-.2l-1.1-1.1-2.9 2.9c-.2.2-.4.2-.6.2-.2 0-.4 0-.5-.2-.3-.3-.3-.8 0-1.1l3.4-3.4c.1-.1.3-.2.5-.2s.4.1.5.2l1.1 1.1 2.9-2.9c.4-.3.8-.3 1.1 0z"/>
    <path fill="#123399" d="M20.2 22.898c.553 0 1-.447 1-1 0-.552-.447-1-1-1-.552 0-1 .448-1 1 0 .553.448 1 1 1zM25.7 20.898c.6 0 1 .5 1 1 0 .6-.5 1-1 1s-1-.5-1-1c0-.6.5-1 1-1z"/>
</svg>
