<svg xmlns="http://www.w3.org/2000/svg" width="45" height="45" fill="none" viewBox="0 0 45 45">
    <rect width="45" height="45" fill="#D1FFF2" rx="22.5"/>
    <path fill="#29B68D" d="M26.498 31h-8.987C16.123 31 15 29.875 15 28.487V16.593c0-1.387 1.123-2.511 2.511-2.511h4.692c.397 0 .727.33.727.727 0 .397-.33.727-.727.727h-4.692c-.595 0-1.057.463-1.057 1.057v11.895c0 .595.462 1.058 1.057 1.058h9.054c.594 0 1.057-.463 1.057-1.058v-4.89c0-.396.33-.727.727-.727.396 0 .727.33.727.727v4.89C29.01 29.876 27.886 31 26.498 31z"/>
    <path fill="#29B68D" d="M24.846 24.923h-5.683c-.397 0-.727-.33-.727-.727 0-.397.33-.727.727-.727h5.683c.396 0 .727.33.727.727 0 .396-.33.727-.727.727zM24.846 27.5h-5.683c-.397 0-.727-.33-.727-.726 0-.397.33-.727.727-.727h5.683c.396 0 .727.33.727.727 0 .396-.33.727-.727.727zM26.63 14.149l.925 1.916c.066.066.132.132.198.132l2.115.33c.198 0 .264.265.132.463l-1.52 1.52c-.066.066-.066.132-.066.198l.397 2.115c.066.198-.199.397-.397.264l-1.916-.99c-.066-.067-.133-.067-.265 0l-1.916.99c-.198.067-.397-.066-.397-.264l.397-2.114c0-.067 0-.199-.066-.199l-1.52-1.52c-.132-.132-.066-.396.132-.462l2.115-.33c.066 0 .132-.067.198-.133l.925-1.916c.198-.199.463-.199.529 0z"/>
</svg>
