<svg xmlns="http://www.w3.org/2000/svg" width="45" height="45" fill="none" viewBox="0 0 45 45">
    <rect width="45" height="45" fill="#E4EEFF" rx="22.5"/>
    <path stroke="#123399" stroke-linecap="round" stroke-linejoin="round" stroke-miterlimit="10" stroke-width="1.5" d="M24.5 30.6v-3.3c0-1 .8-1.8 1.8-1.8h3.3l-5.1 5.1z"/>
    <path stroke="#123399" stroke-linecap="round" stroke-linejoin="round" stroke-miterlimit="10" stroke-width="1.5" d="M25.7 14.2h2c1 0 1.8.8 1.8 1.8l.1 9.6-5.2 5.1h-6.6c-1 0-1.8-.8-1.8-1.8v-4.6"/>
    <path stroke="#123399" stroke-linecap="round" stroke-linejoin="round" stroke-miterlimit="10" d="M23.6 16.8h-1.7l.4-1.5c.1-.4-.2-.9-.6-1l-.8-.3-1.2 2.8V22h3.6c.4 0 .7-.3.7-.6l.3-3.8c.1-.4-.2-.8-.7-.8z"/>
    <path fill="#123399" stroke="#123399" stroke-linecap="round" stroke-linejoin="round" stroke-miterlimit="10" stroke-width=".931" d="M17.8 17.398h-1.7v4.1h1.7v-4.1z"/>
</svg>
