<svg xmlns="http://www.w3.org/2000/svg" width="45" height="45" fill="none" viewBox="0 0 45 45">
    <rect width="45" height="45" fill="#FFE5E6" rx="22.5"/>
    <path fill="#FF4651" d="M31.1 23l-8.8-8.8c-.2-.1-.4-.2-.6-.2l-6.3.7c-.4 0-.7.3-.7.7l-.7 6.3c0 .2.1.5.2.6l8.8 8.8c.5.5 1.3.8 2 .8.8 0 1.5-.3 2-.8l4.1-4.1c1.1-1 1.1-2.9 0-4zm-1 3L26 30.1c-.5.5-1.4.5-1.9 0l-8.6-8.6.6-5.4 5.4-.6 8.6 8.6c.5.5.5 1.4 0 1.9z"/>
    <path fill="#FF4651" d="M20.2 21.7c.939 0 1.7-.76 1.7-1.7 0-.938-.761-1.7-1.7-1.7s-1.7.762-1.7 1.7c0 .94.761 1.7 1.7 1.7z"/>
</svg>
