<svg xmlns="http://www.w3.org/2000/svg" width="45" height="45" fill="none" viewBox="0 0 45 45">
    <rect width="45" height="45" fill="#E4EEFF" rx="22.5"/>
    <path fill="#123399" d="M13.949 24.863c-.508 0-.847-.34-.847-.848s.338-.847.847-.847h3.135l2.457-3.983c.17-.254.424-.423.763-.423s.593.17.763.423l3.474 5.762 1.694-2.965c.17-.255.424-.424.763-.424h3.39c.508 0 .846.339.846.847 0 .509-.338.848-.847.848h-2.965l-2.119 3.728c-.17.254-.424.423-.762.423-.255 0-.594-.169-.763-.423l-3.474-5.677-1.949 3.22c-.17.17-.508.338-.763.338H13.95z"/>
    <path fill="#123399" d="M32.082 25.626v3.39c0 2.202-1.78 3.982-3.983 3.982H15.982C13.78 33.082 12 31.303 12 29.1v-1.864c0-.509.339-.848.847-.848.509 0 .848.34.848.848V29.1c0 1.271 1.016 2.288 2.287 2.288H28.1c1.271 0 2.288-1.017 2.288-2.288v-3.39c0-.508.34-.847.848-.847s.847.34.847.763zM32.082 16.983v2.287c0 .509-.34.848-.848.848s-.847-.34-.847-.848v-2.287c0-1.272-1.017-2.288-2.288-2.288H15.982c-1.27 0-2.287 1.016-2.287 2.288v3.813c0 .508-.34.847-.848.847s-.847-.34-.847-.848v-3.813C12 14.78 13.78 13 15.982 13H28.1c2.203 0 3.983 1.78 3.983 3.983z"/>
</svg>
