<svg xmlns="http://www.w3.org/2000/svg" width="116" height="118" fill="none" viewBox="0 0 116 118">
    <path fill="#00C38B" d="M38.961 103.946c.4.2.8.401 1.201.501.2.2.5 0 .8.1.201.1.401.1.601.2.4.2.901.1 1.302.2.3.1.6.2.8.2 2.002.501 4.104.701 5.906 1.902.5 0 .9.2 1.401.2h.7c.401.1.802.301 1.202.301h2.202c.7.1 1.301.2 2.002.3.6.2 1.2.1 1.801.2.2 0 .4 0 .601.1.7.2 1.301.1 2.002.1h1.501c.5 0 .8-.1.901-.6.2-.701.7-.801 1.301-.901 1.101 0 2.202-.1 3.403 0 1.902.1 3.804-.1 5.606-.901-.2.1 0-.2.1 0s.2 0 .1 0c-.3 0-.5.1-.801 0-.8-.2-1.602-.3-2.202-.901v-.4c.1-.2.2-.2.4-.301.4-.1.701-.1 1.001-.5.2-.2.4-.3.6-.5.1-.101.401-.201.1-.401-.3-.1-.5-.2-.8-.3-.1-.1-.1-.2-.1-.3.1-.201.3-.301.5-.401l1.202-.6c.9-.701 1.701-1.502 2.702-1.902.1-.1.2-.1.3-.2.2-.1.4-.2.601-.2.3-.2.5-.4.9-.4.401-.601 1.202-.601 1.602-1.302 3.904-2.703 7.707-5.405 11.811-7.707 1.301-1.101 2.603-2.302 3.704-3.503.2-.2.5-.4.4-.701.7-.7 1.301-1.501 2.102-2.102 1.101-.7 1.401-2.102 1.902-3.203.1-.2.2-.4.3-.7.2-.1.4.1.5-.1.101-.2.201-.501.201-.801.1-.3.2-.5.3-.801.2-.5.3-1.001.4-1.401.401-.901.201-1.802.301-2.703-.1-.6.2-1.101.3-1.701.3-.501.2-1.001.3-1.502.601-2.202 1.101-4.404 1.001-6.706-.2-.5-.1-1.101-.6-1.502-.401-.8-.601-1.701-.401-2.602h.401c.8 1.101 1.201 2.402 1.701 3.703.1.601.1 1.202.1 1.802v.8c0 1.703.501 3.404.1 5.106-.1.4-.4.6-.4 1.1 0 .2.2 0 .1 0-.2 0 0 0 0-.1 0-.2 0-.3.1-.5.901-1.902 1.101-3.903.901-5.905 0-.2-.1-.4-.1-.6 0-.301-.1-.702.3-.802.4-.1.501.3.701.6 0 .101.1.101.2.101.1-1.602.5-3.103.701-4.704 0-.5-.1-1.101.3-1.602 0-5.705-1.201-11.21-3.003-16.515-.5-1.401-1.201-2.703-1.802-4.104l-.3-.9c0-.701-.3-1.102-1.101-1.102-.3-.6-.6-1.1-1.001-1.701 0-.4-.2-.801-.4-1.202-.3-1.3-.7-2.602-2.202-3.202-.8-.3-1.001-1.202-1.301-1.902-.2-.5-.5-.901-.901-1.301-1.301-.5-2.102-1.702-3.203-2.403-1.402-1.501-3.003-2.702-5.005-3.203-1.601-.4-2.702-1.601-3.903-2.602-.2-.2-.4-.3-.3-.6.1-.3.4-.3.7-.3l1.201.3h.2l-.1-.1c-.6-.3-1.201-.401-1.802-.601-.6-.3-1.1-.2-1.601.2-1.401.5-2.302-.8-3.503-.9-1.301-.501-2.803-.501-4.004-1.102-.1-.4 0-.6.3-.9.2-.1.5-.1.801-.1h.6c1.902.3 3.904.5 5.806.8 2.703.8 5.505 1.401 8.308 1.802.2 0 .5.1.7.2.4.3.801.6 1.402.4.7-.3 1.2 0 1.801.3.7.2 1.301.4 1.902.801.2.3.5.5.8.7.1.1.201.1.301.201.3.3.6.4.9.6.701.701 1.302 1.502 2.203 2.002.3.2.6.4.801.601.5.7 1.101 1.301 1.701 2.002.301.5.601.9 1.001 1.2.3.301.501.501.901.702.2.1.4.2.5.4.101.1.101.2.201.3.1.2.2.5.4.6l.2.201c.1.1.1.2.2.2l.301.6c.1.401.2.701.5 1.002.3.7.701 1.501 1.201 2.102.1.2.1.3.1.5.201.8.601 1.502 1.302 1.902.5.8.8 1.701 1.401 2.302.3.8.6 1.501 1.001 2.302-.401.2-.501-.2-.701-.4.401.4.501.9.701 1.401 0 .1.1.2.1.3.1.3.1.6.3.901.1.1.1.2.2.3.201.5.201 1.001.501 1.502.1.3-.2.6 0 1 1.301 2.703 2.102 5.406 2.002 8.408.2 1.001 0 2.002.1 3.003.1.4.2.901-.1 1.301-.501.1-.501-.2-.501-.5 0-.4.1-.8 0-1.201-.1-.4 0-.9-.1-1.401v-.3c.2-.601-.1-1.202 0-1.802v.6c-.1.4.2.801 0 1.201-.3.4.1.801 0 1.201.2.901-.2 1.802 0 2.703.1.2.1.5.1.7v1.402c0 .8-.1 1.601.1 2.402.1.8.401 1.602.301 2.402-.401 1.302-.501 2.603-.901 3.904v1.101c0 .2-.1.5-.301.7-.3.401-.4.801-.1 1.302.301.5.201 1 0 1.601-.8 2.302-1.501 4.605-2.802 6.707-.1.4-.301.8-.501 1.1-.2.3-.4.701-.6 1.001-.601.701-1.001 1.502-1.402 2.403l-.3.6c-.2.2-.3.4-.6.6-.201.1-.401.201-.501.401-.4.3-.5.8-1.001 1.101-.4-.1-.7.2-1.001.5-.7.501-.8 1.302-1.201 2.002-.1.1-.2.1-.3.1-.601-.2-.601.3-.701.601-.2.3-.5.4-.7.6-.501.401-.601 1.002-.901 1.502-.1.1-.2.3-.301.4-.9.701-1.601 1.602-2.502 2.203-.3.2-.8.8-.9-.2.1-.301.4-.401.5-.501-.2.1-.4.3-.6.6-.601.5-1.302 1.001-1.903 1.602-.4.2-.7.4-1 .7-.4.3-.1.801-.3 1.202-.601.5-1.202 1.1-2.103 1.2-.1-.1-.2-.3-.2-.4 0-.1.1-.2 0-.3 0 .1-.1.2-.1.3-.3.4-.5.701-.9.901-1.102.3-2.303.401-3.004 1.502-.1.3-.3.5-.5.7-.2.2-.5.301-.7.401-.3.1-.501.2-.801.3-.801.2-1.702.4-2.503.701 1.001-.301 1.902-.501 2.903-.801.2-.1.4-.1.6-.2.2-.1.4-.301.601-.501.3-.2.6-.3.9-.3h.301c1.001.5.3 1.001-.1 1.401-.1.2-.3.401-.1.701.7.6.2 1.101-.2 1.601 0 .1 0 .201-.1.301-.2.3-.5.3-.901.4-.2.1-.4.1-.6.2-.601.2-1.102.501-1.602.901-.1.1-.3.2-.4.3-1.302.1-2.203 1.301-3.504 1.402-.6.1-1.2.2-1.801.4.3.2.4.1.6.1.4-.1.8-.1 1.201-.2l1.502-.3c.4 0 .4-.401.6-.701.2-.2.5-.3.901-.3.6 0 1.201-.401 1.802-.501.4-.1.8-.3 1 .1.2.401-.2.701-.5.901-2.002 1.201-4.004 2.102-6.306 2.502-2.402.401-4.904.901-7.406 1.101H71.49c-.4 0-.9 0-.9-.4 0-.5.5-.6.9-.701 1.502-.3 3.003-.5 4.604-.7.3 0 .6-.1.6-.1-2.401.5-5.004.2-7.706 0-1.802-.201-3.704.3-5.605.6-.701.2-1.402 0-2.102.2-.1 0-.2.101-.4.101h-.401c-.6 0-1.201.3-1.902.2-.1 0-.2 0-.4-.1-.5-.201-.901-.1-1.401-.1-.601 0-1.202 0-1.502.5-.2.1-.3.2-.5.2-.5.1-.901-.1-1.402-.2-.8 0-1.601 0-2.402-.3-.5 0-1-.2-1.501-.301-.6 0-1.101-.2-1.702-.3-.6-.2-1.201-.4-1.802-.5-.3-.1-.7-.201-1.1-.201-.4 0-.801 0-1.302-.1-.2-.1-.4-.2-.6-.4-.2-.1-.3-.1-.5-.2-.601-.701-1.502-.3-2.203-.801-.3-.5-.7-.801-1.2-1.001-.401-.4-.902-.6-1.302-1.001-1.001-.7-2.002-1.601-3.003-2.202-.2-.1-.2-.3-.2-.5.3-.601.8-.301 1.201-.2.4.1.9.2 1.201.5.1.1.3.2.4.3.4.1 1.001 0 1.602-.1z"/>
    <path fill="#00C38B" d="M92.21 7.557l.7.7c.301.301.701.601.902 1.002 2.102 1.601 3.903 3.503 5.805 5.305.2.2.5.3.801.5.2.2.4.4 0 .6-.2.1-.301.1-.5.1-.2 0-.401 0-.601.201-.1.2-.2.4-.1.6.1.1.2.3.2.4.2.702-.5.702-1.001 1.002 1.601 1.401 2.802 3.103 4.304 4.504.2.2.4.3.5.5.2.3.501.5.301.901-.301.4-.601 0-.801-.1-.2-.1-.3-.1-.501-.1-.5-.2-.7-.7-1.201-.9-.6-.401-1.1-1.002-1.501-1.502-.3-.4-.901-.5-1.201-.8-.1-.201-.2-.401-.4-.501-1.102-.901-2.403-1.502-3.704-2.202-.4 0-.8-.1-.9-.6-.101-.501-.601-.702-.902-1.102-.6-.4-1.1-.9-1.901-.5-.4-.901-1.202-1.402-2.002-1.802-.801-.7-1.802-.9-2.603-1.702v-.1c-1.901-.3-3.703-.9-5.405-1.501-.4-.2-.8-.4-1.3-.3-.401 0-.802 0-1.102-.1-.4-.2-.9-.2-1.401-.3-.4-.1-.801-.301-1.001.3-.6-.1-1.201.2-1.702-.3.1-.601.5-.301.801-.301-.4-.2-1 .1-1.501-.1-.1-.1-.2-.1-.3-.2-1.002 0-1.902 0-2.903-.1-.701-.4-1.402.4-2.102-.3.5-.701 1.1-.701 1.801-.701.5 0 1.101.1 1.602.1h1.701c-.8-.1-1.801.2-2.802-.3.6-.601 1.301-.4 1.902-.4h2.001c.601-.101 1.102.3 1.602.3-.6-.1-1.301-.401-2.102-.3-1.702-.101-3.503.2-5.205-.101h-1.301c-1.001-.2-2.002-.3-3.003-.2h-2.402c-.2 0-.4-.1-.6-.2-.3 0 .3-.701-.3-.4-.301.1-.701.1-1.002 0-1.401-.501-2.702-.1-3.903.5-.4.2-.801.4-1.201.2-.4-.7.4-.8.5-1.201-.3-.2-.5 0-.8.1-.201-.3-.401-.2-.601-.1-.2 0-.4.1-.5 0-.702-.3-.401-.6 0-.901.7-.5 1.5-.9 2.101-1-.5.2-1.301.3-2.202.3-.8 0-.9-.401-.3-.901.1-.1.2-.1.3-.2.2-.1.4-.1.5-.1 1.102.1 2.002-.401 3.003-.501.701-.1 1.402-.2 2.002-.1.3 0 .1-.3.1-.1 0 .1 0 .1-.1.1-.2 0-.4 0-.6-.1-.3-.1-.6-.2-.6-.5 0-.301.2-.401.5-.501.2-.1.5-.2.7-.2.5-.1 1.001-.1 1.502-.1 1 0 1.901-.1 2.802-.401.2 0 .3-.1.5-.1.501 0 .901-.1 1.302-.3 1.601-.3 3.203 0 4.804.1 1.702.2 3.403.1 5.005.2 1.401.1 2.702.2 3.903 1 .901 0 1.502.701 2.303.701.5 0 1 .2 1.4.3.802.201 1.502.601 2.203.902.1.1.1.2.1.3.9.6 1.802 1 2.903 1.1.6.101 1.2.601 1.701.902 1.101.5 2.102.9 3.003 1.601zM10.234 36.886c.5 0 .701-.5 1.201-.5.4.8-.3 1.6-.2 2.401-.1 1.001 0 2.102-.3 3.103-.3 1.001-.5 1.902-.8 2.903 0 1.301-1.002 2.202-1.102 3.503-.1.1-.2.1-.3.1-.1-.1-.2-.3-.2.1-.2.3-.3.701-.4 1.001-.1.4-.1.901 0 1.302-.1 1.901.1 3.703-.2 5.605-.1.6-.2 1.301.3 1.901.2.501.2 1.002.1 1.502-.2.7-.2 1.301-.1 2.002 0 .4.1.8.2 1.301v1.101c-.1.5-.3 1.101-.2 1.602 0 .4.1.7.2 1 .1.4.2.801-.2 1.101-.901 0-.1.601-.3.901v1.502c-.1.6.2 1.1-.1 1.701-1.102.2-.902-.7-1.102-1.2-.3-2.703-.7-5.406-.9-8.108v-1.602c-.1 3.303.5 6.506.8 9.71.3 1.2-.2 2.401.4 3.602.3 1.402 1.001 2.603 1.502 3.904.1.1.1.2.1.3.1.3.3.6.3.901 0 .2-.1.4-.3.4-1.902-.1-4.404-1.3-4.905-3.503.1.2.1.4 0 .6-.2.201-.3.401-.6.1l-.6-2.401c-.1-.2 0-.3.1-.4.3-.501-.2-.801-.3-1.202-.301-1.601-1.202-3.103-1.302-4.804-.1-1.001-.3-2.002-.1-3.003 0-3.403 0-6.906.5-10.31 0-.2 0-.4.1-.6.2-.4.2-.9.2-1.401 0-.6.2-1.201.4-1.802.301-.4.101-1.401.802-1.401.7.1.3 1 .4 1.501.3 1.602-.5 3.303 0 4.905.1.6.1 1.3.1 1.901 0 .2 0 .4-.1.6-.3.802 0 1.602.1 2.403.1 1.001.2 2.002.4 3.103.1.2.1.5.1.7.2.901.501 1.702.501 2.403 0-.6-.2-1.401-.4-2.202-.2-.901-.1-.901.7-1.802.1-.2 0-.3 0-.5v-2.703-1.2-.802-1.901c-.2-.901-.8-1.802-.7-2.703-.2-.4 0-.7 0-1.1.1-.702-.1-1.502.1-2.203.6-1.101.2-2.402.6-3.503 0-.5.1-1.001.3-1.502.501-.9.1-2.102.801-2.902.5-.6.5-1.301.801-1.902.3-.7.7-1.501 1.702-.9.1.1.3.3.3.4.1.3.1.6 0 .9-.2.3-.2.6-.3.801.1-.2.3-.6.4-1 0-.301.1-.702.2-1.002.4-.6-.1-1.501.6-2.102.301 0 .401-.4.701-.6z"/>
    <path fill="#05BD8B" d="M3.528 76.921v-1.1c1.001 2.602 2.803 3.603 5.205 3.803.1-.3-.3-.6-.4-1.001.1-.1.2-.1.3-.1.2 0 .4.2.6.4.5.6.801 1.401 1.101 2.102.2.5.5 1.101.901 1.501.4.5.901 1.001 1.201 1.602-.1.6-.1 1.201.3 1.701v.3c-.1.501-.9.601-.8 1.202.1.3.2.5.1.8-.1.3-.3.3-.6.3-.4 0-.3-1.1-1.101-.5-.2.2-.701-.8-1.202-1.3l-.2-.201c-.7-.6-.7-1.702-1.501-2.202-.2.1-.3.3-.5.2-.801-1.501-1.702-2.903-2.303-4.504-.2-.3-.3-.6-.4-1-.1-.301-.4-.602-.4-.902 0-.2-.1-.4-.2-.6-.2.1.1-.2-.1-.5z"/>
    <path fill="#06BD8C" d="M67.388 114.456h-1.002c-2.001.3-4.003.1-6.005-.301-.6-.2-1.301-.1-1.902-.2-.5-.2-1.1-.2-1.701-.3-.4-.2-.901-.1-1.402-.2-.4-.2-.7-.3-1.1-.401-.401-.1-.801-.1-1.202-.2-.3-.1-.6-.2-.8-.5.3-.601.8-.501 1.3-.401.601.101 1.202.201 1.902.201 1.502 0 3.003.3 4.404.7h1.001c.3 0 .701 0 1.001.1h.801c.7.201 1.401.1 2.202.1h4.204-4.104c-.8 0-1.601 0-2.502-.1-.2 0-.4 0-.6-.1-.1-.1-.2-.2-.2-.3l.3-.3c.7-.2 1.5-.1 2.202 0 .8.2 1.601.2 2.302.1h.4c2.402.1 4.805.1 7.207-.401.4-.1.9-.1 1.401 0 .6.201 1.301.201 1.902 0 .2-.1.4-.1.6-.2.901-.1 1.702 0 2.603-.1.4 0 .8-.2 1.2 0 .201.1.301.3.401.501 0 .6-.5.6-.9.8-1.402.401-2.903.601-4.305 1.001-.5.2-1 0-1.501.1-.4.1-.8.1-1.101.1-.8.301-1.702.101-2.502.301H70.89c-.7.1-1.402 0-2.002.2-.5.1-1.001 0-1.501-.2z"/>
    <path fill="#01C18B" d="M71.391 104.947c.7.3 1.401.7 2.302.8.3.301.701 0 1.001.301-1.401 1.001-3.002 1.301-4.704 1.201h-4.905c-.5 0-1.1-.1-.8.801.2.6-.2.7-.6.7h-2.203c-.1-.1-.1-.2 0-.3.1-.1.2-.1.3-.1h.4-.7c-.6 0-1.201.2-1.802 0-.2-.1-.4-.1-.4-.3.8-.601 1.001-.701 2.202-.601-.5.1-1.401-.1-2.402-.2-.6-.2-1.301-.1-1.902-.501-.1-.2 0-.4.2-.5.4-.2.901-.1 1.402-.2.3 0 .5-.1.8-.201.1 0 .3-.1.4-.1 1.102-.1 2.203.401 3.304.1h1.401H63.384c-.8.101-1.702.401-2.402-.5 3.103-.1 6.105-.2 9.208-.3.2-.2.7-.501 1.201-.1z"/>
    <path fill="#02C18B" d="M5.03 46.795c-.3.7-.3 1.501-.3 2.302 0 .5-.1.9-.501 1.201-.2-.2-.2-.4-.3-.7 0-.4-.1-.901-.2-1.302 0-.2-.1-.5-.1-.7-.1-.701.1-1.302.1-1.902-.3 1.601-.4 3.203.1 4.804v.3c-.3.4-.4.901-.2 1.402.1.4.1.7 0 1.1v.401c-.2.5-.1 1.001-.2 1.502-.1.4-.1.9-.501 1.2-.4-.8-.4-1.7-.2-2.401.4-1.302-.1-2.603.2-3.904-.8.3-.2 1.1-.7 1.301-.201-.3-.1-.7-.1-1-.101-4.805 2-8.809 3.903-12.813.1-.1.2-.1.3 0 .2.3.2.6.1.701.8-.8 1.902-.9 2.502 0 .5.7-.2 1.201-.7 1.602-1.001-.501-1.201.4-1.402.9-.3.5-.1 1.301-.8 1.702-.6.8-1.001 1.702-.901 2.702-.1.6-.5 1.001-.1 1.602z"/>
    <path fill="#07BE8C" d="M90.709 15.564c.3-.7.7-.8 1.301-.3.3.2.6.4.9.5-.2.2-.1.401-.1.601 0 .1-.1.2-.1.2-.1.2.1.2.2.2.201.1.501.2.701.4.2.401.701.401 1.001.601.1.2.1.3-.1.5-.7-.1-1.3-.6-2.102-.1-.2.201-1-.1-1.2-.6-.1-.3-.201-.4-.501-.3-.1.1-.2.2-.3.2-2.603-.7-5.406-.9-8.008-1.902-.2-.2-.3-.4-.5-.6-.5-.5-1.302-.5-1.902-.8-.4-1.102.8-.501 1-.902 2.203.1 4.305.5 6.307 1.502 1 .6 2.202 1 3.403.8z"/>
    <path fill="#19B590" d="M41.864 112.756c-1.001-.1-1.902-.2-2.903-.3-.5-.2-1.001.1-1.501-.1-.3-.1-.5-.2-.701-.401-.3-.3-.7-.4-1.101-.4h-.3c-.2 0-.3-.1-.5-.2-.701-.701-1.602-1.001-2.503-1.401l-1.201-.601c-.3-.4-.801-.5-1.101-.901 0-.3 0-.5.4-.4 3.403.1 6.106 2.102 9.209 3.203 1 .4 1.901.901 2.802 1.301 0 .4-.3.2-.6.2z"/>
    <path fill="#12B58E" d="M87.606 100.945c.8-1.201 1.902-1.601 3.203-1.501.4-.2.7-.701 1.301-.5.7-.401 1.301-.802 2.002-1.202.1-.6.6-.8 1-1 .201-.101.301-.201.101-.401-.3-.3 0-.4.2-.6.6-.601 1.101-1.202 2.002-1.502.1-.1.2-.1.3 0 .1.6.3.2.6.1 1.102-.6 1.702-1.702 2.703-2.402.201.1.401.3.301.5-.301.5-.701.9-1.101 1.201-1.702 1.502-3.504 3.003-5.205 4.504-.3.601-.7.801-1.301.901-.801.4-1.502.801-2.303 1.201-.8.401-1.601.501-2.402.1-.2.101-.3.301-.5.401-.2.1-.4.2-.6.2-.1.1-.2.1-.301 0z"/>
    <path fill="#06BC8C" d="M34.757 103.747c1.201.5 2.102 1.401 3.003 2.202l-.1.1c-.5.4-.901.1-1.301-.1l-.6-.3c-.802-.401-1.903-.501-2.603-1.202-.4-.4-.801-.7-1.301-1-.4-.301-.801-.501-1.202-.801-.1-.1-.3-.2-.4-.3-.4-.301-.8-.501-1.201-.801-.3-.2-.7-.501-1.101-.601-.5-.3-.901-.6-1.301-.901-.1-.1-.1-.2-.2-.3-.1-.5-.501-.9-.701-1.301 0-.1-.1-.2-.1-.3 0-.2.1-.3.2-.5.1.1.2.2.2.3.8.3 1.401 1 2.302 1.3.4.2.7.601 1.101.801.5.201.801.801 1.301 1.101 1.202.901 2.603 1.302 4.104 1.602.3.2.7.3.6.801-.3.1-.7-.401-1 0-.1 0-.2.1-.1.2.1 0 .2.1.4 0z"/>
    <path fill="#03BF8B" d="M82.401 17.367c.4-1.001.9-.7 1.502-.3.6.3 1.4.4 2.001.7.3 0 .6 0 .801.3-1 .501-1.902-.3-3.103-.3 1.702 1.602 3.303 2.903 5.405 3.403 1.702.5 2.803 1.702 3.804 3.103-2.503-2.102-5.606-3.103-8.708-4.104-.4-.1-.801-.2-1.001-.6-.1-.3-.4-.2-.6-.3-.401-.1-.802-.1-.902-.6-.1-.501.3-.602.701-.602.3-.1-.1 0 0-.1-.3-.2-.2-.4.1-.6z"/>
    <path fill="#0CB58B" d="M7.532 72.017v-1.502c.1-.1.2-.1.3 0 .3.3.4.6.6 1.001.1.3.301.6.501.8.3.401.2 1.102 1.001.902 1.101 1.501 2.002 3.303 2.903 4.904.9 1.402 2.102 2.603 2.602 4.204.1.8-.2 1.702.4 2.402.501.901.4 1.001-.4 1.001-.3-.3-.8-.3-.9-.8-.1-.2-.3-.4-.3-.701.2-.2 0-.5-.101-.7 0-1.102-.5-2.003-1.101-2.903-1.101-1.602-2.002-3.403-2.903-5.205-.4-.8-.9-1.502-1.901-1.001-1.102-.5-.5-1.602-.701-2.402z"/>
    <path fill="#0DB58C" d="M49.67 107.451c-.8.301-.9-.7-1.6-.9-1.502-.301-2.903-.701-4.305-1.101.3-.301.6-.101.901-.101-.4-.2-.7-.2-1.1-.2-.401-.1-.601-.2-.601-.6.2-.601.6-.601 1.1-.501.801.1 1.702.2 2.503.401.5.2 1 .3 1.501.5.3 0 .6 0 1.001.1.2 0 .4 0 .5.2h.401c.4-.2.7 0 1.101.201.2.2.3.4.2.7-.3.3-.7.401-1.1.501.1.4 1 0 .7.8-.3.1-.8-.3-1.201 0z"/>
    <path fill="#19B18F" d="M102.92 16.766c.801-.1 1.001.7 1.502 1.101.4.7.1 1.802 1.301 1.902.5 0 .801.3 1.001.8 0 .401-.1.902-.1 1.302-.1.3-.301.7-.701.8-1.001-.7-2.302-1.1-2.502-2.502.2-.1.3-.3.5-.1 0-.2-.2-.1-.3-.2-.701-.4-1.301-1-1.802-1.601-.1-.2-.2-.4-.1-.6.4-.101.501-.401.601-.802.6 0 .8.701 1.201 1.001-.401-.4-.801-.6-.601-1.1z"/>
    <path fill="#17B38F" d="M15.54 77.223c.6.6.7 1.602 1.2 2.202 0 .3-.3.6-.3 1.001 0 .1-.1.2-.1.3-.1.2-.2.4-.5.5-.901-.3-1.402-1.3-1.702-1.901-.9-1.802-2.502-3.303-2.802-5.405 0-.4-.2-.7.1-1 .9 0 .8.9 1.1 1.4.1.5.2 1.001.701 1.202.6.6 1.001 1.5 1.802 1.901.4.2.3-.2.5-.2z"/>
    <path fill="#19B590" d="M82.401 17.367c-.5.9.701.6.801 1.1-.5 0-1.1-.4-1.401.301.2.5 1.1.2 1.301.901-1.1-.3-2.302-.4-3.203-1.301-.3-.3-.8-.3-1.301-.4.2-.701.7-.1 1-.3-.4-.101-.8-.101-1.3-.101s-.901-.5-1.402-.5c-.1 0-.2 0-.2-.1-.2-.801.4-.701.8-.901.501.1 1.002-.1 1.402.2.7.3 1.602.1 2.102 1 .1.2.901.1 1.401.1z"/>
    <path fill="#2EAE96" d="M1.726 54.799c-.3 3.503-.5 7.006-.8 10.51-.1.1-.2.1-.2-.1-.2-2.403-.4-4.805-.601-7.107-.1-.4-.1-.7-.1-1.101.5-.5.9-1.001.9-1.802.1-.3.1-1.1.801-.4z"/>
    <path fill="#14B58E" d="M15.54 77.22c-.1.2.3.9-.501.4-.8-.5-1.201-1.2-1.701-1.901-.4-.3-.601-.801-.801-1.302-.4-.5-.1-1.3-1.001-1.501l-.1-.1c-.3-.3-.4-.7-.6-1.001-.101-.2 0-.5.1-.7.2-.2.3-.401.6-.2 1.401 2.101 2.802 4.103 4.004 6.305z"/>
    <path fill="#1CB190" d="M53.675 3.555h-.5c-.3 0-.701 0-.701-.3-.1-.6.5-.701.8-.901C54.677.552 56.578.452 58.68.652c.4.4.2.7-.2.801-.3.1-.6.2-.8.3-.3.2-.701.1-.901.3-.3.3-1.402-.1-1.101 1.001 0 .1-.4.2-.6.3-.501.301-1.002-.1-1.402.2z"/>
    <path fill="#23B494" d="M76.896 113.654c1.402-.7 3.003-.8 4.504-1.201.3-.1.701 0 .701-.5.6-.801 1.502-.501 2.202-.801.4-.2.901-.3 1.301-.4.3-.1.6-.2.901-.1.1.1.2.2.2.3 0 .5-.6.5-.9.801-1.302.9-2.703 1.301-4.204 1.501-.1-.3 0-.4.3-.3-.4-.2-.6.2-.9.3-.602.2-1.302.4-2.003.501-.7.1-1.501.4-2.202.3.1-.2 0-.2.1-.401 0 .101 0 0 0 0z"/>
    <path fill="#43B09F" d="M55.376 10.059c.1-.1.2-.2.3-.2.1-.1.2-.1.301-.2.2-.1.4 0 .5-.1-.1-.101-.3-.101-.4-.201v-.3c.3-.3.6-.4 1.001-.4.6.3 1.301-.1 1.902 0 .5.3.9.1 1.401 0 1.001 0 2.102-.1 3.103-.2.2 0 .4.1.5.3 0 .9-.7.6-1.2.7l-2.103.3h-.2c-.3.4-.7.801-1.1 1.201h-.201c-1.001-.5-2.002-.1-3.003-.1-.4-.3-.8-.3-.8-.8z"/>
    <path fill="#16B28E" d="M33.256 104.246c.8.7 1.901.7 2.702 1.201 0 .2-.1.5-.3.6-.7.1-1.301-.4-2.002-.5.5.3 1.001.801 1.401 1.201.1.2.2.3 0 .5-.2.1-.5.1-.7-.1-1.502-1.201-3.103-2.502-4.805-3.403-.1-.2-.5-.4 0-.7.3-.101.6.1.801.2.4.2.7.3 1.101.5.6.601 1.201.501 1.802.501z"/>
    <path fill="#12B78E" d="M99.617 14.564c-1.702-.8-2.803-2.302-4.104-3.503-.6-.6-1.501-.9-1.901-1.702.1-.1.1-.3.3-.3 1.301 1.001 2.502 2.002 3.803 2.903.901.6 1.802 1.301 1.902 2.602z"/>
    <path fill="#07BB8B" d="M96.014 26.876c1.2 1.702 2.802 3.003 4.103 4.605.401.5.501 1.2.501 1.901 0 .2-.1.3-.3.3-1.101-2.502-3.303-4.303-4.304-6.806z"/>
    <path fill="#09BA8C" d="M8.233 39.788c.1-.1.2-.2.1-.3-.1-.401.8-.701.2-1.102-.5-.3-1.001-.8-1.702-.3-.2.1-.4.5-.7.4v-1l.2-.2c.1-.2.2-.401.4-.501.2-.2.6-.1.901-.3.2-.1.3-.2.5-.3.1-.1.2-.1.3-.1.401.1.201.7.701.7.3.2.801.3.5.8-.6.601 0 1.402-.4 2.002-.2.4-.3.701-.7.5l-.3-.3z"/>
    <path fill="#25B194" d="M73.693 12.061c1.502.5 3.203 0 4.805.7-.4.401.4.301.3.601-.1.4-.6.5-.7.901-.601.1-1.102-.1-1.502-.3-.2-.1-.8-.2-.3-.7-.1-.1-.1 0-.2 0-.701 0-1.402-.1-2.102.1-.3.1-.801.1-.901-.2 0-.301.1-.301-.3-.201-.701.2-.701.2-1.002-.6.601-.3 1.202-.601 1.902-.3z"/>
    <path fill="#28AF94" d="M85.905 111.652l.7-.701c.2-.3.6-.4.901-.7.1-.201.5-.301.2-.601-.2-.2-.2-.4-.1-.6.2-.301.4-.501.7-.701.401-.2.201-.701.401-1.001.5-.3.801 0 .801.5v1.402c.2 1.301-.6 1.801-1.601 2.002-.701.3-1.402.4-2.002.4z"/>
    <path fill="#66B8AE" d="M63.484 116.658h.7c.401.401 1.202-.3 1.502.501-.1.2-.3.2-.5.3-.4.1-.801 0-1.302 0-.4 0-.7 0-1-.2-.701-.5-1.502 0-2.303-.3-1.801 0-3.503-.2-5.205-.801.2-.701.601-.3 1.001-.3 1.302.2 2.603.4 4.004.5 1.001.401 2.102 0 3.103.3z"/>
    <path fill="#23AF92" d="M9.033 86.53c.601.3.801 1.1 1.302 1.6.4-.2.1-.6.4-.9.4.2.5.5.5.9.1.701.3.301.601.1.9.201.8 1.002 1.001 1.602 0 .1 0 .2-.1.3-.4.401-.8-.2-1.201 0-.3 0-.5-.2-.6-.5-.401-.6-.902-1.1-1.302-1.701-.3-.4-.9-.801-.6-1.402z"/>
    <path fill="#14BB91" d="M113.931 68.313c.3-1.302.4-2.603 1.001-3.804.5-.1.3.3.5.5.1 1.802-.701 3.504-1.001 5.205-.3.1 0 .901-.4.701-.501-.2-.301-.8-.1-1.201.1-.2.2-.4.2-.5-.301-.3 0-.701-.2-.901z"/>
    <path fill="#20AF91" d="M109.827 29.078c-.301.4-.2.801 0 1.202-.1.7-.501.3-.801.2-.2-.1-.3-.3-.4-.6 0-.201 0-.301.1-.501.5-.4.1-.5-.2-.6-.201 0-.301 0-.501-.1-.2-.101-.3-.201-.4-.401-.1-.4-.301-.801-.2-1.201.5-.2.1-.6.2-.901.1-.4-.401-.801 0-1.301 1.101.1 1.101 1.2 1.601 1.701.2.5.401 1.001.401 1.502.1.4 0 .7.2 1z"/>
    <path fill="#16B38F" d="M106.323 21.871c-.2-.5-.1-.9.301-1.301.7.9 1.301 1.802 2.002 2.702.1.5.9 1.001 0 1.402-.401 0-.601-.3-.901-.5-.1-.1-.1-.201-.2-.301-.101-.2-.201-.4-.401-.5-.3-.501-.901-.801-.801-1.502z"/>
    <path fill="#39B39C" d="M79.398 9.86c1.802.501 3.504 1.102 5.305 1.602l1.502.6c-2.302.401-4.204-1.1-6.306-1.4-.2 0-.4-.1-.6-.1-.301-.3.3-.401.1-.701z"/>
    <path fill="#13B58E" d="M56.177 10.56c1.001-.3 2.102-.801 3.003.2-1.702.6-3.503.6-5.405.6.4-.2.9-.4 1.301-.6.3-.3.7-.4 1.101-.2z"/>
    <path fill="#98CDC8" d="M62.683 9.06c.5-.1 1.001.2 1.301-.4.2-.2.4-.1.6 0 .401.1.701-.1 1.002-.3.1-.1.3-.2.5-.2.4-.1.901-.1 1.301.1.1.1.2.2.2.3 0 .2-.2.2-.2.3.2 0 .3-.1.5-.2.201 0 .301 0 .501.1.6.2 1.402-.2 2.002.3-1 .3-2.002.3-3.003.2-1.601-.2-3.203.3-4.804.3-.3-.2-.1-.3.1-.5z"/>
    <path fill="#1EB291" d="M103.921 59.004v-.5c.601-.801 1.001 0 1.502.1.3.2.6.3.801.5.3.3.5.6.5 1.001 0 .2-.1.3-.3.4-.301.2-.501.501-.801.801-.1.1-.2.1-.3.1-.1-.1-.201-.1-.201-.2-.1-.3-.3-.6-.5-.8-.2-.3-.5-.601-.701-.901 0-.1.1-.3 0-.5z"/>
    <path fill="#22B193" d="M71.891 114.154c.801-.5 1.702.1 2.503-.4.1.2.5 0 .5.4-.2.501-.7.1-.9.3.2-.1.4-.1.6.1-1.201.601-2.502.401-3.704.301-.5.2-1.1-.1-1.501.3-.3.1-.5.1-.8-.1-.2-.3.1-.4.2-.501.6-.5 1.4-.1 2.001-.2.3.2.6.1.901.1.4-.1.4-.3.2-.3.1.1 0 0 0 0z"/>
    <path fill="#2FB498" d="M110.127 25.774c1.401 1.1 1.701 2.802 2.002 4.404 0 0 0 .1-.1.1h-.201c-.3-.2-.7-.4-.8-.8-.1-.1-.1-.2-.1-.301-.101-.3-.101-.6-.301-.9-.2-.301-.5-.601-.7-1.002-.1-.1-.201-.3-.201-.4-.1-.2-.1-.5-.1-.7.1-.201.1-.401.501-.401z"/>
    <path fill="#1FB492" d="M9.934 64.509c.3 1.501.6 3.103.6 4.704 0 .3.801.901-.3.901-.3-.3-.4-.6-.5-1-.1-.601-.3-1.202-.3-1.903 0-.3 0-.7-.1-1-.1-.2-.2-.4-.2-.701.1-.5.1-1.001.8-1.001z"/>
    <path fill="#43AE9E" d="M1.727 54.802c-.901 0-.4.701-.5 1.001 0 .701-.2 1.202-1.002 1.001-.2-.2-.1-.4-.1-.6-.1-.7-.1-1.301.2-1.902.4-.2.701-1.501 1.402-.3.1.1 0 .2 0 .3v.5z"/>
    <path fill="#75BEB6" d="M40.462 115.458c-.7-.3-1.501-.7-2.202-1-.1-.501.3-.601.5-.801.401-.2.801 0 1.202.2.5.4 1.2.2 1.601.801 0 .2 0 .4-.1.6-.3.401-.6.401-1 .2z"/>
    <path fill="#31B69A" d="M34.457 107.151h.7c.801-.201 1.402.4 2.002.8.4.301.8.501 1.301.701.1 0 .2.1.3.1.301.1.401.3.601.501.4.4 1.101.4 1.301 1-.1.301-.3.301-.6.101-2.002-.601-3.503-2.303-5.605-3.203z"/>
    <path fill="#A7D4D0" d="M7.932 62.007c-.2-.7-.4-1.3 0-2.002.2-.2.4-.2.6-.2.301.1.401.4.401.701v.3c.5.3.7.7.2 1.201-.1.2-.7 0-.5.6-.2.101-.3.101-.5 0 0-.2-.1-.4-.2-.6z"/>
    <path fill="#25B294" d="M46.468 104.448c-.8 0-1.501.1-2.302-.2-.5-.2-1.001-.1-1.201.501-.1.1-.3.2-.5.2-.401 0-.701-.1-1.002-.301-.4-.5-.3-.9.3-1.201 1.502.501 3.204.401 4.705 1.001z"/>
    <path fill="#8DC8C2" d="M40.462 115.456c.3 0 .801 0 .801-.5.4-.201.9-.201 1.301 0 .4.1.901-.201 1.001.5.1.1.1.2.2.3 0 .201 0 .401-.2.501-.6-.1-1.1-.3-1.701-.1-.601.1-1.101-.2-1.402-.701z"/>
    <path fill="#21B794" d="M77.397 99.444c-1.001.7-2.102 1.501-3.103 2.202-.3 0-.6.1-.901 0-.1-.1-.3-.201-.2-.401.7-.5 1.601-.6 2.202-1.3.6-.401 1.3-.501 2.002-.501z"/>
    <path fill="#4DB7A5" d="M9.033 86.53c.2.5.3 1.001.5 1.502-.6-.7-1-1.502-1.9-1.802 0-.7-.501-1.301-.301-2.002.1-.6.3-.4.5-.1.3.8.7 1.602 1.201 2.402z"/>
    <path fill="#10BA8E" d="M96.114 86.23c-1.101 1.402-2.402 2.703-4.004 3.504 1.201-1.502 2.502-2.803 4.004-4.104.2.2.2.4 0 .6z"/>
    <path fill="#16BE92" d="M115.332 65.009l-.501-.5c0-.802.1-1.702-.2-2.503 0-.8-.5-1.702.5-2.302.301.6.201 1.2.101 1.901-.401 1.202.9 2.203.1 3.404z"/>
    <path fill="#5AB7AA" d="M32.955 99.944c1.302.701 2.703 1.201 3.403 2.703-.4.2-.7.1-1-.1-.4-.301-.701-.701-1.202-.901-.3-.2-.5-.401-.8-.601-.3-.2-.6-.3-.801-.6-.2-.301-.3-.6.4-.5z"/>
    <path fill="#14B78F" d="M68.889 13.863c-.701-.2-1.502-.4-2.202-.3-.6-.4-.3-.601.1-.801h.4c1.201 0 2.302.2 3.403.5.5.1 1.001.4.2.901-.3.1-.6 0-.9 0-.2 0-.4 0-.5-.1-.201 0-.301-.1-.501-.2z"/>
    <path fill="#1AB791" d="M102.42 73.717c.4 1 .5 1.901 0 2.802-.501.3-.1 1.101-.801 1.201-.3-.1-.3-.4-.1-.6.2-1.101.5-2.202.901-3.403z"/>
    <path fill="#A4D6CF" d="M57.779 1.552c.1-.3.3-.5.6-.4.6.1.2-.3.2-.5 1.001-.2 1.902.4 2.803.2-.1.7-.8.4-1.101.7-.6 0-1.101.1-1.702.1-.2.1-.5.2-.8-.1z"/>
    <path fill="#74BFB6" d="M1.726 53.998c-.6-.8-.8.3-1.3.2.6-1.3 1.4-2.602 1.8-4.003 0 .3 0 .7.101 1-.1.601-.2 1.202-.3 1.702-.3.4 0 .801-.3 1.101z"/>
    <path fill="#61B7AC" d="M108.325 83.93c.301-1.002.701-1.903 1.502-2.503.2.1.2.3.2.5s0 .3-.1.5c-.1.501-.501.802-.401 1.302-.1.6-.7.6-1 1.001-.201-.2-.101-.5-.201-.8z"/>
    <path fill="#45B5A1" d="M77.397 16.365c-.2.3-.801.2-.701.7-.7-.1-1.301-.1-2.002-.2-.6-.3-1.2.1-1.802-.2-.2-.3 0-.6.2-.8.1-.1.301-.1.501-.1.1 0 .2.1.3.1.801.4 1.602.2 2.302 0 .501 0 .901.1 1.202.5z"/>
    <path fill="#28B696" d="M115.132 61.608c-.2-.6.2-1.301-.301-1.802-.2-.3-.2-.7-.4-1.1.1-.601.2-1.202.601-1.703v-1.2c.1-.1.2-.1.2 0 .6 1.2-.1 2.402 0 3.603.2.7.4 1.501-.1 2.202z"/>
    <path fill="#2DB097" d="M9.534 51.599c.1.8-.4 1.601-.3 2.402-.801 0-.701-.7-.801-1.201 0-.5.1-.901.2-1.402 0-.3.1-.5.2-.7.2-.4.1-.901.4-1.301.2-.1.4-.1.5.1v.8c-.2.4 0 .901-.2 1.302z"/>
    <path fill="#35B099" d="M110.127 25.774c-.2.1-.2.3-.2.5-1.101.1-1.201-.8-1.602-1.401 0-.1.1-.2.201-.3 1-.2.1-.901.2-1.302.8.601.901 1.702 1.401 2.503z"/>
    <path fill="#2DAF96" d="M106.624 60.105c-.2-.3-.3-.6-.501-.9-.2-.301-.2-.601.1-.801.401-.1.801.4 1.202.1.2.1.3.2.5.2.1.5-.2 1 0 1.501-.2.2-.5.2-.5 0-.301-.9-.301.1-.501.1s-.3 0-.3-.2z"/>
    <path fill="#2FB498" d="M63.183 105.947H59.38c-.2-.201-.8-.101-.7-.701h2.001c.8.5 1.602.6 2.502.2.1.2.1.3 0 .501z"/>
    <path fill="#1BB591" d="M88.106 104.948c.2-.501.901-1.001 0-1.502.2-.3.5-.6.701-.901.2-.2.3-.7.8-.4.401.601 0 1.201-.2 1.702 0 .2 0 .5-.2.7-.3.301-.6.701-1.1.401z"/>
    <path fill="#5DBAAB" d="M109.126 30.279c.3-.1.5.3.801 0 .2.4.4.8.7 1.1.201.301.501.702.1.902-.5.4-.6-.3-.9-.5-.301-.2-.401-.401-.601-.601l-.3-.3c-.2-.3-.3-.601.2-.601z"/>
    <path fill="#2DB999" d="M89.408 107.948c-.2-.3-.3-.7-.801-.3-.1.1-.2.1-.3.1-.901-.5-.801-1.501-1.201-2.302.4 0 .7-.1 1-.2.2 0 .3.1.3.3 0 .501-.7 1.101.401 1.301.3 0 .9.501.6 1.101z"/>
    <path fill="#76BFB7" d="M38.76 113.654c0 .401-.3.501-.5.801-.7-.5-1.701-.6-2.202-1.501.2-.2.4-.301.7-.401.201 0 .401 0 .601.1.2.101.4.201.5.401.101.4.602.2.802.5 0 0 0 .1.1.1z"/>
    <path fill="#40AF9D" d="M52.974 114.156c-.3-.201-.8-.401-.1-.701.2-.1.5 0 .7-.1.1 0 .2.1.3.1.501.3 1.102.4 1.802.5.3.101.701.201 1.001.401.1.1.1.2.1.3-.3.2-.6.2-.9.1-1.001.1-1.902-.5-2.903-.6z"/>
    <path fill="#9BCFCA" d="M92.21 7.558c-1-.3-2.101-.6-2.802-1.4 1-.301 2.102.2 2.802 1.4z"/>
    <path fill="#34AF99" d="M72.692 102.546v.2c0 .2 0 .4-.2.601-.1 0-.2 0-.3-.1-.4 0-.901-.101-1.502-.101.601-.7 1.101-1.201 1.802-1.501.2-.1.3 0 .4.2-.1.2-.8.401-.2.701z"/>
    <path fill="#31B299" d="M84.603 3.853c-.9.1-1.501-.6-2.202-.8-.2-.101-.3-.201-.3-.401 0-.1.2-.2.3-.1.901.2 1.802.3 2.502 1 .1.3 0 .4-.3.3z"/>
    <path fill="#3FB59E" d="M9.734 37.784c-.1-.4-.4-.6-.7-.7-.1-.2 0-.5 0-.701.1-.5.4-.9 1-.9.7.4-.5 1.1.3 1.4-.1.4 0 .901-.6.901z"/>
    <path fill="#57B6A8" d="M13.237 93.939c-1-.601-1.601-1.602-2.101-2.603-.1-.2 0-.3.2-.4.3 0 .4.2.5.4.3.3.5.6.901.8v.1c.2.602 1 .902.5 1.703z"/>
    <path fill="#42B8A0" d="M113.831 69.713v1.101c.2-.3.4-.4.5-.6-.1.9.1 1.801-.5 2.502 0-.5 0-1.001-.401-1.502-.2-.4-.2-1.1.401-1.501z"/>
    <path fill="#A7D3CF" d="M93.612 99.14c.4-.4.8-.7 1.3-.9.801.4.1.8 0 1.2.1.1.1.1.1.2v.1c-.2.2-.5.401-.8.2-.2-.2-.4-.5-.6-.8z"/>
    <path fill="#A2CFCC" d="M56.477 115.959c-.3.1-.8-.1-1 .3-.801-.6-1.802-.7-2.803-1.001-.1-.1-.1-.1-.1-.2s.1-.1.1-.1c1.3.1 2.602.3 3.803 1.001z"/>
    <path fill="#6AB7AE" d="M13.237 93.935c.1-.7-.7-1-.5-1.701.9.5 1.301 1.301 1.601 2.302-.6.1-.8-.4-1.1-.6z"/>
    <path fill="#61BBAD" d="M35.158 102.443c.4.1.8.2 1.1.301.401.2.401.6.401 1-.4 0-.9 0-1.201-.3-.2-.3-.4-.5-.7-.5-.2-.2 0-.401.1-.501.1-.1.2-.1.3 0z"/>
    <path fill="#1BB792" d="M11.035 41.89c-.1-1-.2-2.002 0-3.103.4-.1.5.4.801.5-.1.902-.4 1.803-.8 2.603z"/>
    <path fill="#55B9A8" d="M10.234 70.013c.701-.1.1-.6.3-.8.601.4.902 1 1.002 1.801l-.6.3c-.101.1-.201.1-.301 0-.2-.1-.3-.3-.5-.5-.3-.6-.3-.6.1-.8z"/>
    <path fill="#33AF99" d="M16.24 80.726v-.3c.4-1 .7-.2 1.1 0 .201.3.401.5.701.8.1.301 0 .501-.2.601-.7.3-1-.3-1.401-.6-.2-.1-.3-.3-.2-.5z"/>
    <path fill="#72BDB5" d="M73.693 12.06c-.7.1-1.301.2-2.002.3-.8.4-1.701.4-2.602.4-.4-.3-.2-.4.1-.6 1.501.1 3.003-.6 4.504-.1z"/>
    <path fill="#32C29E" d="M101.319 77.22c.1.2.2.4.2.5.2 0 .3.1.3.3-.1.2-.2.501-.3.701-.2.3-.501.6-.2.901-.301.4-.301.4-.701-.2 0-.8.3-1.501.701-2.202z"/>
    <path fill="#13BC90" d="M101.819 36.085c1.001-.5 1.101-.4 1.302 1.001-.201.1 0 .6-.401.4-.4-.4-.801-.8-.901-1.4z"/>
    <path fill="#52B8A7" d="M105.623 19.77c-.701.5-1.101 0-1.201-.6-.1-.401-.3-.902-.1-1.302.7.5.7 1.401 1.301 1.902z"/>
    <path fill="#5FBDAD" d="M63.684 1.051h-.5c-.5.1-.901 0-1.301-.3-.2-.4-.2-.701.4-.701.5 0 1-.2 1.401.2-.4.4-.8.1-1.1.2.3.1.7 0 1 0 .2 0 .6 0 .5.3.1.2-.3.2-.4.301z"/>
    <path fill="#84C7BE" d="M8.533 58.303v-.2c.4-.3.7-.2.9.2-.1.801.601 1.802-.4 2.503 0-.1 0-.1-.1-.2-.2-.701-.3-1.402-.4-2.102v-.2z"/>
    <path fill="#25B795" d="M48.67 4.556c.8-.2 1.601-.7 2.502-.7.1.2 0 .4-.1.4-1.201.5-2.202 1.4-3.503 1.4l-.1-.1c.4-.3.8-.7 1.2-1z"/>
    <path fill="#72C0B5" d="M53.174 7.856c-.6.901-1.601.2-2.302.5-.3-.4 0-.7.3-.9.4-.2.801-.1 1.201-.1.2 0 .3 0 .5.1.201.1.301.2.301.4z"/>
    <path fill="#83C9BE" d="M56.677 105.747l-.5-.5c-.1 0-.1-.1-.1-.1l.1-.101c.8.101 1.501.101 2.302.201.1.2.2.3 0 .5-.3.2-.6.2-.9.1-.401-.5-.201.3-.401.2-.3 0-.5 0-.5-.3z"/>
    <path fill="#20B894" d="M11.736 39.288c-.6.4-.4-.4-.801-.5.2-.801.5-1.602.5-2.403.5.901 0 1.902.3 2.903z"/>
    <path fill="#42B09E" d="M49.17 6.355c-.2.1-.4.2-.7.2-.2.1-.3-.1-.4-.3.1-.4.5-.601.8-.701.2-.1.5-.1.8-.1h.401c.4 0 .901-.3 1.101.2.2.5-.3.8-.8.9-.4.1-.801-.1-1.202-.2z"/>
    <path fill="#8EC9C2" d="M29.953 98.642c.5.5 1.2.3 1.701.5.1.3.2.601-.1.901-.2.1-.4.1-.7.1-.501-.3-1.002-.6-1.302-1.1.1-.2.3-.3.4-.4z"/>
    <path fill="#22B393" d="M61.883.852c.4.1.8.2 1.3.3-.9.401-1.901.401-2.802.401.2-.5.7-.4 1.101-.7h.4z"/>
    <path fill="#95CAC6" d="M50.772 8.359c-.4.6-.9 1-1.702.9 0-.8.701-.8 1.101-1.2.2 0 .4.1.6.3z"/>
    <path fill="#19B590" d="M15.84 84.728l.6.6c0 .4.6.8.2 1.001-.4.2-.9-.2-1.2-.6 1.1-.3.1-.701.1-1.001.1-.1.2-.1.3 0z"/>
    <path fill="#A1D1CC" d="M37.66 113.254c-.1-.2-.3-.3-.5-.3-.1-.2-.201-.301-.1-.501.1-.2.2-.3.4-.3.5-.1 1 0 1.5.3-.3.1-.7.1-.8.501.1.1.1.2 0 .3-.1.1-.3.1-.5 0z"/>
    <path fill="#19B791" d="M28.451 99.44c-1-.2-1.601-.9-2.202-1.5h.2c.2-.101.4-.201.701-.101.4.1.6.5.901.7.2.2.4.401.5.601 0 .1 0 .2-.1.3z"/>
    <path fill="#23AE92" d="M63.684 1.05c0-.2.6-.3.1-.5-.4-.1-.901 0-1.301-.2.4 0 .9-.1 1.3-.1.401 0 .902-.1 1.202.3-.3.6-.8.6-1.301.5z"/>
    <path fill="#2BBA99" d="M89.608 102.244c-.4 0-.4.3-.7.5-.2.2-.401.1-.601 0 .2-.4 1-.7.2-1.301-.2-.2-.2-.5-.2-.701.1-.2.3-.2.6-.2-.2.701.701 1.001.701 1.702z"/>
    <path fill="#08BE8D" d="M102.92 16.764c.2.5.801.7.801 1.401-.801-.2-.901-1.2-1.601-1.4-.201.1-.301-.101-.401-.301.1-.3.2-.4.501-.2.3.2.5.4.7.5z"/>
    <path fill="#82CCBF" d="M69.189 12.16c-.1.1-.2.3-.3.4-.6.5-1.301.4-2.002.3-.4-.1-.901.3-1.301-.2 1.2-.6 2.402-.2 3.603-.5z"/>
    <path fill="#7AC1B9" d="M52.373 104.949c0 .1 0 .1.1.2-.4.701-.9.601-1.501.301-.3-.101-.7-.201-1-.301.8-.3 1.6-.2 2.401-.2z"/>
    <path fill="#6CCFB7" d="M78.398 17.368c.5.1 1 .2 1.601.3-.4.3-.9-.1-1.2.4-.501.1-.902-.1-1.402-.3v-.1s0-.1.1-.1c.2-.3.6 0 .9-.2z"/>
    <path fill="#4CB4A3" d="M28.451 102.945c-.4-.201-.7-.501-.8-1.001-.1-.201 0-.301.2-.401.6.1 1.401.1 1.401 1.101-.1.3-.5.2-.8.301z"/>
    <path fill="#48B5A2" d="M72.092 103.244h.3c.3.2.9-.1 1 .5l-.5.501c-.1.1-.3.1-.4.2-.5-.1-.9.3-1.401.1 0-.1 0-.2.1-.3.3-.4.8-.501.9-1.001z"/>
    <path fill="#7FC0BA" d="M29.352 109.953c-.3 0-.4-.101-.5-.301 0-.1 0-.2.1-.3.2-.1.4-.2.6-.2.3 0 .501.1.701.2.3.2.7.4.901.701.1.1.1.2 0 .3-.1.2-.3.2-.5.2-.4 0-.801-.3-1.302-.6z"/>
    <path fill="#4DAFA2" d="M64.885 117.658c.901 0 1.802 0 2.803-.1.4 0 .7 0 1.1.1v.2h-3.903s-.1 0 0-.2c0 .1 0 0 0 0z"/>
    <path fill="#7BBFB8" d="M67.387 116.957c-.5.401-1.1.201-1.701.201-.4-.501-1.101 0-1.502-.501 1.101-.1 2.102 0 3.203.3z"/>
    <path fill="#55B6A7" d="M28.451 109.753c-.5-.1-.9-.4-1.2-.801-.1-.4.2-.4.5-.5.6.1 1.201.2 1.301 1.001h-.1c-.1.2-.3.3-.5.3z"/>
    <path fill="#2FB89A" d="M80.4 97.442c-.1 1-.901 1-1.602 1.3 0-1.2 1.001-.9 1.602-1.3z"/>
    <path fill="#36B29A" d="M24.948 97.94c-.2-.301-.8-.601-.2-1.002.5-.3 1.001-.3 1.201.5-.3.301-.6.501-1 .501z"/>
    <path fill="#08BE8D" d="M100.418 15.565c.2-.7-.8-.5-.7-1 .7.2 1.301.5 1.701 1 .1.2.2.3.1.5-.2.1-.3.2-.5.1-.401-.1-.701-.2-.601-.6z"/>
    <path fill="#77BEB6" d="M30.954 110.454c.1-.1.2-.2.3-.2.8-.1 1.401.2 1.802.9-.2.101-.3.301-.3.501-.401-.1-.701-.3-1.102-.4.1-.501-.4-.201-.5-.401-.2-.1-.3-.2-.2-.4z"/>
    <path fill="#30AE96" d="M8.733 52.697c.1.5-.1 1.101.5 1.301v.5c-.5.301.1 1.202-.7 1.302-.4-.3-.3-.8-.4-1.201v-1.201c0-.2.1-.4.2-.6.1-.1.2-.1.4-.1z"/>
    <path fill="#A2D0CD" d="M.826 65.209c.1 0 .1 0 .2.1v3.003c-.2-1.001-.8-2.002-.2-3.103z"/>
    <path fill="#5DCAB0" d="M111.128 37.084c-.901-.5-1.201-1.401-1.401-2.302.7.6 1 1.502 1.401 2.302z"/>
    <path fill="#8FCBC4" d="M53.875 8.357l-.5-.5c0-.3.2-.501.4-.701.4-.3.7-.1 1.101.1.1 0 .2.2.2.3 0 .1 0 .1-.1.2-.2.3-.4.6-.8.7-.1 0-.2 0-.3-.1z"/>
    <path fill="#0BB68B" d="M78.698 13.364c-.3-.1-.6-.1-.9-.2.1-.4.5-.2.7-.3.5.2 1.1.3 1.701.3 0 .5-.4.5-.7.6-.4 0-.6-.2-.801-.4z"/>
    <path fill="#2DB498" d="M7.232 84.226c.2.6.7 1.201.3 2.002-.4-.4-.6-.9-.8-1.501.2-.2.4-.3.5-.5z"/>
    <path fill="#AAD3D0" d="M45.167 115.656l-.5.501c-.601.4-.902-.1-1.202-.401v-.3c.7-.701 1.101.4 1.702.2z"/>
    <path fill="#2BB998" d="M112.83 43.29c-.501-.4-.201-1-.501-1.401 0-.3 0-.6.501-.6l.3 1.2c0 .3.4.701-.3.801z"/>
    <path fill="#41B29E" d="M30.953 110.451c.1.1.2.2.3.2 0 .501-.2.401-.5.301-.5-.301-1.2-.2-1.3-1.001.5-.1.9.4 1.5.5z"/>
    <path fill="#29B195" d="M28.451 102.945c.1-.701.5-.201.8-.301.201-.1.301-.1.501 0 .1.2.1.401 0 .501-.3.2 0 .4 0 .6-.5-.2-.9-.5-1.3-.8z"/>
    <path fill="#62B9AD" d="M94.112 99.944c.2-.1.5-.2.7-.3.201-.1.301 0 .201.2-.5.5-1.101.6-1.702.8-.2 0-.3 0-.2-.3.4 0 .7-.2 1.001-.4z"/>
    <path fill="#36B099" d="M17.741 81.724c.1-.2.2-.3.3-.5.401.4.701.9.601 1.501-.1.4-.3.1-.4 0-.2-.1-.3-.2-.4-.4-.1-.2-.2-.4-.1-.6z"/>
    <path fill="#60B7AC" d="M31.755 99.943c-.2-.3-.2-.5 0-.8.4.2.9.4 1.2.8-.5 0-.2.301-.2.501-.1.1-.3.1-.5.1-.3-.1-.5-.3-.5-.6z"/>
    <path fill="#25B194" d="M79.398 13.563c.2-.2.5-.3.701-.5.3 0 .5 0 .8.2.1.3.301.6-.3.4-.2 0-.7-.2-.7.3-.1.1-.2.1-.3.1-.2-.1-.3-.2-.2-.5z"/>
    <path fill="#6EBFB4" d="M26.75 99.944c.6 0 .9.701 1.401.801.1.3 0 .4-.2.6-.5.1-.7-.4-1-.6-.101-.1-.201-.2-.201-.3-.2-.201-.2-.301 0-.5z"/>
    <path fill="#7AC0B9" d="M106.324 58.304c.1-.2.1-.3.2-.5.6-.1.7.3.8.7-.3.5-.7.3-1 0 0 0-.101-.1 0-.2z"/>
    <path fill="#9ED1CB" d="M80.9 2.854c0-.2.1-.4.3-.5.4.1.901-.1 1.302.2-.2.1-.1.3-.1.5-.501-.1-1.002-.2-1.502-.2z"/>
    <path fill="#2EB598" d="M73.393 9.06l1.802.3c-.3.3-.801 0-1.001.4h-1.001c-.2-.3.6-.3.2-.7z"/>
    <path fill="#94CAC5" d="M27.15 97.939c-.3 0-.5 0-.8-.1 0-.4 0-.7.5-.7.2-.1.5 0 .7 0v.2c.1.2.2.4 0 .6 0 .2-.2.2-.4 0z"/>
    <path fill="#48B5A2" d="M40.162 110.453c.2 0 .4 0 .5-.2l.1-.1c.601-.101 1.002.2 1.402.6 0 .3 0 .401-.3.3-.6-.1-1.201-.2-1.702-.6z"/>
    <path fill="#9BCFCA" d="M13.037 86.93c.2.1.5.2.7.3.701 1.102-.6.101-.5.501-.1.1-.2.1-.3.1-.3-.1-.5-.4-.4-.7 0-.3.2-.4.5-.2z"/>
    <path fill="#41B29E" d="M46.168 113.856c-.6.1-1.101-.1-1.502-.4 0-.2.2-.3.3-.3.501 0 1.002 0 1.202.6v.1z"/>
    <path fill="#88C7C0" d="M16.94 85.229c-.1-.3-.1-.5-.2-.8.2-.401.1-1.002.701-1.102.1 0 .2 0 .3.2-.3.5-.6.901-.3 1.602 0 .4-.3.4-.5.1z"/>
    <path fill="#25B795" d="M47.369 6.657c-.3 0-.6.2-.701-.3-.1-.6.4-.6.7-.801l.1.1c.1.2.401.3.601.5 0 .1 0 .2-.1.3-.1.1-.3.301-.6.2z"/>
    <path fill="#19B791" d="M25.95 98.443c.3.4.9.6.7 1.3-.4.201-.6 0-.7-.3l-.301-.6c-.1-.3.1-.4.3-.4z"/>
    <path fill="#60BCAD" d="M8.533 36.283h-.2c.3-.5.1-1.501 1.201-1 0 .6-.5.8-.7 1.1-.2 0-.3 0-.3-.1z"/>
    <path fill="#83C1BC" d="M107.825 86.73c-.701-.2-.1-.7-.2-1 .1-.2.2-.401.5-.2.801.6-.1.8-.3 1.2z"/>
    <path fill="#79C0B7" d="M68.188 14.765l.7-.7v-.2h.501c.2.2.2.4.2.7-.1.3-.4.4-.7.5-.2-.1-.3-.1-.5-.2 0 0-.1-.1-.2-.1z"/>
    <path fill="#5EB6AB" d="M73.193 15.863c-.1.3-.2.5-.3.8-.5.101-1.001-.1-1.502-.3.1-.7.801-.5 1.201-.7.2 0 .4 0 .6.2z"/>
    <path fill="#2EB598" d="M76.696 9.56c.1.2.1.5.2.7-.3 0-.7.1-1-.2-.201-.8.4-.5.8-.5z"/>
    <path fill="#0FB88D" d="M109.126 30.88c.1.1.2.1.3.2.201.3.1.701.201 1.001 0 .3.2.6 0 .801 0 0-.301-.1-.401-.1-.1-.1-.2-.2-.3-.4-.1-.2-.1-.4-.1-.601 0-.3 0-.7.3-.9z"/>
    <path fill="#51B2A4" d="M65.686 12.562c.4.1.9-.2 1.301.2-.3.2-.5.4-.3.7h-.5c-.1-.5-.901-.3-.901-.9h.4z"/>
    <path fill="#2FAF97" d="M104.922 58.003c.201.2.401.3.601.5 0 .1 0 .2-.1.3-.601.401-.901-.9-1.502-.2-.2-.6-.2-.6 1.001-.6z"/>
    <path fill="#6BBBB1" d="M50.772 8.358c-.2-.1-.4-.1-.6-.3v-.2-.2c.3-.401.7-.601 1.2-.401.1.1.1.1.1.2v.1c-.2.3-.6.4-.5.801h-.2z"/>
    <path fill="#94CEC6" d="M8.733 55.7c.2-.4-.5-1.1.5-1.2 0 .3 0 .7.1 1l-.5.501c-.1-.1-.1-.1-.1-.2v-.1z"/>
    <path fill="#7BBFB8" d="M63.484 116.659c-1.001-.1-2.102.3-3.003-.2 1 0 2.002-.201 3.003.2z"/>
    <path fill="#60B9AD" d="M26.95 100.742c.5-.1.7.3 1 .5.1.2.2.301 0 .501l-.3.3c-.3-.4-.6-.801-.7-1.301z"/>
    <path fill="#AAD8D2" d="M61.882 117.46c0 .1 0 .2.1.2-.5.401-1.1.301-1.901-.2h1.801z"/>
    <path fill="#16BE92" d="M115.332 55.802h-.201v-3.003c.301.9.301 2.002.201 3.003z"/>
    <path fill="#29BC99" d="M41.864 112.756l.6-.3c.601.2 1.202.3 1.802.5 0 .501-.3.4-.5.3-.7-.1-1.301-.2-1.902-.5z"/>
    <path fill="#6DB9B1" d="M28.952 107.948c.1.1.2.1.3.201.3 0 .3.1.4.3-.1.3-.3.4-.6.4-.4-.1-.8-.2-.9-.7.2-.201.4-.401.8-.201z"/>
    <path fill="#6FBBB2" d="M108.125 85.53c-.2.1-.3.2-.5.2-.401-.2 0-.5 0-.8l.5-.5c.2.1.3.3.3.6-.1.1-.2.3-.3.5z"/>
    <path fill="#31B69A" d="M14.038 84.727c-.4-.3-1.001-.3-1.101-.901.1-.1.2-.1.3-.1.3.3.8.2 1.001.6.1.3.2.501.2.801-.1-.2-.2-.3-.4-.4z"/>
    <path fill="#06BD8C" d="M74.694 114.458c-.2 0-.4-.001-.6-.101.3-.3.7-.1.8-.4.2-.2.5-.1.7-.1.201 0 .301.1.301.4-.4.2-.8.201-1.201.201z"/>
    <path fill="#A1D1CD" d="M47.77 7.157c-.3.4-.801.7-1.402.7.1-.5.4-.7.7-.8.301-.1.501-.1.701.1z"/>
    <path fill="#91CBC5" d="M12.937 87.73h.2c.5.4.1.8 0 1.2-.3 0-.5-.1-.5-.4-.1-.3-.1-.6.3-.8z"/>
    <path fill="#9DCFCA" d="M104.422 89.734c.1-.3.2-.701.2-1.001.4-.1.6.1.5.5-.2.4-.3.8-.801 1.001-.1-.2-.1-.3.101-.5z"/>
    <path fill="#2CB798" d="M75.895 114.257c-.1-.1-.2-.2-.2-.301-.1-.1-.1-.1-.1-.2s.1-.1.1-.1c.4-.4.8.2 1.301 0v.3c-.4.301-.7.301-1.1.301z"/>
    <path fill="#68BAB0" d="M17.341 80.424c-.4.1-.7-.6-1.1 0 0-.4-.201-.901.5-.901.4.2.5.5.6.9z"/>
    <path fill="#96CAC6" d="M44.967 116.256c.4.1 1 0 .5.701-.4 0-.8-.1-1.1-.401.1-.3.4-.2.6-.3z"/>
    <path fill="#66BCAF" d="M47.77 7.155h-.601c.1-.2.2-.3.3-.5l.6-.3c.1-.1.2-.1.2 0l.301.3c-.3.2-.5.4-.8.5z"/>
    <path fill="#A8D3D0" d="M27.75 97.238c-.2.1-.5.2-.7 0 0-.3-.2-.7.2-1 .1.3.5.5.5 1z"/>
    <path fill="#90CBC4" d="M53.875 8.36h.3c.1 0 .1.1.2.2s.1.2.1.4v.2h-1.6c.3-.4 1-.3 1-.8z"/>
    <path fill="#65BBAF" d="M2.327 73.216c.7.2.7.7.7 1.301h-.1s-.1 0-.1-.1c-.3-.2-.4-.6-.7-.7 0-.1.1-.3.2-.5z"/>
    <path fill="#21B694" d="M88.507 105.448l-.3-.301v-.3c.4 0 .7-.3 1-.5.2 0 .2.1.3.3-.2.6-.7.6-1 .801z"/>
    <path fill="#5AB9AA" d="M62.383 117.66h1.802c.2-.1.3-.1.5 0 .1 0 .2 0 .2.101v.2c-.8-.1-1.701.3-2.502-.301z"/>
    <path fill="#6FBAB2" d="M44.967 116.256c-.2.1-.4.2-.5.3-.301 0-.702 0-.902-.3v-.5c.5 0 .7.7 1.201.4 0 0 .1.1.2.1z"/>
    <path fill="#7CC0B9" d="M110.427 80.524c.2-.3.501-.7.701-1.001 0 .6-.1 1.2-.501 1.802l-.1-.1c-.2-.3-.3-.501-.1-.701z"/>
    <path fill="#A3DAD0" d="M102.92 70.514c.501.601.1 1.102-.3 1.502 0-.5-.2-1.101.3-1.502z"/>
    <path fill="#8AC7C1" d="M111.328 31.08v-.801c.1-.1.2-.1.3 0 0 .5.401 1 .201 1.601-.301-.2-.401-.5-.501-.8z"/>
    <path fill="#A5D1CE" d="M68.689 114.957h.7c.1-.1.3-.1.3.1-.7.301-1.3.501-2.101.401.3-.501.9-.1 1.1-.501z"/>
    <path fill="#69C6B4" d="M112.83 43.29c.3-.2.2-.501.3-.801.3.6.2 1.2 0 1.801-.3-.3-.2-.7-.3-1z"/>
    <path fill="#7BBFB8" d="M62.883 117.159c-.1 0-.2.1-.2.1-.7-.1-1.401.1-2.102-.3.8 0 1.601-.2 2.302.2z"/>
    <path fill="#67BDB0" d="M9.734 49.496h-.5c-.3-.2-.2-.5 0-.8.3.2 0-1.002.5-.201v1z"/>
    <path fill="#98CBC7" d="M52.674 114.955v.3c-.4 0-.901.1-1.201-.2-.1-.1-.1-.2 0-.3.4-.1.8 0 1.2.2z"/>
    <path fill="#71C3B6" d="M68.889 114.457c-.1.201-.2.301-.2.501-.5 0-1.001-.1-1.301-.501h1.501z"/>
    <path fill="#82CCBF" d="M7.732 36.585c-.2.3-.5.3-.8.5-.1-.1-.3-.1-.4-.1-.101 0-.201-.1-.301-.1.4-1.001 1-.3 1.501-.3z"/>
    <path fill="#8FC8C2" d="M70.89 15.864h.2c.301-.3.701-.3 1.102-.2.1 0 .2.1.3.2-.3.5-.9 0-1.2.5h-.501c0-.2 0-.4.1-.5z"/>
    <path fill="#16B790" d="M101.419 16.066v-.5c.4.1.701.3.901.8-.2 0-.301.1-.401.2-.1.1-.2.1-.3.1-.2-.2-.4-.3-.2-.6z"/>
    <path fill="#7DC6BC" d="M9.734 64.008h.2v.5c-.5.101-.4.702-.7 1.002l-.1-.1c-.2-.3-.2-.6-.1-.901.1-.4.5-.3.7-.5z"/>
    <path fill="#13BC90" d="M100.318 33.581l.3-.3c.601.3.401.7.2 1.1-.2-.2-.4-.4-.5-.8z"/>
    <path fill="#53BFA9" d="M89.408 104.749l-.3-.301c0-.2 0-.4.3-.5.2 0 .4 0 .5.3 0 .3-.2.501-.5.501z"/>
    <path fill="#40AE9C" d="M71.19 104.147v.2c-.1.301.301.201.301.401v.2H69.99c.3-.3.8-.501 1.2-.801z"/>
    <path fill="#19B791" d="M24.948 97.942c.2-.3.6-.5 1-.5.1 0 .1.1.1.2v.6c-.3.1-.5.1-.8 0l-.3-.3z"/>
    <path fill="#93C8C4" d="M28.952 107.949c-.2.1-.5.201-.701.201-.2.2-.3.2-.5.1s-.3-.301-.3-.501c.3-.4.7-.2 1.1-.1.2 0 .3.1.4.3z"/>
    <path fill="#6ABAB0" d="M56.177 10.56c-.4.1-.7.1-1.101.2-.5-.5-.2-.7.3-.7.3.2.6.3.801.5z"/>
    <path fill="#78C0B7" d="M12.737 91.434v.6c-.6 0-.7-.5-.9-1v-.4c.1-.201.3-.401.6-.301.4.4.4.7.3 1.1z"/>
    <path fill="#7EC2BB" d="M51.473 114.658v.3c-.4 0-.901.1-1.201-.2-.1-.1-.1-.1-.1-.2 0-.101.1-.101.1-.101.3.101.8.201 1.2.201z"/>
    <path fill="#5FB8AC" d="M50.171 114.454v.301c-.5 0-1 0-1.501-.301-.1 0-.1-.1-.1-.1l.1-.1c.5 0 1 .1 1.501.2z"/>
    <path fill="#42C9A6" d="M112.83 41.287c-.201.2-.301.4-.501.601v-.1c-.3-.3-.2-.8-.5-1.101v-.1c.2 0 .4-.1.5-.1.3.2.4.5.501.8z"/>
    <path fill="#2EB598" d="M43.665 113.256c.2 0 .4 0 .5-.3.301 0 .501 0 .802.2l-.3.301c-.401 0-.701 0-1.002-.201z"/>
    <path fill="#41B59F" d="M49.971 7.357c0-.2-.3-.3-.1-.5.3-.1.6-.301.801 0 .3.4-.2.6-.4.9v.1c-.2-.2-.3-.3-.3-.5z"/>
    <path fill="#60B7AB" d="M30.653 110.953c.2 0 .4 0 .5-.3.301 0 .601.1.802.3.1.201-.2.101-.3.201-.401.1-.701.1-1.002-.201z"/>
    <path fill="#4EB9A5" d="M3.829 77.723c.1.1.2.3.2.5-.2.1 0 .6-.4.4l-.3-.9c0-.801.3.1.5 0z"/>
    <path fill="#4BB8A4" d="M109.927 82.527v-.5c.2-.2.1-.901.701-.701-.101.5-.101.9-.501 1.2h-.2z"/>
    <path fill="#55B3A6" d="M108.425 85.03c-.2-.1-.3-.3-.3-.6 0-.2 0-.4.2-.5.3.2.3.5.3.7-.1.2-.1.3-.2.4z"/>
    <path fill="#7AC5BB" d="M72.192 9.76v-.2c.4 0 .7 0 .9-.5h.3c.301.3-.1.5-.2.7h-1z"/>
    <path fill="#3DB09D" d="M109.927 82.526h.2c.1.5-.2.9-.401 1.3-.5-.6-.1-1 .201-1.3z"/>
    <path fill="#99CFC9" d="M84.603 3.854l.3-.3.901.3c-.3.4-.7.2-1 .2-.1 0-.1-.1-.2-.2z"/>
    <path fill="#3AC8A2" d="M72.692 101.943l-.3-.3c.2-.201.5-.401.8-.401.101.1.201.2.301.2.1.401-.2.501-.4.701-.3.1-.5.2-.4-.2z"/>
    <path fill="#46B3A1" d="M.225 56.2c0 .2 0 .4.1.601 0 .4 0 .9-.1 1.301-.3-.7-.3-1.301 0-1.901z"/>
    <path fill="#25B294" d="M47.97 104.949c-.601 0-1.102-.1-1.502-.501.6-.1 1.1.201 1.501.501z"/>
    <path fill="#7FC3BB" d="M10.534 46.794c-.5-.5-.1-.9.2-1.201.1.4 0 .8-.2 1.201z"/>
    <path fill="#45B9A2" d="M56.678 114.457c.3 0 .5.101.5.501-.4 0-.9 0-1.301-.2.3-.1.6 0 .8-.301z"/>
    <path fill="#7CCABC" d="M46.168 113.857v-.1c.3-.1.7-.2.9.2-.4.401-.6.101-.9-.1z"/>
    <path fill="#86C6BF" d="M3.528 78.723l.4-.4c.1.3.2.6.3 1-.1.1-.2.2-.3 0-.2-.2-.4-.3-.4-.6z"/>
    <path fill="#ABD4D1" d="M78.398 17.366c-.3.3-.6.2-1.001.2-.2-.1-.3-.3-.5-.4.5-.2 1 .2 1.5.2z"/>
    <path fill="#7FC6BC" d="M3.828 77.724c-.1.4-.5-.4-.6.1-.3-.2-.2-.4-.2-.601.2 0 .4 0 .5-.3.3.2.2.5.3.8z"/>
    <path fill="#67BAAF" d="M104.422 89.731v.501c-.1.3-.2.7-.601.8.1-.5.1-1 .601-1.3z"/>
    <path fill="#30BA9B" d="M103.321 62.308c.7.3.6.9.6 1.501l-.6-1.501z"/>
    <path fill="#2AB697" d="M93.912 8.957l-.3.3c-.2-.4-.7-.6-.7-1.101.4.2.7.5 1 .8z"/>
    <path fill="#64B7AD" d="M35.758 112.455c.1-.1.2-.1.2-.2.1-.1.2-.1.3-.1.2.2.4.3.5.6-.2.3-.5.2-.7.2-.1-.1-.2-.1-.3-.2-.1-.1-.1-.2 0-.3z"/>
    <path fill="#71BDB3" d="M35.758 112.453v.3c-.6.3-.6-.2-.8-.5.2 0 .6-.1.8.2z"/>
    <path fill="#33B59A" d="M2.027 73.717c.5 0 .7.3.7.7l-.3.3c-.1-.3-.2-.6-.4-1z"/>
    <path fill="#73C4B7" d="M56.177 105.046v.201c-.6-.1-1.201.2-1.702-.201h1.702z"/>
    <path fill="#AAD5D1" d="M111.628 30.278h-.3c-.3-.3-.2-.6-.2-1 .3.3.5.7.8 1H111.628z"/>
    <path fill="#88C6BF" d="M30.453 107.95c-.2.1-.2.3-.2.4-.1.1-.2.1-.3.1-.3-.2-.4-.5-.5-.8.5-.301.7 0 1 .3z"/>
    <path fill="#5EB6AB" d="M72.893 16.566c.6.1 1.2-.2 1.801.2-.6 0-1.2.2-1.801-.2z"/>
    <path fill="#6EBBB2" d="M27.75 108.649c-.2 0-.4.1-.5.301-.3-.1-.6-.201-.7-.501h.1c.3-.3.7-.3 1.1-.1 0 .1.1.2 0 .3z"/>
    <path fill="#5FB9AC" d="M59.68 10.762c.1-.6.5-.5.901-.3-.3.2-.6.3-.9.3z"/>
    <path fill="#7CC6BB" d="M3.928 79.222h.3c.2.3.301.6.301 1-.5-.2-.5-.6-.6-1z"/>
    <path fill="#71C3B6" d="M69.69 115.058c-.1 0-.2-.1-.3-.1.5-.4 1-.2 1.6-.2-.4.3-.9.1-1.3.3z"/>
    <path fill="#87C8BF" d="M29.752 106.65c-.4-.2-.7-.2-.8-.7.4 0 .7.1.8.7z"/>
    <path fill="#A9D3D0" d="M70.89 15.866v.4c-.3-.1-.7-.1-1-.2.3-.4.7-.2 1-.2z"/>
    <path fill="#8EC6C2" d="M13.537 90.235c0-.3-.3-.6 0-.8.2.3.4.5.5.8.101.2 0 .3-.2.3s-.3-.1-.3-.3z"/>
    <path fill="#7BC4BA" d="M58.479 105.646v-.4h.3c.2.3.6.3.7.701h-.2c-.4.1-.7-.001-.8-.301z"/>
    <path fill="#5BB7AA" d="M48.67 114.255v.2c-.4 0-.8.1-1.101-.3.4-.301.8.1 1.1.1z"/>
    <path fill="#73C0B6" d="M10.735 90.533c.3 0 .5.1.7.3.1 0 .1.1.1.1 0 .1 0 .1-.1.1l-.3.3c-.2-.2-.4-.5-.4-.8z"/>
    <path fill="#5FBDAD" d="M77.397 99.444c-.1-.2-.1-.3-.2-.5.2 0 .6-.501.7.1-.2.2-.3.3-.5.4z"/>
    <path fill="#37B19B" d="M28.451 109.753c.1-.2.3-.3.5-.3.1.2.2.4.401.6-.5.301-.6-.2-.9-.3z"/>
    <path fill="#89C7C0" d="M102.92 91.436c.401.1.401-.4.701-.5.2.2.2.5 0 .6-.3.3-.5.3-.701-.1z"/>
    <path fill="#7BC3B9" d="M30.253 107.35l-.3-.6.1-.101c.2.101.3.301.5.401 0 .1-.2.2-.3.3z"/>
    <path fill="#2FB89A" d="M6.23 36.784h.3c.1.3.1.5-.1.8h-.5c.2-.3.3-.5.3-.8z"/>
    <path fill="#4FBBA7" d="M102.72 37.486l.4-.4v1c-.2-.1-.4-.3-.4-.6z"/>
    <path fill="#9DD0CB" d="M95.113 99.942l-.2-.2v-.2c.2 0 .6-.3.7 0 .1.2-.3.3-.5.4z"/>
    <path fill="#36B29A" d="M25.248 98.24c.3-.2.5-.2.801 0v.201l-.3.3c-.2-.1-.4-.3-.5-.5z"/>
    <path fill="#72BCB4" d="M41.463 114.657h.2c.3.1.501.2.801.3h-1.3l.3-.3z"/>
    <path fill="#56B8A8" d="M9.534 51.598c0-.4-.2-.901.2-1.301 0 .4 0 .9-.2 1.3z"/>
    <path fill="#4DC9AB" d="M96.114 86.231v-.6l.2-.2c.6.4.1.6-.2.8z"/>
    <path fill="#84C5BE" d="M42.664 110.752c0 .201-.1.401-.2.501-.2-.1-.4-.1-.5-.2l.3-.301c.1-.1.3 0 .4 0z"/>
    <path fill="#02C18C" d="M87.105 105.449c.801.3.601 1.101.901 1.702.1.2.3.4.4.6.3.301.3.701 0 1.001-.2.2-.5.3-.7.501-.6.901-1.702.901-2.602 1.401l-.601.3-.6.301c-.4.1-.801.1-1.102.3-.2.1-.3.2-.5.2-.6-.2-1.201-.1-1.702.1-.9.1-1.701.1-2.602.2l-.3.301c-.6-.301-1.201.5-1.802 0-2.602.1-5.105.7-7.707.5-.4 0-.9.2-1.301-.2l.1-.1c.4-.2.9-.2 1.301-.2.8 0 1.702-.401 2.402-.201-.4 0-.9-.2-1.401 0-.4.1-.8.1-1.201.1-.3 0-.7 0-1.001-.1-.9-.3-1.802.1-2.703-.4-.1-.601.4-.601.801-.701 1.001-.3 2.102-.5 3.203-.5-1.1-.1-2.102.4-3.203.1-.7-.3-1.601.1-2.202-.5 2.302-.401 4.504-.901 6.806-.501 2.403.4 4.805.2 7.307 0 .2 0 .3-.1.5.2-2.402.401-4.804.801-7.106 1.201 0 .1.1.301.1.401 5.605-.501 11.31-.801 16.615-4.304-1.3.1-2.101.901-3.202.7-.1-.6.7-.3.7-.8l.2-.201c.701-.2 1.201-.6 1.802-1 .1-.201.3-.301.4-.401z"/>
    <path fill="#09BB8C" d="M66.887 12.863c.7-.1 1.301-.2 2.002-.3.9-.1 1.802-.3 2.703-.2.2.1.4.4.6.4.8-.1 1.602.4 2.502.1.5-.2.5 0 1.502.701.5.3 1.2.6 1.901.5.4-.4.801-.2 1.202.1.9.501 1.801.801 2.902.701.2.2.2.5.2.801-2.102-.3-4.203-.5-6.305-.8.2-.701.9-.1 1.2-.401h-1.1c-.7 0-1.302-.2-2.002-.2.3 0 .7 0 .9.3-.1.2-.2.5-.3.7-.1.1-.3.2-.5.3-.6 0-1.201 0-1.702-.3-.5-.4-.9-.8-1.601-.9-.2-.1-.3-.1-.4-.3 0-.2.7-.4 0-.501-1.202-.2-2.403-.5-3.704-.7z"/>
    <path fill="#07BB8C" d="M106.924 60.304c.3-1.501.701.5 1.001 0-.4 1.802-.5 3.703-1.001 5.505-.2-.4-.1-.8-.1-1.1-.2.2.1.6-.2.9-.4-.2-.2-.8-.801-1.101.401 1.201.2 2.302.3 3.403.101 1.401-.5 2.502-.9 3.804 0 .1-.201.1-.301.1-.1-.1-.1-.1-.1-.2s0-.1.1-.1c.2-1.902-.3-3.704-.2-5.506.501-.2.2-.7.3-1 .1-.401.1-.801.201-1.202.2-.3.4-.6.8-.5.201.1.201.3.201.4v-.3c-.201-.4-.301-.7-.501-1.101-.1-.2-.2-.4-.1-.6-.1-.601.3-.801.701-1.002.2.1.3.2.4.4.2.1.1-.1.1-.1v-.2c-.1-.4 0-.5.1-.5z"/>
    <path fill="#17B18E" d="M109.126 32.378c-.3 0-.601.1-1.001.1-.601-.6-1.101-1.4-1.201-2.202-.401-.7-.2-1.2.4-1.601 1.101.4 1.602 1.501 1.602 3.103 0 .2.1.4.2.6z"/>
    <path fill="#1EB693" d="M58.179 110.451c.7-.1 1.301-.201 2.002-.201.7.301 1.501.601 2.302.501.4.1.8.1.7.6-.2.601-.8.501-1.2.501H60.58c-.7.1-1.401-.2-2.102-.1-.3 0-.5 0-.7-.1-.1-.1-.2-.2-.2-.301-.1-.5.3-.7.6-.9z"/>
    <path fill="#27B194" d="M94.412 18.267v-.5c-.2-.1-.1-.3 0-.501 1.402.7 2.903 1.201 4.004 2.502-.2.2-.5.1-.8.2-.2 0-.301 0-.501-.2-.3-.3-.8-.4-1.001-.7-.5-.3-1.101-.5-1.702-.801z"/>
    <path fill="#1DB190" d="M50.972 107.251c-.3-.401-.7-.2-1.1-.3-.301-.101-.501-.201-.401-.501 0-.4.4-.2.6-.2 1.101.4 2.102.4 3.203 0h.5c.401.1.701.3.701.801-.1.3-.3.4-.5.5-.1 0-.2.1-.3.1-.6 0-1.201-.3-1.802-.2-.2.1-.3.2-.5.2-.3-.1-.601-.2-.4-.4z"/>
    <path fill="#0BB78C" d="M84.703 106.951c.1.6-.6.4-.7.8-.2.1-.5.2-.701.301-.1.2-.5.4-.3.7-.6.1-1.201.2-1.702.3-.1-.1-.2-.3-.2-.5 0-.1.1-.2.2-.3.4 0 .8-.1 1.201-.401.5-.5 1.301-.8 2.202-.9z"/>
    <path fill="#26BA97" d="M101.419 22.572c.5.2.7.7 1.001 1 .5.3 1.101.501 1.201 1.202 0 .2 0 .4-.2.5-.301.2-.401-.1-.601-.3-.701-.5-1.301-1.101-1.702-1.902-.2-.3 0-.4.301-.5z"/>
    <path fill="#11B38D" d="M44.166 106.951c1.3.3 2.602.6 3.803 1.201-.3.4-.7 0-1 .3-1.202 0-1.903-1.001-3.004-1.201 0-.2.2-.2.2-.3z"/>
    <path fill="#0BBA8D" d="M74.394 15.366h.6c1.402.2 2.703.5 4.004 1h-1.501c-.4-.1-.801-.2-1.302-.2-.9.2-1.701.1-2.502-.3-.1-.7.5-.2.7-.5z"/>
    <path fill="#0DB98D" d="M102.62 90.732c-.3.3-.601.6-.801 1.001h-.2c-.2.1-.3.1-.501 0 .201-.6.301-1.201 1.001-1.501.301-.1.501-.3.801-.5-.3-.401 0-.701.2-.902.301-.3.301.2.501.2-.1.701-.701 1.102-1.001 1.702z"/>
    <path fill="#6ABBB1" d="M53.174 110.751c.4.1.801.2 1.301.2.3.3.701.2 1.002.1.2 0 .3 0 .5.1.3.201.6.301.8.601 0 .1-.1.2-.1.3-1.3.3-2.602.2-3.703-.701-.2-.3 0-.4.2-.6z"/>
    <path fill="#19B891" d="M115.131 57.001c0 .6-.3 1.201-.5 1.802.2.3.3.7-.2.7v-1.5c.1-.201.3-.501-.1-.702-.401-.8.5-1.701 0-2.502.1-.1.1-.1.2-.1.1.1.1.2.2.3.2.701-.1 1.402.4 2.002z"/>
    <path fill="#04BC8B" d="M86.405 102.446c-1.101.5-2.402.5-3.704 1.301.801-1.602 2.203-1.101 3.204-1.602.1.201.4.1.5.301z"/>
    <path fill="#4FB8A6" d="M40.262 107.951c.8.201 1.602.101 2.302.801-.1.3-.3.501-.6.601-.701-.2-1.602-.2-2.002-1.001 0-.3.1-.401.3-.401z"/>
    <path fill="#02C18C" d="M81.2 108.249v.2c-.3.5-.9.5-1.201.801-.4.4-.9.4-1.101-.101-.1-.5.4-.5.8-.6.401-.2.902-.3 1.502-.3z"/>
    <path fill="#26AF93" d="M73.393 103.744c-.3-.3-1 .301-1-.5 0-.2 0-.4.2-.5.5.1 1.1.2 1.6.3-.1.5-.4.6-.8.7z"/>
    <path fill="#27AF94" d="M59.18 107.949h.5c0 .601-.5.301-.8.401-.601-.1-1.102.1-1.702-.1-.7 0-1.301-.1-2.002-.301-.1-.2 0-.3.1-.4 1.401-.3 2.602-.1 3.904.4z"/>
    <path fill="#30BA9B" d="M103.12 59.805c.201.1.301.2.501.3.4.2.6.501.801.902.2.4.4.8.5 1.3v.501c0 .2-.1.4-.3.5-.501-1.2-1.001-2.402-1.502-3.503z"/>
    <path fill="#1EB693" d="M62.883 109.953c.7.1 1.502-.2 2.202.3-.2.2-.4.3-.7.3-.501 0-.901.101-1.302.201-.5 0-1-.201-1.601-.201-.3-.1-.7 0-.901-.4.8-.4 1.601-.1 2.302-.2z"/>
    <path fill="#86CAC0" d="M43.265 109.152c.5 0 1 0 1.501.1.3.3.5.6.2 1.101-.8.3-1.3 0-1.801-.601-.1-.2-.1-.4.1-.6z"/>
    <path fill="#5DB7AA" d="M53.174 110.752c0 .2-.1.4-.3.5-.5.501-1.201.1-1.802.2-.2 0-.4-.1-.5-.2-.1-.3-.1-.5.1-.7.8.1 1.702.2 2.502.2z"/>
    <path fill="#3FB69F" d="M114.331 59.505c.3-.2.2-.5.2-.7.601.2.501.6.3 1-.1.701-.2 1.502-.3 2.202-.4-.8 0-1.701-.2-2.502z"/>
    <path fill="#40B39E" d="M95.413 95.737c0 .1-.1.3-.1.3.701.4.701.4.1.901-.4-.1-.9 0-1-.5.2-.4.5-.701 1-.701z"/>
    <path fill="#29B195" d="M107.325 28.775c-.301.4-.601.9-.501 1.502-.6-.2-.5-.701-.5-1.202 0-.2-.1-.4-.201-.5-.1-.1-.1-.2 0-.3.101-.1.201-.1.301-.1.4.1.8.2.901.6z"/>
    <path fill="#45B7A2" d="M40.263 107.951l-.3.301c-.301.2-.501.2-.802 0-.1-.1-.1-.2-.1-.301.3-.3-.1-.5-.2-.7 0-.1 0-.2.1-.3.6 0 1.302.1 1.302 1z"/>
    <path fill="#66BBB0" d="M44.967 110.15c-.2-.3-.3-.6-.3-.901.4-.1.7.101 1 .201.1.2.2.4.2.6 0 .2-.1.401-.3.501-.3.1-.7.2-.6-.401z"/>
    <path fill="#30AE97" d="M46.968 108.452c.3-.401.7-.201 1.001-.301.3 0 .7-.1 1.001.2 0 .201.4.201.2.501-.8.2-1.501-.3-2.202-.4z"/>
    <path fill="#08B98B" d="M58.98 108.249c.3 0 .6 0 .7-.3.6.2 1.201-.1 1.802 0 .1.1.4.2.2.501h-.2c-.7.2-1.301.2-2.002 0h-.5c-.1-.101-.1-.101 0-.201-.1 0-.1 0 0 0z"/>
    <path fill="#06BC8C" d="M38.961 106.949v.2c-.4.3-.7.1-1-.1-.301-.3-.902-.6-.201-1.201.4.4 1.1.4 1.201 1.101z"/>
    <path fill="#39B69D" d="M86.705 105.746c-.4.601-.8 1.302-1.801 1.001.4-.6 1.1-.901 1.801-1.001z"/>
    <path fill="#4FB5A5" d="M62.183 110.951c-.801.1-1.502-.1-2.002-.701h.3c.4.201.8 0 1.201.101.2 0 .5-.101.7.2.2.1 0 .3-.2.4z"/>
    <path fill="#0BBA8D" d="M75.194 14.564c-.4 0-.7 0-1.2-.5.8.1 1.5-.2 2.201.3-.1.2-.3.4-.5.5-.2-.1-.3-.2-.5-.3z"/>
    <path fill="#A8DCD2" d="M105.222 65.11c.1.5 0 .9-.1 1.4-.2-.2-.3-.4-.4-.5v-.7c.4-.5-.4-1.402.5-1.802.1.1.1.2.1.4-.1.4 0 .801-.1 1.201z"/>
    <path fill="#3FB29E" d="M55.176 107.748v.201h-2.502c.1-.701.7-.101 1-.401v-.1c.601-.1 1.202-.5 1.502.3z"/>
    <path fill="#4FB3A3" d="M100.418 22.572c0-.6-.6-.901-.5-1.502.5.5.901 1.101 1.501 1.502-.1.2-.2.4-.2.5-.3-.1-.601-.3-.801-.5z"/>
    <path fill="#52BAA7" d="M106.123 86.428c-.1.2-.2.501-.3.701-.3.3-.601.8-1.201.6-.2-.5.4-.7.5-1.1.3-.1.601-.4 1.001-.2z"/>
    <path fill="#87C7C0" d="M94.412 96.44c.3.301.8.1 1.001.501-.4.3-.9.3-1.201.7-.1-.4-.5-.9.2-1.2z"/>
    <path fill="#32B499" d="M55.977 111.252h-.5c-.201 0-.401-.1-.501-.3.1-1.201 1-.601 1.501-.701.1.1.1.1.1.201v.1c-.4.2-.1.3 0 .5 0 .1 0 .2-.1.3-.2 0-.4 0-.5-.1z"/>
    <path fill="#1FAF91" d="M42.464 106.749c-.6.101-1.2-.2-1.902-.4.701-.601 1.302-.1 1.902.1.1.1.1.1 0 .3.1-.1 0 0 0 0z"/>
    <path fill="#0DB98D" d="M105.122 86.729c-.2.3-.3.7-.5 1 .2.401 0 .501-.3.701-.1.2-.301.4-.501.4.3-.7.501-1.6 1.301-2.101z"/>
    <path fill="#82C9BE" d="M53.675 107.448c-.3.1-.701.301-1.001.401-.3-.201-.801-.1-1.001-.501.7-.4 1.301.1 2.002.1z"/>
    <path fill="#1FBF96" d="M92.21 98.941c-.4.1-.7.601-1.3.5.1-.5.5-.7.8-1 .2-.1.3-.2.5 0-.1.2-.1.3 0 .5z"/>
    <path fill="#6DC2B4" d="M105.122 63.508c-.5.5 0 1.2-.4 1.701v-2.002-.5c.4-.1.4.2.6.4-.1.2-.1.3-.2.4z"/>
    <path fill="#24C098" d="M104.822 27.076c-.501-.1-.801-.4-1.001-.8-.1-.101-.2-.301 0-.501.2-.1.3-.1.5 0 .1.1.201.1.301.2.2.4.6.6.2 1.1z"/>
    <path fill="#21B393" d="M79.9 109.151c.3-.5.7-.701 1.2-.801v.501c-.3.5-.8.3-1.2.3z"/>
    <path fill="#37B09A" d="M56.477 111.154v-.2c.2-.3.8-.1.8-.6.201 0 .501-.1.701.1h.2c-.2.3-.3.5-.5.801-.4.3-.9.3-1.2-.101z"/>
    <path fill="#16BE92" d="M114.631 51.497c.401.7.401 1.301 0 2.002-.1-.4-.2-.901-.2-1.302.2-.1-.1-.5.2-.7z"/>
    <path fill="#49AFA0" d="M42.464 104.745h.5c.2.301.501.201.701.201-.1.6-.5.3-.7.3-.5-.1-1.101.1-1.502-.2.2-.501.7-.1 1.001-.301z"/>
    <path fill="#36AF99" d="M75.695 14.764l.5-.5h1.602c-.6.5-1.301 0-1.702.5h-.4z"/>
    <path fill="#10B58D" d="M85.905 17.865c-.7-.1-1.402-.2-2.002-.7.7 0 1.401.1 2.002.7z"/>
    <path fill="#15B38E" d="M97.615 94.238h-.3c.3-.5.7-.9 1.301-1.101-.2.4-.5.8-1 1.101z"/>
    <path fill="#25B294" d="M42.965 105.249c.3 0 .6 0 .7-.3.3.1.7.2 1.101.3-.4.3-.8.1-1.1.2-.201 0-.501 0-.701-.2z"/>
    <path fill="#4FB4A4" d="M50.672 110.451v.7c-.7.1-1.101-.2-1.502-.6-.1-.1 0-.2 0-.301.501.101 1.001.101 1.502.201z"/>
    <path fill="#11B38D" d="M50.472 108.952c.5 0 .9.1 1.2.401-.5 0-1 .3-1.5-.2 0-.101.2-.101.3-.201z"/>
    <path fill="#69BFB2" d="M110.527 81.224l-.7.701v-.5c.1-.4.2-.701.5-.901.1.2.2.5.2.7z"/>
    <path fill="#2EB297" d="M42.464 106.75v-.3c.7-.1 1.101.5 1.702.5-.1.1-.2.2-.2.3-.501-.2-1.001-.4-1.502-.5z"/>
    <path fill="#4CB6A4" d="M50.472 108.952c-.1.1-.2.201-.2.301-.3-.1-.701-.201-1.001-.301 0-.2-.5-.2-.2-.5.4.2.9.3 1.4.5z"/>
    <path fill="#1FB492" d="M87.406 93.535c-.3.4-.5.7-1.201.7.2-.5.5-.8.9-1 .2.1.3.1.3.3z"/>
    <path fill="#86CBC0" d="M88.407 102.646h.6c-.1.5-.3.801-.8.801-.401-.301 0-.501.2-.801z"/>
    <path fill="#87D0C3" d="M101.919 78.021l-.3-.3c.3-.3.2-1 .701-1.201-.1.6-.1 1.101-.401 1.501z"/>
    <path fill="#84D6C3" d="M103.921 25.775v.5c-.5-.3-.9-.6-1.001-1.201.201.1.301.2.501.2.4-.1.4.2.5.5z"/>
    <path fill="#5FB8AC" d="M49.17 110.254v.2c-.7.5-1.3.3-1.801-.3v-.201l1.802.301z"/>
    <path fill="#2BBA99" d="M87.606 100.945h.2c.2.1.5.2.5.5-.3.401-.6.201-1 .201.2-.201.3-.501.3-.701z"/>
    <path fill="#32B79A" d="M50.972 107.248c.1.2.2.3.2.501-.5-.1-1-.201-1.501-.201.4-.5.9-.3 1.301-.3z"/>
    <path fill="#61C0AF" d="M43.265 109.152v.5c-.5.301-.7 0-.9-.4-.1-.501.4-.4.6-.601.2.1.2.301.3.501z"/>
    <path fill="#05BB8B" d="M59.48 108.452h2.002v.2c-.7-.1-1.402.3-2.002-.2z"/>
    <path fill="#9ACDC9" d="M42.464 104.746c-.3.401-.7.2-1 .3-.201-.1-.401-.1-.501-.2.2-.1.5-.1.6-.3.2 0 .5.1.901.2z"/>
    <path fill="#05BB8B" d="M58.98 108.249v.2c-.6-.1-1.201.2-1.702-.2h1.702z"/>
    <path fill="#12B58D" d="M34.757 103.746c-.6.5-.7-.2-1.1-.501.5-.2.6.2.8.2l.3.301z"/>
    <path fill="#9FDACE" d="M87.406 93.537c-.1-.1-.2-.2-.2-.3.3-.1.5-.801.8-.3.2.3-.4.3-.6.6z"/>
    <path fill="#02C18C" d="M82.902 108.75c-.5-.501-.1-.601.3-.701.2.2.1.501-.3.701z"/>
    <path fill="#16BA91" d="M97.115 19.768h.4c.3 0 .7.1.6.5h-.1v-.1c-.5.501-.6 0-.9-.4z"/>
    <path fill="#01C18B" d="M71.791 104.645c.2-.1.4-.3.601-.4h.5c-.2.5-.6.5-1.1.4z"/>
    <path fill="#1EB693" d="M57.978 110.453h-.8c-.2.2-.5.2-.7 0v-.3c.5.1 1-.1 1.5.3z"/>
    <path fill="#1DAF90" d="M106.624 65.51v-1.001h.2v1.201l-.2-.2z"/>
    <path fill="#16BA91" d="M96.114 19.068c.4.2.8.3 1 .701-.4 0-.9-.1-1-.7z"/>
    <path fill="#A4D6CF" d="M101.419 79.724c-.3-.4-.401-.801.2-.901-.1.3-.2.6-.2.9z"/>
    <path fill="#2FB398" d="M86.405 102.445c-.2 0-.4-.1-.5-.3.2-.101.5-.201.7-.301.1.1.3.1.3.301-.2.2-.3.3-.5.3z"/>
    <path fill="#9ED4CC" d="M72.893 101.944l.2.201c-.2.1-.3.2-.5.3-.701-.2-.3-.401 0-.601.2.2.2.301.3.1z"/>
    <path fill="#60BEAE" d="M92.11 98.44h-.5c.1-.4.3-.601.8-.701.1.4-.2.5-.3.7z"/>
    <path fill="#43B5A0" d="M102.92 89.731c-.2.2-.2.801-.801.501.201-.3.401-.5.801-.5z"/>
    <path fill="#6EBBB2" d="M101.119 91.733h.5c-.2.3-.2.6-.6.701-.1-.2-.1-.3-.201-.5.201 0 .201-.1.301-.2z"/>
    <path fill="#3BB89E" d="M114.631 51.498c0 .3 0 .6-.3.7 0-.3-.1-.6 0-.8.2-.4.2 0 .3.1z"/>
    <path fill="#80CDBF" d="M86.905 102.245l-.3-.3c.2-.1.5-.2.7-.3.1.4-.1.6-.4.6z"/>
    <path fill="#19B690" d="M90.609 17.366c.3-.4.6-.1.8.1-.1 0-.2.1-.3.1-.1-.1-.3-.2-.5-.2z"/>
    <path fill="#11B98F" d="M104.922 71.515v1.001c-.3-.4-.4-.7 0-1z"/>
    <path fill="#7DC7BC" d="M42.965 108.751c-.2.201-.3.401-.5.501-.201.1-.301.1-.501-.1l.5-.501c.2 0 .3.1.5.1z"/>
    <path fill="#0AB78B" d="M74.694 105.949c-.3 0-.7.1-1-.3.3.2.8-.201 1 .3z"/>
    <path fill="#4EBEA7" d="M114.331 57.303c0-.1 0-.2.1-.2.1-.1.2-.1.2.1 0 .3.1.6-.2.8-.1-.3-.1-.5-.1-.7z"/>
    <path fill="#16BE92" d="M114.831 55l-.3-.3c-.2-.301-.2-.702 0-1.002.5.4.3.901.3 1.301z"/>
    <path fill="#60C2B0" d="M114.631 53.8v1.002h-.2c.1-.4-.2-.901.2-1.202v.2z"/>
    <path fill="#73C7B8" d="M113.93 68.313c.701.2 0 .6.201.901-.401-.2-.201-.6-.201-.9z"/>
    <path fill="#4DC0A8" d="M105.823 28.275c-.5-.1-.4-.5-.4-.8h.3c.1.1.2.2.2.4v.4h-.1z"/>
    <path fill="#8ACAC1" d="M106.123 28.577c.2.1.501.2.2.5-.1-.1-.2-.3-.2-.5z"/>
    <path fill="#A6DCD3" d="M106.123 28.275v.3l-.3-.3h.1l.1-.1c0 .1.1.1.1.1z"/>
    <path fill="#05BB8B" d="M105.923 27.576c-.1-.3-.3-.2-.501-.2 0-.701-.1-1.302-1-1.302-.301-.5-.801-.8-1.001-1.301-.1-.6-.901-.6-1.001-1.201.6-.6.7.4 1.301.3-1.201-1.301-2.302-2.502-3.403-3.803-.5-.601-1.101-1.101-1.602-1.602-.2-.2-.6-.6-.6-.7.1-.4.5-.3.9-.3.4.1.3-.401.3-.601.1 0 .1 0 .201-.1.701.1 1.101.5 1.201 1.2-.1.3 0 .501.2.701.1.1.1.2.2.3.101.1.101.2.101.3-.101.902.6 1.202 1.101 1.702.8.601 1.501 1.302 2.001 2.102.901 1.302 1.502 2.703 2.603 3.804.1.1.2.1.2.2.3.4.4.9.701 1.301l.2.2c.4.3.5.901.801 1.302.1.2.2.3.2.5-.3.2-.2.4 0 .6 0 .3.1.701-.2.901-.201-1.1-.601-2.202-1.502-3.002-.3-.2-.7-.3-1.001-.5-.2-.2-.4-.301-.6-.501 0-.2.1-.3.2-.3z"/>
    <path fill="#04BE8B" d="M47.87 6.056c-.2 0-.801.2-.401-.4 1.201-.6 2.502-1.201 3.703-1.802.601-.4 1.302 0 2.002-.3-.1.2-.4.3-.3.5 0 .3.3.2.5.1.801-.1 1.702-.2 2.803-.4-1 .901-1.902 1.101-2.803 1.602-.3.2-.5.3 0 .5 0 .7-.7.7-1.1.901-.2.1-.4.2-.701.2-.8-.1-.5-.5-.2-.8.3-.4.7-.601 1-1.202-.9.4-1.901-.1-2.702.5-.3.1-.7 0-1 .201-.201.2-.401.4-.802.4z"/>
    <path fill="#06BC8B" d="M55.977 6.558c1.2-.801 2.502-1.101 4.004-.601.5.2 1.1.1 1.701.2 0 .3-.4.2-.5.5-.5.401-1.101.3-1.502.3.4.201 1.001-.2 1.602 0 .1.101.2.201.2.301-.5.7-1.401.2-2.002.6-.8.301-1.501.401-2.302.301-.2 0-.4-.1-.5-.3 0-.1 0-.2.1-.3.5 0 .9-.3 1.1-.3-.2 0-.7.3-1.2.3-.501.2-1.102.4-1.502-.2.2-.701.9-.501 1.301-.601-.2-.1-.4 0-.5-.2z"/>
    <path fill="#0CBB8D" d="M67.387 8.356h-1.501c-1.301.4-2.603-.1-3.904.3-.2.1-.4.1-.6.1-.3-.2-.1-.5.1-.7.1-.1.2-.1.3-.2.2-.1.5-.2.7-.2.501-.1 1.102-.1 1.602-.1 1.502-.1 3.103.1 4.604-.4 1.602.2 3.303.1 4.905.1.2.1.7-.201.6.4H70.49c1.001.5 2.202-.1 3.203.7h-2.502c-1.101-.4-2.403.1-3.804 0z"/>
    <path fill="#04BE8B" d="M57.779 1.55c.3 0 .6.1.9.1-.3.1-.6.2-1 .4.5.7 1.2.4 1.801.6-2.002.1-3.803.902-5.805.902.6-.2 1.1-.4 1.901-.601-.6-.3-1.1-.6-.1-.9.701-.1 1.402-.601 2.303-.501z"/>
    <path fill="#0CB68C" d="M101.619 16.566h.2l.201.2c.1.4.2.9-.501.7-.901.1-1.301-1-2.202-.8l-.3-.3c-.4-.401.1-.501.3-.701 0-.1-.2-.3 0-.4.2-.1.4 0 .5.2.301.2.601.5.901.6.401.2.701.3.901.5z"/>
    <path fill="#04BE8B" d="M54.476 5.555c.4-.5 1-.1 1.601-.3-.2.9-1.201.9-1.301 1.601-.6.1-1.101.4-1.702.4-.4-.4 0-.5.2-.7.4-.4 1.001-.4 1.202-1z"/>
    <path fill="#10B78D" d="M52.974 7.057c.6-.1 1.201-.2 1.702-.3.4-.1.8-.2 1.2-.2h.902c-.601.4-1.201.3-1.602.7-.1.1-.2.1-.3 0-.3.1-.6-.5-1.001 0-.3.1-.7-.1-1.001.2h-.5c-.1-.1-.2-.3-.1-.5.1-.1.2-.1.3-.2.2.2.3.2.4.3z"/>
    <path fill="#29AF95" d="M73.893 7.358H68.69c-.1.1-.2.1-.3 0-.1-.2-.1-.3.1-.5 1.801.3 3.603.2 5.404.2.1.1.1.1 0 .3.1-.1.1 0 0 0z"/>
    <path fill="#44B4A0" d="M67.388 8.358c1.3-.5 2.702-.4 4.003 0-1.1.1-2.202-.2-3.203.5h-.5c-.1 0-.2-.1-.2-.2-.1-.2-.1-.2-.1-.3z"/>
    <path fill="#06BC8B" d="M61.682 6.557h2.502c0 .3 1.201-.2.5.7-1.1.2-2.201.4-3.302-.2-.1-.3.2-.3.3-.5z"/>
    <path fill="#1CB290" d="M73.894 7.355v-.2c.9.1 1.901.2 3.102.4-1.1.701-1.901.3-2.602.1-.1-.3-.3-.3-.5-.3z"/>
    <path fill="#09B78B" d="M64.885 7.056c-.2-.2-.5-.3-.7-.5 1-.1 2.001 0 3.002.3.1.1 0 .3-.1.4-.7.3-1.301.3-2.002 0l-.2-.2z"/>
    <path fill="#18B18F" d="M52.974 7.057h-.3c-.1-.2-.4-.2-.5-.5.3-.4 1-.3 1.3-.7h.501c.3-.1.4.1.2.3-.2.2-.5.3-.7.5-.3 0-.4.2-.501.4z"/>
    <path fill="#09B78B" d="M61.682 6.557c-.1.2-.2.3-.2.5H59.48v-.1c.6-.1 1.201-.2 1.701-.4h.5z"/>
    <path fill="#37B09A" d="M92.61 16.567c.1-.2-.4-.7.3-.7.1.5 1.102.4.802 1.2-.1.1-.2.1-.3.1-.301-.2-.601-.3-.802-.6z"/>
    <path fill="#10B78D" d="M53.474 6.554c0-.4.6-.3.5-.7.1-.2.301-.2.501-.2.3.9-.6.7-1 .9z"/>
    <path fill="#86CCC1" d="M93.412 17.067h.3c.3.1.3.6.7.3v.5c-.4.1-.8-.1-1.1-.4 0-.2 0-.3.1-.4z"/>
    <path fill="#48B4A2" d="M67.187 7.058v-.2h1.201v.5c-.2.2-.4.2-.7.2-.2-.1-.4-.3-.5-.5z"/>
    <path fill="#73BFB5" d="M98.216 20.37c-.2-.2-.4-.4-.6-.501.3-.4.5-.1.8 0 .2.1.3.3.3.5-.2-.1-.3 0-.5 0z"/>
    <path fill="#7AC6BA" d="M77.597 7.959c.6-.2.9 0 1.1.3-.4.2-.7.1-1.1-.3z"/>
    <path fill="#08BE8D" d="M99.417 15.866c.2.3-.4.4-.3.7-.2-.1-.4-.2-.3-.4 0-.3.3-.3.6-.3z"/>
    <path fill="#25B294" d="M100.618 16.266c-.4-.1-.6-.4-.8-.7h.5l.5.5c0 .1-.1.2-.2.2z"/>
    <path fill="#10B58D" d="M63.784 5.856c.5-.4.901-.2 1.401-.3-.6.4-.9.2-1.4.3z"/>
    <path fill="#02C08B" d="M7.532 72.018c.7.7-.1 1.802.7 2.502 1.202-.1 1.702.601 2.102 1.602.701 1.802 1.602 3.603 2.903 5.205 1.001 1.2.9 1.2-.2 2.002-.5 0-.7-.4-.901-.701-.4-.4-.6-1-1-1.601-.201-.4-.501-.701-.802-1.001-.2-.3-.4-.6-.7-.801-.2-.1-.4-.3-.5-.4-.1-.1-.1-.2-.1-.3-.101-.401-.301-.701-.501-1.002-.901-.8-1.402-1.901-1.702-3.002-.7-.601-.5-1.302-.5-2.002.1-.5 0-1.001 0-1.402.2-.1.3-.1.5 0 .2.2.1.801.7.901z"/>
    <path fill="#16B18E" d="M5.03 60.305v3.904c-.601.2-.3-.5-.701-.701-.3 1.501.5 3.003.1 4.704-.3-1.2-.6-2.202-.9-3.203.2-1.2-.101-2.502-.101-3.703 0-.5 0-1.001.3-1.501.4-.1.7-.3 1.101-.3.1.2-.1.5.2.8z"/>
    <path fill="#15B48E" d="M10.234 70.013c-.5.4.3.5.2.801-.6.7-.8 0-1-.4-.2-.5-.3-.2-.5 0-.301.1-.601 0-.802-.2-.2-.3-.3-.601-.5-.801-.1-.2 0-.4-.2-.6 0-.401-.4-.802-.2-1.302.4-.1.4.4.7.5.4-.1.5-.3.5-.7.1-.3.1-.6.501-.6.801.6.2 1.7 1.001 2.301.1.3.2.701.3 1.001z"/>
    <path fill="#08B98B" d="M6.731 71.016h-.5c-.4-3.403-.9-6.807-.6-10.21 0 3.403.9 6.807 1.1 10.21z"/>
    <path fill="#13B38D" d="M4.73 59.504c-.2.2-.401.5-.701.2-.6-.7-.4-1.601-.6-2.402 0-.7-.101-1.501.1-2.202.2-.5 0-1.301.7-1.601.1.9.3 1.701.7 2.502-.3.2-.1.6-.2.9-.1.401-.4.802 0 1.202.1 0 .2 0 .2.1v.8c-.1.1 0 .401-.2.501z"/>
    <path fill="#2CB296" d="M3.728 57.502c.1.801.2 1.502.3 2.303-.4.4-.2 1-.2 1.501-.4 1 .1 2.002-.3 3.003-.3-1.802-.9-3.604-.5-5.505.2.2.2.4.1.6.1-.3 0-.6.1-.9.1-.3-.2-.901.5-1.002z"/>
    <path fill="#13B38D" d="M3.728 50.696c-.7-1.501-.7-3.503.3-5.205v2.002c-.3.3-.3.6-.1 1.001.2.3.1.7.4 1.001V52.698c-1-.4-.5-1.301-.6-2.002z"/>
    <path fill="#65BEB0" d="M8.033 57.304v.7c0 .1 0 .2-.1.3-.601.2-.4-.3-.4-.5.1-2.302.1-4.604.2-7.006.2-.4.3-.801.9-.7.1.1.2.1.3.2.1.2 0 .5-.1.7-.2.7-.7 1.301-.6 2.102V54.5c0 1.001.1 1.902-.2 2.803z"/>
    <path fill="#87CAC1" d="M3.728 57.502c-.4.2-.1.8-.5 1.1-.2 0-.2-.2-.3-.3V56.3c.1-.4.2-.8.3-1.3.3-.501-.1-1.002.2-1.502v-.3c.8.5.3 1.2.3 1.801.1.801 0 1.702 0 2.503z"/>
    <path fill="#13B68E" d="M6.731 74.518c.5 1.101 1.402 1.902 2.002 2.903 0 .4-.1.8-.5 1.1-.6-1.3-1.402-2.501-1.502-4.003z"/>
    <path fill="#88C7BF" d="M9.734 64.008l-.5.5c-.1.101-.3.201-.501.201-.3 0-.6-.2-.7-.5v-1.202c.2-.1.1-.4.2-.5h.5c-.1.8 0 1.401 1 1.502z"/>
    <path fill="#2CB296" d="M3.829 55c-.2-.601.2-1.202-.3-1.802v-1.201c-.3-.5.1-.901.2-1.302.6.6-.1 1.502.5 2.002-.1.2-.4.5 0 .7-.1.601-.3 1.102-.4 1.602z"/>
    <path fill="#48B4A2" d="M8.032 64.208c.2.1.5.2.701.3.1.1.1.2.1.3-.1.5-.1 1.001-.3 1.502-.1.1-.1.2-.2.2-.5.1-.3-.4-.5-.5-.2-.601 0-1.202.2-1.802z"/>
    <path fill="#07B98B" d="M5.03 45.293c-.501-1.201.3-2.002 1-2.703-.5.8-.3 1.902-.7 2.703-.2.1-.2.1-.3 0z"/>
    <path fill="#2CB597" d="M8.733 50.295c-.5-.1-.7.2-.9.5.1-.5-.2-1.1.2-1.5.4-.201.6 0 .9.3 0 .2 0 .5-.2.7z"/>
    <path fill="#58B4A8" d="M3.528 64.31c.2-1.001-.3-2.002.3-3.003-.1 1.2.4 2.502-.2 3.703-.1-.3-.1-.5-.1-.7z"/>
    <path fill="#02C18B" d="M9.033 40.789c-.1.6-.4 1.1-.9 1.701-.1-.7.1-1.1.4-1.501.1-.1.2-.4.5-.2z"/>
    <path fill="#4EB1A3" d="M8.233 78.524c.1-.4.2-.8.5-1.1.3.3.5.7.5 1.1-.2.2-.5.1-.7.2h-.3v-.2z"/>
    <path fill="#31B198" d="M8.232 66.51v-.3c.801.2.1.9.5 1.2 0 .501-.2.802-.8.501.2-.3.2-.7 0-1 .2 0 .1-.3.3-.401z"/>
    <path fill="#06BB8B" d="M8.733 49.496c-.2-.1-.5-.2-.7-.2 0-.4-.2-.901.5-1.001.3.2.3.5.4.8 0 .1-.1.3-.2.4z"/>
    <path fill="#48B9A3" d="M5.03 58.203h-.2c-.401-.5-.301-1 0-1.501-.2-.3-.2-.6.2-.7v2.201z"/>
    <path fill="#30B298" d="M9.033 40.786c-.2.1-.3.2-.5.2v-1c.2-.1.5-.2.7-.3-.1.4-.1.8-.2 1.1z"/>
    <path fill="#52BBA8" d="M7.532 68.712c.2.1.2.3.3.5.2.3.4.601.3 1.001-.1.2-.2.3-.4.3h-.2v-1.801z"/>
    <path fill="#2CB597" d="M8.733 48.994c-.3-.2-.2-.5-.2-.801 0-.2.1-.4.1-.5.1.2.3.4.4.5v.5c-.1.2-.1.3-.3.3z"/>
    <path fill="#21B494" d="M5.03 45.292h.3l-.3 1.501c-.801-.5-.1-1 0-1.501z"/>
    <path fill="#30B298" d="M4.73 59.504c0-.2.1-.4.3-.5v1.2c-.3-.1-.3-.4-.3-.7z"/>
    <path fill="#A7D5D0" d="M3.028 58.304l.3.3v.801c-.4-.1-.2-.4-.3-.6v-.501z"/>
    <path fill="#2EAE96" d="M1.727 54c.1-.301-.1-.702.3-1.002 0 .4.1.901-.2 1.302-.1-.1-.1-.2-.1-.3z"/>
    <path fill="#7BC9BB" d="M8.232 66.51c0 .201 0 .401-.2.501-.2-.3-.3-.6-.2-1 .1.2.2.3.4.5z"/>
    <path fill="#31B69A" d="M13.237 85.73c-.3.1-.6 0-.8.3-.601-.5-.901-1-.2-1.701.1-.1.1-.1.2 0 .2.5.9.7.8 1.401z"/>
    <path fill="#38B49B" d="M13.037 86.93c-.2 0-.4 0-.5.2.2.3.2.5-.3.5-.2-.1-.501-.2-.701-.2-.3-.2-.4-.6 0-.7.5-.1.6-.601 1-.701.3.3.501.6.501.9z"/>
    <path fill="#ACD8D3" d="M11.536 82.425l-.601.3c-.6-.3-.6-1-.9-1.501.7 0 .7.9 1.2 1 .2 0 .3.1.3.2z"/>
    <path fill="#9BCDC9" d="M9.233 78.722l-.3.3c-.1-.1-.3-.2-.4-.3.1-.7.5-.1.7-.2 0 0 .1.1 0 .2z"/>
    <path fill="#17B790" d="M48.27 112.154c-.1-.201-.3-.201-.501-.201-.6-.2-1.101-.4-1.702-.5-.2-.1-.4-.3-.6-.4.7-.601 1.301-.1 2.002.1 1.2.3 2.302.7 3.503.5 1.501-.1 3.003.401 4.504.601.1.1.2.2.1.3-.6.2-1.2 0-1.701-.1-.4-.1-.901-.3-1.201.1-.4.4-.801.2-1.302.1-.4-.1-.9.1-1.3 0-.702-.3-1.302-.4-1.803-.5z"/>
    <path fill="#40B09D" d="M55.476 112.455v-.2c1.001-.301 2.002-.1 3.003-.301.1-.1.2-.1.3-.1.3-.1.6-.1.901 0 .2.1.3.2.4.301.2.2.3.3.3.6 0 .2-.2.401-.3.501-1.601-.401-3.102-.801-4.604-.801z"/>
    <path fill="#28AF94" d="M84.403 110.654c.2-.1.3-.1.5-.2.501-.2 1.002-.3 1.002.501-1.201.6-2.503.7-3.704 1-.1-.1-.2-.2-.3-.2.1-.2.4-.1.5-.3.1-.1.1-.2.2-.2.501.1 1.002-.1 1.502-.2.1 0 .1 0 .2-.1.2 0 .3-.101.4-.101-.1-.1-.3-.1-.3-.2z"/>
    <path fill="#25AE93" d="M64.885 112.956h4.404v.2h-4.404s-.1-.1 0-.2z"/>
    <path fill="#43B29F" d="M51.172 112.252c.4.1.8.1 1.301.201.3 0 .6 0 .801.3l-.3.3c-.1.1-.3.1-.4.2-.501 0-.901-.1-1.302-.4-.2-.3-.2-.501-.1-.601z"/>
    <path fill="#61BEAE" d="M77.897 111.955c.901-.3 1.802-.5 2.803-.5.4 0 .3.2.3.4-1 0-2.102.1-3.103.1z"/>
    <path fill="#69BBB1" d="M58.179 114.157h-.9c-.1 0-.201-.1-.1-.2.1-.1.3-.2.4 0 0-.1-.2-.1-.3-.1-.301.1-.601.2-.902-.2 0-.2.1-.3.3-.2.601.1 1.202-.1 1.702.3 0 .1-.1.3-.2.4z"/>
    <path fill="#48B6A2" d="M54.475 112.955c.4 0 .901-.101 1.001.5 0 .1 0 .1-.1.2-.5.401-1 .601-1.401-.3.1-.2.3-.4.5-.4z"/>
    <path fill="#56B9A9" d="M54.475 112.956l-.3.3c-.1.201-.2.301-.4.201h-.3c-.2-.201-.5-.301-.701-.501.1-.2.3-.2.5-.2.4 0 .801-.2 1.201.2z"/>
    <path fill="#48AFA0" d="M64.885 112.955v.201h-2.202c-.1-.101-.4-.201-.2-.501.8.2 1.602.4 2.402.3z"/>
    <path fill="#43B9A1" d="M56.678 113.454l-.3.3c0 .2-.1.301-.301.401h-.5c-.2-.1-.3-.301-.3-.501l.1-.1c.5-.3.9-.5 1.3-.1z"/>
    <path fill="#02C18C" d="M64.484 112.456h2.203c-.801.4-1.502.4-2.203 0z"/>
    <path fill="#69BCB0" d="M61.882 113.154h-1c-.2-.201-.1-.401 0-.601.3-.2.7-.1 1 .1.2.2.2.4 0 .501z"/>
    <path fill="#31AE97" d="M60.881 112.656c-.2 0-.3 0-.5-.1-.1-.401.2-.401.4-.601.1 0 .2 0 .3.1.3.1.501.2.801.301v.2c-.3.1-.6.1-1 .1z"/>
    <path fill="#25AF93" d="M75.895 112.155c.601.201 1.202-.6 1.802 0-.6.101-1.201.601-1.802 0z"/>
    <path fill="#89CFC3" d="M71.891 114.156c.1.101.3.101.4.201.1.2-.1.2-.2.2-.4-.2-.8.1-1.1-.3.3-.101.6-.101.9-.101z"/>
    <path fill="#49B2A1" d="M61.883 113.156v-.501h.5c.1.2.2.3.2.501h-.7z"/>
    <path fill="#4DBEA7" d="M75.695 113.656v.3h-.7c-.201 0-.401 0-.501-.2.4-.1.8-.1 1.2-.1z"/>
    <path fill="#08B98B" d="M55.176 107.748c-.4-.3-1-.2-1.501-.3.2-.1.3-.1.5-.2.7-.601 1.401-.2 2.102-.1.9-.201 1.802 0 2.602-.401 1.102.1 2.102.401 3.204.301-.901.7-2.102.3-3.003.9-1.201.201-2.503-.4-3.904-.2z"/>
    <path fill="#1BB391" d="M50.972 105.448c.5 0 1.101 0 1.501-.3 1.402 0 2.803.701 4.204.501.1.2.3.2.5.2.1.1.1.1.1.2s0 .1-.1.1l-.2.2c-.8.401-1.5.1-2.302 0-.5-.1-.9-.3-1.4-.3-.701-.1-1.502.701-2.103-.2-.1 0-.1-.2-.2-.401z"/>
    <path fill="#1DB190" d="M54.676 106.247c.7.1 1.501.2 2.202.2.7 0 1.3.1 2.002.3 0 .2.6.501-.1.501-.801 0-1.602.2-2.403.3-.3-.4-.1-.5.3-.5-.8-.101-1.701.4-2.402-.301.1-.4.3-.5.4-.5z"/>
    <path fill="#05BB8B" d="M61.682 108.452c-.1-.2-.2-.3-.2-.501h1.601c-.5.601-.9.401-1.401.501z"/>
    <path fill="#4EB8A5" d="M57.178 106.247v-.3c.1-.1-.1-.501.3-.2.3.4 1.101-.301 1.201.5-.5-.1-1 0-1.501 0z"/>
    <path fill="#38B09A" d="M58.68 106.147c-.301-.5-.902 0-1.202-.5.3 0 .7 0 1-.1.301.1.501.2.802.3-.2.3-.4.401-.6.3z"/>
    <path fill="#20B292" d="M64.184 105.45h.5c.2 0 .601-.101.501.2 0 .3-.3.3-.6.3-.1-.2-.6 0-.4-.5z"/>
    <path fill="#4DB7A4" d="M63.184 105.95v-.501h.5c.1.1.4.2.2.501h-.7z"/>
    <path fill="#6AC1B3" d="M63.984 105.95c-.1-.201-.2-.301-.2-.501h.5c.1.2.3.3.401.501h-.7z"/>
    <path fill="#0BB68C" d="M4.229 49.494c-.4-.2-.5-.6-.5-1-.1-.301 0-.301.2-.301.3.5.4.9.3 1.301z"/>
    <path fill="#72CAB9" d="M3.729 50.797c-.1.4-.2.9-.2 1.301-.501-.6-.4-1 .2-1.301z"/>
    <path fill="#2FB799" d="M4.029 48.295c-.1.1-.2.2-.2.3-.3-.4-.501-.8.2-1v.7z"/>
    <path fill="#39B29C" d="M82.201 14.865c-1.1.801-1.901 0-2.802-.5 0-.1.1-.2.2-.2h.3c.901-.2 1.702.1 2.302.7z"/>
    <path fill="#5BBDAB" d="M83.703 15.566c.5-.4.8-.3 1.1.1-.4.2-.7.2-1.1-.1z"/>
    <path fill="#4BB8A4" d="M85.604 15.765c.7.2 1.101.3 1.502.4-.5.2-.901.1-1.502-.4z"/>
    <path fill="#68C2B2" d="M93.412 17.067c0 .1 0 .2-.1.4-.2-.1-.501-.2-.701-.3-.1-.2-.2-.3 0-.5.4-.1.6.1.8.4z"/>
    <path fill="#57BBA9" d="M92.61 16.567v.5c-.2-.2-.7-.2-.6-.6.1-.3.4.1.6.1z"/>
    <path fill="#30AF97" d="M32.956 111.153l-1.802-.901c-.1-.4.2-.4.5-.4.1 0 .3 0 .4.1 1.002.4 2.103.801 3.003 1.401h.3c.401.3 0 .3-.1.501-.9 0-1.5-.601-2.301-.701z"/>
    <path fill="#A5D3CE" d="M35.057 111.252c-1.1-.301-2.202-.601-3.103-1.302.1-.2.2-.3.4-.2 1.002.3 2.103.501 2.703 1.502z"/>
    <path fill="#55B9A8" d="M35.258 111.654c0-.2.1-.3.1-.5h.3c.3.4.9.3 1.301.5.2.1.4.3.6.4l-.3.301c-.4.4-.6 0-.9-.1h-.3c-.2-.401-.801-.201-.801-.601z"/>
    <path fill="#93CCC6" d="M36.96 111.654c-.501 0-1.102.3-1.302-.5.5 0 .9.2 1.301.5z"/>
    <path fill="#12B58D" d="M34.958 102.544c-.1.1-.1.3-.2.401-1.402-.401-2.903-.701-4.004-1.702 0-.501.5-.4.8-.701h.5c.501.2.902.301 1.302.601.4.2.7.5 1.101.801.1.2.4.3.5.6z"/>
    <path fill="#1EB291" d="M31.554 100.643c-.1.4-.5.4-.8.501-.601-.101-.701-.801-1.202-1.001-.3-.3-.5-.701-.8-1.001-.2-.3-.4-.5-.5-.801 0-.1-.1-.2-.1-.3.1-.1.1-.3.3-.2.4.3.8.7 1.2 1 .4.3.901.601 1.302.901.2.401.7.501.6.901z"/>
    <path fill="#1BAE8F" d="M27.95 101.743v-.501c.1-.2.1-.3.2-.5.301.2.702.5 1.002.7.3.401.7.801 1.2.801.101.1.201.2.301.2.2.301.1.501-.2.601-.4.1-.6-.1-.8-.401h-.501c.1-.8-.901-.4-1.201-.9z"/>
    <path fill="#1CAE8F" d="M33.256 104.246c-.701.501-1.302.601-1.702-.2.1-.3.2-.6.5-.7.3.2.901.4 1.202.9z"/>
    <path fill="#36AF99" d="M37.66 105.947c-.3.4.1.7.3 1 .1.201 0 .301-.2.401-.7.2-1.001-.401-1.501-.601-.1-.1-.2-.1-.3-.2-.1-.2-.301-.3-.2-.6.1-.201.4-.101.6-.201.5.301.9.401 1.3.201z"/>
    <path fill="#2CAD95" d="M31.954 103.247c-.2.2.1.801-.5.701-.3-.2-.7-.301-1.001-.501.2-.2-.1-.3 0-.5.2-.1.2-.3.3-.501.4.301.801.501 1.201.801z"/>
    <path fill="#29B095" d="M30.453 102.246c-.7.3-1-.2-1.2-.801.4.301.8.501 1.2.801z"/>
    <path fill="#60BAAD" d="M28.751 99.142c.4.3.701.501.701 1.001-.5 0-.6-.6-1-.8v-.2h.3z"/>
    <path fill="#43B4A0" d="M36.459 105.749c-.1.201-.3.201-.5.201-.1.1-.2.1-.2 0 0-.201 0-.401.2-.501.2.1.3.2.5.3z"/>
    <path fill="#05BC8B" d="M9.033 70.216c0-.3 0-.6.2-.8.801.1 0 1.601 1.201 1.301.1.2.2.3.3.5 0 .3.1.5.2.801.201.3.301.7.601 1.001.3 1.702 1.101 3.103 2.002 4.504.801 1.302 1.602 2.503 2.503 3.704.8.1.8.8 1.1 1.3v.401c0 .5 0 1.101-.7 1.101-.2-.2-.3-.5-.5-.7-.3-.2-.601-.4-.701-.801-.7-1.702-2.002-3.003-2.903-4.604-.9-1.502-1.802-3.003-2.602-4.605-1.101-.8-.801-2.001-.7-3.103z"/>
    <path fill="#04BC8A" d="M13.037 83.225c.4-.2 0-.5.1-.8.4-.2.4.4.801.3v-.2c-1.702-2.002-3.103-4.204-3.803-6.806-.3-.901-1.202-.801-1.802-1.302.7-1 1.201-.5 1.701.2.801 1.202 1.202 2.603 2.102 3.804.5.8.901 1.702 1.502 2.502.6.801 1.1 1.702.7 2.803-.3 0-.7.3-1 0h-.3c-.2-.1-.2-.3 0-.5z"/>
    <path fill="#23AF92" d="M9.033 70.214c.5.901-.1 2.102.7 3.003-.2.8-.6.4-.8.1-.2-.3-.2-.7-.2-1-.3-.301-.2-.701-.4-1.002 0-.1-.1-.2-.1-.3-.1-.3-.2-.7 0-1.001.3.1.5.2.8.2z"/>
    <path fill="#30B097" d="M15.24 82.526c.3.2.6.4.7.8-.7.4-.4.901-.1 1.402h-.3c-.801-.701-.3-1.502-.3-2.202z"/>
    <path fill="#19B590" d="M13.237 83.728c.3.1.701-.5 1.001 0 0 .2.3.3 0 .5-.3-.2-.8.1-1-.5z"/>
    <path fill="#9CD4CB" d="M8.533 71.214c.2.3.3.701.3 1.001-.4-.1-.5-.4-.6-.8-.1-.1 0-.2.3-.2z"/>
    <path fill="#78C2B8" d="M8.533 71.214l-.3.3c-.3-.3-.4-.6-.5-1l.3-.3c.2.2.3.5.5.8v.2z"/>
    <path fill="#43AF9E" d="M51.172 105.948c.7.4 1.301-.101 2.002 0 .2.2.2.3 0 .5-1.201.601-2.602.5-3.203-.2l1.201-.3z"/>
    <path fill="#0AB88B" d="M106.924 27.074c-1.301-1.1-1.902-2.602-2.702-4.003-.201-.801-1.102-1.602-2.002-2.002-.401-.6-1.802-.7-1.001-2.002.2-.1.4 0 .6.1.401.3.901.4 1.301.5.201.1.301.2.301.4.5 1.202 1.701 1.602 2.502 2.503.501.2.901.6 1.301.901.1.2 0 .6.401.3.2.3.2.6.2 1.001 0 .1-.1.2-.2.3.5.601.3 1.302.4 1.902 0 .3-.3.1-.4.1-.1.1-.201.1-.301 0-.2-.3-.3-.7-.6-1-.1-.1-.1-.3-.2-.401.2.3.3.6.5.9 0 .201 0 .301-.1.501z"/>
    <path fill="#1BAF8F" d="M99.417 16.865c0-.2.1-.6.4-.4.601.4 1.302.5 1.802 1.1.1.2.2.3.2.5.301 1.102-.4.902-1 .801-.101-.2-.401-.4-.201-.7-.2-.7-.6-1.101-1.2-1.301z"/>
    <path fill="#28AE93" d="M100.919 18.868c.4-.1 1.001 0 1.001-.8.6.6 1.301 1.1 1.901 1.701.401.5-.3.2-.4.3-.1-.1-.2-.2-.3-.2-.401-.3-1.001-.3-1.502-.5-.2-.1-.3-.2-.5-.2-.1-.2-.1-.3-.2-.3z"/>
    <path fill="#57B7A8" d="M107.124 23.573c-.6-.1-.9-.6-1.201-1 .1-.3.2-.601.501-.701.2.6.7 1 1.001 1.401-.1.2-.201.3-.301.3z"/>
    <path fill="#3BB69D" d="M16.94 82.525c-.6-.2-.5-.901-1-1.301 0-.2 0-.4.3-.5l.3.3c.1.5.8.8.4 1.5z"/>
    <path fill="#47B6A2" d="M12.537 74.518c.3.4.7.8.8 1.301-.8-.2-.8-.8-.8-1.3z"/>
    <path fill="#60BCAD" d="M11.536 73.018c-.6 0-.5-.701-.7-1.001.1-.1.2-.1.3 0 .2.2.4.6.4 1z"/>
    <path fill="#72C7B7" d="M11.035 72.015h-.3c-.1-.3-.4-.5 0-.8h.2c0 .3.1.5.1.8z"/>
    <path fill="#13B18D" d="M85.905 110.951c-.2-.5-.6-.5-1.001-.5l2.702-1.201c0 .2 0 .4.3.5.1.4-.2.4-.4.601-.3.2-.6.3-.9.4-.2 0-.501.1-.701.2z"/>
    <path fill="#54B5A6" d="M86.605 110.652c0-.5.4-.5.8-.5.301-.1.301.1.301.3-.2.401-.6.501-1 .501-.1-.1-.1-.2-.1-.301z"/>
    <path fill="#2EAF96" d="M61.482 8.557h.5c.5-.2 1.001-.2 1.502 0-1.101.4-2.202.4-3.303.2-.3.2-.7.2-1.001 0-.7-.1-1.301.6-2.002 0 .1-.2.3-.4.5-.5.2-.1.4-.1.5-.1.601 0 1.102-.3 1.702-.1.601.2 1.201.1 1.602.5z"/>
    <path fill="#17B48F" d="M63.484 8.56h-1.502c1.301-.6 2.703-.5 4.004-.2l-.3.3c-.4.1-.801.3-1.202.3-.2-.1-.3-.1-.5-.2s-.4-.1-.5-.2z"/>
    <path fill="#A9D5D1" d="M57.678 8.56c-.1.2-.3.2-.4.3-.4-.1-.7.1-1 .2h-.201c-.1-.3.1-.5.4-.701.3-.1.801-.2 1.201.2z"/>
    <path fill="#8FC7C2" d="M55.977 9.86c.1-.2.1-.4.2-.5h.8c-.3.4-.6.5-1 .5z"/>
    <path fill="#4AB0A1" d="M59.18 8.86h1c-.3.1-.7.8-1 0z"/>
    <path fill="#06BE8C" d="M50.972 111.752c-1.101.501-2.102-.1-3.203-.2-.8-.1-1.501-.601-2.402-.501h-.2c-.5-.2-1.101-.3-1.602-.5-.4 0-.8 0-1.1-.3-.301-.1-.501.1-.802-.1-.2-.1-.3-.1-.4-.201-.9-.3-1.702-.7-2.502-.9h-.2c-.3-.401-.701-.701-1.302-.701-.7-.3-1.3-.701-2.002-1.001-.1-.1-.2-.2-.3-.2.2-.701.7-.701 1.201-.501.7 1.001 2.002 1.001 3.003 1.502.2.3.5.2.8.2.601.5 1.402.6 2.003.901.2 0 .3.1.5.1.3.1.5.3.8.4.501.401 1.102.601 1.702.501.1.4.5.3.801.3 1.702-.1 3.203.601 4.704 1.001.2-.1.4 0 .501.2z"/>
    <path fill="#0CB88C" d="M36.259 106.449c-.4.1-.901.2-1.202.5-.7-.3-1-1.201-1.801-1.301-.2 0-.4-.2-.3-.401.1-.2.3-.2.5-.1.7.301 1.501.601 2.302.901h.2c.1.1.2.2.3.401z"/>
    <path fill="#4CB5A3" d="M30.453 102.946c-.1.2.801.3 0 .501-.2-.101-.5-.201-.7-.301v-.5c.2.1.5.2.7.3z"/>
    <path fill="#74C2B7" d="M8.833 36.284c.1.1.3.1.4.2-.1.2-.2.4-.2.6-.7.1-.2-.6-.5-.8h.3z"/>
    <path fill="#47B8A3" d="M79.699 14.065l-.2.2c-.4-.1-.801-.2-1.201-.2-.4-.601.4-.4.5-.701.3.1.5.2.8.2-.1.2 0 .3.1.5z"/>
    <path fill="#13B18D" d="M88.407 108.651v-1.001h.2c.4.501.5.901-.2 1.001z"/>
    <path fill="#3BAD9B" d="M87.706 110.453l-.3-.3c.2-.2.4-.301.5-.501.601.501-.1.601-.2.801z"/>
    <path fill="#4AB4A3" d="M12.537 90.535c-.2.1-.4.2-.501.3-.2 0-.3 0-.3-.2-.1-.2-.2-.3-.2-.5.4-.4.7.1 1 .2.1.1.1.1.1.2-.1-.1-.1-.1-.1 0 0-.1 0 0 0 0z"/>
    <path fill="#47B2A1" d="M12.537 90.435v-.2c0-.1 0-.2.1-.3.4.1.4.4.7.6.2.1.4.2.2.4-.6.1-.7-.4-1-.5zM107.625 25.073v-.3c.3-.5.5-.3.7 0 .401.6.801 1.2 1.502 1.501v.7c-.301.201-.501 0-.801-.2-.501-.4-.501-1.4-1.401-1.7z"/>
    <path fill="#6BBAB0" d="M109.126 26.775c.3.1.5.2.801.2.1.1.2.1.3.2-.3.1-.1.3-.1.5-.3 0-.401.3-.501.601-.2-.5-.3-1-.5-1.501z"/>
    <path fill="#2CAE95" d="M108.826 29.777c-.501-.3-.801-.7-.801-1.301h.5c.301.2.501.4.301.7.1.3.1.5 0 .6z"/>
    <path fill="#0DB58C" d="M108.926 29.278c-.1-.2-.2-.5-.301-.7.701-.4.601.3.701.5.1.4-.2.3-.4.2z"/>
    <path fill="#4AB2A2" d="M51.173 112.255v.6c-.4-.2-.901.1-1.302-.3.4-.3.901-.4 1.302-.3z"/>
    <path fill="#23BD96" d="M52.674 112.956c.3 0 .7 0 .7.501-.2.3-.4 0-.5 0-.1-.201-.3-.201-.5-.301.2-.1.2-.2.3-.2z"/>
    <path fill="#66BAAF" d="M108.425 24.773c-.2-.1-.5-.2-.701 0-.3-.3-.1-.7 0-1.001.401.1.601.4.801.7-.1.2-.1.2-.1.3z"/>
    <path fill="#70BDB3" d="M107.124 23.572l.3-.3c.201.1.201.3.201.5-.301.2-.501.2-.501-.2z"/>
    <path fill="#6FBCB3" d="M67.387 8.559l.2.2c-.3.4-.7.3-1.1 0 .3-.3.7-.1.9-.2z"/>
    <path fill="#49B5A2" d="M105.122 63.31l-.5-.5v-.6c.2-.301-.1-.802.2-1.002.2-.1.4-.1.5.1v.1c.1.3.201.701.501.801.1.2.1.3.1.5-.1.401-.4.501-.801.601z"/>
    <path fill="#7FC7BC" d="M105.923 62.307c-.701.1-.801-.3-.5-.8.1 0 .2.1.2.1.1.2.2.3.3.5.1 0 .1.1 0 .2z"/>
    <path fill="#A3D3CE" d="M106.624 61.007c-.1-.2-.2-.3-.3-.5.1-.1.2-.3.3-.4.1 0 .2.1.3.1v.2c.1.4.2.6-.3.6z"/>
    <path fill="#32AE97" d="M8.733 67.513c-.5-.3 0-.901-.5-1.202.1-.5.3-1 .4-1.501.4.1.4.5.6.7v.1c.1.2.2.301.3.501.201.3.101.5-.1.8-.1.101-.2.101-.3 0-.4 0-.4.301-.4.602z"/>
    <path fill="#90CEC5" d="M9.033 66.811h.2c.3-.1.4.1.5.3.101.701.201 1.302.301 2.002-1.2-.5-.6-1.601-1-2.302z"/>
    <path fill="#31B198" d="M9.734 67.011c-.2-.1-.3-.2-.5-.3.1-.2.2-.5.2-.7.4.3.3.7.3 1z"/>
    <path fill="#0CB88C" d="M38.761 108.949c1-.2 1.902.401 2.703.801-.801.6-1.502-.1-2.203-.2-.2-.301-.4-.401-.5-.601z"/>
    <path fill="#6EBDB3" d="M39.261 109.453c.701.1 1.502.2 2.203.2.1.1.2.2.3.2-.2.701-.7-.2-1.001.2-.5-.1-1.201-.1-1.502-.6z"/>
    <path fill="#0CB88C" d="M37.26 108.249c.7-.3 1.1.1 1.3.701-.5-.2-1-.401-1.3-.701z"/>
    <path fill="#35AF99" d="M8.733 60.005c0-.6 0-1.2.1-1.701.5.8.1 1.601.2 2.402-.4-.2-.2-.5-.3-.7z"/>
    <path fill="#94CBC5" d="M33.256 101.445c-.4-.2-.801-.5-1.302-.7 0-.2.1-.3.3-.3.2 0 .3 0 .501.1.3.2.5.3.8.4-.1.2-.2.4-.3.5z"/>
    <path fill="#A9D5D1" d="M34.257 101.444v.701c-.3-.301-.7-.501-1.001-.801 0-.2.1-.401.3-.501.3.1.4.501.7.601z"/>
    <path fill="#25AE93" d="M70.69 14.065h.5c.2.2.2.4.1.7-.5.5-1.1-.1-1.6.1-.2-.4 0-.7.2-1 .3.1.5.1.8.2z"/>
    <path fill="#6BBAB1" d="M69.89 13.864c-.1.3-.1.601-.2 1.001-.2.1-.3 0-.3-.2v-.8h.5z"/>
    <path fill="#88C8C0" d="M40.763 110.153c.2-.5.7.1 1-.2.301 0 .601 0 .802.2-.2.1-.3.301-.3.501-.501-.1-1.002-.3-1.502-.501z"/>
    <path fill="#17B790" d="M43.565 110.452c.6-.1 1.101.1 1.602.5-.6.1-1.101-.1-1.602-.5z"/>
    <path fill="#7BC7BB" d="M74.394 15.363c-.2.2-.4.3-.7.5H72.391c-.3-.2-1.101 0-.7-.8.3-.2.7-.1 1 0 .5.2 1.101.3 1.702.3z"/>
    <path fill="#68BAB0" d="M73.693 15.765c.8-.1 1.602.3 2.502.3-.9.2-1.801.7-2.502-.3z"/>
    <path fill="#60B6AB" d="M12.236 87.73c.2-.1.3-.3.3-.5.1.2.301.4.401.5-.1.3-.1.5-.2.8-.2-.2-.3-.5-.5-.8z"/>
    <path fill="#A7D6D0" d="M36.259 112.252c.3 0 .6.1.9.1v.501c-.2-.1-.3-.1-.5-.2-.2 0-.4-.1-.4-.401z"/>
    <path fill="#59B3A8" d="M38.16 113.256c.2.1.4.3.601.4-.4 0-.9.1-1.001-.5.1.1.3.1.4.1z"/>
    <path fill="#A9E2D5" d="M55.376 113.453c.1.201.2.301.3.501.1 0 .1.1.1.1l-.1.1c-.7 0-1.5.1-2.001-.701.1-.1.3-.2.4-.2.3.801.9.301 1.301.2z"/>
    <path fill="#4DB1A3" d="M28.451 97.942l-.2.2c-.3.1-.4 0-.5-.2v-.5c.2.1.5.2.7.3v.2z"/>
    <path fill="#94C8C5" d="M27.75 108.452h-1.2c.1-.4.3-.501.7-.501h.2c.1.101.2.201.3.201 0 .1.1.2 0 .3z"/>
    <path fill="#5DB7AA" d="M16.94 82.526c-.2-.5-.3-1.001-.5-1.502.4.2.6.901 1.201.7.1.201.2.401.2.501-.4 0-.7 0-.7.4-.1.1-.2.1-.3 0 .2 0 .1-.1.1-.1z"/>
    <path fill="#3BB69D" d="M17.04 82.725h.301c.1.3.1.5.2.8-.2.301-.5.701-.7 1.002-.1-.2-.2-.3-.3-.5.3-.301.5-.802.5-1.302z"/>
    <path fill="#31B198" d="M52.473 7.058v.5c-.3.3-.7 0-1 0 0-.1 0-.2.1-.3.1-.2.3-.3.5-.4.1 0 .3.1.4.2z"/>
    <path fill="#19B590" d="M13.037 83.229v.5c-.2 0-.3-.1-.5-.1.1-.3-.1-.5-.3-.7-.1-.2-.1-.401 0-.501.3.3.5.6.8.8z"/>
    <path fill="#18B18F" d="M51.973 7.056c-.1.1-.3.1-.4.2-.5-.1-.8.4-1.301.4 0-.3.7-1-.4-.9.1-.2.2-.3.3-.501.4 0 .7-.2.8-.6-.5 0-.9.1-1.401.1-.1-.2-.1-.3.1-.5.4-.201.8-.401 1.101-.601.1-.1.2-.1.3-.2.5 1.1 1.201-.1 1.902.2-.4.6-.8 1.2-1.401 1.601-.2.1-.6.4 0 .5.4-.1.4.1.4.3z"/>
    <path fill="#8FC9C4" d="M32.255 100.442l-.3.3h-.4c-.201-.2-.301-.5-.501-.7h.7c.1.1.3.2.5.4z"/>
    <path fill="#71BBB4" d="M27.75 97.942c.2.1.301.2.501.2.2.3.2.5-.3.5-.3-.2-.5-.5-.8-.7h.6z"/>
    <path fill="#4DB1A3" d="M27.95 98.74c.2-.1.2-.3.301-.5.3.2.4.6.5 1h-.3c-.2-.1-.4-.3-.5-.5z"/>
    <path fill="#A3D4CF" d="M69.389 14.564c.1.1.2.1.3.2.5-.4 1.001.1 1.502 0 .2 0 .3.1.4.3-.1.601-.6.301-.9.301h-.201c-.4-.4-1-.2-1.501-.3 0-.2.2-.4.4-.5z"/>
    <path fill="#ACDAD3" d="M104.121 59.805c.1.3.2.701.301 1.001.1.2 0 .3-.301.2-.2-.3-.3-.6-.5-.9.1-.3.3-.3.5-.3z"/>
    <path fill="#5CB4A9" d="M29.953 108.552c.2.2.4.4.5.701.1.3 0 .4-.3.3-.2-.1-.5-.2-.7-.3-.401.1-.501-.1-.501-.501.2 0 .4-.1.5-.3.2 0 .3 0 .5.1z"/>
    <path fill="#3EAF9C" d="M30.153 109.452l.3-.3c.2.2.5.2.7 0-.1.4.401.5.501.7-.2 0-.4 0-.5.201-.3 0-.7-.201-1.001-.601z"/>
    <path fill="#A5D1CE" d="M28.952 108.749l.5.501c-.1.2-.3.2-.4.2-.3-.401-.8-.601-1.301-.701v-.2-.3h.5c.1.3.4.4.7.5z"/>
    <path fill="#50B9A6" d="M100.618 16.266l.2-.2h.501c.1.2.2.3.3.5-.3-.1-.601-.2-1.001-.3z"/>
    <path fill="#32AF97" d="M56.177 8.56c-.1.2-.2.4-.2.5-.5 0-.9-.3-1.502-.2-.1-.1-.2-.2-.2-.3.3-.3.5-.601.701-1.001h.1c.3-.1.5.2.7.2.301 0 .701 0 1.002.2.1.5-.2.4-.5.4-.201 0 .1-.1 0 0-.201.1-.1.2-.1.2z"/>
    <path fill="#25B193" d="M55.477 8.057l-.5-.5c0-.1 0-.2-.101-.3h.3c.5.2 1.001 0 1.502 0 .1.1.1.1.1.2s-.1.1-.1.1c-.3.5-.801.3-1.201.5z"/>
    <path fill="#6BBBB1" d="M54.876 7.558c.1.6.1 1-.7 1v-.3c.2-.2.4-.5.7-.7z"/>
    <path fill="#86C7BF" d="M9.234 65.51c-.4-.1-.5-.4-.5-.7v-.301h.5v1z"/>
    <path fill="#A6D3CF" d="M67.187 111.653c-1.701.3-3.503.3-5.305.2-.2-.1-.2-.3 0-.401.4-.1.8.101 1.101-.2-.2-.5-.6-.3-.9-.3.3-.601-.2-.5-.501-.5v-.201c.5-.2 1 .1 1.501.201.5.2.901 0 1.302-.101.7 0 .5.301.2.701-.1.1-.701 0-.3.501 1.1.1 2.001-.301 2.902.1z"/>
    <path fill="#31AF98" d="M64.385 111.452c-.3.2-.501.1-.801-.201.4-.2.8-.3 1.1-.5.301-.2-.1-.3-.3-.3-.1 0-.1-.1-.1-.201h4.204c-1.3.401-2.702.601-4.103 1.202z"/>
    <path fill="#84CEC1" d="M67.888 111.954h.2c.4-.301.901.1 1.201-.301.901-.5 1.702.301 2.603.1v.401l-3.604.3c0-.2-.5 0-.4-.5z"/>
    <path fill="#82CABF" d="M74.894 111.654c-.7 0-1.401.5-2.202.1.5-.601 1.201-.3 1.702-.4.2 0 .5-.201.5.3z"/>
    <path fill="#54BCA9" d="M83.102 110.152c-.5-.1-1 .601-1.702 0 .501-.4 1.001-.2 1.502-.3.3 0 .3.1.2.3z"/>
    <path fill="#10B48C" d="M83.602 109.652c.5-.4 1.001-.2 1.602-.2-.5.4-.901.501-1.401.501 0-.101-.1-.101-.2-.301z"/>
    <path fill="#8FCDC4" d="M75.695 111.154c.5-.1 1-.1 1.501-.2l.1.1-.1.1c-.4.401-1 .201-1.501.301-.1 0-.1-.1 0-.301-.1.101 0 0 0 0z"/>
    <path fill="#66C8B3" d="M75.695 111.154v.3c-.2.3-.5.2-.8.2-.2-.1-.3-.2-.5-.3.4-.3.8-.1 1.3-.2z"/>
    <path fill="#A9D8D2" d="M77.196 111.151v-.2c.5-.1 1.001-.2 1.502-.2.1.1.1.1.1.2s-.1.1-.1.1c-.5.301-1.001.1-1.502.1z"/>
    <path fill="#8ECFC4" d="M84.103 111.152l-.3-.3c.2-.1.4-.2.5-.3.1.1.3.1.4.2 0 .4-.3.4-.6.4z"/>
    <path fill="#2AB396" d="M83.603 109.652l.3.301c-.3.1-.5.2-.8.2l-.201-.2c.2-.301.5-.201.7-.301z"/>
    <path fill="#0BBA8D" d="M71.692 15.065h-.2c-.1-.1-.2-.2-.2-.3v-.701c.6.1 1.2.2 1.5.9-.5.1-.8.1-1.1.1z"/>
    <path fill="#17B18E" d="M105.122 63.309c.3-.2.501-.3.801-.5.5 0 .4.2.2.5-.4 0-.5.4-.801.5h-.2v-.2-.3z"/>
    <path fill="#25B394" d="M106.123 63.308c0-.2 0-.4-.2-.5v-.501-.3c.501.5.501 1.1.401 1.801-.301-.1-.201-.4-.201-.5z"/>
    <path fill="#77C0B7" d="M106.623 61.006c.201-.1.201-.3.301-.5.2.2.2.4.2.6 0 .2-.1.5-.3.4-.301 0-.201-.3-.201-.5z"/>
    <path fill="#97D2C9" d="M105.122 63.707h.2c0 .4.201.901-.1 1.302-.1-.4-.1-.801-.1-1.302z"/>
    <path fill="#1BB391" d="M54.475 106.449c.901.5 1.802.1 2.703.3 0 .501-.8.1-.7.701-.801 0-1.502-.401-2.203-.2 0-.401-.3-.501-.5-.701.2-.3.4-.3.7-.1z"/>
    <path fill="#6ABEB1" d="M54.475 106.45h-1.2v-.5c.5 0 1 0 1.5.2-.2.1-.2.2-.3.3z"/>
    <path fill="#7ECBBD" d="M103.421 24.773c.4.4 1.001.6 1.001 1.301-.2-.1-.3-.2-.501-.3l-.5-.5c-.1-.2 0-.3 0-.501z"/>
    <path fill="#43B29F" d="M56.678 111.753h.7c.4.3.901.1 1.301.3-.3.5-.7.4-1.2.3-.701-.1-1.402-.1-2.103-.1-1.501-.2-3.002-.3-4.504-.5h-.5c-.1-.701.6-.1.7-.501.601-.3 1.202.2 1.702 0 1.401.501 2.602 1.001 3.904.501z"/>
    <path fill="#7FC7BC" d="M104.121 61.007c.1-.1.2-.2.301-.2h.2c.1.2.2.3.3.5-.1.3.1.7-.3.9-.1-.4-.301-.8-.501-1.2z"/>
    <path fill="#30B097" d="M51.172 111.153c0 .6-.7.1-.7.5l-4.805-1.201v-.6c.6.2 1.101.4 1.702.3.6.2 1.201.3 1.801.3.501.2 1.001.501 1.502.701h.5z"/>
    <path fill="#96D0C8" d="M105.923 27.776c.3 0 .5.2.5.6h-.3c-.1-.1-.2-.2-.2-.3-.2-.1-.2-.2 0-.3z"/>
    <path fill="#0CB88C" d="M39.161 107.951c-1.2-.1-2.302-.4-3.003-1.501.601 0 .801.801 1.502.801.5.1 1.1 0 1.501.5v.2z"/>
    <path fill="#61BBAD" d="M39.161 107.751c-.5-.2-1.1-.1-1.501-.5l.3-.3c.3.1.7.2 1.001.2.2.2.5.2.2.6z"/>
    <path fill="#68C0B1" d="M105.923 27.776v.3c-.2-.1-.2-.3-.3-.5h.3v.2zM105.923 28.077c.1.1.2.2.2.3h-.2v-.3z"/>
    <path fill="#12B18C" d="M102.119 21.07c0-.3.201-.4.401-.2.801.7 1.601 1.5 2.502 2.302-.5.3-.701-.1-.901-.2-.6-.701-1.201-1.302-2.002-1.902z"/>
    <path fill="#62BFB0" d="M107.424 26.976l-.1.1h-.4v-.5c-.1-.2-.1-.3 0-.501.4.2.5.5.5.9z"/>
    <path fill="#32B299" d="M100.618 18.067c.1.2.2.501.2.701-.3-.1-.5-.3-.6-.5 0-.2.3-.2.4-.2z"/>
    <path fill="#3DB09D" d="M51.973 7.056l-.3-.3c.2-.1.3-.2.5-.3.3 0 .5.2.5.5h-.2c-.2.1-.4.1-.5.1z"/>
    <path fill="#25B193" d="M56.177 8.557c-.2 0-.4 0-.6-.1.4-.3.9 0 1.1-.4 0-.2.2-.2.3-.2.801 0 1.702 0 2.503-.3.3-.2.6-.2.8.1 0 .2-.1.3-.3.4-.6.1-1.2.1-1.701.4h-.6c-.501.1-1.002.1-1.502.1z"/>
    <path fill="#09B78B" d="M60.18 7.858c-.2-.3-.5-.2-.7-.3.6-.6 1.401.1 2.002-.5h3.503c.1.1.1.2 0 .3-.1.2-.3.3-.5.2-.2-.1-.4-.1-.601-.1-.4 0-.8 0-1.201.1-.1 0-.2.1-.3.1-.3.1-.601.1-.801.3-.6.2-1.001.2-1.401-.1zM56.678 7.557v-.2c.7-.2 1.4-.3 2.101-.1l-2.102.3zM56.977 7.858c-.1.1-.2.2-.3.2h-1.2c.3-.3.8-.4 1.2-.5l.3.3z"/>
    <path fill="#17B48F" d="M64.484 7.557c.1-.1.3-.2.4-.3.902.1 1.803-.3 2.803 0h1.101c-.7 1.001-1.701.1-2.602.4-.6.2-1.301 0-1.902 0-.1-.1-.1-.2.2-.1z"/>
    <path fill="#6CBFB3" d="M60.18 7.857h1.502c.3-.1.3 0 .2.3h-.2c-.4.2-.9.4-1.401.3-.2-.1-.3-.2-.4-.4.1-.1.2-.1.3-.2z"/>
    <path fill="#57B7A8" d="M64.485 7.557c-.1.1-.2.2-.3.2h-1.702c-.1-.1-.1-.1-.1-.2s0-.1.1-.1c.5-.3 1.001.1 1.501-.2.2.1.4.1.5.3z"/>
    <path fill="#17B48F" d="M60.18 8.356c.501-.1 1.001-.1 1.502-.2-.1.2-.2.3-.2.5-.5-.1-1.001.2-1.502-.2 0-.2.1-.2.2-.1z"/>
    <path fill="#44B5A1" d="M62.483 7.558v.2c-.2.3-.4.3-.6.3-.1-.1-.2-.2-.2-.3.2-.2.5-.2.8-.2z"/>
    <path fill="#68B9AF" d="M67.688 7.355c-.901-.2-1.802.601-2.803 0 0-.1 0-.1.1-.2h2.202c.2-.1.4 0 .5.2z"/>
    <path fill="#70C0B4" d="M12.236 82.526v.5c-.4 0-.5-.3-.7-.5-.1-.1-.2-.2-.3-.2-.1-.401-.2-.901 0-1.302.4.4.7.901 1 1.502z"/>
    <path fill="#2BAF95" d="M8.533 71.014c-.3-.2-.5-.4-.5-.8-.1-.3-.2-.701-.2-1.001.5 0 .5.4.5.8 0 .3.1.7.2 1.001z"/>
    <path fill="#31B198" d="M8.633 69.215c-.1-.2-.2-.3-.3-.4 0-.1.1-.2.2-.1.1 0 .2.1.2.2.1.1 0 .2-.1.3z"/>
    <path fill="#2CB296" d="M4.73 56.803v1.501c-.201 0-.501.3-.501.2.1-.6-.4-1.401.5-1.701z"/>
    <path fill="#67C0B1" d="M60.381 112.155c.2 0 .3 0 .5.1-.2.1-.3.3-.5.4h-.3c-.1-.2-.1-.3-.2-.5h.5z"/>
    <path fill="#29B195" d="M57.178 113.956c-.3 0-.6-.1-.9-.1.1-.1.2-.1.2-.2h1.2v.2c-.2.1-.3.1-.5.1z"/>
    <path fill="#19B18F" d="M101.619 19.37c.601-.2 1.201-.3 1.501.5-.6.1-1.101 0-1.501-.5z"/>
    <path fill="#2AAD94" d="M106.924 26.073v.5c-.301-.5-.601-1-.901-1.401.4.1.801.3.901.9z"/>
    <path fill="#91CBC4" d="M60.18 8.359c-.1 0-.2 0-.2.1-.6.1-1.2.1-1.701.2.4-.6 1.001-.6 1.601-.6l.3.3z"/>
    <path fill="#17B48F" d="M63.984 7.358c-.5.4-1 .2-1.501.2.4-.4 1-.2 1.501-.2z"/>
</svg>
