<svg xmlns="http://www.w3.org/2000/svg" width="142" height="126" fill="none" viewBox="0 0 142 126">
    <g clip-path="url(#prefix__clip0)">
        <path fill="#FE4651" d="M26.819 4.304c-1.701-1.6-3.503-2.501-5.604-3.002-2.202-.5-4.203-1.6-6.605-1.2-1.6.3-3.202.3-4.803.6C5.504 1.702 1.8 3.404 1 8.407c0 .4-.3.901-.5 1.201-.3.5-.501.9-.501 1.401 0 2.002.1 4.003.4 6.004.6 3.003 1.902 5.704 3.803 8.006 1.3 1.601 2.602 3.302 4.903 3.603 1.301.2 2.402.6 3.503 1.1 1.1.5 2.302 1.001 3.502 1.101 2.102.3 4.203.7 6.105-.7-.1-.3-.5 0-.5-.1-.1-.3.2-.3.4-.4.8-.1 1.6 0 2.301-.601 4.203-3.803 7.005-8.406 7.105-14.11.1-4.103-1.5-7.705-4.703-10.608zm1.4 13.51c-.3 2.802-2 4.803-3.802 6.705-.8.8-1.5 1.6-2.301 2.401-2.002 1.702-4.404 1.702-6.605 1.101-3.002-.8-5.904-2.001-8.306-4.303-1.901-1.901-3.202-4.203-3.602-6.705-.3-2.201-.701-4.603-.1-6.904.7-2.802 2.401-5.004 5.203-5.804 5.904-1.702 11.508-1.101 16.612 2.301 1.901 1.301 3.402 4.403 3.202 6.305-.1 1.7-.1 3.302-.3 4.903zM100.871 113.883c-.1-1.501-.3-3.102-.9-4.503-.7-1.701-1.401-3.403-2.902-4.503-2.202-1.702-4.804-2.402-7.506-2.502-3.602-.2-6.804 1-9.206 3.602-3.202 3.403-4.203 7.506-2.702 12.109.9 2.702 2.702 4.703 5.304 5.904 1.1.5 2.401.5 3.502 1.201.2.1.5.2.6.1.801-.601 1.702-.3 2.602-.4.701 0 1.401.1 2.102 0 3.302-.801 5.904-2.502 7.605-5.404.801-1.801 1.702-3.603 1.501-5.604zm-5.604 5.804c-1.1 1.201-2.601 1.501-4.102 2.001-.701.201-1.402.301-2.102.401-.6.1-1 .3-1.4-.501-.201-.6-1.102-.6-1.602-.7-3.002-.501-4.603-2.302-4.904-5.304-.3-2.302.1-4.503 1.502-6.404 1.2-1.702 4.203-2.802 7.004-2.802 4.504-.201 6.805 3.002 7.506 6.704.6 2.602-.1 4.704-1.902 6.605zM141.9 68.149c-.4 3.102-1.401 6.004-4.003 8.105-1.401 1.101-3.102 2.302-4.603 2.402-1.701.1-2.502 1.101-3.703 1.801-4.103 2.502-9.907 2.502-13.709-.6-2.202-1.701-3.203-4.003-2.702-6.805.1-.6.4-1.3.9-1.1.501.2 1.201-1.101 1.401.2 0 0 0 .1.1.1 1.702-.2.901 1.1 1.001 1.8 0 1.402.901 2.403 1.501 3.503.3.6 1.101.3 1.601.6 2.002 1.102 4.203 1.001 6.305 1.001 1.201-.1 1.401-1.2 2.201-1.8 0 0 .1-.1.2-.1.601-.1.701-.601.901-1.102 0 0 0-.1.1-.1s.1 0 .2.1c1.702-2.001 2.302-4.303 1.201-6.804-.3-.8-.9-1.401-1.901-1.401-.901.1-1.501.6-1.801 1.5-.801 2.102-.601 4.804 1.901 6.505h.1c-.6.8-.801.8-1.901 0 0 0-.1 0-.1-.1-.101-.1-.201-.1-.301-.2-.5-.3-1-.6-1.2-1.2v-.1c-.101-.1-.101-.201-.101-.301-.1-.2-.1-.3-.2-.5-.1-.1-.1-.2-.3-.3-.1 0-.1-.1-.2-.1-.4-.1-.4-.501-.6-.801-1.101-3.002.9-7.005 4.002-7.606 1.501-.3 4.403 1.201 5.104 2.502.5.8 1.501 1.401 1.401 2.502-.3 1.901.4 3.903-.601 5.804 1.602-.7 3.003-1.601 4.203-2.902.801-.1 1.101-1.2 2.002-1.2.2 0-.1-.701 0-1.002-.2.2-.3 1.001-.801.2.501-1.5 1.101-3.002.901-4.703-.2-1.6-1.101-3.002-1.101-4.603 2.002 1.401 3.102 3.502 2.602 6.805z"/>
        <path fill="#FD8289" d="M128.491 77.458c-.3.3-.901.4-.801 1.2 0 .4-1 .5-1.701.5 0-.6 1.201-.3 1.001-1.1-.601-1-1.201-2.001-2.002-2.802-1.3-.5-1.1-1.5-1-2.502.2.2.4.6.8.5.2.1.2.401.2.601 0 .2.101.3.201.5.1.1.2.1.3.1.3.601.9 1.001 1.501 1.302v.4c.2.7.901.8 1.301 1.2.1-.1.2 0 .2.1z"/>
        <path fill="#FE5761" d="M126.99 77.957c-1.201-.601-1.801-1.602-2.002-2.802 1.201.5 1.802 1.6 2.002 2.802z"/>
        <path fill="#FD838A" d="M92.165 121.988c-.9.501-1.801.701-2.902.601 1-.601 2.001-.501 2.902-.601z"/>
        <path fill="#FD9AA0" d="M140.599 67.85c-.1-1.1-.1-2.201-.401-3.402.701.8.701 1.3.401 3.402z"/>
        <path fill="#FDA2A8" d="M130.592 76.957c-.6.7-.6.7-1.301 1.1.1-.8.701-.9 1.301-1.1z"/>
    </g>
    <defs>
        <clipPath id="prefix__clip0">
            <path fill="#fff" d="M0 0H142V125.288H0z"/>
        </clipPath>
    </defs>
</svg>
