<svg xmlns="http://www.w3.org/2000/svg" width="120" height="99" fill="none" viewBox="0 0 120 99">
    <path fill="#015EF4" d="M93.556 7.472h1.909c.402 0 1.005-.1 1.005.503 0 .502-.503.603-.904.703-1.608.503-3.317.704-4.925.905-8.541 1.005-15.977 4.32-22.007 10.652-4.622 4.924-7.938 10.55-8.943 17.485-.402 2.713 0 5.326.804 7.938.301 1.005.603.905 1.306.302 4.22-3.115 8.743-5.125 14.169-4.824 1.708.1 3.316.603 4.623 1.709 4.12 3.115 3.919 9.546-.302 12.661-3.919 2.814-8.14 2.613-12.36.804-2.914-1.206-5.226-3.215-6.934-5.728-.603-.804-.904-.804-1.407-.1-4.924 6.03-7.336 12.561-4.522 20.299.1.301.302.603 0 1.005-.502.502-.804.803-1.206-.1-1.909-4.422-2.11-8.944-.603-13.467 1.106-3.517 2.915-6.732 5.427-9.446.603-.602.703-1.004.402-1.808-2.01-4.824-2.01-9.748-.302-14.571C63.51 19.33 72.654 10.99 86.421 8.176c2.21-.503 4.723-.503 7.135-.704zM29.443 38.727s0-.1.1-.1c.403-.201.604-1.005 1.006-.704.402.302-.1.804-.302 1.206-1.507 2.412-3.115 4.723-5.426 6.431-1.608 1.307-3.417 2.312-5.628 1.709-.502-.1-.602.1-.602.502-.1.703-.201 1.306-.402 1.91-.704 2.612-2.412 3.919-5.125 3.316-.905-.201-1.307-.201-1.106.904.302 1.306.1 2.613.302 3.92.2 1.105-1.407 3.416-2.211 3.215-1.005-.302-2.11 0-3.115-.503-.503-.301-1.005-.402-1.608-.703 0 .502.301.703.402 1.005.1.301.603.804-.302.402-.301-.1-.1.301 0 .502.201.603.603 1.206.302 1.91-2.412-3.015-4.321-6.23-5.728-10.05 1.206.302 2.01.804 2.613 1.508 0 .603.301 1.005.904 1.206.402.2.704.502 1.005.804.402.402.804.603 1.407.603.603.301 1.306.502 2.01.703 1.206.301 1.808 0 2.01-1.306.3-1.608.401-3.216-.503-4.723-.301-.503-.402-1.005-.301-1.608.1-1.005.602-1.608 1.708-1.307.804.201 1.608.402 2.412.704 1.105.402 1.808 0 2.11-1.105.301-.905.502-1.81.603-2.714.2-1.306 1.708-2.512 2.914-2.11 2.311.804 3.819-.502 5.427-1.708 1.507-1.106 2.512-2.814 4.22-3.718.301.301.603.301.904-.1zM100.791 16.718c.1-1.507.502-3.014.804-4.522.904-3.617 1.909-7.134 3.014-10.651.603-1.81 1.206-2.01 2.613-.704 3.819 3.316 7.637 6.733 11.556 10.05 1.206 1.004 1.005 2.511 1.206 3.818.101.301-.301.402-.603.402-5.627 1.206-11.255 2.31-16.982 3.115-1.206.2-1.608-.302-1.608-1.508z"/>
    <path fill="#005EF4" d="M100.188 52.693c-.302 1.608-1.206 2.915-2.21 4.12-.202.302-.403.503-.805.503-1.708.1-3.316.1-4.622-1.307-1.005-1.105-.704-4.22.402-5.325 1.808-1.81 3.919-2.211 6.33-1.106.1.201-.2.502.1.703.905.603.805 1.608.805 2.412z"/>
    <path fill="#015EF4" d="M43.31 98.82c-3.215 0-4.923-3.015-3.315-5.728 1.005-1.81 3.517-3.015 5.326-2.613.603.1 1.206.402 1.206 1.206 0 .703-.704.803-1.206.803-.804.101-1.508.302-2.11.704-.704.502-1.206 1.206-.905 2.21.301.905 1.005 1.408 2.01 1.408.402 0 .804 0 1.206-.1.402-.101.803-.202 1.005.3.2.402 0 .704-.302 1.005-.804.704-1.809.804-2.914.804z"/>
    <path fill="#0761F2" d="M99.284 5.864c-.1 0-.402-.1-.503-.2-1.105-1.006-2.01-2.11-2.813-3.317-.201-.301-.302-.603.1-.904.302-.201.603-.1.804 0 1.206.804 2.21 1.809 3.115 2.914.603.703.201 1.507-.703 1.507z"/>
    <path fill="#0A63F1" d="M94.36 14.506c-.503 0-.804 0-1.005-.302-.201-.402.1-.603.402-.804 1.306-.703 2.613-1.406 4.12-1.708.402-.1.804 0 1.005.302.2.301 0 .603-.302.703-1.406.703-2.914 1.306-4.22 1.809z"/>
    <path fill="#0862F2" d="M90.24 95.906c-.804-.101-1.307-.503-1.307-1.407 0-.704.402-1.307 1.206-1.307 1.005 0 1.306.804 1.407 1.608 0 .704-.503 1.005-1.306 1.106z"/>
    <path fill="#75A0E4" d="M100.188 52.694c-.301-1.105-.301-2.21-1.708-2.412.2-.602.703-.2.904-.602 1.105.803 1.105 1.808.804 3.014z"/>
    <path fill="#72A2F4" d="M3.416 56.613c-.402-.402-1.808-.2-.803-1.407.301.302.703.503 1.004.804.603.402.201.503-.2.603z"/>
    <path fill="#B4CDF8" d="M3.417 56.612c.1-.2.502-.301.2-.703.804 0 .905.703 1.307 1.206-.1.301-.201.402-.503.301-.402-.301-.703-.502-1.004-.803z"/>
    <path fill="#5C94F3" d="M8.742 66.46c-.803-.201-1.205-.503-1.306-1.106 0 0 .201-.2.302-.2.603.1.703.602 1.004 1.306z"/>
    <path fill="#6B9EF4" d="M4.421 57.416c.201-.1.402-.201.503-.302.301.302.703.503 1.005.804-.704.402-1.106 0-1.508-.502zM7.939 58.622c-.804.1-1.407-.2-2.01-.703.703 0 1.407.301 2.01.703z"/>
    <path fill="#377EF4" d="M29.443 38.725c-.2.503-.301 1.005-.904.402.2-.1.301-1.005.904-.402z"/>
    <path fill="#FEFEFE" d="M73.156 55.607c-4.522-.301-8.24-2.512-10.953-6.632-.302-.402-.402-.703.1-1.105 4.12-3.115 8.542-5.326 13.868-4.824 2.814.302 4.823 1.91 5.426 4.321.603 2.412-.603 5.326-2.813 6.733-1.709 1.105-3.417 1.507-5.628 1.507z"/>
    <path fill="#FDFEFE" d="M117.874 12.297c-3.718-1.106-7.537-2.211-11.255-3.317-2.11-.602-2.11-.602-1.708-2.713.301-1.507.603-2.914 1.005-4.622 4.12 3.517 8.039 7.034 12.059 10.45-.101 0-.101.101-.101.202z"/>
    <path fill="#FDFDFE" d="M116.266 13.705c-4.321.804-8.742 1.709-13.063 2.513-.503.1-.603-.1-.503-.503.402-1.809.804-3.517 1.307-5.326.1-.502.401-.402.803-.301 3.819 1.105 7.738 2.311 11.557 3.417-.101 0-.101.1-.101.2z"/>
    <path fill="#8FB4EF" d="M96.37 54.4c.2-.401.502-.803.703-1.305.2.703 0 1.205-.704 1.306z"/>
</svg>
