<svg width="45" height="45" viewBox="0 0 45 45" fill="none" xmlns="http://www.w3.org/2000/svg">
<rect width="45" height="45" rx="22.5" fill="#D1FFF2"/>
<path d="M28.4 15H15.5C14.1 15 13 16.1 13 17.5V26.3C13 27.7 14.1 28.8 15.5 28.8H28.4C29.8 28.8 30.9 27.7 30.9 26.3V17.5C31 16.1 29.8 15 28.4 15ZM29.5 26.3C29.5 26.9 29 27.3 28.5 27.3H15.5C14.9 27.3 14.5 26.8 14.5 26.3V19.8L21.7 23.1C21.8 23.1 21.9 23.2 22 23.2C22.1 23.2 22.2 23.2 22.3 23.1L29.5 19.8V26.3ZM29.5 18.2L22 21.7L14.5 18.2V17.5C14.5 16.9 15 16.5 15.5 16.5H28.4C29 16.5 29.4 17 29.4 17.5V18.2H29.5Z" fill="#29B68D"/>
</svg>
