<svg width="90" height="92" viewBox="0 0 90 92" fill="none" xmlns="http://www.w3.org/2000/svg">
<path d="M46.1 0C46.8 0 47.6 0 48.3 0C48.6 0.5 49.2 0.3 49.6 0.5C49.9 0.6 50.2 0.5 50.4 0.6C51.3 1.3 51.2 2.6 51.9 3.5C52.7 4.7 51.3 5.3 50.9 6.2C50.6 6.9 50.2 7.5 50.4 8.3C50.4 8.7 50.2 9 49.9 9.2H50C51.7 8.2 53.6 7.6 55.5 7.2C56.2 7.2 56.7 7.7 57.3 8C57.9 8.6 58.9 8.6 59.6 9C60.2 9.3 60.6 9.7 60.7 10.3C60.8 11 60.4 11.7 60.2 12.3C60.2 12.5 60.1 12.8 60.2 13C60.8 14.5 60.3 15.6 59 16.5C58.4 16.7 57.9 17 57.5 17.5C55.5 19.4 53.5 21.2 51.4 23C51.2 23.2 51 23.3 50.8 23.5C51.2 23.2 51.6 22.9 51.9 22.5C53.6 20.9 55.7 19.8 57.7 18.7C60.9 17 64 15.1 67.1 13.3C68.4 12.6 69.7 12.2 71.1 12.1C71.9 12 72.5 12.3 73 12.9C73.3 13.5 74 13.6 74.2 14.2H74.3C74.6 14.1 75 14 75.3 14.2C76.2 15.1 76.5 16.2 76 17.4C75.8 17.8 75.8 18.2 75.7 18.5C77.7 17.1 80.1 16.6 82.3 15.8C83.4 15.4 84.2 16.1 84.8 16.9C85.1 17.2 85.4 17.4 85.7 17.5C86.6 18.3 86.9 19.3 86.7 20.5C86.7 20.7 86.7 21 86.6 21.2L86.7 21.3C86.9 21.3 87.1 21.4 87.2 21.5C88 22.7 87.3 23.6 86.6 24.5C85 26.6 83 28.2 80.9 29.7C81 29.6 80.9 29.9 80.8 29.8C80.7 29.7 80.6 30 80.7 29.9C80.9 29.8 81.1 29.6 81.3 29.5C82.1 29.1 82.7 29.4 83.3 29.9C84.1 30.6 84.7 31.5 85.7 31.9C86.5 32.2 86.8 33.2 86.7 34C86.5 36.3 86 38.5 84 40C83 40.8 82.3 42.1 81 42.6C80.7 42.6 80.5 42.7 80.3 42.9C80 43.2 79.8 43.6 79.6 44C77 46.4 74.5 48.7 71.6 50.6C70.1 51.6 68.7 52.9 67.2 54.1C67.1 54.1 67.1 54.2 67 54.2H67.1C67.2 54.2 67.2 54.1 67.3 54.1C71.1 51 75.4 48.8 79.8 46.8C80.4 46.5 81.1 46.4 81.7 46.3C82.1 46.2 82.5 46.3 83 46.2C83.2 46.2 83.4 46.2 83.6 46.2C84.2 46.4 84.7 46.8 85.3 47C85.5 47.1 85.6 47.2 85.7 47.4C85.7 47.6 85.8 47.7 85.8 47.9C86.4 48.8 87.4 48.3 88.1 48.8C88.4 49 88.5 49.4 88.5 49.8C88.6 50.4 87.9 51.1 88.6 51.6C88.7 51.8 88.7 51.9 88.7 52.1C88.7 55.3 87.5 57.8 84.8 59.6C84.3 59.7 83.7 59.7 83.5 60.5C83.4 60.7 83.3 60.8 83.1 60.9C82.6 61 82.4 61.4 82.2 61.8C82.1 61.9 81.9 62 81.8 62.1C81.1 62.3 80.9 63 80.6 63.6C78 66.6 75.3 69.4 72.4 71.9C72.1 72.2 71.8 72.4 71.3 72.5C70.6 72.4 70 72.6 69.8 73.5C68.6 74.9 67.2 76 66 77.3C64.7 78.7 63.3 80 61.6 80.9C60.8 81 60.1 81 59.6 81.8C59.4 81.9 59.2 82.1 59 82.1C58.8 82.1 58.4 82.2 58.3 82C57.7 80.8 57.1 81.5 56.4 81.9C56 82 55.5 82 55.1 82.3C54.1 83.2 52.9 82.9 51.7 82.9C50.9 82.9 51 82.3 50.9 81.7C50.9 81.4 51 81.2 51.1 81C51.4 80.6 51.7 80.2 51.9 79.7C52 79.6 52.1 79.4 52.1 79.3C52.2 79.1 52.2 78.8 52.3 78.5C52.4 77.9 52.6 77.4 53.1 77.1C53.9 76.4 54.7 75.7 55.4 74.9C55.9 74.2 56.8 73.9 57.2 73.1C57.3 73 57.4 72.9 57.4 72.7C57.3 72.6 57.2 72.7 57.1 72.7C56.9 72.8 56.7 72.9 56.5 73.1C56.2 73.4 55.8 73.6 55.5 73.9C55.4 74 55.2 74.1 55.1 74.2C54.7 74.4 54.3 74.7 54 74.9C53.5 75.1 53.3 75.6 53 76.1C52.8 76.3 52.7 76.4 52.4 76.5C52.1 76.5 51.8 76.7 51.6 76.9C51.4 77.1 51.4 77.4 51.2 77.6C51.1 77.8 50.9 77.9 50.7 78C50.4 78.1 50.1 78.2 49.9 78.5C48.4 79.4 47.2 80.7 45.8 81.8C45.5 82.1 45.2 82.3 44.8 82.5C44.2 82.5 43.9 82.8 43.7 83.3C39.8 86 36.2 89 31.9 91.1C30.2 91.9 28.4 92.2 26.6 91.7C26.2 91.5 25.8 91.4 25.3 91.4C23.9 91.4 22.9 91 22.5 89.5C22.4 89 22.3 88.6 22.1 88.1C22.1 88 22 87.9 22 87.7C21.9 87.3 21.7 86.9 21.7 86.4C21.7 86.2 21.7 86 21.8 85.8C21.9 85.1 22 84.4 22.1 83.7C22.5 82.9 22.6 81.8 23.7 81.5C24.8 81.8 24.8 81.8 24.8 80.6C24.8 80.3 24.8 80 24.8 79.7C24.9 79.4 25.1 79.2 25.4 79C26.8 78.9 27.7 78 28.3 76.8C28.7 76 29.2 75.5 30.1 74.9C28 76 25.9 76.3 24.1 77.2C23.7 77.6 23.1 77.7 22.7 78.1C22.6 78.2 22.5 78.2 22.4 78.3C22.1 78.4 21.8 78.5 21.5 78.7C20.7 79 20.1 79.8 19.4 80.3C19.3 80.3 19.2 80.3 19 80.3C18.8 80.2 18.6 80 18.6 79.7C18.6 78.8 19.7 78.5 19.7 77.6C19.6 77.5 19.5 77.4 19.4 77.3C19.2 77.2 19 77 18.7 76.9C17.4 75.6 16.7 74.2 17.3 72.4C16.2 73.3 15.4 74.4 14 74.8C13.3 74.6 12.7 74.7 12.1 75.2C12 75.3 11.8 75.4 11.7 75.5C11.1 75.9 10.4 76.3 9.7 76.5C8.9 76.4 8.1 76.8 7.5 76.1C7.3 75.9 7.3 75.6 7 75.4C6.7 75.2 6.4 75.5 6.2 75.5C4.5 75.8 4.1 74.9 3.3 73.1C2.8 72 3 70.8 3.5 69.5C4.7 66.5 6.9 64.3 8.9 61.8C9.2 61.4 9.6 61.3 9.8 61.1C8.4 61.7 6.8 62.7 5 62.8C4.6 62.8 4.2 62.8 3.8 62.5C3.3 61.4 2.2 61.5 1.3 61.2C1.1 61.2 1 61.1 0.8 61C0.7 60.9 0.6 60.9 0.5 60.8C0 60.2 0 59.5 0 58.7C0 58.6 0 58.5 0 58.4C0 58 0.3 57.6 0.3 57.1C0.3 56.8 0.3 56.6 0.1 56.3C-0.1 55.5 0.1 54.9 0.7 54.3C3.7 50.9 6.8 47.7 10.3 44.8C10.6 44.6 11 44.4 11.3 44.2C11.4 44.1 11.5 44.1 11.6 44.1C12.5 44.1 12.7 43.4 13 42.7C14.2 40.9 16.1 39.9 17.6 38.5C17.8 38.2 18.1 38.1 18.4 38C18 38.1 17.8 38.4 17.5 38.6C14.6 41 11.2 42.5 8 44.4C6.2 45.5 4.4 44.7 2.9 43.7C1.1 42.6 0.9 38.6 2.4 37.1C2.7 37 3 37.1 3.2 37.1C3.4 37.1 3.6 37 3.7 36.8C3.8 36.6 4 36.5 4.1 36.3C4.5 35.9 4.8 35.4 5.1 35C5.4 34.6 5.7 34.2 6.3 34.2C6.9 34.4 7.2 34.1 7.6 33.7C8.1 33.1 8.7 32.7 9.3 32.2C9.6 32 9.9 31.6 10.4 32C10.6 32.2 10.6 32.4 10.5 32.7C10.5 33.1 10.1 33.3 9.9 33.5C10.3 33.2 10.9 33 11.3 32.5C11.7 31.9 12.2 31.3 12.9 31C13.5 30.9 13.6 30.3 14 29.9C14 29.9 14 29.8 14.1 29.8L14 29.9C13.8 30.1 13.6 30.4 13.4 30.7C13.3 30.8 13.2 30.9 13.1 30.9C12.6 31 12.3 31.4 12 31.7C11.5 32.1 11.1 32.6 10.4 32.2C10 31.5 10.6 31.1 11 30.8C11.5 30.3 12.1 29.9 12.2 29.1C12.3 28.9 12.5 28.7 12.7 28.6C13.4 28.4 13.9 28.1 14.4 27.6C15 26.9 16.2 27 16.5 26.1C16.8 25.3 17.5 24.9 18.1 24.5C18.4 24.3 18.6 24.1 19 23.9C20 24 19.8 22.9 20.3 22.5C20.5 22.3 20.7 22.1 20.9 21.9C21.1 21.7 21.4 21.5 21.6 21.2C22 20.8 22.5 20.5 22.8 20.1C23.1 19.9 23.4 19.6 23.7 19.4C23.9 19.3 24 19.1 24.1 19C24.3 18.8 24.6 18.6 24.4 18.3C24.1 18 23.8 18.3 23.6 18.4C23.3 18.5 23.1 18.8 22.8 19C22.5 19.2 22.1 19.4 21.8 19.7C21.7 19.8 21.5 19.9 21.3 19.9C21.1 19.9 20.9 19.8 20.8 19.7C20.6 19.5 20.7 19.2 20.8 19C20.9 18.8 21 18.6 21.2 18.4C21.7 18.1 22.1 17.8 22.3 17.2C22.4 17 22.5 16.8 22.7 16.6C23.2 16.4 23.6 16.1 24 15.7C25.4 14.4 26.9 13.3 28.1 12.6C27.1 13.2 25.7 14.3 24.4 15.4C23.8 16.1 23 16.5 22.2 17C22 17.2 21.8 17.4 21.5 17.5C20.9 17.6 20.3 17.7 19.8 18.2C19 18.8 18.3 19.6 17.3 19.8C17 19.7 16.9 19.5 16.9 19.2C16.9 18.9 17 18.7 17.1 18.5C17.7 17.9 18.5 17.5 18.5 16.4C18.7 15.8 19.3 15.6 19.7 15.3C21.4 14.9 22.6 13.6 24.1 12.8C24.9 12.3 25.7 11.9 26.5 11.5C27.2 11.2 27.9 10.8 28.5 10.3C29.1 9.5 30.2 9.4 31 8.9C31.5 8.5 32.2 8.2 32.8 7.9C33.4 7.5 34 7.3 34.6 7C35.1 7 35.6 7 36 6.6C37.2 6.4 37.5 6.2 37.9 6C38.1 5.9 38.3 5.7 38.5 5.7C39.2 5.8 39.7 5.6 40.3 5.2C41.1 4.5 42.3 4.3 43.1 3.5C43.3 3.3 43.3 2.9 43.5 2.9C43.3 3 43.2 3.3 43 3.6C41.9 4.4 40.7 5 39.4 5.6C38.4 5.6 37.5 5.8 36.6 6.3C36.5 6.4 36.3 6.5 36.2 6.6C36 6.8 35.8 6.9 35.6 6.9C34.8 7.1 34 7.5 33.3 8C32.6 8.3 32 8.9 31.2 9C30.8 8.9 30.6 8.7 30.6 8.3C30.6 7.6 31.1 7.3 31.6 7C34.5 4.8 37.7 3 40.9 1.4C42.1 0.8 43.5 0.5 44.8 0.3C45.3 0.2 45.7 0.2 46.1 0Z" fill="#00C38B"/>
<path d="M1.5 60.7985C1.2 60.4985 0.8 60.0985 0.5 59.7985C0.5 59.4985 0.5 59.0985 0.5 58.7985C0.6 58.5985 0.7 58.3985 1 58.5985C1 59.1985 0.8 59.7985 1.6 60.0985C2 60.2985 1.7 60.5985 1.5 60.7985Z" fill="#38C28D"/>
<path d="M49.0998 0C49.2998 0.7 49.9998 0.3 50.3998 0.7C50.1998 1 49.8998 1 49.5998 1C49.1998 0.7 48.2998 0.9 48.2998 0C48.5998 0 48.7998 0 49.0998 0Z" fill="#65C18E"/>
<path d="M1 58.6016C0.8 58.7016 0.7 58.8016 0.5 58.8016C0.5 58.4016 0.5 58.0016 0.5 57.6016C0.6 57.6016 0.6 57.6016 0.7 57.6016C1.1 57.8016 1.2 58.1016 1 58.6016C1 58.5016 1 58.6016 1 58.6016Z" fill="#D3EAD9"/>
<path d="M26.2999 79.5016C26.8999 78.4016 28.0999 77.6016 28.7999 76.1016C27.3999 76.8016 26.2999 77.1016 24.9999 77.0016C24.7999 77.1016 24.5999 77.1016 24.3999 77.0016C24.9999 76.4016 25.7999 76.6016 26.4999 76.3016C28.2999 75.7016 29.8999 74.6016 31.9999 74.1016C31.3999 74.8016 31.0999 75.6016 30.3999 76.0016C29.4999 76.5016 29.4999 77.6016 28.7999 78.3016C27.9999 79.0016 27.3999 79.6016 26.2999 79.5016Z" fill="#06C28A"/>
<path d="M24.2002 18.1987C24.3002 18.0987 24.3002 17.9987 24.4002 17.9987C25.0002 17.6987 25.9002 17.0987 26.3002 17.7987C26.8002 18.5987 25.7002 18.6987 25.3002 19.1987C25.2002 19.3987 24.9002 19.4987 24.7002 19.5987C24.5002 19.7987 24.2002 19.9987 23.9002 20.1987C23.5002 20.5987 22.9002 20.6987 22.6002 21.1987C22.4002 21.4987 22.1002 21.7987 21.9002 22.0987C21.7002 22.2987 21.6002 22.3987 21.4002 22.5987C21.3002 22.6987 21.2002 22.6987 21.1002 22.6987C20.5002 22.7987 20.4002 23.4987 20.0002 23.6987C19.5002 23.7987 19.0002 24.3987 18.5002 23.6987C18.3002 22.9987 18.9002 22.6987 19.3002 22.2987C20.2002 21.5987 21.1002 20.8987 21.9002 20.0987C22.2002 19.8987 22.5002 19.6987 22.7002 19.4987C22.9002 19.2987 23.2002 19.0987 23.5002 18.8987C23.8002 18.8987 24.1002 18.5987 24.2002 18.1987Z" fill="#0DC189"/>
<path d="M19.2002 16.8992C19.3002 16.7992 19.4002 16.7992 19.5002 16.6992C19.8002 17.0992 19.9002 17.3992 19.5002 17.6992C19.1002 17.9992 18.7002 18.3992 18.3002 18.6992C17.8002 18.9992 17.7002 19.5992 17.4002 19.9992C17.1002 20.2992 16.7002 20.3992 16.5002 20.7992C16.0002 21.3992 15.2002 21.5992 14.6002 22.0992C14.3002 22.2992 14.0002 22.2992 13.7002 22.0992C12.9002 21.1992 14.1002 21.0992 14.3002 20.4992C15.5002 19.4992 16.8002 18.5992 18.0002 17.5992C18.4002 17.4992 18.8002 17.2992 19.2002 16.8992Z" fill="#12C189"/>
<path d="M7.2002 34.6008C9.1002 32.6008 11.0002 30.6008 13.4002 29.3008C13.1002 30.6008 11.8002 31.1008 11.2002 32.1008C10.2002 32.6008 9.4002 33.3008 8.6002 34.1008C8.2002 34.5008 7.8002 35.0008 7.2002 34.6008Z" fill="#05C28A"/>
<path d="M13.7002 28.8984C13.7002 28.1984 14.5002 27.9984 14.7002 27.3984C14.7002 27.2984 14.7002 27.2984 14.7002 27.1984C14.8002 26.7984 15.2002 26.6984 15.4002 26.4984C16.1002 26.1984 16.2002 25.3984 16.9002 25.0984C17.2002 24.8984 17.4002 24.5984 17.8002 24.5984C18.1002 24.5984 18.4002 24.3984 18.7002 24.3984C18.9002 24.3984 19.0002 24.4984 19.1002 24.6984C18.7002 25.1984 18.2002 25.5984 17.9002 26.1984C17.5002 26.8984 16.9002 27.4984 16.0002 27.4984C15.7002 27.4984 15.5002 27.6984 15.4002 27.8984C15.3002 28.8984 14.4002 28.7984 13.7002 28.8984Z" fill="#05C28A"/>
<path d="M18.2002 19.7002C18.9002 19.1002 19.7002 18.5002 20.4002 18.0002C20.7002 17.9002 20.9002 18.0002 21.0002 18.2002C21.1002 19.0002 20.4002 19.2002 20.0002 19.6002C19.4002 20.2002 18.4002 20.4002 18.2002 21.4002C18.2002 21.5002 18.1002 21.6002 18.0002 21.7002C17.9002 21.8002 17.7002 21.9002 17.5002 22.0002C16.5002 22.3002 15.8002 23.1002 15.0002 23.5002C14.8002 23.6002 14.6002 23.7002 14.3002 23.6002C14.1002 23.6002 14.0002 23.4002 13.9002 23.2002C13.8002 22.5002 14.4002 22.2002 14.8002 21.9002C15.5002 21.5002 16.1002 20.9002 16.7002 20.3002C17.2002 20.1002 17.6002 19.6002 18.2002 19.7002Z" fill="#18BE83"/>
<path d="M51.3002 82.6992C51.2002 82.0992 51.6002 81.6992 52.0002 81.3992C52.0002 82.0992 52.3002 82.2992 53.0002 82.2992C54.5002 82.3992 55.6002 81.4992 57.0002 81.1992L57.1002 81.2992C57.0002 82.1992 56.0002 82.2992 55.6002 82.9992C55.0002 83.0992 54.6002 83.5992 54.0002 83.7992C53.8002 83.7992 53.7002 83.7992 53.5002 83.7992C52.7002 83.7992 52.2002 83.2992 51.7002 82.8992C51.6002 82.8992 51.4002 82.7992 51.3002 82.6992Z" fill="#12C088"/>
<path d="M20.6001 15.9992C22.2001 13.9992 24.1001 12.3992 26.7001 11.6992C26.9001 12.1992 26.5001 12.1992 26.2001 12.3992C25.7001 12.6992 25.3001 12.8992 24.9001 13.2992C23.5001 14.0992 22.2001 15.2992 20.6001 15.9992Z" fill="#5EBC84"/>
<path d="M43.0998 3.5C43.0998 3.7 43.1998 3.9 43.0998 4C41.5998 4.7 40.4998 6.4 38.5998 6.3C38.3998 5.6 39.1998 5.7 39.2998 5.3C40.4998 4.3 41.6998 3.8 43.0998 3.5Z" fill="#05C289"/>
<path d="M19.4 54.3008C18.3 56.1008 16.7 57.4008 15 58.8008C15.1 57.5008 15.3 57.1008 16.7 56.1008C17.4 56.0008 17.9 55.5008 18.3 55.0008C18.6 54.7008 18.8 54.3008 19.2 54.3008C19.3 54.3008 19.4 54.3008 19.4 54.3008Z" fill="#04C289"/>
<path d="M39.3998 5.2016C39.5998 5.9016 38.8998 5.8016 38.6998 6.2016C38.4998 6.3016 38.3998 6.4016 38.1998 6.4016C37.4998 6.1016 37.2998 6.8016 36.8998 7.0016C36.4998 7.4016 35.9998 7.8016 35.3998 7.2016C35.1998 6.9016 35.4998 6.7016 35.5998 6.5016C35.7998 6.4016 35.8998 6.3016 36.0998 6.2016C36.2998 6.2016 36.2998 6.1016 36.3998 6.0016C37.2998 5.6016 38.1998 4.9016 39.3998 5.2016Z" fill="#0AC087"/>
<path d="M24.6001 81.6984C24.9001 80.9984 25.4001 80.3984 25.9001 79.8984C25.9001 80.0984 25.9001 80.4984 26.0001 80.4984C26.9001 80.7984 26.5001 81.2984 26.2001 81.6984C25.9001 82.1984 25.8001 82.8984 25.0001 82.7984C24.2001 82.6984 25.2001 81.8984 24.6001 81.6984Z" fill="#06C28A"/>
<path d="M58.2 82.3985C58.1 82.3985 58.1 82.3985 58 82.3985C57.5 82.4985 57.5 82.1985 57.5 81.7985C58.1 81.0985 56.9 81.5985 57.1 81.1985L57 81.0985C57.4 80.7985 57.7 80.4985 58.1 80.2985C58.4 80.0985 58.9 79.8985 59.3 80.0985C59.8 80.3985 59.2 80.6985 59.2 80.9985C59.1 81.3985 59.4 81.2985 59.6 81.3985C59.8 81.7985 59.5 81.8985 59.3 82.0985C58.9 82.3985 58.6 82.2985 58.2 82.3985Z" fill="#0FC18A"/>
<path d="M24.8999 15.1992C26.6999 13.8992 28.3999 12.3992 30.5999 11.6992C28.4999 12.9992 26.4999 14.2992 24.8999 16.1992C24.4999 15.7992 24.8999 15.4992 24.8999 15.1992Z" fill="#0AC087"/>
<path d="M14 31.4016C13.4 31.8016 13 32.4016 12.5 32.9016C12 33.1016 11.4 33.2016 11 32.6016C11.1 32.4016 11.2 32.3016 11.2 32.1016C12.3 31.9016 12.8 30.7016 13.9 30.6016C14.6 30.8016 14.3 31.1016 14 31.4016Z" fill="#1ABD82"/>
<path d="M29.5998 30.6016C29.0998 31.4016 28.4998 31.9016 27.7998 32.3016C27.4998 32.5016 27.0998 32.4016 26.8998 32.1016C26.5998 31.8016 27.0998 31.6016 27.1998 31.4016C27.8998 30.8016 28.6998 30.7016 29.5998 30.6016Z" fill="#07C188"/>
<path d="M19 26.6016C19.1 26.7016 19.2 26.8016 19.3 26.9016C19.4 27.1016 19.3 27.2016 19.2 27.3016C18.7 27.7016 18.3 28.1016 17.8 28.5016C17.5 28.8016 17.3 28.6016 17.1 28.4016C16.7 28.1016 17 27.9016 17.2 27.7016C17.8 27.4016 18.3 26.9016 19 26.6016Z" fill="#10C28A"/>
<path d="M10.9998 32.6C11.4998 32.5 11.9998 32.6 12.4998 32.9C11.5998 33.7 10.5998 34.4 9.2998 34.1C9.5998 33.3 10.5998 33.4 10.9998 32.6Z" fill="#05C28A"/>
<path d="M29.0999 9.50078C29.2999 9.20078 29.4999 9.00078 29.7999 8.90078C30.0999 9.00078 30.4999 8.90078 30.7999 8.80078C30.9999 8.80078 31.0999 8.90078 31.2999 8.90078C31.4999 9.00078 31.8999 8.70078 31.8999 9.30078C31.0999 9.80078 30.1999 10.3008 29.3999 10.8008C29.0999 10.9008 28.9999 10.8008 28.7999 10.6008C28.5999 10.1008 29.1999 9.90078 29.0999 9.50078Z" fill="#2EBB81"/>
<path d="M75.2 14.0019C75.2 14.1019 75.2 14.2019 75.2 14.2019C74.8 14.4019 74.8 14.9019 74.5 15.2019C74.3 15.1019 74.2 14.9019 74 14.7019C73.9 13.8019 73.3 13.5019 72.5 13.5019C73 13.3019 73.5 12.9019 74 12.8019C74.6 12.7019 74.7 13.2019 74.7 13.7019C74.8 13.9019 75.1 13.8019 75.2 14.0019Z" fill="#3BBF87"/>
<path d="M21.2 77.5008C20.9 78.4008 20.2 79.0008 19.7 79.8008C19.6 79.9008 19.5 79.9008 19.4 80.0008C19.2 80.1008 18.9 80.1008 18.7 79.9008C18.5 79.7008 18.5 79.5008 18.5 79.3008C18.7 78.9008 18.8 78.4008 19.2 78.1008C19.5 77.9008 19.8 77.6008 20.2 77.4008C20.3 77.4008 20.4 77.3008 20.5 77.3008C20.8 77.3008 21 77.3008 21.2 77.5008Z" fill="#45AB84"/>
<path d="M20.3999 25.2C21.8999 24 23.3999 22.8 25.0999 22C23.7999 23.4 22.1999 24.4 20.5999 25.5C20.5999 25.3 20.3999 25.3 20.3999 25.2Z" fill="#0AC087"/>
<path d="M87.2 47.3008C87.3 47.9008 87.8 48.4008 88.2 48.8008C87.4 48.7008 86.5 48.4008 85.8 49.1008C85.5 48.6008 85.8 48.2008 85.7 47.8008C86.2 47.7008 86.7 47.3008 87.2 47.3008Z" fill="#0BC087"/>
<path d="M57 72.7984C57.6 72.0984 58.3 71.6984 59.2 71.3984C58.6 71.8984 59.3 72.9984 58.3 73.2984C58 73.5984 57.6 73.4984 57.3 73.1984C57.2 73.0984 57.1 72.9984 57 72.7984Z" fill="#1BBE85"/>
<path d="M54.3002 76.6016C54.4002 76.0016 55.1002 75.7016 55.3002 75.2016C55.5002 75.0016 55.5002 74.7016 55.7002 74.5016C55.9002 74.3016 56.1002 74.1016 56.4002 74.1016C56.5002 74.1016 56.6002 74.2016 56.7002 74.3016C56.7002 74.5016 56.7002 74.8016 56.6002 75.0016C55.9002 75.8016 55.1002 76.5016 54.4002 77.3016C54.1002 77.1016 54.2002 76.9016 54.3002 76.6016Z" fill="#30BD84"/>
<path d="M43.1001 3.50094C43.1001 2.30094 43.8001 2.00094 45.3001 2.50094C44.8001 3.40094 43.9001 3.20094 43.1001 3.50094Z" fill="#05C289"/>
<path d="M24.9002 15.1992C25.2002 15.4992 24.9002 15.8992 24.9002 16.1992C24.5002 16.3992 24.2002 16.8992 23.7002 16.9992C23.3002 17.1992 22.8002 17.7992 22.7002 16.6992C23.4002 16.1992 24.2002 15.6992 24.9002 15.1992Z" fill="#34BA7F"/>
<path d="M62.0999 80.1992C61.6999 80.9992 60.9999 81.4992 60.2999 81.8992C59.6999 81.7992 59.8999 81.3992 60.0999 81.0992C60.4999 80.2992 61.2999 80.2992 62.0999 80.1992Z" fill="#0FC18A"/>
<path d="M19.5 78.1984C19.3 78.5984 19.1 78.9984 18.7 79.1984C18.6 79.2984 18.5 79.1984 18.5 79.1984C18.3 78.4984 18.8 78.1984 19.1 77.6984C19.4 77.2984 19.9 76.9984 20 76.3984C20.2 76.5984 20.4 76.6984 20.6 76.8984C20.7 77.0984 20.7 77.1984 20.5 77.3984C20.1 77.6984 19.8 77.9984 19.5 78.1984Z" fill="#35BE92"/>
<path d="M85.7 17.1992C86.8 17.2992 86.4 18.3992 86.9 18.9992C87.1 19.2992 87.2 19.6992 87.6 19.8992C87.5 20.0992 87.4 20.2992 87.4 20.4992C87.3 20.5992 87.2 20.6992 87 20.7992C86.9 20.7992 86.8 20.7992 86.7 20.6992C87 19.4992 86.3 18.5992 85.7 17.6992C85.6 17.4992 85.6 17.3992 85.7 17.1992Z" fill="#3EBE87"/>
<path d="M18.8999 54.0984C19.8999 53.3984 20.8999 52.7984 21.8999 52.0984C21.9999 51.9984 22.0999 51.9984 22.0999 52.0984C21.3999 53.0984 20.4999 53.8984 19.3999 54.3984C19.2999 54.1984 18.9999 54.2984 18.8999 54.0984Z" fill="#0AC087"/>
<path d="M31.8998 9.19922C31.6998 9.09922 31.5998 8.99922 31.3998 8.99922C31.2998 8.89922 31.2998 8.89922 31.2998 8.79922C31.2998 8.69922 31.3998 8.69922 31.3998 8.69922C31.9998 8.29922 32.5998 7.89922 33.3998 7.69922C33.7998 7.69922 33.7998 7.89922 33.5998 8.19922C32.9998 8.49922 32.4998 8.89922 31.8998 9.19922Z" fill="#2BBA7F"/>
<path d="M80.9998 29.3984C81.1998 29.9984 81.5998 29.8984 81.9998 29.7984C81.8998 30.1984 81.4998 30.1984 81.1998 30.1984C80.6998 30.1984 80.0998 31.1984 79.7998 30.4984C79.4998 29.9984 80.3998 29.6984 80.9998 29.3984Z" fill="#10BF86"/>
<path d="M18.9001 54.1016C19.1001 54.2016 19.2001 54.3016 19.4001 54.4016C18.9001 54.8016 18.4001 55.3016 17.9001 55.7016C17.5001 56.0016 17.2001 56.4016 16.6001 56.1016C17.6001 55.5016 18.2001 54.7016 18.9001 54.1016Z" fill="#12BF85"/>
<path d="M56.5998 75.0008C56.5998 74.8008 56.5998 74.5008 56.5998 74.3008C56.2998 73.7008 56.7998 73.5008 57.0998 73.2008C57.2998 73.1008 57.4998 73.0008 57.6998 72.8008C57.8998 73.0008 58.0998 73.3008 58.3998 73.3008C57.8998 74.1008 57.1998 74.4008 56.5998 75.0008Z" fill="#23BF86"/>
<path d="M4.6999 62.1008C3.8999 62.3008 3.7999 61.2008 2.9999 61.3008C2.4999 61.5008 1.9999 61.5008 1.8999 60.8008C2.1999 60.9008 2.4999 61.0008 2.6999 61.0008C3.6999 60.9008 4.6999 60.6008 4.6999 62.1008Z" fill="#0BC087"/>
<path d="M51.6001 22.9016C51.8001 22.8016 52.1001 22.7016 52.3001 22.6016C51.7001 23.6016 50.7001 24.0016 49.6001 24.4016C49.7001 23.7016 50.2001 23.7016 50.6001 23.4016C50.9001 23.2016 51.2001 23.0016 51.6001 22.9016Z" fill="#08C28A"/>
<path d="M18.2002 19.7006C17.9002 20.0006 17.5002 20.4006 17.2002 20.7006C16.8002 20.9006 16.3002 21.4006 16.2002 20.4006C16.4002 20.2006 16.7002 19.9006 16.9002 19.7006C17.2002 19.6006 17.4002 19.1006 17.9002 19.2006C18.0002 19.3006 18.1002 19.5006 18.2002 19.7006Z" fill="#04C28A"/>
<path d="M14.7999 74.3012C14.1999 74.7012 13.5999 75.1012 12.8999 75.5012C12.2999 75.4012 12.5999 75.0012 12.6999 74.7012C13.3999 74.4012 13.9999 73.9012 14.7999 74.3012Z" fill="#1EB988"/>
<path d="M28.8998 10.4992C29.0998 10.5992 29.1998 10.6992 29.3998 10.6992C28.7998 11.1992 28.0998 11.5992 27.3998 11.8992C27.1998 11.7992 26.9998 11.5992 27.0998 11.2992C27.1998 11.1992 27.2998 11.1992 27.2998 11.0992C27.6998 10.7992 27.9998 10.2992 28.5998 10.1992C28.6998 10.2992 28.7998 10.3992 28.8998 10.4992Z" fill="#1FBD82"/>
<path d="M27.1 11.3984C27.2 11.5984 27.3 11.7984 27.4 11.9984C26.6 12.3984 25.8 12.7984 25 13.2984C25.2 12.2984 26.3 12.3984 26.7 11.6984C26.8 11.5984 27 11.4984 27.1 11.3984Z" fill="#58BE89"/>
<path d="M50.4 5.89844C51.6 6.79844 50.6 7.49844 50.1 8.29844C49.7 7.39844 50.4 6.69844 50.4 5.89844Z" fill="#37C08A"/>
<path d="M33.5999 8.2C33.4999 8 33.4999 7.9 33.3999 7.7C33.9999 7 34.9999 7.1 35.5999 6.5C35.4999 6.7 35.4999 7 35.3999 7.2C34.7999 7.6 34.1999 7.9 33.5999 8.2Z" fill="#14BE84"/>
<path d="M19.2 24.7016C19 24.7016 18.9 24.7016 18.7 24.7016C18.4 24.4016 17.4 24.8016 17.7 23.8016C18 23.5016 18.3 23.4016 18.7 23.7016C19.2 24.1016 19.6 23.8016 19.9 23.5016C20 23.3016 20.2 23.3016 20.4 23.4016C20.6 23.9016 20.3 24.1016 19.9 24.2016C19.7 24.3016 19.4 24.5016 19.2 24.7016Z" fill="#11BF85"/>
<path d="M56.3 74.2991C56.1 74.3991 56 74.5991 55.8 74.6991C55.6 74.6991 55.5 74.7991 55.3 74.6991C55.1 74.7991 55.1 75.1991 54.8 75.0991C54.7 74.8991 54.4 74.7991 54.6 74.4991C55 74.1991 55.3 73.7991 55.8 73.6991C56.2 73.5991 56.4 73.8991 56.3 74.2991Z" fill="#D4EADA"/>
<path d="M60.7998 78.7C60.9998 78.5 61.0998 78.4 61.2998 78.2C61.3998 78.1 61.4998 78.1 61.5998 78.2C61.4998 79.3 60.8998 79.8 59.7998 79.7C59.8998 79.2 60.3998 79 60.7998 78.7Z" fill="#0FC18A"/>
<path d="M19.8999 24.1988C20.0999 23.8988 20.1999 23.6988 20.3999 23.3988C20.3999 22.8988 20.6999 22.5988 21.1999 22.6988C21.2999 22.6988 21.3999 22.6988 21.3999 22.6988C21.0999 22.9988 21.1999 23.4988 20.9999 23.7988C20.7999 24.0988 20.4999 24.7988 19.8999 24.1988Z" fill="#05C289"/>
<path d="M48.3001 26.1992C47.7001 26.5992 47.1001 26.9992 46.6001 27.4992C46.9001 26.5992 47.4001 26.1992 48.3001 26.1992Z" fill="#08C28A"/>
<path d="M4.6998 36.1014C5.0998 35.7014 5.4998 35.1014 6.1998 35.4014C5.8998 35.8014 5.4998 36.2014 5.1998 36.7014C4.7998 36.7014 4.5998 36.5014 4.6998 36.1014Z" fill="#CAE5D0"/>
<path d="M23.6999 19.4016C23.3999 19.6016 23.1999 19.7016 22.8999 19.9016C22.3999 20.1016 22.1999 19.9016 22.3999 19.4016C22.5999 19.0016 22.9999 18.9016 23.3999 18.6016C23.9999 18.8016 23.8999 19.1016 23.6999 19.4016Z" fill="#34B97F"/>
<path d="M22.6999 16.6992C22.8999 17.1992 23.2999 16.9992 23.6999 16.9992C23.5999 17.1992 23.4999 17.2992 23.3999 17.4992C22.9999 17.8992 22.7999 18.4992 22.0999 18.2992C21.8999 18.0992 21.8999 17.7992 21.8999 17.5992C21.9999 17.4992 21.9999 17.3992 22.0999 17.2992C22.2999 16.9992 22.4999 16.7992 22.6999 16.6992Z" fill="#58BE89"/>
<path d="M25.2002 21.8984C25.7002 21.1984 26.3002 20.5984 27.1002 20.3984C26.6002 21.1984 26.0002 21.6984 25.2002 21.8984Z" fill="#0AC087"/>
<path d="M12.3999 44.6C12.8999 43.9 13.7999 43.6 14.3999 43C13.9999 43.9 13.5999 44.6 12.3999 44.6Z" fill="#0CC28A"/>
<path d="M23.6999 19.4016C23.5999 19.1016 23.4999 18.9016 23.3999 18.6016C23.5999 18.3016 23.7999 18.2016 24.0999 18.1016C24.4999 18.2016 24.9999 18.3016 24.3999 18.8016C24.1999 19.1016 23.8999 19.3016 23.6999 19.4016Z" fill="#15BE84"/>
<path d="M11.6999 76.3C11.4999 76.6 11.1999 77.1 10.9999 76.3C10.8999 75.9 10.4999 76.1 10.3999 75.8C11.1999 75.9 11.6999 75.2 12.3999 75C12.6999 75.7 11.7999 75.7 11.6999 76.3Z" fill="#76B296"/>
<path d="M88.4 49.8008C88.4 50.3008 88.6 50.6008 88.9 50.9008C88.8 51.2008 89 51.5008 88.7 51.7008C88.6 51.9008 88.5 52.1008 88.3 52.1008C88.1 52.1008 88 51.8008 88 51.6008C88.3 51.0008 88 50.3008 88.4 49.8008Z" fill="#94D5B2"/>
<path d="M14.7002 38.3016C14.1002 38.7016 13.5002 39.3016 12.7002 39.4016C13.2002 38.7016 13.8002 38.3016 14.7002 38.1016C14.7002 38.2016 14.7002 38.3016 14.7002 38.3016Z" fill="#39BD85"/>
<path d="M64.7999 16.2C64.2999 16.8 63.5999 17.1 62.8999 17.5C63.2999 16.9 63.8999 16.5 64.5999 16.2C64.5999 16.1 64.6999 16.1 64.7999 16.2Z" fill="#16BE84"/>
<path d="M24.4002 77C24.6002 77 24.8002 77 25.0002 77C24.5002 77.5 23.9002 78 23.1002 78C23.0002 76.9 24.1002 77.5 24.4002 77Z" fill="#26C08A"/>
<path d="M52.3002 80.9984C51.9002 80.9984 51.6002 80.7984 51.9002 80.3984C52.2002 80.0984 52.5002 79.6984 52.7002 79.3984C52.9002 79.3984 53.0002 79.5984 53.1002 79.7984C52.9002 80.1984 52.6002 80.5984 52.3002 80.9984Z" fill="#9ECBA2"/>
<path d="M44.3999 28.6992C44.6999 28.1992 45.0999 27.7992 45.8999 27.6992C45.4999 28.3992 44.9999 28.6992 44.3999 28.6992Z" fill="#09C087"/>
<path d="M82.2002 61.5C82.1002 62.4 81.4002 62.7 80.7002 63.1C81.1002 62.4 81.2002 61.6 82.2002 61.5Z" fill="#89CEA5"/>
<path d="M87.2002 47.2982C86.8002 47.7982 86.4002 48.1982 85.7002 47.7982C85.7002 47.5982 85.7002 47.3982 85.7002 47.2982C86.2002 47.3982 86.7002 46.8982 87.2002 47.2982Z" fill="#6DC595"/>
<path d="M22.0998 17.2005C22.0998 17.3005 22.0998 17.4005 22.0998 17.5005C21.6998 17.8005 21.5998 18.6005 20.7998 18.2005C20.5998 18.1005 20.4998 18.0005 20.2998 18.0005C20.8998 17.4005 21.3998 17.0005 22.0998 17.2005Z" fill="#0EC087"/>
<path d="M17.8999 36.4016C17.4999 36.8016 16.9999 37.1016 16.3999 37.1016C16.6999 36.5016 17.2999 36.3016 17.8999 36.1016C17.9999 36.2016 18.0999 36.2016 17.8999 36.4016C17.9999 36.3016 17.9999 36.4016 17.8999 36.4016Z" fill="#2EBB81"/>
<path d="M21.8999 78.4992C21.2999 79.1992 20.7999 79.8992 19.8999 80.2992C20.3999 79.3992 21.1999 78.8992 21.8999 78.1992C21.9999 78.2992 21.9999 78.2992 21.8999 78.4992C21.9999 78.3992 21.8999 78.4992 21.8999 78.4992Z" fill="#24BA8B"/>
<path d="M71.8 71.8001C71.3 72.3001 70.7 72.8001 70 73.1001C70.2 72.1001 70.9 71.7001 71.8 71.8001Z" fill="#34C08A"/>
<path d="M60.2998 10.1992C60.6998 10.6992 60.5998 11.2992 60.5998 11.7992C60.5998 12.3992 60.1998 12.3992 59.7998 12.1992C59.9998 11.5992 60.4998 10.9992 60.2998 10.1992Z" fill="#AADEC3"/>
<path d="M1.0002 58.5009C0.900195 58.2009 0.800195 57.8009 0.700195 57.5009C0.800195 57.3009 0.900195 57.0009 1.0002 56.8009C1.3002 56.7009 1.4002 56.8009 1.5002 57.0009C1.7002 57.7009 1.3002 58.1009 1.0002 58.5009Z" fill="#86C394"/>
<path d="M61.5998 78.3016C61.4998 78.3016 61.3998 78.3016 61.2998 78.3016C61.4998 77.5016 62.0998 77.3016 62.7998 77.1016C62.3998 77.4016 61.9998 77.8016 61.5998 78.3016Z" fill="#11BF85"/>
<path d="M4.69999 36.1016C4.89999 36.3016 5.09999 36.5016 5.29999 36.7016C5.19999 36.9016 5.09999 37.0016 4.99999 37.2016C4.79999 37.6016 4.49999 37.8016 4.09999 37.5016C3.89999 37.1016 4.19999 36.9016 4.29999 36.6016C4.29999 36.3016 4.49999 36.2016 4.69999 36.1016Z" fill="#C0E2CB"/>
<path d="M21.7 19.6988C21.9 19.6988 22 19.6988 22.2 19.6988C22.3 19.7988 22.3 19.8988 22.3 19.9988C22 20.3988 21.7 20.7988 21.1 20.8988C20.5 20.7988 20.4 20.3988 20.6 19.7988C20.9 19.4988 21.2 18.9988 21.7 19.6988Z" fill="#0EC086"/>
<path d="M54.6 74.5C54.7 74.7 54.7 74.9 54.8 75.1C54.4 75.4 54.1 75.9 53.5 75.7C53.7 75.1 54.1 74.8 54.6 74.5Z" fill="#AFDCBF"/>
<path d="M11.6998 76.2992C11.4998 75.5992 12.2998 75.4992 12.4998 74.9992C12.5998 74.8992 12.6998 74.7992 12.7998 74.6992C12.8998 74.9992 12.8998 75.1992 12.9998 75.4992C12.6998 75.8992 12.0998 75.9992 11.6998 76.2992Z" fill="#48B28B"/>
<path d="M53.1999 79.7984C53.0999 79.6984 52.8999 79.5984 52.7999 79.3984C52.4999 78.6984 52.6999 78.2984 53.2999 77.8984C53.4999 78.0984 53.3999 78.2984 53.3999 78.4984C53.3999 78.7984 53.2999 79.0984 53.2999 79.4984C53.2999 79.5984 53.1999 79.6984 53.1999 79.7984Z" fill="#91CAA0"/>
<path d="M14 31.3999C14.1 31.0999 14.2 30.8999 14 30.5999C14 30.4999 14 30.4999 14 30.3999C14.4 30.2999 14.7 29.6999 15.2 29.8999C15 30.5999 14.7 31.1999 14 31.3999Z" fill="#10C28A"/>
<path d="M22.3999 21.1992C22.6999 20.5992 23.3999 20.4992 23.8999 20.1992C23.9999 20.2992 24.0999 20.3992 23.8999 20.4992C23.4999 20.7992 23.0999 21.1992 22.5999 21.4992C22.4999 21.4992 22.3999 21.3992 22.3999 21.1992Z" fill="#26BC81"/>
<path d="M14.7002 29.5992C15.0002 29.1992 15.3002 28.7992 15.9002 28.6992C15.9002 29.1992 15.5002 29.3992 15.3002 29.5992C15.1002 29.7992 14.9002 29.7992 14.7002 29.5992Z" fill="#05C28A"/>
<path d="M57.6 72.6992C57.6 72.8992 57.6 73.0992 57.4 73.1992C56.9 73.1992 56.6 74.1992 56 73.3992C56.3 73.1992 56.7 72.8992 57 72.6992C57.2 72.7992 57.4 72.7992 57.6 72.6992Z" fill="#C8DEC5"/>
<path d="M39.9001 8C39.4001 8.4 38.9001 8.7 38.1001 8.9C38.6001 8.1 39.2001 8 39.9001 8Z" fill="#23BC83"/>
<path d="M53.2998 78.7016C53.2998 78.4016 53.2998 78.2016 53.2998 77.9016C53.5998 77.5016 53.9998 77.0016 54.2998 76.6016C54.2998 76.8016 54.2998 77.0016 54.2998 77.2016C53.7998 77.6016 53.4998 78.1016 53.4998 78.7016C53.4998 78.9016 53.3998 78.9016 53.2998 78.7016Z" fill="#3EBD85"/>
<path d="M22.2001 18.2C22.6001 18 23.0001 17.7 23.4001 17.5C23.3001 18.2 22.8001 18.6 22.2001 18.8C22.1001 18.7 22.1001 18.6 22.1001 18.5C22.1001 18.3 22.1001 18.2 22.2001 18.2Z" fill="#0EC086"/>
<path d="M21.6998 19.6992C21.3998 19.4992 21.1998 19.7992 20.9998 19.8992C20.8998 19.9992 20.6998 20.0992 20.4998 19.9992C20.3998 19.8992 20.3998 19.7992 20.2998 19.6992C20.4998 19.0992 20.7998 18.7992 21.3998 18.6992C21.6998 18.6992 21.7998 18.8992 21.8998 19.1992C21.7998 19.3992 21.7998 19.4992 21.6998 19.6992Z" fill="#14C087"/>
<path d="M84.9998 59.0991C84.6998 59.4991 84.3998 60.0991 83.7998 60.0991C83.8998 59.3991 84.1998 58.8991 84.9998 59.0991Z" fill="#68CCA0"/>
<path d="M47.3001 25.7008C46.8001 25.9008 46.3001 26.0008 45.6001 26.3008C46.0001 25.7008 46.5001 25.5008 47.0001 25.4008C47.3001 25.3008 47.4001 25.4008 47.3001 25.7008Z" fill="#14BF86"/>
<path d="M45.4002 82.0012C45.2002 82.6012 44.8002 82.8012 44.2002 82.8012C44.4002 82.2012 44.6002 81.8012 45.4002 82.0012Z" fill="#9FDABB"/>
<path d="M60.1 81.1992C60.2 81.4992 60.3 81.6992 60.3 81.9992C60.1 82.2992 59.9 82.2992 59.6 82.2992C59.3 82.3992 59.1 82.3992 59 81.9992C59.2 81.7992 59.4 81.6992 59.5 81.4992C59.7 81.3992 59.9 81.2992 60.1 81.1992Z" fill="#3CBE87"/>
<path d="M36.9001 9.60156C36.5001 10.2016 36.2001 10.4016 35.6001 10.6016C35.8001 10.1016 36.2001 9.80156 36.9001 9.60156Z" fill="#19BD84"/>
<path d="M18.6998 72.3002C18.5998 72.0002 18.4998 71.8002 18.2998 71.5002C18.4998 71.2002 18.7998 71.0002 19.3998 71.1002C19.1998 71.5002 18.8998 71.9002 18.6998 72.3002Z" fill="#AFD5B5"/>
<path d="M18.6999 38.6991C18.5999 38.5991 18.4999 38.4991 18.3999 38.3991C18.7999 37.9991 19.0999 37.5991 19.6999 37.6991C19.6999 38.2991 19.0999 38.3991 18.6999 38.6991Z" fill="#DAF0E5"/>
<path d="M83.8999 46.6001C84.5999 46.2001 85.0999 46.5001 85.4999 47.1001C84.7999 47.4001 84.4999 46.6001 83.8999 46.6001Z" fill="#15C28A"/>
<path d="M60.8 78.6992C60.6 79.1992 60.2 79.3992 59.8 79.6992C59.6 78.8992 60.2 78.7992 60.8 78.6992Z" fill="#7CBD89"/>
<path d="M58.8998 16C58.3998 16.4 58.0998 17 57.2998 16.9C57.6998 16.4 58.1998 16 58.8998 16Z" fill="#9ED1AB"/>
<path d="M52.9999 76.1985C52.8999 76.8985 52.2999 77.0985 51.7999 77.1985C51.6999 76.8985 51.9999 76.6985 52.0999 76.4985C52.3999 76.2985 52.5999 76.0985 52.9999 76.1985Z" fill="#95DBBE"/>
<path d="M55.9998 73.5008C56.4998 73.8008 56.8998 73.3008 57.3998 73.3008C57.0998 73.6008 56.7998 74.0008 56.5998 74.3008C56.4998 74.3008 56.4998 74.3008 56.3998 74.3008C56.1998 74.1008 55.9998 73.9008 55.7998 73.7008C55.7998 73.6008 55.8998 73.6008 55.9998 73.5008Z" fill="#DEEEE1"/>
<path d="M19.7002 37.7008C19.7002 37.1008 20.2002 36.9008 20.6002 36.8008L20.8002 37.0008C20.6002 37.4008 20.2002 37.7008 19.7002 37.7008C19.7002 37.6008 19.7002 37.7008 19.7002 37.7008Z" fill="#DCF1E6"/>
<path d="M81.2998 42.1996C81.0998 42.4996 80.8998 42.6996 80.4998 42.8996C80.3998 42.7996 80.3998 42.6996 80.4998 42.4996C80.5998 42.1996 80.6998 41.7996 81.2998 42.1996Z" fill="#30BB81"/>
<path d="M53.0001 76.1986C52.7001 76.2986 52.4001 76.3986 52.1001 76.4986C52.3001 75.9986 52.6001 75.6986 53.1001 75.9986C53.1001 76.0986 53.0001 76.0986 53.0001 76.1986Z" fill="#42C490"/>
<path d="M23.2002 85.9992C23.3002 85.1992 22.9002 84.3992 23.4002 83.6992C23.4002 84.4992 23.6002 85.2992 23.2002 85.9992Z" fill="#31C48F"/>
<path d="M8.3999 75.6016C8.0999 75.4016 7.4999 75.7016 7.3999 75.0016C7.5999 74.7016 7.7999 74.5016 8.1999 74.7016C8.2999 75.0016 8.3999 75.3016 8.3999 75.6016Z" fill="#85C799"/>
<path d="M18.7002 35.5992C19.1002 35.2992 19.5002 34.9992 20.0002 34.8992C20.1002 34.7992 20.2002 34.7992 20.2002 34.8992C19.8002 35.1992 19.4002 35.5992 19.0002 35.8992C18.8002 35.7992 18.7002 35.7992 18.7002 35.5992Z" fill="#0DC086"/>
<path d="M55.5 7.69905C56.3 7.39905 57 7.29905 57.1 8.49905C56.7 7.99905 56.2 7.59905 55.5 7.69905Z" fill="#75D1AA"/>
<path d="M27.3998 91.2018C26.8998 91.3018 26.5998 91.2018 26.2998 90.7018C27.0998 90.1018 27.1998 90.9018 27.3998 91.2018Z" fill="#97DBBD"/>
<path d="M14.7 29.6016C14.9 29.6016 15.1 29.6016 15.3 29.6016C15.3 29.7016 15.2 29.8016 15.2 29.8016C14.8 30.1016 14.5 30.5016 14 30.3016C14.1 30.0016 14.4 29.8016 14.7 29.6016Z" fill="#C5E5D1"/>
<path d="M47.3001 25.7C47.2001 25.6 47.1001 25.5 47.1001 25.4C47.4001 25.1 47.7001 25 48.2001 25.1C48.0001 25.6 47.7001 25.6 47.3001 25.7Z" fill="#08C28A"/>
<path d="M83.6 60.3008C83.5 61.0008 83 61.1008 82.5 61.3008C82.6 60.7008 83 60.4008 83.6 60.3008Z" fill="#32BF88"/>
<path d="M14.7002 38.3016C14.7002 38.2016 14.7002 38.2016 14.7002 38.1016C14.9002 37.8016 15.1002 37.5016 15.6002 37.6016C15.5002 38.2016 15.0002 38.2016 14.7002 38.3016Z" fill="#43B980"/>
<path d="M19.4002 79.8008C19.5002 79.8008 19.6002 79.8008 19.6002 79.8008C19.7002 80.0008 19.8002 80.2008 19.9002 80.3008C19.8002 80.7008 19.4002 80.8008 19.1002 81.1008C18.9002 81.2008 18.8002 81.0008 18.7002 80.8008C18.7002 80.3008 19.1002 80.0008 19.4002 79.8008Z" fill="#24BA8B"/>
<path d="M4.09998 37.3016C4.39998 37.4016 4.69998 37.3016 4.99998 37.1016C4.89998 37.7016 4.59998 37.8016 4.09998 37.8016C3.89998 37.7016 3.79998 37.5016 4.09998 37.3016Z" fill="#90CDA4"/>
<path d="M86.9998 21.6986C86.7998 21.9986 86.7998 22.2986 86.2998 22.3986C86.3998 22.0986 86.3998 21.7986 86.4998 21.4986C86.7998 21.2986 86.9998 21.2986 86.9998 21.6986Z" fill="#37B97F"/>
<path d="M1.6001 57.0988C1.4001 56.9988 1.2001 56.8988 1.1001 56.8988C1.2001 56.6988 1.4001 56.5988 1.5001 56.3988C1.7001 56.3988 1.9001 56.2988 2.0001 56.5988C2.0001 56.7988 1.7001 56.8988 1.6001 57.0988Z" fill="#CFE9D7"/>
<path d="M2 60.8008C2.2 61.2008 2.7 61.2008 3.1 61.3008C2.4 61.6008 1.9 61.4008 1.5 60.8008C1.7 60.8008 1.8 60.8008 2 60.8008Z" fill="#38C28D"/>
<path d="M86.9999 21.6992C86.7999 21.5992 86.6999 21.4992 86.4999 21.3992C86.3999 21.0992 86.5999 20.8992 86.6999 20.6992C86.7999 20.6992 86.8999 20.6992 86.8999 20.6992C87.2999 20.7992 87.4999 20.9992 87.3999 21.3992C87.2999 21.4992 87.0999 21.5992 86.9999 21.6992Z" fill="#B9E2CB"/>
<path d="M4.1 37.3C4.1 37.5 4 37.7 4 37.8C3.8 37.6 3.6 37.5 3.5 37.3C3.6 36.9 3.8 36.6 4.3 36.5C4.2 36.8 4.1 37.1 4.1 37.3Z" fill="#3EC491"/>
<path d="M20.2 34.9016C20.1 34.9016 20 34.9016 20 34.9016C20.2 34.5016 20.6 34.3016 21.1 34.1016C20.9 34.7016 20.5 34.7016 20.2 34.9016Z" fill="#22BD83"/>
<path d="M49.8001 25.1016C49.7001 25.4016 49.4001 25.7016 49.3001 25.5016C48.9001 25.2016 49.3001 25.2016 49.5001 25.1016C49.6001 25.1016 49.7001 25.1016 49.8001 25.1016Z" fill="#08C28A"/>
<path d="M17.8999 19.1992C17.5999 19.3992 17.1999 19.4992 16.8999 19.6992C17.1999 19.1992 17.5999 18.7992 18.1999 18.6992C18.0999 18.8992 17.9999 18.9992 17.8999 19.1992Z" fill="#1CBD82"/>
<path d="M8.1999 74.8017C7.8999 74.9017 7.6999 75.0017 7.3999 75.1017C7.1999 75.1017 6.9999 75.1017 6.8999 75.1017C7.2999 74.7017 7.5999 73.9017 8.1999 74.8017Z" fill="#8BCCA3"/>
<path d="M36.8999 6.99872C37.2999 6.69872 37.3999 5.89872 38.0999 6.49872C37.6999 6.59872 37.2999 6.79872 36.8999 6.99872Z" fill="#1ABD83"/>
<path d="M27.6002 17.5C27.5002 17.6 27.4002 17.9 27.1002 17.8C26.9002 17.7 27.0002 17.5 27.2002 17.4C27.4002 17.2 27.7002 17.1 27.9002 17C28.0002 17.2 27.8002 17.4 27.6002 17.5Z" fill="#0DC189"/>
<path d="M49.1001 9.69922C49.3001 9.69922 49.4001 9.79922 49.6001 9.79922C49.4001 9.89922 49.3001 9.99922 49.1001 10.0992C48.9001 10.1992 48.7001 10.2992 48.6001 9.99922C48.6001 9.79922 48.9001 9.69922 49.1001 9.69922Z" fill="#3DBB82"/>
<path d="M22.4 21.1992C22.5 21.2992 22.6 21.3992 22.7 21.4992C22.6 21.8992 22.3 21.9992 22 22.1992C22 21.7992 22.1 21.4992 22.4 21.1992Z" fill="#05C289"/>
<path d="M25.7998 33C25.8998 32.7 25.9998 32.6 26.2998 32.5C26.3998 33 25.9998 33 25.7998 33Z" fill="#19BF85"/>
<path d="M51.4001 77.4987C51.3001 77.8987 51.1001 78.2987 50.6001 77.8987C50.7001 77.5987 51.0001 77.3987 51.4001 77.4987Z" fill="#BBDDC2"/>
<path d="M86.0999 23.7984C85.8999 23.7984 85.8999 23.6984 85.8999 23.4984C85.8999 23.3984 85.9999 23.3984 86.0999 23.3984C86.1999 23.3984 86.2999 23.3984 86.2999 23.5984C86.2999 23.5984 86.0999 23.6984 86.0999 23.7984Z" fill="#0DBF86"/>
<path d="M20.3999 77.4981C20.3999 77.2981 20.3999 77.1981 20.4999 76.9981C20.6999 77.1981 21.4999 76.3981 21.1999 77.3981C20.9999 77.4981 20.6999 77.4981 20.3999 77.4981Z" fill="#D7ECE2"/>
<path d="M39.8999 7.99844C39.9999 7.69844 40.1999 7.39844 40.5999 7.39844C40.5999 7.89844 40.0999 7.79844 39.8999 7.99844Z" fill="#20BF85"/>
<path d="M22.2999 35.8984C22.0999 36.3984 21.7999 36.4984 21.3999 36.5984C21.4999 36.0984 21.6999 35.8984 22.2999 35.8984Z" fill="#F5F9F4"/>
<path d="M20.3999 25.1992C20.4999 25.2992 20.5999 25.3992 20.5999 25.4992C20.3999 25.5992 20.1999 25.8992 19.8999 25.7992C19.8999 25.2992 20.1999 25.2992 20.3999 25.1992Z" fill="#18BD83"/>
<path d="M80.5002 42.6016C80.5002 42.7016 80.5002 42.8016 80.5002 43.0016C80.3002 43.3016 80.1002 43.5016 79.7002 43.7016C79.8002 43.1016 80.1002 42.8016 80.5002 42.6016Z" fill="#39C999"/>
<path d="M18.7 35.6016C18.8 35.7016 18.9 35.8016 19 35.9016C18.7 36.1016 18.3 36.2016 18 36.4016C18 36.3016 18 36.2016 18 36.2016C18.2 36.0016 18.4 35.8016 18.7 35.6016Z" fill="#2BBD83"/>
<path d="M85.7002 17.1992C85.7002 17.3992 85.7002 17.4992 85.7002 17.6992C85.4002 17.5992 85.0002 17.7992 84.7002 17.3992C85.1002 17.2992 85.4002 17.2992 85.7002 17.1992Z" fill="#95D3AF"/>
<path d="M21.8999 19.2009C21.6999 19.1009 21.5999 19.0009 21.3999 18.9009C21.3999 18.4009 21.5999 18.2009 22.1999 18.4009C22.1999 18.5009 22.1999 18.6009 22.1999 18.7009C22.0999 18.9009 21.9999 19.0009 21.8999 19.2009Z" fill="#1EBE85"/>
<path d="M23.8999 89.1008C23.0999 88.9008 23.5999 88.2008 23.3999 87.8008C23.7999 88.1008 23.6999 88.6008 23.8999 89.1008Z" fill="#30C491"/>
<path d="M75.2001 18.8984C75.3001 19.1984 75.5001 19.0984 75.7001 19.0984C75.5001 19.3984 75.1001 19.5984 74.8001 19.2984C74.7001 19.1984 75.0001 18.9984 75.2001 18.8984Z" fill="#8DD9B8"/>
<path d="M85.6998 34.4992C85.5998 34.4992 85.4998 34.5992 85.3998 34.5992C85.3998 34.4992 85.2998 34.3992 85.2998 34.3992C85.3998 34.2992 85.4998 34.2992 85.5998 34.1992C85.5998 34.2992 85.6998 34.3992 85.6998 34.4992Z" fill="#1BBF87"/>
<path d="M23.4 87.8C22.6 87.5 23 87 23.2 86.5C23.2 86.9 23.3 87.3 23.4 87.8Z" fill="#31C48F"/>
<path d="M22.1999 19.8984C22.1999 19.7984 22.1999 19.6984 22.1999 19.5984C22.2999 19.4984 22.3999 19.3984 22.4999 19.3984C22.5999 19.6984 22.6999 19.7984 22.9999 19.8984C22.7999 20.0984 22.4999 20.2984 22.2999 20.3984C21.9999 20.2984 21.9999 20.0984 22.1999 19.8984Z" fill="#45BA81"/>
<path d="M21.8999 78.5014C21.8999 78.4014 21.8999 78.3014 21.8999 78.2014C22.1999 77.9014 22.4999 77.6014 22.8999 78.0014C22.3999 77.8014 22.2999 78.3014 21.8999 78.5014Z" fill="#26C08A"/>
<path d="M11.3999 45.3C11.6999 45 11.9999 44.6 12.3999 44.5C12.1999 45 11.8999 45.3 11.3999 45.3Z" fill="#0CC28A"/>
<path d="M58.3002 12.0985C58.1002 12.1985 58.0002 12.1985 57.9002 12.2985C57.8002 12.2985 57.8002 12.1985 57.7002 12.1985C57.8002 12.0985 57.8002 11.9985 57.9002 11.9985C58.0002 11.8985 58.1002 11.9985 58.3002 12.0985Z" fill="#0BC087"/>
<path d="M49.6001 0.999219C49.8001 0.899219 50.1001 0.799219 50.3001 0.699219C50.3001 1.39922 49.9001 1.09922 49.6001 0.999219Z" fill="#C6E3CD"/>
<path d="M23.8999 20.4992C23.8999 20.3992 23.8999 20.2992 23.8999 20.1992C24.0999 19.8992 24.2999 19.7992 24.6999 19.6992C24.5999 20.0992 24.2999 20.2992 23.8999 20.4992Z" fill="#3ABA80"/>
<path d="M34.3999 11.5992C34.1999 11.5992 34.0999 11.5992 34.1999 11.3992C34.1999 11.2992 34.3999 11.1992 34.4999 11.1992C34.5999 11.1992 34.6999 11.1992 34.6999 11.3992C34.5999 11.3992 34.4999 11.4992 34.3999 11.5992Z" fill="#0EBF86"/>
<path d="M67.0002 54.8016C66.8002 55.0016 66.6002 55.3016 66.2002 55.2016C66.2002 54.8016 66.5002 54.7016 66.8002 54.6016C66.9002 54.6016 67.0002 54.7016 67.0002 54.8016Z" fill="#C4E6D3"/>
<path d="M59.2999 10.3992C59.1999 10.4992 59.1999 10.5992 59.0999 10.6992C58.9999 10.5992 58.9999 10.4992 58.8999 10.3992C58.8999 10.3992 58.9999 10.2992 58.9999 10.1992C59.0999 10.1992 59.1999 10.2992 59.2999 10.3992Z" fill="#3BC089"/>
<path d="M23.8001 22.0016C23.7001 21.9016 23.7001 21.9016 23.6001 21.8016C23.7001 21.7016 23.8001 21.6016 24.0001 21.6016L24.1001 21.7016C24.0001 21.8016 23.9001 21.9016 23.8001 22.0016Z" fill="#05C289"/>
<path d="M36.4001 6.00038C36.5001 6.00038 36.9001 5.90037 36.7001 6.20037C36.6001 6.40037 36.3001 6.40037 36.1001 6.20037C36.2001 6.10037 36.3001 6.10038 36.4001 6.00038Z" fill="#12BE84"/>
<path d="M88.7998 51.6008C88.7998 51.3008 88.7998 51.0008 88.9998 50.8008C89.1998 51.1008 89.2998 51.5008 88.9998 51.8008C88.8998 51.8008 88.7998 51.7008 88.7998 51.6008Z" fill="#48C797"/>
<path d="M55.6001 81.0985C55.5001 81.1985 55.4001 81.2985 55.2001 81.3985L55.1001 81.2985C55.2001 81.1985 55.3001 81.0985 55.4001 80.9985C55.4001 80.8985 55.5001 80.9985 55.6001 81.0985Z" fill="#12C088"/>
<path d="M31.4 8.7C31.4 8.8 31.4 8.9 31.4 8.9C31.2 8.9 31.1 8.9 30.9 8.9C30.6 8.9 30.3 8.8 30.4 8.4C30.6 8.3 30.7 8.2 30.9 8C31 8.4 31.2 8.5 31.4 8.7Z" fill="#10C38C"/>
<path d="M51.6001 22.9016C51.3001 23.2016 51.0001 23.4016 50.6001 23.4016C50.8001 23.1016 51.0001 22.8016 51.3001 22.6016C51.4001 22.7016 51.5001 22.8016 51.6001 22.9016Z" fill="#ADE0C7"/>
<path d="M22.2 52.1H22.1H22C22.2 51.8 22.3 51.6 22.7 51.5C22.7 51.9 22.4 51.9 22.2 52.1Z" fill="#2DBD84"/>
<path d="M67.3999 53.7C67.2999 53.8 67.1999 53.8 67.0999 53.9C67.0999 53.9 66.9999 53.8 66.8999 53.8C66.9999 53.7 66.9999 53.6 67.0999 53.5C67.0999 53.5 67.1999 53.5 67.3999 53.7Z" fill="#40C38F"/>
<path d="M23.7001 50.9C23.7001 50.8 23.6001 50.7 23.6001 50.7C23.6001 50.6 23.7001 50.6 23.8001 50.5C23.8001 50.5 23.9001 50.6 24.0001 50.6C23.8001 50.7 23.8001 50.8 23.7001 50.9Z" fill="#1DBE83"/>
<path d="M27.6001 17.5C27.7001 17.3 27.8001 17.2 27.9001 17C28.0001 17 28.2001 17.1 28.2001 17.3C28.1001 17.5 27.9001 17.6 27.6001 17.5Z" fill="#2DBB81"/>
<path d="M66.9998 54.8016C66.8998 54.7016 66.8998 54.7016 66.7998 54.6016C66.9998 54.4016 67.2998 54.2016 67.4998 54.1016C67.4998 54.2016 67.4998 54.3016 67.4998 54.5016C67.3998 54.5016 67.1998 54.7016 66.9998 54.8016Z" fill="#EEF7F1"/>
<path d="M82.1001 46.8019C82.5001 46.5019 83.0001 46.6019 83.4001 46.6019C83.1001 46.9019 82.6001 46.9019 82.1001 46.8019Z" fill="#15C28A"/>
<path d="M53.3 78.6992C53.4 78.6992 53.5 78.6992 53.5 78.6992C53.5 78.9992 53.5 79.1992 53.3 79.4992C53.1 79.2992 53.2 78.9992 53.3 78.6992Z" fill="#22BD83"/>
<path d="M22.1002 23.0008C22.0002 23.1008 21.9002 23.2008 21.8002 23.2008C21.8002 23.1008 21.7002 23.1008 21.7002 23.0008C21.7002 22.9008 21.8002 22.9008 21.9002 22.8008C21.9002 22.9008 22.0002 23.0008 22.1002 23.0008Z" fill="#05C289"/>
<path d="M74 14.6992C74.3 14.6992 74.4 14.8992 74.5 15.1992C74.3 15.2992 74.2 15.4992 74 15.3992C73.8 15.1992 74 14.8992 74 14.6992Z" fill="#B5DCC1"/>
<path d="M64.8 16.199C64.7 16.199 64.6 16.199 64.5 16.199C64.7 16.099 64.9 15.699 65.2 15.899C65.3 16.099 65 16.099 64.8 16.199Z" fill="#16BE84"/>
<path d="M18.4001 79.1992C18.5001 79.1992 18.6001 79.1992 18.6001 79.1992C18.7001 79.3992 18.8001 79.4992 18.9001 79.6992C19.2001 80.0992 18.9001 80.2992 18.8001 80.5992C18.6001 81.2992 17.9001 81.8992 17.9001 82.6992C17.9001 82.8992 17.7001 82.8992 17.5001 82.8992C17.0001 83.0992 17.0001 84.3992 16.2001 83.5992C15.4001 82.8992 15.7001 81.6992 16.5001 80.9992C16.8001 80.7992 17.2001 80.8992 17.3001 80.5992C17.7001 80.1992 18.0001 79.5992 18.4001 79.1992Z" fill="#1BBA89"/>
<path d="M53.5998 83.4992C53.6998 83.4992 53.8998 83.3992 53.9998 83.3992C54.1998 83.5992 54.1998 83.6992 54.1998 83.9992C53.6998 84.6992 52.8998 84.1992 52.2998 84.4992C51.5998 84.0992 51.4998 83.3992 51.2998 82.6992C51.4998 82.6992 51.5998 82.6992 51.7998 82.7992C52.3998 82.9992 52.7998 83.8992 53.5998 83.4992Z" fill="#9EC99F"/>
<path d="M17.9002 82.8016C17.4002 81.9016 18.2002 81.3016 18.6002 80.7016C18.7002 80.6016 18.8001 80.7016 18.8001 80.8016C18.9001 80.9016 19.0002 81.0016 19.1002 81.1016C18.8002 81.6016 18.4002 82.2016 17.9002 82.8016Z" fill="#97C4AE"/>
<path d="M18.3999 79.1992C18.1999 79.7992 17.9999 80.3992 17.3999 80.6992C17.2999 79.9992 17.4999 79.2992 18.3999 79.1992Z" fill="#64B797"/>
<path d="M57.8 81.7999C57.9 81.9999 57.9 82.1999 58 82.4999C57.8 82.6999 57.5 82.9999 57.1 82.9999C57 83.0999 56.8 83.0999 56.7 82.9999C56.6 82.7999 56.5 82.5999 56.6 82.3999C56.9 81.9999 57.1 81.3999 57.8 81.7999Z" fill="#36BE86"/>
<path d="M58.9998 82C59.0998 82.3 59.3998 82.2 59.5998 82.3C59.1998 82.8 58.7998 83.2 58.2998 82.5C58.3998 82.2 58.6998 82.1 58.9998 82Z" fill="#CAE4D0"/>
<path d="M54.2998 84.3016C54.4998 84.7016 54.2998 84.9016 53.8998 85.0016C53.5998 85.0016 53.1998 85.1016 53.2998 84.5016C53.3998 84.3016 53.6998 84.2016 53.8998 84.1016C53.9998 84.1016 54.0998 84.1016 54.1998 84.1016C54.2998 84.2016 54.2998 84.2016 54.2998 84.3016Z" fill="#CBDDC4"/>
<path d="M56.3002 83.7985C55.8002 84.3985 55.7002 83.6985 55.4002 83.4985C55.3002 83.4985 55.3002 83.3985 55.2002 83.3985C55.2002 83.2985 55.2002 83.1985 55.4002 83.0985C55.6002 82.9985 55.9002 82.8985 56.1002 82.9985C56.3002 83.0985 56.4002 83.1985 56.4002 83.3985C56.5002 83.5985 56.4002 83.6985 56.3002 83.7985Z" fill="#CFE1CB"/>
<path d="M54.0998 84.1984C53.7998 84.2984 53.5998 84.3984 53.2998 84.3984C52.9998 84.3984 52.5998 84.3984 52.2998 84.3984C52.8998 84.0984 53.3998 83.8984 54.0998 83.8984C54.0998 83.9984 54.1998 84.0984 54.0998 84.1984Z" fill="#DAE7D4"/>
<path d="M55.3998 83.4982C55.2998 84.1982 54.8998 84.2983 54.2998 84.2983L54.3998 84.1982C54.1998 83.2982 54.6998 83.2982 55.2998 83.4982H55.3998Z" fill="#83C08E"/>
<path d="M87.5 21.3999C87.3 21.1999 87.2 20.8999 87 20.6999C87.1 20.5999 87.2 20.4999 87.2 20.4999C87.4 20.3999 87.6 20.5999 87.7 20.6999C87.7 20.9999 87.8 21.1999 87.5 21.3999Z" fill="#95CDA5"/>
<path d="M87.7002 20.7C87.5002 20.7 87.3002 20.7 87.2002 20.5C87.3002 20.3 87.4002 20.1 87.6002 20C87.8002 20.2 87.8002 20.4 87.7002 20.7Z" fill="#33BB81"/>
<path d="M56.2998 83.7995C56.2998 83.6995 56.2998 83.5995 56.2998 83.4995C56.3998 83.2995 56.2998 82.7995 56.7998 82.9995C56.8998 82.9995 56.9998 82.9995 57.0998 82.9995C57.0998 83.4995 56.6998 83.6995 56.2998 83.7995Z" fill="#93C89C"/>
<path d="M75.1999 13.9992C74.8999 13.8992 74.5999 14.2992 74.3999 13.9992C74.4999 13.8992 74.5999 13.7992 74.6999 13.6992C74.8999 13.7992 74.9999 13.8992 75.1999 13.9992Z" fill="#E0EBDC"/>
<path d="M55.4002 74.6982C55.6002 74.5982 55.7002 74.2982 55.9002 74.6982C55.7002 74.8982 55.6002 74.9982 55.4002 75.1982C55.3002 75.0982 55.3002 74.8982 55.4002 74.6982Z" fill="#CDE5D1"/>
<path d="M12.7001 27.5984C12.5001 27.5984 12.4001 27.5984 12.2001 27.6984C11.9001 27.3984 12.0001 27.1984 12.2001 26.8984C12.4001 26.7984 12.5001 26.7984 12.7001 26.6984C13.0001 26.3984 13.3001 26.0984 13.7001 25.6984C13.9001 25.1984 14.0001 24.6984 14.5001 24.4984C14.9001 24.3984 15.1001 24.0984 15.3001 23.7984C15.4001 23.5984 15.5001 23.3984 15.6001 23.1984C15.8001 22.9984 16.1001 22.7984 16.4001 22.5984C16.5001 22.5984 16.6001 22.4984 16.7001 22.4984C16.9001 22.3984 17.0001 22.3984 17.2001 22.3984C17.4001 22.3984 17.6001 22.4984 17.7001 22.5984C17.8001 22.7984 17.8001 22.8984 17.8001 23.0984C17.5001 23.5984 17.2001 23.8984 17.1001 24.4984C16.8001 24.9984 16.3001 25.2984 16.1001 25.7984C15.9001 26.2984 15.4001 26.3984 15.0001 26.6984C14.4001 27.1984 13.6001 27.5984 12.7001 27.5984Z" fill="#0CC38B"/>
<path d="M15.2002 22.1987C14.9002 22.4987 14.5002 22.8987 14.2002 23.1987C14.0002 23.5987 13.6002 23.7987 13.3002 24.1987C13.2002 24.2987 13.2002 24.3987 13.1002 24.4987C13.0002 24.5987 12.9002 24.6987 12.7002 24.7987C12.2002 25.0987 11.8002 25.4987 11.3002 25.7987C10.8002 26.0987 10.5002 26.5987 9.7002 26.4987C9.8002 25.1987 11.2002 24.8987 11.7002 23.8987C11.8002 23.3987 12.4002 23.2987 12.6002 22.7987C12.9002 22.3987 13.2002 22.1987 13.7002 22.1987C14.0002 22.0987 14.2002 21.9987 14.5002 21.8987C15.0002 21.3987 15.4002 21.3987 15.2002 22.1987Z" fill="#3ABD85"/>
<path d="M16.6999 22.8984C16.4999 23.1984 16.2999 23.3984 15.9999 23.3984C15.5999 23.5984 15.3999 23.9984 14.9999 24.1984C14.8999 24.1984 14.7999 24.1984 14.6999 24.0984C14.5999 23.8984 14.4999 23.7984 14.4999 23.5984C14.3999 23.4984 14.3999 23.4984 14.3999 23.4984L14.4999 23.3984C15.4999 22.6984 16.3999 21.8984 17.3999 21.3984C17.7999 21.6984 17.5999 21.9984 17.3999 22.2984C17.2999 22.3984 17.1999 22.3984 17.0999 22.4984C16.9999 22.6984 16.7999 22.7984 16.6999 22.8984Z" fill="#E4F2E8"/>
<path d="M13.7 22.0016C13.5 22.4016 13.1 22.7016 12.7 22.7016C12.6 22.8016 12.5 22.7016 12.5 22.7016C12.8 21.8016 13.5 21.1016 14.3 20.6016C14.1 21.1016 13.3 21.3016 13.7 22.0016Z" fill="#2FC089"/>
<path d="M12.7002 27.5984C13.5002 27.2984 14.3002 26.8984 14.9002 26.3984C15.0002 26.4984 15.1002 26.5984 15.1002 26.6984C15.1002 26.9984 14.8002 27.1984 14.7002 27.4984C14.0002 27.0984 13.5002 28.1984 12.7002 27.5984Z" fill="#30C088"/>
<path d="M14.6998 24.6992C14.3998 24.9992 14.2998 25.5992 13.6998 25.6992C13.2998 24.8992 13.7998 24.4992 14.4998 24.1992C14.6998 24.2992 14.8998 24.3992 14.6998 24.6992Z" fill="#C8E2CB"/>
<path d="M14.5001 23.3992C14.5001 23.4992 14.5001 23.4992 14.5001 23.5992C14.1001 23.8992 13.7001 24.0992 13.3001 24.3992C13.2001 24.3992 13.1001 24.2992 13.1001 24.1992C13.4001 23.6992 13.7001 23.2992 14.3001 23.1992C14.3001 23.1992 14.4001 23.2992 14.5001 23.3992Z" fill="#08C189"/>
<path d="M28.6999 10.4992C28.2999 10.7992 27.9999 11.1992 27.3999 11.1992C27.5999 10.7992 27.7999 10.3992 28.1999 10.1992C28.4999 9.99917 28.6999 9.99917 28.6999 10.4992Z" fill="#60C492"/>
<path d="M12.4999 27.0012C12.3999 27.2012 12.2999 27.5012 12.1999 27.7012C11.6999 28.0012 11.4999 27.9012 11.3999 27.2012C11.7999 27.1012 11.9999 26.5012 12.4999 27.0012Z" fill="#30C088"/>
<path d="M30.3999 8.5C30.5999 8.7 30.6999 8.8 30.8999 9C30.4999 9.5 30.1999 9.4 29.8999 8.9C29.9999 8.7 30.0999 8.5 30.3999 8.5Z" fill="#1CBF87"/>
<path d="M19.2 16.8984C19.1 17.5984 18.7 17.8984 18 17.6984C18.2 17.1984 18.6 16.9984 19.2 16.8984Z" fill="#A2CFAA"/>
<path d="M28.7002 10.5C28.5002 10.4 28.4002 10.3 28.2002 10.2C28.4002 9.8 28.8002 9.7 29.2002 9.5C29.6002 9.9 29.1002 10.2 29.0002 10.5C28.8002 10.5 28.7002 10.5 28.7002 10.5Z" fill="#58C28E"/>
<path d="M12.4002 22.6992C12.5002 22.6992 12.6002 22.6992 12.6002 22.6992C12.6002 23.2992 12.0002 23.3992 11.7002 23.6992C11.7002 23.1992 12.0002 22.8992 12.4002 22.6992Z" fill="#D2E9D8"/>
<path d="M14.7 24.701C14.6 24.501 14.5 24.401 14.5 24.201C14.6 24.201 14.6 24.101 14.7 24.101C14.8 24.101 14.9 24.101 15 24.101C15.2 23.701 15.4 23.601 15.8 23.901C15.6 24.401 15.2 24.701 14.7 24.701Z" fill="#BBE0C7"/>
<path d="M12.4999 26.9989C12.0999 27.0989 11.7999 27.0989 11.3999 27.1989C11.6999 26.6989 12.1999 26.5989 12.7999 26.6989C12.6999 26.7989 12.5999 26.8989 12.4999 26.9989Z" fill="#64C08D"/>
<path d="M12.9999 24.1992C13.0999 24.2992 13.0999 24.3992 13.1999 24.3992C13.0999 24.4992 12.9999 24.4992 12.8999 24.5992V24.4992C12.9999 24.3992 12.9999 24.2992 12.9999 24.1992Z" fill="#1BBE86"/>
<path d="M12.9998 24.5V24.6C12.8998 24.6 12.7998 24.6 12.7998 24.6C12.7998 24.6 12.8998 24.5 12.9998 24.5Z" fill="#1ABF87"/>
<path d="M22.2001 19.8984C22.2001 20.0984 22.2001 20.2984 22.2001 20.3984C21.5001 21.2984 20.5001 21.7984 19.7001 22.5984C19.5001 22.6984 19.3001 22.5984 19.2001 22.3984C19.1001 22.1984 19.1001 21.9984 19.1001 21.7984C19.2001 21.5984 19.3001 21.4984 19.4001 21.2984C19.9001 20.9984 20.5001 20.5984 21.1001 20.4984C21.4001 20.2984 21.8001 20.0984 22.2001 19.8984Z" fill="#42BB82"/>
<path d="M19.3999 22.499C19.4999 22.599 19.5999 22.599 19.6999 22.699C19.3999 22.999 18.9999 23.399 18.6999 23.699C18.3999 23.799 18.0999 23.899 17.6999 23.999C17.5999 24.399 17.4999 24.799 16.8999 24.499C16.9999 23.999 17.1999 23.599 17.5999 23.199C17.9999 23.099 17.9999 22.699 18.3999 22.499C18.7999 22.399 19.0999 22.099 19.3999 22.499Z" fill="#24BF86"/>
<path d="M21.1999 22.7008C20.8999 22.9008 20.6999 23.2008 20.3999 23.4008C20.1999 23.4008 20.0999 23.4008 19.8999 23.4008C20.2999 22.8008 20.6999 22.4008 21.5999 21.8008C21.3999 22.3008 21.2999 22.5008 21.1999 22.7008Z" fill="#31BB81"/>
<path d="M15.1999 22.2C14.9999 21.9 14.7999 21.6 14.3999 21.7C14.8999 21.2 15.4999 20.8 16.0999 20.5C16.2999 20.9 16.6999 20.8 17.0999 20.8C16.5999 21.3 15.9999 21.9 15.1999 22.2Z" fill="#1EBE85"/>
<path d="M16.8998 24.3984C17.1998 24.1984 17.3998 24.0984 17.6998 23.8984C17.8998 24.2984 18.7998 23.7984 18.5998 24.5984C18.2998 24.6984 18.0998 24.7984 17.7998 24.7984C17.3998 24.7984 17.0998 25.0984 16.7998 25.2984C16.4998 25.4984 16.2998 25.7984 15.8998 25.5984C15.6998 24.7984 16.5998 24.8984 16.8998 24.3984Z" fill="#22BC81"/>
<path d="M16 25.7C16.3 25.5 16.5 25.4 16.8 25.2C17.1 25 17.2 25.2 17.3 25.4C16.6 25.7 16.5 26.6 15.7 26.8C15.5 26.8 15.2 26.9 15 26.7C15 26.6 15 26.5 15 26.4C15.3 26.2 15.6 25.9 16 25.7Z" fill="#79C190"/>
<path d="M17.2002 25.4016C17.0002 25.3016 16.9002 25.3016 16.7002 25.2016C17.0002 24.9016 17.4002 24.6016 17.9002 24.9016C17.7002 25.1016 17.4002 25.2016 17.2002 25.4016Z" fill="#48BA80"/>
<path d="M14.9001 26.7008C15.1001 26.7008 15.4001 26.6008 15.6001 26.8008C15.3001 27.0008 15.0001 27.2008 14.7001 27.4008C14.6001 27.1008 14.8001 26.9008 14.9001 26.7008Z" fill="#D1E9D8"/>
<path d="M22.1999 18.4C21.8999 18.5 21.5999 18.7 21.3999 18.9C20.9999 19.2 20.6999 19.5 20.3999 19.9C20.0999 20.8 19.2999 21 18.5999 21.5C18.2999 21.7 18.0999 21.5 17.8999 21.2C18.0999 20.2 19.0999 20 19.6999 19.4C20.0999 19 20.5999 18.7 20.8999 18.2C21.2999 18 21.5999 17.5 22.1999 17.5C22.1999 17.7 22.1999 18 22.1999 18.2C22.1999 18.3 22.1999 18.3 22.1999 18.4Z" fill="#5EBA82"/>
<path d="M17.8999 21.1984C18.5999 21.4984 18.7999 20.8984 19.1999 20.5984C19.5999 20.3984 19.7999 19.9984 20.2999 19.8984C20.3999 20.6984 19.9999 21.1984 19.2999 21.5984C18.8999 21.8984 18.4999 22.3984 17.8999 22.0984C17.6999 21.8984 17.5999 21.5984 17.7999 21.3984C17.8999 21.2984 17.8999 21.1984 17.8999 21.1984Z" fill="#1EBE85"/>
<path d="M17.9001 21.3984C18.0001 21.5984 18.0001 21.7984 18.1001 21.9984C18.4001 22.4984 18.0001 22.5984 17.7001 22.6984C17.5001 22.6984 17.4001 22.6984 17.2001 22.6984L17.1001 22.5984L17.2001 22.4984C17.3001 22.1984 17.4001 21.8984 17.4001 21.4984C17.6001 21.3984 17.8001 21.3984 17.9001 21.3984Z" fill="#54C18D"/>
<path d="M56.0002 83.1984C55.8002 83.1984 55.5002 83.1984 55.3002 83.1984C55.2002 82.8984 55.5002 82.7984 55.5002 82.5984C55.8002 81.9984 56.6002 81.7984 57.0002 81.1984C57.3002 81.2984 58.0002 80.7984 57.7002 81.6984C57.3002 81.8984 57.0002 82.1984 56.6002 82.3984C56.6002 82.7984 56.4002 83.0984 56.0002 83.1984Z" fill="#82C698"/>
<path d="M55.5001 82.6016C55.4001 82.8016 55.3001 83.0016 55.3001 83.2016C55.3001 83.3016 55.3001 83.4016 55.3001 83.5016C54.9001 83.6016 54.5001 83.7016 54.4001 84.2016C54.3001 84.2016 54.2001 84.2016 54.1001 84.2016C54.1001 84.1016 54.1001 84.1016 54.1001 84.0016C54.1001 83.8016 54.1001 83.6016 54.1001 83.4016C54.5001 83.0016 54.9001 82.7016 55.5001 82.6016Z" fill="#B1D2B1"/>
<path d="M53.5998 83.4992C52.4998 84.3992 52.2998 83.2992 51.7998 82.6992C52.4998 82.6992 52.9998 83.2992 53.5998 83.4992Z" fill="#45BE87"/>
<path d="M18.9002 80.7992C18.8002 80.7992 18.7002 80.7992 18.7002 80.6992C18.8002 80.3992 18.9002 80.0992 19.0002 79.6992C19.2002 79.6992 19.3002 79.6992 19.5002 79.6992C19.4002 80.0992 19.2002 80.4992 18.9002 80.7992Z" fill="#40AA81"/>
<path d="M19.5 78.2C19.7 77.8 20 77.5 20.5 77.5C20.3 77.9 20 78.3 19.5 78.2Z" fill="#BFDCCF"/>
<path d="M19.3999 21.3984C19.6999 20.8984 20.0999 20.3984 20.3999 19.8984C20.5999 19.8984 20.6999 19.8984 20.8999 19.8984C20.7999 20.1984 20.5999 20.4984 21.0999 20.5984C20.5999 20.9984 20.1999 21.4984 19.5999 21.5984C19.3999 21.6984 19.3999 21.5984 19.3999 21.3984Z" fill="#31BC82"/>
<path d="M56 83.2C56.2 83 56.5 82.7 56.7 82.5C56.7 82.7 56.7 82.8 56.8 83C56.6 83.2 56.5 83.3 56.3 83.5C56.2 83.4 56.1 83.3 56 83.2Z" fill="#B4D8B9"/>
<path d="M19.4002 21.3984C19.5002 21.4984 19.6002 21.5984 19.6002 21.5984C19.5002 21.7984 19.5002 21.8984 19.4002 21.9984C19.1002 22.2984 19.0002 22.6984 18.7002 22.9984C18.4002 23.1984 18.1002 23.5984 17.7002 23.1984C17.7002 22.9984 17.7002 22.8984 17.7002 22.6984C17.8002 22.4984 18.0002 22.1984 18.1002 21.9984C18.5002 21.7984 19.0002 21.5984 19.4002 21.3984Z" fill="#24BE86"/>
<path d="M15.8 24.0011C15.5 24.1011 15.3 24.1011 15 24.2011C15.1 23.6011 15.4 23.4011 16 23.5011C15.9 23.6011 15.9 23.8011 15.8 24.0011Z" fill="#BDDABD"/>
<path d="M16.7002 22.8984C16.7002 22.6984 16.7002 22.4984 16.9002 22.3984C17.0002 22.3984 17.0002 22.4984 17.0002 22.5984C17.0002 22.6984 17.0002 22.7984 16.9002 22.7984C16.9002 22.8984 16.8002 22.8984 16.7002 22.8984Z" fill="#50BB83"/>
<path d="M17 22.9C17 22.8 17 22.7 17 22.7C17.1 22.6 17.2 22.6 17.2 22.7C17.1 22.8 17 22.8 17 22.9Z" fill="#97CDA5"/>
<path d="M17.2 22.6984C17.1 22.6984 17 22.6984 17 22.6984C17 22.5984 17 22.5984 17 22.4984C17.1 22.4984 17.2 22.4984 17.2 22.3984C17.2 22.4984 17.2 22.5984 17.2 22.6984Z" fill="#3BB87E"/>
<path d="M18.7002 22.8984C18.8002 22.3984 18.8002 21.9984 19.4002 21.8984C19.4002 22.0984 19.4002 22.2984 19.5002 22.3984C19.2002 22.5984 18.9002 22.7984 18.7002 22.8984Z" fill="#A4D0AB"/>
</svg>
