<svg xmlns="http://www.w3.org/2000/svg" width="814" height="249" fill="none" viewBox="0 0 814 249">
    <g clip-path="url(#prefix__clip0)">
        <path fill="#00C38B" d="M745.862 229.005c-2.6-1.2-3.3-3.5-4-6-.1-.5-.3-.7-.8-.9-1.2-.4-1.3-1.5-.4-2.4.5-.5.8-1 .8-1.7.1-1.2.9-2 1.8-2.7 2.9-2.4 6.2-2.5 9.6-1.5.5.1.9.4 1.1.9 0 .5.3.7.8.8 1.8 1.5 2.5 3.4 1.9 5.7 0 .2-.1.3-.1.5.3 2.9-1 5-3.2 6.8-.3.2-.5.5-.7.7-2.2-.2-4.5-.2-6.8-.2zM771.863 210.903c-.7.7-1.4 1.3-2 2-1.4 1.5-5 1.3-6.4-.3-1.3-1.5-1.3-2.8-.6-4.6.4-1.1.6-2 1.5-2.7 2.1-1.7 6-.6 6.9 1.9.1.3.4.6.6.9v2.8z"/>
        <path fill="#01C38B" d="M754.462 195.303c.2.3.4.5.5.8.2.5.2.9-.1 1.3-.1.3 0 .5.2.6 1.3.8 1.5 1.2.9 3-.6.7-.7.2-.8-.3-.1-.5.1-1-.1-1.5-.5.7-.6 1.4-.4 2.1 0 .3 0 .7-.1 1 0 .2-.1.3-.2.5-.1.1-.2.2-.4.2-.1.1-.3.1-.4.2-.6.5-1 1-1.4 1.6-.3.5-.8.8-1.4 1-.5.2-.6-.5-1-.5-.5-.4-1.1-.6-1.8-.6-.3 0-.6-.1-.9-.3-.3-.2-.6-.4-.5-.8.1-.4.5-.3.9-.2.3.1.6.1 1 .1s.9.1 1.2-.2c.3-.3.6-.3.8-.7 0-.2.1-.3.2-.5.1-.4.4-.6.7-.9.4-.3.2-.7.2-1 0-.6 0-1.1-.5-1.5-1.3-.2-1.6 0-1.5 1.2v.6c0 .1-.1.2-.2.3-.6.1-.7-.3-.8-.8-.1.5-.3.9-.8.8-.4 0-.9-.2-.9-.7 0-.5-.5-.5-.7-.8 0-.6 0-1.2-.3-1.8-.3-.4-.2-.8 0-1.3 2-2.2 4.8-3.1 7.7-1.5.2.3.6.3.9.6z"/>
        <path fill="#29C587" d="M754.462 201.302c-.6-.7-.3-1.4.1-2 .1-.2.3-.5.5-.7.6.6.5 1.3.4 1.9-.1.6 0 .7.5.5.1.4-.2.6-.4.8-.3 0-.4-.2-.6-.4-.2 0-.3 0-.5-.1z"/>
        <path fill="#75CE93" d="M745.262 204.805c-.3-.5-.199-1-.099-1.5.4-.3.6.1.9.2.4.4 1 .6 1.1 1.3-.3.5-.7.4-1.2.2-.3 0-.501-.1-.701-.2z"/>
        <path fill="#22C486" d="M750.062 205.203c.4-.1.3.6.7.5.1.1.1.1.1.2s-.1.1-.1.1c-1.1.6-1.9.1-2.7-.5-.1-.1-.1-.2 0-.3.7-.6 1.3.1 2 0z"/>
        <path fill="#21C68C" d="M754.962 201.305c.3.1.4.3.5.6v.2c-.3.3-.3.7-.5 1-.3.5-.6 1-1.2 1.1-.2-.2-.1-.5 0-.7.1-.3.4-.5.5-.7v-.4c.3-.4.3-1 .7-1.1z"/>
        <path fill="#32C689" d="M745.863 196.305c.1 1.1.8 2 .5 3.2.1.1.1.2 0 .3-.1.1-.2.1-.3-.1.1-.7-.2-1.3-.4-1.9-.2-.4-.2-1 .2-1.5z"/>
        <path fill="#33C689" d="M750.762 206.005v-.3c.4-.3.8-.7 1.2-1 .3-.2.6-.3.9-.1l.1.1c-.6.5-1.1 1.5-2.2 1.3z"/>
        <path fill="#97D8A7" d="M745.062 202.002c.4.1.7 0 .7-.5 0-.3 0-.7.5-.6.1.1.2.3.1.5 0 .2-.1.3-.1.5-.3 1.1-.3 1.1-1.1.9-.1-.2-.3-.5-.1-.8z"/>
        <path fill="#3AC687" d="M745.362 202.804c.9-.1.6-.8.7-1.3.4-.1.4.2.5.5.1.3 0 .6-.1.9-.1.3-.4.6-.6.8-.3-.1-.4-.5-.7-.5-.1 0-.1-.1-.1-.2-.1-.2 0-.3.3-.2z"/>
        <path fill="#6ECD92" d="M748.062 205.302v.3c-.9-.2-2.1.4-2.8-.7h.8c.4.5.9.1 1.3.1.3 0 .5 0 .7.3z"/>
        <path fill="#1AC68E" d="M755.062 198.002c-.4-.2-.9-.3-.3-.9.3-.3.1-.7.2-1 .7.6 0 1.3.1 1.9z"/>
        <path fill="#3EC688" d="M753.962 203.502c-.1.2-.1.4-.2.6 0 .1.001.1-.099.2-.5.3-.601 0-.601-.4 0-.3.3-.6.4-.8.1-.1.2-.2.3-.2.3.1.1.4.2.6z"/>
        <path fill="#47C687" d="M754.762 215.402c-.8.3-1.1 0-.8-.8.3.3.6.5.8.8z"/>
        <path fill="#83D196" d="M745.362 202.802c-.1.1-.2.1-.3.2-.4-.3-.3-.8-.2-1.2.1-.2.2.1.2.2.1.2.2.5.3.8z"/>
        <path fill="#33C689" d="M753.262 203.805c0 .3.1.5.5.5-.1.3-.4.4-.7.5l-.1-.1c-.2-.4-.3-.8.3-.9z"/>
        <path fill="#29C587" d="M754.962 203.004c0-.4 0-.8.5-1 0 .4-.2.7-.5 1z"/>
        <path fill="#1AC68E" d="M754.462 195.305c-.4-.1-.699-.2-.9-.5.301 0 .7.1.9.5z"/>
        <path fill="#13C388" d="M743.763 223.504c.3 0 .3.1.3.3 0 .1 0 .3-.1.3-.2.1-.3-.1-.3-.2-.1-.2 0-.4.1-.4z"/>
        <path fill="#13C387" d="M744.862 223.604c-.1.1-.1.3-.2.3-.2.1-.3-.1-.3-.2s.1-.2.2-.2.2.1.3.1z"/>
        <path fill="#1DC385" d="M756.462 219.702c0 .2 0 .6-.1.6-.3 0-.1-.2-.2-.4 0-.1 0-.2.1-.3.1 0 .2 0 .2.1z"/>
        <path fill="#11C489" d="M748.062 205.305c-.2 0-.5 0-.7-.1-.2-.1-.4-.2-.3-.5-.3-.5-.6-.9-1.2-1 0-.4 0-.7.5-.7.1-.1.3-.2.5-.2l1.2.3c.3.1.6.3.6.6-.6.1-1.2 0-1.9-.3.3.7.8 1 1.2 1 .8 0 1.5.2 2.1.8-.7.4-1.4-.2-2 .1z"/>
        <path fill="#28C68B" d="M749.362 200.802c.2.3.2.5-.3.4-.5 0-1 .3-1.5.2-.4-.1-.8-.2-1-.7l-.3-.9v-.3c.2.1.6-.7.7 0 .1.6.1 1.2.8 1.1.7-.1.5-.8.6-1.3 0-.1.1-.1.2-.2.5.5-.1 1.4.8 1.7zM751.262 198.603c-1.8-.5-1.6 1.1-1.9 2v-.6c-.3-1.5.4-2 1.9-1.4z"/>
        <path fill="#11C489" d="M753.262 203.802c-.3.2-.2.6-.3.9-.3 0-.599 0-.9.1.301-.7.801-1.3 1.5-1.7-.1.2-.2.4-.3.7z"/>
        <path fill="#ABE2BF" d="M748.663 203.705c-.2-.1-.4-.3-.601-.4.401-1 1.001-.5 1.601-.2 0 .1.099.1.099.2-.1.7-.699.4-1.099.4z"/>
        <path fill="#17C487" d="M750.562 197.604c.4 0 .8-.1 1.1.4-.5.1-1 .3-1.4-.1 0-.3 0-.4.3-.3z"/>
        <path fill="#50CC93" d="M749.263 202.503c.499.1 1-.2 1.5-.3v.5c-.201.3-.6.3-.9.4-.3 0-.4-.1-.6-.3-.1-.1-.1-.2 0-.3z"/>
        <path fill="#36C585" d="M754.962 201.305c-.2.4-.3.8-.8 1 0-.4.1-.7.3-1 .2 0 .4-.3.5 0z"/>
        <path fill="#84D7A7" d="M751.462 201.503c-.1-.4-.2-.9.2-1.3.1.5.7 1-.2 1.3z"/>
        <path fill="#0BC388" d="M750.562 197.603l-.2.2c-.2 0-.4-.1-.4-.3 0-.1.2-.3.3-.3.2-.1.2.2.3.4z"/>
        <path fill="#0FC387" d="M752.362 198.003c0-.1-.1-.1-.2-.2.1 0 .2-.1.3-.1.1 0 .1.1.2.2 0 .1-.2.1-.3.1z"/>
        <path fill="#ABE0BB" d="M748.962 194.602c.1 0 .201.1.201.2-.1.1-.201.2-.401.2 0 0-.099-.1-.2-.1 0-.2.2-.3.4-.3z"/>
        <path fill="#43C688" d="M747.062 204.703c.1.2.2.3.3.5-.4-.1-1.1.4-1.2-.4.3.2.6.2.9-.1z"/>
        <path fill="#9DDAAA" d="M746.562 200.703c.301.2.701.3 1 .5-.299.3.4.6 0 .8-.1.2-.099.3-.199.5-.4 0-.8-.1-1-.5 0-.2 0-.4-.301-.5l.301-.3c.1-.1.199-.3.199-.5z"/>
        <path fill="#2EC589" d="M746.362 202.004c.3.2.7.3 1 .5.1.1.1.2.1.3-.2.1-.4.1-.6.2h-.5v-1z"/>
        <path fill="#36C88E" d="M747.262 202.704v-.2h2v.2c-.6.2-1.3.4-2 0z"/>
        <path fill="#9CDAAC" d="M747.262 202.703h2c.2.1.4.2.5.3v.2c-.6 0-1.2-.6-1.7.1-.4-.1-.9 0-1.2-.3.2-.1.3-.2.4-.3z"/>
    </g>
    <path fill="#E5F5FB" fill-rule="evenodd" d="M439.868 33.093c11.515 24.774 3.001 53.099-19.018 63.265-22.017 10.165-49.202-1.677-60.717-26.451-11.517-24.774-3.002-53.099 19.017-63.265 22.018-10.165 49.202 1.677 60.718 26.451zM440.941 32.734c1.23.946 1.139-.813.942-2.414-.946-.13-1.926-.23-2.883-.32.71.884 1.293 1.821 1.941 2.734z" clip-rule="evenodd"/>
    <path fill="#E5F5FB" fill-rule="evenodd" d="M437 25.22l-2.168-1.17c-.729-.369-1.471-.712-2.193-1.05.9.598 1.827 1.202 2.698 1.87.472 1.781-.121 2-.936 1.712-.826-.285-1.842-1.106-2.401-1.468 1.767 2.055 2.599 2.129 3.224 1.628.617-.488.972-1.544 1.776-1.523zM430.943 20.255c-1.64-2.556-2.202-.634-1.836.718.57-.368 2.22.659 1.836-.718zM374 96c-.319-.8-.717-1.658-.49-1.906-.628-.262-.889-.083.49 1.906zM373.169 93.459c.2.05.417.102.662.177-.178-.093-.318-.182-.533-.272-.082.01-.082.066-.129.094z" clip-rule="evenodd"/>
    <mask id="prefix__a" width="98" height="104" x="355" y="2" maskUnits="userSpaceOnUse">
        <path fill="#fff" fill-rule="evenodd" d="M355 2.516h97.558v102.89H355V2.516z" clip-rule="evenodd"/>
    </mask>
    <g mask="url(#prefix__a)">
        <path fill="#E5F5FB" fill-rule="evenodd" d="M372.37 44.516c-.933-2.258-.151-3.46-.214-5.563.627-.28 1.272-.537 1.924-.773-.052-1.112-.342-1.439-.686-1.699-.35-.267-.758-.465-.975-1.389.403-.423.762-.992 1.028-1.647.316-.63.533-1.358.78-2.032.456-1.368.857-2.63 1.12-3.032.515-.098.655.217.707.605.057.395.048.882.195 1.126.633-2.442-.91-3.193.934-5.88l.41.233c1.274-3.803 4.3-7.356 8.184-9.902 3.905-2.596 8.501-4.185 13.088-5.24-.638-.047-.507-.42-.785-.75 5.01-.762 10.622-.182 15.933 1.112 5.347 1.268 10.383 3.198 15.243 4.514-2.553-1.81-5.714-4.688-9.503-6.766-1.873-1.059-3.895-1.856-5.863-2.323-1.979-.425-3.909-.5-5.59-.017-.509-.426-1.151-.63-1.821-.759-.67-.143-1.372-.153-2.029-.17-1.313-.073-2.438-.035-2.919-.949-4.601-.373-7.829.763-10.61 2.246-2.802 1.518-5.259 3.305-8.771 5.425-1.159.38-1.139-.648-1.878-1.141 1.772-1.485 3.699-2.838 5.773-3.978-1.414.334-2.817.76-4.205 1.263.311-.416.843-.795 1.446-1.185.598-.403 1.287-.77 1.942-1.12.644-.371 1.254-.72 1.712-1.063.454-.353.746-.732.75-1.146-2.791 1.922-6.481 3.771-9.711 6.222-3.214 2.428-5.921 5.386-6.772 8.163 1.892-1.674 3.777-4.222 6.248-5.928.699-.165 1.499-.467 2.179-.606.694-.122 1.243-.107 1.417.278-2.74 3.191-5.06 5.83-7.296 8.647-2.176 2.832-4.21 5.913-5.416 9.768-.601 1.92-1.561 4.455-2.405 4.583.085-1.385-.848-.59-.885-1.789-.131 1.528.621 1.807 1.139 2.193.542.393.87.87.28 2.827-.9-.366-1.796-.743-2.69-1.13 1.279 1.164.922 2.373.423 3.793-.487 1.405-1.102 3.055-.263 4.615-1.181 1.068-1.826-1.007-1.651-3.444-.752 2.712.922 3.063.839 5.187-.838-.682-1.596-1.395-2.395-2.145.564.625.799 1.187.846 1.715.058.528-.092 1.022-.34 1.494-.516.942-1.321 1.805-1.691 2.527.302.063.901-.255 1.428-.206.53.05.957.45 1.045 1.92-.187 1.294-.865.721-1.179 1.06.63.1 1.834 1.022 2.234 2.898-.744.502-1.45-1.061-2.278-1.076.119.748.319 1.409.395 2.039.077.632.061 1.228-.133 1.84 1.28 2.449 1.113-.431 2.347.924.241 1.995-.392 2.305-1.278 2.331-.878.03-1.997-.254-2.614.752-2.084-2.798-3.207-7.019-4.052-8.74.516 2.121 1.083 4.215 1.822 6.241-.507-.082-.678 1.085-.873 1.891-.193.8-.5 1.265-1.41-.325.401 3.347 1.662 6.887 3.39 10.107 1.718 3.232 3.894 6.152 5.961 8.561-.237-.916-.647-2-.036-2.159 2.196 2.381 1.045 2.721.84 3.687 1.987 1.555 3.114.365 4.974.696.461 1.14.904 1.993 1.332 2.678.419.696.791 1.254 1.167 1.78.372.53.706 1.07 1.061 1.736.369.653.733 1.458 1.174 2.54l.916-1.4c.658 1.441 1.479 1.8 2.37 2.058.898.266 1.788.523 2.781 1.804-.057.382-1.303.058-2.305-.248 2.573 1.225 1.287 2.698 3.999 3.686-.947.122-1.913.23-2.899.322 1.941 1.245 5.157 2.401 3.348 3.18 2.245.189 4.813 1.2 7.582 2.078 2.749.898 5.689 1.681 8.239 1.696l-.638 1.319c.739-.267 1.696-.315 2.752-.215 1.065.056 2.236.254 3.415.346.589.049 1.175.094 1.743.118.567.007 1.118-.02 1.628-.074 1.02-.093 1.884-.406 2.43-.929l.394.577c1.708-.686 3.343-1.476 4.896-2.336 2.245-.178 1.883 2.04 1.955 1.431 5.009-1.278 8.625-2.889 11.933-3.65-.025-.524.239-1.093.694-1.68.45-.597 1.066-1.257 1.798-1.9 1.426-1.345 3.229-2.785 4.705-4.196 3.997-2.86 7.408-6.692 9.991-10.988 1.278-2.159 2.372-4.424 3.245-6.76.855-2.344 1.509-4.742 1.971-7.154.439-2.418.673-4.846.745-7.245.043-2.402-.094-4.772-.377-7.081-.624-4.618-1.831-8.984-3.527-12.909-.365-1.216-1.367-2.49-2.503-3.723l-1.797-1.816c-.62-.589-1.212-1.172-1.723-1.76.259.89.516 1.545.781 2.09.256.545.493.987.761 1.418.54.859 1.084 1.725 1.632 3.459.142 1.383-.212 2.435-.725 3.437-.481.996-1.12 1.943-1.526 3.121.464-.457.926-.925 1.385-1.407.993 1.614.849 2.282.749 2.814-.096.542-.158.956.787 2.282l-2.621.132c.357.203.573.515.685.883.094.369.083.793.01 1.218-.129.851-.586 1.698-.918 2.18.604.287 1.218.587 1.817.897-1.047 2.168-1.62 3.5-3.308 3.949l1.674-.026c-.563.344-.769 2.35-1.252 3.885-.525 1.535-1.172 2.543-2.276 1.047.249.646.912 1.378.385 2.573l-1.641-.303c-.098 1.825-.596 3.822-1.658 3.9.026-1.021-.539-1.581-1.117-2.127-.707 1.61-.871 2.587-.689 3.323.194.742.716 1.213 1.264 1.669.548.46 1.121.905 1.344 1.632.23.729.087 1.75-.892 3.25l-.838-.674c-.034.687-.041 1.42-.126 2.114-.761.216-1.468.447-2.227.598.61 2.14-1.26 4.005-3.558 5.457-2.317 1.49-4.987 2.492-6.512 4.263-.342.27-.81.355-1.325.412-.518.055-1.094.051-1.721.01-.622-.033-1.268-.028-1.955-.015-.678.037-1.375.153-2.112.371l.587 1.558c-1.455-.47-4.541-.591-7.42-1.516-2.889-.87-5.466-2.498-6.106-4.561-2.286.857.143.378-.12 1.662-.555.107-1.049.162-1.484.174-.432-.01-.805-.07-1.129-.157-.652-.16-1.09-.519-1.437-.907-.696-.769-.987-1.852-1.815-2.666-1.323-.099-.947.226-.425.666.512.444 1.193.929.311 1.289-1.672-1.296-2.578-1.198-3.695-1.128-1.077.027-2.392.035-4.317-1.852.074-1.056 1.473.193 2.249-.1-1.968-.157-4.297-1.494-6.471-3.368-2.192-1.868-4.212-4.24-6.044-6.32-1.487-2.858-3.242-6.36-4.435-10.193-1.229-3.806-1.859-7.861-1.644-11.373l-.61-.036c.275-.774.363-1.516.4-2.264.001-.745-.042-1.491-.123-2.255-.138-1.52-.32-3.139.175-4.74-.346.504-.676 1.023-.978 1.559z" clip-rule="evenodd"/>
    </g>
    <path fill="#E5F5FB" fill-rule="evenodd" d="M384 1.329L382.878 0c-.68.433-1.338.91-1.982 1.413-.649.484-1.286.98-1.896 1.528 1.03.172 1.665-.049 2.354-.441.679-.41 1.435-.911 2.646-1.171zM384.293 5c.555-.34 1.117-.699 1.707-1-.512.116-1.013.266-1.512.423-.497.157-1.004.29-1.488.479.429.01.865.055 1.293.098zM353.42 45l.272-.55c-.258-2.776-.279-5.602-.046-8.45-.361 3.02-.426 6.032-.226 9zM372.613 96.478c-1.336-.047-2.412-1.154-3.613-1.478.644.368 1.316.703 1.986 1.034.669.33 1.324.67 2.014.966l-.387-.522z" clip-rule="evenodd"/>
    <mask id="prefix__b" width="4" height="3" x="411" y="110" maskUnits="userSpaceOnUse">
        <path fill="#fff" fill-rule="evenodd" d="M411.599 110.23h2.916v2.769h-2.916v-2.769z" clip-rule="evenodd"/>
    </mask>
    <g mask="url(#prefix__b)">
        <path fill="#E5F5FB" fill-rule="evenodd" d="M412.115 112.999c1.569-3.175 4.005-.696.906-2.769-3.031 1.022-.156 1.662-.906 2.769z" clip-rule="evenodd"/>
    </g>
    <path fill="#E5F5FB" fill-rule="evenodd" d="M422 106c-1.536.516-2.249 1.227-3 1.888 1.209.273 1.737.013 2.064-.407.33-.418.471-1.003.936-1.481z" clip-rule="evenodd"/>
    <path fill="#00A1E0" fill-rule="evenodd" d="M399.168 37.01c1.902-1.977 4.55-3.203 7.48-3.203 3.892 0 7.29 2.165 9.099 5.379 1.618-.72 3.371-1.092 5.143-1.09 7.022 0 12.715 5.727 12.715 12.79 0 7.064-5.693 12.79-12.715 12.79-.857 0-1.695-.086-2.505-.25-1.592 2.834-4.629 4.748-8.113 4.748-1.458 0-2.839-.336-4.067-.933-1.614 3.788-5.377 6.443-9.761 6.443-4.567 0-8.459-2.88-9.954-6.921-.652.138-1.328.21-2.022.21-5.437 0-9.845-4.44-9.845-9.919 0-3.67 1.98-6.875 4.923-8.59-.624-1.432-.945-2.976-.943-4.537 0-6.3 5.13-11.407 11.456-11.407 3.715 0 7.016 1.76 9.109 4.49zm-16.002 16.856c-.031.081-.001.109.017.125l.008.009c.084.062.171.11.257.158l.08.045c.602.318 1.17.411 1.763.411 1.21 0 1.962-.642 1.962-1.675v-.02c0-.955-.848-1.302-1.644-1.552l-.103-.033-.002-.001c-.599-.195-1.116-.362-1.116-.755v-.022c0-.336.303-.584.772-.584.521 0 1.139.173 1.537.392 0 0 .117.076.16-.038l.246-.66c.023-.064-.018-.11-.059-.136-.454-.276-1.082-.464-1.733-.464l-.121.001c-1.107 0-1.88.667-1.88 1.623v.02c0 1.007.853 1.334 1.652 1.562l.128.04c.583.178 1.084.332 1.084.74v.02c0 .374-.326.652-.852.652-.552.004-1.093-.15-1.559-.447l-.118-.073c-.027-.018-.052-.035-.081-.052-.035-.022-.122-.06-.159.055l-.239.66zm17.729.125c-.018-.016-.047-.044-.017-.125l.239-.66c.036-.107.137-.068.159-.054l.04.026c.048.03.093.06.16.1.465.295 1.006.45 1.558.446.527 0 .853-.278.853-.652v-.02c0-.408-.502-.562-1.084-.74l-.129-.04c-.799-.228-1.652-.555-1.652-1.562v-.02c0-.956.773-1.623 1.88-1.623h.122c.65 0 1.278.188 1.732.463.042.026.082.072.059.136-.02.059-.222.6-.246.66-.043.114-.159.038-.159.038-.398-.22-1.017-.392-1.538-.392-.469 0-.771.248-.771.584v.022c0 .393.516.56 1.116.755h.001l.104.034c.795.25 1.643.597 1.643 1.552v.02c0 1.033-.751 1.675-1.961 1.675-.594 0-1.162-.093-1.764-.411l-.074-.042c-.089-.05-.176-.098-.263-.161l-.008-.009zm12.075-2.15c0 .584-.109 1.044-.324 1.37-.213.32-.534.477-.983.477-.45 0-.769-.155-.979-.477-.211-.325-.319-.785-.319-1.37 0-.583.108-1.042.319-1.364.21-.318.53-.473.979-.473.449 0 .77.155.984.473.214.322.324.781.324 1.364h-.001zm.55-1.955c.212.257.369.555.46.875.099.332.149.697.149 1.082 0 .386-.05.75-.149 1.083-.099.334-.253.63-.46.875-.211.25-.476.45-.775.583-.309.14-.673.21-1.082.21-.41 0-.774-.07-1.084-.21-.308-.14-.569-.337-.774-.583-.208-.247-.361-.542-.461-.875-.098-.332-.148-.696-.148-1.083 0-.386.05-.75.148-1.082.092-.32.248-.617.459-.875.207-.246.468-.444.776-.588.309-.143.674-.216 1.084-.216.409 0 .774.072 1.082.216.299.136.564.337.775.588zm8.755 3.65c-.034-.098-.129-.06-.129-.06-.148.055-.304.107-.47.133-.17.026-.355.04-.554.04-.489 0-.877-.145-1.155-.432-.279-.287-.435-.75-.434-1.376.002-.57.14-1 .388-1.326.246-.325.62-.493 1.12-.493.417 0 .735.049 1.068.153 0 0 .079.035.118-.069l.085-.235.162-.454c.027-.076-.039-.109-.062-.117-.219-.077-.445-.134-.674-.17-.251-.036-.504-.054-.758-.052-.424 0-.802.072-1.126.216-.323.144-.597.342-.813.589-.221.255-.389.552-.492.874-.109.332-.164.698-.164 1.084 0 .835.225 1.51.672 2.005.447.495 1.118.747 1.994.747.517 0 1.048-.104 1.43-.254 0 0 .073-.035.041-.12l-.248-.683h.001zm2.042-3.056c-.138.21-.228.48-.276.804h2.438c-.024-.313-.086-.594-.226-.804-.214-.318-.51-.495-.959-.495-.448 0-.768.175-.977.495zm3.124.091c-.086-.294-.236-.566-.438-.797-.22-.237-.435-.402-.649-.494-.31-.131-.643-.199-.98-.198-.426 0-.814.072-1.128.219-.314.147-.579.348-.787.599-.213.26-.371.561-.463.884-.102.354-.153.72-.15 1.088 0 .394.051.76.155 1.09.104.33.271.623.496.865.224.244.513.435.859.568.344.133.762.202 1.241.2.988-.003 1.508-.222 1.722-.34.037-.021.074-.058.028-.164l-.223-.624c-.033-.093-.128-.059-.128-.059l-.045.017-.02.008c-.242.093-.597.229-1.338.227-.531 0-.924-.157-1.17-.4-.253-.25-.376-.617-.399-1.135l3.419.003s.09-.001.1-.088l.002-.018c.016-.116.1-.739-.104-1.45zm-30.503-.091c-.139.21-.228.48-.277.804h2.438c-.024-.313-.086-.594-.226-.804-.214-.318-.51-.495-.959-.495-.448 0-.767.175-.976.495zm3.122.091c-.086-.294-.235-.566-.437-.797-.22-.237-.435-.402-.648-.494-.31-.13-.643-.198-.979-.198-.427 0-.815.072-1.129.219-.315.147-.58.348-.788.599-.213.26-.371.561-.463.884-.102.354-.152.72-.15 1.088 0 .394.052.76.156 1.09.103.33.27.623.496.865.224.244.513.435.859.568.343.133.761.202 1.241.2.987-.003 1.507-.222 1.722-.34.037-.021.073-.058.028-.164l-.223-.624c-.034-.093-.129-.059-.129-.059l-.065.025c-.243.093-.596.229-1.339.227-.529 0-.923-.157-1.169-.4-.253-.25-.376-.617-.398-1.135l3.419.003s.09-.001.099-.088l.002-.018c.016-.116.1-.739-.105-1.45zm-10.986 2.744c.046.069.065.095.198.202h-.001c-.001 0 .308.241 1.003.2.49-.03.923-.123.923-.123v-1.55s-.438-.072-.927-.079c-.698-.009-.995.247-.992.246-.206.146-.305.36-.305.66 0 .19.034.34.101.444zm1.558-2.196c-.177-.012-.355-.017-.533-.017-.293 0-.576.037-.842.109-.256.066-.498.178-.714.33-.208.148-.375.338-.496.562-.125.243-.188.513-.182.786 0 .301.051.564.156.778.104.215.254.395.446.533.19.138.425.24.697.301.267.06.572.092.904.092.351 0 .701-.03 1.039-.087.288-.05.575-.104.861-.165.114-.027.24-.062.24-.062.085-.02.078-.11.078-.11l-.002-3.118c0-.684-.183-1.19-.544-1.505-.359-.314-.886-.472-1.57-.472-.307.003-.613.032-.916.085 0 0-.746.144-1.054.383 0 0-.067.042-.03.136l.242.649c.03.084.112.055.112.055s.026-.01.056-.028c.657-.356 1.489-.345 1.489-.345.37 0 .654.073.846.22.186.142.281.357.281.812v.144c-.295-.042-.564-.066-.564-.066zm27.575-1.829c.01.023.01.05 0 .072-.033.093-.198.56-.257.716-.023.06-.059.1-.124.092 0 0-.197-.046-.376-.046-.125 0-.3.016-.459.064-.156.048-.298.133-.423.253-.124.122-.225.291-.299.502-.076.214-.113.554-.113.895v2.54c0 .057-.047.104-.103.104h-.899c-.057 0-.104-.047-.104-.104v-5.085c0-.057.041-.103.098-.103h.876c.058 0 .099.046.099.104v.414c.131-.175.366-.329.578-.425.213-.095.452-.167.881-.14.194.013.386.046.573.097.024.009.042.027.052.05zm-8.431-2.283c-.111-.033-.224-.06-.339-.08-.153-.026-.309-.037-.464-.035-.618 0-1.106.174-1.447.517-.341.342-.572.863-.688 1.547l-.042.23h-.776s-.094-.004-.114.099l-.127.71c-.01.066.02.11.111.11h.755l-.766 4.265c-.059.344-.129.626-.205.84-.075.212-.148.37-.239.486-.087.11-.17.193-.313.24-.117.04-.254.058-.402.058-.082 0-.192-.014-.274-.03-.064-.012-.126-.033-.184-.06 0 0-.089-.033-.124.055-.028.073-.229.625-.254.693-.023.067.01.12.053.136.101.036.176.06.312.092.19.044.351.047.502.047.314 0 .601-.045.839-.13.243-.093.46-.244.631-.44.199-.22.325-.448.444-.763.135-.371.236-.754.301-1.144l.77-4.346h1.126s.095.004.115-.1l.127-.708c.008-.068-.02-.11-.112-.11h-1.093l.003-.016.003-.017c.017-.104.068-.428.175-.736.054-.154.155-.278.24-.364.08-.08.178-.141.286-.177.108-.035.232-.052.367-.052.103 0 .204.012.28.028.107.022.148.034.176.043.112.033.126 0 .148-.053l.261-.716c.028-.077-.039-.11-.062-.119zm-15.273.1v7.276c0 .056-.041.102-.098.102h-.907c-.057 0-.098-.046-.098-.102v-7.276c0-.057.041-.103.098-.103h.906c.057 0 .099.046.099.103z" clip-rule="evenodd"/>
    <path fill="#FFE9E5" fill-rule="evenodd" d="M624.868 33.093c11.515 24.774 3.001 53.099-19.018 63.265-22.017 10.165-49.202-1.677-60.717-26.451-11.517-24.774-3.002-53.099 19.017-63.265 22.018-10.165 49.202 1.677 60.718 26.451zM625.941 32.734c1.23.946 1.139-.813.942-2.414-.946-.13-1.926-.23-2.883-.32.71.884 1.293 1.821 1.941 2.734z" clip-rule="evenodd"/>
    <path fill="#FFE9E5" fill-rule="evenodd" d="M622 25.22l-2.168-1.17c-.729-.369-1.471-.712-2.193-1.05.9.598 1.827 1.202 2.698 1.87.472 1.781-.121 2-.936 1.712-.826-.285-1.842-1.106-2.401-1.468 1.767 2.055 2.599 2.129 3.224 1.628.617-.488.972-1.544 1.776-1.523zM615.943 20.255c-1.64-2.556-2.202-.634-1.836.718.57-.368 2.22.659 1.836-.718zM559 96c-.319-.8-.717-1.658-.49-1.906-.628-.262-.889-.083.49 1.906zM558.169 93.459c.2.05.417.102.662.177-.178-.093-.318-.182-.533-.272-.082.01-.082.066-.129.094z" clip-rule="evenodd"/>
    <mask id="prefix__c" width="98" height="104" x="535" y="3" maskUnits="userSpaceOnUse">
        <path fill="#fff" fill-rule="evenodd" d="M535 3.516h97.558v102.89H535V3.516z" clip-rule="evenodd"/>
    </mask>
    <g mask="url(#prefix__c)">
        <path fill="#FFE9E5" fill-rule="evenodd" d="M552.37 45.516c-.933-2.258-.151-3.46-.214-5.563.627-.28 1.272-.537 1.924-.773-.052-1.112-.342-1.439-.686-1.699-.35-.267-.758-.465-.975-1.389.403-.423.762-.992 1.028-1.647.316-.63.533-1.358.78-2.032.456-1.368.857-2.63 1.12-3.032.515-.098.655.217.707.605.057.395.048.882.195 1.126.633-2.442-.91-3.193.934-5.88l.41.233c1.274-3.803 4.3-7.356 8.184-9.902 3.905-2.596 8.501-4.185 13.088-5.24-.638-.047-.507-.42-.785-.75 5.01-.762 10.622-.182 15.933 1.111 5.347 1.269 10.383 3.199 15.243 4.515-2.553-1.81-5.714-4.688-9.503-6.766-1.873-1.059-3.895-1.856-5.863-2.323-1.979-.425-3.909-.5-5.59-.017-.509-.426-1.151-.63-1.821-.759-.67-.143-1.372-.153-2.029-.17-1.313-.073-2.438-.035-2.919-.949-4.601-.373-7.829.763-10.61 2.246-2.802 1.518-5.259 3.305-8.771 5.425-1.159.38-1.139-.648-1.878-1.141 1.772-1.485 3.699-2.838 5.773-3.978-1.414.334-2.817.76-4.205 1.263.311-.416.843-.795 1.446-1.185.598-.403 1.287-.77 1.942-1.12.644-.371 1.254-.72 1.712-1.063.454-.353.746-.732.75-1.146-2.791 1.922-6.481 3.771-9.711 6.222-3.214 2.428-5.921 5.386-6.772 8.163 1.892-1.674 3.777-4.222 6.248-5.928.699-.165 1.499-.467 2.179-.606.694-.122 1.243-.107 1.417.278-2.74 3.191-5.06 5.83-7.296 8.647-2.176 2.832-4.21 5.913-5.416 9.768-.601 1.92-1.561 4.455-2.405 4.583.085-1.385-.848-.59-.885-1.789-.131 1.528.621 1.807 1.139 2.193.542.393.87.87.28 2.827-.9-.366-1.796-.743-2.69-1.13 1.279 1.164.922 2.373.423 3.793-.487 1.405-1.102 3.055-.263 4.615-1.181 1.068-1.826-1.007-1.651-3.444-.752 2.712.922 3.063.839 5.187-.838-.682-1.596-1.395-2.395-2.145.564.625.799 1.187.846 1.715.058.528-.092 1.022-.34 1.494-.516.942-1.321 1.805-1.691 2.527.302.063.901-.255 1.428-.206.53.05.957.45 1.045 1.92-.187 1.294-.865.721-1.179 1.06.63.1 1.834 1.022 2.234 2.898-.744.502-1.45-1.061-2.278-1.076.119.748.319 1.409.395 2.039.077.632.061 1.228-.133 1.84 1.28 2.449 1.113-.431 2.347.924.241 1.995-.392 2.305-1.278 2.331-.878.03-1.997-.254-2.614.752-2.084-2.798-3.207-7.019-4.052-8.74.516 2.121 1.083 4.215 1.822 6.241-.507-.082-.678 1.085-.873 1.891-.193.8-.5 1.265-1.41-.325.401 3.347 1.662 6.887 3.39 10.107 1.718 3.232 3.894 6.152 5.961 8.561-.237-.916-.647-2-.036-2.159 2.196 2.381 1.045 2.721.84 3.687 1.987 1.555 3.114.365 4.974.696.461 1.14.904 1.993 1.332 2.678.419.696.791 1.254 1.167 1.78.372.53.706 1.07 1.061 1.736.369.653.733 1.458 1.174 2.54l.916-1.4c.658 1.441 1.479 1.8 2.37 2.058.898.266 1.788.523 2.781 1.804-.057.382-1.303.058-2.305-.248 2.573 1.225 1.287 2.698 3.999 3.686-.947.122-1.913.23-2.899.322 1.941 1.245 5.157 2.402 3.348 3.18 2.245.189 4.813 1.2 7.582 2.078 2.749.898 5.689 1.681 8.239 1.696l-.638 1.319c.739-.267 1.696-.315 2.752-.215 1.065.056 2.236.254 3.415.346.589.049 1.175.094 1.743.118.567.007 1.118-.02 1.628-.074 1.02-.093 1.884-.406 2.43-.929l.394.577c1.708-.686 3.343-1.476 4.896-2.336 2.245-.178 1.883 2.04 1.955 1.431 5.009-1.278 8.625-2.889 11.933-3.65-.025-.524.239-1.093.694-1.68.45-.597 1.066-1.257 1.798-1.9 1.426-1.345 3.229-2.785 4.705-4.196 3.997-2.86 7.408-6.692 9.991-10.988 1.278-2.159 2.372-4.424 3.245-6.76.855-2.344 1.509-4.742 1.971-7.154.439-2.418.673-4.846.745-7.245.043-2.402-.094-4.772-.377-7.081-.624-4.618-1.831-8.984-3.527-12.909-.365-1.216-1.367-2.49-2.503-3.723l-1.797-1.816c-.62-.589-1.212-1.172-1.723-1.76.259.89.516 1.545.781 2.09.256.545.493.987.761 1.418.54.859 1.084 1.725 1.632 3.459.142 1.383-.212 2.435-.725 3.437-.481.996-1.12 1.943-1.526 3.121.464-.457.926-.925 1.385-1.407.993 1.614.849 2.282.749 2.814-.096.542-.158.956.787 2.282l-2.621.132c.357.203.573.515.685.883.094.369.083.793.01 1.218-.129.851-.586 1.698-.918 2.18.604.287 1.218.587 1.817.897-1.047 2.168-1.62 3.5-3.308 3.949l1.674-.026c-.563.344-.769 2.35-1.252 3.885-.525 1.535-1.172 2.543-2.276 1.047.249.646.912 1.378.385 2.573l-1.641-.303c-.098 1.825-.596 3.822-1.658 3.9.026-1.021-.539-1.581-1.117-2.127-.707 1.61-.871 2.587-.689 3.323.194.742.716 1.213 1.264 1.669.548.46 1.121.905 1.344 1.632.23.729.087 1.75-.892 3.25l-.838-.674c-.034.687-.041 1.42-.126 2.114-.761.216-1.468.447-2.227.598.61 2.14-1.26 4.005-3.558 5.457-2.317 1.49-4.987 2.492-6.512 4.263-.342.27-.81.355-1.325.412-.518.055-1.094.051-1.721.01-.622-.033-1.268-.028-1.955-.015-.678.037-1.375.153-2.112.371l.587 1.558c-1.455-.47-4.541-.591-7.42-1.516-2.889-.87-5.466-2.498-6.106-4.561-2.286.857.143.378-.12 1.662-.555.107-1.049.162-1.484.174-.432-.01-.805-.07-1.129-.157-.652-.16-1.09-.519-1.437-.907-.696-.769-.987-1.852-1.815-2.666-1.323-.099-.947.226-.425.666.512.444 1.193.929.311 1.289-1.672-1.296-2.578-1.198-3.695-1.128-1.077.027-2.392.035-4.317-1.852.074-1.056 1.473.193 2.249-.1-1.968-.157-4.297-1.494-6.471-3.368-2.192-1.868-4.212-4.24-6.044-6.32-1.487-2.858-3.242-6.36-4.435-10.193-1.229-3.806-1.859-7.861-1.644-11.373l-.61-.036c.275-.774.363-1.516.4-2.264.001-.745-.042-1.491-.123-2.255-.138-1.52-.32-3.139.175-4.74-.346.504-.676 1.023-.978 1.559z" clip-rule="evenodd"/>
    </g>
    <path fill="#FFE9E5" fill-rule="evenodd" d="M569 1.329L567.878 0c-.68.433-1.338.91-1.982 1.413-.649.484-1.286.98-1.896 1.528 1.03.172 1.665-.049 2.354-.441.679-.41 1.435-.911 2.646-1.171zM569.293 5c.555-.34 1.117-.699 1.707-1-.512.116-1.013.266-1.512.423-.497.157-1.004.29-1.488.479.429.01.865.055 1.293.098zM538.42 45l.272-.55c-.258-2.776-.279-5.602-.046-8.45-.361 3.02-.426 6.032-.226 9zM557.613 96.478c-1.336-.047-2.412-1.154-3.613-1.478.644.368 1.316.703 1.986 1.034.669.33 1.324.67 2.014.966l-.387-.522z" clip-rule="evenodd"/>
    <mask id="prefix__d" width="4" height="3" x="596" y="110" maskUnits="userSpaceOnUse">
        <path fill="#fff" fill-rule="evenodd" d="M596.598 110.23h2.916v2.769h-2.916v-2.769z" clip-rule="evenodd"/>
    </mask>
    <g mask="url(#prefix__d)">
        <path fill="#FF2B00" fill-rule="evenodd" d="M597.114 112.999c1.569-3.175 4.005-.696.906-2.769-3.031 1.022-.156 1.662-.906 2.769z" clip-rule="evenodd" opacity=".1"/>
    </g>
    <path fill="#FFE9E5" fill-rule="evenodd" d="M607 106c-1.536.516-2.249 1.227-3 1.888 1.209.273 1.737.013 2.064-.407.33-.418.471-1.003.936-1.481z" clip-rule="evenodd"/>
    <path fill="#E01E5A" fill-rule="evenodd" d="M575.643 52.631c-1.231.717-1.982 2.04-1.966 3.463v9.893c0 2.186 1.771 3.958 3.957 3.958 2.185 0 3.957-1.772 3.957-3.958v-9.893c.016-1.424-.735-2.746-1.966-3.463-1.231-.716-2.751-.716-3.982 0zm-7.902 7.42c2.185 0 3.957-1.771 3.957-3.957v-3.958h-3.957c-2.185 0-3.957 1.772-3.957 3.957 0 2.185 1.771 3.957 3.957 3.957z" clip-rule="evenodd"/>
    <path fill="#36C5F0" fill-rule="evenodd" d="M573.678 36.309c0 2.185 1.771 3.957 3.957 3.957h3.957v-3.957c0-2.186-1.772-3.957-3.957-3.957-2.186 0-3.957 1.771-3.957 3.957zm7.914 9.89c0-2.185-1.772-3.957-3.957-3.957h-9.893c-2.186 0-3.958 1.772-3.958 3.958 0 2.185 1.772 3.957 3.958 3.957h9.893c2.185 0 3.957-1.772 3.957-3.957z" clip-rule="evenodd"/>
    <path fill="#2EB67D" fill-rule="evenodd" d="M587.528 50.16c2.185 0 3.957-1.772 3.957-3.958V36.31c.016-1.424-.735-2.746-1.966-3.463-1.231-.716-2.752-.716-3.982 0-1.231.717-1.982 2.04-1.966 3.463v9.893c0 2.186 1.771 3.958 3.957 3.958zm8.379-7.614c-1.479.612-2.443 2.056-2.443 3.656v3.957h3.957c1.601 0 3.044-.964 3.657-2.442.612-1.48.274-3.182-.858-4.313-1.132-1.132-2.834-1.471-4.313-.858z" clip-rule="evenodd"/>
    <path fill="#ECB22E" fill-rule="evenodd" d="M583.57 56.094c0 2.186 1.772 3.958 3.958 3.958h9.893c2.185 0 3.957-1.772 3.957-3.958s-1.772-3.957-3.957-3.957h-9.893c-2.186 0-3.958 1.771-3.958 3.957zm7.915 9.895c0-2.186-1.772-3.957-3.957-3.957H583.57v3.957c0 2.185 1.772 3.957 3.958 3.957 2.185 0 3.957-1.772 3.957-3.957z" clip-rule="evenodd"/>
    <path fill="#E5F7FD" fill-rule="evenodd" d="M808.868 33.093c11.515 24.774 3.001 53.099-19.018 63.265-22.017 10.165-49.202-1.677-60.717-26.451-11.517-24.774-3.002-53.099 19.017-63.265 22.018-10.165 49.202 1.677 60.718 26.451z" clip-rule="evenodd"/>
    <path fill="#00AFF0" fill-rule="evenodd" d="M785.09 59.221c1.079 1.941 1.653 4.136 1.653 6.37 0 3.496-1.357 6.785-3.825 9.256-2.467 2.474-5.745 3.834-9.233 3.834-2.259 0-4.471-.589-6.425-1.697-1.268.226-2.567.344-3.864.344-2.978 0-5.868-.585-8.587-1.74-2.629-1.112-4.987-2.708-7.014-4.738-2.025-2.031-3.616-4.395-4.725-7.03-1.152-2.726-1.735-5.622-1.735-8.608 0-1.278.114-2.559.332-3.811-1.072-1.934-1.644-4.122-1.644-6.347 0-3.497 1.36-6.785 3.826-9.258 2.466-2.473 5.746-3.835 9.235-3.835 2.137 0 4.248.534 6.125 1.535l.005-.001h.003l.002-.001c1.368-.263 2.774-.395 4.177-.395 2.978 0 5.868.584 8.587 1.737 2.626 1.114 4.987 2.708 7.011 4.739 2.027 2.03 3.617 4.396 4.728 7.03 1.152 2.726 1.736 5.622 1.736 8.607 0 1.346-.127 2.693-.368 4.009zM759.137 33.51l-.157.031.157-.031zm.166.034l.077.039-.077-.04zm-7.162 28.455c0 2.894 3.506 6.757 11.343 6.757 7.458 0 11.153-3.603 11.153-8.428 0-3.116-1.433-6.424-7.085-7.686l-5.16-1.149c-1.963-.447-4.222-1.04-4.222-2.895 0-1.859 1.585-3.157 4.446-3.157 3.382 0 4.599 1.367 5.605 2.497.709.796 1.313 1.474 2.497 1.474 1.506 0 2.824-.887 2.824-2.414 0-3.562-5.687-6.235-10.512-6.235-5.238 0-10.815 2.23-10.815 8.167 0 2.86 1.019 5.903 6.633 7.314l6.972 1.744c2.109.522 2.637 1.711 2.637 2.785 0 1.784-1.769 3.528-4.973 3.528-3.613 0-4.85-1.61-5.896-2.97-.766-.995-1.429-1.858-2.847-1.858-1.507 0-2.6 1.04-2.6 2.526zm15.29 14.958l.027-.004.048-.01c-.025.006-.05.01-.075.014z" clip-rule="evenodd"/>
    <path fill="#E5F7FD" fill-rule="evenodd" d="M809.941 32.734c1.23.946 1.139-.813.942-2.414-.946-.13-1.926-.23-2.883-.32.71.884 1.293 1.821 1.941 2.734zM806 25.22l-2.168-1.17c-.729-.369-1.471-.712-2.193-1.05.9.598 1.827 1.202 2.698 1.87.472 1.781-.121 2-.936 1.712-.826-.285-1.842-1.106-2.401-1.468 1.767 2.055 2.599 2.129 3.224 1.628.617-.488.972-1.544 1.776-1.523zM799.943 20.255c-1.64-2.556-2.202-.634-1.836.718.57-.368 2.22.659 1.836-.718zM743 96c-.319-.8-.717-1.658-.49-1.906-.628-.262-.889-.083.49 1.906zM742.169 93.459c.2.05.417.102.662.177-.178-.093-.318-.182-.533-.272-.082.01-.082.066-.129.094z" clip-rule="evenodd"/>
    <path fill="#E5F7FD" fill-rule="evenodd" d="M725.37 45.516c-.933-2.258-.151-3.46-.214-5.563.627-.28 1.272-.537 1.924-.773-.052-1.112-.342-1.439-.686-1.699-.35-.267-.758-.465-.975-1.389.403-.423.762-.992 1.028-1.647.316-.63.533-1.358.78-2.032.456-1.368.857-2.63 1.12-3.032.515-.098.655.217.707.605.057.395.048.882.195 1.126.633-2.442-.91-3.193.934-5.88l.41.233c1.274-3.803 4.3-7.356 8.184-9.902 3.905-2.596 8.501-4.185 13.088-5.24-.638-.047-.507-.42-.785-.75 5.01-.762 10.622-.182 15.933 1.111 5.347 1.269 10.383 3.199 15.243 4.515-2.553-1.81-5.714-4.688-9.503-6.766-1.873-1.059-3.895-1.856-5.863-2.323-1.979-.425-3.909-.5-5.59-.017-.509-.426-1.151-.63-1.821-.759-.67-.143-1.372-.153-2.029-.17-1.313-.073-2.438-.035-2.919-.949-4.601-.373-7.829.763-10.61 2.246-2.802 1.518-5.259 3.305-8.771 5.425-1.159.38-1.139-.648-1.878-1.141 1.772-1.485 3.699-2.838 5.773-3.978-1.414.334-2.817.76-4.205 1.263.311-.416.843-.795 1.446-1.185.598-.403 1.287-.77 1.942-1.12.644-.371 1.254-.72 1.712-1.063.454-.353.746-.732.75-1.146-2.791 1.922-6.481 3.771-9.711 6.222-3.214 2.428-5.921 5.386-6.772 8.163 1.892-1.674 3.777-4.222 6.248-5.928.699-.165 1.499-.467 2.179-.606.694-.122 1.243-.107 1.417.278-2.74 3.191-5.06 5.83-7.296 8.647-2.176 2.832-4.21 5.913-5.416 9.768-.601 1.92-1.561 4.455-2.405 4.583.085-1.385-.848-.59-.885-1.789-.131 1.528.621 1.807 1.139 2.193.542.393.87.87.28 2.827-.9-.366-1.796-.743-2.69-1.13 1.279 1.164.922 2.373.423 3.793-.487 1.405-1.102 3.055-.263 4.615-1.181 1.068-1.826-1.007-1.651-3.444-.752 2.712.922 3.063.839 5.187-.838-.682-1.596-1.395-2.395-2.145.564.625.799 1.187.846 1.715.058.528-.092 1.022-.34 1.494-.516.942-1.321 1.805-1.691 2.527.302.063.901-.255 1.428-.206.53.05.957.45 1.045 1.92-.187 1.294-.865.721-1.179 1.06.63.1 1.834 1.022 2.234 2.898-.744.502-1.45-1.061-2.278-1.076.119.748.319 1.409.395 2.039.077.632.061 1.228-.133 1.84 1.28 2.449 1.113-.431 2.347.924.241 1.995-.392 2.305-1.278 2.331-.878.03-1.997-.254-2.614.752-2.084-2.798-3.207-7.019-4.052-8.74.516 2.121 1.083 4.215 1.822 6.241-.507-.082-.678 1.085-.873 1.891-.193.8-.5 1.265-1.41-.325.401 3.347 1.662 6.887 3.39 10.107 1.718 3.232 3.894 6.152 5.961 8.561-.237-.916-.647-2-.036-2.159 2.196 2.381 1.045 2.721.84 3.687 1.987 1.555 3.114.365 4.974.696.461 1.14.904 1.993 1.332 2.678.419.696.791 1.254 1.167 1.78.372.53.706 1.07 1.061 1.736.369.653.733 1.458 1.174 2.54l.916-1.4c.658 1.441 1.479 1.8 2.37 2.058.898.266 1.788.523 2.781 1.804-.057.382-1.303.058-2.305-.248 2.573 1.225 1.287 2.698 3.999 3.686-.947.122-1.913.23-2.899.322 1.941 1.245 5.157 2.402 3.348 3.18 2.245.189 4.813 1.2 7.582 2.078 2.749.898 5.689 1.681 8.239 1.696l-.638 1.319c.739-.267 1.696-.315 2.752-.215 1.065.056 2.236.254 3.415.346.589.049 1.175.094 1.743.118.567.007 1.118-.02 1.628-.074 1.02-.093 1.884-.406 2.43-.929l.394.577c1.708-.686 3.343-1.476 4.896-2.336 2.245-.178 1.883 2.04 1.955 1.431 5.009-1.278 8.625-2.889 11.933-3.65-.025-.524.239-1.093.694-1.68.45-.597 1.066-1.257 1.798-1.9 1.426-1.345 3.229-2.785 4.705-4.196 3.997-2.86 7.408-6.692 9.991-10.988 1.278-2.159 2.372-4.424 3.245-6.76.855-2.344 1.509-4.742 1.971-7.154.439-2.418.673-4.846.745-7.245.043-2.402-.094-4.772-.377-7.081-.624-4.618-1.831-8.984-3.527-12.909-.365-1.216-1.367-2.49-2.503-3.723l-1.797-1.816c-.62-.589-1.212-1.172-1.723-1.76.259.89.516 1.545.781 2.09.256.545.493.987.761 1.418.54.859 1.084 1.725 1.632 3.459.142 1.383-.212 2.435-.725 3.437-.481.996-1.12 1.943-1.526 3.121.464-.457.926-.925 1.385-1.407.993 1.614.849 2.282.749 2.814-.096.542-.158.956.787 2.282l-2.621.132c.357.203.573.515.685.883.094.369.083.793.01 1.218-.129.851-.586 1.698-.918 2.18.604.287 1.218.587 1.817.897-1.047 2.168-1.62 3.5-3.308 3.949l1.674-.026c-.563.344-.769 2.35-1.252 3.885-.525 1.535-1.172 2.543-2.276 1.047.249.646.912 1.378.385 2.573l-1.641-.303c-.098 1.825-.596 3.822-1.658 3.9.026-1.021-.539-1.581-1.117-2.127-.707 1.61-.871 2.587-.689 3.323.194.742.716 1.213 1.264 1.669.548.46 1.121.905 1.344 1.632.23.729.087 1.75-.892 3.25l-.838-.674c-.034.687-.041 1.42-.126 2.114-.761.216-1.468.447-2.227.598.61 2.14-1.26 4.005-3.558 5.457-2.317 1.49-4.987 2.492-6.512 4.263-.342.27-.81.355-1.325.412-.518.055-1.094.051-1.721.01-.622-.033-1.268-.028-1.955-.015-.678.037-1.375.153-2.112.371l.587 1.558c-1.455-.47-4.541-.591-7.42-1.516-2.889-.87-5.466-2.498-6.106-4.561-2.286.857.143.378-.12 1.662-.555.107-1.049.162-1.484.174-.432-.01-.805-.07-1.129-.157-.652-.16-1.09-.519-1.437-.907-.696-.769-.987-1.852-1.815-2.666-1.323-.099-.947.226-.425.666.512.444 1.193.929.311 1.289-1.672-1.296-2.578-1.198-3.695-1.128-1.077.027-2.392.035-4.317-1.852.074-1.056 1.473.193 2.249-.1-1.968-.157-4.297-1.494-6.471-3.368-2.192-1.868-4.212-4.24-6.044-6.32-1.487-2.858-3.242-6.36-4.435-10.193-1.229-3.806-1.859-7.861-1.644-11.373l-.61-.036c.275-.774.363-1.516.4-2.264.001-.745-.042-1.491-.123-2.255-.138-1.52-.32-3.139.175-4.74-.346.504-.676 1.023-.978 1.559zM753 1.329L751.878 0c-.68.433-1.338.91-1.982 1.413-.649.484-1.286.98-1.896 1.528 1.03.172 1.665-.049 2.354-.441.679-.41 1.435-.911 2.646-1.171z" clip-rule="evenodd"/>
    <path fill="#E5F7FD" fill-rule="evenodd" d="M753.293 5c.555-.34 1.117-.699 1.707-1-.512.116-1.013.266-1.512.423-.497.157-1.004.29-1.488.479.429.01.865.055 1.293.098zM722.42 45l.272-.55c-.258-2.776-.279-5.602-.046-8.45-.361 3.02-.426 6.032-.226 9zM741.613 96.478c-1.336-.047-2.412-1.154-3.613-1.478.644.368 1.316.703 1.986 1.034.669.33 1.324.67 2.014.966l-.387-.522z" clip-rule="evenodd"/>
    <mask id="prefix__e" width="4" height="3" x="780" y="110" maskUnits="userSpaceOnUse">
        <path fill="#fff" fill-rule="evenodd" d="M780.599 110.23h2.916v2.769h-2.916v-2.769z" clip-rule="evenodd"/>
    </mask>
    <g mask="url(#prefix__e)">
        <path fill="#E5F7FD" fill-rule="evenodd" d="M781.115 112.999c1.569-3.175 4.005-.696.906-2.769-3.031 1.022-.156 1.662-.906 2.769z" clip-rule="evenodd"/>
    </g>
    <path fill="#E5F7FD" fill-rule="evenodd" d="M791 106c-1.536.516-2.249 1.227-3 1.888 1.209.273 1.737.013 2.064-.407.33-.418.471-1.003.936-1.481z" clip-rule="evenodd"/>
    <path fill="#E5EAEB" fill-rule="evenodd" d="M172.868 168.093c11.514 24.774 3 53.099-19.018 63.265-22.018 10.165-49.203-1.677-60.718-26.451-11.516-24.774-3.001-53.099 19.017-63.265 22.019-10.165 49.203 1.677 60.719 26.451zM173.94 167.734c1.231.946 1.14-.813.943-2.414-.946-.13-1.926-.229-2.883-.32.709.884 1.292 1.821 1.94 2.734z" clip-rule="evenodd"/>
    <path fill="#E5EAEB" fill-rule="evenodd" d="M170 160.219l-2.168-1.17c-.73-.368-1.471-.711-2.193-1.049.899.598 1.827 1.202 2.698 1.87.471 1.781-.121 1.999-.936 1.712-.827-.285-1.843-1.106-2.401-1.468 1.766 2.055 2.598 2.129 3.223 1.628.618-.488.973-1.544 1.777-1.523zM163.942 155.255c-1.639-2.556-2.201-.634-1.835.718.569-.368 2.219.659 1.835-.718zM107 231c-.32-.8-.717-1.658-.49-1.906-.629-.262-.889-.083.49 1.906zM106.169 228.458c.2.052.417.104.662.179-.178-.093-.318-.183-.533-.274-.082.012-.082.066-.129.095z" clip-rule="evenodd"/>
    <mask id="prefix__f" width="122" height="126" x="71" y="127" maskUnits="userSpaceOnUse">
        <path fill="#fff" fill-rule="evenodd" d="M166.004 252.414l-94.233-25.25L98.4 127.78l94.233 25.25-26.63 99.384z" clip-rule="evenodd"/>
    </mask>
    <g mask="url(#prefix__f)">
        <path fill="#E5EAEB" fill-rule="evenodd" d="M160.097 207.349c.316 2.423-.751 3.382-1.234 5.429-.677.108-1.367.189-2.058.249-.238 1.088-.042 1.478.223 1.818.269.348.612.646.582 1.594-.498.305-.992.761-1.419 1.325-.468.528-.866 1.174-1.279 1.762-.795 1.202-1.509 2.318-1.867 2.638-.523-.039-.577-.38-.526-.767.047-.396.182-.865.103-1.139-1.243 2.195.052 3.32-2.424 5.439l-.335-.332c-2.215 3.344-6.058 5.992-10.469 7.447-4.444 1.496-9.294 1.842-13.998 1.674.604.21.381.536.564.927-5.037-.56-10.307-2.573-15.102-5.197-4.837-2.609-9.201-5.777-13.556-8.306 1.998 2.409 4.306 6.007 7.428 8.995 1.535 1.507 3.282 2.801 5.063 3.761 1.801.923 3.646 1.495 5.395 1.463.381.544.948.907 1.562 1.205.61.311 1.286.503 1.916.69 1.25.41 2.345.664 2.574 1.671 4.348 1.552 7.76 1.29 10.829.577 3.1-.741 5.936-1.832 9.877-2.97 1.218-.068.932.92 1.519 1.588-2.097.976-4.308 1.784-6.606 2.348 1.452.044 2.917-.005 4.388-.132-.408.322-1.02.551-1.703.771-.682.235-1.442.41-2.165.579-.719.192-1.398.371-1.929.584-.531.224-.91.514-1.022.913 3.194-1.134 7.237-1.965 10.991-3.497 3.733-1.513 7.113-3.67 8.654-6.131-2.261 1.127-4.741 3.1-7.57 4.108-.717-.021-1.568.063-2.261.021-.702-.062-1.229-.218-1.297-.635 3.473-2.373 6.397-4.321 9.286-6.463 2.835-2.174 5.597-4.623 7.759-8.034 1.077-1.7 2.661-3.899 3.509-3.804-.44 1.315.667.789.393 1.956.522-1.442-.133-1.906-.533-2.413-.422-.519-.615-1.065.461-2.803.775.586 1.542 1.183 2.305 1.789-.933-1.457-.276-2.531.573-3.774.835-1.232 1.856-2.666 1.449-4.39 1.417-.726 1.503 1.445.704 3.754 1.428-2.425-.098-3.197.532-5.228.633.876 1.18 1.761 1.758 2.692-.383-.749-.465-1.353-.373-1.875.08-.525.353-.964.715-1.355.742-.777 1.743-1.401 2.287-2.004-.276-.138-.936.014-1.432-.17-.499-.185-.809-.682-.513-2.124.515-1.203 1.022-.474 1.413-.72-.582-.259-1.507-1.462-1.408-3.378.849-.291 1.126 1.401 1.922 1.63.079-.754.057-1.444.146-2.072.09-.63.26-1.202.605-1.742-.603-2.698-1.186.127-2.027-1.501.283-1.989.975-2.125 1.837-1.921.856.198 1.863.763 2.719-.05 1.29 3.243 1.282 7.61 1.652 9.492.051-2.183.045-4.352-.144-6.501.469.211.936-.872 1.332-1.6.394-.723.811-1.093 1.278.679.479-3.337.177-7.083-.658-10.641-.824-3.566-2.169-6.95-3.542-9.812-.009.947.107 2.1-.525 2.095-1.504-2.868-.305-2.898.144-3.779-1.518-2.016-2.914-1.158-4.624-1.959-.151-1.22-.358-2.159-.595-2.932-.224-.781-.439-1.415-.667-2.02-.221-.61-.404-1.217-.574-1.952-.188-.727-.331-1.598-.477-2.757l-1.247 1.114c-.263-1.562-.963-2.122-1.757-2.601-.798-.489-1.591-.967-2.219-2.462.154-.354 1.274.281 2.162.836-2.168-1.85-.545-2.94-2.909-4.595.946.127 1.908.273 2.883.439-1.551-1.705-4.359-3.655-2.409-3.938-2.12-.763-4.339-2.405-6.787-3.969-2.422-1.58-5.059-3.097-7.519-3.771l.957-1.109c-.782.066-1.719-.135-2.713-.505-1.015-.329-2.094-.824-3.209-1.218-.557-.2-1.111-.395-1.653-.565-.547-.153-1.085-.27-1.593-.35-1.008-.174-1.924-.096-2.587.269l-.231-.66c-1.827.221-3.611.56-5.334.989-2.215-.409-1.291-2.457-1.518-1.888-5.169-.062-9.078.558-12.471.437-.111.513-.514.994-1.105 1.444-.589.46-1.355.937-2.229 1.369-1.725.931-3.839 1.855-5.63 2.835-4.601 1.729-8.888 4.547-12.495 8.029-1.793 1.753-3.436 3.659-4.883 5.689-1.433 2.042-2.685 4.19-3.756 6.4-1.05 2.222-1.904 4.507-2.595 6.806-.663 2.309-1.145 4.633-1.469 6.937-.592 4.622-.556 9.152.066 13.382.038 1.269.676 2.758 1.454 4.244l1.266 2.219c.447.729.868 1.446 1.21 2.146-.02-.926-.1-1.626-.215-2.22-.105-.594-.22-1.082-.367-1.568-.3-.969-.601-1.947-.682-3.763.221-1.373.835-2.298 1.59-3.132.722-.838 1.585-1.588 2.281-2.62-.565.321-1.133.654-1.701 1.001-.542-1.817-.23-2.424.005-2.913.233-.498.4-.882-.17-2.407l2.566.55c-.292-.288-.42-.645-.433-1.03.004-.381.125-.787.306-1.179.345-.789 1.005-1.489 1.45-1.867-.509-.435-1.024-.883-1.522-1.338 1.572-1.823 2.47-2.962 4.217-2.957l-1.624-.409c.633-.186 1.351-2.071 2.215-3.429.904-1.347 1.79-2.153 2.47-.422-.074-.689-.525-1.567.293-2.585l1.508.717c.566-1.737 1.565-3.537 2.611-3.338-.291.98.111 1.668.527 2.344 1.1-1.372 1.511-2.273 1.527-3.032.004-.766-.379-1.356-.79-1.938-.41-.587-.848-1.165-.876-1.925-.033-.763.369-1.712 1.704-2.909l.634.869c.211-.655.407-1.362.669-2.009.791-.012 1.533-.052 2.306-.002-.036-2.224 2.253-3.543 4.849-4.35 2.624-.84 5.462-1.117 7.393-2.432.401-.173.875-.133 1.387-.056.514.082 1.07.235 1.664.437.594.192 1.219.354 1.886.52.664.139 1.367.208 2.135.187l-.164-1.656c1.285.83 4.234 1.747 6.776 3.385 2.565 1.589 4.632 3.828 4.717 5.986 2.43-.236-.04-.402.546-1.574.564.04 1.055.114 1.478.216.415.121.76.275 1.05.443.589.323.919.784 1.153 1.248.474.923.474 2.045 1.064 3.045 1.253.438.973.027.583-.533-.38-.561-.913-1.206.033-1.325 1.279 1.684 2.18 1.824 3.277 2.046 1.048.252 2.32.585 3.69 2.905-.344 1.001-1.372-.567-2.198-.486 1.86.663 3.764 2.557 5.38 4.929 1.633 2.372 2.97 5.185 4.202 7.669.696 3.146 1.485 6.983 1.646 10.994.201 3.994-.24 8.074-1.356 11.411l.58.192c-.466.677-.744 1.371-.972 2.084-.195.719-.346 1.451-.465 2.21-.261 1.505-.504 3.114-1.397 4.533.465-.397.918-.813 1.349-1.253z" clip-rule="evenodd"/>
    </g>
    <path fill="#E5EAEB" fill-rule="evenodd" d="M117 136.329L115.878 135c-.68.433-1.338.91-1.983 1.413-.649.484-1.285.98-1.895 1.528 1.029.172 1.664-.049 2.353-.441.679-.41 1.435-.911 2.647-1.171zM117.293 140c.555-.34 1.117-.699 1.707-1-.513.116-1.014.266-1.512.423-.498.157-1.004.289-1.488.479.429.011.864.055 1.293.098zM86.42 180l.271-.55c-.258-2.776-.279-5.602-.046-8.45-.36 3.019-.426 6.032-.226 9zM105.612 231.478c-1.336-.047-2.412-1.154-3.612-1.478.644.368 1.316.703 1.986 1.034.669.33 1.324.67 2.014.966l-.388-.522z" clip-rule="evenodd"/>
    <mask id="prefix__g" width="4" height="4" x="144" y="245" maskUnits="userSpaceOnUse">
        <path fill="#fff" fill-rule="evenodd" d="M144.598 245.234h2.916v2.769h-2.916v-2.769z" clip-rule="evenodd"/>
    </mask>
    <g mask="url(#prefix__g)">
        <path fill="#E5EAEB" fill-rule="evenodd" d="M145.114 248.003c1.569-3.175 4.005-.696.906-2.769-3.031 1.022-.156 1.662-.906 2.769z" clip-rule="evenodd"/>
    </g>
    <path fill="#E5EAEB" fill-rule="evenodd" d="M155 241c-1.537.516-2.25 1.227-3 1.888 1.209.273 1.736.013 2.064-.407.329-.418.47-1.003.936-1.481z" clip-rule="evenodd"/>
    <path fill="#03363D" fill-rule="evenodd" d="M129.665 183.212c1.524-1.499 2.379-3.531 2.379-5.65h-16.261c.007 4.416 3.649 7.991 8.139 7.989 2.154 0 4.22-.841 5.743-2.339zm2.379 20.589v-19.313l-16.261 19.313h16.261zm2.678 0c0-2.854 1.548-5.491 4.061-6.918 2.513-1.427 5.609-1.427 8.121 0 2.513 1.427 4.061 4.064 4.061 6.918h-16.243zm0-26.239v19.313l16.261-19.313h-16.261z" clip-rule="evenodd"/>
    <path fill="#EBEEF4" fill-rule="evenodd" d="M344.868 168.093c11.515 24.774 3.001 53.099-19.018 63.265-22.017 10.165-49.202-1.677-60.717-26.451-11.517-24.774-3.002-53.099 19.017-63.265 22.018-10.165 49.202 1.677 60.718 26.451zM345.941 167.734c1.23.946 1.139-.813.942-2.414-.946-.13-1.926-.229-2.883-.32.71.884 1.293 1.821 1.941 2.734z" clip-rule="evenodd"/>
    <path fill="#EBEEF4" fill-rule="evenodd" d="M342 160.219l-2.168-1.17c-.729-.368-1.471-.711-2.193-1.049.9.598 1.827 1.202 2.698 1.87.472 1.781-.121 1.999-.936 1.712-.826-.285-1.842-1.106-2.401-1.468 1.767 2.055 2.599 2.129 3.224 1.628.617-.488.972-1.544 1.776-1.523zM335.943 155.255c-1.64-2.556-2.202-.634-1.836.718.57-.368 2.22.659 1.836-.718zM279 231c-.319-.8-.717-1.658-.49-1.906-.628-.262-.889-.083.49 1.906zM278.169 228.458c.2.052.417.104.662.179-.178-.093-.318-.183-.533-.274-.082.012-.082.066-.129.095z" clip-rule="evenodd"/>
    <mask id="prefix__h" width="98" height="104" x="255" y="138" maskUnits="userSpaceOnUse">
        <path fill="#fff" fill-rule="evenodd" d="M255 138.516h97.558v102.89H255v-102.89z" clip-rule="evenodd"/>
    </mask>
    <g mask="url(#prefix__h)">
        <path fill="#EBEEF4" fill-rule="evenodd" d="M272.37 180.516c-.933-2.258-.151-3.461-.214-5.563.627-.28 1.272-.537 1.924-.773-.052-1.112-.342-1.439-.686-1.699-.35-.267-.758-.465-.975-1.388.403-.424.762-.992 1.028-1.648.316-.631.533-1.358.78-2.032.456-1.368.857-2.631 1.12-3.032.515-.098.655.217.707.605.057.395.048.882.195 1.126.633-2.442-.91-3.193.934-5.881l.41.234c1.274-3.803 4.3-7.356 8.184-9.902 3.905-2.596 8.501-4.185 13.088-5.24-.638-.047-.507-.42-.785-.75 5.01-.762 10.622-.182 15.933 1.112 5.347 1.268 10.383 3.198 15.243 4.514-2.553-1.81-5.714-4.688-9.503-6.766-1.873-1.059-3.895-1.856-5.863-2.323-1.979-.425-3.909-.5-5.59-.017-.509-.426-1.151-.631-1.821-.759-.67-.143-1.372-.153-2.029-.17-1.313-.073-2.438-.035-2.919-.949-4.601-.373-7.829.763-10.61 2.246-2.802 1.518-5.259 3.305-8.771 5.425-1.159.381-1.139-.648-1.878-1.141 1.772-1.485 3.699-2.838 5.773-3.978-1.414.334-2.817.76-4.205 1.263.311-.416.843-.795 1.446-1.185.598-.403 1.287-.769 1.942-1.12.644-.371 1.254-.72 1.712-1.063.454-.353.746-.732.75-1.146-2.791 1.922-6.481 3.771-9.711 6.222-3.214 2.428-5.921 5.387-6.772 8.163 1.892-1.674 3.777-4.222 6.248-5.928.699-.165 1.499-.467 2.179-.606.694-.122 1.243-.107 1.417.278-2.74 3.192-5.06 5.83-7.296 8.647-2.176 2.833-4.21 5.913-5.416 9.768-.601 1.921-1.561 4.455-2.405 4.583.085-1.385-.848-.59-.885-1.789-.131 1.528.621 1.807 1.139 2.193.542.393.87.87.28 2.827-.9-.365-1.796-.743-2.69-1.131 1.279 1.166.922 2.374.423 3.794-.487 1.405-1.102 3.055-.263 4.615-1.181 1.068-1.826-1.007-1.651-3.443-.752 2.711.922 3.062.839 5.186-.838-.682-1.596-1.395-2.395-2.145.564.625.799 1.187.846 1.715.058.528-.092 1.022-.34 1.494-.516.942-1.321 1.805-1.691 2.527.302.063.901-.255 1.428-.206.53.05.957.45 1.045 1.919-.187 1.295-.865.722-1.179 1.062.63.099 1.834 1.021 2.234 2.897-.744.502-1.45-1.061-2.278-1.076.119.748.319 1.409.395 2.039.077.632.061 1.228-.133 1.839 1.28 2.45 1.113-.43 2.347.925.241 1.995-.392 2.305-1.278 2.331-.878.03-1.997-.254-2.614.752-2.084-2.798-3.207-7.019-4.052-8.74.516 2.121 1.083 4.215 1.822 6.241-.507-.082-.678 1.085-.873 1.891-.193.8-.5 1.265-1.41-.325.401 3.347 1.662 6.887 3.39 10.107 1.718 3.232 3.894 6.152 5.961 8.561-.237-.916-.647-2-.036-2.159 2.196 2.381 1.045 2.721.84 3.687 1.987 1.555 3.114.365 4.974.696.461 1.14.904 1.993 1.332 2.678.419.696.791 1.254 1.167 1.779.372.532.706 1.071 1.061 1.737.369.653.733 1.458 1.174 2.54l.916-1.4c.658 1.441 1.479 1.8 2.37 2.058.898.266 1.788.523 2.781 1.804-.057.382-1.303.058-2.305-.248 2.573 1.226 1.287 2.698 3.999 3.686-.947.122-1.913.229-2.899.322 1.941 1.245 5.157 2.402 3.348 3.18 2.245.189 4.813 1.2 7.582 2.078 2.749.898 5.689 1.681 8.239 1.696l-.638 1.319c.739-.267 1.696-.315 2.752-.215 1.065.056 2.236.254 3.415.346.589.049 1.175.094 1.743.118.567.007 1.118-.02 1.628-.074 1.02-.093 1.884-.406 2.43-.929l.394.577c1.708-.686 3.343-1.476 4.896-2.336 2.245-.178 1.883 2.04 1.955 1.431 5.009-1.278 8.625-2.889 11.933-3.65-.025-.524.239-1.093.694-1.681.45-.596 1.066-1.256 1.798-1.898 1.426-1.346 3.229-2.786 4.705-4.197 3.997-2.86 7.408-6.692 9.991-10.988 1.278-2.159 2.372-4.424 3.245-6.76.855-2.343 1.509-4.742 1.971-7.154.439-2.418.673-4.846.745-7.245.043-2.402-.094-4.772-.377-7.081-.624-4.618-1.831-8.984-3.527-12.909-.365-1.216-1.367-2.49-2.503-3.723l-1.797-1.816c-.62-.589-1.212-1.172-1.723-1.76.259.889.516 1.545.781 2.089.256.546.493.988.761 1.419.54.859 1.084 1.725 1.632 3.459.142 1.383-.212 2.435-.725 3.437-.481.996-1.12 1.943-1.526 3.121.464-.457.926-.925 1.385-1.407.993 1.614.849 2.282.749 2.814-.096.542-.158.956.787 2.282l-2.621.132c.357.203.573.515.685.883.094.369.083.793.01 1.218-.129.851-.586 1.698-.918 2.179.604.288 1.218.588 1.817.898-1.047 2.168-1.62 3.501-3.308 3.949l1.674-.026c-.563.344-.769 2.35-1.252 3.885-.525 1.535-1.172 2.543-2.276 1.047.249.646.912 1.378.385 2.573l-1.641-.303c-.098 1.825-.596 3.822-1.658 3.901.026-1.022-.539-1.582-1.117-2.128-.707 1.61-.871 2.587-.689 3.323.194.742.716 1.213 1.264 1.669.548.46 1.121.905 1.344 1.632.23.729.087 1.749-.892 3.251l-.838-.675c-.034.687-.041 1.42-.126 2.114-.761.216-1.468.447-2.227.598.61 2.139-1.26 4.005-3.558 5.457-2.317 1.49-4.987 2.492-6.512 4.263-.342.27-.81.355-1.325.412-.518.055-1.094.051-1.721.009-.622-.032-1.268-.026-1.955-.014-.678.037-1.375.153-2.112.372l.587 1.557c-1.455-.469-4.541-.591-7.42-1.516-2.889-.871-5.466-2.498-6.106-4.561-2.286.857.143.378-.12 1.662-.555.107-1.049.162-1.484.174-.432-.01-.805-.069-1.129-.156-.652-.16-1.09-.52-1.437-.908-.696-.769-.987-1.852-1.815-2.666-1.323-.098-.947.226-.425.666.512.444 1.193.929.311 1.289-1.672-1.296-2.578-1.198-3.695-1.128-1.077.027-2.392.035-4.317-1.852.074-1.056 1.473.193 2.249-.099-1.968-.158-4.297-1.495-6.471-3.369-2.192-1.868-4.212-4.239-6.044-6.32-1.487-2.858-3.242-6.36-4.435-10.193-1.229-3.806-1.859-7.861-1.644-11.373l-.61-.036c.275-.774.363-1.516.4-2.264.001-.745-.042-1.491-.123-2.255-.138-1.521-.32-3.139.175-4.74-.346.504-.676 1.023-.978 1.559z" clip-rule="evenodd"/>
    </g>
    <path fill="#EBEEF4" fill-rule="evenodd" d="M289 136.329L287.878 135c-.68.433-1.338.91-1.982 1.413-.649.484-1.286.98-1.896 1.528 1.03.172 1.665-.049 2.354-.441.679-.41 1.435-.911 2.646-1.171zM289.293 140c.555-.34 1.117-.699 1.707-1-.512.116-1.013.266-1.512.423-.497.157-1.004.289-1.488.479.429.011.865.055 1.293.098zM258.42 180l.272-.55c-.258-2.776-.279-5.602-.046-8.45-.361 3.019-.426 6.032-.226 9zM277.613 231.478c-1.336-.047-2.412-1.154-3.613-1.478.644.368 1.316.703 1.986 1.034.669.33 1.324.67 2.014.966l-.387-.522z" clip-rule="evenodd"/>
    <mask id="prefix__i" width="4" height="3" x="316" y="245" maskUnits="userSpaceOnUse">
        <path fill="#fff" fill-rule="evenodd" d="M316.598 245.23h2.916v2.769h-2.916v-2.769z" clip-rule="evenodd"/>
    </mask>
    <g mask="url(#prefix__i)">
        <path fill="#EBEEF4" fill-rule="evenodd" d="M317.114 247.999c1.569-3.175 4.005-.696.906-2.769-3.031 1.022-.156 1.662-.906 2.769z" clip-rule="evenodd"/>
    </g>
    <path fill="#EBEEF4" fill-rule="evenodd" d="M327 241c-1.536.516-2.249 1.227-3 1.888 1.209.273 1.737.013 2.064-.407.33-.418.471-1.003.936-1.481z" clip-rule="evenodd"/>
    <path fill="#3C5A99" d="M312.239 205.117V193.95h3.748l.561-4.352h-4.309v-2.778c0-1.26.35-2.119 2.157-2.119l2.304-.001v-3.892c-.399-.053-1.766-.172-3.358-.172-3.322 0-5.597 2.028-5.597 5.753v3.209h-3.758v4.352h3.758v11.167h-13.811c-.879 0-1.591-.713-1.591-1.592v-25.652c0-.879.712-1.592 1.591-1.592h25.653c.879 0 1.591.713 1.591 1.592v25.652c0 .879-.712 1.592-1.591 1.592h-7.348z"/>
    <path fill="#E5F8E5" fill-rule="evenodd" d="M525.868 168.093c11.515 24.774 3.001 53.099-19.018 63.265-22.017 10.165-49.202-1.677-60.717-26.451-11.517-24.774-3.002-53.099 19.017-63.265 22.018-10.165 49.202 1.677 60.718 26.451zM526.941 167.734c1.23.946 1.139-.813.942-2.414-.946-.13-1.926-.229-2.883-.32.71.884 1.293 1.821 1.941 2.734z" clip-rule="evenodd"/>
    <path fill="#E5F8E5" fill-rule="evenodd" d="M523 160.219l-2.168-1.17c-.729-.368-1.471-.711-2.193-1.049.9.598 1.827 1.202 2.698 1.87.472 1.781-.121 1.999-.936 1.712-.826-.285-1.842-1.106-2.401-1.468 1.767 2.055 2.599 2.129 3.224 1.628.617-.488.972-1.544 1.776-1.523zM516.943 155.255c-1.64-2.556-2.202-.634-1.836.718.57-.368 2.22.659 1.836-.718zM460 231c-.319-.8-.717-1.658-.49-1.906-.628-.262-.889-.083.49 1.906zM459.169 228.458c.2.052.417.104.662.179-.178-.093-.318-.183-.533-.274-.082.012-.082.066-.129.095z" clip-rule="evenodd"/>
    <mask id="prefix__j" width="98" height="104" x="436" y="138" maskUnits="userSpaceOnUse">
        <path fill="#fff" fill-rule="evenodd" d="M436 138.516h97.558v102.89H436v-102.89z" clip-rule="evenodd"/>
    </mask>
    <g mask="url(#prefix__j)">
        <path fill="#E5F8E5" fill-rule="evenodd" d="M453.37 180.516c-.933-2.258-.151-3.461-.214-5.563.627-.28 1.272-.537 1.924-.773-.052-1.112-.342-1.439-.686-1.699-.35-.267-.758-.465-.975-1.388.403-.424.762-.992 1.028-1.648.316-.631.533-1.358.78-2.032.456-1.368.857-2.631 1.12-3.032.515-.098.655.217.707.605.057.395.048.882.195 1.126.633-2.442-.91-3.193.934-5.881l.41.234c1.274-3.803 4.3-7.356 8.184-9.902 3.905-2.596 8.501-4.185 13.088-5.24-.638-.047-.507-.42-.785-.75 5.01-.762 10.622-.182 15.933 1.112 5.347 1.268 10.383 3.198 15.243 4.514-2.553-1.81-5.714-4.688-9.503-6.766-1.873-1.059-3.895-1.856-5.863-2.323-1.979-.425-3.909-.5-5.59-.017-.509-.426-1.151-.631-1.821-.759-.67-.143-1.372-.153-2.029-.17-1.313-.073-2.438-.035-2.919-.949-4.601-.373-7.829.763-10.61 2.246-2.802 1.518-5.259 3.305-8.771 5.425-1.159.381-1.139-.648-1.878-1.141 1.772-1.485 3.699-2.838 5.773-3.978-1.414.334-2.817.76-4.205 1.263.311-.416.843-.795 1.446-1.185.598-.403 1.287-.769 1.942-1.12.644-.371 1.254-.72 1.712-1.063.454-.353.746-.732.75-1.146-2.791 1.922-6.481 3.771-9.711 6.222-3.214 2.428-5.921 5.387-6.772 8.163 1.892-1.674 3.777-4.222 6.248-5.928.699-.165 1.499-.467 2.179-.606.694-.122 1.243-.107 1.417.278-2.74 3.192-5.06 5.83-7.296 8.647-2.176 2.833-4.21 5.913-5.416 9.768-.601 1.921-1.561 4.455-2.405 4.583.085-1.385-.848-.59-.885-1.789-.131 1.528.621 1.807 1.139 2.193.542.393.87.87.28 2.827-.9-.365-1.796-.743-2.69-1.131 1.279 1.166.922 2.374.423 3.794-.487 1.405-1.102 3.055-.263 4.615-1.181 1.068-1.826-1.007-1.651-3.443-.752 2.711.922 3.062.839 5.186-.838-.682-1.596-1.395-2.395-2.145.564.625.799 1.187.846 1.715.058.528-.092 1.022-.34 1.494-.516.942-1.321 1.805-1.691 2.527.302.063.901-.255 1.428-.206.53.05.957.45 1.045 1.919-.187 1.295-.865.722-1.179 1.062.63.099 1.834 1.021 2.234 2.897-.744.502-1.45-1.061-2.278-1.076.119.748.319 1.409.395 2.039.077.632.061 1.228-.133 1.839 1.28 2.45 1.113-.43 2.347.925.241 1.995-.392 2.305-1.278 2.331-.878.03-1.997-.254-2.614.752-2.084-2.798-3.207-7.019-4.052-8.74.516 2.121 1.083 4.215 1.822 6.241-.507-.082-.678 1.085-.873 1.891-.193.8-.5 1.265-1.41-.325.401 3.347 1.662 6.887 3.39 10.107 1.718 3.232 3.894 6.152 5.961 8.561-.237-.916-.647-2-.036-2.159 2.196 2.381 1.045 2.721.84 3.687 1.987 1.555 3.114.365 4.974.696.461 1.14.904 1.993 1.332 2.678.419.696.791 1.254 1.167 1.779.372.532.706 1.071 1.061 1.737.369.653.733 1.458 1.174 2.54l.916-1.4c.658 1.441 1.479 1.8 2.37 2.058.898.266 1.788.523 2.781 1.804-.057.382-1.303.058-2.305-.248 2.573 1.226 1.287 2.698 3.999 3.686-.947.122-1.913.229-2.899.322 1.941 1.245 5.157 2.402 3.348 3.18 2.245.189 4.813 1.2 7.582 2.078 2.749.898 5.689 1.681 8.239 1.696l-.638 1.319c.739-.267 1.696-.315 2.752-.215 1.065.056 2.236.254 3.415.346.589.049 1.175.094 1.743.118.567.007 1.118-.02 1.628-.074 1.02-.093 1.884-.406 2.43-.929l.394.577c1.708-.686 3.343-1.476 4.896-2.336 2.245-.178 1.883 2.04 1.955 1.431 5.009-1.278 8.625-2.889 11.933-3.65-.025-.524.239-1.093.694-1.681.45-.596 1.066-1.256 1.798-1.898 1.426-1.346 3.229-2.786 4.705-4.197 3.997-2.86 7.408-6.692 9.991-10.988 1.278-2.159 2.372-4.424 3.245-6.76.855-2.343 1.509-4.742 1.971-7.154.439-2.418.673-4.846.745-7.245.043-2.402-.094-4.772-.377-7.081-.624-4.618-1.831-8.984-3.527-12.909-.365-1.216-1.367-2.49-2.503-3.723l-1.797-1.816c-.62-.589-1.212-1.172-1.723-1.76.259.889.516 1.545.781 2.089.256.546.493.988.761 1.419.54.859 1.084 1.725 1.632 3.459.142 1.383-.212 2.435-.725 3.437-.481.996-1.12 1.943-1.526 3.121.464-.457.926-.925 1.385-1.407.993 1.614.849 2.282.749 2.814-.096.542-.158.956.787 2.282l-2.621.132c.357.203.573.515.685.883.094.369.083.793.01 1.218-.129.851-.586 1.698-.918 2.179.604.288 1.218.588 1.817.898-1.047 2.168-1.62 3.501-3.308 3.949l1.674-.026c-.563.344-.769 2.35-1.252 3.885-.525 1.535-1.172 2.543-2.276 1.047.249.646.912 1.378.385 2.573l-1.641-.303c-.098 1.825-.596 3.822-1.658 3.901.026-1.022-.539-1.582-1.117-2.128-.707 1.61-.871 2.587-.689 3.323.194.742.716 1.213 1.264 1.669.548.46 1.121.905 1.344 1.632.23.729.087 1.749-.892 3.251l-.838-.675c-.034.687-.041 1.42-.126 2.114-.761.216-1.468.447-2.227.598.61 2.139-1.26 4.005-3.558 5.457-2.317 1.49-4.987 2.492-6.512 4.263-.342.27-.81.355-1.325.412-.518.055-1.094.051-1.721.009-.622-.032-1.268-.026-1.955-.014-.678.037-1.375.153-2.112.372l.587 1.557c-1.455-.469-4.541-.591-7.42-1.516-2.889-.871-5.466-2.498-6.106-4.561-2.286.857.143.378-.12 1.662-.555.107-1.049.162-1.484.174-.432-.01-.805-.069-1.129-.156-.652-.16-1.09-.52-1.437-.908-.696-.769-.987-1.852-1.815-2.666-1.323-.098-.947.226-.425.666.512.444 1.193.929.311 1.289-1.672-1.296-2.578-1.198-3.695-1.128-1.077.027-2.392.035-4.317-1.852.074-1.056 1.473.193 2.249-.099-1.968-.158-4.297-1.495-6.471-3.369-2.192-1.868-4.212-4.239-6.044-6.32-1.487-2.858-3.242-6.36-4.435-10.193-1.229-3.806-1.859-7.861-1.644-11.373l-.61-.036c.275-.774.363-1.516.4-2.264.001-.745-.042-1.491-.123-2.255-.138-1.521-.32-3.139.175-4.74-.346.504-.676 1.023-.978 1.559z" clip-rule="evenodd"/>
    </g>
    <path fill="#E5F8E5" fill-rule="evenodd" d="M470 136.329L468.878 135c-.68.433-1.338.91-1.982 1.413-.649.484-1.286.98-1.896 1.528 1.03.172 1.665-.049 2.354-.441.679-.41 1.435-.911 2.646-1.171zM470.293 140c.555-.34 1.117-.699 1.707-1-.512.116-1.013.266-1.512.423-.497.157-1.004.289-1.488.479.429.011.865.055 1.293.098zM439.42 180l.272-.55c-.258-2.776-.279-5.602-.046-8.45-.361 3.019-.426 6.032-.226 9zM458.613 231.478c-1.336-.047-2.412-1.154-3.613-1.478.644.368 1.316.703 1.986 1.034.669.33 1.324.67 2.014.966l-.387-.522z" clip-rule="evenodd"/>
    <mask id="prefix__k" width="4" height="3" x="497" y="245" maskUnits="userSpaceOnUse">
        <path fill="#fff" fill-rule="evenodd" d="M497.598 245.23h2.916v2.769h-2.916v-2.769z" clip-rule="evenodd"/>
    </mask>
    <g mask="url(#prefix__k)">
        <path fill="#E5F8E5" fill-rule="evenodd" d="M498.114 247.999c1.569-3.175 4.005-.696.906-2.769-3.031 1.022-.156 1.662-.906 2.769z" clip-rule="evenodd"/>
    </g>
    <path fill="#E5F8E5" fill-rule="evenodd" d="M508 241c-1.536.516-2.249 1.227-3 1.888 1.209.273 1.737.013 2.064-.407.33-.418.471-1.003.936-1.481z" clip-rule="evenodd"/>
    <path fill="#00B900" fill-rule="evenodd" d="M508.187 188.301c0 3.218-1.251 6.116-3.863 8.972h.001c-3.781 4.339-12.237 9.624-14.16 10.432-1.87.786-1.654-.442-1.568-.929l.007-.039.257-1.539c.061-.458.124-1.17-.058-1.624-.202-.5-1.001-.76-1.588-.886-8.661-1.142-15.072-7.179-15.072-14.387 0-8.041 8.085-14.582 18.022-14.582 9.938 0 18.022 6.541 18.022 14.582zm-21.684-3.887h-1.264c-.194 0-.351.157-.351.349v7.83c0 .193.157.349.351.349h1.264c.194 0 .351-.156.351-.349v-7.83c0-.193-.158-.349-.351-.349zm7.437 0h1.264c.093 0 .182.036.248.102.066.065.103.154.103.247v7.83c0 .192-.157.349-.351.349h-1.264c-.031 0-.061-.005-.09-.012l-.005-.001-.024-.008-.01-.004-.006-.002-.002-.001-.01-.004c-.005-.002-.011-.005-.016-.009l-.01-.004-.022-.014c-.036-.023-.068-.054-.093-.089l-3.602-4.851v4.65c0 .193-.158.349-.352.349h-1.264c-.193 0-.351-.156-.351-.349v-7.83c0-.192.158-.349.351-.349h1.264l.013.001.018.001h.001l.017.002.015.002.02.004.012.004.013.003.008.003.012.004.02.009.011.005.011.007.008.004.01.006.012.008.007.005.009.007.018.015.007.006.021.022.003.001.027.037 3.598 4.845v-4.652c0-.192.158-.349.351-.349zm-10.484 6.569h-3.435v-6.217c0-.194-.157-.351-.35-.351h-1.266c-.193 0-.351.157-.351.35v7.829c0 .095.038.179.099.242l.004.005.006.005c.063.061.148.098.242.098h5.051c.194 0 .351-.158.351-.35v-1.261c0-.093-.037-.182-.103-.247-.066-.066-.155-.103-.248-.103zm19.08-4.957c0 .194-.157.35-.351.35h-3.434v1.323h3.434c.194 0 .351.157.351.35v1.261c0 .193-.157.35-.351.35h-3.434v1.323h3.434c.194 0 .351.157.351.35v1.261c0 .192-.157.35-.351.35h-5.05c-.094 0-.18-.038-.243-.098-.069-.065-.108-.157-.108-.252v-7.829c0-.093.037-.182.103-.247l.004-.004c.063-.061.149-.099.244-.099h5.05c.093 0 .183.037.248.103.066.065.103.155.103.248v1.26z" clip-rule="evenodd"/>
    <path fill="#E8F5FD" fill-rule="evenodd" d="M704.868 168.093c11.515 24.774 3.001 53.099-19.018 63.265-22.017 10.165-49.202-1.677-60.717-26.451-11.517-24.774-3.002-53.099 19.017-63.265 22.018-10.165 49.202 1.677 60.718 26.451zM705.941 167.734c1.23.946 1.139-.813.942-2.414-.946-.13-1.926-.229-2.883-.32.71.884 1.293 1.821 1.941 2.734z" clip-rule="evenodd"/>
    <path fill="#E8F5FD" fill-rule="evenodd" d="M702 160.219l-2.168-1.17c-.729-.368-1.471-.711-2.193-1.049.9.598 1.827 1.202 2.698 1.87.472 1.781-.121 1.999-.936 1.712-.826-.285-1.842-1.106-2.401-1.468 1.767 2.055 2.599 2.129 3.224 1.628.617-.488.972-1.544 1.776-1.523zM695.943 155.255c-1.64-2.556-2.202-.634-1.836.718.57-.368 2.22.659 1.836-.718zM639 231c-.319-.8-.717-1.658-.49-1.906-.628-.262-.889-.083.49 1.906zM638.169 228.458c.2.052.417.104.662.179-.178-.093-.318-.183-.533-.274-.082.012-.082.066-.129.095z" clip-rule="evenodd"/>
    <mask id="prefix__l" width="98" height="104" x="615" y="138" maskUnits="userSpaceOnUse">
        <path fill="#fff" fill-rule="evenodd" d="M713 241.484h-97.558v-102.89H713v102.89z" clip-rule="evenodd"/>
    </mask>
    <g mask="url(#prefix__l)">
        <path fill="#E8F5FD" fill-rule="evenodd" d="M695.63 199.484c.933 2.258.151 3.461.214 5.563-.627.28-1.272.537-1.924.773.052 1.112.342 1.439.686 1.699.35.267.758.465.975 1.388-.403.424-.762.992-1.028 1.648-.316.631-.533 1.358-.78 2.032-.456 1.368-.857 2.631-1.12 3.032-.515.098-.655-.217-.707-.605-.057-.395-.048-.882-.195-1.126-.633 2.442.91 3.193-.934 5.881l-.41-.234c-1.274 3.803-4.3 7.356-8.184 9.902-3.905 2.596-8.501 4.185-13.088 5.24.638.047.507.42.785.75-5.01.762-10.622.182-15.933-1.112-5.347-1.268-10.383-3.198-15.243-4.514 2.553 1.81 5.714 4.688 9.503 6.766 1.873 1.059 3.895 1.856 5.863 2.323 1.979.425 3.909.5 5.59.017.509.426 1.151.631 1.821.759.67.143 1.372.153 2.029.17 1.313.073 2.438.035 2.919.949 4.601.373 7.829-.763 10.61-2.246 2.802-1.518 5.259-3.305 8.771-5.425 1.159-.381 1.139.648 1.878 1.141-1.772 1.485-3.699 2.838-5.773 3.978 1.414-.334 2.817-.76 4.205-1.263-.311.416-.843.795-1.446 1.185-.598.403-1.287.769-1.942 1.12-.644.371-1.254.72-1.712 1.063-.454.353-.746.732-.75 1.146 2.791-1.922 6.481-3.771 9.711-6.222 3.214-2.428 5.921-5.387 6.772-8.163-1.892 1.674-3.777 4.222-6.248 5.928-.699.165-1.499.467-2.179.606-.694.122-1.243.107-1.417-.278 2.74-3.192 5.06-5.83 7.296-8.647 2.176-2.833 4.21-5.913 5.416-9.768.601-1.921 1.561-4.455 2.405-4.583-.085 1.385.848.59.885 1.789.131-1.528-.621-1.807-1.139-2.193-.542-.393-.87-.87-.28-2.827.9.365 1.796.743 2.69 1.131-1.279-1.166-.922-2.374-.423-3.794.487-1.405 1.102-3.055.263-4.615 1.181-1.068 1.826 1.007 1.651 3.443.752-2.711-.922-3.062-.839-5.186.838.682 1.596 1.395 2.395 2.145-.564-.625-.799-1.187-.846-1.715-.058-.528.092-1.022.34-1.494.516-.942 1.321-1.805 1.691-2.527-.302-.063-.901.255-1.428.206-.53-.05-.957-.45-1.045-1.919.187-1.295.865-.722 1.179-1.062-.63-.099-1.834-1.021-2.234-2.897.744-.502 1.45 1.061 2.278 1.076-.119-.748-.319-1.409-.395-2.039-.077-.632-.061-1.228.133-1.839-1.28-2.45-1.113.43-2.347-.925-.241-1.995.392-2.305 1.278-2.331.878-.03 1.997.254 2.614-.752 2.084 2.798 3.207 7.019 4.052 8.74-.516-2.121-1.083-4.215-1.822-6.241.507.082.678-1.085.873-1.891.193-.8.5-1.265 1.41.325-.401-3.347-1.662-6.887-3.39-10.107-1.718-3.232-3.894-6.152-5.961-8.561.237.916.647 2 .036 2.159-2.196-2.381-1.045-2.721-.84-3.687-1.987-1.555-3.114-.365-4.974-.696-.461-1.14-.904-1.993-1.332-2.678-.419-.696-.791-1.254-1.167-1.779-.372-.532-.706-1.071-1.061-1.737-.369-.653-.733-1.458-1.174-2.54l-.916 1.4c-.658-1.441-1.479-1.8-2.37-2.058-.898-.266-1.788-.523-2.781-1.804.057-.382 1.303-.058 2.305.248-2.573-1.226-1.287-2.698-3.999-3.686.947-.122 1.913-.229 2.899-.322-1.941-1.245-5.157-2.402-3.348-3.18-2.245-.189-4.813-1.2-7.582-2.078-2.749-.898-5.689-1.681-8.239-1.696l.638-1.319c-.739.267-1.696.315-2.752.215-1.065-.056-2.236-.254-3.415-.346-.589-.049-1.175-.094-1.743-.118-.567-.007-1.118.02-1.628.074-1.02.093-1.884.406-2.43.929l-.394-.577c-1.708.686-3.343 1.476-4.896 2.336-2.245.178-1.883-2.04-1.955-1.431-5.009 1.278-8.625 2.889-11.933 3.65.025.524-.239 1.093-.694 1.681-.45.596-1.066 1.256-1.798 1.898-1.426 1.346-3.229 2.786-4.705 4.197-3.997 2.86-7.408 6.692-9.991 10.988-1.278 2.159-2.372 4.424-3.245 6.76-.855 2.343-1.509 4.742-1.971 7.154-.439 2.418-.673 4.846-.745 7.245-.043 2.402.094 4.772.377 7.081.624 4.618 1.831 8.984 3.527 12.909.365 1.216 1.367 2.49 2.503 3.723l1.797 1.816c.62.589 1.212 1.172 1.723 1.76-.259-.889-.516-1.545-.781-2.089-.256-.546-.493-.988-.761-1.419-.54-.859-1.084-1.725-1.632-3.459-.142-1.383.212-2.435.725-3.437.481-.996 1.12-1.943 1.526-3.121-.464.457-.926.925-1.385 1.407-.993-1.614-.849-2.282-.749-2.814.096-.542.158-.956-.787-2.282l2.621-.132c-.357-.203-.573-.515-.685-.883-.094-.369-.083-.793-.01-1.218.129-.851.586-1.698.918-2.179-.604-.288-1.218-.588-1.817-.898 1.047-2.168 1.62-3.501 3.308-3.949l-1.674.026c.563-.344.769-2.35 1.252-3.885.525-1.535 1.172-2.543 2.276-1.047-.249-.646-.912-1.378-.385-2.573l1.641.303c.098-1.825.596-3.822 1.658-3.901-.026 1.022.539 1.582 1.117 2.128.707-1.61.871-2.587.689-3.323-.194-.742-.716-1.213-1.264-1.669-.548-.46-1.121-.905-1.344-1.632-.23-.729-.087-1.749.892-3.251l.838.675c.034-.687.041-1.42.126-2.114.761-.216 1.468-.447 2.227-.598-.61-2.139 1.26-4.005 3.558-5.457 2.317-1.49 4.987-2.492 6.512-4.263.342-.27.81-.355 1.325-.412.518-.055 1.094-.051 1.721-.009.622.032 1.268.026 1.955.014.678-.037 1.375-.153 2.112-.372l-.587-1.557c1.455.469 4.541.591 7.42 1.516 2.889.871 5.466 2.498 6.106 4.561 2.286-.857-.143-.378.12-1.662.555-.107 1.049-.162 1.484-.174.432.01.805.069 1.129.156.652.16 1.09.52 1.437.908.696.769.987 1.852 1.815 2.666 1.323.098.947-.226.425-.666-.512-.444-1.193-.929-.311-1.289 1.672 1.296 2.578 1.198 3.695 1.128 1.077-.027 2.392-.035 4.317 1.852-.074 1.056-1.473-.193-2.249.099 1.968.158 4.297 1.495 6.471 3.369 2.192 1.868 4.212 4.239 6.044 6.32 1.487 2.858 3.242 6.36 4.435 10.193 1.229 3.806 1.859 7.861 1.644 11.373l.61.036c-.275.774-.363 1.516-.4 2.264-.001.745.042 1.491.123 2.255.138 1.521.32 3.139-.175 4.74.346-.504.676-1.023.978-1.559z" clip-rule="evenodd"/>
    </g>
    <path fill="#E8F5FD" fill-rule="evenodd" d="M649 136.329L647.878 135c-.68.433-1.338.91-1.982 1.413-.649.484-1.286.98-1.896 1.528 1.03.172 1.665-.049 2.354-.441.679-.41 1.435-.911 2.646-1.171zM649.293 140c.555-.34 1.117-.699 1.707-1-.512.116-1.013.266-1.512.423-.497.157-1.004.289-1.488.479.429.011.865.055 1.293.098zM618.42 180l.272-.55c-.258-2.776-.279-5.602-.046-8.45-.361 3.019-.426 6.032-.226 9zM637.613 231.478c-1.336-.047-2.412-1.154-3.613-1.478.644.368 1.316.703 1.986 1.034.669.33 1.324.67 2.014.966l-.387-.522z" clip-rule="evenodd"/>
    <mask id="prefix__m" width="4" height="3" x="676" y="245" maskUnits="userSpaceOnUse">
        <path fill="#fff" fill-rule="evenodd" d="M676.599 245.23h2.916v2.769h-2.916v-2.769z" clip-rule="evenodd"/>
    </mask>
    <g mask="url(#prefix__m)">
        <path fill="#E8F5FD" fill-rule="evenodd" d="M677.115 247.999c1.569-3.175 4.005-.696.906-2.769-3.031 1.022-.156 1.662-.906 2.769z" clip-rule="evenodd"/>
    </g>
    <path fill="#E8F5FD" fill-rule="evenodd" d="M687 241c-1.536.516-2.249 1.227-3 1.888 1.209.273 1.737.013 2.064-.407.33-.418.471-1.003.936-1.481z" clip-rule="evenodd"/>
    <path fill="#1DA1F2" d="M659.794 209.441c16.955 0 26.226-14.234 26.226-26.576 0-.404-.008-.807-.026-1.207 1.8-1.319 3.364-2.964 4.598-4.837-1.652.744-3.429 1.245-5.293 1.471 1.903-1.157 3.364-2.986 4.053-5.167-1.781 1.07-3.753 1.848-5.853 2.267-1.682-1.815-4.077-2.951-6.729-2.951-5.09 0-9.218 4.183-9.218 9.34 0 .733.081 1.446.239 2.129-7.661-.39-14.455-4.107-19-9.759-.792 1.381-1.248 2.984-1.248 4.695 0 3.241 1.627 6.102 4.101 7.775-1.512-.047-2.932-.468-4.174-1.168-.002.039-.002.077-.002.119 0 4.524 3.178 8.301 7.396 9.157-.775.214-1.59.328-2.431.328-.593 0-1.171-.059-1.732-.168 1.173 3.711 4.576 6.412 8.611 6.487-3.155 2.506-7.13 3.998-11.449 3.998-.743 0-1.477-.042-2.199-.129 4.08 2.65 8.924 4.196 14.13 4.196"/>
    <path fill="#E5FBF0" fill-rule="evenodd" d="M264.384 37.852c11.025 23.752 2.873 50.91-18.208 60.656-21.081 9.746-47.108-1.607-58.132-25.36-11.026-23.752-2.874-50.91 18.207-60.656 21.081-9.746 47.108 1.607 58.133 25.36z" clip-rule="evenodd"/>
    <path fill="#E5FBF0" fill-rule="evenodd" d="M261.048 32.098c.016.09.102.21.146.314-.309-.235-.423-.363-.146-.314zM263.775 38c-.797-1.628-2.101-4.156-2.581-6l1.044 1.278c.394.521.81 1.115 1.164 1.708.683 1.194 1.035 2.41.373 3.014zM263.242 30c.284.666.542 1.34.806 2-1.128-.82-.282-.998-.806-2zM262.322 31.661l-.605.339c-.031-.674-.083-1.336-.144-2 .264.54.514 1.094.749 1.661zM188.446 55.703c.253-.28.54-.463.935-.39l-.935.39zM186.318 61c-.023.444.02.743.053 1-.117-.278-.125-.532-.053-1zM187.956 52.002l.096.495c-.094-.156-.139-.33-.096-.495zM216.79 12l2.271.81c-1.471.584-1.725-.316-2.271-.81zM188.544 88.2l.562-.064c-.005.209-.098.356-.562.064zM178.259 64.36c.283-.106.509-.1.689-.018-.019.126-.024.254-.05.378l-.639-.36zM187.028 47.925c-.02-.016-.031-.042-.053-.061l.378-.789c.066.447-.044.714-.325.85zM193.669 95c.076.301.098.63.008 1-.453-.483-.384-.884-.008-1zM186.402 62.562c-.005.014-.015.004-.019.018l-.012-.16c.017.053.013.093.031.142zM177.51 56c-.045.33-.065.64-.13 1-.177-.409-.075-.769.13-1zM216.79 11.66l-.747-.307c.327-.055.552.082.747.306zM256.563 28c-.461-.874-.289-1.453-.093-2 .124.667.174 1.33.093 2zM262.046 40.651l-.097-.303c.073.114.095.215.097.303zM264.108 66.352c-.134.118-.281.239-.463.312-.094-.271.161-.37.463-.312z" clip-rule="evenodd"/>
    <mask id="prefix__n" width="101" height="107" x="176" y="4" maskUnits="userSpaceOnUse">
        <path fill="#fff" fill-rule="evenodd" d="M176.543 4h99.487v107h-99.487V4z" clip-rule="evenodd"/>
    </mask>
    <g fill="#E5FBF0" fill-rule="evenodd" clip-rule="evenodd" mask="url(#prefix__n)">
        <path d="M250.117 95.622l-.055.268c.645-.163 1.314-.288 1.954-.501l.046-.279c-.638.213-1.298.356-1.945.512zM272.082 66c-.213-2.577 1.411-1.602 1.94-3 .304 2.125-1.198 1.377-1.94 3zm-35.94 31.492c2.367-.891-1.369-1.547.145-2.315l-1.225.285c1.857-1.475 1.6 1.11 2.994.489l-.926.408c-.619 1.223 1.593.451 1.932 1.258-.541.323-1.517.45-2.235.35-.717-.087-1.163-.296-.685-.475zM271.222 68c-.272-1.29.031-1.338.663-2 .296.325.022 1.352-.663 2zm-25.499 25.714c-.46-.618 1.734-1.448 2.339-1.362-.588-.77-1.972-.086-3.178.258-.178-.012-.442.03-.822.153.258-.014.531-.061.822-.153.527.04.431.605.569.914-.16.159-.315.328-.482.476.593-.115 1.177-.259 1.77-.39l-1.018.104zM226.062 94c.354.332.718.666 1.092 1 .637.003 1.273-.015 1.908-.022-1.031-.303-2.03-.619-3-.978zm-29.341-14.598c-.395-.603-.589-.669-.117-1.169-.005-.526-.537-.71-.542-1.233 1.116.69.379 1.497.659 2.402.103.159.216.342.341.598-.189-.203-.28-.402-.341-.598zM201.384 82c.389-.884-.167-1.627-.821-2.3-.64-.686-1.427-1.259-1.501-1.7.704.452 1.751 1.276 2.419 2.032.665.757.914 1.537-.097 1.968zm52.03 2.788c.247-.453-1.326-.555-2.085.212-.075-.41-.172-.836-.267-1.247.263.305.831.146 1.37-.1.542-.243 1.007-.618 1.137-.653 1.079.591.089.757-.155 1.788zm15.648-43.37l-.133 1.041c-.271.573-.637.317-.865.541-.028-1.145.312-2.776.998-1.583zm-1.413 11.748c.108.31.234.582.413.717l-.296.117c-.458-.35-.323-.604-.117-.834-.11-.339-.233-.73-.34-1.13-.933-.277-1.659 1.21-2.247 1.55.348-.676 1.309-1.262.766-2.238-.287.118-.473-.005-.485.587l-.159-1.302c1.304-1.49 1.776-.072 2.125 1.404.209.055.423.173.655.462.132.242-.117.447-.315.667zm-1.591-8.616c-1.137.318-2.638.345-1.702 2.28 1.216.032 1.168-.538 2.641.17.254-.706-.305-1.244-.46-1.576-.128.477.417 1.002-.381 1.17-.485-.746-.479-1.527-.098-2.044.399-.107.746-.256.892-.55-.363.043-.679.253-.892.55zm-1.996-1.434l.311.884 1.689-1-2 .116zm2 13.973c-.519-.396-1.023.647-.999.911l.999-.911zm2.576-.142l.424-.894c-.667.254-1.334.495-2 .725l1.576.169zm-5.685 15.229l-.789.935-.824.889c-.515-.643-.232-1.07.192-1.52.417-.453 1.025-.903 1.153-1.48.817.02.014.58.268 1.176zM246.136 88c-.25-.25.168-.895.79-1.367.615-.488 1.42-.848 2.136-.486-.629.365-1.314.724-1.885 1.01-.57.29-.99.562-1.041.843zm-50.074-11.968c.334.654.646 1.343 1 1.968-.304-.64-.569-1.335-.852-2l-.148.032zm-10.111-16.037c1.594.085 1.804-.943 1.768-2.097.006-1.176-.254-2.516.343-3.099-.486.09-1.179-.09-1.638.15-.46.24-.689.924-.134 2.717-.928-1.379-.612-2.045-.409-2.469.195-.43.26-.617-1.158-1.197.284.734.345 1.621.361 2.366.028.74-.018 1.343-.018 1.495-.204-.589-.426-1.172-.614-1.768-.738.82-.3 1.455.263 2.045.557.598 1.305 1.12 1.236 1.857zm1.842-35.81l-1.181.072 1.302-.257-.121.185.269-.015-1.039 1.395c-.335.47-.637.954-.961 1.435l.826-1.424.905-1.391zm-.731-1.192c.495-.525.944-1.06 1.466-1.547-.392.185-.776.382-1.148.59.42-.372.886-.714 1.33-1.055.448-.339.882-.675 1.352-.981-.11.898-.571 1.669-1.198 2.193-.583.543-1.298.86-1.802.8zm2-2.993c-.366.43-.543.611-.699.658-.444.314-.955.49-1.301.18.922-.88.9-.053 1.301-.18.268-.194.514-.42.699-.658zm16.187-17.565c-.032-.241-.201-.48-.44-.633-.275.038-.547.015-.747-.124.209-.116.507-.04.747.124.726-.094 1.569-.685 1.882-1.149-.475-.386-1.404.189-1.934.068.441-.947 1.933-.919 2.943-.983 1.017-.056 1.643-.22.535-1.738.408.087 1.241.126 1.901.312.662.185 1.128.454.839.868-1.809.3-4.877 1.991-5.726 3.255.016.205-.046.404-.301.565.016-.156.14-.353.301-.565zm16.813-3.61l.295-.65c.235.032.471.04.705.095-.336.159-.671.37-1 .554zm18 3.175c-.327-.183-.659-.354-1-.51l.796-.49.204 1zm-53 13c-.619.904-1.989 3.326-1.855 2.963-.317-.276-.073-.939.352-1.578.442-.631 1.096-1.216 1.503-1.385zm-6.016 12l-.519 1.49-.448 1.51c.866-.003.878-1.98.967-3zm5.093-13.643c-.371.145-.716.307-1.077.465.619-.692.92-.651 1.077-.465l.923-.357c-.424.876-.554 1.064-.647.983-.095-.084-.134-.439-.276-.626zM179.109 32l.034.987c.36 1.24 1.757 1.657.196 3.013-.072-.993-.16-2-.196-3.013-.085-.275-.113-.603-.034-.987zm4.953-1.274c-.655.916-1.173 1.391-1.756 1.804-.583.414-1.295.753-2.213 1.47-.321-2.221 2.003-2.435 2.834-2.035 1.132-1.25-.017-1.172-.023-1.965l1.158.726zm-3-.726c.44-.617 1.058-1.462 1.599-2.093.558-.63 1.099-1.03 1.401-.814-.629-.252-1.247.04-1.728.491-.46.454-.784 1.056-.864 1.36-.021.372-.152.608-.408 1.056zm33.022 63.04l-.122-.934.394.052c-.446-.36-.867-.77-1.294-1.15 1.149-.081 1.882.466 2.478 1.156.585.706 1.049 1.482 1.522 1.836-.936-.354-2.697-3.227-2.978-.96zM179.069 46c.513-.508.702-1.334.777-2.236.081-.903.108-1.889.216-2.69-.921-.448-2.039 1.224-1.855 3.201-.713 2.356 1.476.76.862 1.725zm.164 7.523l.229.477c.113-.668.276-1.339.43-2-.221.5-.452 1.011-.659 1.523zm22.651 34.747c-.413-.487-.626-.707-1.055-.903-.101.614.485 1.933-.433 1.571-.154-.85-1.799-2.245-1.205-2.938.424.91 1.341 1.076 2.009 1.207.679.124 1.13.212.684 1.064zm29.583 9.91c-.134-.04-.255-.068-.405-.135.132.025.27.073.405.134.812.248 1.363.012 1.872-.105.51-.129.979-.143 1.723.404-1.482 1.142-2.686.115-3.595-.299zM213.934 87c-.302-.283-.586-.604-.872-.908l.141-.092c.28.305.562.615.859.897l-.128.103zm-12.872-7.745c.299-.079.597-.16.898-.255l.102 1c-.331-.248-.681-.476-1-.745zm19.213-85.004c.6.691-.816.292-1.213.436.651.018 1.298-.008 1.944.063.26-.43-.443-.42-.731-.5zM195.875 86l-1.11-1.225c-.3-.164-.562-.386-.703-.775l.703.775c.77.42 1.702.306 1.11 1.225zm67.571-.225c.494-1.05 1.343-1.766 2.276-2.406.888-.67 1.893-1.247 2.465-2.033l-.888.166 1.546-1.287-.761-.492c1.062-1.197 1.873-2.793 2.588-4.13.713-1.341 1.369-2.423 2.264-2.656l-1.464-.272c.776-.847 1.613-1.702 2.349-2.617-.523.485-1.076.945-1.63 1.393.62-1.755 1.572-3.872 2.385-5.692.386-.92.737-1.754 1.012-2.405.252-.66.429-1.137.469-1.332l-.599.209c-.145-.651.328-1.035.604-1.628l-.88.32c.61-2.692.448-4.495.261-6.319-.158-1.833-.332-3.68.018-6.697-.279-1.628-.21.918-.692.95-.645-.866-.154-2.949.158-3.439-1.202.58-.71 2.995-1.814 1.196.537-1.346-1.09.956-1.023-1.328l1.525-1.057c-.412-1.26-1.263-.119-1.386-2.134.185-1.194.738-.575 1.212-.096.472.476.866.8.709-1.123-.227-.94-1.318-1.772-2.375-2.76-.535-.495-1.049-1.035-1.427-1.675-.405-.636-.681-1.37-.714-2.284-.872-1.326-1.349-.733-1.72-.356-.373.38-.64.576-1.082-1.416-.064.944-.118 1.866-.207 2.782-.629-.497-1.283.148-1.485-1.568.442-.715.796-1.992.538-2.908.101 1.983-.633 1.357-1.4.77-.769-.6-1.599-1.138-1.724.69-.121-.39-.256-.777-.407-1.157.003.164-.125.26-.271.234l-.746-1.439c.038.532.256 1.351.272 1.965.007.62-.209 1.032-.948.757l-1.164-1.952c-.581.92-1.242.33-1.845.757.344 2.173.54 4.318.589 6.42.454-.384.495-1.34 1.124-1.195.967 1.465-.542 1.577.596 2.879.183-.284.344-.567.509-.855-.226.193-.249.428-.433.122-.597-.405-.14-.783.291-.916.512.14.74.65.765 1.197.007.552-.175 1.133-.428 1.433.548 1.976 1.697.074 2.065.458-.659.7-.45 1.538-.222 2.417.246.873.582 1.78.277 2.462l.901-.943c1.371 1.504.47 3.092.15 4.029l.799-.396c-.065 1.145.615 2.004.874 2.82.273.807.219 1.578-1.303 2.327l.559-.198c.199.953.608 2.485-.36 3.259.332.072.72.295.752.696-1.185.324-.508 1.428-.644 2.857.484-.85 1.83-.24 2.386-1.183.485 1.267-.035 1.714-.7 2.033-.685.321-1.539.524-1.769 1.415.409 1.288 1.035-.74 1.631-.874-.749 1.313-.391 2.982-.358 4.508.061 1.517-.214 2.86-1.9 3.1-.089-.511-.215-1.03-.326-1.531-1.013.81-1.296 1.338-.99 1.339.079-.371.38-.364.68-.37-.085 1.899-1.225 2.911-2.471 3.719-1.262.818-2.58 1.471-3.387 2.956.577.14 1.02-.141 1.395.115-.269.801-1.062.682-1.849.67-.821-.03-1.596.06-2.023 1.33l.795.08c-.309.86-1.384.669-1.431.457.858.892-.115 1.823-1.25 2.882-.578.516-1.17 1.097-1.641 1.725-.229.322-.416.674-.538 1.063-.131.375-.198.786-.173 1.248-.46-.107-1.019-.107-1.619-.064-.609.03-1.245.125-1.837.271-1.213.242-2.258.682-2.621 1.217-.896 1.989 1.953.922 1.989 2.4-1.233.542-2.346-.417-3.992.663-.227-.642.422-1.617.644-2.356.23-.74.045-1.258-1.624-1.064l-.203.854c.299-.208.648-.637 1.164-.633 1.202.421-.231 1.058-.334 1.487-1.216.273-2.436.49-3.661.625-.569-1.35 1.564-1.523 1.662-1.972-1.276.566-2.653 1.471-4.13 2.185-1.474.667-3.051 1.11-4.422.648l.275.54c-1.757-.573-2.252.049-2.711.56-.44.51-.848.906-2.156-.399-.761.122-.676.516-.673.87 0 .356-.092.678-1.263.562-.658-.086-.188-.574-.048-.741-1.362-.442-1.714-.223-2.049-.022-.322.175-.634.292-1.751-.687l.2 1.635c-1.46-.896-2.767-2.236-3.95-3.447-.604-.583-1.177-1.15-1.766-1.588-.598-.418-1.19-.76-1.853-.885-.368 1.143 1.178 1.737 1.469 2.804-1.314-1.668-3.189-2.67-5.072-3.695-1.882-1-3.729-2.092-4.711-3.558.693-.094.734-.809.89-1.406.151-.602.409-1.082 1.446-.81-.481 1.525.865 1.31 1.671 2.019.18-1.86-1.438-2.53-3.018-3.212-.784-.337-1.533-.69-2.011-1.085-.46-.42-.623-.902-.221-1.516l-1.149.543c-.25-.452-.427-1.97.406-1.629l-1.45-.96-1.417-1.03c.069.732.117 1.97.431 2.945.298.987.783 1.765 1.535 1.576-.119 1.622-1.657-.419-1.997 1.244-.321-3.17-1.692-.485-3.119-2.753 1.04-.126 1.028-.982.917-1.867-.113-.89-.374-1.785-.012-1.996-.741-.448-1.173-2.359-1.041-3.252-.157-.313-.464-.659-.834-1.051l-1.221-1.32c-.84-.969-1.685-2.098-1.899-3.258-.125 1.01-.093 2.563-1.087 2.996-.034-1.302-.541-2.436-1.802-2.086-.129 2.407.724 2.385 1.581 2.23.886-.151 1.745-.387 2.053 1.558-.77 1.537-.507 2.62.271 4.488-1.202-.257-1.258.266-2.298.525.543-1.905-.226-3.257-1.172-4.67-.926-1.41-2.031-2.894-1.995-4.672.139-.8.749-1.154 1.215-1.666.462-.511.78-1.17.437-2.573.581.659 1.154 1.304 1.775 1.915-1.814-2.13.581-.93.111-3.048l-.617 1.154c-.672-1.175-.648-1.72-.196-2.638-.367.513-.731 1.036-1.091 1.57-.405-.63-1.03-1.87-.163-2.152-.407-.07-.709-.05-.958.026.205-.213.267-.59-.015-1.403-.032.532.161.855-.272.993-.286-1.634-.704-1.724-1.143-1.653-.436.07-.861.306-1.031-.74-.262.405-.847-.078-1.185-.798 1.186-.226 1.649-1.371 1.995-2.582.369-1.218.611-2.516 1.243-3.098l-.034.016c.216-.917.497-1.818.776-2.7-.16.538-.872 0-1.134-.774l.012.125c-.38-.858-2.603 1.11-1.93-1.554.228-.464.501-.918.749-1.367-.096.243-.453-.006-.632-.145.233-.469.464-.93.73-1.383-.513-.58-.677-1.136-.627-1.665.064-.528.324-1.031.62-1.53.624-1.002 1.377-1.958 1.13-3.297.013.745-.354 1.8-.981 1.195-.188-.545.256-1.226.68-1.518l-.29.065c.828-1.478 1.775-2.865 2.738-4.179-.888.075-1.762 2.638-2.278 1.22-.823-1.025.714-2.029 1.118-2.79.548.346.526 1.993 1.403.64-.112-.146-.189-.63-.319-1.023-.122-.387-.292-.683-.649-.436 1.225-1.291 2.637-3.246 4.321-3.878-.023-.533-.589-.053-.781.114l.102.189c-.385.33-.761.167-1.084.167-.326-.003-.601.171-.727 1.19-1.951-.793.751-2.814 1.464-4.352-.885.515-1.786 1.059-2.645 1.669-.097-2.812 1.645-5.318 3.84-7.203 2.205-1.922 4.806-3.207 6.683-4.579-.713 1.325-1.937 1.614-.771 2.74.664-.29 1.117-.51 1.475-.693.368-.169.631-.313.883-.469.496-.323.988-.657 2.212-1.253l-.24.054c.365-.747 1.219-.97 1.932-1.263.748-.24 1.384-.522 1.497-1.396-.953-.527-1.431 1.656-2.306.068 1.085-.509 2.177-.998 3.301-1.404-1.479-.573-3.347 1.37-4.619 1.867-.806.581 1.857-.783 2 .512-.71.388-1.318.642-1.873.796-.538.18-1.027.254-1.508.262-.97.007-1.851-.185-3.074-.361-1.636-.35.484-1.98 1.054-2.361 2.987.226 6.018-.483 8.93-2.451.431-.653.888-1.309 1.383-1.924 2.04.709 1.943 3.249 4.699 2.346-.344-.27-.698-.554-1.056-.81.56-.51.972-.708 1.288-.76-1.406-.525-3.008-1.018-4.429-1.414.292-.65.8-.98 1.418-1.118.618-.15 1.344-.106 2.105.064.758.148 1.539.386 2.29.632.751.22 1.466.423 2.122.498-.152-.254-1.07-.29-1.4-.778 1.952-.435 4.041-.036 5.878.692.923.321 1.788.777 2.596 1.113.802.404 1.552.698 2.245.926.684-.33.127-.613-.526-.927-.649-.304-1.392-.678-.998-1.313.754.371 1.613.32 2.317.399.705.062 1.256.18 1.317.86-.285-1.936 3.621.765 1.02-1.628 2.977.32 5.921 1.605 8.519 3.347 2.612 1.742 4.883 3.928 6.88 6.059.096-.601.357-.97.777-1.12-1.599-1.202-3.819-3.16-4.222-4.831.815-.057 1.373.62 1.765 1.28.386.676.627 1.314.939 1.191-.328-.754-1.496-1.485-1.063-2.262 2.079.084 2.158 1.866 3.052 2.735l-.814-.018c1.228 1.619 1.129 2.583 1.204 3.368.035.394.107.745.377 1.127.259.396.711.824 1.53 1.367 1.774.155.607-.682 1.481-1.716.178.52 1.065 1.04 1.892 1.658.79.649 1.531 1.377 1.325 2.24-.575-.577-1.181-1.124-1.768-1.685.454.754.971 1.4 1.402 2.036.423.64.795 1.236.998 1.826.145-.28.307-.548.156-.895.547 1.307 1.709 2.59 1.373 3.69l1.393-.567c-.973-.296-2.558-2.054-2.201-2.903 1.117-.642 2.095 1.793 2.78 2.619-.615-1.034-1.012-1.871-1.29-2.614-.266-.752-.433-1.39-.632-1.983-.374-1.196-.872-2.23-2.695-3.368.067.27.136.534.19.812-1.313-.506-2.109-1.53-2.884-2.587-.742-1.082-1.47-2.182-2.39-2.87.695.146 1.118-.182 1.025-.573-2.409-1.103-4.557-2.424-6.876-3.686-2.308-1.26-4.812-2.422-7.687-3.044-.394-.66-.824-1.274-1.264-1.912l-.417 1.018c-2.897-.321-.193-1.664-2.062-2.04.708.17.536.316.612.617-1.51-1.032-2.061-.854-2.408-.551-.355.304-.538.756-1.434.405.344.663 1.202.938 1.839 1.22.635.295 1.029.614.458 1.268-.708-.506-1.589-.837-2.486-1.177-.909-.282-1.843-.559-2.703-.792-1.712-.502-3.119-1.01-3.347-2.341-3.229.445-6.782.566-10.272 1.033-3.48.436-6.875 1.19-9.444 2.273-.478.754.575.118.47.581-.645-.106-1.357.111-2.06.474-.703.364-1.363.933-1.967 1.437-1.185 1.059-2.053 2.032-2.46 1.477-.642.934-.389 1.993-.39 2.448-1.463.287-2.941 1.1-4.337 2.172l1.19-.59.022.232c-.557.277-1.126.55-1.684.845l-.012-.108c-1.682 1.403-3.264 3.162-4.765 4.922-1.476 1.782-2.948 3.513-4.532 4.951 1.897-1.58 1.149 1.3 2.142.619-1.425.32-2.73 1.602-3.747 3.31-1.055 1.697-1.741 3.825-2.228 5.741.439.117.694.507 1.178.18-.504.625-.971 1.274-1.461 1.931l.602-.151c-.188.993-.44 1.984-.825 2.95-.33.971-.75 1.929-1.093 2.866-.692 1.87-1.187 3.66-.745 5.033.346-1.649.831-1.614 1.555-1.717-.279 2.842-.358 5.503-.761 8.895.113-.19.264-.317.425-.334.261.852-.168 1.943-.33 2.876l1.093-.014c-.272 1.754.614 3.807.243 5.96.673.253.665 1.498.725 2.965.01.738.04 1.529.16 2.263.118.732.271 1.43.612 1.934.068.923.481-2.245 1.306.108-1.035.58-.761 1.362-.498 2.12.283.75.539 1.489-.577 2.102.573.571 1.181 1.113 1.787 1.643l-.916 1.011c1.474.337 1.588 1.07 1.584 2.048-.017.976-.09 2.168.989 3.211.152-.276.068-.587.298-.556.229.945 1.332 2.823-.153 1.785.809 1.328 3.539 5.945 3.182 3.215-.466.572-1.297-1.531-1.573-2.46.939-.502 1.94 1.595 3.216 1.324-.049.129-.03.487-.033.763l.73-.165c.202.731.515 1.391.869 2.007.374.599.792 1.15 1.186 1.693.804 1.076 1.542 2.079 1.756 3.37.323-.157.865 0 1.531.733l-.888 1.037c.766.704 1.578 1.362 2.37 2.038.047-.828.11-1.649.185-2.458 1.365.947 2.19 2.158 2.949 3.427.388.622.757 1.256 1.165 1.856.421.582.885 1.125 1.436 1.585.903-.752 1.953.114 3.215 1.12.644.479 1.336 1 2.068 1.34.741.323 1.511.481 2.265.274l-1.711-1.482c1.994 1.195 3.351 1.475 4.622 1.775 1.294.263 2.502.549 4.473 1.52-.929-.078-1.628-.17-2.236-.259l-1.688-.301c-.578-.086-1.214-.172-2.059-.279l-1.464-.148-1.9-.226c2.689.778 4.795 1.893 6.966 2.887 2.156.987 4.424 1.747 7.081 1.546-.262-.582-1.432-1.18-.127-1.491.382.665 1.577.818 2.544.969.973.108 1.734.214 1.296.864 1.643-.307 1.976-1.622 2.924-1.762 1.715.619 3.501 1.123 5.346 1.534l-.187-.258c1.108-.469 2.176-.904 3.233-1.204 1.05-.364 2.101-.569 3.138-.827.52-.116 1.042-.216 1.569-.303.519-.108 1.04-.21 1.567-.3 1.06-.158 2.101-.385 3.172-.568 1.062-.207 2.122-.456 3.19-.729 1.043-.326 2.127-.615 3.144-1.077 2.075-.844 4.034-2.082 5.703-3.766l-.585-.471c.837-.174 1.644-.411 2.486-.637-1.874.624.038-1.202-.301-1.78 1.794-.91 3.59-1.922 5.296-3.094-.402-.528-1.681-1.202-2.447.017z"/>
        <path d="M264.001 71c.013-.477.093-.77.215-1-.018.33-.075.667-.215 1zM198.449 81.507c-.218.144-.418.093-.619-.04.131-.08.314-.095.619.04zM196.854 77.647c-.018-.049-.051-.09-.069-.133.007-.047.007-.108.01-.16l.059.293zM254.926 27.3c-.379 1.913-.643-.628-1.078-1.3.422.665 1.21.169 1.078 1.3zM252.821 22c.051.634.286 1.31.677 2-.321-.345-.546-.86-.677-2zM255.395 26c-.839-.68-1.477-1.343-1.897-2 .491.494 1.235.587 1.897 2zM241.261 15c.197.43.677.725 1.114.913.427.2.808.299.808.299-1.632-.474-1.653-.106-1.258.361.382.498 1.132 1.175 1.107 1.427-1.614-1.056-1.196-1.71-1.771-3zM237.273 12.36c.33.147.652.27.937.27-.38.05-.672-.076-.937-.27zM235.836 13c-1.041-.76-1.196-1.955-1.548-2.986.793-.104 1.321.382 1.748.997.43.611.779 1.286 1.237 1.69-.793-.396-1.547-.854-1.437.299zM203.622 20.15c.251-.046.729-.313.987 0-.476.263-.954.527-1.402.826-.711.168.172-.598.415-.825zM197.13 22c-1.087 1.261.293 1.538-.393 2l-1.09-1.358c.483-.242.997-.434 1.483-.642zM192.248 16.574l.5-.295c-.162.141-.321.281-.485.442l-.015-.147zM193.908 29.115c.651.019 1.326.058 1.973.098-1.029.396-2.163-.005-1.973-.098zM192.286 34.473l.844-.473c-.549.634-1.016 1.322-1.528 2l.684-1.527zM189.268 40l.291.325c-.309.544-.588 1.105-.855 1.675.16-.675.352-1.342.564-2zM221.726 98.277c-.023.754-.737.795-1.574.667-.83-.149-1.756-.506-2.244-.452.578-.79 1.098-.473 1.709-.126.602.356 1.326.66 2.109-.089zM263.908 74c-.378.687-.851 1.34-1.278 2 .225-1.77.248-.426 1.278-2z"/>
    </g>
    <path fill="#EAF6FB" fill-rule="evenodd" d="M89.868 33.093c11.515 24.774 3 53.099-19.018 63.265-22.017 10.165-49.202-1.677-60.717-26.451C-1.384 45.133 7.131 16.808 29.15 6.642 51.168-3.523 78.352 8.32 89.868 33.093zM90.94 32.734c1.231.946 1.14-.813.943-2.414-.945-.13-1.926-.23-2.883-.32.71.884 1.293 1.821 1.94 2.734z" clip-rule="evenodd"/>
    <path fill="#EAF6FB" fill-rule="evenodd" d="M87 25.22l-2.168-1.17c-.73-.369-1.47-.712-2.193-1.05.9.598 1.827 1.202 2.698 1.87.472 1.781-.12 2-.936 1.712-.826-.285-1.842-1.106-2.401-1.468 1.766 2.055 2.599 2.129 3.224 1.628.617-.488.972-1.544 1.776-1.523zM80.943 20.255c-1.64-2.556-2.202-.634-1.836.718.57-.368 2.22.659 1.836-.718zM24 96c-.32-.8-.717-1.658-.49-1.906-.628-.262-.889-.083.49 1.906zM23.169 93.459c.2.05.417.102.662.177-.178-.093-.318-.182-.533-.272-.082.01-.082.066-.129.094z" clip-rule="evenodd"/>
    <mask id="prefix__o" width="98" height="104" x="0" y="3" maskUnits="userSpaceOnUse">
        <path fill="#fff" fill-rule="evenodd" d="M0 3.516h97.558v102.89H0V3.516z" clip-rule="evenodd"/>
    </mask>
    <g fill-rule="evenodd" clip-rule="evenodd" mask="url(#prefix__o)">
        <path fill="#EAF6FB" d="M17.37 45.516c-.933-2.258-.15-3.46-.214-5.563.627-.28 1.272-.537 1.924-.773-.052-1.112-.341-1.439-.686-1.699-.35-.267-.758-.465-.975-1.389.403-.423.762-.992 1.028-1.647.316-.63.533-1.358.78-2.032.456-1.368.857-2.63 1.12-3.032.515-.098.655.217.707.605.057.395.048.882.195 1.126.633-2.442-.91-3.193.934-5.88l.41.233c1.274-3.803 4.3-7.356 8.184-9.902 3.905-2.596 8.5-4.185 13.088-5.24-.638-.047-.507-.42-.785-.75 5.01-.762 10.622-.182 15.933 1.111 5.347 1.269 10.383 3.199 15.243 4.515-2.553-1.81-5.714-4.688-9.503-6.766-1.873-1.059-3.895-1.856-5.863-2.323-1.979-.425-3.91-.5-5.59-.017-.51-.426-1.15-.63-1.82-.759-.67-.143-1.373-.153-2.03-.17-1.313-.073-2.438-.035-2.919-.949-4.601-.373-7.829.763-10.61 2.246-2.802 1.518-5.259 3.305-8.77 5.425-1.16.38-1.14-.648-1.88-1.141 1.773-1.485 3.7-2.838 5.774-3.978-1.414.334-2.817.76-4.205 1.263.311-.416.843-.795 1.446-1.185.598-.403 1.287-.77 1.942-1.12.644-.371 1.254-.72 1.712-1.063.454-.353.746-.732.75-1.146-2.791 1.922-6.481 3.771-9.71 6.222-3.215 2.428-5.922 5.386-6.774 8.163 1.893-1.674 3.778-4.222 6.25-5.928.698-.165 1.498-.467 2.178-.606.694-.122 1.243-.107 1.417.278-2.74 3.191-5.06 5.83-7.296 8.647-2.176 2.832-4.21 5.913-5.416 9.768-.6 1.92-1.561 4.455-2.405 4.583.085-1.385-.848-.59-.885-1.789-.131 1.528.621 1.807 1.139 2.193.542.393.87.87.28 2.827-.9-.366-1.796-.743-2.69-1.13 1.279 1.164.922 2.373.423 3.793-.487 1.405-1.102 3.055-.263 4.615-1.18 1.068-1.826-1.007-1.651-3.444-.752 2.712.922 3.063.839 5.187-.838-.682-1.596-1.395-2.395-2.145.564.625.8 1.187.846 1.715.058.528-.092 1.022-.34 1.494-.516.942-1.321 1.805-1.69 2.527.301.063.9-.255 1.427-.206.53.05.957.45 1.045 1.92-.187 1.294-.865.721-1.18 1.06.63.1 1.835 1.022 2.235 2.898-.744.502-1.45-1.061-2.278-1.076.119.748.32 1.409.395 2.039.077.632.06 1.228-.133 1.84 1.28 2.449 1.113-.431 2.347.924.241 1.995-.392 2.305-1.278 2.331-.878.03-1.997-.254-2.614.752C2.43 60.17 1.306 55.95.461 54.228c.516 2.121 1.083 4.215 1.822 6.241-.507-.082-.678 1.085-.873 1.891-.193.8-.5 1.265-1.41-.325.4 3.347 1.662 6.887 3.39 10.107 1.718 3.232 3.894 6.152 5.961 8.561-.237-.916-.647-2-.036-2.159 2.196 2.381 1.045 2.721.84 3.687 1.987 1.555 3.114.365 4.974.696.461 1.14.904 1.993 1.332 2.678.42.696.79 1.254 1.167 1.78.372.53.706 1.07 1.06 1.736.37.653.734 1.458 1.175 2.54l.916-1.4c.658 1.441 1.48 1.8 2.37 2.058.898.266 1.787.523 2.78 1.804-.056.382-1.302.058-2.304-.248 2.573 1.225 1.288 2.698 4 3.686-.948.122-1.914.23-2.9.322 1.94 1.245 5.157 2.402 3.348 3.18 2.245.189 4.813 1.2 7.582 2.078 2.748.898 5.688 1.681 8.24 1.696l-.639 1.319c.739-.267 1.696-.315 2.752-.215 1.065.056 2.236.254 3.415.346.59.049 1.175.094 1.743.118.567.007 1.118-.02 1.628-.074 1.02-.093 1.884-.406 2.43-.929l.394.577c1.707-.686 3.343-1.476 4.896-2.336 2.245-.178 1.883 2.04 1.955 1.431 5.01-1.278 8.625-2.889 11.934-3.65-.026-.524.238-1.093.693-1.68.45-.597 1.066-1.257 1.798-1.9 1.426-1.345 3.229-2.785 4.705-4.196 3.997-2.86 7.408-6.692 9.99-10.988 1.28-2.159 2.373-4.424 3.246-6.76.855-2.344 1.509-4.742 1.971-7.154.44-2.418.673-4.846.745-7.245.043-2.402-.094-4.772-.377-7.081-.624-4.618-1.83-8.984-3.527-12.909-.365-1.216-1.367-2.49-2.503-3.723l-1.797-1.816c-.62-.589-1.212-1.172-1.723-1.76.259.89.516 1.545.78 2.09.257.545.494.987.762 1.418.54.859 1.084 1.725 1.632 3.459.141 1.383-.212 2.435-.725 3.437-.48.996-1.12 1.943-1.525 3.121.463-.457.925-.925 1.384-1.407.993 1.614.849 2.282.75 2.814-.097.542-.159.956.786 2.282l-2.621.132c.357.203.573.515.685.883.094.369.083.793.01 1.218-.13.851-.586 1.698-.918 2.18.604.287 1.218.587 1.817.897-1.047 2.168-1.62 3.5-3.308 3.949l1.674-.026c-.563.344-.77 2.35-1.252 3.885-.525 1.535-1.172 2.543-2.276 1.047.25.646.912 1.378.386 2.573l-1.643-.303c-.097 1.825-.596 3.822-1.657 3.9.026-1.021-.54-1.581-1.117-2.127-.707 1.61-.871 2.587-.69 3.323.195.742.717 1.213 1.265 1.669.548.46 1.12.905 1.344 1.632.23.729.087 1.75-.892 3.25l-.838-.674c-.034.687-.04 1.42-.126 2.114-.761.216-1.468.447-2.227.598.61 2.14-1.26 4.005-3.558 5.457-2.317 1.49-4.987 2.492-6.512 4.263-.342.27-.81.355-1.325.412-.518.055-1.094.051-1.72.01-.623-.033-1.27-.028-1.956-.015-.678.037-1.375.153-2.112.371l.587 1.558c-1.455-.47-4.541-.591-7.42-1.516-2.89-.87-5.466-2.498-6.106-4.561-2.286.857.143.378-.12 1.662-.555.107-1.05.162-1.484.174-.432-.01-.805-.07-1.129-.157-.652-.16-1.09-.519-1.437-.907-.696-.769-.987-1.852-1.815-2.666-1.323-.099-.947.226-.425.666.512.444 1.193.929.31 1.289-1.67-1.296-2.577-1.198-3.694-1.128-1.077.027-2.392.035-4.316-1.852.073-1.056 1.472.193 2.248-.1-1.968-.157-4.297-1.494-6.471-3.368-2.192-1.868-4.212-4.24-6.044-6.32-1.487-2.858-3.242-6.36-4.435-10.193-1.229-3.806-1.859-7.861-1.644-11.373l-.61-.036c.275-.774.363-1.516.4-2.264.002-.745-.042-1.491-.123-2.255-.138-1.52-.32-3.139.175-4.74-.346.504-.676 1.023-.978 1.559z"/>
        <path fill="#EAF6FB" d="M34.293 5c.555-.34 1.117-.699 1.707-1-.512.116-1.013.266-1.512.423-.497.157-1.004.29-1.488.479.43.01.865.055 1.293.098zM3.42 45l.272-.55c-.258-2.776-.28-5.602-.046-8.45-.361 3.02-.426 6.032-.226 9zM22.613 96.478C21.277 96.431 20.201 95.324 19 95c.644.368 1.316.703 1.986 1.034.67.33 1.324.67 2.014.966l-.387-.522z"/>
        <path fill="#31A8DC" d="M72 106c-1.536.516-2.25 1.227-3 1.888 1.21.273 1.737.013 2.064-.407.33-.418.47-1.003.936-1.481z" opacity=".1"/>
    </g>
    <mask id="prefix__p" width="4" height="3" x="61" y="110" maskUnits="userSpaceOnUse">
        <path fill="#fff" fill-rule="evenodd" d="M61.598 110.23h2.916v2.769h-2.916v-2.769z" clip-rule="evenodd"/>
    </mask>
    <g mask="url(#prefix__p)">
        <path fill="#F4F6F8" fill-rule="evenodd" d="M62.114 112.999c1.57-3.175 4.005-.696.906-2.769-3.03 1.022-.156 1.662-.906 2.769z" clip-rule="evenodd"/>
    </g>
    <path fill="#02DC6C" d="M239.04 69.603h-21.351c-3.651-.019-6.607-2.975-6.626-6.626v-21.29c-.007-3.672 2.954-6.66 6.626-6.687h21.29c3.673-.007 6.661 2.954 6.687 6.627v21.289c.007 3.672-2.954 6.66-6.626 6.687z"/>
    <path fill="#fff" fill-rule="evenodd" d="M241.34 55.53c-.04 1.987-1.054 3.828-2.712 4.926l.031-.03c-.157.102-.246.28-.234.467v.177c.06.245.151.566.225.829.07.247.125.441.125.469.047.046.069.112.061.177-.01.126-.112.225-.238.234-.028 0-.057-.015-.086-.029-.03-.014-.059-.028-.087-.028l-1.704-.999c-.123-.074-.263-.114-.407-.117-.03 0-.074.014-.119.029-.044.014-.088.028-.119.028-.818.242-1.668.362-2.521.354-4.326 0-7.786-2.91-7.786-6.488 0-3.577 3.46-6.51 7.786-6.51 4.325 0 7.785 2.933 7.785 6.51zm-10.381-1.064c-.583 0-1.055-.472-1.055-1.055s.472-1.056 1.055-1.056 1.056.473 1.056 1.056c.001.28-.11.55-.308.747-.198.199-.468.31-.748.308zm5.148 0c-.583 0-1.056-.472-1.056-1.055s.473-1.056 1.056-1.056c.583 0 1.055.473 1.055 1.056.001.28-.11.55-.308.747-.198.199-.467.31-.747.308z" clip-rule="evenodd"/>
    <path fill="#fff" fill-rule="evenodd" d="M215.462 49.645c0-4.325 4.165-7.786 9.325-7.786l-.008.005c4.693 0 8.564 2.876 9.208 6.57h-.54c-4.693 0-8.504 3.166-8.504 7.098.003.655.101 1.306.29 1.933h-.528c-1.032.01-2.06-.136-3.049-.432-.091-.046-.193-.066-.294-.056-.165-.017-.33.024-.467.116l-2.055 1.172c-.045.047-.109.069-.173.061-.079.004-.156-.026-.212-.082-.056-.056-.086-.133-.082-.212 0-.03.014-.074.028-.117.014-.043.028-.086.028-.117 0-.06.26-.999.433-1.587.046-.045.068-.11.06-.173.022-.205-.067-.406-.233-.528-1.973-1.307-3.179-3.499-3.227-5.865zm6.215-1.215c-.68 0-1.232-.552-1.232-1.233 0-.68.552-1.233 1.232-1.233.681 0 1.233.552 1.233 1.233-.005.679-.554 1.228-1.233 1.233zm6.221-.002c-.458.027-.892-.201-1.129-.593-.236-.392-.236-.883 0-1.275.237-.392.671-.62 1.129-.593.663.035 1.193.565 1.228 1.228.008.33-.118.647-.35.88-.232.233-.55.36-.878.353z" clip-rule="evenodd"/>
    <path fill="url(#prefix__paint0_linear)" d="M49.724 73.322c10.858 0 19.66-8.803 19.66-19.661C69.385 42.802 60.583 34 49.725 34c-10.859 0-19.661 8.802-19.661 19.66 0 10.86 8.802 19.662 19.66 19.662z"/>
    <path fill="#C8DAEA" d="M46.12 62.67c-.638 0-.53-.24-.751-.845l-1.873-6.163 14.421-8.553"/>
    <path fill="#A9C9DD" d="M46.121 62.672c.386-.003.75-.185.983-.492l2.62-2.546-3.269-1.966"/>
    <path fill="url(#prefix__paint1_linear)" d="M46.455 57.661l7.924 5.854c.904.492 1.553.24 1.779-.84l3.224-15.198c.334-1.327-.491-1.927-1.366-1.534l-18.939 7.304c-1.292.516-1.287 1.239-.235 1.558l4.86 1.52 11.252-7.089c.53-.324 1.017-.147.614.207"/>
    <defs>
        <linearGradient id="prefix__paint0_linear" x1="43.137" x2="33.7" y1="35.278" y2="58.871" gradientUnits="userSpaceOnUse">
            <stop stop-color="#37AEE2"/>
            <stop offset="1" stop-color="#1E96C8"/>
        </linearGradient>
        <linearGradient id="prefix__paint1_linear" x1="48.435" x2="51.291" y1="55.422" y2="62.8" gradientUnits="userSpaceOnUse">
            <stop stop-color="#EFF7FC"/>
            <stop offset="1" stop-color="#fff"/>
        </linearGradient>
        <clipPath id="prefix__clip0">
            <path fill="#fff" d="M740.062 194.004H771.862V229.004H740.062z"/>
        </clipPath>
    </defs>
</svg>
