<svg xmlns="http://www.w3.org/2000/svg" xmlns:xlink="http://www.w3.org/1999/xlink" width="314" height="321" viewBox="0 0 314 321">
    <defs>
        <path id="a" d="M.384 0h79.59v85.6H.384z"/>
        <path id="c" d="M.75.411h78.046v82.312H.75z"/>
        <path id="e" d="M.479.185h2.333V2.4H.479z"/>
        <linearGradient id="g" x1="63.25%" x2="39.25%" y1="15.25%" y2="75.25%">
            <stop offset="0%" stop-color="#37AEE2"/>
            <stop offset="100%" stop-color="#1E96C8"/>
        </linearGradient>
        <linearGradient id="h" x1="67.942%" x2="85.941%" y1="46.148%" y2="73.583%">
            <stop offset="0%" stop-color="#EFF7FC"/>
            <stop offset="100%" stop-color="#FFF"/>
        </linearGradient>
        <path id="i" d="M0 .411h78.047v82.312H0z"/>
        <path id="k" d="M.479.185h2.333V2.4H.479z"/>
        <path id="m" d="M0 .411h78.047v82.312H0z"/>
        <path id="o" d="M.479.185h2.333V2.4H.479z"/>
        <path id="q" d="M0 .411h78.047v82.312H0z"/>
        <path id="s" d="M.479.185h2.333V2.4H.479z"/>
        <path id="u" d="M0 .411h78.047v82.312H0z"/>
        <path id="w" d="M.479.185h2.333V2.4H.479z"/>
        <path id="y" d="M0 .411h78.047v82.312H0z"/>
        <path id="A" d="M.479.185h2.333V2.4H.479z"/>
        <path id="C" d="M0 .411h78.047v82.312H0z"/>
        <path id="E" d="M.479.185h2.333V2.4H.479z"/>
        <path id="G" d="M0 .411h78.047v82.312H0z"/>
        <path id="I" d="M.479.185h2.333V2.4H.479z"/>
    </defs>
    <g fill="none" fill-rule="evenodd">
        <g transform="translate(230 3)">
            <path fill="#E5FBF0" d="M70.657 27.082c8.82 19.001 2.299 40.727-14.566 48.524-16.865 7.797-37.686-1.285-46.506-20.288-8.82-19.001-2.3-40.727 14.566-48.524 16.865-7.797 37.686 1.285 46.506 20.288"/>
            <path fill="#E5FBF0" d="M67.988 22.478c.013.073.082.169.117.252-.247-.189-.339-.29-.117-.252M70.17 27.2c-.638-1.303-1.681-3.324-2.065-4.8l.835 1.022c.315.417.648.893.931 1.366.546.956.828 1.93.299 2.412M69.743 20.8c.227.533.434 1.071.645 1.6-.902-.656-.226-.798-.645-1.6M69.008 22.129l-.484.271a36.122 36.122 0 0 0-.116-1.6c.211.433.411.875.6 1.329M9.906 41.362c.203-.224.432-.37.749-.312l-.749.312zM8.204 45.6c-.018.355.016.595.043.8-.094-.222-.1-.425-.043-.8M9.515 38.402l.076.396a.52.52 0 0 1-.076-.396M32.582 6.4l1.817.647c-1.177.468-1.38-.251-1.817-.647M9.985 67.36l.45-.051c-.005.167-.079.285-.45.051M1.757 48.289c.227-.086.407-.081.551-.016-.015.101-.019.204-.04.303l-.511-.287zM8.772 35.14c-.016-.013-.025-.034-.042-.049l.302-.631c.053.358-.035.571-.26.68M14.085 72.8c.06.241.078.505.007.8-.363-.386-.308-.707-.007-.8M8.272 46.85c-.004.01-.012.003-.016.014l-.01-.128c.014.042.01.074.026.114M1.157 41.6c-.035.265-.052.513-.104.8-.141-.327-.059-.615.104-.8M32.582 6.127l-.598-.245c.262-.044.442.066.598.245M64.4 19.2c-.368-.7-.23-1.163-.074-1.6.099.533.14 1.065.074 1.6M68.787 29.321l-.078-.242c.059.09.076.171.078.242M70.436 49.881a1.304 1.304 0 0 1-.37.25c-.075-.217.129-.295.37-.25"/>
            <mask id="b" fill="#fff">
                <use xlink:href="#a"/>
            </mask>
            <path fill="#E5FBF0" d="M59.244 73.298l-.044.214c.516-.13 1.05-.23 1.563-.4l.037-.224c-.511.17-1.04.285-1.556.41zM76.815 49.6c-.17-2.062 1.13-1.282 1.553-2.4.243 1.7-.959 1.102-1.553 2.4zM48.063 74.794c1.894-.713-1.095-1.238.117-1.852l-.98.227c1.485-1.18 1.28.888 2.395.391l-.741.327c-.495.978 1.275.361 1.546 1.007-.433.258-1.214.359-1.788.28-.574-.07-.93-.237-.549-.38zM76.128 51.2c-.218-1.032.024-1.07.53-1.6.237.26.018 1.082-.53 1.6zm-20.4 20.571c-.367-.494 1.388-1.158 1.872-1.09-.47-.616-1.578-.069-2.543.207-.142-.01-.354.024-.657.122.206-.01.424-.049.657-.122.422.031.345.484.455.731-.127.127-.252.262-.385.381.474-.092.941-.207 1.416-.312l-.814.083zM40 72c.283.266.574.533.873.8.51.002 1.019-.012 1.527-.018A36.203 36.203 0 0 1 40 72zM16.527 60.322c-.316-.483-.471-.535-.094-.935-.004-.421-.43-.57-.433-.987.893.552.302 1.198.527 1.922.083.127.173.273.273.478a1.18 1.18 0 0 1-.273-.478zm3.73 2.078c.311-.707-.133-1.301-.656-1.84-.513-.549-1.142-1.007-1.201-1.36.563.361 1.4 1.021 1.935 1.625.532.606.731 1.23-.077 1.575zm41.624 2.23c.198-.362-1.06-.444-1.668.17-.06-.328-.138-.669-.213-.998.21.244.664.117 1.095-.08.434-.194.806-.494.91-.522.863.473.071.605-.124 1.43zM74.4 29.934l-.106.833c-.218.458-.51.254-.693.433-.022-.916.25-2.221.799-1.266zm-1.13 9.399c.086.247.186.465.33.573l-.237.094c-.367-.28-.259-.483-.094-.667-.088-.271-.187-.584-.271-.904-.747-.222-1.328.968-1.798 1.24.278-.541 1.047-1.01.612-1.79-.229.094-.378-.005-.388.47l-.127-1.043c1.044-1.192 1.42-.057 1.7 1.123.168.045.339.139.524.37.106.194-.093.358-.252.534zm-1.274-6.893c-.909.255-2.11.276-1.361 1.824.973.026.934-.43 2.113.136.203-.565-.245-.995-.368-1.26-.103.38.333.8-.305.935-.389-.597-.383-1.222-.079-1.635.32-.086.597-.205.714-.44-.29.034-.543.202-.714.44zM70.4 31.293l.249.707L72 31.2l-1.6.093zM72 42.47c-.416-.317-.819.518-.8.729l.8-.73zm2.06-.114l.34-.714c-.534.202-1.067.395-1.6.579l1.26.135zm-4.548 12.184l-.63.748-.66.711c-.412-.514-.186-.857.154-1.216.333-.362.82-.722.922-1.184.654.016.011.464.214.94zM56.06 67.2c-.2-.2.135-.716.632-1.094.492-.39 1.136-.678 1.709-.388-.504.292-1.052.578-1.508.808-.456.23-.793.45-.833.674zM16 57.626c.267.523.517 1.074.8 1.574-.244-.512-.456-1.068-.682-1.6l-.118.026zm-8.09-12.83c1.276.068 1.444-.755 1.415-1.677.005-.942-.203-2.014.275-2.48-.39.072-.944-.071-1.31.12-.369.193-.552.74-.108 2.174-.743-1.103-.49-1.636-.327-1.975.156-.345.208-.494-.926-.958.227.588.275 1.297.288 1.893.023.591-.014 1.074-.014 1.196-.163-.471-.34-.938-.491-1.415-.59.656-.24 1.165.21 1.636.446.479 1.044.896.989 1.486zm1.475-28.648l-.946.057L9.481 16l-.096.148.215-.012-.831 1.116c-.269.376-.51.763-.769 1.148l.66-1.139.725-1.113zm-.585-.954c.396-.42.755-.847 1.172-1.237-.313.148-.62.305-.918.472.336-.298.709-.571 1.064-.844.358-.271.706-.54 1.082-.785a2.728 2.728 0 0 1-.959 1.754c-.466.435-1.039.688-1.441.64zm1.6-2.394c-.293.344-.435.489-.56.526-.355.252-.763.392-1.04.144.737-.703.72-.042 1.04-.144.215-.155.412-.335.56-.526zM23.35-1.252c-.026-.193-.162-.384-.353-.507-.22.03-.437.013-.597-.098.167-.094.405-.032.597.098.581-.074 1.256-.547 1.506-.919-.38-.308-1.123.151-1.547.055.353-.758 1.546-.735 2.354-.787.813-.045 1.315-.175.428-1.39.326.07.993.1 1.52.25.53.147.903.363.672.694-1.447.24-3.902 1.593-4.58 2.604.012.164-.037.323-.242.452.013-.125.113-.283.241-.452zM36.8-4.14l.235-.52c.189.026.378.032.565.076-.27.127-.537.296-.8.444zM51.2-1.6a11.567 11.567 0 0 0-.8-.408l.637-.392.163.8zM8.8 8.8c-.495.723-1.591 2.661-1.485 2.37-.253-.22-.058-.75.282-1.262.354-.505.877-.973 1.203-1.108zm-4.814 9.6l-.414 1.192-.358 1.208c.692-.002.701-1.584.772-2.4zM8.061 7.485c-.296.116-.572.246-.861.372.495-.553.735-.52.861-.372L8.8 7.2c-.34.7-.444.851-.518.786-.076-.067-.107-.35-.221-.5zM2.437 22.4l.027.79c.288.992 1.406 1.325.157 2.41-.057-.794-.128-1.6-.157-2.41a1.565 1.565 0 0 1-.027-.79zM6.4 21.38c-.525.734-.939 1.114-1.405 1.444-.467.331-1.036.603-1.77 1.176-.257-1.777 1.602-1.948 2.267-1.628.905-1-.014-.938-.018-1.572l.926.58zM4 20.8a26.03 26.03 0 0 1 1.278-1.675c.447-.503.88-.823 1.122-.65-.504-.202-.998.032-1.383.392-.368.363-.627.845-.69 1.088-.018.297-.122.487-.327.845zm26.417 50.432l-.098-.747.316.042c-.357-.288-.694-.617-1.035-.92.919-.066 1.505.372 1.982.924.468.565.839 1.186 1.218 1.469-.75-.283-2.158-2.581-2.383-.768zM2.405 33.6c.41-.406.562-1.067.622-1.789.065-.722.086-1.51.173-2.152-.737-.359-1.631.98-1.484 2.561-.57 1.885 1.18.609.69 1.38zm.131 6.018L2.72 40c.09-.534.22-1.071.344-1.6-.177.4-.362.809-.528 1.218zm18.121 27.798c-.33-.39-.5-.566-.844-.722-.08.49.388 1.546-.346 1.257-.123-.681-1.44-1.797-.964-2.351.34.729 1.073.861 1.607.966.544.099.904.169.547.85zm23.666 7.927c-.107-.031-.204-.054-.323-.107.105.02.215.058.323.107.65.198 1.091.01 1.498-.084.408-.103.783-.114 1.379.323-1.186.914-2.15.093-2.877-.239zM30.297 66.4c-.241-.226-.469-.483-.697-.727l.113-.073c.224.244.45.492.687.718l-.103.082zM20 60.204c.24-.063.477-.128.718-.204l.082.8c-.265-.198-.545-.38-.8-.596zM35.37-7.8c.48.554-.653.235-.97.35.52.014 1.038-.006 1.555.05.208-.344-.354-.336-.585-.4zM15.85 65.6l-.888-.98c-.24-.132-.45-.308-.562-.62l.562.62c.616.336 1.362.245.888.98zm54.057-.18c.395-.84 1.074-1.412 1.82-1.925.711-.535 1.515-.997 1.973-1.626l-.71.133 1.236-1.03-.61-.393c.851-.958 1.5-2.235 2.072-3.305.57-1.072 1.095-1.938 1.811-2.124l-1.171-.218c.62-.678 1.29-1.361 1.878-2.093-.418.387-.86.756-1.303 1.114.496-1.404 1.257-3.098 1.907-4.554l.81-1.923c.202-.528.343-.91.375-1.067l-.479.168c-.116-.521.263-.828.484-1.302l-.705.255c.489-2.153.359-3.595.21-5.055-.127-1.466-.266-2.944.013-5.358-.223-1.302-.167.735-.552.76-.517-.692-.124-2.358.125-2.75-.961.463-.568 2.395-1.45.956.429-1.077-.872.765-.82-1.062l1.22-.846c-.328-1.008-1.01-.095-1.108-1.707.148-.955.59-.46.97-.077.378.38.693.64.567-.898-.182-.752-1.055-1.417-1.9-2.208-.428-.396-.84-.828-1.142-1.34a3.537 3.537 0 0 1-.57-1.827c-.698-1.061-1.08-.587-1.376-.285-.299.304-.513.46-.866-1.133-.052.755-.095 1.493-.166 2.225-.503-.397-1.027.12-1.188-1.254.354-.572.637-1.594.43-2.326.081 1.586-.506 1.085-1.12.616-.615-.48-1.279-.911-1.379.552a12.651 12.651 0 0 0-.325-.926c.002.131-.1.208-.217.188l-.597-1.151c.03.425.205 1.08.218 1.572.005.496-.168.825-.759.605l-.931-1.562c-.465.736-.993.265-1.476.606a38.5 38.5 0 0 1 .471 5.136c.363-.307.397-1.072.9-.956.773 1.172-.434 1.261.476 2.303.147-.227.275-.453.407-.684-.18.154-.199.342-.346.097-.477-.324-.112-.626.233-.732.41.112.592.52.612.957.005.442-.14.906-.343 1.146.439 1.581 1.358.06 1.652.367-.527.56-.36 1.23-.177 1.934.197.698.466 1.424.221 1.97l.721-.755c1.097 1.203.376 2.474.12 3.223l.64-.317c-.052.916.492 1.603.699 2.256.218.646.175 1.263-1.042 1.862l.446-.158c.16.762.487 1.987-.287 2.607.265.057.576.236.6.557-.947.259-.406 1.142-.514 2.285.387-.68 1.464-.193 1.909-.946.387 1.013-.028 1.37-.56 1.626-.548.257-1.232.42-1.416 1.132.328 1.03.828-.591 1.305-.7-.6 1.051-.313 2.386-.286 3.607.049 1.214-.171 2.288-1.52 2.481-.071-.41-.172-.824-.261-1.225-.81.647-1.037 1.07-.792 1.07.063-.296.304-.29.544-.295-.068 1.519-.98 2.329-1.977 2.975-1.01.655-2.064 1.177-2.71 2.365.462.111.817-.113 1.117.092-.216.641-.85.545-1.48.536-.657-.025-1.276.048-1.618 1.064l.636.064c-.247.688-1.107.535-1.145.365.687.714-.092 1.459-1 2.306-.462.413-.936.878-1.312 1.38a3.003 3.003 0 0 0-.431.85 2.57 2.57 0 0 0-.139.999c-.368-.085-.815-.085-1.295-.051-.487.024-.995.1-1.469.216-.97.194-1.806.546-2.097.974-.717 1.59 1.563.738 1.591 1.92-.986.434-1.876-.334-3.193.53-.182-.513.337-1.293.515-1.884.184-.593.036-1.007-1.3-.851l-.162.682c.24-.166.518-.509.931-.506.962.337-.184.846-.267 1.19a26.67 26.67 0 0 1-2.929.5c-.455-1.08 1.252-1.218 1.33-1.578-1.02.453-2.123 1.177-3.304 1.748-1.18.534-2.44.888-3.538.519l.22.432c-1.405-.46-1.8.038-2.168.447-.352.408-.679.725-1.725-.318-.61.097-.54.413-.539.695 0 .285-.073.543-1.01.45-.526-.069-.15-.46-.038-.593-1.09-.353-1.372-.178-1.64-.018-.257.14-.507.235-1.4-.55l.16 1.309c-1.169-.717-2.214-1.789-3.16-2.758-.484-.466-.942-.92-1.413-1.27-.478-.335-.952-.608-1.483-.708-.294.914.943 1.39 1.176 2.243-1.052-1.334-2.552-2.136-4.058-2.956-1.506-.8-2.983-1.673-3.769-2.846.555-.076.588-.647.712-1.125.121-.482.327-.866 1.157-.648-.385 1.22.692 1.048 1.337 1.615.144-1.488-1.15-2.024-2.414-2.569-.628-.27-1.227-.552-1.61-.869-.367-.335-.498-.72-.176-1.212l-.92.434c-.2-.362-.34-1.576.325-1.303l-1.16-.767-1.133-.825c.055.585.094 1.576.345 2.356.238.79.626 1.412 1.227 1.26-.094 1.298-1.325-.334-1.597.996-.257-2.536-1.354-.388-2.495-2.202.832-.102.822-.786.734-1.494-.09-.712-.3-1.428-.01-1.596-.593-.36-.938-1.888-.833-2.603-.126-.25-.371-.526-.667-.84l-.977-1.057c-.672-.774-1.348-1.678-1.52-2.606-.1.808-.073 2.051-.868 2.397-.028-1.042-.434-1.949-1.442-1.668-.104 1.925.578 1.907 1.264 1.784.71-.121 1.396-.31 1.643 1.246-.616 1.23-.406 2.095.217 3.59-.962-.205-1.006.213-1.839.42.435-1.524-.18-2.605-.937-3.736-.741-1.128-1.625-2.315-1.596-3.738.11-.64.599-.922.972-1.332.37-.41.624-.937.35-2.058a29.41 29.41 0 0 0 1.42 1.531c-1.452-1.703.464-.744.088-2.438l-.493.923c-.538-.94-.519-1.375-.158-2.11-.293.41-.584.828-.872 1.256-.324-.505-.824-1.497-.13-1.722-.326-.056-.568-.04-.767.021.164-.17.213-.472-.012-1.122-.026.425.129.683-.217.794-.23-1.307-.564-1.38-.915-1.323-.35.057-.689.245-.825-.591-.21.324-.677-.063-.948-.639.95-.18 1.32-1.097 1.596-2.065.296-.975.489-2.013.995-2.479l-.027.013c.172-.734.397-1.455.62-2.16-.128.43-.697 0-.907-.62l.01.101c-.304-.687-2.083.888-1.545-1.243.183-.371.402-.735.6-1.094-.077.194-.363-.004-.506-.116.187-.375.372-.744.584-1.106-.41-.464-.542-.91-.502-1.333.052-.422.26-.824.496-1.224.5-.8 1.102-1.566.905-2.637.01.596-.284 1.44-.785.956-.15-.436.205-.98.543-1.215l-.231.052c.662-1.182 1.42-2.291 2.19-3.343-.71.06-1.409 2.111-1.823.976-.658-.82.572-1.623.895-2.232.439.277.42 1.595 1.123.512-.09-.116-.152-.503-.256-.818-.097-.31-.233-.546-.519-.349.98-1.033 2.11-2.597 3.457-3.103-.018-.425-.471-.041-.625.092l.082.151c-.308.264-.609.134-.867.134-.262-.003-.481.137-.582.951-1.56-.634.6-2.25 1.171-3.48-.708.41-1.429.846-2.116 1.334-.077-2.249 1.316-4.254 3.073-5.762 1.763-1.537 3.844-2.565 5.345-3.663-.57 1.06-1.549 1.291-.616 2.192.53-.232.893-.409 1.18-.555a6.19 6.19 0 0 0 .706-.375c.397-.258.79-.526 1.77-1.002l-.192.043c.292-.597.975-.776 1.545-1.01.599-.193 1.108-.418 1.198-1.117-.762-.422-1.145 1.324-1.845.055.868-.408 1.742-.8 2.64-1.124-1.183-.459-2.677 1.096-3.694 1.493-.645.466 1.486-.626 1.6.41-.569.31-1.055.514-1.498.637-.43.144-.822.203-1.207.21-.776.005-1.481-.148-2.46-.29-1.308-.28.388-1.584.844-1.888 2.39.181 4.814-.386 7.144-1.96.345-.523.71-1.048 1.106-1.54 1.633.567 1.555 2.6 3.76 1.877-.275-.217-.56-.443-.845-.649.448-.407.778-.566 1.03-.607a45.299 45.299 0 0 0-3.543-1.132c.233-.52.64-.783 1.135-.894.494-.12 1.075-.084 1.684.052.606.118 1.23.309 1.831.505.6.176 1.173.339 1.698.398-.122-.203-.856-.232-1.12-.622 1.562-.348 3.233-.029 4.702.554.739.257 1.43.621 2.077.89.642.323 1.242.559 1.797.74.546-.263.1-.49-.422-.741-.52-.243-1.113-.542-.798-1.05.603.297 1.29.256 1.853.319.564.05 1.006.144 1.054.688-.228-1.549 2.897.612.816-1.303 2.382.257 4.737 1.284 6.816 2.678 2.09 1.394 3.906 3.143 5.503 4.847.077-.48.286-.776.622-.896-1.28-.961-3.055-2.528-3.378-3.865.652-.045 1.099.497 1.412 1.024.31.541.502 1.052.751.954-.262-.604-1.196-1.188-.85-1.81 1.663.067 1.726 1.492 2.442 2.188l-.651-.015c.982 1.295.902 2.067.963 2.695.028.315.086.595.301.901.208.317.57.66 1.225 1.094 1.419.124.485-.546 1.184-1.373.142.416.853.833 1.514 1.327.632.519 1.225 1.102 1.06 1.791-.46-.461-.945-.899-1.415-1.348.363.604.777 1.121 1.122 1.63.339.512.636.988.798 1.46.117-.225.246-.438.125-.716.438 1.046 1.368 2.072 1.099 2.952l1.114-.454c-.778-.236-2.047-1.643-1.76-2.322.893-.514 1.675 1.434 2.223 2.095-.492-.827-.81-1.497-1.032-2.091-.213-.602-.347-1.112-.505-1.587-.3-.956-.698-1.783-2.156-2.694.053.216.108.428.152.65-1.05-.404-1.688-1.225-2.307-2.07-.594-.865-1.176-1.745-1.912-2.296.555.117.894-.146.82-.458-1.928-.882-3.646-1.94-5.502-2.948-1.846-1.009-3.85-1.938-6.15-2.436-.314-.529-.658-1.02-1.01-1.53l-.334.815c-2.317-.257-.154-1.332-1.65-1.632.567.136.43.252.49.493-1.208-.825-1.648-.683-1.926-.44-.284.243-.43.604-1.147.324.275.53.962.75 1.47.976.509.236.824.49.368 1.014-.567-.405-1.272-.67-1.99-.942a63.88 63.88 0 0 0-2.162-.633c-1.37-.402-2.495-.807-2.678-1.873-2.583.356-5.425.453-8.217.826-2.784.349-5.5.952-7.555 1.82-.383.602.46.093.375.464-.515-.085-1.085.089-1.648.378-.562.292-1.09.747-1.573 1.15-.948.848-1.642 1.626-1.968 1.182-.514.748-.312 1.594-.312 1.958-1.17.23-2.353.881-3.47 1.738l.953-.471.017.185c-.446.221-.9.44-1.347.676l-.01-.087c-1.346 1.123-2.61 2.53-3.812 3.938-1.18 1.425-2.358 2.81-3.626 3.96 1.518-1.264.92 1.041 1.714.496-1.14.256-2.184 1.281-2.998 2.648-.844 1.358-1.392 3.06-1.782 4.593.351.093.555.405.942.143-.403.5-.776 1.02-1.168 1.545l.481-.12c-.15.794-.352 1.587-.66 2.359-.264.778-.6 1.544-.874 2.294C.976 25.17.58 26.602.934 27.7c.277-1.32.665-1.291 1.244-1.374-.224 2.274-.287 4.403-.608 7.116.09-.151.21-.254.34-.267.208.682-.135 1.555-.265 2.301l.875-.012c-.218 1.404.49 3.046.194 4.769.538.202.532 1.198.58 2.372.008.59.032 1.222.128 1.81.095.586.217 1.144.49 1.547.054.739.384-1.796 1.045.087-.829.463-.61 1.09-.399 1.696.227.6.431 1.19-.462 1.682.459.456.945.89 1.43 1.314l-.733.808c1.179.27 1.27.856 1.267 1.639-.013.78-.072 1.734.791 2.569.122-.221.055-.47.24-.445.182.756 1.064 2.258-.123 1.428.647 1.063 2.83 4.755 2.546 2.572-.373.457-1.038-1.225-1.26-1.969.752-.4 1.553 1.277 2.574 1.06-.04.103-.024.39-.027.61l.584-.131c.162.584.412 1.113.695 1.605.3.479.634.92.95 1.354.643.86 1.233 1.663 1.404 2.696.259-.125.692 0 1.225.587l-.71.83c.612.563 1.262 1.089 1.895 1.63.038-.662.088-1.32.148-1.966 1.093.757 1.752 1.726 2.36 2.741.31.498.605 1.005.931 1.485.337.466.708.9 1.15 1.267.722-.601 1.562.092 2.571.897.515.383 1.069.8 1.655 1.072.593.258 1.209.385 1.812.22l-1.369-1.187c1.595.957 2.681 1.18 3.697 1.42 1.036.211 2.002.44 3.58 1.217a28.863 28.863 0 0 1-1.79-.208l-1.35-.24a78.037 78.037 0 0 0-1.648-.224l-1.17-.119-1.521-.18c2.151.623 3.837 1.515 5.573 2.31 1.725.789 3.54 1.397 5.665 1.237-.21-.466-1.145-.944-.101-1.194.305.533 1.261.655 2.035.776.778.086 1.387.17 1.037.691 1.314-.245 1.58-1.298 2.339-1.41 1.372.495 2.8.899 4.276 1.228l-.15-.207c.887-.375 1.741-.723 2.587-.963.84-.291 1.68-.455 2.51-.662a22.96 22.96 0 0 1 1.256-.242c.415-.086.832-.168 1.253-.24.848-.127 1.681-.308 2.538-.455.85-.165 1.697-.365 2.552-.583.835-.26 1.702-.492 2.515-.861a13.59 13.59 0 0 0 4.563-3.013l-.468-.377c.669-.139 1.315-.329 1.988-.51-1.499.5.031-.96-.24-1.424 1.435-.728 2.872-1.537 4.236-2.474-.32-.423-1.344-.962-1.957.013z" mask="url(#b)"/>
            <path fill="#E5FBF0" d="M70.35 53.6c.01-.381.075-.616.173-.8-.015.264-.06.534-.172.8M17.91 62.006c-.176.115-.336.074-.496-.032.104-.064.251-.076.495.032M16.633 58.917c-.014-.038-.04-.071-.055-.105.005-.039.005-.088.008-.13l.047.235zM63.09 18.64c-.303 1.53-.514-.503-.862-1.04.338.532.969.135.863 1.04M61.407 14.4c.04.507.229 1.047.542 1.6-.257-.276-.437-.688-.542-1.6M63.466 17.6c-.671-.544-1.182-1.074-1.518-1.6.393.396.988.47 1.518 1.6M52.158 8.8c.158.345.542.58.891.73.342.16.647.24.647.24-1.305-.38-1.322-.086-1.006.289.306.398.905.94.885 1.141-1.291-.845-.957-1.368-1.417-2.4M48.968 6.687c.264.119.522.217.75.217-.304.04-.538-.06-.75-.217M47.819 7.2c-.833-.608-.957-1.564-1.238-2.389.634-.083 1.056.305 1.398.797.344.49.623 1.03.99 1.353-.635-.317-1.238-.683-1.15.239M22.047 12.92c.2-.037.584-.25.79 0-.381.21-.763.422-1.122.661-.569.134.138-.479.332-.66M16.854 14.4c-.87 1.01.234 1.23-.314 1.6l-.872-1.087c.386-.193.797-.346 1.186-.513M12.948 10.06l.4-.237c-.13.113-.257.225-.388.354l-.012-.118zM14.276 20.092c.521.015 1.061.047 1.578.078-.823.317-1.73-.004-1.578-.078M12.979 24.379l.674-.379c-.438.507-.812 1.057-1.222 1.6l.548-1.221zM10.565 28.8l.232.26c-.247.435-.47.884-.684 1.34.128-.54.281-1.074.452-1.6M36.53 75.422c-.018.603-.589.635-1.259.533-.663-.119-1.404-.404-1.795-.361.462-.632.879-.379 1.367-.1.482.284 1.061.527 1.688-.072M70.276 56c-.303.55-.68 1.072-1.023 1.6.18-1.415.2-.34 1.023-1.6" mask="url(#b)"/>
        </g>
        <g fill-rule="nonzero">
            <path fill="#02DC6C" d="M280.381 55.482h-17.08a5.329 5.329 0 0 1-5.301-5.3V33.15a5.34 5.34 0 0 1 5.301-5.35h17.032a5.34 5.34 0 0 1 5.35 5.301v17.032a5.34 5.34 0 0 1-5.302 5.35z"/>
            <path fill="#FFF" d="M278.035 43.371a.844.844 0 1 1 0-1.688.844.844 0 0 1 0 1.688m-4.118 0a.844.844 0 1 1 0-1.688.844.844 0 0 1 0 1.688m6.135 4.793a4.844 4.844 0 0 0 2.17-3.941c0-2.862-2.768-5.208-6.228-5.208s-6.229 2.346-6.229 5.208c0 2.861 2.768 5.19 6.229 5.19a6.883 6.883 0 0 0 2.017-.284c.048 0 .142-.045.19-.045a.654.654 0 0 1 .325.094l1.364.8c.045 0 .093.044.138.044a.204.204 0 0 0 .19-.187.17.17 0 0 0-.048-.142c0-.045-.187-.657-.28-1.038v-.142a.415.415 0 0 1 .187-.373"/>
            <path fill="#FFF" d="M271.467 38.544a.986.986 0 1 1 0-1.969c.531.028.956.452.983.983a.962.962 0 0 1-.983.986m-4.975 0a.986.986 0 1 1 .986-.986.993.993 0 0 1-.986.986m2.488-5.256c-4.129 0-7.46 2.768-7.46 6.229a5.768 5.768 0 0 0 2.58 4.692.464.464 0 0 1 .187.422.166.166 0 0 1-.048.138c-.138.47-.346 1.222-.346 1.27 0 .049-.045.139-.045.187a.225.225 0 0 0 .235.235.166.166 0 0 0 .139-.048l1.643-.938a.567.567 0 0 1 .374-.093.436.436 0 0 1 .235.045 8.263 8.263 0 0 0 2.44.346h.422a5.433 5.433 0 0 1-.232-1.547c0-3.145 3.049-5.678 6.803-5.678h.433c-.516-2.955-3.613-5.257-7.367-5.257"/>
        </g>
        <g transform="translate(117 2)">
            <path fill="#EAF6FB" d="M72.644 24.075c9.212 19.818 2.4 42.478-15.214 50.611-17.614 8.132-39.362-1.34-48.574-21.16-9.213-19.82-2.401-42.48 15.213-50.612 17.615-8.132 39.362 1.34 48.575 21.16M73.502 23.787c.985.757.912-.65.754-1.93a54.95 54.95 0 0 0-2.306-.257c.567.707 1.034 1.457 1.552 2.187"/>
            <path fill="#EAF6FB" d="M70.35 17.775l-1.735-.936c-.583-.294-1.176-.569-1.754-.839.72.479 1.462.962 2.158 1.496.377 1.425-.096 1.6-.749 1.37-.66-.229-1.473-.885-1.92-1.175 1.413 1.644 2.079 1.703 2.579 1.302.494-.39.778-1.235 1.42-1.218M65.504 13.804c-1.312-2.045-1.762-.507-1.469.575.456-.295 1.776.526 1.469-.575M19.95 74.4c-.256-.64-.574-1.326-.392-1.524-.503-.21-.711-.067.392 1.524M19.285 72.367c.16.04.333.082.53.142-.143-.074-.255-.146-.427-.218-.066.009-.066.053-.103.076"/>
            <mask id="d" fill="#fff">
                <use xlink:href="#c"/>
            </mask>
            <path fill="#EAF6FB" d="M14.646 34.011c-.747-1.806-.12-2.768-.171-4.45.5-.224 1.017-.43 1.538-.618-.041-.89-.273-1.151-.548-1.36-.28-.213-.607-.371-.78-1.11.322-.34.61-.794.822-1.318.253-.505.427-1.086.624-1.626.365-1.094.686-2.104.897-2.426.412-.078.523.174.565.484.045.316.038.706.156.901.506-1.953-.728-2.554.747-4.704l.328.187c1.019-3.042 3.44-5.885 6.547-7.922 3.124-2.076 6.8-3.348 10.47-4.192-.51-.038-.405-.336-.627-.6 4.008-.61 8.497-.145 12.746.89 4.278 1.014 8.306 2.558 12.195 3.611-2.043-1.448-4.572-3.75-7.603-5.413a18.197 18.197 0 0 0-4.69-1.858c-1.583-.34-3.128-.4-4.473-.013-.407-.342-.92-.505-1.456-.608-.536-.114-1.098-.122-1.623-.136-1.051-.059-1.95-.028-2.335-.759-3.682-.299-6.264.61-8.488 1.797-2.242 1.214-4.207 2.644-7.017 4.34-.927.304-.912-.519-1.503-.913a28.869 28.869 0 0 1 4.618-3.182 30.248 30.248 0 0 0-3.363 1.01c.249-.333.674-.636 1.157-.948.478-.323 1.029-.616 1.553-.896.515-.297 1.003-.576 1.37-.85.363-.283.596-.586.6-.918-2.233 1.538-5.185 3.018-7.769 4.978-2.572 1.943-4.737 4.31-5.418 6.53 1.514-1.339 3.022-3.377 4.999-4.742.559-.132 1.199-.374 1.743-.484.555-.098.994-.086 1.133.222-2.192 2.553-4.048 4.664-5.837 6.917-1.74 2.266-3.367 4.731-4.332 7.815-.48 1.536-1.25 3.564-1.924 3.666.068-1.108-.679-.472-.709-1.43-.104 1.222.498 1.445.912 1.754.433.314.696.696.224 2.26a99.121 99.121 0 0 1-2.152-.904c1.023.933.738 1.899.339 3.035-.39 1.125-.882 2.444-.21 3.692-.946.855-1.462-.805-1.322-2.754-.602 2.169.738 2.45.671 4.149-.67-.545-1.276-1.116-1.915-1.716.45.5.639.95.676 1.372.047.422-.073.818-.272 1.195-.412.754-1.057 1.444-1.352 2.022.241.05.72-.204 1.141-.165.425.04.767.36.836 1.535-.148 1.036-.69.578-.942.85.503.079 1.467.816 1.787 2.317-.596.402-1.16-.849-1.822-.86.094.598.255 1.126.315 1.63.062.506.049.983-.106 1.472 1.024 1.96.89-.344 1.877.74.194 1.596-.313 1.844-1.022 1.865-.702.024-1.598-.204-2.09.601-1.668-2.238-2.567-5.615-3.242-6.992.412 1.697.866 3.372 1.457 4.993-.406-.066-.543.868-.698 1.513-.155.64-.4 1.012-1.128-.26.32 2.678 1.33 5.51 2.712 8.086 1.374 2.585 3.115 4.921 4.768 6.848-.19-.733-.517-1.6-.028-1.727 1.756 1.905.836 2.177.671 2.95 1.59 1.243 2.492.291 3.98.557.369.911.723 1.594 1.066 2.142.335.557.632 1.003.933 1.423.298.425.565.857.848 1.39.296.522.587 1.166.94 2.031l.733-1.12c.526 1.154 1.183 1.44 1.896 1.647.718.213 1.43.418 2.225 1.443-.046.306-1.043.047-1.844-.198 2.058.98 1.03 2.159 3.2 2.949-.758.097-1.532.183-2.32.257 1.552.996 4.125 1.921 2.678 2.544 1.796.151 3.85.96 6.066 1.662 2.198.72 4.55 1.346 6.591 1.357l-.51 1.055c.59-.213 1.356-.251 2.201-.171.852.044 1.788.203 2.732.277.471.039.94.074 1.394.093.454.006.895-.015 1.303-.059.815-.074 1.507-.324 1.944-.743l.315.462a35.07 35.07 0 0 0 3.917-1.869c1.796-.142 1.507 1.632 1.564 1.145 4.007-1.023 6.9-2.311 9.547-2.92-.021-.42.19-.875.554-1.345.36-.477.853-1.004 1.44-1.519 1.14-1.076 2.582-2.228 3.763-3.357 3.197-2.288 5.926-5.354 7.993-8.79a33.898 33.898 0 0 0 2.595-5.408 37.028 37.028 0 0 0 1.578-5.724 39 39 0 0 0 .595-5.796 40.614 40.614 0 0 0-.301-5.664c-.5-3.695-1.465-7.188-2.822-10.327-.292-.973-1.093-1.992-2.002-2.98l-1.438-1.452c-.496-.47-.97-.937-1.379-1.408.208.712.414 1.237.626 1.672.204.437.394.79.608 1.135.432.687.868 1.38 1.306 2.767.113 1.106-.17 1.948-.58 2.75-.384.796-.896 1.554-1.22 2.496.37-.365.74-.74 1.107-1.125.795 1.291.68 1.825.6 2.251-.077.434-.127.765.629 1.825l-2.097.106c.286.163.458.412.548.707.076.295.066.634.008.974-.103.681-.468 1.359-.734 1.743.483.23.974.47 1.453.719-.837 1.734-1.296 2.8-2.646 3.158l1.339-.02c-.45.275-.615 1.88-1.001 3.108-.42 1.228-.938 2.035-1.821.838.2.517.73 1.102.308 2.058l-1.313-.242c-.078 1.46-.477 3.057-1.327 3.12.022-.817-.431-1.265-.893-1.702-.566 1.288-.697 2.07-.551 2.659.155.593.573.97 1.01 1.334.44.369.898.724 1.076 1.306.184.583.07 1.4-.714 2.6l-.67-.54c-.027.55-.032 1.137-.1 1.692-.61.173-1.175.358-1.782.478.488 1.712-1.008 3.205-2.847 4.366-1.853 1.193-3.99 1.994-5.209 3.41-.274.217-.649.284-1.06.33a8.17 8.17 0 0 1-1.377.008 22.702 22.702 0 0 0-1.564-.012c-.543.03-1.1.122-1.69.297l.47 1.246c-1.164-.375-3.633-.473-5.936-1.212-2.311-.697-4.373-2-4.885-3.65-1.829.687.115.303-.096 1.33-.444.086-.84.13-1.187.14a3.782 3.782 0 0 1-.903-.126c-.522-.128-.872-.415-1.15-.726-.556-.615-.79-1.482-1.452-2.132-1.059-.08-.757.18-.34.532.41.355.955.743.249 1.031-1.337-1.036-2.062-.958-2.956-.902-.862.022-1.914.028-3.453-1.481.059-.845 1.178.154 1.799-.08-1.575-.126-3.438-1.196-5.178-2.695-1.753-1.494-3.369-3.391-4.835-5.056-1.19-2.286-2.593-5.088-3.548-8.154-.982-3.045-1.486-6.29-1.315-9.099l-.488-.028c.22-.62.291-1.213.32-1.812a16.656 16.656 0 0 0-.098-1.804c-.11-1.216-.256-2.51.14-3.792-.277.403-.54.819-.782 1.247M27.95-1.337L27.052-2.4c-.544.346-1.07.728-1.586 1.13-.519.387-1.028.784-1.516 1.223.823.138 1.331-.04 1.883-.353.543-.328 1.147-.729 2.117-.937" mask="url(#d)"/>
            <path fill="#EAF6FB" d="M28.184 1.6c.444-.272.894-.56 1.366-.8-.41.093-.81.213-1.21.338-.398.126-.803.232-1.19.383.343.01.692.044 1.034.079M3.485 33.6l.218-.44a38.825 38.825 0 0 1-.037-6.76 38.71 38.71 0 0 0-.18 7.2M18.84 74.782c-1.069-.037-1.93-.923-2.89-1.182.515.295 1.053.562 1.589.827.535.264 1.059.537 1.61.773l-.309-.418z" mask="url(#d)"/>
            <path fill="#31A8DC" d="M58.35 82.4c-1.23.413-1.8.982-2.4 1.51.967.219 1.389.011 1.651-.325.264-.335.377-.803.749-1.185" mask="url(#d)" opacity=".1"/>
        </g>
        <g transform="translate(166.55 87.6)">
            <mask id="f" fill="#fff">
                <use xlink:href="#e"/>
            </mask>
            <path fill="#F4F6F8" d="M.891 2.4c1.256-2.54 3.204-.557.725-2.215-2.425.818-.125 1.33-.725 2.215" mask="url(#f)"/>
        </g>
        <g fill-rule="nonzero" transform="translate(141.8 26.8)">
            <circle cx="15.729" cy="15.729" r="15.729" fill="url(#g)"/>
            <path fill="#C8DAEA" d="M12.846 22.936c-.51 0-.424-.192-.601-.676l-1.498-4.931 11.537-6.842"/>
            <path fill="#A9C9DD" d="M12.846 22.936a.999.999 0 0 0 .787-.393l2.096-2.037-2.615-1.573"/>
            <path fill="url(#h)" d="M13.114 18.93l6.338 4.683c.724.393 1.243.192 1.424-.673l2.58-12.158c.267-1.062-.394-1.541-1.094-1.227l-15.15 5.843c-1.035.413-1.03.991-.19 1.247l3.89 1.215 9-5.67c.425-.26.814-.118.492.165"/>
        </g>
        <path fill="#E5F5FB" d="M186.244 136.475c9.212 19.818 2.4 42.478-15.214 50.611-17.614 8.132-39.362-1.34-48.574-21.16-9.213-19.82-2.401-42.48 15.213-50.612 17.615-8.132 39.362 1.34 48.575 21.16M187.102 136.187c.985.757.912-.65.754-1.93a54.95 54.95 0 0 0-2.306-.257c.567.707 1.034 1.457 1.552 2.187"/>
        <path fill="#E5F5FB" d="M183.95 130.175l-1.735-.936c-.583-.294-1.176-.569-1.754-.839.72.479 1.462.962 2.158 1.496.377 1.425-.096 1.6-.749 1.37-.66-.229-1.473-.885-1.92-1.175 1.413 1.644 2.079 1.703 2.579 1.302.494-.39.778-1.235 1.42-1.218M179.104 126.204c-1.312-2.045-1.762-.507-1.469.575.456-.295 1.776.526 1.469-.575M133.55 186.8c-.256-.64-.574-1.326-.392-1.524-.503-.21-.711-.067.392 1.524M132.885 184.767c.16.04.333.082.53.142-.143-.074-.255-.146-.427-.218-.066.009-.066.053-.103.076"/>
        <g transform="translate(118.35 111.6)">
            <mask id="j" fill="#fff">
                <use xlink:href="#i"/>
            </mask>
            <path fill="#E5F5FB" d="M13.896 34.011c-.746-1.806-.12-2.768-.171-4.45.501-.224 1.017-.43 1.539-.618-.042-.89-.273-1.151-.549-1.36-.28-.213-.607-.371-.78-1.11.322-.34.61-.794.823-1.318.252-.505.426-1.086.623-1.626.365-1.094.686-2.104.897-2.426.412-.078.524.174.565.484.046.316.039.706.156.901.506-1.953-.727-2.554.747-4.704l.328.187c1.02-3.042 3.44-5.885 6.548-7.922 3.124-2.076 6.8-3.348 10.47-4.192-.51-.038-.406-.336-.628-.6 4.008-.61 8.498-.145 12.746.89 4.278 1.014 8.306 2.558 12.195 3.611-2.043-1.448-4.571-3.75-7.603-5.413a18.197 18.197 0 0 0-4.69-1.858c-1.583-.34-3.127-.4-4.472-.013-.407-.342-.92-.505-1.456-.608-.536-.114-1.099-.122-1.624-.136-1.05-.059-1.95-.028-2.335-.759-3.681-.299-6.263.61-8.488 1.797-2.242 1.214-4.207 2.644-7.017 4.34-.927.304-.911-.519-1.503-.913a28.869 28.869 0 0 1 4.619-3.182 30.248 30.248 0 0 0-3.364 1.01c.25-.333.675-.636 1.157-.948.478-.323 1.03-.616 1.553-.896.515-.297 1.004-.576 1.37-.85.363-.283.597-.586.6-.918C23.92 1.95 20.967 3.43 18.383 5.39c-2.571 1.943-4.736 4.31-5.418 6.53 1.514-1.339 3.022-3.377 5-4.742.558-.132 1.198-.374 1.742-.484.555-.098.995-.086 1.134.222-2.192 2.553-4.048 4.664-5.837 6.917-1.74 2.266-3.368 4.731-4.333 7.815-.48 1.536-1.249 3.564-1.924 3.666.068-1.108-.678-.472-.708-1.43-.105 1.222.497 1.445.911 1.754.434.314.696.696.224 2.26a99.121 99.121 0 0 1-2.151-.904c1.022.933.737 1.899.338 3.035-.39 1.125-.882 2.444-.21 3.692-.945.855-1.461-.805-1.322-2.754-.601 2.169.738 2.45.672 4.149-.67-.545-1.277-1.116-1.916-1.716.451.5.64.95.676 1.372.047.422-.073.818-.271 1.195-.413.754-1.057 1.444-1.353 2.022.242.05.72-.204 1.142-.165.424.04.766.36.836 1.535-.15 1.036-.691.578-.943.85.504.079 1.467.816 1.787 2.317-.595.402-1.16-.849-1.822-.86.095.598.255 1.126.316 1.63.061.506.048.983-.106 1.472 1.024 1.96.89-.344 1.877.74.193 1.596-.314 1.844-1.022 1.865-.703.024-1.598-.204-2.091.601-1.668-2.238-2.566-5.615-3.242-6.992.413 1.697.866 3.372 1.457 4.993-.406-.066-.542.868-.698 1.513-.154.64-.4 1.012-1.128-.26.32 2.678 1.33 5.51 2.712 8.086 1.375 2.585 3.115 4.921 4.769 6.848-.19-.733-.518-1.6-.029-1.727 1.756 1.905.836 2.177.672 2.95 1.59 1.243 2.491.291 3.979.557.369.911.723 1.594 1.066 2.142.335.557.632 1.003.934 1.423.297.425.564.857.848 1.39.296.522.586 1.166.94 2.031l.732-1.12c.527 1.154 1.184 1.44 1.897 1.647.717.213 1.43.418 2.224 1.443-.046.306-1.043.047-1.844-.198 2.058.98 1.03 2.159 3.2 2.949-.758.097-1.531.183-2.32.257 1.553.996 4.126 1.921 2.678 2.544 1.796.151 3.85.96 6.066 1.662 2.199.72 4.55 1.346 6.591 1.357l-.51 1.055c.59-.213 1.356-.251 2.202-.171.851.044 1.788.203 2.732.277.47.039.94.074 1.394.093.454.006.894-.015 1.303-.059.815-.074 1.506-.324 1.943-.743l.315.462a35.07 35.07 0 0 0 3.917-1.869c1.796-.142 1.507 1.632 1.564 1.145 4.008-1.023 6.9-2.311 9.547-2.92-.02-.42.191-.875.554-1.345.36-.477.854-1.004 1.44-1.519 1.14-1.076 2.582-2.228 3.763-3.357 3.198-2.288 5.927-5.354 7.993-8.79a33.898 33.898 0 0 0 2.596-5.408 37.028 37.028 0 0 0 1.577-5.724 39 39 0 0 0 .596-5.796 40.614 40.614 0 0 0-.302-5.664c-.5-3.695-1.464-7.188-2.821-10.327-.293-.973-1.094-1.992-2.002-2.98l-1.439-1.452c-.496-.47-.969-.937-1.378-1.408.207.712.413 1.237.625 1.672.204.437.394.79.609 1.135.432.687.867 1.38 1.305 2.767.114 1.106-.17 1.948-.58 2.75-.384.796-.896 1.554-1.22 2.496.37-.365.74-.74 1.108-1.125.794 1.291.679 1.825.599 2.251-.077.434-.126.765.63 1.825l-2.098.106c.286.163.459.412.549.707.075.295.066.634.007.974-.103.681-.468 1.359-.734 1.743.483.23.975.47 1.454.719-.838 1.734-1.296 2.8-2.647 3.158l1.34-.02c-.451.275-.616 1.88-1.002 3.108-.42 1.228-.937 2.035-1.821.838.2.517.73 1.102.309 2.058l-1.314-.242c-.078 1.46-.477 3.057-1.326 3.12.021-.817-.432-1.265-.893-1.702-.566 1.288-.697 2.07-.552 2.659.155.593.573.97 1.011 1.334.439.369.897.724 1.076 1.306.184.583.069 1.4-.714 2.6l-.67-.54c-.027.55-.033 1.137-.102 1.692-.608.173-1.173.358-1.78.478.488 1.712-1.008 3.205-2.847 4.366-1.854 1.193-3.99 1.994-5.21 3.41-.273.217-.648.284-1.06.33a8.17 8.17 0 0 1-1.376.008 22.702 22.702 0 0 0-1.565-.012c-.542.03-1.1.122-1.689.297l.47 1.246c-1.165-.375-3.634-.473-5.937-1.212-2.311-.697-4.372-2-4.885-3.65-1.829.687.115.303-.095 1.33-.444.086-.84.13-1.188.14a3.782 3.782 0 0 1-.903-.126c-.521-.128-.872-.415-1.15-.726-.556-.615-.789-1.482-1.452-2.132-1.058-.08-.757.18-.34.532.41.355.955.743.249 1.031-1.337-1.036-2.062-.958-2.956-.902-.861.022-1.913.028-3.453-1.481.06-.845 1.178.154 1.8-.08-1.575-.126-3.438-1.196-5.178-2.695-1.753-1.494-3.37-3.391-4.835-5.056-1.19-2.286-2.594-5.088-3.548-8.154-.983-3.045-1.487-6.29-1.315-9.099l-.488-.028c.22-.62.29-1.213.32-1.812a16.656 16.656 0 0 0-.099-1.804c-.11-1.216-.256-2.51.14-3.792-.277.403-.54.819-.782 1.247" mask="url(#j)"/>
        </g>
        <path fill="#E5F5FB" d="M141.55 111.063l-.898-1.063c-.544.346-1.07.728-1.586 1.13-.519.387-1.028.784-1.516 1.223.823.138 1.331-.04 1.883-.353.543-.328 1.147-.729 2.117-.937M141.784 114c.444-.272.894-.56 1.366-.8-.41.093-.81.213-1.21.338-.398.126-.803.232-1.19.383.343.01.692.044 1.034.079M117.085 146l.218-.44a38.825 38.825 0 0 1-.037-6.76 38.71 38.71 0 0 0-.18 7.2M132.44 187.182c-1.069-.037-1.93-.923-2.89-1.182.515.295 1.053.562 1.589.827.535.264 1.059.537 1.61.773l-.309-.418z"/>
        <g transform="translate(163.15 198)">
            <mask id="l" fill="#fff">
                <use xlink:href="#k"/>
            </mask>
            <path fill="#E5F5FB" d="M.891 2.4c1.256-2.54 3.204-.557.725-2.215-2.425.818-.125 1.33-.725 2.215" mask="url(#l)"/>
        </g>
        <path fill="#E5F5FB" d="M171.95 194.8c-1.23.413-1.8.982-2.4 1.51.967.219 1.389.011 1.651-.325.264-.335.377-.803.749-1.185"/>
        <g fill="#00A1E0" fill-rule="nonzero">
            <path d="M153.684 139.608a8.28 8.28 0 0 1 5.984-2.562c3.114 0 5.832 1.732 7.28 4.303a10.084 10.084 0 0 1 4.113-.872c5.618 0 10.173 4.581 10.173 10.231 0 5.652-4.555 10.233-10.173 10.233a10.14 10.14 0 0 1-2.003-.2 7.437 7.437 0 0 1-6.49 3.799 7.416 7.416 0 0 1-3.254-.747 8.485 8.485 0 0 1-7.81 5.155 8.488 8.488 0 0 1-7.962-5.537 7.799 7.799 0 0 1-1.618.168c-4.35 0-7.876-3.552-7.876-7.935 0-2.937 1.584-5.5 3.938-6.873a9.061 9.061 0 0 1-.754-3.63c0-5.04 4.104-9.125 9.165-9.125a9.162 9.162 0 0 1 7.287 3.592zm-12.802 13.485c-.03.078.01.094.02.107.089.065.18.11.27.163.481.254.936.329 1.41.329.969 0 1.57-.514 1.57-1.34v-.016c0-.765-.679-1.042-1.315-1.242l-.083-.027c-.48-.156-.894-.29-.894-.604v-.017c0-.27.242-.468.618-.468.416 0 .911.138 1.23.313 0 0 .093.061.128-.03.018-.048.18-.48.196-.528.018-.05-.014-.088-.047-.108a2.747 2.747 0 0 0-1.386-.372l-.097.001c-.886 0-1.504.533-1.504 1.298v.016c0 .806.682 1.068 1.321 1.25l.103.032c.466.142.867.265.867.592v.016c0 .3-.26.522-.682.522a2.293 2.293 0 0 1-1.247-.358c-.068-.04-.107-.069-.16-.1-.027-.017-.097-.047-.127.044l-.19.528zm14.17 0c-.03.078.01.094.02.107.089.065.179.11.27.163.481.254.936.329 1.41.329.969 0 1.57-.514 1.57-1.34v-.016c0-.765-.679-1.042-1.315-1.242l-.083-.027c-.48-.156-.894-.29-.894-.604v-.017c0-.27.242-.468.617-.468.417 0 .912.138 1.23.313 0 0 .094.061.128-.03.019-.048.18-.48.197-.528.018-.05-.014-.088-.047-.108a2.747 2.747 0 0 0-1.386-.372l-.098.001c-.886 0-1.504.533-1.504 1.298v.016c0 .806.683 1.068 1.321 1.25l.104.032c.466.142.867.265.867.592v.016c0 .3-.261.522-.682.522a2.293 2.293 0 0 1-1.247-.358c-.068-.04-.108-.067-.16-.1-.017-.012-.098-.043-.127.044l-.19.528zm9.673-1.618c0 .467-.087.835-.26 1.095-.17.257-.426.383-.785.383-.36 0-.616-.125-.783-.383-.17-.259-.256-.628-.256-1.095 0-.467.087-.834.256-1.091.167-.255.423-.379.783-.379.359 0 .616.124.787.379.171.257.259.624.259 1.09zm.808-.866a1.937 1.937 0 0 0-.367-.7c-.17-.2-.381-.361-.62-.47a2.045 2.045 0 0 0-.866-.173c-.328 0-.62.059-.867.173a1.791 1.791 0 0 0-.621.47 1.969 1.969 0 0 0-.367.7 3.063 3.063 0 0 0-.118.866c0 .31.04.6.118.866.08.266.202.503.368.7.165.197.374.354.62.466.248.112.539.17.867.17.327 0 .618-.058.865-.17.24-.106.452-.266.62-.466.166-.197.29-.432.368-.7.08-.266.12-.557.12-.866 0-.308-.04-.6-.12-.866zm6.636 2.219c-.027-.078-.103-.049-.103-.049a1.873 1.873 0 0 1-.376.107 2.883 2.883 0 0 1-.443.032c-.392 0-.702-.116-.924-.345-.224-.23-.348-.6-.347-1.101.001-.457.111-.8.31-1.061.197-.26.496-.394.896-.394.334 0 .588.039.854.122 0 0 .064.028.095-.055.07-.196.122-.336.197-.551.022-.061-.03-.087-.05-.094a3.158 3.158 0 0 0-.538-.136 4.055 4.055 0 0 0-.607-.041c-.339 0-.642.057-.9.173a1.853 1.853 0 0 0-.651.47 1.998 1.998 0 0 0-.393.7 2.783 2.783 0 0 0-.132.867c0 .668.18 1.208.538 1.604.357.396.894.598 1.595.598a3.3 3.3 0 0 0 1.144-.204s.058-.028.032-.096l-.198-.546zm1.413-1.8c.038-.26.11-.475.221-.644.167-.255.423-.395.782-.395.359 0 .596.14.767.395.112.169.161.393.18.644h-1.95zm2.72-.57a1.692 1.692 0 0 0-.35-.639 1.597 1.597 0 0 0-.519-.394 2.005 2.005 0 0 0-.784-.16c-.34 0-.651.058-.902.176a1.795 1.795 0 0 0-.63.48c-.171.207-.297.448-.37.707a3.052 3.052 0 0 0-.121.87c0 .315.041.608.124.871.084.266.217.5.397.693a1.8 1.8 0 0 0 .688.455c.274.106.609.16.992.16.79-.003 1.206-.179 1.378-.273.03-.017.06-.046.022-.13l-.178-.5c-.027-.074-.103-.047-.103-.047-.196.073-.474.203-1.122.201-.425 0-.74-.125-.936-.32-.203-.2-.301-.493-.319-.907l2.735.002s.072-.001.08-.07c.002-.03.094-.561-.082-1.176zm-24.624.57c.04-.26.11-.475.222-.644.167-.255.423-.395.781-.395.36 0 .596.14.767.395.112.169.162.393.181.644h-1.951zm2.72-.57a1.692 1.692 0 0 0-.35-.639 1.597 1.597 0 0 0-.519-.394 2.005 2.005 0 0 0-.783-.16c-.34 0-.652.058-.903.176a1.795 1.795 0 0 0-.63.48c-.17.207-.297.448-.37.707a3.076 3.076 0 0 0-.12.87c0 .315.041.608.124.871.083.266.216.5.397.693.179.195.41.348.687.455.275.106.61.16.993.16.79-.003 1.206-.179 1.377-.273.03-.017.06-.046.023-.13l-.178-.5c-.027-.074-.104-.047-.104-.047-.195.073-.473.203-1.123.201-.423 0-.738-.125-.935-.32-.202-.2-.3-.493-.319-.907l2.735.002s.072-.001.08-.07c.002-.03.094-.561-.082-1.176zm-8.63 2.355a.557.557 0 0 1-.159-.162.658.658 0 0 1-.081-.355c0-.24.08-.411.244-.528-.002 0 .235-.204.793-.197.392.006.742.063.742.063v1.24s-.347.075-.738.098c-.556.034-.804-.16-.802-.16zm1.087-1.916a6.094 6.094 0 0 0-.427-.013c-.234 0-.46.03-.673.086a1.759 1.759 0 0 0-.571.264c-.166.119-.3.27-.397.45-.1.194-.15.41-.146.629 0 .241.042.45.125.622.083.172.204.316.357.426.152.111.34.192.558.242.214.048.457.073.723.073.28 0 .56-.023.831-.07.23-.039.46-.083.69-.132.09-.021.19-.049.19-.049.069-.017.063-.089.063-.089l-.001-2.493c0-.547-.147-.953-.435-1.204-.287-.251-.71-.378-1.256-.378-.246.003-.491.025-.733.068 0 0-.597.115-.843.307 0 0-.054.033-.025.109l.194.518c.024.067.09.044.09.044s.02-.008.044-.022c.526-.285 1.192-.276 1.192-.276.296 0 .523.058.676.176.15.114.226.286.226.65v.115c-.236-.034-.452-.053-.452-.053zm22.06-1.406a.073.073 0 0 0-.041-.098 2.38 2.38 0 0 0-.459-.078c-.343-.021-.534.037-.705.113-.17.077-.358.2-.463.34v-.332c0-.046-.032-.083-.078-.083h-.701c-.046 0-.079.037-.079.083v4.068c0 .046.038.083.083.083h.72a.083.083 0 0 0 .082-.083v-2.032c0-.273.03-.545.09-.716.06-.169.14-.305.24-.402a.843.843 0 0 1 .338-.202c.127-.039.267-.052.367-.052.143 0 .3.037.3.037.053.006.082-.026.1-.073.047-.125.18-.498.206-.573zm-6.745-1.885a2.147 2.147 0 0 0-.642-.092c-.494 0-.885.14-1.158.414-.272.273-.457.69-.55 1.237l-.033.184h-.621s-.076-.003-.092.08l-.101.567c-.008.053.016.088.088.088h.604l-.613 3.413c-.047.274-.102.5-.164.672-.06.169-.118.295-.19.388a.508.508 0 0 1-.25.192 1.027 1.027 0 0 1-.322.046c-.066 0-.154-.01-.22-.023a.649.649 0 0 1-.147-.048s-.07-.027-.1.044l-.202.554c-.019.054.008.096.042.109a1.681 1.681 0 0 0 .65.11c.252 0 .482-.035.672-.103.195-.074.369-.195.506-.352.159-.175.26-.358.355-.61a5.17 5.17 0 0 0 .24-.916l.617-3.476h.9s.077.003.092-.08l.102-.567c.006-.054-.016-.088-.09-.088h-.874c.005-.02.044-.326.145-.615a.809.809 0 0 1 .191-.291.574.574 0 0 1 .23-.142 1.122 1.122 0 0 1 .518-.02c.085.018.117.028.14.035.09.026.1 0 .119-.042l.208-.573c.022-.061-.03-.088-.05-.095zm-12.219 5.899v-5.82c0-.046-.033-.083-.079-.083h-.725c-.045 0-.077.037-.077.082v5.82c0 .046.032.083.078.083h.726c.045 0 .078-.037.078-.082z"/>
        </g>
        <g>
            <path fill="#FFE9E5" d="M302.644 136.475c9.212 19.818 2.4 42.478-15.214 50.611-17.614 8.132-39.362-1.34-48.574-21.16-9.213-19.82-2.401-42.48 15.213-50.612 17.615-8.132 39.362 1.34 48.575 21.16M303.502 136.187c.985.757.912-.65.754-1.93a54.95 54.95 0 0 0-2.306-.257c.567.707 1.034 1.457 1.552 2.187"/>
            <path fill="#FFE9E5" d="M300.35 130.175l-1.735-.936c-.583-.294-1.176-.569-1.754-.839.72.479 1.462.962 2.158 1.496.377 1.425-.096 1.6-.749 1.37-.66-.229-1.473-.885-1.92-1.175 1.413 1.644 2.079 1.703 2.579 1.302.494-.39.778-1.235 1.42-1.218M295.504 126.204c-1.312-2.045-1.762-.507-1.469.575.456-.295 1.776.526 1.469-.575M249.95 186.8c-.256-.64-.574-1.326-.392-1.524-.503-.21-.711-.067.392 1.524M249.285 184.767c.16.04.333.082.53.142-.143-.074-.255-.146-.427-.218-.066.009-.066.053-.103.076"/>
            <g transform="translate(230.75 112.4)">
                <mask id="n" fill="#fff">
                    <use xlink:href="#m"/>
                </mask>
                <path fill="#FFE9E5" d="M13.896 34.011c-.746-1.806-.12-2.768-.171-4.45.501-.224 1.017-.43 1.539-.618-.042-.89-.273-1.151-.549-1.36-.28-.213-.607-.371-.78-1.11.322-.34.61-.794.823-1.318.252-.505.426-1.086.623-1.626.365-1.094.686-2.104.897-2.426.412-.078.524.174.565.484.046.316.039.706.156.901.506-1.953-.727-2.554.747-4.704l.328.187c1.02-3.042 3.44-5.885 6.548-7.922 3.124-2.076 6.8-3.348 10.47-4.192-.51-.038-.406-.336-.628-.6 4.008-.61 8.498-.145 12.746.89 4.278 1.014 8.306 2.558 12.195 3.611-2.043-1.448-4.571-3.75-7.603-5.413a18.197 18.197 0 0 0-4.69-1.858c-1.583-.34-3.127-.4-4.472-.013-.407-.342-.92-.505-1.456-.608-.536-.114-1.099-.122-1.624-.136-1.05-.059-1.95-.028-2.335-.759-3.681-.299-6.263.61-8.488 1.797-2.242 1.214-4.207 2.644-7.017 4.34-.927.304-.911-.519-1.503-.913a28.869 28.869 0 0 1 4.619-3.182 30.248 30.248 0 0 0-3.364 1.01c.25-.333.675-.636 1.157-.948.478-.323 1.03-.616 1.553-.896.515-.297 1.004-.576 1.37-.85.363-.283.597-.586.6-.918C23.92 1.95 20.967 3.43 18.383 5.39c-2.571 1.943-4.736 4.31-5.418 6.53 1.514-1.339 3.022-3.377 5-4.742.558-.132 1.198-.374 1.742-.484.555-.098.995-.086 1.134.222-2.192 2.553-4.048 4.664-5.837 6.917-1.74 2.266-3.368 4.731-4.333 7.815-.48 1.536-1.249 3.564-1.924 3.666.068-1.108-.678-.472-.708-1.43-.105 1.222.497 1.445.911 1.754.434.314.696.696.224 2.26a99.121 99.121 0 0 1-2.151-.904c1.022.933.737 1.899.338 3.035-.39 1.125-.882 2.444-.21 3.692-.945.855-1.461-.805-1.322-2.754-.601 2.169.738 2.45.672 4.149-.67-.545-1.277-1.116-1.916-1.716.451.5.64.95.676 1.372.047.422-.073.818-.271 1.195-.413.754-1.057 1.444-1.353 2.022.242.05.72-.204 1.142-.165.424.04.766.36.836 1.535-.15 1.036-.691.578-.943.85.504.079 1.467.816 1.787 2.317-.595.402-1.16-.849-1.822-.86.095.598.255 1.126.316 1.63.061.506.048.983-.106 1.472 1.024 1.96.89-.344 1.877.74.193 1.596-.314 1.844-1.022 1.865-.703.024-1.598-.204-2.091.601-1.668-2.238-2.566-5.615-3.242-6.992.413 1.697.866 3.372 1.457 4.993-.406-.066-.542.868-.698 1.513-.154.64-.4 1.012-1.128-.26.32 2.678 1.33 5.51 2.712 8.086 1.375 2.585 3.115 4.921 4.769 6.848-.19-.733-.518-1.6-.029-1.727 1.756 1.905.836 2.177.672 2.95 1.59 1.243 2.491.291 3.979.557.369.911.723 1.594 1.066 2.142.335.557.632 1.003.934 1.423.297.425.564.857.848 1.39.296.522.586 1.166.94 2.031l.732-1.12c.527 1.154 1.184 1.44 1.897 1.647.717.213 1.43.418 2.224 1.443-.046.306-1.043.047-1.844-.198 2.058.98 1.03 2.159 3.2 2.949-.758.097-1.531.183-2.32.257 1.553.996 4.126 1.921 2.678 2.544 1.796.151 3.85.96 6.066 1.662 2.199.72 4.55 1.346 6.591 1.357l-.51 1.055c.59-.213 1.356-.251 2.202-.171.851.044 1.788.203 2.732.277.47.039.94.074 1.394.093.454.006.894-.015 1.303-.059.815-.074 1.506-.324 1.943-.743l.315.462a35.07 35.07 0 0 0 3.917-1.869c1.796-.142 1.507 1.632 1.564 1.145 4.008-1.023 6.9-2.311 9.547-2.92-.02-.42.191-.875.554-1.345.36-.477.854-1.004 1.44-1.519 1.14-1.076 2.582-2.228 3.763-3.357 3.198-2.288 5.927-5.354 7.993-8.79a33.898 33.898 0 0 0 2.596-5.408 37.028 37.028 0 0 0 1.577-5.724 39 39 0 0 0 .596-5.796 40.614 40.614 0 0 0-.302-5.664c-.5-3.695-1.464-7.188-2.821-10.327-.293-.973-1.094-1.992-2.002-2.98l-1.439-1.452c-.496-.47-.969-.937-1.378-1.408.207.712.413 1.237.625 1.672.204.437.394.79.609 1.135.432.687.867 1.38 1.305 2.767.114 1.106-.17 1.948-.58 2.75-.384.796-.896 1.554-1.22 2.496.37-.365.74-.74 1.108-1.125.794 1.291.679 1.825.599 2.251-.077.434-.126.765.63 1.825l-2.098.106c.286.163.459.412.549.707.075.295.066.634.007.974-.103.681-.468 1.359-.734 1.743.483.23.975.47 1.454.719-.838 1.734-1.296 2.8-2.647 3.158l1.34-.02c-.451.275-.616 1.88-1.002 3.108-.42 1.228-.937 2.035-1.821.838.2.517.73 1.102.309 2.058l-1.314-.242c-.078 1.46-.477 3.057-1.326 3.12.021-.817-.432-1.265-.893-1.702-.566 1.288-.697 2.07-.552 2.659.155.593.573.97 1.011 1.334.439.369.897.724 1.076 1.306.184.583.069 1.4-.714 2.6l-.67-.54c-.027.55-.033 1.137-.102 1.692-.608.173-1.173.358-1.78.478.488 1.712-1.008 3.205-2.847 4.366-1.854 1.193-3.99 1.994-5.21 3.41-.273.217-.648.284-1.06.33a8.17 8.17 0 0 1-1.376.008 22.702 22.702 0 0 0-1.565-.012c-.542.03-1.1.122-1.689.297l.47 1.246c-1.165-.375-3.634-.473-5.937-1.212-2.311-.697-4.372-2-4.885-3.65-1.829.687.115.303-.095 1.33-.444.086-.84.13-1.188.14a3.782 3.782 0 0 1-.903-.126c-.521-.128-.872-.415-1.15-.726-.556-.615-.789-1.482-1.452-2.132-1.058-.08-.757.18-.34.532.41.355.955.743.249 1.031-1.337-1.036-2.062-.958-2.956-.902-.861.022-1.913.028-3.453-1.481.06-.845 1.178.154 1.8-.08-1.575-.126-3.438-1.196-5.178-2.695-1.753-1.494-3.37-3.391-4.835-5.056-1.19-2.286-2.594-5.088-3.548-8.154-.983-3.045-1.487-6.29-1.315-9.099l-.488-.028c.22-.62.29-1.213.32-1.812a16.656 16.656 0 0 0-.099-1.804c-.11-1.216-.256-2.51.14-3.792-.277.403-.54.819-.782 1.247" mask="url(#n)"/>
            </g>
            <path fill="#FFE9E5" d="M257.95 111.063l-.898-1.063c-.544.346-1.07.728-1.586 1.13-.519.387-1.028.784-1.516 1.223.823.138 1.331-.04 1.883-.353.543-.328 1.147-.729 2.117-.937M258.184 114c.444-.272.894-.56 1.366-.8-.41.093-.81.213-1.21.338-.398.126-.803.232-1.19.383.343.01.692.044 1.034.079M233.485 146l.218-.44a38.825 38.825 0 0 1-.037-6.76 38.71 38.71 0 0 0-.18 7.2M248.84 187.182c-1.069-.037-1.93-.923-2.89-1.182.515.295 1.053.562 1.589.827.535.264 1.059.537 1.61.773l-.309-.418z"/>
            <g transform="translate(279.55 198)">
                <mask id="p" fill="#fff">
                    <use xlink:href="#o"/>
                </mask>
                <path fill="#FF2B00" d="M.891 2.4c1.256-2.54 3.204-.557.725-2.215-2.425.818-.125 1.33-.725 2.215" mask="url(#p)" opacity=".1"/>
            </g>
            <path fill="#FFE9E5" d="M288.35 194.8c-1.23.413-1.8.982-2.4 1.51.967.219 1.389.011 1.651-.325.264-.335.377-.803.749-1.185"/>
            <g fill-rule="nonzero">
                <path fill="#E01E5A" d="M260.109 154.877a3.166 3.166 0 1 1-3.166-3.167h3.166v3.166zm1.583 0a3.166 3.166 0 1 1 6.331 0v7.914a3.166 3.166 0 0 1-6.331 0v-7.915z"/>
                <path fill="#36C5F0" d="M264.858 142.213a3.166 3.166 0 1 1 3.165-3.166v3.166h-3.165zm0 1.583a3.166 3.166 0 0 1 0 6.332h-7.915a3.166 3.166 0 0 1 0-6.332h7.915z"/>
                <path fill="#2EB67D" d="M277.521 146.962a3.166 3.166 0 1 1 3.166 3.165h-3.166v-3.165zm-1.583 0a3.166 3.166 0 0 1-6.332 0v-7.915a3.166 3.166 0 1 1 6.332 0v7.915z"/>
                <path fill="#ECB22E" d="M272.772 159.625a3.166 3.166 0 1 1-3.166 3.166v-3.166h3.166zm0-1.583a3.166 3.166 0 0 1 0-6.332h7.915a3.166 3.166 0 1 1 0 6.332h-7.915z"/>
            </g>
        </g>
        <g>
            <path fill="#E5EAEB" d="M189.444 256.875c9.212 19.818 2.4 42.478-15.214 50.611-17.614 8.132-39.362-1.34-48.574-21.16-9.213-19.82-2.401-42.48 15.213-50.612 17.615-8.132 39.362 1.34 48.575 21.16M190.302 256.587c.985.757.912-.65.754-1.93a54.95 54.95 0 0 0-2.306-.257c.567.707 1.034 1.457 1.552 2.187"/>
            <path fill="#E5EAEB" d="M187.15 250.575l-1.735-.936c-.583-.294-1.176-.569-1.754-.839.72.479 1.462.962 2.158 1.496.377 1.425-.096 1.6-.749 1.37-.66-.229-1.473-.885-1.92-1.175 1.413 1.644 2.079 1.703 2.579 1.302.494-.39.778-1.235 1.42-1.218M182.304 246.604c-1.312-2.045-1.762-.507-1.469.575.456-.295 1.776.526 1.469-.575M136.75 307.2c-.256-.64-.574-1.326-.392-1.524-.503-.21-.711-.067.392 1.524M136.085 305.167c.16.04.333.082.53.142-.143-.074-.255-.146-.427-.218-.066.009-.066.053-.103.076"/>
            <g transform="rotate(-165 113.3 150.262)">
                <mask id="r" fill="#fff">
                    <use xlink:href="#q"/>
                </mask>
                <path fill="#E5EAEB" d="M13.896 34.011c-.746-1.806-.12-2.768-.171-4.45.501-.224 1.017-.43 1.539-.618-.042-.89-.273-1.151-.549-1.36-.28-.213-.607-.371-.78-1.11.322-.34.61-.794.823-1.318.252-.505.426-1.086.623-1.626.365-1.094.686-2.104.897-2.426.412-.078.524.174.565.484.046.316.039.706.156.901.506-1.953-.727-2.554.747-4.704l.328.187c1.02-3.042 3.44-5.885 6.548-7.922 3.124-2.076 6.8-3.348 10.47-4.192-.51-.038-.406-.336-.628-.6 4.008-.61 8.498-.145 12.746.89 4.278 1.014 8.306 2.558 12.195 3.611-2.043-1.448-4.571-3.75-7.603-5.413a18.197 18.197 0 0 0-4.69-1.858c-1.583-.34-3.127-.4-4.472-.013-.407-.342-.92-.505-1.456-.608-.536-.114-1.099-.122-1.624-.136-1.05-.059-1.95-.028-2.335-.759-3.681-.299-6.263.61-8.488 1.797-2.242 1.214-4.207 2.644-7.017 4.34-.927.304-.911-.519-1.503-.913a28.869 28.869 0 0 1 4.619-3.182 30.248 30.248 0 0 0-3.364 1.01c.25-.333.675-.636 1.157-.948.478-.323 1.03-.616 1.553-.896.515-.297 1.004-.576 1.37-.85.363-.283.597-.586.6-.918C23.92 1.95 20.967 3.43 18.383 5.39c-2.571 1.943-4.736 4.31-5.418 6.53 1.514-1.339 3.022-3.377 5-4.742.558-.132 1.198-.374 1.742-.484.555-.098.995-.086 1.134.222-2.192 2.553-4.048 4.664-5.837 6.917-1.74 2.266-3.368 4.731-4.333 7.815-.48 1.536-1.249 3.564-1.924 3.666.068-1.108-.678-.472-.708-1.43-.105 1.222.497 1.445.911 1.754.434.314.696.696.224 2.26a99.121 99.121 0 0 1-2.151-.904c1.022.933.737 1.899.338 3.035-.39 1.125-.882 2.444-.21 3.692-.945.855-1.461-.805-1.322-2.754-.601 2.169.738 2.45.672 4.149-.67-.545-1.277-1.116-1.916-1.716.451.5.64.95.676 1.372.047.422-.073.818-.271 1.195-.413.754-1.057 1.444-1.353 2.022.242.05.72-.204 1.142-.165.424.04.766.36.836 1.535-.15 1.036-.691.578-.943.85.504.079 1.467.816 1.787 2.317-.595.402-1.16-.849-1.822-.86.095.598.255 1.126.316 1.63.061.506.048.983-.106 1.472 1.024 1.96.89-.344 1.877.74.193 1.596-.314 1.844-1.022 1.865-.703.024-1.598-.204-2.091.601-1.668-2.238-2.566-5.615-3.242-6.992.413 1.697.866 3.372 1.457 4.993-.406-.066-.542.868-.698 1.513-.154.64-.4 1.012-1.128-.26.32 2.678 1.33 5.51 2.712 8.086 1.375 2.585 3.115 4.921 4.769 6.848-.19-.733-.518-1.6-.029-1.727 1.756 1.905.836 2.177.672 2.95 1.59 1.243 2.491.291 3.979.557.369.911.723 1.594 1.066 2.142.335.557.632 1.003.934 1.423.297.425.564.857.848 1.39.296.522.586 1.166.94 2.031l.732-1.12c.527 1.154 1.184 1.44 1.897 1.647.717.213 1.43.418 2.224 1.443-.046.306-1.043.047-1.844-.198 2.058.98 1.03 2.159 3.2 2.949-.758.097-1.531.183-2.32.257 1.553.996 4.126 1.921 2.678 2.544 1.796.151 3.85.96 6.066 1.662 2.199.72 4.55 1.346 6.591 1.357l-.51 1.055c.59-.213 1.356-.251 2.202-.171.851.044 1.788.203 2.732.277.47.039.94.074 1.394.093.454.006.894-.015 1.303-.059.815-.074 1.506-.324 1.943-.743l.315.462a35.07 35.07 0 0 0 3.917-1.869c1.796-.142 1.507 1.632 1.564 1.145 4.008-1.023 6.9-2.311 9.547-2.92-.02-.42.191-.875.554-1.345.36-.477.854-1.004 1.44-1.519 1.14-1.076 2.582-2.228 3.763-3.357 3.198-2.288 5.927-5.354 7.993-8.79a33.898 33.898 0 0 0 2.596-5.408 37.028 37.028 0 0 0 1.577-5.724 39 39 0 0 0 .596-5.796 40.614 40.614 0 0 0-.302-5.664c-.5-3.695-1.464-7.188-2.821-10.327-.293-.973-1.094-1.992-2.002-2.98l-1.439-1.452c-.496-.47-.969-.937-1.378-1.408.207.712.413 1.237.625 1.672.204.437.394.79.609 1.135.432.687.867 1.38 1.305 2.767.114 1.106-.17 1.948-.58 2.75-.384.796-.896 1.554-1.22 2.496.37-.365.74-.74 1.108-1.125.794 1.291.679 1.825.599 2.251-.077.434-.126.765.63 1.825l-2.098.106c.286.163.459.412.549.707.075.295.066.634.007.974-.103.681-.468 1.359-.734 1.743.483.23.975.47 1.454.719-.838 1.734-1.296 2.8-2.647 3.158l1.34-.02c-.451.275-.616 1.88-1.002 3.108-.42 1.228-.937 2.035-1.821.838.2.517.73 1.102.309 2.058l-1.314-.242c-.078 1.46-.477 3.057-1.326 3.12.021-.817-.432-1.265-.893-1.702-.566 1.288-.697 2.07-.552 2.659.155.593.573.97 1.011 1.334.439.369.897.724 1.076 1.306.184.583.069 1.4-.714 2.6l-.67-.54c-.027.55-.033 1.137-.102 1.692-.608.173-1.173.358-1.78.478.488 1.712-1.008 3.205-2.847 4.366-1.854 1.193-3.99 1.994-5.21 3.41-.273.217-.648.284-1.06.33a8.17 8.17 0 0 1-1.376.008 22.702 22.702 0 0 0-1.565-.012c-.542.03-1.1.122-1.689.297l.47 1.246c-1.165-.375-3.634-.473-5.937-1.212-2.311-.697-4.372-2-4.885-3.65-1.829.687.115.303-.095 1.33-.444.086-.84.13-1.188.14a3.782 3.782 0 0 1-.903-.126c-.521-.128-.872-.415-1.15-.726-.556-.615-.789-1.482-1.452-2.132-1.058-.08-.757.18-.34.532.41.355.955.743.249 1.031-1.337-1.036-2.062-.958-2.956-.902-.861.022-1.913.028-3.453-1.481.06-.845 1.178.154 1.8-.08-1.575-.126-3.438-1.196-5.178-2.695-1.753-1.494-3.37-3.391-4.835-5.056-1.19-2.286-2.594-5.088-3.548-8.154-.983-3.045-1.487-6.29-1.315-9.099l-.488-.028c.22-.62.29-1.213.32-1.812a16.656 16.656 0 0 0-.099-1.804c-.11-1.216-.256-2.51.14-3.792-.277.403-.54.819-.782 1.247" mask="url(#r)"/>
            </g>
            <path fill="#E5EAEB" d="M144.75 231.463l-.898-1.063c-.544.346-1.07.728-1.586 1.13-.519.387-1.028.784-1.516 1.223.823.138 1.331-.04 1.883-.353.543-.328 1.147-.729 2.117-.937M144.984 234.4c.444-.272.894-.56 1.366-.8-.41.093-.81.213-1.21.338-.398.126-.803.232-1.19.383.343.01.692.044 1.034.079M120.285 266.4l.218-.44a38.825 38.825 0 0 1-.037-6.76 38.71 38.71 0 0 0-.18 7.2M135.64 307.582c-1.069-.037-1.93-.923-2.89-1.182.515.295 1.053.562 1.589.827.535.264 1.059.537 1.61.773l-.309-.418z"/>
            <g transform="translate(166.35 318.4)">
                <mask id="t" fill="#fff">
                    <use xlink:href="#s"/>
                </mask>
                <path fill="#E5EAEB" d="M.891 2.4c1.256-2.54 3.204-.557.725-2.215-2.425.818-.125 1.33-.725 2.215" mask="url(#t)"/>
            </g>
            <path fill="#E5EAEB" d="M175.15 315.2c-1.23.413-1.8.982-2.4 1.51.967.219 1.389.011 1.651-.325.264-.335.377-.803.749-1.185"/>
            <g fill="#03363D" fill-rule="nonzero">
                <path d="M156.785 269.99v15.45h-13.009l13.009-15.45zm11.888 9.915a6.372 6.372 0 0 1 3.25 5.535h-12.996a6.372 6.372 0 0 1 3.249-5.535 6.592 6.592 0 0 1 6.497 0zm3.263-15.457l-13.009 15.45v-15.45h13.009zm-15.151 0c0 1.695-.684 3.32-1.903 4.52a6.551 6.551 0 0 1-4.595 1.87c-3.591.002-6.505-2.858-6.511-6.39h13.009z"/>
            </g>
        </g>
        <g>
            <path fill="#EBEEF4" d="M72.644 136.475c9.212 19.818 2.4 42.478-15.214 50.611-17.614 8.132-39.362-1.34-48.574-21.16-9.213-19.82-2.401-42.48 15.213-50.612 17.615-8.132 39.362 1.34 48.575 21.16M73.502 136.187c.985.757.912-.65.754-1.93A54.95 54.95 0 0 0 71.95 134c.567.707 1.034 1.457 1.552 2.187"/>
            <path fill="#EBEEF4" d="M70.35 130.175l-1.735-.936c-.583-.294-1.176-.569-1.754-.839.72.479 1.462.962 2.158 1.496.377 1.425-.096 1.6-.749 1.37-.66-.229-1.473-.885-1.92-1.175 1.413 1.644 2.079 1.703 2.579 1.302.494-.39.778-1.235 1.42-1.218M65.504 126.204c-1.312-2.045-1.762-.507-1.469.575.456-.295 1.776.526 1.469-.575M19.95 186.8c-.256-.64-.574-1.326-.392-1.524-.503-.21-.711-.067.392 1.524M19.285 184.767c.16.04.333.082.53.142-.143-.074-.255-.146-.427-.218-.066.009-.066.053-.103.076"/>
            <g transform="translate(.75 112.4)">
                <mask id="v" fill="#fff">
                    <use xlink:href="#u"/>
                </mask>
                <path fill="#EBEEF4" d="M13.896 34.011c-.746-1.806-.12-2.768-.171-4.45.501-.224 1.017-.43 1.539-.618-.042-.89-.273-1.151-.549-1.36-.28-.213-.607-.371-.78-1.11.322-.34.61-.794.823-1.318.252-.505.426-1.086.623-1.626.365-1.094.686-2.104.897-2.426.412-.078.524.174.565.484.046.316.039.706.156.901.506-1.953-.727-2.554.747-4.704l.328.187c1.02-3.042 3.44-5.885 6.548-7.922 3.124-2.076 6.8-3.348 10.47-4.192-.51-.038-.406-.336-.628-.6 4.008-.61 8.498-.145 12.746.89 4.278 1.014 8.306 2.558 12.195 3.611-2.043-1.448-4.571-3.75-7.603-5.413a18.197 18.197 0 0 0-4.69-1.858c-1.583-.34-3.127-.4-4.472-.013-.407-.342-.92-.505-1.456-.608-.536-.114-1.099-.122-1.624-.136-1.05-.059-1.95-.028-2.335-.759-3.681-.299-6.263.61-8.488 1.797-2.242 1.214-4.207 2.644-7.017 4.34-.927.304-.911-.519-1.503-.913a28.869 28.869 0 0 1 4.619-3.182 30.248 30.248 0 0 0-3.364 1.01c.25-.333.675-.636 1.157-.948.478-.323 1.03-.616 1.553-.896.515-.297 1.004-.576 1.37-.85.363-.283.597-.586.6-.918C23.92 1.95 20.967 3.43 18.383 5.39c-2.571 1.943-4.736 4.31-5.418 6.53 1.514-1.339 3.022-3.377 5-4.742.558-.132 1.198-.374 1.742-.484.555-.098.995-.086 1.134.222-2.192 2.553-4.048 4.664-5.837 6.917-1.74 2.266-3.368 4.731-4.333 7.815-.48 1.536-1.249 3.564-1.924 3.666.068-1.108-.678-.472-.708-1.43-.105 1.222.497 1.445.911 1.754.434.314.696.696.224 2.26a99.121 99.121 0 0 1-2.151-.904c1.022.933.737 1.899.338 3.035-.39 1.125-.882 2.444-.21 3.692-.945.855-1.461-.805-1.322-2.754-.601 2.169.738 2.45.672 4.149-.67-.545-1.277-1.116-1.916-1.716.451.5.64.95.676 1.372.047.422-.073.818-.271 1.195-.413.754-1.057 1.444-1.353 2.022.242.05.72-.204 1.142-.165.424.04.766.36.836 1.535-.15 1.036-.691.578-.943.85.504.079 1.467.816 1.787 2.317-.595.402-1.16-.849-1.822-.86.095.598.255 1.126.316 1.63.061.506.048.983-.106 1.472 1.024 1.96.89-.344 1.877.74.193 1.596-.314 1.844-1.022 1.865-.703.024-1.598-.204-2.091.601-1.668-2.238-2.566-5.615-3.242-6.992.413 1.697.866 3.372 1.457 4.993-.406-.066-.542.868-.698 1.513-.154.64-.4 1.012-1.128-.26.32 2.678 1.33 5.51 2.712 8.086 1.375 2.585 3.115 4.921 4.769 6.848-.19-.733-.518-1.6-.029-1.727 1.756 1.905.836 2.177.672 2.95 1.59 1.243 2.491.291 3.979.557.369.911.723 1.594 1.066 2.142.335.557.632 1.003.934 1.423.297.425.564.857.848 1.39.296.522.586 1.166.94 2.031l.732-1.12c.527 1.154 1.184 1.44 1.897 1.647.717.213 1.43.418 2.224 1.443-.046.306-1.043.047-1.844-.198 2.058.98 1.03 2.159 3.2 2.949-.758.097-1.531.183-2.32.257 1.553.996 4.126 1.921 2.678 2.544 1.796.151 3.85.96 6.066 1.662 2.199.72 4.55 1.346 6.591 1.357l-.51 1.055c.59-.213 1.356-.251 2.202-.171.851.044 1.788.203 2.732.277.47.039.94.074 1.394.093.454.006.894-.015 1.303-.059.815-.074 1.506-.324 1.943-.743l.315.462a35.07 35.07 0 0 0 3.917-1.869c1.796-.142 1.507 1.632 1.564 1.145 4.008-1.023 6.9-2.311 9.547-2.92-.02-.42.191-.875.554-1.345.36-.477.854-1.004 1.44-1.519 1.14-1.076 2.582-2.228 3.763-3.357 3.198-2.288 5.927-5.354 7.993-8.79a33.898 33.898 0 0 0 2.596-5.408 37.028 37.028 0 0 0 1.577-5.724 39 39 0 0 0 .596-5.796 40.614 40.614 0 0 0-.302-5.664c-.5-3.695-1.464-7.188-2.821-10.327-.293-.973-1.094-1.992-2.002-2.98l-1.439-1.452c-.496-.47-.969-.937-1.378-1.408.207.712.413 1.237.625 1.672.204.437.394.79.609 1.135.432.687.867 1.38 1.305 2.767.114 1.106-.17 1.948-.58 2.75-.384.796-.896 1.554-1.22 2.496.37-.365.74-.74 1.108-1.125.794 1.291.679 1.825.599 2.251-.077.434-.126.765.63 1.825l-2.098.106c.286.163.459.412.549.707.075.295.066.634.007.974-.103.681-.468 1.359-.734 1.743.483.23.975.47 1.454.719-.838 1.734-1.296 2.8-2.647 3.158l1.34-.02c-.451.275-.616 1.88-1.002 3.108-.42 1.228-.937 2.035-1.821.838.2.517.73 1.102.309 2.058l-1.314-.242c-.078 1.46-.477 3.057-1.326 3.12.021-.817-.432-1.265-.893-1.702-.566 1.288-.697 2.07-.552 2.659.155.593.573.97 1.011 1.334.439.369.897.724 1.076 1.306.184.583.069 1.4-.714 2.6l-.67-.54c-.027.55-.033 1.137-.102 1.692-.608.173-1.173.358-1.78.478.488 1.712-1.008 3.205-2.847 4.366-1.854 1.193-3.99 1.994-5.21 3.41-.273.217-.648.284-1.06.33a8.17 8.17 0 0 1-1.376.008 22.702 22.702 0 0 0-1.565-.012c-.542.03-1.1.122-1.689.297l.47 1.246c-1.165-.375-3.634-.473-5.937-1.212-2.311-.697-4.372-2-4.885-3.65-1.829.687.115.303-.095 1.33-.444.086-.84.13-1.188.14a3.782 3.782 0 0 1-.903-.126c-.521-.128-.872-.415-1.15-.726-.556-.615-.789-1.482-1.452-2.132-1.058-.08-.757.18-.34.532.41.355.955.743.249 1.031-1.337-1.036-2.062-.958-2.956-.902-.861.022-1.913.028-3.453-1.481.06-.845 1.178.154 1.8-.08-1.575-.126-3.438-1.196-5.178-2.695-1.753-1.494-3.37-3.391-4.835-5.056-1.19-2.286-2.594-5.088-3.548-8.154-.983-3.045-1.487-6.29-1.315-9.099l-.488-.028c.22-.62.29-1.213.32-1.812a16.656 16.656 0 0 0-.099-1.804c-.11-1.216-.256-2.51.14-3.792-.277.403-.54.819-.782 1.247" mask="url(#v)"/>
            </g>
            <path fill="#EBEEF4" d="M27.95 111.063L27.052 110c-.544.346-1.07.728-1.586 1.13-.519.387-1.028.784-1.516 1.223.823.138 1.331-.04 1.883-.353.543-.328 1.147-.729 2.117-.937M28.184 114c.444-.272.894-.56 1.366-.8-.41.093-.81.213-1.21.338-.398.126-.803.232-1.19.383.343.01.692.044 1.034.079M3.485 146l.218-.44a38.825 38.825 0 0 1-.037-6.76 38.71 38.71 0 0 0-.18 7.2M18.84 187.182c-1.069-.037-1.93-.923-2.89-1.182.515.295 1.053.562 1.589.827.535.264 1.059.537 1.61.773l-.309-.418z"/>
            <g transform="translate(49.55 198)">
                <mask id="x" fill="#fff">
                    <use xlink:href="#w"/>
                </mask>
                <path fill="#EBEEF4" d="M.891 2.4c1.256-2.54 3.204-.557.725-2.215-2.425.818-.125 1.33-.725 2.215" mask="url(#x)"/>
            </g>
            <path fill="#EBEEF4" d="M58.35 194.8c-1.23.413-1.8.982-2.4 1.51.967.219 1.389.011 1.651-.325.264-.335.377-.803.749-1.185"/>
            <g fill="#3C5A99" fill-rule="nonzero">
                <path d="M46.54 166.093v-8.934h3l.448-3.481h-3.447v-2.223c0-1.008.28-1.695 1.725-1.695h1.844v-3.115a24.645 24.645 0 0 0-2.687-.137c-2.658 0-4.477 1.623-4.477 4.602v2.568h-3.007v3.481h3.007v8.934H31.897c-.703 0-1.273-.57-1.273-1.274v-20.522c0-.703.57-1.273 1.273-1.273H52.42c.703 0 1.273.57 1.273 1.273v20.522c0 .704-.57 1.274-1.273 1.274h-5.878z"/>
            </g>
        </g>
        <g>
            <path fill="#E5F8E5" d="M72.644 26.475c9.212 19.818 2.4 42.478-15.214 50.611-17.614 8.132-39.362-1.34-48.574-21.16-9.213-19.82-2.401-42.48 15.213-50.612 17.615-8.132 39.362 1.34 48.575 21.16M73.502 26.187c.985.757.912-.65.754-1.93A54.95 54.95 0 0 0 71.95 24c.567.707 1.034 1.457 1.552 2.187"/>
            <path fill="#E5F8E5" d="M70.35 20.175l-1.735-.936c-.583-.294-1.176-.569-1.754-.839.72.479 1.462.962 2.158 1.496.377 1.425-.096 1.6-.749 1.37-.66-.229-1.473-.885-1.92-1.175 1.413 1.644 2.079 1.703 2.579 1.302.494-.39.778-1.235 1.42-1.218M65.504 16.204c-1.312-2.045-1.762-.507-1.469.575.456-.295 1.776.526 1.469-.575M19.95 76.8c-.256-.64-.574-1.326-.392-1.524-.503-.21-.711-.067.392 1.524M19.285 74.767c.16.04.333.082.53.142-.143-.074-.255-.146-.427-.218-.066.009-.066.053-.103.076"/>
            <g transform="translate(.75 2.4)">
                <mask id="z" fill="#fff">
                    <use xlink:href="#y"/>
                </mask>
                <path fill="#E5F8E5" d="M13.896 34.011c-.746-1.806-.12-2.768-.171-4.45.501-.224 1.017-.43 1.539-.618-.042-.89-.273-1.151-.549-1.36-.28-.213-.607-.371-.78-1.11.322-.34.61-.794.823-1.318.252-.505.426-1.086.623-1.626.365-1.094.686-2.104.897-2.426.412-.078.524.174.565.484.046.316.039.706.156.901.506-1.953-.727-2.554.747-4.704l.328.187c1.02-3.042 3.44-5.885 6.548-7.922 3.124-2.076 6.8-3.348 10.47-4.192-.51-.038-.406-.336-.628-.6 4.008-.61 8.498-.145 12.746.89 4.278 1.014 8.306 2.558 12.195 3.611-2.043-1.448-4.571-3.75-7.603-5.413a18.197 18.197 0 0 0-4.69-1.858c-1.583-.34-3.127-.4-4.472-.013-.407-.342-.92-.505-1.456-.608-.536-.114-1.099-.122-1.624-.136-1.05-.059-1.95-.028-2.335-.759-3.681-.299-6.263.61-8.488 1.797-2.242 1.214-4.207 2.644-7.017 4.34-.927.304-.911-.519-1.503-.913a28.869 28.869 0 0 1 4.619-3.182 30.248 30.248 0 0 0-3.364 1.01c.25-.333.675-.636 1.157-.948.478-.323 1.03-.616 1.553-.896.515-.297 1.004-.576 1.37-.85.363-.283.597-.586.6-.918C23.92 1.95 20.967 3.43 18.383 5.39c-2.571 1.943-4.736 4.31-5.418 6.53 1.514-1.339 3.022-3.377 5-4.742.558-.132 1.198-.374 1.742-.484.555-.098.995-.086 1.134.222-2.192 2.553-4.048 4.664-5.837 6.917-1.74 2.266-3.368 4.731-4.333 7.815-.48 1.536-1.249 3.564-1.924 3.666.068-1.108-.678-.472-.708-1.43-.105 1.222.497 1.445.911 1.754.434.314.696.696.224 2.26a99.121 99.121 0 0 1-2.151-.904c1.022.933.737 1.899.338 3.035-.39 1.125-.882 2.444-.21 3.692-.945.855-1.461-.805-1.322-2.754-.601 2.169.738 2.45.672 4.149-.67-.545-1.277-1.116-1.916-1.716.451.5.64.95.676 1.372.047.422-.073.818-.271 1.195-.413.754-1.057 1.444-1.353 2.022.242.05.72-.204 1.142-.165.424.04.766.36.836 1.535-.15 1.036-.691.578-.943.85.504.079 1.467.816 1.787 2.317-.595.402-1.16-.849-1.822-.86.095.598.255 1.126.316 1.63.061.506.048.983-.106 1.472 1.024 1.96.89-.344 1.877.74.193 1.596-.314 1.844-1.022 1.865-.703.024-1.598-.204-2.091.601-1.668-2.238-2.566-5.615-3.242-6.992.413 1.697.866 3.372 1.457 4.993-.406-.066-.542.868-.698 1.513-.154.64-.4 1.012-1.128-.26.32 2.678 1.33 5.51 2.712 8.086 1.375 2.585 3.115 4.921 4.769 6.848-.19-.733-.518-1.6-.029-1.727 1.756 1.905.836 2.177.672 2.95 1.59 1.243 2.491.291 3.979.557.369.911.723 1.594 1.066 2.142.335.557.632 1.003.934 1.423.297.425.564.857.848 1.39.296.522.586 1.166.94 2.031l.732-1.12c.527 1.154 1.184 1.44 1.897 1.647.717.213 1.43.418 2.224 1.443-.046.306-1.043.047-1.844-.198 2.058.98 1.03 2.159 3.2 2.949-.758.097-1.531.183-2.32.257 1.553.996 4.126 1.921 2.678 2.544 1.796.151 3.85.96 6.066 1.662 2.199.72 4.55 1.346 6.591 1.357l-.51 1.055c.59-.213 1.356-.251 2.202-.171.851.044 1.788.203 2.732.277.47.039.94.074 1.394.093.454.006.894-.015 1.303-.059.815-.074 1.506-.324 1.943-.743l.315.462a35.07 35.07 0 0 0 3.917-1.869c1.796-.142 1.507 1.632 1.564 1.145 4.008-1.023 6.9-2.311 9.547-2.92-.02-.42.191-.875.554-1.345.36-.477.854-1.004 1.44-1.519 1.14-1.076 2.582-2.228 3.763-3.357 3.198-2.288 5.927-5.354 7.993-8.79a33.898 33.898 0 0 0 2.596-5.408 37.028 37.028 0 0 0 1.577-5.724 39 39 0 0 0 .596-5.796 40.614 40.614 0 0 0-.302-5.664c-.5-3.695-1.464-7.188-2.821-10.327-.293-.973-1.094-1.992-2.002-2.98l-1.439-1.452c-.496-.47-.969-.937-1.378-1.408.207.712.413 1.237.625 1.672.204.437.394.79.609 1.135.432.687.867 1.38 1.305 2.767.114 1.106-.17 1.948-.58 2.75-.384.796-.896 1.554-1.22 2.496.37-.365.74-.74 1.108-1.125.794 1.291.679 1.825.599 2.251-.077.434-.126.765.63 1.825l-2.098.106c.286.163.459.412.549.707.075.295.066.634.007.974-.103.681-.468 1.359-.734 1.743.483.23.975.47 1.454.719-.838 1.734-1.296 2.8-2.647 3.158l1.34-.02c-.451.275-.616 1.88-1.002 3.108-.42 1.228-.937 2.035-1.821.838.2.517.73 1.102.309 2.058l-1.314-.242c-.078 1.46-.477 3.057-1.326 3.12.021-.817-.432-1.265-.893-1.702-.566 1.288-.697 2.07-.552 2.659.155.593.573.97 1.011 1.334.439.369.897.724 1.076 1.306.184.583.069 1.4-.714 2.6l-.67-.54c-.027.55-.033 1.137-.102 1.692-.608.173-1.173.358-1.78.478.488 1.712-1.008 3.205-2.847 4.366-1.854 1.193-3.99 1.994-5.21 3.41-.273.217-.648.284-1.06.33a8.17 8.17 0 0 1-1.376.008 22.702 22.702 0 0 0-1.565-.012c-.542.03-1.1.122-1.689.297l.47 1.246c-1.165-.375-3.634-.473-5.937-1.212-2.311-.697-4.372-2-4.885-3.65-1.829.687.115.303-.095 1.33-.444.086-.84.13-1.188.14a3.782 3.782 0 0 1-.903-.126c-.521-.128-.872-.415-1.15-.726-.556-.615-.789-1.482-1.452-2.132-1.058-.08-.757.18-.34.532.41.355.955.743.249 1.031-1.337-1.036-2.062-.958-2.956-.902-.861.022-1.913.028-3.453-1.481.06-.845 1.178.154 1.8-.08-1.575-.126-3.438-1.196-5.178-2.695-1.753-1.494-3.37-3.391-4.835-5.056-1.19-2.286-2.594-5.088-3.548-8.154-.983-3.045-1.487-6.29-1.315-9.099l-.488-.028c.22-.62.29-1.213.32-1.812a16.656 16.656 0 0 0-.099-1.804c-.11-1.216-.256-2.51.14-3.792-.277.403-.54.819-.782 1.247" mask="url(#z)"/>
            </g>
            <path fill="#E5F8E5" d="M27.95 1.063L27.052 0c-.544.346-1.07.728-1.586 1.13-.519.387-1.028.784-1.516 1.223.823.138 1.331-.04 1.883-.353.543-.328 1.147-.729 2.117-.937M28.184 4c.444-.272.894-.56 1.366-.8-.41.093-.81.213-1.21.338-.398.126-.803.232-1.19.383.343.01.692.044 1.034.079M3.485 36l.218-.44a38.825 38.825 0 0 1-.037-6.76 38.71 38.71 0 0 0-.18 7.2M18.84 77.182c-1.069-.037-1.93-.923-2.89-1.182.515.295 1.053.562 1.589.827.535.264 1.059.537 1.61.773l-.309-.418z"/>
            <g transform="translate(49.55 88)">
                <mask id="B" fill="#fff">
                    <use xlink:href="#A"/>
                </mask>
                <path fill="#E5F8E5" d="M.891 2.4c1.256-2.54 3.204-.557.725-2.215-2.425.818-.125 1.33-.725 2.215" mask="url(#B)"/>
            </g>
            <path fill="#E5F8E5" d="M58.35 84.8c-1.23.413-1.8.982-2.4 1.51.967.219 1.389.011 1.651-.325.264-.335.377-.803.749-1.185"/>
            <g fill="#00B900" fill-rule="nonzero">
                <path d="M58.5 42.642c0 2.574-1.001 4.893-3.09 7.177-3.025 3.471-9.79 7.7-11.328 8.346-1.538.647-1.312-.411-1.249-.775l.205-1.23c.05-.367.1-.937-.046-1.3-.162-.4-.8-.608-1.27-.709-6.929-.913-12.058-5.743-12.058-11.51 0-6.432 6.469-11.665 14.418-11.665 7.95 0 14.418 5.233 14.418 11.666zm-17.347-3.109H40.14a.28.28 0 0 0-.281.28v6.264c0 .154.126.279.281.279h1.012a.28.28 0 0 0 .28-.28v-6.263a.28.28 0 0 0-.28-.28zm6.96 0h-1.01a.28.28 0 0 0-.282.28v3.721l-2.879-3.876a.31.31 0 0 0-.021-.03h-.002a.252.252 0 0 0-.017-.018l-.006-.005a.161.161 0 0 0-.014-.012l-.007-.006-.015-.01a.053.053 0 0 0-.009-.005l-.015-.008-.009-.004a.156.156 0 0 0-.016-.007l-.009-.004-.017-.005-.01-.002-.015-.004a.173.173 0 0 0-.012-.001l-.015-.002-.014-.001h-1.022a.28.28 0 0 0-.28.279v6.264c0 .154.125.279.28.279h1.011a.28.28 0 0 0 .282-.28v-3.72l2.882 3.881c.02.029.045.053.074.072l.017.01.008.004a.119.119 0 0 0 .014.007l.013.006.009.003a.309.309 0 0 0 .019.006h.004c.023.007.047.01.072.01h1.011a.28.28 0 0 0 .281-.279v-6.263a.28.28 0 0 0-.281-.28zm-9.399 5.255h-2.747v-4.975a.28.28 0 0 0-.28-.28h-1.013a.28.28 0 0 0-.28.28v6.263c0 .076.03.144.078.194l.004.004.004.004c.05.048.119.078.194.078h4.04a.28.28 0 0 0 .281-.28v-1.008a.28.28 0 0 0-.28-.28zm14.984-3.686a.28.28 0 0 0 .28-.28v-1.009a.28.28 0 0 0-.28-.28h-4.04a.278.278 0 0 0-.195.08l-.003.002a.278.278 0 0 0-.083.198v6.263a.282.282 0 0 0 .28.28h4.041a.28.28 0 0 0 .28-.28v-1.008a.28.28 0 0 0-.28-.28h-2.747v-1.06h2.747a.28.28 0 0 0 .28-.28V42.44a.28.28 0 0 0-.28-.28h-2.747v-1.058h2.747z"/>
            </g>
        </g>
        <g>
            <path fill="#E8F5FD" d="M76.644 253.475c9.212 19.818 2.4 42.478-15.214 50.611-17.614 8.132-39.362-1.34-48.574-21.16-9.213-19.82-2.401-42.48 15.213-50.612 17.615-8.132 39.362 1.34 48.575 21.16M77.502 253.187c.985.757.912-.65.754-1.93A54.95 54.95 0 0 0 75.95 251c.567.707 1.034 1.457 1.552 2.187"/>
            <path fill="#E8F5FD" d="M74.35 247.175l-1.735-.936c-.583-.294-1.176-.569-1.754-.839.72.479 1.462.962 2.158 1.496.377 1.425-.096 1.6-.749 1.37-.66-.229-1.473-.885-1.92-1.175 1.413 1.644 2.079 1.703 2.579 1.302.494-.39.778-1.235 1.42-1.218M69.504 243.204c-1.312-2.045-1.762-.507-1.469.575.456-.295 1.776.526 1.469-.575M23.95 303.8c-.256-.64-.574-1.326-.392-1.524-.503-.21-.711-.067.392 1.524M23.285 301.767c.16.04.333.082.53.142-.143-.074-.255-.146-.427-.218-.066.009-.066.053-.103.076"/>
            <g transform="rotate(-180 41.575 156.3)">
                <mask id="D" fill="#fff">
                    <use xlink:href="#C"/>
                </mask>
                <path fill="#E8F5FD" d="M13.896 34.011c-.746-1.806-.12-2.768-.171-4.45.501-.224 1.017-.43 1.539-.618-.042-.89-.273-1.151-.549-1.36-.28-.213-.607-.371-.78-1.11.322-.34.61-.794.823-1.318.252-.505.426-1.086.623-1.626.365-1.094.686-2.104.897-2.426.412-.078.524.174.565.484.046.316.039.706.156.901.506-1.953-.727-2.554.747-4.704l.328.187c1.02-3.042 3.44-5.885 6.548-7.922 3.124-2.076 6.8-3.348 10.47-4.192-.51-.038-.406-.336-.628-.6 4.008-.61 8.498-.145 12.746.89 4.278 1.014 8.306 2.558 12.195 3.611-2.043-1.448-4.571-3.75-7.603-5.413a18.197 18.197 0 0 0-4.69-1.858c-1.583-.34-3.127-.4-4.472-.013-.407-.342-.92-.505-1.456-.608-.536-.114-1.099-.122-1.624-.136-1.05-.059-1.95-.028-2.335-.759-3.681-.299-6.263.61-8.488 1.797-2.242 1.214-4.207 2.644-7.017 4.34-.927.304-.911-.519-1.503-.913a28.869 28.869 0 0 1 4.619-3.182 30.248 30.248 0 0 0-3.364 1.01c.25-.333.675-.636 1.157-.948.478-.323 1.03-.616 1.553-.896.515-.297 1.004-.576 1.37-.85.363-.283.597-.586.6-.918C23.92 1.95 20.967 3.43 18.383 5.39c-2.571 1.943-4.736 4.31-5.418 6.53 1.514-1.339 3.022-3.377 5-4.742.558-.132 1.198-.374 1.742-.484.555-.098.995-.086 1.134.222-2.192 2.553-4.048 4.664-5.837 6.917-1.74 2.266-3.368 4.731-4.333 7.815-.48 1.536-1.249 3.564-1.924 3.666.068-1.108-.678-.472-.708-1.43-.105 1.222.497 1.445.911 1.754.434.314.696.696.224 2.26a99.121 99.121 0 0 1-2.151-.904c1.022.933.737 1.899.338 3.035-.39 1.125-.882 2.444-.21 3.692-.945.855-1.461-.805-1.322-2.754-.601 2.169.738 2.45.672 4.149-.67-.545-1.277-1.116-1.916-1.716.451.5.64.95.676 1.372.047.422-.073.818-.271 1.195-.413.754-1.057 1.444-1.353 2.022.242.05.72-.204 1.142-.165.424.04.766.36.836 1.535-.15 1.036-.691.578-.943.85.504.079 1.467.816 1.787 2.317-.595.402-1.16-.849-1.822-.86.095.598.255 1.126.316 1.63.061.506.048.983-.106 1.472 1.024 1.96.89-.344 1.877.74.193 1.596-.314 1.844-1.022 1.865-.703.024-1.598-.204-2.091.601-1.668-2.238-2.566-5.615-3.242-6.992.413 1.697.866 3.372 1.457 4.993-.406-.066-.542.868-.698 1.513-.154.64-.4 1.012-1.128-.26.32 2.678 1.33 5.51 2.712 8.086 1.375 2.585 3.115 4.921 4.769 6.848-.19-.733-.518-1.6-.029-1.727 1.756 1.905.836 2.177.672 2.95 1.59 1.243 2.491.291 3.979.557.369.911.723 1.594 1.066 2.142.335.557.632 1.003.934 1.423.297.425.564.857.848 1.39.296.522.586 1.166.94 2.031l.732-1.12c.527 1.154 1.184 1.44 1.897 1.647.717.213 1.43.418 2.224 1.443-.046.306-1.043.047-1.844-.198 2.058.98 1.03 2.159 3.2 2.949-.758.097-1.531.183-2.32.257 1.553.996 4.126 1.921 2.678 2.544 1.796.151 3.85.96 6.066 1.662 2.199.72 4.55 1.346 6.591 1.357l-.51 1.055c.59-.213 1.356-.251 2.202-.171.851.044 1.788.203 2.732.277.47.039.94.074 1.394.093.454.006.894-.015 1.303-.059.815-.074 1.506-.324 1.943-.743l.315.462a35.07 35.07 0 0 0 3.917-1.869c1.796-.142 1.507 1.632 1.564 1.145 4.008-1.023 6.9-2.311 9.547-2.92-.02-.42.191-.875.554-1.345.36-.477.854-1.004 1.44-1.519 1.14-1.076 2.582-2.228 3.763-3.357 3.198-2.288 5.927-5.354 7.993-8.79a33.898 33.898 0 0 0 2.596-5.408 37.028 37.028 0 0 0 1.577-5.724 39 39 0 0 0 .596-5.796 40.614 40.614 0 0 0-.302-5.664c-.5-3.695-1.464-7.188-2.821-10.327-.293-.973-1.094-1.992-2.002-2.98l-1.439-1.452c-.496-.47-.969-.937-1.378-1.408.207.712.413 1.237.625 1.672.204.437.394.79.609 1.135.432.687.867 1.38 1.305 2.767.114 1.106-.17 1.948-.58 2.75-.384.796-.896 1.554-1.22 2.496.37-.365.74-.74 1.108-1.125.794 1.291.679 1.825.599 2.251-.077.434-.126.765.63 1.825l-2.098.106c.286.163.459.412.549.707.075.295.066.634.007.974-.103.681-.468 1.359-.734 1.743.483.23.975.47 1.454.719-.838 1.734-1.296 2.8-2.647 3.158l1.34-.02c-.451.275-.616 1.88-1.002 3.108-.42 1.228-.937 2.035-1.821.838.2.517.73 1.102.309 2.058l-1.314-.242c-.078 1.46-.477 3.057-1.326 3.12.021-.817-.432-1.265-.893-1.702-.566 1.288-.697 2.07-.552 2.659.155.593.573.97 1.011 1.334.439.369.897.724 1.076 1.306.184.583.069 1.4-.714 2.6l-.67-.54c-.027.55-.033 1.137-.102 1.692-.608.173-1.173.358-1.78.478.488 1.712-1.008 3.205-2.847 4.366-1.854 1.193-3.99 1.994-5.21 3.41-.273.217-.648.284-1.06.33a8.17 8.17 0 0 1-1.376.008 22.702 22.702 0 0 0-1.565-.012c-.542.03-1.1.122-1.689.297l.47 1.246c-1.165-.375-3.634-.473-5.937-1.212-2.311-.697-4.372-2-4.885-3.65-1.829.687.115.303-.095 1.33-.444.086-.84.13-1.188.14a3.782 3.782 0 0 1-.903-.126c-.521-.128-.872-.415-1.15-.726-.556-.615-.789-1.482-1.452-2.132-1.058-.08-.757.18-.34.532.41.355.955.743.249 1.031-1.337-1.036-2.062-.958-2.956-.902-.861.022-1.913.028-3.453-1.481.06-.845 1.178.154 1.8-.08-1.575-.126-3.438-1.196-5.178-2.695-1.753-1.494-3.37-3.391-4.835-5.056-1.19-2.286-2.594-5.088-3.548-8.154-.983-3.045-1.487-6.29-1.315-9.099l-.488-.028c.22-.62.29-1.213.32-1.812a16.656 16.656 0 0 0-.099-1.804c-.11-1.216-.256-2.51.14-3.792-.277.403-.54.819-.782 1.247" mask="url(#D)"/>
            </g>
            <path fill="#E8F5FD" d="M31.95 228.063L31.052 227c-.544.346-1.07.728-1.586 1.13-.519.387-1.028.784-1.516 1.223.823.138 1.331-.04 1.883-.353.543-.328 1.147-.729 2.117-.937M32.184 231c.444-.272.894-.56 1.366-.8-.41.093-.81.213-1.21.338-.398.126-.803.232-1.19.383.343.01.692.044 1.034.079M7.485 263l.218-.44a38.825 38.825 0 0 1-.037-6.76 38.71 38.71 0 0 0-.18 7.2M22.84 304.182c-1.069-.037-1.93-.923-2.89-1.182.515.295 1.053.562 1.589.827.535.264 1.059.537 1.61.773l-.309-.418z"/>
            <g transform="translate(53.55 315)">
                <mask id="F" fill="#fff">
                    <use xlink:href="#E"/>
                </mask>
                <path fill="#E8F5FD" d="M.891 2.4c1.256-2.54 3.204-.557.725-2.215-2.425.818-.125 1.33-.725 2.215" mask="url(#F)"/>
            </g>
            <path fill="#E8F5FD" d="M62.35 311.8c-1.23.413-1.8.982-2.4 1.51.967.219 1.389.011 1.651-.325.264-.335.377-.803.749-1.185"/>
            <g fill="#1DA1F2" fill-rule="nonzero">
                <path d="M40.584 286.552c13.564 0 20.98-11.387 20.98-21.261 0-.323-.006-.645-.02-.966a15.107 15.107 0 0 0 3.678-3.87 14.554 14.554 0 0 1-4.234 1.177 7.482 7.482 0 0 0 3.242-4.133 14.671 14.671 0 0 1-4.682 1.814 7.32 7.32 0 0 0-5.383-2.361c-4.072 0-7.375 3.346-7.375 7.471 0 .587.065 1.157.191 1.704-6.129-.312-11.563-3.286-15.2-7.807a7.529 7.529 0 0 0-.998 3.756 7.493 7.493 0 0 0 3.281 6.22 7.247 7.247 0 0 1-3.34-.935v.096c0 3.618 2.541 6.64 5.916 7.325a7.293 7.293 0 0 1-3.33.128c.938 2.969 3.66 5.13 6.888 5.19a14.67 14.67 0 0 1-9.159 3.198c-.594 0-1.182-.034-1.759-.103a20.676 20.676 0 0 0 11.304 3.357"/>
            </g>
        </g>
        <g>
            <path fill="#E5F7FD" d="M309.644 253.475c9.212 19.818 2.4 42.478-15.214 50.611-17.614 8.132-39.362-1.34-48.574-21.16-9.213-19.82-2.401-42.48 15.213-50.612 17.615-8.132 39.362 1.34 48.575 21.16M310.502 253.187c.985.757.912-.65.754-1.93a54.95 54.95 0 0 0-2.306-.257c.567.707 1.034 1.457 1.552 2.187"/>
            <path fill="#E5F7FD" d="M307.35 247.175l-1.735-.936c-.583-.294-1.176-.569-1.754-.839.72.479 1.462.962 2.158 1.496.377 1.425-.096 1.6-.749 1.37-.66-.229-1.473-.885-1.92-1.175 1.413 1.644 2.079 1.703 2.579 1.302.494-.39.778-1.235 1.42-1.218M302.504 243.204c-1.312-2.045-1.762-.507-1.469.575.456-.295 1.776.526 1.469-.575M256.95 303.8c-.256-.64-.574-1.326-.392-1.524-.503-.21-.711-.067.392 1.524M256.285 301.767c.16.04.333.082.53.142-.143-.074-.255-.146-.427-.218-.066.009-.066.053-.103.076"/>
            <g transform="translate(225.75 229.4)">
                <mask id="H" fill="#fff">
                    <use xlink:href="#G"/>
                </mask>
                <path fill="#E5F7FD" d="M17.096 34.011c-.746-1.806-.12-2.768-.171-4.45.501-.224 1.017-.43 1.539-.618-.042-.89-.273-1.151-.549-1.36-.28-.213-.607-.371-.78-1.11.322-.34.61-.794.823-1.318.252-.505.426-1.086.623-1.626.365-1.094.686-2.104.897-2.426.412-.078.524.174.565.484.046.316.039.706.156.901.506-1.953-.727-2.554.747-4.704l.328.187c1.02-3.042 3.44-5.885 6.548-7.922 3.124-2.076 6.8-3.348 10.47-4.192-.51-.038-.406-.336-.628-.6 4.008-.61 8.498-.145 12.746.89 4.278 1.014 8.306 2.558 12.195 3.611-2.043-1.448-4.571-3.75-7.603-5.413a18.197 18.197 0 0 0-4.69-1.858c-1.583-.34-3.127-.4-4.472-.013-.407-.342-.92-.505-1.456-.608-.536-.114-1.099-.122-1.624-.136-1.05-.059-1.95-.028-2.335-.759-3.681-.299-6.263.61-8.488 1.797-2.242 1.214-4.207 2.644-7.017 4.34-.927.304-.911-.519-1.503-.913a28.869 28.869 0 0 1 4.619-3.182 30.248 30.248 0 0 0-3.364 1.01c.25-.333.675-.636 1.157-.948.478-.323 1.03-.616 1.553-.896.515-.297 1.004-.576 1.37-.85.363-.283.597-.586.6-.918C27.12 1.95 24.167 3.43 21.583 5.39c-2.571 1.943-4.736 4.31-5.418 6.53 1.514-1.339 3.022-3.377 5-4.742.558-.132 1.198-.374 1.742-.484.555-.098.995-.086 1.134.222-2.192 2.553-4.048 4.664-5.837 6.917-1.74 2.266-3.368 4.731-4.333 7.815-.48 1.536-1.249 3.564-1.924 3.666.068-1.108-.678-.472-.708-1.43-.105 1.222.497 1.445.911 1.754.434.314.696.696.224 2.26a99.121 99.121 0 0 1-2.151-.904c1.022.933.737 1.899.338 3.035-.39 1.125-.882 2.444-.21 3.692-.945.855-1.461-.805-1.322-2.754-.601 2.169.738 2.45.672 4.149-.67-.545-1.277-1.116-1.916-1.716.451.5.64.95.676 1.372.047.422-.073.818-.271 1.195-.413.754-1.057 1.444-1.353 2.022.242.05.72-.204 1.142-.165.424.04.766.36.836 1.535-.15 1.036-.691.578-.943.85.504.079 1.467.816 1.787 2.317-.595.402-1.16-.849-1.822-.86.095.598.255 1.126.316 1.63.061.506.048.983-.106 1.472 1.024 1.96.89-.344 1.877.74.193 1.596-.314 1.844-1.022 1.865-.703.024-1.598-.204-2.091.601-1.668-2.238-2.566-5.615-3.242-6.992.413 1.697.866 3.372 1.457 4.993-.406-.066-.542.868-.698 1.513-.154.64-.4 1.012-1.128-.26.32 2.678 1.33 5.51 2.712 8.086 1.375 2.585 3.115 4.921 4.769 6.848-.19-.733-.518-1.6-.029-1.727 1.756 1.905.836 2.177.672 2.95 1.59 1.243 2.491.291 3.979.557.369.911.723 1.594 1.066 2.142.335.557.632 1.003.934 1.423.297.425.564.857.848 1.39.296.522.586 1.166.94 2.031l.732-1.12c.527 1.154 1.184 1.44 1.897 1.647.717.213 1.43.418 2.224 1.443-.046.306-1.043.047-1.844-.198 2.058.98 1.03 2.159 3.2 2.949-.758.097-1.531.183-2.32.257 1.553.996 4.126 1.921 2.678 2.544 1.796.151 3.85.96 6.066 1.662 2.199.72 4.55 1.346 6.591 1.357l-.51 1.055c.59-.213 1.356-.251 2.202-.171.851.044 1.788.203 2.732.277.47.039.94.074 1.394.093.454.006.894-.015 1.303-.059.815-.074 1.506-.324 1.943-.743l.315.462a35.07 35.07 0 0 0 3.917-1.869c1.796-.142 1.507 1.632 1.564 1.145 4.008-1.023 6.9-2.311 9.547-2.92-.02-.42.191-.875.554-1.345.36-.477.854-1.004 1.44-1.519 1.14-1.076 2.582-2.228 3.763-3.357 3.198-2.288 5.927-5.354 7.993-8.79a33.898 33.898 0 0 0 2.596-5.408 37.028 37.028 0 0 0 1.577-5.724 39 39 0 0 0 .596-5.796 40.614 40.614 0 0 0-.302-5.664c-.5-3.695-1.464-7.188-2.821-10.327-.293-.973-1.094-1.992-2.002-2.98l-1.439-1.452c-.496-.47-.969-.937-1.378-1.408.207.712.413 1.237.625 1.672.204.437.394.79.609 1.135.432.687.867 1.38 1.305 2.767.114 1.106-.17 1.948-.58 2.75-.384.796-.896 1.554-1.22 2.496.37-.365.74-.74 1.108-1.125.794 1.291.679 1.825.599 2.251-.077.434-.126.765.63 1.825l-2.098.106c.286.163.459.412.549.707.075.295.066.634.007.974-.103.681-.468 1.359-.734 1.743.483.23.975.47 1.454.719-.838 1.734-1.296 2.8-2.647 3.158l1.34-.02c-.451.275-.616 1.88-1.002 3.108-.42 1.228-.937 2.035-1.821.838.2.517.73 1.102.309 2.058l-1.314-.242c-.078 1.46-.477 3.057-1.326 3.12.021-.817-.432-1.265-.893-1.702-.566 1.288-.697 2.07-.552 2.659.155.593.573.97 1.011 1.334.439.369.897.724 1.076 1.306.184.583.069 1.4-.714 2.6l-.67-.54c-.027.55-.033 1.137-.102 1.692-.608.173-1.173.358-1.78.478.488 1.712-1.008 3.205-2.847 4.366-1.854 1.193-3.99 1.994-5.21 3.41-.273.217-.648.284-1.06.33a8.17 8.17 0 0 1-1.376.008 22.702 22.702 0 0 0-1.565-.012c-.542.03-1.1.122-1.689.297l.47 1.246c-1.165-.375-3.634-.473-5.937-1.212-2.311-.697-4.372-2-4.885-3.65-1.829.687.115.303-.095 1.33-.444.086-.84.13-1.188.14a3.782 3.782 0 0 1-.903-.126c-.521-.128-.872-.415-1.15-.726-.556-.615-.789-1.482-1.452-2.132-1.058-.08-.757.18-.34.532.41.355.955.743.249 1.031-1.337-1.036-2.062-.958-2.956-.902-.861.022-1.913.028-3.453-1.481.06-.845 1.178.154 1.8-.08-1.575-.126-3.438-1.196-5.178-2.695-1.753-1.494-3.37-3.391-4.835-5.056-1.19-2.286-2.594-5.088-3.548-8.154-.983-3.045-1.487-6.29-1.315-9.099l-.488-.028c.22-.62.29-1.213.32-1.812a16.656 16.656 0 0 0-.099-1.804c-.11-1.216-.256-2.51.14-3.792-.277.403-.54.819-.782 1.247" mask="url(#H)"/>
            </g>
            <path fill="#E5F7FD" d="M264.95 228.063l-.898-1.063c-.544.346-1.07.728-1.586 1.13-.519.387-1.028.784-1.516 1.223.823.138 1.331-.04 1.883-.353.543-.328 1.147-.729 2.117-.937M265.184 231c.444-.272.894-.56 1.366-.8-.41.093-.81.213-1.21.338-.398.126-.803.232-1.19.383.343.01.692.044 1.034.079M240.485 263l.218-.44a38.825 38.825 0 0 1-.037-6.76 38.71 38.71 0 0 0-.18 7.2M255.84 304.182c-1.069-.037-1.93-.923-2.89-1.182.515.295 1.053.562 1.589.827.535.264 1.059.537 1.61.773l-.309-.418z"/>
            <g transform="translate(286.55 315)">
                <mask id="J" fill="#fff">
                    <use xlink:href="#I"/>
                </mask>
                <path fill="#E5F7FD" d="M.891 2.4c1.256-2.54 3.204-.557.725-2.215-2.425.818-.125 1.33-.725 2.215" mask="url(#J)"/>
            </g>
            <path fill="#E5F7FD" d="M295.35 311.8c-1.23.413-1.8.982-2.4 1.51.967.219 1.389.011 1.651-.325.264-.335.377-.803.749-1.185"/>
            <g fill="#00AFF0" fill-rule="nonzero">
                <path d="M289.021 272.776c-.012.066-.02.132-.032.198l-.064-.377c.035.059.064.12.096.179.193-1.053.294-2.13.294-3.207 0-2.388-.466-4.705-1.388-6.886-.889-2.107-2.16-4-3.783-5.624a17.582 17.582 0 0 0-12.478-5.18c-1.122 0-2.247.105-3.342.315l-.008.002c.062.032.124.061.184.095l-.37-.058.186-.037a10.44 10.44 0 0 0-4.9-1.228c-2.79 0-5.414 1.09-7.388 3.068a10.42 10.42 0 0 0-3.06 7.406c0 1.78.457 3.531 1.315 5.078.01-.064.019-.129.031-.193l.064.37c-.033-.057-.062-.118-.095-.177a17.86 17.86 0 0 0-.266 3.05c0 2.388.466 4.704 1.388 6.886a17.612 17.612 0 0 0 3.78 5.623 17.552 17.552 0 0 0 5.612 3.79 17.469 17.469 0 0 0 6.87 1.393c1.036 0 2.076-.095 3.09-.276-.059-.033-.12-.063-.18-.098l.377.066c-.065.013-.13.02-.197.032a10.42 10.42 0 0 0 5.14 1.358c2.79 0 5.413-1.088 7.387-3.067a10.412 10.412 0 0 0 3.06-7.405c0-1.787-.46-3.543-1.323-5.096zm-17.284 7.628c-6.27 0-9.075-3.09-9.075-5.406 0-1.188.875-2.02 2.08-2.02 2.683 0 1.988 3.862 6.995 3.862 2.563 0 3.978-1.395 3.978-2.823 0-.858-.423-1.81-2.11-2.227l-5.577-1.396c-4.491-1.129-5.307-3.563-5.307-5.85 0-4.75 4.462-6.534 8.652-6.534 3.86 0 8.41 2.138 8.41 4.988 0 1.221-1.055 1.931-2.26 1.931-2.29 0-1.868-3.177-6.481-3.177-2.289 0-3.557 1.039-3.557 2.526 0 1.484 1.808 1.958 3.378 2.316l4.128.919c4.521 1.01 5.668 3.656 5.668 6.148 0 3.86-2.956 6.743-8.922 6.743zm2.84 6.484c.06.035.121.065.18.098.067-.011.132-.02.197-.032l-.377-.066zm14.412-13.914c.012-.066.02-.132.032-.198-.032-.06-.061-.12-.096-.18l.064.378zm-34.675-6.647c-.012.064-.02.129-.031.193.033.06.062.12.095.178l-.064-.37zm14.186-14.036c-.06-.034-.122-.063-.184-.095l-.187.037.371.058z"/>
            </g>
        </g>
    </g>
</svg>
