<svg xmlns="http://www.w3.org/2000/svg" width="43" height="41" fill="none" viewBox="0 0 43 41">
    <path fill="#123399" d="M41.964 21.333c.069-.35.028-.705-.013-1.052-.057-.491-.057-.978-.073-1.47-.004-.155.036-.323-.074-.467-.086-.386-.147-.772-.208-1.162-.082-.518-.172-1.044-.331-1.55-.025-.079-.062-.16-.03-.246l-.011-.05.012.05c.02-.063-.02-.137.037-.195.02.062.036.12.057.183.155.53.229 1.076.405 1.602 0 .066-.009.136.07.183.04-.093.015-.175.007-.257l-.008.008c.004-.004.004-.008.008-.008.008-.207-.045-.41-.094-.608-.212-.889-.441-1.774-.764-2.63-.254-.671-.466-1.365-.936-1.942-.082-.374-.34-.67-.483-1.02-.016.023-.028.034-.044.034.012-.011.024-.023.044-.035-.15-.288-.343-.557-.535-.822-.568-.791-1.05-1.637-1.684-2.393-.936-1.119-1.99-2.109-3.16-3.01-.825-.638-1.725-1.149-2.624-1.667-.662-.382-1.353-.71-2.044-1.045-.87-.42-1.798-.709-2.73-.978C26.292.65 25.805.615 25.34.49 24.252.194 23.132.104 22.016.022c-.719-.054-1.434.008-2.146.016-.768.008-1.512.234-2.28.25-.131.003-.266.034-.401.065-.392.086-.78.195-1.181.254-.634.09-1.243.265-1.811.55-.335.085-.662.194-.944.393-.691.21-1.378.44-1.983.842-.417.277-.805.604-1.28.799-.007-.004-.015-.004-.02 0-.04-.094-.085-.102-.134-.004l-.041.039c-.062.035-.123.097-.184.097-.119 0-.107.067-.11.133-.193.124-.377.265-.565.393-.838.57-1.667 1.158-2.35 1.902-.364.402-.83.71-1.157 1.142-.237.312-.548.562-.785.87-.335.436-.645.888-.989 1.313-.56.69-.948 1.465-1.34 2.24-.07.114-.135.23-.205.344-.053.082-.037.152.041.21-.049.117-.31.195-.082.37.008.004 0 .043-.008.051-.098.09-.11.218-.163.324-.262.53-.528 1.064-.56 1.668l-.135.308c-.196.07-.135.23-.143.366-.004.14-.062.265-.115.39-.127.312-.233.635-.306.962-.135.378-.237.76-.286 1.158-.009.031-.02.058-.03.09-.093.49-.085.993-.163 1.48-.094.562-.13 1.12-.085 1.68.008.117.02.238-.013.347-.122.433-.032.858.004 1.286 0 .028 0 .051.004.078.054.749.438 1.427.54 2.163-.082.11-.094.219.008.324.045.386.225.74.286 1.122-.135.082-.045.117.037.156.016.152.045.308.053.46.013.289.107.546.262.787.151.464.384.893.597 1.333.04.187.118.359.261.5.041.03.004.077.029.12.192.304.294.647.454.963.29.592.617 1.165 1.07 1.672.221.245.364.56.585.814.262.304.544.593.842.87-.029.058-.057.124-.008.179.163.183.335.362.503.545.004.047.036.074.081.094.172.16.299.358.495.499v.004c.029.046.045.109.119.113.175.171.351.343.527.51.102.129.229.226.364.32.032.023.065.047.098.066.167.125.294.292.482.39.016.011.029.027.045.039.102.101.225.179.36.238.11.062.22.124.33.19.103.02.123.148.234.16.012.078.082.11.139.148.037.035.073.078.114.11.99.74 2.126 1.25 3.254 1.753.822.367 1.68.663 2.538.947.634.21 1.263.413 1.93.507.302.004.592.191.907.07.127-.031.176.094.274.125.54.171 1.095.23 1.66.21.433-.015.858.11 1.291.059.343-.043.683-.05 1.03-.031 1.03.058 2.032-.152 3.041-.297.4-.058.773-.218 1.157-.342.45-.149.924-.238 1.377-.37 1.006-.297 1.934-.765 2.882-1.193.147-.067.294-.137.43-.223.49-.315.993-.607 1.491-.911.622-.383 1.243-.76 1.84-1.174.364-.253.588-.623.911-.908.254-.109.495-.238.654-.464.22-.175.389-.397.593-.58.494-.445.883-.97 1.296-1.477.098-.121.126-.285.249-.394.43-.382.72-.87 1.034-1.333.736-1.068 1.218-2.253 1.7-3.437.11-.277.123-.581.258-.846.364-.71.495-1.485.69-2.241.034-.137.017-.285.087-.413.085-.156.122-.328.15-.5.079-.451.075-.919.234-1.36.053-.144.04-.303.078-.455.032-.125-.11-.176-.107-.27 0-.143.037-.292.058-.436zM.222 21.088c-.008-.043-.02-.09-.004-.129-.004.039 0 .086.004.129zm.012.136c-.004-.008-.004-.012-.004-.02.004-.011.004-.023.004-.035.004.024.004.043.004.067 0-.004 0-.008-.004-.012zm40.81-6.746c0-.004.004-.004 0 0 .004-.004.004 0 .004 0 .029.148.082.292.127.436 0 .004.004.008.004.012s0 .004-.004.008c-.045-.148-.098-.293-.131-.445.004-.004 0-.007 0-.011z"/>
    <mask id="prefix__a" width="18" height="16" x="12" y="13" maskUnits="userSpaceOnUse">
        <path fill="#fff" fill-rule="evenodd" d="M12 13h17.699v15.858H12V13z" clip-rule="evenodd"/>
    </mask>
    <g mask="url(#prefix__a)">
        <path fill="#fff" fill-rule="evenodd" d="M25.763 24.753c-.404.163-2.313 1.273-3.617 2.042v-1.01c0-.414-.336-.75-.75-.75h-.194c-2.15 0-3.898-1.748-3.898-3.897 0-2.15 1.748-3.899 3.898-3.899H24.3c2.15 0 3.899 1.749 3.899 3.899 0 1.595-.957 3.015-2.436 3.615zm-9.957-3.632c-1.361-.461-2.307-1.736-2.307-3.217 0-1.877 1.528-3.404 3.405-3.404h2.769c1.029 0 1.982.475 2.617 1.239h-1.088c-2.97 0-5.387 2.413-5.396 5.382zm8.494-5.382h-.24C23.242 14.086 21.547 13 19.673 13h-2.769c-2.705 0-4.905 2.2-4.905 4.904 0 2.391 1.707 4.423 4.061 4.831l.009.001c.631 2.024 2.405 3.548 4.577 3.771v1.602c0 .27.144.519.379.653.115.065.242.097.371.097.133 0 .265-.035.383-.105 1.99-1.184 4.236-2.483 4.546-2.61 2.049-.831 3.374-2.796 3.374-5.006 0-2.977-2.422-5.399-5.399-5.399z" clip-rule="evenodd"/>
    </g>
</svg>
