<svg xmlns="http://www.w3.org/2000/svg" width="185" height="183" fill="none" viewBox="0 0 185 183">
    <mask id="prefix__a" width="198" height="203" x="0" y="0" maskUnits="userSpaceOnUse">
        <rect width="197.19" height="202.195" fill="#fff" rx="10"/>
    </mask>
    <g mask="url(#prefix__a)">
        <path fill="#FE7213" d="M184.217 46.987c-1.554-4.652-1.554-9.82-2.072-14.99-.518-1.033-1.035-2.067-2.071-2.584 0-.517-.518-.517-.518-1.034-.518-1.55-.518-2.584-1.036-4.135-1.036-2.584-1.553-5.169-1.553-8.27-.518-1.55-.518-2.585-.518-3.618 0-.517.518-1.034.518-2.068.517-1.55 1.035-2.584 1.035-4.135-.518-3.101-1.553-6.203-3.625-8.787-3.107-2.068-3.107-5.17-3.107-7.753-1.036-7.754-7.251-12.406-10.358-19.125-6.214-11.889-16.572-20.16-26.412-28.946-1.036 0-2.071-.517-2.589-.517-5.179-1.55-9.322-6.72-14.501-8.787-.518-.517-1.036-1.034-1.554-1.034l-1.553-1.55c-6.733-7.754-15.537-12.406-25.376-13.44-16.573-2.067-33.145-3.101-49.717-1.55-12.43 1.033-24.859 2.067-36.77 6.72-24.858 9.303-43.502 26.877-59.556 47.036-16.573 21.192-26.412 44.97-26.412 72.881 0 5.17.518 10.855-1.554 16.54v11.372c2.59 8.27 1.554 17.575 4.66 25.845 9.84 26.878 26.413 48.07 49.2 64.611 18.644 13.956 38.84 24.294 63.181 23.26 6.733-.517 12.948-2.585 19.68-1.551 7.768.517 15.536.517 23.305 0 12.429-.517 24.858-3.101 35.734-9.304 3.107-2.067 6.214-4.652 9.839-6.203 17.608-7.753 30.038-20.158 38.842-37.216 0-2.584-.518-5.168 3.107-5.168 3.107-1.034 5.179-3.619 6.732-6.203 9.84-14.473 12.947-31.013 13.983-48.07v-.518c.518-6.202-1.036-12.405.518-18.608v-3.1h.518zm-32.109 57.892c-14.501 29.979-39.359 48.07-70.432 56.857-23.305 6.72-46.091 2.585-68.36-7.753-16.573-7.753-31.073-18.091-45.574-28.946-17.608-12.405-29.52-29.462-32.109-51.689-3.625-29.462 3.626-56.34 17.09-81.668 13.983-25.328 35.216-43.419 63.182-52.723 36.77-12.405 71.468-9.304 103.059 14.473 23.822 18.091 36.769 43.419 42.466 72.365 2.589 11.371 5.179 23.26 4.143 36.182 1.036 14.99-6.732 28.946-13.465 42.902z"/>
        <path fill="#FEBC90" d="M184.217 49.579v19.642h-1.036c-.518-5.686.518-11.372-1.036-17.058-1.036-1.55 0-2.584 2.072-2.584z"/>
        <path fill="#FE8B3E" d="M179.555 29.418c0 1.033-.517 2.584-1.035 3.618-1.036-.517-2.072-1.55-2.59-3.102 1.036-5.169-1.035-9.304-3.107-13.439-2.072-3.618 2.589-6.202 2.072-9.82.517 1.033 1.035 2.584 1.553 3.618 3.107 6.202 4.661 12.405 3.107 19.125z"/>
        <path fill="#FEBE92" d="M173.341 16.49c.518-.517 1.036-1.55 1.036-1.034 1.553 4.652 4.143 9.304 2.071 14.473-1.036-4.652-2.071-8.787-3.107-13.439z"/>
        <path fill="#FE822F" d="M160.911 121.94c-1.553 1.551-2.589 3.101-4.143 5.169-1.553-3.618 0-6.203 2.59-9.304.518 1.551 1.036 3.101 1.553 4.135z"/>
    </g>
</svg>
