<svg xmlns="http://www.w3.org/2000/svg" width="40" height="82" fill="none" viewBox="0 0 40 82">
    <mask id="prefix__a" width="40" height="81" x="0" y="1" maskUnits="userSpaceOnUse">
        <path fill="#fff" d="M0 1H40V82H0z"/>
    </mask>
    <g mask="url(#prefix__a)">
        <path fill="#29B68D" d="M76.294 21.487c-.016-.214.009-.593-.156-.634-.495-.125-.42-.562-.498-.879-.296-.355-.597-.763-.992-1.003-.284-.194-.51-.338-.589-.656l-.004-.053c-.119-.153-.337-.19-.457-.343l-.057-.05s-.004-.053-.058-.05c-.23-.197-.255-.519-.486-.717-.337-.19-.526-.553-.967-.681-.165-.041-.227-.145-.132-.313.228-.557-.118-.854-.415-1.209-.061-.103-.066-.156-.123-.206l-.058-.05-.519-.445c-.284-.194-.568-.388-.596-.763-.12-.153-.288-.248-.462-.397-.11-.045-.226-.144-.288-.247l-.057-.05c-.219-.037-.334-.136-.346-.297-.066-.157-.078-.317-.247-.412-.123-.207-.395-.24-.568-.389-.173-.148-.342-.243-.511-.338l-.058-.05c-.057-.05-.11-.045-.169-.095-.226-.144-.506-.285-.683-.487-.17-.095-.288-.248-.457-.342-.453-.29-.28-.842-.63-1.192-.399-.293-.745-.59-1.045-1-.392-.185-.733-.429-.972-.734-.416-.507-.832-1.015-1.445-1.292-.284-.194-.705-.054-.948-.413-.239-.305-.72-.269-.91-.632-.169-.095-.338-.19-.457-.342-.622-.384-.992-1.003-1.61-1.334l-.461-.396c-.124-.206-.396-.24-.515-.392-.4-.293-.844-.475-1.046-.999-.556-.227-.922-.792-1.429-1.077-.366-.565-.885-1.011-1.453-1.4-.272-.032-.391-.185-.564-.334-.565-.334-.77-.911-1.025-1.431-.342-.244-.63-.491-.972-.735-.284-.194-.312-.57-.596-.763-.24-.305-.779-.318-.811-.747-.045-.59-.387-.833-.84-1.122L48.558-6c-.383-.079-.647-.005-.849.172l-.05.058s.005.053-.049.057c-.095.17-.021.433-.182.445-.527.148-.82.547-1.233.794l-.054.004c-.053.004-.156.066-.206.124 0 0-.05.057-.045.11.004.054-.05.059-.046.112-.144.227-.301.292-.581.152l-.058-.05-.057-.05-.054.005-.054.004-.107.008c-.47.197-.326.672-.248.989.094.532-.034.973-.439 1.327-.09.222-.355.296-.446.519l-.05.057c-.09.223-.3.292-.519.255-.437-.075-.692.106-.882.444-.153.12-.19.338-.343.457l-.053.004c-.054.004-.054.004-.05.058-.417.193-.598.638-.953.934-.149.173-.129.441-.388.569-.19.338-.492.63-.731 1.025l-.215.016c-.3.293-.433.68-.788.976-.095.17-.248.289-.343.457-.247.289-.268.721-.627.964-.21.07-.417.193-.343.457-.095.17-.186.392-.388.569-.343.457-.57 1.013-.97 1.42-.491.63-.867 1.36-1.359 1.99-.045.11-.148.173-.247.288-.075.437-.384.622-.751.757.366.566-.043.866-.393 1.216-.252.235-.504.47-.698.753-.05.058-.045.111-.099.116-.095.168-.243.341-.066.543.395.24.614-.423 1.109-.299-.29.453-.648.696-.888 1.091l-.05.058c-.045.111-.144.226-.247.288-.054.004-.054.004-.103.062l-.054.004c-.424.086-.503.47-.701.7-.516.308-.797.868-1.374 1.074-.244.342-.487.683-.788.976-.153.12-.298.346-.458.358-.107.008-.219-.038-.338-.19-.338-.19-.602-.116-.915.015-.054.004-.103.062-.157.066-.053.004-.05.058-.103.062-.206.123-.24.395-.388.568-.194.284-.565.366-.82.547l-.05.058c-.1.115-.145.226-.19.338-.137.333-.22.663-.706.646-.107.008-.149.173-.136.333l.004.054.004.054c.008.107.074.264.189.363.51.338.263.626.02.968-.244.342-.43.733-.933.502 0 0-.053.004-.057-.05-.437-.074-.458.358-.714.54-.149.172-.24.395-.388.568-.145.226-.174.552-.487.683l-.108.009-.053.004c-.314.131-.45.465-.702.7-.148.172-.35.35-.388.568-.231.503-.636.857-.925 1.31-.095.168-.186.39-.388.568-.148.173-.24.395-.388.568-.194.284-.33.618-.582.853-.1.115-.087.276-.025.379l.057.05c.569.388.846-.226 1.365-.481-.12.548-.421.84-.718 1.186 0 0-.054.004-.05.058-.099.115-.14.28-.293.399 0 0 .004.054-.05.058.005.053-.049.057-.099.115-.14.28-.396.461-.479.79-.05.058-.05.058-.045.112-.087.276.098.585.007.808-.512 1.063-1.424 1.832-2.336 2.602.747-.811-.254-1.22-.352-1.806-.008-.107-.218-.037-.322.025l-.099.115c-.148.173-.186.391-.388.568-.099.116-.247.288-.342.457-.178.499-.59.746-1 1.046l-1.733 2.018c-.198.23-.45.465-.594.691-.05.058-.095.17-.14.28-.137.334-.388.569-.583.853-.148.173-.243.342-.388.568-.136.334-.511.363-.705.647-.4.407-.628.963-.975 1.367-.396.461-.57 1.013-1.023 1.425-.256.18-.335.564-.706.646-.244.342-.491.63-.735.972-.252.234-.33.618-.582.852-.095.17-.186.392-.388.569-.396.46-.57 1.013-1.024 1.425-.1.115-.145.226-.248.288.074.264-.132.387-.28.56-.34.51-.2.931.406 1.101.165.041.276.087.338.19 0 0 .058.05.062.103.057.05.119.153.177.202.341.244.362.512-.05.759-.207.123-.302.292-.121.548.371-.082.507.285.783.372.23.198.506.285.836.367.494.125.98.842.91 1.333-.08.383.098.585.382.78l.107-.009c.226.145.486.017.7.001.322-.024.635-.156.928.145.061.103.127.26.189.363.408.4 1.013.57 1.42.97.553.174 1.109.402 1.422.97.123.207.444.183.514.393.17.095.289.248.457.343.116.099.28.14.45.235.39.186.63.491.975.788.058.05.116.1.17.095 2.273.852 4.064 2.441 5.946 3.808l.058.05s.004.053.058.049l.053-.004c.28.14.515.392.8.586.053-.004.057.05.114.1.005.053.058.049.116.098 0 0 .053-.004.058.05.057.05.061.103.119.152.292.302.688.541.782 1.073 0 0 .004.053.057.05.004.053.058.049.058.049l.058.05c.168.095.333.136.453.289.457.342.963.627 1.42.97.144.474.688.54 1.034.838.247.412.692.594 1.034.838.107-.008.267-.02.379.025.169.095.337.19.453.289l.053-.004c.116.099.285.194.453.289.116.099.285.194.4.293 0 0 .058.05.111.045.111.046.223.091.383.08l.108-.009c.11.046.164.041.276.087.11.046.276.087.337.19.058.05.116.1.124.206l.004.054c.123.206.242.359.515.392.053-.004.053-.004.11.045.166.042.33.083.45.236l.115.099c.058.05.062.103.12.153.127.26.032.428-.113.655-.05.058-.152.12-.198.23l-.05.058-.049.058s.004.053-.05.057c.02.969-.69 1.562-1.23 2.25-.137.333-.017.486.308.515l.054-.004s.053-.004.057.05c.499.177.52.445.18.956-.408.3-.433.68-.293 1.1.127.26.354.404.485.718.066.157 1.903.934 2.114.864.107-.008.21-.07.313-.132.103-.061.322-.024.363-.189.243-.342.577-.205.895-.283.37-.082.803-.061 1.043-.457-.008-.107-.02-.268.025-.379.343-.457.57-1.013.97-1.42.15-.174.24-.396.389-.569.342-.457.68-.968.97-1.42.474-.144.602-.585.73-1.026.183-.445.59-.745.946-1.042.095-.169.297-.346.45-.465.548-.58.99-1.153 1.308-1.932.397-.46.57-1.013.97-1.42.141-.28.343-.458.43-.734l.302-.292c.297-.346.479-.79.96-.827l.054-.004.054-.004c.429-.033.446-.52.755-.704 0 0-.004-.054.05-.058.095-.169.243-.342.396-.461.355-.296.602-.585.681-.968.041-.165.025-.379-.049-.643-.016-.214.03-.325.182-.445.05-.057.103-.062.157-.066l.054-.004c.05-.057.103-.061.152-.119-.004-.054.05-.058.1-.115.049-.058.152-.12.267-.02l.054-.005c.111.046.222.091.33.083.107-.008.214-.016.37-.082.054-.004.05-.057.1-.115l-.005-.054c.463-.304.916-.716 1.432-1.024.153-.12.186-.392.339-.51l.053-.005.054-.004c.087-.276.408-.3.614-.424l.05-.057s.053-.005.05-.058l.445-.519c.702-.7 1.407-1.346 2.109-2.046.396-.461.57-1.013.97-1.42.132-.388.322-.726.628-.965.71-.592 1.534-1.086 2.244-1.678.301-.293.433-.68.788-.976.94-.395 1.255-1.227 1.734-2.018.618-.37.895-.984 1.345-1.45.033-.271.182-.444.335-.563.355-.297.425-.787.722-1.133.1-.115.203-.177.248-.288.343-.457.57-1.014.97-1.421.355-.297.59-.745.896-.984.916-.716 1.535-1.787 2.332-2.656.251-.235.384-.622.635-.856.091-.223.182-.445.389-.569.136-.334.565-.366.763-.597.342-.457.685-.914.97-1.42.095-.17.248-.289.343-.457.273-.668 1.003-.993 1.39-1.561.269-.02.364-.19.343-.457.297-.346.656-.589.958-.881l.05-.058c.037-.218.181-.445.33-.617.095-.17.247-.289.342-.458.206-.123.24-.395.392-.514.195-.285.335-.565.529-.849l-.004-.053c.24-.396.31-.886.438-1.327l-.004-.054-.004-.053c-.086-.425-.358-.458-.729-.376-.268.02-.532.094-.8.114l-.107.008c-.59.045-.924.61-1.398.753-.05.058-.045.111-.099.115-.05.058-.045.111-.099.116-.347.403-.668.427-1.336.155l-.053.004-.396.46c-.095.17-.248.29-.343.458-.1.115-.14.28-.293.4l-.05.057-.107.008c-.454.412-1.023.724-1.42 1.186-.259.127-.28.56-.655.588-.194.284-.57.313-.763.597.073.264-.075.437-.343.457-.35.35-.763.597-1.003.992-.227.556-.75.758-1.151 1.165-.252.235-.33.618-.582.853-.244.342-.434.68-.735.972-.256.18-.392.514-.706.646-.342.457-.627.964-.97 1.42-.206.124-.244.342-.388.569-.244.342-.516.309-.804.06-.12-.152-.288-.247-.461-.395-.078-.318-.358-.458-.593-.71-.292-.301-.786-.425-.98-.842l-.016-.214c-.123-.206-.395-.24-.568-.388-.17-.095-.288-.248-.457-.343-.408-.4-1.014-.57-1.372-1.028-.234-.252-.671-.326-.803-.64l-.057-.05-.004-.053c-.251-.466-.795-.533-1.15-.937-.333-.136-.365-.565-.596-.763-.407-.4-.96-.574-1.42-.97l-1.026-.731c-.408-.4-1.014-.57-1.367-.974-.173-.15-.396-.24-.515-.393l-.058-.05c-.498-.177-.852-.581-1.305-.87 0 0-.054.004-.058-.05l-.058-.05c-.35-.35-.551-.874-1.05-1.052-.399-.293-.794-.532-1.045-.998-.17-.095-.288-.248-.457-.343-.124-.206-.392-.186-.569-.388l-.46-.396c-.231-.199-.359-.458-.59-.657-.168-.095-.288-.247-.457-.342-.123-.206-.395-.24-.514-.392-.511-.339-1.022-.677-1.433-1.131l-.017-.215c-.44-.128-.675-.38-1.009-.516-.057-.05-.115-.1-.169-.095-.407-.4-.96-.574-1.367-.975-.173-.148-.395-.239-.568-.388-.288-.247-.618-.33-.853-.582-.222-.09-.391-.186-.564-.334-.169-.095-.288-.248-.457-.343-.239-.305-.667-.273-.91-.632-.334-.136-.465-.45-.647-.705-.115-.1-.288-.248-.457-.343-.638-.598-.642-.652-.196-1.17.103-.062.321-.025.363-.19.252-.234.388-.568.636-.856.255-.181.45-.466.763-.597.128-.441.318-.779.73-1.026.298-.345.484-.737.896-.984.21-.07.087-.276.133-.387.136-.334.565-.366.763-.597.342-.457.627-.963.97-1.42-.078-.318.182-.445.335-.565.548-.58.982-1.26.645-2.15-.066-.157.087-.277.133-.388 0 0-.005-.053.049-.057.045-.112.09-.223.079-.384l-.004-.053-.008-.107c-.005-.054.045-.112.099-.116.532-.094.82-.547 1.229-.847 0 0 .053-.004.05-.058.317-.078.457-.358.713-.539.573-.259.793-.922 1.428-1.078.375-.029.276-.614.71-.593.247-.288.326-.671.627-.964l.73-1.025c.4-.408.57-1.013 1.029-1.371.152-.12.19-.338.342-.458 0 0-.004-.053.05-.057l.05-.058c.222-.61.788-.976 1.01-1.585.1-.116.15-.173.248-.289.36-.242.27-.72.628-.963.19-.338.413-.247.59-.045.234.252.514.392.749.644l.054-.004.053-.004c.338.19.775.264.655.812.284.195.572.442.856.636.387.833 1.132 1.424 1.671 2.137l.288.248c.441.128.478.61.766.858.284.194.362.512.597.763.296.355.592.71.938 1.007.334.137.362.512.597.763.169.095.288.248.457.343.173.149.395.24.568.388.668.273.885 1.011 1.454 1.4.234.25.263.626.596.762.285.194.622.384.853.582.437.075.313.57.597.764.123.206.395.24.514.392.17.095.289.248.458.343.345.297.592.71.992 1.002.333.137.366.565.596.764.116.099.289.247.458.342.333.137.362.512.592.71.499.178.547.82.996 1.056.334.136.362.512.597.763.169.095.288.248.457.343.354.404.704.755 1.058 1.16l.058.049c.143.474.638.598.934.953.029.375.313.57.65.76.585.602 1.12 1.262 1.602 1.926-.071.49.53.607.617 1.031.284.194.366.565.596.764l.289.247c.44.128.786.426 1.132.723.288.247.705.054.944.36.865.042 1.665-.073 2.39-.451.274-.668-.332-.837-.628-1.192-.362-.511-.317-.623.264-.775.264-.073.536-.04.796-.168.264-.073.466-.25.446-.518-.17-.095-.173-.149-.177-.203zm-36.607 39.69c-.37.082-.808.008-.763.597-.474.144-.648.696-1.003.992l-.107.008c-.647-.005-.994.399-1.003.992-.375.029-.808.008-.763.597.008.107.016.214-.025.38-.318.077-.75.056-.763.596-.107.008-.268.02-.371.082-.59.045-.496.576-.628.964-.52.255-.89-.364-1.36-.167-.169-.095-.288-.247-.457-.342.021-.433-.247-.413-.515-.393-.313-.569-.914-.685-1.47-.912l-.375.028c-.313-.569-.82-.854-1.421-.97-.02-.268-.14-.42-.408-.4-.147-.528-.63-.492-1.013-.57-.123-.207-.25-.466-.564-.335-.108.008-.219-.037-.38-.025-.316-.623-.918-.739-1.474-.966-.276-.087-.425.086-.347.403.214.685-.128.441-.408.3-.115-.099-.272-.033-.38-.025-.106.008-.267.02-.378-.025-.194-.416-.482-.664-1.018-.623-.02-.268-.189-.363-.457-.343.07-.49-.56-.281-.588-.656.062-.598-.573-.442-.758-.751-.062-.103-.226-.145-.131-.313.05-.058.156-.066.214-.017.16-.012.346.297.433.021.09-.222.02-.432-.267-.68-.573-.442-1.294-.71-1.718-1.325-.14-.42-.423-.615-.906-.578-.115-.1-.284-.194-.395-.24-.058-.05-.062-.103-.12-.152.109-.71-.716-.916-.814-1.502 0 0-.16.013-.268.02-.131-.313-.007-.807-.596-.763.074-.436-.408-.4-.585-.602.009-.594-.428-.668-.865-.743-.3-.408.075-.437.285-.507.635-.155 1.332-.208 1.967-.364.317-.078.75-.057.71-.593 1.648-.286 3.302-.52 4.942-.913l.376-.029c.02.268.135.367.457.343 1.966-.364 3.88-.725 5.846-1.09.02.269.14.421.457.343.424-.086.849-.172 1.327-.262.21-.07.256-.18.293-.4.314-.13.73-.324 1.014-.13.614.277 1.142.13 1.67-.019.795-.168 1.591-.336 2.448-.4.43-.033.721.268 1.146.182 1.064-.188 2.12-.484 3.269-.247.985.194 2.032-.208 3.116-.129 1.195.125 2.391-.45 3.697-.28.928.146 1.868-.249 2.824-.43.108-.007.268-.02.306-.238.025-.379.355-.296.618-.37.689-.16 1.315.278 1.95.122l.06.804c-.589.044-.866.658-1.39.86-.053.003-.045.11-.04.164-.195.284-.862.012-.706.647.008.107.016.214-.025.379-.318.078-.747.11-.764.596-.107.008-.16.013-.268.02-.758-.05-1.084.622-1.596.984-.153.12-.408.3-.33.618-.252.234-.454.411-.706.646-.684.214-.743.865-1.024 1.425.008.107.016.214-.025.38-.623.316-.797.868-.913 1.47l-.791.221c-.532.094-.607.531-.735.972-.054.004-.05.058-.103.062-.417.193-.706.646-1.188.682-.107.008-.091.223-.083.33-.433-.021-.627.263-.763.597-.1.115-.202.177-.248.288-.256.181-.565.366-.59.745-.054.004-.16.012-.21.07-.71-.108-1.002.292-1.065.89zm-6.543-33.026c.132.313.007.807.597.763.098.585.576.495.964.627.168.095.288.248.46.397.132.313.062.803.647.705.008.107.016.215.074.264.502.231.955.52 1.107 1.102.004.053.215-.016.326.03.074.263.25.465.568.387.029.375.007.808.597.763.316.623.823.908 1.429 1.078l.02.268c-.075.437.193.416.515.392.169.095.342.244.457.343.362.511.869.796 1.42.97-.074.437.515.392.597.763.264.627.82.854 1.421.97l.375-.028c-.07.49.61.223.59.656.069.21-.006.647.456.343-.02.432.201.523.577.495.115.099.284.194.395.24.008.107.016.214.074.263.783.372 1.264 1.036 1.997 1.466.482.664 1.058 1.16 1.878 1.313.054-.004.054-.004.111.045.09.479-.285.507-.656.589-.742.164-1.41-.109-2.16-.052-.696.053-1.434.27-2.176.434l-.107.008c-.017-.214-.086-.424-.35-.35-.685.213-1.447.11-2.07.426-.094-.532-.515-.392-.886-.31-.692.106-1.38.266-2.07.426.018-.486-.353-.404-.617-.33-1.064.188-2.07.426-3.133.614l-.429.032c-.037-.482-.354-.404-.618-.33-1.262.419-2.605-.234-3.862.238-.054.005-.161.013-.165-.04-.346-.298-.713-.163-1.084-.08-1.01.184-2.07.426-3.08.61-.37.082-.795.168-1.129.032-.503-.232-.923-.092-1.401-.002-.586.098-1.118.192-1.703.29-1.488.275-2.98.496-4.469.77-2.284.443-4.572.831-6.91 1.278-.007-.107-.02-.268-.081-.371.214-.016.317-.078.404-.354.108-.709.443-1.273 1.11-1.701.413-.247.806-.762.76-1.351.1-.115.199-.23.294-.4.157-.065.313-.131.524-.2.363-.19.783-.33.582-.853.264-.074.47-.198.388-.569.095-.169.248-.288.343-.457.16-.012.325.03.42-.14.462-.304.422-.84.55-1.28.466-.252.69-.861 1.098-1.162.478-.09.614-.423.582-.852.264-.074.466-.251.388-.569.54.014.33-.617.701-.7-.453-.288-.056-.75-.188-1.063.046-.111.095-.169.14-.28.05-.058.104-.062.153-.12.318-.077.685-.213 1.006-.237.268-.02.305-.239.293-.4.302-.292.545-.634.789-.976.78-1.083 1.56-2.166 2.225-3.348.33-.618.435-1.38 1.272-1.713.157-.066.565-.366.479-.79.325.028.252-.235.24-.396.569-.313.64-.803.54-1.389.022-.432.27-.72.526-.902.148-.173.029-.325.181-.445.824.207 1.409.81 1.944 1.47.062.103.177.202.342.244.193.416.535.66.972.734.004.054.066.157.07.21.073.265.197.47.568.389.263.627.815.8 1.42.97.1-.115.215-.016.388.133z"/>
    </g>
</svg>
