<svg xmlns="http://www.w3.org/2000/svg" width="81" height="81" fill="none" viewBox="0 0 81 81">
    <path fill="#005EF5" d="M80.896 42.146c.134-.693.055-1.394-.024-2.079-.11-.97-.11-1.932-.141-2.903-.008-.308.07-.639-.142-.924-.166-.762-.284-1.524-.402-2.294-.158-1.024-.331-2.064-.638-3.065-.048-.154-.119-.315-.056-.485-.007-.03-.015-.07-.023-.1.008.03.016.07.023.1.04-.123-.039-.27.071-.385.04.123.071.239.11.362.3 1.047.442 2.125.78 3.165 0 .13-.015.27.135.362.079-.185.031-.347.016-.509l-.016.016c.008-.008.008-.016.016-.016.015-.408-.087-.808-.182-1.2-.41-1.756-.85-3.504-1.473-5.198-.489-1.324-.898-2.695-1.805-3.834-.157-.74-.654-1.325-.93-2.018-.031.046-.055.07-.086.07.023-.024.047-.047.087-.07-.292-.57-.662-1.1-1.033-1.624-1.095-1.564-2.025-3.234-3.246-4.728-1.805-2.21-3.838-4.166-6.091-5.944-1.592-1.263-3.326-2.272-5.06-3.296-1.276-.754-2.607-1.401-3.94-2.063-1.677-.832-3.466-1.402-5.263-1.933-.898-.27-1.836-.339-2.734-.585-2.096-.585-4.255-.763-6.406-.924-1.387-.108-2.766.015-4.137.03-1.482.016-2.916.463-4.397.493-.252.008-.512.07-.773.131-.756.17-1.505.385-2.277.5-1.221.178-2.395.524-3.49 1.086-.647.17-1.277.385-1.82.778-1.332.416-2.656.87-3.822 1.663-.804.547-1.553 1.194-2.467 1.579-.016-.008-.031-.008-.04 0-.078-.185-.165-.2-.26-.008l-.078.077c-.118.07-.237.192-.355.192-.228 0-.204.131-.212.262-.37.247-.725.524-1.088.778-1.615 1.124-3.215 2.287-4.53 3.757-.702.793-1.6 1.402-2.23 2.256-.458.616-1.057 1.11-1.514 1.717-.646.863-1.245 1.756-1.907 2.595-1.08 1.363-1.828 2.895-2.584 4.428-.134.223-.26.454-.394.677-.103.162-.071.3.079.416-.095.231-.6.385-.158.732.016.007 0 .084-.016.1-.189.177-.212.43-.315.639-.504 1.047-1.016 2.102-1.08 3.295-.086.2-.173.408-.26.609-.378.138-.26.454-.275.723-.008.277-.118.524-.22.77-.245.616-.45 1.255-.592 1.902-.26.747-.457 1.502-.551 2.287-.016.061-.04.115-.056.177-.18.97-.165 1.963-.315 2.926C.128 38.72.057 39.82.144 40.93c.015.23.04.47-.024.685-.236.854-.063 1.694.008 2.54 0 .055 0 .1.008.155.102 1.478.843 2.818 1.04 4.273-.158.216-.181.431.016.64.086.761.433 1.462.551 2.217-.26.161-.086.23.071.308.032.3.087.608.103.908.023.57.205 1.078.504 1.556.292.916.74 1.763 1.15 2.633.08.37.229.708.505.986.079.061.008.153.055.238.37.6.567 1.278.875 1.902.559 1.17 1.19 2.302 2.064 3.303.426.485.701 1.109 1.127 1.61.504.6 1.048 1.17 1.623 1.716-.055.116-.11.247-.016.355.316.362.646.716.97 1.078.008.092.07.146.157.184.331.316.575.709.954.986v.008c.055.092.086.215.228.223.339.339.678.678 1.017 1.009.197.254.44.446.701.631.063.046.126.092.19.13.322.247.566.578.929.77.031.024.055.055.087.078.197.2.433.354.693.47.213.123.425.246.638.377.197.038.237.293.45.316.023.154.157.215.267.292.071.07.142.154.221.216 1.907 1.463 4.098 2.471 6.272 3.465 1.584.723 3.239 1.309 4.894 1.87 1.221.416 2.434.817 3.719 1.002.583.007 1.142.377 1.75.138.243-.061.338.185.527.247 1.04.338 2.112.454 3.2.415.835-.03 1.654.216 2.49.116.661-.085 1.315-.1 1.985-.062 1.986.116 3.916-.3 5.863-.585.772-.115 1.489-.431 2.23-.677.867-.293 1.78-.47 2.655-.732 1.939-.585 3.727-1.51 5.556-2.356.283-.13.567-.27.827-.439.945-.624 1.915-1.201 2.876-1.802 1.198-.754 2.395-1.501 3.546-2.317.701-.5 1.135-1.232 1.757-1.794.489-.216.954-.47 1.26-.917.426-.346.75-.785 1.143-1.147.954-.878 1.703-1.917 2.498-2.918.19-.239.245-.562.481-.778.827-.754 1.387-1.717 1.994-2.633 1.418-2.11 2.348-4.45 3.278-6.791.212-.547.236-1.148.496-1.671.701-1.401.954-2.934 1.332-4.428.063-.269.031-.562.165-.816.166-.308.237-.646.292-.985.15-.893.142-1.817.449-2.687.102-.285.079-.601.15-.901.063-.247-.213-.347-.205-.532 0-.285.07-.577.11-.862zM.427 41.661c-.015-.085-.039-.177-.007-.254-.008.077 0 .17.007.254zm.024.27c-.008-.016-.008-.024-.008-.039.008-.023.008-.046.008-.07.008.047.008.085.008.132 0-.008 0-.016-.008-.023zm78.672-13.329c0-.008.008-.008 0 0 .008-.008.008 0 .008 0 .055.293.158.578.244.863 0 .007.008.015.008.023 0 .007 0 .007-.008.015-.086-.293-.189-.577-.252-.878.008-.007 0-.015 0-.023z"/>
    <path fill="#fff" fill-rule="evenodd" d="M54.17 43.194l-4.657-3.295 4.657-3.314v6.609zm-8.543 2.737c0 .574-.468 1.04-1.04 1.04H26.891c-.576 0-1.04-.466-1.04-1.04v-12.04c0-.574.464-1.04 1.04-1.04h17.697c.571 0 1.039.466 1.039 1.04v12.04zM56.248 32.56c-.475-.249-1.047-.203-1.478.105l-6.293 4.474V33.89c0-2.145-1.744-3.889-3.89-3.889H26.892c-2.145 0-3.889 1.744-3.889 3.89v12.04c0 2.145 1.744 3.889 3.89 3.889h17.696c2.145 0 3.89-1.744 3.89-3.89v-3.273l6.292 4.457c.245.171.536.26.825.26.226 0 .448-.05.657-.159.471-.245.768-.733.768-1.265V33.825c0-.532-.297-1.023-.772-1.266z" clip-rule="evenodd"/>
    <path fill="#fff" fill-rule="evenodd" d="M31.525 38.965c-.44 0-.798-.356-.798-.796 0-.44.357-.796.798-.796.437 0 .798.357.798.796 0 .44-.36.796-.798.796zm0-2.852c-1.132 0-2.051.922-2.051 2.054 0 1.133.92 2.054 2.052 2.054 1.132 0 2.052-.921 2.052-2.054 0-1.132-.92-2.054-2.052-2.054z" clip-rule="evenodd"/>
</svg>
