<svg width="45" height="45" viewBox="0 0 45 45" fill="none" xmlns="http://www.w3.org/2000/svg">
<rect width="45" height="45" rx="22.5" fill="#D1FFF2"/>
<path fill-rule="evenodd" clip-rule="evenodd" d="M31.1563 24.5315L28.1445 22.4008L31.1563 20.2578V24.5315ZM25.6328 26.3026C25.6328 26.6737 25.3306 26.9748 24.9607 26.9748H13.5159C13.1436 26.9748 12.8438 26.6737 12.8438 26.3026V18.5159C12.8438 18.1448 13.1436 17.8438 13.5159 17.8438H24.9607C25.3306 17.8438 25.6328 18.1448 25.6328 18.5159V26.3026ZM32.5011 17.6552C32.1939 17.4942 31.8241 17.5237 31.5451 17.7227L27.4754 20.6165V18.5153C27.4754 17.128 26.3474 16 24.9601 16H13.5153C12.128 16 11 17.128 11 18.5153V26.3021C11 27.6893 12.128 28.8174 13.5153 28.8174H24.9601C26.3474 28.8174 27.4754 27.6893 27.4754 26.3021V24.1849L31.5451 27.0676C31.7036 27.1782 31.8916 27.2359 32.0784 27.2359C32.2246 27.2359 32.3684 27.2027 32.5036 27.1327C32.8083 26.9742 33 26.6584 33 26.3143V18.4735C33 18.1295 32.8083 17.8124 32.5011 17.6552V17.6552Z" fill="#00C48C"/>
<path fill-rule="evenodd" clip-rule="evenodd" d="M16.5146 19.4648C15.7822 19.4648 15.1875 20.0608 15.1875 20.7932C15.1875 21.5255 15.7822 22.1215 16.5146 22.1215C17.2469 22.1215 17.8417 21.5255 17.8417 20.7932C17.8417 20.0608 17.2469 19.4648 16.5146 19.4648" fill="#00C48C"/>
</svg>
