<?xml version="1.0" encoding="UTF-8"?>
<svg width="131px" height="39px" viewBox="0 0 131 39" version="1.1" xmlns="http://www.w3.org/2000/svg" xmlns:xlink="http://www.w3.org/1999/xlink">
    <!-- Generator: sketchtool 53.2 (72643) - https://sketchapp.com -->
    <title>A168CA3C-A04B-4BE5-A336-B31167ACA92B</title>
    <desc>Created with sketchtool.</desc>
    <g id="Page-2" stroke="none" stroke-width="1" fill="none" fill-rule="evenodd">
        <g id="Home-Page-Traditional" transform="translate(-2505.000000, -5659.000000)">
            <g id="Group-29" transform="translate(2485.000000, 5465.000000)">
                <g id="Group-81" transform="translate(0.000000, 123.000000)">
                    <g id="Group-35" transform="translate(20.000000, 20.000000)">
                        <g id="Group-112" transform="translate(0.000000, 51.081081)">
                            <rect id="Rectangle" fill="#000000" x="0" y="0" width="130.588235" height="38.9189189" rx="4"></rect>
                            <g id="Group-111" transform="translate(22.710997, 5.675676)" fill="#FFFFFF" fill-rule="nonzero">
                                <path d="M16.2661442,12.7250209 C16.2971075,16.3482799 19.4365986,17.5460282 19.4750682,17.5591594 C19.4563026,17.6435739 18.9834085,19.2877813 17.8058648,20.957313 C16.8225454,22.4270637 15.7923119,23.8639866 14.1559483,23.8902488 C12.5664988,23.9268285 12.0316781,22.9551235 10.2085965,22.9551235 C8.36862573,22.9551235 7.79908863,23.8639866 6.2743806,23.9268285 C4.71589441,23.9840428 3.52521472,22.3576562 2.50624061,20.9010367 C0.469230677,17.9268315 -1.11646568,12.5196122 1.00968103,8.84007677 C2.03991452,7.03548179 3.91835483,5.87337514 5.92627802,5.84242315 C7.48664077,5.81053322 8.93440969,6.89572885 9.89333376,6.89572885 C10.8334922,6.89572885 12.623734,5.59762103 14.4693344,5.79177444 C15.2415404,5.81428498 17.4389966,6.09660467 18.8567405,8.16288468 C18.7422701,8.23135424 16.238934,9.70204288 16.2661442,12.7250209 Z M13.2636422,3.83523331 C12.4079292,4.84445586 11.0389759,5.61637981 9.70567739,5.51695826 C9.53115696,4.15507057 10.2067199,2.70689247 10.9629751,1.82335377 C11.8177499,0.820696782 13.3021118,0.0525245941 14.4890384,5.68434189e-13 C14.6447931,1.41535022 14.0837006,2.81006578 13.2636422,3.83523331 Z" id="Combined-Shape"></path>
                                <g id="Group-101" transform="translate(27.577640, 3.243243)">
                                    <path d="M8.17008555,18.1355452 L6.51861565,18.1355452 L5.61397956,15.2939609 L2.46956925,15.2939609 L1.60783793,18.1355452 L-4.97379915e-14,18.1355452 L3.11532234,8.46150979 L5.03949202,8.46150979 L8.17008555,18.1355452 Z M5.34127978,14.1017894 L4.52318043,11.5756943 C4.43664369,11.3176328 4.27447822,10.7099161 4.03522961,9.7532712 L4.00614164,9.7532712 C3.91087851,10.1647158 3.75743943,10.7724324 3.5465516,11.5756943 L2.74299623,14.1017894 L5.34127978,14.1017894 Z M16.1816416,14.5619385 C16.1816416,15.7482945 15.8609467,16.6860391 15.2195568,17.3744455 C14.6450692,17.9872507 13.9316866,18.2932898 13.0801361,18.2932898 C12.160956,18.2932898 11.5006589,17.9632619 11.0985176,17.303206 L11.0694297,17.303206 L11.0694297,20.9778565 L9.51904048,20.9778565 L9.51904048,13.4562721 C9.51904048,12.710438 9.4994061,11.9449767 9.46159173,11.1598882 L10.8250906,11.1598882 L10.9116274,12.2655545 L10.9407154,12.2655545 C11.4577541,11.4324884 12.2424023,11.0166822 13.2953871,11.0166822 C14.1185768,11.0166822 14.8057803,11.3416216 15.3555431,11.9922274 C15.9067602,12.6435601 16.1816416,13.4998882 16.1816416,14.5619385 Z M14.6021645,14.6186393 C14.6021645,13.9396831 14.4494526,13.3799441 14.1425744,12.9394222 C13.8073355,12.48 13.357199,12.2502889 12.7928923,12.2502889 C12.4103854,12.2502889 12.0627841,12.3782293 11.7522699,12.6304753 C11.4410286,12.8849021 11.2374127,13.2171109 11.1421496,13.6285555 C11.0941544,13.820466 11.0701569,13.9774837 11.0701569,14.1010624 L11.0701569,15.2641566 C11.0701569,15.7715564 11.2257775,16.1997204 11.5370189,16.5493756 C11.8482602,16.8990308 12.2525831,17.0734949 12.7499875,17.0734949 C13.3339287,17.0734949 13.7884283,16.8481454 14.1134865,16.3989003 C14.4392718,15.9489282 14.6021645,15.3557502 14.6021645,14.6186393 Z M24.2077417,14.5619385 C24.2077417,15.7482945 23.8870467,16.6860391 23.2449296,17.3744455 C22.6711693,17.9872507 21.9577867,18.2932898 21.1062361,18.2932898 C20.1870561,18.2932898 19.526759,17.9632619 19.1253449,17.303206 L19.0962569,17.303206 L19.0962569,20.9778565 L17.5458677,20.9778565 L17.5458677,13.4562721 C17.5458677,12.710438 17.5262334,11.9449767 17.488419,11.1598882 L18.8519179,11.1598882 L18.9384546,12.2655545 L18.9675426,12.2655545 C19.4838542,11.4324884 20.2685024,11.0166822 21.3222144,11.0166822 C22.1446769,11.0166822 22.8318804,11.3416216 23.3830975,11.9922274 C23.9321331,12.6435601 24.2077417,13.4998882 24.2077417,14.5619385 Z M22.6282645,14.6186393 C22.6282645,13.9396831 22.4748254,13.3799441 22.1679473,12.9394222 C21.8327084,12.48 21.3840263,12.2502889 20.8189924,12.2502889 C20.4357583,12.2502889 20.0888841,12.3782293 19.7776428,12.6304753 C19.4664014,12.8849021 19.2635128,13.2171109 19.1682497,13.6285555 C19.1209817,13.820466 19.0962569,13.9774837 19.0962569,14.1010624 L19.0962569,15.2641566 C19.0962569,15.7715564 19.2518776,16.1997204 19.5616645,16.5493756 C19.8729059,16.8983038 20.2772288,17.0734949 20.7760876,17.0734949 C21.3600287,17.0734949 21.8145284,16.8481454 22.1395865,16.3989003 C22.4653719,15.9489282 22.6282645,15.3557502 22.6282645,14.6186393 Z M33.1813826,15.4226281 C33.1813826,16.2455172 32.8955932,16.9150233 32.3218329,17.4318733 C31.691351,17.9967008 30.8136213,18.2787512 29.6857349,18.2787512 C28.6443854,18.2787512 27.8095604,18.0781174 27.1776241,17.676123 L27.5368606,16.3843616 C28.2175193,16.7958062 28.9643531,17.0022554 29.7780893,17.0022554 C30.3620304,17.0022554 30.8165301,16.8699534 31.1430426,16.6068034 C31.4681007,16.3436533 31.6302662,15.9903635 31.6302662,15.5498416 C31.6302662,15.1572973 31.4964615,14.8265424 31.2281249,14.5583038 C30.9612427,14.2900652 30.5154695,14.0407269 29.8929868,13.8102889 C28.1986121,13.1785834 27.352152,12.2531966 27.352152,11.0363094 C27.352152,10.2410438 27.6488494,9.58898416 28.2429713,9.08158434 C28.8349116,8.5734576 29.6246502,8.31975769 30.612187,8.31975769 C31.4928255,8.31975769 32.2243881,8.47314073 32.8083293,8.77917987 L32.420732,10.0425909 C31.8753324,9.74600186 31.2586673,9.59770736 30.5685551,9.59770736 C30.0231555,9.59770736 29.5970166,9.73219012 29.2915929,9.99970177 C29.0334371,10.238863 28.9039956,10.5303635 28.9039956,10.875657 C28.9039956,11.2580242 29.051617,11.5742404 29.3483144,11.8228518 C29.6064702,12.0525629 30.0755138,12.3011743 30.7561725,12.5694129 C31.5888158,12.9045294 32.2003906,13.2963467 32.5938055,13.7455918 C32.9857659,14.193383 33.1813826,14.753849 33.1813826,15.4226281 Z M38.3074113,12.3229823 L36.5984927,12.3229823 L36.5984927,15.709767 C36.5984927,16.5711836 36.8995532,17.0015284 37.5031288,17.0015284 C37.7801918,17.0015284 38.0099868,16.9775396 38.1917866,16.929562 L38.2346914,18.1064678 C37.9292676,18.2205965 37.5271264,18.2780242 37.0289947,18.2780242 C36.4166928,18.2780242 35.9381956,18.0912022 35.5927759,17.7182852 C35.2488106,17.3446412 35.0757371,16.7180242 35.0757371,15.8377074 L35.0757371,12.3215284 L34.0576579,12.3215284 L34.0576579,11.1584343 L35.0757371,11.1584343 L35.0757371,9.88121156 L36.5984927,9.42178938 L36.5984927,11.1584343 L38.3074113,11.1584343 L38.3074113,12.3229823 Z M46.0179068,14.5902889 C46.0179068,15.6625163 45.7110287,16.5428332 45.0987268,17.2312395 C44.4566097,17.94 43.604332,18.2932898 42.5418936,18.2932898 C41.5179968,18.2932898 40.7028062,17.9538117 40.0948675,17.2748555 C39.4869288,16.5958993 39.1829594,15.7388444 39.1829594,14.7058714 C39.1829594,13.6249208 39.4956552,12.7395154 40.1232283,12.051109 C40.749347,11.3619758 41.5943527,11.0174091 42.6567911,11.0174091 C43.6806879,11.0174091 44.5046048,11.3568872 45.1263603,12.0365704 C45.7212095,12.6958993 46.0179068,13.5471389 46.0179068,14.5902889 Z M44.4093417,14.6404473 C44.4093417,13.9971109 44.271901,13.4453681 43.9933836,12.985219 C43.6683255,12.4283877 43.2036451,12.150699 42.6015239,12.150699 C41.978314,12.150699 41.5049072,12.4291146 41.1798491,12.985219 C40.9013317,13.4460951 40.763891,14.006561 40.763891,14.6695247 C40.763891,15.3128611 40.9013317,15.8646039 41.1798491,16.3240261 C41.515088,16.8808574 41.9834044,17.1585461 42.5877072,17.1585461 C43.1796475,17.1585461 43.6443279,16.8750419 43.9795669,16.3094874 C44.2653562,15.8406151 44.4093417,15.2830568 44.4093417,14.6404473 Z M51.0573989,12.5228891 C50.9039598,12.4945387 50.7403399,12.48 50.5687208,12.48 C50.0233213,12.48 49.6015456,12.6857223 49.3048482,13.0978938 C49.0466925,13.4613607 48.917251,13.9207829 48.917251,14.4754334 L48.917251,18.1355452 L47.367589,18.1355452 L47.382133,13.3566822 C47.382133,12.5526934 47.3624986,11.820671 47.323957,11.1606151 L48.6743663,11.1606151 L48.7310879,12.4952656 L48.7739927,12.4952656 C48.9376125,12.0365704 49.1957683,11.667288 49.5491873,11.3903262 C49.894607,11.1409879 50.2676603,11.0166822 50.6698016,11.0166822 C50.8130599,11.0166822 50.9425014,11.0268593 51.0573989,11.0450326 L51.0573989,12.5228891 Z M57.9912454,14.3176887 C57.9912454,14.5953774 57.9730654,14.8294501 57.9345238,15.0206337 L53.2833563,15.0206337 C53.3015363,15.709767 53.5262409,16.236794 53.9581974,16.600261 C54.3501579,16.9252004 54.8570159,17.0880336 55.4794986,17.0880336 C56.1681564,17.0880336 56.7964567,16.9782665 57.3614907,16.7580056 L57.6043753,17.8338677 C56.9440782,18.1217335 56.1645204,18.2649394 55.2649747,18.2649394 C54.182902,18.2649394 53.3335331,17.9465424 52.7154136,17.3104753 C52.0987484,16.6744082 51.7896887,15.820261 51.7896887,14.7487605 C51.7896887,13.6968872 52.0769325,12.820932 52.6521472,12.1223486 C53.2542683,11.3765144 54.0680045,11.0035974 55.0919013,11.0035974 C56.0976181,11.0035974 56.8589959,11.3765144 57.3760347,12.1223486 C57.7854479,12.7147996 57.9912454,13.4475489 57.9912454,14.3176887 Z M56.512849,13.9156943 C56.5230297,13.4562721 56.421949,13.0593663 56.2117884,12.7242498 C55.9434518,12.293178 55.5311297,12.0780056 54.9762766,12.0780056 C54.4694186,12.0780056 54.0570965,12.2880895 53.7422191,12.7097111 C53.4840633,13.0448276 53.3306243,13.446822 53.2833563,13.9149674 L56.512849,13.9149674 L56.512849,13.9156943 Z" id="Combined-Shape"></path>
                                    <path d="M4.82860419,2.51010252 C4.82860419,3.36570363 4.57190279,4.00976701 4.05922719,4.44229264 C3.58436597,4.84137931 2.9095249,5.04128611 2.03543119,5.04128611 C1.60202033,5.04128611 1.23114863,5.02238583 0.920634473,4.98458527 L0.920634473,0.309673812 C1.32568455,0.244249767 1.76200421,0.210810811 2.23322944,0.210810811 C3.06587278,0.210810811 3.69344588,0.391817335 4.11667595,0.753830382 C4.59080997,1.16309413 4.82860419,1.74827586 4.82860419,2.51010252 Z M4.02504882,2.5311836 C4.02504882,1.97653308 3.87815454,1.55127679 3.58436597,1.25468779 C3.2905774,0.958825722 2.86152974,0.810531221 2.29649579,0.810531221 C2.05651998,0.810531221 1.85217694,0.826523765 1.68273947,0.859962721 L1.68273947,4.41394222 C1.7765482,4.42848089 1.94816726,4.4350233 2.19759666,4.4350233 C2.7808106,4.4350233 3.23094705,4.27291705 3.548006,3.94870457 C3.86506495,3.62449208 4.02504882,3.15198509 4.02504882,2.5311836 Z M9.08926562,3.25739049 C9.08926562,3.78441752 8.93873534,4.21621622 8.63767478,4.55496738 C8.32207023,4.90316869 7.90393056,5.07690587 7.38180137,5.07690587 C6.87857937,5.07690587 6.47789248,4.91043802 6.17901352,4.57604846 C5.88086175,4.24238583 5.73178587,3.82149115 5.73178587,3.31409133 C5.73178587,2.78342964 5.88522495,2.34799627 6.19355751,2.00997204 C6.50189006,1.67194781 6.91639374,1.50257223 7.43852292,1.50257223 C7.94174493,1.50257223 8.34606781,1.66904007 8.65221876,2.0027027 C8.94309853,2.32691519 9.08926562,2.74562908 9.08926562,3.25739049 Z M8.29879984,3.28210624 C8.29879984,2.96589003 8.2304431,2.69474371 8.09445681,2.46866729 C7.93447293,2.19534017 7.70685951,2.05867661 7.41088935,2.05867661 C7.10473839,2.05867661 6.87203457,2.19534017 6.7120507,2.46866729 C6.57533721,2.69474371 6.50770766,2.97025163 6.50770766,3.29591799 C6.50770766,3.6121342 6.5760644,3.88328052 6.7120507,4.10935694 C6.87712497,4.38268406 7.10691999,4.51934762 7.40361735,4.51934762 C7.69449712,4.51934762 7.92283774,4.38050326 8.08718481,4.1020876 C8.2282615,3.87164958 8.29879984,3.59832246 8.29879984,3.28210624 Z M14.8021443,1.57235788 L13.7295252,4.99912395 L13.0314137,4.99912395 L12.5870949,3.5110904 C12.4743789,3.13962721 12.3827518,2.77034483 12.3114863,2.40397018 L12.2976695,2.40397018 C12.2314943,2.7805219 12.1398672,3.14907735 12.0220609,3.5110904 L11.5501085,4.99912395 L10.8439978,4.99912395 L9.83537223,1.57235788 L10.618566,1.57235788 L11.0061633,3.20141659 C11.099972,3.58669152 11.1770552,3.9537931 11.2388671,4.30126747 L11.2526839,4.30126747 C11.3094055,4.01485555 11.4032142,3.64993476 11.5355645,3.20868593 L12.0220609,1.57308481 L12.6430892,1.57308481 L13.109224,3.1737931 C13.22194,3.56415657 13.3135671,3.93998136 13.3841054,4.30199441 L13.4051942,4.30199441 C13.4568254,3.9494315 13.5346357,3.57360671 13.637898,3.1737931 L14.0538561,1.57308481 L14.8021443,1.57308481 L14.8021443,1.57235788 Z M18.7530188,4.99912395 L17.9909138,4.99912395 L17.9909138,3.03640261 C17.9909138,2.43159366 17.7611188,2.12918919 17.3000743,2.12918919 C17.0739153,2.12918919 16.8913883,2.21205965 16.7495844,2.37852749 C16.6092349,2.54499534 16.5379693,2.74126747 16.5379693,2.96589003 L16.5379693,4.99839702 L15.7758643,4.99839702 L15.7758643,2.55153774 C15.7758643,2.25058714 15.7664107,1.92419385 15.7482308,1.57090401 L16.4179814,1.57090401 L16.4536142,2.10665424 L16.474703,2.10665424 C16.5634213,1.94018639 16.6957716,1.8027959 16.8695723,1.69302889 C17.0760969,1.56508854 17.3073463,1.50039143 17.5604117,1.50039143 C17.8803795,1.50039143 18.1465345,1.60361603 18.3581495,1.81079217 C18.6213957,2.06449208 18.7530188,2.4432246 18.7530188,2.94626281 L18.7530188,4.99912395 Z M20.8546251,4.99912395 L20.0932473,4.99912395 L20.0932473,2.03836947e-13 L20.8546251,2.03836947e-13 L20.8546251,4.99912395 Z M25.3414456,3.25739049 C25.3414456,3.78441752 25.1909153,4.21621622 24.8898547,4.55496738 C24.5742502,4.90316869 24.1553833,5.07690587 23.6339813,5.07690587 C23.1300321,5.07690587 22.7293452,4.91043802 22.4311935,4.57604846 C22.1330417,4.24238583 21.9839658,3.82149115 21.9839658,3.31409133 C21.9839658,2.78342964 22.1374049,2.34799627 22.4457375,2.00997204 C22.75407,1.67194781 23.1685737,1.50257223 23.6899757,1.50257223 C24.1939249,1.50257223 24.5975206,1.66904007 24.9043987,2.0027027 C25.1952785,2.32691519 25.3414456,2.74562908 25.3414456,3.25739049 Z M24.5502526,3.28210624 C24.5502526,2.96589003 24.4818959,2.69474371 24.3459096,2.46866729 C24.1866529,2.19534017 23.9583123,2.05867661 23.6630693,2.05867661 C23.3561911,2.05867661 23.1234873,2.19534017 22.9642307,2.46866729 C22.8275172,2.69474371 22.7598876,2.97025163 22.7598876,3.29591799 C22.7598876,3.6121342 22.8282444,3.88328052 22.9642307,4.10935694 C23.1293049,4.38268406 23.3590999,4.51934762 23.6557973,4.51934762 C23.9466771,4.51934762 24.1742905,4.38050326 24.3386376,4.1020876 C24.4804415,3.87164958 24.5502526,3.59832246 24.5502526,3.28210624 Z M29.0298011,4.99912395 L28.3455064,4.99912395 L28.2887849,4.60439888 L28.2676961,4.60439888 C28.0335379,4.91916123 27.6997533,5.07690587 27.2663425,5.07690587 C26.9427387,5.07690587 26.6809469,4.97295433 26.4838759,4.76650513 C26.3049848,4.5789562 26.2155393,4.34561044 26.2155393,4.06864865 C26.2155393,3.64993476 26.3900672,3.33081081 26.7413045,3.10982293 C27.0918146,2.88883504 27.5848558,2.7805219 28.2197009,2.78561044 L28.2197009,2.72164026 C28.2197009,2.27021435 27.9826339,2.04486486 27.5077727,2.04486486 C27.1696249,2.04486486 26.8714732,2.12991612 26.6140446,2.29856477 L26.4591511,1.7984343 C26.7776644,1.60143523 27.1710793,1.50257223 27.6350326,1.50257223 C28.5309423,1.50257223 28.9803515,1.97507922 28.9803515,2.9200932 L28.9803515,4.18205033 C28.9803515,4.52443616 28.9970771,4.79703635 29.0298011,4.99912395 Z M28.2386081,3.82149115 L28.2386081,3.29301025 C27.3979656,3.27847158 26.9776443,3.5089096 26.9776443,3.98359739 C26.9776443,4.16242311 27.0256394,4.29617894 27.1238114,4.3855918 C27.2219833,4.47500466 27.3470616,4.51934762 27.4961375,4.51934762 C27.6633933,4.51934762 27.8197412,4.46628145 27.9622723,4.36087605 C28.1055306,4.25474371 28.1935217,4.12026095 28.2262457,3.95524697 C28.2342449,3.91817335 28.2386081,3.87310345 28.2386081,3.82149115 Z M33.3602736,4.99912395 L32.6839782,4.99912395 L32.6483454,4.44883504 L32.6272566,4.44883504 C32.4112784,4.86754893 32.0433155,5.07690587 31.5262767,5.07690587 C31.1132274,5.07690587 30.7692621,4.91479963 30.4965623,4.59058714 C30.2238625,4.26637465 30.0878762,3.84547996 30.0878762,3.32863001 C30.0878762,2.7739795 30.2354977,2.32473439 30.5321951,1.98162162 C30.8194389,1.66177074 31.1714034,1.50184529 31.5902702,1.50184529 C32.0505875,1.50184529 32.3727368,1.6566822 32.5559911,1.96708295 L32.5705351,1.96708295 L32.5705351,1.88737914e-13 L33.3333673,1.88737914e-13 L33.3333673,4.07591799 C33.3333673,4.40958062 33.3420937,4.71707363 33.3602736,4.99912395 Z M32.5705351,3.5539795 L32.5705351,2.98260951 C32.5705351,2.88374651 32.5632631,2.80378378 32.5494463,2.74272134 C32.5065415,2.55953402 32.4141872,2.40542404 32.2738377,2.28111836 C32.1320338,2.15681267 31.961142,2.09429637 31.7640709,2.09429637 C31.4797359,2.09429637 31.2572129,2.20697111 31.093593,2.43304753 C30.9314276,2.65912395 30.849254,2.94771668 30.849254,3.30027959 C30.849254,3.63903075 30.9270644,3.91381174 31.0834122,4.12534949 C31.2484865,4.35069897 31.4710095,4.46337372 31.7495269,4.46337372 C31.9996835,4.46337372 32.1996634,4.36959925 32.351648,4.18132339 C32.4985423,4.00758621 32.5705351,3.79822926 32.5705351,3.5539795 Z M39.8781621,3.25739049 C39.8781621,3.78441752 39.7276318,4.21621622 39.4265713,4.55496738 C39.1109667,4.90316869 38.6935542,5.07690587 38.1706978,5.07690587 C37.668203,5.07690587 37.2675162,4.91043802 36.96791,4.57604846 C36.6697582,4.24238583 36.5206823,3.82149115 36.5206823,3.31409133 C36.5206823,2.78342964 36.6741214,2.34799627 36.982454,2.00997204 C37.2907865,1.67194781 37.7052902,1.50257223 38.2281466,1.50257223 C38.7306414,1.50257223 39.1356915,1.66904007 39.4411152,2.0027027 C39.731995,2.32691519 39.8781621,2.74562908 39.8781621,3.25739049 Z M39.0884235,3.28210624 C39.0884235,2.96589003 39.0200668,2.69474371 38.8840805,2.46866729 C38.7233694,2.19534017 38.4964832,2.05867661 38.1997858,2.05867661 C37.8943621,2.05867661 37.6616582,2.19534017 37.5009472,2.46866729 C37.3642337,2.69474371 37.2966041,2.97025163 37.2966041,3.29591799 C37.2966041,3.6121342 37.3649609,3.88328052 37.5009472,4.10935694 C37.6660214,4.38268406 37.8958165,4.51934762 38.1925138,4.51934762 C38.4833936,4.51934762 38.7124614,4.38050326 38.8768085,4.1020876 C39.017158,3.87164958 39.0884235,3.59832246 39.0884235,3.28210624 Z M43.9759309,4.99912395 L43.2145531,4.99912395 L43.2145531,3.03640261 C43.2145531,2.43159366 42.984758,2.12918919 42.5229864,2.12918919 C42.2968274,2.12918919 42.1143003,2.21205965 41.9732236,2.37852749 C41.832147,2.54499534 41.7616086,2.74126747 41.7616086,2.96589003 L41.7616086,4.99839702 L40.9987764,4.99839702 L40.9987764,2.55153774 C40.9987764,2.25058714 40.99005,1.92419385 40.97187,1.57090401 L41.6408935,1.57090401 L41.6765263,2.10665424 L41.6976151,2.10665424 C41.7870606,1.94018639 41.9194109,1.8027959 42.0924843,1.69302889 C42.2997362,1.56508854 42.5302584,1.50039143 42.784051,1.50039143 C43.1032915,1.50039143 43.3694465,1.60361603 43.5810616,1.81079217 C43.845035,2.06449208 43.9759309,2.4432246 43.9759309,2.94626281 L43.9759309,4.99912395 Z M49.1048684,2.14300093 L48.2656803,2.14300093 L48.2656803,3.8076794 C48.2656803,4.23075489 48.4147562,4.44229264 48.7099991,4.44229264 C48.8467126,4.44229264 48.9601557,4.4306617 49.0496012,4.40667288 L49.0692356,4.98458527 C48.9187054,5.04128611 48.7209071,5.06963653 48.4772953,5.06963653 C48.1762347,5.06963653 47.9420765,4.97804287 47.7726391,4.79485555 C47.6024744,4.61166822 47.5181193,4.30344828 47.5181193,3.87092265 L47.5181193,2.14300093 L47.0170789,2.14300093 L47.0170789,1.57235788 L47.5181193,1.57235788 L47.5181193,0.944287046 L48.2649531,0.718937558 L48.2649531,1.57163094 L49.1041412,1.57163094 L49.1041412,2.14300093 L49.1048684,2.14300093 Z M53.1393708,4.99912395 L52.3765386,4.99912395 L52.3765386,3.05094129 C52.3765386,2.4366822 52.1467436,2.12918919 51.6864264,2.12918919 C51.3330074,2.12918919 51.0915772,2.30728798 50.9592269,2.66348555 C50.9366838,2.73835974 50.9235942,2.8299534 50.9235942,2.93753961 L50.9235942,4.99839702 L50.1622164,4.99839702 L50.1622164,2.03836947e-13 L50.9235942,2.03836947e-13 L50.9235942,2.06521901 L50.9381382,2.06521901 C51.178114,1.68939422 51.5220793,1.50184529 51.9678525,1.50184529 C52.2834571,1.50184529 52.5445217,1.6050699 52.7517735,1.81224604 C53.0099293,2.07030755 53.1393708,2.45412861 53.1393708,2.96152842 L53.1393708,4.99912395 Z M57.3011331,3.12363467 C57.3011331,3.26029823 57.2909523,3.37515377 57.2727724,3.46892824 L54.9871846,3.46892824 C54.9973654,3.8076794 55.1064453,4.06574091 55.3180603,4.24456664 C55.5114953,4.40449208 55.7609247,4.4844548 56.0663485,4.4844548 C56.4044962,4.4844548 56.7128288,4.4306617 56.990619,4.32234856 L57.1098797,4.85155638 C56.7848215,4.99258155 56.4023146,5.06309413 55.9594502,5.06309413 C55.4285946,5.06309413 55.0104549,4.90680336 54.70794,4.59422181 C54.4039706,4.28164026 54.2534403,3.86219944 54.2534403,3.33589935 C54.2534403,2.81904939 54.3937898,2.38870457 54.6766704,2.0455918 C54.9719134,1.67921715 55.3711459,1.49602982 55.8750951,1.49602982 C56.3681363,1.49602982 56.742644,1.67921715 56.9957094,2.0455918 C57.2000524,2.33636533 57.3011331,2.69619758 57.3011331,3.12363467 Z M56.5739337,2.9266356 C56.5797513,2.70055918 56.5295745,2.50574091 56.4263122,2.34145387 C56.2939619,2.12991612 56.0925277,2.02378378 55.8198279,2.02378378 C55.5711257,2.02378378 55.3682371,2.12700839 55.2133436,2.33418453 C55.0868109,2.49919851 55.0119093,2.69619758 54.9871846,2.9266356 L56.5739337,2.9266356 Z" id="Combined-Shape"></path>
                                </g>
                            </g>
                        </g>
                    </g>
                </g>
            </g>
        </g>
    </g>
</svg>