<svg xmlns="http://www.w3.org/2000/svg" viewBox="0 0 29.954 29.954"><defs><style>.a,.b{fill:#0265ff;}.a{opacity:0.09;}</style></defs><g transform="translate(-403 -4611)"><rect class="a" width="29.954" height="29.954" rx="3" transform="translate(403 4611)"/><path class="b" d="M3.293-2.31v-9.846H.231V-2.31Zm-1.515-11.2a1.709,1.709,0,0,0,1.251-.527,1.709,1.709,0,0,0,.527-1.251,1.709,1.709,0,0,0-.527-1.251,1.709,1.709,0,0,0-1.251-.527,1.709,1.709,0,0,0-1.251.527A1.709,1.709,0,0,0,0-15.284a1.709,1.709,0,0,0,.527,1.251A1.709,1.709,0,0,0,1.778-13.506ZM14.752-2.31v-5.4a6.66,6.66,0,0,0-.659-3.359,3.268,3.268,0,0,0-3-1.35,3.246,3.246,0,0,0-1.844.527A2.632,2.632,0,0,0,8.2-10.806H8.167v-1.35H5.236V-2.31h3.03V-7.184a3.676,3.676,0,0,1,.329-1.745,1.542,1.542,0,0,1,1.482-.79,1.386,1.386,0,0,1,1.416.889,5.319,5.319,0,0,1,.2,1.712V-2.31Z" transform="translate(411 4636.063)"/></g></svg>