<?xml version="1.0" encoding="UTF-8"?>
<svg width="131px" height="39px" viewBox="0 0 131 39" version="1.1" xmlns="http://www.w3.org/2000/svg" xmlns:xlink="http://www.w3.org/1999/xlink">
    <!-- Generator: sketchtool 53.2 (72643) - https://sketchapp.com -->
    <title>87E0659B-23CB-47E4-BC10-EDBB953F89B8</title>
    <desc>Created with sketchtool.</desc>
    <defs>
        <linearGradient x1="61.3060697%" y1="4.9604069%" x2="25.9331518%" y2="71.909245%" id="linearGradient-1">
            <stop stop-color="#00A0FF" offset="0%"></stop>
            <stop stop-color="#00A1FF" offset="0.66%"></stop>
            <stop stop-color="#00BEFF" offset="26.01%"></stop>
            <stop stop-color="#00D2FF" offset="51.22%"></stop>
            <stop stop-color="#00DFFF" offset="76.04%"></stop>
            <stop stop-color="#00E3FF" offset="100%"></stop>
        </linearGradient>
        <linearGradient x1="107.585647%" y1="50.0163647%" x2="-130.492257%" y2="50.0163647%" id="linearGradient-2">
            <stop stop-color="#FFE000" offset="0%"></stop>
            <stop stop-color="#FFBD00" offset="40.87%"></stop>
            <stop stop-color="#FFA500" offset="77.54%"></stop>
            <stop stop-color="#FF9C00" offset="100%"></stop>
        </linearGradient>
        <linearGradient x1="86.237735%" y1="89.3443336%" x2="-50.1313759%" y2="191.942068%" id="linearGradient-3">
            <stop stop-color="#FF3A44" offset="0%"></stop>
            <stop stop-color="#C31162" offset="100%"></stop>
        </linearGradient>
        <linearGradient x1="-18.8012883%" y1="-68.3130916%" x2="42.0936259%" y2="-22.5141616%" id="linearGradient-4">
            <stop stop-color="#32A071" offset="0%"></stop>
            <stop stop-color="#2DA771" offset="6.85%"></stop>
            <stop stop-color="#15CF74" offset="47.62%"></stop>
            <stop stop-color="#06E775" offset="80.09%"></stop>
            <stop stop-color="#00F076" offset="100%"></stop>
        </linearGradient>
    </defs>
    <g id="Page-2" stroke="none" stroke-width="1" fill="none" fill-rule="evenodd">
        <g id="Home-Page-Traditional" transform="translate(-2505.000000, -5608.000000)">
            <g id="Group-29" transform="translate(2485.000000, 5465.000000)">
                <g id="Group-81" transform="translate(0.000000, 123.000000)">
                    <g id="Group-35" transform="translate(20.000000, 20.000000)">
                        <g id="Group-100">
                            <rect id="Rectangle" fill="#000000" x="0" y="0" width="130.588235" height="38.9189189" rx="4"></rect>
                            <g id="Group-99" transform="translate(17.844355, 8.108108)" fill-rule="nonzero">
                                <path d="M31.9517429,3.52494174 C31.9517429,4.19569255 31.748481,4.73289568 31.3480552,5.13353876 C30.887667,5.60848657 30.2880445,5.84746665 29.5532529,5.84746665 C28.8509831,5.84746665 28.2513606,5.60447009 27.7594669,5.12550581 C27.2665569,4.63951271 27.02061,4.04306662 27.02061,3.32913873 C27.02061,2.61521084 27.2665569,2.01876475 27.7594669,1.53678812 C28.2513606,1.05380736 28.8509831,0.810810811 29.5532529,0.810810811 C29.9028633,0.810810811 30.2362127,0.882103188 30.5543176,1.01464676 C30.8714061,1.14819446 31.1295486,1.32893569 31.3165496,1.55184989 L30.8917323,1.97558768 C30.565497,1.59502696 30.1213698,1.4072569 29.5532529,1.4072569 C29.041033,1.4072569 28.5969058,1.58398166 28.219855,1.94044355 C27.8468695,2.29790955 27.6598686,2.76080795 27.6598686,3.32913873 C27.6598686,3.89746951 27.8468695,4.36438438 28.219855,4.72185038 C28.5969058,5.0742958 29.041033,5.25503703 29.5532529,5.25503703 C30.0969784,5.25503703 30.5543176,5.0742958 30.9151074,4.71783391 C31.1529238,4.48186618 31.2880929,4.15653195 31.3236637,3.74082711 L29.5532529,3.74082711 L29.5532529,3.16044691 L31.9151558,3.16044691 C31.9436124,3.28596166 31.9517429,3.40745993 31.9517429,3.52494174 Z M35.6988754,1.51268929 L33.4802721,1.51268929 L33.4802721,3.03894863 L35.4803689,3.03894863 L35.4803689,3.61932883 L33.4802721,3.61932883 L33.4802721,5.14558817 L35.6988754,5.14558817 L35.6988754,5.73701367 L32.852193,5.73701367 L32.852193,0.92126379 L35.6988754,0.92126379 L35.6988754,1.51268929 Z M38.3433123,5.73701367 L37.7152331,5.73701367 L37.7152331,1.51268929 L36.3543949,1.51268929 L36.3543949,0.92126379 L39.7051668,0.92126379 L39.7051668,1.51268929 L38.3433123,1.51268929 L38.3433123,5.73701367 Z M42.1300808,5.73701367 L42.1300808,0.92126379 L42.7571437,0.92126379 L42.7571437,5.73701367 L42.1300808,5.73701367 Z M45.5367497,5.73701367 L44.9137521,5.73701367 L44.9137521,1.51268929 L43.5478323,1.51268929 L43.5478323,0.92126379 L46.9026694,0.92126379 L46.9026694,1.51268929 L45.5367497,1.51268929 L45.5367497,5.73701367 Z M53.2464723,5.11747287 C52.7657579,5.60447009 52.1702007,5.84746665 51.4598005,5.84746665 C50.745335,5.84746665 50.1497777,5.60447009 49.6690634,5.11747287 C49.1893654,4.63147976 48.9505327,4.03503368 48.9505327,3.32913873 C48.9505327,2.62324378 49.1893654,2.0267977 49.6690634,1.54080459 C50.1497777,1.05380736 50.745335,0.810810811 51.4598005,0.810810811 C52.1661354,0.810810811 52.7616927,1.05380736 53.242407,1.54482106 C53.7261703,2.03483064 53.965003,2.62726025 53.965003,3.32913873 C53.965003,4.03503368 53.7261703,4.63147976 53.2464723,5.11747287 Z M50.1335168,4.71381744 C50.4953229,5.0742958 50.9353848,5.25503703 51.4598005,5.25503703 C51.9801508,5.25503703 52.424278,5.0742958 52.7820189,4.71381744 C53.1428087,4.35333908 53.3257444,3.89044069 53.3257444,3.32913873 C53.3257444,2.76783677 53.1428087,2.30493838 52.7820189,1.94446002 C52.424278,1.58398166 51.9801508,1.40324042 51.4598005,1.40324042 C50.9353848,1.40324042 50.4953229,1.58398166 50.1335168,1.94446002 C49.772727,2.30493838 49.5897913,2.76783677 49.5897913,3.32913873 C49.5897913,3.89044069 49.772727,4.35333908 50.1335168,4.71381744 Z M54.8461431,5.73701367 L54.8461431,0.92126379 L55.6083751,0.92126379 L57.9784085,4.66662389 L58.0058488,4.66662389 L57.9784085,3.74082711 L57.9784085,0.92126379 L58.6054713,0.92126379 L58.6054713,5.73701367 L57.9509681,5.73701367 L55.4691408,1.80689586 L55.4417004,1.80689586 L55.4691408,2.73670912 L55.4691408,5.73701367 L54.8461431,5.73701367 Z M48.7960537,12.7698561 C50.7097642,12.7698561 52.269799,14.2057448 52.269799,16.1868696 C52.269799,18.1519285 50.7097642,19.602879 48.7960537,19.602879 C46.8864085,19.602879 45.3263737,18.1519285 45.3263737,16.1868696 C45.3263737,14.2057448 46.8864085,12.7698561 48.7960537,12.7698561 Z M48.7960537,18.2573609 C49.8438686,18.2573609 50.7494002,17.4028565 50.7494002,16.1868696 C50.7494002,14.9548168 49.8438686,14.1153742 48.7960537,14.1153742 C47.7482388,14.1153742 46.8467724,14.9548168 46.8467724,16.1868696 C46.8467724,17.4028565 47.7482388,18.2573609 48.7960537,18.2573609 Z M41.2255655,12.7698561 C43.1382597,12.7698561 44.6952456,14.2057448 44.6952456,16.1868696 C44.6952456,18.1519285 43.1382597,19.602879 41.2255655,19.602879 C39.3118551,19.602879 37.7558855,18.1519285 37.7558855,16.1868696 C37.7558855,14.2057448 39.3118551,12.7698561 41.2255655,12.7698561 Z M41.2255655,18.2573609 C42.2733804,18.2573609 43.1748468,17.4028565 43.1748468,16.1868696 C43.1748468,14.9548168 42.2733804,14.1153742 41.2255655,14.1153742 C40.1767343,14.1153742 39.272219,14.9548168 39.272219,16.1868696 C39.272219,17.4028565 40.1767343,18.2573609 41.2255655,18.2573609 Z M32.2169996,13.8171511 L37.156263,13.8171511 C37.2070784,14.0762136 37.2355351,14.386486 37.2355351,14.7238697 C37.2355351,15.8103253 36.9336912,17.1558434 35.9651484,18.1127679 C35.0199808,19.0847541 33.8176868,19.602879 32.2169996,19.602879 C29.2554742,19.602879 26.7665327,17.2221152 26.7665327,14.2961154 C26.7665327,11.3701156 29.2554742,8.98935184 32.2169996,8.98935184 C33.8532576,8.98935184 35.0199808,9.62495853 35.8970557,10.4523517 L34.8614365,11.475548 C34.2343736,10.8911513 33.384739,10.4403023 32.2169996,10.4403023 C30.0573423,10.4403023 28.3662036,12.1623647 28.3662036,14.2961154 C28.3662036,16.4298661 30.0573423,18.1519285 32.2169996,18.1519285 C33.6184902,18.1519285 34.416293,17.594643 34.9285129,17.092584 C35.349265,16.6768792 35.6236685,16.0804331 35.7263157,15.2691057 L32.2169996,15.2691057 L32.2169996,13.8171511 Z M69.0541476,14.9427674 L69.2137081,15.3313611 L64.5884844,17.2221152 C64.94216,17.9089319 65.494016,18.2573609 66.2633621,18.2573609 C67.0377898,18.2573609 67.5733849,17.8808166 67.9666966,17.3124859 L69.1456154,18.0886691 C68.7685646,18.6459545 67.8518536,19.602879 66.2633621,19.602879 C64.2988362,19.602879 62.8333182,18.1007185 62.8333182,16.1868696 C62.8333182,14.1545348 64.3140808,12.7698561 66.0926222,12.7698561 C67.8874244,12.7698561 68.7685646,14.1786336 69.0541476,14.9427674 Z M64.3384723,16.0804331 L67.4311016,14.8132362 C67.2603616,14.386486 66.7481417,14.088263 66.1444539,14.088263 C65.3740915,14.088263 64.2988362,14.7630303 64.3384723,16.0804331 Z M60.5791441,19.3950266 L60.5791441,9.35384667 L62.0995428,9.35384667 L62.0995428,19.3950266 L60.5791441,19.3950266 Z M58.0891862,13.5309775 L58.0891862,12.9777085 L59.5303128,12.9777085 L59.5303128,19.1128694 C59.5303128,21.6342097 58.026175,22.6704595 56.2435685,22.6704595 C54.5686907,22.6704595 53.5594955,21.5558885 53.1783795,20.6501741 L54.500598,20.104938 C54.7384144,20.6622235 55.3146617,21.3249413 56.2435685,21.3249413 C57.3828512,21.3249413 58.0891862,20.6230629 58.0891862,19.3167054 L58.0891862,18.8266958 L58.0383707,18.8266958 C57.6968908,19.2383842 57.0454365,19.602879 56.2201934,19.602879 C54.4884023,19.602879 52.9049923,18.1127679 52.9049923,16.1979149 C52.9049923,14.2720166 54.4884023,12.7698561 56.2201934,12.7698561 C57.0454365,12.7698561 57.6968908,13.1313385 58.0383707,13.5309775 L58.0891862,13.5309775 Z M56.3502809,18.2573609 C57.3828512,18.2573609 58.196915,17.3908071 58.196915,16.1979149 C58.196915,14.9939774 57.3828512,14.1153742 56.3502809,14.1153742 C55.302466,14.1153742 54.4253911,14.9939774 54.4253911,16.1979149 C54.4253911,17.3908071 55.302466,18.2573609 56.3502809,18.2573609 Z M76.1723781,9.35384667 C77.8523374,9.35384667 79.5079053,10.5577841 79.5079053,12.471633 C79.5079053,14.386486 77.8564027,15.5904235 76.1723781,15.5904235 L74.0523568,15.5904235 L74.0523568,19.3950266 L72.5360233,19.3950266 L72.5360233,9.35384667 L76.1723781,9.35384667 Z M76.2120142,14.1936954 C77.3441827,14.1936954 77.9905555,13.2488204 77.9905555,12.471633 C77.9905555,11.6793839 77.3441827,10.7505748 76.2120142,10.7505748 L74.0523568,10.7505748 L74.0523568,14.1936954 L76.2120142,14.1936954 Z M85.5854351,12.7507778 C87.3284056,12.7507778 88.6739991,13.7468629 88.6739991,15.5271641 L88.6739991,19.3789607 L87.2094974,19.3789607 L87.2094974,18.6027775 L87.1576656,18.6027775 C86.80399,19.1319477 86.2409546,19.5868131 85.22058,19.5868131 C83.8861659,19.5868131 82.6991166,18.7202593 82.6991166,17.3747412 C82.6991166,15.9037083 84.1758141,15.1154757 85.6250712,15.1154757 C86.3476671,15.1154757 86.9350939,15.347427 87.2094974,15.5040694 L87.2094974,15.398637 C87.1973017,14.5742561 86.3994989,14.1073412 85.6128754,14.1073412 C85.0498401,14.1073412 84.517294,14.2880825 84.2276458,14.845368 L82.8820523,14.2880825 C83.3505709,13.228738 84.4898536,12.7507778 85.5854351,12.7507778 Z M85.4024994,18.2533444 C86.2805907,18.2533444 87.0905892,17.594643 87.2094974,16.6648298 C86.80399,16.4730432 86.4909667,16.3274461 85.8232515,16.3274461 C85.0772804,16.3274461 84.2154501,16.6256692 84.2154501,17.4028565 C84.2154501,18.0103479 84.9065405,18.2533444 85.4024994,18.2533444 Z M94.0096231,12.9706797 L95.6966966,12.9706797 L91.5247468,22.4385082 L89.9403206,22.4385082 L91.4851107,19.0536265 L88.7776627,12.9706797 L90.4129044,12.9706797 L92.2148208,17.3235312 L92.2666526,17.3235312 L94.0096231,12.9706797 Z M80.341279,19.3950266 L80.341279,9.35384667 L81.8616777,9.35384667 L81.8616777,19.3950266 L80.341279,19.3950266 Z" id="Combined-Shape" fill="#FFFFFF"></path>
                                <g id="Group-94">
                                    <g id="g48" transform="translate(5.677749, 10.739244) scale(-1, 1) rotate(-180.000000) translate(-5.677749, -10.739244) translate(0.000000, 0.198704)" fill="url(#linearGradient-1)">
                                        <path d="M0.558877923,20.2445393 C0.320045231,19.9975263 0.181827163,19.6129491 0.181827163,19.1149066 L0.181827163,1.3500511 C0.181827163,0.85200858 0.320045231,0.46743139 0.558877923,0.220418365 L0.617823865,0.166195993 L10.6935145,10.1170053 L10.6935145,10.3519689 L0.617823865,20.3027782 L0.558877923,20.2445393 Z" id="path64"></path>
                                    </g>
                                    <g id="g66" transform="translate(14.829384, 11.007716) scale(-1, 1) rotate(-180.000000) translate(-14.829384, -11.007716) translate(10.368296, 6.953662)" fill="url(#linearGradient-2)">
                                        <path d="M3.68005608,0.580380198 L0.325218985,3.89899015 L0.325218985,4.13395376 L3.68412132,7.45256372 L3.75932821,7.40938665 L7.73716292,5.17321588 C8.87238044,4.53861331 8.87238044,3.4943306 7.73716292,2.85571156 L3.75932821,0.623557272 L3.68005608,0.580380198 L3.68005608,0.580380198 Z" id="path78"></path>
                                    </g>
                                    <g id="g80" transform="translate(7.505166, 16.414920) scale(-1, 1) rotate(-180.000000) translate(-7.505166, -16.414920) translate(0.205202, 10.739244)" fill="url(#linearGradient-3)">
                                        <path d="M13.9224215,7.6523832 L10.4883123,11.0452979 L0.353675646,1.03122918 C0.730726407,0.63962316 1.34559355,0.592429614 2.04481437,0.98403563 L13.9224215,7.6523832" id="path88"></path>
                                    </g>
                                    <g id="g90" transform="translate(7.505166, 5.775028) scale(-1, 1) rotate(-180.000000) translate(-7.505166, -5.775028) translate(0.205202, 0.504757)" fill="url(#linearGradient-4)">
                                        <path d="M13.9224215,3.39291469 L2.04481437,10.0612623 C1.34559355,10.4488518 0.730726407,10.4016583 0.353675646,10.0100522 L10.4883123,0 L13.9224215,3.39291469 Z" id="path104"></path>
                                    </g>
                                </g>
                            </g>
                        </g>
                    </g>
                </g>
            </g>
        </g>
    </g>
</svg>