<svg xmlns="http://www.w3.org/2000/svg" viewBox="0 0 29.954 29.954"><defs><style>.a,.b{fill:#0265ff;}.a{opacity:0.09;}</style></defs><g transform="translate(-357 -4611)"><rect class="a" width="29.954" height="29.954" rx="3" transform="translate(357 4611)"/><path class="b" d="M13.223-13.41a6.649,6.649,0,0,0,1.527-1.584,6.5,6.5,0,0,1-1.728.49,3,3,0,0,0,1.325-1.671,6.154,6.154,0,0,1-1.93.72,3.421,3.421,0,0,0-.994-.691,2.886,2.886,0,0,0-1.224-.259,2.922,2.922,0,0,0-1.5.4,2.96,2.96,0,0,0-1.095,1.109,3,3,0,0,0-.4,1.512,4.2,4.2,0,0,0,.058.691,8.373,8.373,0,0,1-3.471-.922,8.341,8.341,0,0,1-2.751-2.247A2.9,2.9,0,0,0,.6-14.347a2.906,2.906,0,0,0,.374,1.455A3.356,3.356,0,0,0,1.959-11.8,2.848,2.848,0,0,1,.6-12.2v.058a2.9,2.9,0,0,0,.691,1.9A3.048,3.048,0,0,0,3.025-9.176a3.84,3.84,0,0,1-.807.086q-.259,0-.547-.029A3.008,3.008,0,0,0,2.722-7.634a2.814,2.814,0,0,0,1.772.591A6,6,0,0,1,.72-5.747q-.4,0-.72-.029A8.393,8.393,0,0,0,4.638-4.422a8.311,8.311,0,0,0,4.7-1.354,8.227,8.227,0,0,0,2.91-3.255,8.542,8.542,0,0,0,1.008-4A1.716,1.716,0,0,0,13.223-13.41Z" transform="translate(365 4636.406)"/></g></svg>