<svg xmlns="http://www.w3.org/2000/svg" viewBox="0 0 29.954 29.954"><defs><style>.a,.b{fill:#0265ff;}.a{opacity:0.09;}</style></defs><g transform="translate(-496 -4611)"><rect class="a" width="29.954" height="29.954" rx="3" transform="translate(496 4611)"/><path class="b" d="M14.232-6.69a11.749,11.749,0,0,1,.26,2.132l.026,1.3-.026,1.3A11.887,11.887,0,0,1,14.232.2a1.813,1.813,0,0,1-.468.78,1.8,1.8,0,0,1-.806.468,18.493,18.493,0,0,1-3.172.26L7.42,1.734,5.054,1.708a18.493,18.493,0,0,1-3.172-.26A1.8,1.8,0,0,1,1.076.98,1.813,1.813,0,0,1,.608.2a11.887,11.887,0,0,1-.26-2.158l-.026-1.3q0-.572.026-1.3A11.749,11.749,0,0,1,.608-6.69a1.8,1.8,0,0,1,.468-.81,1.8,1.8,0,0,1,.806-.468,18.493,18.493,0,0,1,3.172-.26L7.42-8.25l2.366.026a18.493,18.493,0,0,1,3.172.26,1.8,1.8,0,0,1,.806.468A1.8,1.8,0,0,1,14.232-6.69ZM5.964-1.126,9.682-3.258,5.964-5.364Z" transform="translate(503.678 4629.25)"/></g></svg>