<svg xmlns="http://www.w3.org/2000/svg" width="45" height="45" fill="none" viewBox="0 0 45 45">
    <rect width="45" height="45" fill="#FFE5E6" rx="22.5"/>
    <path fill="#FF4651" d="M31.805 26.873l-2.334 2.335c-.604.604-1.281 1.059-2.033 1.366-.73.307-1.488.482-2.271.524-.784.042-1.552-.058-2.303-.302-.773-.243-1.477-.62-2.113-1.127l-.031-.032-.096.095c-.391.392-.873.588-1.445.588-.55 0-1.022-.196-1.413-.588l-.112-.111-2.16 2.16c-.19.19-.418.28-.683.27-.264.01-.487-.074-.667-.254-.19-.19-.286-.424-.286-.699 0-.254.096-.476.286-.667l2.16-2.16c-.402-.402-.603-.879-.603-1.43.01-.56.212-1.037.603-1.429l.096-.095c-.54-.646-.932-1.355-1.176-2.128-.264-.773-.386-1.552-.365-2.335.042-.784.228-1.551.556-2.303.307-.752.762-1.43 1.366-2.033l2.335-2.335c.19-.19.412-.285.667-.285.275 0 .508.095.698.285l1.938 1.938L26.04 12.5c.19-.19.413-.286.667-.286.276 0 .508.095.7.286.19.19.28.418.27.683.01.265-.08.492-.27.683l-3.622 3.621 4.67 4.67 3.62-3.622c.191-.19.413-.286.667-.286.276 0 .509.096.7.286.18.18.264.402.253.667.011.265-.079.493-.27.683l-3.62 3.621 1.953 1.954.016.016.016.016c.19.19.28.418.27.683.01.264-.075.497-.255.698zm-2.032-.698l-9.959-9.959-1.667 1.668c-.456.455-.8.969-1.033 1.54-.222.562-.333 1.139-.333 1.732s.111 1.17.333 1.73c.233.573.577 1.086 1.033 1.541l3.367 3.368c.444.444.953.783 1.524 1.016.572.233 1.154.35 1.747.35.593 0 1.17-.112 1.732-.334.571-.233 1.085-.577 1.54-1.032l1.716-1.62z"/>
</svg>
