<svg xmlns="http://www.w3.org/2000/svg" width="45" height="45" fill="none" viewBox="0 0 45 45">
    <rect width="45" height="45" fill="#D1FFF2" rx="22.5"/>
    <path fill="#29B68D" d="M28 24.911c0 1.185-.42 2.185-1.258 3-.824.815-1.94 1.326-3.349 1.533v1.4c0 .341-.105.615-.314.823-.21.222-.487.333-.832.333-.344 0-.622-.111-.831-.333-.21-.208-.315-.482-.315-.823V29.49c-.854-.074-1.685-.252-2.494-.533-.81-.282-1.506-.652-2.09-1.112-.195-.133-.33-.281-.405-.444-.074-.163-.112-.363-.112-.6 0-.311.09-.585.27-.822.194-.237.412-.356.651-.356.15 0 .285.03.405.09.135.044.307.125.517.244.689.444 1.363.77 2.022.977.674.208 1.378.311 2.113.311 1.003 0 1.775-.192 2.314-.577.554-.386.832-.941.832-1.667 0-.43-.15-.778-.45-1.044-.3-.267-.674-.474-1.123-.623-.45-.163-1.08-.348-1.888-.555-1.124-.282-2.038-.563-2.742-.845-.704-.296-1.31-.74-1.82-1.333s-.764-1.393-.764-2.4c0-1.2.434-2.222 1.303-3.067.87-.844 2.008-1.37 3.416-1.577v-1.4c0-.341.105-.615.315-.823.21-.222.487-.333.831-.333.345 0 .622.111.832.333.21.208.314.482.314.823v1.377c1.513.193 2.817.734 3.91 1.623.36.266.54.614.54 1.044 0 .311-.098.585-.292.822-.18.237-.397.356-.652.356-.135 0-.27-.022-.405-.067-.12-.044-.284-.133-.494-.267-.614-.43-1.198-.748-1.753-.955-.54-.222-1.183-.333-1.932-.333-.93 0-1.67.207-2.225.622-.554.4-.832.955-.832 1.666 0 .49.158.89.472 1.2.315.297.712.526 1.191.69.48.162 1.131.348 1.955.555 1.094.267 1.986.54 2.675.822.689.282 1.273.711 1.752 1.289.495.563.742 1.333.742 2.311z"/>
</svg>
