<svg xmlns="http://www.w3.org/2000/svg" width="75" height="75" fill="none" viewBox="0 0 75 75">
    <rect width="75" height="75" fill="#FB0" rx="37.5"/>
    <path fill="#fff" d="M48 42.354c0 1.947-.734 3.59-2.202 4.928-1.442 1.34-3.395 2.179-5.86 2.52v2.3c0 .56-.183 1.01-.55 1.35-.367.366-.852.548-1.455.548-.603 0-1.088-.182-1.456-.548-.366-.34-.55-.79-.55-1.35v-2.227c-1.494-.122-2.95-.414-4.365-.877-1.416-.462-2.635-1.07-3.658-1.825-.34-.219-.576-.462-.707-.73-.131-.268-.197-.596-.197-.986 0-.511.157-.961.472-1.35.34-.39.72-.585 1.14-.585.263 0 .498.049.708.146.236.073.538.207.905.402 1.206.73 2.386 1.266 3.539 1.606 1.18.34 2.412.511 3.697.511 1.756 0 3.106-.316 4.05-.949.97-.633 1.455-1.545 1.455-2.738 0-.706-.262-1.278-.786-1.716-.525-.438-1.18-.779-1.966-1.022-.787-.268-1.888-.572-3.304-.913-1.966-.462-3.565-.925-4.798-1.387-1.232-.487-2.294-1.217-3.185-2.19-.891-.974-1.337-2.288-1.337-3.943 0-1.972.76-3.651 2.28-5.038 1.521-1.388 3.514-2.252 5.978-2.593v-2.3c0-.56.184-1.01.55-1.35.368-.365.853-.548 1.456-.548s1.088.183 1.455.548c.367.34.55.79.55 1.35v2.264c2.648.316 4.93 1.205 6.843 2.665.63.438.944 1.01.944 1.716 0 .511-.17.961-.511 1.35-.315.39-.695.585-1.14.585-.237 0-.472-.037-.709-.11-.21-.073-.498-.219-.865-.438-1.075-.706-2.097-1.229-3.067-1.57-.944-.365-2.071-.547-3.382-.547-1.626 0-2.923.34-3.893 1.022-.97.657-1.455 1.57-1.455 2.738 0 .803.275 1.46.825 1.971.551.487 1.246.864 2.085 1.132.839.268 1.98.572 3.421.913 1.914.438 3.474.888 4.68 1.35 1.206.463 2.228 1.169 3.067 2.118.865.925 1.298 2.19 1.298 3.797z"/>
</svg>
