<svg xmlns="http://www.w3.org/2000/svg" width="75" height="75" fill="none" viewBox="0 0 75 75">
    <rect width="75" height="75" fill="#D8938A" rx="37.5"/>
    <path fill="#fff" d="M45.114 26.967h-.544c-.907-1.785-2.227-3.226-3.962-4.322-1.71-1.097-3.626-1.645-5.75-1.645H28.76c-1.502 0-2.9.293-4.195.88-1.321.56-2.473 1.326-3.457 2.295-.959.943-1.71 2.065-2.253 3.366-.57 1.3-.855 2.677-.855 4.13 0 1.3.22 2.537.66 3.71.44 1.173 1.05 2.231 1.826 3.175.803.918 1.748 1.696 2.836 2.333 1.087.638 2.253 1.071 3.496 1.3h.077c.363 1.097.868 2.117 1.515 3.06.648.944 1.399 1.773 2.253 2.487.88.714 1.852 1.3 2.914 1.759 1.061.459 2.188.752 3.38.88h.077v3.519c0 .306.065.586.194.841.155.23.363.408.622.535.103.077.22.14.35.192.155.025.31.038.465.038h.04c.155 0 .297-.013.427-.038.129-.051.258-.115.388-.192 1.088-.637 2.201-1.287 3.34-1.95l3.07-1.76c.932-.535 1.734-.981 2.408-1.338.647-.357 1.061-.574 1.243-.65 1.087-.434 2.084-1.02 2.99-1.76.907-.74 1.684-1.568 2.331-2.486.674-.944 1.192-1.976 1.554-3.098.363-1.122.544-2.295.544-3.519 0-1.606-.31-3.124-.932-4.552-.622-1.427-1.476-2.664-2.564-3.71-1.062-1.07-2.305-1.912-3.73-2.524-1.45-.637-2.99-.956-4.622-.956h-.038zM26.352 38.67c-1.502-.51-2.733-1.403-3.69-2.678-.959-1.275-1.438-2.715-1.438-4.322 0-1.02.207-1.989.622-2.907.388-.892.919-1.67 1.592-2.333.674-.663 1.463-1.198 2.37-1.606.932-.383 1.916-.574 2.952-.574h6.099c1.165 0 2.253.242 3.262.727 1.01.484 1.852 1.134 2.525 1.95v.039h-2.408c-1.631 0-3.172.306-4.623.918-1.424.612-2.68 1.453-3.767 2.524-1.088 1.046-1.943 2.282-2.564 3.71-.622 1.403-.932 2.92-.932 4.552zm22.102 7.879c-.44.204-1.528.79-3.263 1.76-1.709.943-3.289 1.81-4.739 2.6v-2.18c0-.459-.168-.841-.505-1.147-.31-.332-.686-.498-1.126-.498-.026 0-.052.013-.078.039h-.505c-1.191 0-2.305-.23-3.34-.689-1.036-.433-1.956-1.033-2.759-1.797-.777-.791-1.385-1.696-1.825-2.716-.44-1.02-.66-2.117-.66-3.29 0-1.172.22-2.282.66-3.327.44-1.02 1.049-1.913 1.825-2.678.803-.765 1.723-1.376 2.758-1.835 1.036-.434 2.15-.65 3.341-.65h6.876c1.19 0 2.304.229 3.34.688 1.036.433 1.942 1.033 2.72 1.797.776.765 1.385 1.67 1.825 2.716.466 1.02.7 2.116.7 3.29 0 1.759-.506 3.34-1.516 4.742-.984 1.403-2.253 2.435-3.806 3.098h-.04l.117.077z"/>
</svg>
