<svg xmlns="http://www.w3.org/2000/svg" width="75" height="75" fill="none" viewBox="0 0 75 75">
    <rect width="75" height="75" fill="#AEA4AC" rx="37.5"/>
    <path fill="#fff" d="M50.7 21H24.27c-.905 0-1.677.318-2.314.954-.637.635-.956 1.404-.956 2.307v16.457c0 .903.319 1.672.956 2.307.637.636 1.409.954 2.313.954h.895c.37 0 .688-.133.956-.4.287-.267.431-.595.431-.984 0-.37-.143-.687-.431-.954-.268-.267-.586-.4-.956-.4h-.895-.03c-.124 0-.237-.051-.34-.154-.103-.102-.154-.215-.154-.338V24.261v-.031c0-.123.051-.236.154-.338.103-.103.216-.154.34-.154H50.73c.145 0 .258.051.34.154.103.102.154.215.154.338v16.519c0 .123-.051.236-.154.338-.082.103-.195.154-.34.154h-.894c-.39 0-.72.133-.986.4-.268.267-.401.585-.401.954 0 .39.133.718.4.984.268.267.597.4.987.4h.926c.884 0 1.645-.308 2.282-.923.637-.636.956-1.405.956-2.307V24.291v-.03c0-.903-.319-1.672-.956-2.307-.637-.636-1.398-.954-2.282-.954h-.031-.031zm-7.68 24.67c1.029 0 1.913-.348 2.653-1.045.76-.718 1.172-1.58 1.233-2.584v-.03-.062-.123-.062-.123c0-1.087-.39-2.01-1.171-2.768-.761-.76-1.686-1.139-2.776-1.139-1.09 0-2.025.38-2.807 1.139-.76.758-1.14 1.681-1.14 2.768 0 .041-.011.082-.032.123v.185c.02.02.031.04.031.061.062 1.026.463 1.897 1.203 2.615.74.697 1.624 1.046 2.652 1.046-1.5 0-2.796.543-3.886 1.63-1.069 1.067-1.603 2.359-1.603 3.876 0-1.517-.535-2.81-1.604-3.876-1.07-1.087-2.365-1.63-3.886-1.63 1.028 0 1.912-.349 2.652-1.046.761-.718 1.172-1.58 1.234-2.584v-.03-.062-.123-.062-.123-.123-.123c0-1.107-.39-2.04-1.172-2.8-.76-.779-1.686-1.168-2.776-1.168-1.11 0-2.056.39-2.837 1.169-.76.759-1.141 1.692-1.141 2.799v.277-.03.368c.082 1.026.493 1.897 1.233 2.615.74.697 1.625 1.046 2.653 1.046-1.501 0-2.797.543-3.886 1.63-1.07 1.067-1.604 2.359-1.604 3.876 0 .349.123.657.37.923.267.267.586.4.956.4h19.615c.37 0 .689-.133.956-.4.267-.246.401-.554.401-.923 0-1.517-.545-2.81-1.634-3.876-1.07-1.087-2.365-1.63-3.886-1.63zm-7.586-10.427l5.736-3.261c.123-.062.216-.154.278-.277.061-.123.092-.246.092-.37 0-.143-.03-.266-.092-.368-.062-.123-.154-.215-.278-.277l-5.736-3.415-.185-.061c-.062-.02-.124-.03-.185-.03-.206 0-.38.07-.525.214-.144.144-.216.318-.216.523v6.676c0 .205.072.38.216.523.144.143.319.215.525.215.061 0 .123-.01.185-.03l.185-.062z"/>
</svg>
