<svg width="45" height="45" viewBox="0 0 45 45" fill="none" xmlns="http://www.w3.org/2000/svg">
<rect width="45" height="45" rx="22.5" fill="#E4EEFF"/>
<path d="M22.0873 29.1371C22.0873 29.3595 22.0023 29.5558 21.8322 29.7259C21.6752 29.8829 21.4854 29.9614 21.263 29.9614H20.3013C19.2938 29.9614 18.3451 29.7717 17.4553 29.3922C16.5656 29.0128 15.787 28.4959 15.1197 27.8417C14.4655 27.1743 13.9486 26.3958 13.5692 25.506C13.1897 24.6294 13 23.6873 13 22.6797C13 21.6722 13.1897 20.7236 13.5692 19.8338C13.9486 18.9441 14.4655 18.1721 15.1197 17.5178C15.787 16.8505 16.5656 16.3271 17.4553 15.9477C18.3451 15.5682 19.2938 15.3785 20.3013 15.3785H22.1658V13.612C22.1658 13.3765 22.2444 13.1802 22.4014 13.0232C22.5715 12.8531 22.7743 12.7681 23.0098 12.7681C23.2323 12.7681 23.422 12.8531 23.579 13.0232C23.7491 13.1802 23.8342 13.3765 23.8342 13.612V15.3785H25.7184C26.7259 15.3785 27.668 15.5682 28.5447 15.9477C29.4344 16.3402 30.2064 16.8636 30.8606 17.5178C31.528 18.1721 32.0514 18.9441 32.4308 19.8338C32.8103 20.7236 33 21.6722 33 22.6797C33 22.9022 32.9149 23.0985 32.7448 23.2686C32.5878 23.4256 32.3981 23.5041 32.1757 23.5041C31.9401 23.5041 31.7373 23.4256 31.5672 23.2686C31.4102 23.0985 31.3317 22.9022 31.3317 22.6797C31.3317 21.9077 31.1878 21.1815 30.8999 20.5011C30.612 19.8207 30.213 19.2319 29.7026 18.7347C29.1923 18.2244 28.6035 17.8253 27.9362 17.5374C27.2558 17.2365 26.5296 17.086 25.7576 17.086H20.3013C19.5162 17.086 18.7834 17.2365 18.103 17.5374C17.4226 17.8253 16.8273 18.2244 16.317 18.7347C15.8067 19.245 15.4076 19.8404 15.1197 20.5208C14.8188 21.2143 14.6683 21.947 14.6683 22.719C14.6683 23.491 14.8188 24.2172 15.1197 24.8976C15.4076 25.5911 15.8067 26.193 16.317 26.7033C16.8273 27.2005 17.4226 27.5996 18.103 27.9006C18.7834 28.1884 19.5162 28.3323 20.3013 28.3323H21.263C21.4854 28.3323 21.6752 28.4109 21.8322 28.5679C21.9892 28.7249 22.0743 28.9146 22.0873 29.1371ZM32.7645 25.6238C32.843 25.7023 32.9019 25.7939 32.9411 25.8986C32.9804 25.9902 33 26.0949 33 26.2126C33 26.3304 32.9804 26.4416 32.9411 26.5463C32.9019 26.651 32.843 26.736 32.7645 26.8014L28.9568 30.6091C28.8783 30.6876 28.7867 30.753 28.682 30.8054C28.5774 30.8446 28.4661 30.8642 28.3484 30.8642C28.2437 30.8642 28.139 30.8446 28.0343 30.8054C27.9297 30.753 27.8381 30.6876 27.7596 30.6091L26.5231 29.3726L23.3042 32.6111C23.2257 32.6896 23.1341 32.7484 23.0294 32.7877C22.9378 32.84 22.8332 32.8662 22.7154 32.8662C22.5976 32.8662 22.4864 32.84 22.3817 32.7877C22.2902 32.7484 22.2051 32.6896 22.1266 32.6111C22.0481 32.5456 21.9827 32.4606 21.9303 32.3559C21.8911 32.2512 21.8714 32.14 21.8714 32.0222C21.8714 31.9176 21.8911 31.8129 21.9303 31.7082C21.9827 31.6035 22.0481 31.5119 22.1266 31.4334L25.9342 27.6258C26.0128 27.5473 26.0978 27.4884 26.1894 27.4491C26.2941 27.3968 26.4053 27.3706 26.5231 27.3706C26.6408 27.3706 26.752 27.3968 26.8567 27.4491C26.9614 27.4884 27.0465 27.5473 27.1119 27.6258L28.3484 28.8623L31.5868 25.6238C31.6523 25.5453 31.7373 25.4864 31.842 25.4472C31.9467 25.4079 32.0579 25.3883 32.1757 25.3883C32.2934 25.3883 32.3981 25.4079 32.4897 25.4472C32.5944 25.4864 32.686 25.5453 32.7645 25.6238ZM19.9087 20.4226C20.2097 20.4226 20.4714 20.5339 20.6938 20.7563C20.9163 20.9656 21.0275 21.2273 21.0275 21.5414C21.0275 21.8423 20.9163 22.104 20.6938 22.3265C20.4714 22.5358 20.2097 22.6405 19.9087 22.6405C19.5947 22.6405 19.3265 22.5358 19.104 22.3265C18.8947 22.104 18.79 21.8423 18.79 21.5414C18.79 21.2273 18.8947 20.9656 19.104 20.7563C19.3265 20.5339 19.5947 20.4226 19.9087 20.4226ZM26.1109 20.4226C26.4118 20.4226 26.6735 20.5339 26.896 20.7563C27.1184 20.9656 27.2296 21.2273 27.2296 21.5414C27.2296 21.8423 27.1184 22.104 26.896 22.3265C26.6735 22.5358 26.4118 22.6405 26.1109 22.6405C25.7969 22.6405 25.5286 22.5358 25.3062 22.3265C25.0968 22.104 24.9921 21.8423 24.9921 21.5414C24.9921 21.2273 25.0968 20.9656 25.3062 20.7563C25.5286 20.5339 25.7969 20.4226 26.1109 20.4226Z" fill="#123399"/>
</svg>
