<svg width="45" height="45" viewBox="0 0 45 45" fill="none" xmlns="http://www.w3.org/2000/svg">
<rect width="45" height="45" rx="22.5" fill="#FFF7E0"/>
<path d="M24.4908 16H20.6579C20.6359 16 20.6084 16 20.5753 16C20.5533 16 20.5258 16 20.4927 16C19.6006 16 18.758 16.1707 17.965 16.5121C17.172 16.8536 16.4836 17.3217 15.8999 17.9164C15.3162 18.5002 14.8536 19.183 14.5121 19.965C14.1707 20.758 14 21.6006 14 22.4927C14 23.3628 14.1597 24.1833 14.4791 24.9543C14.7985 25.7253 15.2336 26.4027 15.7843 26.9864C16.346 27.5701 17.0013 28.0382 17.7502 28.3907C18.4992 28.7431 19.3032 28.9414 20.1623 28.9854H20.1788V31.1992C20.1788 31.3314 20.2119 31.447 20.2779 31.5462C20.344 31.6563 20.4321 31.7444 20.5423 31.8105C20.5863 31.8435 20.6359 31.8656 20.691 31.8766C20.757 31.8876 20.8231 31.8931 20.8892 31.8931C20.9553 31.8931 21.0159 31.8821 21.0709 31.8601C21.137 31.849 21.1976 31.8325 21.2527 31.8105C21.7373 31.5131 22.288 31.1882 22.9048 30.8358C23.5215 30.4723 24.1108 30.1309 24.6725 29.8115C25.2342 29.481 25.7243 29.1947 26.1429 28.9524C26.5724 28.7211 26.8422 28.5834 26.9524 28.5394C27.5471 28.286 28.0923 27.9556 28.5879 27.5481C29.0946 27.1516 29.5241 26.6945 29.8766 26.1769C30.229 25.6482 30.5044 25.0755 30.7026 24.4587C30.9009 23.8419 31 23.1921 31 22.5092C31 21.6171 30.8293 20.7745 30.4879 19.9815C30.1464 19.1885 29.6783 18.5002 29.0836 17.9164C28.4998 17.3217 27.817 16.8536 27.035 16.5121C26.242 16.1707 25.3939 16 24.4908 16ZM26.3741 27.2342C26.231 27.2893 25.9776 27.4159 25.6142 27.6142C25.2397 27.8124 24.8157 28.0492 24.3421 28.3246C23.8795 28.5889 23.3949 28.8698 22.8882 29.1672C22.3926 29.4645 21.941 29.7289 21.5335 29.9602V28.3081C21.5335 28.1098 21.4619 27.9446 21.3188 27.8124C21.1866 27.6693 21.0214 27.5977 20.8231 27.5977H20.6579C20.6249 27.5977 20.5863 27.5977 20.5423 27.5977C20.5092 27.5977 20.4707 27.5977 20.4266 27.5977C19.7327 27.5977 19.0719 27.4655 18.4441 27.2012C17.8273 26.9368 17.2877 26.5734 16.8251 26.1108C16.3735 25.6482 16.01 25.1085 15.7347 24.4917C15.4704 23.875 15.3382 23.2141 15.3382 22.5092C15.3382 21.8043 15.4704 21.1435 15.7347 20.5267C16.01 19.9099 16.3735 19.3703 16.8251 18.9077C17.2877 18.4451 17.8273 18.0816 18.4441 17.8173C19.0719 17.5419 19.7327 17.4043 20.4266 17.4043C20.4707 17.4043 20.5092 17.4098 20.5423 17.4208C20.5863 17.4208 20.6249 17.4208 20.6579 17.4208H24.4908C25.1846 17.4208 25.84 17.5585 26.4568 17.8338C27.0735 18.0982 27.6077 18.4616 28.0593 18.9242C28.5219 19.3868 28.8853 19.9265 29.1497 20.5432C29.414 21.16 29.5462 21.8154 29.5462 22.5092C29.5462 23.0379 29.4691 23.5445 29.3149 24.0292C29.1607 24.5138 28.9404 24.9598 28.654 25.3673C28.3787 25.7749 28.0483 26.1383 27.6628 26.4577C27.2773 26.7771 26.8588 27.0304 26.4072 27.2177L26.3741 27.2342ZM20.3771 22.7405C20.3771 22.9388 20.3055 23.1095 20.1623 23.2527C20.0301 23.3959 19.8594 23.4674 19.6501 23.4674C19.4519 23.4674 19.2812 23.3959 19.138 23.2527C19.0058 23.1095 18.9397 22.9388 18.9397 22.7405C18.9397 22.5423 19.0058 22.3771 19.138 22.2449C19.2812 22.1017 19.4519 22.0301 19.6501 22.0301C19.8594 22.0301 20.0301 22.1017 20.1623 22.2449C20.3055 22.3771 20.3771 22.5423 20.3771 22.7405ZM23.3013 22.7405C23.3013 22.9388 23.2297 23.1095 23.0865 23.2527C22.9433 23.3959 22.7726 23.4674 22.5743 23.4674C22.3761 23.4674 22.2054 23.3959 22.0622 23.2527C21.919 23.1095 21.8474 22.9388 21.8474 22.7405C21.8474 22.5423 21.919 22.3771 22.0622 22.2449C22.2054 22.1017 22.3761 22.0301 22.5743 22.0301C22.5854 22.0301 22.5909 22.0301 22.5909 22.0301C22.6019 22.0301 22.6074 22.0301 22.6074 22.0301C22.8056 22.0301 22.9708 22.1017 23.103 22.2449C23.2352 22.3771 23.3013 22.5423 23.3013 22.7405ZM26.2255 22.7405C26.2255 22.9388 26.1539 23.1095 26.0107 23.2527C25.8675 23.3959 25.6968 23.4674 25.4985 23.4674C25.3003 23.4674 25.1296 23.3959 24.9864 23.2527C24.8432 23.1095 24.7716 22.9388 24.7716 22.7405C24.7716 22.5423 24.8432 22.3771 24.9864 22.2449C25.1296 22.1017 25.3003 22.0301 25.4985 22.0301C25.6968 22.0301 25.8675 22.1017 26.0107 22.2449C26.1539 22.3771 26.2255 22.5423 26.2255 22.7405Z" fill="#FFBB00"/>
</svg>
