<svg width="45" height="45" viewBox="0 0 45 45" fill="none" xmlns="http://www.w3.org/2000/svg">
<rect width="45" height="45" rx="22.5" fill="#FFE5E6"/>
<path d="M24.8122 15H20.4712C20.4463 15 20.4151 15 20.3776 15C20.3527 15 20.3215 15 20.2841 15C19.2737 15 18.3194 15.1933 17.4213 15.58C16.5232 15.9667 15.7436 16.4969 15.0824 17.1705C14.4213 17.8316 13.8974 18.605 13.5107 19.4906C13.124 20.3888 12.9307 21.343 12.9307 22.3534C12.9307 23.3389 13.1115 24.2682 13.4733 25.1414C13.835 26.0146 14.3278 26.7817 14.9515 27.4428C15.5876 28.104 16.3298 28.6341 17.1781 29.0333C18.0263 29.4324 18.9369 29.657 19.9099 29.7069H19.9286V32.2141C19.9286 32.3638 19.966 32.4948 20.0409 32.6071C20.1157 32.7318 20.2155 32.8316 20.3402 32.9064C20.3901 32.9439 20.4463 32.9688 20.5086 32.9813C20.5835 32.9938 20.6583 33 20.7332 33C20.808 33 20.8766 32.9875 20.939 32.9626C21.0138 32.9501 21.0824 32.9314 21.1448 32.9064C21.6937 32.5696 22.3174 32.2017 23.0159 31.8025C23.7144 31.3909 24.3818 31.0042 25.018 30.6424C25.6542 30.2682 26.2093 29.9439 26.6833 29.6694C27.1697 29.4075 27.4754 29.2516 27.6001 29.2017C28.2737 28.9148 28.8912 28.5405 29.4525 28.079C30.0263 27.6299 30.5128 27.1123 30.912 26.526C31.3111 25.9272 31.623 25.2786 31.8475 24.58C32.072 23.8815 32.1843 23.1455 32.1843 22.3721C32.1843 21.3617 31.991 20.4075 31.6043 19.5094C31.2176 18.6112 30.6874 17.8316 30.0138 17.1705C29.3527 16.4969 28.5793 15.9667 27.6937 15.58C26.7955 15.1933 25.835 15 24.8122 15ZM26.9452 27.7235C26.7831 27.7734 26.4962 27.9168 26.0845 28.1538C25.6604 28.3784 25.1801 28.6466 24.6438 28.9584C24.1199 29.2578 23.571 29.5759 22.9972 29.9127C22.4359 30.2495 21.9244 30.5489 21.4629 30.8108V28.9397C21.4629 28.7152 21.3818 28.5281 21.2196 28.3784C21.07 28.2162 20.8828 28.1351 20.6583 28.1351H20.4712C20.4338 28.1351 20.3901 28.1351 20.3402 28.1351C20.3028 28.1351 20.2591 28.1351 20.2093 28.1351C19.4234 28.1351 18.6749 27.9854 17.9639 27.6861C17.2654 27.3867 16.6542 26.9751 16.1302 26.4511C15.6188 25.9272 15.2072 25.316 14.8953 24.6175C14.5959 23.9189 14.4463 23.1705 14.4463 22.3721C14.4463 21.5738 14.5959 20.8254 14.8953 20.1268C15.2072 19.4283 15.6188 18.817 16.1302 18.2931C16.6542 17.7692 17.2654 17.3576 17.9639 17.0582C18.6749 16.7464 19.4234 16.5904 20.2093 16.5904C20.2591 16.5904 20.3028 16.5967 20.3402 16.6091C20.3901 16.6091 20.4338 16.6091 20.4712 16.6091H24.8122C25.598 16.6091 26.3402 16.7651 27.0388 17.0769C27.7373 17.3763 28.3423 17.7879 28.8537 18.3119C29.3777 18.8358 29.7893 19.447 30.0887 20.1455C30.388 20.8441 30.5377 21.5863 30.5377 22.3721C30.5377 22.9709 30.4504 23.5447 30.2758 24.0936C30.1011 24.6424 29.8517 25.1476 29.5273 25.6091C29.2155 26.0707 28.8413 26.4823 28.4047 26.8441C27.9681 27.2058 27.4941 27.4927 26.9826 27.7048L26.9452 27.7235ZM18.544 20.5946C18.544 20.2952 18.65 20.0457 18.8621 19.8462C19.0741 19.6341 19.3236 19.5281 19.6105 19.5281C19.9099 19.5281 20.1594 19.6341 20.3589 19.8462C20.571 20.0457 20.677 20.2952 20.677 20.5946C20.677 20.8815 20.571 21.131 20.3589 21.343C20.1594 21.5426 19.9099 21.6424 19.6105 21.6424C19.3236 21.6424 19.0741 21.5426 18.8621 21.343C18.65 21.131 18.544 20.8815 18.544 20.5946ZM24.4567 20.5946C24.4567 20.2952 24.5564 20.0457 24.756 19.8462C24.9681 19.6341 25.2238 19.5281 25.5232 19.5281C25.8101 19.5281 26.0596 19.6341 26.2716 19.8462C26.4837 20.0457 26.5897 20.2952 26.5897 20.5946C26.5897 20.8815 26.4837 21.131 26.2716 21.343C26.0596 21.5426 25.8101 21.6424 25.5232 21.6424C25.2238 21.6424 24.9681 21.5426 24.756 21.343C24.5564 21.131 24.4567 20.8815 24.4567 20.5946ZM26.5897 23.6632C26.6147 23.7131 26.6334 23.7755 26.6458 23.8503C26.6708 23.9127 26.6833 23.9813 26.6833 24.0561C26.6833 24.1933 26.6458 24.3243 26.571 24.4491C26.5086 24.5613 26.4275 24.6549 26.3278 24.7297C25.8038 25.0541 25.23 25.3098 24.6063 25.4969C23.9826 25.6715 23.334 25.7588 22.6604 25.7588C21.9868 25.7588 21.3381 25.6715 20.7144 25.4969C20.0907 25.3098 19.5107 25.0478 18.9743 24.711L19.0117 24.7297C18.8995 24.6549 18.8122 24.5613 18.7498 24.4491C18.6874 24.3243 18.6562 24.1933 18.6562 24.0561C18.6562 23.8441 18.7311 23.6632 18.8808 23.5135C19.0429 23.3514 19.23 23.2703 19.4421 23.2703C19.5169 23.2703 19.5855 23.2765 19.6479 23.289C19.7228 23.3015 19.7851 23.3264 19.835 23.3638C20.2342 23.6133 20.6708 23.8129 21.1448 23.9626C21.6313 24.0998 22.1365 24.1684 22.6604 24.1684C23.1843 24.1684 23.6833 24.0998 24.1573 23.9626C24.6438 23.8129 25.0928 23.6071 25.5045 23.3451L25.4858 23.3638C25.5481 23.3389 25.6105 23.3202 25.6729 23.3077C25.7352 23.2827 25.8038 23.2703 25.8787 23.2703C26.0284 23.2703 26.1594 23.3077 26.2716 23.3825C26.3964 23.4449 26.4962 23.5385 26.571 23.6632H26.5897Z" fill="#FF4651"/>
</svg>
