<svg width="45" height="45" viewBox="0 0 45 45" fill="none" xmlns="http://www.w3.org/2000/svg">
<rect width="45" height="45" rx="22.5" fill="#FFF7E0"/>
<path d="M28.5312 23.7188H24.1875C23.7812 23.7188 23.4323 23.8646 23.1406 24.1562C22.8594 24.4375 22.7188 24.7812 22.7188 25.1875V29.5312C22.7188 29.5312 22.7188 29.5365 22.7188 29.5469C22.7188 29.5573 22.7188 29.5625 22.7188 29.5625C22.7188 29.9688 22.8594 30.3125 23.1406 30.5938C23.4323 30.8854 23.7812 31.0312 24.1875 31.0312H28.5312C28.5312 31.0312 28.5365 31.0312 28.5469 31.0312C28.5573 31.0312 28.5625 31.0312 28.5625 31.0312C28.9688 31.0312 29.3125 30.8854 29.5938 30.5938C29.8854 30.3125 30.0312 29.9688 30.0312 29.5625C30.0312 29.5625 30.0312 29.5573 30.0312 29.5469C30.0312 29.5365 30.0312 29.5312 30.0312 29.5312V25.1875C30.0312 24.7812 29.8854 24.4375 29.5938 24.1562C29.3125 23.8646 28.9688 23.7188 28.5625 23.7188C28.5625 23.7188 28.5573 23.7188 28.5469 23.7188C28.5365 23.7188 28.5312 23.7188 28.5312 23.7188ZM28.3906 29.3906H24.3125V25.3125H28.3906V29.3906ZM19.8125 17.8125H15.4688C15.0729 17.8125 14.7292 17.9531 14.4375 18.2344C14.1562 18.5156 14.0104 18.8542 14 19.25V26.1094C14 26.5156 14.1406 26.8646 14.4219 27.1562C14.7135 27.4375 15.0625 27.5781 15.4688 27.5781H19.8125C20.2188 27.5781 20.5625 27.4375 20.8438 27.1562C21.1354 26.8646 21.2812 26.5156 21.2812 26.1094V19.25C21.2812 18.8438 21.1354 18.5 20.8438 18.2188C20.5625 17.9271 20.2188 17.7812 19.8125 17.7812V17.8125ZM19.6875 26.0156H15.6094V19.3906H19.6875V26.0156ZM30.0312 16.4688V20.8125C30.0312 21.2188 29.8854 21.5677 29.5938 21.8594C29.3125 22.1406 28.9688 22.2812 28.5625 22.2812H24.1875C23.7812 22.2812 23.4323 22.1406 23.1406 21.8594C22.8594 21.5677 22.7188 21.2188 22.7188 20.8125V16.4688C22.7188 16.0625 22.8594 15.7188 23.1406 15.4375C23.4323 15.1458 23.7812 15 24.1875 15H28.5312C28.5312 15 28.5365 15 28.5469 15C28.5573 15 28.5625 15 28.5625 15C28.9688 15 29.3125 15.1458 29.5938 15.4375C29.8854 15.7188 30.0312 16.0625 30.0312 16.4688Z" fill="#FFBB00"/>
</svg>
