<svg width="45" height="45" viewBox="0 0 45 45" fill="none" xmlns="http://www.w3.org/2000/svg">
<rect width="45" height="45" rx="22.5" fill="#D1FFF2"/>
<path d="M30.1562 29.1406C30 28.6615 29.7917 28.2083 29.5312 27.7812C29.2812 27.3542 28.9896 26.9635 28.6562 26.6094C28.3229 26.2552 27.9531 25.9375 27.5469 25.6562C27.1406 25.3854 26.7135 25.1562 26.2656 24.9688L26.2188 24.9531C26.7188 24.5781 27.1198 24.1042 27.4219 23.5312C27.724 22.9583 27.875 22.3333 27.875 21.6562C27.875 21.625 27.875 21.5938 27.875 21.5625C27.8854 21.5312 27.8906 21.4948 27.8906 21.4531C27.8906 20.8802 27.7812 20.3438 27.5625 19.8438C27.3438 19.3333 27.0417 18.8906 26.6562 18.5156C26.2812 18.1406 25.8438 17.8438 25.3438 17.625C24.8333 17.4062 24.2917 17.2969 23.7188 17.2969C23.1458 17.2969 22.6042 17.4062 22.0938 17.625C21.5938 17.8438 21.1562 18.1406 20.7812 18.5156C20.4062 18.8906 20.1094 19.3333 19.8906 19.8438C19.6719 20.3438 19.5625 20.8802 19.5625 21.4531C19.5625 21.4948 19.5625 21.5312 19.5625 21.5625C19.5625 21.5938 19.5625 21.625 19.5625 21.6562C19.5625 21.6562 19.5625 21.6615 19.5625 21.6719C19.5625 22.3385 19.7083 22.9583 20 23.5312C20.3021 24.1042 20.7031 24.5781 21.2031 24.9531L21 25.0312C20.7396 25.1458 20.4948 25.2708 20.2656 25.4062C20.0469 25.5417 19.8385 25.6875 19.6406 25.8438L19.6562 25.8281C19.1042 26.2344 18.625 26.7188 18.2188 27.2812C17.8229 27.8333 17.5156 28.4375 17.2969 29.0938L17.2812 29.1406C17.2708 29.1719 17.2604 29.2031 17.25 29.2344C17.25 29.276 17.25 29.3125 17.25 29.3438C17.25 29.5 17.2917 29.6354 17.375 29.75C17.4583 29.8646 17.5677 29.9427 17.7031 29.9844H17.9219C18.0573 29.9844 18.1771 29.9427 18.2812 29.8594C18.3958 29.7865 18.474 29.6875 18.5156 29.5625H18.5312C18.6979 29.0104 18.9427 28.5104 19.2656 28.0625C19.5885 27.6042 19.9688 27.2083 20.4062 26.875H20.4219C20.5781 26.75 20.7448 26.6406 20.9219 26.5469C21.099 26.4427 21.2812 26.349 21.4688 26.2656L21.5 26.25C21.8229 26.1042 22.1667 25.9896 22.5312 25.9062C22.9062 25.8229 23.2917 25.7812 23.6875 25.7812C24.2917 25.7812 24.8646 25.875 25.4062 26.0625C25.9583 26.2396 26.4583 26.4948 26.9062 26.8281C27.3542 27.1615 27.7448 27.5521 28.0781 28C28.4115 28.4583 28.6667 28.9583 28.8438 29.5L28.8594 29.5312C28.901 29.6771 28.9792 29.7917 29.0938 29.875C29.2188 29.9688 29.3594 30.0156 29.5156 30.0156C29.7031 30.0156 29.8594 29.9479 29.9844 29.8125C30.1198 29.6875 30.1875 29.526 30.1875 29.3281C30.1875 29.2969 30.1823 29.2656 30.1719 29.2344C30.1719 29.2031 30.1667 29.1719 30.1562 29.1406ZM21.2031 22.9688C21.1094 22.7812 21.0312 22.5781 20.9688 22.3594C20.9167 22.1302 20.8906 21.8958 20.8906 21.6562C20.8906 20.8854 21.1667 20.224 21.7188 19.6719C22.2708 19.1198 22.9323 18.8438 23.7031 18.8438C24.4844 18.8438 25.151 19.1198 25.7031 19.6719C26.2552 20.224 26.5312 20.8854 26.5312 21.6562C26.5312 22.4375 26.2552 23.1042 25.7031 23.6562C25.151 24.2083 24.4896 24.4844 23.7188 24.4844C23.1771 24.4844 22.6823 24.349 22.2344 24.0781C21.7969 23.7969 21.4583 23.4323 21.2188 22.9844L21.2031 22.9688ZM17.9844 21.8906C17.974 21.8906 17.9635 21.8906 17.9531 21.8906C17.9427 21.8906 17.9375 21.8906 17.9375 21.8906C17.3854 21.8906 16.875 21.7865 16.4062 21.5781C15.9271 21.3698 15.5052 21.0885 15.1406 20.7344C14.7865 20.3802 14.5052 19.9635 14.2969 19.4844C14.099 19.0052 14 18.4948 14 17.9531C14 17.401 14.099 16.8854 14.2969 16.4062C14.5052 15.9375 14.7865 15.526 15.1406 15.1719C15.5052 14.8073 15.9271 14.5208 16.4062 14.3125C16.875 14.1042 17.3854 14 17.9375 14C18.7396 14 19.4635 14.224 20.1094 14.6719C20.7656 15.1094 21.2448 15.6771 21.5469 16.375L21.5625 16.4062C21.5833 16.4479 21.599 16.4948 21.6094 16.5469C21.6198 16.5885 21.625 16.6354 21.625 16.6875C21.625 16.8229 21.5833 16.9479 21.5 17.0625C21.4271 17.1667 21.3333 17.2448 21.2188 17.2969H21.2031C21.1719 17.3177 21.1302 17.3333 21.0781 17.3438C21.0365 17.3542 20.9896 17.3594 20.9375 17.3594C20.8021 17.3594 20.6771 17.3229 20.5625 17.25C20.4479 17.1667 20.3646 17.0677 20.3125 16.9531V16.9375C20.1146 16.4688 19.8021 16.0885 19.375 15.7969C18.9479 15.4948 18.4635 15.3438 17.9219 15.3438C17.2135 15.3438 16.6042 15.599 16.0938 16.1094C15.5938 16.6094 15.3438 17.2188 15.3438 17.9375C15.3438 18.6562 15.5938 19.2708 16.0938 19.7812C16.6042 20.2812 17.2135 20.5312 17.9219 20.5312C17.9323 20.5312 17.9375 20.5312 17.9375 20.5312C18.1146 20.5312 18.2708 20.599 18.4062 20.7344C18.5417 20.8594 18.6094 21.0156 18.6094 21.2031C18.6094 21.3802 18.5417 21.5365 18.4062 21.6719C18.2708 21.8073 18.1146 21.875 17.9375 21.875L17.9844 21.8906ZM18.4219 16.7031V17.4844H19.3125C19.5 17.4844 19.6562 17.5521 19.7812 17.6875C19.9167 17.8229 19.9844 17.9792 19.9844 18.1562C19.9844 18.3438 19.9167 18.5052 19.7812 18.6406C19.6562 18.7656 19.5 18.8281 19.3125 18.8281H17.75C17.5625 18.8281 17.401 18.7656 17.2656 18.6406C17.1406 18.5052 17.0781 18.3438 17.0781 18.1562V16.7031C17.0781 16.5156 17.1406 16.3594 17.2656 16.2344C17.401 16.099 17.5625 16.0312 17.75 16.0312C17.9271 16.0312 18.0833 16.099 18.2188 16.2344C18.3542 16.3594 18.4219 16.5156 18.4219 16.7031Z" fill="#29B68D"/>
</svg>
