<svg width="50" height="50" viewBox="0 0 50 50" fill="none" xmlns="http://www.w3.org/2000/svg">
<rect width="50" height="50" rx="25" fill="#FFBB00"/>
<path d="M31.9995 28.2357C31.9995 29.5338 31.5101 30.629 30.5313 31.5215C29.57 32.4139 28.2679 32.9737 26.625 33.2008V34.7342C26.625 35.1073 26.5026 35.4075 26.2579 35.6347C26.0132 35.8781 25.6899 35.9998 25.2879 35.9998C24.8859 35.9998 24.5626 35.8781 24.3179 35.6347C24.0732 35.4075 23.9508 35.1073 23.9508 34.7342V33.2495C22.9546 33.1684 21.9845 32.9737 21.0407 32.6654C20.0969 32.3571 19.2842 31.9514 18.6025 31.4484C18.3753 31.3024 18.218 31.1401 18.1306 30.9617C18.0432 30.7832 17.9995 30.5641 17.9995 30.3045C17.9995 29.9638 18.1044 29.6636 18.3141 29.404C18.5413 29.1444 18.7948 29.0146 19.0744 29.0146C19.2492 29.0146 19.4065 29.047 19.5463 29.1119C19.7036 29.1606 19.9046 29.2498 20.1493 29.3797C20.9533 29.8664 21.7398 30.2234 22.5089 30.4506C23.2954 30.6777 24.1169 30.7913 24.9733 30.7913C26.1443 30.7913 27.0445 30.5804 27.6737 30.1585C28.3204 29.7366 28.6437 29.1282 28.6437 28.3331C28.6437 27.8625 28.4689 27.4812 28.1194 27.1892C27.7698 26.8971 27.3328 26.67 26.8085 26.5077C26.2842 26.3292 25.5501 26.1264 24.6063 25.8992C23.2954 25.5909 22.2292 25.2826 21.4078 24.9744C20.5863 24.6498 19.8784 24.1631 19.2842 23.514C18.6899 22.865 18.3928 21.9888 18.3928 20.8855C18.3928 19.5712 18.8996 18.4516 19.9134 17.5267C20.9271 16.6019 22.2554 16.0259 23.8984 15.7987V14.2654C23.8984 13.8922 24.0207 13.592 24.2654 13.3648C24.5101 13.1214 24.8335 12.9998 25.2355 12.9998C25.6375 12.9998 25.9608 13.1214 26.2055 13.3648C26.4502 13.592 26.5725 13.8922 26.5725 14.2654V15.7744C28.3378 15.9853 29.8584 16.5775 31.1343 17.5511C31.5538 17.8431 31.7636 18.2244 31.7636 18.695C31.7636 19.0357 31.65 19.3359 31.4227 19.5955C31.213 19.8551 30.9596 19.9849 30.6624 19.9849C30.5051 19.9849 30.3478 19.9606 30.1905 19.9119C30.0507 19.8632 29.8584 19.7659 29.6137 19.6199C28.8971 19.1493 28.2155 18.8005 27.5688 18.5733C26.9396 18.3299 26.188 18.2082 25.3141 18.2082C24.2305 18.2082 23.3653 18.4354 22.7186 18.8897C22.0719 19.3278 21.7486 19.9363 21.7486 20.7151C21.7486 21.2506 21.9321 21.6886 22.2991 22.0294C22.6662 22.3539 23.1293 22.6054 23.6887 22.7839C24.248 22.9624 25.0083 23.1652 25.9695 23.3924C27.2455 23.6844 28.2854 23.9846 29.0894 24.2929C29.8934 24.6012 30.575 25.0717 31.1343 25.7045C31.7111 26.3211 31.9995 27.1648 31.9995 28.2357Z" fill="white"/>
</svg>
