<svg xmlns="http://www.w3.org/2000/svg" width="45" height="45" fill="none" viewBox="0 0 45 45">
    <rect width="45" height="45" fill="#E4EEFF" rx="22.5"/>
    <path fill="#123399" d="M26.687 31.998h-9.684c-1.496 0-2.706-1.21-2.706-2.706V16.476c0-1.495 1.21-2.706 2.706-2.706h5.055c.428 0 .784.357.784.784 0 .427-.356.783-.784.783h-5.055c-.641 0-1.14.498-1.14 1.14v12.817c0 .64.499 1.139 1.14 1.139h9.755c.64 0 1.14-.499 1.14-1.14v-5.269c0-.427.355-.783.782-.783.428 0 .784.356.784.783v5.27c-.071 1.495-1.282 2.705-2.777 2.705z"/>
    <path fill="#123399" d="M24.907 25.45h-6.124c-.427 0-.783-.357-.783-.784 0-.427.356-.783.783-.783h6.124c.427 0 .783.356.783.783 0 .427-.356.783-.783.783zM24.906 28.227h-6.124c-.427 0-.783-.356-.783-.784 0-.427.356-.783.783-.783h6.124c.427 0 .783.356.783.783 0 .428-.356.784-.783.784zM26.829 13.844l.997 2.065c.071.071.142.142.213.142l2.28.356c.213 0 .284.285.142.499l-1.638 1.637c-.072.072-.072.143-.072.214l.428 2.279c.071.213-.214.427-.427.284l-2.065-1.068c-.072-.07-.143-.07-.285 0l-2.065 1.069c-.214.07-.427-.072-.427-.285l.427-2.279c0-.071 0-.214-.072-.214l-1.637-1.637c-.143-.143-.071-.428.142-.499l2.279-.356c.071 0 .142-.071.213-.142l.997-2.065c.214-.214.499-.214.57 0z"/>
</svg>
