<svg xmlns="http://www.w3.org/2000/svg" width="45" height="45" fill="none" viewBox="0 0 45 45">
    <rect width="45" height="45" fill="#FFE5E6" rx="22.5"/>
    <path fill="#FF4651" d="M27.215 28.958c-.793-2.364-2.606-4.165-4.873-4.953 1.36-.9 2.154-2.364 2.154-4.052.113-2.814-2.154-4.953-4.874-4.953-2.72 0-4.873 2.139-4.873 4.84 0 1.689.906 3.152 2.153 4.053-2.267.788-4.08 2.589-4.873 4.953-.114.45.113.9.566 1.013h.227c.34 0 .68-.225.794-.563.906-2.476 3.286-4.165 6.006-4.165s5.1 1.689 6.007 4.277c.113.45.68.676 1.02.563.453-.112.68-.563.566-1.013zm-7.593-5.853c-1.813 0-3.173-1.464-3.173-3.265 0-1.8 1.473-3.151 3.173-3.151s3.174 1.463 3.174 3.151c.113 1.801-1.36 3.265-3.174 3.265zM25.741 16.916c0-.45.34-.9.907-.9h4.986c.34.112.794.45.794.9s-.34.9-.907.9h-4.986c-.454 0-.794-.337-.794-.9zM32.428 20.518c0 .45-.34.9-.906.9h-3.854c-.453 0-.906-.337-.906-.9s.34-.9.906-.9h3.854c.453.112.906.45.906.9zM32.428 24.12c0 .45-.34.9-.906.9h-1.587c-.453 0-.907-.338-.907-.9 0-.564.34-.901.907-.901h1.587c.453.112.906.45.906.9z"/>
</svg>
