<svg xmlns="http://www.w3.org/2000/svg" width="45" height="45" fill="none" viewBox="0 0 45 45">
    <rect width="45" height="45" fill="#FFF7E0" rx="22.5"/>
    <path fill="#FB0" d="M23.736 11.155c.39.389.39 1.037 0 1.426L19.2 16.988c-.13.13-.389.26-.648.26-.26 0-.518-.13-.648-.26l-1.426-1.425-3.76 3.759c-.259.13-.518.26-.648.26s-.518-.13-.777-.26c-.39-.39-.39-1.037 0-1.426l4.407-4.408c.26-.13.519-.259.778-.259.26 0 .518.13.648.26l1.426 1.425 3.76-3.759c.388-.389 1.037-.389 1.425 0zM26.59 17.023h-4.02c-3.889 0-7 3.112-7 7 0 0 0 1.167.39 2.075.777 2.592 3.11 4.667 5.962 4.926v2.074c0 .389.13.648.519.907.13.13.26.13.518.13.13 0 .39 0 .519-.13 2.593-1.555 5.444-3.24 5.833-3.37 2.723-1.037 4.408-3.63 4.408-6.482-.13-4.018-3.24-7.13-7.13-7.13zm1.814 11.667c-.518.26-2.982 1.686-4.667 2.593v-1.296c0-.519-.389-1.037-1.037-1.037h-.13c-2.722 0-5.055-2.334-5.055-5.056 0-2.593 2.204-4.926 5.055-4.926h4.02c2.721 0 5.055 2.333 5.055 5.056 0 2.074-1.296 3.889-3.241 4.666z"/>
</svg>
