<svg xmlns="http://www.w3.org/2000/svg" width="45" height="45" fill="none" viewBox="0 0 45 45">
    <rect width="45" height="45" fill="#D1FFF2" rx="22.5"/>
    <path fill="#29B68D" d="M33.81 22.719c-.245-.368-4.907-8.344-10.92-8.344-6.012 0-10.553 7.976-10.798 8.344-.123.245-.123.613 0 .859.245.368 4.786 8.344 10.798 8.344 5.121 0 9.263-5.787 10.455-7.73.243-.397.617-.81.533-1.268-.013-.073-.036-.143-.067-.205zm-10.92 7.362c-3.242 0-6.261-3.186-7.907-5.355-.685-.902-.685-2.13 0-3.033 1.646-2.169 4.665-5.355 7.907-5.355s6.262 3.186 7.907 5.355c.685.902.687 2.132.01 3.04-1.619 2.169-4.583 5.348-7.917 5.348z"/>
    <path fill="#29B68D" d="M25.957 23.087c0 1.718-1.35 3.068-3.067 3.068-1.718 0-3.068-1.35-3.068-3.068s1.35-3.067 3.068-3.067 3.067 1.35 3.067 3.067z"/>
</svg>
