<svg width="45" height="45" viewBox="0 0 45 45" fill="none" xmlns="http://www.w3.org/2000/svg">
<rect width="45" height="45" rx="22.5" fill="#FFE5E6"/>
<path d="M15.6913 31C15.6913 31 15.686 31 15.6752 31C15.6324 31 15.5841 30.9946 15.5305 30.9839C15.4877 30.9732 15.4448 30.9571 15.4019 30.9357H15.418C15.2894 30.8928 15.1876 30.8124 15.1125 30.6945C15.0375 30.5874 15 30.4641 15 30.3248V18.508C15 17.8114 15.2412 17.2219 15.7235 16.7395C16.2165 16.2465 16.8114 16 17.508 16H28.8585C29.5552 16 30.1447 16.2465 30.627 16.7395C31.12 17.2219 31.3666 17.8114 31.3666 18.508V26C31.3666 26.6967 31.12 27.2915 30.627 27.7846C30.1447 28.2669 29.5552 28.508 28.8585 28.508H18.6656L16.1576 30.8232C16.0932 30.8767 16.0182 30.9196 15.9325 30.9518C15.8574 30.9839 15.7771 31 15.6913 31ZM17.508 17.3666C17.508 17.3666 17.5027 17.3666 17.492 17.3666C17.1811 17.3666 16.9132 17.4791 16.6881 17.7042C16.4737 17.9185 16.3666 18.1811 16.3666 18.492C16.3666 18.492 16.3666 18.4973 16.3666 18.508V28.7974L17.9582 27.3505C18.0118 27.2969 18.0761 27.254 18.1511 27.2219C18.2369 27.1897 18.3226 27.1736 18.4084 27.1736H28.8585C29.1801 27.1736 29.448 27.0665 29.6624 26.8521C29.8875 26.627 30 26.3591 30 26.0482V18.508C30 18.1972 29.8875 17.9293 29.6624 17.7042C29.448 17.4791 29.1801 17.3666 28.8585 17.3666H17.508ZM24.582 25.0836C24.7106 25.0836 24.8232 25.0514 24.9196 24.9871C25.0268 24.9228 25.1072 24.8424 25.1608 24.746H25.1768L26.3183 22.7363H27.8617C28.0547 22.7363 28.2154 22.672 28.3441 22.5434C28.4834 22.4041 28.5531 22.2379 28.5531 22.045C28.5531 21.8628 28.4834 21.7074 28.3441 21.5788C28.2154 21.4394 28.0547 21.3698 27.8617 21.3698H25.9164C25.7878 21.3698 25.6699 21.4019 25.5627 21.4662C25.4662 21.5198 25.3859 21.6002 25.3215 21.7074L24.5498 23.0579L22.7814 20.1158C22.717 20.0193 22.6313 19.9443 22.5241 19.8907C22.4277 19.8264 22.3151 19.7942 22.1865 19.7942C22.0686 19.7942 21.9561 19.8264 21.8489 19.8907C21.7417 19.9443 21.6559 20.0193 21.5916 20.1158L20.2894 22.2701H18.6013C18.4084 22.2701 18.2422 22.3398 18.1029 22.4791C17.9743 22.6077 17.91 22.7685 17.91 22.9614C17.91 23.1436 17.9743 23.3044 18.1029 23.4437C18.2422 23.5723 18.4084 23.6367 18.6013 23.6367H20.6752C20.6752 23.6367 20.6806 23.6367 20.6913 23.6367C20.8092 23.6367 20.9164 23.6099 21.0129 23.5563C21.12 23.492 21.2058 23.4116 21.2701 23.3151L22.1865 21.8039L24.0032 24.7621C24.0675 24.8585 24.1479 24.9389 24.2444 25.0032C24.3516 25.0568 24.4695 25.0836 24.5981 25.0836H24.582Z" fill="#FF4651"/>
</svg>
