<svg width="45" height="45" viewBox="0 0 45 45" fill="none" xmlns="http://www.w3.org/2000/svg">
<rect width="45" height="45" rx="22.5" fill="#E4EEFF"/>
<path d="M25.242 15H21.1347C21.1111 15 21.0816 15 21.0462 15C21.0226 15 20.9931 15 20.9577 15C20.0017 15 19.0988 15.1829 18.249 15.5488C17.3992 15.9147 16.6615 16.4163 16.036 17.0537C15.4104 17.6792 14.9147 18.411 14.5488 19.249C14.1829 20.0988 14 21.0017 14 21.9577C14 22.8901 14.1711 23.7694 14.5134 24.5956C14.8557 25.4218 15.3219 26.1476 15.912 26.7732C16.514 27.3987 17.2162 27.9003 18.0188 28.278C18.8214 28.6557 19.683 28.8681 20.6036 28.9153H20.6213V31.2877C20.6213 31.4293 20.6567 31.5532 20.7275 31.6595C20.7983 31.7775 20.8928 31.8719 21.0108 31.9427C21.058 31.9781 21.1111 32.0017 21.1701 32.0135C21.2409 32.0253 21.3118 32.0312 21.3826 32.0312C21.4534 32.0312 21.5183 32.0194 21.5773 31.9958C21.6481 31.984 21.713 31.9663 21.7721 31.9427C22.2914 31.6241 22.8815 31.2759 23.5425 30.8982C24.2034 30.5087 24.8348 30.1428 25.4368 29.8005C26.0387 29.4465 26.5639 29.1396 27.0124 28.8799C27.4727 28.6321 27.7619 28.4845 27.8799 28.4373C28.5173 28.1659 29.1015 27.8118 29.6326 27.3751C30.1756 26.9502 30.6359 26.4604 31.0135 25.9057C31.3912 25.3391 31.6863 24.7254 31.8987 24.0644C32.1112 23.4035 32.2174 22.7071 32.2174 21.9754C32.2174 21.0194 32.0345 20.1165 31.6686 19.2667C31.3027 18.4169 30.8011 17.6792 30.1638 17.0537C29.5382 16.4163 28.8064 15.9147 27.9685 15.5488C27.1187 15.1829 26.2099 15 25.242 15ZM27.2603 27.0387C27.1069 27.0859 26.8354 27.2217 26.4459 27.4459C26.0446 27.6584 25.5902 27.9121 25.0827 28.2072C24.587 28.4904 24.0677 28.7914 23.5248 29.1101C22.9936 29.4288 22.5097 29.712 22.073 29.9599V28.1895C22.073 27.977 21.9963 27.8 21.8429 27.6584C21.7012 27.5049 21.5242 27.4282 21.3118 27.4282H21.1347C21.0993 27.4282 21.058 27.4282 21.0108 27.4282C20.9754 27.4282 20.9341 27.4282 20.8869 27.4282C20.1433 27.4282 19.4351 27.2866 18.7624 27.0033C18.1014 26.72 17.5231 26.3306 17.0274 25.8348C16.5435 25.3391 16.154 24.7608 15.8589 24.0999C15.5757 23.4389 15.434 22.7307 15.434 21.9754C15.434 21.22 15.5757 20.5118 15.8589 19.8509C16.154 19.1899 16.5435 18.6116 17.0274 18.1159C17.5231 17.6202 18.1014 17.2307 18.7624 16.9474C19.4351 16.6524 20.1433 16.5048 20.8869 16.5048C20.9341 16.5048 20.9754 16.5107 21.0108 16.5225C21.058 16.5225 21.0993 16.5225 21.1347 16.5225H25.242C25.9856 16.5225 26.6879 16.6701 27.3488 16.9651C28.0098 17.2484 28.5822 17.6379 29.0661 18.1336C29.5618 18.6293 29.9513 19.2077 30.2346 19.8686C30.5178 20.5296 30.6595 21.2318 30.6595 21.9754C30.6595 22.5419 30.5768 23.0848 30.4116 23.6041C30.2464 24.1235 30.0103 24.6015 29.7035 25.0382C29.4084 25.4749 29.0543 25.8644 28.6412 26.2066C28.2281 26.5489 27.7796 26.8204 27.2957 27.021L27.2603 27.0387ZM19.3112 20.2935C19.3112 20.0102 19.4115 19.7742 19.6122 19.5853C19.8128 19.3847 20.0489 19.2844 20.3203 19.2844C20.6036 19.2844 20.8396 19.3847 21.0285 19.5853C21.2291 19.7742 21.3295 20.0102 21.3295 20.2935C21.3295 20.565 21.2291 20.801 21.0285 21.0017C20.8396 21.1905 20.6036 21.2849 20.3203 21.2849C20.0489 21.2849 19.8128 21.1905 19.6122 21.0017C19.4115 20.801 19.3112 20.565 19.3112 20.2935ZM24.9057 20.2935C24.9057 20.0102 25.0001 19.7742 25.1889 19.5853C25.3896 19.3847 25.6315 19.2844 25.9148 19.2844C26.1863 19.2844 26.4223 19.3847 26.623 19.5853C26.8236 19.7742 26.9239 20.0102 26.9239 20.2935C26.9239 20.565 26.8236 20.801 26.623 21.0017C26.4223 21.1905 26.1863 21.2849 25.9148 21.2849C25.6315 21.2849 25.3896 21.1905 25.1889 21.0017C25.0001 20.801 24.9057 20.565 24.9057 20.2935ZM26.9239 23.197C26.9475 23.2442 26.9652 23.3032 26.977 23.374C27.0006 23.433 27.0124 23.4979 27.0124 23.5687C27.0124 23.6986 26.977 23.8225 26.9062 23.9405C26.8472 24.0467 26.7705 24.1353 26.6761 24.2061C26.1804 24.513 25.6374 24.7549 25.0473 24.9319C24.4572 25.0972 23.8434 25.1798 23.2061 25.1798C22.5687 25.1798 21.955 25.0972 21.3649 24.9319C20.7747 24.7549 20.2259 24.507 19.7184 24.1884L19.7538 24.2061C19.6476 24.1353 19.565 24.0467 19.5059 23.9405C19.4469 23.8225 19.4174 23.6986 19.4174 23.5687C19.4174 23.3681 19.4882 23.197 19.6299 23.0553C19.7833 22.9019 19.9603 22.8252 20.161 22.8252C20.2318 22.8252 20.2967 22.8311 20.3557 22.8429C20.4266 22.8547 20.4856 22.8783 20.5328 22.9137C20.9105 23.1497 21.3236 23.3386 21.7721 23.4802C22.2324 23.61 22.7104 23.675 23.2061 23.675C23.7018 23.675 24.1739 23.61 24.6224 23.4802C25.0827 23.3386 25.5076 23.1438 25.8971 22.896L25.8794 22.9137C25.9384 22.8901 25.9974 22.8724 26.0564 22.8606C26.1154 22.837 26.1804 22.8252 26.2512 22.8252C26.3928 22.8252 26.5167 22.8606 26.623 22.9314C26.741 22.9904 26.8354 23.0789 26.9062 23.197H26.9239Z" fill="#123399"/>
</svg>
