<svg width="45" height="45" viewBox="0 0 45 45" fill="none" xmlns="http://www.w3.org/2000/svg">
<rect width="45" height="45" rx="22.5" fill="#E4EEFF"/>
<path d="M28.3155 16H16.5907C15.8711 16 15.2566 16.2546 14.7473 16.7639C14.2491 17.2622 14 17.8656 14 18.5741V30.7971C14 30.9411 14.0388 31.0684 14.1163 31.1791C14.1938 31.2898 14.2934 31.3728 14.4152 31.4282H14.4318C14.465 31.4503 14.5038 31.4669 14.548 31.478C14.6034 31.4891 14.6532 31.4946 14.6975 31.4946C14.7086 31.4946 14.7141 31.4946 14.7141 31.4946C14.8027 31.4946 14.8857 31.478 14.9632 31.4448C15.0518 31.4116 15.1293 31.3673 15.1957 31.3119L17.7865 28.9205H28.3155C29.0352 28.9205 29.6441 28.6714 30.1423 28.1732C30.6516 27.6639 30.9062 27.0494 30.9062 26.3298V18.5741C30.9062 17.8656 30.6516 17.2622 30.1423 16.7639C29.6441 16.2546 29.0352 16 28.3155 16ZM29.4946 26.3298C29.4946 26.6508 29.3784 26.9276 29.1459 27.1601C28.9244 27.3815 28.6477 27.4923 28.3155 27.4923H26.4389V25.599C26.4389 25.3776 26.3558 25.1894 26.1898 25.0344C26.0348 24.8794 25.8466 24.8019 25.6251 24.8019C25.4037 24.8019 25.2155 24.8794 25.0605 25.0344C24.9055 25.1894 24.828 25.3776 24.828 25.599V27.4923H23.2669V23.2408C23.2669 23.0194 23.1838 22.8311 23.0178 22.6761C22.8628 22.5211 22.6746 22.4436 22.4531 22.4436C22.2317 22.4436 22.0435 22.5211 21.8885 22.6761C21.7335 22.8311 21.656 23.0194 21.656 23.2408V27.4923H20.0949V20.8826C20.0949 20.6611 20.0174 20.4729 19.8624 20.3179C19.7074 20.1629 19.5192 20.0854 19.2977 20.0854C19.0763 20.0854 18.8826 20.1629 18.7165 20.3179C18.5615 20.4729 18.484 20.6611 18.484 20.8826V27.4923H17.5374C17.4488 27.4923 17.3602 27.5089 17.2716 27.5421C17.1941 27.5753 17.1222 27.6251 17.0557 27.6916L15.4116 29.2194V18.5741C15.4227 18.2531 15.5389 17.9818 15.7604 17.7604C15.9929 17.5279 16.2697 17.4116 16.5907 17.4116H28.3155C28.6477 17.4116 28.9244 17.5279 29.1459 17.7604C29.3784 17.9818 29.4946 18.2531 29.4946 18.5741V26.3298Z" fill="#123399"/>
</svg>
