<svg width="50" height="50" viewBox="0 0 50 50" fill="none" xmlns="http://www.w3.org/2000/svg">
<rect width="50" height="50" rx="25" fill="#9FC4FF"/>
<path d="M24.0599 15.2542C24.3789 14.3761 25.6208 14.3761 25.9397 15.2542L27.756 20.2542C27.8953 20.6378 28.2537 20.8982 28.6616 20.9122L33.9782 21.0944C34.9119 21.1264 35.2956 22.3076 34.5591 22.8823L30.365 26.1547C30.0432 26.4057 29.9063 26.8271 30.0191 27.2193L31.4887 32.332C31.7467 33.2299 30.742 33.9598 29.9678 33.4369L25.5596 30.4594C25.2214 30.2309 24.7783 30.2309 24.4401 30.4594L20.0318 33.4369C19.2576 33.9598 18.2529 33.2299 18.511 32.332L19.9806 27.2193C20.0933 26.8271 19.9564 26.4057 19.6347 26.1547L15.4406 22.8823C14.704 22.3076 15.0878 21.1264 16.0215 21.0944L21.3381 20.9122C21.7459 20.8982 22.1044 20.6378 22.2437 20.2542L24.0599 15.2542Z" stroke="white" stroke-width="3" stroke-linecap="round" stroke-linejoin="round"/>
</svg>
