<svg width="45" height="45" viewBox="0 0 45 45" fill="none" xmlns="http://www.w3.org/2000/svg">
<rect width="45" height="45" rx="22.5" fill="#D1FFF2"/>
<path d="M31.9558 18.5497C31.9079 18.5258 31.8541 18.5078 31.7942 18.4959C31.7343 18.4719 31.6745 18.4599 31.6146 18.4599C31.5308 18.4599 31.4471 18.4719 31.3633 18.4959C31.2914 18.5198 31.2256 18.5557 31.1657 18.6036L27.8798 20.9558V18.4959C27.8798 18.4719 27.8798 18.448 27.8798 18.424C27.8798 18.4001 27.8798 18.3762 27.8798 18.3522C27.8798 17.7297 27.6703 17.1971 27.2514 16.7541C26.8324 16.2993 26.3177 16.0479 25.7072 16H25.6892H16.1727C15.5622 16.0479 15.0474 16.2993 14.6285 16.7541C14.2095 17.1971 14 17.7297 14 18.3522C14 18.3762 14 18.4001 14 18.424C14 18.448 14 18.4719 14 18.4959V26.5041C14 26.5281 14 26.552 14 26.576C14 26.5999 14 26.6238 14 26.6478C14 27.2583 14.2095 27.791 14.6285 28.2459C15.0474 28.7007 15.5622 28.9521 16.1727 29H25.6892C26.3117 28.9521 26.8324 28.7067 27.2514 28.2638C27.6703 27.8089 27.8798 27.2703 27.8798 26.6478C27.8798 26.6238 27.8798 26.5999 27.8798 26.576C27.8798 26.552 27.8798 26.5281 27.8798 26.5041V24.0262L31.1657 26.3785C31.2256 26.4144 31.2914 26.4443 31.3633 26.4682C31.4471 26.4922 31.5308 26.5101 31.6146 26.5221C31.6745 26.5221 31.7343 26.5161 31.7942 26.5041C31.8541 26.4802 31.9079 26.4503 31.9558 26.4144C32.0875 26.3545 32.1892 26.2647 32.261 26.145C32.3448 26.0253 32.3867 25.8936 32.3867 25.75V19.232C32.3867 19.0884 32.3448 18.9567 32.261 18.837C32.1892 18.7053 32.0875 18.6096 31.9558 18.5497ZM26.174 26.5041C26.174 26.7316 26.1202 26.9231 26.0124 27.0787C25.9047 27.2224 25.797 27.2942 25.6892 27.2942H16.1727C16.0649 27.2942 15.9572 27.2224 15.8494 27.0787C15.7537 26.9231 15.7058 26.7316 15.7058 26.5041V18.4959C15.7058 18.2684 15.7537 18.0829 15.8494 17.9392C15.9572 17.7836 16.0649 17.7058 16.1727 17.7058H25.6892C25.797 17.7058 25.9047 17.7836 26.0124 17.9392C26.1202 18.0829 26.174 18.2684 26.174 18.4959V26.5041ZM30.8425 24.2597L28.3108 22.482L30.8066 20.7044L30.8425 24.2597Z" fill="#29B68D"/>
</svg>
