<svg width="50" height="50" viewBox="0 0 50 50" fill="none" xmlns="http://www.w3.org/2000/svg">
<rect width="50" height="50" rx="25" fill="#D8938A"/>
<path d="M25.0002 13.3334C23.3962 13.3334 21.883 13.636 20.4606 14.2413C19.0382 14.8617 17.7974 15.7015 16.7382 16.7607C15.6941 17.8048 14.8618 19.0381 14.2414 20.4605C13.6361 21.8829 13.3335 23.3961 13.3335 25C13.3335 26.604 13.6361 28.1172 14.2414 29.5396C14.8618 30.962 15.6941 32.2028 16.7382 33.262C17.7974 34.3061 19.0382 35.1384 20.4606 35.7588C21.883 36.3641 23.3962 36.6667 25.0002 36.6667C26.6041 36.6667 28.1173 36.3641 29.5397 35.7588C30.9621 35.1384 32.1954 34.3061 33.2395 33.262C34.2987 32.2028 35.1385 30.962 35.7589 29.5396C36.3642 28.1172 36.6668 26.604 36.6668 25C36.6668 23.3961 36.3642 21.8829 35.7589 20.4605C35.1385 19.0381 34.2987 17.8048 33.2395 16.7607C32.1954 15.7015 30.9621 14.8617 29.5397 14.2413C28.1173 13.636 26.6041 13.3334 25.0002 13.3334ZM34.1928 22.0039C34.1928 22.0191 34.1928 22.0418 34.1928 22.072C34.1928 22.0872 34.1928 22.1023 34.1928 22.1174C34.1928 22.1477 34.1928 22.1779 34.1928 22.2082C34.1928 22.2233 34.2003 22.2385 34.2155 22.2536H34.1928C34.1928 22.8135 33.8372 23.3734 33.126 23.9332C32.4148 24.4931 31.4463 24.9622 30.2207 25.3405C30.2207 25.28 30.2207 25.2195 30.2207 25.1589C30.2207 25.0984 30.2207 25.0303 30.2207 24.9546C30.2207 24.879 30.2207 24.7958 30.2207 24.705C30.2207 24.6142 30.2207 24.5234 30.2207 24.4326C30.2207 23.6457 30.1753 22.8816 30.0845 22.1401C30.0088 21.3835 29.8878 20.6421 29.7213 19.9157C29.5549 19.1894 29.3506 18.4782 29.1085 17.7821C28.8664 17.0861 28.5864 16.4127 28.2686 15.762L28.3367 15.8982C29.0328 16.1555 29.6835 16.4808 30.2887 16.8742C30.894 17.2828 31.4463 17.7443 31.9457 18.2588C32.445 18.7733 32.8763 19.3407 33.2395 19.9611C33.6178 20.5815 33.9204 21.2322 34.1474 21.9131L34.1701 22.0039H34.1928ZM25.0002 34.6239C24.7278 34.6239 24.4403 34.4726 24.1376 34.17C23.8199 33.8522 23.5172 33.3982 23.2297 32.8081C22.9422 32.2179 22.685 31.4992 22.458 30.6518C22.231 29.8044 22.057 28.8511 21.936 27.7919C22.3899 27.8524 22.8741 27.9054 23.3886 27.9508C23.9031 27.981 24.4327 27.9962 24.9775 27.9962C24.9926 27.9962 25.0002 27.9962 25.0002 27.9962C25.0153 27.9962 25.0229 27.9962 25.0229 27.9962C25.5525 27.9962 26.0821 27.981 26.6117 27.9508C27.1413 27.9054 27.6634 27.8448 28.1779 27.7692L28.0644 27.7919C27.9433 28.8511 27.7693 29.8044 27.5423 30.6518C27.3002 31.4992 27.0354 32.2179 26.7479 32.8081C26.4604 33.3982 26.1653 33.8522 25.8627 34.17C25.5449 34.4726 25.2574 34.6239 25.0002 34.6239ZM25.0002 26.0668C24.4252 26.0668 23.8577 26.0441 23.2978 25.9987C22.7531 25.9382 22.2083 25.8626 21.6636 25.7718L21.7771 25.7945C21.7771 25.6583 21.7771 25.5221 21.7771 25.3859C21.7771 25.2497 21.7771 25.106 21.7771 24.9546C21.7771 23.4869 21.8754 22.1553 22.0721 20.9598C22.284 19.7644 22.5488 18.7506 22.8666 17.9183C23.1995 17.0709 23.5551 16.4203 23.9334 15.9663C24.3268 15.5124 24.6824 15.2854 25.0002 15.2854C25.3179 15.2854 25.666 15.5124 26.0443 15.9663C26.4226 16.4203 26.7706 17.0709 27.0884 17.9183C27.4061 18.7506 27.6709 19.7644 27.8828 20.9598C28.0795 22.1704 28.1779 23.5171 28.1779 25C28.1779 25.1362 28.1779 25.28 28.1779 25.4313C28.1779 25.5675 28.1779 25.7037 28.1779 25.8399C27.739 25.9004 27.2624 25.9533 26.7479 25.9987C26.2485 26.0441 25.7341 26.0668 25.2044 26.0668C25.1742 26.0668 25.1363 26.0668 25.091 26.0668C25.0607 26.0668 25.0304 26.0668 25.0002 26.0668ZM21.6636 15.9209C21.3609 16.5413 21.0961 17.192 20.8692 17.8729C20.6422 18.5539 20.4455 19.2499 20.279 19.9611C20.1277 20.6723 20.0142 21.3987 19.9386 22.1401C19.8478 22.8967 19.8024 23.6609 19.8024 24.4326C19.8024 24.5234 19.8024 24.6217 19.8024 24.7277C19.8024 24.8336 19.8099 24.9319 19.8251 25.0227V25V25.3859C18.5843 24.9925 17.6007 24.5158 16.8744 23.9559C16.1632 23.3809 15.8076 22.8135 15.8076 22.2536C15.8076 22.2385 15.8076 22.2233 15.8076 22.2082C15.8076 22.1779 15.8076 22.1477 15.8076 22.1174C15.8076 22.1023 15.8076 22.0872 15.8076 22.072C15.8076 22.0418 15.8 22.0115 15.7849 21.9812L15.8076 22.0039C16.0345 21.2927 16.3372 20.6269 16.7155 20.0065C17.0938 19.3861 17.5326 18.8187 18.0319 18.3042C18.5313 17.7897 19.076 17.3282 19.6662 16.9196C20.2715 16.5262 20.9146 16.2009 21.5955 15.9436L21.6636 15.9209ZM15.2855 25.1135C15.9362 25.6583 16.6398 26.1274 17.3964 26.5208C18.1681 26.8991 18.9777 27.179 19.8251 27.3606L19.9159 27.3833C19.9915 28.609 20.1807 29.7893 20.4833 30.9242C20.8011 32.0591 21.2096 33.1486 21.709 34.1926L21.6636 34.0792C20.7254 33.7311 19.8705 33.262 19.0987 32.6719C18.327 32.0818 17.6612 31.4008 17.1013 30.6291C16.5415 29.8422 16.1026 28.9873 15.7849 28.0642C15.4671 27.1261 15.3006 26.1425 15.2855 25.1135ZM28.2459 34.0565C28.7302 33.0729 29.1236 32.0288 29.4262 30.9242C29.7289 29.8044 29.9256 28.6468 30.0164 27.4514V27.3833C30.9092 27.1866 31.7414 26.8915 32.5131 26.4981C33.2849 26.1047 33.9961 25.6431 34.6467 25.1135H34.624C34.6089 26.1425 34.4424 27.1261 34.1247 28.0642C33.8069 28.9873 33.3681 29.8422 32.8082 30.6291C32.2635 31.4008 31.6052 32.0818 30.8335 32.6719C30.0618 33.2469 29.222 33.7084 28.314 34.0565L28.2459 34.0792V34.0565Z" fill="#FFFBF7"/>
</svg>
