<svg xmlns="http://www.w3.org/2000/svg" width="39" height="31" fill="none" viewBox="0 0 39 31">
    <path fill="#FF4651" d="M38.728 25.431c-.413-.415-.413-.969-.619-1.453-.55-1.246-1.305-2.284-1.786-3.53-.619-.83-1.031-1.869-1.58-2.7-1.513-2.353-3.712-4.083-6.048-5.675-.55-.346-1.1-.692-1.787-.761-1.168-.554-2.405-.9-3.641-1.177-1.1-.207-2.2-.553-3.436-.484-.412 0-1.031.07-1.306-.485-.412-.76-.962-1.315-1.374-2.007-.206-.415-.344-.9-.825-1.107-.137-.07-.275-.139-.343-.139-.344-.207-.688-.484-1.031-.76-.137-.07-.275-.209-.412-.278-.138-.069-.275-.138-.481-.069-.413.208-.275.554-.275.9 0 .207-.069.346-.069.553V6.468c.069.207.206.345.344.553.55.623 1.168 1.246 1.718 1.869.343.415.412.76-.275.969-.481.138-.894.276-1.306.484-.069 0-.069.07-.137.07l-.07.068c-.686.416-1.58.554-2.267 1.039 0 0-.069 0-.069.069v.139c0 .138.207.138.207.276v.07c-.069 0-.069.069-.138.069 0 0-.069.069-.137.069-.825-.07-1.306.346-1.718.9-.069.069-.138.138-.138.207-.137.277-.412.554-.618.83v.14c-.069.068-.069.138-.137.207-.07.069-.07.138-.07.138-.068.07-.068.139-.137.277-.068.07-.137.208-.206.277V14.84 14.635c0-.069-.068-.207-.068-.277-.07-.138-.207-.207-.481-.069-2.062 2.284-2.405 4.845-1.031 7.613.206.346.618.623.824.97.756 1.315 1.924 1.799 3.299 2.145 1.305 0 2.611-.138 3.78-.83 1.03-.554 1.51-1.454 2.13-2.354v-.069c.206-.415.48-.83.824-1.177 1.237-1.384 1.65-2.976 1.855-4.706 0-.277-.068-.554-.274-.554-.619-.069-.55-.346-.344-.553.069-.07.069-.139.137-.208.069 0 .069-.07.138-.07s.069 0 .137-.068c.069 0 .138-.07.206-.07.413-.276.275-.692.275-1.107-.069-.485.138-.761.687-.692.55.069 1.1 0 1.65.138 1.236.554 2.473 1.038 3.71 1.523 2.543 1.038 4.673 2.7 6.39 4.845.207.415.62.692.757 1.176v.139c0 .277.206.415.343.553 1.1 1.592 2.13 3.254 2.749 5.053.275.9.48 1.869.962 2.7.206.553.275 1.245.825 1.591 1.168-1.592 1.099-3.184.687-4.845zm-25.22-4.43c-.686.554-1.373.831-2.13.554-.961-.346-1.786-1.038-1.923-2.214-.138-2.008.618-3.6 2.13-4.915 1.237-1.107 2.748-1.73 4.466-1.937.207 0 .481 0 .619-.208.55.138.824.346.48.969-.137.208-.068.484-.137.761-.137 1.177-.137 2.284-.824 3.323-.275.484-.55.968-.825 1.522-.618.692-1.168 1.523-1.855 2.146z"/>
    <path fill="#FF4651" d="M26.977 11.314c-1.306-.346-2.474-.9-3.848-1.107-1.1-.139-2.13-.485-3.23-.415-1.374.138-1.787-1.039-2.336-1.87-.412-.553-.687-1.245-1.237-1.73-.412-.346-.825-.692-1.306-.969-.206-.138-.343-.276-.412-.415-.069-.069-.069-.207-.069-.277v-.069c0-.07.069-.138.069-.138 1.512.692 2.268 2.076 3.161 3.391.55.761.756 1.938 1.993 1.869 2.336-.07 4.466.623 6.596 1.384.275.07.482.139.619.346zM10.691 3.285v.138s0 .07-.069.07c-.55.207-1.03-.07-1.374-.416-1.03-1.246-2.474-1.315-3.917-1.384-.824 0-1.65.207-2.405.415-.618.138-1.03.484-1.237 1.038-.206.485 0 .97.412 1.177.481.277.413-.277.619-.485.275-.277.55-.484.825-.069 0 0 0 .07-.07.07-.205.345-.48.484-.48.9-.069.484-.413.691-.894.414C.59 4.115.59 2.87 2.308 1.693 3.819 1.208 5.33.93 6.912 1.347c.137.069.206.069.343.069.206 0 .481-.07.687.07h.138c.275.137.48.207.756.345l.068.07c.344.345.756.691 1.168.9 0 0 .07.068.138.068.069 0 .069.07.137.07.138.069.275.138.344.346 0 0 0-.07 0 0z"/>
    <path fill="#FF4651" d="M10.829 4.463c-.207.07-.344.139-.482 0-1.236-.622-2.61-.346-3.916-.484-.962-.07-1.924.208-2.886.277-.481 0-.413.415-.481.692-.207.484-.481.83-.962.208.412 0 .755 0 .755-.623 0-.346.207-.554.619-.623.55-.208 1.168-.208 1.718-.346.756-.07 1.443-.07 2.199-.139.206 0 .412-.069.687-.138.069 0 .069 0 .137-.07h.138c.618-.069 1.237.416 1.855.624h.069c.069 0 .137.069.206.069.069.069.137.069.137.138.07 0 .07.07.138.139.137.069.137.138.069.276zM19.76 15.675c-.207 2.284-1.237 4.152-2.75 5.883-.068.069-.068.069-.137.069 0 0-.068 0-.068-.07.137-.553.48-.9.824-1.245 1.168-1.315 1.58-2.976 1.856-4.638 0-.207 0-.345-.206-.415-.275-.138-.207.208-.275.277-.138-.07-.207 0-.275 0-.138 0-.206-.138-.138-.277.275-.415-.068-.969.275-1.384.069.07.138.208.206.277l.069.07c0 .068.069.138.138.207.068.069.068.138.137.138.275.346.55.692.343 1.107zM15.778 9.791c-.481.138-1.031.346-1.512.554-.069.069-.138.069-.275.069 0 0-.069 0-.069-.07.344-.484.962-.415 1.443-.622.894-.346.55-.761.138-1.108-.55-.553-1.237-.969-1.856-1.453-.137-.07-.206-.208-.274-.277-.07-.277-.275-.484-.275-.761l.068-.07c.07-.069.138-.069.138-.069.137 0 .206.139.343.208h.07c.068.07.068.138.136.138.825.762 1.444 1.662 2.13 2.492.413.485.413.761-.205.97z"/>
    <path fill="#FF4651" d="M22.098 12.352c-.687.138-1.65-.346-2.062.208-.343.415-.068 1.384-.137 2.076 0 .346.069.761-.206 1.038 0-.415-.138-.692-.55-.9-.069-.138-.137-.346-.069-.484 0-.07.07-.138.07-.208.068-.069.068-.138.137-.207.343-.346.343-.762.343-1.177 0-.485.206-.761.687-.692.687.07 1.306.07 1.787.346zM38.725 25.431c-.618-.346-.55-1.038-.824-1.522-.481-.9-.825-1.8-1.375-2.7-.137-.276-.206-.484-.206-.83.962 1.661 1.856 3.253 2.405 5.052zM11.033 24.811c-1.1-.07-2.13-.415-2.817-1.315-.413-.623-1.031-1.038-1.306-1.73.206.207.481.346.619.553.824 1.246 2.061 2.008 3.504 2.492zM13.576 4.462l-.069.069c-.618.07-1.168-.138-1.65-.485l-.068-.069v-.139s0-.068.069-.068c.069-.07.206-.139.275-.139.137 0 .206-.069.343-.069h.069c.137-.07.137-.208.206-.277.344.07.756.07.893.554 0 .138.138.415-.068.623zM11.859 12.143c-.138.07-.275.346-.412.277-.962-.415-1.169.554-1.65.969-.068-.07-.068-.07-.068-.139-.069-.207.137-.346.206-.553.48-.554 1.03-1.108 1.718-1.384.068 0 .068.069.068.069v.139l-.068.068v.07c0 .069 0 .138.068.138 0 0 .07.07.07.138v.07c0 .069 0 .138.068.138zM6.912 1.347c-1.58-.277-3.093.138-4.604.346C3.75.932 5.33.724 6.912 1.347zM17.011 21.488c-.55.97-1.03 2.077-2.198 2.423.824-.692 1.443-1.523 2.061-2.423h.137z"/>
    <path fill="#FF4651" d="M14.264 10.276c-.756.623-1.718.692-2.542 1.177v-.07-.138c.687-.554 1.511-.692 2.267-1.038h.069c.069.069.137.069.206.069zM12.752 3.56c-.206.07-.412.07-.55 0-.206-.07-.412-.139-.55-.208h-.068-.069c-.137-.138-.343-.207-.343-.415v-.07c.069-.068.137-.138.206-.138.069-.069.206-.069.275-.069.275 0 .48.277.756.277.137.07.206.208.343.277 0 .138.138.207 0 .346zM14.607 4.253v.208h-.07c-.205.069-.411.069-.618.138-.137.07-.343.07-.274-.138v-.07c.068-.207-.207-.484 0-.692.343.139.687.208.962.554zM33.094 19.966h-.137c-.206-.416-.688-.693-.688-1.177.275.346.756.554.825 1.177zM8.491 14.773c-.069 0-.069 0 0 0-.069.069-.137.069-.206 0-.069-.277.069-.623-.344-.693.07-.276.275-.346.55-.346.206.277.069.485 0 .762-.069.069-.069.207 0 .277zM11.722 2.524s-.069.069-.138.069c-.068.069-.206.069-.275.069-.137 0-.206.07-.274.208-.344.069-.481-.139-.619-.277l-.069-.07.07-.069c.205-.207.411-.069.686-.138.138.07.413 0 .619.208z"/>
    <path fill="#FF4651" d="M12.34 2.87c-.412.069-.825-.416-1.237 0h-.137c.069-.485.412-.277.687-.347.275.07.55.07.687.346zM7.94 1.486c-.343 0-.755.138-1.03-.139.344 0 .687-.138 1.03.139z"/>
    <path fill="#FF4651" d="M13.579 4.463c.069.07.206.139.275.07.206-.693.48-.208.756-.07.137.623.687.692 1.1 1.038.205.208.411.416.617.693-.687-.208-1.168-.762-1.717-1.108-.138-.07-.275-.277-.413-.138-.274.069-.274.207-.137.415.137.346-.069.623-.138.969h-.137c-.137-.277-.481-.415-.618-.692.343-.623-.207-.415-.481-.554-.275-.138-.55-.277-.825-.484-.412-.208-.893-.346-1.374-.485-.619-.415-1.237-.623-1.924-.83-.138-.07-.275-.139-.413-.07-.893.693-1.992.277-2.954.554-.55.139-1.1.346-1.718.139-.619-.416-.688.207-.825.553-.069.415-.137.485-.55.277-.893-.484-1.1-1.661-.068-2.492 1.305-.969 5.497-1.176 6.871.139.275.277.55.623.962.83.275.139.55.208.825.208.137 0 .275 0 .412.07.275.138.55.207.756.415.55.207 1.168.346 1.718.553zM17.633 12.63c-.275 2.214-.55 4.498-2.2 6.228.276-.484.482-1.038.825-1.522.619-1.038.687-2.215.825-3.322 0-.277 0-.485.137-.762.344-.553.069-.83-.48-.969.412-.415.893.139.893.346zM10.621 23.426c-.069.346-.275.346-.48.277-.276 0-.55-.139-.482-.415.069-.346.412-.07.619-.208.274-.07.412.138.343.346zM8.284 14.776h.207c.274.069.412-.277.687-.346-.069.484-.413.761-.756 1.176-.206-.277-.138-.553-.138-.83zM19.419 13.945c-.07.277-.138.554-.138.83-.275-.207-.343-.553-.343-.83h.48zM11.517 11.866c-.206-.208 0-.277.137-.346.138.069.344.138.481.276.138.139.207.346-.137.208-.137-.07-.344.07-.481-.138zM8.629 23.078c.069-.415.275-.415.55-.207-.07.415-.344.277-.55.207z"/>
    <path fill="#FF4651" d="M8.629 23.079c.206 0 .412 0 .55-.208.137.07.274.208.137.277-.206.138-.481.138-.687-.07zM11.516 11.867c.206 0 .412-.07.48.138-.068.07-.137.139-.206.139-.137.07-.274-.07-.274-.277zM10.69 3.216c.276.069.55.138.894.138.069.07 0 .138 0 .208-.137.069-.343.069-.48-.07-.138 0-.276 0-.344-.138-.07 0-.07-.07-.07-.138zM5.195 3.768c.344-.346.756-.139 1.1-.139.48-.069.962.07 1.374-.415.206-.277.619-.07.962 0 .687.208 1.374.346 1.855.97-1.374-.97-2.886-.416-4.397-.416h-.894zM10.484 4.113c.55 0 1.031.07 1.512.346-.137.346-.412.277-.756.208-.137-.07-.343-.138-.48-.208-.07-.138-.138-.277-.276-.346z"/>
    <path fill="#FF4651" d="M11.31 4.669c.274-.07.48-.139.755-.208.138.277.412.346.687.485.275.138.413.415.481.692.138.207.55.277.481.692-.206-.139-.343-.208-.55-.346-.55-.346-.824-.97-1.511-1.038-.069-.07-.206-.208-.344-.277zM11.516 3.562c.137.069.206.138.343.138v.208c-.343 0-.618-.07-.824-.346h.48z"/>
    <path fill="#FF4651" d="M13.235 5.637c-.137-.208-.344-.484-.481-.692h.137c.275.277.619-.415.825 0 .137.415-.55.277-.481.692z"/>
</svg>
