<svg xmlns="http://www.w3.org/2000/svg" width="40" height="36" fill="none" viewBox="0 0 40 36">
    <path fill="#29B68D" d="M12.28 30.282l-.345.105c1.21-.367 2.591-.787 4.026-1.034-1.435.247-3.095.374-4.65.846-.518.158-.69.21-.916.09-.57-.016-.969-.083-1.367-.151.173-.053.12-.226.24-.45 0 0-.052-.173.121-.226-.052-.173-.105-.346.015-.57l-.524-1.729c-.33-.465-.54-1.157-.698-1.675.105.346.435.811.54 1.157-.105-.346-.435-.811-.54-1.157-.923-1.796-1.5-3.696-2.077-5.597l-.945-3.11-.472-1.555c-.157-.518-.367-1.21-.194-1.262.067-.398.135-.796.428-1.074.12-.225.293-.277.639-.382l.173-.053.345-.105.864-.262c2.074-.63 4.372-1.139 5.582-1.506l1.036-.315-1.21.367c1.33-.593 2.66-1.185 3.87-1.552-.173.052-.398-.068-.969-.084l.691-.21c.466-.33 1.848-.75 2.487-1.132-.12.225.398.068.916-.09l-.172.053 5.183-1.574.518-.158 1.33-.592c-.12.225 1.262-.195.57.015.346-.105.52-.158.812-.435l.518-.158c.346-.105.744-.037.97.083.675.361.953.654 1.215 1.518l.892 2.938c.578 1.9 1.328 3.748 2.078 5.596l-.053-.172c.593 1.33 1.133 2.486 1.605 4.041.54 1.157 1.185 2.66 1.568 3.299.037.743-.151 1.366-.392 1.817-.24.45-.654.953-1.24 1.509.173-.053-.12.225-.466.33-.345.105-.466.33-.12.225 1.262-.194 1.157-.54 2.141-1.027.88-.834 1.428-2.133 1.407-3.447-.105-.346-.038-.744-.09-.916l-.21-.691-.42-1.383c-.524-1.728-.876-3.508-1.401-5.236-.908-2.366-1.47-4.837-2.204-7.256-.157-.519-.525-1.728-1.305-2.435-.608-.759-1.682-1.187-2.704-1.443-.57-.016-.968-.083-1.54-.099l-1.209.368c-.69.21-1.21.367-1.675.697-.639.383-1.037.315-1.555.472-2.073.63-4.665 1.417-7.031 2.325l.172-.053c-1.21.367-2.126.457-3.335.824l-.346.105c-.225-.12-6.926 2.67-7.497 2.655l-.346.105c-.69.21-1.727.524-2.261 1.253-.586.555-1.067 1.456-1.323 2.477-.068.399-.084.97.021 1.315l.21.691.158.518.525 1.728c.33.466.487.984.765 1.277-.24.45-.068.398.09.917.021 1.314.404 1.953.367 1.21l.84 2.764c.104.345.262.864.54 1.157.104.345.157.518.037.743.262.864.21.691.3 1.608-.069.398 1.08 2.314.959 2.539l-.053-.173.263.864.315 1.037c.21.69.713 1.104 1.44 1.638.954.654 2.148.857 3.238.715l.864-.262.518-.157 1.037-.315 4.319-1.312c-.052-.173-.518.157-.744.037 1.555-.472 3.163-.772 4.89-1.296.346-.105.744-.038.744-.038l.691-.21.053.173c.466-.33.916-.09 1.435-.247l.345-.105c.053.173.518-.157.571.016l.346-.105c.172-.053 1.916-1.148 2.261-1.253l.173-.053c.345-.105.293-.277.12-.225l.346-.105.345-.105s.173-.052.053.173l.69-.21c-.57-.015-1.261.195-2.005.232l.864-.263c.398.068 1.09-.142 1.435-.247.173-.052.12-.225.466-.33.225.12.345-.105.518-.157l-.691.21c.053.172.57.015.916-.09l.864-.262c-.12.225.173-.053.398.067l.173-.052c-.052-.173-.916.09-.57-.015l.69-.21s-.172.052-.052-.173l.691-.21-.173.052c.346-.104-1.57 1.044-1.052.886-.173.053 1.57-1.043 1.398-.99-.173.052.12-.226-.053-.173l-.12.225c-.346.105-.398-.068-.398-.068.518-.157-1.052.886-.707.78l-.172.053c.172-.052.466-.33.69-.21 0 0 .121-.225.294-.277.173-.053.518-.158.293-.278-1.037.315.429-1.074-.608-.759.57.015-.12.225-.639.383 0 0-.225-.12-.57-.016-.346.105-.173.053-.12.226-.173.052-.519.157-.399-.068-.12.225-.345.105-.69.21-.174.052 0 0-.121.225l-1.21.367c-.172.053-.57-.015-.277-.293.518-.157-.12.225.398.068-.226-.12.518-.157.466-.33-.226-.12-.571-.016-.864.262l-1.037.315s-.052-.173.12-.225l-.345.105s-.173.052 0 0l-.519.157-1.795.923c-.346.105-.398-.068-.519.157 0 0 2.54-.96 2.194-.855-.173.053-2.832 1.238-3.058 1.118-.172.052-.345.105-.293.277-.345.105.12-.225-.225-.12l-.435-.811c-.466.33-1.21.367-1.675.697.172-.052.293-.277.586-.555 0 0 .346-.105.293-.278l-1.037.315-.172.052c-.173.053-.173.053 0 0-.226-.12-1.157.54-1.901.578l-.173.052c-.69.21-1.089.142-1.78.352-.12.225-.12.225.052.173l-.518.157c.466-.33-.916.09-.503-.413l-.691.21s.052.173-.293.277c-.518.158-.346.105-.744.038-.172.052-.052-.173-.052-.173-.639.383-.571-.016-1.09.142-.345.105-1.036.315-.984.488-.638.382-.69.21-.69.21z"/>
    <path fill="#29B68D" d="M7.05 18.664c-.172.052-.397-.068-.622-.189.382.64.885 1.052 1.54.099-.241.45.262.864.382.639.173-.053.173-.053.293-.278l-.173.052.173-.052c.639-.383 1.314-.022 2.163.287.278.293 1.3.549 1.75.79 0 0 .172-.053.225.12l-.225-.12.69-.21-.104-.346.052.173c.12-.226.346-.105.466-.33l.053.172c.518-.157.864-.262 1.089-.142l.052.173.173-.053c.052.173.225.12.052.173.12-.225.398.068.519-.157l2.23-.112c.173-.052.466-.33.692-.21.293-.277.465-.33.586-.555l.691-.21c-.053-.173.293-.278.12-.225-.105-.346-.225-.12-.277-.293-.556-.586-1.006-.827-1.63-1.015-.518.157-.969-.083-1.314.022-.398-.068-.969-.084-1.315.021-.172.053-.225-.12-.225-.12-.345.105-.796-.136-1.141-.03-.173.052-.45-.241-.624-.189-.052-.172-1.21.368-1.262.195-.623-.188-1.178-.774-1.524-.67-.173.053-.12.226-.293.278-.053-.173-.173.053-.173.053-.157-.519-.278-.293-.225-.12-.173.052-.398-.069-.57-.016l-.174.053-.052-.173c-.173.052 0 0-.225-.12-.053-.173-.519.157-.519.157-.052-.173-.157-.518-.33-.466-.45-.24-1.021-.256-1.42-.324.053.173.174-.052.053.173-.398-.068-.45-.24-.848-.309l-.053-.172c-.052-.173 0 0-.173.052l-.052-.173c-.173.053-.053-.172-.225-.12-.053-.173-.173.053-.053-.173l-.413.503s-.173.053-.12.226l-.053-.173-.173.052c.053.173.278.293.33.466l-.172.053c-.053-.173-.053-.173-.278-.293 0 0-.12.225-.173.052l-.052-.173.172-.052-.052-.173-.173.052-.052-.172.052.172.053.173-.173.053s.413-.503.24-.45l-.413.502.053.173.052.173.24-.45-.172.052-.12.225-.12.225c.172-.052-.31.849-.084.969-.037-.744-.037-.744.136-.796l.052.173.053.172s.052.173 0 0c0 0 .173-.052.225.12 0 0 .052.174-.068.399 0 0 .12-.225-.052-.173.052.173-.173.052-.12.225l.345-.105s.173-.052.225.12l.053.174.293-.278s.052.172 0 0l-.346.105c.053.172.466-.33.519-.158l.172-.052.053.173.052.172c.173-.052.226.12.346-.105l-.12.226-.12.225.172-.053c.052.173.173-.052.398.068.052.173.052.173.278.293l.12-.225c-.12.225.105.346-.015.57 0 0 .052.174.172-.052 0 0-.052-.172.12-.225l.053.173.053.173c.173-.053.052.172.225.12l.173-.052c-.173.052-.12.225-.068.398zM28.384 9.35c.173-.052.293-.277.466-.33-.744.038-1.487.075-1 1.059-.503-.414-1.021-.256-.796-.136.053.173-.12.225-.068.398l.12-.225s.053.173-.12.225c-.135.796-.826 1.006-1.465 1.389-.346.105-1.277.765-1.796.923l-.172.052.172-.052c-.12.225-.188.623-.308.848l.225.12-.173.053c.053.173-.068.398-.188.623-.052-.173-.225-.12-.225-.12-.346.105-.413.503-.586.555l-.173.053-.12.225c-.053-.173-.173.053-.226-.12.278.293.105.345-.015.57-.413.504-.827 1.007-1.188 1.682.053.173-.015.571-.188.624.105.345-.188.623.09.916-.293.278-.24.45-.361.676.225.12-.068.398.105.345.225.12.173-.052.346-.105.69-.21 1.157-.54 1.622-.87.24-.45.587-.555.88-.833.293-.278.533-.728.774-1.179l.345-.105.88-.833c.12-.225.345-.105.466-.33l-.053-.173c.225.12.602-1.126.774-1.179.293-.277 1.09-.142 1.383-.42l-.105-.345c.172-.053-.053-.173.12-.225.45.24.398.068.173-.053.12-.225.293-.278.293-.278l.12-.225.173-.052c.12-.225.173-.053.345-.105.226.12.068-.398.241-.45.173-.053.398.067.57.015.467-.33.76-.608 1.226-.938-.053-.173 0 0-.226-.12.173-.053.519-.158.812-.436 0 0 .173-.052.225.12.173-.052-.052-.172-.052-.172l.052.172c-.052-.172.225.12.173-.052.052.173 0 0 .173-.053 0 0 .015-.57-.037-.743l-.053-.173.053.173-.053-.173c-.173.053-.398-.068-.57-.015l.172-.053c.173-.052.225.12.398.068l-.052-.173c.052.173 0 0 .172-.052l-.172.052c.052.173.172-.052.172-.052l.12-.225c.053.172 0 0 .226.12l-.053-.173c-.052-.173-.172.053-.225-.12l.173-.053-.053-.172s-.052-.173.173-.053l.158.518-.158-.518-.052-.173.052.173-.225-.12.157.518s-.052-.173.173-.052l-.052-.173-.053-.173c-.12.225-.435-.811-.555-.586.225.12.052.173.052.173l-.225-.12.053.172s-.173.053-.226-.12c.053.173 0 0-.172.052l.052.173-.173.053s-.225-.12-.277-.294c.398.068.503.414.45.241-.225-.12 0 0-.052-.173l-.173.053s-.12.225-.173.052l-.052-.173-.068.399-.173.052s.24-.45.068-.398c0 0-.188.623-.24.45l.052.173s-.053-.173-.226-.12c.053.173-.172.052-.12.225l-.105-.345-.052-.173s-.173.052-.12.225c-.173.053-.069.398-.241.45l.052.173-.345.105c.052.173.052.173.225.12-.053-.172-.225-.12-.45-.24l-.173.053.052.172-.173.053-.052-.173c.052.173-.225-.12-.173.052l-.12.226c-.226-.12-.278-.293-.278-.293z"/>
</svg>
