<svg xmlns="http://www.w3.org/2000/svg" width="46" height="48" fill="none" viewBox="0 0 46 48">
    <path fill="#FB0" d="M17.541 40.741l-.206.086.617-.257 1.029-.428 2.262-.942c-1.816.274-4.078 1.216-4.455.89-.291-.119-.788-.153-1.08-.273-.29-.12-.582-.24-1.335-.89.737-.547-.426-3.92-.426-3.92-.462-.53-.804-1.351-1.06-1.967.17.41.547.736.804 1.352-.171-.411-.633-.942-.804-1.352-2.207-4.142-3.969-8.951-5.815-13.966l-.513-1.232-.514-1.232c-.17-.411-.016-1.199.516-1.661l.411-.171.617-.257 1.851-.77c.908-.138 1.937-.566 2.554-.823l1.234-.514-1.234.514c1.56-.89 3.12-1.78 4.559-2.38-.206.085-.291-.12-1.2.017l.823-.342c.532-.463 2.177-1.148 2.914-1.696-.12.291.497.034.908-.137l-.205.086 5.964-2.484c.206-.085.411-.17.617-.257l1.234-.513c-.12.29.873.359.377.325.908-.137 1.661.513 2.123 1.043 1.916 4.022 3.883 8.746 6.09 12.888l-.085-.206c.89 1.558 1.608 2.704 2.378 4.553.804 1.352 1.78 3.115 2.447 3.56.684 1.642 1.147 2.173 1.951 3.525.035-.496.804 1.352.753.65-.222-1.112-.427-1.027-.564-1.934-1.504-4.193-2.923-8.18-4.428-12.374-1.317-2.584-2.6-5.665-3.712-8.335l-.94-2.26-.513-1.231c-.257-.617-.634-.942-1.096-1.472-1.763-1.917-4.333-2.293-6.184-1.522l-1.028.428c-.206.086-.497-.034-.908.137-2.468 1.028-5.553 2.312-8.141 3.631l.205-.086c-1.44.6-2.553.823-3.993 1.422l-.411.171s-2.057.857-4.028 1.918c-.617.257-1.029.428-1.56.89l-.823.343c-.411.172-.617.257-.737.548-.943.634-1.389 1.302-1.509 1.593-.205.085-.12.29-.24.582-.566.958-.841 2.037-.62 3.15-.034.495.223 1.112.308 1.317.171.41.342.822.222 1.113.479 1.728 1.077 3.166 1.59 4.398.462.53.719 1.147 1.096 1.472-.035.496.462.53.427 1.027.188 1.609.735 2.345.599 1.437l1.368 3.287c.171.41.342.821.804 1.352.171.41.257.616.137.907.427 1.026.342.821.564 1.934-.12.29 1.523 2.498 1.488 2.995l-.085-.206c.256.617.307 1.318.478 1.729.085.205.257.616.136.907l.513 1.232c.72 1.147 1.85 2.122 3.22 2.516 1.37.393 2.98.205 4.01-.224l4.935-2.055c-.085-.205-.617.257-.908.137 1.85-.77 3.787-1.336 5.638-2.106.412-.172.909-.138.909-.138l.822-.342.086.205c.531-.462 1.114-.223 1.525-.394l.411-.171c.086.205.617-.257.703-.052l.411-.17c.206-.087 2.212-1.645 2.623-1.816l.206-.086c.41-.17.325-.376.12-.29l.411-.172.411-.171s.206-.086.086.205l.823-.342c-.703.051-1.526.394-2.434.531l1.029-.428c.496.034 1.113-.223 1.73-.48.206-.085.12-.29.326-.377.291.12.412-.17.617-.256l-.823.342c.086.206.703-.051.909-.137l1.028-.428c-.12.29.206-.086.497.034l.206-.086c-.086-.205-.909.137-.703.052l.823-.343s-.206.086-.086-.205l.617-.257-.206.086c.412-.172-1.594 1.386-1.183 1.215-.205.086 1.8-1.472 1.595-1.387-.206.086.12-.29-.086-.205l.532-.462c-.206.085-.497-.034-.497-.034.411-.172-1.183 1.215-.772 1.044l-.206.085c.206-.085.532-.462.823-.342 0 0 .12-.291.326-.377.206-.085.411-.17.326-.376-1.234.514.395-1.37-.84-.856.498.034-.12.291-.53.462 0 0-.292-.12-.703.052-.411.171-.206.086-.12.29-.206.087-.617.258-.497-.033-.12.29-.411.171-.823.342-.205.086 0 0-.12.291l-1.234.514c-.206.086-.497-.034-.377-.325.617-.257-.12.291.497.034-.29-.12.617-.257.532-.462-.291-.12-.703.051-1.029.428l-1.234.514s-.085-.206.12-.291l-.41.171s-.206.086 0 0l-.618.257-2.091 1.353c-.206.085-.497-.034-.617.257 0 0 2.794-1.405 2.382-1.233-.205.085-3.325 1.866-3.616 1.746-.206.086-.411.172-.326.377-.411.171.12-.291-.291-.12l-.291-.12c-.532.463-1.44.6-1.971 1.062.205-.085.325-.376.651-.753 0 0 .412-.171.326-.377l-1.028.428-.206.086c-.206.086-.206.086 0 0-.291-.12-1.354.805-2.262.942l-.206.086c-.617.257-1.32.308-1.936.565-.12.291-.12.291.085.205l-.617.257c.326-.376-1.114.223-.668-.445l-.822.343s.085.205-.326.377c-.617.257-.412.17-.909.137-.205.085-.085-.206-.085-.206-.532.463-.703.052-1.32.309-.41.171-1.233.514-1.148.719-.788-.154-.668-.445-.668-.445z"/>
    <path fill="#FB0" d="M11.371 21.861c-.205.086-.41.171-.908.137.874.36 1.953.633 1.766-.976.256.616 1.044.77.959.565l.24-.582-.12.29.12-.29c.566-.959 1.765-.976 2.674-1.113.702-.052 2.142-.651 2.639-.617l.205-.086c.377.325.377.325.086.205.326-.376.446-.667.652-.753 0 0-.086-.205-.377-.325l.206-.086c.12-.29.325-.376.445-.667.086.205.086.205.292.12l1.234-.514.29.12.327-.377c.085.205.29.12.29.12.121-.291.412-.172.653-.754.822-.342 1.56-.89 2.417-1.73.12-.29.36-.872.857-.838.12-.291.446-.668.48-1.164.206-.086.326-.377.652-.753-.085-.206.12-.291.035-.497-.291-.12-.206.086-.497-.034-.994-.068-1.816.274-2.519.326-.531.462-1.028.428-1.645.685-.617.257-1.149.72-1.475 1.096-.205.085-.29-.12-.496-.034-.412.17-1.029.428-1.56.89-1.149.72-1.44.6-1.645.685-.086-.205-1.39 1.301-1.475 1.096-.822.343-1.61.189-2.022.36-.206.086-.12.291-.24.582-.086-.205 0 0-.206.086-.462-.53-.497-.034-.291-.12-.12.29-.326.377-.531.462 0 0-.206.086-.12.291 0 0-.206.086-.292-.12-.206.086-.206.086-.497-.034-.085-.205-.531.463-.531.463-.206.085-.582-.24-.788-.154-.703.051-1.44.6-2.057.856.086.205.206-.086.291.12-.411.171-.908.137-1.199.017l-.291-.12-.206.086-.085-.205c.085.205-.206.085-.206.085-.086-.205-.206.086-.291-.12 0 0-.155.788-.36.874l.085.205-.086-.205s.086.205-.205.085c.085.206.17.411.462.53l-.206.086c-.085-.205-.291-.12-.582-.24l.085.206c-.085-.205 0 0-.29-.12l.205-.085c-.086-.205-.291-.12-.291-.12l-.206.086-.086-.206.086.206c.085.205.291.12.171.41l-.206.086.086.206-.206.085s.155-.787-.05-.702l-.155.788.085.205-.085-.205.085.205-.05-.701s-.121.29-.207.085l.086.206.086.205c.205-.086.221 1.112.427 1.027-.085-.206-.085-.206.12-.291 0 0 .086.205.291.12l-.085-.206s.206-.085.085.206c-.085-.206 0 0 .206-.086l-.085-.206.205-.085.171.41c-.205.086-.085-.205-.085-.205.085.206-.206.086-.12.291.085.206.29.12.205-.085l.206-.086.085.205.206-.085.24-.582s.086.205.206-.086c0 0-.446.668-.326.377 0 0 .446-.668.532-.463l-.086-.205.086.205.085.206c.12-.291.206-.086.326-.377 0 0 .086.206-.035.497l.086.205.206-.086.085.206c.086.205.12-.291.411-.172.292.12.292.12.497.035l-.085-.206.205-.085c.171.41.292.12.257.616l.206-.086-.086-.205.291.12.086.205c.908-.137 1.08.273 1.08.273s.205-.085.12-.29c.205-.086.205-.086.29.12zM15.223 28.212c-.206.086-.412.171-.703.052.668.445 1.541.804 1.354-.805.257.616 1.045.77.96.564-.086-.205.12-.29.034-.496l-.12.291.12-.291c.36-.873 1.354-.805 2.057-.856.496.034 1.525-.394 2.022-.36l.205-.086-.29-.12c.581.24.702-.051.822-.342 0 0-.086-.206-.377-.325l.206-.086c.205-.086.411-.171.531-.462.086.205.086.205.291.12l.823-.343.085.205.12-.29c.086.205.292.12.086.205.12-.291.411-.171.446-.668.617-.257 1.354-.805 1.8-1.472.12-.291.155-.788.652-.754.12-.29.24-.582.07-.992.205-.086.325-.377.445-.668-.085-.206.12-.291.035-.497-.291-.12-.206.086-.291-.12-.909.138-1.611.19-2.314.241-.325.377-.822.343-1.234.514-.41.171-.942.633-1.268 1.01l-.291-.12c-.412.172-.823.343-1.149.72-.206.085-.497-.035-.702.05 0 0-.892 1.336-.978 1.13-.617.258-1.285-.187-1.696-.016.085.206-.12.291-.035.497-.085-.206.086.205-.205.085-.377-.325-.292-.12-.206.086l-.411.171s-.206.086-.12.291l-.292-.12c-.205.086-.205.086-.29-.12-.086-.205-.241.583-.327.377-.205.086-.496-.034-.788-.154-.497-.034-1.028.428-1.44.6.086.205.206-.086.292.12-.206.085-.703.051-.994-.069l-.205.086-.206.086-.086-.206c.086.206-.29-.12-.29-.12l-.086-.205-.155.787.085.206-.085-.206s.085.206-.206.086c.086.206.291.12.583.24l-.206.085c-.086-.205-.291-.12-.377-.325l.086.206-.086-.206.206-.085c-.086-.206-.291-.12-.291-.12l-.206.085c-.531.463-.446.668-.531.463l.085.205.086.205-.206.086.085.205-.205.086c.205-.086.36-.873.155-.787l.05.701.086.206-.086-.206.086.206-.051-.702s-.12.291-.206.086l.086.205.085.205c.206-.085.222 1.113.428 1.027-.086-.205-.086-.205.12-.29l.086.205-.086-.206.086.206c-.086-.206 0 0 .205-.086l-.085-.205.205-.086.171.41-.085-.205c.085.206 0 0-.12.291.085.206.085.206.205-.085l.206-.086.086.206.24-.582s.085.205 0 0c0 0-.24.582-.326.376 0 0 .446-.668.532-.462l-.086-.206.086.206.085.205c-.085-.205.206-.085.326-.376 0 0 .085.205-.035.496l.086.205.206-.085.085.205c.085.205.12-.29.411-.171l.292.12-.086-.206c.171.411.291.12.256.616l.206-.085-.085-.206c.085.206 0 0 .29.12l.086.206c.12-.291.086.205.291.12 0 0 .206-.086.12-.292.583.24.669.445.669.445zM16.721 35.298c-.205.085-.205.085-.497-.034.668.445 1.336.89.943-.634.257.616.84.856.754.65-.086-.205.12-.29.034-.496 0 0 .086.205-.12.291 0 0-.085-.205.12-.29.155-.788.943-.634 1.44-.6.291.12 1.114-.223 1.405-.103l.206-.086-.291-.12.24-.582-.171-.41c-.086-.206.12-.292.24-.583l.086.206.617-.257.085.205.377.325c.085.206.291.12.17.411.035-.496.327-.377.241-.582.412-.171.737-.548 1.269-1.01.12-.291.155-.788.24-.582.12-.291.24-.582.07-.993.205-.085.12-.29.24-.582-.086-.205.12-.29-.171-.41-.086-.206-.206.085-.292-.12-.582-.24-.993-.069-1.49-.103-.12.291-.617.257-.823.343-.411.171-.531.462-.651.753l-.292-.12c-.205.086-.617.257-.737.548-.205.086-.29-.12-.497-.034-.085-.205-.566.959-.651.753-.291-.12-.874-.359-1.08-.273.086.205-.12.29-.034.496-.086-.205.085.206-.206.086-.462-.53-.376-.325-.29-.12l-.412.171-.12.291-.086-.205c-.206.086 0 0-.291-.12-.086-.205-.12.291-.326.377-.206.085-.377-.325-.582-.24-.497-.034-.823.343-1.029.429l.086.205c-.206.086-.497-.034-.788-.154l-.086-.205-.085-.206c.085.206-.086-.205-.291-.12l-.086-.205.051.702.086.205-.086-.205s.086.205 0 0c.086.205.291.12.377.325l-.206.086c-.085-.206-.291-.12-.377-.325l.086.205-.086-.205-.085-.206-.206.086-.085-.206.085.206.171.41.086.206-.051-.702.05.702.086.205-.085-.205.085.205-.05-.701s.085.205 0 0l.085.205.085.205c.206-.085.428 1.027.428 1.027l-.086-.205.086.205-.086-.205.086.205c-.086-.205 0 0 0 0l-.086-.205.206-.086.171.411-.085-.205.085.205c.086.205.086.205 0 0l.206-.086.085.206.035-.497s.085.206 0 0c0 0-.035.497-.12.291.085.206.24-.582.326-.376l-.086-.206.086.206.085.205c-.085-.205.206-.086.12-.29l.171.41.086.205.206-.085.085.205c.086.205.12-.291.206-.086.085.206.29.12.29.12l-.085-.205c.171.41.292.12.257.616l-.086-.206.086.206.633.941c-.085-.205.086.206.291.12-.205.085-.085-.206-.085-.206l.085.206z"/>
</svg>
