<?xml version="1.0" encoding="UTF-8"?>
<svg width="94px" height="35px" viewBox="0 0 94 35" version="1.1" xmlns="http://www.w3.org/2000/svg" xmlns:xlink="http://www.w3.org/1999/xlink">
    <!-- Generator: Sketch 48.2 (47327) - http://www.bohemiancoding.com/sketch -->
    <title>Facebook@2x</title>
    <desc>Created with Sketch.</desc>
    <defs></defs>
    <g id="Sales-Page" stroke="none" stroke-width="1" fill="none" fill-rule="evenodd" transform="translate(-933.000000, -4749.000000)">
        <g id="Group-20" transform="translate(901.000000, 4706.000000)">
            <g id="Facebook" transform="translate(32.000000, 43.000000)">
                <polygon id="Shape" fill="#3B5998" fill-rule="nonzero" points="0 0 93.1 0 93.1 35 0 35"></polygon>
                <g id="Group" transform="translate(8.050000, 9.800000)" fill="#FFFFFF">
                    <path d="M42.308,5.194 C41.15755,5.0708 40.1625,5.4194 39.32075,6.43125 L39.32075,0.2254 L36.274,0.5943 L36.274,14.9583 L39.32075,14.9583 L39.32075,14.1057 C39.73165,14.399 40.13135,14.75215 40.59895,14.91945 C42.37415,15.55575 44.71495,15.03705 45.53395,12.66265 C46.05965,11.1391 46.046,9.5774 45.65015,8.03705 C45.2109,6.32555 44.07165,5.38125 42.30765,5.1933 L42.308,5.194 Z M42.763,11.41455 C42.6293,12.36165 41.8754,12.85795 40.98045,12.7883 C40.75645,12.7708 40.5545,12.7253 40.37285,12.6539 C39.65185,12.23985 39.4338,11.5465 39.37045,11.1111 C39.36975,11.1111 39.36905,11.1111 39.36905,11.1118 C39.32005,10.43805 39.2665,9.0293 39.59515,8.3636 C39.8741,7.8533 40.36095,7.5754 41.0067,7.55405 C41.9244,7.52395 42.61845,7.97895 42.75495,8.90995 C42.87605,9.73035 42.88165,10.59485 42.76405,11.41455 L42.763,11.41455 Z M53.1055,5.3711 C52.0471,5.0876 50.9775,5.0911 49.92155,5.37285 C48.33955,5.79425 47.27905,6.79525 46.9378,8.3874 C46.75125,9.2561 46.7138,10.1794 46.7635,11.0705 C46.8762,13.1075 48.1362,14.5593 50.092,15.0101 C50.1193,15.0171 50.148,15.02165 50.176,15.0276 L50.1753,15.0276 L50.1893,15.0311 C50.2649,15.0458 50.3398,15.0598 50.41575,15.07135 L50.4917,15.07835 L50.4938,15.07835 C50.5883,15.09585 50.7024,15.1088 50.8221,15.11825 C51.205,15.15885 51.6922,15.18825 52.0989,15.13995 C52.1017,15.13995 52.1031,15.13925 52.1052,15.1389 C52.1262,15.1389 52.1472,15.1389 52.1675,15.13715 C54.187,15.03215 55.7193,13.75885 56.1666,11.80515 C56.4116,10.73415 56.4116,9.65755 56.17465,8.58515 C55.80295,6.9027 54.78235,5.82015 53.10515,5.37145 L53.1055,5.3711 Z M53.235,11.2602 C53.2245,11.3232 53.214,11.3862 53.2,11.4485 C52.997,12.3473 52.3446,12.8338 51.4745,12.7932 C50.53825,12.7505 49.896,12.20345 49.80605,11.26825 C49.74095,10.58505 49.73605,9.8875 49.79205,9.20395 C49.8813,8.1249 50.5561,7.53445 51.5683,7.55475 C52.40025,7.57085 52.9928,8.0423 53.2042,8.84205 C53.396,9.64705 53.2532,11.07715 53.23465,11.26055 L53.235,11.2602 Z M7.3689,5.3207 L5.194,5.3207 L5.194,3.8745 C5.35325,2.5074 7.61145,2.7671 7.61145,2.7671 L7.61215,2.67365 L7.6111,2.66315 L7.6111,0.4172 L7.609,0.4172 C7.532,0.3983 3.11745,-0.64925 2.2407,2.7104 C2.2407,2.7111 2.2407,2.71215 2.23965,2.71285 L2.2337,2.7349 C2.0958,3.1549 2.10525,5.0785 2.107,5.32035 L0.2226,5.32035 L0.2226,7.89285 L2.2246,7.89285 L2.2246,14.88935 L5.13905,14.88935 L5.13905,7.8925 L7.36855,7.8925 L7.6195,5.32 L7.3689,5.32 L7.3689,5.3207 Z M14.32025,6.5513 C14.28455,6.51175 14.2492,6.4736 14.21875,6.44175 C14.21385,6.4365 14.21,6.4323 14.20475,6.42775 C14.16275,6.3833 14.133,6.35425 14.133,6.35425 C13.447,5.656 13.188,5.48275 12.65005,5.32385 C10.5826,4.71485 8.56975,5.79775 7.93205,7.8778 C7.54075,9.156 7.53515,10.4713 7.76475,11.7663 C8.2607,14.5691 10.34565,15.5078 12.5678,15.0451 C13.2496,14.903 13.7564,14.4781 14.2268,13.8873 C14.2268,13.8873 14.2688,13.8355 14.3206,13.7347 L14.3206,14.96845 L17.164,14.96845 L17.164,5.33155 L14.3206,5.33155 L14.3206,6.5513 L14.32025,6.5513 Z M14.07,11.40055 C13.9748,12.29165 13.2538,12.8268 12.40155,12.79355 C11.5283,12.75925 10.95045,12.29165 10.7618,11.45375 C10.5357,10.26165 10.8003,8.8452 10.8227,8.73075 C11.0509,7.9303 11.63295,7.53445 12.48695,7.55475 C13.32555,7.5733 13.972,8.06925 14.0665,8.9383 C14.15505,9.751 14.1575,10.5875 14.07,11.40055 Z M25.8482,14.2772 C25.71625,13.7942 25.5661,13.3182 25.4212,12.85865 L25.28365,12.34695 C25.28365,12.34695 21.7196,14.05775 21.16415,10.80695 C21.11235,10.2704 21.1281,9.7167 21.20195,9.18715 C21.34055,8.1879 21.95025,7.65275 22.92045,7.56105 C23.2477,7.52955 23.58895,7.54565 23.91305,7.6006 C24.35475,7.67515 24.78595,7.80815 25.2693,7.9275 C25.4373,7.4137 25.6088,6.9055 25.76875,6.3931 C25.79395,6.3126 25.81495,6.24365 25.83175,6.1817 L25.91225,5.8737 C25.89195,5.8331 25.8433,5.79075 25.7782,5.74945 C25.6963,5.6812 25.55665,5.62415 25.3386,5.54435 C25.2511,5.51285 25.1636,5.48485 25.0761,5.45685 C24.99805,5.43235 24.9466,5.41765 24.9466,5.41765 L24.9473,5.41765 C24.01105,5.1499 23.0503,5.12925 22.0738,5.23215 C20.0158,5.44915 18.6186,6.66365 18.2308,8.66915 C18.0278,9.7237 18.03725,10.79155 18.2707,11.8496 C18.6207,13.43405 19.58075,14.4578 21.1421,14.9156 C22.1606,15.21415 23.205,15.2292 24.2438,15.06715 C24.6806,14.9989 25.3071,14.77245 25.75685,14.6111 L25.92835,14.5509 L25.84715,14.27685 L25.84785,14.27755 L25.8482,14.2772 Z M35.22995,10.507 C35.21595,9.84025 35.2254,9.17 35.1309,8.51445 C34.87085,6.71685 33.7764,5.57935 32.00645,5.2822 C31.33095,5.16915 30.61695,5.1842 29.93025,5.24965 C28.0518,5.42815 26.62625,6.59855 26.33365,8.3594 C26.15585,9.4276 26.1331,10.5609 26.2766,11.634 C26.4936,13.2482 27.279,14.2765 28.6384,14.77 L28.6391,14.77 C28.64505,14.77 28.651,14.77105 28.6566,14.77175 L28.6566,14.7728 C29.2768,14.9583 32.3141,15.7528 34.9909,14.4074 L34.88345,14.0133 C34.8824,14.014 34.88065,14.014 34.87995,14.014 C34.7557,13.4883 34.60695,12.9682 34.46625,12.44705 L34.4512,12.39595 C34.4512,12.39595 34.3952,12.4159 34.2972,12.4474 C34.29475,12.4474 34.29195,12.4474 34.2902,12.4481 C34.17295,12.47855 34.05745,12.5146 33.94265,12.5531 C33.92165,12.5601 33.90065,12.5664 33.87895,12.5727 C33.47365,12.6868 32.8944,12.8275 32.28295,12.90625 C31.76915,12.95805 31.25045,12.96015 30.72685,12.91535 C29.87635,12.77535 29.22605,12.31965 29.25685,11.24305 L34.7431,11.24305 C34.78265,11.24305 34.8229,11.24305 34.8621,11.24235 L34.8621,11.24305 C34.8621,11.24305 35.22015,11.2385 35.2352,11.235 L35.2352,11.1286 L35.2296,10.50735 L35.22995,10.507 Z M32.48945,9.19345 L29.19735,9.19345 C29.21485,8.53895 29.29675,7.92995 29.8788,7.55895 C30.4969,7.16695 31.17975,7.1519 31.81535,7.504 C32.45795,7.8589 32.50835,8.5001 32.4898,9.19345 L32.48945,9.19345 Z M76.7767,5.432 L73.5448,5.432 L70.7378,9.8203 L70.7378,0.2345 L67.69105,0.6034 L67.69105,14.9674 L70.7378,14.9674 L70.7378,10.5714 L73.5448,14.9744 L76.7767,14.9744 L73.73065,10.19515 L76.7767,5.432 Z M63.497,5.3697 C62.4386,5.0862 61.369,5.0897 60.312,5.3711 C58.73105,5.7925 57.6709,6.79315 57.3293,8.3846 C57.14275,9.254 57.1053,10.1773 57.155,11.0684 C57.267,13.1061 58.5277,14.5579 60.4828,15.00835 C60.5108,15.01535 60.5395,15.02025 60.5675,15.02655 L60.5668,15.02655 L60.5808,15.02935 C60.6557,15.0444 60.7313,15.0584 60.80725,15.0696 C60.83245,15.07205 60.858,15.0745 60.8832,15.0759 C60.8839,15.0766 60.8846,15.0766 60.8853,15.0766 C60.98085,15.0941 61.0939,15.1074 61.2129,15.11685 C61.5965,15.15745 62.0844,15.18685 62.4904,15.13855 L62.4967,15.13715 C62.5177,15.13715 62.5387,15.13715 62.5583,15.13575 C64.5778,15.03075 66.1108,13.75675 66.5581,11.80375 C66.8031,10.73275 66.8031,9.6558 66.56685,8.58375 C66.19445,6.90095 65.17455,5.81875 63.49735,5.37005 L63.497,5.3697 Z M63.6258,11.25845 C63.6153,11.32215 63.6048,11.38445 63.5908,11.44745 C63.3878,12.3459 62.73575,12.8317 61.8653,12.79145 C60.9294,12.74805 60.2875,12.20135 60.1972,11.2665 C60.1321,10.584 60.12615,9.8861 60.1832,9.20255 C60.27315,8.12315 60.94725,7.53305 61.96015,7.553 C62.79035,7.5691 63.3836,8.04055 63.59465,8.8403 C63.7861,9.6446 63.6447,11.07575 63.62545,11.2588 L63.6258,11.25845 Z" id="Shape"></path>
                </g>
            </g>
        </g>
    </g>
</svg>