<?xml version="1.0" encoding="UTF-8"?>
<svg width="76px" height="55px" viewBox="0 0 76 55" version="1.1" xmlns="http://www.w3.org/2000/svg" xmlns:xlink="http://www.w3.org/1999/xlink">
    <!-- Generator: Sketch 48.2 (47327) - http://www.bohemiancoding.com/sketch -->
    <title>Salesforce</title>
    <desc>Created with Sketch.</desc>
    <defs></defs>
    <g id="Sales-Page" stroke="none" stroke-width="1" fill="none" fill-rule="evenodd" transform="translate(-293.000000, -4739.000000)">
        <g id="Group-3" transform="translate(261.000000, 4706.000000)">
            <g id="Group-2" transform="translate(32.000000, 32.000000)">
                <g id="Salesforce" transform="translate(0.416667, 0.833333)">
                    <g id="g3003" transform="translate(38.022560, 27.492151) scale(-1, 1) rotate(-180.000000) translate(-38.022560, -27.492151) translate(0.022560, 0.492151)" fill="#009ADA" fill-rule="nonzero">
                        <path d="M31.2226494,48.0293524 C33.6423967,50.6174979 37.0112322,52.2226088 40.7370445,52.2226088 C45.6898312,52.2226088 50.0109613,49.3876076 52.3120725,45.1789913 C54.3117842,46.0961976 56.5252545,46.6063662 58.8541544,46.6063662 C67.7871261,46.6063662 75.0292674,39.107437 75.0292674,29.8574776 C75.0292674,20.6064211 67.7871261,13.1074919 58.8541544,13.1074919 C57.7639856,13.1074919 56.6983989,13.2193999 55.6680825,13.4333415 C53.641651,9.72282526 49.780102,7.21586794 45.3478175,7.21586794 C43.4923929,7.21586794 41.7374348,7.65581975 40.1748594,8.43807821 C38.1206393,3.47792328 33.3345843,0 27.7565538,0 C21.9476639,0 16.9970148,3.77305304 15.0967009,9.06454325 C14.2662487,8.8835157 13.4058704,8.78916194 12.5230474,8.78916194 C5.60688799,8.78916194 0,14.6039863 0,21.7781631 C0,26.585816 2.51914506,30.783461 6.26205809,33.0292998 C5.49145835,34.8494495 5.06287236,36.8583068 5.06287236,38.9702949 C5.06287236,47.2207627 11.5878535,53.9089079 19.6358647,53.9089079 C24.3609985,53.9089079 28.5602861,51.6027266 31.2226494,48.0293524" id="path3005"></path>
                    </g>
                    <g id="g3007" transform="translate(13.662180, 25.391528) scale(-1, 1) rotate(-180.000000) translate(-13.662180, -25.391528) translate(10.662180, 21.391528)" fill="#FFFFFF" fill-rule="nonzero">
                        <path d="M0.0687929829,1.09713668 C0.0217660916,0.970965962 0.0858936706,0.944634681 0.100856772,0.922691948 C0.241937446,0.817366827 0.385155706,0.741664396 0.529442759,0.657184871 C1.29469853,0.240272933 2.01720259,0.118490761 2.77283923,0.118490761 C4.31190112,0.118490761 5.26740205,0.958897458 5.26740205,2.31166698 L5.26740205,2.33799827 C5.26740205,3.58873408 4.18898993,4.04294867 3.17684298,4.37099253 L3.04538144,4.414878 C2.28226325,4.66941371 1.62388677,4.88884105 1.62388677,5.40449529 L1.62388677,5.4319237 C1.62388677,5.87297265 2.00865225,6.19772511 2.60503873,6.19772511 C3.26769038,6.19772511 4.05432202,5.97171495 4.56092989,5.68426514 C4.56092989,5.68426514 4.70949211,5.58552284 4.76400056,5.73363629 C4.79392676,5.81263013 5.05043708,6.52138043 5.0771569,6.59817999 C5.10601431,6.68156238 5.05471225,6.74300204 5.00234139,6.77591614 C4.42412439,7.1368741 3.62466724,7.38372986 2.79742147,7.38372986 L2.64351528,7.38263272 C1.23484613,7.38263272 0.251556583,6.50931192 0.251556583,5.25747897 L0.251556583,5.23114769 C0.251556583,3.91129226 1.33638146,3.48340896 2.35280359,3.18498778 L2.51632891,3.13342236 C3.25700245,2.89973225 3.89507186,2.69895623 3.89507186,2.16355353 L3.89507186,2.13722225 C3.89507186,1.64789929 3.48038018,1.28364992 2.81131578,1.28364992 C2.55159908,1.28364992 1.72328452,1.2891356 0.828704794,1.8695209 C0.720756702,1.93425197 0.657697916,1.98142884 0.574332064,2.03299427 C0.530511552,2.06151982 0.420425874,2.11089097 0.37233019,1.96168038 L0.0687929829,1.09713668 Z" id="path3009"></path>
                    </g>
                    <g id="g3011" transform="translate(36.193405, 25.391528) scale(-1, 1) rotate(-180.000000) translate(-36.193405, -25.391528) translate(33.193405, 21.391528)" fill="#FFFFFF" fill-rule="nonzero">
                        <path d="M0.0687929829,1.09713668 C0.0217660916,0.970965962 0.0858936706,0.944634681 0.100856772,0.922691948 C0.241937446,0.817366827 0.385155706,0.741664396 0.529442759,0.657184871 C1.29469853,0.240272933 2.01720259,0.118490761 2.77283923,0.118490761 C4.31190112,0.118490761 5.26740205,0.958897458 5.26740205,2.31166698 L5.26740205,2.33799827 C5.26740205,3.58873408 4.18898993,4.04294867 3.17684298,4.37099253 L3.04538144,4.414878 C2.28226325,4.66941371 1.62388677,4.88884105 1.62388677,5.40449529 L1.62388677,5.4319237 C1.62388677,5.87297265 2.00865225,6.19772511 2.60503873,6.19772511 C3.26769038,6.19772511 4.05432202,5.97171495 4.56092989,5.68426514 C4.56092989,5.68426514 4.70949211,5.58552284 4.76400056,5.73363629 C4.79392676,5.81263013 5.05043708,6.52138043 5.0771569,6.59817999 C5.10601431,6.68156238 5.05471225,6.74300204 5.00234139,6.77591614 C4.42412439,7.1368741 3.62466724,7.38372986 2.79742147,7.38372986 L2.64351528,7.38263272 C1.23484613,7.38263272 0.251556583,6.50931192 0.251556583,5.25747897 L0.251556583,5.23114769 C0.251556583,3.91129226 1.33638146,3.48340896 2.35280359,3.18498778 L2.51632891,3.13342236 C3.25700245,2.89973225 3.89614065,2.69895623 3.89614065,2.16355353 L3.89614065,2.13722225 C3.89614065,1.64789929 3.48038018,1.28364992 2.81131578,1.28364992 C2.55159908,1.28364992 1.72328452,1.2891356 0.828704794,1.8695209 C0.720756702,1.93425197 0.656629123,1.97923457 0.575400857,2.03299427 C0.547612239,2.05164559 0.417219495,2.10321102 0.37233019,1.96168038 L0.0687929829,1.09713668 Z" id="path3013"></path>
                    </g>
                    <g id="g3015" transform="translate(46.799664, 25.533135) scale(-1, 1) rotate(-180.000000) translate(-46.799664, -25.533135) translate(43.299664, 21.033135)" fill="#FFFFFF" fill-rule="nonzero">
                        <path d="M5.34396491,4.38854672 C5.34396491,3.62384245 5.20502183,3.02151442 4.93141082,2.59582538 C4.6610062,2.1745249 4.25165849,1.96936034 3.68092303,1.96936034 C3.10911879,1.96936034 2.70190866,2.17342776 2.43577921,2.59582538 C2.16644338,3.02041728 2.02963787,3.62384245 2.02963787,4.38854672 C2.02963787,5.15215385 2.16644338,5.75338475 2.43577921,6.17468523 C2.70190866,6.59159717 3.10911879,6.79456746 3.68092303,6.79456746 C4.25165849,6.79456746 4.6610062,6.59159717 4.93247962,6.17468523 C5.20502183,5.75338475 5.34396491,5.15215385 5.34396491,4.38854672 M6.62865408,5.80604731 C6.50253651,6.24380485 6.3058786,6.62999696 6.04402432,6.951458 C5.78217004,7.27401619 5.45084421,7.53294044 5.0575284,7.72164795 C4.66528137,7.90925833 4.20142522,8.00470922 3.68092303,8.00470922 C3.15935206,8.00470922 2.6954959,7.90925833 2.30324888,7.72164795 C1.90993306,7.53294044 1.57860724,7.27401619 1.31568416,6.951458 C1.05489867,6.62889982 0.858240765,6.24270771 0.7310544,5.80604731 C0.606005621,5.37048405 0.542946835,4.89432673 0.542946835,4.38854672 C0.542946835,3.88276671 0.606005621,3.40551225 0.7310544,2.97104613 C0.858240765,2.53438573 1.05382988,2.14819362 1.31675295,1.82563544 C1.57860724,1.50307725 1.91100185,1.24525013 2.30324888,1.06202831 C2.6965647,0.878806481 3.15935206,0.785549863 3.68092303,0.785549863 C4.20142522,0.785549863 4.66421258,0.878806481 5.0575284,1.06202831 C5.44977542,1.24525013 5.78217004,1.50307725 6.04402432,1.82563544 C6.3058786,2.14709648 6.50253651,2.53328859 6.62865408,2.97104613 C6.75477165,3.40660939 6.81783044,3.88386385 6.81783044,4.38854672 C6.81783044,4.89322959 6.75477165,5.37048405 6.62865408,5.80604731" id="path3017"></path>
                    </g>
                    <g id="g3019" transform="translate(58.134093, 25.553868) scale(-1, 1) rotate(-180.000000) translate(-58.134093, -25.553868) translate(55.134093, 21.053868)" fill="#FFFFFF">
                        <path d="M5.34396491,2.19427336 C5.3012132,2.32263835 5.18043959,2.27436434 5.18043959,2.27436434 C4.99340082,2.20085618 4.79460532,2.13283371 4.58298431,2.09882247 C4.36815692,2.06481123 4.13195367,2.04725704 3.87864973,2.04725704 C3.25661222,2.04725704 2.76282986,2.23706169 2.40905938,2.61228244 C2.05422011,2.98750318 1.85542462,3.59421976 1.8575622,4.414878 C1.85969979,5.16202808 2.03498184,5.72376206 2.35027577,6.15164536 C2.66343211,6.5773344 3.14011378,6.7956646 3.77604561,6.7956646 C4.30616693,6.7956646 4.71017068,6.73312781 5.1334127,6.59598572 C5.1334127,6.59598572 5.23494803,6.55100312 5.28304371,6.68704806 C5.39526698,7.00741198 5.47863283,7.23671354 5.59833764,7.58889442 C5.63253902,7.68873385 5.54917317,7.73152218 5.51924696,7.74359069 C5.35251526,7.81051602 4.95919944,7.91913256 4.66207499,7.9652123 C4.38418882,8.00909776 4.05927575,8.03213763 3.69802372,8.03213763 C3.15828326,8.03213763 2.67732642,7.93778388 2.26584112,7.74907637 C1.85542462,7.561466 1.50699811,7.30254174 1.23124952,6.97998356 C0.955500927,6.65742537 0.746017502,6.27123326 0.606005621,5.83457286 C0.467062534,5.3990096 0.396522197,4.92065801 0.396522197,4.414878 C0.396522197,3.32103273 0.684027509,2.43674057 1.25155658,1.78942993 C1.82015445,1.13992501 2.67412004,0.80968687 3.78780233,0.80968687 C4.44617881,0.80968687 5.12165597,0.946828955 5.60688799,1.14321642 C5.60688799,1.14321642 5.69987298,1.18929616 5.65925884,1.30010697 L5.34396491,2.19427336 Z" id="path3021"></path>
                    </g>
                    <g id="g3023" transform="translate(64.088241, 25.300577) scale(-1, 1) rotate(-180.000000) translate(-64.088241, -25.300577) translate(60.588241, 21.300577)" fill="#FFFFFF">
                        <path d="M2.13758597,4.38854672 C2.19850717,4.81313862 2.31286801,5.16641663 2.48921886,5.44179793 C2.75534831,5.85980701 3.16148964,6.08910857 3.7322251,6.08910857 C4.30296055,6.08910857 4.68024447,5.85870987 4.9506491,5.44179793 C5.13020632,5.16641663 5.20822821,4.7977787 5.2392232,4.38854672 L2.13758597,4.38854672 Z M6.46299117,5.32221003 C6.35397428,5.74460766 6.08356966,6.17139382 5.90615002,6.36668415 C5.62612626,6.6760767 5.35251526,6.89221262 5.08104184,7.01289766 C4.72620257,7.16869107 4.30082296,7.27182191 3.83482922,7.27182191 C3.29188239,7.27182191 2.79916882,7.1785653 2.39944025,6.98546924 C1.99864288,6.79237319 1.66197309,6.52906038 1.39798122,6.20101652 C1.13398935,5.87406978 0.93519386,5.48458626 0.809076288,5.04244018 C0.681889923,4.60248837 0.617762344,4.12303964 0.617762344,3.61725963 C0.617762344,3.10270253 0.684027509,2.6232538 0.815489046,2.19207909 C0.948019376,1.75761296 1.15964039,1.37471226 1.44607691,1.05763976 C1.73144463,0.738372986 2.09910942,0.488225823 2.53945213,0.31378109 C2.97658846,0.140433495 3.50777857,0.0504682873 4.11805936,0.051565424 C5.37389112,0.0559539707 6.03547397,0.343403781 6.30801619,0.498100053 C6.35611187,0.52552847 6.40206997,0.573802484 6.34435515,0.712041705 L6.06005621,1.52940853 C6.01730449,1.6511907 5.89653089,1.6062081 5.89653089,1.6062081 C5.58551213,1.48771734 5.14303183,1.27487282 4.11164661,1.2770671 C3.43723823,1.27816423 2.93704312,1.48223165 2.62388677,1.80149843 C2.30218009,2.12844516 2.14506752,2.60899103 2.1172789,3.28702149 L6.46619755,3.28263295 C6.46619755,3.28263295 6.5805584,3.28482722 6.59231512,3.39892943 C6.59659029,3.44720345 6.74194614,4.3161357 6.46299117,5.32221003 Z" id="path3025"></path>
                    </g>
                    <g id="g3027" transform="translate(29.259699, 25.300577) scale(-1, 1) rotate(-180.000000) translate(-29.259699, -25.300577) translate(25.759699, 21.300577)" fill="#FFFFFF">
                        <path d="M2.13758597,4.38854672 C2.19957596,4.81313862 2.31286801,5.16641663 2.48921886,5.44179793 C2.75534831,5.85980701 3.16148964,6.08910857 3.7322251,6.08910857 C4.30296055,6.08910857 4.68024447,5.85870987 4.95171789,5.44179793 C5.13020632,5.16641663 5.20822821,4.7977787 5.2392232,4.38854672 L2.13758597,4.38854672 Z M6.46192237,5.32221003 C6.35290549,5.74460766 6.08356966,6.17139382 5.90615002,6.36668415 C5.62612626,6.6760767 5.35251526,6.89221262 5.08104184,7.01289766 C4.72620257,7.16869107 4.30082296,7.27182191 3.83482922,7.27182191 C3.29295118,7.27182191 2.79916882,7.1785653 2.39944025,6.98546924 C1.99864288,6.79237319 1.66197309,6.52906038 1.39798122,6.20101652 C1.13398935,5.87406978 0.93519386,5.48458626 0.809076288,5.04244018 C0.682958716,4.60248837 0.617762344,4.12303964 0.617762344,3.61725963 C0.617762344,3.10270253 0.684027509,2.6232538 0.815489046,2.19207909 C0.948019376,1.75761296 1.15964039,1.37471226 1.44607691,1.05763976 C1.73144463,0.738372986 2.09910942,0.488225823 2.53945213,0.31378109 C2.97658846,0.140433495 3.50777857,0.0504682873 4.11805936,0.051565424 C5.37389112,0.0559539707 6.03547397,0.343403781 6.30801619,0.498100053 C6.35611187,0.52552847 6.40206997,0.573802484 6.34435515,0.712041705 L6.06112501,1.52940853 C6.01730449,1.6511907 5.89653089,1.6062081 5.89653089,1.6062081 C5.58551213,1.48771734 5.14410063,1.27487282 4.11057781,1.2770671 C3.43723823,1.27816423 2.93704312,1.48223165 2.62388677,1.80149843 C2.30218009,2.12844516 2.14506752,2.60899103 2.1172789,3.28702149 L6.46619755,3.28263295 C6.46619755,3.28263295 6.5805584,3.28482722 6.59231512,3.39892943 C6.59659029,3.44720345 6.74194614,4.3161357 6.46192237,5.32221003 Z" id="path3029"></path>
                    </g>
                    <g id="g3031" transform="translate(19.359557, 25.529404) scale(-1, 1) rotate(-180.000000) translate(-19.359557, -25.529404) translate(16.359557, 21.029404)" fill="#FFFFFF" fill-rule="nonzero">
                        <path d="M2.13758597,2.19427336 C1.96764788,2.33360972 1.94413444,2.36871809 1.88641961,2.4586833 C1.80091618,2.59582538 1.75709566,2.79111571 1.75709566,3.0390686 C1.75709566,3.43184354 1.88321324,3.71380766 2.14506752,3.90361231 C2.14186114,3.90251517 2.51914506,4.23823899 3.40624324,4.22617049 C4.02934955,4.2173934 4.58619069,4.12303964 4.58619069,4.12303964 L4.58619069,2.09333679 L4.58725948,2.09333679 C4.58725948,2.09333679 4.03469351,1.97155461 3.41265599,1.93315483 C2.5276954,1.878298 2.13437959,2.1953705 2.13758597,2.19427336 M3.86796181,5.33098713 C3.69161096,5.34415277 3.46288926,5.35183272 3.18927826,5.35183272 C2.81626951,5.35183272 2.45608627,5.30355871 2.11834769,5.21030209 C1.77847152,5.11704548 1.47279673,4.9711263 1.20987366,4.77803024 C0.94588179,4.58383705 0.733191986,4.33588416 0.579285797,4.04185153 C0.425379607,3.7478189 0.347357719,3.40112371 0.347357719,3.01273732 C0.347357719,2.61776812 0.413622884,2.27436434 0.546153214,1.99349735 C0.678683544,1.71153322 0.869997488,1.47674597 1.11368229,1.29571842 C1.3552295,1.11469087 1.65342274,0.981937329 1.99971167,0.901846351 C2.34065663,0.821755373 2.72755969,0.781161316 3.15080171,0.781161316 C3.59648839,0.781161316 4.04110627,0.818463963 4.47182984,0.894166394 C4.89827824,0.968771688 5.4219868,1.07738822 5.56734265,1.11139946 C5.7116297,1.14650783 5.87194865,1.19149043 5.87194865,1.19149043 C5.97989674,1.21891885 5.9713464,1.33740961 5.9713464,1.33740961 L5.96920881,5.4198552 C5.96920881,6.31511873 5.73621194,6.97888642 5.27769975,7.39031268 C4.82132515,7.80064179 4.14905436,8.00800063 3.28012566,8.00800063 C2.9541438,8.00800063 2.42936645,7.96192089 2.11514131,7.89718982 C2.11514131,7.89718982 1.16498435,7.70848231 0.77380612,7.39470122 C0.77380612,7.39470122 0.688302681,7.33984439 0.735329572,7.21696508 L1.04314195,6.36778129 C1.0816185,6.25806762 1.18529142,6.29537027 1.18529142,6.29537027 C1.18529142,6.29537027 1.218424,6.30853591 1.25690055,6.33157578 C2.09376545,6.79895601 3.15187051,6.78469323 3.15187051,6.78469323 C3.62213942,6.78469323 3.98339145,6.6881452 4.22707625,6.49614628 C4.46434829,6.30963305 4.5851219,6.02766892 4.5851219,5.43302084 L4.5851219,5.24431333 C4.21104435,5.29917016 3.86796181,5.33098713 3.86796181,5.33098713" id="path3033"></path>
                    </g>
                    <g id="g3035" transform="translate(53.528210, 26.078116) scale(-1, 1) rotate(-180.000000) translate(-53.528210, -26.078116) translate(51.028210, 22.078116)" fill="#FFFFFF">
                        <path d="M4.27517193,7.67995676 C4.30830451,7.78089333 4.23883297,7.82916735 4.20997556,7.84013872 C4.13622884,7.86976141 3.76642647,7.94985238 3.48105875,7.96850371 C2.93490553,8.00251494 2.63136832,7.90816119 2.35989491,7.78308761 C2.09055907,7.65801403 1.79129704,7.45614088 1.62456533,7.22683931 L1.62456533,7.76992197 C1.62456533,7.8456244 1.57219448,7.90596692 1.49951656,7.90596692 L0.384765474,7.90596692 C0.312087551,7.90596692 0.259716695,7.8456244 0.259716695,7.76992197 L0.259716695,1.11139946 C0.259716695,1.03679416 0.319569102,0.975354509 0.392247025,0.975354509 L1.53478672,0.975354509 C1.60746465,0.975354509 1.66624826,1.03679416 1.66624826,1.11139946 L1.66624826,4.43791787 C1.66624826,4.8844525 1.71434394,5.32988999 1.81053531,5.60965984 C1.9045891,5.88613829 2.03284425,6.1077599 2.19102561,6.26684472 C2.35027577,6.4248324 2.53090178,6.5356432 2.72862849,6.59817999 C2.93063036,6.66181392 3.15400809,6.68265952 3.31218945,6.68265952 C3.53984236,6.68265952 3.78993992,6.622317 3.78993992,6.622317 C3.87330577,6.61244277 3.92033266,6.66510533 3.94812128,6.74300204 C4.02293679,6.94706946 4.2345578,7.55817459 4.27517193,7.67995676" id="path3037"></path>
                    </g>
                    <g id="g3039" transform="translate(41.028554, 25.477777) scale(-1, 1) rotate(-180.000000) translate(-41.028554, -25.477777) translate(37.028554, 18.477777)" fill="#FFFFFF">
                        <path d="M7.55034386,13.1656402 C7.41140078,13.2095256 7.2852832,13.2391483 7.12068908,13.2709653 C6.95395738,13.3016851 6.75516188,13.317045 6.52964656,13.317045 C5.74301493,13.317045 5.123115,13.0888406 4.68811625,12.6390146 C4.2552551,12.1913828 3.96133703,11.5100609 3.81384359,10.6137002 L3.76040395,10.3119877 L2.77283923,10.3119877 C2.77283923,10.3119877 2.65313442,10.3163762 2.62748338,10.1825255 L2.46609564,9.25325076 C2.45433892,9.16547982 2.49174668,9.10952585 2.60717632,9.10952585 L3.56802121,9.10952585 L2.59328201,3.52290588 C2.51739771,3.07307984 2.42975668,2.70334478 2.33249652,2.42247779 C2.23737395,2.14599935 2.14438896,1.93864051 2.02895931,1.78723565 C1.91780484,1.64241361 1.81306313,1.53489422 1.63136832,1.47235742 C1.48173731,1.420792 1.30859284,1.39665499 1.11941649,1.39665499 C1.01467477,1.39665499 0.874662892,1.41420918 0.770989973,1.43615191 C0.668385846,1.45699751 0.613877404,1.48003738 0.535855516,1.51404862 C0.535855516,1.51404862 0.423632253,1.55793409 0.378742948,1.44273473 C0.34347278,1.34728384 0.0869624636,0.624270771 0.0559674671,0.5354027 C0.0260412636,0.446534629 0.0687929829,0.377415018 0.123301425,0.356569421 C0.251556583,0.31048968 0.346679158,0.279769853 0.520892415,0.236981523 C0.762439629,0.178833279 0.966579089,0.175541869 1.15789303,0.175541869 C1.55762161,0.175541869 1.92314881,0.233690113 2.22561722,0.345598054 C2.52915443,0.458603132 2.79421509,0.654990598 3.02934955,0.920497675 C3.28265348,1.20794748 3.44190364,1.50856293 3.59367224,1.91998919 C3.74437205,2.32592976 3.873696,2.83061263 3.97630013,3.41867789 L4.95638329,9.10952585 L6.38856589,9.10952585 C6.38856589,9.10952585 6.5093395,9.10513731 6.53392174,9.24008512 L6.69637827,10.1682628 C6.7070662,10.2571308 6.67072724,10.3119877 6.5542288,10.3119877 L5.16372913,10.3119877 C5.17121068,10.3438046 5.23426947,10.8462932 5.39351962,11.3191591 C5.46192237,11.5199351 5.59017753,11.6834085 5.69812562,11.7953164 C5.80500492,11.9050301 5.92791612,11.9829268 6.06258403,12.0279094 C6.20045833,12.0739892 6.35757089,12.0959319 6.52964656,12.0959319 C6.66003931,12.0959319 6.78936326,12.080572 6.88662342,12.0597264 C7.02129134,12.0301037 7.07366219,12.0147438 7.10893236,12.0037724 C7.25108183,11.9598869 7.2703201,12.0026753 7.29810872,12.072892 L7.63050334,13.0098468 C7.66470471,13.1107833 7.58027007,13.1535717 7.55034386,13.1656402" id="path3041"></path>
                    </g>
                    <g id="g3043" transform="translate(24.513329, 24.564182) scale(-1, 1) rotate(-180.000000) translate(-24.513329, -24.564182) translate(23.013329, 19.064182)" fill="#FFFFFF">
                        <path d="M2.25444067,1.09713668 C2.25444067,1.02253139 2.19770557,0.962188868 2.11897115,0.962188868 L0.869641224,0.962188868 C0.790906807,0.962188868 0.735329572,1.02253139 0.735329572,1.09713668 L0.735329572,10.6246716 C0.735329572,10.6992769 0.790906807,10.7596194 0.869641224,10.7596194 L2.11897115,10.7596194 C2.19770557,10.7596194 2.25444067,10.6992769 2.25444067,10.6246716 L2.25444067,1.09713668 Z" id="path3045"></path>
                    </g>
                </g>
            </g>
        </g>
    </g>
</svg>