<?xml version="1.0" encoding="UTF-8"?>
<svg width="122px" height="35px" viewBox="0 0 122 35" version="1.1" xmlns="http://www.w3.org/2000/svg" xmlns:xlink="http://www.w3.org/1999/xlink">
    <!-- Generator: Sketch 48.2 (47327) - http://www.bohemiancoding.com/sketch -->
    <title>Shopify_logo@2x</title>
    <desc>Created with Sketch.</desc>
    <defs></defs>
    <g id="Sales-Page" stroke="none" stroke-width="1" fill="none" fill-rule="evenodd" transform="translate(-613.000000, -4747.000000)">
        <g id="Group-19" transform="translate(581.000000, 4706.000000)" fill-rule="nonzero">
            <g id="Shopify_logo" transform="translate(32.000000, 41.000000)">
                <path d="M26.12,6.8 C26.1,6.62 25.94,6.54 25.82,6.52 C25.7,6.5 23.08,6.32 23.08,6.32 C23.08,6.32 21.26,4.52 21.08,4.32 C20.88,4.12 20.5,4.18 20.34,4.22 C20.32,4.22 19.94,4.34 19.32,4.54 C18.74,2.8 17.66,1.2 15.78,1.2 L15.62,1.2 C15.08,0.5 14.42,0.18 13.86,0.18 C9.48,0.2 7.4,5.66 6.74,8.44 C5.04,8.96 3.84,9.34 3.68,9.38 C2.74,9.68 2.7,9.7 2.58,10.6 C2.48,11.3 0,30.5 0,30.5 L19.34,34.12 L29.82,31.86 C29.82,31.84 26.14,6.98 26.12,6.8 Z M18.26,4.88 C17.78,5.04 17.22,5.2 16.62,5.38 L16.62,5.02 C16.62,3.94 16.46,3.06 16.22,2.38 C17.2,2.52 17.86,3.62 18.26,4.88 Z M15.04,2.6 C15.3,3.28 15.48,4.24 15.48,5.54 L15.48,5.72 C14.42,6.04 13.26,6.4 12.1,6.76 C12.76,4.28 13.98,3.06 15.04,2.6 Z M13.74,1.38 C13.92,1.38 14.12,1.44 14.3,1.56 C12.9,2.22 11.4,3.88 10.76,7.2 C9.84,7.48 8.92,7.76 8.08,8.02 C8.84,5.5 10.6,1.38 13.74,1.38 Z" id="Shape" fill="#95BF47"></path>
                <path d="M25.82,6.52 C25.7,6.5 23.08,6.32 23.08,6.32 C23.08,6.32 21.26,4.52 21.08,4.32 C21,4.24 20.9,4.2 20.8,4.2 L19.34,34.12 L29.82,31.86 C29.82,31.86 26.14,6.98 26.12,6.82 C26.1,6.64 25.94,6.54 25.82,6.52 Z" id="Shape" fill="#5E8E3E"></path>
                <path d="M15.78,12.32 L14.48,16.16 C14.48,16.16 13.34,15.56 11.96,15.56 C9.92,15.56 9.82,16.84 9.82,17.16 C9.82,18.92 14.4,19.58 14.4,23.7 C14.4,26.94 12.34,29.02 9.58,29.02 C6.26,29.02 4.56,26.96 4.56,26.96 L5.44,24.02 C5.44,24.02 7.18,25.52 8.66,25.52 C9.62,25.52 10.02,24.76 10.02,24.2 C10.02,21.9 6.26,21.8 6.26,18.04 C6.26,14.88 8.54,11.8 13.12,11.8 C14.92,11.82 15.78,12.32 15.78,12.32 Z" id="Shape" fill="#FFFFFF"></path>
                <path d="M42.04,19.52 C41,18.96 40.46,18.48 40.46,17.82 C40.46,16.98 41.2,16.44 42.38,16.44 C43.74,16.44 44.94,17 44.94,17 L45.9,14.08 C45.9,14.08 45.02,13.4 42.44,13.4 C38.84,13.4 36.34,15.46 36.34,18.36 C36.34,20 37.5,21.26 39.06,22.16 C40.32,22.88 40.76,23.38 40.76,24.14 C40.76,24.92 40.14,25.54 38.96,25.54 C37.22,25.54 35.58,24.64 35.58,24.64 L34.56,27.56 C34.56,27.56 36.08,28.58 38.62,28.58 C42.32,28.58 44.98,26.76 44.98,23.48 C45,21.7 43.66,20.46 42.04,19.52 Z M56.8,13.38 C54.98,13.38 53.54,14.24 52.44,15.56 L52.38,15.54 L53.96,7.26 L49.84,7.26 L45.84,28.32 L49.96,28.32 L51.34,21.12 C51.88,18.4 53.28,16.72 54.6,16.72 C55.52,16.72 55.88,17.34 55.88,18.24 C55.88,18.8 55.82,19.5 55.7,20.06 L54.14,28.3 L58.26,28.3 L59.88,19.78 C60.06,18.88 60.18,17.8 60.18,17.1 C60.16,14.78 58.94,13.38 56.8,13.38 Z M69.48,13.38 C64.52,13.38 61.24,17.86 61.24,22.84 C61.24,26.04 63.22,28.6 66.92,28.6 C71.78,28.6 75.08,24.24 75.08,19.14 C75.08,16.18 73.34,13.38 69.48,13.38 Z M67.46,25.44 C66.06,25.44 65.46,24.24 65.46,22.76 C65.46,20.4 66.68,16.54 68.92,16.54 C70.38,16.54 70.86,17.8 70.86,19.02 C70.86,21.56 69.64,25.44 67.46,25.44 Z M85.62,13.38 C82.84,13.38 81.26,15.82 81.26,15.82 L81.2,15.82 L81.44,13.62 L77.8,13.62 C77.62,15.12 77.3,17.38 76.96,19.08 L74.1,34.16 L78.2,34.16 L79.34,28.06 L79.42,28.06 C79.42,28.06 80.26,28.6 81.84,28.6 C86.68,28.6 89.84,23.64 89.84,18.62 C89.86,15.86 88.62,13.38 85.62,13.38 Z M81.68,25.5 C80.6,25.5 79.98,24.9 79.98,24.9 L80.66,21.04 C81.14,18.48 82.48,16.76 83.92,16.76 C85.18,16.76 85.56,17.92 85.56,19.02 C85.56,21.7 83.98,25.5 81.68,25.5 Z M95.74,7.46 C94.42,7.46 93.38,8.5 93.38,9.84 C93.38,11.06 94.16,11.9 95.32,11.9 L95.38,11.9 C96.66,11.9 97.76,11.04 97.8,9.52 C97.8,8.32 97,7.46 95.74,7.46 Z M89.98,28.3 L94.1,28.3 L96.9,13.7 L92.76,13.7 L89.98,28.3 Z M107.38,13.68 L104.52,13.68 L104.66,13 C104.9,11.6 105.74,10.34 107.1,10.34 C107.84,10.34 108.42,10.54 108.42,10.54 L109.22,7.32 C109.22,7.32 108.5,6.96 106.98,6.96 C105.52,6.96 104.06,7.38 102.94,8.34 C101.54,9.54 100.88,11.26 100.56,13 L100.44,13.68 L98.52,13.68 L97.92,16.78 L99.84,16.78 L97.66,28.3 L101.8,28.3 L103.98,16.78 L106.82,16.78 L107.38,13.68 Z M117.3,13.7 C117.3,13.7 114.72,20.2 113.56,23.74 L113.5,23.74 C113.42,22.6 112.48,13.7 112.48,13.7 L108.14,13.7 L110.62,27.1 C110.68,27.4 110.64,27.58 110.54,27.78 C110.06,28.7 109.26,29.6 108.3,30.26 C107.52,30.82 106.66,31.18 105.98,31.42 L107.12,34.92 C107.96,34.74 109.68,34.06 111.16,32.68 C113.04,30.92 114.78,28.2 116.56,24.5 L121.6,13.7 L117.3,13.7 Z" id="Shape" fill="#000000"></path>
            </g>
        </g>
    </g>
</svg>