<svg xmlns="http://www.w3.org/2000/svg" width="45" height="45" fill="none" viewBox="0 0 45 45">
    <rect width="45" height="45" fill="#FFF7E0" rx="22.5"/>
    <path stroke="#FB0" stroke-linecap="round" stroke-linejoin="round" stroke-miterlimit="10" stroke-width="1.5" d="M27.302 20.1c2.043 0 3.7-1.657 3.7-3.7 0-2.044-1.657-3.7-3.7-3.7-2.044 0-3.7 1.656-3.7 3.7 0 2.043 1.656 3.7 3.7 3.7zM27.302 32.298c2.043 0 3.7-1.656 3.7-3.7 0-2.043-1.657-3.7-3.7-3.7-2.044 0-3.7 1.657-3.7 3.7 0 2.044 1.656 3.7 3.7 3.7zM15.102 26.7v2.5h7.7M15.102 18.2v-2.4h7.7M11.8 22.5h7.5"/>
</svg>
