<svg xmlns="http://www.w3.org/2000/svg" width="45" height="45" fill="none" viewBox="0 0 45 45">
    <rect width="45" height="45" fill="#D1FFF2" rx="22.5"/>
    <path stroke="#29B68D" stroke-linecap="round" stroke-linejoin="round" stroke-miterlimit="10" stroke-width="1.5" d="M23.8 19.602c.9 0 1.9.4 2.6 1.1 1.4 1.4 1.4 3.7 0 5.1l-4.5 4.5c-1.4 1.4-3.7 1.4-5.1 0-.5-.5-.8-1-.9-1.6"/>
    <path stroke="#29B68D" stroke-linecap="round" stroke-linejoin="round" stroke-miterlimit="10" stroke-width="1.5" d="M20.5 24.4c-1.2.3-2.4-.1-3.4-1-1.4-1.4-1.4-3.7 0-5.1l4.5-4.5c1.4-1.4 3.7-1.4 5.1 0 .7.7 1.1 1.6 1.1 2.6"/>
</svg>
