<svg xmlns="http://www.w3.org/2000/svg" width="45" height="45" fill="none" viewBox="0 0 45 45">
    <rect width="45" height="45" fill="#E4EEFF" rx="22.5"/>
    <path fill="#123399" d="M26.645 25.841c-.604-.085-1.295-.257-1.813-.428-.346-.17-.777-.17-1.123-.085-.345.085-.777.256-1.036.513l-.518.514c-1.382-.856-2.505-1.969-3.369-3.338l.518-.514c.26-.256.519-.599.519-1.027.086-.342.086-.77-.087-1.112-.259-.6-.345-1.284-.431-1.883-.087-.514-.346-.942-.778-1.284-.345-.342-.863-.513-1.295-.513h-2.16c-.258 0-.604.085-.863.17-.259.172-.432.343-.69.514-.26.171-.346.514-.433.77-.086.257-.086.514-.086.856.26 2.311 1.036 4.45 2.332 6.42 1.122 1.797 2.677 3.337 4.49 4.45 1.9 1.198 4.146 1.968 6.478 2.225h.173c.259 0 .431 0 .69-.086.26-.085.519-.256.778-.427.173-.172.345-.428.518-.685.087-.257.173-.514.173-.856v-2.14c0-.513-.173-.941-.518-1.37-.432-.427-.95-.684-1.469-.684zm.519 2.054v2.14c0 .085 0 .171-.087.342-.086.086-.086.172-.173.257-.086.086-.172.086-.259.171-.086 0-.172.086-.259.086-2.072-.257-4.145-.942-5.872-2.054-1.641-1.027-3.023-2.397-4.06-4.023-1.122-1.712-1.9-3.765-2.072-5.82v-.342c0-.171.086-.171.173-.257 0-.256.086-.256.172-.342.087-.086.173-.086.346-.086h2.159c.172 0 .345.086.518.172.173.085.26.256.26.428.085.684.258 1.454.517 2.14.087.17.087.256 0 .427 0 .171-.086.257-.172.342l-.778.942c-.259.257-.345.684-.086 1.027 1.036 1.797 2.505 3.252 4.318 4.28.345.17.691.17.95-.172l.777-.77c.087-.086.26-.172.346-.172h.432c.69.257 1.381.428 2.159.514.172 0 .345.086.518.257.086.085.173.256.173.513zM25.35 23.27c-.087 0-.26 0-.346-.085-.172-.086-.345-.343-.345-.6v-1.112c-2.073-.257-3.714-2.054-3.714-4.194 0-2.31 1.9-4.279 4.319-4.279h2.418C30.014 13 32 14.883 32 17.28c0 1.711-1.037 3.252-2.677 3.936-.26.086-1.987 1.113-3.541 2.054h-.432zm-.087-8.986c-1.64 0-3.022 1.37-3.022 2.995 0 1.626 1.382 2.996 3.023 2.996h.172c.346 0 .691.257.691.684v.6c1.037-.6 2.418-1.455 2.764-1.541 1.123-.428 1.9-1.54 1.9-2.739 0-1.626-1.382-2.995-3.023-2.995h-2.505z"/>
</svg>
