<svg xmlns="http://www.w3.org/2000/svg" width="45" height="45" fill="none" viewBox="0 0 45 45">
    <rect width="45" height="45" fill="#FFE5E6" rx="22.5"/>
    <path stroke="#FF4651" stroke-linecap="round" stroke-linejoin="round" stroke-miterlimit="10" stroke-width="1.5" d="M28.485 20.544H28.4v-3.942h-3.857v-.086c0-1.629-1.286-2.914-2.915-2.914-1.628 0-3 1.371-3 2.914v.086h-3.943v3.942c1.63 0 2.915 1.286 2.915 2.915 0 1.628-1.286 2.914-2.915 2.914v3.943h4.03c0-1.543 1.285-2.829 2.913-2.829 1.629 0 2.829 1.286 2.915 2.829H28.4v-3.943h.085c1.63 0 2.915-1.286 2.915-2.914 0-1.629-1.286-2.915-2.915-2.915z"/>
</svg>
