<svg xmlns="http://www.w3.org/2000/svg" width="45" height="45" fill="none" viewBox="0 0 45 45">
    <rect width="45" height="45" fill="#E4EEFF" rx="22.5"/>
    <path fill="#123399" d="M28.5 28.5l-10.6-4.8v-3.5l10.6-4.8c.4-.2.5-.6.4-1-.2-.4-.6-.5-1-.4L17 19h-2c-1.1 0-2 .9-2 2v2c0 1.1.9 2 2 2h1.8l-.3 1.4c-.2.9.3 1.8 1.1 2.2l2.2 1.1c.3.1.6.2.9.2.6 0 1.3-.3 1.7-.9l.7-1.2L28 30c.1 0 .2.1.3.1.3 0 .6-.2.7-.4 0-.6-.1-1-.5-1.2zm-12.1-5.1H15c-.3 0-.5-.2-.5-.4v-2c0-.2.2-.5.5-.5h1.5v2.9h-.1zm4.7 4.7c-.1.2-.4.3-.6.2l-2.2-1.1c-.2-.1-.3-.3-.3-.5l.2-1.2 3.4 1.5-.5 1.1z"/>
    <path fill="#123399" d="M30.2 22.8h-.5l.3-1.9h.4c.2 0 .3-.1.4-.2.1-.1.2-.2.2-.4s-.1-.3-.2-.4c-.1-.1-.3-.2-.4-.2h-.1l.2-1.1v-.2c0-.2-.1-.3-.2-.5-.1-.1-.3-.2-.5-.2s-.3 0-.4.1c-.1.1-.2.2-.2.4l-.3 1.4h-2l.2-1v-.2c0-.2-.1-.4-.2-.5-.1-.1-.3-.2-.5-.2s-.3 0-.4.1c-.1.1-.2.2-.2.4l-.3 1.4h-.8c-.2 0-.3.1-.5.2-.1.1-.2.3-.2.4 0 .2.1.3.2.5.1.1.3.2.5.2h.6l-.3 1.9h-.4c-.2 0-.3.1-.4.2-.1.1-.2.3-.2.5s.1.3.2.5.3.2.4.2h.2l-.2 1.1v.2c0 .2.1.3.2.5.1.1.3.2.5.2.1 0 .3 0 .4-.1.1-.1.2-.2.2-.3L26 24h2l-.2 1.1v.2c0 .2.1.3.2.5.1.1.3.2.5.2s.3 0 .4-.1c.1-.1.2-.2.2-.3l.3-1.5h.8c.2 0 .3-.1.5-.2.1-.1.2-.3.2-.4 0-.2-.1-.3-.2-.5-.2-.2-.3-.2-.5-.2zm-1.9 0h-2l.4-1.8h2l-.4 1.8z"/>
</svg>
