<svg xmlns="http://www.w3.org/2000/svg" width="45" height="45" fill="none" viewBox="0 0 45 45">
    <rect width="45" height="45" fill="#FFE5E6" rx="22.5"/>
    <path fill="#FF4651" d="M23.158 32H21.86c-.546 0-1.026-.176-1.44-.527-.416-.34-.67-.767-.765-1.282v-.017l-.16-.913c-.178-.082-.35-.17-.516-.264-.154-.094-.308-.193-.462-.299l.018.018-.872.281c-.118.047-.243.082-.373.105-.119.024-.25.036-.392.036-.414 0-.794-.106-1.137-.317-.344-.21-.611-.48-.8-.807v-.018l-.659-1.071c-.095-.164-.172-.34-.23-.527-.048-.187-.072-.38-.072-.58 0-.339.071-.655.213-.948.143-.292.338-.538.587-.737l.711-.597v-.123-.14-.141-.158V22.85v-.14-.141-.14.017l-.71-.597c-.25-.211-.445-.463-.588-.755-.142-.293-.213-.603-.213-.931 0-.21.024-.41.071-.597.06-.188.136-.363.231-.527v.018l.658-1.124c.19-.328.45-.586.783-.773.344-.199.717-.299 1.12-.299.142 0 .279.012.409.036.142.023.273.058.391.105l.872.316c.142-.094.29-.187.444-.281.154-.094.314-.176.48-.246l.036-.017.16-.931c.095-.527.344-.966.747-1.317.415-.351.9-.527 1.458-.527h1.316c.545 0 1.02.176 1.422.527.415.34.67.767.765 1.282v.017l.16.913c.19.082.362.17.516.264.166.094.326.193.48.299l-.036-.018.89-.281c.106-.047.225-.082.355-.105.13-.024.26-.036.391-.036.415 0 .794.106 1.138.317.344.21.617.48.818.807v.018l.64 1.124c.084.152.149.316.196.491.047.176.071.358.071.545 0 .34-.07.655-.213.948-.13.281-.32.521-.57.72v.018l-.71.597v.561-.017.562-.017l.71.597c.25.199.445.445.588.737.142.293.213.609.213.948 0 .2-.03.393-.089.58-.047.187-.119.363-.213.527l-.623 1.071c-.201.34-.474.615-.818.826-.344.21-.723.316-1.138.316-.13 0-.26-.012-.391-.036-.13-.023-.255-.058-.373-.105h.017l-.889-.316c-.13.094-.278.187-.444.281-.154.094-.315.176-.48.246l-.036.017-.16.931c-.083.527-.332.966-.747 1.317s-.895.527-1.44.527h-.018zm-4.517-4.9c.095 0 .184.018.267.053.083.024.154.059.213.106.19.152.392.292.605.421.225.117.456.222.694.316h.035c.119.059.22.14.302.246.083.094.143.205.178.334l.231 1.3c.024.175.101.315.232.42.13.106.284.159.462.159h1.298c.178 0 .332-.053.462-.158.13-.106.214-.24.25-.404v-.018l.266-1.282c.024-.129.077-.24.16-.334.083-.105.178-.181.285-.228l.017-.017c.25-.094.486-.205.712-.334.225-.129.438-.27.64-.421h-.018c.06-.047.13-.082.213-.106.083-.035.166-.052.25-.052.047 0 .094.005.142.017.047.012.088.024.124.035l1.263.457.106.035h.143c.13 0 .249-.03.355-.088.107-.07.19-.158.25-.263h.017l.64-1.124c.036-.047.06-.1.071-.158.012-.07.018-.135.018-.194 0-.105-.024-.204-.071-.298-.036-.094-.095-.176-.178-.246l-1.013-.843c-.084-.07-.149-.152-.196-.246-.047-.105-.071-.216-.071-.333v-.035c0-.024.006-.047.018-.07v-.176-.193-.194-.193.018c0-.14-.006-.275-.018-.404l-.036-.404v.035c-.012-.023-.018-.047-.018-.07v-.07c0-.106.018-.205.054-.299.047-.094.107-.175.178-.246l1.013-.86c.083-.07.142-.147.178-.229.047-.093.071-.193.071-.298 0-.07-.012-.135-.035-.193-.012-.059-.03-.117-.054-.176l-.658-1.106c-.059-.106-.142-.188-.249-.246-.106-.07-.225-.105-.355-.105-.048 0-.095.005-.143.017-.035 0-.07.012-.106.035v-.017l-1.263.456-.142.035c-.036.012-.077.018-.125.018-.094 0-.183-.012-.266-.035-.071-.035-.137-.076-.196-.123-.19-.14-.391-.27-.605-.386-.201-.13-.414-.235-.64-.317l-.035-.017c-.119-.059-.22-.14-.302-.246-.072-.105-.113-.228-.125-.369l-.267-1.317c-.035-.164-.118-.298-.249-.404-.13-.117-.284-.175-.462-.175H21.86c-.178 0-.332.058-.462.175-.13.106-.208.24-.232.404l-.23 1.317c-.025.14-.078.264-.16.369-.084.105-.185.187-.303.246h-.018c-.249.105-.486.222-.711.351-.226.117-.433.258-.623.422v-.018c-.059.047-.13.088-.213.123-.083.023-.166.035-.249.035h-.142c-.048-.012-.09-.03-.125-.053l-1.262-.491c-.036-.012-.077-.018-.125-.018-.035-.012-.077-.017-.124-.017-.13 0-.25.035-.356.105-.107.058-.19.135-.249.228v.018l-.658 1.106c-.035.059-.065.117-.089.176-.012.058-.018.123-.018.193 0 .105.024.205.072.298.047.094.112.17.195.229l1.014.86c.071.07.13.152.178.246.047.094.07.2.07.316v.123c0 .059-.005.123-.017.193v.387c.012.07.018.14.018.21v-.017c0 .047-.006.105-.018.175v.404c.012.059.018.123.018.194v-.018.105c0 .117-.024.229-.071.334-.048.094-.113.175-.196.246l-1.014.843c-.07.058-.13.134-.177.228-.048.094-.072.193-.072.299 0 .07.006.134.018.193.024.058.054.117.09.175l.64 1.107c.059.105.142.193.248.263.119.059.243.088.374.088h.124c.036-.012.077-.023.125-.035h-.018l1.28-.457.107-.035c.047-.012.095-.017.142-.017zm3.859.07c-.58 0-1.126-.11-1.636-.333-.51-.222-.96-.52-1.351-.895-.38-.375-.676-.814-.89-1.318-.225-.515-.337-1.06-.337-1.633s.112-1.118.337-1.633c.214-.503.51-.942.89-1.317.39-.386.841-.685 1.351-.896.522-.222 1.073-.333 1.654-.333.58 0 1.132.11 1.654.333.51.211.954.51 1.333.896.391.375.694.814.907 1.317.225.515.338 1.06.338 1.633v.018c0 .573-.113 1.112-.338 1.615-.225.504-.527.949-.907 1.335-.38.375-.824.667-1.333.878-.522.223-1.073.334-1.654.334H22.5zm0-6.866c-.747.012-1.387.281-1.92.808-.522.515-.783 1.142-.783 1.88 0 .737.267 1.369.8 1.896.534.527 1.174.79 1.92.79.748 0 1.382-.258 1.904-.773.533-.527.806-1.159.817-1.896v-.018c0-.737-.266-1.37-.8-1.896-.533-.527-1.173-.79-1.92-.79H22.5z"/>
</svg>
