<svg xmlns="http://www.w3.org/2000/svg" width="45" height="45" fill="none" viewBox="0 0 45 45">
    <rect width="45" height="45" fill="#D1FFF2" rx="22.5"/>
    <path fill="#29B68D" fill-rule="evenodd" d="M32.156 25.532L29.145 23.4l3.011-2.143v4.274zm-5.525 1.77c0 .372-.302.673-.672.673H14.514c-.372 0-.672-.301-.672-.672v-7.787c0-.371.3-.672.672-.672h11.445c.37 0 .672.3.672.672v7.787zm6.87-8.647c-.307-.16-.677-.131-.956.068l-4.07 2.893v-2.1c0-1.388-1.128-2.516-2.515-2.516H14.515C13.128 17 12 18.128 12 19.515v7.787c0 1.387 1.128 2.515 2.515 2.515H25.96c1.387 0 2.515-1.128 2.515-2.515v-2.117l4.07 2.883c.159.11.347.168.533.168.147 0 .29-.033.426-.103.304-.159.496-.475.496-.819v-7.84c0-.345-.192-.662-.499-.819z" clip-rule="evenodd"/>
    <path fill="#29B68D" fill-rule="evenodd" d="M17.515 20.465c-.733 0-1.328.596-1.328 1.328 0 .733.595 1.329 1.328 1.329.732 0 1.327-.596 1.327-1.329 0-.732-.595-1.328-1.327-1.328z" clip-rule="evenodd"/>
</svg>
