<svg xmlns="http://www.w3.org/2000/svg" width="45" height="45" fill="none" viewBox="0 0 45 45">
    <rect width="45" height="45" fill="#E4EEFF" rx="22.5"/>
    <path fill="#123399" d="M28.626 14.46H27.55v-.78c0-.222-.08-.408-.241-.556-.149-.161-.328-.242-.538-.242-.223 0-.415.08-.575.242-.149.148-.223.334-.223.556v.78h-6.606v-.78c0-.222-.08-.408-.24-.556-.15-.161-.335-.242-.557-.242-.223 0-.415.08-.576.242-.148.148-.222.334-.222.556v.78h-1.058-.018-.019c-.755 0-1.404.265-1.948.797-.532.532-.798 1.176-.798 1.93v11.968c0 .755.266 1.398.798 1.93.532.531 1.175.797 1.93.797h11.967c.755 0 1.398-.266 1.93-.797.532-.532.798-1.175.798-1.93V17.187c0-.754-.266-1.398-.798-1.93-.532-.531-1.175-.797-1.93-.797zm-11.968 1.595h1.058c0 .223.08.415.241.576.161.148.347.222.557.222.223 0 .408-.074.557-.223.16-.16.24-.352.24-.575h6.55v.353c0 .21.075.396.223.556.161.149.353.223.575.223.223 0 .409-.074.557-.223.16-.16.241-.346.241-.556v-.353h1.058c.31 0 .575.112.798.334.235.223.352.495.352.817v1.892H15.527v-1.91c0-.31.11-.576.334-.799.222-.222.488-.334.797-.334zm11.968 14.232H16.658c-.321 0-.593-.105-.816-.316-.21-.222-.315-.494-.315-.816v-8.48h14.231v8.48c0 .322-.111.594-.334.816-.223.21-.488.316-.798.316zm-8.33-7.682h-.112c-.297 0-.575.068-.835.204-.247.124-.452.29-.612.501v.019c-.174.26-.31.55-.409.872-.099.31-.148.637-.148.983v.149c0 .037.006.074.018.111-.012.037-.018.08-.018.13v.13c0 .346.05.68.148 1.002.1.309.235.6.409.872v-.019c.16.21.365.377.612.501.247.112.513.167.798.167h.241c.297 0 .569-.062.816-.185.26-.136.47-.316.631-.539h.019c.16-.272.29-.562.39-.872.098-.321.148-.655.148-1.002 0-.049-.006-.092-.019-.13v-.13-.11c.013-.05.019-.093.019-.13 0-.347-.05-.68-.149-1.002-.099-.322-.235-.619-.408-.891v.018c-.173-.197-.383-.358-.63-.482-.236-.124-.495-.185-.78-.185-.025 0-.05.006-.074.018h-.074.018zm.519 4.12c-.037.123-.105.222-.204.296-.087.074-.192.111-.316.111-.123 0-.235-.037-.334-.11-.099-.075-.167-.168-.204-.28v-.018c-.05-.16-.093-.334-.13-.52-.024-.197-.037-.395-.037-.593V25.5c0-.038.006-.068.019-.093-.013-.025-.019-.056-.019-.093v-.111c0-.198.012-.39.037-.575.037-.198.087-.39.149-.576l-.019.038c.037-.112.105-.205.204-.279.1-.074.21-.111.334-.111.124 0 .229.037.316.111.099.074.167.161.204.26v.018c.061.161.105.34.13.539.037.185.055.377.055.575v.111c0 .037-.006.074-.018.111v-.018.074c0 .223-.019.445-.056.668-.037.21-.093.414-.167.612v-.037h.056zm5.733.296h-.65V23.33v-.037c0-.087-.018-.167-.055-.242-.025-.086-.068-.16-.13-.222s-.136-.105-.223-.13c-.074-.037-.154-.056-.24-.056h-.02-.018c-.111 0-.223.019-.334.056-.111.037-.216.08-.315.13l-1.225.723c-.087.05-.155.118-.204.205-.05.086-.074.179-.074.278 0 .086.012.167.037.241.025.074.062.136.111.186.05.061.105.11.167.148.062.025.13.043.204.056.062-.013.112-.025.149-.037.05-.025.093-.056.13-.093l.612-.353v2.802h-.687c-.086 0-.167.012-.24.037-.075.025-.143.062-.205.111-.05.038-.093.093-.13.167-.024.062-.037.13-.037.204V27.56v-.018c0 .198.056.346.167.445.111.087.285.13.52.13h2.69c.445 0 .668-.192.668-.575v-.038c0-.074-.012-.142-.037-.204-.025-.061-.062-.117-.111-.167-.062-.037-.13-.068-.205-.092-.061-.025-.13-.037-.204-.037-.024 0-.05.006-.074.018h-.037z"/>
</svg>
