<svg xmlns="http://www.w3.org/2000/svg" width="45" height="45" fill="none" viewBox="0 0 45 45">
    <rect width="45" height="45" fill="#E4EEFF" rx="22.5"/>
    <path fill="#123399" d="M31.555 18.605c-.05-.024-.105-.043-.167-.055-.062-.025-.124-.037-.186-.037-.086 0-.173.012-.26.037-.074.024-.142.062-.204.111l-3.395 2.43V18.55v-.074-.075c0-.643-.217-1.193-.65-1.651-.433-.47-.965-.73-1.595-.78h-9.853c-.63.05-1.163.31-1.596.78-.432.458-.649 1.008-.649 1.651V26.974c0 .63.216 1.18.65 1.651.432.47.964.73 1.595.78h9.834c.643-.05 1.181-.304 1.614-.761.433-.47.65-1.027.65-1.67v-.075-2.634l3.395 2.43c.062.037.13.068.204.093.087.025.174.043.26.056.062 0 .124-.006.186-.019.061-.024.117-.055.167-.093.136-.061.24-.154.315-.278.087-.124.13-.26.13-.408V19.31c0-.149-.043-.285-.13-.409-.074-.136-.18-.235-.315-.297zm-5.975 8.22c0 .235-.056.433-.167.594-.111.148-.223.223-.334.223h-9.834c-.111 0-.222-.075-.334-.223-.099-.16-.148-.359-.148-.594V18.55c0-.235.05-.427.148-.575.112-.161.223-.242.334-.242h9.834c.111 0 .223.08.334.242.111.148.167.34.167.575v8.275zm4.824-2.32l-2.616-1.836 2.58-1.837.036 3.674z"/>
</svg>
