<svg xmlns="http://www.w3.org/2000/svg" width="45" height="45" fill="none" viewBox="0 0 45 45">
    <rect width="45" height="45" fill="#E4EEFF" rx="22.5"/>
    <path fill="#123399" d="M25.988 17.14h-.26c-.432-.866-1.063-1.565-1.892-2.097-.816-.532-1.732-.798-2.746-.798h-2.913c-.718 0-1.386.142-2.004.427-.631.272-1.181.643-1.651 1.113-.458.458-.817 1.002-1.077 1.633-.272.63-.408 1.299-.408 2.004 0 .63.105 1.23.315 1.8.21.569.502 1.082.873 1.54.383.445.835.822 1.354 1.132.52.309 1.076.52 1.67.63h.037c.173.532.415 1.027.724 1.485.309.457.668.86 1.076 1.206.42.346.884.63 1.392.853.507.223 1.045.365 1.614.427h.037v1.707c0 .149.03.285.093.408.074.112.173.198.297.26.049.037.105.068.167.093.074.012.148.018.222.018h.019c.074 0 .142-.006.204-.018.062-.025.124-.056.185-.093.52-.31 1.052-.625 1.596-.946l1.466-.854c.445-.26.829-.476 1.15-.65.31-.172.508-.277.594-.315.52-.21.996-.494 1.429-.853.433-.359.804-.76 1.113-1.206.322-.458.57-.959.742-1.503.173-.544.26-1.113.26-1.707 0-.78-.148-1.515-.445-2.208-.297-.693-.705-1.293-1.225-1.8-.507-.52-1.1-.928-1.781-1.224-.693-.31-1.429-.464-2.208-.464h-.019zm-8.962 5.677c-.717-.247-1.305-.68-1.762-1.298-.458-.619-.687-1.318-.687-2.097 0-.495.1-.965.297-1.41.186-.433.44-.81.76-1.132.322-.322.7-.581 1.133-.78.445-.185.915-.278 1.41-.278h2.913c.556 0 1.076.118 1.558.353.483.235.885.55 1.207.946v.019h-1.15c-.78 0-1.516.148-2.209.445-.68.297-1.28.705-1.8 1.225-.52.507-.927 1.107-1.224 1.8-.297.68-.446 1.416-.446 2.207zm10.558 3.823c-.21.099-.73.383-1.559.853-.816.458-1.57.878-2.263 1.262v-1.058c0-.222-.08-.408-.242-.556-.148-.161-.327-.242-.538-.242-.012 0-.024.007-.037.019h-.241c-.569 0-1.1-.111-1.596-.334-.494-.21-.934-.501-1.317-.872-.371-.384-.662-.823-.872-1.317-.21-.495-.316-1.027-.316-1.596 0-.57.106-1.107.316-1.614.21-.495.5-.928.872-1.3.383-.37.823-.667 1.317-.89.495-.21 1.027-.315 1.596-.315h3.284c.57 0 1.101.111 1.596.334.495.21.928.5 1.299.872.37.37.662.81.872 1.317.223.495.334 1.027.334 1.596 0 .853-.241 1.62-.724 2.3-.47.68-1.076 1.182-1.818 1.503h-.019l.056.038z"/>
</svg>
