<svg xmlns="http://www.w3.org/2000/svg" width="45" height="45" fill="none" viewBox="0 0 45 45">
    <rect width="45" height="45" fill="#E4EEFF" rx="22.5"/>
    <path fill="#123399" d="M22.5 31.188c-1.311 0-2.548-.248-3.71-.743-1.151-.507-2.16-1.187-3.025-2.04-.854-.867-1.528-1.875-2.023-3.025-.507-1.15-.76-2.381-.76-3.692 0-1.312.253-2.549.76-3.711.495-1.15 1.17-2.153 2.023-3.006.866-.866 1.874-1.546 3.024-2.041 1.163-.508 2.4-.761 3.711-.761s2.542.253 3.692.76c1.15.495 2.153 1.176 3.006 2.042.866.853 1.553 1.855 2.06 3.006.495 1.162.742 2.4.742 3.71 0 1.312-.247 2.543-.742 3.693-.507 1.15-1.194 2.158-2.06 3.024-.853.854-1.855 1.534-3.006 2.041-1.15.495-2.38.742-3.692.742zm0-17.405c-1.1 0-2.128.21-3.08.631-.965.408-1.806.971-2.524 1.688-.705.718-1.267 1.553-1.688 2.505-.408.965-.612 1.992-.612 3.08 0 1.101.204 2.128.612 3.08.42.965.983 1.807 1.688 2.524.718.705 1.56 1.268 2.524 1.689.952.408 1.98.612 3.08.612 1.088 0 2.115-.204 3.08-.612.953-.421 1.788-.984 2.505-1.689.717-.717 1.28-1.559 1.688-2.523.421-.953.631-1.98.631-3.08 0-1.089-.21-2.116-.63-3.08-.409-.953-.972-1.788-1.689-2.506-.718-.717-1.559-1.28-2.524-1.688-.952-.42-1.973-.63-3.061-.63zm0 12.506c-.581-.012-1.126-.117-1.633-.315-.507-.198-.965-.477-1.373-.835l.019.018c-.087-.074-.155-.16-.204-.26-.05-.11-.075-.228-.075-.352 0-.223.08-.408.242-.557.16-.16.346-.24.556-.24.112 0 .21.018.297.055.1.037.18.086.241.148.26.223.557.402.89.538.347.136.712.204 1.096.204h.074c.025-.012.056-.018.093-.018h-.019c.322-.013.625-.074.91-.186.296-.123.562-.284.797-.482v.018c.062-.061.136-.11.223-.148.099-.037.198-.056.297-.056.235 0 .433.08.593.241.161.161.242.353.242.576 0 .123-.031.24-.093.352-.05.112-.118.204-.204.279-.359.296-.761.538-1.206.723-.433.186-.897.297-1.392.334h-.018l-.353-.037zm-1.707-7.05c0 .296-.105.55-.316.76-.197.21-.445.316-.742.316-.296 0-.55-.106-.76-.316-.21-.21-.316-.464-.316-.76 0-.298.105-.545.316-.743.21-.21.463-.315.76-.315s.545.105.742.315c.21.198.316.445.316.742zm5.548 0c0 .296-.105.55-.316.76-.21.21-.463.316-.76.316s-.55-.106-.761-.316c-.198-.21-.297-.464-.297-.76 0-.298.099-.545.297-.743.21-.21.464-.315.76-.315.297 0 .551.105.761.315.21.198.316.445.316.742z"/>
</svg>
