<svg xmlns="http://www.w3.org/2000/svg" width="45" height="45" fill="none" viewBox="0 0 45 45">
    <rect width="45" height="45" fill="#D1FFF2" rx="22.5"/>
    <path fill="#29B68D" d="M25.967 11.216c-.203-.203-.506-.27-.776-.17l-9.65 3.56c-.201.075-.36.234-.435.436l-3.56 9.65c-.1.269-.034.572.17.775.14.14.329.216.52.216.086 0 .173-.015.255-.046l9.65-3.56c.202-.074.361-.234.436-.436l3.56-9.65c.1-.27.033-.572-.17-.775zm-4.654 9.596l-7.832 2.89 2.89-7.832 7.831-2.89-2.89 7.832z"/>
    <path fill="#29B68D" d="M33.283 18.536l-7.317-7.317-1.042 1.041 6.984 6.984-3.28 8.888-8.888 3.28-6.984-6.984-1.041 1.042 7.317 7.317c.14.14.329.215.52.215.086 0 .172-.014.256-.045l9.649-3.56c.202-.075.361-.234.436-.436l3.56-9.65c.1-.27.033-.572-.17-.775z"/>
    <path fill="#29B68D" d="M22.409 20.869l-1.042 1.041 7.316 7.316 1.042-1.041-7.316-7.316z"/>
</svg>
