<svg xmlns="http://www.w3.org/2000/svg" width="45" height="45" fill="none" viewBox="0 0 45 45">
    <rect width="45" height="45" fill="#FFE5E6" rx="22.5"/>
    <path fill="#FF4651" d="M30.418 18.968v-1.23c.006-.184-.027-.368-.096-.538-.068-.171-.172-.326-.303-.455-.132-.129-.289-.229-.461-.294-.172-.065-.356-.093-.54-.083-.99.052-1.982-.098-2.912-.442-.93-.344-1.78-.874-2.498-1.558-.252-.236-.585-.368-.93-.368-.346 0-.678.132-.93.368-.716.681-1.563 1.21-2.49 1.553-.926.344-1.913.496-2.9.447-.177-.002-.352.032-.515.099-.163.067-.311.166-.436.29-.124.125-.223.273-.29.436-.067.163-.1.338-.1.515v1.26c-.08 4.13-.2 10.38 7.25 13h.88c7.47-2.62 7.35-8.87 7.27-13zm-7.69 11.52c-6.37-2.22-6.27-7.35-6.19-11.52v-1.14c1.133.043 2.264-.14 3.326-.536 1.063-.396 2.036-1 2.864-1.774.823.778 1.792 1.386 2.85 1.79 1.06.403 2.187.593 3.32.56v1.12c.12 4.13.2 9.28-6.17 11.5z"/>
</svg>
