<svg xmlns="http://www.w3.org/2000/svg" width="45" height="45" fill="none" viewBox="0 0 45 45">
    <rect width="45" height="45" fill="#E4EEFF" rx="22.5"/>
    <path fill="#123399" d="M22.5 13.5c-1.879 0-3.716.557-5.278 1.601-1.562 1.044-2.78 2.528-3.499 4.263-.719 1.736-.907 3.646-.54 5.49.366 1.842 1.27 3.535 2.6 4.864 1.328 1.328 3.02 2.233 4.864 2.6 1.843.366 3.753.178 5.489-.541 1.735-.72 3.22-1.937 4.263-3.5C31.443 26.717 32 24.88 32 23c0-2.52-1-4.936-2.782-6.718C27.436 14.501 25.02 13.5 22.5 13.5zm7.494 7.051c-.01.07-.01.141 0 .211 0 .919-1.256 1.91-3.25 2.512v-.306c.067-2.548-.457-5.077-1.531-7.389 1.116.415 2.124 1.078 2.947 1.94.823.86 1.44 1.898 1.803 3.032h.031zM22.5 30.843c-.887 0-2.111-2.111-2.502-5.574.829.121 1.665.18 2.502.18.834 0 1.666-.06 2.491-.18-.38 3.463-1.636 5.574-2.491 5.574zm0-6.977c-.877 0-1.753-.074-2.618-.222v-.676c-.042-4.813 1.562-7.885 2.618-7.885 1.056 0 2.597 3.072 2.597 7.917v.676c-.859.136-1.728.2-2.597.19zm-2.723-8.255c-1.059 2.316-1.571 4.844-1.5 7.389v.306c-2.005-.633-3.271-1.625-3.271-2.544.01-.07.01-.14 0-.21.373-1.13.996-2.16 1.822-3.015.826-.855 1.834-1.514 2.949-1.926zm-5.183 7.484c1.088.906 2.376 1.54 3.758 1.847.124 1.89.608 3.738 1.425 5.447-1.502-.546-2.803-1.537-3.728-2.84-.926-1.302-1.433-2.856-1.455-4.454zm10.555 7.273c.823-1.7 1.31-3.542 1.436-5.426 1.381-.31 2.669-.943 3.758-1.847-.024 1.599-.534 3.153-1.461 4.456-.928 1.302-2.23 2.292-3.733 2.838v-.021z"/>
</svg>
