<svg width="45" height="45" viewBox="0 0 45 45" fill="none" xmlns="http://www.w3.org/2000/svg">
<rect width="45" height="45" rx="22.5" fill="#FFF7E0"/>
<path d="M28.4844 20.5117C28.1589 19.9128 27.7357 19.3984 27.2148 18.9688C26.694 18.5391 26.1081 18.2266 25.457 18.0312L25.418 18.0117C25.3919 17.3346 25.1315 16.7617 24.6367 16.293C24.1419 15.8242 23.556 15.5898 22.8789 15.5898H22.625V14.6328C22.625 14.4505 22.5599 14.3008 22.4297 14.1836C22.3125 14.0664 22.1693 14.0078 22 14.0078C21.8307 14.0078 21.681 14.0664 21.5508 14.1836C21.4336 14.3008 21.375 14.4505 21.375 14.6328V15.5898H21.1211C20.431 15.5898 19.8385 15.8307 19.3438 16.3125C18.862 16.7812 18.6081 17.3477 18.582 18.0117V18.0312C17.918 18.2266 17.319 18.5391 16.7852 18.9688C16.2643 19.3984 15.8477 19.9062 15.5352 20.4922L15.5156 20.5312C15.3984 20.5964 15.2878 20.6745 15.1836 20.7656C15.0794 20.8438 14.9883 20.9284 14.9102 21.0195H14.8906C14.5781 21.332 14.3307 21.6966 14.1484 22.1133C13.9792 22.5299 13.8945 22.9727 13.8945 23.4414C13.8945 24.1185 14.0703 24.737 14.4219 25.2969C14.7865 25.8438 15.2552 26.2539 15.8281 26.5273L15.8477 26.5469C16.3034 27.2109 16.8958 27.7448 17.625 28.1484C18.3672 28.5391 19.168 28.7344 20.0273 28.7344C20.0273 28.7344 20.0339 28.7344 20.0469 28.7344H23.9922C24.8516 28.7344 25.6458 28.5391 26.375 28.1484C27.1172 27.7448 27.7161 27.2109 28.1719 26.5469C28.7578 26.2604 29.2266 25.8438 29.5781 25.2969C29.9427 24.75 30.125 24.138 30.125 23.4609C30.125 23.4479 30.125 23.4414 30.125 23.4414C30.125 22.8294 29.9753 22.2695 29.6758 21.7617C29.3763 21.2409 28.9792 20.8242 28.4844 20.5117ZM21.1211 16.8398H22.8789C23.1784 16.8398 23.4388 16.931 23.6602 17.1133C23.8945 17.2956 24.0508 17.5234 24.1289 17.7969H19.8711C19.9362 17.5234 20.0859 17.2956 20.3203 17.1133C20.5547 16.931 20.8216 16.8398 21.1211 16.8398ZM27.8398 23.6172C27.8398 23.7214 27.8333 23.819 27.8203 23.9102C27.8203 24.0013 27.8138 24.0924 27.8008 24.1836V24.1641C27.7617 24.4505 27.6901 24.724 27.5859 24.9844C27.4948 25.2448 27.3711 25.4922 27.2148 25.7266L27.2344 25.707C26.8828 26.2409 26.4206 26.6706 25.8477 26.9961C25.2747 27.3216 24.6497 27.4844 23.9727 27.4844H20.0273C19.4935 27.4844 18.9922 27.3867 18.5234 27.1914C18.0547 26.9831 17.6445 26.7031 17.293 26.3516C16.9414 26 16.6615 25.5898 16.4531 25.1211C16.2578 24.6523 16.1602 24.151 16.1602 23.6172V22.9336C16.1602 22.9206 16.1602 22.9141 16.1602 22.9141C16.1602 22.6146 16.1927 22.3216 16.2578 22.0352C16.3359 21.7357 16.4401 21.4622 16.5703 21.2148L16.5508 21.2344C16.8242 20.6875 17.1953 20.2318 17.6641 19.8672C18.1458 19.4896 18.6862 19.2422 19.2852 19.125H19.3242C19.4284 19.099 19.5391 19.0794 19.6562 19.0664C19.7734 19.0534 19.8971 19.0469 20.0273 19.0469H23.9727C24.1029 19.0469 24.2266 19.0534 24.3438 19.0664C24.4609 19.0794 24.5781 19.099 24.6953 19.125H24.6758C25.2878 19.2422 25.8281 19.4896 26.2969 19.8672C26.7786 20.2318 27.1497 20.681 27.4102 21.2148L27.4297 21.2344C27.5469 21.4818 27.638 21.7487 27.7031 22.0352C27.7812 22.3216 27.8203 22.6211 27.8203 22.9336L27.8398 23.6172ZM28.7969 31.4492C28.8359 31.5013 28.8685 31.5599 28.8945 31.625C28.9206 31.7031 28.9336 31.7812 28.9336 31.8594C28.9336 31.9505 28.9141 32.0352 28.875 32.1133C28.8359 32.2044 28.7839 32.276 28.7188 32.3281C28.6667 32.3802 28.6016 32.4193 28.5234 32.4453C28.4583 32.4714 28.3932 32.4844 28.3281 32.4844C28.3151 32.4844 28.3086 32.4844 28.3086 32.4844C28.2174 32.4844 28.1328 32.4648 28.0547 32.4258C27.9766 32.3867 27.9049 32.3346 27.8398 32.2695C27.4492 31.8268 26.9805 31.4753 26.4336 31.2148C25.8867 30.9544 25.2943 30.8242 24.6562 30.8242H19.3438C19.3438 30.8242 19.3372 30.8242 19.3242 30.8242C18.6992 30.8242 18.1133 30.9479 17.5664 31.1953C17.0195 31.4557 16.5508 31.8073 16.1602 32.25C16.0951 32.3151 16.0234 32.3672 15.9453 32.4062C15.8672 32.4453 15.7826 32.4648 15.6914 32.4648C15.5091 32.4648 15.3594 32.3997 15.2422 32.2695C15.125 32.1523 15.0664 32.0091 15.0664 31.8398C15.0664 31.7617 15.0794 31.6836 15.1055 31.6055C15.1315 31.5404 15.1706 31.4818 15.2227 31.4297H15.2031C15.7109 30.8568 16.3229 30.401 17.0391 30.0625C17.7552 29.724 18.5234 29.5547 19.3438 29.5547H24.6562C25.4766 29.5547 26.2448 29.724 26.9609 30.0625C27.6771 30.401 28.2826 30.8633 28.7773 31.4492H28.7969ZM21.375 12.9922V12.875C21.375 12.7057 21.4336 12.5625 21.5508 12.4453C21.681 12.3151 21.8307 12.25 22 12.25C22.1693 12.25 22.3125 12.3151 22.4297 12.4453C22.5599 12.5625 22.625 12.7057 22.625 12.875V12.9922C22.625 13.1615 22.5599 13.3112 22.4297 13.4414C22.3125 13.5586 22.1693 13.6172 22 13.6172C21.8307 13.6172 21.681 13.5586 21.5508 13.4414C21.4336 13.3112 21.375 13.1615 21.375 12.9922ZM20.125 22.2891C20.125 22.4844 20.0534 22.6536 19.9102 22.7969C19.7799 22.9271 19.6172 22.9922 19.4219 22.9922C19.2266 22.9922 19.0573 22.9271 18.9141 22.7969C18.7839 22.6536 18.7188 22.4844 18.7188 22.2891C18.7188 22.0938 18.7839 21.931 18.9141 21.8008C19.0573 21.6576 19.2266 21.5859 19.4219 21.5859C19.6172 21.5859 19.7799 21.6576 19.9102 21.8008C20.0534 21.931 20.125 22.0938 20.125 22.2891ZM24.8125 22.2891C24.8125 22.4844 24.7409 22.6536 24.5977 22.7969C24.4674 22.9271 24.3047 22.9922 24.1094 22.9922C23.9141 22.9922 23.7448 22.9271 23.6016 22.7969C23.4714 22.6536 23.4062 22.4844 23.4062 22.2891C23.4062 22.0938 23.4714 21.931 23.6016 21.8008C23.7448 21.6576 23.9141 21.5859 24.1094 21.5859C24.3047 21.5859 24.4674 21.6576 24.5977 21.8008C24.7409 21.931 24.8125 22.0938 24.8125 22.2891ZM20.5156 24.0078H23.0156V24.0469C23.0156 24.3854 22.8919 24.6784 22.6445 24.9258C22.3971 25.1732 22.1042 25.2969 21.7656 25.2969C21.4141 25.2969 21.1146 25.1732 20.8672 24.9258C20.6328 24.6784 20.5156 24.3854 20.5156 24.0469V24.0078Z" fill="#FFBB00"/>
</svg>
