<svg width="45" height="45" viewBox="0 0 45 45" fill="none" xmlns="http://www.w3.org/2000/svg">
<rect width="45" height="45" rx="22.5" fill="#E4EEFF"/>
<path d="M22.5998 31.18C20.8132 31.18 19.2598 30.82 17.9398 30.1C16.6198 29.3933 15.5998 28.4 14.8798 27.12C14.1732 25.84 13.8198 24.3667 13.8198 22.7C13.8198 20.8467 14.1932 19.2467 14.9398 17.9C15.6998 16.5533 16.7465 15.5267 18.0798 14.82C19.4132 14.1133 20.9265 13.76 22.6198 13.76C24.3665 13.76 25.8665 14.0867 27.1198 14.74C28.3732 15.3933 29.3265 16.2867 29.9798 17.42C30.6332 18.54 30.9598 19.8 30.9598 21.2C30.9598 22.36 30.7798 23.36 30.4198 24.2C30.0732 25.0267 29.5865 25.66 28.9598 26.1C28.3332 26.5267 27.6198 26.74 26.8198 26.74C26.1132 26.74 25.5398 26.5867 25.0998 26.28C24.6598 25.9733 24.3865 25.5667 24.2798 25.06H24.2398C23.8798 25.58 23.4732 25.9933 23.0198 26.3C22.5798 26.5933 22.0198 26.74 21.3398 26.74C20.3532 26.74 19.5798 26.4133 19.0198 25.76C18.4732 25.0933 18.1998 24.2133 18.1998 23.12C18.1998 22.1733 18.3798 21.3133 18.7398 20.54C19.0998 19.7533 19.5932 19.1333 20.2198 18.68C20.8598 18.2267 21.5865 18 22.3998 18C22.9465 18 23.4265 18.1133 23.8398 18.34C24.2532 18.5667 24.5465 18.8867 24.7198 19.3H24.7798L24.8198 19.04C24.8598 18.7733 24.9732 18.5733 25.1598 18.44C25.3598 18.2933 25.6132 18.22 25.9198 18.22C26.2265 18.22 26.4665 18.3067 26.6398 18.48C26.8132 18.6533 26.8998 18.8933 26.8998 19.2C26.8998 19.3333 26.8932 19.4333 26.8798 19.5L26.2798 22.9C26.2132 23.3 26.1798 23.6133 26.1798 23.84C26.1798 24.2267 26.2598 24.52 26.4198 24.72C26.5798 24.92 26.8398 25.02 27.1998 25.02C27.4665 25.02 27.7332 24.8933 27.9998 24.64C28.2665 24.3867 28.4865 23.9733 28.6598 23.4C28.8465 22.8267 28.9398 22.0933 28.9398 21.2C28.9398 20.08 28.6998 19.1 28.2198 18.26C27.7398 17.42 27.0265 16.7667 26.0798 16.3C25.1332 15.8333 23.9798 15.6 22.6198 15.6C21.3398 15.6 20.1998 15.88 19.1998 16.44C18.1998 16.9867 17.4132 17.8 16.8398 18.88C16.2665 19.9467 15.9798 21.22 15.9798 22.7C15.9798 24.0333 16.2398 25.2 16.7598 26.2C17.2932 27.2 18.0532 27.9733 19.0398 28.52C20.0398 29.0667 21.2265 29.34 22.5998 29.34C23.4665 29.34 24.2132 29.2467 24.8398 29.06C25.4798 28.8867 26.0998 28.6067 26.6998 28.22C26.9132 28.0867 27.1132 28.02 27.2998 28.02C27.5665 28.02 27.7865 28.1133 27.9598 28.3C28.1465 28.4867 28.2398 28.7067 28.2398 28.96C28.2398 29.2933 28.0798 29.5733 27.7598 29.8C27.2265 30.1867 26.5065 30.5133 25.5998 30.78C24.6932 31.0467 23.6932 31.18 22.5998 31.18ZM21.8198 25.02C22.3532 25.02 22.8065 24.86 23.1798 24.54C23.5665 24.2067 23.8532 23.78 24.0398 23.26C24.2398 22.7267 24.3398 22.1667 24.3398 21.58C24.3398 20.9667 24.1998 20.5067 23.9198 20.2C23.6532 19.8933 23.2732 19.74 22.7798 19.74C22.2865 19.74 21.8598 19.9067 21.4998 20.24C21.1398 20.5733 20.8665 21 20.6798 21.52C20.4932 22.04 20.3998 22.5733 20.3998 23.12C20.3998 23.6933 20.5265 24.1533 20.7798 24.5C21.0332 24.8467 21.3798 25.02 21.8198 25.02Z" fill="#123399"/>
</svg>
