<svg width="45" height="45" viewBox="0 0 45 45" fill="none" xmlns="http://www.w3.org/2000/svg">
<rect width="45" height="45" rx="22.5" fill="#E4EEFF"/>
<path d="M28.7227 12.25H17.2773C16.6914 12.25 16.138 12.3607 15.6172 12.582C15.0964 12.8164 14.6406 13.1289 14.25 13.5195C13.8724 13.8971 13.5664 14.3464 13.332 14.8672C13.1107 15.388 13 15.9414 13 16.5273V27.9727C13 28.5586 13.1107 29.112 13.332 29.6328C13.5534 30.1536 13.8594 30.6094 14.25 31C14.6406 31.3906 15.0964 31.6966 15.6172 31.918C16.138 32.1393 16.6914 32.25 17.2773 32.25H28.7227C29.3086 32.25 29.862 32.1393 30.3828 31.918C30.9036 31.6966 31.3594 31.3906 31.75 31C32.1406 30.6094 32.4466 30.1536 32.668 29.6328C32.8893 29.112 33 28.5586 33 27.9727V16.5273C33 15.9414 32.8893 15.388 32.668 14.8672C32.4466 14.3464 32.1406 13.8906 31.75 13.5C31.3594 13.1094 30.9036 12.8034 30.3828 12.582C29.862 12.3607 29.3086 12.25 28.7227 12.25ZM14.7578 27.9727V16.5273C14.7578 15.8372 15.0052 15.2448 15.5 14.75C15.9948 14.2552 16.5872 14.0078 17.2773 14.0078H23.1953V30.5508H17.2773C16.5872 30.5508 15.9948 30.3034 15.5 29.8086C15.0052 29.3138 14.7578 28.7214 14.7578 28.0312C14.7578 28.0182 14.7578 28.0052 14.7578 27.9922C14.7578 27.9792 14.7578 27.9727 14.7578 27.9727ZM31.2422 27.9727C31.2422 27.9857 31.2422 27.9987 31.2422 28.0117C31.2422 28.0117 31.2422 28.0182 31.2422 28.0312C31.2422 28.7344 30.9948 29.3333 30.5 29.8281C30.0182 30.3099 29.4258 30.5508 28.7227 30.5508H24.9531V14.0078H28.7227C28.7227 14.0078 28.7292 14.0078 28.7422 14.0078C28.7552 14.0078 28.7682 14.0078 28.7812 14.0078C29.4714 14.0078 30.0638 14.2552 30.5586 14.75C31.0534 15.2448 31.3008 15.8372 31.3008 16.5273L31.2422 27.9727ZM28.957 17.5039H27.082C26.8346 17.5039 26.6263 17.5885 26.457 17.7578C26.2878 17.9271 26.2031 18.1354 26.2031 18.3828C26.2031 18.6172 26.2878 18.8255 26.457 19.0078C26.6263 19.1771 26.8346 19.2617 27.082 19.2617H28.957C29.1914 19.2617 29.3932 19.1771 29.5625 19.0078C29.7448 18.8255 29.8359 18.6172 29.8359 18.3828C29.8359 18.1354 29.7448 17.9271 29.5625 17.7578C29.3932 17.5885 29.1914 17.5039 28.957 17.5039ZM28.957 21.3711H27.082C26.8346 21.3711 26.6263 21.4622 26.457 21.6445C26.2878 21.8138 26.2031 22.0156 26.2031 22.25C26.2031 22.4974 26.2878 22.7057 26.457 22.875C26.6263 23.0443 26.8346 23.1289 27.082 23.1289H28.957C29.1914 23.1289 29.3932 23.0443 29.5625 22.875C29.7448 22.7057 29.8359 22.4974 29.8359 22.25C29.8359 22.0156 29.7448 21.8138 29.5625 21.6445C29.3932 21.4622 29.1914 21.3711 28.957 21.3711ZM28.957 25.2383H27.082C26.8346 25.2383 26.6263 25.3294 26.457 25.5117C26.2878 25.681 26.2031 25.8828 26.2031 26.1172C26.2031 26.3646 26.2878 26.5729 26.457 26.7422C26.6263 26.9115 26.8346 26.9961 27.082 26.9961H28.957C29.1914 26.9961 29.3932 26.9115 29.5625 26.7422C29.7448 26.5729 29.8359 26.3646 29.8359 26.1172C29.8359 25.8828 29.7448 25.681 29.5625 25.5117C29.3932 25.3294 29.1914 25.2383 28.957 25.2383Z" fill="#123399"/>
</svg>
