<svg width="45" height="45" viewBox="0 0 45 45" fill="none" xmlns="http://www.w3.org/2000/svg">
<rect width="45" height="45" rx="22.5" fill="#FFF7E0"/>
<path d="M29.4 16H16.5C15.1 16 14 17.1 14 18.5V27.3C14 28.7 15.1 29.8 16.5 29.8H29.4C30.8 29.8 31.9 28.7 31.9 27.3V18.5C32 17.1 30.8 16 29.4 16ZM30.5 27.3C30.5 27.9 30 28.3 29.5 28.3H16.5C15.9 28.3 15.5 27.8 15.5 27.3V20.8L22.7 24.1C22.8 24.1 22.9 24.2 23 24.2C23.1 24.2 23.2 24.2 23.3 24.1L30.5 20.8V27.3ZM30.5 19.2L23 22.7L15.5 19.2V18.5C15.5 17.9 16 17.5 16.5 17.5H29.4C30 17.5 30.4 18 30.4 18.5V19.2H30.5Z" fill="#FFBB00"/>
</svg>
