<svg width="45" height="45" viewBox="0 0 45 45" fill="none" xmlns="http://www.w3.org/2000/svg">
<rect width="45" height="45" rx="22.5" fill="#D1FFF2"/>
<path d="M23.7305 33H21.2695C20.9685 33 20.712 32.7825 20.6627 32.4857L20.2848 30.1784C19.7128 30.0132 19.1619 29.7843 18.6392 29.4941L16.767 30.8309C16.5225 31.0045 16.1866 30.9775 15.9745 30.7654L14.2346 29.0254C14.0219 28.8127 13.9943 28.4775 14.1691 28.233L15.5059 26.3608C15.2157 25.8381 14.9868 25.2871 14.8215 24.7152L12.5143 24.3373C12.2175 24.288 12 24.0315 12 23.7305V21.2695C12 20.9685 12.2175 20.712 12.5143 20.6627L14.8216 20.2848C14.9868 19.7128 15.2157 19.1619 15.5059 18.6392L14.1691 16.767C13.9943 16.5225 14.0219 16.1872 14.2346 15.9745L15.9746 14.2346C16.1867 14.0213 16.5225 13.993 16.767 14.1691L18.6392 15.5059C19.1619 15.2157 19.7129 14.9868 20.2848 14.8215L20.6627 12.5143C20.712 12.2175 20.9685 12 21.2695 12H23.7305C24.0315 12 24.288 12.2175 24.3373 12.5143L24.7152 14.8216C25.2872 14.9868 25.8381 15.2157 26.3608 15.5059L28.233 14.1691C28.4763 13.9931 28.8116 14.0213 29.0255 14.2346L30.7654 15.9746C30.9781 16.1873 31.0057 16.5225 30.8309 16.767L29.4941 18.6392C29.7843 19.1619 30.0132 19.7129 30.1785 20.2848L32.4857 20.6627C32.7825 20.712 33 20.9685 33 21.2695V23.7305C33 24.0315 32.7825 24.288 32.4857 24.3373L30.1784 24.7152C30.0132 25.2872 29.7843 25.8381 29.4941 26.3608L30.8309 28.233C31.0057 28.4775 30.9781 28.8128 30.7654 29.0255L29.0254 30.7654C28.8115 30.9775 28.4763 31.0045 28.233 30.8309L26.3608 29.4941C25.8381 29.7843 25.2871 30.0132 24.7152 30.1785L24.3373 32.4857C24.288 32.7825 24.0315 33 23.7305 33ZM32.3848 23.7305H32.3968H32.3848Z" stroke="#29B68D" stroke-width="1.5"/>
<mask id="path-3-inside-1" fill="white">
<path d="M24.9609 21.8848H23.1152V20.0391C23.1152 19.699 22.8401 19.4238 22.5 19.4238C22.1599 19.4238 21.8848 19.699 21.8848 20.0391V22.5C21.8848 22.8401 22.1599 23.1152 22.5 23.1152H24.9609C25.301 23.1152 25.5762 22.8401 25.5762 22.5C25.5762 22.1599 25.301 21.8848 24.9609 21.8848Z"/>
</mask>
<path d="M23.1152 21.8848H21.6152V23.3848H23.1152V21.8848ZM24.9609 20.3848H23.1152V23.3848H24.9609V20.3848ZM24.6152 21.8848V20.0391H21.6152V21.8848H24.6152ZM24.6152 20.0391C24.6152 18.8706 23.6685 17.9238 22.5 17.9238V20.9238C22.0116 20.9238 21.6152 20.5274 21.6152 20.0391H24.6152ZM22.5 17.9238C21.3315 17.9238 20.3848 18.8706 20.3848 20.0391H23.3848C23.3848 20.5274 22.9884 20.9238 22.5 20.9238V17.9238ZM20.3848 20.0391V22.5H23.3848V20.0391H20.3848ZM20.3848 22.5C20.3848 23.6685 21.3315 24.6152 22.5 24.6152V21.6152C22.9884 21.6152 23.3848 22.0116 23.3848 22.5H20.3848ZM22.5 24.6152H24.9609V21.6152H22.5V24.6152ZM24.9609 24.6152C26.1294 24.6152 27.0762 23.6685 27.0762 22.5H24.0762C24.0762 22.0116 24.4726 21.6152 24.9609 21.6152V24.6152ZM27.0762 22.5C27.0762 21.3315 26.1294 20.3848 24.9609 20.3848V23.3848C24.4726 23.3848 24.0762 22.9884 24.0762 22.5H27.0762Z" fill="#29B68D" mask="url(#path-3-inside-1)"/>
</svg>
