<svg width="45" height="45" viewBox="0 0 45 45" fill="none" xmlns="http://www.w3.org/2000/svg">
<rect width="45" height="45" rx="22.5" fill="#FFE5E6"/>
<path d="M30.2696 17.2309L25.2235 12.1848C25.1057 12.067 24.945 12 24.7774 12H17.4375C16.3941 12 15.5452 12.8489 15.5452 13.8923V29.4017C15.5452 30.4452 16.3941 31.2941 17.4375 31.2941H28.5621C29.6055 31.2941 30.4544 30.4452 30.4544 29.4017V17.677C30.4544 17.505 30.3822 17.3435 30.2696 17.2309ZM25.4082 14.1536L28.3008 17.0462H26.039C25.6912 17.0462 25.4082 16.7632 25.4082 16.4154V14.1536ZM28.5621 30.0325H17.4375C17.0897 30.0325 16.8067 29.7496 16.8067 29.4017V13.8923C16.8067 13.5445 17.0897 13.2615 17.4375 13.2615H24.1466V16.4154C24.1466 17.4589 24.9955 18.3077 26.039 18.3077H29.1928V29.4017C29.1928 29.7496 28.9099 30.0325 28.5621 30.0325Z" fill="#FF4651"/>
<path d="M26.7274 20.2001H19.1581C18.8098 20.2001 18.5273 20.4825 18.5273 20.8308C18.5273 21.1792 18.8098 21.4616 19.1581 21.4616H26.7274C27.0758 21.4616 27.3582 21.1792 27.3582 20.8308C27.3582 20.4825 27.0758 20.2001 26.7274 20.2001Z" fill="#FF4651"/>
<path d="M26.7274 23.4686H19.1581C18.8098 23.4686 18.5273 23.751 18.5273 24.0994C18.5273 24.4478 18.8098 24.7302 19.1581 24.7302H26.7274C27.0758 24.7302 27.3582 24.4478 27.3582 24.0994C27.3582 23.751 27.0758 23.4686 26.7274 23.4686Z" fill="#FF4651"/>
<path d="M24.2043 26.7372H19.1581C18.8098 26.7372 18.5273 27.0196 18.5273 27.368C18.5273 27.7163 18.8098 27.9987 19.1581 27.9987H24.2043C24.5527 27.9987 24.8351 27.7163 24.8351 27.368C24.8351 27.0196 24.5527 26.7372 24.2043 26.7372Z" fill="#FF4651"/>
</svg>
