<svg width="45" height="45" viewBox="0 0 45 45" fill="none" xmlns="http://www.w3.org/2000/svg">
<rect width="45" height="45" rx="22.5" fill="#E4EEFF"/>
<circle cx="22.5" cy="22.5" r="7.75" stroke="#123399" stroke-width="1.5"/>
<path d="M25.9297 22.1211H23.505L25.5981 18.4383C25.6499 18.3476 25.6496 18.2363 25.5973 18.1459C25.5446 18.0555 25.4482 18 25.3437 18H21.8281C21.702 18 21.5901 18.0807 21.5503 18.2003L19.7925 23.4932C19.7625 23.5825 19.7777 23.6809 19.8326 23.7573C19.8878 23.8337 19.9762 23.8789 20.0703 23.8789H22.5557L20.973 27.5917C20.9163 27.7236 20.9639 27.8773 21.0852 27.9542C21.2045 28.0305 21.3648 28.0104 21.4611 27.9016L26.1486 22.6087C26.2252 22.5225 26.2442 22.3992 26.1969 22.2942C26.1497 22.1889 26.045 22.1211 25.9297 22.1211Z" fill="#123399"/>
</svg>
