<svg xmlns="http://www.w3.org/2000/svg" width="45" height="45" fill="none" viewBox="0 0 45 45">
    <rect width="45" height="45" fill="#FFE5E6" rx="22.5"/>
    <path fill="#FF4651" d="M26 20.7L22.7 17v2.2H22c-2.2 0-4 1.8-4 4v1.2l.3-.3c1.1-1.2 2.6-1.9 4.2-1.9h.2v2.2l3.3-3.7z"/>
    <path fill="#FF4651" d="M28.3 27.6H15.8c-1.5 0-2.8-1.2-2.8-2.8v-8c0-1.6 1.2-2.8 2.8-2.8h12.5c1.5 0 2.7 1.2 2.7 2.8v8.1c0 1.5-1.2 2.7-2.7 2.7zM15.8 15.5c-.7 0-1.3.6-1.3 1.3v8.1c0 .7.6 1.3 1.3 1.3h12.5c.7 0 1.3-.6 1.3-1.3v-8.1c0-.7-.6-1.3-1.3-1.3H15.8zM25.5 30.202h-7c-.4 0-.8-.3-.8-.8s.3-.8.8-.8h7c.4 0 .8.3.8.8s-.4.8-.8.8z"/>
</svg>
