<svg width="35" height="40" viewBox="0 0 35 40" fill="none" xmlns="http://www.w3.org/2000/svg">
<path d="M17.1429 39.6434L1.79104 30.819C0.682303 30.1818 0 28.9925 0 27.7288V10.0693L17.1429 0.214844L34.2857 10.0693V27.7182C34.2857 28.9925 33.6034 30.1818 32.4947 30.8084L17.1429 39.6434ZM1.97228 11.2056V27.7182C1.97228 28.2916 2.28145 28.8226 2.78252 29.1093L17.1429 37.3709L31.5032 29.1093C32.0043 28.8226 32.3134 28.2916 32.3134 27.7182V11.2056L17.1429 2.4767L1.97228 11.2056Z" fill="#001033"/>
<path d="M10.3232 28.14C10.0377 28.14 9.87914 27.9909 9.87914 27.7141V20.8783H7.40513V27.7141C7.40513 27.9909 7.24654 28.14 6.96108 28.14H5.58663C5.30117 28.14 5.14258 27.9909 5.14258 27.7141V12.0939C5.14258 11.817 5.30117 11.668 5.58663 11.668H6.96108C7.24654 11.668 7.40513 11.817 7.40513 12.0939V18.7807H9.87914V12.0939C9.87914 11.817 10.0377 11.668 10.3232 11.668H11.6976C11.9831 11.668 12.1417 11.817 12.1417 12.0939V27.7035C12.1417 27.9803 11.9831 28.1294 11.6976 28.1294H10.3232V28.14Z" fill="#001033"/>
<path d="M15.5983 28.14C15.3129 28.14 15.1543 27.9909 15.1543 27.7141V12.0939C15.1543 11.817 15.3129 11.668 15.5983 11.668H16.9728C17.2583 11.668 17.4169 11.817 17.4169 12.0939V26.0531H19.6688C19.9543 26.0531 20.1129 26.2021 20.1129 26.479V27.7035C20.1129 27.9803 19.9543 28.1294 19.6688 28.1294H15.5983V28.14Z" fill="#001033"/>
<path d="M29.1331 24.9771C29.1331 27.4474 27.5155 28.4164 25.6652 28.4164C23.7622 28.4164 22.1445 27.4048 22.1445 24.9771V14.8298C22.1445 12.4022 23.741 11.3906 25.7287 11.3906C27.4943 11.3906 29.1331 12.2105 29.1331 14.6808V16.9807C29.1331 17.2575 28.9745 17.4066 28.689 17.4066H27.3146C27.0291 17.4066 26.8705 17.2575 26.8705 16.9807V15.1067C26.8705 13.9035 26.2467 13.4669 25.6335 13.4669C25.0097 13.4669 24.3965 13.8928 24.3965 15.1067V24.7003C24.3965 25.9035 25.0097 26.3401 25.6335 26.3401C26.2573 26.3401 26.8705 25.9141 26.8705 24.7003V23.0605C26.8705 22.7837 27.0291 22.6346 27.3146 22.6346H28.689C28.9745 22.6346 29.1331 22.7837 29.1331 23.0605V24.9771Z" fill="#001033"/>
</svg>
