<svg xmlns="http://www.w3.org/2000/svg" width="45" height="45" fill="none" viewBox="0 0 45 45">
    <rect width="45" height="45" fill="#FFE5E6" rx="22.5"/>
    <path fill="#FF4651" d="M33.97 29.626c-.61-1.829-1.829-3.17-3.535-4.022.853-.732 1.34-1.829 1.34-3.047 0-2.316-1.95-4.266-4.265-4.266-.853 0-1.585.244-2.194.61-.61-2.195-2.681-3.901-5.119-3.901-2.925 0-5.24 2.316-5.24 5.24 0 1.707.73 3.17 1.95 4.145-2.195.975-4.023 2.803-4.876 5.24-.122.488.122.976.61 1.098h.243c.366 0 .732-.244.853-.61.854-2.803 3.535-4.631 6.46-4.631s5.485 1.828 6.46 4.631c.122.488.61.731 1.097.61.487-.122.73-.732.609-1.097-.366-.975-.853-1.95-1.584-2.804h.73c2.073 0 4.023 1.341 4.632 3.413.122.366.488.61.854.61h.243c.61-.244.853-.732.731-1.22zm-6.46-9.385c1.34 0 2.438 1.097 2.438 2.438 0 1.34-1.097 2.437-2.438 2.437-1.34 0-2.438-1.097-2.438-2.438v-.487c0-.122.122-.366.122-.488.488-.975 1.34-1.462 2.316-1.462zm-10.726 0c0-1.95 1.585-3.413 3.413-3.413 1.95 0 3.413 1.585 3.413 3.413 0 .244 0 .487-.122.731 0 .244 0 .488-.122.731-.488 1.22-1.706 2.072-3.169 2.072-1.828 0-3.413-1.584-3.413-3.534zm6.826 4.022c0 .122.122.122.122.244-.122 0-.244-.122-.244-.122s.122 0 .122-.122z"/>
</svg>
