<svg xmlns="http://www.w3.org/2000/svg" width="45" height="45" fill="none" viewBox="0 0 45 45">
    <rect width="45" height="45" fill="#FFE5E6" rx="22.5"/>
    <path fill="#FF4651" d="M31.6 18.5c-.3-.1-.6-.1-.8.1l-3.2 2.3v-2.5c0-1.3-1-2.4-2.1-2.4h-9.4C15 16 14 17.1 14 18.4v7.8c0 1.3 1 2.4 2.1 2.4h9.3c1.2 0 2.1-1.1 2.1-2.4v-2.3l3.2 2.3c.1.1.3.1.4.1.1 0 .2 0 .3-.1.2-.1.4-.4.4-.7v-6.3c.2-.3 0-.6-.2-.7zm-5.7 7.8c0 .4-.2.8-.5.8h-9.3c-.2 0-.5-.3-.5-.8v-7.9c0-.4.2-.8.5-.8h9.3c.2 0 .5.3.5.8v7.9zm4.6-2.2L28 22.4l2.5-1.7v3.4z"/>
</svg>
