<svg xmlns="http://www.w3.org/2000/svg" width="45" height="45" fill="none" viewBox="0 0 45 45">
    <rect width="45" height="45" fill="#FFF7E0" rx="22.5"/>
    <path fill="#FB0" d="M29.925 26.401v-.2l-.1-9.6c0-1.4-1.2-2.5-2.5-2.5h-3.1c-.4-.1-.8.2-.8.7 0 .5.3.8.8.8h3.2c.6 0 1 .5 1 1l.1 8.9h-2.5c-1.4 0-2.5 1.1-2.5 2.5v2.5h-6c-.6 0-1-.5-1-1v-3.6c0-.4-.3-.8-.8-.8s-.7.3-.7.8v3.6c0 1.3 1.1 2.5 2.5 2.5H24.225c.2 0 .4-.1.5-.2l5.1-5.1c0-.1.1-.2.1-.3zm-3.9.5h1.4l-2.5 2.4v-1.4c0-.5.5-1 1.1-1z"/>
    <path fill="#FB0" d="M15.525 23.3h.2c.3 0 .6-.2.7-.5.5-1.4 1.8-2.4 3.3-2.4 1.5 0 2.9 1 3.3 2.4.1.4.5.6.9.5.4-.1.6-.6.5-.9-.3-1.4-1.2-2.4-2.3-3 .5-.6.9-1.3.9-2.2 0-1.8-1.4-3.2-3.2-3.2-1.8 0-3.2 1.4-3.2 3.2 0 .9.4 1.7.9 2.2-1.1.6-2 1.6-2.5 2.9-.1.4.1.8.5 1zm2.6-6.1c0-.9.8-1.7 1.7-1.7.9 0 1.7.8 1.7 1.7 0 .9-.8 1.7-1.7 1.7-.9 0-1.7-.8-1.7-1.7z"/>
</svg>
