<svg xmlns="http://www.w3.org/2000/svg" width="45" height="45" fill="none" viewBox="0 0 45 45">
    <rect width="45" height="45" fill="#D1FFF2" rx="22.5"/>
    <path fill="#29B68D" d="M27.8 28.5h-3.7c-.4 0-.8-.3-.8-.8s.4-.7.8-.7H27v-7.2H15.5v8c0 .4-.3.8-.8.8s-.7-.4-.7-.8V19c0-.4.3-.8.8-.8h13.1c.4 0 .8.3.8.8v8.7c-.1.5-.5.8-.9.8z"/>
    <path fill="#29B68D" d="M31.2 24.5c-.4 0-.8-.3-.8-.8v-7.2H19.2c-.4 0-.8-.3-.8-.8s.4-.7.8-.7h12c.4 0 .8.3.8.8v8c-.1.4-.4.7-.8.7zM17.9 29.7l1.9-1.9.8 1.4c0 .1.1.1.2.1s.2-.1.2-.2l2.4-6c0-.1 0-.2-.1-.3h-.1l-6 2.4c-.1 0-.2.1-.2.2s0 .2.1.2l1.4.8-1.9 1.9s-.1.1-.1.2 0 .1.1.2l.9.9c.1.2.3.2.4.1z"/>
</svg>
