<svg xmlns="http://www.w3.org/2000/svg" width="45" height="45" fill="none" viewBox="0 0 45 45">
    <rect width="45" height="45" fill="#FFF7E0" rx="22.5"/>
    <path fill="#FB0" d="M27.2 12H17.056C15.344 12 14 13.344 14 15.056v15.766C14 32.533 15.344 34 17.056 34H27.2c1.711 0 3.056-1.344 3.056-3.056V15.056C30.256 13.344 28.91 12 27.2 12zm-10.144 1.833h4.155V15.3c0 .489.367.978.978.978s.978-.367.978-.978v-1.467h4.155c.734 0 1.222.611 1.222 1.223v11.977h-12.71V15.056c0-.612.61-1.223 1.222-1.223zM27.2 32.167H17.056c-.734 0-1.223-.611-1.223-1.223V28.99h12.59v1.955c0 .612-.49 1.223-1.223 1.223z"/>
</svg>
