<svg xmlns="http://www.w3.org/2000/svg" width="45" height="45" fill="none" viewBox="0 0 45 45">
    <rect width="45" height="45" fill="#FFF7E0" rx="22.5"/>
    <path fill="#FB0" d="M30.3 18.426c-.4 0-.8.3-.8.7v7.5c0 .7-.6 1.3-1.3 1.3H15.8c-.7 0-1.3-.6-1.3-1.3v-7.5c0-.4-.3-.7-.8-.7s-.7.3-.7.7v7.5c0 1.5 1.2 2.8 2.8 2.8h12.5c1.5 0 2.8-1.2 2.8-2.8v-7.5c-.1-.4-.4-.7-.8-.7z"/>
    <path fill="#FB0" d="M18.1 23.025c.1.1.3.2.5.2s.4-.1.6-.2l2.8-2.8 2.9 2.8c.1.1.3.2.5.2s.4-.1.5-.2c.3-.3.3-.8 0-1.1l-2.8-2.8 2.8-2.8c.3-.3.3-.8 0-1.1-.3-.3-.8-.3-1.1 0l-2.8 2.9-2.8-2.9c-.3-.3-.8-.3-1.1 0-.3.3-.3.8 0 1.1l2.8 2.8-2.8 2.8c-.3.3-.3.8 0 1.1z"/>
</svg>
