<svg xmlns="http://www.w3.org/2000/svg" width="45" height="45" fill="none" viewBox="0 0 45 45">
    <rect width="45" height="45" fill="#FFF7E0" rx="22.5"/>
    <path fill="#FB0" d="M22.5 13.276v-2.552c0-.267.323-.4.512-.212l1.276 1.276c.117.117.117.307 0 .424l-1.276 1.276c-.189.189-.512.055-.512-.212z"/>
    <path stroke="#FB0" stroke-dasharray="2 2" stroke-linecap="round" stroke-linejoin="round" stroke-width="1.4" d="M13.406 17.25v0c-2.9 5.023-1.179 11.444 3.844 14.344v0c5.022 2.9 11.443 1.179 14.343-3.844v0c2.9-5.022 1.179-11.443-3.843-14.343v0"/>
    <path stroke="#FB0" stroke-linecap="round" stroke-linejoin="round" stroke-width="1.4" d="M22.5 12v0C16.701 12 12 16.701 12 22.5v0C12 28.299 16.701 33 22.5 33v0C28.299 33 33 28.299 33 22.5v0"/>
    <path fill="#FB0" d="M21.392 24.74c.15 0 .268.042.355.126.087.081.131.189.131.324V26H17.27v-.45c0-.087.018-.18.054-.279.036-.099.099-.189.189-.27l1.89-1.904c.162-.162.303-.316.423-.463.12-.147.219-.291.297-.432.078-.144.136-.287.175-.428.04-.143.059-.295.059-.454 0-.261-.063-.46-.189-.599-.123-.14-.312-.211-.567-.211-.207 0-.383.055-.526.166-.142.109-.239.244-.293.405-.063.166-.145.275-.247.329-.102.054-.248.066-.437.036l-.738-.13c.048-.328.14-.613.274-.855.139-.243.308-.446.509-.608.204-.162.436-.282.697-.36.262-.081.542-.121.842-.121.324 0 .615.047.873.143.261.093.483.224.666.392.183.168.323.369.419.603.098.231.148.486.148.765 0 .24-.035.462-.104.666-.066.204-.157.399-.274.585-.117.183-.253.361-.41.535-.152.172-.316.346-.49.523l-1.283 1.314c.165-.052.329-.09.491-.117.162-.027.312-.041.45-.041h1.224zm4.055-1.287v-1.71c0-.105.003-.217.009-.337.009-.123.02-.251.036-.383l-1.733 2.43h1.688zm1.89 0v.783c0 .069-.024.129-.072.18-.045.051-.111.076-.198.076h-.405V26h-1.215v-1.508H22.81c-.087 0-.167-.027-.239-.08-.069-.054-.112-.122-.13-.203l-.144-.689 3.033-4.076h1.332v4.009h.675z"/>
</svg>
