<svg xmlns="http://www.w3.org/2000/svg" width="45" height="45" fill="none" viewBox="0 0 45 45">
    <rect width="45" height="45" fill="#FFE5E6" rx="22.5"/>
    <path fill="#FF4651" d="M31.649 24.442l-.907-.742v-.741-.742l.907-.741c.989-.824 1.236-2.225.577-3.296l-.824-1.401c-.66-1.071-1.978-1.566-3.132-1.153l-1.153.412-1.236-.742-.165-1.154C25.47 12.906 24.398 12 23.08 12h-1.565c-1.318 0-2.39.906-2.554 2.142l-.248 1.236c-.412.165-.823.412-1.235.742l-1.154-.495c-1.154-.412-2.472.083-3.131 1.154l-.824 1.4c-.66 1.072-.412 2.473.577 3.297l.906.741V23.7l-.906.742c-.99.824-1.236 2.225-.577 3.296l.824 1.4c.659 1.072 1.977 1.566 3.131 1.154l1.154-.412 1.235.742.248 1.153c.247 1.236 1.318 2.143 2.554 2.143h1.566c1.236 0 2.389-.907 2.554-2.143l.247-1.153c.412-.165.824-.412 1.236-.742l1.153.412c1.236.412 2.555-.082 3.132-1.153l.824-1.401c.659-1.071.412-2.472-.577-3.296zm-.824 2.554L30 28.397c-.247.412-.742.577-1.154.412l-1.565-.577c-.247-.082-.577-.082-.824.165-.495.412-1.071.742-1.648.989-.247.082-.494.33-.494.659l-.248 1.648c-.082.494-.494.824-.989.824h-1.565c-.494 0-.906-.33-.989-.824l-.247-1.648c-.082-.247-.247-.494-.494-.66-.577-.246-1.154-.576-1.648-.988-.165-.082-.33-.165-.495-.165-.082 0-.164 0-.247.083l-1.565.576c-.412.165-.907 0-1.154-.412l-.824-1.4c-.247-.495-.165-1.072.165-1.319l1.236-1.07c.247-.166.33-.495.247-.742-.082-.33-.082-.66-.082-.99 0-.329 0-.576.082-.988.082-.247-.082-.577-.247-.741l-1.236-.99c-.33-.329-.412-.823-.165-1.235l.824-1.401c.165-.412.66-.577 1.071-.412l1.566.577c.247.082.576.082.824-.165.494-.33 1.07-.66 1.648-.906.247-.083.412-.33.494-.66l.247-1.647c.083-.495.495-.825.989-.825h1.566c.494 0 .906.33.988.825l.247 1.648c.083.247.248.494.495.659.577.247 1.153.576 1.648.988.247.165.494.248.824.165l1.565-.577c.412-.164.907 0 1.154.412l.824 1.401c.165.33.082.824-.247 1.154l-1.236 1.07c-.247.166-.33.495-.247.742.082.33.082.66.082.99 0 .329 0 .576-.082.988-.083.247.082.577.247.741l1.236 1.072c.33.165.412.741.247 1.153z"/>
    <path fill="#FF4651" d="M22.34 18.676c-2.39 0-4.367 1.977-4.367 4.367 0 2.39 1.977 4.367 4.367 4.367 2.39 0 4.367-1.978 4.367-4.367 0-2.39-1.978-4.367-4.367-4.367zm0 7.004c-1.483 0-2.72-1.236-2.72-2.72 0-1.483 1.237-2.719 2.72-2.719s2.719 1.236 2.719 2.72c0 1.483-1.236 2.719-2.72 2.719z"/>
</svg>
