<svg xmlns="http://www.w3.org/2000/svg" width="45" height="45" fill="none" viewBox="0 0 45 45">
    <rect width="45" height="45" fill="#D1FFF2" rx="22.5"/>
    <path fill="#29B68D" d="M29.3 27.6H16.8c-1.5 0-2.8-1.2-2.8-2.8v-8c0-1.6 1.2-2.8 2.8-2.8h12.5c1.5 0 2.7 1.2 2.7 2.8v8.1c0 1.5-1.2 2.7-2.7 2.7zM16.8 15.5c-.7 0-1.3.6-1.3 1.3v8.1c0 .7.6 1.3 1.3 1.3h12.5c.7 0 1.3-.6 1.3-1.3v-8.1c0-.7-.6-1.3-1.3-1.3H16.8z"/>
    <path fill="#29B68D" d="M22.262 21.325l.883 2.609c.068.13.34.195.408 0l2.378-5.674c.068-.13-.068-.261-.271-.196l-6.525 2.022c-.204.065-.204.26 0 .326l2.99.783c.069 0 .137.065.137.13zM26.5 30.202h-7c-.4 0-.8-.3-.8-.8s.3-.8.8-.8h7c.4 0 .8.3.8.8s-.4.8-.8.8z"/>
</svg>
