<svg xmlns="http://www.w3.org/2000/svg" width="45" height="45" fill="none" viewBox="0 0 45 45">
    <rect width="45" height="45" fill="#FFE5E6" rx="22.5"/>
    <path fill="#FF4651" d="M29.13 15H15.864C14.273 15 13 16.273 13 17.865v7.852c0 1.592 1.273 2.866 2.865 2.866H29.13c1.592 0 2.865-1.274 2.865-2.866v-7.852C32.1 16.273 30.721 15 29.13 15zm1.273 10.717c0 .743-.425 1.274-1.168 1.274h-4.88v-2.016c1.166-.637 1.803-1.91 1.803-3.184 0-1.273-.849-2.44-2.016-3.077v2.653l-1.592.849-1.485-.743V18.82c-1.168.53-2.017 1.698-2.017 2.971-.106 1.274.637 2.547 1.698 3.184v2.016h-4.88c-.744 0-1.274-.53-1.274-1.274v-7.852c0-.743.53-1.273 1.273-1.273H29.13c.743 0 1.274.53 1.274 1.273v7.852zM26.263 29.75h-7.428c-.424 0-.849.318-.849.849 0 .53.319.849.85.849h7.427c.425 0 .85-.319.85-.85 0-.53-.425-.848-.85-.848z"/>
</svg>
