<svg xmlns="http://www.w3.org/2000/svg" width="45" height="45" fill="none" viewBox="0 0 45 45">
    <rect width="45" height="45" fill="#D1FFF2" rx="22.5"/>
    <path fill="#29B68D" d="M26.3 17.7h-.2c-.9-1.6-2.6-2.7-4.4-2.7h-2.8c-2.7 0-4.9 2.2-4.9 4.9 0 2.4 1.7 4.4 4.1 4.8.6 2 2.4 3.5 4.6 3.8v1.6c0 .3.1.5.4.7.1.1.2.1.4.1.1 0 .3 0 .4-.1 2-1.2 4.2-2.5 4.5-2.6 2-.8 3.4-2.8 3.4-5-.1-3-2.5-5.5-5.5-5.5zm-8.5 5.4c-1.4-.4-2.3-1.7-2.3-3.2 0-1.9 1.5-3.4 3.4-3.4h2.8c1 0 2 .5 2.6 1.2h-1.1c-3 0-5.4 2.5-5.4 5.4zm10 3.7c-.4.2-2.3 1.3-3.6 2v-1c0-.4-.3-.8-.8-.8h-.2c-2.1 0-3.9-1.7-3.9-3.9s1.7-3.9 3.9-3.9h3.1c2.1 0 3.9 1.7 3.9 3.9 0 1.6-1 3.1-2.4 3.7z"/>
</svg>
