<svg xmlns="http://www.w3.org/2000/svg" width="45" height="45" fill="none" viewBox="0 0 45 45">
    <rect width="45" height="45" fill="#FFF7E0" rx="22.5"/>
    <path fill="#FB0" d="M28.544 14H16.456C15.133 14 14 15.133 14 16.456v12.088C14 29.867 15.133 31 16.456 31h12.088C29.867 31 31 29.867 31 28.544V16.456C31 15.133 29.867 14 28.544 14zm-12.088 1.417h12.088c.567 0 1.04.472 1.04 1.039v3.588H15.416v-3.588c0-.567.472-1.04 1.039-1.04zm12.088 14.166H16.456c-.567 0-1.04-.472-1.04-1.039v-7.083h14.167v7.083c0 .567-.472 1.04-1.039 1.04z"/>
    <path fill="#FB0" d="M27.034 23.16h-9.161c-.378 0-.756.284-.756.756 0 .472.284.755.756.755h9.16c.379 0 .756-.283.756-.755 0-.473-.377-.756-.755-.756zM27.034 26.277h-9.161c-.378 0-.756.284-.756.756 0 .472.284.755.756.755h9.16c.379 0 .756-.283.756-.755 0-.472-.377-.756-.755-.756zM25.71 19.003c.094.095.189.095.378.095.094 0 .283 0 .377-.095l1.606-1.322c.283-.189.283-.567.095-.756-.19-.283-.567-.283-.756-.094l-1.228 1.039-1.511-1.04c-.283-.188-.567-.094-.755.095-.19.284-.095.567.094.756l1.7 1.322z"/>
</svg>
