<svg xmlns="http://www.w3.org/2000/svg" width="45" height="45" fill="none" viewBox="0 0 45 45">
    <rect width="45" height="45" fill="#D1FFF2" rx="22.5"/>
    <path fill="#29B68D" d="M20.9 14.8v5.4c0 .4-.3.8-.8.8h-5.3c-.5-.1-.8-.4-.8-.8v-5.4c0-.5.3-.8.8-.8h5.4c.4 0 .7.3.7.8zm-1.5.7h-3.9v3.9h3.9v-3.9zm1.5 7.7v5.4c0 .4-.3.8-.8.8h-5.3c-.4 0-.8-.3-.8-.8v-5.4c0-.4.3-.8.8-.8h5.4c.4.1.7.4.7.8zm-1.5.8h-3.9v3.9h3.9V24zm11.2 2.6c0 2.3-1.9 4.2-4.2 4.2-2.3 0-4.2-1.9-4.2-4.2v-3.4c0-.4.3-.8.8-.8h3.4c2.3.1 4.2 2 4.2 4.2zm-1.5 0c0-1.5-1.2-2.7-2.7-2.7h-2.6v2.7c0 1.5 1.2 2.7 2.7 2.7 1.5 0 2.6-1.2 2.6-2.7zM23 20.9c.2 0 .4-.1.5-.2l4.1-4.1v3c0 .4.3.7.8.7.4 0 .7-.3.7-.8v-4.8-.1-.2c-.1-.2-.2-.3-.4-.4h-.2-4.8c-.4 0-.8.3-.8.7 0 .4.3.8.7.8h3l-4.1 4.2c-.3.3-.3.7 0 1 .1.2.3.2.5.2z"/>
</svg>
