<svg xmlns="http://www.w3.org/2000/svg" width="45" height="45" fill="none" viewBox="0 0 45 45">
    <rect width="45" height="45" fill="#D1FFF2" rx="22.5"/>
    <path fill="#29B68D" d="M31.8 16.5v11c0 1.9-1.2 3.5-2.8 3.5H16.8c-1.6 0-2.8-1.6-2.8-3.5v-11c0-2 1.2-3.5 2.8-3.5H29c1.6 0 2.8 1.5 2.8 3.5zm-1.5 0c0-1.1-.6-2-1.3-2H16.8c-.7 0-1.3.9-1.3 2v11c0 1.1.6 2 1.3 2H29c.7 0 1.3-.9 1.3-2v-11z"/>
    <path fill="#29B68D" d="M27.5 17.398h-5.3c-.4 0-.8.3-.8.8s.3.8.8.8h5.3c.4 0 .8-.3.8-.8s-.4-.8-.8-.8zM27.5 21.2h-5.3c-.4 0-.8.4-.8.8s.3.8.8.8h5.3c.4 0 .8-.3.8-.8s-.4-.8-.8-.8zM27.5 25.102h-5.3c-.4 0-.8.3-.8.8s.3.8.8.8h5.3c.4 0 .8-.3.8-.8s-.4-.8-.8-.8zM19.3 17.398h-.7c-.4 0-.8.3-.8.8s.3.8.8.8h.8c.4 0 .8-.3.8-.8s-.4-.8-.9-.8zM19.3 21.2h-.7c-.4 0-.8.4-.8.8s.3.8.8.8h.8c.4 0 .8-.3.8-.8s-.4-.8-.9-.8zM19.3 25.102h-.7c-.4 0-.8.3-.8.8s.3.8.8.8h.8c.4 0 .8-.3.8-.8s-.4-.8-.9-.8z"/>
</svg>
