<svg xmlns="http://www.w3.org/2000/svg" width="45" height="45" fill="none" viewBox="0 0 45 45">
    <rect width="45" height="45" fill="#D1FFF2" rx="22.5"/>
    <path fill="#29B68D" d="M29.91 19.974c-.68-1.292-1.904-2.312-3.332-2.72-.067-1.496-1.291-2.652-2.787-2.652h-.272v-1.02c0-.408-.272-.68-.68-.68-.408 0-.68.272-.68.68v1.02h-.272c-1.496 0-2.72 1.156-2.788 2.652-1.427.408-2.651 1.428-3.331 2.72-.272.136-.476.34-.68.543-.68.68-1.088 1.632-1.088 2.652 0 1.428.816 2.72 2.108 3.332 1.02 1.495 2.72 2.38 4.555 2.38h4.284c1.835 0 3.535-.884 4.555-2.38 1.292-.612 2.108-1.904 2.108-3.332.068-1.292-.612-2.516-1.7-3.195zm-8.023-4.012h1.904c.68 0 1.224.476 1.36 1.088H20.459c.204-.612.748-1.088 1.428-1.088zm7.275 7.411c0 .204 0 .408-.068.612-.068.612-.272 1.156-.612 1.7-.748 1.224-2.107 1.972-3.535 1.972h-4.284c-1.428 0-2.788-.748-3.535-1.972-.408-.68-.68-1.496-.68-2.244v-.748c0-.68.136-1.292.408-1.836.544-1.155 1.7-2.04 2.991-2.311.204-.068.476-.068.748-.068h4.284c.272 0 .544 0 .748.068 1.291.272 2.447 1.088 2.991 2.311.272.544.544 1.224.544 1.836v.68zM30.251 31.876c.272.272.204.68-.068.952-.136.136-.272.136-.476.136-.204 0-.408-.068-.544-.204-.884-1.02-2.107-1.564-3.467-1.564h-5.78c-1.36 0-2.583.544-3.467 1.564-.272.272-.68.34-.952.068-.272-.272-.34-.68-.068-.952 1.156-1.292 2.788-2.04 4.487-2.04h5.78c1.767 0 3.4.748 4.555 2.04zM22.158 11.816v-.136c0-.408.272-.68.68-.68.408 0 .68.272.68.68v.136c0 .408-.272.68-.68.68-.408 0-.68-.34-.68-.68z"/>
    <path fill="#29B68D" d="M20.05 22.695c.414 0 .748-.335.748-.748s-.334-.748-.747-.748-.748.335-.748.748.335.748.748.748zM25.15 22.695c.413 0 .748-.335.748-.748s-.335-.748-.748-.748-.748.335-.748.748.335.748.748.748zM21.207 23.781h2.72v.068c0 .748-.612 1.36-1.36 1.36-.748 0-1.36-.612-1.36-1.428z"/>
</svg>
