<svg width="140" height="26" viewBox="0 0 140 26" fill="none" xmlns="http://www.w3.org/2000/svg">
<path d="M9.61845 11.833C11.2761 11.9012 12.8242 12.0802 14.3162 12.5784C14.956 12.7921 15.7 13.0085 16.1862 12.4141C16.6897 11.793 16.2209 11.1411 15.8803 10.5721C15.2325 9.49287 14.204 8.9292 13.0486 8.5365C11.7636 8.09838 10.4359 7.77781 9.20571 7.18742C6.90561 6.08412 6.17764 3.68383 7.52939 1.69762C8.46439 0.320491 10.5508 -0.295275 12.3273 0.283091C14.3482 0.9416 15.8402 2.28667 17.0317 3.98704C18.6997 6.36351 19.7967 9.09285 20.2374 11.9626C20.5713 14.0797 21.6773 15.6118 23.5821 16.5642C24.7668 17.1586 25.8942 17.8251 26.6796 18.9297C27.258 19.7432 27.6386 20.6221 27.2566 21.6386C26.8078 22.8407 25.5843 23.1319 24.6426 22.269C23.7677 21.4676 23.2121 20.4377 22.639 19.4213C21.9374 18.1138 20.7305 17.1512 19.2997 16.7578C17.3483 16.1928 15.2458 17.1145 14.0677 18.9725C13.1808 20.3723 12.4649 21.8897 11.3963 23.1639C9.68123 25.2076 7.48664 26.383 4.78716 25.8674C1.09389 25.1649 -0.939069 21.2272 0.463436 17.614C1.81385 14.1412 4.49864 12.3593 8.14916 11.9439C8.4163 11.9132 8.69146 11.8838 8.96395 11.8638C9.21774 11.8477 9.46751 11.8411 9.61845 11.833Z" fill="#001033"/>
<path d="M23.2084 14.2557C22.5245 12.2148 23.143 9.78243 24.5842 8.84876C25.8331 8.07048 27.4704 8.38341 28.3442 9.56738C28.7877 10.1938 28.6782 10.8884 28.025 11.2878C27.6662 11.5035 27.2828 11.6752 26.883 11.7994C24.6563 12.5073 24.5041 12.6008 23.2084 14.2557Z" fill="#001033"/>
<path d="M48.2287 20.0785C48.1192 20.7277 48.0101 21.3791 47.9015 22.0327C47.7679 22.8582 47.6343 23.685 47.4887 24.5105C47.4768 24.582 47.4363 24.6457 47.3765 24.6868C46.5043 25.0354 45.6281 25.3747 44.7051 25.734C44.7812 25.1503 44.8493 24.6173 44.9228 24.0844C45.1258 22.6057 45.3235 21.1257 45.5372 19.6484C45.7763 17.9614 45.9379 16.2571 46.2879 14.5914C46.8115 12.0696 48.5145 10.643 50.9482 10.05C52.1532 9.74047 53.4236 9.80145 54.5934 10.2249C56.0346 10.7512 56.8641 11.8772 57.3664 13.2584C58.6473 16.7606 56.5649 20.7678 52.9932 21.6934C51.6682 22.0367 50.3805 21.9459 49.2532 21.087C48.8805 20.8065 48.5813 20.4379 48.2287 20.0785ZM48.592 16.1956C48.6161 17.2896 48.8872 18.1377 49.6713 18.7495C50.6477 19.5109 52.1985 19.5135 53.2991 18.7415C54.5613 17.8572 55.0182 16.5937 54.946 15.1017C54.9352 14.4213 54.6818 13.7671 54.2314 13.257C53.2684 12.1978 51.4705 12.0389 50.2483 12.9485C49.125 13.7833 48.6668 14.9708 48.592 16.1956Z" fill="#001033"/>
<path d="M126.468 19.938C126.306 20.9038 126.146 21.8588 125.987 22.8138C125.901 23.3268 125.823 23.8397 125.728 24.3499C125.712 24.4479 125.656 24.5348 125.573 24.589C124.71 24.939 123.836 25.2729 122.938 25.6255C123.026 24.975 123.107 24.3579 123.191 23.7408C123.354 22.5476 123.519 21.3548 123.684 20.1624C123.866 18.8468 124.045 17.5297 124.236 16.2141C124.335 15.5382 124.399 14.8503 124.58 14.1944C125.236 11.8249 126.883 10.4825 129.214 9.93351C130.41 9.63211 131.67 9.69537 132.83 10.1152C134.291 10.6495 135.125 11.7968 135.621 13.2047C136.857 16.7096 134.784 20.666 131.227 21.585C129.804 21.951 128.445 21.8107 127.28 20.8156C126.992 20.5393 126.721 20.2463 126.468 19.938ZM133.189 15.2884C133.2 14.3801 132.953 13.5693 132.254 12.9456C131.141 11.9424 129.197 12.0319 128.097 13.1539C127.114 14.157 126.711 15.3819 126.867 16.7764C126.921 17.3183 127.14 17.8308 127.492 18.2457C128.473 19.3971 130.371 19.5306 131.658 18.5409C132.734 17.7181 133.178 16.6054 133.189 15.2884Z" fill="#001033"/>
<path d="M99.724 21.7752H96.9657C97.0191 21.3491 97.0699 20.9351 97.1247 20.5223C97.3277 19.0143 97.5387 17.5076 97.7338 15.9982C97.8112 15.3972 97.8673 14.7961 97.9101 14.1883C97.9982 12.8887 96.9617 12.5147 96.1135 12.675C94.8352 12.9167 94.0565 13.7582 93.7426 14.9737C93.4755 16.0049 93.3179 17.0641 93.1522 18.118C92.9666 19.2975 92.8277 20.4836 92.666 21.667C92.6547 21.7056 92.639 21.7428 92.6193 21.7779H89.873C89.9933 20.883 90.1121 20 90.2324 19.1171C90.4336 17.6185 90.6362 16.1202 90.8401 14.6224L91.3851 10.6153C91.5681 9.26087 91.7604 7.90779 91.9327 6.55203C92.0115 5.93626 91.9942 5.93359 92.6166 5.93359H94.8165C94.683 6.87661 94.5494 7.78891 94.4319 8.7012C94.3143 9.6135 94.1888 10.5285 94.0605 11.4942C94.3143 11.3005 94.52 11.1295 94.7377 10.9786C95.9239 10.1545 97.2088 9.81519 98.622 10.2627C99.9205 10.6657 100.798 11.8765 100.777 13.236C100.742 14.2818 100.603 15.3277 100.471 16.3682C100.266 17.9911 100.027 19.6114 99.8028 21.2329C99.7801 21.4052 99.7534 21.5775 99.724 21.7752Z" fill="#001033"/>
<path d="M73.0965 21.5513C73.1432 21.1626 73.186 20.7966 73.2381 20.3705C72.9896 20.5722 72.7879 20.7311 72.5916 20.8954C70.7657 22.4235 67.3382 22.2712 65.7434 19.7053C64.3018 17.337 64.5089 14.3172 66.2603 12.1679C67.7082 10.4114 69.6063 9.69544 71.8262 9.88511C73.8712 10.0614 76.3677 11.8019 76.6562 14.671C76.7711 15.797 76.6321 16.8789 76.4451 17.9715C76.2581 19.0642 76.0631 20.1915 75.8855 21.3108C75.8548 21.5099 75.7933 21.5887 75.5796 21.578C74.8463 21.566 74.1103 21.578 73.3783 21.578C73.2942 21.5726 73.21 21.5606 73.0965 21.5513ZM73.8672 15.2921C73.8672 15.1585 73.8672 15.025 73.8672 14.8914C73.8111 13.7774 73.0564 12.7355 72.0226 12.4337C70.954 12.1198 69.9188 12.248 68.9985 12.9159C67.8338 13.7627 67.3809 14.9502 67.4117 16.3567C67.429 17.2022 67.6788 17.9502 68.3253 18.5259C69.4887 19.5717 71.531 19.4702 72.657 18.2935C73.4461 17.4954 73.882 16.4142 73.8672 15.2921Z" fill="#001033"/>
<path d="M115.472 21.9249C114.041 21.8821 112.755 21.5161 111.696 20.525C110.734 19.6248 110.249 18.4881 110.145 17.1978C110.011 15.5241 110.315 13.944 111.359 12.5829C112.836 10.6581 114.785 9.69236 117.236 9.87802C119.606 10.0583 121.457 11.7307 121.935 14.0575C122.642 17.4836 120.688 20.7134 117.323 21.631C116.721 21.794 116.089 21.83 115.472 21.9249ZM119.297 15.2463C119.325 14.4218 118.957 13.6337 118.306 13.1265C117.319 12.3251 115.604 12.2703 114.549 13.0704C113.29 14.0228 112.787 15.3491 112.938 16.9066C113.033 17.8843 113.522 18.631 114.434 19.0437C115.587 19.5713 117.231 19.2761 118.114 18.3759C118.91 17.5571 119.288 16.5646 119.297 15.2423V15.2463Z" fill="#001033"/>
<path d="M78.3379 19.9657L79.9554 18.0329C80.647 18.6085 81.4749 18.9967 82.3597 19.1602C82.7763 19.2339 83.1991 19.2657 83.622 19.2551C84.0134 19.2721 84.3703 19.0322 84.5022 18.6633C84.6511 18.299 84.5333 17.8802 84.2164 17.6469C83.5846 17.1273 82.9234 16.6411 82.2769 16.1375C81.6799 15.6727 81.1255 15.1678 80.7729 14.4799C79.87 12.7181 80.7582 10.7158 82.7378 10.0426C83.7556 9.698 84.7734 9.8102 85.7872 10.0426C86.9201 10.2968 87.9677 10.8409 88.8273 11.6214L87.6251 13.5355C86.9706 13.0613 86.2894 12.678 85.5227 12.499C84.9884 12.3748 84.4448 12.288 83.8918 12.4082C83.5993 12.4709 83.3575 12.6165 83.2627 12.901C83.1793 13.1707 83.2797 13.4634 83.5111 13.625C84.0548 14.0711 84.6224 14.4879 85.1728 14.926C85.504 15.1931 85.8406 15.4603 86.1398 15.7541C87.1056 16.6891 87.5517 17.8205 87.163 19.1375C86.7743 20.4545 85.8927 21.4149 84.5089 21.6994C82.1834 22.1736 80.1451 21.4937 78.3379 19.9657Z" fill="#001033"/>
<path d="M44.4906 11.6081L43.2684 13.5355C42.6139 13.0627 41.9421 12.6793 41.17 12.5017C40.6357 12.3801 40.1121 12.2893 39.5672 12.4028C39.2533 12.4683 38.9968 12.6058 38.8993 12.9251C38.8058 13.223 38.9648 13.4661 39.1664 13.6384C39.67 14.0578 40.211 14.4318 40.7105 14.8539C41.2101 15.276 41.7511 15.6994 42.1798 16.2029C43.2644 17.4959 43.1629 19.2524 42.0075 20.5868C41.2996 21.4056 40.382 21.7702 39.3361 21.8343C37.3899 21.9532 35.6735 21.3521 34.1709 20.1206C34.1121 20.0725 34.0493 20.0298 33.9785 19.9777L35.6068 18.0329C36.3857 18.6782 37.3322 19.0887 38.3356 19.2163C38.7346 19.2803 39.1419 19.2717 39.5378 19.1909C40.2056 19.0333 40.4514 18.304 39.9852 17.7924C39.6072 17.377 39.1197 17.0618 38.6883 16.6945C38.0591 16.1602 37.3659 15.6753 36.8263 15.0596C35.8793 13.9943 35.8091 12.411 36.658 11.2661C37.2244 10.4897 38.092 9.98821 39.0476 9.88499C41.0511 9.66727 42.8343 10.2403 44.3838 11.5333C44.4132 11.5586 44.4465 11.5773 44.4906 11.6081Z" fill="#001033"/>
<path d="M106.224 21.7799H103.447C103.848 18.7719 104.258 15.7825 104.665 12.7692H103.551C103.661 11.9464 103.765 11.1529 103.873 10.3355C104.189 10.3355 104.486 10.3275 104.784 10.3355C104.954 10.3422 105.011 10.2847 105.034 10.1111C105.205 8.78605 105.388 7.46102 105.568 6.11328H108.373C108.182 7.51178 107.993 8.9036 107.798 10.3301H109.577C109.463 11.1556 109.354 11.9437 109.243 12.7531H107.468C107.051 15.7719 106.638 18.7706 106.224 21.7799Z" fill="#001033"/>
<path d="M61.3568 5.94922H64.1618C63.4334 11.2378 62.7077 16.5125 61.9846 21.7735H59.209C59.9263 16.4907 60.6422 11.2226 61.3568 5.94922Z" fill="#001033"/>
<path d="M138.304 9.0139C137.538 9.01317 136.917 8.3915 136.918 7.6252C136.918 6.85891 137.54 6.23804 138.306 6.23828C139.073 6.23853 139.694 6.8598 139.694 7.62609C139.693 8.39278 139.071 9.0139 138.304 9.0139ZM138.304 6.43864C137.649 6.43938 137.118 6.97134 137.118 7.62698C137.119 8.28262 137.651 8.81379 138.306 8.81355C138.962 8.8133 139.493 8.28173 139.493 7.62609C139.493 6.97006 138.96 6.43864 138.304 6.43864Z" fill="#001033"/>
<path d="M137.848 8.47759C137.793 8.47759 137.748 8.43273 137.748 8.3774V6.9375H138.662L138.69 6.95887C138.813 7.05745 138.89 7.20245 138.902 7.35959C138.894 7.53119 138.803 7.68825 138.659 7.78167L138.632 7.80438H137.948V8.3734C137.95 8.40076 137.94 8.42751 137.921 8.44726C137.902 8.46701 137.876 8.47799 137.848 8.47759ZM137.948 7.60803H138.561C138.641 7.55195 138.693 7.46354 138.702 7.36627C138.694 7.27875 138.654 7.19722 138.59 7.13786H137.948V7.60803Z" fill="#001033"/>
<path d="M138.801 8.49731C138.775 8.49662 138.75 8.48534 138.732 8.46601C138.714 8.44668 138.704 8.42091 138.705 8.39446C138.705 8.22349 138.675 7.86018 138.522 7.80541C138.488 7.7942 138.463 7.76563 138.455 7.73047C138.448 7.69532 138.46 7.65891 138.487 7.63497C138.513 7.61103 138.551 7.60319 138.585 7.6144C138.922 7.7266 138.908 8.33302 138.906 8.40114C138.905 8.42772 138.893 8.45279 138.873 8.47083C138.854 8.48887 138.828 8.4984 138.801 8.49731Z" fill="#001033"/>
</svg>
