 <svg xmlns="http://www.w3.org/2000/svg" width="74" height="16" viewBox="0 0 74 16">
                                <path fill="#00CBFE" fill-rule="nonzero" d="M.006 7.68C.006 5.225.01 2.769 0 .312 0 .064.072 0 .33 0c3.242.009 6.483.009 9.724 0 .24 0 .333.044.328.288a49.25 49.25 0 0 0 0 2.116c.005.249-.097.286-.332.286-2.293-.009-4.586 0-6.88-.012-.267 0-.332.071-.329.315.015 1.027.015 2.054 0 3.082-.003.23.075.277.304.277 2.302-.008 4.606 0 6.907-.01.242 0 .328.042.323.288-.015.723-.01 1.447.01 2.17.006.237-.121.229-.296.229a2735.4 2735.4 0 0 0-6.85 0c-.393 0-.393 0-.392.381 0 1 .011 2.001-.007 3.003-.005.271.09.315.352.314 2.293-.01 4.585 0 6.88-.01.249 0 .32.053.315.294-.018.714-.012 1.43-.004 2.144 0 .173-.026.252-.241.252-3.298-.006-6.596-.006-9.894 0-.245 0-.247-.107-.247-.275.004-2.483.004-4.967 0-7.452h.005zm36.356 4.52c.292-.724.56-1.388.826-2.052.801-2.003 1.6-4.007 2.399-6.011.08-.202.175-.282.405-.274.75.02 1.5.008 2.25-.005.211-.003.234.063.154.25a9174.432 9174.432 0 0 0-4.488 10.528c-.163.383-.333.764-.486 1.15-.061.157-.137.22-.308.214a27.15 27.15 0 0 0-1.484 0c-.177.005-.264-.055-.334-.224-.67-1.596-1.35-3.187-2.03-4.78-.96-2.26-1.922-4.519-2.884-6.778-.025-.059-.048-.118-.077-.174-.075-.148-.023-.19.125-.187.45.01.9.01 1.35.012.3 0 .602.014.9-.014.25-.023.371.067.468.306.722 1.83 1.455 3.659 2.185 5.482.334.833.67 1.664 1.029 2.558zM55.3 9.819V6.384c0-.349 0-.348-.336-.348-.337 0-.685-.009-1.028.003-.162.005-.223-.035-.22-.225a62.32 62.32 0 0 0 0-1.96c0-.172.052-.221.206-.221.376.006.753-.018 1.13 0 .216.009.252-.084.25-.288-.008-1.021 0-2.044-.01-3.065 0-.216.051-.284.257-.28.65.014 1.301.012 1.953 0 .188-.004.226.066.225.252-.008 1.04 0 2.08-.01 3.12 0 .221.06.277.258.271.684-.016 1.37-.008 2.056-.02.167 0 .217.048.214.233a56.655 56.655 0 0 0 0 1.96c.004.188-.054.226-.216.221-.694-.009-1.388.003-2.08-.008-.179 0-.231.048-.23.244.006 2.08 0 4.16.005 6.243 0 .623.308.95.884.973.487.01.975-.012 1.46-.068.146-.014.176.029.175.171-.005.69-.005 1.381 0 2.071 0 .108-.024.18-.13.195-.953.136-1.91.248-2.855-.027-1.127-.327-1.765-1.185-1.901-2.492-.127-1.25-.016-2.502-.057-3.521zm-42.38 5.585c-.388 0-.774-.007-1.161.004-.187.005-.21-.054-.165-.233.554-2.2 1.103-4.4 1.648-6.602.682-2.745 1.362-5.49 2.04-8.237.062-.251.152-.342.41-.335.74.02 1.48.01 2.219.005.167 0 .225.019.174.222-1.01 4.037-2.016 8.076-3.017 12.118-.236.949-.48 1.896-.705 2.847-.043.185-.12.22-.28.215-.39-.01-.777-.004-1.164-.004zm16.64-7.57c.135.748.103 1.505.117 2.26.005.252-.136.217-.277.217h-8.323c-.395 0-.395 0-.303.402.351 1.526 1.5 2.543 2.977 2.627 1.51.085 2.774-.483 3.79-1.68l.25-.291.347 1.423c.098.408.186.82.293 1.222.041.155.022.247-.1.362-1.209 1.12-2.625 1.609-4.206 1.625-1.502.015-2.849-.432-3.987-1.505-1.04-.976-1.648-2.22-1.896-3.665-.32-1.884-.107-3.683.857-5.326.978-1.673 2.407-2.59 4.233-2.795 1.415-.159 2.739.119 3.911 1.011 1.323 1.006 2.02 2.432 2.318 4.112zm-2.922.12h.001c.096 0 .252.07.2-.17-.158-.716-.436-1.359-.983-1.83-1.65-1.404-4.384-.406-4.907 1.778-.048.2.028.222.184.222.917-.003 1.835 0 2.752 0 .918 0 1.836.004 2.753 0zm46.699-.774c.252.959.271 1.942.26 2.926 0 .15-.049.21-.186.198-.062-.004-.124 0-.187 0-2.767 0-5.535.004-8.303-.006-.259-.001-.288.074-.24.321.307 1.57 1.558 2.674 3.098 2.719 1.445.042 2.66-.498 3.642-1.64.072-.085.144-.17.218-.252a.522.522 0 0 1 .079-.05c.219.904.43 1.79.65 2.673.046.189-.08.256-.177.345a5.76 5.76 0 0 1-3.02 1.482c-1.186.192-2.362.145-3.49-.348-1.658-.727-2.77-2.029-3.292-3.858-.646-2.265-.46-4.452.802-6.444.969-1.526 2.355-2.341 4.06-2.536 1.15-.131 2.254.033 3.287.607 1.48.824 2.352 2.169 2.799 3.863zm-2.786.777c.196 0 .242-.047.188-.262-.302-1.247-.975-2.069-2.194-2.317-1.62-.33-3.187.655-3.65 2.305-.057.203-.047.279.183.275.908-.013 1.816-.005 2.724-.005.916 0 1.832-.005 2.749.004zM52.82 7.62c.002 2.61-.003 5.22.005 7.826 0 .237-.056.307-.283.302a68.496 68.496 0 0 0-2.12 0c-.168 0-.22-.055-.215-.23.012-.352.004-.704.004-1.055-.667.718-1.409 1.231-2.322 1.41-1.413.275-2.774.142-3.957-.804-1.298-1.036-1.714-2.459-1.388-4.107.307-1.569 1.368-2.361 2.754-2.764.686-.198 1.396-.198 2.097-.28.773-.088 1.55-.15 2.324-.23.335-.034.463-.207.492-.56.091-1.1-.368-1.507-1.26-1.75a4.026 4.026 0 0 0-2.333.057c-.751.243-1.21.812-1.458 1.58-.063.192-.123.232-.296.135a73.144 73.144 0 0 0-1.98-1.076c-.175-.091-.122-.195-.075-.322.581-1.585 1.674-2.541 3.231-2.887 1.293-.286 2.59-.275 3.87.106 1.63.486 2.659 1.798 2.856 3.589.037.352.056.706.054 1.06zm-5.065 5.644v.002c1.353-.276 2.537-1.483 2.468-2.946-.012-.247-.072-.306-.293-.277-1.104.146-2.208.277-3.311.423-.29.03-.572.123-.828.27-.447.268-.705.674-.686 1.216.018.542.307.907.76 1.128.39.182.813.265 1.237.241.22.011.438-.008.653-.057z"/>
                            </svg>