<svg width="31" height="29" viewBox="0 0 31 29" fill="none" xmlns="http://www.w3.org/2000/svg">
<path d="M29.7308 0.87929C29.7308 0.87929 29.7308 0.777819 29.8323 0.777819C30.2382 0.574878 30.4411 -0.236884 30.847 0.0675266C31.2529 0.371938 30.7455 0.87929 30.5426 1.28517C29.0205 3.72046 27.397 6.05428 25.0632 7.77927C23.3382 9.19986 21.6132 10.2146 19.3808 9.60574C18.8735 9.50427 18.772 9.70721 18.772 10.1131C18.6705 10.8234 18.5691 11.4322 18.3661 12.041C17.6558 14.6793 15.9308 15.9984 13.1911 15.3896C12.2779 15.1866 11.872 15.1866 12.075 16.3028C12.3794 17.6219 12.1764 18.941 12.3794 20.2601C12.5823 21.3763 10.9588 23.7101 10.147 23.5072C9.13233 23.2028 8.01616 23.5072 7.00146 22.9998C6.4941 22.6954 5.98675 22.5939 5.37793 22.2895C5.37793 22.7969 5.68234 22.9998 5.78381 23.3042C5.88528 23.6086 6.39263 24.116 5.4794 23.7101C5.17499 23.6086 5.37793 24.0145 5.4794 24.2175C5.68234 24.8263 6.08822 25.4351 5.78381 26.1454C3.34852 22.9998 1.42059 19.7528 0 15.8969C1.21764 16.2013 2.02941 16.7087 2.63823 17.419C2.63823 18.0278 2.94264 18.4337 3.55146 18.6366C3.95734 18.8395 4.26176 19.144 4.56617 19.4484C4.97205 19.8542 5.37793 20.0572 5.98675 20.0572C6.59557 20.3616 7.30587 20.5645 8.01616 20.7675C9.2338 21.0719 9.84262 20.7675 10.0456 19.4484C10.35 17.8248 10.4514 16.2013 9.53821 14.6793C9.2338 14.1719 9.13233 13.6646 9.2338 13.0557C9.33527 12.041 9.84262 11.4322 10.9588 11.7366C11.7706 11.9396 12.5823 12.1425 13.3941 12.4469C14.5103 12.8528 15.2206 12.4469 15.525 11.3307C15.8294 10.4175 16.0323 9.50427 16.1338 8.59104C16.3367 7.27192 17.8588 6.05428 19.0764 6.46016C21.4102 7.27192 22.9323 5.95281 24.5558 4.73516C26.0779 3.61899 27.0926 1.89399 28.8176 0.98076C29.122 1.28517 29.4264 1.28517 29.7308 0.87929Z" fill="#00C38B"/>
<path d="M3.44928 18.9401C3.0434 18.5342 1.62281 18.7371 2.63751 17.5195C2.94192 17.8239 3.34781 18.0268 3.65222 18.3313C4.26104 18.7371 3.85516 18.8386 3.44928 18.9401Z" fill="#00C38B"/>
<path d="M8.82634 28.8866C8.01457 28.6836 7.60869 28.3792 7.50722 27.7704C7.50722 27.7704 7.71016 27.5674 7.81163 27.5674C8.42045 27.6689 8.52192 28.1763 8.82634 28.8866Z" fill="#00C38B"/>
<path d="M4.46311 19.7542C4.66605 19.6527 4.86899 19.5513 4.97046 19.4498C5.27487 19.7542 5.68075 19.9572 5.98517 20.2616C5.27487 20.6675 4.86899 20.2616 4.46311 19.7542Z" fill="#00C38B"/>
<path d="M8.01457 20.9687C7.20281 21.0702 6.59399 20.7658 5.98517 20.2584C6.69546 20.2584 7.40575 20.5628 8.01457 20.9687Z" fill="#00C38B"/>
<path d="M29.7292 0.877592C29.5263 1.38494 29.4248 1.8923 28.816 1.28347C29.0189 1.182 29.1204 0.26877 29.7292 0.877592Z" fill="#00C38B"/>
</svg>
