<svg width="80" height="93" viewBox="0 0 80 93" fill="none" xmlns="http://www.w3.org/2000/svg">
<path d="M40 92.5L4.18 71.91C2.91277 71.1797 1.85963 70.1292 1.12604 68.8639C0.392447 67.5985 0.00414106 66.1626 0 64.7L0 23.493L40 0.5L80 23.494V64.674C80 67.648 78.408 70.423 75.82 71.884L40 92.5ZM4.602 26.145V64.675C4.602 66.013 5.323 67.251 6.492 67.92L40 87.198L73.507 67.92C74.0801 67.5936 74.5568 67.1216 74.8888 66.5518C75.2209 65.9819 75.3965 65.3345 75.398 64.675V26.145L40 5.778L4.602 26.145Z" fill="#00263E"/>
<path d="M24.088 65.6549C23.422 65.6549 23.052 65.3069 23.052 64.6609V48.7109H17.279V64.6609C17.279 65.3069 16.909 65.6549 16.243 65.6549H13.036C12.37 65.6549 12 65.3069 12 64.6609V28.2139C12 27.5679 12.37 27.2199 13.036 27.2199H16.243C16.909 27.2199 17.279 27.5679 17.279 28.2139V43.8169H23.052V28.2139C23.052 27.5679 23.422 27.2199 24.088 27.2199H27.295C27.961 27.2199 28.331 27.5679 28.331 28.2139V64.6369C28.331 65.2829 27.961 65.6299 27.295 65.6299H24.088V65.6549ZM36.398 65.6549C35.732 65.6549 35.362 65.3069 35.362 64.6609V28.2139C35.362 27.5679 35.732 27.2199 36.398 27.2199H39.605C40.271 27.2199 40.641 27.5679 40.641 28.2139V60.7859H45.896C46.562 60.7859 46.932 61.1339 46.932 61.7799V64.6369C46.932 65.2829 46.562 65.6299 45.896 65.6299H36.398V65.6549ZM67.975 58.2759C67.975 64.0399 64.201 66.3009 59.884 66.3009C55.444 66.3009 51.669 63.9409 51.669 58.2759V34.5999C51.669 28.9359 55.394 26.5759 60.032 26.5759C64.152 26.5759 67.975 28.4889 67.975 34.2529V39.6189C67.975 40.2649 67.605 40.6129 66.939 40.6129H63.732C63.066 40.6129 62.696 40.2649 62.696 39.6189V35.2459C62.696 32.4389 61.241 31.4199 59.81 31.4199C58.354 31.4199 56.923 32.4139 56.923 35.2459V57.6299C56.923 60.4379 58.354 61.4569 59.81 61.4569C61.265 61.4569 62.696 60.4629 62.696 57.6299V53.8039C62.696 53.1579 63.066 52.8109 63.732 52.8109H66.939C67.605 52.8109 67.975 53.1579 67.975 53.8039V58.2759Z" fill="#00263E"/>
</svg>
