<svg width="54" height="28" viewBox="0 0 54 28" fill="none" xmlns="http://www.w3.org/2000/svg">
<path d="M50.4672 3.25599C49.7728 3.26511 49.3038 2.80828 48.7222 2.58443C47.2101 2.02556 45.7026 1.81387 44.2476 1.19638C43.0302 1.03876 41.8082 0.533953 40.6479 0.317704C37.3984 -0.334084 34.1054 0.114306 30.8156 0.794155C30.0656 0.977631 29.3157 1.16111 28.686 1.69025C27.2462 2.23004 25.9252 2.99976 24.6629 3.82658C23.5734 4.59326 22.3666 5.24574 21.3973 6.35808C21.0547 6.70983 20.5994 7.29455 19.902 7.07222C18.9145 6.79583 17.9887 6.80799 17.0598 6.5887C16.5368 6.42195 16.0122 6.13948 15.4366 6.37854C15.2637 6.43868 15.0909 6.49883 15.0338 6.55745C14.5724 6.67926 14.0524 6.74397 13.5324 6.80868C13.3596 6.86882 13.1281 6.87187 12.9553 6.93201C12.7824 6.99216 12.6096 7.0523 12.4969 7.28528C12.3302 7.80834 12.7375 7.97661 13.0306 8.26212C13.2065 8.43343 13.2666 8.60627 13.4425 8.77758C13.4425 8.77758 13.5011 8.83468 13.5598 8.89179C13.5598 8.89179 13.5598 8.89179 13.6184 8.94889C13.8514 9.06158 14.0828 9.05853 14.3729 9.1126C15.3573 9.15753 16.3989 9.14385 17.3833 9.18878C18.0206 9.23828 18.3708 9.46518 17.9757 10.2227C17.6932 10.7473 17.4678 11.2133 17.3011 11.7363C17.244 11.7949 17.3026 11.852 17.2455 11.9107L17.247 12.0264C17.0277 12.9553 16.4026 13.8316 16.242 14.8176C16.242 14.8176 16.1849 14.8762 16.2435 14.9333L16.3021 14.9904C16.3021 14.9904 16.3021 14.9904 16.3607 15.0475C16.478 15.1617 16.6493 14.9858 16.7665 15.1L16.8252 15.1571C16.7681 15.2158 16.8267 15.2729 16.7696 15.3315C16.7696 15.3315 16.7711 15.4472 16.714 15.5058C15.9701 16.1522 15.9222 16.9052 16.0485 17.7138C16.05 17.8295 16.0516 17.9453 16.1102 18.0024C16.2305 18.348 16.2366 18.8109 16.2998 19.2152C16.3584 19.2723 16.417 19.3294 16.417 19.3294C16.4185 19.4452 16.4771 19.5023 16.4787 19.618C16.4802 19.7337 16.5388 19.7908 16.5388 19.7908C16.5403 19.9066 16.599 19.9637 16.6591 20.1365C16.6606 20.2522 16.7208 20.4251 16.7223 20.5408C16.6637 20.4837 16.5464 20.3695 16.4878 20.3124L16.4292 20.2553C16.3705 20.1982 16.3119 20.1411 16.3119 20.1411L16.2533 20.084C16.1947 20.0268 16.0203 19.9713 15.9617 19.9142C15.7873 19.8586 15.6145 19.9187 15.5033 20.2674C15.7248 23.9106 17.6084 26.3165 21.0955 27.4282C21.5599 27.5378 22.137 27.4145 22.6015 27.5242C24.3435 27.9643 25.7246 27.3674 27.1598 26.4804C28.2448 25.3665 29.2125 24.1385 29.597 22.5708C29.9846 21.2346 29.6222 20.0819 29.374 18.8119C29.374 18.8119 29.374 18.8119 29.3154 18.7548C29.1349 18.2363 29.0116 17.6592 29.004 17.0806C28.8594 14.8833 27.8536 13.2181 26.5593 11.6147C26.3248 11.3862 26.0332 11.2165 25.8619 11.3923C25.2894 11.8628 25.112 11.5758 25.1074 11.2286C25.1059 11.1129 25.0473 11.0558 25.0457 10.9401C25.1028 10.8814 25.0442 10.8243 25.1013 10.7657C25.1584 10.7071 25.1584 10.7071 25.1569 10.5914C25.214 10.5327 25.2125 10.417 25.2696 10.3584C25.3777 9.77821 24.9118 9.55284 24.56 9.21022C24.0925 8.86912 24.0293 8.46483 24.5448 8.05294C25.0603 7.64105 25.4585 7.11495 26.0325 6.76016C27.5294 6.16175 28.9676 5.50623 30.4059 4.85072C33.3981 3.53817 36.5753 3.0913 39.8202 3.3959C40.3433 3.56265 40.9204 3.43932 41.445 3.7218C41.445 3.7218 41.445 3.7218 41.5036 3.7789L41.5622 3.836C41.7967 4.06442 42.0853 4.00275 42.3167 3.99971C44.5788 4.3751 46.8423 4.86622 48.8805 5.8233C49.871 6.33115 50.8631 6.95472 51.9663 7.22959C52.6066 7.51055 53.2499 8.02296 53.9999 7.83948C53.6223 5.52949 52.2168 4.27473 50.4672 3.25599ZM25.7582 21.1165C25.6562 22.1596 25.3196 22.9743 24.457 23.3907C23.3644 23.9259 22.0929 24.0584 20.9821 23.2049C19.1678 21.6661 18.4476 19.7079 18.59 17.3332C18.6799 15.3643 19.4085 13.5606 20.6602 11.9237C20.8315 11.7478 21.06 11.5133 20.9983 11.2247C21.5724 10.87 21.9767 10.8068 22.2188 11.6138C22.2804 11.9024 22.572 12.0722 22.7494 12.3592C23.6318 13.4472 24.5698 14.3609 24.8782 15.8037C25.0601 16.4379 25.2421 17.0721 25.4826 17.7635C25.555 18.8621 25.8016 20.0163 25.7582 21.1165Z" fill="#FEBA3D"/>
<path d="M28.7444 1.63267C27.3664 2.46101 25.9266 3.0008 24.6087 4.00198C23.5777 4.82576 22.4281 5.41961 21.573 6.4147C20.5482 7.7014 19.209 7.08238 18.0487 6.86614C17.237 6.76105 16.4224 6.42452 15.5552 6.49379C14.9194 6.56001 14.2837 6.62624 13.6495 6.8082C13.3609 6.86987 13.1294 6.87291 12.9551 6.81732C12.8394 6.81885 12.7221 6.70464 12.6635 6.64753L12.6049 6.59043C12.5462 6.53333 12.5447 6.4176 12.5447 6.4176C14.3872 5.6989 16.1879 6.1961 18.0441 6.51895C19.1458 6.6781 20.3137 7.47299 21.283 6.36064C23.1659 4.31031 25.5223 3.06398 27.9374 1.87477C28.2244 1.69737 28.4544 1.5786 28.7444 1.63267Z" fill="#FECB6B"/>
<path d="M8.40989 8.90421C8.46852 8.96132 8.46852 8.96132 8.52714 9.01842C8.52714 9.01842 8.58576 9.07552 8.52866 9.13415C8.2477 9.77445 7.61348 9.95641 7.03484 9.96401C5.12305 9.81552 3.86525 10.9895 2.60744 12.1635C1.9222 12.867 1.41283 13.7418 0.960564 14.558C0.56388 15.1998 0.51438 15.8371 0.812065 16.4698C1.05112 17.0454 1.63281 17.2693 2.1513 17.0888C2.78553 16.9069 2.25943 16.5087 2.25486 16.1615C2.24878 15.6986 2.30132 15.2928 2.88148 15.4009C2.88148 15.4009 2.94011 15.458 2.883 15.5166C3.00482 15.978 2.89365 16.3267 3.2454 16.6693C3.59866 17.1277 3.48902 17.5921 2.8548 17.7741C0.719149 18.2072 -0.336091 17.1794 0.0948844 14.743C0.940793 13.0535 1.96258 11.5354 3.62771 10.5297C3.80054 10.4695 3.85764 10.4109 3.97185 10.2936C4.14316 10.1178 4.31295 9.82616 4.60151 9.7645C4.65861 9.70587 4.65861 9.70587 4.71572 9.64725C5.06138 9.52696 5.29132 9.40819 5.63698 9.2879C5.63698 9.2879 5.63698 9.2879 5.75271 9.28637C6.33135 9.27877 6.96709 9.21254 7.48559 9.03211C7.48559 9.03211 7.60131 9.03059 7.65842 8.97196C7.71552 8.91334 7.77415 8.97044 7.83125 8.91182C8.00408 8.85167 8.17691 8.79153 8.40989 8.90421C8.35127 8.84711 8.40989 8.90421 8.40989 8.90421Z" fill="#FEBC43"/>
<path d="M9.52163 9.75614C9.40894 9.98912 9.35336 10.1635 9.1219 10.1665C7.56642 10.7078 6.65884 12.1087 5.45662 13.1084C4.59855 13.872 4.03359 14.9212 3.29277 15.799C2.89304 16.2094 3.30189 16.4934 3.47929 16.7804C3.71835 17.356 3.78305 17.876 2.85571 17.7725C3.19833 17.4207 3.48385 17.1276 2.95623 16.6137C2.66311 16.3282 2.65854 15.981 2.94254 15.5721C3.2235 14.9318 3.73743 14.4042 4.07701 13.821C4.64653 13.119 5.21756 12.5328 5.78708 11.8308C5.95839 11.6549 6.07107 11.422 6.24087 11.1304C6.29797 11.0717 6.29797 11.0717 6.29645 10.956C6.35355 10.8974 6.41066 10.8388 6.41066 10.8388C6.86596 10.254 7.79027 10.1261 8.48007 9.76983L8.53718 9.71121C8.59428 9.65258 8.71001 9.65106 8.76711 9.59244C8.88284 9.59092 8.93994 9.53229 8.99857 9.5894C9.05567 9.53077 9.1143 9.58788 9.23002 9.58635C9.40286 9.52621 9.46148 9.58331 9.52163 9.75614Z" fill="#FED486"/>
<path d="M26.441 11.3859C28.2043 13.4462 28.9306 15.8674 29.1399 18.5847C29.1414 18.7004 29.1414 18.7004 29.0843 18.759C29.0843 18.759 29.0272 18.8177 28.9686 18.7606C28.6138 18.1865 28.6062 17.6078 28.5986 17.0292C28.4555 14.9476 27.3911 13.2254 26.2126 11.6204C26.0367 11.4491 25.9194 11.3349 25.6895 11.4536C25.3438 11.5739 25.6941 11.8008 25.6956 11.9166C25.5227 11.9767 25.5243 12.0924 25.4672 12.1511C25.353 12.2683 25.1786 12.2127 25.1185 12.0399C24.9951 11.4628 24.2406 11.2991 24.1744 10.6633C24.2901 10.6618 24.4645 10.7174 24.5802 10.7159L24.6959 10.7143C24.7545 10.7714 24.8703 10.7699 24.986 10.7684C25.1017 10.7669 25.1604 10.824 25.2175 10.7654C25.739 10.8164 26.2605 10.8674 26.441 11.3859Z" fill="#FEBD45"/>
<path d="M18.1465 9.93358C17.864 10.4582 17.583 11.0985 17.3592 11.6802C17.3607 11.7959 17.3036 11.8545 17.1894 11.9718C17.1894 11.9718 17.1323 12.0304 17.0737 11.9733C16.9488 11.2804 17.5214 10.8099 17.7452 10.2282C18.1944 9.18059 17.5572 9.13109 16.9214 9.19732C15.9956 9.20949 15.0728 9.45311 14.1485 9.581C13.9757 9.64115 13.8013 9.58557 13.6856 9.58709C13.394 9.4173 13.0468 9.42186 12.8123 9.19344L12.8108 9.07772C12.8093 8.96199 12.8664 8.90336 12.8664 8.90336C12.9806 8.78612 13.1549 8.8417 13.3278 8.78155C13.3278 8.78155 13.3278 8.78155 13.3849 8.72293C13.5006 8.72141 13.5592 8.77851 13.6163 8.71989C14.9465 8.64453 16.2225 8.85926 17.497 8.95826C18.25 9.00624 18.4845 9.23465 18.1465 9.93358Z" fill="#FED487"/>
<path d="M25.5696 6.65225C25.1158 7.3527 23.906 7.77372 24.0324 8.5823C24.0986 9.21804 25.1478 9.78299 25.6769 10.4127C25.97 10.6982 26.3789 10.9822 26.385 11.4451C26.0332 11.1025 25.6845 10.9913 25.166 11.1717C24.9917 11.1161 24.7587 11.0035 24.6985 10.8306C24.6399 10.7735 24.6384 10.6578 24.5798 10.6007C24.5782 10.485 24.5196 10.4279 24.5181 10.3121C24.5105 9.73349 24.1588 9.39087 23.807 9.04825C23.3966 8.64852 23.3334 8.24424 23.7918 7.89097C24.4215 7.36183 24.9354 6.83421 25.5696 6.65225Z" fill="#FED07C"/>
<path d="M50.4688 3.25773C49.6617 3.49984 49.1326 2.87017 48.4938 2.70495C47.332 2.37297 46.2843 1.92374 45.0654 1.65039C44.7167 1.53923 44.4837 1.42654 44.1906 1.14102C46.397 1.69077 48.4877 2.24203 50.4688 3.25773Z" fill="#FED27D"/>
<path d="M26.9267 26.3659C25.9544 27.2468 24.8047 27.8406 23.4716 27.6845C22.6013 27.5223 21.7357 27.7073 20.921 27.3708C21.2682 27.3662 21.6138 27.2459 21.9039 27.3C23.6444 27.6244 25.3171 27.1973 26.9267 26.3659Z" fill="#FECA6B"/>
<path d="M11.8052 7.41019C11.8067 7.52591 11.8067 7.52591 11.8067 7.52591C11.3514 8.11064 10.7187 8.40832 10.0259 8.53317L9.91013 8.5347L9.8515 8.47759L9.79288 8.42049C9.79288 8.42049 9.73425 8.36338 9.79136 8.30476C9.78984 8.18903 9.84542 8.01468 9.90252 7.95606C10.0167 7.83881 10.0152 7.72308 10.1294 7.60583L10.1865 7.54721C10.2421 7.37285 10.1249 7.25865 10.1233 7.14292C10.4675 6.9069 10.8101 6.55515 11.3347 6.83763C11.4519 6.95184 11.8006 7.063 11.8052 7.41019Z" fill="#FEC65D"/>
<path d="M16.885 15.2159C16.8294 15.3903 16.9497 15.736 16.7768 15.7961C15.6256 16.2742 16.2751 17.2495 16.2271 18.0025C16.1114 18.0041 16.1114 18.0041 16.0527 17.947C15.8198 17.8343 15.8738 17.5442 15.7551 17.3143C15.6858 16.4471 15.6736 15.5212 16.0102 14.7066C16.0673 14.6479 16.1259 14.705 16.1259 14.705C16.1259 14.705 16.1259 14.705 16.1845 14.7622L16.2431 14.8193L16.2447 14.935L16.3033 14.9921C16.3619 15.0492 16.4205 15.1063 16.4776 15.0477C16.4776 15.0477 16.5934 15.0461 16.652 15.1033L16.7106 15.1604C16.7692 15.2175 16.8279 15.2746 16.885 15.2159Z" fill="#FECB6E"/>
<path d="M3.62854 10.5268C2.08066 11.6467 1.17613 13.2791 0.0957226 14.7401C0.65003 12.8809 1.78754 11.3612 3.62854 10.5268Z" fill="#FEE2AC"/>
<path d="M29.0807 18.5273C29.4446 19.7958 29.9829 21.1198 29.3052 22.402C29.4042 21.1274 29.2147 19.9146 28.9665 18.6446C29.0236 18.586 29.0236 18.586 29.0236 18.586L29.0807 18.5273Z" fill="#FECF7B"/>
<path d="M17.3022 11.6213C17.2017 12.7802 16.4609 13.658 16.186 14.7612C16.186 14.7612 16.186 14.7612 16.1274 14.7041C16.0687 14.647 16.0687 14.647 16.0101 14.5899C16.1122 13.5468 16.6802 12.7291 17.0152 11.7987L17.0723 11.7401C17.188 11.7386 17.2451 11.68 17.3022 11.6213Z" fill="#FEC151"/>
<path d="M10.3582 7.3733C10.2455 7.60628 10.0742 7.78215 9.90135 7.8423C9.67141 7.96107 9.44148 8.07984 9.26865 8.13998C9.26865 8.13998 9.26865 8.13998 9.21154 8.19861C9.21154 8.19861 9.21154 8.19861 9.15444 8.25723C8.92298 8.26027 8.69305 8.37904 8.51717 8.20773L8.45855 8.15063C8.45703 8.0349 8.45551 7.91917 8.51261 7.86055C8.51109 7.74482 8.6253 7.62757 8.6824 7.56895C8.91082 7.33445 9.31662 7.38699 9.54504 7.15249C9.71787 7.09235 9.89222 7.14793 10.0651 7.08778C10.1823 7.20199 10.3551 7.14185 10.3582 7.3733Z" fill="#FEC355"/>
<path d="M12.4872 6.35879C12.5458 6.4159 12.6044 6.473 12.6631 6.5301L12.606 6.58873C12.4933 6.8217 12.322 6.99758 12.2093 7.23055C12.1537 7.40491 11.9824 7.58078 11.8636 7.35084C11.8636 7.35084 11.8636 7.35084 11.805 7.29374C11.6862 7.06381 11.2233 7.06989 11.2188 6.7227C11.6215 6.54379 11.9657 6.30777 12.4872 6.35879Z" fill="#FEBC43"/>
<path d="M41.1537 3.55333L41.0966 3.61195L41.0395 3.67058C40.5165 3.50383 39.8823 3.68579 39.4719 3.28606C39.9934 3.33708 40.569 3.09802 41.1537 3.55333Z" fill="#FECC6F"/>
<path d="M16.3143 20.2585C16.2572 20.3172 16.2572 20.3172 16.3143 20.2585C16.3158 20.3743 16.2587 20.4329 16.143 20.4344C15.8514 20.2646 15.6725 19.8619 15.2712 20.1565C15.0938 19.8695 15.2065 19.6365 15.4349 19.402C15.8407 19.4545 15.9024 19.7431 16.0798 20.0301C16.0813 20.1459 16.1986 20.2601 16.3143 20.2585Z" fill="#FED78F"/>
<path d="M8.62302 7.39697C8.62302 7.39697 8.62454 7.5127 8.56744 7.57132C8.56896 7.68705 8.45475 7.8043 8.39765 7.86292C8.28344 7.98017 8.28496 8.0959 8.34511 8.26873C8.11822 8.61896 7.82813 8.5649 7.59668 8.56794L7.48095 8.56946C7.48095 8.56946 7.48095 8.56946 7.47943 8.45373C7.47487 8.10655 7.76343 8.04488 7.93322 7.75328C8.10605 7.69313 8.27584 7.40153 8.62302 7.39697Z" fill="#FEE0A8"/>
<path d="M9.42919 7.15106C9.14519 7.55991 8.3922 7.51193 8.40132 8.2063L8.34422 8.26493L8.28712 8.32355C7.93385 7.8652 8.39524 7.74339 8.56503 7.45179C8.85207 7.27439 9.08049 7.0399 9.42919 7.15106Z" fill="#FED27F"/>
<path d="M4.6033 9.76352C4.31778 10.0566 4.09241 10.5226 3.6295 10.5287C3.91502 10.2356 4.08328 9.82823 4.6033 9.76352Z" fill="#FEE2AC"/>
<path d="M11.8063 7.41221C11.922 7.41069 12.0948 7.35054 12.0933 7.23481C11.6784 6.4879 12.3172 6.65313 12.6628 6.53284C13.3047 6.92952 13.8201 6.51763 14.4559 6.4514C14.803 6.44684 15.1502 6.44228 15.556 6.49482C14.8091 6.90975 13.9404 6.8633 13.1905 7.04677C13.0176 7.10692 12.7275 7.05286 12.7306 7.28431C12.5608 7.57591 12.678 7.69012 12.9681 7.74418C13.3755 7.91245 13.4386 8.31674 13.6747 8.66088C13.6176 8.71951 13.5605 8.77813 13.5605 8.77813C13.2118 8.66697 12.809 8.84588 12.4603 8.73471C12.2182 7.92766 11.9372 8.56797 11.5916 8.68826C11.2459 8.80855 10.9002 8.92884 10.4959 8.99202C9.97745 9.17246 9.46047 9.46862 8.9435 9.76479C8.07782 9.94979 7.38801 10.3061 6.6411 10.721C6.46827 10.7812 6.29544 10.8413 6.23986 11.0157C6.08375 12.3488 4.81835 12.9442 4.25339 13.9934C3.91381 14.5766 3.63286 15.2169 2.94305 15.5732C2.07737 15.7582 2.54789 16.3307 2.7268 16.7335C3.02145 17.1347 3.02297 17.2505 2.50447 17.4309C1.35175 17.7933 0.183828 16.9984 0.336889 15.4338C0.601116 13.5205 3.90857 9.77308 6.1645 9.68556C6.62742 9.67948 7.14895 9.7305 7.66745 9.55006C8.01311 9.42977 8.30015 9.25238 8.52856 9.01788C8.64277 8.90063 8.75698 8.78338 8.92981 8.72324C9.27547 8.60294 9.56251 8.42555 9.9097 8.42099C10.5424 8.1233 11.1736 7.70989 11.8063 7.41221Z" fill="#FEBB3E"/>
<path d="M22.0905 10.6896C23.7381 12.7514 25.4443 14.8703 25.5394 17.7049C25.3575 17.0707 25.0598 16.438 24.9349 15.7451C24.5695 14.361 23.63 13.3316 22.8062 12.3007C22.5717 12.0723 22.3958 11.9009 22.2755 11.5553C22.0921 10.8053 21.6291 10.8114 21.0551 11.1662C21.0459 10.4718 21.9147 10.5183 22.0905 10.6896Z" fill="#FEC968"/>
<path d="M25.412 25.5773C25.648 25.9214 25.4767 26.0973 25.2468 26.216C25.0183 26.4505 24.6727 26.5708 24.4953 26.2838C24.2593 25.9397 24.7793 25.8749 24.8334 25.5849C25.0031 25.2933 25.2932 25.3473 25.412 25.5773Z" fill="#FEC55A"/>
<path d="M16.1444 20.4329C16.2015 20.3742 16.2586 20.3156 16.3158 20.257C16.6028 20.0796 16.4239 19.6768 16.5937 19.3852C16.9469 19.8436 16.8959 20.3651 16.9621 21.0009C16.5563 20.9483 16.3789 20.6613 16.1444 20.4329Z" fill="#FEC964"/>
<path d="M24.69 10.2502C24.8674 10.5373 25.0448 10.8243 25.2792 11.0527C24.875 11.1159 24.5247 10.889 24.2902 10.6606C24.4044 10.5434 24.5187 10.4261 24.69 10.2502Z" fill="#FEC253"/>
<path d="M16.3663 15.2792C16.0191 15.2838 16.1318 15.0508 16.1874 14.8765C16.3602 14.8163 16.5902 14.6976 16.8216 14.6945C17.0531 14.6915 17.286 14.8042 16.8833 14.9831C16.7105 15.0432 16.6564 15.3333 16.3663 15.2792Z" fill="#FEC151"/>
<path d="M23.4641 26.9931C23.1695 26.5919 23.3408 26.416 23.7451 26.3528C24.0397 26.7541 23.694 26.8743 23.4641 26.9931Z" fill="#FED890"/>
<path d="M23.464 26.9941C23.6354 26.8182 23.8067 26.6424 23.745 26.3538C23.9178 26.2937 24.1493 26.2906 24.0937 26.465C24.0396 26.755 23.8112 26.9895 23.464 26.9941Z" fill="#FECE73"/>
<path d="M16.3653 15.2808C16.5366 15.1049 16.6493 14.872 16.8823 14.9846C16.8838 15.1004 16.8853 15.2161 16.8282 15.2747C16.7726 15.4491 16.5412 15.4521 16.3653 15.2808Z" fill="#FEDB9C"/>
<path d="M8.35215 8.84438C8.63919 8.66698 8.92623 8.48959 9.21175 8.19647C9.32748 8.19495 9.329 8.31068 9.38762 8.36778C9.33204 8.54213 9.16073 8.71801 8.92927 8.72105C8.81507 8.8383 8.70086 8.95554 8.52651 8.89996C8.4694 8.95859 8.41078 8.90148 8.35215 8.84438Z" fill="#FED27F"/>
<path d="M4.25228 13.9925C4.24467 13.4138 4.76317 13.2334 5.04869 12.9403C5.38979 12.4728 5.90676 12.1766 5.83901 11.4252C5.77583 11.0209 6.29432 10.8404 6.63846 10.6044C7.38537 10.1895 8.07366 9.71745 9.00101 9.82101C7.03819 10.194 6.25091 11.9406 4.99463 13.2304C4.76621 13.4649 4.5378 13.6993 4.25228 13.9925Z" fill="#FEBC43"/>
<path d="M8.94224 9.76424C9.39907 9.29525 9.85742 8.94198 10.4916 8.76002C10.6706 9.16279 10.3835 9.34018 10.0394 9.5762C9.86654 9.63635 9.6366 9.75512 9.46377 9.81526C9.28942 9.75968 9.11507 9.7041 8.94224 9.76424Z" fill="#FEBC43"/>
<path d="M10.0977 9.51672C10.2675 9.22512 10.3801 8.99214 10.5499 8.70054C10.8986 8.81171 11.1857 8.63431 11.5313 8.51402C11.877 8.39373 12.2257 8.5049 12.5173 8.67469C12.8074 8.72875 13.2086 8.43411 13.5033 8.83535C13.2147 8.89702 13.0419 8.95716 12.7533 9.01883C12.0034 9.20231 11.2473 8.92287 10.6177 9.45201C10.502 9.45353 10.2705 9.45658 10.0977 9.51672Z" fill="#FEC356"/>
<path d="M9.33022 8.43009C9.50305 8.36995 9.61878 8.36843 9.73299 8.25118C9.79161 8.30828 9.85023 8.36539 9.90886 8.42249C9.62334 8.71561 9.3363 8.89301 8.93049 8.84046C9.0447 8.72322 9.21601 8.54734 9.33022 8.43009Z" fill="#FEBC43"/>
<path d="M12.5166 8.67523C12.2265 8.62117 11.8207 8.56862 11.5306 8.51456C11.5877 8.45594 11.6448 8.39731 11.6448 8.39731C12.1077 8.39123 11.807 7.52707 12.33 7.69382C12.796 7.91919 12.1077 8.39123 12.5166 8.67523Z" fill="#FEBC43"/>
</svg>
