<svg xmlns="http://www.w3.org/2000/svg" width="45" height="45" fill="none" viewBox="0 0 45 45">
    <rect width="45" height="45" fill="#E4EEFF" rx="22.5"/>
    <path fill="#123399" fill-rule="evenodd" d="M26.425 28.172H23.1c-.373 0-.675-.303-.675-.675 0-.373.302-.675.675-.675h2.651v-6.506h-10.4v7.18c0 .373-.302.676-.675.676-.373 0-.675-.303-.675-.675V19.64c0-.372.302-.675.675-.675h11.75c.373 0 .675.303.675.675v7.857c0 .372-.302.675-.675.675z" clip-rule="evenodd"/>
    <mask id="prefix__a" width="14" height="9" x="17" y="16" maskUnits="userSpaceOnUse">
        <path fill="#fff" fill-rule="evenodd" d="M17.987 16h12.14v8.565h-12.14V16z" clip-rule="evenodd"/>
    </mask>
    <g mask="url(#prefix__a)">
        <path fill="#123399" fill-rule="evenodd" d="M29.453 24.565c-.372 0-.675-.303-.675-.675v-6.54H18.662c-.372 0-.675-.303-.675-.676 0-.372.303-.675.675-.675h10.791c.373 0 .675.303.675.675v7.216c0 .372-.302.675-.675.675z" clip-rule="evenodd"/>
    </g>
    <mask id="prefix__b" width="7" height="7" x="16" y="23" maskUnits="userSpaceOnUse">
        <path fill="#fff" fill-rule="evenodd" d="M16.3 23.012h6.276v6.272H16.3v-6.272z" clip-rule="evenodd"/>
    </mask>
    <g mask="url(#prefix__b)">
        <path fill="#123399" fill-rule="evenodd" d="M17.514 29.217l1.75-1.75.739 1.278c.042.074.125.118.211.112.087-.007.162-.062.193-.142l2.152-5.395c.034-.083.014-.179-.05-.242-.064-.064-.159-.083-.243-.05l-5.396 2.15c-.081.033-.135.108-.142.194-.007.086.038.169.112.212l1.277.737-1.75 1.75c-.042.042-.067.1-.067.16s.025.117.067.16l.828.826c.087.09.23.09.319 0z" clip-rule="evenodd"/>
    </g>
</svg>
