<svg xmlns="http://www.w3.org/2000/svg" width="45" height="45" fill="none" viewBox="0 0 45 45">
    <rect width="45" height="45" fill="#E4EEFF" rx="22.5"/>
    <path fill="#123399" d="M32.684 18.58c-.224-.104-.671-.104-.895 0l-3.579 2.372v-2.476c0-1.444-1.118-2.476-2.349-2.476H15.35C14.119 16 13 17.135 13 18.476v8.048C13 27.865 14.118 29 15.349 29h10.4c1.343 0 2.35-1.135 2.35-2.476V24.15l3.578 2.373c.112.103.336.103.447.103.112 0 .224 0 .336-.103.224-.103.447-.413.447-.722v-6.5c.224-.31 0-.62-.223-.723zm-6.375 8.047c0 .413-.224.825-.56.825h-10.4c-.224 0-.56-.31-.56-.825v-8.15c0-.413.224-.826.56-.826h10.4c.224 0 .56.31.56.825v8.151zm5.144-2.27l-2.796-1.754 2.685-1.754v3.508h.111z"/>
</svg>
