<svg xmlns="http://www.w3.org/2000/svg" width="45" height="45" fill="none" viewBox="0 0 45 45">
    <rect width="45" height="45" fill="#FFE5E6" rx="22.5"/>
    <g fill="#FF4651" clip-path="url(#prefix__clip0)">
        <path d="M20.005 20.926c0 .444-.37.815-.815.815-.445 0-.815-.37-.815-.815 0-.445.37-.815.815-.815.444-.074.815.296.815.815zM20.45 22.926h2.962V23c0 .815-.666 1.481-1.481 1.481-.815 0-1.482-.666-1.482-1.555zM25.56 20.926c0 .444-.371.815-.816.815-.444 0-.814-.37-.814-.815 0-.445.37-.815.814-.815.445-.074.815.296.815.815z"/>
        <path d="M29.857 18.778c-.74-1.407-2.074-2.519-3.63-2.963-.074-1.63-1.407-2.889-3.037-2.889h-.222v-1.111c0-.444-.37-.74-.74-.74-.445 0-.742.296-.742.74v1.111h-.296c-1.63 0-2.963 1.26-3.037 2.889-1.555.444-2.889 1.556-3.63 2.963-.296.148-.518.37-.74.593-.74.74-1.185 1.777-1.185 2.888 0 1.556.888 2.963 2.296 3.704 1.111 1.63 2.963 2.593 4.963 2.593h4.667c2 0 3.851-.963 4.962-2.593 1.408-.667 2.297-2.074 2.297-3.704.074-1.407-.667-2.74-1.926-3.481zm-8.667-4.37h2.074c.741 0 1.334.518 1.482 1.185H19.635c.222-.667.814-1.185 1.555-1.185zm7.926 8.074c0 .222 0 .444-.074.666-.074.667-.296 1.26-.667 1.852-.814 1.334-2.296 2.148-3.851 2.148h-4.667c-1.556 0-3.037-.814-3.852-2.148-.444-.74-.74-1.555-.74-2.444v-.815c0-.74.147-1.407.444-2 .592-1.333 1.852-2.222 3.259-2.519.222-.074.518-.074.815-.074h4.666c.297 0 .593 0 .815.074 1.408.297 2.667 1.186 3.26 2.519.296.593.444 1.333.444 2v.74h.148z"/>
        <path d="M20.005 20.926c0 .444-.37.815-.815.815-.445 0-.815-.37-.815-.815 0-.445.37-.815.815-.815.444-.074.815.296.815.815zM20.45 22.926h2.962V23c0 .815-.666 1.481-1.481 1.481-.815 0-1.482-.666-1.482-1.555zM25.56 20.926c0 .444-.371.815-.816.815-.444 0-.814-.37-.814-.815 0-.445.37-.815.814-.815.445-.074.815.296.815.815zM30.302 31.746c.296.296.222.74-.075 1.037-.148.148-.296.148-.518.148-.222 0-.444-.074-.593-.222-.962-1.112-2.296-1.704-3.777-1.704h-6.297c-1.481 0-2.815.593-3.777 1.704-.297.296-.741.37-1.038.074-.296-.297-.37-.741-.074-1.037 1.26-1.408 3.037-2.223 4.89-2.223h6.296c1.926 0 3.703.815 4.963 2.223zM21.484 9.893v-.148c0-.445.297-.741.741-.741.445 0 .74.296.74.74v.149c0 .444-.295.74-.74.74-.444 0-.74-.37-.74-.74z"/>
        <path d="M20.005 20.93c0 .444-.37.814-.815.814-.445 0-.815-.37-.815-.814 0-.445.37-.815.815-.815.444-.074.815.296.815.815zM25.56 20.93c0 .444-.371.814-.816.814-.444 0-.814-.37-.814-.814 0-.445.37-.815.814-.815.445-.074.815.296.815.815zM23.412 22.934c0 .889-.666 1.555-1.481 1.555-.815 0-1.482-.666-1.482-1.481v-.074h2.963z"/>
    </g>
    <defs>
        <clipPath id="prefix__clip0">
            <path fill="#fff" d="M12.598 9H31.857V33H12.598z"/>
        </clipPath>
    </defs>
</svg>
