<svg xmlns="http://www.w3.org/2000/svg" width="45" height="45" fill="none" viewBox="0 0 45 45">
    <rect width="45" height="45" fill="#FFE5E6" rx="22.5"/>
    <path fill-rule="evenodd" stroke="#FF4651" stroke-linecap="round" stroke-linejoin="round" stroke-width="1.617" d="M31 26.728v2.559c0 .237-.048.473-.143.69-.096.218-.236.414-.411.574-.176.161-.382.283-.608.359-.226.077-.465.105-.702.083-2.63-.285-5.156-1.182-7.376-2.62-2.066-1.308-3.817-3.056-5.128-5.117-1.446-2.226-2.345-4.76-2.625-7.396-.021-.237.007-.474.084-.699.074-.224.197-.43.356-.605.16-.175.355-.315.572-.41.217-.096.452-.146.69-.146h2.563c.415-.005.817.142 1.132.413.314.27.52.644.578 1.054.108.818.308 1.623.598 2.397.116.306.14.637.072.957-.068.319-.227.611-.457.843l-.974.973c-.066.065-.078.168-.032.246 1.187 2.03 2.88 3.72 4.914 4.905.079.046.182.033.246-.032l.974-.974c.233-.229.527-.386.847-.455.32-.068.652-.043.957.072.777.29 1.582.49 2.402.597.415.058.795.267 1.065.587.272.319.416.726.405 1.145z" clip-rule="evenodd"/>
</svg>
